<svg width="410" height="100" viewBox="0 0 410 100" fill="none" xmlns="http://www.w3.org/2000/svg">
<g clip-path="url(#clip0_157_17)">
<path d="M402.1 7.9C402.1 3.6 398.6 0 394.2 0H15.7C11.4 0 7.8 3.5 7.8 7.9C3.5 7.9 0 11.4 0 15.7V84.3C0 88.6 3.5 92.2 7.9 92.2C7.9 96.5 11.4 100.1 15.8 100.1H394.4C398.7 100.1 402.3 96.6 402.3 92.2C406.6 92.2 410.2 88.7 410.2 84.3V15.7C410 11.4 406.5 7.9 402.1 7.9Z" fill="#ED8B21"/>
<path d="M394.3 94.9002H15.7C14.2 94.9002 13 93.6002 13 92.2002V87.0002H7.7C6.2 87.0002 5 85.7002 5 84.3002V15.7002C5 14.2002 6.3 13.0002 7.7 13.0002H13V7.9002C13 6.4002 14.3 5.2002 15.7 5.2002H394.3C395.8 5.2002 397 6.5002 397 7.9002V13.1002H402.2C403.7 13.1002 404.9 14.4002 404.9 15.8002V84.4002C404.9 85.9002 403.6 87.1002 402.2 87.1002H397V92.3002C396.9 93.7002 395.8 94.9002 394.3 94.9002ZM7.7 14.5002C7 14.5002 6.3 15.1002 6.3 15.9002V84.5002C6.3 85.2002 6.9 85.9002 7.7 85.9002H13.6C13.9 85.9002 14.3 86.2002 14.3 86.6002V92.5002C14.3 93.2002 14.9 93.9002 15.7 93.9002H394.3C395 93.9002 395.7 93.3002 395.7 92.5002V86.6002C395.7 86.3002 396 85.9002 396.4 85.9002H402.3C403 85.9002 403.7 85.3002 403.7 84.5002V15.7002C403.7 15.0002 403.1 14.3002 402.3 14.3002H396.4C396.1 14.3002 395.7 14.0002 395.7 13.6002V7.9002C395.7 7.2002 395.1 6.5002 394.3 6.5002H15.7C15 6.5002 14.3 7.1002 14.3 7.9002V13.8002C14.3 14.1002 14 14.5002 13.6 14.5002H7.7Z" fill="white"/>
<path d="M347 69.2999H326.7C326 69.2999 325.3 68.6999 325.3 67.8999C325.3 67.1999 325.9 66.4999 326.7 66.4999H343.8L338.7 60.9999C338.1 60.3999 338.2 59.4999 338.8 59.0999C339.4 58.4999 340.3 58.5999 340.7 59.1999L348 66.9999C348.4 67.3999 348.5 67.9999 348.3 68.4999C348 68.9999 347.6 69.2999 347 69.2999Z" fill="white"/>
<path d="M64.5355 76.4969C64.1688 76.4969 63.8755 76.3796 63.6555 76.1449C63.4502 75.9103 63.3475 75.6316 63.3475 75.3089C63.3475 74.9716 63.4502 74.6929 63.6555 74.4729C63.8755 74.2383 64.1688 74.1209 64.5355 74.1209H71.2675V71.7229H66.9115C66.5448 71.7229 66.2515 71.6056 66.0315 71.3709C65.8115 71.1216 65.7015 70.8356 65.7015 70.5129C65.7015 70.1756 65.8115 69.8896 66.0315 69.6549C66.2515 69.4203 66.5448 69.3029 66.9115 69.3029H71.2675V67.2569H67.0215C66.6548 67.2569 66.3542 67.1396 66.1195 66.9049C65.8995 66.6556 65.7895 66.3623 65.7895 66.0249C65.7895 65.8636 65.8262 65.6949 65.8995 65.5189C65.6062 65.7536 65.3128 65.9736 65.0195 66.1789C64.7262 66.3696 64.4402 66.5529 64.1615 66.7289C63.7948 66.9636 63.4208 67.0663 63.0395 67.0369C62.6582 67.0076 62.3575 66.8316 62.1375 66.5089C61.9175 66.1716 61.8588 65.8343 61.9615 65.4969C62.0788 65.1596 62.2988 64.8883 62.6215 64.6829C63.4868 64.1696 64.3888 63.5536 65.3275 62.8349C66.2808 62.1163 67.1902 61.3756 68.0555 60.6129C68.9355 59.8356 69.6835 59.1169 70.2995 58.4569C71.0622 57.6356 71.8175 57.2176 72.5655 57.2029C73.3282 57.1883 74.1568 57.6136 75.0515 58.4789C75.6822 59.0803 76.4082 59.7329 77.2295 60.4369C78.0655 61.1263 78.9455 61.8083 79.8695 62.4829C80.8082 63.1429 81.7322 63.7296 82.6415 64.2429C82.9642 64.4189 83.1768 64.6976 83.2795 65.0789C83.3968 65.4456 83.3528 65.7903 83.1475 66.1129C82.9128 66.4796 82.5902 66.6923 82.1795 66.7509C81.7835 66.7949 81.3948 66.6996 81.0135 66.4649C80.1042 65.8783 79.1728 65.2329 78.2195 64.5289C77.2808 63.8103 76.3788 63.0696 75.5135 62.3069C74.6628 61.5443 73.9148 60.8109 73.2695 60.1069C72.8735 59.6816 72.4702 59.6963 72.0595 60.1509C71.4142 60.8403 70.6222 61.6029 69.6835 62.4389C68.7448 63.2749 67.7915 64.0743 66.8235 64.8369C66.8675 64.8223 66.9335 64.8149 67.0215 64.8149H78.1535C78.5202 64.8149 78.8135 64.9323 79.0335 65.1669C79.2535 65.4016 79.3635 65.6876 79.3635 66.0249C79.3635 66.3623 79.2535 66.6556 79.0335 66.9049C78.8135 67.1396 78.5202 67.2569 78.1535 67.2569H74.0175V69.3029H78.2855C78.6522 69.3029 78.9382 69.4203 79.1435 69.6549C79.3635 69.8896 79.4735 70.1756 79.4735 70.5129C79.4735 70.8356 79.3635 71.1216 79.1435 71.3709C78.9382 71.6056 78.6522 71.7229 78.2855 71.7229H74.0175V74.1209H80.7055C81.0722 74.1209 81.3582 74.2383 81.5635 74.4729C81.7835 74.6929 81.8935 74.9716 81.8935 75.3089C81.8935 75.6316 81.7835 75.9103 81.5635 76.1449C81.3582 76.3796 81.0722 76.4969 80.7055 76.4969H64.5355ZM126.17 70.8869C124.952 70.8869 124.006 70.7696 123.332 70.5349C122.672 70.3003 122.21 69.9043 121.946 69.3469C121.696 68.7749 121.572 68.0049 121.572 67.0369C121.572 66.0543 121.696 65.2843 121.946 64.7269C122.21 64.1696 122.672 63.7736 123.332 63.5389C124.006 63.3043 124.952 63.1869 126.17 63.1869H127.16V58.1049C127.16 57.6796 127.292 57.3423 127.556 57.0929C127.834 56.8289 128.164 56.6969 128.546 56.6969C128.927 56.6969 129.25 56.8289 129.514 57.0929C129.792 57.3423 129.932 57.6796 129.932 58.1049V59.2049H137.17C137.492 59.2049 137.764 59.3223 137.984 59.5569C138.204 59.7769 138.314 60.0483 138.314 60.3709C138.314 60.6936 138.204 60.9723 137.984 61.2069C137.764 61.4269 137.492 61.5369 137.17 61.5369H129.932V63.1869H131.692C132.909 63.1869 133.848 63.3043 134.508 63.5389C135.182 63.7736 135.652 64.1696 135.916 64.7269C136.18 65.2843 136.312 66.0543 136.312 67.0369C136.312 68.0049 136.18 68.7749 135.916 69.3469C135.652 69.9043 135.182 70.3003 134.508 70.5349C133.848 70.7696 132.909 70.8869 131.692 70.8869H126.17ZM126.192 68.5549H131.692C132.205 68.5549 132.594 68.5183 132.858 68.4449C133.122 68.3569 133.298 68.2103 133.386 68.0049C133.474 67.7849 133.518 67.4696 133.518 67.0589C133.518 66.4429 133.408 66.0396 133.188 65.8489C132.968 65.6436 132.469 65.5409 131.692 65.5409H126.192C125.429 65.5409 124.93 65.6436 124.696 65.8489C124.476 66.0396 124.366 66.4429 124.366 67.0589C124.366 67.4696 124.41 67.7849 124.498 68.0049C124.586 68.2103 124.762 68.3569 125.026 68.4449C125.29 68.5183 125.678 68.5549 126.192 68.5549ZM119.746 76.8709C119.482 76.6656 119.328 76.3796 119.284 76.0129C119.24 75.6609 119.328 75.3676 119.548 75.1329C119.753 74.8836 120.002 74.5609 120.296 74.1649C120.589 73.7689 120.875 73.3729 121.154 72.9769C121.432 72.5663 121.652 72.2289 121.814 71.9649C121.99 71.6569 122.254 71.4663 122.606 71.3929C122.972 71.3049 123.295 71.3489 123.574 71.5249C123.867 71.7156 124.05 71.9723 124.124 72.2949C124.212 72.6176 124.168 72.9329 123.992 73.2409C123.772 73.6076 123.522 74.0109 123.244 74.4509C122.965 74.8763 122.686 75.2796 122.408 75.6609C122.144 76.0569 121.902 76.3796 121.682 76.6289C121.432 76.9076 121.124 77.0763 120.758 77.1349C120.406 77.1936 120.068 77.1056 119.746 76.8709ZM138.028 76.7169C137.72 76.9076 137.39 76.9663 137.038 76.8929C136.7 76.8196 136.429 76.6289 136.224 76.3209C136.062 76.0569 135.85 75.7343 135.586 75.3529C135.336 74.9569 135.072 74.5683 134.794 74.1869C134.53 73.8056 134.295 73.4829 134.09 73.2189C133.899 72.9696 133.818 72.6836 133.848 72.3609C133.877 72.0236 134.031 71.7596 134.31 71.5689C134.588 71.3636 134.889 71.2683 135.212 71.2829C135.549 71.2976 135.828 71.4369 136.048 71.7009C136.282 71.9503 136.546 72.2729 136.84 72.6689C137.133 73.0649 137.426 73.4609 137.72 73.8569C138.013 74.2529 138.248 74.5903 138.424 74.8689C138.629 75.1916 138.695 75.5289 138.622 75.8809C138.563 76.2329 138.365 76.5116 138.028 76.7169ZM132.242 77.0249C131.89 77.1569 131.552 77.1496 131.23 77.0029C130.922 76.8563 130.716 76.5996 130.614 76.2329C130.54 75.9836 130.445 75.6756 130.328 75.3089C130.225 74.9276 130.115 74.5536 129.998 74.1869C129.88 73.8056 129.778 73.4976 129.69 73.2629C129.558 72.9109 129.565 72.5956 129.712 72.3169C129.873 72.0236 130.108 71.8256 130.416 71.7229C130.753 71.6056 131.068 71.6056 131.362 71.7229C131.67 71.8403 131.897 72.0749 132.044 72.4269C132.146 72.6763 132.264 72.9916 132.396 73.3729C132.528 73.7543 132.652 74.1356 132.77 74.5169C132.887 74.8836 132.982 75.1843 133.056 75.4189C133.173 75.8003 133.158 76.1303 133.012 76.4089C132.865 76.7023 132.608 76.9076 132.242 77.0249ZM127.6 77.2889C127.233 77.3769 126.896 77.3256 126.588 77.1349C126.294 76.9589 126.111 76.6803 126.038 76.2989C126.008 76.0643 125.95 75.7563 125.862 75.3749C125.788 74.9936 125.708 74.6123 125.62 74.2309C125.546 73.8496 125.48 73.5563 125.422 73.3509C125.348 72.9843 125.4 72.6689 125.576 72.4049C125.766 72.1263 126.023 71.9503 126.346 71.8769C126.698 71.7889 127.02 71.8256 127.314 71.9869C127.607 72.1483 127.805 72.4196 127.908 72.8009C127.966 73.0209 128.04 73.3289 128.128 73.7249C128.216 74.1063 128.304 74.4876 128.392 74.8689C128.48 75.2503 128.546 75.5656 128.59 75.8149C128.722 76.6069 128.392 77.0983 127.6 77.2889ZM153.296 75.3749C152.929 75.4629 152.584 75.4116 152.262 75.2209C151.939 75.0303 151.734 74.7589 151.646 74.4069C151.558 74.0549 151.609 73.7249 151.8 73.4169C151.99 73.0943 152.262 72.8889 152.614 72.8009C154.242 72.3756 155.437 71.6863 156.2 70.7329C156.977 69.7796 157.366 68.5696 157.366 67.1029C157.366 66.1789 157.16 65.3503 156.75 64.6169C156.339 63.8836 155.752 63.2896 154.99 62.8349C154.242 62.3803 153.34 62.1016 152.284 61.9989C152.02 64.4629 151.572 66.5969 150.942 68.4009C150.326 70.1903 149.592 71.5763 148.742 72.5589C147.906 73.5269 147.026 74.0109 146.102 74.0109C145.324 74.0109 144.613 73.7836 143.968 73.3289C143.322 72.8743 142.809 72.2216 142.428 71.3709C142.061 70.5203 141.878 69.5009 141.878 68.3129C141.878 67.0956 142.105 65.9589 142.56 64.9029C143.029 63.8323 143.689 62.8936 144.54 62.0869C145.39 61.2803 146.388 60.6496 147.532 60.1949C148.69 59.7403 149.959 59.5129 151.338 59.5129C153.01 59.5129 154.491 59.8356 155.782 60.4809C157.087 61.1116 158.114 61.9989 158.862 63.1429C159.61 64.2723 159.984 65.5923 159.984 67.1029C159.984 69.2296 159.412 71.0043 158.268 72.4269C157.138 73.8349 155.481 74.8176 153.296 75.3749ZM146.124 71.3049C146.388 71.3049 146.688 71.0849 147.026 70.6449C147.378 70.1903 147.73 69.5523 148.082 68.7309C148.434 67.9096 148.756 66.9416 149.05 65.8269C149.343 64.6976 149.563 63.4509 149.71 62.0869C148.566 62.3069 147.605 62.7323 146.828 63.3629C146.05 63.9789 145.464 64.7196 145.068 65.5849C144.672 66.4356 144.466 67.3303 144.452 68.2689C144.452 69.2663 144.606 70.0216 144.914 70.5349C145.236 71.0483 145.64 71.3049 146.124 71.3049ZM167.86 75.9909C167.537 76.1523 167.192 76.1816 166.826 76.0789C166.474 75.9909 166.202 75.7856 166.012 75.4629C165.821 75.1403 165.777 74.8029 165.88 74.4509C165.982 74.0843 166.195 73.8056 166.518 73.6149C168.028 72.7936 169.253 71.7743 170.192 70.5569C171.145 69.3396 171.739 68.0196 171.974 66.5969H165.594C165.227 66.5969 164.919 66.4723 164.67 66.2229C164.42 65.9589 164.296 65.6436 164.296 65.2769C164.296 64.9103 164.42 64.6023 164.67 64.3529C164.919 64.0889 165.227 63.9569 165.594 63.9569H180.18C180.546 63.9569 180.854 64.0889 181.104 64.3529C181.353 64.6023 181.478 64.9103 181.478 65.2769C181.478 65.6436 181.353 65.9589 181.104 66.2229C180.854 66.4723 180.546 66.5969 180.18 66.5969H174.614C174.467 67.8583 174.093 69.0903 173.492 70.2929C172.905 71.4809 172.135 72.5663 171.182 73.5489C170.228 74.5316 169.121 75.3456 167.86 75.9909ZM168.168 61.8669C167.801 61.8669 167.486 61.7423 167.222 61.4929C166.972 61.2289 166.848 60.9136 166.848 60.5469C166.848 60.1803 166.972 59.8723 167.222 59.6229C167.486 59.3589 167.801 59.2269 168.168 59.2269H177.54C177.921 59.2269 178.236 59.3589 178.486 59.6229C178.735 59.8723 178.86 60.1803 178.86 60.5469C178.86 60.9136 178.735 61.2289 178.486 61.4929C178.236 61.7423 177.921 61.8669 177.54 61.8669H168.168ZM182.226 63.6269C182.035 63.8029 181.8 63.8763 181.522 63.8469C181.258 63.8176 181.045 63.6929 180.884 63.4729C180.737 63.2529 180.539 62.9816 180.29 62.6589C180.04 62.3363 179.813 62.0576 179.608 61.8229C179.476 61.6616 179.417 61.4636 179.432 61.2289C179.446 60.9943 179.549 60.7963 179.74 60.6349C179.916 60.4736 180.114 60.4003 180.334 60.4149C180.568 60.4296 180.774 60.5176 180.95 60.6789C181.155 60.8696 181.397 61.1263 181.676 61.4489C181.969 61.7569 182.211 62.0356 182.402 62.2849C182.563 62.5049 182.622 62.7469 182.578 63.0109C182.548 63.2603 182.431 63.4656 182.226 63.6269ZM184.338 61.8009C184.147 61.9769 183.912 62.0649 183.634 62.0649C183.37 62.0503 183.157 61.9403 182.996 61.7349C182.82 61.5296 182.6 61.2803 182.336 60.9869C182.072 60.6789 181.83 60.4076 181.61 60.1729C181.463 60.0263 181.382 59.8429 181.368 59.6229C181.368 59.3883 181.463 59.1756 181.654 58.9849C181.815 58.8236 182.006 58.7429 182.226 58.7429C182.46 58.7283 182.673 58.7943 182.864 58.9409C183.084 59.1023 183.348 59.3296 183.656 59.6229C183.964 59.9163 184.22 60.1876 184.426 60.4369C184.587 60.6423 184.66 60.8769 184.646 61.1409C184.631 61.3903 184.528 61.6103 184.338 61.8009ZM192.808 76.3649C192.47 76.5116 192.126 76.5189 191.774 76.3869C191.422 76.2696 191.165 76.0423 191.004 75.7049C190.857 75.3676 190.842 75.0229 190.96 74.6709C191.092 74.3043 191.326 74.0476 191.664 73.9009C193.321 73.1236 194.546 72.0749 195.338 70.7549C196.13 69.4349 196.548 67.7336 196.592 65.6509H193.248C193.262 66.2376 193.27 66.7949 193.27 67.3229C193.27 67.8509 193.255 68.3276 193.226 68.7529C193.211 69.1343 193.064 69.4496 192.786 69.6989C192.507 69.9336 192.177 70.0436 191.796 70.0289C191.429 69.9996 191.128 69.8456 190.894 69.5669C190.659 69.2736 190.549 68.9436 190.564 68.5769C190.593 68.1809 190.608 67.7336 190.608 67.2349C190.608 66.7216 190.6 66.1936 190.586 65.6509H186.076C185.709 65.6509 185.394 65.5263 185.13 65.2769C184.88 65.0276 184.756 64.7196 184.756 64.3529C184.756 63.9863 184.88 63.6783 185.13 63.4289C185.394 63.1649 185.709 63.0329 186.076 63.0329H190.498C190.468 62.5196 190.432 62.0356 190.388 61.5809C190.358 61.1116 190.314 60.7009 190.256 60.3489C190.197 59.9823 190.27 59.6523 190.476 59.3589C190.696 59.0509 190.989 58.8676 191.356 58.8089C191.737 58.7356 192.074 58.8089 192.368 59.0289C192.676 59.2489 192.852 59.5423 192.896 59.9089C192.954 60.3196 193.006 60.7963 193.05 61.3389C193.094 61.8669 193.13 62.4316 193.16 63.0329H196.57C196.555 62.4023 196.533 61.7936 196.504 61.2069C196.489 60.6056 196.46 60.0849 196.416 59.6449C196.386 59.2636 196.489 58.9336 196.724 58.6549C196.973 58.3616 197.281 58.2003 197.648 58.1709C198.029 58.1416 198.359 58.2516 198.638 58.5009C198.931 58.7356 199.085 59.0436 199.1 59.4249C199.144 59.8796 199.173 60.4296 199.188 61.0749C199.217 61.7056 199.239 62.3583 199.254 63.0329H203.434C203.8 63.0329 204.108 63.1649 204.358 63.4289C204.622 63.6783 204.754 63.9863 204.754 64.3529C204.754 64.7196 204.622 65.0276 204.358 65.2769C204.108 65.5263 203.8 65.6509 203.434 65.6509H199.254C199.21 68.2616 198.645 70.4689 197.56 72.2729C196.474 74.0623 194.89 75.4263 192.808 76.3649ZM204.226 59.9749C204.035 59.7843 203.793 59.5569 203.5 59.2929C203.206 59.0289 202.935 58.7943 202.686 58.5889C202.539 58.4569 202.451 58.2736 202.422 58.0389C202.392 57.8043 202.458 57.5916 202.62 57.4009C202.766 57.2102 202.95 57.1076 203.17 57.0929C203.404 57.0636 203.624 57.1076 203.83 57.2249C204.079 57.3716 204.365 57.5769 204.688 57.8409C205.01 58.0903 205.289 58.3323 205.524 58.5669C205.729 58.7429 205.832 58.9629 205.832 59.2269C205.832 59.4909 205.751 59.7256 205.59 59.9309C205.428 60.1216 205.208 60.2243 204.93 60.2389C204.666 60.2536 204.431 60.1656 204.226 59.9749ZM203.654 61.9769C203.463 62.1676 203.236 62.2629 202.972 62.2629C202.708 62.2483 202.48 62.1456 202.29 61.9549C202.114 61.7496 201.886 61.5003 201.608 61.2069C201.329 60.9136 201.072 60.6569 200.838 60.4369C200.691 60.3049 200.61 60.1216 200.596 59.8869C200.596 59.6523 200.684 59.4396 200.86 59.2489C201.021 59.0876 201.212 58.9996 201.432 58.9849C201.666 58.9703 201.879 59.0363 202.07 59.1829C202.304 59.3296 202.583 59.5496 202.906 59.8429C203.228 60.1216 203.492 60.3783 203.698 60.6129C203.874 60.8036 203.954 61.0309 203.94 61.2949C203.94 61.5589 203.844 61.7863 203.654 61.9769ZM218.042 76.4089C217.675 76.4089 217.36 76.2696 217.096 75.9909C216.832 75.7269 216.7 75.4116 216.7 75.0449V66.2449C215.761 67.0663 214.793 67.8583 213.796 68.6209C212.798 69.3836 211.801 70.0803 210.804 70.7109C210.481 70.9016 210.136 70.9529 209.77 70.8649C209.418 70.7769 209.139 70.5716 208.934 70.2489C208.743 69.9263 208.692 69.5816 208.78 69.2149C208.868 68.8483 209.073 68.5696 209.396 68.3789C210.32 67.8069 211.28 67.1396 212.278 66.3769C213.29 65.6143 214.272 64.8003 215.226 63.9349C216.194 63.0696 217.081 62.2043 217.888 61.3389C218.709 60.4589 219.391 59.6303 219.934 58.8529C220.154 58.5449 220.447 58.3543 220.814 58.2809C221.18 58.2076 221.518 58.2809 221.826 58.5009C222.134 58.7063 222.324 58.9996 222.398 59.3809C222.471 59.7476 222.398 60.0849 222.178 60.3929C221.415 61.4196 220.491 62.4976 219.406 63.6269V75.0449C219.406 75.4116 219.274 75.7269 219.01 75.9909C218.746 76.2696 218.423 76.4089 218.042 76.4089ZM233.706 74.5829C233.354 74.7149 233.002 74.7003 232.65 74.5389C232.312 74.3776 232.078 74.1209 231.946 73.7689C231.814 73.4169 231.828 73.0723 231.99 72.7349C232.151 72.3829 232.408 72.1409 232.76 72.0089C233.933 71.5983 235.114 71.0923 236.302 70.4909C237.504 69.8896 238.648 69.2369 239.734 68.5329C240.834 67.8143 241.831 67.0809 242.726 66.3329C243.635 65.5703 244.376 64.8369 244.948 64.1329C245.197 63.8396 245.505 63.6709 245.872 63.6269C246.253 63.5829 246.583 63.6856 246.862 63.9349C247.155 64.1696 247.324 64.4776 247.368 64.8589C247.412 65.2256 247.309 65.5556 247.06 65.8489C246.458 66.5823 245.659 67.3669 244.662 68.2029C243.664 69.0243 242.55 69.8383 241.318 70.6449C240.086 71.4516 238.817 72.1996 237.512 72.8889C236.206 73.5783 234.938 74.1429 233.706 74.5829ZM235.598 65.9149C235.04 65.4456 234.417 64.9616 233.728 64.4629C233.038 63.9496 232.415 63.5316 231.858 63.2089C231.535 63.0036 231.33 62.7249 231.242 62.3729C231.154 62.0063 231.205 61.6616 231.396 61.3389C231.601 61.0163 231.88 60.8109 232.232 60.7229C232.598 60.6203 232.943 60.6716 233.266 60.8769C233.662 61.1263 234.109 61.4343 234.608 61.8009C235.121 62.1529 235.612 62.5049 236.082 62.8569C236.566 63.2089 236.962 63.5096 237.27 63.7589C237.563 63.9936 237.732 64.3016 237.776 64.6829C237.834 65.0496 237.746 65.3796 237.512 65.6729C237.277 65.9663 236.969 66.1423 236.588 66.2009C236.221 66.2449 235.891 66.1496 235.598 65.9149ZM265.782 76.4309C263.816 76.7096 262.159 76.8123 260.81 76.7389C259.46 76.6803 258.375 76.4823 257.554 76.1449C256.747 75.8076 256.16 75.3603 255.794 74.8029C255.427 74.2309 255.244 73.5856 255.244 72.8669C255.244 71.7669 255.684 70.7403 256.564 69.7869C257.458 68.8336 258.749 67.9976 260.436 67.2789C260.201 66.9856 259.915 66.7876 259.578 66.6849C258.844 66.4649 258.118 66.5456 257.4 66.9269C256.696 67.3083 256.006 67.8656 255.332 68.5989C255.082 68.8629 254.752 69.0096 254.342 69.0389C253.946 69.0536 253.623 68.9289 253.374 68.6649C253.139 68.3863 253.029 68.0636 253.044 67.6969C253.073 67.3303 253.227 67.0296 253.506 66.7949C254.224 66.1789 254.855 65.5116 255.398 64.7929C255.955 64.0743 256.424 63.3336 256.806 62.5709C256.175 62.5856 255.581 62.6003 255.024 62.6149C254.481 62.6149 254.012 62.6076 253.616 62.5929C253.249 62.5929 252.941 62.4683 252.692 62.2189C252.442 61.9549 252.318 61.6396 252.318 61.2729C252.332 60.9063 252.472 60.6056 252.736 60.3709C253 60.1363 253.315 60.0263 253.682 60.0409C254.195 60.0556 254.811 60.0629 255.53 60.0629C256.263 60.0483 257.026 60.0336 257.818 60.0189C257.891 59.7403 257.957 59.4689 258.016 59.2049C258.074 58.9409 258.126 58.6769 258.17 58.4129C258.228 58.0463 258.39 57.7529 258.654 57.5329C258.918 57.2983 259.233 57.2029 259.6 57.2469C259.966 57.2909 260.26 57.4522 260.48 57.7309C260.7 58.0096 260.788 58.3323 260.744 58.6989C260.729 58.8896 260.7 59.0876 260.656 59.2929C260.612 59.4983 260.56 59.7036 260.502 59.9089C261.059 59.8796 261.58 59.8503 262.064 59.8209C262.548 59.7769 262.98 59.7256 263.362 59.6669C263.728 59.6229 264.051 59.7109 264.33 59.9309C264.623 60.1363 264.792 60.4223 264.836 60.7889C264.88 61.1556 264.784 61.4783 264.55 61.7569C264.33 62.0356 264.044 62.1896 263.692 62.2189C263.149 62.2776 262.526 62.3289 261.822 62.3729C261.118 62.4169 260.384 62.4536 259.622 62.4829C259.299 63.2016 258.947 63.8763 258.566 64.5069C258.918 64.4336 259.255 64.4116 259.578 64.4409C259.9 64.4556 260.208 64.5069 260.502 64.5949C260.942 64.7123 261.367 64.9176 261.778 65.2109C262.203 65.4896 262.577 65.8856 262.9 66.3989C263.618 66.1936 264.381 66.0029 265.188 65.8269C266.009 65.6509 266.874 65.4969 267.784 65.3649C268.136 65.3063 268.458 65.3869 268.752 65.6069C269.045 65.8123 269.214 66.0983 269.258 66.4649C269.316 66.8316 269.236 67.1543 269.016 67.4329C268.796 67.7116 268.502 67.8803 268.136 67.9389C267.285 68.0416 266.5 68.1663 265.782 68.3129C265.063 68.4449 264.396 68.5916 263.78 68.7529C263.853 69.1489 263.912 69.5816 263.956 70.0509C264 70.5203 264.022 71.0263 264.022 71.5689C264.022 71.9356 263.89 72.2509 263.626 72.5149C263.376 72.7643 263.068 72.8889 262.702 72.8889C262.335 72.8889 262.027 72.7643 261.778 72.5149C261.528 72.2509 261.404 71.9356 261.404 71.5689C261.404 70.8209 261.36 70.1536 261.272 69.5669C260.069 70.0656 259.196 70.6009 258.654 71.1729C258.126 71.7303 257.862 72.2729 257.862 72.8009C257.862 73.1969 258.096 73.5196 258.566 73.7689C259.035 74.0183 259.82 74.1576 260.92 74.1869C262.02 74.2163 263.523 74.1063 265.43 73.8569C265.782 73.8129 266.104 73.9009 266.398 74.1209C266.691 74.3263 266.86 74.6123 266.904 74.9789C266.948 75.3309 266.86 75.6463 266.64 75.9249C266.42 76.2036 266.134 76.3723 265.782 76.4309ZM282.766 75.9689C282.502 75.7196 282.362 75.4116 282.348 75.0449C282.333 74.6783 282.45 74.3629 282.7 74.0989C283.301 73.4976 283.858 72.7789 284.372 71.9429C284.885 71.0923 285.332 70.2049 285.714 69.2809C284.511 68.9729 283.36 68.7529 282.26 68.6209C281.717 69.7649 281.101 70.7183 280.412 71.4809C279.722 72.2436 278.989 72.7716 278.212 73.0649C277.478 73.3583 276.76 73.4609 276.056 73.3729C275.352 73.2703 274.765 72.9843 274.296 72.5149C273.841 72.0456 273.614 71.3856 273.614 70.5349C273.614 69.7283 273.856 68.9949 274.34 68.3349C274.824 67.6749 275.572 67.1469 276.584 66.7509C277.61 66.3403 278.93 66.1349 280.544 66.1349C280.852 65.2696 281.138 64.2723 281.402 63.1429C281.607 62.2923 281.57 61.7276 281.292 61.4489C281.013 61.1556 280.47 61.0603 279.664 61.1629C279.385 61.2069 279.026 61.2583 278.586 61.3169C278.146 61.3756 277.801 61.4196 277.552 61.4489C277.185 61.4636 276.862 61.3536 276.584 61.1189C276.305 60.8843 276.151 60.5836 276.122 60.2169C276.107 59.8503 276.217 59.5349 276.452 59.2709C276.686 58.9923 276.987 58.8383 277.354 58.8089C277.662 58.7796 278.043 58.7429 278.498 58.6989C278.952 58.6549 279.326 58.6256 279.62 58.6109C281.468 58.4936 282.736 58.8163 283.426 59.5789C284.13 60.3416 284.313 61.6029 283.976 63.3629C283.873 63.8909 283.756 64.4043 283.624 64.9029C283.492 65.3869 283.352 65.8563 283.206 66.3109C283.734 66.3696 284.276 66.4576 284.834 66.5749C285.391 66.6776 285.941 66.7949 286.484 66.9269C286.601 66.4283 286.696 65.9443 286.77 65.4749C286.843 64.9909 286.887 64.5289 286.902 64.0889C286.916 63.7223 287.041 63.4143 287.276 63.1649C287.525 62.9009 287.833 62.7616 288.2 62.7469C288.566 62.7469 288.874 62.8789 289.124 63.1429C289.388 63.3923 289.512 63.7003 289.498 64.0669C289.483 64.6389 289.424 65.2256 289.322 65.8269C289.234 66.4136 289.109 67.0076 288.948 67.6089C289.402 67.7556 289.842 67.9096 290.268 68.0709C290.708 68.2176 291.133 68.3716 291.544 68.5329C291.881 68.6796 292.116 68.9216 292.248 69.2589C292.394 69.5963 292.394 69.9336 292.248 70.2709C292.116 70.5936 291.881 70.8283 291.544 70.9749C291.206 71.1216 290.869 71.1216 290.532 70.9749C290.15 70.7989 289.762 70.6376 289.366 70.4909C288.97 70.3296 288.574 70.1756 288.178 70.0289C287.723 71.2023 287.188 72.3023 286.572 73.3289C285.97 74.3556 285.325 75.2136 284.636 75.9029C284.386 76.1523 284.078 76.2843 283.712 76.2989C283.36 76.3136 283.044 76.2036 282.766 75.9689ZM277.288 70.7549C277.64 70.6083 277.999 70.3589 278.366 70.0069C278.732 69.6549 279.092 69.1709 279.444 68.5549C278.285 68.6576 277.456 68.8776 276.958 69.2149C276.474 69.5523 276.224 69.9263 276.21 70.3369C276.21 70.5716 276.298 70.7403 276.474 70.8429C276.664 70.9309 276.936 70.9016 277.288 70.7549ZM304.876 76.3869C303.541 76.3576 302.485 76.0349 301.708 75.4189C300.945 74.8029 300.578 73.9596 300.608 72.8889C300.637 72.2583 300.813 71.7083 301.136 71.2389C301.473 70.7696 301.928 70.4176 302.5 70.1829C303.072 69.9336 303.724 69.8456 304.458 69.9189C305.631 70.0216 306.452 70.4249 306.922 71.1289C307.391 71.8183 307.53 72.6103 307.34 73.5049C307.853 73.2556 308.271 72.8963 308.594 72.4269C308.931 71.9429 309.1 71.3196 309.1 70.5569C309.1 69.9849 308.931 69.4716 308.594 69.0169C308.271 68.5476 307.809 68.1883 307.208 67.9389C306.621 67.6749 305.939 67.5649 305.162 67.6089C304.384 67.6529 303.548 67.8876 302.654 68.3129C301.759 68.7236 300.842 69.3836 299.904 70.2929C299.64 70.5423 299.31 70.6669 298.914 70.6669C298.518 70.6523 298.195 70.4983 297.946 70.2049C297.711 69.9263 297.601 69.6109 297.616 69.2589C297.645 68.8923 297.799 68.6063 298.078 68.4009C298.987 67.7116 299.896 66.9856 300.806 66.2229C301.715 65.4456 302.58 64.6829 303.402 63.9349C304.238 63.1869 304.971 62.5049 305.602 61.8889C305.998 61.5076 306.13 61.1923 305.998 60.9429C305.88 60.6936 305.565 60.6056 305.052 60.6789C304.553 60.7376 303.981 60.8109 303.336 60.8989C302.705 60.9869 302.111 61.0676 301.554 61.1409C301.202 61.1996 300.879 61.1189 300.586 60.8989C300.292 60.6789 300.124 60.3856 300.08 60.0189C300.021 59.6669 300.102 59.3516 300.322 59.0729C300.542 58.7796 300.835 58.6036 301.202 58.5449C301.524 58.5009 301.928 58.4569 302.412 58.4129C302.91 58.3689 303.416 58.3249 303.93 58.2809C304.458 58.2369 304.905 58.2003 305.272 58.1709C306.225 58.0976 307.002 58.2223 307.604 58.5449C308.205 58.8676 308.616 59.3076 308.836 59.8649C309.056 60.4076 309.063 61.0016 308.858 61.6469C308.667 62.2923 308.249 62.9009 307.604 63.4729C307.31 63.7223 306.936 64.0449 306.482 64.4409C306.042 64.8369 305.587 65.2403 305.118 65.6509C305.954 65.4896 306.768 65.4823 307.56 65.6289C308.352 65.7609 309.056 66.0396 309.672 66.4649C310.302 66.8903 310.801 67.4549 311.168 68.1589C311.534 68.8483 311.718 69.6623 311.718 70.6009C311.718 71.9356 311.424 73.0429 310.838 73.9229C310.251 74.7883 309.444 75.4189 308.418 75.8149C307.391 76.2256 306.21 76.4163 304.876 76.3869ZM304.48 73.9449C304.509 73.9449 304.553 73.9449 304.612 73.9449C304.656 73.9449 304.707 73.9523 304.766 73.9669C304.839 73.9669 304.92 73.9596 305.008 73.9449C305.213 73.4609 305.25 73.0576 305.118 72.7349C304.986 72.4123 304.722 72.2216 304.326 72.1629C303.974 72.1189 303.68 72.1703 303.446 72.3169C303.226 72.4489 303.101 72.6689 303.072 72.9769C303.057 73.5636 303.526 73.8863 304.48 73.9449Z" fill="white"/>
<path d="M91.0095 73.1529H99.4795C100.205 73.1529 100.579 73.7249 100.579 74.4729C100.579 75.2209 100.205 75.8809 99.4795 75.8809H89.1395C88.1275 75.8809 87.5995 75.2649 87.5995 74.1649C87.5995 73.3509 88.1275 72.2289 88.5675 71.5029C89.2935 70.2489 90.4815 68.8849 92.5935 67.4769L93.9355 66.5749C96.0475 65.1669 97.1695 64.3969 97.1695 62.7689C97.1695 61.2729 95.9815 60.4149 94.1995 60.4149C92.0215 60.4149 91.2735 61.6249 90.8775 63.0109C90.7015 63.6489 90.1735 63.9349 89.5795 63.9349C89.4035 63.9349 89.2275 63.9129 89.0515 63.8689C88.3475 63.7149 87.8415 63.2969 87.8415 62.6149C87.8415 62.4829 87.8635 62.3289 87.9075 62.1529C88.1275 61.2509 88.6335 60.3269 89.2935 59.6669C90.3935 58.5009 91.8895 57.8409 94.2875 57.8409C98.0055 57.8409 100.227 59.6669 100.227 62.7689C100.227 65.5189 98.6655 66.7729 96.4215 68.1589L95.1235 68.9509C92.8795 70.3369 91.5815 71.5689 91.0095 73.1529ZM112.011 60.9649H103.651C102.903 60.9649 102.485 60.3489 102.485 59.5789C102.485 58.8309 102.903 58.1929 103.651 58.1929H114.123C115.135 58.1929 115.619 58.7429 115.619 59.6449C115.619 60.7889 115.289 61.1189 114.761 61.8449C112.363 65.1449 110.449 69.7429 109.525 74.7149C109.327 75.7489 108.711 76.0349 107.787 76.0349C106.885 76.0349 106.181 75.5729 106.181 74.7369C106.181 74.6269 106.203 74.5169 106.225 74.3849C107.127 70.0289 108.997 65.2989 112.011 60.9649Z" fill="white"/>
<path d="M94.3602 39.8562C93.2509 39.8562 92.4562 39.6376 91.9762 39.2002C91.5069 38.7736 91.2722 38.0269 91.2722 36.9602V34.2242C91.2722 33.1682 91.5069 32.4216 91.9762 31.9842C92.4562 31.5469 93.2509 31.3282 94.3602 31.3282H96.6962C97.8055 31.3282 98.5949 31.5469 99.0642 31.9842C99.5442 32.4216 99.7842 33.1682 99.7842 34.2242V36.9602C99.7842 38.0269 99.5442 38.7736 99.0642 39.2002C98.5949 39.6376 97.8055 39.8562 96.6962 39.8562H94.3602ZM87.6242 40.0962C87.3149 40.1282 87.0535 40.0749 86.8402 39.9362C86.6269 39.8082 86.4935 39.6162 86.4402 39.3602C86.3869 39.0722 86.4295 38.8216 86.5682 38.6082C86.7069 38.3949 86.9149 38.2776 87.1922 38.2562C87.5869 38.2136 87.9015 38.1176 88.1362 37.9682C88.3709 37.8189 88.5415 37.5469 88.6482 37.1522C88.7655 36.7469 88.8242 36.1549 88.8242 35.3762C88.8242 34.8749 88.8082 34.4109 88.7762 33.9842C88.5415 34.3256 88.2962 34.6616 88.0402 34.9922C87.7949 35.3229 87.5602 35.6109 87.3362 35.8562C87.1655 36.0482 86.9522 36.1602 86.6962 36.1922C86.4509 36.2242 86.2215 36.1549 86.0082 35.9842C85.8162 35.8349 85.7149 35.6429 85.7042 35.4082C85.6935 35.1736 85.7682 34.9709 85.9282 34.8002C86.2055 34.5016 86.4989 34.1602 86.8082 33.7762C87.1175 33.3816 87.4109 32.9816 87.6882 32.5762C87.9762 32.1709 88.2109 31.8029 88.3922 31.4722C88.3389 31.2589 88.2749 31.0562 88.2002 30.8642C88.1362 30.6616 88.0669 30.4642 87.9922 30.2722C87.7042 30.5709 87.4269 30.8482 87.1602 31.1042C86.9789 31.2749 86.7655 31.3602 86.5202 31.3602C86.2749 31.3602 86.0615 31.2749 85.8802 31.1042C85.7095 30.9336 85.6242 30.7309 85.6242 30.4962C85.6349 30.2509 85.7255 30.0536 85.8962 29.9042C86.3015 29.5416 86.7175 29.1256 87.1442 28.6562C86.9842 28.4109 86.8135 28.1656 86.6322 27.9202C86.4509 27.6642 86.2589 27.4136 86.0562 27.1682C85.9175 26.9869 85.8695 26.7896 85.9122 26.5762C85.9655 26.3629 86.0829 26.1922 86.2642 26.0642C86.4455 25.9362 86.6482 25.8882 86.8722 25.9202C87.0962 25.9416 87.2829 26.0429 87.4322 26.2242C87.7309 26.5656 88.0082 26.9229 88.2642 27.2962C88.4135 27.0936 88.5522 26.8962 88.6802 26.7042C88.8189 26.5016 88.9415 26.3096 89.0482 26.1282C89.1869 25.8936 89.3682 25.7442 89.5922 25.6802C89.8269 25.6056 90.0562 25.6322 90.2802 25.7602C90.4935 25.8776 90.6269 26.0482 90.6802 26.2722C90.7335 26.4962 90.7015 26.7149 90.5842 26.9282C90.4135 27.2269 90.2055 27.5469 89.9602 27.8882C89.7255 28.2189 89.4749 28.5496 89.2082 28.8802C89.6562 29.7762 89.9869 30.7522 90.2002 31.8082C90.4242 32.8536 90.5362 34.0429 90.5362 35.3762C90.5362 36.5709 90.4242 37.4989 90.2002 38.1602C89.9762 38.8109 89.6455 39.2749 89.2082 39.5522C88.7815 39.8402 88.2535 40.0216 87.6242 40.0962ZM93.6882 31.0402C93.4429 31.0402 93.2295 30.9656 93.0482 30.8162C92.8669 30.6669 92.7762 30.4482 92.7762 30.1602V29.1682H91.0962C90.8509 29.1682 90.6535 29.0936 90.5042 28.9442C90.3655 28.7842 90.2962 28.5922 90.2962 28.3682C90.2962 28.1442 90.3655 27.9576 90.5042 27.8082C90.6535 27.6482 90.8509 27.5682 91.0962 27.5682H92.7762V26.3842C92.7762 26.0856 92.8669 25.8669 93.0482 25.7282C93.2295 25.5789 93.4429 25.5042 93.6882 25.5042C93.9335 25.5042 94.1415 25.5789 94.3122 25.7282C94.4935 25.8669 94.5842 26.0856 94.5842 26.3842V27.5682H96.2642V26.3842C96.2642 26.0856 96.3549 25.8669 96.5362 25.7282C96.7175 25.5789 96.9255 25.5042 97.1602 25.5042C97.4055 25.5042 97.6135 25.5789 97.7842 25.7282C97.9655 25.8669 98.0562 26.0856 98.0562 26.3842V27.5682H99.7842C100.03 27.5682 100.222 27.6482 100.36 27.8082C100.51 27.9576 100.584 28.1442 100.584 28.3682C100.584 28.5922 100.51 28.7842 100.36 28.9442C100.222 29.0936 100.03 29.1682 99.7842 29.1682H98.0562V30.1602C98.0562 30.4482 97.9655 30.6669 97.7842 30.8162C97.6135 30.9656 97.4055 31.0402 97.1602 31.0402C96.9255 31.0402 96.7175 30.9656 96.5362 30.8162C96.3549 30.6669 96.2642 30.4482 96.2642 30.1602V29.1682H94.5842V30.1602C94.5842 30.4482 94.4935 30.6669 94.3122 30.8162C94.1415 30.9656 93.9335 31.0402 93.6882 31.0402ZM96.3602 34.7842H97.9762V34.2402C97.9762 33.8989 97.9389 33.6429 97.8642 33.4722C97.7895 33.3016 97.6509 33.1842 97.4482 33.1202C97.2562 33.0562 96.9629 33.0242 96.5682 33.0242H96.3602V34.7842ZM93.0802 34.7842H94.6962V33.0242H94.4882C94.1042 33.0242 93.8109 33.0562 93.6082 33.1202C93.4055 33.1842 93.2669 33.3016 93.1922 33.4722C93.1175 33.6429 93.0802 33.8989 93.0802 34.2402V34.7842ZM96.3602 38.1762H96.5682C96.9629 38.1762 97.2562 38.1442 97.4482 38.0802C97.6509 38.0162 97.7895 37.8936 97.8642 37.7122C97.9389 37.5309 97.9762 37.2749 97.9762 36.9442V36.4162H96.3602V38.1762ZM94.4882 38.1762H94.6962V36.4162H93.0802V36.9442C93.0802 37.4456 93.1709 37.7762 93.3522 37.9362C93.5335 38.0962 93.9122 38.1762 94.4882 38.1762ZM106.6 39.3122C106.344 39.2802 106.136 39.1576 105.976 38.9442C105.816 38.7416 105.752 38.5069 105.784 38.2402C105.816 37.9736 105.934 37.7602 106.136 37.6002C106.35 37.4402 106.59 37.3762 106.856 37.4082C107.187 37.4509 107.48 37.4616 107.736 37.4402C108.003 37.4082 108.232 37.2962 108.424 37.1042C108.616 36.9122 108.787 36.5976 108.936 36.1602C109.086 35.7229 109.214 35.1202 109.32 34.3522C109.416 33.6802 109.422 33.1576 109.336 32.7842C109.262 32.4002 109.064 32.1389 108.744 32.0002C108.424 31.8509 107.95 31.7976 107.32 31.8402C107.064 32.7149 106.755 33.5896 106.392 34.4642C106.04 35.3389 105.651 36.1709 105.224 36.9602C104.798 37.7389 104.334 38.4429 103.832 39.0722C103.662 39.2749 103.448 39.3922 103.192 39.4242C102.936 39.4669 102.702 39.4082 102.488 39.2482C102.286 39.0776 102.163 38.8642 102.12 38.6082C102.088 38.3416 102.158 38.1069 102.328 37.9042C102.958 37.1362 103.528 36.2349 104.04 35.2002C104.552 34.1656 104.984 33.0989 105.336 32.0002C105.006 32.0429 104.664 32.0856 104.312 32.1282C103.971 32.1602 103.635 32.1922 103.304 32.2242C103.038 32.2456 102.803 32.1762 102.6 32.0162C102.398 31.8562 102.28 31.6429 102.248 31.3762C102.227 31.1096 102.296 30.8749 102.456 30.6722C102.616 30.4589 102.83 30.3416 103.096 30.3202C103.555 30.2669 104.019 30.2242 104.488 30.1922C104.958 30.1496 105.416 30.1176 105.864 30.0962C105.982 29.6162 106.072 29.1469 106.136 28.6882C106.2 28.2189 106.243 27.7709 106.264 27.3442C106.286 27.0776 106.392 26.8589 106.584 26.6882C106.787 26.5069 107.022 26.4269 107.288 26.4482C107.555 26.4589 107.774 26.5656 107.944 26.7682C108.126 26.9602 108.206 27.1896 108.184 27.4562C108.142 27.8509 108.088 28.2616 108.024 28.6882C107.96 29.1149 107.88 29.5522 107.784 30.0002C109.235 30.0216 110.216 30.4109 110.728 31.1682C111.251 31.9256 111.406 33.0722 111.192 34.6082C111.022 35.9309 110.744 36.9549 110.36 37.6802C109.987 38.4056 109.491 38.8856 108.872 39.1202C108.254 39.3656 107.496 39.4296 106.6 39.3122ZM115.528 34.6082C115.294 34.7362 115.048 34.7629 114.792 34.6882C114.536 34.6136 114.344 34.4589 114.216 34.2242C114.035 33.8829 113.806 33.5256 113.528 33.1522C113.251 32.7682 112.963 32.4002 112.664 32.0482C112.376 31.6856 112.099 31.3762 111.832 31.1202C111.64 30.9389 111.539 30.7202 111.528 30.4642C111.518 30.1976 111.603 29.9682 111.784 29.7762C111.966 29.5842 112.184 29.4882 112.44 29.4882C112.707 29.4776 112.936 29.5629 113.128 29.7442C113.47 30.0642 113.811 30.4322 114.152 30.8482C114.504 31.2536 114.83 31.6696 115.128 32.0962C115.438 32.5229 115.694 32.9282 115.896 33.3122C116.024 33.5469 116.051 33.7922 115.976 34.0482C115.912 34.2936 115.763 34.4802 115.528 34.6082ZM114.184 29.7922C114.046 29.6536 113.87 29.4882 113.656 29.2962C113.454 29.0936 113.262 28.9176 113.08 28.7682C112.974 28.6722 112.91 28.5389 112.888 28.3682C112.878 28.1976 112.931 28.0429 113.048 27.9042C113.166 27.7656 113.304 27.6909 113.464 27.6802C113.635 27.6696 113.79 27.7069 113.928 27.7922C114.11 27.8989 114.318 28.0536 114.552 28.2562C114.798 28.4482 115 28.6242 115.16 28.7842C115.299 28.9229 115.368 29.0882 115.368 29.2802C115.368 29.4616 115.304 29.6269 115.176 29.7762C115.048 29.9149 114.883 29.9896 114.68 30.0002C114.488 30.0002 114.323 29.9309 114.184 29.7922ZM115.528 28.2882C115.379 28.1602 115.187 28.0056 114.952 27.8242C114.728 27.6429 114.526 27.4829 114.344 27.3442C114.238 27.2482 114.168 27.1149 114.136 26.9442C114.115 26.7736 114.158 26.6189 114.264 26.4802C114.36 26.3416 114.488 26.2616 114.648 26.2402C114.819 26.2082 114.979 26.2349 115.128 26.3202C115.31 26.4162 115.528 26.5549 115.784 26.7362C116.04 26.9069 116.254 27.0669 116.424 27.2162C116.574 27.3442 116.654 27.5042 116.664 27.6962C116.675 27.8882 116.622 28.0589 116.504 28.2082C116.398 28.3576 116.243 28.4429 116.04 28.4642C115.848 28.4856 115.678 28.4269 115.528 28.2882ZM118.376 39.7762C118.142 39.7762 117.944 39.6909 117.784 39.5202C117.624 39.3602 117.544 39.1629 117.544 38.9282C117.544 38.7042 117.624 38.5122 117.784 38.3522C117.944 38.1816 118.142 38.0962 118.376 38.0962H123.992V35.0242H120.184C119.95 35.0242 119.742 34.9389 119.56 34.7682C119.39 34.5869 119.304 34.3789 119.304 34.1442C119.304 33.8989 119.39 33.6909 119.56 33.5202C119.742 33.3496 119.95 33.2642 120.184 33.2642H123.992V30.6722H118.984C118.75 30.6722 118.547 30.5922 118.376 30.4322C118.216 30.2616 118.136 30.0589 118.136 29.8242C118.136 29.5896 118.216 29.3922 118.376 29.2322C118.547 29.0722 118.75 28.9922 118.984 28.9922H124.968C124.851 28.9389 124.755 28.8696 124.68 28.7842C124.542 28.6456 124.36 28.4802 124.136 28.2882C123.912 28.0962 123.688 27.9042 123.464 27.7122C123.24 27.5096 123.054 27.3496 122.904 27.2322C122.712 27.0616 122.611 26.8376 122.6 26.5602C122.59 26.2829 122.675 26.0429 122.856 25.8402C123.048 25.6376 123.272 25.5256 123.528 25.5042C123.784 25.4829 124.03 25.5629 124.264 25.7442C124.435 25.8722 124.638 26.0376 124.872 26.2402C125.118 26.4429 125.352 26.6509 125.576 26.8642C125.811 27.0669 125.998 27.2322 126.136 27.3602C126.35 27.5629 126.462 27.8029 126.472 28.0802C126.483 28.3576 126.382 28.6029 126.168 28.8162C126.094 28.8909 126.014 28.9496 125.928 28.9922H131.048C131.283 28.9922 131.48 29.0722 131.64 29.2322C131.8 29.3922 131.88 29.5896 131.88 29.8242C131.88 30.0589 131.8 30.2616 131.64 30.4322C131.48 30.5922 131.283 30.6722 131.048 30.6722H126.04V33.2642H129.784C130.03 33.2642 130.238 33.3496 130.408 33.5202C130.579 33.6909 130.664 33.8989 130.664 34.1442C130.664 34.3789 130.579 34.5869 130.408 34.7682C130.238 34.9389 130.03 35.0242 129.784 35.0242H126.04V38.0962H131.624C131.859 38.0962 132.056 38.1816 132.216 38.3522C132.376 38.5122 132.456 38.7042 132.456 38.9282C132.456 39.1629 132.376 39.3602 132.216 39.5202C132.056 39.6909 131.859 39.7762 131.624 39.7762H118.376ZM139.112 39.9842C138.835 40.0589 138.584 40.0376 138.36 39.9202C138.147 39.8136 138.003 39.6376 137.928 39.3922C137.854 39.1576 137.87 38.9389 137.976 38.7362C138.094 38.5336 138.291 38.3949 138.568 38.3202C139.752 38.0322 140.824 37.5896 141.784 36.9922C140.984 36.1069 140.344 35.0829 139.864 33.9202H139.272C139.006 33.9202 138.798 33.8402 138.648 33.6802C138.499 33.5202 138.424 33.3229 138.424 33.0882C138.424 32.8536 138.499 32.6562 138.648 32.4962C138.798 32.3362 139.006 32.2562 139.272 32.2562H144.488C145.086 32.2562 145.544 32.3736 145.864 32.6082C146.195 32.8429 146.382 33.1522 146.424 33.5362C146.478 33.9096 146.387 34.3202 146.152 34.7682C145.928 35.1949 145.678 35.5949 145.4 35.9682C145.134 36.3309 144.846 36.6776 144.536 37.0082C145.432 37.5416 146.44 37.9202 147.56 38.1442C147.859 38.2082 148.078 38.3522 148.216 38.5762C148.366 38.7896 148.398 39.0349 148.312 39.3122C148.227 39.5789 148.067 39.7709 147.832 39.8882C147.598 40.0056 147.326 40.0269 147.016 39.9522C145.502 39.5896 144.2 39.0029 143.112 38.1922C142.547 38.5869 141.928 38.9282 141.256 39.2162C140.595 39.5149 139.88 39.7709 139.112 39.9842ZM138.968 31.9362C138.808 31.7976 138.718 31.6002 138.696 31.3442C138.675 31.0882 138.75 30.8696 138.92 30.6882C139.176 30.4322 139.379 30.1816 139.528 29.9362C139.688 29.6909 139.806 29.4029 139.88 29.0722C139.966 28.7309 140.008 28.3149 140.008 27.8242C140.008 27.3336 140.088 26.9496 140.248 26.6722C140.408 26.3842 140.68 26.1816 141.064 26.0642C141.459 25.9362 141.998 25.8722 142.68 25.8722C143.363 25.8722 143.896 25.9362 144.28 26.0642C144.664 26.1922 144.931 26.4002 145.08 26.6882C145.24 26.9656 145.32 27.3496 145.32 27.8402V29.3282C145.32 29.5309 145.368 29.6749 145.464 29.7602C145.571 29.8349 145.742 29.8722 145.976 29.8722C146.19 29.8722 146.344 29.8296 146.44 29.7442C146.547 29.6482 146.638 29.4189 146.712 29.0562C146.766 28.8109 146.899 28.6349 147.112 28.5282C147.326 28.4216 147.566 28.4002 147.832 28.4642C148.088 28.5282 148.275 28.6562 148.392 28.8482C148.52 29.0402 148.563 29.2589 148.52 29.5042C148.382 30.3149 148.115 30.8802 147.72 31.2002C147.336 31.5202 146.734 31.6802 145.912 31.6802C145.006 31.6802 144.376 31.5576 144.024 31.3122C143.683 31.0669 143.512 30.6029 143.512 29.9202V28.1282C143.512 27.8829 143.459 27.7176 143.352 27.6322C143.246 27.5362 143.022 27.4882 142.68 27.4882C142.35 27.4882 142.131 27.5362 142.024 27.6322C141.918 27.7176 141.859 27.8829 141.848 28.1282C141.838 28.7576 141.774 29.2962 141.656 29.7442C141.55 30.1922 141.39 30.5869 141.176 30.9282C140.974 31.2589 140.712 31.5736 140.392 31.8722C140.19 32.0536 139.944 32.1496 139.656 32.1602C139.379 32.1602 139.15 32.0856 138.968 31.9362ZM136.552 40.2882C136.296 40.2882 136.083 40.2082 135.912 40.0482C135.742 39.8882 135.656 39.6749 135.656 39.4082V33.9842C135.55 34.0909 135.438 34.1976 135.32 34.3042C135.214 34.4109 135.107 34.5122 135 34.6082C134.798 34.8002 134.574 34.9016 134.328 34.9122C134.083 34.9229 133.854 34.8269 133.64 34.6242C133.47 34.4749 133.384 34.2722 133.384 34.0162C133.384 33.7602 133.486 33.5469 133.688 33.3762C134.04 33.0776 134.419 32.7149 134.824 32.2882C135.23 31.8616 135.619 31.4189 135.992 30.9602C136.366 30.4909 136.675 30.0536 136.92 29.6482C137.07 29.4136 137.262 29.2642 137.496 29.2002C137.731 29.1362 137.96 29.1789 138.184 29.3282C138.398 29.4456 138.531 29.6162 138.584 29.8402C138.648 30.0642 138.606 30.2936 138.456 30.5282C138.318 30.7629 138.158 31.0029 137.976 31.2482C137.806 31.4936 137.624 31.7389 137.432 31.9842V39.4082C137.432 39.6749 137.347 39.8882 137.176 40.0482C137.006 40.2082 136.798 40.2882 136.552 40.2882ZM135.384 29.7762C135.16 29.9256 134.91 29.9949 134.632 29.9842C134.366 29.9629 134.152 29.8509 133.992 29.6482C133.843 29.4562 133.774 29.2429 133.784 29.0082C133.806 28.7629 133.918 28.5762 134.12 28.4482C134.408 28.2456 134.723 28.0109 135.064 27.7442C135.406 27.4669 135.731 27.1789 136.04 26.8802C136.36 26.5816 136.632 26.2989 136.856 26.0322C137.027 25.8402 137.24 25.7389 137.496 25.7282C137.752 25.7069 137.966 25.7656 138.136 25.9042C138.328 26.0642 138.435 26.2616 138.456 26.4962C138.478 26.7202 138.408 26.9336 138.248 27.1362C137.864 27.6162 137.4 28.0962 136.856 28.5762C136.323 29.0456 135.832 29.4456 135.384 29.7762ZM143.128 35.9202C143.555 35.5042 143.918 35.0562 144.216 34.5762C144.494 34.1389 144.35 33.9202 143.784 33.9202H141.672C142.056 34.6776 142.542 35.3442 143.128 35.9202ZM158.712 38.8802C158.446 38.9442 158.195 38.9069 157.96 38.7682C157.726 38.6296 157.576 38.4322 157.512 38.1762C157.448 37.9202 157.486 37.6802 157.624 37.4562C157.763 37.2216 157.96 37.0722 158.216 37.0082C159.4 36.6989 160.27 36.1976 160.824 35.5042C161.39 34.8109 161.672 33.9309 161.672 32.8642C161.672 32.1922 161.523 31.5896 161.224 31.0562C160.926 30.5229 160.499 30.0909 159.944 29.7602C159.4 29.4296 158.744 29.2269 157.976 29.1522C157.784 30.9442 157.459 32.4962 157 33.8082C156.552 35.1096 156.019 36.1176 155.4 36.8322C154.792 37.5362 154.152 37.8882 153.48 37.8882C152.915 37.8882 152.398 37.7229 151.928 37.3922C151.459 37.0616 151.086 36.5869 150.808 35.9682C150.542 35.3496 150.408 34.6082 150.408 33.7442C150.408 32.8589 150.574 32.0322 150.904 31.2642C151.246 30.4856 151.726 29.8029 152.344 29.2162C152.963 28.6296 153.688 28.1709 154.52 27.8402C155.363 27.5096 156.286 27.3442 157.288 27.3442C158.504 27.3442 159.582 27.5789 160.52 28.0482C161.47 28.5069 162.216 29.1522 162.76 29.9842C163.304 30.8056 163.576 31.7656 163.576 32.8642C163.576 34.4109 163.16 35.7016 162.328 36.7362C161.507 37.7602 160.302 38.4749 158.712 38.8802ZM153.496 35.9202C153.688 35.9202 153.907 35.7602 154.152 35.4402C154.408 35.1096 154.664 34.6456 154.92 34.0482C155.176 33.4509 155.411 32.7469 155.624 31.9362C155.838 31.1149 155.998 30.2082 156.104 29.2162C155.272 29.3762 154.574 29.6856 154.008 30.1442C153.443 30.5922 153.016 31.1309 152.728 31.7602C152.44 32.3789 152.291 33.0296 152.28 33.7122C152.28 34.4376 152.392 34.9869 152.616 35.3602C152.851 35.7336 153.144 35.9202 153.496 35.9202ZM172.6 39.2482C172.334 39.2482 172.099 39.1522 171.896 38.9602C171.704 38.7682 171.608 38.5389 171.608 38.2722C171.608 37.9949 171.704 37.7656 171.896 37.5842C172.099 37.3922 172.334 37.2909 172.6 37.2802C173.208 37.2589 173.608 37.1736 173.8 37.0242C174.003 36.8642 174.094 36.5496 174.072 36.0802C174.062 35.7389 174.04 35.3069 174.008 34.7842C173.987 34.2616 173.966 33.7069 173.944 33.1202C173.347 33.7389 172.696 34.3629 171.992 34.9922C171.288 35.6216 170.579 36.2136 169.864 36.7682C169.15 37.3229 168.467 37.8029 167.816 38.2082C167.582 38.3469 167.331 38.3789 167.064 38.3042C166.808 38.2296 166.611 38.0749 166.472 37.8402C166.334 37.6056 166.302 37.3602 166.376 37.1042C166.451 36.8376 166.606 36.6349 166.84 36.4962C167.384 36.1549 168.003 35.7176 168.696 35.1842C169.4 34.6402 170.12 34.0536 170.856 33.4242C171.592 32.7949 172.275 32.1709 172.904 31.5522H167.768C167.502 31.5522 167.272 31.4616 167.08 31.2802C166.899 31.0882 166.808 30.8589 166.808 30.5922C166.808 30.3256 166.899 30.1016 167.08 29.9202C167.272 29.7282 167.502 29.6322 167.768 29.6322H173.784C173.774 29.1949 173.758 28.8109 173.736 28.4802C173.726 28.1496 173.715 27.8936 173.704 27.7122C173.694 27.4349 173.784 27.2002 173.976 27.0082C174.168 26.8162 174.398 26.7149 174.664 26.7042C174.942 26.6936 175.171 26.7842 175.352 26.9762C175.544 27.1576 175.646 27.3869 175.656 27.6642C175.667 27.8669 175.678 28.1389 175.688 28.4802C175.699 28.8216 175.715 29.2056 175.736 29.6322H178.184C178.451 29.6322 178.675 29.7282 178.856 29.9202C179.048 30.1016 179.144 30.3256 179.144 30.5922C179.144 30.8589 179.048 31.0882 178.856 31.2802C178.675 31.4616 178.451 31.5522 178.184 31.5522H175.816C175.838 32.1069 175.859 32.6616 175.88 33.2162C175.912 33.7709 175.939 34.2882 175.96 34.7682C175.992 35.2482 176.014 35.6536 176.024 35.9842C176.078 37.1362 175.838 37.9682 175.304 38.4802C174.771 38.9922 173.87 39.2482 172.6 39.2482ZM187.88 39.6162C187.646 39.7549 187.39 39.7816 187.112 39.6962C186.846 39.6109 186.648 39.4509 186.52 39.2162C186.392 38.9709 186.36 38.7202 186.424 38.4642C186.499 38.2082 186.654 38.0109 186.888 37.8722C187.55 37.5096 188.104 37.1096 188.552 36.6722C189 36.2242 189.358 35.7069 189.624 35.1202C189.902 34.5336 190.099 33.8402 190.216 33.0402C190.344 32.2402 190.408 31.2962 190.408 30.2082C190.408 29.7602 190.392 29.2802 190.36 28.7682C190.339 28.2562 190.302 27.8349 190.248 27.5042C190.216 27.2269 190.286 26.9816 190.456 26.7682C190.638 26.5549 190.862 26.4322 191.128 26.4002C191.406 26.3682 191.646 26.4376 191.848 26.6082C192.062 26.7789 192.184 27.0029 192.216 27.2802C192.259 27.5362 192.286 27.8456 192.296 28.2082C192.318 28.5602 192.328 28.9122 192.328 29.2642C192.339 29.6162 192.344 29.9309 192.344 30.2082C192.344 31.7442 192.216 33.0989 191.96 34.2722C191.704 35.4349 191.251 36.4536 190.6 37.3282C189.96 38.1922 189.054 38.9549 187.88 39.6162ZM186.28 34.3202C186.014 34.2989 185.795 34.1869 185.624 33.9842C185.464 33.7816 185.39 33.5362 185.4 33.2482C185.422 32.9709 185.427 32.6029 185.416 32.1442C185.406 31.6749 185.39 31.1842 185.368 30.6722C185.347 30.1496 185.315 29.6536 185.272 29.1842C185.24 28.7042 185.203 28.3149 185.16 28.0162C185.118 27.7282 185.182 27.4776 185.352 27.2642C185.523 27.0509 185.742 26.9282 186.008 26.8962C186.286 26.8642 186.531 26.9282 186.744 27.0882C186.958 27.2376 187.08 27.4509 187.112 27.7282C187.144 28.0269 187.176 28.4322 187.208 28.9442C187.251 29.4456 187.283 29.9789 187.304 30.5442C187.336 31.1096 187.358 31.6536 187.368 32.1762C187.39 32.6882 187.39 33.1042 187.368 33.4242C187.358 33.7122 187.24 33.9362 187.016 34.0962C186.803 34.2562 186.558 34.3309 186.28 34.3202ZM201.016 38.8322C200.75 38.9069 200.494 38.8856 200.248 38.7682C200.014 38.6402 199.854 38.4429 199.768 38.1762C199.694 37.9202 199.715 37.6696 199.832 37.4242C199.96 37.1789 200.152 37.0189 200.408 36.9442C201.23 36.6882 202.067 36.3309 202.92 35.8722C203.784 35.4136 204.616 34.8909 205.416 34.3042C206.227 33.7069 206.968 33.0776 207.64 32.4162C208.323 31.7549 208.888 31.0936 209.336 30.4322C209.486 30.2082 209.694 30.0696 209.96 30.0162C210.227 29.9629 210.472 30.0162 210.696 30.1762C210.931 30.3256 211.07 30.5336 211.112 30.8002C211.166 31.0669 211.118 31.3122 210.968 31.5362C210.478 32.2616 209.854 32.9976 209.096 33.7442C208.339 34.4802 207.507 35.1842 206.6 35.8562C205.694 36.5176 204.76 37.1096 203.8 37.6322C202.84 38.1442 201.912 38.5442 201.016 38.8322ZM203.304 30.6882C203.155 30.5602 202.942 30.4002 202.664 30.2082C202.398 30.0162 202.12 29.8296 201.832 29.6482C201.544 29.4562 201.294 29.3069 201.08 29.2002C200.846 29.0722 200.691 28.8749 200.616 28.6082C200.542 28.3416 200.574 28.0909 200.712 27.8562C200.851 27.6109 201.054 27.4562 201.32 27.3922C201.587 27.3282 201.838 27.3602 202.072 27.4882C202.307 27.6162 202.59 27.7922 202.92 28.0162C203.262 28.2296 203.592 28.4482 203.912 28.6722C204.232 28.8962 204.483 29.0882 204.664 29.2482C204.867 29.4296 204.968 29.6589 204.968 29.9362C204.979 30.2136 204.894 30.4536 204.712 30.6562C204.52 30.8589 204.291 30.9602 204.024 30.9602C203.758 30.9602 203.518 30.8696 203.304 30.6882ZM201.608 33.6482C201.459 33.5309 201.24 33.3869 200.952 33.2162C200.675 33.0349 200.382 32.8589 200.072 32.6882C199.774 32.5176 199.518 32.3842 199.304 32.2882C199.059 32.1709 198.894 31.9789 198.808 31.7122C198.723 31.4456 198.739 31.1949 198.856 30.9602C198.984 30.7149 199.176 30.5549 199.432 30.4802C199.699 30.3949 199.95 30.4109 200.184 30.5282C200.44 30.6456 200.739 30.8002 201.08 30.9922C201.432 31.1842 201.774 31.3869 202.104 31.6002C202.435 31.8029 202.696 31.9789 202.888 32.1282C203.102 32.2989 203.219 32.5229 203.24 32.8002C203.262 33.0669 203.182 33.3069 203 33.5202C202.83 33.7336 202.606 33.8509 202.328 33.8722C202.062 33.8936 201.822 33.8189 201.608 33.6482ZM209.208 29.4242C209.08 29.5629 208.915 29.6322 208.712 29.6322C208.52 29.6216 208.36 29.5416 208.232 29.3922C208.094 29.2429 207.923 29.0669 207.72 28.8642C207.528 28.6509 207.347 28.4642 207.176 28.3042C207.07 28.2082 207.011 28.0749 207 27.9042C206.99 27.7336 207.048 27.5789 207.176 27.4402C207.294 27.3229 207.438 27.2589 207.608 27.2482C207.779 27.2376 207.934 27.2802 208.072 27.3762C208.243 27.4936 208.44 27.6589 208.664 27.8722C208.899 28.0749 209.091 28.2616 209.24 28.4322C209.379 28.5709 209.443 28.7362 209.432 28.9282C209.422 29.1202 209.347 29.2856 209.208 29.4242ZM209.64 27.9682C209.502 27.8296 209.326 27.6642 209.112 27.4722C208.899 27.2696 208.702 27.0989 208.52 26.9602C208.403 26.8642 208.334 26.7309 208.312 26.5602C208.291 26.3896 208.339 26.2349 208.456 26.0962C208.563 25.9576 208.696 25.8829 208.856 25.8722C209.027 25.8509 209.187 25.8829 209.336 25.9682C209.518 26.0749 209.726 26.2242 209.96 26.4162C210.206 26.5976 210.414 26.7736 210.584 26.9442C210.723 27.0722 210.792 27.2322 210.792 27.4242C210.803 27.6162 210.744 27.7869 210.616 27.9362C210.499 28.0749 210.339 28.1496 210.136 28.1602C209.944 28.1709 209.779 28.1069 209.64 27.9682ZM217.24 39.4082C216.995 39.5256 216.744 39.5362 216.488 39.4402C216.232 39.3442 216.046 39.1789 215.928 38.9442C215.822 38.6989 215.811 38.4482 215.896 38.1922C215.992 37.9256 216.163 37.7336 216.408 37.6162C217.507 37.1149 218.36 36.4642 218.968 35.6642C219.587 34.8642 219.998 33.8616 220.2 32.6562H215.432C215.166 32.6562 214.936 32.5602 214.744 32.3682C214.552 32.1762 214.456 31.9469 214.456 31.6802C214.456 31.4136 214.552 31.1896 214.744 31.0082C214.936 30.8162 215.166 30.7202 215.432 30.7202H220.344V30.6562C220.344 30.1549 220.334 29.6429 220.312 29.1202C220.302 28.5976 220.275 28.1442 220.232 27.7602C220.211 27.4829 220.28 27.2429 220.44 27.0402C220.6 26.8269 220.814 26.6989 221.08 26.6562C221.358 26.6242 221.603 26.6936 221.816 26.8642C222.04 27.0242 222.168 27.2376 222.2 27.5042C222.254 27.9522 222.28 28.4589 222.28 29.0242C222.291 29.5789 222.296 30.1229 222.296 30.6562V30.7202H226.44C226.718 30.7202 226.947 30.8162 227.128 31.0082C227.32 31.1896 227.416 31.4136 227.416 31.6802C227.416 31.9469 227.32 32.1762 227.128 32.3682C226.947 32.5602 226.718 32.6562 226.44 32.6562H222.168C221.742 35.8456 220.099 38.0962 217.24 39.4082ZM241.096 36.8482C240.168 37.2002 239.358 37.3549 238.664 37.3122C237.971 37.2696 237.427 37.0189 237.032 36.5602C236.648 36.0909 236.456 35.4029 236.456 34.4962V29.4082C236.456 29.1309 236.552 28.8962 236.744 28.7042C236.947 28.5122 237.182 28.4162 237.448 28.4162C237.726 28.4162 237.955 28.5122 238.136 28.7042C238.328 28.8962 238.424 29.1309 238.424 29.4082V34.1922C238.424 35.2056 239.038 35.4882 240.264 35.0402C240.744 34.8589 241.267 34.6456 241.832 34.4002C242.408 34.1549 242.92 33.9256 243.368 33.7122C243.614 33.5949 243.864 33.5789 244.12 33.6642C244.376 33.7389 244.568 33.8989 244.696 34.1442C244.824 34.3789 244.846 34.6296 244.76 34.8962C244.686 35.1629 244.526 35.3549 244.28 35.4722C243.79 35.7069 243.262 35.9522 242.696 36.2082C242.131 36.4536 241.598 36.6669 241.096 36.8482ZM230.616 37.8722C230.371 37.9789 230.12 37.9896 229.864 37.9042C229.608 37.8082 229.422 37.6376 229.304 37.3922C229.198 37.1469 229.187 36.8962 229.272 36.6402C229.368 36.3736 229.539 36.1869 229.784 36.0802C230.648 35.6749 231.331 35.1842 231.832 34.6082C232.334 34.0216 232.691 33.3602 232.904 32.6242C233.118 31.8776 233.224 31.0776 233.224 30.2242C233.224 29.9469 233.32 29.7122 233.512 29.5202C233.704 29.3282 233.934 29.2322 234.2 29.2322C234.478 29.2322 234.707 29.3282 234.888 29.5202C235.08 29.7122 235.176 29.9469 235.176 30.2242C235.166 32.0589 234.766 33.6269 233.976 34.9282C233.187 36.2296 232.067 37.2109 230.616 37.8722ZM248.536 39.1842C248.27 39.2269 248.03 39.1736 247.816 39.0242C247.603 38.8749 247.47 38.6722 247.416 38.4162C247.32 37.8722 247.246 37.2429 247.192 36.5282C247.139 35.8029 247.112 35.0402 247.112 34.2402C247.112 33.4402 247.134 32.6349 247.176 31.8242C247.219 31.0136 247.283 30.2402 247.368 29.5042C247.464 28.7576 247.576 28.0909 247.704 27.5042C247.758 27.2482 247.896 27.0509 248.12 26.9122C248.344 26.7629 248.584 26.7149 248.84 26.7682C249.096 26.8322 249.294 26.9762 249.432 27.2002C249.582 27.4136 249.63 27.6536 249.576 27.9202C249.406 28.6776 249.272 29.4989 249.176 30.3842C249.08 31.2696 249.016 32.1709 248.984 33.0882C248.963 33.9949 248.979 34.8802 249.032 35.7442C249.086 36.5976 249.176 37.3762 249.304 38.0802C249.358 38.3362 249.304 38.5709 249.144 38.7842C248.995 38.9976 248.792 39.1309 248.536 39.1842ZM255.096 38.3202C253.71 38.3202 252.675 38.0696 251.992 37.5682C251.32 37.0669 250.915 36.3309 250.776 35.3602C250.734 35.1042 250.787 34.8696 250.936 34.6562C251.096 34.4429 251.31 34.3149 251.576 34.2722C251.832 34.2402 252.067 34.3042 252.28 34.4642C252.494 34.6136 252.622 34.8216 252.664 35.0882C252.728 35.5469 252.947 35.8882 253.32 36.1122C253.694 36.3362 254.302 36.4482 255.144 36.4482C255.944 36.4482 256.91 36.3256 258.04 36.0802C258.296 36.0162 258.536 36.0589 258.76 36.2082C258.984 36.3576 259.123 36.5602 259.176 36.8162C259.23 37.0722 259.182 37.3122 259.032 37.5362C258.883 37.7496 258.68 37.8882 258.424 37.9522C257.848 38.0909 257.272 38.1869 256.696 38.2402C256.131 38.2936 255.598 38.3202 255.096 38.3202ZM252.168 30.4002C251.912 30.4536 251.672 30.4109 251.448 30.2722C251.235 30.1229 251.102 29.9149 251.048 29.6482C250.995 29.3922 251.038 29.1522 251.176 28.9282C251.326 28.7042 251.534 28.5709 251.8 28.5282C252.398 28.4109 253.064 28.3362 253.8 28.3042C254.536 28.2616 255.267 28.2562 255.992 28.2882C256.718 28.3096 257.358 28.3682 257.912 28.4642C258.179 28.5069 258.387 28.6402 258.536 28.8642C258.686 29.0776 258.734 29.3176 258.68 29.5842C258.638 29.8509 258.504 30.0589 258.28 30.2082C258.067 30.3469 257.832 30.3949 257.576 30.3522C256.712 30.2029 255.816 30.1336 254.888 30.1442C253.96 30.1442 253.054 30.2296 252.168 30.4002ZM268.824 40.2402C268.59 40.2722 268.382 40.2189 268.2 40.0802C268.03 39.9416 267.928 39.7549 267.896 39.5202C267.8 38.8802 267.646 38.1442 267.432 37.3122C267.23 36.4696 266.984 35.6269 266.696 34.7842C266.27 34.9229 265.859 35.0616 265.464 35.2002C265.08 35.3282 264.723 35.4509 264.392 35.5682C264.168 35.6429 263.95 35.6322 263.736 35.5362C263.534 35.4402 263.39 35.2856 263.304 35.0722C263.23 34.8482 263.24 34.6349 263.336 34.4322C263.443 34.2189 263.608 34.0749 263.832 34.0002C264.494 33.7656 265.262 33.5096 266.136 33.2322C266.008 32.9229 265.88 32.6242 265.752 32.3362C265.624 32.0482 265.491 31.7762 265.352 31.5202C265.246 31.3069 265.219 31.0882 265.272 30.8642C265.336 30.6402 265.47 30.4749 265.672 30.3682C265.886 30.2509 266.099 30.2296 266.312 30.3042C266.536 30.3682 266.702 30.5069 266.808 30.7202C266.968 31.0189 267.123 31.3389 267.272 31.6802C267.422 32.0216 267.566 32.3789 267.704 32.7522C267.982 32.6669 268.259 32.5816 268.536 32.4962C268.814 32.4109 269.086 32.3309 269.352 32.2562C269.182 32.2029 269.048 32.0962 268.952 31.9362L268.264 30.9122C268.147 30.7202 268.11 30.5176 268.152 30.3042C268.195 30.0802 268.312 29.9042 268.504 29.7762C268.707 29.6482 268.92 29.6109 269.144 29.6642C269.368 29.7069 269.539 29.8242 269.656 30.0162L270.328 31.0242C270.435 31.1842 270.483 31.3549 270.472 31.5362C270.462 31.7069 270.398 31.8669 270.28 32.0162C270.355 31.9949 270.424 31.9736 270.488 31.9522C270.552 31.9309 270.616 31.9149 270.68 31.9042C271.79 31.6269 272.686 31.6696 273.368 32.0322C274.051 32.3949 274.446 33.0082 274.552 33.8722C274.627 34.4909 274.536 35.0349 274.28 35.5042C274.035 35.9736 273.667 36.3309 273.176 36.5762C272.696 36.8216 272.147 36.9336 271.528 36.9122C270.92 36.8909 270.296 36.7042 269.656 36.3522C269.454 36.2349 269.315 36.0642 269.24 35.8402C269.176 35.6162 269.198 35.4029 269.304 35.2002C269.422 34.9869 269.592 34.8482 269.816 34.7842C270.04 34.7202 270.254 34.7469 270.456 34.8642C270.926 35.1309 271.352 35.2642 271.736 35.2642C272.12 35.2536 272.419 35.1416 272.632 34.9282C272.846 34.7042 272.926 34.4109 272.872 34.0482C272.83 33.7389 272.659 33.5256 272.36 33.4082C272.072 33.2909 271.635 33.3016 271.048 33.4402C270.654 33.5469 270.211 33.6696 269.72 33.8082C269.24 33.9469 268.75 34.1016 268.248 34.2722C268.536 35.1469 268.792 36.0269 269.016 36.9122C269.251 37.7869 269.427 38.5816 269.544 39.2962C269.587 39.5309 269.534 39.7389 269.384 39.9202C269.246 40.1122 269.059 40.2189 268.824 40.2402ZM279.208 39.1842C278.974 39.0882 278.808 38.9122 278.712 38.6562C278.616 38.4002 278.622 38.1549 278.728 37.9202C278.91 37.5256 279.139 37.0296 279.416 36.4322C279.704 35.8349 280.014 35.1842 280.344 34.4802C280.686 33.7762 281.032 33.0562 281.384 32.3202C281.736 31.5842 282.083 30.8696 282.424 30.1762C282.766 29.4829 283.08 28.8536 283.368 28.2882C283.656 27.7122 283.896 27.2429 284.088 26.8802C284.206 26.6456 284.392 26.4962 284.648 26.4322C284.915 26.3576 285.16 26.3896 285.384 26.5282C285.619 26.6669 285.768 26.8642 285.832 27.1202C285.907 27.3656 285.875 27.6056 285.736 27.8402C285.587 28.1069 285.39 28.4696 285.144 28.9282C284.91 29.3869 284.643 29.9042 284.344 30.4802C284.056 31.0562 283.758 31.6589 283.448 32.2882C283.822 32.1282 284.2 32.0482 284.584 32.0482C285.598 32.0482 286.291 32.3682 286.664 33.0082C287.048 33.6482 287.086 34.5229 286.776 35.6322C286.616 36.2082 286.6 36.6029 286.728 36.8162C286.867 37.0296 287.118 37.1362 287.48 37.1362C287.726 37.1362 287.96 37.0829 288.184 36.9762C288.408 36.8589 288.638 36.6296 288.872 36.2882C289.107 35.9469 289.352 35.4456 289.608 34.7842C289.704 34.5389 289.875 34.3629 290.12 34.2562C290.366 34.1496 290.611 34.1389 290.856 34.2242C291.102 34.3202 291.278 34.4909 291.384 34.7362C291.502 34.9816 291.512 35.2322 291.416 35.4882C290.99 36.6829 290.456 37.5736 289.816 38.1602C289.187 38.7362 288.382 39.0242 287.4 39.0242C286.728 39.0242 286.163 38.8856 285.704 38.6082C285.246 38.3309 284.942 37.9149 284.792 37.3602C284.643 36.7949 284.686 36.0909 284.92 35.2482C285.07 34.7362 285.086 34.3789 284.968 34.1762C284.851 33.9629 284.606 33.8562 284.232 33.8562C283.752 33.8562 283.304 34.0056 282.888 34.3042C282.472 34.6029 282.067 35.1629 281.672 35.9842C281.63 36.0696 281.55 36.2402 281.432 36.4962C281.326 36.7416 281.208 37.0136 281.08 37.3122C280.952 37.6109 280.83 37.8829 280.712 38.1282C280.606 38.3629 280.536 38.5229 280.504 38.6082C280.398 38.8536 280.222 39.0349 279.976 39.1522C279.742 39.2802 279.486 39.2909 279.208 39.1842ZM295.656 40.2562C295.379 40.3309 295.134 40.3309 294.92 40.2562C294.707 40.1922 294.558 40.0376 294.472 39.7922C294.408 39.5789 294.424 39.3602 294.52 39.1362C294.616 38.9229 294.782 38.7896 295.016 38.7362C295.294 38.6722 295.603 38.5869 295.944 38.4802C296.296 38.3629 296.654 38.2349 297.016 38.0962C297.39 37.9576 297.726 37.8189 298.024 37.6802C297.352 37.5736 296.872 37.3442 296.584 36.9922C296.296 36.6296 296.152 36.0909 296.152 35.3762V33.4882C296.152 32.6029 296.376 31.9896 296.824 31.6482C297.272 31.2962 298.04 31.1202 299.128 31.1202H302.92C304.019 31.1202 304.792 31.2962 305.24 31.6482C305.688 31.9896 305.912 32.6029 305.912 33.4882V35.3762C305.912 36.1016 305.763 36.6456 305.464 37.0082C305.176 37.3602 304.686 37.5842 303.992 37.6802C304.451 37.8936 304.963 38.1016 305.528 38.3042C306.094 38.5069 306.579 38.6509 306.984 38.7362C307.23 38.7896 307.395 38.9229 307.48 39.1362C307.576 39.3602 307.592 39.5789 307.528 39.7922C307.443 40.0376 307.294 40.1922 307.08 40.2562C306.867 40.3309 306.622 40.3309 306.344 40.2562C306.003 40.1602 305.608 40.0269 305.16 39.8562C304.723 39.6962 304.291 39.5256 303.864 39.3442C303.438 39.1629 303.075 38.9922 302.776 38.8322C302.574 38.7149 302.451 38.5602 302.408 38.3682C302.366 38.1656 302.392 37.9736 302.488 37.7922C302.499 37.7816 302.504 37.7762 302.504 37.7762C302.504 37.7656 302.51 37.7549 302.52 37.7442H299.48C299.502 37.7656 299.512 37.7816 299.512 37.7922C299.608 37.9736 299.635 38.1656 299.592 38.3682C299.56 38.5602 299.438 38.7149 299.224 38.8322C298.926 38.9922 298.563 39.1629 298.136 39.3442C297.71 39.5256 297.278 39.6962 296.84 39.8562C296.403 40.0269 296.008 40.1602 295.656 40.2562ZM295.176 31.7442C294.963 31.8829 294.723 31.9469 294.456 31.9362C294.19 31.9256 293.982 31.8082 293.832 31.5842C293.715 31.4029 293.678 31.2002 293.72 30.9762C293.763 30.7416 293.88 30.5709 294.072 30.4642C294.638 30.1549 295.096 29.8029 295.448 29.4082C295.8 29.0136 296.078 28.5442 296.28 28.0002H294.6C294.387 28.0002 294.216 27.9362 294.088 27.8082C293.96 27.6696 293.896 27.5042 293.896 27.3122C293.896 27.1096 293.96 26.9389 294.088 26.8002C294.216 26.6616 294.387 26.5922 294.6 26.5922H296.6C296.622 26.5069 296.632 26.4162 296.632 26.3202C296.643 26.2136 296.654 26.1122 296.664 26.0162C296.686 25.7389 296.792 25.5416 296.984 25.4242C297.176 25.3069 297.395 25.2589 297.64 25.2802C297.864 25.3016 298.051 25.3922 298.2 25.5522C298.35 25.7122 298.414 25.9256 298.392 26.1922C298.382 26.2669 298.371 26.3362 298.36 26.4002C298.36 26.4642 298.355 26.5282 298.344 26.5922H299.352C299.992 26.5922 300.462 26.7522 300.76 27.0722C301.07 27.3816 301.182 27.8829 301.096 28.5762C301.022 29.1949 300.888 29.6696 300.696 30.0002C300.515 30.3309 300.254 30.5602 299.912 30.6882C299.582 30.8162 299.15 30.8802 298.616 30.8802C298.392 30.8802 298.2 30.8162 298.04 30.6882C297.891 30.5496 297.806 30.3629 297.784 30.1282C297.774 29.9149 297.832 29.7336 297.96 29.5842C298.088 29.4242 298.254 29.3389 298.456 29.3282C298.808 29.3069 299.032 29.2589 299.128 29.1842C299.235 29.1096 299.315 28.9229 299.368 28.6242C299.411 28.3896 299.4 28.2296 299.336 28.1442C299.272 28.0482 299.102 28.0002 298.824 28.0002H298.008C297.742 28.8322 297.368 29.5629 296.888 30.1922C296.408 30.8109 295.838 31.3282 295.176 31.7442ZM304.376 30.5282C303.79 30.5282 303.315 30.4696 302.952 30.3522C302.6 30.2242 302.344 30.0056 302.184 29.6962C302.035 29.3762 301.96 28.9229 301.96 28.3362C301.96 27.7389 302.035 27.2856 302.184 26.9762C302.344 26.6562 302.6 26.4376 302.952 26.3202C303.315 26.1922 303.79 26.1282 304.376 26.1282H305.304C305.902 26.1282 306.376 26.1922 306.728 26.3202C307.08 26.4376 307.331 26.6562 307.48 26.9762C307.64 27.2856 307.72 27.7389 307.72 28.3362C307.72 28.9229 307.64 29.3762 307.48 29.6962C307.331 30.0056 307.08 30.2242 306.728 30.3522C306.376 30.4696 305.902 30.5282 305.304 30.5282H304.376ZM298.056 34.7362H303.992V34.0962H298.056V34.7362ZM304.456 29.1202H305.224C305.587 29.1202 305.822 29.0722 305.928 28.9762C306.035 28.8696 306.088 28.6562 306.088 28.3362C306.088 28.0056 306.035 27.7922 305.928 27.6962C305.822 27.5896 305.587 27.5362 305.224 27.5362H304.456C304.094 27.5362 303.859 27.5896 303.752 27.6962C303.646 27.7922 303.592 28.0056 303.592 28.3362C303.592 28.6562 303.646 28.8696 303.752 28.9762C303.859 29.0722 304.094 29.1202 304.456 29.1202ZM299.16 36.4482H302.904C303.288 36.4482 303.555 36.4056 303.704 36.3202C303.854 36.2349 303.944 36.0642 303.976 35.8082H298.088C298.11 36.0642 298.195 36.2349 298.344 36.3202C298.504 36.4056 298.776 36.4482 299.16 36.4482ZM298.088 33.0242H303.976C303.934 32.7896 303.838 32.6349 303.688 32.5602C303.539 32.4749 303.278 32.4322 302.904 32.4322H299.16C298.787 32.4322 298.52 32.4749 298.36 32.5602C298.211 32.6349 298.12 32.7896 298.088 33.0242ZM322.888 39.6802C322.046 39.0509 321.336 38.3469 320.76 37.5682C320.195 36.7789 319.742 35.9469 319.4 35.0722C319.102 35.9469 318.686 36.7736 318.152 37.5522C317.63 38.3202 316.968 39.0136 316.168 39.6322C315.955 39.7922 315.71 39.8722 315.432 39.8722C315.166 39.8722 314.942 39.7549 314.76 39.5202C314.611 39.3069 314.558 39.0776 314.6 38.8322C314.643 38.5869 314.771 38.3896 314.984 38.2402C317.011 36.8002 318.136 34.7202 318.36 32.0002H315.672C315.438 32.0002 315.235 31.9149 315.064 31.7442C314.894 31.5629 314.808 31.3549 314.808 31.1202C314.808 30.8749 314.894 30.6669 315.064 30.4962C315.235 30.3256 315.438 30.2402 315.672 30.2402H318.408V26.6082C318.408 26.3202 318.504 26.0962 318.696 25.9362C318.888 25.7656 319.102 25.6802 319.336 25.6802C319.592 25.6802 319.806 25.7656 319.976 25.9362C320.158 26.0962 320.248 26.3202 320.248 26.6082V30.2402H323.464C323.71 30.2402 323.918 30.3256 324.088 30.4962C324.259 30.6669 324.344 30.8749 324.344 31.1202C324.344 31.3549 324.259 31.5629 324.088 31.7442C323.918 31.9149 323.71 32.0002 323.464 32.0002H320.312C320.462 33.3549 320.872 34.5549 321.544 35.6002C322.227 36.6349 323.091 37.5149 324.136 38.2402C324.35 38.3789 324.472 38.5762 324.504 38.8322C324.536 39.0882 324.467 39.3176 324.296 39.5202C324.115 39.7549 323.891 39.8829 323.624 39.9042C323.368 39.9256 323.123 39.8509 322.888 39.6802ZM313.528 40.2722C313.283 40.2722 313.07 40.1869 312.888 40.0162C312.707 39.8562 312.616 39.6429 312.616 39.3762V35.2962C312.318 35.5309 311.998 35.7762 311.656 36.0322C311.326 36.2776 311.059 36.4696 310.856 36.6082C310.622 36.7576 310.371 36.8162 310.104 36.7842C309.838 36.7416 309.63 36.5869 309.48 36.3202C309.352 36.0856 309.32 35.8509 309.384 35.6162C309.448 35.3816 309.592 35.1949 309.816 35.0562C309.966 34.9602 310.163 34.8269 310.408 34.6562C310.664 34.4856 310.931 34.2989 311.208 34.0962C311.486 33.8936 311.747 33.7016 311.992 33.5202C312.248 33.3282 312.456 33.1682 312.616 33.0402V30.9922C312.552 31.1736 312.403 31.3229 312.168 31.4402C311.934 31.5682 311.688 31.5949 311.432 31.5202C311.176 31.4456 310.99 31.2909 310.872 31.0562C310.808 30.9176 310.707 30.7256 310.568 30.4802C310.43 30.2349 310.291 29.9896 310.152 29.7442C310.024 29.4989 309.923 29.3122 309.848 29.1842C309.71 28.9709 309.678 28.7416 309.752 28.4962C309.827 28.2509 309.987 28.0642 310.232 27.9362C310.478 27.8082 310.718 27.7762 310.952 27.8402C311.198 27.8936 311.39 28.0376 311.528 28.2722C311.614 28.4109 311.726 28.6082 311.864 28.8642C312.003 29.1202 312.136 29.3762 312.264 29.6322C312.403 29.8776 312.504 30.0642 312.568 30.1922L312.616 30.3362V26.5282C312.616 26.2509 312.707 26.0322 312.888 25.8722C313.07 25.7122 313.283 25.6322 313.528 25.6322C313.774 25.6322 313.982 25.7122 314.152 25.8722C314.334 26.0322 314.424 26.2509 314.424 26.5282V39.3762C314.424 39.6429 314.334 39.8562 314.152 40.0162C313.982 40.1869 313.774 40.2722 313.528 40.2722ZM323.592 29.3282C323.411 29.4776 323.198 29.5469 322.952 29.5362C322.707 29.5149 322.51 29.4082 322.36 29.2162C322.286 29.1202 322.174 28.9869 322.024 28.8162C321.875 28.6349 321.72 28.4589 321.56 28.2882C321.411 28.1069 321.288 27.9682 321.192 27.8722C321.043 27.7016 320.979 27.5042 321 27.2802C321.022 27.0562 321.118 26.8749 321.288 26.7362C321.47 26.5762 321.672 26.4962 321.896 26.4962C322.12 26.4962 322.318 26.5869 322.488 26.7682C322.584 26.8642 322.712 26.9976 322.872 27.1682C323.032 27.3389 323.187 27.5096 323.336 27.6802C323.496 27.8509 323.608 27.9789 323.672 28.0642C323.864 28.2776 323.95 28.4962 323.928 28.7202C323.918 28.9442 323.806 29.1469 323.592 29.3282Z" fill="white"/>
</g>
<defs>
<clipPath id="clip0_157_17">
<rect width="410" height="100" fill="white"/>
</clipPath>
</defs>
</svg>
