<svg width="601" height="141" viewBox="0 0 601 141" fill="none" xmlns="http://www.w3.org/2000/svg">
<g clip-path="url(#clip0_449_1438)">
<path d="M589.333 11.7326C589.333 5.54651 584.167 0.5 577.833 0.5H24C17.6667 0.5 12.5 5.54651 12.5 11.7326C6.16667 11.7326 1 16.7791 1 22.9651V117.872C1 124.058 6.16667 129.105 12.5 129.105C12.5 135.291 17.6667 140.337 24 140.337H577.833C584.167 140.337 589.333 135.291 589.333 129.105C595.667 129.105 600.833 124.058 600.833 117.872V22.9651C600.833 16.7791 595.667 11.7326 589.333 11.7326Z" fill="#ED8B21"/>
<path d="M577.833 133.01H24.0002C21.8335 133.01 20.0002 131.22 20.0002 129.103V121.615H12.3335C10.1668 121.615 8.3335 119.824 8.3335 117.708V22.9638C8.3335 20.8475 10.1668 19.0568 12.3335 19.0568H20.0002V11.7312C20.0002 9.61492 21.8335 7.82422 24.0002 7.82422H577.833C580 7.82422 581.833 9.61492 581.833 11.7312V19.2196H589.5C591.667 19.2196 593.5 21.0103 593.5 23.1265V118.034C593.5 120.15 591.667 121.94 589.5 121.94H581.833V129.429C581.667 131.382 580 133.01 577.833 133.01ZM12.3335 21.1731C11.3335 21.1731 10.3335 21.987 10.3335 23.1265V118.034C10.3335 119.01 11.1668 119.987 12.3335 119.987H21.0002C21.5002 119.987 22.0002 120.475 22.0002 120.964V129.429C22.0002 130.406 22.8335 131.382 24.0002 131.382H577.833C578.833 131.382 579.833 130.568 579.833 129.429V120.964C579.833 120.475 580.333 119.987 580.833 119.987H589.5C590.5 119.987 591.5 119.173 591.5 118.034V22.9638C591.5 21.987 590.667 21.0103 589.5 21.0103H580.833C580.333 21.0103 579.833 20.5219 579.833 20.0335V11.7312C579.833 10.7545 579 9.77771 577.833 9.77771H24.0002C23.0002 9.77771 22.0002 10.5917 22.0002 11.7312V20.1963C22.0002 20.6847 21.5002 21.1731 21.0002 21.1731H12.3335Z" fill="white"/>
<path d="M89.7 114.14C89.1667 114.14 88.6973 113.948 88.292 113.564C87.908 113.18 87.716 112.721 87.716 112.188C87.716 111.633 87.908 111.175 88.292 110.812C88.6973 110.428 89.1667 110.225 89.7 110.204C90.916 110.161 91.716 109.991 92.1 109.692C92.5053 109.372 92.6867 108.743 92.644 107.804C92.6227 107.121 92.58 106.257 92.516 105.212C92.4733 104.167 92.4307 103.057 92.388 101.884C91.1933 103.121 89.892 104.369 88.484 105.628C87.076 106.887 85.6573 108.071 84.228 109.18C82.7987 110.289 81.4333 111.249 80.132 112.06C79.6627 112.337 79.1613 112.401 78.628 112.252C78.116 112.103 77.7213 111.793 77.444 111.324C77.1667 110.855 77.1027 110.364 77.252 109.852C77.4013 109.319 77.7107 108.913 78.18 108.636C79.268 107.953 80.5053 107.079 81.892 106.012C83.3 104.924 84.74 103.751 86.212 102.492C87.684 101.233 89.0493 99.9853 90.308 98.748H80.036C79.5027 98.748 79.044 98.5667 78.66 98.204C78.2973 97.82 78.116 97.3613 78.116 96.828C78.116 96.2947 78.2973 95.8467 78.66 95.484C79.044 95.1 79.5027 94.908 80.036 94.908H92.068C92.0467 94.0333 92.0147 93.2653 91.972 92.604C91.9507 91.9427 91.9293 91.4307 91.908 91.068C91.8867 90.5133 92.068 90.044 92.452 89.66C92.836 89.276 93.2947 89.0733 93.828 89.052C94.3827 89.0307 94.8413 89.212 95.204 89.596C95.588 89.9587 95.7907 90.4173 95.812 90.972C95.8333 91.3773 95.8547 91.9213 95.876 92.604C95.8973 93.2867 95.9293 94.0547 95.972 94.908H100.868C101.401 94.908 101.849 95.1 102.212 95.484C102.596 95.8467 102.788 96.2947 102.788 96.828C102.788 97.3613 102.596 97.82 102.212 98.204C101.849 98.5667 101.401 98.748 100.868 98.748H96.132C96.1747 99.8573 96.2173 100.967 96.26 102.076C96.324 103.185 96.3773 104.22 96.42 105.18C96.484 106.14 96.5267 106.951 96.548 107.612C96.6547 109.916 96.1747 111.58 95.108 112.604C94.0413 113.628 92.2387 114.14 89.7 114.14ZM120.26 114.876C119.791 115.153 119.279 115.207 118.724 115.036C118.191 114.865 117.796 114.545 117.54 114.076C117.284 113.585 117.22 113.084 117.348 112.572C117.497 112.06 117.807 111.665 118.276 111.388C119.599 110.663 120.708 109.863 121.604 108.988C122.5 108.092 123.215 107.057 123.748 105.884C124.303 104.711 124.697 103.324 124.932 101.724C125.188 100.124 125.316 98.236 125.316 96.06C125.316 95.164 125.284 94.204 125.22 93.18C125.177 92.156 125.103 91.3133 124.996 90.652C124.932 90.0973 125.071 89.6067 125.412 89.18C125.775 88.7533 126.223 88.508 126.756 88.444C127.311 88.38 127.791 88.5187 128.196 88.86C128.623 89.2013 128.868 89.6493 128.932 90.204C129.017 90.716 129.071 91.3347 129.092 92.06C129.135 92.764 129.156 93.468 129.156 94.172C129.177 94.876 129.188 95.5053 129.188 96.06C129.188 99.132 128.932 101.841 128.42 104.188C127.908 106.513 127.001 108.551 125.7 110.3C124.42 112.028 122.607 113.553 120.26 114.876ZM117.06 104.284C116.527 104.241 116.089 104.017 115.748 103.612C115.428 103.207 115.279 102.716 115.3 102.14C115.343 101.585 115.353 100.849 115.332 99.932C115.311 98.9933 115.279 98.012 115.236 96.988C115.193 95.9427 115.129 94.9507 115.044 94.012C114.98 93.052 114.905 92.2733 114.82 91.676C114.735 91.1 114.863 90.5987 115.204 90.172C115.545 89.7453 115.983 89.5 116.516 89.436C117.071 89.372 117.561 89.5 117.988 89.82C118.415 90.1187 118.66 90.5453 118.724 91.1C118.788 91.6973 118.852 92.508 118.916 93.532C119.001 94.5347 119.065 95.6013 119.108 96.732C119.172 97.8627 119.215 98.9507 119.236 99.996C119.279 101.02 119.279 101.852 119.236 102.492C119.215 103.068 118.98 103.516 118.532 103.836C118.105 104.156 117.615 104.305 117.06 104.284ZM146.532 113.308C145.999 113.457 145.487 113.415 144.996 113.18C144.527 112.924 144.207 112.529 144.036 111.996C143.887 111.484 143.929 110.983 144.164 110.492C144.42 110.001 144.804 109.681 145.316 109.532C146.959 109.02 148.633 108.305 150.34 107.388C152.068 106.471 153.732 105.425 155.332 104.252C156.953 103.057 158.436 101.799 159.78 100.476C161.145 99.1533 162.276 97.8307 163.172 96.508C163.471 96.06 163.887 95.7827 164.42 95.676C164.953 95.5693 165.444 95.676 165.892 95.996C166.361 96.2947 166.639 96.7107 166.724 97.244C166.831 97.7773 166.735 98.268 166.436 98.716C165.455 100.167 164.207 101.639 162.692 103.132C161.177 104.604 159.513 106.012 157.7 107.356C155.887 108.679 154.02 109.863 152.1 110.908C150.18 111.932 148.324 112.732 146.532 113.308ZM151.108 97.02C150.809 96.764 150.383 96.444 149.828 96.06C149.295 95.676 148.74 95.3027 148.164 94.94C147.588 94.556 147.087 94.2573 146.66 94.044C146.191 93.788 145.881 93.3933 145.732 92.86C145.583 92.3267 145.647 91.8253 145.924 91.356C146.201 90.8653 146.607 90.556 147.14 90.428C147.673 90.3 148.175 90.364 148.644 90.62C149.113 90.876 149.679 91.228 150.34 91.676C151.023 92.1027 151.684 92.54 152.324 92.988C152.964 93.436 153.465 93.82 153.828 94.14C154.233 94.5027 154.436 94.9613 154.436 95.516C154.457 96.0707 154.287 96.5507 153.924 96.956C153.54 97.3613 153.081 97.564 152.548 97.564C152.015 97.564 151.535 97.3827 151.108 97.02ZM147.716 102.94C147.417 102.705 146.98 102.417 146.404 102.076C145.849 101.713 145.263 101.361 144.644 101.02C144.047 100.679 143.535 100.412 143.108 100.22C142.617 99.9853 142.287 99.6013 142.116 99.068C141.945 98.5347 141.977 98.0333 142.212 97.564C142.468 97.0733 142.852 96.7533 143.364 96.604C143.897 96.4333 144.399 96.4653 144.868 96.7C145.38 96.9347 145.977 97.244 146.66 97.628C147.364 98.012 148.047 98.4173 148.708 98.844C149.369 99.2493 149.892 99.6013 150.276 99.9C150.703 100.241 150.937 100.689 150.98 101.244C151.023 101.777 150.863 102.257 150.5 102.684C150.159 103.111 149.711 103.345 149.156 103.388C148.623 103.431 148.143 103.281 147.716 102.94ZM162.916 94.492C162.66 94.7693 162.329 94.908 161.924 94.908C161.54 94.8867 161.22 94.7267 160.964 94.428C160.687 94.1293 160.345 93.7773 159.94 93.372C159.556 92.9453 159.193 92.572 158.852 92.252C158.639 92.06 158.521 91.7933 158.5 91.452C158.479 91.1107 158.596 90.8013 158.852 90.524C159.087 90.2893 159.375 90.1613 159.716 90.14C160.057 90.1187 160.367 90.204 160.644 90.396C160.985 90.6307 161.38 90.9613 161.828 91.388C162.297 91.7933 162.681 92.1667 162.98 92.508C163.257 92.7853 163.385 93.116 163.364 93.5C163.343 93.884 163.193 94.2147 162.916 94.492ZM163.78 91.58C163.503 91.3027 163.151 90.972 162.724 90.588C162.297 90.1827 161.903 89.8413 161.54 89.564C161.305 89.372 161.167 89.1053 161.124 88.764C161.081 88.4227 161.177 88.1133 161.412 87.836C161.625 87.5587 161.892 87.4093 162.212 87.388C162.553 87.3453 162.873 87.4093 163.172 87.58C163.535 87.7933 163.951 88.092 164.42 88.476C164.911 88.8387 165.327 89.1907 165.668 89.532C165.945 89.788 166.084 90.108 166.084 90.492C166.105 90.876 165.988 91.2173 165.732 91.516C165.497 91.7933 165.177 91.9427 164.772 91.964C164.388 91.9853 164.057 91.8573 163.78 91.58ZM178.98 114.46C178.489 114.695 177.988 114.716 177.476 114.524C176.964 114.332 176.591 114.001 176.356 113.532C176.143 113.041 176.121 112.54 176.292 112.028C176.484 111.495 176.825 111.111 177.316 110.876C179.513 109.873 181.22 108.572 182.436 106.972C183.673 105.372 184.495 103.367 184.9 100.956H175.364C174.831 100.956 174.372 100.764 173.988 100.38C173.604 99.996 173.412 99.5373 173.412 99.004C173.412 98.4707 173.604 98.0227 173.988 97.66C174.372 97.276 174.831 97.084 175.364 97.084H185.188V96.956C185.188 95.9533 185.167 94.9293 185.124 93.884C185.103 92.8387 185.049 91.932 184.964 91.164C184.921 90.6093 185.06 90.1293 185.38 89.724C185.7 89.2973 186.127 89.0413 186.66 88.956C187.215 88.892 187.705 89.0307 188.132 89.372C188.58 89.692 188.836 90.1187 188.9 90.652C189.007 91.548 189.06 92.5613 189.06 93.692C189.081 94.8013 189.092 95.8893 189.092 96.956V97.084H197.38C197.935 97.084 198.393 97.276 198.756 97.66C199.14 98.0227 199.332 98.4707 199.332 99.004C199.332 99.5373 199.14 99.996 198.756 100.38C198.393 100.764 197.935 100.956 197.38 100.956H188.836C187.983 107.335 184.697 111.836 178.98 114.46ZM226.692 109.34C224.836 110.044 223.215 110.353 221.828 110.268C220.441 110.183 219.353 109.681 218.564 108.764C217.796 107.825 217.412 106.449 217.412 104.636V94.46C217.412 93.9053 217.604 93.436 217.988 93.052C218.393 92.668 218.863 92.476 219.396 92.476C219.951 92.476 220.409 92.668 220.772 93.052C221.156 93.436 221.348 93.9053 221.348 94.46V104.028C221.348 106.055 222.575 106.62 225.028 105.724C225.988 105.361 227.033 104.935 228.164 104.444C229.316 103.953 230.34 103.495 231.236 103.068C231.727 102.833 232.228 102.801 232.74 102.972C233.252 103.121 233.636 103.441 233.892 103.932C234.148 104.401 234.191 104.903 234.02 105.436C233.871 105.969 233.551 106.353 233.06 106.588C232.079 107.057 231.023 107.548 229.892 108.06C228.761 108.551 227.695 108.977 226.692 109.34ZM205.732 111.388C205.241 111.601 204.74 111.623 204.228 111.452C203.716 111.26 203.343 110.919 203.108 110.428C202.895 109.937 202.873 109.436 203.044 108.924C203.236 108.391 203.577 108.017 204.068 107.804C205.796 106.993 207.161 106.012 208.164 104.86C209.167 103.687 209.881 102.364 210.308 100.892C210.735 99.3987 210.948 97.7987 210.948 96.092C210.948 95.5373 211.14 95.068 211.524 94.684C211.908 94.3 212.367 94.108 212.9 94.108C213.455 94.108 213.913 94.3 214.276 94.684C214.66 95.068 214.852 95.5373 214.852 96.092C214.831 99.7613 214.031 102.897 212.452 105.5C210.873 108.103 208.633 110.065 205.732 111.388ZM252.26 116.38C251.727 116.38 251.257 116.199 250.852 115.836C250.468 115.473 250.276 114.993 250.276 114.396V109.084H237.156C236.687 109.084 236.292 108.924 235.972 108.604C235.652 108.284 235.492 107.889 235.492 107.42C235.492 106.951 235.652 106.556 235.972 106.236C236.292 105.916 236.687 105.756 237.156 105.756H241.316V103.068C241.316 101.745 241.497 100.7 241.86 99.932C242.223 99.164 242.841 98.62 243.716 98.3C244.612 97.9587 245.849 97.788 247.428 97.788H250.276V94.14H243.716C243.097 95.0573 242.447 95.9427 241.764 96.796C241.081 97.628 240.399 98.396 239.716 99.1C239.311 99.5053 238.831 99.74 238.276 99.804C237.743 99.868 237.263 99.708 236.836 99.324C236.431 98.9827 236.217 98.5667 236.196 98.076C236.175 97.564 236.367 97.1053 236.772 96.7C237.647 95.8467 238.489 94.876 239.3 93.788C240.132 92.7 240.9 91.5907 241.604 90.46C242.308 89.3293 242.884 88.284 243.332 87.324C243.567 86.8547 243.929 86.5347 244.42 86.364C244.932 86.1933 245.412 86.2253 245.86 86.46C246.329 86.6733 246.649 87.004 246.82 87.452C246.991 87.8787 246.959 88.3267 246.724 88.796C246.447 89.436 246.127 90.076 245.764 90.716H262.308C262.777 90.716 263.172 90.8867 263.492 91.228C263.833 91.548 264.004 91.9427 264.004 92.412C264.004 92.8813 263.833 93.2867 263.492 93.628C263.172 93.9693 262.777 94.14 262.308 94.14H254.244V97.788H260.292C260.761 97.788 261.156 97.9587 261.476 98.3C261.796 98.62 261.956 99.0147 261.956 99.484C261.956 99.9533 261.796 100.359 261.476 100.7C261.156 101.02 260.761 101.18 260.292 101.18H254.244V105.756H263.716C264.185 105.756 264.58 105.916 264.9 106.236C265.22 106.556 265.38 106.951 265.38 107.42C265.38 107.889 265.22 108.284 264.9 108.604C264.58 108.924 264.185 109.084 263.716 109.084H254.244V114.396C254.244 114.993 254.052 115.473 253.668 115.836C253.284 116.199 252.815 116.38 252.26 116.38ZM245.252 105.756H250.276V101.18H247.428C246.532 101.18 245.945 101.297 245.668 101.532C245.391 101.745 245.252 102.257 245.252 103.068V105.756ZM271.812 116.156C271.257 116.305 270.767 116.305 270.34 116.156C269.913 116.028 269.615 115.719 269.444 115.228C269.316 114.801 269.348 114.364 269.54 113.916C269.732 113.489 270.063 113.223 270.532 113.116C271.087 112.988 271.705 112.817 272.388 112.604C273.092 112.369 273.807 112.113 274.532 111.836C275.279 111.559 275.951 111.281 276.548 111.004C275.204 110.791 274.244 110.332 273.668 109.628C273.092 108.903 272.804 107.825 272.804 106.396V102.62C272.804 100.849 273.252 99.6227 274.148 98.94C275.044 98.236 276.58 97.884 278.756 97.884H286.34C288.537 97.884 290.084 98.236 290.98 98.94C291.876 99.6227 292.324 100.849 292.324 102.62V106.396C292.324 107.847 292.025 108.935 291.428 109.66C290.852 110.364 289.871 110.812 288.484 111.004C289.401 111.431 290.425 111.847 291.556 112.252C292.687 112.657 293.657 112.945 294.468 113.116C294.959 113.223 295.289 113.489 295.46 113.916C295.652 114.364 295.684 114.801 295.556 115.228C295.385 115.719 295.087 116.028 294.66 116.156C294.233 116.305 293.743 116.305 293.188 116.156C292.505 115.964 291.716 115.697 290.82 115.356C289.945 115.036 289.081 114.695 288.228 114.332C287.375 113.969 286.649 113.628 286.052 113.308C285.647 113.073 285.401 112.764 285.316 112.38C285.231 111.975 285.284 111.591 285.476 111.228C285.497 111.207 285.508 111.196 285.508 111.196C285.508 111.175 285.519 111.153 285.54 111.132H279.46C279.503 111.175 279.524 111.207 279.524 111.228C279.716 111.591 279.769 111.975 279.684 112.38C279.62 112.764 279.375 113.073 278.948 113.308C278.351 113.628 277.625 113.969 276.772 114.332C275.919 114.695 275.055 115.036 274.18 115.356C273.305 115.697 272.516 115.964 271.812 116.156ZM270.852 99.132C270.425 99.4093 269.945 99.5373 269.412 99.516C268.879 99.4947 268.463 99.26 268.164 98.812C267.929 98.4493 267.855 98.044 267.94 97.596C268.025 97.1267 268.26 96.7853 268.644 96.572C269.775 95.9533 270.692 95.2493 271.396 94.46C272.1 93.6707 272.655 92.732 273.06 91.644H269.7C269.273 91.644 268.932 91.516 268.676 91.26C268.42 90.9827 268.292 90.652 268.292 90.268C268.292 89.8627 268.42 89.5213 268.676 89.244C268.932 88.9667 269.273 88.828 269.7 88.828H273.7C273.743 88.6573 273.764 88.476 273.764 88.284C273.785 88.0707 273.807 87.868 273.828 87.676C273.871 87.1213 274.084 86.7267 274.468 86.492C274.852 86.2573 275.289 86.1613 275.78 86.204C276.228 86.2467 276.601 86.428 276.9 86.748C277.199 87.068 277.327 87.4947 277.284 88.028C277.263 88.1773 277.241 88.316 277.22 88.444C277.22 88.572 277.209 88.7 277.188 88.828H279.204C280.484 88.828 281.423 89.148 282.02 89.788C282.639 90.4067 282.863 91.4093 282.692 92.796C282.543 94.0333 282.276 94.9827 281.892 95.644C281.529 96.3053 281.007 96.764 280.324 97.02C279.663 97.276 278.799 97.404 277.732 97.404C277.284 97.404 276.9 97.276 276.58 97.02C276.281 96.7427 276.111 96.3693 276.068 95.9C276.047 95.4733 276.164 95.1107 276.42 94.812C276.676 94.492 277.007 94.3213 277.412 94.3C278.116 94.2573 278.564 94.1613 278.756 94.012C278.969 93.8627 279.129 93.4893 279.236 92.892C279.321 92.4227 279.3 92.1027 279.172 91.932C279.044 91.74 278.703 91.644 278.148 91.644H276.516C275.983 93.308 275.236 94.7693 274.276 96.028C273.316 97.2653 272.175 98.3 270.852 99.132ZM289.252 96.7C288.079 96.7 287.129 96.5827 286.404 96.348C285.7 96.092 285.188 95.6547 284.868 95.036C284.569 94.396 284.42 93.4893 284.42 92.316C284.42 91.1213 284.569 90.2147 284.868 89.596C285.188 88.956 285.7 88.5187 286.404 88.284C287.129 88.028 288.079 87.9 289.252 87.9H291.108C292.303 87.9 293.252 88.028 293.956 88.284C294.66 88.5187 295.161 88.956 295.46 89.596C295.78 90.2147 295.94 91.1213 295.94 92.316C295.94 93.4893 295.78 94.396 295.46 95.036C295.161 95.6547 294.66 96.092 293.956 96.348C293.252 96.5827 292.303 96.7 291.108 96.7H289.252ZM276.612 105.116H288.484V103.836H276.612V105.116ZM289.412 93.884H290.948C291.673 93.884 292.143 93.788 292.356 93.596C292.569 93.3827 292.676 92.956 292.676 92.316C292.676 91.6547 292.569 91.228 292.356 91.036C292.143 90.8227 291.673 90.716 290.948 90.716H289.412C288.687 90.716 288.217 90.8227 288.004 91.036C287.791 91.228 287.684 91.6547 287.684 92.316C287.684 92.956 287.791 93.3827 288.004 93.596C288.217 93.788 288.687 93.884 289.412 93.884ZM278.82 108.54H286.308C287.076 108.54 287.609 108.455 287.908 108.284C288.207 108.113 288.388 107.772 288.452 107.26H276.676C276.719 107.772 276.889 108.113 277.188 108.284C277.508 108.455 278.052 108.54 278.82 108.54ZM276.676 101.692H288.452C288.367 101.223 288.175 100.913 287.876 100.764C287.577 100.593 287.055 100.508 286.308 100.508H278.82C278.073 100.508 277.54 100.593 277.22 100.764C276.921 100.913 276.74 101.223 276.676 101.692ZM326.276 115.004C324.591 113.745 323.172 112.337 322.02 110.78C320.889 109.201 319.983 107.537 319.3 105.788C318.703 107.537 317.871 109.191 316.804 110.748C315.759 112.284 314.436 113.671 312.836 114.908C312.409 115.228 311.919 115.388 311.364 115.388C310.831 115.388 310.383 115.153 310.02 114.684C309.721 114.257 309.615 113.799 309.7 113.308C309.785 112.817 310.041 112.423 310.468 112.124C314.521 109.244 316.772 105.084 317.22 99.644H311.844C311.375 99.644 310.969 99.4733 310.628 99.132C310.287 98.7693 310.116 98.3533 310.116 97.884C310.116 97.3933 310.287 96.9773 310.628 96.636C310.969 96.2947 311.375 96.124 311.844 96.124H317.316V88.86C317.316 88.284 317.508 87.836 317.892 87.516C318.276 87.1747 318.703 87.004 319.172 87.004C319.684 87.004 320.111 87.1747 320.452 87.516C320.815 87.836 320.996 88.284 320.996 88.86V96.124H327.428C327.919 96.124 328.335 96.2947 328.676 96.636C329.017 96.9773 329.188 97.3933 329.188 97.884C329.188 98.3533 329.017 98.7693 328.676 99.132C328.335 99.4733 327.919 99.644 327.428 99.644H321.124C321.423 102.353 322.244 104.753 323.588 106.844C324.953 108.913 326.681 110.673 328.772 112.124C329.199 112.401 329.444 112.796 329.508 113.308C329.572 113.82 329.433 114.279 329.092 114.684C328.729 115.153 328.281 115.409 327.748 115.452C327.236 115.495 326.745 115.345 326.276 115.004ZM307.556 116.188C307.065 116.188 306.639 116.017 306.276 115.676C305.913 115.356 305.732 114.929 305.732 114.396V106.236C305.135 106.705 304.495 107.196 303.812 107.708C303.151 108.199 302.617 108.583 302.212 108.86C301.743 109.159 301.241 109.276 300.708 109.212C300.175 109.127 299.759 108.817 299.46 108.284C299.204 107.815 299.14 107.345 299.268 106.876C299.396 106.407 299.684 106.033 300.132 105.756C300.431 105.564 300.825 105.297 301.316 104.956C301.828 104.615 302.361 104.241 302.916 103.836C303.471 103.431 303.993 103.047 304.484 102.684C304.996 102.3 305.412 101.98 305.732 101.724V97.628C305.604 97.9907 305.305 98.2893 304.836 98.524C304.367 98.78 303.876 98.8333 303.364 98.684C302.852 98.5347 302.479 98.2253 302.244 97.756C302.116 97.4787 301.913 97.0947 301.636 96.604C301.359 96.1133 301.081 95.6227 300.804 95.132C300.548 94.6413 300.345 94.268 300.196 94.012C299.919 93.5853 299.855 93.1267 300.004 92.636C300.153 92.1453 300.473 91.772 300.964 91.516C301.455 91.26 301.935 91.196 302.404 91.324C302.895 91.4307 303.279 91.7187 303.556 92.188C303.727 92.4653 303.951 92.86 304.228 93.372C304.505 93.884 304.772 94.396 305.028 94.908C305.305 95.3987 305.508 95.772 305.636 96.028L305.732 96.316V88.7C305.732 88.1453 305.913 87.708 306.276 87.388C306.639 87.068 307.065 86.908 307.556 86.908C308.047 86.908 308.463 87.068 308.804 87.388C309.167 87.708 309.348 88.1453 309.348 88.7V114.396C309.348 114.929 309.167 115.356 308.804 115.676C308.463 116.017 308.047 116.188 307.556 116.188ZM327.684 94.3C327.321 94.5987 326.895 94.7373 326.404 94.716C325.913 94.6733 325.519 94.46 325.22 94.076C325.071 93.884 324.847 93.6173 324.548 93.276C324.249 92.9133 323.94 92.5613 323.62 92.22C323.321 91.8573 323.076 91.58 322.884 91.388C322.585 91.0467 322.457 90.652 322.5 90.204C322.543 89.756 322.735 89.3933 323.076 89.116C323.439 88.796 323.844 88.636 324.292 88.636C324.74 88.636 325.135 88.8173 325.476 89.18C325.668 89.372 325.924 89.6387 326.244 89.98C326.564 90.3213 326.873 90.6627 327.172 91.004C327.492 91.3453 327.716 91.6013 327.844 91.772C328.228 92.1987 328.399 92.636 328.356 93.084C328.335 93.532 328.111 93.9373 327.684 94.3ZM347.396 114.748C345.689 114.748 344.313 114.332 343.268 113.5C342.244 112.647 341.732 111.431 341.732 109.852C341.732 108.337 342.244 107.143 343.268 106.268C344.313 105.372 345.743 104.924 347.556 104.924C348.111 104.924 348.676 104.956 349.252 105.02C349.231 104.017 349.199 102.929 349.156 101.756C349.135 100.561 349.103 99.3453 349.06 98.108C347.929 98.172 346.831 98.2147 345.764 98.236C344.719 98.2573 343.812 98.2573 343.044 98.236C342.511 98.2147 342.063 98.0227 341.7 97.66C341.359 97.276 341.199 96.8173 341.22 96.284C341.263 95.772 341.465 95.3453 341.828 95.004C342.212 94.6413 342.66 94.4707 343.172 94.492C343.919 94.5133 344.793 94.524 345.796 94.524C346.82 94.5027 347.887 94.46 348.996 94.396C348.975 93.5853 348.964 92.8067 348.964 92.06C348.964 91.3133 348.964 90.6093 348.964 89.948C348.964 89.4147 349.145 88.9667 349.508 88.604C349.871 88.22 350.319 88.028 350.852 88.028C351.407 88.028 351.865 88.22 352.228 88.604C352.591 88.9667 352.772 89.4147 352.772 89.948C352.772 90.6093 352.772 91.292 352.772 91.996C352.793 92.7 352.804 93.4147 352.804 94.14C353.743 94.0547 354.596 93.9693 355.364 93.884C356.153 93.7987 356.815 93.7133 357.348 93.628C357.86 93.5213 358.329 93.628 358.756 93.948C359.183 94.2467 359.439 94.652 359.524 95.164C359.609 95.676 359.492 96.1453 359.172 96.572C358.873 96.9987 358.468 97.244 357.956 97.308C357.359 97.3933 356.612 97.4893 355.716 97.596C354.841 97.6813 353.892 97.7667 352.868 97.852C352.911 99.3453 352.953 100.785 352.996 102.172C353.039 103.559 353.071 104.785 353.092 105.852C354.265 106.236 355.364 106.695 356.388 107.228C357.433 107.761 358.34 108.316 359.108 108.892C359.535 109.212 359.791 109.639 359.876 110.172C359.961 110.684 359.855 111.153 359.556 111.58C359.257 112.007 358.841 112.273 358.308 112.38C357.796 112.487 357.327 112.38 356.9 112.06C356.367 111.655 355.78 111.26 355.14 110.876C354.5 110.492 353.839 110.151 353.156 109.852C352.943 113.116 351.023 114.748 347.396 114.748ZM336.74 114.78C336.207 114.865 335.727 114.759 335.3 114.46C334.873 114.161 334.607 113.756 334.5 113.244C334.372 112.54 334.276 111.58 334.212 110.364C334.148 109.148 334.105 107.783 334.084 106.268C334.063 104.753 334.063 103.185 334.084 101.564C334.127 99.9213 334.191 98.332 334.276 96.796C334.361 95.2387 334.468 93.8307 334.596 92.572C334.745 91.292 334.916 90.2573 335.108 89.468C335.236 88.956 335.524 88.5613 335.972 88.284C336.42 88.0067 336.9 87.932 337.412 88.06C337.924 88.188 338.319 88.476 338.596 88.924C338.873 89.372 338.948 89.852 338.82 90.364C338.628 91.1533 338.468 92.1453 338.34 93.34C338.212 94.5347 338.105 95.8467 338.02 97.276C337.935 98.684 337.871 100.135 337.828 101.628C337.807 103.121 337.807 104.572 337.828 105.98C337.849 107.367 337.892 108.636 337.956 109.788C338.041 110.919 338.148 111.847 338.276 112.572C338.383 113.084 338.276 113.553 337.956 113.98C337.657 114.407 337.252 114.673 336.74 114.78ZM347.396 111.132C348.719 111.132 349.38 110.503 349.38 109.244C349.38 109.18 349.369 109.095 349.348 108.988C349.348 108.881 349.348 108.764 349.348 108.636C348.708 108.508 348.057 108.444 347.396 108.444C346.735 108.444 346.244 108.572 345.924 108.828C345.625 109.084 345.476 109.415 345.476 109.82C345.476 110.225 345.625 110.545 345.924 110.78C346.223 111.015 346.713 111.132 347.396 111.132ZM386.98 112.604C383.759 113.351 380.879 113.671 378.34 113.564C375.823 113.479 373.721 112.999 372.036 112.124C370.372 111.249 369.209 110.012 368.548 108.412C368.335 107.921 368.335 107.431 368.548 106.94C368.761 106.449 369.113 106.108 369.604 105.916C370.095 105.703 370.575 105.703 371.044 105.916C371.535 106.129 371.876 106.481 372.068 106.972C372.473 107.889 373.305 108.593 374.564 109.084C375.823 109.575 377.433 109.82 379.396 109.82C381.38 109.799 383.62 109.479 386.116 108.86C386.628 108.732 387.108 108.817 387.556 109.116C388.004 109.393 388.292 109.788 388.42 110.3C388.527 110.812 388.441 111.292 388.164 111.74C387.887 112.188 387.492 112.476 386.98 112.604ZM384.036 95.1C382.884 94.8013 381.647 94.5773 380.324 94.428C379.023 94.2573 377.732 94.1613 376.452 94.14C375.172 94.1187 373.977 94.1613 372.868 94.268C372.335 94.332 371.855 94.204 371.428 93.884C371.023 93.564 370.788 93.1373 370.724 92.604C370.66 92.0707 370.788 91.6013 371.108 91.196C371.428 90.7693 371.855 90.524 372.388 90.46C373.668 90.332 375.076 90.3 376.612 90.364C378.148 90.4067 379.641 90.5133 381.092 90.684C382.564 90.8547 383.844 91.0787 384.932 91.356C385.444 91.5053 385.839 91.804 386.116 92.252C386.393 92.6787 386.468 93.148 386.34 93.66C386.233 94.172 385.945 94.5773 385.476 94.876C385.028 95.1533 384.548 95.228 384.036 95.1ZM409.092 115.676C408.559 115.697 408.1 115.516 407.716 115.132C407.332 114.769 407.119 114.321 407.076 113.788C407.055 113.255 407.225 112.796 407.588 112.412C407.972 112.007 408.431 111.804 408.964 111.804C412.015 111.719 414.191 111.207 415.492 110.268C416.815 109.308 417.476 107.921 417.476 106.108C417.476 105.105 417.145 104.305 416.484 103.708C415.844 103.111 414.991 102.759 413.924 102.652C412.879 102.524 411.727 102.684 410.468 103.132C409.209 103.58 407.972 104.337 406.756 105.404C406.436 105.681 406.063 105.831 405.636 105.852C405.231 105.852 404.847 105.745 404.484 105.532C404.143 105.297 403.897 104.988 403.748 104.604C403.599 104.22 403.577 103.825 403.684 103.42C403.983 102.396 404.249 101.191 404.484 99.804C404.719 98.4173 404.911 97.0307 405.06 95.644C404.015 95.6653 403.033 95.676 402.116 95.676C401.199 95.6547 400.399 95.6227 399.716 95.58C399.204 95.5373 398.777 95.3133 398.436 94.908C398.116 94.5027 397.977 94.044 398.02 93.532C398.063 93.02 398.287 92.604 398.692 92.284C399.097 91.9427 399.556 91.7933 400.068 91.836C400.772 91.9 401.583 91.9427 402.5 91.964C403.439 91.9853 404.409 91.9853 405.412 91.964C405.455 91.3667 405.487 90.8227 405.508 90.332C405.529 89.82 405.54 89.372 405.54 88.988C405.54 88.4547 405.711 88.0067 406.052 87.644C406.415 87.26 406.863 87.0573 407.396 87.036C407.929 87.0147 408.388 87.1853 408.772 87.548C409.156 87.9107 409.348 88.3587 409.348 88.892C409.348 89.2547 409.327 89.6813 409.284 90.172C409.263 90.6627 409.231 91.196 409.188 91.772C411.321 91.644 413.167 91.3987 414.724 91.036C415.236 90.9293 415.705 91.0253 416.132 91.324C416.58 91.6013 416.847 91.996 416.932 92.508C417.039 93.02 416.953 93.4893 416.676 93.916C416.399 94.3427 416.004 94.6093 415.492 94.716C414.575 94.8867 413.54 95.036 412.388 95.164C411.236 95.292 410.041 95.3987 408.804 95.484C408.697 96.4227 408.569 97.3507 408.42 98.268C408.271 99.164 408.121 99.9747 407.972 100.7C409.167 100.017 410.383 99.5587 411.62 99.324C412.857 99.0893 414.052 99.0573 415.204 99.228C416.356 99.3987 417.391 99.772 418.308 100.348C419.225 100.924 419.951 101.692 420.484 102.652C421.017 103.591 421.284 104.711 421.284 106.012C421.284 109.041 420.207 111.377 418.052 113.02C415.897 114.663 412.911 115.548 409.092 115.676ZM439.876 114.652C439.343 114.652 438.884 114.471 438.5 114.108C438.137 113.745 437.945 113.297 437.924 112.764C437.924 112.231 438.105 111.783 438.468 111.42C438.831 111.036 439.279 110.833 439.812 110.812C445.785 110.705 448.772 108.999 448.772 105.692C448.772 104.604 448.399 103.751 447.652 103.132C446.905 102.513 445.913 102.204 444.676 102.204C443.311 102.204 441.892 102.545 440.42 103.228C438.969 103.889 437.647 104.892 436.452 106.236C436.175 106.556 435.812 106.759 435.364 106.844C434.937 106.908 434.543 106.844 434.18 106.652C433.817 106.481 433.551 106.215 433.38 105.852C433.209 105.468 433.156 105.073 433.22 104.668C433.369 103.772 433.529 102.801 433.7 101.756C433.892 100.711 434.095 99.6547 434.308 98.588C434.521 97.5 434.735 96.4973 434.948 95.58C435.055 95.0467 435.332 94.652 435.78 94.396C436.249 94.1187 436.74 94.044 437.252 94.172C437.764 94.3 438.159 94.5987 438.436 95.068C438.713 95.516 438.788 95.996 438.66 96.508C438.511 97.1053 438.329 97.7987 438.116 98.588C437.924 99.356 437.721 100.177 437.508 101.052C439.961 99.388 442.383 98.556 444.772 98.556C446.351 98.556 447.727 98.8547 448.9 99.452C450.073 100.049 450.98 100.881 451.62 101.948C452.281 103.015 452.612 104.263 452.612 105.692C452.612 108.359 451.567 110.503 449.476 112.124C447.385 113.745 444.185 114.588 439.876 114.652ZM444.996 94.62C444.313 94.2787 443.535 93.916 442.66 93.532C441.807 93.1267 440.943 92.7427 440.068 92.38C439.215 91.996 438.457 91.676 437.796 91.42C437.327 91.228 437.007 90.876 436.836 90.364C436.665 89.852 436.687 89.3613 436.9 88.892C437.135 88.4013 437.497 88.0813 437.988 87.932C438.479 87.7613 438.969 87.772 439.46 87.964C440.164 88.2413 440.921 88.5613 441.732 88.924C442.564 89.2653 443.396 89.628 444.228 90.012C445.06 90.3747 445.817 90.7267 446.5 91.068C446.969 91.3027 447.3 91.6653 447.492 92.156C447.705 92.6253 447.716 93.1053 447.524 93.596C447.311 94.0653 446.959 94.4067 446.468 94.62C445.977 94.8333 445.487 94.8333 444.996 94.62Z" fill="white"/>
<path d="M524.5 105.063H473C471.667 105.063 470.5 103.924 470.5 102.621C470.5 101.319 471.667 100.179 473 100.179H518.667L509.5 90.5748C508.5 89.5981 508.667 87.9702 509.667 87.1562C510.667 86.1795 512.333 86.3423 513.167 87.319L526.333 100.993C527 101.645 527.167 102.784 526.833 103.598C526.333 104.575 525.5 105.063 524.5 105.063Z" fill="white"/>
<path d="M145.82 65.98C145.073 66.0067 144.46 65.82 143.98 65.42C143.527 65.0467 143.26 64.5267 143.18 63.86C143.127 63.22 143.3 62.6733 143.7 62.22C144.1 61.74 144.647 61.4467 145.34 61.34C146.113 61.26 146.607 61.1133 146.82 60.9C147.06 60.6867 147.18 60.2733 147.18 59.66V52.66C146.807 52.7933 146.433 52.9267 146.06 53.06C145.687 53.1667 145.353 53.2867 145.06 53.42C144.34 53.66 143.687 53.6467 143.1 53.38C142.54 53.0867 142.153 52.6067 141.94 51.94C141.753 51.2733 141.793 50.6733 142.06 50.14C142.353 49.58 142.873 49.1933 143.62 48.98C144.127 48.8467 144.673 48.6867 145.26 48.5C145.873 48.2867 146.513 48.0733 147.18 47.86V40.98H143.98C143.393 40.98 142.887 40.78 142.46 40.38C142.06 39.9533 141.86 39.4467 141.86 38.86C141.86 38.2733 142.06 37.78 142.46 37.38C142.887 36.9533 143.393 36.74 143.98 36.74H147.18V30.9C147.18 30.2333 147.393 29.7 147.82 29.3C148.247 28.9 148.767 28.7 149.38 28.7C149.993 28.7 150.5 28.9 150.9 29.3C151.327 29.7 151.54 30.2333 151.54 30.9V36.74H153.66C154.247 36.74 154.74 36.9533 155.14 37.38C155.567 37.78 155.78 38.2733 155.78 38.86C155.833 38.38 156.047 37.9933 156.42 37.7C156.793 37.38 157.273 37.2067 157.86 37.18C158.1 37.1533 158.353 37.14 158.62 37.14C158.913 37.1133 159.207 37.0867 159.5 37.06C159.74 36.4467 160.047 35.6867 160.42 34.78C160.793 33.8467 161.153 32.9533 161.5 32.1C161.873 31.22 162.14 30.5533 162.3 30.1C162.513 29.46 162.913 29.02 163.5 28.78C164.113 28.54 164.727 28.5267 165.34 28.74C165.953 28.98 166.38 29.3667 166.62 29.9C166.86 30.4333 166.86 30.9933 166.62 31.58C166.38 32.1667 166.033 32.9533 165.58 33.94C165.127 34.9 164.673 35.82 164.22 36.7C165.287 36.62 166.353 36.54 167.42 36.46C168.487 36.3533 169.487 36.26 170.42 36.18C170.18 35.8867 169.953 35.6067 169.74 35.34C169.553 35.0733 169.367 34.8333 169.18 34.62C168.833 34.22 168.7 33.7667 168.78 33.26C168.887 32.7267 169.153 32.3 169.58 31.98C170.007 31.66 170.487 31.5133 171.02 31.54C171.58 31.54 172.06 31.7667 172.46 32.22C172.993 32.8067 173.593 33.5 174.26 34.3C174.927 35.0733 175.567 35.86 176.18 36.66C176.793 37.4333 177.3 38.1 177.7 38.66C178.073 39.1667 178.207 39.7133 178.1 40.3C178.02 40.8867 177.713 41.3533 177.18 41.7C176.647 42.0467 176.087 42.18 175.5 42.1C174.913 41.9933 174.433 41.6733 174.06 41.14C173.927 40.9267 173.78 40.7 173.62 40.46C173.46 40.22 173.273 39.9667 173.06 39.7C171.78 39.86 170.233 40.0467 168.42 40.26C166.633 40.4467 164.873 40.62 163.14 40.78C163.647 41.3933 163.74 42.0867 163.42 42.86C163.393 42.9933 163.34 43.14 163.26 43.3C163.18 43.4333 163.113 43.58 163.06 43.74H174.82C175.38 43.74 175.847 43.94 176.22 44.34C176.62 44.7133 176.82 45.1667 176.82 45.7C176.82 46.26 176.62 46.74 176.22 47.14C175.847 47.5133 175.38 47.7 174.82 47.7H168.74V49.34C168.74 50.0867 168.7 50.82 168.62 51.54H176.78C177.34 51.54 177.807 51.74 178.18 52.14C178.58 52.5133 178.78 52.9933 178.78 53.58C178.78 54.14 178.58 54.62 178.18 55.02C177.807 55.3933 177.34 55.58 176.78 55.58H170.3C171.26 56.8067 172.407 57.9133 173.74 58.9C175.073 59.86 176.473 60.6867 177.94 61.38C178.527 61.6467 178.927 62.06 179.14 62.62C179.353 63.2067 179.3 63.82 178.98 64.46C178.633 65.1 178.113 65.4867 177.42 65.62C176.753 65.7533 176.073 65.6467 175.38 65.3C173.86 64.5533 172.327 63.5267 170.78 62.22C169.233 60.9133 167.913 59.4467 166.82 57.82C164.9 61.3667 161.567 63.94 156.82 65.54C156.153 65.78 155.5 65.8067 154.86 65.62C154.22 65.4333 153.767 65.0067 153.5 64.34C153.287 63.7267 153.313 63.1267 153.58 62.54C153.847 61.9533 154.34 61.5533 155.06 61.34C156.9 60.7267 158.46 59.9533 159.74 59.02C161.02 58.0867 162.007 56.94 162.7 55.58H156.26C155.7 55.58 155.22 55.3933 154.82 55.02C154.42 54.62 154.22 54.14 154.22 53.58C154.22 52.9933 154.42 52.5133 154.82 52.14C155.22 51.74 155.7 51.54 156.26 51.54H163.94C163.993 51.1667 164.033 50.7933 164.06 50.42C164.087 50.0467 164.1 49.66 164.1 49.26V47.7H161.06C160.5 48.7667 159.927 49.6867 159.34 50.46C158.993 50.9667 158.513 51.3 157.9 51.46C157.313 51.5933 156.753 51.5 156.22 51.18C155.527 50.7533 155.207 50.1533 155.26 49.38C155.153 49.46 155.047 49.54 154.94 49.62C154.833 49.6733 154.713 49.7267 154.58 49.78C154.18 49.94 153.727 50.1267 153.22 50.34C152.713 50.5533 152.153 50.7667 151.54 50.98V60.46C151.54 62.3267 151.073 63.7 150.14 64.58C149.207 65.46 147.767 65.9267 145.82 65.98ZM156.06 47.66C156.46 47.0467 156.873 46.3533 157.3 45.58C157.727 44.8067 158.127 44.0467 158.5 43.3C158.873 42.5533 159.18 41.8867 159.42 41.3C159.42 41.2467 159.447 41.1933 159.5 41.14L158.34 41.26C157.593 41.3133 156.993 41.1667 156.54 40.82C156.087 40.4733 155.833 39.9933 155.78 39.38V39.1C155.727 39.6333 155.487 40.0867 155.06 40.46C154.66 40.8067 154.193 40.98 153.66 40.98H151.54V46.38C151.833 46.2733 152.113 46.18 152.38 46.1C152.647 46.02 152.9 45.94 153.14 45.86C153.807 45.6467 154.393 45.6467 154.9 45.86C155.407 46.0733 155.753 46.4733 155.94 47.06L156.06 47.66ZM197.66 65.74C196.887 65.9533 196.207 65.94 195.62 65.7C195.06 65.46 194.673 65.0067 194.46 64.34C194.273 63.7267 194.34 63.1533 194.66 62.62C194.98 62.1133 195.487 61.7667 196.18 61.58C197.753 61.2067 199.193 60.7667 200.5 60.26C201.833 59.7267 203.073 59.14 204.22 58.5C203.793 58.1267 203.353 57.74 202.9 57.34C202.447 56.94 202.047 56.6067 201.7 56.34C201.247 55.9133 201.033 55.3933 201.06 54.78C201.087 54.14 201.313 53.62 201.74 53.22C202.193 52.82 202.713 52.62 203.3 52.62C203.887 52.5933 204.393 52.7667 204.82 53.14C205.193 53.4333 205.687 53.86 206.3 54.42C206.94 54.9533 207.487 55.4467 207.94 55.9C209.14 54.8067 210.207 53.62 211.14 52.34C211.567 51.7267 211.673 51.26 211.46 50.94C211.273 50.5933 210.807 50.42 210.06 50.42H204.1C203.247 51.5133 202.327 52.5667 201.34 53.58C200.353 54.5667 199.34 55.46 198.3 56.26C197.793 56.66 197.22 56.86 196.58 56.86C195.94 56.86 195.42 56.6067 195.02 56.1C194.647 55.62 194.487 55.0733 194.54 54.46C194.62 53.8467 194.913 53.3667 195.42 53.02C196.833 51.9267 198.22 50.6067 199.58 49.06C200.967 47.4867 202.113 45.9267 203.02 44.38C202.94 44.46 202.82 44.5533 202.66 44.66C202.153 44.98 201.58 45.0867 200.94 44.98C200.3 44.8467 199.833 44.5133 199.54 43.98C199.273 43.5267 198.953 42.9667 198.58 42.3C198.207 41.6067 197.873 41.02 197.58 40.54C197.127 39.74 196.807 39.0333 196.62 38.42C196.46 37.78 196.433 37.1267 196.54 36.46C196.673 35.7933 196.94 35.02 197.34 34.14C197.607 33.6067 197.913 32.94 198.26 32.14C198.633 31.3133 198.94 30.6467 199.18 30.14C199.393 29.6067 199.807 29.2333 200.42 29.02C201.033 28.8067 201.62 28.8333 202.18 29.1C202.713 29.3667 203.073 29.78 203.26 30.34C203.447 30.8733 203.407 31.3933 203.14 31.9C202.873 32.4333 202.553 33.06 202.18 33.78C201.807 34.4733 201.46 35.1 201.14 35.66C200.82 36.2467 200.687 36.74 200.74 37.14C200.793 37.5133 200.993 37.9933 201.34 38.58C201.633 38.98 201.967 39.4867 202.34 40.1C202.74 40.7133 203.06 41.2067 203.3 41.58C203.7 42.1933 203.793 42.8467 203.58 43.54C203.927 43.1667 204.367 42.9533 204.9 42.9C205.433 42.82 205.913 42.9267 206.34 43.22C206.447 43.2733 206.527 43.34 206.58 43.42C206.66 43.4733 206.74 43.54 206.82 43.62C206.553 43.14 206.22 42.58 205.82 41.94C205.447 41.2733 205.1 40.7133 204.78 40.26C204.087 39.14 203.7 38.1533 203.62 37.3C203.567 36.4467 203.86 35.38 204.5 34.1C204.793 33.5667 205.113 32.9267 205.46 32.18C205.807 31.4067 206.1 30.74 206.34 30.18C206.607 29.6467 207.033 29.2867 207.62 29.1C208.207 28.8867 208.767 28.9267 209.3 29.22C209.833 29.4867 210.18 29.9 210.34 30.46C210.527 30.9933 210.473 31.5133 210.18 32.02C209.913 32.5267 209.62 33.1 209.3 33.74C208.98 34.3533 208.673 34.9133 208.38 35.42C208.033 36.0333 207.873 36.5267 207.9 36.9C207.927 37.2467 208.14 37.7133 208.54 38.3C208.833 38.7 209.193 39.22 209.62 39.86C210.047 40.5 210.393 41.0067 210.66 41.38C210.98 41.8867 211.087 42.4467 210.98 43.06C210.873 43.6467 210.553 44.1 210.02 44.42C209.567 44.7133 209.06 44.8333 208.5 44.78C207.967 44.7 207.513 44.4733 207.14 44.1C207.433 44.7133 207.393 45.3533 207.02 46.02C206.967 46.1267 206.913 46.2333 206.86 46.34C206.807 46.42 206.753 46.5 206.7 46.58H211.3C213.033 46.58 214.327 46.9 215.18 47.54C216.06 48.18 216.513 49.0333 216.54 50.1C216.593 51.1667 216.22 52.3267 215.42 53.58C213.5 56.5667 211.113 59.06 208.26 61.06C205.407 63.06 201.873 64.62 197.66 65.74ZM185.98 65.86C185.233 65.8867 184.607 65.6867 184.1 65.26C183.62 64.86 183.353 64.2867 183.3 63.54C183.273 62.9267 183.447 62.3667 183.82 61.86C184.22 61.3533 184.82 61.06 185.62 60.98C186.393 60.9267 186.873 60.7933 187.06 60.58C187.273 60.3667 187.38 59.9533 187.38 59.34V52.98C186.633 53.22 185.993 53.4467 185.46 53.66C184.713 53.9 184.033 53.8867 183.42 53.62C182.833 53.3533 182.433 52.8867 182.22 52.22C182.033 51.6067 182.06 51.0067 182.3 50.42C182.567 49.8333 183.06 49.4333 183.78 49.22C184.793 48.9267 185.993 48.5533 187.38 48.1V40.98H184.26C183.673 40.98 183.167 40.7667 182.74 40.34C182.313 39.9133 182.1 39.4067 182.1 38.82C182.1 38.2067 182.313 37.7 182.74 37.3C183.167 36.8733 183.673 36.66 184.26 36.66H187.38V30.94C187.38 30.2733 187.593 29.7533 188.02 29.38C188.473 28.98 188.993 28.78 189.58 28.78C190.193 28.78 190.713 28.98 191.14 29.38C191.567 29.7533 191.78 30.2733 191.78 30.94V36.66H193.98C194.593 36.66 195.1 36.8733 195.5 37.3C195.927 37.7 196.14 38.2067 196.14 38.82C196.14 39.4067 195.927 39.9133 195.5 40.34C195.1 40.7667 194.593 40.98 193.98 40.98H191.78V46.62C192.207 46.46 192.607 46.3133 192.98 46.18C193.353 46.0467 193.687 45.9267 193.98 45.82C194.647 45.58 195.233 45.5667 195.74 45.78C196.247 45.9933 196.593 46.3933 196.78 46.98C196.993 47.5933 196.967 48.1533 196.7 48.66C196.433 49.1667 195.993 49.5667 195.38 49.86C194.953 50.0467 194.42 50.26 193.78 50.5C193.14 50.74 192.473 51.0067 191.78 51.3V59.94C191.78 61.9933 191.3 63.4733 190.34 64.38C189.407 65.3133 187.953 65.8067 185.98 65.86ZM217.38 44.22C216.873 44.54 216.3 44.6467 215.66 44.54C215.02 44.4067 214.553 44.0867 214.26 43.58C213.993 43.1 213.633 42.5133 213.18 41.82C212.753 41.1 212.367 40.4867 212.02 39.98C211.3 38.94 210.9 38.0067 210.82 37.18C210.74 36.3267 211.02 35.2733 211.66 34.02C211.953 33.4867 212.273 32.8733 212.62 32.18C212.967 31.46 213.273 30.8067 213.54 30.22C213.807 29.6867 214.22 29.34 214.78 29.18C215.367 28.9933 215.927 29.0467 216.46 29.34C216.993 29.6067 217.34 30.0067 217.5 30.54C217.66 31.0733 217.607 31.5933 217.34 32.1C217.073 32.6067 216.78 33.1267 216.46 33.66C216.14 34.1933 215.847 34.6867 215.58 35.14C215.207 35.8067 215.02 36.3133 215.02 36.66C215.047 36.98 215.287 37.4467 215.74 38.06C216.033 38.4333 216.407 38.9533 216.86 39.62C217.34 40.26 217.713 40.7933 217.98 41.22C218.3 41.7267 218.407 42.2733 218.3 42.86C218.22 43.42 217.913 43.8733 217.38 44.22ZM255.22 64.38C253.113 62.8067 251.34 61.0467 249.9 59.1C248.487 57.1267 247.353 55.0467 246.5 52.86C245.753 55.0467 244.713 57.1133 243.38 59.06C242.073 60.98 240.42 62.7133 238.42 64.26C237.887 64.66 237.273 64.86 236.58 64.86C235.913 64.86 235.353 64.5667 234.9 63.98C234.527 63.4467 234.393 62.8733 234.5 62.26C234.607 61.6467 234.927 61.1533 235.46 60.78C240.527 57.18 243.34 51.98 243.9 45.18H237.18C236.593 45.18 236.087 44.9667 235.66 44.54C235.233 44.0867 235.02 43.5667 235.02 42.98C235.02 42.3667 235.233 41.8467 235.66 41.42C236.087 40.9933 236.593 40.78 237.18 40.78H244.02V31.7C244.02 30.98 244.26 30.42 244.74 30.02C245.22 29.5933 245.753 29.38 246.34 29.38C246.98 29.38 247.513 29.5933 247.94 30.02C248.393 30.42 248.62 30.98 248.62 31.7V40.78H256.66C257.273 40.78 257.793 40.9933 258.22 41.42C258.647 41.8467 258.86 42.3667 258.86 42.98C258.86 43.5667 258.647 44.0867 258.22 44.54C257.793 44.9667 257.273 45.18 256.66 45.18H248.78C249.153 48.5667 250.18 51.5667 251.86 54.18C253.567 56.7667 255.727 58.9667 258.34 60.78C258.873 61.1267 259.18 61.62 259.26 62.26C259.34 62.9 259.167 63.4733 258.74 63.98C258.287 64.5667 257.727 64.8867 257.06 64.94C256.42 64.9933 255.807 64.8067 255.22 64.38ZM231.82 65.86C231.207 65.86 230.673 65.6467 230.22 65.22C229.767 64.82 229.54 64.2867 229.54 63.62V53.42C228.793 54.0067 227.993 54.62 227.14 55.26C226.313 55.8733 225.647 56.3533 225.14 56.7C224.553 57.0733 223.927 57.22 223.26 57.14C222.593 57.0333 222.073 56.6467 221.7 55.98C221.38 55.3933 221.3 54.8067 221.46 54.22C221.62 53.6333 221.98 53.1667 222.54 52.82C222.913 52.58 223.407 52.2467 224.02 51.82C224.66 51.3933 225.327 50.9267 226.02 50.42C226.713 49.9133 227.367 49.4333 227.98 48.98C228.62 48.5 229.14 48.1 229.54 47.78V42.66C229.38 43.1133 229.007 43.4867 228.42 43.78C227.833 44.1 227.22 44.1667 226.58 43.98C225.94 43.7933 225.473 43.4067 225.18 42.82C225.02 42.4733 224.767 41.9933 224.42 41.38C224.073 40.7667 223.727 40.1533 223.38 39.54C223.06 38.9267 222.807 38.46 222.62 38.14C222.273 37.6067 222.193 37.0333 222.38 36.42C222.567 35.8067 222.967 35.34 223.58 35.02C224.193 34.7 224.793 34.62 225.38 34.78C225.993 34.9133 226.473 35.2733 226.82 35.86C227.033 36.2067 227.313 36.7 227.66 37.34C228.007 37.98 228.34 38.62 228.66 39.26C229.007 39.8733 229.26 40.34 229.42 40.66L229.54 41.02V31.5C229.54 30.8067 229.767 30.26 230.22 29.86C230.673 29.46 231.207 29.26 231.82 29.26C232.433 29.26 232.953 29.46 233.38 29.86C233.833 30.26 234.06 30.8067 234.06 31.5V63.62C234.06 64.2867 233.833 64.82 233.38 65.22C232.953 65.6467 232.433 65.86 231.82 65.86ZM256.98 38.5C256.527 38.8733 255.993 39.0467 255.38 39.02C254.767 38.9667 254.273 38.7 253.9 38.22C253.713 37.98 253.433 37.6467 253.06 37.22C252.687 36.7667 252.3 36.3267 251.9 35.9C251.527 35.4467 251.22 35.1 250.98 34.86C250.607 34.4333 250.447 33.94 250.5 33.38C250.553 32.82 250.793 32.3667 251.22 32.02C251.673 31.62 252.18 31.42 252.74 31.42C253.3 31.42 253.793 31.6467 254.22 32.1C254.46 32.34 254.78 32.6733 255.18 33.1C255.58 33.5267 255.967 33.9533 256.34 34.38C256.74 34.8067 257.02 35.1267 257.18 35.34C257.66 35.8733 257.873 36.42 257.82 36.98C257.793 37.54 257.513 38.0467 256.98 38.5ZM278.06 64.26C277.393 64.26 276.82 64.0067 276.34 63.5C275.86 63.02 275.62 62.4467 275.62 61.78V34.14C275.62 33.4467 275.86 32.8733 276.34 32.42C276.82 31.94 277.393 31.7 278.06 31.7C278.753 31.7 279.34 31.94 279.82 32.42C280.3 32.8733 280.54 33.4467 280.54 34.14V43.78C280.887 43.2467 281.367 42.9 281.98 42.74C282.593 42.5533 283.193 42.62 283.78 42.94C285.353 43.7667 286.953 44.7133 288.58 45.78C290.233 46.82 291.66 47.8467 292.86 48.86C293.393 49.2867 293.687 49.86 293.74 50.58C293.82 51.2733 293.633 51.8867 293.18 52.42C292.753 52.9267 292.193 53.22 291.5 53.3C290.807 53.3533 290.193 53.1667 289.66 52.74C288.913 52.1533 288.047 51.5267 287.06 50.86C286.1 50.1933 285.127 49.5533 284.14 48.94C283.18 48.3 282.3 47.7533 281.5 47.3C281.073 47.06 280.753 46.7667 280.54 46.42V61.78C280.54 62.4467 280.3 63.02 279.82 63.5C279.34 64.0067 278.753 64.26 278.06 64.26ZM293.66 41.78C293.313 42.0733 292.887 42.1933 292.38 42.14C291.9 42.0867 291.513 41.86 291.22 41.46C290.953 41.06 290.593 40.5667 290.14 39.98C289.687 39.3933 289.273 38.8867 288.9 38.46C288.66 38.1667 288.553 37.8067 288.58 37.38C288.607 36.9533 288.793 36.5933 289.14 36.3C289.46 36.0067 289.82 35.8733 290.22 35.9C290.647 35.9267 291.02 36.0867 291.34 36.38C291.74 36.7267 292.193 37.1933 292.7 37.78C293.207 38.34 293.633 38.8467 293.98 39.3C294.273 39.7 294.38 40.14 294.3 40.62C294.247 41.0733 294.033 41.46 293.66 41.78ZM297.54 38.38C297.193 38.7267 296.767 38.8867 296.26 38.86C295.78 38.8333 295.393 38.6333 295.1 38.26C294.78 37.8867 294.38 37.4333 293.9 36.9C293.42 36.3667 292.98 35.8867 292.58 35.46C292.313 35.1667 292.167 34.82 292.14 34.42C292.14 33.9933 292.313 33.6067 292.66 33.26C292.953 32.9667 293.3 32.82 293.7 32.82C294.127 32.7933 294.513 32.9133 294.86 33.18C295.26 33.5 295.74 33.9267 296.3 34.46C296.86 34.9933 297.327 35.4867 297.7 35.94C297.993 36.2867 298.127 36.7 298.1 37.18C298.073 37.6333 297.887 38.0333 297.54 38.38ZM316.18 64.18C315.647 64.42 315.087 64.4333 314.5 64.22C313.94 64.0067 313.54 63.6333 313.3 63.1C313.06 62.54 313.047 61.98 313.26 61.42C313.473 60.86 313.847 60.46 314.38 60.22C317.1 58.9933 319.327 57.6067 321.06 56.06C322.82 54.4867 324.193 52.6867 325.18 50.66C326.167 48.6067 326.847 46.26 327.22 43.62C327.3 43.0067 327.58 42.5267 328.06 42.18C328.567 41.8333 329.113 41.7 329.7 41.78C330.287 41.86 330.753 42.14 331.1 42.62C331.473 43.1 331.607 43.6467 331.5 44.26C330.807 48.8467 329.207 52.8067 326.7 56.14C324.22 59.4467 320.713 62.1267 316.18 64.18ZM321.46 51.14C320.873 51.3267 320.327 51.3 319.82 51.06C319.313 50.7933 318.953 50.38 318.74 49.82C318.447 49.0467 318.073 48.1667 317.62 47.18C317.193 46.1933 316.833 45.4067 316.54 44.82C316.273 44.2867 316.207 43.74 316.34 43.18C316.473 42.5933 316.793 42.1533 317.3 41.86C317.833 41.54 318.393 41.46 318.98 41.62C319.567 41.7533 319.993 42.0867 320.26 42.62C320.66 43.3667 321.1 44.2867 321.58 45.38C322.087 46.4467 322.5 47.46 322.82 48.42C323.033 48.98 322.993 49.5267 322.7 50.06C322.433 50.5933 322.02 50.9533 321.46 51.14ZM314.9 52.66C314.367 52.9 313.82 52.9133 313.26 52.7C312.727 52.46 312.327 52.0733 312.06 51.54C311.633 50.66 311.18 49.8067 310.7 48.98C310.247 48.1267 309.833 47.4067 309.46 46.82C309.113 46.3133 308.98 45.7667 309.06 45.18C309.167 44.5933 309.46 44.1267 309.94 43.78C310.42 43.4333 310.953 43.3133 311.54 43.42C312.153 43.5 312.633 43.78 312.98 44.26C313.487 44.98 314.033 45.8867 314.62 46.98C315.207 48.0467 315.673 48.9933 316.02 49.82C316.287 50.3533 316.3 50.9 316.06 51.46C315.847 52.02 315.46 52.42 314.9 52.66ZM358.06 64.22C357.393 64.22 356.82 63.98 356.34 63.5C355.86 63.02 355.62 62.4467 355.62 61.78V34.14C355.62 33.4467 355.86 32.8733 356.34 32.42C356.82 31.94 357.393 31.7 358.06 31.7C358.753 31.7 359.34 31.94 359.82 32.42C360.3 32.8733 360.54 33.4467 360.54 34.14V43.78C360.887 43.2467 361.367 42.9 361.98 42.74C362.593 42.5533 363.193 42.6067 363.78 42.9C365.353 43.7267 366.953 44.6733 368.58 45.74C370.233 46.8067 371.66 47.8467 372.86 48.86C373.393 49.2867 373.687 49.86 373.74 50.58C373.82 51.2733 373.633 51.8867 373.18 52.42C372.753 52.9267 372.193 53.22 371.5 53.3C370.807 53.3533 370.193 53.1667 369.66 52.74C368.913 52.1533 368.047 51.5267 367.06 50.86C366.1 50.1933 365.127 49.5533 364.14 48.94C363.18 48.3 362.3 47.7533 361.5 47.3C361.073 47.06 360.753 46.7667 360.54 46.42V61.78C360.54 62.4467 360.3 63.02 359.82 63.5C359.34 63.98 358.753 64.22 358.06 64.22ZM389.1 58.34C388.433 58.34 387.847 58.1 387.34 57.62C386.86 57.1133 386.62 56.5267 386.62 55.86C386.62 55.1667 386.86 54.5933 387.34 54.14C387.847 53.66 388.433 53.42 389.1 53.42H403.06C404.687 53.42 405.913 53.3 406.74 53.06C407.567 52.7933 408.113 52.2467 408.38 51.42C408.673 50.5933 408.82 49.3267 408.82 47.62C408.82 45.8867 408.673 44.62 408.38 43.82C408.113 42.9933 407.567 42.46 406.74 42.22C405.94 41.9533 404.727 41.82 403.1 41.82H389.54C388.873 41.82 388.3 41.58 387.82 41.1C387.34 40.62 387.1 40.0333 387.1 39.34C387.1 38.6467 387.34 38.0733 387.82 37.62C388.3 37.14 388.873 36.9 389.54 36.9H403.1C405.18 36.9 406.9 37.06 408.26 37.38C409.647 37.7 410.74 38.26 411.54 39.06C412.34 39.86 412.9 40.9533 413.22 42.34C413.567 43.7267 413.74 45.4867 413.74 47.62C413.74 49.7533 413.567 51.5133 413.22 52.9C412.9 54.2867 412.34 55.38 411.54 56.18C410.74 56.98 409.647 57.54 408.26 57.86C406.873 58.18 405.14 58.34 403.06 58.34H389.1ZM455.02 61.18C454.433 61.5 453.807 61.5533 453.14 61.34C452.5 61.1267 452.007 60.7267 451.66 60.14C451.393 59.66 451.033 59.1 450.58 58.46C450.127 57.82 449.633 57.1267 449.1 56.38C447.553 56.6467 445.793 56.9267 443.82 57.22C441.847 57.4867 439.793 57.7533 437.66 58.02C435.553 58.26 433.513 58.4867 431.54 58.7C429.567 58.8867 427.82 59.0333 426.3 59.14C425.633 59.1933 425.033 58.9933 424.5 58.54C423.993 58.0867 423.713 57.5267 423.66 56.86C423.633 56.1667 423.847 55.5667 424.3 55.06C424.78 54.5533 425.353 54.2867 426.02 54.26C426.447 54.2067 426.887 54.1667 427.34 54.14C427.793 54.1133 428.273 54.0867 428.78 54.06C429.58 52.8867 430.42 51.5267 431.3 49.98C432.207 48.4067 433.087 46.78 433.94 45.1C434.793 43.42 435.567 41.8067 436.26 40.26C436.98 38.7133 437.567 37.38 438.02 36.26C438.26 35.62 438.687 35.1533 439.3 34.86C439.913 34.5667 440.54 34.54 441.18 34.78C441.82 35.02 442.287 35.46 442.58 36.1C442.9 36.7133 442.927 37.3267 442.66 37.94C442.073 39.3267 441.34 40.9267 440.46 42.74C439.58 44.5267 438.62 46.3667 437.58 48.26C436.54 50.1267 435.487 51.9 434.42 53.58C436.393 53.3933 438.38 53.2067 440.38 53.02C442.407 52.8067 444.273 52.5933 445.98 52.38C445.42 51.6867 444.873 51.0333 444.34 50.42C443.807 49.8067 443.313 49.2867 442.86 48.86C442.407 48.3533 442.18 47.7667 442.18 47.1C442.207 46.4333 442.473 45.8733 442.98 45.42C443.487 44.9667 444.073 44.7533 444.74 44.78C445.407 44.8067 445.967 45.06 446.42 45.54C447.113 46.2333 447.913 47.1267 448.82 48.22C449.727 49.2867 450.647 50.42 451.58 51.62C452.54 52.82 453.42 53.9667 454.22 55.06C455.02 56.1533 455.633 57.0733 456.06 57.82C456.407 58.4067 456.473 59.0333 456.26 59.7C456.047 60.3667 455.633 60.86 455.02 61.18Z" fill="white"/>
</g>
<defs>
<clipPath id="clip0_449_1438">
<rect width="600" height="140" fill="white" transform="translate(0.5 0.5)"/>
</clipPath>
</defs>
</svg>
