<svg width="601" height="141" viewBox="0 0 601 141" fill="none" xmlns="http://www.w3.org/2000/svg">
<g clip-path="url(#clip0_403_1192)">
<path d="M589.333 11.7326C589.333 5.54651 584.167 0.5 577.833 0.5H24C17.6667 0.5 12.5 5.54651 12.5 11.7326C6.16667 11.7326 1 16.7791 1 22.9651V117.872C1 124.058 6.16667 129.105 12.5 129.105C12.5 135.291 17.6667 140.337 24 140.337H577.833C584.167 140.337 589.333 135.291 589.333 129.105C595.667 129.105 600.833 124.058 600.833 117.872V22.9651C600.833 16.7791 595.667 11.7326 589.333 11.7326Z" fill="#ED8B21"/>
<path d="M578 133.012H24.1667C22 133.012 20.1667 131.221 20.1667 129.105V121.616H12.5C10.3333 121.616 8.5 119.826 8.5 117.709V22.9652C8.5 20.8489 10.3333 19.0582 12.5 19.0582H20.1667V11.7327C20.1667 9.61638 22 7.82568 24.1667 7.82568H578C580.167 7.82568 582 9.61638 582 11.7327V19.221H589.667C591.833 19.221 593.667 21.0117 593.667 23.128V118.035C593.667 120.151 591.833 121.942 589.667 121.942H582V129.43C581.833 131.384 580.167 133.012 578 133.012ZM12.5 21.1745C11.5 21.1745 10.5 21.9885 10.5 23.128V118.035C10.5 119.012 11.3333 119.988 12.5 119.988H21.1667C21.6667 119.988 22.1667 120.477 22.1667 120.965V129.43C22.1667 130.407 23 131.384 24.1667 131.384H578C579 131.384 580 130.57 580 129.43V120.965C580 120.477 580.5 119.988 581 119.988H589.667C590.667 119.988 591.667 119.175 591.667 118.035V22.9652C591.667 21.9885 590.833 21.0117 589.667 21.0117H581C580.5 21.0117 580 20.5234 580 20.035V11.7327C580 10.7559 579.167 9.77917 578 9.77917H24.1667C23.1667 9.77917 22.1667 10.5931 22.1667 11.7327V20.1978C22.1667 20.6861 21.6667 21.1745 21.1667 21.1745H12.5Z" fill="white"/>
<path d="M103.583 83.6863C99.25 84.6631 95.25 85.1514 91.9167 84.9886C88.4167 84.8258 85.5833 84.1747 83.4167 83.0351C81.0833 81.8956 79.5833 80.2677 78.75 78.1514C78.4167 77.5003 78.4167 76.8491 78.75 76.1979C79.0833 75.5468 79.5833 75.0584 80.25 74.8956C80.9167 74.57 81.5833 74.57 82.25 74.8956C82.9167 75.2212 83.4167 75.7096 83.5833 76.3607C84.0833 77.5003 85.25 78.477 86.9167 79.1282C88.5833 79.7793 90.75 80.1049 93.4167 80.1049C96.0833 80.1049 99.0833 79.6165 102.417 78.8026C103.083 78.6398 103.75 78.8026 104.417 79.1282C105.083 79.4538 105.417 80.1049 105.583 80.7561C105.75 81.4072 105.583 82.0584 105.25 82.7096C104.75 83.1979 104.25 83.5235 103.583 83.6863ZM99.5833 60.57C98.0833 60.2445 96.4167 59.9189 94.5833 59.5933C92.75 59.4305 91.0833 59.2677 89.25 59.2677C87.5833 59.2677 85.9167 59.2677 84.4167 59.4305C83.75 59.5933 83.0833 59.2677 82.4167 58.9421C81.9167 58.4538 81.5833 57.9654 81.4167 57.3142C81.25 56.6631 81.5833 56.0119 81.9167 55.3607C82.4167 54.8724 82.9167 54.5468 83.5833 54.384C85.25 54.2212 87.25 54.2212 89.25 54.2212C91.25 54.2212 93.4167 54.384 95.4167 54.7096C97.4167 54.8724 99.0833 55.1979 100.583 55.5235C101.25 55.6863 101.75 56.1747 102.25 56.6631C102.583 57.3142 102.75 57.8026 102.583 58.6165C102.417 59.2677 102.083 59.7561 101.417 60.2444C100.917 60.57 100.25 60.7328 99.5833 60.57Z" fill="white"/>
<path d="M138.25 84.8259C137.583 84.9887 136.917 84.8259 136.25 84.5004C135.583 84.1748 135.25 83.6864 135.083 82.8725C134.917 82.0585 135.083 81.5701 135.417 80.919C135.75 80.2678 136.25 79.9422 137.083 79.7794C140.25 78.9655 142.583 77.6632 144.25 75.8725C145.917 74.0818 146.25 71.6399 146.25 68.8725C146.25 67.0818 145.917 65.4538 145.083 64.1515C144.25 62.8492 143.083 61.5469 141.583 60.7329C140.083 59.919 138.25 59.2678 136.25 59.105C135.75 63.8259 134.917 67.8957 133.583 71.4771C132.417 74.8957 130.917 77.6632 129.25 79.4539C127.583 81.4073 125.917 82.2213 124.083 82.2213C122.583 82.2213 121.083 81.7329 119.917 80.919C118.583 80.105 117.583 78.8027 116.917 77.1748C116.25 75.5469 115.75 73.5934 115.75 71.3143C115.75 69.0352 116.25 66.7562 117.083 64.8027C117.917 62.8492 119.25 60.8957 120.917 59.4306C122.583 57.8027 124.583 56.6632 126.75 55.8492C129.083 55.0352 131.583 54.5469 134.25 54.5469C137.583 54.5469 140.417 55.198 143.083 56.3376C145.583 57.6399 147.583 59.2678 149.083 61.3841C150.583 63.5004 151.25 66.105 151.25 69.0352C151.25 73.105 150.083 76.5236 147.917 79.2911C145.917 81.8957 142.583 83.6864 138.25 84.8259ZM124.25 77.012C124.75 77.012 125.417 76.5236 126.083 75.7097C126.75 74.8957 127.417 73.5934 128.083 72.1283C128.75 70.5004 129.417 68.7097 129.917 66.5934C130.417 64.4771 130.917 62.0352 131.25 59.4306C128.917 59.919 127.083 60.7329 125.583 61.8725C124.083 63.012 122.917 64.4771 122.083 66.105C121.25 67.7329 120.917 69.5236 120.917 71.3143C120.917 73.2678 121.25 74.7329 121.917 75.7097C122.417 76.5236 123.25 77.012 124.25 77.012Z" fill="white"/>
<path d="M168.25 85.9657C167.583 86.2912 166.917 86.2912 166.25 86.1284C165.583 85.9657 164.917 85.4773 164.583 84.9889C164.25 84.3378 164.083 83.6866 164.25 83.0354C164.417 82.3843 164.917 81.7331 165.583 81.4075C168.583 79.7796 170.917 77.8261 172.917 75.547C174.75 73.268 175.917 70.6633 176.417 67.8959H163.917C163.25 67.8959 162.583 67.5703 162.083 67.0819C161.583 66.5936 161.417 65.9424 161.417 65.2912C161.417 64.6401 161.583 63.9889 162.083 63.5005C162.583 63.0122 163.25 62.6866 163.917 62.6866H192.583C193.25 62.6866 193.917 63.0122 194.417 63.5005C194.917 63.9889 195.083 64.6401 195.083 65.2912C195.083 65.9424 194.917 66.5936 194.417 67.0819C193.917 67.5703 193.25 67.8959 192.583 67.8959H181.583C181.25 70.3377 180.583 72.6168 179.417 75.0587C178.25 77.5005 176.75 79.454 174.917 81.4075C172.917 83.1982 170.75 84.6633 168.25 85.9657ZM168.917 58.7796C168.25 58.7796 167.583 58.454 167.083 57.9657C166.583 57.4773 166.25 56.8261 166.25 56.175C166.25 55.5238 166.583 54.8726 167.083 54.3843C167.583 53.8959 168.25 53.5703 168.917 53.5703H187.417C188.25 53.5703 188.75 53.8959 189.25 54.3843C189.75 54.8726 189.917 55.5238 189.917 56.175C189.917 56.8261 189.75 57.4773 189.25 57.9657C188.75 58.454 188.083 58.7796 187.417 58.7796H168.917ZM196.583 62.1982C196.25 62.5238 195.75 62.6866 195.25 62.6866C194.75 62.6866 194.25 62.361 193.917 62.0354C193.583 61.547 193.25 61.0587 192.75 60.4075C192.25 59.7563 191.75 59.268 191.417 58.7796C191.083 58.454 191.083 58.1284 191.083 57.6401C191.083 57.1517 191.25 56.8261 191.75 56.5005C192.083 56.175 192.417 56.0122 192.917 56.0122C193.417 56.0122 193.75 56.175 194.083 56.5005C194.417 56.8261 194.917 57.3145 195.583 57.9657C196.25 58.6168 196.583 59.1052 196.917 59.5936C197.25 60.0819 197.417 60.4075 197.25 60.8959C197.25 61.547 196.917 61.8726 196.583 62.1982ZM200.75 58.6168C200.417 58.9424 199.917 59.1052 199.417 59.1052C198.917 59.1052 198.417 58.9424 198.083 58.454C197.75 58.1284 197.25 57.6401 196.75 56.9889C196.25 56.3377 195.75 55.8494 195.25 55.5238C194.917 55.1982 194.75 54.8726 194.75 54.3843C194.75 53.8959 194.917 53.5703 195.25 53.2447C195.583 52.9191 195.917 52.7563 196.417 52.7563C196.917 52.7563 197.25 52.9191 197.583 53.0819C198.083 53.4075 198.583 53.8959 199.083 54.3843C199.75 54.8726 200.25 55.5238 200.583 56.0122C200.917 56.3377 201.083 56.8261 201.083 57.3145C201.25 57.8029 201.083 58.2912 200.75 58.6168Z" fill="white"/>
<path d="M221.25 86.6166C220.583 86.9422 219.917 86.9422 219.25 86.6166C218.583 86.291 218.083 85.9654 217.75 85.3142C217.417 84.6631 217.417 84.0119 217.75 83.3608C217.917 82.7096 218.417 82.2212 219.083 81.8956C222.417 80.4305 224.75 78.3142 226.25 75.8724C227.75 73.2677 228.583 70.0119 228.75 66.1049H222.083C222.083 67.2445 222.083 68.384 222.083 69.3608C222.083 70.3375 222.083 71.3142 221.917 72.1282C221.917 72.9422 221.583 73.4305 221.083 73.9189C220.583 74.4073 219.917 74.5701 219.083 74.5701C218.417 74.5701 217.75 74.2445 217.25 73.5933C216.75 72.9422 216.583 72.4538 216.583 71.6398C216.583 70.8259 216.75 70.0119 216.75 69.0352C216.75 68.0584 216.75 67.0817 216.75 65.9422H207.917C207.25 65.9422 206.583 65.7794 206.083 65.291C205.583 64.8026 205.25 64.1515 205.25 63.5003C205.25 62.8491 205.583 62.198 206.083 61.7096C206.583 61.2212 207.25 60.8956 207.917 60.8956H216.583C216.583 59.9189 216.417 58.9422 216.417 58.1282C216.417 57.3142 216.25 56.5003 216.083 55.8491C215.917 55.198 216.083 54.5468 216.583 53.8956C217.083 53.2445 217.583 52.9189 218.25 52.9189C219.083 52.7561 219.75 52.9189 220.25 53.4073C220.917 53.8956 221.25 54.384 221.25 55.0352C221.417 55.8491 221.417 56.6631 221.583 57.8026C221.75 58.7794 221.75 59.9189 221.75 61.0584H228.417C228.417 59.9189 228.417 58.6166 228.25 57.477C228.083 56.3375 228.083 55.3608 228.083 54.5468C228.083 53.7329 228.25 53.2445 228.75 52.5933C229.25 52.1049 229.75 51.7794 230.583 51.6166C231.417 51.6166 231.917 51.7794 232.583 52.2677C233.083 52.7561 233.417 53.4073 233.417 54.0584C233.583 54.8724 233.583 56.0119 233.583 57.1515C233.583 58.4538 233.583 59.5933 233.75 60.8956H241.917C242.583 60.8956 243.25 61.2212 243.75 61.7096C244.25 62.198 244.583 62.8491 244.583 63.5003C244.583 64.1515 244.25 64.8026 243.75 65.291C243.25 65.7794 242.583 65.9422 241.917 65.9422H233.75C233.583 70.9887 232.583 75.2212 230.417 78.6398C228.417 82.2212 225.417 84.8259 221.25 86.6166ZM242.583 58.9422C242.25 59.2677 241.75 59.4305 241.25 59.4305C240.75 59.4305 240.25 59.2677 239.917 58.7794C239.583 58.4538 239.083 57.9654 238.583 57.3142C238.083 56.8259 237.583 56.1747 237.083 55.8491C236.75 55.5235 236.583 55.198 236.583 54.8724C236.583 54.5468 236.75 54.0584 237.083 53.5701C237.417 53.2445 237.75 53.0817 238.25 53.0817C238.75 53.0817 239.083 53.2445 239.417 53.4073C239.917 53.7329 240.417 54.0584 241.083 54.7096C241.75 55.198 242.25 55.6863 242.583 56.1747C242.917 56.5003 243.083 56.9887 243.083 57.477C243.083 57.9654 243.083 58.6166 242.583 58.9422ZM243.75 55.198C243.417 54.8724 242.917 54.384 242.25 53.8956C241.583 53.4073 241.083 52.9189 240.583 52.5933C240.25 52.2677 240.083 51.9422 240.083 51.6166C240.083 51.291 240.083 50.8026 240.417 50.3142C240.75 49.9887 241.083 49.6631 241.583 49.6631C242.083 49.6631 242.417 49.6631 242.917 49.9887C243.417 50.3142 243.917 50.6398 244.583 51.1282C245.25 51.6166 245.75 52.1049 246.25 52.5933C246.583 52.9189 246.917 53.4073 246.917 53.8956C246.917 54.384 246.75 54.8724 246.417 55.198C246.083 55.5235 245.75 55.6863 245.083 55.8491C244.417 56.0119 244.25 55.5235 243.75 55.198Z" fill="white"/>
<path d="M269.25 86.7796C268.583 86.7796 267.917 86.454 267.417 85.9656C266.917 85.4773 266.583 84.8261 266.583 84.175V67.2447C264.75 68.8726 262.75 70.3377 260.917 71.8029C258.917 73.268 256.917 74.5703 255.083 75.8726C254.417 76.1982 253.75 76.361 253.083 76.1982C252.417 76.0354 251.75 75.7098 251.417 75.0587C251.083 74.4075 250.917 73.7563 251.083 73.1052C251.25 72.454 251.583 71.8029 252.25 71.4773C254.083 70.3377 255.917 69.0354 257.917 67.5703C259.917 66.1052 261.75 64.4773 263.75 62.8494C265.583 61.2215 267.417 59.5936 268.917 57.8029C270.583 56.175 271.917 54.547 272.917 53.0819C273.417 52.4308 273.917 52.1052 274.583 51.9424C275.25 51.7796 275.917 51.9424 276.583 52.4308C277.25 52.7563 277.583 53.4075 277.75 54.0587C277.917 54.7098 277.75 55.361 277.25 56.0122C275.75 57.9656 273.917 60.0819 271.75 62.1982V84.175C271.75 84.8261 271.417 85.4773 270.917 85.9656C270.417 86.454 270.083 86.7796 269.25 86.7796Z" fill="white"/>
<path d="M299.916 66.5932C298.75 65.6165 297.583 64.8025 296.25 63.8258C294.916 62.849 293.583 62.0351 292.583 61.3839C291.916 61.0583 291.583 60.4072 291.416 59.756C291.25 59.1048 291.416 58.4537 291.75 57.8025C292.083 57.1514 292.75 56.8258 293.416 56.663C294.083 56.5002 294.75 56.663 295.416 56.9886C296.25 57.4769 297.083 58.1281 298.083 58.7793C299.083 59.4304 300.083 60.0816 300.916 60.8955C301.75 61.7095 302.583 62.1979 303.25 62.6862C303.75 63.1746 304.25 63.663 304.25 64.4769C304.25 65.2909 304.25 65.7793 303.75 66.4304C303.25 67.0816 302.75 67.4072 301.916 67.4072C301.25 67.2444 300.583 67.0816 299.916 66.5932ZM296.25 83.1979C295.583 83.5234 294.916 83.3607 294.25 83.0351C293.583 82.7095 293.083 82.2211 292.916 81.57C292.583 80.9188 292.75 80.2676 293.083 79.6165C293.416 78.9653 293.916 78.4769 294.583 78.3141C296.916 77.5002 299.25 76.5234 301.583 75.3839C303.916 74.2444 306.25 72.9421 308.416 71.6397C310.583 70.3374 312.583 68.8723 314.25 67.4072C316.083 65.9421 317.416 64.4769 318.583 63.1746C319.083 62.6862 319.75 62.3607 320.416 62.1979C321.083 62.0351 321.75 62.3607 322.416 62.849C322.916 63.3374 323.25 63.8258 323.416 64.6397C323.583 65.2909 323.25 65.9421 322.75 66.5932C321.583 68.0583 319.916 69.5235 318.083 71.1514C316.083 72.7793 313.916 74.2444 311.416 75.8723C308.916 77.5002 306.416 78.8025 303.916 80.2676C301.416 81.7328 298.75 82.3839 296.25 83.1979Z" fill="white"/>
<path d="M358.25 86.7792C354.416 87.2676 351.083 87.5931 348.416 87.4303C345.75 87.2676 343.583 86.942 342.083 86.2908C340.583 85.6397 339.25 84.8257 338.583 83.6862C337.916 82.5466 337.416 81.4071 337.416 79.942C337.416 77.8257 338.25 75.8722 340.083 74.0815C341.916 72.2908 344.416 70.6629 347.75 69.1978C347.25 68.7094 346.75 68.221 346.083 68.0583C344.583 67.5699 343.25 67.7327 341.75 68.5466C340.416 69.3606 338.916 70.3373 337.583 71.8024C337.083 72.2908 336.417 72.6164 335.583 72.6164C334.75 72.6164 334.083 72.4536 333.583 71.9652C333.083 71.4769 332.916 70.8257 332.916 70.1745C332.916 69.5234 333.25 68.8722 333.75 68.3838C335.083 67.2443 336.416 65.942 337.416 64.4769C338.416 63.1745 339.416 61.7094 340.25 60.2443C339.083 60.2443 337.916 60.2443 336.75 60.2443C335.75 60.2443 334.75 60.2443 333.917 60.2443C333.25 60.2443 332.583 59.9187 332.083 59.4303C331.583 58.942 331.417 58.2908 331.417 57.6396C331.417 56.9885 331.75 56.3373 332.25 55.849C332.75 55.3606 333.416 55.1978 334.083 55.1978C335.083 55.1978 336.25 55.1978 337.75 55.1978C339.25 55.1978 340.75 55.1978 342.25 55.1978C342.417 54.7094 342.583 54.221 342.583 53.5699C342.75 53.0815 342.75 52.5931 342.916 52.1048C343.083 51.4536 343.417 50.8024 343.917 50.3141C344.417 49.8257 345.083 49.6629 345.75 49.8257C346.416 49.9885 347.083 50.1513 347.416 50.8024C347.916 51.2908 348.083 51.942 347.916 52.5931C347.916 52.9187 347.75 53.4071 347.75 53.7327C347.583 54.0583 347.583 54.5466 347.416 54.8722C348.583 54.8722 349.583 54.7094 350.416 54.7094C351.416 54.7094 352.25 54.5466 352.916 54.3838C353.583 54.221 354.25 54.3838 354.916 54.8722C355.583 55.3606 355.75 55.849 355.916 56.5001C356.083 57.1513 355.75 57.8024 355.416 58.2908C355.083 58.7792 354.416 59.1048 353.75 59.1048C352.75 59.2676 351.416 59.2676 350.083 59.4303C348.75 59.5931 347.25 59.5931 345.75 59.5931C345.083 60.8955 344.416 62.1978 343.75 63.5001C344.416 63.3373 345.083 63.3373 345.75 63.3373C346.416 63.3373 346.916 63.5001 347.583 63.6629C348.416 63.8257 349.25 64.3141 350.083 64.8024C350.916 65.2908 351.583 66.1048 352.25 67.0815C353.583 66.7559 355.25 66.2676 356.75 65.942C358.416 65.6164 360.083 65.2908 361.916 65.128C362.583 64.9652 363.25 65.128 363.75 65.6164C364.25 66.1048 364.583 66.5931 364.75 67.2443C364.917 67.8955 364.75 68.5466 364.25 69.035C363.75 69.5234 363.25 69.849 362.583 70.0117C360.916 70.1745 359.416 70.5001 357.916 70.6629C356.583 70.9885 355.25 71.1513 353.917 71.4769C354.083 72.2908 354.25 73.1048 354.25 73.9187C354.416 74.8955 354.416 75.8722 354.416 76.849C354.416 77.5001 354.083 78.1513 353.583 78.6396C353.083 79.128 352.416 79.4536 351.75 79.4536C351.083 79.4536 350.416 79.128 349.916 78.6396C349.416 78.1513 349.25 77.5001 349.25 76.849C349.25 75.3838 349.083 74.0815 348.917 72.942C346.583 73.9187 344.916 74.8955 343.75 76.035C342.583 77.1745 342.25 78.1513 342.25 79.128C342.25 79.942 342.75 80.4303 343.583 80.9187C344.416 81.4071 346.083 81.7327 348.25 81.7327C350.416 81.7327 353.416 81.5699 357.083 81.0815C357.75 80.9187 358.417 81.0815 358.917 81.5699C359.417 82.0583 359.75 82.5466 359.916 83.1978C360.083 83.849 359.75 84.5001 359.416 84.9885C359.583 86.4536 358.916 86.7792 358.25 86.7792Z" fill="white"/>
<path d="M398.75 87.5932C394.75 87.5932 391.416 87.2676 388.75 86.7793C386.083 86.2909 383.916 85.3142 382.416 83.849C382.083 84.1746 381.583 84.5002 380.916 84.8258C380.25 85.1514 379.75 85.6397 379.25 85.9653C378.75 86.2909 378.25 86.6165 378.083 86.7793C377.583 87.1049 376.916 87.2676 376.25 87.1049C375.583 86.9421 374.916 86.6165 374.583 85.9653C374.25 85.4769 374.25 84.8258 374.416 84.1746C374.583 83.5235 374.917 83.0351 375.583 82.7095C376.083 82.5467 376.583 82.2211 377.416 81.7328C378.25 81.4072 378.916 80.9188 379.583 80.756V70.9886C379.583 70.3374 379.416 69.849 379.25 69.6863C379.083 69.3607 378.583 69.3607 377.916 69.3607H376.25C375.583 69.3607 375.083 69.1979 374.583 68.7095C374.25 68.2211 373.917 67.7328 373.917 67.2444C373.917 66.5932 374.083 66.1049 374.583 65.7793C374.916 65.2909 375.583 65.1281 376.25 65.1281H379.583C382.583 65.1281 384.083 66.5932 384.083 69.5235V80.2676C384.583 80.756 385.083 81.0816 385.583 81.4072C386.083 81.7328 386.75 82.0583 387.583 82.3839C387.583 82.2211 387.416 82.2211 387.416 82.0583C387.083 81.57 387.083 80.9188 387.25 80.4304C387.417 79.9421 387.916 79.4537 388.583 79.1281C389.25 78.8025 389.916 78.4769 390.75 78.1514C391.583 77.663 392.417 77.3374 393.083 76.849H386.916C386.416 76.849 385.916 76.6862 385.75 76.3607C385.416 76.0351 385.25 75.5467 385.25 75.2211C385.25 74.7328 385.416 74.4072 385.75 73.9188C386.083 73.5932 386.416 73.4304 386.916 73.4304H392.083V70.9886H387.916C387.416 70.9886 387.083 70.8258 386.75 70.5002C386.416 70.1746 386.25 69.6862 386.25 69.3607C386.25 68.8723 386.416 68.5467 386.75 68.0583C387.083 67.7328 387.417 67.57 388.083 67.57H392.25V65.1281H390.916C389.083 65.1281 387.75 64.8025 387.083 64.1514C386.25 63.5002 385.916 62.1979 385.916 60.4072C385.916 58.6165 386.25 57.4769 386.916 56.8258C387.583 56.1746 388.916 55.849 390.75 55.849H391.75C392.416 55.849 392.75 55.849 392.916 55.6863C393.083 55.5235 393.25 55.3607 393.25 54.8723C393.25 54.3839 393.083 54.2211 392.916 54.0583C392.75 53.8956 392.25 53.8956 391.75 53.8956H387.083C386.583 53.8956 386.083 53.7328 385.75 53.4072C385.416 53.0816 385.25 52.5932 385.25 52.1049C385.25 51.6165 385.416 51.1281 385.75 50.8025C386.083 50.4769 386.583 50.3142 387.083 50.3142H392.416C394.25 50.3142 395.583 50.6397 396.25 51.2909C396.916 51.9421 397.25 53.0816 397.25 54.7095C397.25 56.3374 396.916 57.6397 396.25 58.1281C395.583 58.7793 394.25 59.1049 392.416 59.1049H391.583C391.083 59.1049 390.583 59.1049 390.416 59.2676C390.25 59.4304 390.083 59.756 390.083 60.2444C390.083 60.7328 390.25 61.0583 390.416 61.2211C390.583 61.3839 391.083 61.3839 391.583 61.3839H392.583C393.25 61.3839 393.75 61.2211 393.917 61.0583C394.25 60.8956 394.417 60.57 394.75 60.0816C394.917 59.756 395.416 59.4304 395.916 59.2676C396.416 59.1049 396.916 59.1049 397.583 59.4304C398.083 59.5932 398.583 60.0816 398.75 60.4072C398.916 60.7328 398.916 61.3839 398.75 61.8723C398.25 63.1746 397.583 63.9886 396.583 64.4769V67.4072H401.417V64.4769C400.75 64.1514 400.25 63.663 399.916 63.0118C399.583 62.3607 399.416 61.3839 399.416 60.2444C399.416 58.4537 399.75 57.3142 400.583 56.663C401.25 56.0118 402.583 55.6863 404.416 55.6863H405.917C406.583 55.6863 406.916 55.6862 407.083 55.5235C407.25 55.3607 407.416 55.1979 407.416 54.7095C407.416 54.2211 407.25 54.0583 407.083 53.8956C406.916 53.7328 406.417 53.7328 405.917 53.7328H400.75C400.25 53.7328 399.75 53.57 399.416 53.2444C399.083 52.9188 398.917 52.4304 398.917 51.9421C398.917 51.4537 399.083 50.9653 399.416 50.6397C399.75 50.3142 400.25 50.1514 400.75 50.1514H406.583C408.416 50.1514 409.75 50.4769 410.416 51.1281C411.083 51.7793 411.417 52.9188 411.417 54.5467C411.417 56.1746 411.083 57.4769 410.416 57.9653C409.75 58.6165 408.416 58.9421 406.583 58.9421H405.25C404.75 58.9421 404.25 58.9421 404.083 59.1049C403.916 59.2676 403.75 59.5932 403.75 60.0816C403.75 60.57 403.916 60.8956 404.083 61.0583C404.25 61.2211 404.75 61.2211 405.416 61.2211H406.916C407.583 61.2211 408.083 61.0583 408.25 60.8956C408.583 60.7328 408.75 60.4072 409.083 59.9188C409.25 59.5932 409.75 59.2676 410.25 59.1049C410.75 58.9421 411.25 58.9421 411.916 59.2676C412.416 59.4304 412.917 59.9188 413.083 60.2444C413.25 60.7328 413.25 61.2211 413.083 61.7095C412.75 62.849 412.083 63.663 411.25 64.1514C410.416 64.6397 409.083 64.8025 407.416 64.8025H406.083V67.2444H411.083C411.583 67.2444 412.083 67.4072 412.416 67.7328C412.75 68.0583 412.916 68.5467 412.916 69.0351C412.916 69.5235 412.75 69.849 412.416 70.1746C412.083 70.5002 411.75 70.663 411.083 70.663H406.083V73.1049H412.25C412.75 73.1049 413.25 73.2676 413.583 73.5932C413.916 73.9188 414.083 74.4072 414.083 74.8956C414.083 75.3839 413.916 75.7095 413.583 76.0351C413.25 76.3607 412.917 76.5235 412.25 76.5235H404.75C405.417 77.0118 406.25 77.3374 407.083 77.8258C407.916 78.3142 408.583 78.6397 409.25 78.8025C409.917 79.1281 410.417 79.4537 410.583 80.1049C410.75 80.5932 410.75 81.2444 410.416 81.7328C410.083 82.2211 409.583 82.7095 408.917 82.7095C408.25 82.8723 407.583 82.7095 406.916 82.5467C406.083 82.2211 405.083 81.7328 404.083 81.0816C403.083 80.4304 402.25 79.9421 401.417 79.2909C400.917 78.9653 400.583 78.4769 400.583 77.9886C400.417 77.5002 400.583 76.849 400.917 76.5235H396.916C397.25 77.0118 397.417 77.5002 397.25 77.9886C397.083 78.4769 396.917 78.9653 396.417 79.2909C395.583 79.7793 394.75 80.4304 393.75 81.0816C392.75 81.7328 391.75 82.2211 390.916 82.5467C390.75 82.5467 390.75 82.7095 390.583 82.7095C392.75 83.0351 395.416 83.1979 398.75 83.1979C400.416 83.1979 401.916 83.1979 403.583 83.1979C405.25 83.1979 406.75 83.1979 408.25 83.0351C409.75 83.0351 410.916 82.8723 411.916 82.8723C412.75 82.8723 413.417 83.0351 413.917 83.3607C414.417 83.6863 414.75 84.3374 414.75 84.9886C414.75 85.6397 414.583 86.2909 414.083 86.6165C413.583 86.9421 412.916 87.2676 411.916 87.2676C411.083 87.2676 409.916 87.2676 408.75 87.2676C407.583 87.2676 406.25 87.2676 405.083 87.2676C403.917 87.2676 402.583 87.2676 401.417 87.2676C400.25 87.2676 399.416 87.5932 398.75 87.5932ZM383.583 58.6165C383.083 59.1049 382.583 59.2676 381.916 59.2676C381.25 59.2676 380.75 58.9421 380.25 58.4537C379.75 57.8025 379.083 57.1514 378.25 56.3374C377.416 55.5235 376.583 54.8723 375.916 54.3839C375.416 54.0583 375.25 53.4072 375.25 52.9188C375.25 52.2676 375.583 51.7793 375.916 51.2909C376.416 50.8025 376.916 50.6397 377.416 50.4769C378.083 50.4769 378.583 50.6397 379.083 51.1281C379.916 51.7793 380.583 52.4304 381.583 53.2444C382.416 54.0583 383.083 54.7095 383.75 55.1979C384.25 55.6862 384.416 56.1746 384.416 56.8258C384.416 57.4769 384.25 58.1281 383.583 58.6165ZM396.583 73.2676H401.417V70.8258H396.583V73.2676Z" fill="white"/>
<path d="M425.083 81.7328C424.583 82.2212 423.917 82.384 423.25 82.384C422.583 82.384 421.917 82.0584 421.417 81.57C420.917 81.0816 420.75 80.4305 420.75 79.7793C420.75 79.1281 421.083 78.477 421.583 77.9886C422.083 77.5002 422.75 77.0119 423.417 76.5235C424.25 75.8723 424.917 75.384 425.75 74.7328C426.583 74.0816 427.417 73.5933 428.083 72.9421C428.75 72.4537 429.417 71.9654 429.917 71.6398C430.417 71.1514 431.083 70.9886 431.917 71.1514C432.583 71.3142 433.25 71.6398 433.583 72.1281C434.083 72.6165 434.25 73.2677 434.083 73.9188C433.917 74.57 433.583 75.2212 433.083 75.5467C432.25 76.0351 431.417 76.6863 430.417 77.5002C429.417 78.3142 428.417 79.1281 427.417 79.7793C426.583 80.4305 425.75 81.0816 425.083 81.7328ZM433.25 84.663C432.583 84.3374 432.083 83.8491 431.917 83.3607C431.583 82.7095 431.583 82.0584 431.917 81.4072C432.25 80.7561 432.75 80.2677 433.417 79.9421C434.083 79.6165 434.75 79.6165 435.417 79.9421C437.083 80.5933 438.25 80.7561 439.25 80.5933C440.25 80.2677 440.75 79.6165 440.75 78.6398C440.75 77.3374 440.583 76.1979 440.083 75.2212C439.583 74.2444 439.083 73.2677 438.583 72.2909C438.083 71.477 437.583 70.663 437.25 69.8491C436.917 69.0351 436.583 68.2212 436.417 67.2444C436.25 66.2677 436.417 65.1281 436.75 63.9886C436.917 63.3374 437.25 62.8491 437.917 62.5235C438.583 62.1979 439.25 62.0351 439.917 62.1979C440.583 62.3607 441.083 62.6863 441.417 63.3374C441.75 63.9886 441.917 64.6398 441.75 65.2909C441.417 66.4305 441.583 67.57 441.917 68.5467C442.25 69.5235 442.75 70.5002 443.417 71.3142C444.083 72.2909 444.583 73.4305 445.25 74.57C445.75 75.7095 446.083 77.1747 446.083 78.9654C446.083 80.5933 445.75 81.8956 444.917 83.0351C444.25 84.1747 443.25 84.8258 442.083 85.3142C440.917 85.8026 439.583 85.9654 438.083 85.9654C436.25 85.6398 434.75 85.3142 433.25 84.663ZM442.75 61.5467C441.583 60.7328 440.25 59.9188 438.917 59.2677C437.583 58.6165 436.25 57.9654 435.083 57.477C434.417 57.3142 433.917 56.8258 433.583 56.1747C433.25 55.5235 433.083 54.8723 433.417 54.2212C433.583 53.57 434.083 53.0816 434.75 52.756C435.417 52.4305 436.083 52.4305 436.75 52.5933C437.75 52.9188 438.75 53.4072 439.917 53.8956C441.083 54.384 442.083 55.0351 443.25 55.6863C444.25 56.3374 445.25 56.8258 446.083 57.477C446.583 57.8026 446.917 58.4537 447.083 59.1049C447.25 59.7561 447.083 60.4072 446.583 61.0584C446.083 61.7095 445.583 61.8723 444.917 62.0351C444.083 62.0351 443.417 61.8723 442.75 61.5467ZM459.083 81.57C458.417 81.8956 457.75 82.0584 457.083 81.8956C456.417 81.7328 455.917 81.4072 455.417 80.7561C454.917 79.9421 454.25 79.1281 453.583 78.1514C452.75 77.1747 451.917 76.1979 451.083 75.2212C450.25 74.2444 449.417 73.4305 448.583 72.6165C448.083 72.1281 447.75 71.477 447.75 70.8258C447.75 70.1747 447.917 69.5235 448.417 69.0351C448.917 68.5467 449.583 68.2212 450.25 68.2212C450.917 68.2212 451.583 68.384 452.083 68.8723C452.917 69.6863 453.917 70.663 454.917 71.8026C455.917 72.9421 456.917 73.9188 457.75 75.0584C458.583 76.1979 459.417 77.1747 459.917 77.9886C460.25 78.6398 460.417 79.2909 460.25 79.9421C460.083 80.5933 459.75 81.0816 459.083 81.57ZM456.25 65.2909C455.917 65.6165 455.417 65.7793 454.917 65.7793C454.417 65.7793 453.917 65.6165 453.583 65.1281C453.25 64.8026 452.75 64.3142 452.25 63.663C451.75 63.0119 451.25 62.5235 450.75 62.1979C450.417 61.8723 450.25 61.5467 450.25 61.0584C450.25 60.57 450.417 60.2444 450.75 59.9188C451.083 59.5933 451.417 59.4305 451.917 59.4305C452.417 59.4305 452.75 59.5933 453.25 59.7561C453.75 60.0816 454.25 60.57 454.917 61.0584C455.583 61.5467 456.083 62.1979 456.417 62.5235C456.75 62.8491 456.917 63.3374 456.917 63.8258C456.75 64.477 456.583 64.8026 456.25 65.2909ZM457.417 61.384C457.083 61.0584 456.583 60.57 456.083 60.0816C455.583 59.5933 454.917 59.1049 454.583 58.7793C454.25 58.4537 454.083 58.1281 454.083 57.8026C454.083 57.3142 454.083 56.9886 454.417 56.5002C454.75 56.1747 455.083 56.0119 455.583 55.8491C456.083 55.8491 456.417 55.8491 456.917 56.1747C457.417 56.5002 457.917 56.8258 458.583 57.3142C459.25 57.8026 459.75 58.2909 460.25 58.7793C460.583 59.1049 460.75 59.5933 460.75 60.0816C460.75 60.57 460.583 61.0584 460.25 61.384C459.917 61.7095 459.583 61.8723 458.917 62.0351C458.25 61.8723 457.75 61.7095 457.417 61.384Z" fill="white"/>
<path d="M542.917 77.0632H491.417C490.084 77.0632 488.917 75.9237 488.917 74.6213C488.917 73.319 490.084 72.1795 491.417 72.1795H537.084L527.917 62.5748C526.917 61.5981 527.084 59.9702 528.084 59.1562C529.084 58.1795 530.75 58.3423 531.584 59.319L544.75 72.9934C545.417 73.6446 545.584 74.7841 545.25 75.5981C544.75 76.5748 543.917 77.0632 542.917 77.0632Z" fill="white"/>
</g>
<defs>
<clipPath id="clip0_403_1192">
<rect width="600" height="140" fill="white" transform="translate(0.5 0.5)"/>
</clipPath>
</defs>
</svg>
