<svg width="360" height="86" viewBox="0 0 360 86" fill="none" xmlns="http://www.w3.org/2000/svg">
<g clip-path="url(#clip0_344_762)">
<path d="M353.3 6.9C353.3 3.1 350.2 0 346.4 0H14.1C10.3 0 7.20005 3.1 7.20005 6.9C3.40005 6.9 0.300049 10 0.300049 13.8V72.1C0.300049 75.9 3.40005 79 7.20005 79C7.20005 82.8 10.3 85.9 14.1 85.9H346.4C350.2 85.9 353.3 82.8 353.3 79C357.1 79 360.2 75.9 360.2 72.1V13.8C360.2 10 357.1 6.9 353.3 6.9Z" fill="#EDB421"/>
<path d="M346.4 81.4H14.1C12.8 81.4 11.7 80.3 11.7 79V74.4H7.09995C5.79995 74.4 4.69995 73.3 4.69995 72V13.8C4.69995 12.5 5.79995 11.4 7.09995 11.4H11.7V6.9C11.7 5.6 12.8 4.5 14.1 4.5H346.4C347.7 4.5 348.8 5.6 348.8 6.9V11.5H353.4C354.7 11.5 355.8 12.6 355.8 13.9V72.2C355.8 73.5 354.7 74.6 353.4 74.6H348.8V79.2C348.7 80.4 347.7 81.4 346.4 81.4ZM7.09995 12.7C6.49995 12.7 5.89995 13.2 5.89995 13.9V72.2C5.89995 72.8 6.39995 73.4 7.09995 73.4H12.3C12.6 73.4 12.9 73.7 12.9 74V79.2C12.9 79.8 13.4 80.4 14.1 80.4H346.4C347 80.4 347.6 79.9 347.6 79.2V74C347.6 73.7 347.9 73.4 348.2 73.4H353.4C354 73.4 354.6 72.9 354.6 72.2V13.8C354.6 13.2 354.1 12.6 353.4 12.6H348.2C347.9 12.6 347.6 12.3 347.6 12V6.9C347.6 6.3 347.1 5.7 346.4 5.7H14.1C13.5 5.7 12.9 6.2 12.9 6.9V12.1C12.9 12.4 12.6 12.7 12.3 12.7H7.09995Z" fill="white"/>
<path d="M66.4 51.1C63.8 51.7 61.4 52 59.4 51.9C57.3 51.8 55.6 51.4 54.3 50.7C52.9 50 52 49 51.5 47.7C51.3 47.3 51.3 46.9 51.5 46.5C51.7 46.1 52 45.8 52.4 45.7C52.8 45.5 53.2 45.5 53.6 45.7C54 45.9 54.3 46.2 54.4 46.6C54.7 47.3 55.4 47.9 56.4 48.3C57.4 48.7 58.7 48.9 60.3 48.9C61.9 48.9 63.7 48.6 65.7 48.1C66.1 48 66.5 48.1 66.9 48.3C67.3 48.5 67.5 48.9 67.6 49.3C67.7 49.7 67.6 50.1 67.4 50.5C67.1 50.8 66.8 51 66.4 51.1ZM64 36.9C63.1 36.7 62.1 36.5 61 36.3C59.9 36.2 58.9 36.1 57.8 36.1C56.8 36.1 55.8 36.1 54.9 36.2C54.5 36.3 54.1 36.1 53.7 35.9C53.4 35.6 53.2 35.3 53.1 34.9C53 34.5 53.2 34.1 53.4 33.7C53.7 33.4 54 33.2 54.4 33.1C55.4 33 56.6 33 57.8 33C59 33 60.3 33.1 61.5 33.3C62.7 33.4 63.7 33.6 64.6 33.8C65 33.9 65.3 34.2 65.6 34.5C65.8 34.9 65.9 35.2 65.8 35.7C65.7 36.1 65.5 36.4 65.1 36.7C64.8 36.9 64.4 37 64 36.9Z" fill="white"/>
<path d="M87.2 51.8C86.8 51.9 86.4 51.8 86 51.6C85.6 51.4 85.4 51.1 85.3 50.6C85.2 50.1 85.3 49.8 85.5 49.4C85.7 49 86 48.8 86.5 48.7C88.4 48.2 89.8 47.4 90.8 46.3C91.8 45.2 92 43.7 92 42C92 40.9 91.8 39.9 91.3 39.1C90.8 38.3 90.1 37.5 89.2 37C88.3 36.5 87.2 36.1 86 36C85.7 38.9 85.2 41.4 84.4 43.6C83.7 45.7 82.8 47.4 81.8 48.5C80.8 49.7 79.8 50.2 78.7 50.2C77.8 50.2 76.9 49.9 76.2 49.4C75.4 48.9 74.8 48.1 74.4 47.1C74 46.1 73.7 44.9 73.7 43.5C73.7 42.1 74 40.7 74.5 39.5C75 38.3 75.8 37.1 76.8 36.2C77.8 35.2 79 34.5 80.3 34C81.7 33.5 83.2 33.2 84.8 33.2C86.8 33.2 88.5 33.6 90.1 34.3C91.6 35.1 92.8 36.1 93.7 37.4C94.6 38.7 95 40.3 95 42.1C95 44.6 94.3 46.7 93 48.4C91.8 50 89.8 51.1 87.2 51.8ZM78.8 47C79.1 47 79.5 46.7 79.9 46.2C80.3 45.7 80.7 44.9 81.1 44C81.5 43 81.9 41.9 82.2 40.6C82.5 39.3 82.8 37.8 83 36.2C81.6 36.5 80.5 37 79.6 37.7C78.7 38.4 78 39.3 77.5 40.3C77 41.3 76.8 42.4 76.8 43.5C76.8 44.7 77 45.6 77.4 46.2C77.7 46.7 78.2 47 78.8 47Z" fill="white"/>
<path d="M105.2 52.5C104.8 52.7 104.4 52.7 104 52.6C103.6 52.5 103.2 52.2 103 51.9C102.8 51.5 102.7 51.1 102.8 50.7C102.9 50.3 103.2 49.9 103.6 49.7C105.4 48.7 106.8 47.5 108 46.1C109.1 44.7 109.8 43.1 110.1 41.4H102.6C102.2 41.4 101.8 41.2 101.5 40.9C101.2 40.6 101.1 40.2 101.1 39.8C101.1 39.4 101.2 39 101.5 38.7C101.8 38.4 102.2 38.2 102.6 38.2H119.8C120.2 38.2 120.6 38.4 120.9 38.7C121.2 39 121.3 39.4 121.3 39.8C121.3 40.2 121.2 40.6 120.9 40.9C120.6 41.2 120.2 41.4 119.8 41.4H113.2C113 42.9 112.6 44.3 111.9 45.8C111.2 47.3 110.3 48.5 109.2 49.7C108 50.8 106.7 51.7 105.2 52.5ZM105.6 35.8C105.2 35.8 104.8 35.6 104.5 35.3C104.2 35 104 34.6 104 34.2C104 33.8 104.2 33.4 104.5 33.1C104.8 32.8 105.2 32.6 105.6 32.6H116.7C117.2 32.6 117.5 32.8 117.8 33.1C118.1 33.4 118.2 33.8 118.2 34.2C118.2 34.6 118.1 35 117.8 35.3C117.5 35.6 117.1 35.8 116.7 35.8H105.6ZM122.2 37.9C122 38.1 121.7 38.2 121.4 38.2C121.1 38.2 120.8 38 120.6 37.8C120.4 37.5 120.2 37.2 119.9 36.8C119.6 36.4 119.3 36.1 119.1 35.8C118.9 35.6 118.9 35.4 118.9 35.1C118.9 34.8 119 34.6 119.3 34.4C119.5 34.2 119.7 34.1 120 34.1C120.3 34.1 120.5 34.2 120.7 34.4C120.9 34.6 121.2 34.9 121.6 35.3C122 35.7 122.2 36 122.4 36.3C122.6 36.6 122.7 36.8 122.6 37.1C122.6 37.5 122.4 37.7 122.2 37.9ZM124.7 35.7C124.5 35.9 124.2 36 123.9 36C123.6 36 123.3 35.9 123.1 35.6C122.9 35.4 122.6 35.1 122.3 34.7C122 34.3 121.7 34 121.4 33.8C121.2 33.6 121.1 33.4 121.1 33.1C121.1 32.8 121.2 32.6 121.4 32.4C121.6 32.2 121.8 32.1 122.1 32.1C122.4 32.1 122.6 32.2 122.8 32.3C123.1 32.5 123.4 32.8 123.7 33.1C124.1 33.4 124.4 33.8 124.6 34.1C124.8 34.3 124.9 34.6 124.9 34.9C125 35.2 124.9 35.5 124.7 35.7Z" fill="white"/>
<path d="M137 52.9C136.6 53.1 136.2 53.1 135.8 52.9C135.4 52.7 135.1 52.5 134.9 52.1C134.7 51.7 134.7 51.3 134.9 50.9C135 50.5 135.3 50.2 135.7 50C137.7 49.1 139.1 47.8 140 46.3C140.9 44.7 141.4 42.7 141.5 40.3H137.5C137.5 41 137.5 41.7 137.5 42.3C137.5 42.9 137.5 43.5 137.4 44C137.4 44.5 137.2 44.8 136.9 45.1C136.6 45.4 136.2 45.5 135.7 45.5C135.3 45.5 134.9 45.3 134.6 44.9C134.3 44.5 134.2 44.2 134.2 43.7C134.2 43.2 134.3 42.7 134.3 42.1C134.3 41.5 134.3 40.9 134.3 40.2H129C128.6 40.2 128.2 40.1 127.9 39.8C127.6 39.5 127.4 39.1 127.4 38.7C127.4 38.3 127.6 37.9 127.9 37.6C128.2 37.3 128.6 37.1 129 37.1H134.2C134.2 36.5 134.1 35.9 134.1 35.4C134.1 34.9 134 34.4 133.9 34C133.8 33.6 133.9 33.2 134.2 32.8C134.5 32.4 134.8 32.2 135.2 32.2C135.7 32.1 136.1 32.2 136.4 32.5C136.8 32.8 137 33.1 137 33.5C137.1 34 137.1 34.5 137.2 35.2C137.3 35.8 137.3 36.5 137.3 37.2H141.3C141.3 36.5 141.3 35.7 141.2 35C141.1 34.3 141.1 33.7 141.1 33.2C141.1 32.7 141.2 32.4 141.5 32C141.8 31.7 142.1 31.5 142.6 31.4C143.1 31.4 143.4 31.5 143.8 31.8C144.1 32.1 144.3 32.5 144.3 32.9C144.4 33.4 144.4 34.1 144.4 34.8C144.4 35.6 144.4 36.3 144.5 37.1H149.4C149.8 37.1 150.2 37.3 150.5 37.6C150.8 37.9 151 38.3 151 38.7C151 39.1 150.8 39.5 150.5 39.8C150.2 40.1 149.8 40.2 149.4 40.2H144.5C144.4 43.3 143.8 45.9 142.5 48C141.3 50.2 139.5 51.8 137 52.9ZM149.8 35.9C149.6 36.1 149.3 36.2 149 36.2C148.7 36.2 148.4 36.1 148.2 35.8C148 35.6 147.7 35.3 147.4 34.9C147.1 34.6 146.8 34.2 146.5 34C146.3 33.8 146.2 33.6 146.2 33.4C146.2 33.2 146.3 32.9 146.5 32.6C146.7 32.4 146.9 32.3 147.2 32.3C147.5 32.3 147.7 32.4 147.9 32.5C148.2 32.7 148.5 32.9 148.9 33.3C149.3 33.6 149.6 33.9 149.8 34.2C150 34.4 150.1 34.7 150.1 35C150.1 35.3 150.1 35.7 149.8 35.9ZM150.5 33.6C150.3 33.4 150 33.1 149.6 32.8C149.2 32.5 148.9 32.2 148.6 32C148.4 31.8 148.3 31.6 148.3 31.4C148.3 31.2 148.3 30.9 148.5 30.6C148.7 30.4 148.9 30.2 149.2 30.2C149.5 30.2 149.7 30.2 150 30.4C150.3 30.6 150.6 30.8 151 31.1C151.4 31.4 151.7 31.7 152 32C152.2 32.2 152.4 32.5 152.4 32.8C152.4 33.1 152.3 33.4 152.1 33.6C151.9 33.8 151.7 33.9 151.3 34C150.9 34.1 150.8 33.8 150.5 33.6Z" fill="white"/>
<path d="M165.8 53C165.4 53 165 52.8 164.7 52.5C164.4 52.2 164.2 51.8 164.2 51.4V41C163.1 42 161.9 42.9 160.8 43.8C159.6 44.7 158.4 45.5 157.3 46.3C156.9 46.5 156.5 46.6 156.1 46.5C155.7 46.4 155.3 46.2 155.1 45.8C154.9 45.4 154.8 45 154.9 44.6C155 44.2 155.2 43.8 155.6 43.6C156.7 42.9 157.8 42.1 159 41.2C160.2 40.3 161.3 39.3 162.5 38.3C163.6 37.3 164.7 36.3 165.6 35.2C166.6 34.2 167.4 33.2 168 32.3C168.3 31.9 168.6 31.7 169 31.6C169.4 31.5 169.8 31.6 170.2 31.9C170.6 32.1 170.8 32.5 170.9 32.9C171 33.3 170.9 33.7 170.6 34.1C169.7 35.3 168.6 36.6 167.3 37.9V51.4C167.3 51.8 167.1 52.2 166.8 52.5C166.5 52.8 166.3 53 165.8 53Z" fill="white"/>
<path d="M184.2 40.6C183.5 40 182.8 39.5 182 38.9C181.2 38.3 180.4 37.8 179.8 37.4C179.4 37.2 179.2 36.8 179.1 36.4C179 36 179.1 35.6 179.3 35.2C179.5 34.8 179.9 34.6 180.3 34.5C180.7 34.4 181.1 34.5 181.5 34.7C182 35 182.5 35.4 183.1 35.8C183.7 36.2 184.3 36.6 184.8 37.1C185.3 37.6 185.8 37.9 186.2 38.2C186.5 38.5 186.8 38.8 186.8 39.3C186.8 39.8 186.8 40.1 186.5 40.5C186.2 40.9 185.9 41.1 185.4 41.1C185 41 184.6 40.9 184.2 40.6ZM182 50.8C181.6 51 181.2 50.9 180.8 50.7C180.4 50.5 180.1 50.2 180 49.8C179.8 49.4 179.9 49 180.1 48.6C180.3 48.2 180.6 47.9 181 47.8C182.4 47.3 183.8 46.7 185.2 46C186.6 45.3 188 44.5 189.3 43.7C190.6 42.9 191.8 42 192.8 41.1C193.9 40.2 194.7 39.3 195.4 38.5C195.7 38.2 196.1 38 196.5 37.9C196.9 37.8 197.3 38 197.7 38.3C198 38.6 198.2 38.9 198.3 39.4C198.4 39.8 198.2 40.2 197.9 40.6C197.2 41.5 196.2 42.4 195.1 43.4C193.9 44.4 192.6 45.3 191.1 46.3C189.6 47.3 188.1 48.1 186.6 49C185.1 49.9 183.5 50.3 182 50.8Z" fill="white"/>
<path d="M219.2 53C216.9 53.3 214.9 53.5 213.3 53.4C211.7 53.3 210.4 53.1 209.5 52.7C208.6 52.3 207.8 51.8 207.4 51.1C207 50.4 206.7 49.7 206.7 48.8C206.7 47.5 207.2 46.3 208.3 45.2C209.4 44.1 210.9 43.1 212.9 42.2C212.6 41.9 212.3 41.6 211.9 41.5C211 41.2 210.2 41.3 209.3 41.8C208.5 42.3 207.6 42.9 206.8 43.8C206.5 44.1 206.1 44.3 205.6 44.3C205.1 44.3 204.7 44.2 204.4 43.9C204.1 43.6 204 43.2 204 42.8C204 42.4 204.2 42 204.5 41.7C205.3 41 206.1 40.2 206.7 39.3C207.3 38.5 207.9 37.6 208.4 36.7C207.7 36.7 207 36.7 206.3 36.7C205.7 36.7 205.1 36.7 204.6 36.7C204.2 36.7 203.8 36.5 203.5 36.2C203.2 35.9 203.1 35.5 203.1 35.1C203.1 34.7 203.3 34.3 203.6 34C203.9 33.7 204.3 33.6 204.7 33.6C205.3 33.6 206 33.6 206.9 33.6C207.8 33.6 208.7 33.6 209.6 33.6C209.7 33.3 209.8 33 209.8 32.6C209.9 32.3 209.9 32 210 31.7C210.1 31.3 210.3 30.9 210.6 30.6C210.9 30.3 211.3 30.2 211.7 30.3C212.1 30.4 212.5 30.5 212.7 30.9C213 31.2 213.1 31.6 213 32C213 32.2 212.9 32.5 212.9 32.7C212.8 32.9 212.8 33.2 212.7 33.4C213.4 33.4 214 33.3 214.5 33.3C215.1 33.3 215.6 33.2 216 33.1C216.4 33 216.8 33.1 217.2 33.4C217.6 33.7 217.7 34 217.8 34.4C217.9 34.8 217.7 35.2 217.5 35.5C217.3 35.8 216.9 36 216.5 36C215.9 36.1 215.1 36.1 214.3 36.2C213.5 36.3 212.6 36.3 211.7 36.3C211.3 37.1 210.9 37.9 210.5 38.7C210.9 38.6 211.3 38.6 211.7 38.6C212.1 38.6 212.4 38.7 212.8 38.8C213.3 38.9 213.8 39.2 214.3 39.5C214.8 39.8 215.2 40.3 215.6 40.9C216.4 40.7 217.4 40.4 218.3 40.2C219.3 40 220.3 39.8 221.4 39.7C221.8 39.6 222.2 39.7 222.5 40C222.8 40.3 223 40.6 223.1 41C223.2 41.4 223.1 41.8 222.8 42.1C222.5 42.4 222.2 42.6 221.8 42.7C220.8 42.8 219.9 43 219 43.1C218.2 43.3 217.4 43.4 216.6 43.6C216.7 44.1 216.8 44.6 216.8 45.1C216.9 45.7 216.9 46.3 216.9 46.9C216.9 47.3 216.7 47.7 216.4 48C216.1 48.3 215.7 48.5 215.3 48.5C214.9 48.5 214.5 48.3 214.2 48C213.9 47.7 213.8 47.3 213.8 46.9C213.8 46 213.7 45.2 213.6 44.5C212.2 45.1 211.2 45.7 210.5 46.4C209.8 47.1 209.6 47.7 209.6 48.3C209.6 48.8 209.9 49.1 210.4 49.4C210.9 49.7 211.9 49.9 213.2 49.9C214.5 49.9 216.3 49.8 218.5 49.5C218.9 49.4 219.3 49.5 219.6 49.8C219.9 50.1 220.1 50.4 220.2 50.8C220.3 51.2 220.1 51.6 219.9 51.9C220 52.8 219.6 53 219.2 53Z" fill="white"/>
<path d="M243.5 53.5C241.1 53.5 239.1 53.3 237.5 53C235.9 52.7 234.6 52.1 233.7 51.2C233.5 51.4 233.2 51.6 232.8 51.8C232.4 52 232.1 52.3 231.8 52.5C231.5 52.7 231.2 52.9 231.1 53C230.8 53.2 230.4 53.3 230 53.2C229.6 53.1 229.2 52.9 229 52.5C228.8 52.2 228.8 51.8 228.9 51.4C229 51 229.2 50.7 229.6 50.5C229.9 50.4 230.2 50.2 230.7 49.9C231.2 49.7 231.6 49.4 232 49.3V43.3C232 42.9 231.9 42.6 231.8 42.5C231.7 42.3 231.4 42.3 231 42.3H230C229.6 42.3 229.3 42.2 229 41.9C228.8 41.6 228.6 41.3 228.6 41C228.6 40.6 228.7 40.3 229 40.1C229.2 39.8 229.6 39.7 230 39.7H232C233.8 39.7 234.7 40.6 234.7 42.4V49C235 49.3 235.3 49.5 235.6 49.7C235.9 49.9 236.3 50.1 236.8 50.3C236.8 50.2 236.7 50.2 236.7 50.1C236.5 49.8 236.5 49.4 236.6 49.1C236.7 48.8 237 48.5 237.4 48.3C237.8 48.1 238.2 47.9 238.7 47.7C239.2 47.4 239.7 47.2 240.1 46.9H236.4C236.1 46.9 235.8 46.8 235.7 46.6C235.5 46.4 235.4 46.1 235.4 45.9C235.4 45.6 235.5 45.4 235.7 45.1C235.9 44.9 236.1 44.8 236.4 44.8H239.5V43.3H237C236.7 43.3 236.5 43.2 236.3 43C236.1 42.8 236 42.5 236 42.3C236 42 236.1 41.8 236.3 41.5C236.5 41.3 236.7 41.2 237.1 41.2H239.6V39.7H238.8C237.7 39.7 236.9 39.5 236.5 39.1C236 38.7 235.8 37.9 235.8 36.8C235.8 35.7 236 35 236.4 34.6C236.8 34.2 237.6 34 238.7 34H239.3C239.7 34 239.9 34 240 33.9C240.1 33.8 240.2 33.7 240.2 33.4C240.2 33.1 240.1 33 240 32.9C239.9 32.8 239.6 32.8 239.3 32.8H236.5C236.2 32.8 235.9 32.7 235.7 32.5C235.5 32.3 235.4 32 235.4 31.7C235.4 31.4 235.5 31.1 235.7 30.9C235.9 30.7 236.2 30.6 236.5 30.6H239.7C240.8 30.6 241.6 30.8 242 31.2C242.4 31.6 242.6 32.3 242.6 33.3C242.6 34.3 242.4 35.1 242 35.4C241.6 35.8 240.8 36 239.7 36H239.2C238.9 36 238.6 36 238.5 36.1C238.4 36.2 238.3 36.4 238.3 36.7C238.3 37 238.4 37.2 238.5 37.3C238.6 37.4 238.9 37.4 239.2 37.4H239.8C240.2 37.4 240.5 37.3 240.6 37.2C240.8 37.1 240.9 36.9 241.1 36.6C241.2 36.4 241.5 36.2 241.8 36.1C242.1 36 242.4 36 242.8 36.2C243.1 36.3 243.4 36.6 243.5 36.8C243.6 37 243.6 37.4 243.5 37.7C243.2 38.5 242.8 39 242.2 39.3V41.1H245.1V39.3C244.7 39.1 244.4 38.8 244.2 38.4C244 38 243.9 37.4 243.9 36.7C243.9 35.6 244.1 34.9 244.6 34.5C245 34.1 245.8 33.9 246.9 33.9H247.8C248.2 33.9 248.4 33.9 248.5 33.8C248.6 33.7 248.7 33.6 248.7 33.3C248.7 33 248.6 32.9 248.5 32.8C248.4 32.7 248.1 32.7 247.8 32.7H244.7C244.4 32.7 244.1 32.6 243.9 32.4C243.7 32.2 243.6 31.9 243.6 31.6C243.6 31.3 243.7 31 243.9 30.8C244.1 30.6 244.4 30.5 244.7 30.5H248.2C249.3 30.5 250.1 30.7 250.5 31.1C250.9 31.5 251.1 32.2 251.1 33.2C251.1 34.2 250.9 35 250.5 35.3C250.1 35.7 249.3 35.9 248.2 35.9H247.4C247.1 35.9 246.8 35.9 246.7 36C246.6 36.1 246.5 36.3 246.5 36.6C246.5 36.9 246.6 37.1 246.7 37.2C246.8 37.3 247.1 37.3 247.5 37.3H248.4C248.8 37.3 249.1 37.2 249.2 37.1C249.4 37 249.5 36.8 249.7 36.5C249.8 36.3 250.1 36.1 250.4 36C250.7 35.9 251 35.9 251.4 36.1C251.7 36.2 252 36.5 252.1 36.7C252.2 37 252.2 37.3 252.1 37.6C251.9 38.3 251.5 38.8 251 39.1C250.5 39.4 249.7 39.5 248.7 39.5H247.9V41H250.9C251.2 41 251.5 41.1 251.7 41.3C251.9 41.5 252 41.8 252 42.1C252 42.4 251.9 42.6 251.7 42.8C251.5 43 251.3 43.1 250.9 43.1H247.9V44.6H251.6C251.9 44.6 252.2 44.7 252.4 44.9C252.6 45.1 252.7 45.4 252.7 45.7C252.7 46 252.6 46.2 252.4 46.4C252.2 46.6 252 46.7 251.6 46.7H247.1C247.5 47 248 47.2 248.5 47.5C249 47.8 249.4 48 249.8 48.1C250.2 48.3 250.5 48.5 250.6 48.9C250.7 49.2 250.7 49.6 250.5 49.9C250.3 50.2 250 50.5 249.6 50.5C249.2 50.6 248.8 50.5 248.4 50.4C247.9 50.2 247.3 49.9 246.7 49.5C246.1 49.1 245.6 48.8 245.1 48.4C244.8 48.2 244.6 47.9 244.6 47.6C244.5 47.3 244.6 46.9 244.8 46.7H242.4C242.6 47 242.7 47.3 242.6 47.6C242.5 47.9 242.4 48.2 242.1 48.4C241.6 48.7 241.1 49.1 240.5 49.5C239.9 49.9 239.3 50.2 238.8 50.4C238.7 50.4 238.7 50.5 238.6 50.5C239.9 50.7 241.5 50.8 243.5 50.8C244.5 50.8 245.4 50.8 246.4 50.8C247.4 50.8 248.3 50.8 249.2 50.7C250.1 50.7 250.8 50.6 251.4 50.6C251.9 50.6 252.3 50.7 252.6 50.9C252.9 51.1 253.1 51.5 253.1 51.9C253.1 52.3 253 52.7 252.7 52.9C252.4 53.1 252 53.3 251.4 53.3C250.9 53.3 250.2 53.3 249.5 53.3C248.8 53.3 248 53.3 247.3 53.3C246.6 53.3 245.8 53.3 245.1 53.3C244.4 53.3 243.9 53.5 243.5 53.5ZM234.4 35.7C234.1 36 233.8 36.1 233.4 36.1C233 36.1 232.7 35.9 232.4 35.6C232.1 35.2 231.7 34.8 231.2 34.3C230.7 33.8 230.2 33.4 229.8 33.1C229.5 32.9 229.4 32.5 229.4 32.2C229.4 31.8 229.6 31.5 229.8 31.2C230.1 30.9 230.4 30.8 230.7 30.7C231.1 30.7 231.4 30.8 231.7 31.1C232.2 31.5 232.6 31.9 233.2 32.4C233.7 32.9 234.1 33.3 234.5 33.6C234.8 33.9 234.9 34.2 234.9 34.6C234.9 35 234.8 35.4 234.4 35.7ZM242.2 44.7H245.1V43.2H242.2V44.7Z" fill="white"/>
<path d="M259.3 49.9C259 50.2 258.6 50.3 258.2 50.3C257.8 50.3 257.4 50.1 257.1 49.8C256.8 49.5 256.7 49.1 256.7 48.7C256.7 48.3 256.9 47.9 257.2 47.6C257.5 47.3 257.9 47 258.3 46.7C258.8 46.3 259.2 46 259.7 45.6C260.2 45.2 260.7 44.9 261.1 44.5C261.5 44.2 261.9 43.9 262.2 43.7C262.5 43.4 262.9 43.3 263.4 43.4C263.8 43.5 264.2 43.7 264.4 44C264.7 44.3 264.8 44.7 264.7 45.1C264.6 45.5 264.4 45.9 264.1 46.1C263.6 46.4 263.1 46.8 262.5 47.3C261.9 47.8 261.3 48.3 260.7 48.7C260.2 49.1 259.7 49.5 259.3 49.9ZM264.2 51.7C263.8 51.5 263.5 51.2 263.4 50.9C263.2 50.5 263.2 50.1 263.4 49.7C263.6 49.3 263.9 49 264.3 48.8C264.7 48.6 265.1 48.6 265.5 48.8C266.5 49.2 267.2 49.3 267.8 49.2C268.4 49 268.7 48.6 268.7 48C268.7 47.2 268.6 46.5 268.3 45.9C268 45.3 267.7 44.7 267.4 44.1C267.1 43.6 266.8 43.1 266.6 42.6C266.4 42.1 266.2 41.6 266.1 41C266 40.4 266.1 39.7 266.3 39C266.4 38.6 266.6 38.3 267 38.1C267.4 37.9 267.8 37.8 268.2 37.9C268.6 38 268.9 38.2 269.1 38.6C269.3 39 269.4 39.4 269.3 39.8C269.1 40.5 269.2 41.2 269.4 41.8C269.6 42.4 269.9 43 270.3 43.5C270.7 44.1 271 44.8 271.4 45.5C271.7 46.2 271.9 47.1 271.9 48.2C271.9 49.2 271.7 50 271.2 50.7C270.8 51.4 270.2 51.8 269.5 52.1C268.8 52.4 268 52.5 267.1 52.5C266 52.3 265.1 52.1 264.2 51.7ZM269.9 37.5C269.2 37 268.4 36.5 267.6 36.1C266.8 35.7 266 35.3 265.3 35C264.9 34.9 264.6 34.6 264.4 34.2C264.2 33.8 264.1 33.4 264.3 33C264.4 32.6 264.7 32.3 265.1 32.1C265.5 31.9 265.9 31.9 266.3 32C266.9 32.2 267.5 32.5 268.2 32.8C268.9 33.1 269.5 33.5 270.2 33.9C270.8 34.3 271.4 34.6 271.9 35C272.2 35.2 272.4 35.6 272.5 36C272.6 36.4 272.5 36.8 272.2 37.2C271.9 37.6 271.6 37.7 271.2 37.8C270.7 37.8 270.3 37.7 269.9 37.5ZM279.7 49.8C279.3 50 278.9 50.1 278.5 50C278.1 49.9 277.8 49.7 277.5 49.3C277.2 48.8 276.8 48.3 276.4 47.7C275.9 47.1 275.4 46.5 274.9 45.9C274.4 45.3 273.9 44.8 273.4 44.3C273.1 44 272.9 43.6 272.9 43.2C272.9 42.8 273 42.4 273.3 42.1C273.6 41.8 274 41.6 274.4 41.6C274.8 41.6 275.2 41.7 275.5 42C276 42.5 276.6 43.1 277.2 43.8C277.8 44.5 278.4 45.1 278.9 45.8C279.4 46.5 279.9 47.1 280.2 47.6C280.4 48 280.5 48.4 280.4 48.8C280.3 49.2 280.1 49.5 279.7 49.8ZM278 39.8C277.8 40 277.5 40.1 277.2 40.1C276.9 40.1 276.6 40 276.4 39.7C276.2 39.5 275.9 39.2 275.6 38.8C275.3 38.4 275 38.1 274.7 37.9C274.5 37.7 274.4 37.5 274.4 37.2C274.4 36.9 274.5 36.7 274.7 36.5C274.9 36.3 275.1 36.2 275.4 36.2C275.7 36.2 275.9 36.3 276.2 36.4C276.5 36.6 276.8 36.9 277.2 37.2C277.6 37.5 277.9 37.9 278.1 38.1C278.3 38.3 278.4 38.6 278.4 38.9C278.3 39.3 278.2 39.5 278 39.8ZM278.7 37.4C278.5 37.2 278.2 36.9 277.9 36.6C277.6 36.3 277.2 36 277 35.8C276.8 35.6 276.7 35.4 276.7 35.2C276.7 34.9 276.7 34.7 276.9 34.4C277.1 34.2 277.3 34.1 277.6 34C277.9 34 278.1 34 278.4 34.2C278.7 34.4 279 34.6 279.4 34.9C279.8 35.2 280.1 35.5 280.4 35.8C280.6 36 280.7 36.3 280.7 36.6C280.7 36.9 280.6 37.2 280.4 37.4C280.2 37.6 280 37.7 279.6 37.8C279.2 37.7 278.9 37.6 278.7 37.4Z" fill="white"/>
<path d="M328.6 48.7H297.7C296.9 48.7 296.2 48 296.2 47.2C296.2 46.4 296.9 45.7 297.7 45.7H325.1L319.6 39.8C319 39.2 319.1 38.2 319.7 37.7C320.3 37.1 321.3 37.2 321.8 37.8L329.7 46.2C330.1 46.6 330.2 47.3 330 47.8C329.7 48.4 329.2 48.7 328.6 48.7Z" fill="white"/>
</g>
<defs>
<clipPath id="clip0_344_762">
<rect width="360" height="86" fill="white"/>
</clipPath>
</defs>
</svg>
