<svg width="601" height="141" viewBox="0 0 601 141" fill="none" xmlns="http://www.w3.org/2000/svg">
<g clip-path="url(#clip0_420_1491)">
<path d="M589.333 11.7326C589.333 5.54651 584.167 0.5 577.833 0.5H24C17.6667 0.5 12.5 5.54651 12.5 11.7326C6.16667 11.7326 1 16.7791 1 22.9651V117.872C1 124.058 6.16667 129.105 12.5 129.105C12.5 135.291 17.6667 140.337 24 140.337H577.833C584.167 140.337 589.333 135.291 589.333 129.105C595.667 129.105 600.833 124.058 600.833 117.872V22.9651C600.833 16.7791 595.667 11.7326 589.333 11.7326Z" fill="#ED8B21"/>
<path d="M577.833 133.012H24.0002C21.8335 133.012 20.0002 131.222 20.0002 129.105V121.617H12.3335C10.1668 121.617 8.3335 119.826 8.3335 117.71V22.9657C8.3335 20.8494 10.1668 19.0587 12.3335 19.0587H20.0002V11.7331C20.0002 9.61687 21.8335 7.82617 24.0002 7.82617H577.833C580 7.82617 581.833 9.61687 581.833 11.7331V19.2215H589.5C591.667 19.2215 593.5 21.0122 593.5 23.1285V118.035C593.5 120.152 591.667 121.942 589.5 121.942H581.833V129.431C581.667 131.384 580 133.012 577.833 133.012ZM12.3335 21.175C11.3335 21.175 10.3335 21.989 10.3335 23.1285V118.035C10.3335 119.012 11.1668 119.989 12.3335 119.989H21.0002C21.5002 119.989 22.0002 120.477 22.0002 120.966V129.431C22.0002 130.408 22.8335 131.384 24.0002 131.384H577.833C578.833 131.384 579.833 130.57 579.833 129.431V120.966C579.833 120.477 580.333 119.989 580.833 119.989H589.5C590.5 119.989 591.5 119.175 591.5 118.035V22.9657C591.5 21.989 590.667 21.0122 589.5 21.0122H580.833C580.333 21.0122 579.833 20.5238 579.833 20.0355V11.7331C579.833 10.7564 579 9.77966 577.833 9.77966H24.0002C23.0002 9.77966 22.0002 10.5936 22.0002 11.7331V20.1983C22.0002 20.6866 21.5002 21.175 21.0002 21.175H12.3335Z" fill="white"/>
<path d="M79.22 57.356C77.0013 57.356 75.412 56.9187 74.452 56.044C73.5133 55.1907 73.044 53.6973 73.044 51.564V46.092C73.044 43.98 73.5133 42.4867 74.452 41.612C75.412 40.7373 77.0013 40.3 79.22 40.3H83.892C86.1107 40.3 87.6893 40.7373 88.628 41.612C89.588 42.4867 90.068 43.98 90.068 46.092V51.564C90.068 53.6973 89.588 55.1907 88.628 56.044C87.6893 56.9187 86.1107 57.356 83.892 57.356H79.22ZM65.748 57.836C65.1293 57.9 64.6067 57.7933 64.18 57.516C63.7533 57.26 63.4867 56.876 63.38 56.364C63.2733 55.788 63.3587 55.2867 63.636 54.86C63.9133 54.4333 64.3293 54.1987 64.884 54.156C65.6733 54.0707 66.3027 53.8787 66.772 53.58C67.2413 53.2813 67.5827 52.7373 67.796 51.948C68.0307 51.1373 68.148 49.9533 68.148 48.396C68.148 47.3933 68.116 46.4653 68.052 45.612C67.5827 46.2947 67.092 46.9667 66.58 47.628C66.0893 48.2893 65.62 48.8653 65.172 49.356C64.8307 49.74 64.404 49.964 63.892 50.028C63.4013 50.092 62.9427 49.9533 62.516 49.612C62.132 49.3133 61.9293 48.9293 61.908 48.46C61.8867 47.9907 62.036 47.5853 62.356 47.244C62.9107 46.6467 63.4973 45.964 64.116 45.196C64.7347 44.4067 65.3213 43.6067 65.876 42.796C66.452 41.9853 66.9213 41.2493 67.284 40.588C67.1773 40.1613 67.0493 39.756 66.9 39.372C66.772 38.9667 66.6333 38.572 66.484 38.188C65.908 38.7853 65.3533 39.34 64.82 39.852C64.4573 40.1933 64.0307 40.364 63.54 40.364C63.0493 40.364 62.6227 40.1933 62.26 39.852C61.9187 39.5107 61.748 39.1053 61.748 38.636C61.7693 38.1453 61.9507 37.7507 62.292 37.452C63.1027 36.7267 63.9347 35.8947 64.788 34.956C64.468 34.4653 64.1267 33.9747 63.764 33.484C63.4013 32.972 63.0173 32.4707 62.612 31.98C62.3347 31.6173 62.2387 31.2227 62.324 30.796C62.4307 30.3693 62.6653 30.028 63.028 29.772C63.3907 29.516 63.796 29.42 64.244 29.484C64.692 29.5267 65.0653 29.7293 65.364 30.092C65.9613 30.7747 66.516 31.4893 67.028 32.236C67.3267 31.8307 67.604 31.436 67.86 31.052C68.1373 30.6467 68.3827 30.2627 68.596 29.9C68.8733 29.4307 69.236 29.132 69.684 29.004C70.1533 28.8547 70.612 28.908 71.06 29.164C71.4867 29.3987 71.7533 29.74 71.86 30.188C71.9667 30.636 71.9027 31.0733 71.668 31.5C71.3267 32.0973 70.9107 32.7373 70.42 33.42C69.9507 34.0813 69.4493 34.7427 68.916 35.404C69.812 37.196 70.4733 39.148 70.9 41.26C71.348 43.3507 71.572 45.7293 71.572 48.396C71.572 50.7853 71.348 52.6413 70.9 53.964C70.452 55.2653 69.7907 56.1933 68.916 56.748C68.0627 57.324 67.0067 57.6867 65.748 57.836ZM77.876 39.724C77.3853 39.724 76.9587 39.5747 76.596 39.276C76.2333 38.9773 76.052 38.54 76.052 37.964V35.98H72.692C72.2013 35.98 71.8067 35.8307 71.508 35.532C71.2307 35.212 71.092 34.828 71.092 34.38C71.092 33.932 71.2307 33.5587 71.508 33.26C71.8067 32.94 72.2013 32.78 72.692 32.78H76.052V30.412C76.052 29.8147 76.2333 29.3773 76.596 29.1C76.9587 28.8013 77.3853 28.652 77.876 28.652C78.3667 28.652 78.7827 28.8013 79.124 29.1C79.4867 29.3773 79.668 29.8147 79.668 30.412V32.78H83.028V30.412C83.028 29.8147 83.2093 29.3773 83.572 29.1C83.9347 28.8013 84.3507 28.652 84.82 28.652C85.3107 28.652 85.7267 28.8013 86.068 29.1C86.4307 29.3773 86.612 29.8147 86.612 30.412V32.78H90.068C90.5587 32.78 90.9427 32.94 91.22 33.26C91.5187 33.5587 91.668 33.932 91.668 34.38C91.668 34.828 91.5187 35.212 91.22 35.532C90.9427 35.8307 90.5587 35.98 90.068 35.98H86.612V37.964C86.612 38.54 86.4307 38.9773 86.068 39.276C85.7267 39.5747 85.3107 39.724 84.82 39.724C84.3507 39.724 83.9347 39.5747 83.572 39.276C83.2093 38.9773 83.028 38.54 83.028 37.964V35.98H79.668V37.964C79.668 38.54 79.4867 38.9773 79.124 39.276C78.7827 39.5747 78.3667 39.724 77.876 39.724ZM83.22 47.212H86.452V46.124C86.452 45.4413 86.3773 44.9293 86.228 44.588C86.0787 44.2467 85.8013 44.012 85.396 43.884C85.012 43.756 84.4253 43.692 83.636 43.692H83.22V47.212ZM76.66 47.212H79.892V43.692H79.476C78.708 43.692 78.1213 43.756 77.716 43.884C77.3107 44.012 77.0333 44.2467 76.884 44.588C76.7347 44.9293 76.66 45.4413 76.66 46.124V47.212ZM83.22 53.996H83.636C84.4253 53.996 85.012 53.932 85.396 53.804C85.8013 53.676 86.0787 53.4307 86.228 53.068C86.3773 52.7053 86.452 52.1933 86.452 51.532V50.476H83.22V53.996ZM79.476 53.996H79.892V50.476H76.66V51.532C76.66 52.5347 76.8413 53.196 77.204 53.516C77.5667 53.836 78.324 53.996 79.476 53.996ZM103.7 56.268C103.188 56.204 102.772 55.9587 102.452 55.532C102.132 55.1267 102.004 54.6573 102.068 54.124C102.132 53.5907 102.367 53.164 102.772 52.844C103.199 52.524 103.679 52.396 104.212 52.46C104.873 52.5453 105.46 52.5667 105.972 52.524C106.505 52.46 106.964 52.236 107.348 51.852C107.732 51.468 108.073 50.8387 108.372 49.964C108.671 49.0893 108.927 47.884 109.14 46.348C109.332 45.004 109.343 43.9587 109.172 43.212C109.023 42.444 108.628 41.9213 107.988 41.644C107.348 41.3453 106.399 41.2387 105.14 41.324C104.628 43.0733 104.009 44.8227 103.284 46.572C102.58 48.3213 101.801 49.9853 100.948 51.564C100.095 53.1213 99.1667 54.5293 98.164 55.788C97.8227 56.1933 97.396 56.428 96.884 56.492C96.372 56.5773 95.9027 56.46 95.476 56.14C95.0707 55.7987 94.8253 55.372 94.74 54.86C94.676 54.3267 94.8147 53.8573 95.156 53.452C96.4147 51.916 97.556 50.1133 98.58 48.044C99.604 45.9747 100.468 43.8413 101.172 41.644C100.511 41.7293 99.828 41.8147 99.124 41.9C98.4413 41.964 97.7693 42.028 97.108 42.092C96.5747 42.1347 96.1053 41.996 95.7 41.676C95.2947 41.356 95.06 40.9293 94.996 40.396C94.9533 39.8627 95.092 39.3933 95.412 38.988C95.732 38.5613 96.1587 38.3267 96.692 38.284C97.6093 38.1773 98.5373 38.092 99.476 38.028C100.415 37.9427 101.332 37.8787 102.228 37.836C102.463 36.876 102.644 35.9373 102.772 35.02C102.9 34.0813 102.985 33.1853 103.028 32.332C103.071 31.7987 103.284 31.3613 103.668 31.02C104.073 30.6573 104.543 30.4973 105.076 30.54C105.609 30.5613 106.047 30.7747 106.388 31.18C106.751 31.564 106.911 32.0227 106.868 32.556C106.783 33.3453 106.676 34.1667 106.548 35.02C106.42 35.8733 106.26 36.748 106.068 37.644C108.969 37.6867 110.932 38.4653 111.956 39.98C113.001 41.4947 113.311 43.788 112.884 46.86C112.543 49.5053 111.988 51.5533 111.22 53.004C110.473 54.4547 109.481 55.4147 108.244 55.884C107.007 56.3747 105.492 56.5027 103.7 56.268ZM121.556 46.86C121.087 47.116 120.596 47.1693 120.084 47.02C119.572 46.8707 119.188 46.5613 118.932 46.092C118.569 45.4093 118.111 44.6947 117.556 43.948C117.001 43.18 116.425 42.444 115.828 41.74C115.252 41.0147 114.697 40.396 114.164 39.884C113.78 39.5213 113.577 39.084 113.556 38.572C113.535 38.0387 113.705 37.58 114.068 37.196C114.431 36.812 114.868 36.62 115.38 36.62C115.913 36.5987 116.372 36.7693 116.756 37.132C117.439 37.772 118.121 38.508 118.804 39.34C119.508 40.1507 120.159 40.9827 120.756 41.836C121.375 42.6893 121.887 43.5 122.292 44.268C122.548 44.7373 122.601 45.228 122.452 45.74C122.324 46.2307 122.025 46.604 121.556 46.86ZM118.868 37.228C118.591 36.9507 118.239 36.62 117.812 36.236C117.407 35.8307 117.023 35.4787 116.66 35.18C116.447 34.988 116.319 34.7213 116.276 34.38C116.255 34.0387 116.361 33.7293 116.596 33.452C116.831 33.1747 117.108 33.0253 117.428 33.004C117.769 32.9827 118.079 33.0573 118.356 33.228C118.719 33.4413 119.135 33.7507 119.604 34.156C120.095 34.54 120.5 34.892 120.82 35.212C121.097 35.4893 121.236 35.82 121.236 36.204C121.236 36.5667 121.108 36.8973 120.852 37.196C120.596 37.4733 120.265 37.6227 119.86 37.644C119.476 37.644 119.145 37.5053 118.868 37.228ZM121.556 34.22C121.257 33.964 120.873 33.6547 120.404 33.292C119.956 32.9293 119.551 32.6093 119.188 32.332C118.975 32.14 118.836 31.8733 118.772 31.532C118.729 31.1907 118.815 30.8813 119.028 30.604C119.22 30.3267 119.476 30.1667 119.796 30.124C120.137 30.06 120.457 30.1133 120.756 30.284C121.119 30.476 121.556 30.7533 122.068 31.116C122.58 31.4573 123.007 31.7773 123.348 32.076C123.647 32.332 123.807 32.652 123.828 33.036C123.849 33.42 123.743 33.7613 123.508 34.06C123.295 34.3587 122.985 34.5293 122.58 34.572C122.196 34.6147 121.855 34.4973 121.556 34.22ZM127.252 57.196C126.783 57.196 126.388 57.0253 126.068 56.684C125.748 56.364 125.588 55.9693 125.588 55.5C125.588 55.052 125.748 54.668 126.068 54.348C126.388 54.0067 126.783 53.836 127.252 53.836H138.484V47.692H130.868C130.399 47.692 129.983 47.5213 129.62 47.18C129.279 46.8173 129.108 46.4013 129.108 45.932C129.108 45.4413 129.279 45.0253 129.62 44.684C129.983 44.3427 130.399 44.172 130.868 44.172H138.484V38.988H128.468C127.999 38.988 127.593 38.828 127.252 38.508C126.932 38.1667 126.772 37.7613 126.772 37.292C126.772 36.8227 126.932 36.428 127.252 36.108C127.593 35.788 127.999 35.628 128.468 35.628H140.436C140.201 35.5213 140.009 35.3827 139.86 35.212C139.583 34.9347 139.22 34.604 138.772 34.22C138.324 33.836 137.876 33.452 137.428 33.068C136.98 32.6627 136.607 32.3427 136.308 32.108C135.924 31.7667 135.721 31.3187 135.7 30.764C135.679 30.2093 135.849 29.7293 136.212 29.324C136.596 28.9187 137.044 28.6947 137.556 28.652C138.068 28.6093 138.559 28.7693 139.028 29.132C139.369 29.388 139.775 29.7187 140.244 30.124C140.735 30.5293 141.204 30.9453 141.652 31.372C142.121 31.7773 142.495 32.108 142.772 32.364C143.199 32.7693 143.423 33.2493 143.444 33.804C143.465 34.3587 143.263 34.8493 142.836 35.276C142.687 35.4253 142.527 35.5427 142.356 35.628H152.596C153.065 35.628 153.46 35.788 153.78 36.108C154.1 36.428 154.26 36.8227 154.26 37.292C154.26 37.7613 154.1 38.1667 153.78 38.508C153.46 38.828 153.065 38.988 152.596 38.988H142.58V44.172H150.068C150.559 44.172 150.975 44.3427 151.316 44.684C151.657 45.0253 151.828 45.4413 151.828 45.932C151.828 46.4013 151.657 46.8173 151.316 47.18C150.975 47.5213 150.559 47.692 150.068 47.692H142.58V53.836H153.748C154.217 53.836 154.612 54.0067 154.932 54.348C155.252 54.668 155.412 55.052 155.412 55.5C155.412 55.9693 155.252 56.364 154.932 56.684C154.612 57.0253 154.217 57.196 153.748 57.196H127.252ZM168.724 57.612C168.169 57.7613 167.668 57.7187 167.22 57.484C166.793 57.2707 166.505 56.9187 166.356 56.428C166.207 55.9587 166.239 55.5213 166.452 55.116C166.687 54.7107 167.081 54.4333 167.636 54.284C170.004 53.708 172.148 52.8227 174.068 51.628C172.468 49.8573 171.188 47.8093 170.228 45.484H169.044C168.511 45.484 168.095 45.324 167.796 45.004C167.497 44.684 167.348 44.2893 167.348 43.82C167.348 43.3507 167.497 42.956 167.796 42.636C168.095 42.316 168.511 42.156 169.044 42.156H179.476C180.671 42.156 181.588 42.3907 182.228 42.86C182.889 43.3293 183.263 43.948 183.348 44.716C183.455 45.4627 183.273 46.284 182.804 47.18C182.356 48.0333 181.855 48.8333 181.3 49.58C180.767 50.3053 180.191 50.9987 179.572 51.66C181.364 52.7267 183.38 53.484 185.62 53.932C186.217 54.06 186.655 54.348 186.932 54.796C187.231 55.2227 187.295 55.7133 187.124 56.268C186.953 56.8013 186.633 57.1853 186.164 57.42C185.695 57.6547 185.151 57.6973 184.532 57.548C181.503 56.8227 178.9 55.6493 176.724 54.028C175.593 54.8173 174.356 55.5 173.012 56.076C171.689 56.6733 170.26 57.1853 168.724 57.612ZM168.436 41.516C168.116 41.2387 167.935 40.844 167.892 40.332C167.849 39.82 167.999 39.3827 168.34 39.02C168.852 38.508 169.257 38.0067 169.556 37.516C169.876 37.0253 170.111 36.4493 170.26 35.788C170.431 35.1053 170.516 34.2733 170.516 33.292C170.516 32.3107 170.676 31.5427 170.996 30.988C171.316 30.412 171.86 30.0067 172.628 29.772C173.417 29.516 174.495 29.388 175.86 29.388C177.225 29.388 178.292 29.516 179.06 29.772C179.828 30.028 180.361 30.444 180.66 31.02C180.98 31.5747 181.14 32.3427 181.14 33.324V36.3C181.14 36.7053 181.236 36.9933 181.428 37.164C181.641 37.3133 181.983 37.388 182.452 37.388C182.879 37.388 183.188 37.3027 183.38 37.132C183.593 36.94 183.775 36.4813 183.924 35.756C184.031 35.2653 184.297 34.9133 184.724 34.7C185.151 34.4867 185.631 34.444 186.164 34.572C186.676 34.7 187.049 34.956 187.284 35.34C187.54 35.724 187.625 36.1613 187.54 36.652C187.263 38.2733 186.729 39.404 185.94 40.044C185.172 40.684 183.967 41.004 182.324 41.004C180.511 41.004 179.252 40.7587 178.548 40.268C177.865 39.7773 177.524 38.8493 177.524 37.484V33.9C177.524 33.4093 177.417 33.0787 177.204 32.908C176.991 32.716 176.543 32.62 175.86 32.62C175.199 32.62 174.761 32.716 174.548 32.908C174.335 33.0787 174.217 33.4093 174.196 33.9C174.175 35.1587 174.047 36.236 173.812 37.132C173.599 38.028 173.279 38.8173 172.852 39.5C172.447 40.1613 171.924 40.7907 171.284 41.388C170.879 41.7507 170.388 41.9427 169.812 41.964C169.257 41.964 168.799 41.8147 168.436 41.516ZM163.604 58.22C163.092 58.22 162.665 58.06 162.324 57.74C161.983 57.42 161.812 56.9933 161.812 56.46V45.612C161.599 45.8253 161.375 46.0387 161.14 46.252C160.927 46.4653 160.713 46.668 160.5 46.86C160.095 47.244 159.647 47.4467 159.156 47.468C158.665 47.4893 158.207 47.2973 157.78 46.892C157.439 46.5933 157.268 46.188 157.268 45.676C157.268 45.164 157.471 44.7373 157.876 44.396C158.58 43.7987 159.337 43.0733 160.148 42.22C160.959 41.3667 161.737 40.4813 162.484 39.564C163.231 38.6253 163.849 37.7507 164.34 36.94C164.639 36.4707 165.023 36.172 165.492 36.044C165.961 35.916 166.42 36.0013 166.868 36.3C167.295 36.5347 167.561 36.876 167.668 37.324C167.796 37.772 167.711 38.2307 167.412 38.7C167.135 39.1693 166.815 39.6493 166.452 40.14C166.111 40.6307 165.748 41.1213 165.364 41.612V56.46C165.364 56.9933 165.193 57.42 164.852 57.74C164.511 58.06 164.095 58.22 163.604 58.22ZM161.268 37.196C160.82 37.4947 160.319 37.6333 159.764 37.612C159.231 37.5693 158.804 37.3453 158.484 36.94C158.185 36.556 158.047 36.1293 158.068 35.66C158.111 35.1693 158.335 34.796 158.74 34.54C159.316 34.1347 159.945 33.6653 160.628 33.132C161.311 32.5773 161.961 32.0013 162.58 31.404C163.22 30.8067 163.764 30.2413 164.212 29.708C164.553 29.324 164.98 29.1213 165.492 29.1C166.004 29.0573 166.431 29.1747 166.772 29.452C167.156 29.772 167.369 30.1667 167.412 30.636C167.455 31.084 167.316 31.5107 166.996 31.916C166.228 32.876 165.3 33.836 164.212 34.796C163.145 35.7347 162.164 36.5347 161.268 37.196ZM176.756 49.484C177.609 48.652 178.335 47.756 178.932 46.796C179.487 45.9213 179.199 45.484 178.068 45.484H173.844C174.612 46.9987 175.583 48.332 176.756 49.484ZM207.924 55.404C207.391 55.532 206.889 55.4573 206.42 55.18C205.951 54.9027 205.652 54.508 205.524 53.996C205.396 53.484 205.471 53.004 205.748 52.556C206.025 52.0867 206.42 51.788 206.932 51.66C209.3 51.0413 211.039 50.0387 212.148 48.652C213.279 47.2653 213.844 45.5053 213.844 43.372C213.844 42.028 213.545 40.8227 212.948 39.756C212.351 38.6893 211.497 37.8253 210.388 37.164C209.3 36.5027 207.988 36.0973 206.452 35.948C206.068 39.532 205.417 42.636 204.5 45.26C203.604 47.8627 202.537 49.8787 201.3 51.308C200.084 52.716 198.804 53.42 197.46 53.42C196.329 53.42 195.295 53.0893 194.356 52.428C193.417 51.7667 192.671 50.8173 192.116 49.58C191.583 48.3427 191.316 46.86 191.316 45.132C191.316 43.3613 191.647 41.708 192.308 40.172C192.991 38.6147 193.951 37.2493 195.188 36.076C196.425 34.9027 197.876 33.9853 199.54 33.324C201.225 32.6627 203.071 32.332 205.076 32.332C207.508 32.332 209.663 32.8013 211.54 33.74C213.439 34.6573 214.932 35.948 216.02 37.612C217.108 39.2547 217.652 41.1747 217.652 43.372C217.652 46.4653 216.82 49.0467 215.156 51.116C213.513 53.164 211.103 54.5933 207.924 55.404ZM197.492 49.484C197.876 49.484 198.313 49.164 198.804 48.524C199.316 47.8627 199.828 46.9347 200.34 45.74C200.852 44.5453 201.321 43.1373 201.748 41.516C202.175 39.8733 202.495 38.06 202.708 36.076C201.044 36.396 199.647 37.0147 198.516 37.932C197.385 38.828 196.532 39.9053 195.956 41.164C195.38 42.4013 195.081 43.7027 195.06 45.068C195.06 46.5187 195.284 47.6173 195.732 48.364C196.201 49.1107 196.788 49.484 197.492 49.484ZM235.7 56.14C235.167 56.14 234.697 55.948 234.292 55.564C233.908 55.18 233.716 54.7213 233.716 54.188C233.716 53.6333 233.908 53.1747 234.292 52.812C234.697 52.428 235.167 52.2253 235.7 52.204C236.916 52.1613 237.716 51.9907 238.1 51.692C238.505 51.372 238.687 50.7427 238.644 49.804C238.623 49.1213 238.58 48.2573 238.516 47.212C238.473 46.1667 238.431 45.0573 238.388 43.884C237.193 45.1213 235.892 46.3693 234.484 47.628C233.076 48.8867 231.657 50.0707 230.228 51.18C228.799 52.2893 227.433 53.2493 226.132 54.06C225.663 54.3373 225.161 54.4013 224.628 54.252C224.116 54.1027 223.721 53.7933 223.444 53.324C223.167 52.8547 223.103 52.364 223.252 51.852C223.401 51.3187 223.711 50.9133 224.18 50.636C225.268 49.9533 226.505 49.0787 227.892 48.012C229.3 46.924 230.74 45.7507 232.212 44.492C233.684 43.2333 235.049 41.9853 236.308 40.748H226.036C225.503 40.748 225.044 40.5667 224.66 40.204C224.297 39.82 224.116 39.3613 224.116 38.828C224.116 38.2947 224.297 37.8467 224.66 37.484C225.044 37.1 225.503 36.908 226.036 36.908H238.068C238.047 36.0333 238.015 35.2653 237.972 34.604C237.951 33.9427 237.929 33.4307 237.908 33.068C237.887 32.5133 238.068 32.044 238.452 31.66C238.836 31.276 239.295 31.0733 239.828 31.052C240.383 31.0307 240.841 31.212 241.204 31.596C241.588 31.9587 241.791 32.4173 241.812 32.972C241.833 33.3773 241.855 33.9213 241.876 34.604C241.897 35.2867 241.929 36.0547 241.972 36.908H246.868C247.401 36.908 247.849 37.1 248.212 37.484C248.596 37.8467 248.788 38.2947 248.788 38.828C248.788 39.3613 248.596 39.82 248.212 40.204C247.849 40.5667 247.401 40.748 246.868 40.748H242.132C242.175 41.8573 242.217 42.9667 242.26 44.076C242.324 45.1853 242.377 46.22 242.42 47.18C242.484 48.14 242.527 48.9507 242.548 49.612C242.655 51.916 242.175 53.58 241.108 54.604C240.041 55.628 238.239 56.14 235.7 56.14ZM266.26 56.876C265.791 57.1533 265.279 57.2067 264.724 57.036C264.191 56.8653 263.796 56.5453 263.54 56.076C263.284 55.5853 263.22 55.084 263.348 54.572C263.497 54.06 263.807 53.6653 264.276 53.388C265.599 52.6627 266.708 51.8627 267.604 50.988C268.5 50.092 269.215 49.0573 269.748 47.884C270.303 46.7107 270.697 45.324 270.932 43.724C271.188 42.124 271.316 40.236 271.316 38.06C271.316 37.164 271.284 36.204 271.22 35.18C271.177 34.156 271.103 33.3133 270.996 32.652C270.932 32.0973 271.071 31.6067 271.412 31.18C271.775 30.7533 272.223 30.508 272.756 30.444C273.311 30.38 273.791 30.5187 274.196 30.86C274.623 31.2013 274.868 31.6493 274.932 32.204C275.017 32.716 275.071 33.3347 275.092 34.06C275.135 34.764 275.156 35.468 275.156 36.172C275.177 36.876 275.188 37.5053 275.188 38.06C275.188 41.132 274.932 43.8413 274.42 46.188C273.908 48.5133 273.001 50.5507 271.7 52.3C270.42 54.028 268.607 55.5533 266.26 56.876ZM263.06 46.284C262.527 46.2413 262.089 46.0173 261.748 45.612C261.428 45.2067 261.279 44.716 261.3 44.14C261.343 43.5853 261.353 42.8493 261.332 41.932C261.311 40.9933 261.279 40.012 261.236 38.988C261.193 37.9427 261.129 36.9507 261.044 36.012C260.98 35.052 260.905 34.2733 260.82 33.676C260.735 33.1 260.863 32.5987 261.204 32.172C261.545 31.7453 261.983 31.5 262.516 31.436C263.071 31.372 263.561 31.5 263.988 31.82C264.415 32.1187 264.66 32.5453 264.724 33.1C264.788 33.6973 264.852 34.508 264.916 35.532C265.001 36.5347 265.065 37.6013 265.108 38.732C265.172 39.8627 265.215 40.9507 265.236 41.996C265.279 43.02 265.279 43.852 265.236 44.492C265.215 45.068 264.98 45.516 264.532 45.836C264.105 46.156 263.615 46.3053 263.06 46.284ZM292.532 55.308C291.999 55.4573 291.487 55.4147 290.996 55.18C290.527 54.924 290.207 54.5293 290.036 53.996C289.887 53.484 289.929 52.9827 290.164 52.492C290.42 52.0013 290.804 51.6813 291.316 51.532C292.959 51.02 294.633 50.3053 296.34 49.388C298.068 48.4707 299.732 47.4253 301.332 46.252C302.953 45.0573 304.436 43.7987 305.78 42.476C307.145 41.1533 308.276 39.8307 309.172 38.508C309.471 38.06 309.887 37.7827 310.42 37.676C310.953 37.5693 311.444 37.676 311.892 37.996C312.361 38.2947 312.639 38.7107 312.724 39.244C312.831 39.7773 312.735 40.268 312.436 40.716C311.455 42.1667 310.207 43.6387 308.692 45.132C307.177 46.604 305.513 48.012 303.7 49.356C301.887 50.6787 300.02 51.8627 298.1 52.908C296.18 53.932 294.324 54.732 292.532 55.308ZM297.108 39.02C296.809 38.764 296.383 38.444 295.828 38.06C295.295 37.676 294.74 37.3027 294.164 36.94C293.588 36.556 293.087 36.2573 292.66 36.044C292.191 35.788 291.881 35.3933 291.732 34.86C291.583 34.3267 291.647 33.8253 291.924 33.356C292.201 32.8653 292.607 32.556 293.14 32.428C293.673 32.3 294.175 32.364 294.644 32.62C295.113 32.876 295.679 33.228 296.34 33.676C297.023 34.1027 297.684 34.54 298.324 34.988C298.964 35.436 299.465 35.82 299.828 36.14C300.233 36.5027 300.436 36.9613 300.436 37.516C300.457 38.0707 300.287 38.5507 299.924 38.956C299.54 39.3613 299.081 39.564 298.548 39.564C298.015 39.564 297.535 39.3827 297.108 39.02ZM293.716 44.94C293.417 44.7053 292.98 44.4173 292.404 44.076C291.849 43.7133 291.263 43.3613 290.644 43.02C290.047 42.6787 289.535 42.412 289.108 42.22C288.617 41.9853 288.287 41.6013 288.116 41.068C287.945 40.5347 287.977 40.0333 288.212 39.564C288.468 39.0733 288.852 38.7533 289.364 38.604C289.897 38.4333 290.399 38.4653 290.868 38.7C291.38 38.9347 291.977 39.244 292.66 39.628C293.364 40.012 294.047 40.4173 294.708 40.844C295.369 41.2493 295.892 41.6013 296.276 41.9C296.703 42.2413 296.937 42.6893 296.98 43.244C297.023 43.7773 296.863 44.2573 296.5 44.684C296.159 45.1107 295.711 45.3453 295.156 45.388C294.623 45.4307 294.143 45.2813 293.716 44.94ZM308.916 36.492C308.66 36.7693 308.329 36.908 307.924 36.908C307.54 36.8867 307.22 36.7267 306.964 36.428C306.687 36.1293 306.345 35.7773 305.94 35.372C305.556 34.9453 305.193 34.572 304.852 34.252C304.639 34.06 304.521 33.7933 304.5 33.452C304.479 33.1107 304.596 32.8013 304.852 32.524C305.087 32.2893 305.375 32.1613 305.716 32.14C306.057 32.1187 306.367 32.204 306.644 32.396C306.985 32.6307 307.38 32.9613 307.828 33.388C308.297 33.7933 308.681 34.1667 308.98 34.508C309.257 34.7853 309.385 35.116 309.364 35.5C309.343 35.884 309.193 36.2147 308.916 36.492ZM309.78 33.58C309.503 33.3027 309.151 32.972 308.724 32.588C308.297 32.1827 307.903 31.8413 307.54 31.564C307.305 31.372 307.167 31.1053 307.124 30.764C307.081 30.4227 307.177 30.1133 307.412 29.836C307.625 29.5587 307.892 29.4093 308.212 29.388C308.553 29.3453 308.873 29.4093 309.172 29.58C309.535 29.7933 309.951 30.092 310.42 30.476C310.911 30.8387 311.327 31.1907 311.668 31.532C311.945 31.788 312.084 32.108 312.084 32.492C312.105 32.876 311.988 33.2173 311.732 33.516C311.497 33.7933 311.177 33.9427 310.772 33.964C310.388 33.9853 310.057 33.8573 309.78 33.58ZM324.98 56.46C324.489 56.6947 323.988 56.716 323.476 56.524C322.964 56.332 322.591 56.0013 322.356 55.532C322.143 55.0413 322.121 54.54 322.292 54.028C322.484 53.4947 322.825 53.1107 323.316 52.876C325.513 51.8733 327.22 50.572 328.436 48.972C329.673 47.372 330.495 45.3667 330.9 42.956H321.364C320.831 42.956 320.372 42.764 319.988 42.38C319.604 41.996 319.412 41.5373 319.412 41.004C319.412 40.4707 319.604 40.0227 319.988 39.66C320.372 39.276 320.831 39.084 321.364 39.084H331.188V38.956C331.188 37.9533 331.167 36.9293 331.124 35.884C331.103 34.8387 331.049 33.932 330.964 33.164C330.921 32.6093 331.06 32.1293 331.38 31.724C331.7 31.2973 332.127 31.0413 332.66 30.956C333.215 30.892 333.705 31.0307 334.132 31.372C334.58 31.692 334.836 32.1187 334.9 32.652C335.007 33.548 335.06 34.5613 335.06 35.692C335.081 36.8013 335.092 37.8893 335.092 38.956V39.084H343.38C343.935 39.084 344.393 39.276 344.756 39.66C345.14 40.0227 345.332 40.4707 345.332 41.004C345.332 41.5373 345.14 41.996 344.756 42.38C344.393 42.764 343.935 42.956 343.38 42.956H334.836C333.983 49.3347 330.697 53.836 324.98 56.46ZM372.692 51.34C370.836 52.044 369.215 52.3533 367.828 52.268C366.441 52.1827 365.353 51.6813 364.564 50.764C363.796 49.8253 363.412 48.4493 363.412 46.636V36.46C363.412 35.9053 363.604 35.436 363.988 35.052C364.393 34.668 364.863 34.476 365.396 34.476C365.951 34.476 366.409 34.668 366.772 35.052C367.156 35.436 367.348 35.9053 367.348 36.46V46.028C367.348 48.0547 368.575 48.62 371.028 47.724C371.988 47.3613 373.033 46.9347 374.164 46.444C375.316 45.9533 376.34 45.4947 377.236 45.068C377.727 44.8333 378.228 44.8013 378.74 44.972C379.252 45.1213 379.636 45.4413 379.892 45.932C380.148 46.4013 380.191 46.9027 380.02 47.436C379.871 47.9693 379.551 48.3533 379.06 48.588C378.079 49.0573 377.023 49.548 375.892 50.06C374.761 50.5507 373.695 50.9773 372.692 51.34ZM351.732 53.388C351.241 53.6013 350.74 53.6227 350.228 53.452C349.716 53.26 349.343 52.9187 349.108 52.428C348.895 51.9373 348.873 51.436 349.044 50.924C349.236 50.3907 349.577 50.0173 350.068 49.804C351.796 48.9933 353.161 48.012 354.164 46.86C355.167 45.6867 355.881 44.364 356.308 42.892C356.735 41.3987 356.948 39.7987 356.948 38.092C356.948 37.5373 357.14 37.068 357.524 36.684C357.908 36.3 358.367 36.108 358.9 36.108C359.455 36.108 359.913 36.3 360.276 36.684C360.66 37.068 360.852 37.5373 360.852 38.092C360.831 41.7613 360.031 44.8973 358.452 47.5C356.873 50.1027 354.633 52.0653 351.732 53.388ZM387.572 56.012C387.039 56.0973 386.559 55.9907 386.132 55.692C385.705 55.3933 385.439 54.988 385.332 54.476C385.14 53.388 384.991 52.1293 384.884 50.7C384.777 49.2493 384.724 47.724 384.724 46.124C384.724 44.524 384.767 42.9133 384.852 41.292C384.937 39.6707 385.065 38.124 385.236 36.652C385.428 35.1587 385.652 33.8253 385.908 32.652C386.015 32.14 386.292 31.7453 386.74 31.468C387.188 31.1693 387.668 31.0733 388.18 31.18C388.692 31.308 389.087 31.596 389.364 32.044C389.663 32.4707 389.759 32.9507 389.652 33.484C389.311 34.9987 389.044 36.6413 388.852 38.412C388.66 40.1827 388.532 41.9853 388.468 43.82C388.425 45.6333 388.457 47.404 388.564 49.132C388.671 50.8387 388.852 52.396 389.108 53.804C389.215 54.316 389.108 54.7853 388.788 55.212C388.489 55.6387 388.084 55.9053 387.572 56.012ZM400.692 54.284C397.919 54.284 395.849 53.7827 394.484 52.78C393.14 51.7773 392.329 50.3053 392.052 48.364C391.967 47.852 392.073 47.3827 392.372 46.956C392.692 46.5293 393.119 46.2733 393.652 46.188C394.164 46.124 394.633 46.252 395.06 46.572C395.487 46.8707 395.743 47.2867 395.828 47.82C395.956 48.7373 396.393 49.42 397.14 49.868C397.887 50.316 399.103 50.54 400.788 50.54C402.388 50.54 404.319 50.2947 406.58 49.804C407.092 49.676 407.572 49.7613 408.02 50.06C408.468 50.3587 408.745 50.764 408.852 51.276C408.959 51.788 408.863 52.268 408.564 52.716C408.265 53.1427 407.86 53.42 407.348 53.548C406.196 53.8253 405.044 54.0173 403.892 54.124C402.761 54.2307 401.695 54.284 400.692 54.284ZM394.836 38.444C394.324 38.5507 393.844 38.4653 393.396 38.188C392.969 37.8893 392.703 37.4733 392.596 36.94C392.489 36.428 392.575 35.948 392.852 35.5C393.151 35.052 393.567 34.7853 394.1 34.7C395.295 34.4653 396.628 34.316 398.1 34.252C399.572 34.1667 401.033 34.156 402.484 34.22C403.935 34.2627 405.215 34.38 406.324 34.572C406.857 34.6573 407.273 34.924 407.572 35.372C407.871 35.7987 407.967 36.2787 407.86 36.812C407.775 37.3453 407.508 37.7613 407.06 38.06C406.633 38.3373 406.164 38.4333 405.652 38.348C403.924 38.0493 402.132 37.9107 400.276 37.932C398.42 37.932 396.607 38.1027 394.836 38.444ZM428.148 58.124C427.679 58.188 427.263 58.0813 426.9 57.804C426.559 57.5267 426.356 57.1533 426.292 56.684C426.1 55.404 425.791 53.932 425.364 52.268C424.959 50.5827 424.468 48.8973 423.892 47.212C423.039 47.4893 422.217 47.7667 421.428 48.044C420.66 48.3 419.945 48.5453 419.284 48.78C418.836 48.9293 418.399 48.908 417.972 48.716C417.567 48.524 417.279 48.2147 417.108 47.788C416.959 47.34 416.98 46.9133 417.172 46.508C417.385 46.0813 417.716 45.7933 418.164 45.644C419.487 45.1747 421.023 44.6627 422.772 44.108C422.516 43.4893 422.26 42.892 422.004 42.316C421.748 41.74 421.481 41.196 421.204 40.684C420.991 40.2573 420.937 39.82 421.044 39.372C421.172 38.924 421.439 38.5933 421.844 38.38C422.271 38.1453 422.697 38.1027 423.124 38.252C423.572 38.38 423.903 38.6573 424.116 39.084C424.436 39.6813 424.745 40.3213 425.044 41.004C425.343 41.6867 425.631 42.4013 425.908 43.148C426.463 42.9773 427.017 42.8067 427.572 42.636C428.127 42.4653 428.671 42.3053 429.204 42.156C428.863 42.0493 428.596 41.836 428.404 41.516L427.028 39.468C426.793 39.084 426.719 38.6787 426.804 38.252C426.889 37.804 427.124 37.452 427.508 37.196C427.913 36.94 428.34 36.8653 428.788 36.972C429.236 37.0573 429.577 37.292 429.812 37.676L431.156 39.692C431.369 40.012 431.465 40.3533 431.444 40.716C431.423 41.0573 431.295 41.3773 431.06 41.676C431.209 41.6333 431.348 41.5907 431.476 41.548C431.604 41.5053 431.732 41.4733 431.86 41.452C434.079 40.8973 435.871 40.9827 437.236 41.708C438.601 42.4333 439.391 43.66 439.604 45.388C439.753 46.6253 439.572 47.7133 439.06 48.652C438.569 49.5907 437.833 50.3053 436.852 50.796C435.892 51.2867 434.793 51.5107 433.556 51.468C432.34 51.4253 431.092 51.052 429.812 50.348C429.407 50.1133 429.129 49.772 428.98 49.324C428.852 48.876 428.895 48.4493 429.108 48.044C429.343 47.6173 429.684 47.34 430.132 47.212C430.58 47.084 431.007 47.1373 431.412 47.372C432.351 47.9053 433.204 48.172 433.972 48.172C434.74 48.1507 435.337 47.9267 435.764 47.5C436.191 47.052 436.351 46.4653 436.244 45.74C436.159 45.1213 435.817 44.6947 435.22 44.46C434.644 44.2253 433.769 44.2467 432.596 44.524C431.807 44.7373 430.921 44.9827 429.94 45.26C428.98 45.5373 427.999 45.8467 426.996 46.188C427.572 47.9373 428.084 49.6973 428.532 51.468C429.001 53.2173 429.353 54.8067 429.588 56.236C429.673 56.7053 429.567 57.1213 429.268 57.484C428.991 57.868 428.617 58.0813 428.148 58.124ZM448.916 56.012C448.447 55.82 448.116 55.468 447.924 54.956C447.732 54.444 447.743 53.9533 447.956 53.484C448.319 52.6947 448.777 51.7027 449.332 50.508C449.908 49.3133 450.527 48.012 451.188 46.604C451.871 45.196 452.564 43.756 453.268 42.284C453.972 40.812 454.665 39.3827 455.348 37.996C456.031 36.6093 456.66 35.3507 457.236 34.22C457.812 33.068 458.292 32.1293 458.676 31.404C458.911 30.9347 459.284 30.636 459.796 30.508C460.329 30.3587 460.82 30.4227 461.268 30.7C461.737 30.9773 462.036 31.372 462.164 31.884C462.313 32.3747 462.249 32.8547 461.972 33.324C461.673 33.8573 461.279 34.5827 460.788 35.5C460.319 36.4173 459.785 37.452 459.188 38.604C458.612 39.756 458.015 40.9613 457.396 42.22C458.143 41.9 458.9 41.74 459.668 41.74C461.695 41.74 463.081 42.38 463.828 43.66C464.596 44.94 464.671 46.6893 464.052 48.908C463.732 50.06 463.7 50.8493 463.956 51.276C464.233 51.7027 464.735 51.916 465.46 51.916C465.951 51.916 466.42 51.8093 466.868 51.596C467.316 51.3613 467.775 50.9027 468.244 50.22C468.713 49.5373 469.204 48.5347 469.716 47.212C469.908 46.7213 470.249 46.3693 470.74 46.156C471.231 45.9427 471.721 45.9213 472.212 46.092C472.703 46.284 473.055 46.6253 473.268 47.116C473.503 47.6067 473.524 48.108 473.332 48.62C472.479 51.0093 471.412 52.7907 470.132 53.964C468.873 55.116 467.263 55.692 465.3 55.692C463.956 55.692 462.825 55.4147 461.908 54.86C460.991 54.3053 460.383 53.4733 460.084 52.364C459.785 51.2333 459.871 49.8253 460.34 48.14C460.639 47.116 460.671 46.4013 460.436 45.996C460.201 45.5693 459.711 45.356 458.964 45.356C458.004 45.356 457.108 45.6547 456.276 46.252C455.444 46.8493 454.633 47.9693 453.844 49.612C453.759 49.7827 453.599 50.124 453.364 50.636C453.151 51.1267 452.916 51.6707 452.66 52.268C452.404 52.8653 452.159 53.4093 451.924 53.9C451.711 54.3693 451.572 54.6893 451.508 54.86C451.295 55.3507 450.943 55.7133 450.452 55.948C449.983 56.204 449.471 56.2253 448.916 56.012ZM481.812 58.156C481.257 58.3053 480.767 58.3053 480.34 58.156C479.913 58.028 479.615 57.7187 479.444 57.228C479.316 56.8013 479.348 56.364 479.54 55.916C479.732 55.4893 480.063 55.2227 480.532 55.116C481.087 54.988 481.705 54.8173 482.388 54.604C483.092 54.3693 483.807 54.1133 484.532 53.836C485.279 53.5587 485.951 53.2813 486.548 53.004C485.204 52.7907 484.244 52.332 483.668 51.628C483.092 50.9027 482.804 49.8253 482.804 48.396V44.62C482.804 42.8493 483.252 41.6227 484.148 40.94C485.044 40.236 486.58 39.884 488.756 39.884H496.34C498.537 39.884 500.084 40.236 500.98 40.94C501.876 41.6227 502.324 42.8493 502.324 44.62V48.396C502.324 49.8467 502.025 50.9347 501.428 51.66C500.852 52.364 499.871 52.812 498.484 53.004C499.401 53.4307 500.425 53.8467 501.556 54.252C502.687 54.6573 503.657 54.9453 504.468 55.116C504.959 55.2227 505.289 55.4893 505.46 55.916C505.652 56.364 505.684 56.8013 505.556 57.228C505.385 57.7187 505.087 58.028 504.66 58.156C504.233 58.3053 503.743 58.3053 503.188 58.156C502.505 57.964 501.716 57.6973 500.82 57.356C499.945 57.036 499.081 56.6947 498.228 56.332C497.375 55.9693 496.649 55.628 496.052 55.308C495.647 55.0733 495.401 54.764 495.316 54.38C495.231 53.9747 495.284 53.5907 495.476 53.228C495.497 53.2067 495.508 53.196 495.508 53.196C495.508 53.1747 495.519 53.1533 495.54 53.132H489.46C489.503 53.1747 489.524 53.2067 489.524 53.228C489.716 53.5907 489.769 53.9747 489.684 54.38C489.62 54.764 489.375 55.0733 488.948 55.308C488.351 55.628 487.625 55.9693 486.772 56.332C485.919 56.6947 485.055 57.036 484.18 57.356C483.305 57.6973 482.516 57.964 481.812 58.156ZM480.852 41.132C480.425 41.4093 479.945 41.5373 479.412 41.516C478.879 41.4947 478.463 41.26 478.164 40.812C477.929 40.4493 477.855 40.044 477.94 39.596C478.025 39.1267 478.26 38.7853 478.644 38.572C479.775 37.9533 480.692 37.2493 481.396 36.46C482.1 35.6707 482.655 34.732 483.06 33.644H479.7C479.273 33.644 478.932 33.516 478.676 33.26C478.42 32.9827 478.292 32.652 478.292 32.268C478.292 31.8627 478.42 31.5213 478.676 31.244C478.932 30.9667 479.273 30.828 479.7 30.828H483.7C483.743 30.6573 483.764 30.476 483.764 30.284C483.785 30.0707 483.807 29.868 483.828 29.676C483.871 29.1213 484.084 28.7267 484.468 28.492C484.852 28.2573 485.289 28.1613 485.78 28.204C486.228 28.2467 486.601 28.428 486.9 28.748C487.199 29.068 487.327 29.4947 487.284 30.028C487.263 30.1773 487.241 30.316 487.22 30.444C487.22 30.572 487.209 30.7 487.188 30.828H489.204C490.484 30.828 491.423 31.148 492.02 31.788C492.639 32.4067 492.863 33.4093 492.692 34.796C492.543 36.0333 492.276 36.9827 491.892 37.644C491.529 38.3053 491.007 38.764 490.324 39.02C489.663 39.276 488.799 39.404 487.732 39.404C487.284 39.404 486.9 39.276 486.58 39.02C486.281 38.7427 486.111 38.3693 486.068 37.9C486.047 37.4733 486.164 37.1107 486.42 36.812C486.676 36.492 487.007 36.3213 487.412 36.3C488.116 36.2573 488.564 36.1613 488.756 36.012C488.969 35.8627 489.129 35.4893 489.236 34.892C489.321 34.4227 489.3 34.1027 489.172 33.932C489.044 33.74 488.703 33.644 488.148 33.644H486.516C485.983 35.308 485.236 36.7693 484.276 38.028C483.316 39.2653 482.175 40.3 480.852 41.132ZM499.252 38.7C498.079 38.7 497.129 38.5827 496.404 38.348C495.7 38.092 495.188 37.6547 494.868 37.036C494.569 36.396 494.42 35.4893 494.42 34.316C494.42 33.1213 494.569 32.2147 494.868 31.596C495.188 30.956 495.7 30.5187 496.404 30.284C497.129 30.028 498.079 29.9 499.252 29.9H501.108C502.303 29.9 503.252 30.028 503.956 30.284C504.66 30.5187 505.161 30.956 505.46 31.596C505.78 32.2147 505.94 33.1213 505.94 34.316C505.94 35.4893 505.78 36.396 505.46 37.036C505.161 37.6547 504.66 38.092 503.956 38.348C503.252 38.5827 502.303 38.7 501.108 38.7H499.252ZM486.612 47.116H498.484V45.836H486.612V47.116ZM499.412 35.884H500.948C501.673 35.884 502.143 35.788 502.356 35.596C502.569 35.3827 502.676 34.956 502.676 34.316C502.676 33.6547 502.569 33.228 502.356 33.036C502.143 32.8227 501.673 32.716 500.948 32.716H499.412C498.687 32.716 498.217 32.8227 498.004 33.036C497.791 33.228 497.684 33.6547 497.684 34.316C497.684 34.956 497.791 35.3827 498.004 35.596C498.217 35.788 498.687 35.884 499.412 35.884ZM488.82 50.54H496.308C497.076 50.54 497.609 50.4547 497.908 50.284C498.207 50.1133 498.388 49.772 498.452 49.26H486.676C486.719 49.772 486.889 50.1133 487.188 50.284C487.508 50.4547 488.052 50.54 488.82 50.54ZM486.676 43.692H498.452C498.367 43.2227 498.175 42.9133 497.876 42.764C497.577 42.5933 497.055 42.508 496.308 42.508H488.82C488.073 42.508 487.54 42.5933 487.22 42.764C486.921 42.9133 486.74 43.2227 486.676 43.692ZM536.276 57.004C534.591 55.7453 533.172 54.3373 532.02 52.78C530.889 51.2013 529.983 49.5373 529.3 47.788C528.703 49.5373 527.871 51.1907 526.804 52.748C525.759 54.284 524.436 55.6707 522.836 56.908C522.409 57.228 521.919 57.388 521.364 57.388C520.831 57.388 520.383 57.1533 520.02 56.684C519.721 56.2573 519.615 55.7987 519.7 55.308C519.785 54.8173 520.041 54.4227 520.468 54.124C524.521 51.244 526.772 47.084 527.22 41.644H521.844C521.375 41.644 520.969 41.4733 520.628 41.132C520.287 40.7693 520.116 40.3533 520.116 39.884C520.116 39.3933 520.287 38.9773 520.628 38.636C520.969 38.2947 521.375 38.124 521.844 38.124H527.316V30.86C527.316 30.284 527.508 29.836 527.892 29.516C528.276 29.1747 528.703 29.004 529.172 29.004C529.684 29.004 530.111 29.1747 530.452 29.516C530.815 29.836 530.996 30.284 530.996 30.86V38.124H537.428C537.919 38.124 538.335 38.2947 538.676 38.636C539.017 38.9773 539.188 39.3933 539.188 39.884C539.188 40.3533 539.017 40.7693 538.676 41.132C538.335 41.4733 537.919 41.644 537.428 41.644H531.124C531.423 44.3533 532.244 46.7533 533.588 48.844C534.953 50.9133 536.681 52.6733 538.772 54.124C539.199 54.4013 539.444 54.796 539.508 55.308C539.572 55.82 539.433 56.2787 539.092 56.684C538.729 57.1533 538.281 57.4093 537.748 57.452C537.236 57.4947 536.745 57.3453 536.276 57.004ZM517.556 58.188C517.065 58.188 516.639 58.0173 516.276 57.676C515.913 57.356 515.732 56.9293 515.732 56.396V48.236C515.135 48.7053 514.495 49.196 513.812 49.708C513.151 50.1987 512.617 50.5827 512.212 50.86C511.743 51.1587 511.241 51.276 510.708 51.212C510.175 51.1267 509.759 50.8173 509.46 50.284C509.204 49.8147 509.14 49.3453 509.268 48.876C509.396 48.4067 509.684 48.0333 510.132 47.756C510.431 47.564 510.825 47.2973 511.316 46.956C511.828 46.6147 512.361 46.2413 512.916 45.836C513.471 45.4307 513.993 45.0467 514.484 44.684C514.996 44.3 515.412 43.98 515.732 43.724V39.628C515.604 39.9907 515.305 40.2893 514.836 40.524C514.367 40.78 513.876 40.8333 513.364 40.684C512.852 40.5347 512.479 40.2253 512.244 39.756C512.116 39.4787 511.913 39.0947 511.636 38.604C511.359 38.1133 511.081 37.6227 510.804 37.132C510.548 36.6413 510.345 36.268 510.196 36.012C509.919 35.5853 509.855 35.1267 510.004 34.636C510.153 34.1453 510.473 33.772 510.964 33.516C511.455 33.26 511.935 33.196 512.404 33.324C512.895 33.4307 513.279 33.7187 513.556 34.188C513.727 34.4653 513.951 34.86 514.228 35.372C514.505 35.884 514.772 36.396 515.028 36.908C515.305 37.3987 515.508 37.772 515.636 38.028L515.732 38.316V30.7C515.732 30.1453 515.913 29.708 516.276 29.388C516.639 29.068 517.065 28.908 517.556 28.908C518.047 28.908 518.463 29.068 518.804 29.388C519.167 29.708 519.348 30.1453 519.348 30.7V56.396C519.348 56.9293 519.167 57.356 518.804 57.676C518.463 58.0173 518.047 58.188 517.556 58.188ZM537.684 36.3C537.321 36.5987 536.895 36.7373 536.404 36.716C535.913 36.6733 535.519 36.46 535.22 36.076C535.071 35.884 534.847 35.6173 534.548 35.276C534.249 34.9133 533.94 34.5613 533.62 34.22C533.321 33.8573 533.076 33.58 532.884 33.388C532.585 33.0467 532.457 32.652 532.5 32.204C532.543 31.756 532.735 31.3933 533.076 31.116C533.439 30.796 533.844 30.636 534.292 30.636C534.74 30.636 535.135 30.8173 535.476 31.18C535.668 31.372 535.924 31.6387 536.244 31.98C536.564 32.3213 536.873 32.6627 537.172 33.004C537.492 33.3453 537.716 33.6013 537.844 33.772C538.228 34.1987 538.399 34.636 538.356 35.084C538.335 35.532 538.111 35.9373 537.684 36.3Z" fill="white"/>
<path d="M41.82 112.42C41.1533 112.42 40.62 112.207 40.22 111.78C39.8467 111.353 39.66 110.847 39.66 110.26C39.66 109.647 39.8467 109.14 40.22 108.74C40.62 108.313 41.1533 108.1 41.82 108.1H54.06V103.74H46.14C45.4733 103.74 44.94 103.527 44.54 103.1C44.14 102.647 43.94 102.127 43.94 101.54C43.94 100.927 44.14 100.407 44.54 99.98C44.94 99.5533 45.4733 99.34 46.14 99.34H54.06V95.62H46.34C45.6733 95.62 45.1267 95.4067 44.7 94.98C44.3 94.5267 44.1 93.9933 44.1 93.38C44.1 93.0867 44.1667 92.78 44.3 92.46C43.7667 92.8867 43.2333 93.2867 42.7 93.66C42.1667 94.0067 41.6467 94.34 41.14 94.66C40.4733 95.0867 39.7933 95.2733 39.1 95.22C38.4067 95.1667 37.86 94.8467 37.46 94.26C37.06 93.6467 36.9533 93.0333 37.14 92.42C37.3533 91.8067 37.7533 91.3133 38.34 90.94C39.9133 90.0067 41.5533 88.8867 43.26 87.58C44.9933 86.2733 46.6467 84.9267 48.22 83.54C49.82 82.1267 51.18 80.82 52.3 79.62C53.6867 78.1267 55.06 77.3667 56.42 77.34C57.8067 77.3133 59.3133 78.0867 60.94 79.66C62.0867 80.7533 63.4067 81.94 64.9 83.22C66.42 84.4733 68.02 85.7133 69.7 86.94C71.4067 88.14 73.0867 89.2067 74.74 90.14C75.3267 90.46 75.7133 90.9667 75.9 91.66C76.1133 92.3267 76.0333 92.9533 75.66 93.54C75.2333 94.2067 74.6467 94.5933 73.9 94.7C73.18 94.78 72.4733 94.6067 71.78 94.18C70.1267 93.1133 68.4333 91.94 66.7 90.66C64.9933 89.3533 63.3533 88.0067 61.78 86.62C60.2333 85.2333 58.8733 83.9 57.7 82.62C56.98 81.8467 56.2467 81.8733 55.5 82.7C54.3267 83.9533 52.8867 85.34 51.18 86.86C49.4733 88.38 47.74 89.8333 45.98 91.22C46.06 91.1933 46.18 91.18 46.34 91.18H66.58C67.2467 91.18 67.78 91.3933 68.18 91.82C68.58 92.2467 68.78 92.7667 68.78 93.38C68.78 93.9933 68.58 94.5267 68.18 94.98C67.78 95.4067 67.2467 95.62 66.58 95.62H59.06V99.34H66.82C67.4867 99.34 68.0067 99.5533 68.38 99.98C68.78 100.407 68.98 100.927 68.98 101.54C68.98 102.127 68.78 102.647 68.38 103.1C68.0067 103.527 67.4867 103.74 66.82 103.74H59.06V108.1H71.22C71.8867 108.1 72.4067 108.313 72.78 108.74C73.18 109.14 73.38 109.647 73.38 110.26C73.38 110.847 73.18 111.353 72.78 111.78C72.4067 112.207 71.8867 112.42 71.22 112.42H41.82ZM153.882 102.22C151.669 102.22 149.949 102.007 148.722 101.58C147.522 101.153 146.682 100.433 146.202 99.42C145.749 98.38 145.522 96.98 145.522 95.22C145.522 93.4333 145.749 92.0333 146.202 91.02C146.682 90.0067 147.522 89.2867 148.722 88.86C149.949 88.4333 151.669 88.22 153.882 88.22H155.682V78.98C155.682 78.2067 155.922 77.5933 156.402 77.14C156.909 76.66 157.509 76.42 158.202 76.42C158.895 76.42 159.482 76.66 159.962 77.14C160.469 77.5933 160.722 78.2067 160.722 78.98V80.98H173.882C174.469 80.98 174.962 81.1933 175.362 81.62C175.762 82.02 175.962 82.5133 175.962 83.1C175.962 83.6867 175.762 84.1933 175.362 84.62C174.962 85.02 174.469 85.22 173.882 85.22H160.722V88.22H163.922C166.135 88.22 167.842 88.4333 169.042 88.86C170.269 89.2867 171.122 90.0067 171.602 91.02C172.082 92.0333 172.322 93.4333 172.322 95.22C172.322 96.98 172.082 98.38 171.602 99.42C171.122 100.433 170.269 101.153 169.042 101.58C167.842 102.007 166.135 102.22 163.922 102.22H153.882ZM153.922 97.98H163.922C164.855 97.98 165.562 97.9133 166.042 97.78C166.522 97.62 166.842 97.3533 167.002 96.98C167.162 96.58 167.242 96.0067 167.242 95.26C167.242 94.14 167.042 93.4067 166.642 93.06C166.242 92.6867 165.335 92.5 163.922 92.5H153.922C152.535 92.5 151.629 92.6867 151.202 93.06C150.802 93.4067 150.602 94.14 150.602 95.26C150.602 96.0067 150.682 96.58 150.842 96.98C151.002 97.3533 151.322 97.62 151.802 97.78C152.282 97.9133 152.989 97.98 153.922 97.98ZM142.202 113.1C141.722 112.727 141.442 112.207 141.362 111.54C141.282 110.9 141.442 110.367 141.842 109.94C142.215 109.487 142.669 108.9 143.202 108.18C143.735 107.46 144.255 106.74 144.762 106.02C145.269 105.273 145.669 104.66 145.962 104.18C146.282 103.62 146.762 103.273 147.402 103.14C148.069 102.98 148.655 103.06 149.162 103.38C149.695 103.727 150.029 104.193 150.162 104.78C150.322 105.367 150.242 105.94 149.922 106.5C149.522 107.167 149.069 107.9 148.562 108.7C148.055 109.473 147.549 110.207 147.042 110.9C146.562 111.62 146.122 112.207 145.722 112.66C145.269 113.167 144.709 113.473 144.042 113.58C143.402 113.687 142.789 113.527 142.202 113.1ZM175.442 112.82C174.882 113.167 174.282 113.273 173.642 113.14C173.029 113.007 172.535 112.66 172.162 112.1C171.869 111.62 171.482 111.033 171.002 110.34C170.549 109.62 170.069 108.913 169.562 108.22C169.082 107.527 168.655 106.94 168.282 106.46C167.935 106.007 167.789 105.487 167.842 104.9C167.895 104.287 168.175 103.807 168.682 103.46C169.189 103.087 169.735 102.913 170.322 102.94C170.935 102.967 171.442 103.22 171.842 103.7C172.269 104.153 172.749 104.74 173.282 105.46C173.815 106.18 174.349 106.9 174.882 107.62C175.415 108.34 175.842 108.953 176.162 109.46C176.535 110.047 176.655 110.66 176.522 111.3C176.415 111.94 176.055 112.447 175.442 112.82ZM164.922 113.38C164.282 113.62 163.669 113.607 163.082 113.34C162.522 113.073 162.149 112.607 161.962 111.94C161.829 111.487 161.655 110.927 161.442 110.26C161.255 109.567 161.055 108.887 160.842 108.22C160.629 107.527 160.442 106.967 160.282 106.54C160.042 105.9 160.055 105.327 160.322 104.82C160.615 104.287 161.042 103.927 161.602 103.74C162.215 103.527 162.789 103.527 163.322 103.74C163.882 103.953 164.295 104.38 164.562 105.02C164.749 105.473 164.962 106.047 165.202 106.74C165.442 107.433 165.669 108.127 165.882 108.82C166.095 109.487 166.269 110.033 166.402 110.46C166.615 111.153 166.589 111.753 166.322 112.26C166.055 112.793 165.589 113.167 164.922 113.38ZM156.482 113.86C155.815 114.02 155.202 113.927 154.642 113.58C154.109 113.26 153.775 112.753 153.642 112.06C153.589 111.633 153.482 111.073 153.322 110.38C153.189 109.687 153.042 108.993 152.882 108.3C152.749 107.607 152.629 107.073 152.522 106.7C152.389 106.033 152.482 105.46 152.802 104.98C153.149 104.473 153.615 104.153 154.202 104.02C154.842 103.86 155.429 103.927 155.962 104.22C156.495 104.513 156.855 105.007 157.042 105.7C157.149 106.1 157.282 106.66 157.442 107.38C157.602 108.073 157.762 108.767 157.922 109.46C158.082 110.153 158.202 110.727 158.282 111.18C158.522 112.62 157.922 113.513 156.482 113.86ZM203.202 110.38C202.535 110.54 201.909 110.447 201.322 110.1C200.735 109.753 200.362 109.26 200.202 108.62C200.042 107.98 200.135 107.38 200.482 106.82C200.829 106.233 201.322 105.86 201.962 105.7C204.922 104.927 207.095 103.673 208.482 101.94C209.895 100.207 210.602 98.0067 210.602 95.34C210.602 93.66 210.229 92.1533 209.482 90.82C208.735 89.4867 207.669 88.4067 206.282 87.58C204.922 86.7533 203.282 86.2467 201.362 86.06C200.882 90.54 200.069 94.42 198.922 97.7C197.802 100.953 196.469 103.473 194.922 105.26C193.402 107.02 191.802 107.9 190.122 107.9C188.709 107.9 187.415 107.487 186.242 106.66C185.069 105.833 184.135 104.647 183.442 103.1C182.775 101.553 182.442 99.7 182.442 97.54C182.442 95.3267 182.855 93.26 183.682 91.34C184.535 89.3933 185.735 87.6867 187.282 86.22C188.829 84.7533 190.642 83.6067 192.722 82.78C194.829 81.9533 197.135 81.54 199.642 81.54C202.682 81.54 205.375 82.1267 207.722 83.3C210.095 84.4467 211.962 86.06 213.322 88.14C214.682 90.1933 215.362 92.5933 215.362 95.34C215.362 99.2067 214.322 102.433 212.242 105.02C210.189 107.58 207.175 109.367 203.202 110.38ZM190.162 102.98C190.642 102.98 191.189 102.58 191.802 101.78C192.442 100.953 193.082 99.7933 193.722 98.3C194.362 96.8067 194.949 95.0467 195.482 93.02C196.015 90.9667 196.415 88.7 196.682 86.22C194.602 86.62 192.855 87.3933 191.442 88.54C190.029 89.66 188.962 91.0067 188.242 92.58C187.522 94.1267 187.149 95.7533 187.122 97.46C187.122 99.2733 187.402 100.647 187.962 101.58C188.549 102.513 189.282 102.98 190.162 102.98ZM229.682 111.5C229.095 111.793 228.469 111.847 227.802 111.66C227.162 111.5 226.669 111.127 226.322 110.54C225.975 109.953 225.895 109.34 226.082 108.7C226.269 108.033 226.655 107.527 227.242 107.18C229.989 105.687 232.215 103.833 233.922 101.62C235.655 99.4067 236.735 97.0067 237.162 94.42H225.562C224.895 94.42 224.335 94.1933 223.882 93.74C223.429 93.26 223.202 92.6867 223.202 92.02C223.202 91.3533 223.429 90.7933 223.882 90.34C224.335 89.86 224.895 89.62 225.562 89.62H252.082C252.749 89.62 253.309 89.86 253.762 90.34C254.215 90.7933 254.442 91.3533 254.442 92.02C254.442 92.6867 254.215 93.26 253.762 93.74C253.309 94.1933 252.749 94.42 252.082 94.42H241.962C241.695 96.7133 241.015 98.9533 239.922 101.14C238.855 103.3 237.455 105.273 235.722 107.06C233.989 108.847 231.975 110.327 229.682 111.5ZM230.242 85.82C229.575 85.82 229.002 85.5933 228.522 85.14C228.069 84.66 227.842 84.0867 227.842 83.42C227.842 82.7533 228.069 82.1933 228.522 81.74C229.002 81.26 229.575 81.02 230.242 81.02H247.282C247.975 81.02 248.549 81.26 249.002 81.74C249.455 82.1933 249.682 82.7533 249.682 83.42C249.682 84.0867 249.455 84.66 249.002 85.14C248.549 85.5933 247.975 85.82 247.282 85.82H230.242ZM255.802 89.02C255.455 89.34 255.029 89.4733 254.522 89.42C254.042 89.3667 253.655 89.14 253.362 88.74C253.095 88.34 252.735 87.8467 252.282 87.26C251.829 86.6733 251.415 86.1667 251.042 85.74C250.802 85.4467 250.695 85.0867 250.722 84.66C250.749 84.2333 250.935 83.8733 251.282 83.58C251.602 83.2867 251.962 83.1533 252.362 83.18C252.789 83.2067 253.162 83.3667 253.482 83.66C253.855 84.0067 254.295 84.4733 254.802 85.06C255.335 85.62 255.775 86.1267 256.122 86.58C256.415 86.98 256.522 87.42 256.442 87.9C256.389 88.3533 256.175 88.7267 255.802 89.02ZM259.642 85.7C259.295 86.02 258.869 86.18 258.362 86.18C257.882 86.1533 257.495 85.9533 257.202 85.58C256.882 85.2067 256.482 84.7533 256.002 84.22C255.522 83.66 255.082 83.1667 254.682 82.74C254.415 82.4733 254.269 82.14 254.242 81.74C254.242 81.3133 254.415 80.9267 254.762 80.58C255.055 80.2867 255.402 80.14 255.802 80.14C256.229 80.1133 256.615 80.2333 256.962 80.5C257.362 80.7933 257.842 81.2067 258.402 81.74C258.962 82.2733 259.429 82.7667 259.802 83.22C260.095 83.5933 260.229 84.02 260.202 84.5C260.175 84.9533 259.989 85.3533 259.642 85.7ZM275.042 112.18C274.429 112.447 273.802 112.46 273.162 112.22C272.522 112.007 272.055 111.593 271.762 110.98C271.495 110.367 271.469 109.74 271.682 109.1C271.922 108.433 272.349 107.967 272.962 107.7C275.975 106.287 278.202 104.38 279.642 101.98C281.082 99.58 281.842 96.4867 281.922 92.7H275.842C275.869 93.7667 275.882 94.78 275.882 95.74C275.882 96.7 275.855 97.5667 275.802 98.34C275.775 99.0333 275.509 99.6067 275.002 100.06C274.495 100.487 273.895 100.687 273.202 100.66C272.535 100.607 271.989 100.327 271.562 99.82C271.135 99.2867 270.935 98.6867 270.962 98.02C271.015 97.3 271.042 96.4867 271.042 95.58C271.042 94.6467 271.029 93.6867 271.002 92.7H262.802C262.135 92.7 261.562 92.4733 261.082 92.02C260.629 91.5667 260.402 91.0067 260.402 90.34C260.402 89.6733 260.629 89.1133 261.082 88.66C261.562 88.18 262.135 87.94 262.802 87.94H270.842C270.789 87.0067 270.722 86.1267 270.642 85.3C270.589 84.4467 270.509 83.7 270.402 83.06C270.295 82.3933 270.429 81.7933 270.802 81.26C271.202 80.7 271.735 80.3667 272.402 80.26C273.095 80.1267 273.709 80.26 274.242 80.66C274.802 81.06 275.122 81.5933 275.202 82.26C275.309 83.0067 275.402 83.8733 275.482 84.86C275.562 85.82 275.629 86.8467 275.682 87.94H281.882C281.855 86.7933 281.815 85.6867 281.762 84.62C281.735 83.5267 281.682 82.58 281.602 81.78C281.549 81.0867 281.735 80.4867 282.162 79.98C282.615 79.4467 283.175 79.1533 283.842 79.1C284.535 79.0467 285.135 79.2467 285.642 79.7C286.175 80.1267 286.455 80.6867 286.482 81.38C286.562 82.2067 286.615 83.2067 286.642 84.38C286.695 85.5267 286.735 86.7133 286.762 87.94H294.362C295.029 87.94 295.589 88.18 296.042 88.66C296.522 89.1133 296.762 89.6733 296.762 90.34C296.762 91.0067 296.522 91.5667 296.042 92.02C295.589 92.4733 295.029 92.7 294.362 92.7H286.762C286.682 97.4467 285.655 101.46 283.682 104.74C281.709 107.993 278.829 110.473 275.042 112.18ZM295.802 82.38C295.455 82.0333 295.015 81.62 294.482 81.14C293.949 80.66 293.455 80.2333 293.002 79.86C292.735 79.62 292.575 79.2867 292.522 78.86C292.469 78.4333 292.589 78.0467 292.882 77.7C293.149 77.3533 293.482 77.1667 293.882 77.14C294.309 77.0867 294.709 77.1667 295.082 77.38C295.535 77.6467 296.055 78.02 296.642 78.5C297.229 78.9533 297.735 79.3933 298.162 79.82C298.535 80.14 298.722 80.54 298.722 81.02C298.722 81.5 298.575 81.9267 298.282 82.3C297.989 82.6467 297.589 82.8333 297.082 82.86C296.602 82.8867 296.175 82.7267 295.802 82.38ZM294.762 86.02C294.415 86.3667 294.002 86.54 293.522 86.54C293.042 86.5133 292.629 86.3267 292.282 85.98C291.962 85.6067 291.549 85.1533 291.042 84.62C290.535 84.0867 290.069 83.62 289.642 83.22C289.375 82.98 289.229 82.6467 289.202 82.22C289.202 81.7933 289.362 81.4067 289.682 81.06C289.975 80.7667 290.322 80.6067 290.722 80.58C291.149 80.5533 291.535 80.6733 291.882 80.94C292.309 81.2067 292.815 81.6067 293.402 82.14C293.989 82.6467 294.469 83.1133 294.842 83.54C295.162 83.8867 295.309 84.3 295.282 84.78C295.282 85.26 295.109 85.6733 294.762 86.02ZM320.922 112.26C320.255 112.26 319.682 112.007 319.202 111.5C318.722 111.02 318.482 110.447 318.482 109.78V93.78C316.775 95.2733 315.015 96.7133 313.202 98.1C311.389 99.4867 309.575 100.753 307.762 101.9C307.175 102.247 306.549 102.34 305.882 102.18C305.242 102.02 304.735 101.647 304.362 101.06C304.015 100.473 303.922 99.8467 304.082 99.18C304.242 98.5133 304.615 98.0067 305.202 97.66C306.882 96.62 308.629 95.4067 310.442 94.02C312.282 92.6333 314.069 91.1533 315.802 89.58C317.562 88.0067 319.175 86.4333 320.642 84.86C322.135 83.26 323.375 81.7533 324.362 80.34C324.762 79.78 325.295 79.4333 325.962 79.3C326.629 79.1667 327.242 79.3 327.802 79.7C328.362 80.0733 328.709 80.6067 328.842 81.3C328.975 81.9667 328.842 82.58 328.442 83.14C327.055 85.0067 325.375 86.9667 323.402 89.02V109.78C323.402 110.447 323.162 111.02 322.682 111.5C322.202 112.007 321.615 112.26 320.922 112.26ZM349.402 108.94C348.762 109.18 348.122 109.153 347.482 108.86C346.869 108.567 346.442 108.1 346.202 107.46C345.962 106.82 345.989 106.193 346.282 105.58C346.575 104.94 347.042 104.5 347.682 104.26C349.815 103.513 351.962 102.593 354.122 101.5C356.309 100.407 358.389 99.22 360.362 97.94C362.362 96.6333 364.175 95.3 365.802 93.94C367.455 92.5533 368.802 91.22 369.842 89.94C370.295 89.4067 370.855 89.1 371.522 89.02C372.215 88.94 372.815 89.1267 373.322 89.58C373.855 90.0067 374.162 90.5667 374.242 91.26C374.322 91.9267 374.135 92.5267 373.682 93.06C372.589 94.3933 371.135 95.82 369.322 97.34C367.509 98.8333 365.482 100.313 363.242 101.78C361.002 103.247 358.695 104.607 356.322 105.86C353.949 107.113 351.642 108.14 349.402 108.94ZM352.842 93.18C351.829 92.3267 350.695 91.4467 349.442 90.54C348.189 89.6067 347.055 88.8467 346.042 88.26C345.455 87.8867 345.082 87.38 344.922 86.74C344.762 86.0733 344.855 85.4467 345.202 84.86C345.575 84.2733 346.082 83.9 346.722 83.74C347.389 83.5533 348.015 83.6467 348.602 84.02C349.322 84.4733 350.135 85.0333 351.042 85.7C351.975 86.34 352.869 86.98 353.722 87.62C354.602 88.26 355.322 88.8067 355.882 89.26C356.415 89.6867 356.722 90.2467 356.802 90.94C356.909 91.6067 356.749 92.2067 356.322 92.74C355.895 93.2733 355.335 93.5933 354.642 93.7C353.975 93.78 353.375 93.6067 352.842 93.18ZM407.722 112.3C404.149 112.807 401.135 112.993 398.682 112.86C396.229 112.753 394.255 112.393 392.762 111.78C391.295 111.167 390.229 110.353 389.562 109.34C388.895 108.3 388.562 107.127 388.562 105.82C388.562 103.82 389.362 101.953 390.962 100.22C392.589 98.4867 394.935 96.9667 398.002 95.66C397.575 95.1267 397.055 94.7667 396.442 94.58C395.109 94.18 393.789 94.3267 392.482 95.02C391.202 95.7133 389.949 96.7267 388.722 98.06C388.269 98.54 387.669 98.8067 386.922 98.86C386.202 98.8867 385.615 98.66 385.162 98.18C384.735 97.6733 384.535 97.0867 384.562 96.42C384.615 95.7533 384.895 95.2067 385.402 94.78C386.709 93.66 387.855 92.4467 388.842 91.14C389.855 89.8333 390.709 88.4867 391.402 87.1C390.255 87.1267 389.175 87.1533 388.162 87.18C387.175 87.18 386.322 87.1667 385.602 87.14C384.935 87.14 384.375 86.9133 383.922 86.46C383.469 85.98 383.242 85.4067 383.242 84.74C383.269 84.0733 383.522 83.5267 384.002 83.1C384.482 82.6733 385.055 82.4733 385.722 82.5C386.655 82.5267 387.775 82.54 389.082 82.54C390.415 82.5133 391.802 82.4867 393.242 82.46C393.375 81.9533 393.495 81.46 393.602 80.98C393.709 80.5 393.802 80.02 393.882 79.54C393.989 78.8733 394.282 78.34 394.762 77.94C395.242 77.5133 395.815 77.34 396.482 77.42C397.149 77.5 397.682 77.7933 398.082 78.3C398.482 78.8067 398.642 79.3933 398.562 80.06C398.535 80.4067 398.482 80.7667 398.402 81.14C398.322 81.5133 398.229 81.8867 398.122 82.26C399.135 82.2067 400.082 82.1533 400.962 82.1C401.842 82.02 402.629 81.9267 403.322 81.82C403.989 81.74 404.575 81.9 405.082 82.3C405.615 82.6733 405.922 83.1933 406.002 83.86C406.082 84.5267 405.909 85.1133 405.482 85.62C405.082 86.1267 404.562 86.4067 403.922 86.46C402.935 86.5667 401.802 86.66 400.522 86.74C399.242 86.82 397.909 86.8867 396.522 86.94C395.935 88.2467 395.295 89.4733 394.602 90.62C395.242 90.4867 395.855 90.4467 396.442 90.5C397.029 90.5267 397.589 90.62 398.122 90.78C398.922 90.9933 399.695 91.3667 400.442 91.9C401.215 92.4067 401.895 93.1267 402.482 94.06C403.789 93.6867 405.175 93.34 406.642 93.02C408.135 92.7 409.709 92.42 411.362 92.18C412.002 92.0733 412.589 92.22 413.122 92.62C413.655 92.9933 413.962 93.5133 414.042 94.18C414.149 94.8467 414.002 95.4333 413.602 95.94C413.202 96.4467 412.669 96.7533 412.002 96.86C410.455 97.0467 409.029 97.2733 407.722 97.54C406.415 97.78 405.202 98.0467 404.082 98.34C404.215 99.06 404.322 99.8467 404.402 100.7C404.482 101.553 404.522 102.473 404.522 103.46C404.522 104.127 404.282 104.7 403.802 105.18C403.349 105.633 402.789 105.86 402.122 105.86C401.455 105.86 400.895 105.633 400.442 105.18C399.989 104.7 399.762 104.127 399.762 103.46C399.762 102.1 399.682 100.887 399.522 99.82C397.335 100.727 395.749 101.7 394.762 102.74C393.802 103.753 393.322 104.74 393.322 105.7C393.322 106.42 393.749 107.007 394.602 107.46C395.455 107.913 396.882 108.167 398.882 108.22C400.882 108.273 403.615 108.073 407.082 107.62C407.722 107.54 408.309 107.7 408.842 108.1C409.375 108.473 409.682 108.993 409.762 109.66C409.842 110.3 409.682 110.873 409.282 111.38C408.882 111.887 408.362 112.193 407.722 112.3ZM438.602 111.46C438.122 111.007 437.869 110.447 437.842 109.78C437.815 109.113 438.029 108.54 438.482 108.06C439.575 106.967 440.589 105.66 441.522 104.14C442.455 102.593 443.269 100.98 443.962 99.3C441.775 98.74 439.682 98.34 437.682 98.1C436.695 100.18 435.575 101.913 434.322 103.3C433.069 104.687 431.735 105.647 430.322 106.18C428.989 106.713 427.682 106.9 426.402 106.74C425.122 106.553 424.055 106.033 423.202 105.18C422.375 104.327 421.962 103.127 421.962 101.58C421.962 100.113 422.402 98.78 423.282 97.58C424.162 96.38 425.522 95.42 427.362 94.7C429.229 93.9533 431.629 93.58 434.562 93.58C435.122 92.0067 435.642 90.1933 436.122 88.14C436.495 86.5933 436.429 85.5667 435.922 85.06C435.415 84.5267 434.429 84.3533 432.962 84.54C432.455 84.62 431.802 84.7133 431.002 84.82C430.202 84.9267 429.575 85.0067 429.122 85.06C428.455 85.0867 427.869 84.8867 427.362 84.46C426.855 84.0333 426.575 83.4867 426.522 82.82C426.495 82.1533 426.695 81.58 427.122 81.1C427.549 80.5933 428.095 80.3133 428.762 80.26C429.322 80.2067 430.015 80.14 430.842 80.06C431.669 79.98 432.349 79.9267 432.882 79.9C436.242 79.6867 438.549 80.2733 439.802 81.66C441.082 83.0467 441.415 85.34 440.802 88.54C440.615 89.5 440.402 90.4333 440.162 91.34C439.922 92.22 439.669 93.0733 439.402 93.9C440.362 94.0067 441.349 94.1667 442.362 94.38C443.375 94.5667 444.375 94.78 445.362 95.02C445.575 94.1133 445.749 93.2333 445.882 92.38C446.015 91.5 446.095 90.66 446.122 89.86C446.149 89.1933 446.375 88.6333 446.802 88.18C447.255 87.7 447.815 87.4467 448.482 87.42C449.149 87.42 449.709 87.66 450.162 88.14C450.642 88.5933 450.869 89.1533 450.842 89.82C450.815 90.86 450.709 91.9267 450.522 93.02C450.362 94.0867 450.135 95.1667 449.842 96.26C450.669 96.5267 451.469 96.8067 452.242 97.1C453.042 97.3667 453.815 97.6467 454.562 97.94C455.175 98.2067 455.602 98.6467 455.842 99.26C456.109 99.8733 456.109 100.487 455.842 101.1C455.602 101.687 455.175 102.113 454.562 102.38C453.949 102.647 453.335 102.647 452.722 102.38C452.029 102.06 451.322 101.767 450.602 101.5C449.882 101.207 449.162 100.927 448.442 100.66C447.615 102.793 446.642 104.793 445.522 106.66C444.429 108.527 443.255 110.087 442.002 111.34C441.549 111.793 440.989 112.033 440.322 112.06C439.682 112.087 439.109 111.887 438.602 111.46ZM428.642 101.98C429.282 101.713 429.935 101.26 430.602 100.62C431.269 99.98 431.922 99.1 432.562 97.98C430.455 98.1667 428.949 98.5667 428.042 99.18C427.162 99.7933 426.709 100.473 426.682 101.22C426.682 101.647 426.842 101.953 427.162 102.14C427.509 102.3 428.002 102.247 428.642 101.98ZM478.802 112.22C476.375 112.167 474.455 111.58 473.042 110.46C471.655 109.34 470.989 107.807 471.042 105.86C471.095 104.713 471.415 103.713 472.002 102.86C472.615 102.007 473.442 101.367 474.482 100.94C475.522 100.487 476.709 100.327 478.042 100.46C480.175 100.647 481.669 101.38 482.522 102.66C483.375 103.913 483.629 105.353 483.282 106.98C484.215 106.527 484.975 105.873 485.562 105.02C486.175 104.14 486.482 103.007 486.482 101.62C486.482 100.58 486.175 99.6467 485.562 98.82C484.975 97.9667 484.135 97.3133 483.042 96.86C481.975 96.38 480.735 96.18 479.322 96.26C477.909 96.34 476.389 96.7667 474.762 97.54C473.135 98.2867 471.469 99.4867 469.762 101.14C469.282 101.593 468.682 101.82 467.962 101.82C467.242 101.793 466.655 101.513 466.202 100.98C465.775 100.473 465.575 99.9 465.602 99.26C465.655 98.5933 465.935 98.0733 466.442 97.7C468.095 96.4467 469.749 95.1267 471.402 93.74C473.055 92.3267 474.629 90.94 476.122 89.58C477.642 88.22 478.975 86.98 480.122 85.86C480.842 85.1667 481.082 84.5933 480.842 84.14C480.629 83.6867 480.055 83.5267 479.122 83.66C478.215 83.7667 477.175 83.9 476.002 84.06C474.855 84.22 473.775 84.3667 472.762 84.5C472.122 84.6067 471.535 84.46 471.002 84.06C470.469 83.66 470.162 83.1267 470.082 82.46C469.975 81.82 470.122 81.2467 470.522 80.74C470.922 80.2067 471.455 79.8867 472.122 79.78C472.709 79.7 473.442 79.62 474.322 79.54C475.229 79.46 476.149 79.38 477.082 79.3C478.042 79.22 478.855 79.1533 479.522 79.1C481.255 78.9667 482.669 79.1933 483.762 79.78C484.855 80.3667 485.602 81.1667 486.002 82.18C486.402 83.1667 486.415 84.2467 486.042 85.42C485.695 86.5933 484.935 87.7 483.762 88.74C483.229 89.1933 482.549 89.78 481.722 90.5C480.922 91.22 480.095 91.9533 479.242 92.7C480.762 92.4067 482.242 92.3933 483.682 92.66C485.122 92.9 486.402 93.4067 487.522 94.18C488.669 94.9533 489.575 95.98 490.242 97.26C490.909 98.5133 491.242 99.9933 491.242 101.7C491.242 104.127 490.709 106.14 489.642 107.74C488.575 109.313 487.109 110.46 485.242 111.18C483.375 111.927 481.229 112.273 478.802 112.22ZM478.082 107.78C478.135 107.78 478.215 107.78 478.322 107.78C478.402 107.78 478.495 107.793 478.602 107.82C478.735 107.82 478.882 107.807 479.042 107.78C479.415 106.9 479.482 106.167 479.242 105.58C479.002 104.993 478.522 104.647 477.802 104.54C477.162 104.46 476.629 104.553 476.202 104.82C475.802 105.06 475.575 105.46 475.522 106.02C475.495 107.087 476.349 107.673 478.082 107.78Z" fill="white"/>
<path d="M92.5 105.34H107.9C109.22 105.34 109.9 106.38 109.9 107.74C109.9 109.1 109.22 110.3 107.9 110.3H89.1C87.26 110.3 86.3 109.18 86.3 107.18C86.3 105.7 87.26 103.66 88.06 102.34C89.38 100.06 91.54 97.58 95.38 95.02L97.82 93.38C101.66 90.82 103.7 89.42 103.7 86.46C103.7 83.74 101.54 82.18 98.3 82.18C94.34 82.18 92.98 84.38 92.26 86.9C91.94 88.06 90.98 88.58 89.9 88.58C89.58 88.58 89.26 88.54 88.94 88.46C87.66 88.18 86.74 87.42 86.74 86.18C86.74 85.94 86.78 85.66 86.86 85.34C87.26 83.7 88.18 82.02 89.38 80.82C91.38 78.7 94.1 77.5 98.46 77.5C105.22 77.5 109.26 80.82 109.26 86.46C109.26 91.46 106.42 93.74 102.34 96.26L99.98 97.7C95.9 100.22 93.54 102.46 92.5 105.34ZM130.685 83.18H115.485C114.125 83.18 113.365 82.06 113.365 80.66C113.365 79.3 114.125 78.14 115.485 78.14H134.525C136.365 78.14 137.245 79.14 137.245 80.78C137.245 82.86 136.645 83.46 135.685 84.78C131.325 90.78 127.845 99.14 126.165 108.18C125.805 110.06 124.685 110.58 123.005 110.58C121.365 110.58 120.085 109.74 120.085 108.22C120.085 108.02 120.125 107.82 120.165 107.58C121.805 99.66 125.205 91.06 130.685 83.18Z" fill="white"/>
<path d="M562.5 101.063H511C509.667 101.063 508.5 99.9237 508.5 98.6213C508.5 97.319 509.667 96.1795 511 96.1795H556.667L547.5 86.5748C546.5 85.5981 546.667 83.9702 547.667 83.1562C548.667 82.1795 550.333 82.3423 551.167 83.319L564.333 96.9934C565 97.6446 565.167 98.7841 564.833 99.5981C564.333 100.575 563.5 101.063 562.5 101.063Z" fill="white"/>
</g>
<defs>
<clipPath id="clip0_420_1491">
<rect width="600" height="140" fill="white" transform="translate(0.5 0.5)"/>
</clipPath>
</defs>
</svg>
