<svg width="410" height="100" viewBox="0 0 410 100" fill="none" xmlns="http://www.w3.org/2000/svg">
<g clip-path="url(#clip0_109_57)">
<path d="M402.1 7.9C402.1 3.6 398.6 0 394.2 0H15.7C11.4 0 7.8 3.5 7.8 7.9C3.5 7.9 0 11.4 0 15.7V84.3C0 88.6 3.5 92.2 7.9 92.2C7.9 96.5 11.4 100.1 15.8 100.1H394.4C398.7 100.1 402.3 96.6 402.3 92.2C406.6 92.2 410.2 88.7 410.2 84.3V15.7C410 11.4 406.5 7.9 402.1 7.9Z" fill="#EDB421"/>
<path d="M394.3 94.9002H15.7C14.2 94.9002 13 93.6002 13 92.2002V87.0002H7.7C6.2 87.0002 5 85.7002 5 84.3002V15.7002C5 14.2002 6.3 13.0002 7.7 13.0002H13V7.9002C13 6.4002 14.3 5.2002 15.7 5.2002H394.3C395.8 5.2002 397 6.5002 397 7.9002V13.1002H402.2C403.7 13.1002 404.9 14.4002 404.9 15.8002V84.4002C404.9 85.9002 403.6 87.1002 402.2 87.1002H397V92.3002C396.9 93.7002 395.8 94.9002 394.3 94.9002ZM7.7 14.5002C7 14.5002 6.3 15.1002 6.3 15.9002V84.5002C6.3 85.2002 6.9 85.9002 7.7 85.9002H13.6C13.9 85.9002 14.3 86.2002 14.3 86.6002V92.5002C14.3 93.2002 14.9 93.9002 15.7 93.9002H394.3C395 93.9002 395.7 93.3002 395.7 92.5002V86.6002C395.7 86.3002 396 85.9002 396.4 85.9002H402.3C403 85.9002 403.7 85.3002 403.7 84.5002V15.7002C403.7 15.0002 403.1 14.3002 402.3 14.3002H396.4C396.1 14.3002 395.7 14.0002 395.7 13.6002V7.9002C395.7 7.2002 395.1 6.5002 394.3 6.5002H15.7C15 6.5002 14.3 7.1002 14.3 7.9002V13.8002C14.3 14.1002 14 14.5002 13.6 14.5002H7.7Z" fill="white"/>
<path d="M117.6 43.5004C117.2 43.5004 116.9 43.4004 116.6 43.2004C116.3 43.0004 116.2 42.7004 116.1 42.3004C116.1 41.9004 116.2 41.6004 116.4 41.4004C116.6 41.1004 116.9 41.0004 117.3 40.9004C117.7 40.9004 118 40.8004 118.1 40.7004C118.2 40.6004 118.3 40.4004 118.3 40.0004V36.1004C118.1 36.2004 117.9 36.2004 117.7 36.3004C117.5 36.4004 117.3 36.4004 117.1 36.5004C116.7 36.6004 116.3 36.6004 116 36.5004C115.7 36.3004 115.5 36.1004 115.4 35.7004C115.3 35.3004 115.3 35.0004 115.5 34.7004C115.7 34.4004 115.9 34.2004 116.3 34.1004C116.6 34.0004 116.9 33.9004 117.2 33.8004C117.5 33.7004 117.9 33.6004 118.2 33.5004V29.7004H116.4C116.1 29.7004 115.8 29.6004 115.6 29.4004C115.4 29.2004 115.3 28.9004 115.3 28.6004C115.3 28.3004 115.4 28.0004 115.6 27.8004C115.8 27.6004 116.1 27.5004 116.4 27.5004H118.2V24.3004C118.2 23.9004 118.3 23.6004 118.6 23.4004C118.8 23.2004 119.1 23.1004 119.5 23.1004C119.9 23.1004 120.1 23.2004 120.3 23.4004C120.5 23.6004 120.6 23.9004 120.6 24.3004V27.5004H121.8C122.1 27.5004 122.4 27.6004 122.6 27.8004C122.8 28.0004 122.9 28.3004 122.9 28.6004C122.9 28.3004 123 28.1004 123.3 28.0004C123.5 27.8004 123.8 27.7004 124.1 27.7004C124.2 27.7004 124.4 27.7004 124.5 27.7004C124.7 27.7004 124.8 27.7004 125 27.7004C125.1 27.4004 125.3 26.9004 125.5 26.4004C125.7 25.9004 125.9 25.4004 126.1 24.9004C126.3 24.4004 126.4 24.1004 126.5 23.8004C126.6 23.4004 126.8 23.2004 127.2 23.1004C127.6 23.0004 127.9 23.0004 128.2 23.1004C128.5 23.2004 128.8 23.4004 128.9 23.7004C129 24.0004 129 24.3004 128.9 24.6004C128.8 24.9004 128.6 25.4004 128.3 25.9004C128 26.4004 127.8 26.9004 127.6 27.4004C128.2 27.4004 128.8 27.3004 129.4 27.3004C130 27.2004 130.5 27.2004 131 27.2004C130.9 27.0004 130.7 26.9004 130.6 26.7004C130.5 26.6004 130.4 26.4004 130.3 26.3004C130.1 26.1004 130 25.8004 130.1 25.5004C130.2 25.2004 130.3 25.0004 130.5 24.8004C130.7 24.6004 131 24.5004 131.3 24.5004C131.6 24.5004 131.9 24.6004 132.1 24.9004C132.4 25.2004 132.7 25.6004 133.1 26.0004C133.5 26.4004 133.8 26.9004 134.2 27.3004C134.6 27.7004 134.8 28.1004 135 28.4004C135.2 28.7004 135.3 29.0004 135.2 29.3004C135.1 29.6004 135 29.9004 134.7 30.1004C134.4 30.3004 134.1 30.4004 133.8 30.3004C133.5 30.2004 133.2 30.1004 133 29.8004C132.9 29.7004 132.8 29.6004 132.8 29.4004C132.7 29.3004 132.6 29.1004 132.5 29.0004C131.8 29.1004 130.9 29.2004 130 29.3004C129 29.4004 128 29.5004 127.1 29.6004C127.4 29.9004 127.4 30.3004 127.3 30.7004C127.3 30.8004 127.3 30.9004 127.2 30.9004C127.2 31.0004 127.1 31.1004 127.1 31.2004H133.6C133.9 31.2004 134.2 31.3004 134.4 31.5004C134.6 31.7004 134.7 32.0004 134.7 32.3004C134.7 32.6004 134.6 32.9004 134.4 33.1004C134.2 33.3004 133.9 33.4004 133.6 33.4004H130.3V34.3004C130.3 34.7004 130.3 35.1004 130.2 35.5004H134.7C135 35.5004 135.3 35.6004 135.5 35.8004C135.7 36.0004 135.8 36.3004 135.8 36.6004C135.8 36.9004 135.7 37.2004 135.5 37.4004C135.3 37.6004 135 37.7004 134.7 37.7004H131.1C131.6 38.4004 132.3 39.0004 133 39.5004C133.7 40.0004 134.5 40.5004 135.3 40.9004C135.6 41.0004 135.8 41.3004 136 41.6004C136.1 41.9004 136.1 42.2004 135.9 42.6004C135.7 43.0004 135.4 43.2004 135.1 43.2004C134.8 43.2004 134.3 43.2004 134 43.0004C133.2 42.6004 132.3 42.0004 131.5 41.3004C130.6 40.6004 129.9 39.8004 129.3 38.9004C128.2 40.9004 126.4 42.3004 123.8 43.1004C123.4 43.2004 123.1 43.2004 122.7 43.1004C122.3 43.0004 122.1 42.8004 122 42.4004C121.9 42.1004 121.9 41.7004 122 41.4004C122.1 41.1004 122.4 40.9004 122.8 40.7004C123.8 40.4004 124.7 39.9004 125.4 39.4004C126.1 38.9004 126.6 38.3004 127 37.5004H123.5C123.2 37.5004 122.9 37.4004 122.7 37.2004C122.5 37.0004 122.4 36.7004 122.4 36.4004C122.4 36.1004 122.5 35.8004 122.7 35.6004C122.9 35.4004 123.2 35.3004 123.5 35.3004H127.7C127.7 35.1004 127.8 34.9004 127.8 34.7004C127.8 34.5004 127.8 34.3004 127.8 34.1004V33.2004H126C125.7 33.8004 125.4 34.3004 125.1 34.7004C124.9 35.0004 124.6 35.2004 124.3 35.2004C124 35.3004 123.7 35.2004 123.4 35.1004C123 34.9004 122.8 34.5004 122.9 34.1004C122.8 34.1004 122.8 34.2004 122.7 34.2004C122.6 34.2004 122.6 34.3004 122.5 34.3004C122.3 34.4004 122 34.5004 121.8 34.6004C121.5 34.7004 121.2 34.8004 120.9 35.0004V40.2004C120.9 41.2004 120.6 42.0004 120.1 42.5004C119.5 43.2004 118.7 43.4004 117.6 43.5004ZM123.3 33.4004C123.5 33.1004 123.7 32.7004 124 32.3004C124.2 31.9004 124.5 31.5004 124.7 31.0004C124.9 30.6004 125.1 30.2004 125.2 29.9004V29.8004L124.6 29.9004C124.2 29.9004 123.9 29.8004 123.6 29.7004C123.3 29.6004 123.2 29.2004 123.2 28.9004V28.7004C123.2 29.0004 123 29.2004 122.8 29.4004C122.6 29.6004 122.3 29.7004 122 29.7004H120.8V32.7004C121 32.6004 121.1 32.6004 121.3 32.5004C121.4 32.5004 121.6 32.4004 121.7 32.4004C122.1 32.3004 122.4 32.3004 122.7 32.4004C123 32.5004 123.2 32.7004 123.3 33.1004V33.4004Z" fill="white"/>
<path d="M140.3 43.4008C139.9 43.4008 139.5 43.3008 139.3 43.1008C139 42.9008 138.9 42.6008 138.8 42.1008C138.8 41.8008 138.9 41.5008 139.1 41.2008C139.3 40.9008 139.6 40.8008 140.1 40.7008C140.5 40.7008 140.8 40.6008 140.9 40.5008C141 40.4008 141.1 40.2008 141.1 39.8008V36.3008C140.7 36.4008 140.3 36.6008 140 36.7008C139.6 36.8008 139.2 36.8008 138.9 36.7008C138.6 36.6008 138.3 36.3008 138.2 35.9008C138.1 35.6008 138.1 35.2008 138.3 34.9008C138.4 34.6008 138.7 34.4008 139.1 34.2008C139.7 34.0008 140.3 33.8008 141.1 33.6008V29.7008H139.4C139.1 29.7008 138.8 29.6008 138.6 29.3008C138.4 29.1008 138.2 28.8008 138.2 28.5008C138.2 28.2008 138.3 27.9008 138.6 27.7008C138.8 27.5008 139.1 27.4008 139.4 27.4008H141.1V24.3008C141.1 23.9008 141.2 23.6008 141.5 23.4008C141.7 23.2008 142 23.1008 142.3 23.1008C142.6 23.1008 142.9 23.2008 143.2 23.4008C143.4 23.6008 143.6 23.9008 143.6 24.3008V27.4008H144.8C145.1 27.4008 145.4 27.5008 145.6 27.7008C145.8 27.9008 145.9 28.2008 145.9 28.5008C145.9 28.8008 145.8 29.1008 145.6 29.3008C145.4 29.5008 145.1 29.7008 144.8 29.7008H143.6V32.8008C143.8 32.7008 144.1 32.6008 144.3 32.6008C144.5 32.6008 144.7 32.5008 144.9 32.4008C145.3 32.3008 145.6 32.3008 145.9 32.4008C146.2 32.5008 146.4 32.7008 146.5 33.1008C146.6 33.4008 146.6 33.7008 146.5 34.0008C146.4 34.3008 146.1 34.5008 145.8 34.7008C145.6 34.8008 145.3 34.9008 144.9 35.1008C144.5 35.2008 144.2 35.4008 143.8 35.5008V40.3008C143.8 41.4008 143.5 42.2008 143 42.8008C142.5 43.4008 141.3 43.4008 140.3 43.4008ZM146.7 43.3008C146.3 43.4008 145.9 43.4008 145.6 43.3008C145.3 43.2008 145.1 42.9008 145 42.6008C144.9 42.3008 144.9 42.0008 145.1 41.7008C145.3 41.4008 145.6 41.2008 145.9 41.1008C146.8 40.9008 147.6 40.6008 148.3 40.4008C149 40.1008 149.7 39.8008 150.3 39.4008C150.1 39.2008 149.8 39.0008 149.6 38.8008C149.4 38.6008 149.1 38.4008 148.9 38.3008C148.7 38.1008 148.5 37.8008 148.5 37.4008C148.5 37.1008 148.6 36.8008 148.9 36.6008C149.1 36.4008 149.4 36.3008 149.8 36.3008C150.1 36.3008 150.4 36.4008 150.6 36.6008C150.8 36.8008 151.1 37.0008 151.4 37.3008C151.7 37.6008 152 37.9008 152.3 38.1008C153 37.5008 153.5 36.8008 154.1 36.1008C154.3 35.8008 154.4 35.5008 154.3 35.3008C154.2 35.1008 153.9 35.0008 153.5 35.0008H150.2C149.7 35.6008 149.2 36.2008 148.7 36.7008C148.2 37.2008 147.6 37.7008 147 38.2008C146.7 38.4008 146.4 38.5008 146.1 38.5008C145.7 38.5008 145.5 38.4008 145.2 38.1008C145 37.8008 144.9 37.5008 144.9 37.2008C144.9 36.9008 145.1 36.6008 145.4 36.4008C146.2 35.8008 146.9 35.1008 147.7 34.2008C148.5 33.3008 149.1 32.5008 149.6 31.6008C149.6 31.6008 149.5 31.7008 149.4 31.8008C149.1 32.0008 148.8 32.0008 148.5 32.0008C148.1 31.9008 147.9 31.8008 147.7 31.5008C147.6 31.3008 147.4 30.9008 147.2 30.6008C147 30.3008 146.8 29.9008 146.7 29.6008C146.5 29.2008 146.3 28.8008 146.2 28.4008C146.1 28.1008 146.1 27.7008 146.2 27.3008C146.3 26.9008 146.4 26.5008 146.6 26.0008C146.7 25.7008 146.9 25.3008 147.1 24.9008C147.3 24.5008 147.5 24.1008 147.6 23.8008C147.7 23.5008 147.9 23.3008 148.3 23.2008C148.7 23.1008 149 23.1008 149.3 23.2008C149.6 23.3008 149.8 23.6008 149.9 23.9008C150 24.2008 150 24.5008 149.8 24.8008C149.7 25.1008 149.5 25.4008 149.3 25.8008C149.1 26.2008 148.9 26.5008 148.7 26.8008C148.5 27.1008 148.5 27.4008 148.5 27.6008C148.5 27.8008 148.6 28.1008 148.8 28.4008C149 28.6008 149.1 28.9008 149.4 29.2008C149.6 29.5008 149.8 29.8008 149.9 30.0008C150.1 30.3008 150.2 30.7008 150.1 31.1008C150.3 30.9008 150.5 30.8008 150.8 30.7008C151.1 30.7008 151.4 30.7008 151.6 30.9008C151.7 30.9008 151.7 31.0008 151.7 31.0008L151.8 31.1008C151.7 30.8008 151.5 30.5008 151.3 30.2008C151.1 29.8008 150.9 29.5008 150.7 29.3008C150.3 28.7008 150.1 28.1008 150.1 27.7008C150.1 27.2008 150.2 26.6008 150.6 25.9008C150.8 25.6008 150.9 25.3008 151.1 24.8008C151.3 24.4008 151.5 24.0008 151.6 23.7008C151.7 23.4008 152 23.2008 152.3 23.1008C152.6 23.0008 152.9 23.0008 153.2 23.2008C153.5 23.3008 153.7 23.6008 153.8 23.9008C153.9 24.2008 153.9 24.5008 153.7 24.8008C153.6 25.1008 153.4 25.4008 153.2 25.7008C153 26.0008 152.9 26.4008 152.7 26.6008C152.5 26.9008 152.4 27.2008 152.4 27.4008C152.4 27.6008 152.5 27.9008 152.8 28.2008C153 28.4008 153.2 28.7008 153.4 29.1008C153.6 29.5008 153.8 29.7008 154 29.9008C154.2 30.2008 154.2 30.5008 154.2 30.8008C154.1 31.1008 154 31.4008 153.7 31.6008C153.5 31.8008 153.2 31.8008 152.9 31.8008C152.6 31.8008 152.3 31.6008 152.1 31.4008C152.3 31.7008 152.2 32.1008 152 32.5008C152 32.6008 151.9 32.6008 151.9 32.7008C151.9 32.8008 151.8 32.8008 151.8 32.8008H154.3C155.3 32.8008 156 33.0008 156.4 33.3008C156.9 33.7008 157.1 34.1008 157.1 34.7008C157.1 35.3008 156.9 35.9008 156.5 36.6008C155.4 38.2008 154.1 39.6008 152.6 40.7008C150.9 41.9008 149 42.7008 146.7 43.3008ZM157.5 31.5008C157.2 31.7008 156.9 31.7008 156.6 31.7008C156.2 31.6008 156 31.5008 155.8 31.2008C155.7 30.9008 155.5 30.6008 155.2 30.2008C155 29.8008 154.7 29.5008 154.6 29.2008C154.2 28.6008 154 28.1008 153.9 27.6008C153.9 27.1008 154 26.6008 154.4 25.9008C154.6 25.6008 154.7 25.3008 154.9 24.9008C155.1 24.5008 155.3 24.2008 155.4 23.8008C155.5 23.5008 155.8 23.3008 156.1 23.2008C156.4 23.1008 156.7 23.1008 157 23.3008C157.3 23.4008 157.5 23.7008 157.6 24.0008C157.7 24.3008 157.7 24.6008 157.5 24.9008C157.4 25.2008 157.2 25.5008 157 25.8008C156.8 26.1008 156.7 26.4008 156.5 26.6008C156.3 27.0008 156.2 27.2008 156.2 27.4008C156.2 27.6008 156.3 27.8008 156.6 28.2008C156.8 28.4008 157 28.7008 157.2 29.0008C157.5 29.4008 157.7 29.7008 157.8 29.9008C158 30.2008 158 30.5008 158 30.8008C158 31.1008 157.8 31.3008 157.5 31.5008Z" fill="white"/>
<path d="M166 43.4004C165.7 43.4004 165.4 43.3004 165.1 43.1004C164.9 42.9004 164.7 42.6004 164.7 42.2004V36.6004C164.3 36.9004 163.9 37.3004 163.4 37.6004C162.9 37.9004 162.6 38.2004 162.3 38.4004C162 38.6004 161.6 38.7004 161.3 38.6004C160.9 38.5004 160.6 38.3004 160.4 38.0004C160.2 37.7004 160.2 37.4004 160.3 37.0004C160.4 36.7004 160.6 36.4004 160.9 36.2004C161.1 36.1004 161.4 35.9004 161.7 35.7004C162 35.5004 162.4 35.2004 162.8 34.9004C163.2 34.6004 163.5 34.4004 163.9 34.1004C164.2 33.8004 164.5 33.6004 164.7 33.5004V30.7004C164.6 30.9004 164.4 31.2004 164.1 31.3004C163.8 31.5004 163.4 31.5004 163.1 31.4004C162.7 31.3004 162.5 31.1004 162.3 30.8004C162.2 30.6004 162.1 30.3004 161.9 30.0004C161.7 29.7004 161.5 29.3004 161.3 29.0004C161.1 28.7004 161 28.4004 160.9 28.2004C160.7 27.9004 160.7 27.6004 160.8 27.3004C160.9 27.0004 161.1 26.7004 161.5 26.5004C161.9 26.3004 162.2 26.3004 162.5 26.4004C162.8 26.5004 163.1 26.7004 163.3 27.0004C163.4 27.2004 163.6 27.5004 163.8 27.8004C164 28.2004 164.2 28.5004 164.4 28.8004C164.6 29.1004 164.7 29.4004 164.8 29.6004L164.9 29.8004V24.6004C164.9 24.2004 165 23.9004 165.3 23.7004C165.5 23.5004 165.8 23.4004 166.2 23.4004C166.5 23.4004 166.8 23.5004 167.1 23.7004C167.3 23.9004 167.5 24.2004 167.5 24.6004V42.3004C167.5 42.7004 167.4 43.0004 167.1 43.2004C166.7 43.3004 166.4 43.4004 166 43.4004ZM178.9 42.6004C177.7 41.7004 176.8 40.8004 176 39.7004C175.2 38.6004 174.6 37.5004 174.1 36.3004C173.7 37.5004 173.1 38.6004 172.4 39.7004C171.7 40.8004 170.8 41.7004 169.7 42.6004C169.4 42.8004 169.1 42.9004 168.7 42.9004C168.3 42.9004 168 42.7004 167.8 42.4004C167.6 42.1004 167.5 41.8004 167.6 41.5004C167.7 41.2004 167.8 40.9004 168.1 40.7004C170.9 38.7004 172.4 35.9004 172.7 32.1004H169C168.7 32.1004 168.4 32.0004 168.2 31.7004C168 31.5004 167.8 31.2004 167.8 30.9004C167.8 30.6004 167.9 30.3004 168.2 30.0004C168.4 29.8004 168.7 29.6004 169 29.6004H172.8V24.6004C172.8 24.2004 172.9 23.9004 173.2 23.7004C173.5 23.5004 173.8 23.4004 174.1 23.4004C174.5 23.4004 174.7 23.5004 175 23.7004C175.3 23.9004 175.4 24.2004 175.4 24.6004V29.6004H179.8C180.1 29.6004 180.4 29.7004 180.7 30.0004C180.9 30.2004 181.1 30.5004 181.1 30.9004C181.1 31.2004 181 31.5004 180.7 31.7004C180.5 31.9004 180.2 32.1004 179.8 32.1004H175.5C175.7 34.0004 176.3 35.6004 177.2 37.0004C178.1 38.4004 179.3 39.6004 180.8 40.6004C181.1 40.8004 181.3 41.1004 181.3 41.4004C181.3 41.8004 181.2 42.1004 181 42.3004C180.8 42.6004 180.4 42.8004 180.1 42.8004C179.6 42.9004 179.2 42.8004 178.9 42.6004ZM179.9 28.4004C179.7 28.6004 179.4 28.7004 179 28.7004C178.7 28.7004 178.4 28.5004 178.2 28.3004C178.1 28.2004 177.9 28.0004 177.7 27.7004C177.5 27.5004 177.3 27.2004 177.1 27.0004C176.9 26.8004 176.7 26.6004 176.6 26.4004C176.4 26.2004 176.3 25.9004 176.3 25.6004C176.3 25.3004 176.5 25.0004 176.7 24.9004C176.9 24.7004 177.2 24.6004 177.5 24.6004C177.8 24.6004 178.1 24.7004 178.3 25.0004C178.4 25.1004 178.6 25.3004 178.8 25.5004C179 25.7004 179.2 26.0004 179.4 26.2004C179.6 26.4004 179.8 26.6004 179.9 26.7004C180.2 27.0004 180.3 27.3004 180.3 27.6004C180.3 27.8004 180.2 28.1004 179.9 28.4004Z" fill="white"/>
<path d="M192 42.5006C191.6 42.5006 191.3 42.4006 191.1 42.1006C190.8 41.8006 190.7 41.5006 190.7 41.1006V26.0006C190.7 25.6006 190.8 25.3006 191.1 25.0006C191.4 24.7006 191.7 24.6006 192 24.6006C192.4 24.6006 192.7 24.7006 193 25.0006C193.3 25.3006 193.4 25.6006 193.4 26.0006V31.3006C193.6 31.0006 193.9 30.8006 194.2 30.7006C194.5 30.6006 194.9 30.6006 195.2 30.8006C196.1 31.3006 196.9 31.8006 197.9 32.4006C198.8 33.0006 199.6 33.5006 200.2 34.1006C200.5 34.3006 200.7 34.6006 200.7 35.0006C200.7 35.4006 200.6 35.7006 200.4 36.0006C200.2 36.3006 199.9 36.4006 199.5 36.5006C199.1 36.5006 198.8 36.4006 198.5 36.2006C198.1 35.9006 197.6 35.5006 197.1 35.2006C196.6 34.8006 196 34.5006 195.5 34.1006C195 33.8006 194.5 33.5006 194 33.2006C193.8 33.1006 193.6 32.9006 193.5 32.7006V41.1006C193.5 41.5006 193.4 41.8006 193.1 42.1006C192.8 42.4006 192.4 42.5006 192 42.5006ZM200.6 30.2006C200.4 30.4006 200.2 30.4006 199.9 30.4006C199.6 30.4006 199.4 30.2006 199.3 30.0006C199.2 29.8006 199 29.5006 198.7 29.2006C198.4 28.9006 198.2 28.6006 198 28.4006C197.9 28.2006 197.8 28.0006 197.8 27.8006C197.8 27.6006 197.9 27.4006 198.1 27.2006C198.3 27.0006 198.5 27.0006 198.7 27.0006C198.9 27.0006 199.1 27.1006 199.3 27.3006C199.5 27.5006 199.8 27.7006 200 28.1006C200.3 28.4006 200.5 28.7006 200.7 28.9006C200.9 29.1006 200.9 29.4006 200.9 29.6006C200.9 29.8006 200.8 30.0006 200.6 30.2006ZM202.7 28.3006C202.5 28.5006 202.3 28.6006 202 28.6006C201.7 28.6006 201.5 28.5006 201.4 28.3006C201.2 28.1006 201 27.8006 200.7 27.6006C200.4 27.3006 200.2 27.0006 200 26.8006C199.9 26.6006 199.8 26.4006 199.8 26.2006C199.8 26.0006 199.9 25.8006 200.1 25.6006C200.3 25.4006 200.5 25.4006 200.7 25.3006C200.9 25.3006 201.1 25.4006 201.3 25.5006C201.5 25.7006 201.8 25.9006 202.1 26.2006C202.4 26.5006 202.7 26.8006 202.9 27.0006C203.1 27.2006 203.1 27.4006 203.1 27.7006C203 27.9006 202.9 28.1006 202.7 28.3006Z" fill="white"/>
<path d="M212.8 36.1003C212.5 36.2003 212.2 36.2003 211.9 36.1003C211.6 36.0003 211.4 35.8003 211.2 35.5003C211 35.0003 210.7 34.5003 210.5 34.1003C210.3 33.7003 210 33.2003 209.8 32.9003C209.6 32.6003 209.5 32.3003 209.6 32.0003C209.7 31.7003 209.8 31.4003 210.1 31.2003C210.4 31.0003 210.7 30.9003 211 31.0003C211.3 31.1003 211.6 31.2003 211.8 31.5003C212.1 31.9003 212.4 32.4003 212.7 33.0003C213 33.6003 213.3 34.1003 213.5 34.6003C213.6 34.9003 213.7 35.2003 213.5 35.5003C213.3 35.8003 213.1 36.0003 212.8 36.1003ZM213.5 42.5003C213.2 42.6003 212.9 42.6003 212.6 42.5003C212.3 42.4003 212.1 42.2003 211.9 41.9003C211.8 41.6003 211.8 41.3003 211.9 41.0003C212 40.7003 212.2 40.5003 212.5 40.3003C214 39.6003 215.2 38.9003 216.2 38.0003C217.2 37.1003 217.9 36.2003 218.5 35.0003C219 33.9003 219.4 32.6003 219.6 31.1003C219.6 30.8003 219.8 30.5003 220.1 30.3003C220.4 30.1003 220.7 30.0003 221 30.1003C221.3 30.1003 221.6 30.3003 221.8 30.6003C222 30.9003 222.1 31.2003 222 31.5003C221.6 34.0003 220.7 36.2003 219.4 38.0003C218.1 39.8003 216 41.3003 213.5 42.5003ZM216.4 35.3003C216.1 35.4003 215.8 35.4003 215.5 35.2003C215.2 35.0003 215 34.8003 214.9 34.5003C214.7 34.1003 214.5 33.6003 214.3 33.0003C214.1 32.5003 213.9 32.0003 213.7 31.7003C213.6 31.4003 213.5 31.1003 213.6 30.8003C213.7 30.5003 213.8 30.2003 214.1 30.1003C214.4 29.9003 214.7 29.9003 215 30.0003C215.3 30.1003 215.6 30.3003 215.7 30.6003C215.9 31.0003 216.2 31.5003 216.4 32.1003C216.7 32.7003 216.9 33.3003 217.1 33.8003C217.2 34.1003 217.2 34.4003 217 34.7003C217 35.0003 216.7 35.2003 216.4 35.3003Z" fill="white"/>
<path d="M237.1 42.5006C236.7 42.5006 236.4 42.4006 236.2 42.1006C235.9 41.8006 235.8 41.5006 235.8 41.2006V26.0006C235.8 25.6006 235.9 25.3006 236.2 25.0006C236.5 24.7006 236.8 24.6006 237.1 24.6006C237.5 24.6006 237.8 24.7006 238.1 25.0006C238.4 25.3006 238.5 25.6006 238.5 26.0006V31.3006C238.7 31.0006 239 30.8006 239.3 30.7006C239.6 30.6006 240 30.6006 240.3 30.8006C241.2 31.3006 242 31.8006 243 32.4006C243.9 33.0006 244.7 33.6006 245.3 34.1006C245.6 34.3006 245.8 34.6006 245.8 35.0006C245.8 35.4006 245.7 35.7006 245.5 36.0006C245.3 36.3006 245 36.4006 244.6 36.5006C244.2 36.5006 243.9 36.4006 243.6 36.2006C243.2 35.9006 242.7 35.5006 242.2 35.2006C241.7 34.8006 241.1 34.5006 240.6 34.1006C240.1 33.8006 239.6 33.5006 239.1 33.2006C238.9 33.1006 238.7 32.9006 238.6 32.7006V41.1006C238.6 41.5006 238.5 41.8006 238.2 42.0006C237.8 42.4006 237.5 42.5006 237.1 42.5006Z" fill="white"/>
<path d="M254.7 39.3008C254.3 39.3008 254 39.2008 253.7 38.9008C253.4 38.6008 253.3 38.3008 253.3 37.9008C253.3 37.5008 253.4 37.2008 253.7 36.9008C254 36.6008 254.3 36.5008 254.7 36.5008H262.4C263.3 36.5008 264 36.4008 264.4 36.3008C264.9 36.2008 265.2 35.9008 265.3 35.4008C265.5 34.9008 265.5 34.2008 265.5 33.3008C265.5 32.3008 265.4 31.6008 265.3 31.2008C265.1 30.8008 264.8 30.5008 264.4 30.3008C264 30.1008 263.3 30.1008 262.4 30.1008H255C254.6 30.1008 254.3 30.0008 254.1 29.7008C253.8 29.4008 253.7 29.1008 253.7 28.7008C253.7 28.3008 253.8 28.0008 254.1 27.7008C254.4 27.4008 254.7 27.3008 255 27.3008H262.5C263.6 27.3008 264.6 27.4008 265.3 27.6008C266.1 27.8008 266.7 28.1008 267.1 28.5008C267.5 28.9008 267.9 29.5008 268 30.3008C268.1 31.1008 268.3 32.0008 268.3 33.2008C268.3 34.4008 268.2 35.3008 268 36.1008C267.8 36.9008 267.5 37.5008 267.1 37.9008C266.7 38.3008 266.1 38.6008 265.3 38.8008C264.5 39.0008 263.6 39.1008 262.4 39.1008H254.7V39.3008Z" fill="white"/>
<path d="M291.5 40.8C291.2 41 290.8 41 290.5 40.9C290.2 40.8 289.9 40.6 289.7 40.2C289.6 39.9 289.4 39.6 289.1 39.3C288.9 38.9 288.6 38.6 288.3 38.2C287.4 38.3 286.5 38.5 285.4 38.7C284.3 38.9 283.2 39 282 39.1C280.8 39.2 279.7 39.4 278.6 39.5C277.5 39.6 276.6 39.7 275.7 39.8C275.3 39.8 275 39.7 274.7 39.5C274.4 39.3 274.3 38.9 274.2 38.6C274.2 38.2 274.3 37.9 274.6 37.6C274.9 37.3 275.2 37.2 275.5 37.2C275.7 37.2 276 37.1 276.2 37.1C276.4 37.1 276.7 37.1 277 37.1C277.4 36.5 277.9 35.7 278.4 34.8C278.9 33.9 279.4 33.1 279.8 32.1C280.3 31.2 280.7 30.3 281.1 29.4C281.5 28.6 281.8 27.8 282.1 27.2C282.2 26.8 282.5 26.6 282.8 26.4C283.1 26.2 283.5 26.2 283.8 26.4C284.2 26.5 284.4 26.8 284.6 27.1C284.8 27.4 284.8 27.8 284.6 28.1C284.3 28.9 283.9 29.7 283.4 30.7C282.9 31.7 282.4 32.7 281.8 33.7C281.2 34.7 280.6 35.7 280.1 36.6C281.2 36.5 282.3 36.4 283.4 36.3C284.5 36.2 285.5 36.1 286.5 36C286.2 35.6 285.9 35.3 285.6 34.9C285.3 34.6 285 34.3 284.8 34C284.6 33.7 284.4 33.4 284.4 33C284.4 32.6 284.6 32.3 284.8 32.1C285.1 31.9 285.4 31.7 285.8 31.7C286.2 31.7 286.5 31.9 286.7 32.1C287.1 32.5 287.5 33 288 33.6C288.5 34.2 289 34.8 289.5 35.5C290 36.2 290.5 36.8 290.9 37.4C291.3 38 291.7 38.5 291.9 38.9C292.1 39.2 292.1 39.6 292 39.9C292.1 40.4 291.9 40.7 291.5 40.8Z" fill="white"/>
<path d="M342.8 74.6002H322.5C321.8 74.6002 321.1 74.0002 321.1 73.2002C321.1 72.5002 321.7 71.8002 322.5 71.8002H339.6L334.5 66.3002C333.9 65.7002 334 64.8002 334.6 64.4002C335.2 63.8002 336.1 63.9002 336.5 64.5002L343.8 72.3002C344.2 72.7002 344.3 73.3002 344.1 73.8002C343.8 74.3002 343.4 74.6002 342.8 74.6002Z" fill="white"/>
<path d="M69.3 76.7002C69 76.7002 68.8 76.7002 68.6 76.5002C68.4 76.3002 68.3 76.1002 68.2 75.9002C68.1 75.4002 68 74.7002 68 74.0002C68 73.3002 67.9 72.5002 67.9 71.7002C67.9 70.9002 67.9 70.1002 68 69.3002C68.1 68.5002 68.1 67.7002 68.2 67.0002C68.3 66.3002 68.4 65.6002 68.5 65.0002C68.6 64.7002 68.7 64.5002 68.9 64.4002C69.1 64.3002 69.4 64.2002 69.6 64.3002C69.9 64.4002 70.1 64.5002 70.2 64.7002C70.3 64.9002 70.4 65.2002 70.3 65.4002C70.1 66.2002 70 67.0002 69.9 67.9002C69.8 68.8002 69.7 69.7002 69.7 70.6002C69.7 71.5002 69.7 72.4002 69.7 73.3002C69.8 74.2002 69.8 74.9002 70 75.6002C70.1 75.9002 70 76.1002 69.8 76.3002C69.8 76.6002 69.6 76.7002 69.3 76.7002ZM75.9 75.9002C74.5 75.9002 73.5 75.7002 72.8 75.1002C72.1 74.6002 71.7 73.9002 71.6 72.9002C71.6 72.6002 71.6 72.4002 71.8 72.2002C72 72.0002 72.2 71.9002 72.4 71.8002C72.7 71.8002 72.9 71.8002 73.1 72.0002C73.3 72.2002 73.4 72.4002 73.5 72.6002C73.6 73.1002 73.8 73.4002 74.2 73.6002C74.6 73.8002 75.2 73.9002 76 73.9002C76.8 73.9002 77.8 73.8002 78.9 73.5002C79.2 73.4002 79.4 73.5002 79.6 73.6002C79.8 73.7002 80 74.0002 80 74.2002C80.1 74.5002 80 74.7002 79.9 74.9002C79.8 75.1002 79.5 75.3002 79.3 75.3002C78.7 75.4002 78.2 75.5002 77.6 75.6002C76.9 75.8002 76.4 75.9002 75.9 75.9002ZM73 68.0002C72.7 68.1002 72.5 68.0002 72.3 67.9002C72.1 67.8002 71.9 67.6002 71.9 67.3002C71.8 67.0002 71.9 66.8002 72 66.6002C72.1 66.4002 72.3 66.2002 72.6 66.2002C73.2 66.1002 73.9 66.0002 74.6 66.0002C75.3 66.0002 76.1 66.0002 76.8 66.0002C77.5 66.0002 78.2 66.1002 78.7 66.2002C79 66.2002 79.2 66.4002 79.3 66.6002C79.4 66.8002 79.5 67.1002 79.4 67.3002C79.4 67.6002 79.2 67.8002 79 67.9002C78.8 68.0002 78.5 68.1002 78.3 68.1002C77.4 68.0002 76.5 67.9002 75.6 67.9002C74.8 67.7002 73.9 67.8002 73 68.0002Z" fill="white"/>
<path d="M90 77.8002C89.8 77.8002 89.6 77.8002 89.4 77.6002C89.2 77.5002 89.1 77.3002 89.1 77.0002C89 76.4002 88.9 75.6002 88.6 74.8002C88.4 74.0002 88.1 73.1002 87.9 72.3002C87.5 72.4002 87.1 72.6002 86.7 72.7002C86.3 72.8002 86 73.0002 85.6 73.1002C85.4 73.2002 85.2 73.2002 85 73.1002C84.8 73.0002 84.6 72.8002 84.6 72.6002C84.5 72.4002 84.5 72.2002 84.6 72.0002C84.7 71.8002 84.9 71.7002 85.1 71.6002C85.8 71.4002 86.5 71.1002 87.4 70.8002C87.3 70.5002 87.1 70.2002 87 69.9002C86.9 69.6002 86.7 69.3002 86.6 69.1002C86.5 68.9002 86.5 68.7002 86.5 68.4002C86.6 68.2002 86.7 68.0002 86.9 67.9002C87.1 67.8002 87.3 67.8002 87.5 67.8002C87.7 67.8002 87.9 68.0002 88 68.2002C88.2 68.5002 88.3 68.8002 88.5 69.2002C88.6 69.5002 88.8 69.9002 88.9 70.3002C89.2 70.2002 89.5 70.1002 89.7 70.0002C90 69.9002 90.2 69.8002 90.5 69.8002C90.3 69.7002 90.2 69.6002 90.1 69.5002L89.4 68.5002C89.3 68.3002 89.2 68.1002 89.3 67.9002C89.4 67.7002 89.5 67.5002 89.7 67.4002C89.9 67.3002 90.1 67.2002 90.3 67.3002C90.5 67.3002 90.7 67.5002 90.8 67.7002L91.5 68.7002C91.6 68.9002 91.7 69.0002 91.6 69.2002C91.6 69.4002 91.5 69.5002 91.4 69.7002C91.5 69.7002 91.5 69.7002 91.6 69.6002C91.7 69.5002 91.7 69.6002 91.8 69.6002C92.9 69.3002 93.8 69.4002 94.5 69.7002C95.2 70.1002 95.6 70.7002 95.7 71.5002C95.8 72.1002 95.7 72.7002 95.4 73.1002C95.1 73.6002 94.8 73.9002 94.3 74.2002C93.8 74.4002 93.3 74.6002 92.7 74.5002C92.1 74.5002 91.5 74.3002 90.8 73.9002C90.6 73.8002 90.5 73.6002 90.4 73.4002C90.3 73.2002 90.3 73.0002 90.5 72.8002C90.6 72.6002 90.8 72.4002 91 72.4002C91.2 72.3002 91.4 72.4002 91.6 72.5002C92.1 72.8002 92.5 72.9002 92.9 72.9002C93.3 72.9002 93.6 72.8002 93.8 72.6002C94 72.4002 94.1 72.1002 94 71.7002C94 71.4002 93.8 71.2002 93.5 71.1002C93.2 71.0002 92.8 71.0002 92.2 71.1002C91.8 71.2002 91.4 71.3002 90.9 71.5002C90.4 71.7002 89.9 71.8002 89.4 72.0002C89.7 72.9002 89.9 73.8002 90.2 74.6002C90.4 75.5002 90.6 76.3002 90.7 77.0002C90.7 77.2002 90.7 77.4002 90.5 77.6002C90.3 77.8002 90.3 77.8002 90 77.8002Z" fill="white"/>
<path d="M100.8 76.6998C100.6 76.5998 100.4 76.3998 100.3 76.1998C100.2 75.8998 100.2 75.6998 100.3 75.4998C100.5 75.0998 100.7 74.5998 101 73.9998C101.3 73.3998 101.6 72.7998 101.9 71.9998C102.2 71.1998 102.6 70.5998 102.9 69.7998C103.3 69.0998 103.6 68.2998 103.9 67.6998C104.2 67.0998 104.6 66.3998 104.8 65.7998C105.1 65.1998 105.3 64.7998 105.5 64.3998C105.6 64.1998 105.8 63.9998 106.1 63.8998C106.4 63.7998 106.6 63.8998 106.8 63.9998C107 64.0998 107.2 64.2998 107.3 64.5998C107.4 64.8998 107.3 65.0998 107.2 65.2998C107.1 65.5998 106.9 65.8998 106.6 66.3998C106.4 66.8998 106.1 67.3998 105.8 67.9998C105.5 68.5998 105.2 69.1998 104.9 69.7998C105.3 69.5998 105.7 69.5998 106 69.5998C107 69.5998 107.7 69.8998 108.1 70.5998C108.5 71.2998 108.5 72.0998 108.2 73.1998C108 73.7998 108 74.1998 108.2 74.3998C108.3 74.5998 108.6 74.6998 108.9 74.6998C109.1 74.6998 109.4 74.5998 109.6 74.4998C109.8 74.3998 110.1 74.1998 110.3 73.7998C110.5 73.4998 110.8 72.9998 111 72.2998C111.1 72.0998 111.3 71.8998 111.5 71.7998C111.7 71.6998 112 71.6998 112.2 71.7998C112.4 71.8998 112.6 72.0998 112.7 72.2998C112.8 72.4998 112.8 72.7998 112.7 73.0998C112.3 74.2998 111.7 75.1998 111.1 75.7998C110.5 76.3998 109.7 76.6998 108.7 76.6998C108 76.6998 107.5 76.5998 107 76.2998C106.5 75.9998 106.2 75.5998 106.1 74.9998C106 74.3998 106 73.6998 106.2 72.8998C106.3 72.3998 106.4 71.9998 106.2 71.7998C106.1 71.5998 105.8 71.4998 105.5 71.4998C105 71.4998 104.6 71.5998 104.2 71.8998C103.8 72.1998 103.4 72.7998 103 73.5998C103 73.6998 102.9 73.8998 102.8 74.0998C102.7 74.3998 102.6 74.5998 102.4 74.8998C102.3 75.1998 102.2 75.4998 102 75.6998C101.9 75.8998 101.8 76.0998 101.8 76.1998C101.7 76.3998 101.5 76.5998 101.3 76.7998C101.3 76.7998 101.1 76.7998 100.8 76.6998Z" fill="white"/>
<path d="M117.2 69.3002C117 69.4002 116.7 69.5002 116.5 69.5002C116.3 69.5002 116 69.4002 115.9 69.1002C115.8 68.9002 115.7 68.7002 115.8 68.5002C115.8 68.3002 116 68.1002 116.2 68.0002C116.8 67.7002 117.2 67.3002 117.6 66.9002C118 66.5002 118.2 66.0002 118.4 65.5002H116.7C116.5 65.5002 116.3 65.4002 116.2 65.3002C116.1 65.2002 116 65.0002 116 64.8002C116 64.6002 116.1 64.4002 116.2 64.3002C116.3 64.2002 116.5 64.1002 116.7 64.1002H118.7C118.7 64.0002 118.7 63.9002 118.7 63.8002C118.7 63.7002 118.7 63.6002 118.7 63.5002C118.7 63.2002 118.8 63.0002 119 62.9002C119.2 62.8002 119.4 62.7002 119.7 62.8002C119.9 62.8002 120.1 62.9002 120.3 63.1002C120.4 63.3002 120.5 63.5002 120.5 63.7002C120.5 63.8002 120.5 63.8002 120.5 63.9002C120.5 64.0002 120.5 64.0002 120.5 64.1002H121.5C122.1 64.1002 122.6 64.3002 122.9 64.6002C123.2 64.9002 123.3 65.4002 123.2 66.1002C123.1 66.7002 123 67.2002 122.8 67.5002C122.6 67.8002 122.4 68.1002 122 68.2002C121.6 68.3002 121.2 68.4002 120.7 68.4002C120.5 68.4002 120.3 68.3002 120.1 68.2002C119.9 68.1002 119.9 67.9002 119.8 67.6002C119.8 67.4002 119.8 67.2002 120 67.0002C120.1 66.8002 120.3 66.8002 120.5 66.8002C120.9 66.8002 121.1 66.7002 121.2 66.7002C121.3 66.6002 121.4 66.4002 121.4 66.1002C121.4 65.9002 121.4 65.7002 121.4 65.6002C121.4 65.5002 121.2 65.5002 120.9 65.5002H120C119.7 66.3002 119.4 67.1002 118.9 67.7002C118.4 68.3002 117.8 68.9002 117.2 69.3002ZM117.7 77.8002C117.4 77.9002 117.2 77.9002 117 77.8002C116.8 77.7002 116.6 77.6002 116.6 77.3002C116.5 77.1002 116.6 76.9002 116.6 76.7002C116.6 76.5002 116.9 76.3002 117.1 76.3002C117.4 76.2002 117.7 76.1002 118 76.0002C118.3 75.9002 118.7 75.8002 119.1 75.6002C119.5 75.4002 119.8 75.3002 120.1 75.2002C119.4 75.1002 118.9 74.9002 118.7 74.5002C118.4 74.1002 118.3 73.6002 118.3 72.9002V71.0002C118.3 70.1002 118.5 69.5002 119 69.2002C119.4 68.9002 120.2 68.7002 121.3 68.7002H125.1C126.2 68.7002 127 68.9002 127.4 69.2002C127.8 69.5002 128.1 70.2002 128.1 71.0002V72.9002C128.1 73.6002 128 74.2002 127.7 74.5002C127.4 74.9002 126.9 75.1002 126.2 75.2002C126.7 75.4002 127.2 75.6002 127.7 75.8002C128.3 76.0002 128.8 76.1002 129.2 76.2002C129.4 76.3002 129.6 76.4002 129.7 76.6002C129.8 76.8002 129.8 77.0002 129.7 77.2002C129.6 77.4002 129.5 77.6002 129.3 77.7002C129.1 77.8002 128.8 77.8002 128.6 77.7002C128.3 77.6002 127.9 77.5002 127.4 77.3002C127 77.1002 126.5 77.0002 126.1 76.8002C125.7 76.6002 125.3 76.4002 125 76.3002C124.8 76.2002 124.7 76.0002 124.6 75.8002C124.6 75.6002 124.6 75.4002 124.7 75.2002H121.7C121.8 75.4002 121.8 75.6002 121.8 75.8002C121.8 76.0002 121.6 76.2002 121.4 76.3002C121.1 76.5002 120.7 76.6002 120.3 76.8002C119.9 77.0002 119.4 77.2002 119 77.3002C118.4 77.6002 118 77.7002 117.7 77.8002ZM120.1 72.3002H126V71.7002H120.1V72.3002ZM120.1 70.6002H126C126 70.4002 125.9 70.2002 125.7 70.1002C125.5 70.0002 125.3 70.0002 124.9 70.0002H121.2C120.8 70.0002 120.6 70.0002 120.4 70.1002C120.2 70.2002 120.1 70.3002 120.1 70.6002ZM121.2 74.0002H124.9C125.3 74.0002 125.6 74.0002 125.7 73.9002C125.8 73.8002 125.9 73.6002 126 73.4002H120.1C120.1 73.7002 120.2 73.8002 120.4 73.9002C120.5 74.0002 120.8 74.0002 121.2 74.0002ZM126.4 68.1002C125.8 68.1002 125.3 68.0002 125 67.9002C124.6 67.8002 124.4 67.6002 124.2 67.2002C124 66.9002 124 66.4002 124 65.8002C124 65.2002 124.1 64.7002 124.2 64.4002C124.3 64.1002 124.6 63.9002 125 63.7002C125.4 63.6002 125.8 63.5002 126.4 63.5002H127.3C127.9 63.5002 128.4 63.6002 128.7 63.7002C129.1 63.8002 129.3 64.0002 129.5 64.4002C129.7 64.8002 129.7 65.2002 129.7 65.8002C129.7 66.4002 129.6 66.8002 129.5 67.2002C129.3 67.5002 129.1 67.7002 128.7 67.9002C128.3 68.0002 127.9 68.1002 127.3 68.1002H126.4ZM126.5 66.7002H127.3C127.7 66.7002 127.9 66.6002 128 66.5002C128.1 66.4002 128.2 66.2002 128.2 65.9002C128.2 65.6002 128.1 65.4002 128 65.3002C127.9 65.2002 127.7 65.1002 127.3 65.1002H126.5C126.1 65.1002 125.9 65.2002 125.8 65.3002C125.7 65.4002 125.6 65.6002 125.6 65.9002C125.6 66.2002 125.7 66.4002 125.8 66.5002C125.9 66.6002 126.1 66.7002 126.5 66.7002Z" fill="white"/>
<path d="M135.9 77.8C135.7 77.8 135.4 77.7 135.3 77.6C135.1 77.4 135 77.2 135 77V72.9C134.7 73.1 134.4 73.4 134 73.6C133.7 73.9 133.4 74 133.2 74.2C133 74.3 132.7 74.4 132.4 74.4C132.1 74.4 131.9 74.2 131.8 73.9C131.7 73.7 131.6 73.4 131.7 73.2C131.8 73 131.9 72.8 132.1 72.6C132.2 72.5 132.4 72.4 132.7 72.2C133 72 133.2 71.8 133.5 71.6C133.8 71.4 134 71.2 134.3 71C134.6 70.8 134.8 70.7 134.9 70.5V68.5C134.8 68.7 134.7 68.8 134.5 68.9C134.3 69 134 69.1 133.8 69C133.5 68.9 133.4 68.8 133.2 68.5C133.1 68.4 133 68.2 132.9 67.9C132.8 67.7 132.6 67.4 132.5 67.2C132.4 67 132.3 66.8 132.2 66.6C132.1 66.4 132 66.2 132.1 65.9C132.2 65.7 132.3 65.5 132.6 65.3C132.8 65.2 133.1 65.1 133.3 65.2C133.5 65.3 133.7 65.4 133.9 65.6C134 65.7 134.1 65.9 134.2 66.2C134.3 66.5 134.5 66.7 134.6 67C134.7 67.2 134.8 67.4 134.9 67.6V67.7V63.9C134.9 63.6 135 63.4 135.2 63.2C135.4 63 135.6 63 135.8 63C136 63 136.3 63.1 136.4 63.2C136.6 63.4 136.7 63.6 136.7 63.9V76.7C136.7 77 136.6 77.2 136.4 77.3C136.4 77.7 136.2 77.8 135.9 77.8ZM145.3 77.2C144.5 76.6 143.8 75.9 143.2 75.1C142.6 74.3 142.2 73.5 141.8 72.6C141.5 73.5 141.1 74.3 140.6 75.1C140.1 75.9 139.4 76.6 138.6 77.2C138.4 77.4 138.1 77.4 137.9 77.4C137.7 77.4 137.4 77.3 137.2 77C137.1 76.8 137 76.6 137 76.3C137 76.1 137.2 75.9 137.4 75.7C139.4 74.3 140.6 72.2 140.8 69.5H138.1C137.9 69.5 137.7 69.4 137.5 69.2C137.3 69 137.2 68.8 137.2 68.6C137.2 68.4 137.3 68.1 137.5 68C137.7 67.8 137.9 67.7 138.1 67.7H140.8V64.1C140.8 63.8 140.9 63.6 141.1 63.4C141.3 63.2 141.5 63.2 141.7 63.2C142 63.2 142.2 63.3 142.3 63.4C142.5 63.6 142.6 63.8 142.6 64.1V67.7H145.8C146 67.7 146.3 67.8 146.4 68C146.6 68.2 146.7 68.4 146.7 68.6C146.7 68.8 146.6 69 146.4 69.2C146.2 69.4 146 69.5 145.8 69.5H142.6C142.7 70.9 143.2 72.1 143.8 73.1C144.5 74.1 145.3 75 146.4 75.7C146.6 75.8 146.7 76 146.8 76.3C146.8 76.6 146.8 76.8 146.6 77C146.4 77.2 146.2 77.4 145.9 77.4C145.6 77.4 145.5 77.4 145.3 77.2ZM146 66.9C145.8 67 145.6 67.1 145.4 67.1C145.2 67.1 145 67 144.8 66.8C144.7 66.7 144.6 66.6 144.5 66.4C144.4 66.2 144.2 66 144 65.9C143.8 65.7 143.7 65.6 143.6 65.5C143.5 65.3 143.4 65.1 143.4 64.9C143.4 64.7 143.5 64.5 143.7 64.4C143.9 64.2 144.1 64.2 144.3 64.2C144.5 64.2 144.7 64.3 144.9 64.5C145 64.6 145.1 64.7 145.3 64.9C145.5 65.1 145.6 65.2 145.8 65.4C146 65.6 146.1 65.7 146.1 65.8C146.3 66 146.4 66.2 146.4 66.5C146.4 66.8 146.2 66.7 146 66.9Z" fill="white"/>
<path d="M149.7 75.8006C149.4 75.9006 149.1 75.9006 148.9 75.8006C148.7 75.7006 148.5 75.5006 148.4 75.2006C148.3 74.9006 148.3 74.7006 148.5 74.4006C148.6 74.2006 148.8 74.0006 149.1 73.9006C149.3 73.8006 149.5 73.8006 149.7 73.7006C149.9 73.6006 150.1 73.6006 150.3 73.5006V64.6006C150.3 64.3006 150.4 64.0006 150.6 63.9006C150.8 63.7006 151 63.6006 151.3 63.6006C151.6 63.6006 151.8 63.7006 152 63.9006C152.2 64.1006 152.3 64.3006 152.3 64.6006V72.8006C152.8 72.6006 153.4 72.4006 153.9 72.2006C154.4 72.0006 154.8 71.8006 155.2 71.7006C155.5 71.6006 155.7 71.6006 155.9 71.7006C156.1 71.8006 156.3 72.0006 156.4 72.2006C156.5 72.5006 156.5 72.7006 156.4 72.9006C156.3 73.1006 156.1 73.3006 155.8 73.4006C155.4 73.6006 155 73.8006 154.5 74.0006C154 74.2006 153.4 74.4006 152.9 74.7006C152.3 74.9006 151.8 75.2006 151.2 75.4006C150.6 75.6006 150.1 75.7006 149.7 75.8006ZM154.3 77.4006C154 77.5006 153.7 77.5006 153.4 77.4006C153.1 77.3006 153 77.1006 152.8 76.9006C152.7 76.6006 152.7 76.3006 152.8 76.1006C152.9 75.9006 153.2 75.7006 153.5 75.6006C154.6 75.3006 155.5 74.9006 156.2 74.4006C156.9 73.9006 157.6 73.3006 158 72.6006C158.5 71.9006 158.8 70.9006 159 69.8006C159.2 68.7006 159.3 67.3006 159.3 65.7006V64.6006C159.3 64.3006 159.4 64.0006 159.6 63.9006C159.8 63.7006 160 63.6006 160.3 63.6006C160.6 63.6006 160.8 63.7006 161 63.9006C161.2 64.1006 161.3 64.3006 161.3 64.6006V65.7006C161.3 67.3006 161.2 68.6006 161 69.8006C160.8 71.0006 160.4 72.0006 160 72.9006C160.3 73.1006 160.6 73.3006 160.9 73.6006C161.2 73.9006 161.6 74.2006 161.9 74.4006C162.2 74.7006 162.5 74.9006 162.7 75.1006C162.9 75.3006 163 75.5006 163 75.8006C163 76.1006 162.9 76.3006 162.7 76.5006C162.5 76.7006 162.3 76.8006 162 76.8006C161.7 76.8006 161.5 76.7006 161.2 76.5006C161 76.3006 160.8 76.1006 160.5 75.8006C160.2 75.6006 160 75.3006 159.7 75.0006C159.4 74.7006 159.2 74.5006 158.9 74.3006C158.3 75.0006 157.6 75.6006 156.8 76.0006C156.3 76.6006 155.4 77.0006 154.3 77.4006ZM156.3 68.6006C156.1 68.4006 155.9 68.2006 155.6 67.9006C155.3 67.6006 155 67.4006 154.7 67.1006C154.4 66.8006 154.1 66.6006 153.9 66.5006C153.7 66.3006 153.6 66.1006 153.6 65.9006C153.6 65.6006 153.7 65.4006 153.8 65.2006C154 65.0006 154.2 64.9006 154.5 64.8006C154.8 64.8006 155 64.8006 155.2 65.0006C155.4 65.2006 155.7 65.4006 156 65.6006C156.3 65.9006 156.6 66.1006 157 66.4006C157.3 66.7006 157.6 66.9006 157.8 67.1006C158 67.3006 158.1 67.5006 158.1 67.8006C158.1 68.1006 158 68.3006 157.8 68.5006C157.6 68.7006 157.4 68.8006 157.1 68.8006C156.7 68.8006 156.5 68.8006 156.3 68.6006Z" fill="white"/>
<path d="M175.4 77.9C175.1 77.9 174.9 77.8 174.7 77.6C174.5 77.4 174.4 77.2 174.4 76.9V70.7C174 70.4 173.7 70.1 173.4 69.8C173.1 69.5 172.8 69.2 172.5 68.8C172 70.6 171.3 72.2 170.3 73.7C169.3 75.2 168.2 76.4 166.9 77.5C166.7 77.7 166.4 77.8 166.1 77.8C165.8 77.8 165.5 77.7 165.3 77.5C165.1 77.3 165 77 165 76.7C165 76.4 165.1 76.2 165.4 76C166.8 74.9 168 73.6 169 72.1C168.8 72 168.6 71.8 168.4 71.7C168.2 71.6 168 71.5 167.9 71.4C167.7 71.3 167.5 71 167.4 70.8C167.3 70.6 167.4 70.3 167.5 70C167.7 69.7 167.9 69.6 168.2 69.5C168.5 69.4 168.8 69.5 169 69.6C169.1 69.6 169.2 69.7 169.4 69.8C169.6 69.9 169.8 70.1 170 70.2C170.1 69.9 170.3 69.6 170.4 69.2C170.5 68.9 170.6 68.5 170.7 68.2C170.8 67.8 170.8 67.6 170.7 67.5C170.6 67.4 170.4 67.3 170 67.3H168.6C168.3 68 168 68.7 167.7 69.4C167.4 70.1 167 70.7 166.7 71.2C166.5 71.4 166.3 71.6 166.1 71.6C165.8 71.6 165.6 71.6 165.3 71.4C165.1 71.3 165 71.1 164.9 70.8C164.9 70.6 164.9 70.3 165 70.1C165.3 69.7 165.6 69.2 165.8 68.7C166.1 68.2 166.3 67.6 166.6 67C166.8 66.4 167.1 65.8 167.3 65.3C167.5 64.7 167.6 64.2 167.7 63.7C167.8 63.4 167.9 63.2 168.2 63.1C168.4 63 168.7 63 169 63C169.3 63.1 169.5 63.2 169.6 63.4C169.7 63.6 169.8 63.9 169.7 64.2C169.6 64.4 169.6 64.6 169.5 64.9C169.4 65.2 169.4 65.4 169.3 65.6H170.3C171.1 65.6 171.8 65.7 172.2 66C172.6 66.3 172.8 66.7 172.8 67.3C173 67.2 173.2 67.1 173.4 67.1C173.6 67.1 173.8 67.2 174 67.4C174.1 67.5 174.2 67.6 174.3 67.7C174.4 67.8 174.5 67.9 174.6 68V64C174.6 63.7 174.7 63.4 174.9 63.3C175.1 63.1 175.3 63 175.6 63C175.9 63 176.1 63.1 176.3 63.3C176.5 63.5 176.6 63.7 176.6 64V69.8C177.6 70.5 178.6 71.1 179.6 71.6C179.9 71.7 180.1 71.9 180.2 72.2C180.3 72.5 180.3 72.8 180.1 73C179.9 73.3 179.7 73.5 179.4 73.5C179.1 73.5 178.8 73.5 178.5 73.4C178.2 73.3 177.9 73.1 177.6 72.9C177.3 72.7 176.9 72.5 176.6 72.3V77C176.6 77.3 176.5 77.5 176.3 77.7C176.1 77.9 175.6 77.9 175.4 77.9Z" fill="white"/>
<path d="M190.3 76.4C190 76.5 189.8 76.4 189.5 76.3C189.2 76.2 189.1 76 189.1 75.7C189 75.4 189.1 75.2 189.2 75C189.3 74.8 189.5 74.6 189.8 74.6C191 74.3 191.9 73.8 192.4 73.1C192.9 72.4 193.2 71.5 193.2 70.5C193.2 69.8 193.1 69.2 192.8 68.7C192.5 68.2 192.1 67.7 191.5 67.4C191 67.1 190.3 66.9 189.5 66.8C189.3 68.6 189 70.1 188.5 71.4C188 72.7 187.5 73.7 186.9 74.4C186.3 75.1 185.6 75.5 185 75.5C184.4 75.5 183.9 75.3 183.4 75C182.9 74.7 182.6 74.2 182.3 73.6C182 73 181.9 72.2 181.9 71.4C181.9 70.5 182.1 69.7 182.4 68.9C182.7 68.1 183.2 67.4 183.8 66.9C184.4 66.3 185.1 65.9 186 65.5C186.8 65.2 187.8 65 188.8 65C190 65 191.1 65.2 192 65.7C192.9 66.2 193.7 66.8 194.2 67.6C194.7 68.4 195 69.4 195 70.5C195 72 194.6 73.3 193.8 74.4C193.1 75.3 191.9 76 190.3 76.4ZM185.1 73.5C185.3 73.5 185.5 73.3 185.8 73C186 72.7 186.3 72.2 186.6 71.6C186.9 71 187.1 70.3 187.3 69.5C187.5 68.7 187.7 67.8 187.8 66.8C187 67 186.3 67.3 185.7 67.7C185.1 68.1 184.7 68.7 184.4 69.3C184.1 69.9 184 70.6 184 71.3C184 72 184.1 72.6 184.3 72.9C184.5 73.3 184.7 73.5 185.1 73.5Z" fill="white"/>
<path d="M205.9 77.8998C205.6 77.8998 205.4 77.7998 205.2 77.5998C205 77.3998 204.9 77.1998 204.9 76.8998V74.1998H198.3C198.1 74.1998 197.9 74.0998 197.7 73.9998C197.5 73.8998 197.5 73.5998 197.5 73.3998C197.5 73.1998 197.6 72.9998 197.7 72.7998C197.8 72.5998 198.1 72.5998 198.3 72.5998H200.4V71.2998C200.4 70.5998 200.5 70.0998 200.7 69.6998C200.9 69.2998 201.2 68.9998 201.6 68.8998C202 68.6998 202.7 68.6998 203.4 68.6998H204.8V66.8998H201.5C201.2 67.3998 200.9 67.7998 200.5 68.1998C200.2 68.5998 199.8 68.9998 199.5 69.3998C199.3 69.5998 199.1 69.6998 198.8 69.7998C198.5 69.7998 198.3 69.7998 198.1 69.5998C197.9 69.3998 197.8 69.1998 197.8 68.9998C197.8 68.6998 197.9 68.4998 198.1 68.2998C198.5 67.8998 199 67.3998 199.4 66.7998C199.8 66.2998 200.2 65.6998 200.5 65.0998C200.9 64.4998 201.1 63.9998 201.4 63.4998C201.5 63.2998 201.7 63.0998 202 62.9998C202.3 62.8998 202.5 62.8998 202.7 62.9998C202.9 63.0998 203.1 63.2998 203.2 63.4998C203.3 63.6998 203.3 63.8998 203.2 64.1998C203.1 64.4998 202.9 64.7998 202.7 65.1998H211C211.2 65.1998 211.4 65.2998 211.6 65.3998C211.8 65.5998 211.8 65.7998 211.8 65.9998C211.8 66.1998 211.7 66.3998 211.6 66.5998C211.4 66.7998 211.2 66.8998 211 66.8998H207V68.6998H210C210.2 68.6998 210.4 68.7998 210.6 68.8998C210.8 69.0998 210.8 69.2998 210.8 69.4998C210.8 69.6998 210.7 69.8998 210.6 70.0998C210.4 70.2998 210.2 70.2998 210 70.2998H207V72.5998H211.7C211.9 72.5998 212.1 72.6998 212.3 72.7998C212.5 72.8998 212.5 73.1998 212.5 73.3998C212.5 73.5998 212.4 73.7998 212.3 73.9998C212.2 74.1998 211.9 74.1998 211.7 74.1998H207V76.8998C207 77.1998 206.9 77.3998 206.7 77.5998C206.5 77.7998 206.2 77.8998 205.9 77.8998ZM202.4 72.5998H204.9V70.2998H203.5C203.1 70.2998 202.8 70.3998 202.6 70.4998C202.5 70.5998 202.4 70.8998 202.4 71.2998V72.5998Z" fill="white"/>
<path d="M215.6 69.3002C215.4 69.4002 215.1 69.5002 214.9 69.5002C214.7 69.5002 214.4 69.4002 214.3 69.1002C214.2 68.9002 214.1 68.7002 214.2 68.5002C214.2 68.3002 214.4 68.1002 214.6 68.0002C215.2 67.7002 215.6 67.3002 216 66.9002C216.4 66.5002 216.6 66.0002 216.8 65.5002H215C214.8 65.5002 214.6 65.4002 214.5 65.3002C214.4 65.2002 214.3 65.0002 214.3 64.8002C214.3 64.6002 214.4 64.4002 214.5 64.3002C214.6 64.2002 214.8 64.1002 215 64.1002H217C217 64.0002 217 63.9002 217 63.8002C217 63.7002 217 63.6002 217 63.5002C217 63.2002 217.1 63.0002 217.3 62.9002C217.5 62.8002 217.7 62.7002 218 62.8002C218.2 62.8002 218.4 62.9002 218.6 63.1002C218.8 63.3002 218.8 63.5002 218.8 63.7002C218.8 63.8002 218.8 63.8002 218.8 63.9002C218.8 64.0002 218.8 64.0002 218.8 64.1002H219.8C220.4 64.1002 220.9 64.3002 221.2 64.6002C221.5 64.9002 221.6 65.4002 221.5 66.1002C221.4 66.7002 221.3 67.2002 221.1 67.5002C220.9 67.8002 220.7 68.1002 220.3 68.2002C219.9 68.3002 219.5 68.4002 219 68.4002C218.8 68.4002 218.6 68.3002 218.4 68.2002C218.2 68.1002 218.2 67.9002 218.1 67.6002C218.1 67.4002 218.1 67.2002 218.3 67.0002C218.4 66.8002 218.6 66.8002 218.8 66.8002C219.2 66.8002 219.4 66.7002 219.5 66.7002C219.6 66.6002 219.7 66.4002 219.7 66.1002C219.7 65.9002 219.7 65.7002 219.7 65.6002C219.6 65.5002 219.5 65.5002 219.2 65.5002H218.4C218.1 66.3002 217.8 67.1002 217.3 67.7002C216.8 68.4002 216.2 68.9002 215.6 69.3002ZM216.1 77.8002C215.8 77.9002 215.6 77.9002 215.4 77.8002C215.2 77.7002 215 77.6002 215 77.3002C214.9 77.1002 215 76.9002 215 76.7002C215.1 76.5002 215.3 76.3002 215.5 76.3002C215.8 76.2002 216.1 76.1002 216.4 76.0002C216.7 75.9002 217.1 75.8002 217.5 75.6002C217.9 75.5002 218.2 75.3002 218.5 75.2002C217.8 75.1002 217.3 74.9002 217.1 74.5002C216.8 74.1002 216.7 73.6002 216.7 72.9002V71.0002C216.7 70.1002 216.9 69.5002 217.4 69.2002C217.9 68.9002 218.6 68.7002 219.7 68.7002H223.5C224.6 68.7002 225.4 68.9002 225.8 69.2002C226.2 69.5002 226.5 70.2002 226.5 71.0002V72.9002C226.5 73.6002 226.4 74.2002 226.1 74.5002C225.8 74.9002 225.3 75.1002 224.6 75.2002C225.1 75.4002 225.6 75.6002 226.1 75.8002C226.7 76.0002 227.1 76.1002 227.6 76.2002C227.8 76.3002 228 76.4002 228.1 76.6002C228.2 76.8002 228.2 77.0002 228.1 77.2002C228 77.4002 227.9 77.6002 227.7 77.7002C227.5 77.8002 227.2 77.8002 227 77.7002C226.7 77.6002 226.3 77.5002 225.8 77.3002C225.4 77.1002 224.9 77.0002 224.5 76.8002C224.1 76.6002 223.7 76.4002 223.4 76.3002C223.2 76.2002 223.1 76.0002 223 75.8002C223 75.6002 223 75.4002 223.1 75.2002H220.1C220.2 75.4002 220.2 75.6002 220.2 75.8002C220.2 76.0002 220 76.2002 219.8 76.3002C219.5 76.5002 219.1 76.6002 218.7 76.8002C218.3 77.0002 217.8 77.2002 217.4 77.3002C216.8 77.6002 216.4 77.7002 216.1 77.8002ZM218.5 72.3002H224.4V71.7002H218.5V72.3002ZM218.5 70.6002H224.4C224.4 70.4002 224.3 70.2002 224.1 70.1002C223.9 70.0002 223.7 70.0002 223.3 70.0002H219.6C219.2 70.0002 219 70.0002 218.8 70.1002C218.6 70.2002 218.5 70.3002 218.5 70.6002ZM219.6 74.0002H223.3C223.7 74.0002 224 74.0002 224.1 73.9002C224.2 73.8002 224.3 73.6002 224.4 73.4002H218.5C218.5 73.7002 218.6 73.8002 218.8 73.9002C218.9 74.0002 219.2 74.0002 219.6 74.0002ZM224.8 68.1002C224.2 68.1002 223.7 68.0002 223.4 67.9002C223 67.8002 222.8 67.6002 222.6 67.2002C222.4 66.9002 222.4 66.4002 222.4 65.8002C222.4 65.2002 222.5 64.7002 222.6 64.4002C222.8 64.1002 223 63.9002 223.4 63.7002C223.8 63.6002 224.2 63.5002 224.8 63.5002H225.7C226.3 63.5002 226.8 63.6002 227.1 63.7002C227.5 63.8002 227.7 64.0002 227.9 64.4002C228.1 64.7002 228.1 65.2002 228.1 65.8002C228.1 66.4002 228 66.8002 227.9 67.2002C227.7 67.5002 227.5 67.7002 227.1 67.9002C226.7 68.0002 226.3 68.1002 225.7 68.1002H224.8ZM224.9 66.7002H225.7C226.1 66.7002 226.3 66.6002 226.4 66.5002C226.5 66.4002 226.6 66.2002 226.6 65.9002C226.6 65.6002 226.5 65.4002 226.4 65.3002C226.3 65.2002 226.1 65.1002 225.7 65.1002H224.9C224.5 65.1002 224.3 65.2002 224.2 65.3002C224.1 65.4002 224 65.6002 224 65.9002C224 66.2002 224.1 66.4002 224.2 66.5002C224.3 66.6002 224.5 66.7002 224.9 66.7002Z" fill="white"/>
<path d="M234.3 77.8C234.1 77.8 233.8 77.7 233.7 77.6C233.5 77.4 233.4 77.2 233.4 77V72.9C233.1 73.1 232.8 73.4 232.4 73.6C232.1 73.9 231.8 74 231.6 74.2C231.4 74.3 231.1 74.4 230.8 74.4C230.5 74.4 230.3 74.2 230.2 73.9C230.1 73.7 230 73.4 230.1 73.2C230.2 73 230.3 72.8 230.5 72.6C230.6 72.5 230.8 72.4 231.1 72.2C231.3 72 231.6 71.8 231.9 71.6C232.2 71.4 232.4 71.2 232.7 71C233 70.8 233.2 70.7 233.3 70.5V68.5C233.2 68.7 233.1 68.8 232.9 68.9C232.7 69 232.4 69.1 232.2 69C231.9 68.9 231.8 68.8 231.6 68.5C231.5 68.4 231.4 68.2 231.3 67.9C231.2 67.7 231 67.4 230.9 67.2C230.8 67 230.7 66.8 230.6 66.6C230.5 66.4 230.4 66.2 230.5 65.9C230.6 65.7 230.7 65.5 231 65.3C231.2 65.2 231.5 65.1 231.7 65.2C231.9 65.3 232.1 65.4 232.3 65.6C232.4 65.7 232.5 65.9 232.6 66.2C232.7 66.5 232.9 66.7 233 67C233.1 67.2 233.2 67.4 233.3 67.6V67.7V63.9C233.3 63.6 233.4 63.4 233.6 63.2C233.8 63 234 63 234.2 63C234.4 63 234.7 63.1 234.8 63.2C235 63.4 235.1 63.6 235.1 63.9V76.7C235.1 77 235 77.2 234.8 77.3C234.8 77.7 234.6 77.8 234.3 77.8ZM243.7 77.2C242.9 76.6 242.2 75.9 241.6 75.1C241 74.3 240.6 73.5 240.2 72.6C239.9 73.5 239.5 74.3 239 75.1C238.5 75.9 237.8 76.6 237 77.2C236.8 77.4 236.5 77.4 236.3 77.4C236 77.4 235.8 77.3 235.6 77C235.5 76.8 235.4 76.6 235.4 76.3C235.4 76.1 235.6 75.9 235.8 75.7C237.8 74.3 239 72.2 239.2 69.5H236.5C236.3 69.5 236.1 69.4 235.9 69.2C235.7 69 235.6 68.8 235.6 68.6C235.6 68.4 235.7 68.1 235.9 68C236.1 67.8 236.3 67.7 236.5 67.7H239.2V64.1C239.2 63.8 239.3 63.6 239.5 63.4C239.7 63.2 239.9 63.2 240.1 63.2C240.4 63.2 240.6 63.3 240.7 63.4C240.9 63.6 241 63.8 241 64.1V67.7H244.2C244.4 67.7 244.7 67.8 244.8 68C245 68.2 245.1 68.4 245.1 68.6C245.1 68.8 245 69 244.8 69.2C244.6 69.4 244.4 69.5 244.2 69.5H241C241.1 70.9 241.6 72.1 242.2 73.1C242.8 74.1 243.7 75 244.8 75.7C245 75.8 245.1 76 245.2 76.3C245.3 76.6 245.2 76.8 245 77C244.8 77.2 244.6 77.4 244.3 77.4C244 77.4 243.9 77.4 243.7 77.2ZM244.4 66.9C244.2 67 244 67.1 243.8 67.1C243.6 67.1 243.4 67 243.2 66.8C243.1 66.7 243 66.6 242.9 66.4C242.7 66.2 242.6 66 242.4 65.9C242.2 65.7 242.1 65.6 242 65.5C241.9 65.3 241.8 65.1 241.8 64.9C241.8 64.7 241.9 64.5 242.1 64.4C242.3 64.2 242.5 64.2 242.7 64.2C242.9 64.2 243.1 64.3 243.3 64.5C243.4 64.6 243.5 64.7 243.7 64.9C243.9 65.1 244 65.2 244.2 65.4C244.4 65.6 244.5 65.7 244.5 65.8C244.7 66 244.8 66.2 244.8 66.5C244.7 66.5 244.6 66.7 244.4 66.9Z" fill="white"/>
<path d="M249.3 77.1002C249 77.1002 248.8 77.1002 248.6 76.9002C248.4 76.7002 248.3 76.5002 248.2 76.3002C248.1 75.9002 248.1 75.5002 248.1 74.9002C248.1 74.3002 248 73.6002 248 72.9002C248 72.1002 248 71.4002 248 70.5002C248 69.7002 248 68.9002 248.1 68.1002C248.1 67.3002 248.2 66.6002 248.3 66.0002C248.4 65.4002 248.5 64.9002 248.5 64.5002C248.6 64.2002 248.7 64.0002 248.9 63.9002C249.1 63.8002 249.4 63.7002 249.6 63.8002C249.9 63.9002 250.1 64.0002 250.2 64.2002C250.3 64.4002 250.4 64.7002 250.3 64.9002C250.2 65.3002 250.1 65.8002 250.1 66.4002C250 67.0002 250 67.7002 249.9 68.4002C249.9 69.1002 249.8 69.8002 249.8 70.6002C249.8 71.3002 249.8 72.1002 249.8 72.8002C249.8 73.5002 249.8 74.1002 249.9 74.7002C249.9 75.3002 250 75.7002 250.1 76.1002C250.2 76.4002 250.1 76.6002 249.9 76.8002C249.8 76.9002 249.6 77.1002 249.3 77.1002ZM254.6 77.1002C253.7 77.1002 253.1 76.9002 252.5 76.5002C252 76.1002 251.7 75.5002 251.7 74.7002C251.7 73.9002 252 73.3002 252.5 72.9002C253 72.5002 253.7 72.2002 254.6 72.2002C254.9 72.2002 255.2 72.2002 255.4 72.2002C255.4 71.7002 255.4 71.2002 255.4 70.6002C255.4 70.0002 255.4 69.4002 255.3 68.8002C254.7 68.8002 254.2 68.9002 253.7 68.9002C253.2 68.9002 252.7 68.9002 252.3 68.9002C252 68.9002 251.8 68.8002 251.6 68.6002C251.4 68.4002 251.3 68.2002 251.4 67.9002C251.4 67.6002 251.5 67.4002 251.7 67.3002C251.9 67.2002 252.1 67.0002 252.4 67.1002C252.8 67.1002 253.2 67.1002 253.7 67.1002C254.2 67.1002 254.7 67.1002 255.3 67.0002C255.3 66.6002 255.3 66.2002 255.3 65.8002C255.3 65.4002 255.3 65.1002 255.3 64.7002C255.3 64.4002 255.4 64.2002 255.6 64.0002C255.8 63.8002 256 63.7002 256.3 63.7002C256.6 63.7002 256.8 63.8002 257 64.0002C257.2 64.2002 257.3 64.4002 257.3 64.7002C257.3 65.0002 257.3 65.4002 257.3 65.7002C257.3 66.1002 257.3 66.4002 257.3 66.8002C257.8 66.8002 258.2 66.7002 258.6 66.7002C259 66.7002 259.3 66.6002 259.6 66.6002C259.9 66.5002 260.1 66.6002 260.3 66.8002C260.5 67.0002 260.6 67.2002 260.7 67.4002C260.7 67.7002 260.7 67.9002 260.5 68.1002C260.3 68.3002 260.1 68.4002 259.9 68.5002C259.6 68.5002 259.2 68.6002 258.8 68.6002C258.4 68.6002 257.9 68.7002 257.4 68.7002C257.4 69.4002 257.4 70.2002 257.5 70.9002C257.6 71.6002 257.5 72.2002 257.5 72.7002C258.1 72.9002 258.6 73.1002 259.2 73.4002C259.8 73.7002 260.2 73.9002 260.6 74.2002C260.8 74.4002 260.9 74.6002 261 74.8002C261 75.1002 261 75.3002 260.8 75.5002C260.7 75.7002 260.4 75.8002 260.2 75.9002C259.9 76.0002 259.7 75.9002 259.5 75.7002C259.2 75.5002 258.9 75.3002 258.6 75.1002C258.3 74.9002 257.9 74.7002 257.6 74.6002C257.4 76.3002 256.5 77.1002 254.6 77.1002ZM254.6 75.3002C255.3 75.3002 255.6 75.0002 255.6 74.4002V74.3002C255.6 74.2002 255.6 74.2002 255.6 74.1002C255.3 74.0002 255 74.0002 254.6 74.0002C254.3 74.0002 254 74.1002 253.9 74.2002C253.8 74.3002 253.7 74.5002 253.7 74.7002C253.7 74.9002 253.8 75.1002 253.9 75.2002C254.1 75.2002 254.3 75.3002 254.6 75.3002Z" fill="white"/>
<path d="M274.8 76C273.2 76.4 271.8 76.5 270.5 76.5C269.2 76.5 268.2 76.2 267.3 75.8C266.5 75.4 265.9 74.7 265.5 73.9C265.4 73.7 265.4 73.4 265.5 73.2C265.6 73 265.8 72.8 266 72.7C266.2 72.6 266.5 72.6 266.7 72.7C266.9 72.8 267.1 73 267.2 73.2C267.4 73.7 267.8 74 268.4 74.3C269 74.5 269.8 74.7 270.8 74.7C271.8 74.7 272.9 74.5 274.2 74.2C274.5 74.1 274.7 74.2 274.9 74.3C275.1 74.4 275.3 74.6 275.3 74.9C275.4 75.2 275.3 75.4 275.2 75.6C275.1 75.8 275.1 76 274.8 76ZM273.4 67.3C272.8 67.2 272.2 67 271.6 67C271 67 270.3 66.9 269.7 66.9C269.1 66.9 268.5 66.9 267.9 67C267.6 67 267.4 67 267.2 66.8C267 66.6 266.9 66.4 266.8 66.2C266.8 65.9 266.8 65.7 267 65.5C267.2 65.3 267.4 65.2 267.6 65.1C268.2 65 268.9 65 269.7 65C270.5 65 271.2 65.1 271.9 65.2C272.6 65.3 273.3 65.4 273.8 65.5C274.1 65.6 274.3 65.7 274.4 65.9C274.5 66.1 274.6 66.4 274.5 66.6C274.4 66.9 274.3 67.1 274.1 67.2C273.9 67.3 273.6 67.3 273.4 67.3Z" fill="white"/>
<path d="M286.3 77.6006C286 77.6006 285.8 77.5006 285.6 77.3006C285.4 77.1006 285.3 76.9006 285.3 76.6006C285.3 76.3006 285.4 76.1006 285.6 75.9006C285.8 75.7006 286 75.6006 286.3 75.6006C287.8 75.6006 288.9 75.3006 289.6 74.8006C290.3 74.3006 290.6 73.6006 290.6 72.7006C290.6 72.2006 290.4 71.8006 290.1 71.5006C289.8 71.2006 289.3 71.0006 288.8 71.0006C288.3 70.9006 287.7 71.0006 287.1 71.2006C286.5 71.4006 285.9 71.8006 285.2 72.3006C285 72.4006 284.9 72.5006 284.6 72.5006C284.4 72.5006 284.2 72.5006 284 72.3006C283.8 72.2006 283.7 72.0006 283.6 71.8006C283.5 71.6006 283.5 71.4006 283.6 71.2006C283.7 70.7006 283.9 70.1006 284 69.4006C284.1 68.7006 284.2 68.0006 284.3 67.3006C283.8 67.3006 283.3 67.3006 282.8 67.3006C282.3 67.3006 281.9 67.3006 281.6 67.3006C281.3 67.3006 281.1 67.2006 281 67.0006C280.8 66.8006 280.8 66.6006 280.8 66.3006C280.8 66.0006 280.9 65.8006 281.1 65.7006C281.3 65.5006 281.5 65.5006 281.8 65.5006C282.2 65.5006 282.6 65.6006 283 65.6006C283.4 65.6006 283.9 65.6006 284.4 65.6006C284.4 65.3006 284.4 65.0006 284.4 64.8006C284.4 64.6006 284.4 64.3006 284.4 64.1006C284.4 63.8006 284.5 63.6006 284.7 63.4006C284.9 63.2006 285.1 63.1006 285.4 63.1006C285.7 63.1006 285.9 63.2006 286.1 63.4006C286.3 63.6006 286.4 63.8006 286.4 64.1006C286.4 64.3006 286.4 64.5006 286.4 64.7006C286.4 64.9006 286.4 65.2006 286.3 65.5006C287.4 65.4006 288.3 65.3006 289.1 65.1006C289.4 65.0006 289.6 65.1006 289.8 65.2006C290 65.3006 290.1 65.5006 290.2 65.8006C290.3 66.1006 290.2 66.3006 290.1 66.5006C290 66.7006 289.8 66.8006 289.5 66.9006C289 67.0006 288.5 67.1006 287.9 67.1006C287.3 67.2006 286.7 67.2006 286.1 67.3006C286 67.8006 286 68.2006 285.9 68.7006C285.8 69.2006 285.8 69.6006 285.7 69.9006C286.3 69.6006 286.9 69.3006 287.5 69.2006C288.1 69.1006 288.7 69.1006 289.3 69.2006C289.9 69.3006 290.4 69.5006 290.9 69.8006C291.4 70.1006 291.7 70.5006 292 70.9006C292.3 71.3006 292.4 71.9006 292.4 72.6006C292.4 74.1006 291.9 75.3006 290.8 76.1006C289.7 77.1006 288.2 77.5006 286.3 77.6006Z" fill="white"/>
<path d="M302.1 77.1004C301.8 77.1004 301.6 77.0004 301.4 76.8004C301.2 76.6004 301.1 76.4004 301.1 76.1004C301.1 75.8004 301.2 75.6004 301.4 75.4004C301.6 75.2004 301.8 75.1004 302.1 75.1004C305.1 75.0004 306.6 74.2004 306.6 72.5004C306.6 72.0004 306.4 71.5004 306 71.2004C305.6 70.9004 305.1 70.7004 304.5 70.7004C303.8 70.7004 303.1 70.9004 302.4 71.2004C301.7 71.5004 301 72.0004 300.4 72.7004C300.3 72.9004 300.1 73.0004 299.9 73.0004C299.7 73.0004 299.5 73.0004 299.3 72.9004C299.1 72.8004 299 72.7004 298.9 72.5004C298.8 72.3004 298.8 72.1004 298.8 71.9004C298.9 71.5004 299 71.0004 299 70.4004C299.1 69.9004 299.2 69.3004 299.3 68.8004C299.4 68.3004 299.5 67.8004 299.6 67.3004C299.7 67.0004 299.8 66.8004 300 66.7004C300.2 66.6004 300.5 66.5004 300.7 66.6004C301 66.7004 301.2 66.8004 301.3 67.0004C301.4 67.2004 301.5 67.5004 301.4 67.7004C301.3 68.0004 301.2 68.3004 301.1 68.7004C301 69.1004 300.9 69.5004 300.8 69.9004C302 69.1004 303.2 68.7004 304.4 68.7004C305.2 68.7004 305.9 68.8004 306.5 69.1004C307.1 69.4004 307.5 69.8004 307.9 70.3004C308.2 70.8004 308.4 71.5004 308.4 72.2004C308.4 73.5004 307.9 74.6004 306.8 75.4004C305.8 76.6004 304.2 77.0004 302.1 77.1004ZM304.6 67.0004C304.3 66.8004 303.9 66.6004 303.4 66.4004C302.9 66.2004 302.5 66.0004 302.1 65.8004C301.7 65.6004 301.3 65.5004 301 65.3004C300.8 65.2004 300.6 65.0004 300.5 64.8004C300.4 64.5004 300.4 64.3004 300.5 64.1004C300.6 63.9004 300.8 63.7004 301 63.6004C301.2 63.5004 301.5 63.5004 301.7 63.6004C302.1 63.7004 302.4 63.9004 302.8 64.1004C303.2 64.3004 303.6 64.5004 304 64.6004C304.4 64.7004 304.8 65.0004 305.1 65.1004C305.3 65.2004 305.5 65.4004 305.6 65.6004C305.7 65.8004 305.7 66.1004 305.6 66.3004C305.5 66.5004 305.3 66.7004 305.1 66.8004C305.1 67.2004 304.9 67.2004 304.6 67.0004Z" fill="white"/>
</g>
<defs>
<clipPath id="clip0_109_57">
<rect width="410" height="100" fill="white"/>
</clipPath>
</defs>
</svg>
