<svg width="95" height="58" viewBox="0 0 95 58" fill="none" xmlns="http://www.w3.org/2000/svg">
<path d="M0.900066 18.7004C1.10007 17.9004 1.50007 17.7004 2.10007 17.9004C2.90007 18.1004 4.30007 18.5004 6.10007 18.5004C8.30007 18.5004 9.30007 17.3004 9.30007 15.7004C9.30007 11.5004 0.900066 12.9004 0.900066 6.30039C0.900066 2.90039 3.70007 0.900391 7.30007 0.900391C9.10007 0.900391 10.3001 1.30039 11.1001 1.50039C11.7001 1.90039 12.1001 2.50039 11.9001 3.10039L11.7001 3.70039C11.5001 4.30039 10.9001 4.70039 10.3001 4.50039C9.50007 4.10039 8.50007 3.90039 7.30007 3.90039C5.30007 3.90039 4.30007 4.90039 4.30007 6.50039C4.30007 10.1004 12.7001 9.30039 12.7001 15.9004C12.7001 19.3004 10.1001 21.5004 6.10007 21.5004C4.30007 21.5004 2.70007 21.1004 1.50007 20.7004C0.700066 20.5004 0.500066 20.1004 0.700066 19.3004L0.900066 18.7004Z" fill="white"/>
<path d="M15.7 8.30059C15.7 3.70059 18.5 1.10059 22.9 1.10059C24.9 1.10059 26.5 1.50059 27.7 1.70059C28.3 1.90059 28.5 2.30059 28.3 2.90059L28.1 3.90059C27.9 4.50059 27.5 4.70059 26.9 4.50059C26.1 4.30059 24.9 4.10059 23.3 4.10059C20.5 4.10059 19.1 5.70059 19.1 8.90059V14.1006C19.1 17.3006 20.3 18.9006 23.3 18.9006C25.1 18.9006 26.3 18.5006 26.9 18.5006C27.5 18.3006 27.9 18.7006 27.9 19.1006L28.1 20.1006C28.3 20.5006 27.9 21.1006 27.5 21.3006C26.7 21.5006 25.1 21.9006 22.7 21.9006C18.3 21.9006 15.5 19.3006 15.5 14.7006V8.30059H15.7Z" fill="white"/>
<path d="M32.1001 3.30059C32.1001 2.70059 32.5001 2.10059 33.3001 1.90059C34.3001 1.50059 36.3001 1.10059 38.3001 1.10059C42.5001 1.10059 44.9001 4.10059 44.9001 7.50059C44.9001 9.30059 43.9001 12.1006 40.9001 13.3006L44.1001 19.9006C44.5001 20.5006 44.1001 21.1006 43.3001 21.1006H41.9001C41.3001 21.1006 40.9001 20.7006 40.5001 20.1006L37.5001 13.7006H35.5001V19.9006C35.5001 20.5006 35.1001 21.1006 34.5001 21.1006H33.3001C32.7001 21.1006 32.1001 20.7006 32.1001 19.9006V3.30059ZM37.9001 10.9006C40.1001 10.9006 41.3001 9.30059 41.3001 7.30059C41.3001 5.50059 40.5001 3.70059 38.3001 3.70059C37.3001 3.70059 36.3001 3.90059 35.5001 4.10059V10.7006H37.9001V10.9006Z" fill="white"/>
<path d="M47.7 9.30059C47.7 4.50059 50.4999 1.10059 55.2999 1.10059C60.0999 1.10059 62.9 4.50059 62.9 9.30059V13.1006C62.9 17.9006 60.0999 21.3006 55.2999 21.3006C50.4999 21.3006 47.7 17.9006 47.7 13.1006V9.30059ZM55.2999 18.5006C58.6999 18.5006 59.5 15.9006 59.5 12.9006V9.70059C59.5 6.70059 58.4999 4.10059 55.2999 4.10059C51.8999 4.10059 51.0999 6.70059 51.0999 9.70059V12.9006C51.0999 15.9006 52.0999 18.5006 55.2999 18.5006Z" fill="white"/>
<path d="M66.9001 2.50078C66.9001 1.90078 67.3001 1.30078 68.1001 1.30078H69.3001C69.9001 1.30078 70.3001 1.70078 70.3001 2.50078V18.1008H77.7001C78.3001 18.1008 78.9001 18.5008 78.9001 19.3008V19.9008C78.9001 20.5008 78.5001 21.1008 77.7001 21.1008H68.1001C67.5001 21.1008 66.9001 20.7008 66.9001 19.9008V2.50078Z" fill="white"/>
<path d="M82.3001 2.50078C82.3001 1.90078 82.7001 1.30078 83.5001 1.30078H84.7001C85.1001 1.50078 85.5001 1.90078 85.5001 2.50078V18.1008H92.9001C93.5001 18.1008 94.1001 18.5008 94.1001 19.3008V19.9008C94.1001 20.5008 93.7001 21.1008 92.9001 21.1008H83.3001C82.7001 21.1008 82.1001 20.7008 82.1001 19.9008V2.50078H82.3001Z" fill="white"/>
<path d="M47.5002 57.8973C47.1002 57.8973 46.7002 57.6973 46.3002 57.4973L28.7002 45.4973C27.7002 44.8973 27.5002 43.6973 28.1002 42.6973C28.7002 41.6973 29.9002 41.4973 30.9002 42.0973L47.5002 53.2973L64.1002 42.0973C65.1002 41.4973 66.3002 41.6973 66.9002 42.6973C67.5002 43.6973 67.3002 44.8973 66.3002 45.4973L48.7002 57.4973C48.3002 57.6973 47.9002 57.8973 47.5002 57.8973Z" fill="white"/>
</svg>
