<?xml version="1.0" encoding="UTF-8"?><svg id="_レイヤー_2" xmlns="http://www.w3.org/2000/svg" viewBox="0 0 22.32 19.59"><defs><style>.cls-1{fill:#010f32;stroke-width:0px;}</style></defs><g id="pattern"><polygon class="cls-1" points="8.32 7.36 7.57 7.08 6.91 6.69 6.35 6.14 5.94 5.48 5.66 4.75 5.56 3.97 5.39 3.2 5.45 2.42 5.71 1.68 5.98 1.01 6.54 .55 7.11 .14 7.8 0 8.51 .04 9.24 .31 9.89 .75 10.32 1.42 10.6 2.14 10.86 2.89 10.8 3.68 10.81 4.52 10.75 5.36 10.45 6.16 9.89 6.8 9.13 7.11 8.32 7.36"/><polygon class="cls-1" points="14.08 .8 14.81 .61 15.58 .59 16.32 .87 16.96 1.32 17.49 1.89 17.75 2.64 17.73 3.38 17.76 4.13 17.49 4.83 17.33 5.57 16.88 6.17 16.43 6.77 15.82 7.21 15.13 7.52 14.32 7.52 13.61 7.24 13.07 6.67 12.68 5.98 12.47 5.2 12.36 4.41 12.39 3.61 12.53 2.75 12.87 1.96 13.31 1.21 14.08 .8"/><polygon class="cls-1" points="21.17 6.22 21.74 6.86 22.19 7.58 22.32 8.42 22.27 9.27 22.29 10.1 22.05 10.9 21.66 11.64 21.13 12.28 20.48 12.79 19.77 13.22 18.94 13.22 18.14 13.11 17.45 12.66 17.03 11.95 16.84 11.14 16.66 10.32 16.85 9.49 17.02 8.68 17.3 7.94 17.68 7.26 18.15 6.61 18.85 6.22 19.59 5.93 20.4 5.97 21.17 6.22"/><polygon class="cls-1" points="1.26 5.01 2.01 4.74 2.81 4.79 3.59 5.05 4.3 5.49 4.79 6.15 5.28 6.81 5.61 7.55 5.82 8.34 5.96 9.08 5.95 9.84 5.83 10.58 5.6 11.29 5.05 11.78 4.39 12.18 3.62 12.17 2.88 12.1 2.2 11.78 1.54 11.38 1.05 10.8 .68 10.12 .29 9.41 .1 8.61 0 7.81 .08 7 .23 6.21 .68 5.55 1.26 5.01"/><polygon class="cls-1" points="4.41 16.8 4.46 15.95 4.61 15.11 4.9 14.3 5.46 13.65 5.95 12.95 6.66 12.48 7.17 11.82 7.72 11.22 8.23 10.57 8.86 10.02 9.7 9.88 10.47 9.7 11.25 9.61 12.03 9.69 12.67 10.13 13.31 10.52 13.97 10.95 14.49 11.52 14.86 12.23 15.59 12.58 16.03 13.22 16.46 13.83 16.92 14.42 17.38 15.03 17.43 15.81 17.52 16.54 17.72 17.3 17.34 17.98 17 18.68 16.37 19.12 15.66 19.38 14.92 19.51 14.18 19.41 13.45 19.32 12.69 19.22 11.95 19.08 11.21 18.98 10.43 18.91 9.68 19.1 9.01 19.53 8.21 19.49 7.47 19.57 6.71 19.59 5.95 19.45 5.39 18.84 4.89 18.26 4.57 17.57 4.41 16.8"/></g></svg>