<?xml version="1.0" encoding="UTF-8"?><svg id="_レイヤー_1" xmlns="http://www.w3.org/2000/svg" viewBox="0 0 390.7 386.54"><defs><style>.cls-1{fill:#010f32;stroke-width:0px;}</style></defs><path class="cls-1" d="m371.84,0h-116.39c-10.42,0-18.86,8.45-18.86,18.86s8.44,18.86,18.86,18.86h57.52l-93.66,93.66c-11.05,11.05-11.05,28.96,0,40.02,5.52,5.52,12.76,8.28,20,8.28s14.48-2.76,20-8.28l93.65-93.65v57.51c0,10.41,8.44,18.86,18.86,18.86s18.86-8.45,18.86-18.86V18.86c0-10.41-8.44-18.86-18.86-18.86Z"/><path class="cls-1" d="m331.65,202.76c-11.05,0-20,8.95-20,20v104c0,10.91-8.87,19.78-19.78,19.78H59.78c-10.91,0-19.78-8.88-19.78-19.78V94.67c0-10.91,8.87-19.78,19.78-19.78h96c11.05,0,20-8.95,20-20s-8.95-20-20-20H59.78C26.82,34.89,0,61.71,0,94.67v232.09c0,32.96,26.82,59.78,59.78,59.78h232.09c32.96,0,59.78-26.82,59.78-59.78v-104c0-11.05-8.95-20-20-20Z"/></svg>