<svg width="681" height="311" viewBox="0 0 681 311" fill="none" xmlns="http://www.w3.org/2000/svg">
<g clip-path="url(#clip0_489_164)">
<path d="M300.08 70.2598V53.2598H380.08V70.2598L340.08 95.5998L300.08 70.2598Z" fill="#F8DB6C"/>
<path d="M680.5 61.4C680.5 66.9 676 71.4 670.5 71.38L10.5 70.02C5 70.02 0.5 65.5 0.5 60V10.48C0.5 4.98 5 0.5 10.5 0.5L670.5 1.86C676 1.86 680.5 6.38 680.5 11.88V61.4Z" fill="#F8DB6C"/>
<path d="M169.06 48.6205C170.54 48.6205 171.3 49.7805 171.3 51.3005C171.3 52.8205 170.54 54.1605 169.06 54.1605H147.98C145.92 54.1605 144.84 52.9005 144.84 50.6805C144.84 49.0205 145.92 46.7405 146.82 45.2605C148.3 42.7205 150.72 39.9405 155.02 37.0805L157.76 35.2405C162.06 32.3805 164.36 30.8205 164.36 27.5005C164.36 24.4605 161.94 22.7205 158.3 22.7205C153.86 22.7205 152.34 25.1805 151.54 28.0005C151.18 29.3005 150.1 29.8805 148.9 29.8805C148.54 29.8805 148.18 29.8405 147.82 29.7405C146.38 29.4205 145.36 28.5805 145.36 27.2005C145.36 26.9405 145.4 26.6205 145.5 26.2605C145.94 24.4205 146.98 22.5405 148.32 21.2005C150.56 18.8205 153.62 17.4805 158.5 17.4805C166.08 17.4805 170.6 21.2005 170.6 27.5005C170.6 33.0805 167.42 35.6405 162.84 38.4605L160.2 40.0805C155.62 42.9005 152.98 45.4005 151.82 48.6205H169.08H169.06Z" fill="#010F32"/>
<path d="M204.16 48.6205C205.64 48.6205 206.4 49.7805 206.4 51.3005C206.4 52.8205 205.64 54.1605 204.16 54.1605H183.08C181.02 54.1605 179.94 52.9005 179.94 50.6805C179.94 49.0205 181.02 46.7405 181.92 45.2605C183.4 42.7205 185.82 39.9405 190.12 37.0805L192.86 35.2405C197.16 32.3805 199.44 30.8205 199.44 27.5005C199.44 24.4605 197.02 22.7205 193.38 22.7205C188.94 22.7205 187.42 25.1805 186.62 28.0005C186.26 29.3005 185.18 29.8805 183.98 29.8805C183.62 29.8805 183.26 29.8405 182.9 29.7405C181.46 29.4205 180.44 28.5805 180.44 27.2005C180.44 26.9405 180.48 26.6205 180.58 26.2605C181.02 24.4205 182.06 22.5405 183.4 21.2005C185.64 18.8205 188.7 17.4805 193.58 17.4805C201.16 17.4805 205.68 21.2005 205.68 27.5005C205.68 33.0805 202.5 35.6405 197.92 38.4605L195.28 40.0805C190.7 42.9005 188.06 45.4005 186.9 48.6205H204.16Z" fill="#010F32"/>
<path d="M239.26 48.6205C240.74 48.6205 241.5 49.7805 241.5 51.3005C241.5 52.8205 240.74 54.1605 239.26 54.1605H218.18C216.12 54.1605 215.04 52.9005 215.04 50.6805C215.04 49.0205 216.12 46.7405 217.02 45.2605C218.5 42.7205 220.92 39.9405 225.22 37.0805L227.96 35.2405C232.26 32.3805 234.56 30.8205 234.56 27.5005C234.56 24.4605 232.14 22.7205 228.5 22.7205C224.06 22.7205 222.54 25.1805 221.74 28.0005C221.38 29.3005 220.3 29.8805 219.1 29.8805C218.74 29.8805 218.38 29.8405 218.02 29.7405C216.58 29.4205 215.56 28.5805 215.56 27.2005C215.56 26.9405 215.6 26.6205 215.7 26.2605C216.14 24.4205 217.18 22.5405 218.52 21.2005C220.76 18.8205 223.82 17.4805 228.7 17.4805C236.28 17.4805 240.8 21.2005 240.8 27.5005C240.8 33.0805 237.62 35.6405 233.04 38.4605L230.4 40.0805C225.82 42.9005 223.18 45.4005 222.02 48.6205H239.28H239.26Z" fill="#010F32"/>
<path d="M253.14 53.4006C251.6 53.4006 250.74 52.6405 250.6 51.1405C250.54 50.5005 250.7 49.9405 251.06 49.4805C251.42 49.0005 251.92 48.7205 252.56 48.6405C253.36 48.5405 253.88 48.3605 254.12 48.1205C254.36 47.8805 254.48 47.4405 254.48 46.7605V40.5605C253.42 40.9805 252.56 41.3205 251.94 41.5605C251.2 41.8205 250.52 41.8205 249.88 41.5205C249.26 41.2205 248.86 40.7805 248.66 40.1605C248.48 39.4805 248.5 38.8405 248.76 38.2805C249.02 37.7205 249.52 37.3205 250.3 37.1005C250.88 36.9405 251.54 36.7405 252.28 36.5205C253.02 36.3005 253.74 36.0605 254.5 35.7805V28.6605H251.08C250.42 28.6605 249.88 28.4405 249.48 28.0005C249.08 27.5605 248.88 27.0605 248.88 26.4805C248.88 25.9005 249.08 25.3605 249.48 24.9405C249.88 24.5205 250.4 24.3005 251.08 24.3005H254.5V18.7805C254.5 18.1005 254.72 17.5405 255.16 17.1605C255.6 16.7805 256.12 16.5605 256.74 16.5605C257.36 16.5605 257.92 16.7605 258.36 17.1605C258.8 17.5605 259.02 18.1005 259.02 18.7805V24.3005H260.98C261.66 24.3005 262.2 24.5205 262.6 24.9405C263 25.3605 263.18 25.8805 263.18 26.4805C263.18 27.0805 262.98 27.5805 262.6 28.0005C262.22 28.4405 261.68 28.6605 260.98 28.6605H259.02V34.1805C259.32 34.0805 259.6 33.9805 259.86 33.8805C260.12 33.7805 260.38 33.6805 260.62 33.5805C261.24 33.3405 261.78 33.3405 262.28 33.5805C262.78 33.8205 263.1 34.2005 263.26 34.7405C263.28 34.8405 263.3 34.9405 263.32 35.0205C263.32 35.1005 263.36 35.1805 263.38 35.2605C263.44 34.7805 263.64 34.3805 263.98 34.0405C264.32 33.7005 264.76 33.5405 265.3 33.5405H276.82C278.18 33.5405 279.24 33.8405 279.98 34.4205C280.74 35.0005 281.18 35.7605 281.32 36.7005C281.46 37.6405 281.22 38.6405 280.64 39.7005C280.14 40.6605 279.58 41.5805 278.94 42.4605C278.32 43.3405 277.64 44.2005 276.88 45.0205C277.84 45.7605 278.9 46.4205 280.04 46.9605C281.2 47.5205 282.46 47.9605 283.8 48.2805C284.54 48.4605 285.08 48.8005 285.42 49.3005C285.76 49.8005 285.82 50.3805 285.6 51.0605C285.38 51.7205 284.96 52.1805 284.34 52.4605C283.72 52.7205 283.06 52.7606 282.36 52.5406C280.64 51.9806 279.04 51.3205 277.6 50.5605C276.16 49.8005 274.84 48.9405 273.68 47.9805C272.36 49.0405 270.92 49.9805 269.36 50.8005C267.8 51.6205 266.14 52.3005 264.36 52.8605C263.7 53.0805 263.08 53.0405 262.52 52.7605C261.96 52.4805 261.58 52.0605 261.36 51.4605C261.18 50.8805 261.2 50.3405 261.46 49.8405C261.72 49.3405 262.18 48.9805 262.84 48.7605C265.7 47.8405 268.3 46.5405 270.6 44.9005C269.72 43.8205 268.96 42.6605 268.28 41.4405C267.6 40.2205 267.06 38.9405 266.6 37.5805H265.24C264.74 37.5805 264.32 37.4205 263.96 37.1005C263.62 36.7805 263.4 36.4005 263.32 35.9405C263.26 36.2405 263.12 36.5005 262.9 36.7805C262.68 37.0405 262.34 37.2805 261.88 37.5005C261.5 37.6605 261.06 37.8405 260.56 38.0605C260.06 38.2805 259.52 38.5005 258.96 38.7405V47.7205C258.96 49.6205 258.5 51.0405 257.58 51.9805C256.66 52.9005 255.18 53.3805 253.14 53.3805V53.4006ZM266.56 32.6205C266.06 33.0205 265.46 33.2205 264.78 33.2205C264.1 33.2205 263.54 33.0005 263.08 32.5405C262.66 32.0805 262.46 31.5805 262.5 31.0005C262.54 30.4205 262.8 29.9205 263.28 29.5005C263.96 28.9405 264.5 28.3805 264.88 27.8205C265.26 27.2605 265.52 26.5605 265.68 25.7805C265.84 24.9805 265.92 23.9605 265.92 22.6805C265.94 21.4605 266.16 20.5005 266.54 19.7805C266.92 19.0605 267.58 18.5605 268.52 18.2605C269.44 17.9605 270.72 17.8005 272.34 17.8005C273.96 17.8005 275.24 17.9605 276.16 18.2605C277.08 18.5605 277.74 19.0805 278.14 19.7805C278.52 20.5005 278.72 21.4805 278.72 22.7205V26.9005C278.72 27.2805 278.82 27.5205 279.02 27.6605C279.22 27.8005 279.56 27.8605 280.04 27.8605C280.54 27.8605 280.88 27.7205 281.08 27.4405C281.26 27.1605 281.46 26.5805 281.64 25.6805C281.78 25.0805 282.1 24.6405 282.64 24.4005C283.18 24.1605 283.76 24.1005 284.4 24.2405C285 24.3805 285.46 24.6805 285.78 25.1605C286.1 25.6405 286.18 26.1805 286.08 26.7805C285.74 28.8005 285.08 30.2005 284.12 30.9805C283.16 31.7605 281.74 32.1605 279.86 32.1605C277.84 32.1605 276.42 31.8605 275.6 31.2605C274.78 30.6605 274.36 29.5405 274.36 27.8605V23.5605C274.36 22.8805 274.24 22.4205 273.98 22.2005C273.72 21.9805 273.2 21.8805 272.4 21.8805C271.6 21.8805 271.04 21.9805 270.78 22.2005C270.52 22.4205 270.4 22.8605 270.4 23.5605C270.38 25.6205 270.02 27.4205 269.34 28.9405C268.66 30.4605 267.74 31.7005 266.58 32.6605L266.56 32.6205ZM273.74 42.1205C274.16 41.6605 274.56 41.2205 274.92 40.7405C275.28 40.2805 275.6 39.8005 275.9 39.3205C276.64 38.1805 276.3 37.6205 274.86 37.6205H271C271.34 38.3805 271.74 39.1605 272.2 39.9205C272.66 40.6805 273.16 41.4205 273.76 42.1005L273.74 42.1205Z" fill="#010F32"/>
<path d="M300.24 53.5605C299.66 53.5605 299.16 53.3805 298.76 53.0005C298.36 52.6205 298.16 52.1205 298.16 51.4605V39.5805C297.76 40.3805 297.36 41.1405 296.98 41.8605C296.6 42.5805 296.22 43.2405 295.88 43.7805C295.56 44.2605 295.12 44.5605 294.54 44.7205C293.96 44.8605 293.42 44.8005 292.88 44.5405C292.38 44.2405 292.08 43.8005 292 43.1805C291.92 42.5605 292.06 42.0205 292.4 41.5605C292.82 40.9605 293.3 40.1805 293.84 39.2805C294.38 38.3805 294.9 37.3805 295.44 36.3405C295.98 35.3005 296.46 34.2605 296.94 33.2605C297.42 32.2605 297.78 31.3605 298.08 30.5605H294.54C293.9 30.5605 293.4 30.3605 293.02 29.9605C292.64 29.5605 292.46 29.0805 292.46 28.5005C292.46 27.9205 292.64 27.4605 293.02 27.0805C293.4 26.6805 293.9 26.4805 294.54 26.4805H298.16V23.2205C297.68 23.3205 297.22 23.4205 296.78 23.5205C296.34 23.6205 295.9 23.6805 295.44 23.7405C294.62 23.8405 294 23.7805 293.56 23.5205C293.14 23.2605 292.86 22.8605 292.72 22.2605C292.58 21.6205 292.68 21.1005 293 20.7005C293.32 20.2805 293.78 20.0405 294.4 19.9605C295.4 19.8205 296.48 19.6405 297.6 19.4005C298.72 19.1605 299.82 18.8805 300.86 18.5605C301.9 18.2405 302.8 17.9405 303.54 17.6405C304.16 17.4205 304.72 17.4205 305.28 17.6405C305.82 17.8405 306.18 18.2205 306.38 18.7805C306.56 19.2805 306.56 19.7605 306.36 20.2405C306.16 20.7005 305.8 21.0405 305.26 21.2605C304.8 21.4205 304.34 21.5805 303.84 21.7405C303.34 21.9005 302.84 22.0605 302.3 22.2205V26.5205H304.58C305.22 26.5205 305.72 26.7205 306.1 27.1205C306.48 27.5205 306.66 28.0005 306.66 28.5405C306.66 29.1205 306.48 29.6205 306.1 30.0005C305.72 30.4005 305.22 30.6005 304.58 30.6005H302.3V32.1005C302.68 32.5605 303.14 33.0805 303.68 33.7005C304.22 34.3205 304.78 34.9205 305.34 35.5005C305.9 36.0805 306.34 36.5405 306.7 36.9005C306.78 36.9605 306.88 37.0605 306.98 37.2205C307.86 35.9805 309.72 35.3605 312.56 35.3605H322.32C324.76 35.3605 326.44 35.7805 327.36 36.6205C328.28 37.4605 328.74 38.8605 328.74 40.8205V48.4405C328.74 50.1805 328.32 51.4605 327.46 52.2605C326.62 53.0605 325.28 53.4605 323.48 53.4605C322.86 53.4605 322.36 53.2805 321.94 52.9405C321.52 52.6005 321.28 52.1605 321.2 51.6205C321.1 50.9605 321.2 50.4205 321.58 50.0205C321.94 49.6005 322.42 49.3605 323.04 49.2805C323.62 49.2005 324 49.0605 324.18 48.8405C324.36 48.6205 324.44 48.2405 324.44 47.6805V41.5205C324.44 40.4605 324.26 39.7805 323.92 39.4605C323.58 39.1405 322.78 38.9805 321.52 38.9805H313.36C312.14 38.9805 311.34 39.1405 311 39.4605C310.64 39.7805 310.46 40.4605 310.46 41.5205V51.4605C310.46 52.1005 310.26 52.6205 309.84 53.0005C309.42 53.4005 308.92 53.6005 308.3 53.6005C307.68 53.6005 307.22 53.4005 306.78 53.0005C306.36 52.6005 306.14 52.0805 306.14 51.4605V40.4805C306.14 40.4805 306.14 40.2805 306.18 40.1805C305.36 40.5205 304.62 40.3605 303.94 39.6605C303.54 39.2005 303 38.5605 302.3 37.7205V51.5005C302.3 52.1605 302.1 52.6805 301.7 53.0405C301.3 53.4205 300.8 53.6005 300.18 53.6005L300.24 53.5605ZM307.46 24.0405C306.88 24.0405 306.42 23.8605 306.1 23.5005C305.78 23.1405 305.62 22.7205 305.62 22.2005C305.62 21.6605 305.78 21.2405 306.1 20.8805C306.42 20.5405 306.88 20.3605 307.46 20.3605H314.98V18.8605C314.98 18.1205 315.22 17.5405 315.68 17.1205C316.14 16.7005 316.7 16.4805 317.38 16.4805C318.06 16.4805 318.6 16.7005 319.06 17.1205C319.52 17.5405 319.74 18.1205 319.74 18.8605V20.3605H327.58C328.16 20.3605 328.62 20.5405 328.96 20.8805C329.3 21.2205 329.46 21.6605 329.46 22.2005C329.46 22.7005 329.3 23.1405 328.96 23.5005C328.62 23.8605 328.16 24.0405 327.58 24.0405H307.46ZM314.96 33.8605C313.4 33.8605 312.2 33.7405 311.38 33.5205C310.56 33.3005 310 32.8805 309.7 32.2605C309.4 31.6405 309.26 30.7805 309.26 29.6405C309.26 28.5005 309.4 27.6405 309.7 27.0405C310 26.4405 310.54 26.0405 311.38 25.8005C312.2 25.5805 313.4 25.4605 314.96 25.4605H320.14C321.74 25.4605 322.94 25.5805 323.74 25.8005C324.54 26.0205 325.1 26.4405 325.4 27.0405C325.7 27.6405 325.84 28.5005 325.84 29.6405C325.84 30.7805 325.7 31.6605 325.4 32.2605C325.1 32.8605 324.56 33.2805 323.74 33.5205C322.92 33.7405 321.72 33.8605 320.14 33.8605H314.96ZM317.44 49.3205C316.06 49.3205 315 49.2005 314.26 48.9605C313.52 48.7205 313 48.2805 312.72 47.6205C312.44 46.9805 312.3 46.0205 312.3 44.7805C312.3 43.5405 312.44 42.5805 312.72 41.9405C313 41.3005 313.52 40.8405 314.26 40.6005C315 40.3605 316.06 40.2405 317.44 40.2405C318.82 40.2405 319.92 40.3605 320.66 40.6005C321.4 40.8405 321.92 41.2805 322.2 41.9405C322.48 42.5805 322.62 43.5405 322.62 44.7805C322.62 46.0205 322.48 46.9805 322.2 47.6205C321.92 48.2605 321.4 48.7205 320.66 48.9605C319.92 49.2005 318.84 49.3205 317.44 49.3205ZM315.56 30.8005H319.54C320.42 30.8005 320.98 30.7405 321.24 30.6005C321.5 30.4605 321.62 30.1405 321.62 29.6405C321.62 29.1605 321.5 28.8605 321.24 28.7205C320.98 28.5805 320.42 28.5205 319.54 28.5205H315.56C314.68 28.5205 314.12 28.5805 313.86 28.7205C313.6 28.8605 313.48 29.1605 313.48 29.6405C313.48 30.1405 313.6 30.4605 313.86 30.6005C314.12 30.7405 314.68 30.8005 315.56 30.8005ZM317.44 46.4205C318.12 46.4205 318.56 46.3205 318.76 46.1205C318.94 45.9205 319.04 45.4805 319.04 44.7805C319.04 44.0805 318.94 43.6405 318.76 43.4405C318.58 43.2405 318.14 43.1405 317.44 43.1405C316.74 43.1405 316.36 43.2405 316.16 43.4405C315.98 43.6405 315.88 44.0805 315.88 44.7805C315.88 45.4805 315.98 45.9205 316.16 46.1205C316.34 46.3205 316.76 46.4205 317.44 46.4205Z" fill="#010F32"/>
<path d="M365.1 51.4004C361.96 50.9404 359.38 50.0404 357.34 48.6804C355.3 47.3204 353.78 45.6604 352.78 43.7404C351.78 41.8004 351.28 39.8004 351.28 37.7004C351.28 35.6004 351.7 33.6004 352.52 31.7604C353.34 29.9204 354.54 28.3204 356.1 26.9804C354.5 27.2204 352.8 27.5004 351 27.8004C349.2 28.1004 347.44 28.4004 345.76 28.7204C344.08 29.0204 342.6 29.3004 341.32 29.5404C340.66 29.6404 340.06 29.5004 339.54 29.1004C339.02 28.7004 338.7 28.1804 338.6 27.5604C338.5 26.9004 338.64 26.3004 339.02 25.8004C339.4 25.2804 339.94 24.9804 340.6 24.8604C341.44 24.7204 342.54 24.5404 343.86 24.3204C345.18 24.1004 346.68 23.8604 348.32 23.5804C349.96 23.3204 351.66 23.0404 353.38 22.7404C355.1 22.4404 356.8 22.1604 358.46 21.8804C360.12 21.6004 361.64 21.3404 363.02 21.1004C364.4 20.8604 365.52 20.6604 366.4 20.5004C367.02 20.4004 367.58 20.5204 368.14 20.9004C368.68 21.2804 369 21.7604 369.12 22.3604C369.26 23.0004 369.16 23.6004 368.82 24.1404C368.48 24.7004 368 25.0204 367.36 25.1404C365.5 25.4404 363.86 26.0004 362.46 26.8204C361.06 27.6404 359.86 28.6604 358.9 29.8404C357.94 31.0204 357.2 32.2604 356.7 33.5804C356.2 34.9004 355.96 36.1804 355.96 37.4604C355.96 40.0204 356.84 42.1004 358.58 43.6804C360.34 45.2604 362.72 46.2604 365.76 46.6804C366.4 46.7804 366.92 47.1004 367.32 47.6404C367.72 48.1804 367.86 48.7604 367.76 49.3804C367.68 50.0404 367.38 50.5804 366.84 50.9604C366.3 51.3404 365.72 51.5004 365.08 51.4004H365.1ZM370.16 35.1604C369.82 35.4604 369.4 35.5804 368.9 35.5204C368.4 35.4604 368.02 35.2404 367.72 34.8404C367.42 34.4604 367.06 34.0004 366.6 33.4204C366.14 32.8404 365.74 32.3604 365.36 31.9204C365.12 31.6204 365 31.2804 365.02 30.8604C365.02 30.4404 365.22 30.1004 365.56 29.8004C365.88 29.5004 366.24 29.3804 366.66 29.3804C367.08 29.3804 367.44 29.5404 367.8 29.8404C368.2 30.1804 368.66 30.6404 369.18 31.2004C369.7 31.7604 370.12 32.2604 370.48 32.7004C370.78 33.0804 370.88 33.5004 370.82 33.9804C370.76 34.4604 370.54 34.8404 370.16 35.1404V35.1604ZM373.98 31.7404C373.64 32.0804 373.22 32.2404 372.72 32.2204C372.22 32.2004 371.82 32.0004 371.5 31.6204C371.18 31.2404 370.78 30.8004 370.28 30.2604C369.78 29.7404 369.34 29.2604 368.94 28.8604C368.68 28.6004 368.54 28.2604 368.52 27.8204C368.52 27.4004 368.66 27.0204 368.98 26.7004C369.28 26.4004 369.64 26.2604 370.06 26.2404C370.48 26.2404 370.88 26.3604 371.22 26.6204C371.64 26.9204 372.14 27.3204 372.7 27.8404C373.26 28.3604 373.72 28.8404 374.1 29.2804C374.42 29.6204 374.56 30.0204 374.54 30.5004C374.52 30.9604 374.32 31.3604 373.98 31.7204V31.7404Z" fill="#010F32"/>
<path d="M413.4 36.6402L398.52 24.2402V49.0602L413.4 36.6402Z" fill="#010F32"/>
<path d="M439.96 30.8997C439.92 31.3997 439.78 32.0597 439.64 32.6397C441.56 30.9397 443.9 30.0997 447 30.0997C454.26 30.0997 458.92 34.6997 458.92 42.0797C458.92 49.4597 453.86 54.9197 445.82 54.9197C439.46 54.9197 435.74 52.3197 433.8 48.9197C433.54 48.4797 433.4 47.9797 433.4 47.5397C433.4 46.5197 434.08 45.5197 435.06 44.9997C435.64 44.6397 436.22 44.4597 436.8 44.4597C437.7 44.4597 438.54 44.8997 439.14 45.8997C440.36 48.0997 442.6 49.6197 445.64 49.6197C449.98 49.6197 452.72 46.5797 452.72 42.1997C452.72 37.8197 449.98 35.1797 445.9 35.1797C443.12 35.1797 441.24 36.2597 439.98 38.0397C439.3 39.0197 438.46 39.5597 437.16 39.5597C436.98 39.5597 436.76 39.5597 436.54 39.5197C434.88 39.3397 433.94 38.4397 433.94 36.9797V36.5797L435.42 21.5197C435.68 19.3797 436.9 18.2197 439.14 18.2197H455.36C456.76 18.2197 457.42 19.4197 457.42 20.8997C457.42 22.3797 456.7 23.6197 455.36 23.6197H441.5C440.96 23.6197 440.64 23.8797 440.6 24.4197L439.92 30.9397L439.96 30.8997Z" fill="#010F32"/>
<path d="M468.06 26.8205C467.06 26.8205 466.52 25.9205 466.52 24.9005C466.52 23.8205 467.04 22.9805 468.06 22.9805H497.12C498.14 22.9805 498.66 23.8205 498.66 24.9005C498.66 25.9005 498.14 26.8205 497.12 26.8205H480.8C480.76 28.6205 480.62 30.4005 480.52 32.1805H491.26C493.94 32.1805 495.1 33.3205 495.06 35.9005C494.96 41.4005 494.36 46.0805 493.5 49.2205C492.7 52.1005 490.96 53.1405 487.44 53.1405C485.74 53.1405 483.78 52.9605 482.46 52.6605C481.58 52.4205 481.1 51.8205 481.1 50.8805C481.1 50.6805 481.14 50.4605 481.18 50.2205C481.42 49.2805 482.02 48.7205 482.82 48.7205C483 48.7205 483.16 48.7605 483.34 48.7805C484.22 49.0205 485.7 49.2605 486.92 49.2605C488.7 49.2605 489.36 48.8805 489.7 47.6205C490.4 45.1205 490.86 41.0605 490.96 36.8805V36.7805C490.96 36.0205 490.62 35.8005 489.84 35.8005H480.04C479.48 39.0405 478.62 41.7805 477.5 44.1405C475.76 47.8205 473.22 50.6805 470.28 52.8605C469.82 53.2005 469.3 53.3805 468.82 53.3805C468.2 53.3805 467.6 53.1005 467.14 52.5805C466.8 52.1605 466.58 51.6405 466.58 51.1605C466.58 50.5605 466.86 49.9805 467.38 49.5605C470.14 47.5005 472.3 45.1205 473.8 42.0605C475.64 38.2405 476.56 33.4405 476.62 26.8005H468.04L468.06 26.8205Z" fill="#010F32"/>
<path d="M510.24 52.2005C510.24 53.0005 509.4 53.5205 508.28 53.5205C507.16 53.5205 506.3 52.9605 506.3 52.1605V26.6205C506.3 23.9805 507.86 22.4805 510.52 22.4805H531.44C534.08 22.4805 535.7 24.0005 535.7 26.6205V48.8605C535.7 51.7005 534.14 52.9005 530.82 52.9005C529.36 52.9005 527.72 52.8005 526.4 52.5605C525.42 52.4205 524.9 51.8005 524.9 50.9005C524.9 50.7205 524.9 50.5605 524.94 50.3805C525.12 49.4005 525.68 48.9205 526.44 48.9205C526.58 48.9205 526.76 48.9205 526.9 48.9605C527.88 49.1405 529.06 49.2405 529.96 49.2405C531.52 49.2405 531.8 49.0405 531.8 47.9205V39.7805H510.26V52.2205L510.24 52.2005ZM518.84 26.1605H511.56C510.68 26.1605 510.24 26.5405 510.24 27.4205V36.1405H518.84V26.1605ZM531.76 36.1405V27.4205C531.76 26.5605 531.3 26.1605 530.4 26.1605H522.74V36.1405H531.76Z" fill="#010F32"/>
<path d="M300.08 177.539V160.539H380.08V177.539L340.08 202.879L300.08 177.539Z" fill="#F6D03F"/>
<path d="M680.5 168.7C680.5 174.2 676 178.7 670.5 178.68L10.5 177.32C5 177.32 0.5 172.8 0.5 167.3V117.78C0.5 112.28 5 107.78 10.5 107.8L670.5 109.16C676 109.16 680.5 113.68 680.5 119.18V168.7Z" fill="#F6D03F"/>
<path d="M129.2 131.12C127.68 131.12 126.82 129.86 126.82 128.3C126.82 126.74 127.68 125.48 129.2 125.48H150.54C152.6 125.48 153.58 126.6 153.58 128.44C153.58 130.76 152.9 131.44 151.84 132.92C146.96 139.62 143.06 148.98 141.18 159.08C140.78 161.18 139.52 161.76 137.64 161.76C135.76 161.76 134.36 160.82 134.36 159.12C134.36 158.9 134.4 158.68 134.44 158.4C136.28 149.54 140.08 139.94 146.24 131.12H129.2Z" fill="#010F32"/>
<path d="M164.3 131.12C162.78 131.12 161.92 129.86 161.92 128.3C161.92 126.74 162.78 125.48 164.3 125.48H185.64C187.7 125.48 188.68 126.6 188.68 128.44C188.68 130.76 188 131.44 186.94 132.92C182.06 139.62 178.16 148.98 176.28 159.08C175.88 161.18 174.62 161.76 172.74 161.76C170.86 161.76 169.46 160.82 169.46 159.12C169.46 158.9 169.5 158.68 169.54 158.4C171.38 149.54 175.18 139.94 181.34 131.12H164.3Z" fill="#010F32"/>
<path d="M199.4 131.12C197.88 131.12 197.02 129.86 197.02 128.3C197.02 126.74 197.88 125.48 199.4 125.48H220.74C222.8 125.48 223.78 126.6 223.78 128.44C223.78 130.76 223.1 131.44 222.04 132.92C217.16 139.62 213.26 148.98 211.38 159.08C210.98 161.18 209.72 161.76 207.84 161.76C205.96 161.76 204.56 160.82 204.56 159.12C204.56 158.9 204.6 158.68 204.64 158.4C206.48 149.54 210.28 139.94 216.44 131.12H199.4Z" fill="#010F32"/>
<path d="M238.98 160.68C237.44 160.68 236.58 159.92 236.44 158.42C236.38 157.78 236.54 157.22 236.9 156.76C237.26 156.28 237.76 156 238.4 155.92C239.2 155.82 239.72 155.64 239.96 155.4C240.2 155.16 240.32 154.72 240.32 154.04V147.84C239.26 148.26 238.4 148.6 237.78 148.84C237.04 149.1 236.36 149.1 235.72 148.8C235.1 148.5 234.7 148.06 234.5 147.44C234.32 146.76 234.34 146.12 234.6 145.56C234.86 145 235.36 144.6 236.14 144.38C236.72 144.22 237.38 144.02 238.12 143.8C238.86 143.58 239.58 143.34 240.34 143.06V135.94H236.92C236.26 135.94 235.72 135.72 235.32 135.28C234.92 134.84 234.72 134.34 234.72 133.76C234.72 133.18 234.92 132.64 235.32 132.22C235.72 131.8 236.24 131.58 236.92 131.58H240.34V126.06C240.34 125.38 240.56 124.82 241 124.44C241.44 124.06 241.96 123.84 242.58 123.84C243.2 123.84 243.76 124.04 244.2 124.44C244.64 124.84 244.86 125.38 244.86 126.06V131.58H246.82C247.5 131.58 248.04 131.8 248.44 132.22C248.84 132.64 249.02 133.16 249.02 133.76C249.02 134.36 248.82 134.86 248.44 135.28C248.06 135.72 247.52 135.94 246.82 135.94H244.86V141.46C245.16 141.36 245.44 141.26 245.7 141.16C245.96 141.06 246.22 140.96 246.46 140.86C247.08 140.62 247.62 140.62 248.12 140.86C248.62 141.1 248.94 141.48 249.1 142.02C249.12 142.12 249.14 142.22 249.16 142.3C249.16 142.38 249.2 142.46 249.22 142.54C249.28 142.06 249.48 141.66 249.82 141.32C250.16 140.98 250.6 140.82 251.14 140.82H262.66C264.02 140.82 265.08 141.12 265.82 141.7C266.58 142.28 267.02 143.04 267.16 143.98C267.3 144.92 267.06 145.92 266.48 146.98C265.98 147.94 265.42 148.86 264.78 149.74C264.16 150.62 263.48 151.48 262.72 152.3C263.68 153.04 264.74 153.7 265.88 154.24C267.04 154.8 268.3 155.24 269.64 155.56C270.38 155.74 270.92 156.08 271.26 156.58C271.6 157.08 271.66 157.66 271.44 158.34C271.22 159 270.8 159.46 270.18 159.74C269.56 160 268.9 160.04 268.2 159.82C266.48 159.26 264.88 158.6 263.44 157.84C262 157.08 260.68 156.22 259.52 155.26C258.2 156.32 256.76 157.26 255.2 158.08C253.64 158.9 251.98 159.58 250.2 160.14C249.54 160.36 248.92 160.32 248.36 160.04C247.8 159.76 247.42 159.34 247.2 158.74C247.02 158.16 247.04 157.62 247.3 157.12C247.56 156.62 248.02 156.26 248.68 156.04C251.54 155.12 254.14 153.82 256.44 152.18C255.56 151.1 254.8 149.94 254.12 148.72C253.44 147.5 252.9 146.22 252.44 144.86H251.08C250.58 144.86 250.16 144.7 249.8 144.38C249.46 144.06 249.24 143.68 249.16 143.22C249.1 143.52 248.96 143.78 248.74 144.06C248.52 144.32 248.18 144.56 247.72 144.78C247.34 144.94 246.9 145.12 246.4 145.34C245.9 145.56 245.36 145.78 244.8 146.02V155C244.8 156.9 244.34 158.32 243.42 159.26C242.5 160.18 241.02 160.66 238.98 160.66V160.68ZM252.4 139.9C251.9 140.3 251.3 140.5 250.62 140.5C249.94 140.5 249.38 140.28 248.92 139.82C248.5 139.36 248.3 138.86 248.34 138.28C248.38 137.7 248.64 137.2 249.12 136.78C249.8 136.22 250.34 135.66 250.72 135.1C251.1 134.54 251.36 133.84 251.52 133.06C251.68 132.26 251.76 131.24 251.76 129.96C251.78 128.74 252 127.78 252.38 127.06C252.76 126.34 253.42 125.84 254.36 125.54C255.28 125.24 256.56 125.08 258.18 125.08C259.8 125.08 261.08 125.24 262 125.54C262.92 125.84 263.58 126.36 263.98 127.06C264.36 127.78 264.56 128.76 264.56 130V134.18C264.56 134.56 264.66 134.8 264.86 134.94C265.06 135.08 265.4 135.14 265.88 135.14C266.38 135.14 266.72 135 266.92 134.72C267.1 134.44 267.3 133.86 267.48 132.96C267.62 132.36 267.94 131.92 268.48 131.68C269.02 131.44 269.6 131.38 270.24 131.52C270.84 131.66 271.3 131.96 271.62 132.44C271.94 132.92 272.02 133.46 271.92 134.06C271.58 136.08 270.92 137.48 269.96 138.26C269 139.04 267.58 139.44 265.7 139.44C263.68 139.44 262.26 139.14 261.44 138.54C260.62 137.94 260.2 136.82 260.2 135.14V130.84C260.2 130.16 260.08 129.7 259.82 129.48C259.56 129.26 259.04 129.16 258.24 129.16C257.44 129.16 256.88 129.26 256.62 129.48C256.36 129.7 256.24 130.14 256.24 130.84C256.22 132.9 255.86 134.7 255.18 136.22C254.5 137.74 253.58 138.98 252.42 139.94L252.4 139.9ZM259.58 149.4C260 148.94 260.4 148.5 260.76 148.02C261.12 147.56 261.44 147.08 261.74 146.6C262.48 145.46 262.14 144.9 260.7 144.9H256.84C257.18 145.66 257.58 146.44 258.04 147.2C258.5 147.96 259 148.7 259.6 149.38L259.58 149.4Z" fill="#010F32"/>
<path d="M286.06 160.84C285.48 160.84 284.98 160.66 284.58 160.28C284.18 159.9 283.98 159.4 283.98 158.74V146.86C283.58 147.66 283.18 148.42 282.8 149.14C282.42 149.86 282.04 150.52 281.7 151.06C281.38 151.54 280.94 151.84 280.36 152C279.78 152.14 279.24 152.08 278.7 151.82C278.2 151.52 277.9 151.08 277.82 150.46C277.74 149.84 277.88 149.3 278.22 148.84C278.64 148.24 279.12 147.46 279.66 146.56C280.2 145.66 280.72 144.66 281.26 143.62C281.8 142.58 282.28 141.54 282.76 140.54C283.24 139.54 283.6 138.64 283.9 137.84H280.36C279.72 137.84 279.22 137.64 278.84 137.24C278.46 136.84 278.28 136.36 278.28 135.78C278.28 135.2 278.46 134.74 278.84 134.36C279.22 133.96 279.72 133.76 280.36 133.76H283.98V130.5C283.5 130.6 283.04 130.7 282.6 130.8C282.16 130.9 281.72 130.96 281.26 131.02C280.44 131.12 279.82 131.06 279.38 130.8C278.96 130.54 278.68 130.14 278.54 129.54C278.4 128.9 278.5 128.38 278.82 127.98C279.14 127.56 279.6 127.32 280.22 127.24C281.22 127.1 282.3 126.92 283.42 126.68C284.54 126.44 285.64 126.16 286.68 125.84C287.72 125.52 288.62 125.22 289.36 124.92C289.98 124.7 290.54 124.7 291.1 124.92C291.64 125.12 292 125.5 292.2 126.06C292.38 126.56 292.38 127.04 292.18 127.52C291.98 127.98 291.62 128.32 291.08 128.54C290.62 128.7 290.16 128.86 289.66 129.02C289.16 129.18 288.66 129.34 288.12 129.5V133.8H290.4C291.04 133.8 291.54 134 291.92 134.4C292.3 134.8 292.48 135.28 292.48 135.82C292.48 136.4 292.3 136.9 291.92 137.28C291.54 137.68 291.04 137.88 290.4 137.88H288.12V139.38C288.5 139.84 288.96 140.36 289.5 140.98C290.04 141.6 290.6 142.2 291.16 142.78C291.72 143.36 292.16 143.82 292.52 144.18C292.6 144.24 292.7 144.34 292.8 144.5C293.68 143.26 295.54 142.64 298.38 142.64H308.14C310.58 142.64 312.26 143.06 313.18 143.9C314.1 144.74 314.56 146.14 314.56 148.1V155.72C314.56 157.46 314.14 158.74 313.28 159.54C312.44 160.34 311.1 160.74 309.3 160.74C308.68 160.74 308.18 160.56 307.76 160.22C307.34 159.88 307.1 159.44 307.02 158.9C306.92 158.24 307.02 157.7 307.4 157.3C307.76 156.88 308.24 156.64 308.86 156.56C309.44 156.48 309.82 156.34 310 156.12C310.18 155.9 310.26 155.52 310.26 154.96V148.8C310.26 147.74 310.08 147.06 309.74 146.74C309.4 146.42 308.6 146.26 307.34 146.26H299.18C297.96 146.26 297.16 146.42 296.82 146.74C296.46 147.06 296.28 147.74 296.28 148.8V158.74C296.28 159.38 296.08 159.9 295.66 160.28C295.24 160.68 294.74 160.88 294.12 160.88C293.5 160.88 293.04 160.68 292.6 160.28C292.18 159.88 291.96 159.36 291.96 158.74V147.76C291.96 147.76 291.96 147.56 292 147.46C291.18 147.8 290.44 147.64 289.76 146.94C289.36 146.48 288.82 145.84 288.12 145V158.78C288.12 159.44 287.92 159.96 287.52 160.32C287.12 160.7 286.62 160.88 286 160.88L286.06 160.84ZM293.28 131.32C292.7 131.32 292.24 131.14 291.92 130.78C291.6 130.42 291.44 130 291.44 129.48C291.44 128.94 291.6 128.52 291.92 128.16C292.24 127.82 292.7 127.64 293.28 127.64H300.8V126.14C300.8 125.4 301.04 124.82 301.5 124.4C301.96 123.98 302.52 123.76 303.2 123.76C303.88 123.76 304.42 123.98 304.88 124.4C305.34 124.82 305.56 125.4 305.56 126.14V127.64H313.4C313.98 127.64 314.44 127.82 314.78 128.16C315.12 128.5 315.28 128.94 315.28 129.48C315.28 129.98 315.12 130.42 314.78 130.78C314.44 131.14 313.98 131.32 313.4 131.32H293.28ZM300.78 141.14C299.22 141.14 298.02 141.02 297.2 140.8C296.38 140.58 295.82 140.16 295.52 139.54C295.22 138.92 295.08 138.06 295.08 136.92C295.08 135.78 295.22 134.92 295.52 134.32C295.82 133.72 296.36 133.32 297.2 133.08C298.02 132.86 299.22 132.74 300.78 132.74H305.96C307.56 132.74 308.76 132.86 309.56 133.08C310.36 133.3 310.92 133.72 311.22 134.32C311.52 134.92 311.66 135.78 311.66 136.92C311.66 138.06 311.52 138.94 311.22 139.54C310.92 140.14 310.38 140.56 309.56 140.8C308.74 141.02 307.54 141.14 305.96 141.14H300.78ZM303.26 156.6C301.88 156.6 300.82 156.48 300.08 156.24C299.34 156 298.82 155.56 298.54 154.9C298.26 154.26 298.12 153.3 298.12 152.06C298.12 150.82 298.26 149.86 298.54 149.22C298.82 148.58 299.34 148.12 300.08 147.88C300.82 147.64 301.88 147.52 303.26 147.52C304.64 147.52 305.74 147.64 306.48 147.88C307.22 148.12 307.74 148.56 308.02 149.22C308.3 149.86 308.44 150.82 308.44 152.06C308.44 153.3 308.3 154.26 308.02 154.9C307.74 155.54 307.22 156 306.48 156.24C305.74 156.48 304.66 156.6 303.26 156.6ZM301.38 138.08H305.36C306.24 138.08 306.8 138.02 307.06 137.88C307.32 137.74 307.44 137.42 307.44 136.92C307.44 136.44 307.32 136.14 307.06 136C306.8 135.86 306.24 135.8 305.36 135.8H301.38C300.5 135.8 299.94 135.86 299.68 136C299.42 136.14 299.3 136.44 299.3 136.92C299.3 137.42 299.42 137.74 299.68 137.88C299.94 138.02 300.5 138.08 301.38 138.08ZM303.26 153.7C303.94 153.7 304.38 153.6 304.58 153.4C304.76 153.2 304.86 152.76 304.86 152.06C304.86 151.36 304.76 150.92 304.58 150.72C304.4 150.52 303.96 150.42 303.26 150.42C302.56 150.42 302.18 150.52 301.98 150.72C301.8 150.92 301.7 151.36 301.7 152.06C301.7 152.76 301.8 153.2 301.98 153.4C302.16 153.6 302.58 153.7 303.26 153.7Z" fill="#010F32"/>
<path d="M350.92 158.68C347.78 158.22 345.2 157.32 343.16 155.96C341.12 154.6 339.6 152.94 338.6 151.02C337.6 149.08 337.1 147.08 337.1 144.98C337.1 142.88 337.52 140.88 338.34 139.04C339.16 137.2 340.36 135.6 341.92 134.26C340.32 134.5 338.62 134.78 336.82 135.08C335.02 135.38 333.26 135.68 331.58 136C329.9 136.3 328.42 136.58 327.14 136.82C326.48 136.92 325.88 136.78 325.36 136.38C324.84 135.98 324.52 135.46 324.42 134.84C324.32 134.18 324.46 133.58 324.84 133.08C325.22 132.56 325.76 132.26 326.42 132.14C327.26 132 328.36 131.82 329.68 131.6C331 131.38 332.5 131.14 334.14 130.86C335.78 130.6 337.48 130.32 339.2 130.02C340.92 129.72 342.62 129.44 344.28 129.16C345.94 128.88 347.46 128.62 348.84 128.38C350.22 128.14 351.34 127.94 352.22 127.78C352.84 127.68 353.4 127.8 353.96 128.18C354.5 128.56 354.82 129.04 354.94 129.64C355.08 130.28 354.98 130.88 354.64 131.42C354.3 131.98 353.82 132.3 353.18 132.42C351.32 132.72 349.68 133.28 348.28 134.1C346.88 134.92 345.68 135.94 344.72 137.12C343.76 138.3 343.02 139.54 342.52 140.86C342.02 142.18 341.78 143.46 341.78 144.74C341.78 147.3 342.66 149.38 344.4 150.96C346.16 152.54 348.54 153.54 351.58 153.96C352.22 154.06 352.74 154.38 353.14 154.92C353.54 155.46 353.68 156.04 353.58 156.66C353.5 157.32 353.2 157.86 352.66 158.24C352.12 158.62 351.54 158.78 350.9 158.68H350.92ZM355.98 142.44C355.64 142.74 355.22 142.86 354.72 142.8C354.22 142.74 353.84 142.52 353.54 142.12C353.24 141.74 352.88 141.28 352.42 140.7C351.96 140.12 351.56 139.64 351.18 139.2C350.94 138.9 350.82 138.56 350.84 138.14C350.84 137.72 351.04 137.38 351.38 137.08C351.7 136.78 352.06 136.66 352.48 136.66C352.9 136.66 353.26 136.82 353.62 137.12C354.02 137.46 354.48 137.92 355 138.48C355.52 139.04 355.94 139.54 356.3 139.98C356.6 140.36 356.7 140.78 356.64 141.26C356.58 141.74 356.36 142.12 355.98 142.42V142.44ZM359.8 139.02C359.46 139.36 359.04 139.52 358.54 139.5C358.04 139.48 357.64 139.28 357.32 138.9C357 138.52 356.6 138.08 356.1 137.54C355.6 137.02 355.16 136.54 354.76 136.14C354.5 135.88 354.36 135.54 354.34 135.1C354.34 134.68 354.48 134.3 354.8 133.98C355.1 133.68 355.46 133.54 355.88 133.52C356.3 133.52 356.7 133.64 357.04 133.9C357.46 134.2 357.96 134.6 358.52 135.12C359.08 135.64 359.54 136.12 359.92 136.56C360.24 136.9 360.38 137.3 360.36 137.78C360.34 138.24 360.14 138.64 359.8 139V139.02Z" fill="#010F32"/>
<path d="M397.44 143.92L382.54 131.52V156.34L397.44 143.92Z" fill="#010F32"/>
<path d="M434.98 159.16C434.98 160.82 433.76 161.7 431.88 161.7C430 161.7 428.84 160.8 428.84 159.2V132.46C428.84 131.66 428.62 131.26 427.8 131.26H427.66L423.44 131.4C421.82 131.44 420.8 130.06 420.8 128.54C420.8 126.94 421.78 125.58 423.36 125.54L429.9 125.4H430.3C433.88 125.4 434.96 126.56 434.96 130.46V159.16H434.98Z" fill="#010F32"/>
<path d="M470.48 155.84C471.96 155.84 472.72 157 472.72 158.52C472.72 160.04 471.96 161.38 470.48 161.38H449.4C447.34 161.38 446.26 160.12 446.26 157.9C446.26 156.24 447.34 153.96 448.24 152.48C449.72 149.94 452.14 147.16 456.44 144.3L459.18 142.46C463.48 139.6 465.78 138.04 465.78 134.72C465.78 131.68 463.36 129.94 459.72 129.94C455.28 129.94 453.76 132.4 452.96 135.22C452.6 136.52 451.52 137.1 450.32 137.1C449.96 137.1 449.6 137.06 449.24 136.96C447.8 136.64 446.78 135.8 446.78 134.42C446.78 134.16 446.82 133.84 446.92 133.48C447.36 131.64 448.4 129.76 449.74 128.42C451.98 126.04 455.04 124.7 459.92 124.7C467.5 124.7 472.02 128.42 472.02 134.72C472.02 140.3 468.84 142.86 464.26 145.68L461.62 147.3C457.04 150.12 454.4 152.62 453.24 155.84H470.5H470.48Z" fill="#010F32"/>
<path d="M485.76 134.1C484.76 134.1 484.22 133.2 484.22 132.18C484.22 131.1 484.74 130.26 485.76 130.26H514.82C515.82 130.26 516.36 131.1 516.36 132.18C516.36 133.18 515.84 134.1 514.82 134.1H498.5C498.46 135.9 498.32 137.68 498.22 139.46H508.96C511.64 139.46 512.8 140.6 512.76 143.18C512.66 148.68 512.06 153.36 511.2 156.5C510.4 159.38 508.66 160.42 505.14 160.42C503.44 160.42 501.48 160.24 500.16 159.94C499.28 159.7 498.8 159.1 498.8 158.16C498.8 157.96 498.84 157.74 498.88 157.5C499.12 156.56 499.72 156 500.52 156C500.7 156 500.86 156.04 501.04 156.06C501.92 156.3 503.4 156.54 504.62 156.54C506.4 156.54 507.06 156.16 507.4 154.9C508.1 152.4 508.56 148.34 508.66 144.16V144.06C508.66 143.3 508.32 143.08 507.54 143.08H497.74C497.18 146.32 496.32 149.06 495.2 151.42C493.46 155.1 490.92 157.96 487.98 160.14C487.52 160.48 487 160.66 486.52 160.66C485.9 160.66 485.3 160.38 484.84 159.86C484.5 159.44 484.28 158.92 484.28 158.44C484.28 157.84 484.56 157.26 485.08 156.84C487.84 154.78 490 152.4 491.5 149.34C493.34 145.52 494.26 140.72 494.32 134.08H485.74L485.76 134.1Z" fill="#010F32"/>
<path d="M527.96 159.48C527.96 160.28 527.12 160.8 526 160.8C524.88 160.8 524.02 160.24 524.02 159.44V133.9C524.02 131.26 525.58 129.76 528.24 129.76H549.16C551.8 129.76 553.42 131.28 553.42 133.9V156.14C553.42 158.98 551.86 160.18 548.54 160.18C547.08 160.18 545.44 160.08 544.12 159.84C543.14 159.7 542.62 159.08 542.62 158.18C542.62 158 542.62 157.84 542.66 157.66C542.84 156.68 543.4 156.2 544.16 156.2C544.3 156.2 544.48 156.2 544.62 156.24C545.6 156.42 546.78 156.52 547.68 156.52C549.24 156.52 549.52 156.32 549.52 155.2V147.06H527.98V159.5L527.96 159.48ZM536.56 133.44H529.28C528.4 133.44 527.96 133.82 527.96 134.7V143.42H536.56V133.44ZM549.48 143.42V134.7C549.48 133.84 549.02 133.44 548.12 133.44H540.46V143.42H549.48Z" fill="#010F32"/>
<path d="M300.08 284.82V267.82H380.08V284.82L340.08 310.16L300.08 284.82Z" fill="#F3BE00"/>
<path d="M680.5 275.98C680.5 281.48 676 285.98 670.5 285.96L10.5 284.6C5 284.6 0.5 280.08 0.5 274.58V225.06C0.5 219.56 5 215.06 10.5 215.08L670.5 216.44C676 216.44 680.5 220.96 680.5 226.46V275.98Z" fill="#F3BE00"/>
<path d="M49.68 263.179C51.16 263.179 51.92 264.339 51.92 265.859C51.92 267.379 51.16 268.719 49.68 268.719H28.6C26.54 268.719 25.46 267.459 25.46 265.239C25.46 263.579 26.54 261.299 27.44 259.819C28.92 257.279 31.34 254.499 35.64 251.639L38.38 249.799C42.68 246.939 44.96 245.379 44.96 242.059C44.96 239.019 42.54 237.279 38.9 237.279C34.46 237.279 32.94 239.739 32.14 242.559C31.78 243.859 30.7 244.439 29.5 244.439C29.14 244.439 28.78 244.399 28.42 244.299C26.98 243.979 25.96 243.139 25.96 241.759C25.96 241.499 26 241.179 26.1 240.819C26.54 238.979 27.58 237.099 28.92 235.759C31.16 233.379 34.22 232.039 39.1 232.039C46.68 232.039 51.2 235.759 51.2 242.059C51.2 247.639 48.02 250.199 43.44 253.019L40.8 254.639C36.22 257.459 33.58 259.959 32.42 263.179H49.68Z" fill="#010F32"/>
<path d="M67.9601 271.76C66.9801 273.36 65.6201 274.36 64.0601 275.16C63.8401 275.24 63.6601 275.3 63.4401 275.3C62.9001 275.3 62.3201 274.98 62.1001 274.58C61.9601 274.36 61.8801 274.04 61.8801 273.78C61.8801 273.28 62.1001 272.84 62.5601 272.62C63.4201 272.12 64.2601 271.64 64.9001 271C65.3401 270.5 65.7601 269.88 65.8801 269.16V269.12C65.8801 268.94 65.8001 268.86 65.6201 268.86H65.5401C65.2801 268.9 65.1401 268.9 64.9201 268.9C63.3601 268.9 61.5601 267.74 61.5601 265.42C61.5601 263.54 62.8601 261.84 65.2001 261.84C67.4001 261.84 69.3601 263.36 69.3601 266.58C69.3601 268.78 68.8601 270.42 68.0201 271.76H67.9601Z" fill="#010F32"/>
<path d="M103.38 263.179C104.86 263.179 105.62 264.339 105.62 265.859C105.62 267.379 104.86 268.719 103.38 268.719H82.3002C80.2402 268.719 79.1602 267.459 79.1602 265.239C79.1602 263.579 80.2402 261.299 81.1402 259.819C82.6202 257.279 85.0401 254.499 89.3401 251.639L92.0802 249.799C96.3802 246.939 98.6602 245.379 98.6602 242.059C98.6602 239.019 96.2402 237.279 92.6002 237.279C88.1602 237.279 86.6401 239.739 85.8401 242.559C85.4801 243.859 84.4001 244.439 83.2001 244.439C82.8401 244.439 82.4802 244.399 82.1202 244.299C80.6802 243.979 79.6602 243.139 79.6602 241.759C79.6602 241.499 79.7002 241.179 79.8002 240.819C80.2402 238.979 81.2802 237.099 82.6202 235.759C84.8602 233.379 87.9202 232.039 92.8002 232.039C100.38 232.039 104.9 235.759 104.9 242.059C104.9 247.639 101.72 250.199 97.1402 253.019L94.5002 254.639C89.9202 257.459 87.2802 259.959 86.1202 263.179H103.38Z" fill="#010F32"/>
<path d="M138.48 263.179C139.96 263.179 140.72 264.339 140.72 265.859C140.72 267.379 139.96 268.719 138.48 268.719H117.4C115.34 268.719 114.26 267.459 114.26 265.239C114.26 263.579 115.34 261.299 116.24 259.819C117.72 257.279 120.14 254.499 124.44 251.639L127.18 249.799C131.48 246.939 133.76 245.379 133.76 242.059C133.76 239.019 131.34 237.279 127.7 237.279C123.26 237.279 121.74 239.739 120.94 242.559C120.58 243.859 119.5 244.439 118.3 244.439C117.94 244.439 117.58 244.399 117.22 244.299C115.78 243.979 114.76 243.139 114.76 241.759C114.76 241.499 114.8 241.179 114.9 240.819C115.34 238.979 116.38 237.099 117.72 235.759C119.96 233.379 123.02 232.039 127.9 232.039C135.48 232.039 140 235.759 140 242.059C140 247.639 136.82 250.199 132.24 253.019L129.6 254.639C125.02 257.459 122.38 259.959 121.22 263.179H138.48Z" fill="#010F32"/>
<path d="M173.56 263.179C175.04 263.179 175.8 264.339 175.8 265.859C175.8 267.379 175.04 268.719 173.56 268.719H152.48C150.42 268.719 149.34 267.459 149.34 265.239C149.34 263.579 150.42 261.299 151.32 259.819C152.8 257.279 155.22 254.499 159.52 251.639L162.26 249.799C166.56 246.939 168.86 245.379 168.86 242.059C168.86 239.019 166.44 237.279 162.8 237.279C158.36 237.279 156.84 239.739 156.04 242.559C155.68 243.859 154.6 244.439 153.4 244.439C153.04 244.439 152.68 244.399 152.32 244.299C150.88 243.979 149.86 243.139 149.86 241.759C149.86 241.499 149.9 241.179 150 240.819C150.44 238.979 151.48 237.099 152.82 235.759C155.06 233.379 158.12 232.039 163 232.039C170.58 232.039 175.1 235.759 175.1 242.059C175.1 247.639 171.92 250.199 167.34 253.019L164.7 254.639C160.12 257.459 157.48 259.959 156.32 263.179H173.58H173.56Z" fill="#010F32"/>
<path d="M192.84 267.959C191.3 267.959 190.44 267.199 190.3 265.699C190.24 265.059 190.4 264.499 190.76 264.039C191.12 263.559 191.62 263.279 192.26 263.199C193.06 263.099 193.58 262.919 193.82 262.679C194.06 262.439 194.18 261.999 194.18 261.319V255.119C193.12 255.539 192.26 255.879 191.64 256.119C190.9 256.379 190.22 256.379 189.58 256.079C188.96 255.779 188.56 255.339 188.36 254.719C188.18 254.039 188.2 253.399 188.46 252.839C188.72 252.279 189.22 251.879 190 251.659C190.58 251.499 191.24 251.299 191.98 251.079C192.72 250.859 193.44 250.619 194.2 250.339V243.219H190.78C190.12 243.219 189.58 242.999 189.18 242.559C188.78 242.119 188.58 241.619 188.58 241.039C188.58 240.459 188.78 239.919 189.18 239.499C189.58 239.079 190.1 238.859 190.78 238.859H194.2V233.339C194.2 232.659 194.42 232.099 194.86 231.719C195.3 231.339 195.82 231.119 196.44 231.119C197.06 231.119 197.62 231.319 198.06 231.719C198.5 232.119 198.72 232.659 198.72 233.339V238.859H200.68C201.36 238.859 201.9 239.079 202.3 239.499C202.7 239.919 202.88 240.439 202.88 241.039C202.88 241.639 202.68 242.139 202.3 242.559C201.92 242.999 201.38 243.219 200.68 243.219H198.72V248.739C199.02 248.639 199.3 248.539 199.56 248.439C199.82 248.339 200.08 248.239 200.32 248.139C200.94 247.899 201.48 247.899 201.98 248.139C202.48 248.379 202.8 248.759 202.96 249.299C202.98 249.399 203 249.499 203.02 249.579C203.02 249.659 203.06 249.739 203.08 249.819C203.14 249.339 203.34 248.939 203.68 248.599C204.02 248.259 204.46 248.099 205 248.099H216.52C217.88 248.099 218.94 248.399 219.68 248.979C220.44 249.559 220.88 250.319 221.02 251.259C221.16 252.199 220.92 253.199 220.34 254.259C219.84 255.219 219.28 256.139 218.64 257.019C218.02 257.899 217.34 258.759 216.58 259.579C217.54 260.319 218.6 260.979 219.74 261.519C220.9 262.079 222.16 262.519 223.5 262.839C224.24 263.019 224.78 263.359 225.12 263.859C225.46 264.359 225.52 264.939 225.3 265.619C225.08 266.279 224.66 266.739 224.04 267.019C223.42 267.279 222.76 267.319 222.06 267.099C220.34 266.539 218.74 265.879 217.3 265.119C215.86 264.359 214.54 263.499 213.38 262.539C212.06 263.599 210.62 264.539 209.06 265.359C207.5 266.179 205.84 266.859 204.06 267.419C203.4 267.639 202.78 267.599 202.22 267.319C201.66 267.039 201.28 266.619 201.06 266.019C200.88 265.439 200.9 264.899 201.16 264.399C201.42 263.899 201.88 263.539 202.54 263.319C205.4 262.399 208 261.099 210.3 259.459C209.42 258.379 208.66 257.219 207.98 255.999C207.3 254.779 206.76 253.499 206.3 252.139H204.94C204.44 252.139 204.02 251.979 203.66 251.659C203.32 251.339 203.1 250.959 203.02 250.499C202.96 250.799 202.82 251.059 202.6 251.339C202.38 251.599 202.04 251.839 201.58 252.059C201.2 252.219 200.76 252.399 200.26 252.619C199.76 252.839 199.22 253.059 198.66 253.299V262.279C198.66 264.179 198.2 265.599 197.28 266.539C196.36 267.459 194.88 267.939 192.84 267.939V267.959ZM206.26 247.179C205.76 247.579 205.16 247.779 204.48 247.779C203.8 247.779 203.24 247.559 202.78 247.099C202.36 246.639 202.16 246.139 202.2 245.559C202.24 244.979 202.5 244.479 202.98 244.059C203.66 243.499 204.2 242.939 204.58 242.379C204.96 241.819 205.22 241.119 205.38 240.339C205.54 239.539 205.62 238.519 205.62 237.239C205.64 236.019 205.86 235.059 206.24 234.339C206.62 233.619 207.28 233.119 208.22 232.819C209.14 232.519 210.42 232.359 212.04 232.359C213.66 232.359 214.94 232.519 215.86 232.819C216.78 233.119 217.44 233.639 217.84 234.339C218.22 235.059 218.42 236.039 218.42 237.279V241.459C218.42 241.839 218.52 242.079 218.72 242.219C218.92 242.359 219.26 242.419 219.74 242.419C220.24 242.419 220.58 242.279 220.78 241.999C220.96 241.719 221.16 241.139 221.34 240.239C221.48 239.639 221.8 239.199 222.34 238.959C222.88 238.719 223.46 238.659 224.1 238.799C224.7 238.939 225.16 239.239 225.48 239.719C225.8 240.199 225.88 240.739 225.78 241.339C225.44 243.359 224.78 244.759 223.82 245.539C222.86 246.319 221.44 246.719 219.56 246.719C217.54 246.719 216.12 246.419 215.3 245.819C214.48 245.219 214.06 244.099 214.06 242.419V238.119C214.06 237.439 213.94 236.979 213.68 236.759C213.42 236.539 212.9 236.439 212.1 236.439C211.3 236.439 210.74 236.539 210.48 236.759C210.22 236.979 210.1 237.419 210.1 238.119C210.08 240.179 209.72 241.979 209.04 243.499C208.36 245.019 207.44 246.259 206.28 247.219L206.26 247.179ZM213.44 256.679C213.86 256.219 214.26 255.779 214.62 255.299C214.98 254.839 215.3 254.359 215.6 253.879C216.34 252.739 216 252.179 214.56 252.179H210.7C211.04 252.939 211.44 253.719 211.9 254.479C212.36 255.239 212.86 255.979 213.46 256.659L213.44 256.679Z" fill="#010F32"/>
<path d="M239.92 268.119C239.34 268.119 238.84 267.939 238.44 267.559C238.04 267.179 237.84 266.679 237.84 266.019V254.139C237.44 254.939 237.04 255.699 236.66 256.419C236.28 257.139 235.9 257.799 235.56 258.339C235.24 258.819 234.8 259.119 234.22 259.279C233.64 259.419 233.1 259.359 232.56 259.099C232.06 258.799 231.76 258.359 231.68 257.739C231.6 257.119 231.74 256.579 232.08 256.119C232.5 255.519 232.98 254.739 233.52 253.839C234.06 252.939 234.58 251.939 235.12 250.899C235.66 249.859 236.14 248.819 236.62 247.819C237.1 246.819 237.46 245.919 237.76 245.119H234.22C233.58 245.119 233.08 244.919 232.7 244.519C232.32 244.119 232.14 243.639 232.14 243.059C232.14 242.479 232.32 242.019 232.7 241.639C233.08 241.239 233.58 241.039 234.22 241.039H237.84V237.779C237.36 237.879 236.9 237.979 236.46 238.079C236.02 238.179 235.58 238.239 235.12 238.299C234.3 238.399 233.68 238.339 233.24 238.079C232.82 237.819 232.54 237.419 232.4 236.819C232.26 236.179 232.36 235.659 232.68 235.259C233 234.839 233.46 234.599 234.08 234.519C235.08 234.379 236.16 234.199 237.28 233.959C238.4 233.719 239.5 233.439 240.54 233.119C241.58 232.799 242.48 232.499 243.22 232.199C243.84 231.979 244.4 231.979 244.96 232.199C245.5 232.399 245.86 232.779 246.06 233.339C246.24 233.839 246.24 234.319 246.04 234.799C245.84 235.259 245.48 235.599 244.94 235.819C244.48 235.979 244.02 236.139 243.52 236.299C243.02 236.459 242.52 236.619 241.98 236.779V241.079H244.26C244.9 241.079 245.4 241.279 245.78 241.679C246.16 242.079 246.34 242.559 246.34 243.099C246.34 243.679 246.16 244.179 245.78 244.559C245.4 244.959 244.9 245.159 244.26 245.159H241.98V246.659C242.36 247.119 242.82 247.639 243.36 248.259C243.9 248.879 244.46 249.479 245.02 250.059C245.58 250.639 246.02 251.099 246.38 251.459C246.46 251.519 246.56 251.619 246.66 251.779C247.54 250.539 249.4 249.919 252.24 249.919H262C264.44 249.919 266.12 250.339 267.04 251.179C267.96 252.019 268.42 253.419 268.42 255.379V262.999C268.42 264.739 268 266.019 267.14 266.819C266.3 267.619 264.96 268.019 263.16 268.019C262.54 268.019 262.04 267.839 261.62 267.499C261.2 267.159 260.96 266.719 260.88 266.179C260.78 265.519 260.88 264.979 261.26 264.579C261.62 264.159 262.1 263.919 262.72 263.839C263.3 263.759 263.68 263.619 263.86 263.399C264.04 263.179 264.12 262.799 264.12 262.239V256.079C264.12 255.019 263.94 254.339 263.6 254.019C263.26 253.699 262.46 253.539 261.2 253.539H253.04C251.82 253.539 251.02 253.699 250.68 254.019C250.32 254.339 250.14 255.019 250.14 256.079V266.019C250.14 266.659 249.94 267.179 249.52 267.559C249.1 267.959 248.6 268.159 247.98 268.159C247.36 268.159 246.9 267.959 246.46 267.559C246.04 267.159 245.82 266.639 245.82 266.019V255.039C245.82 255.039 245.82 254.839 245.86 254.739C245.04 255.079 244.3 254.919 243.62 254.219C243.22 253.759 242.68 253.119 241.98 252.279V266.059C241.98 266.719 241.78 267.239 241.38 267.599C240.98 267.979 240.48 268.159 239.86 268.159L239.92 268.119ZM247.14 238.599C246.56 238.599 246.1 238.419 245.78 238.059C245.46 237.699 245.3 237.279 245.3 236.759C245.3 236.219 245.46 235.799 245.78 235.439C246.1 235.099 246.56 234.919 247.14 234.919H254.66V233.419C254.66 232.679 254.9 232.099 255.36 231.679C255.82 231.259 256.38 231.039 257.06 231.039C257.74 231.039 258.28 231.259 258.74 231.679C259.2 232.099 259.42 232.679 259.42 233.419V234.919H267.26C267.84 234.919 268.3 235.099 268.64 235.439C268.98 235.779 269.14 236.219 269.14 236.759C269.14 237.259 268.98 237.699 268.64 238.059C268.3 238.419 267.84 238.599 267.26 238.599H247.14ZM254.64 248.419C253.08 248.419 251.88 248.299 251.06 248.079C250.24 247.859 249.68 247.439 249.38 246.819C249.08 246.199 248.94 245.339 248.94 244.199C248.94 243.059 249.08 242.199 249.38 241.599C249.68 240.999 250.22 240.599 251.06 240.359C251.88 240.139 253.08 240.019 254.64 240.019H259.82C261.42 240.019 262.62 240.139 263.42 240.359C264.22 240.579 264.78 240.999 265.08 241.599C265.38 242.199 265.52 243.059 265.52 244.199C265.52 245.339 265.38 246.219 265.08 246.819C264.78 247.419 264.24 247.839 263.42 248.079C262.6 248.299 261.4 248.419 259.82 248.419H254.64ZM257.12 263.879C255.74 263.879 254.68 263.759 253.94 263.519C253.2 263.279 252.68 262.839 252.4 262.179C252.12 261.539 251.98 260.579 251.98 259.339C251.98 258.099 252.12 257.139 252.4 256.499C252.68 255.859 253.2 255.399 253.94 255.159C254.68 254.919 255.74 254.799 257.12 254.799C258.5 254.799 259.6 254.919 260.34 255.159C261.08 255.399 261.6 255.839 261.88 256.499C262.16 257.139 262.3 258.099 262.3 259.339C262.3 260.579 262.16 261.539 261.88 262.179C261.6 262.819 261.08 263.279 260.34 263.519C259.6 263.759 258.52 263.879 257.12 263.879ZM255.24 245.359H259.22C260.1 245.359 260.66 245.299 260.92 245.159C261.18 245.019 261.3 244.699 261.3 244.199C261.3 243.719 261.18 243.419 260.92 243.279C260.66 243.139 260.1 243.079 259.22 243.079H255.24C254.36 243.079 253.8 243.139 253.54 243.279C253.28 243.419 253.16 243.719 253.16 244.199C253.16 244.699 253.28 245.019 253.54 245.159C253.8 245.299 254.36 245.359 255.24 245.359ZM257.12 260.979C257.8 260.979 258.24 260.879 258.44 260.679C258.62 260.479 258.72 260.039 258.72 259.339C258.72 258.639 258.62 258.199 258.44 257.999C258.26 257.799 257.82 257.699 257.12 257.699C256.42 257.699 256.04 257.799 255.84 257.999C255.66 258.199 255.56 258.639 255.56 259.339C255.56 260.039 255.66 260.479 255.84 260.679C256.02 260.879 256.44 260.979 257.12 260.979Z" fill="#010F32"/>
<path d="M304.78 265.981C301.64 265.521 299.06 264.621 297.02 263.261C294.98 261.901 293.46 260.241 292.46 258.321C291.46 256.381 290.96 254.381 290.96 252.281C290.96 250.181 291.38 248.181 292.2 246.341C293.02 244.501 294.22 242.901 295.78 241.561C294.18 241.801 292.48 242.081 290.68 242.381C288.88 242.681 287.12 242.981 285.44 243.301C283.76 243.601 282.28 243.881 281 244.121C280.34 244.221 279.74 244.081 279.22 243.681C278.7 243.281 278.38 242.761 278.28 242.141C278.18 241.481 278.32 240.881 278.7 240.381C279.08 239.861 279.62 239.561 280.28 239.441C281.12 239.301 282.22 239.121 283.54 238.901C284.86 238.681 286.36 238.441 288 238.161C289.64 237.901 291.34 237.621 293.06 237.321C294.78 237.021 296.48 236.741 298.14 236.461C299.8 236.181 301.32 235.921 302.7 235.681C304.08 235.441 305.2 235.241 306.08 235.081C306.7 234.981 307.26 235.101 307.82 235.481C308.36 235.861 308.68 236.341 308.8 236.941C308.94 237.581 308.84 238.181 308.5 238.721C308.16 239.281 307.68 239.601 307.04 239.721C305.18 240.021 303.54 240.581 302.14 241.401C300.74 242.221 299.54 243.241 298.58 244.421C297.62 245.601 296.88 246.841 296.38 248.161C295.88 249.481 295.64 250.761 295.64 252.041C295.64 254.601 296.52 256.681 298.26 258.261C300.02 259.841 302.4 260.841 305.44 261.261C306.08 261.361 306.6 261.681 307 262.221C307.4 262.761 307.54 263.341 307.44 263.961C307.36 264.621 307.06 265.161 306.52 265.541C305.98 265.921 305.4 266.081 304.76 265.981H304.78ZM309.84 249.741C309.5 250.041 309.08 250.161 308.58 250.101C308.08 250.041 307.7 249.821 307.4 249.421C307.1 249.041 306.74 248.581 306.28 248.001C305.82 247.421 305.42 246.941 305.04 246.501C304.8 246.201 304.68 245.861 304.7 245.441C304.7 245.021 304.9 244.681 305.24 244.381C305.56 244.081 305.92 243.961 306.34 243.961C306.76 243.961 307.12 244.121 307.48 244.421C307.88 244.761 308.34 245.221 308.86 245.781C309.38 246.341 309.8 246.841 310.16 247.281C310.46 247.661 310.56 248.081 310.5 248.561C310.44 249.041 310.22 249.421 309.84 249.721V249.741ZM313.66 246.321C313.32 246.661 312.9 246.821 312.4 246.801C311.9 246.781 311.5 246.581 311.18 246.201C310.86 245.821 310.46 245.381 309.96 244.841C309.46 244.321 309.02 243.841 308.62 243.441C308.36 243.181 308.22 242.841 308.2 242.401C308.2 241.981 308.34 241.601 308.66 241.281C308.96 240.981 309.32 240.841 309.74 240.821C310.16 240.821 310.56 240.941 310.9 241.201C311.32 241.501 311.82 241.901 312.38 242.421C312.94 242.941 313.4 243.421 313.78 243.861C314.1 244.201 314.24 244.601 314.22 245.081C314.2 245.541 314 245.941 313.66 246.301V246.321Z" fill="#010F32"/>
<path d="M351.14 251.201L336.24 238.801V263.621L351.14 251.201Z" fill="#010F32"/>
<path d="M394 263.12C395.48 263.12 396.24 264.28 396.24 265.8C396.24 267.32 395.48 268.66 394 268.66H372.92C370.86 268.66 369.78 267.4 369.78 265.18C369.78 263.52 370.86 261.24 371.76 259.76C373.24 257.22 375.66 254.44 379.96 251.58L382.7 249.74C387 246.88 389.3 245.32 389.3 242C389.3 238.96 386.88 237.22 383.24 237.22C378.8 237.22 377.28 239.68 376.48 242.5C376.12 243.8 375.04 244.38 373.84 244.38C373.48 244.38 373.12 244.34 372.76 244.24C371.32 243.92 370.3 243.08 370.3 241.7C370.3 241.44 370.34 241.12 370.44 240.76C370.88 238.92 371.92 237.04 373.26 235.7C375.5 233.32 378.56 231.98 383.44 231.98C391.02 231.98 395.54 235.7 395.54 242C395.54 247.58 392.36 250.14 387.78 252.96L385.14 254.58C380.56 257.4 377.92 259.9 376.76 263.12H394.02H394Z" fill="#010F32"/>
<path d="M425.5 263.12C426.98 263.12 427.74 264.28 427.74 265.8C427.74 267.32 426.98 268.66 425.5 268.66H404.42C402.36 268.66 401.28 267.4 401.28 265.18C401.28 263.52 402.36 261.24 403.26 259.76C404.74 257.22 407.16 254.44 411.46 251.58L414.2 249.74C418.5 246.88 420.78 245.32 420.78 242C420.78 238.96 418.36 237.22 414.72 237.22C410.28 237.22 408.76 239.68 407.96 242.5C407.6 243.8 406.52 244.38 405.32 244.38C404.96 244.38 404.6 244.34 404.24 244.24C402.8 243.92 401.78 243.08 401.78 241.7C401.78 241.44 401.82 241.12 401.92 240.76C402.36 238.92 403.4 237.04 404.74 235.7C406.98 233.32 410.04 231.98 414.92 231.98C422.5 231.98 427.02 235.7 427.02 242C427.02 247.58 423.84 250.14 419.26 252.96L416.62 254.58C412.04 257.4 409.4 259.9 408.24 263.12H425.5Z" fill="#010F32"/>
<path d="M439.64 241.379C438.64 241.379 438.1 240.479 438.1 239.459C438.1 238.379 438.62 237.539 439.64 237.539H468.7C469.7 237.539 470.24 238.379 470.24 239.459C470.24 240.459 469.72 241.379 468.7 241.379H452.38C452.34 243.179 452.2 244.959 452.1 246.739H462.84C465.52 246.739 466.68 247.879 466.64 250.459C466.54 255.959 465.94 260.639 465.08 263.779C464.28 266.659 462.54 267.699 459.02 267.699C457.32 267.699 455.36 267.519 454.04 267.219C453.16 266.979 452.68 266.379 452.68 265.439C452.68 265.239 452.72 265.019 452.76 264.779C453 263.839 453.6 263.279 454.4 263.279C454.58 263.279 454.74 263.319 454.92 263.339C455.8 263.579 457.28 263.819 458.5 263.819C460.28 263.819 460.94 263.439 461.28 262.179C461.98 259.679 462.44 255.619 462.54 251.439V251.339C462.54 250.579 462.2 250.359 461.42 250.359H451.62C451.06 253.599 450.2 256.339 449.08 258.699C447.34 262.379 444.8 265.239 441.86 267.419C441.4 267.759 440.88 267.939 440.4 267.939C439.78 267.939 439.18 267.659 438.72 267.139C438.38 266.719 438.16 266.199 438.16 265.719C438.16 265.119 438.44 264.539 438.96 264.119C441.72 262.059 443.88 259.679 445.38 256.619C447.22 252.799 448.14 247.999 448.2 241.359H439.62L439.64 241.379Z" fill="#010F32"/>
<path d="M504.28 263.12C505.76 263.12 506.52 264.28 506.52 265.8C506.52 267.32 505.76 268.66 504.28 268.66H483.2C481.14 268.66 480.06 267.4 480.06 265.18C480.06 263.52 481.14 261.24 482.04 259.76C483.52 257.22 485.94 254.44 490.24 251.58L492.98 249.74C497.28 246.88 499.56 245.32 499.56 242C499.56 238.96 497.14 237.22 493.5 237.22C489.06 237.22 487.54 239.68 486.74 242.5C486.38 243.8 485.3 244.38 484.1 244.38C483.74 244.38 483.38 244.34 483.02 244.24C481.58 243.92 480.56 243.08 480.56 241.7C480.56 241.44 480.6 241.12 480.7 240.76C481.14 238.92 482.18 237.04 483.52 235.7C485.76 233.32 488.82 231.98 493.7 231.98C501.28 231.98 505.8 235.7 505.8 242C505.8 247.58 502.62 250.14 498.04 252.96L495.4 254.58C490.82 257.4 488.18 259.9 487.02 263.12H504.28Z" fill="#010F32"/>
<path d="M518.08 271.699C517.1 273.299 515.74 274.299 514.18 275.099C513.96 275.179 513.78 275.239 513.56 275.239C513.02 275.239 512.44 274.919 512.22 274.519C512.08 274.299 512 273.979 512 273.719C512 273.219 512.22 272.779 512.68 272.559C513.54 272.059 514.38 271.579 515.02 270.939C515.46 270.439 515.88 269.819 516 269.099V269.059C516 268.879 515.92 268.799 515.74 268.799H515.66C515.4 268.839 515.26 268.839 515.04 268.839C513.48 268.839 511.68 267.679 511.68 265.359C511.68 263.479 512.98 261.779 515.32 261.779C517.52 261.779 519.48 263.299 519.48 266.519C519.48 268.719 518.98 270.359 518.14 271.699H518.08Z" fill="#010F32"/>
<path d="M549.92 263.12C551.4 263.12 552.16 264.28 552.16 265.8C552.16 267.32 551.4 268.66 549.92 268.66H528.84C526.78 268.66 525.7 267.4 525.7 265.18C525.7 263.52 526.78 261.24 527.68 259.76C529.16 257.22 531.58 254.44 535.88 251.58L538.62 249.74C542.92 246.88 545.22 245.32 545.22 242C545.22 238.96 542.8 237.22 539.16 237.22C534.72 237.22 533.2 239.68 532.4 242.5C532.04 243.8 530.96 244.38 529.76 244.38C529.4 244.38 529.04 244.34 528.68 244.24C527.24 243.92 526.22 243.08 526.22 241.7C526.22 241.44 526.26 241.12 526.36 240.76C526.8 238.92 527.84 237.04 529.18 235.7C531.42 233.32 534.48 231.98 539.36 231.98C546.94 231.98 551.46 235.7 551.46 242C551.46 247.58 548.28 250.14 543.7 252.96L541.06 254.58C536.48 257.4 533.84 259.9 532.68 263.12H549.94H549.92Z" fill="#010F32"/>
<path d="M581.42 263.12C582.9 263.12 583.66 264.28 583.66 265.8C583.66 267.32 582.9 268.66 581.42 268.66H560.34C558.28 268.66 557.2 267.4 557.2 265.18C557.2 263.52 558.28 261.24 559.18 259.76C560.66 257.22 563.08 254.44 567.38 251.58L570.12 249.74C574.42 246.88 576.7 245.32 576.7 242C576.7 238.96 574.28 237.22 570.64 237.22C566.2 237.22 564.68 239.68 563.88 242.5C563.52 243.8 562.44 244.38 561.24 244.38C560.88 244.38 560.52 244.34 560.16 244.24C558.72 243.92 557.7 243.08 557.7 241.7C557.7 241.44 557.74 241.12 557.84 240.76C558.28 238.92 559.32 237.04 560.66 235.7C562.9 233.32 565.96 231.98 570.84 231.98C578.42 231.98 582.94 235.7 582.94 242C582.94 247.58 579.76 250.14 575.18 252.96L572.54 254.58C567.96 257.4 565.32 259.9 564.16 263.12H581.42Z" fill="#010F32"/>
<path d="M612.94 263.12C614.42 263.12 615.18 264.28 615.18 265.8C615.18 267.32 614.42 268.66 612.94 268.66H591.86C589.8 268.66 588.72 267.4 588.72 265.18C588.72 263.52 589.8 261.24 590.7 259.76C592.18 257.22 594.6 254.44 598.9 251.58L601.64 249.74C605.94 246.88 608.24 245.32 608.24 242C608.24 238.96 605.82 237.22 602.18 237.22C597.74 237.22 596.22 239.68 595.42 242.5C595.06 243.8 593.98 244.38 592.78 244.38C592.42 244.38 592.06 244.34 591.7 244.24C590.26 243.92 589.24 243.08 589.24 241.7C589.24 241.44 589.28 241.12 589.38 240.76C589.82 238.92 590.86 237.04 592.2 235.7C594.44 233.32 597.5 231.98 602.38 231.98C609.96 231.98 614.48 235.7 614.48 242C614.48 247.58 611.3 250.14 606.72 252.96L604.08 254.58C599.5 257.4 596.86 259.9 595.7 263.12H612.96H612.94Z" fill="#010F32"/>
<path d="M629.48 266.759C629.48 267.559 628.64 268.079 627.52 268.079C626.4 268.079 625.54 267.519 625.54 266.719V241.179C625.54 238.539 627.1 237.039 629.76 237.039H650.68C653.32 237.039 654.94 238.559 654.94 241.179V263.419C654.94 266.259 653.38 267.459 650.06 267.459C648.6 267.459 646.96 267.359 645.64 267.119C644.66 266.979 644.14 266.359 644.14 265.459C644.14 265.279 644.14 265.119 644.18 264.939C644.36 263.959 644.92 263.479 645.68 263.479C645.82 263.479 646 263.479 646.14 263.519C647.12 263.699 648.3 263.799 649.2 263.799C650.76 263.799 651.04 263.599 651.04 262.479V254.339H629.5V266.779L629.48 266.759ZM638.08 240.719H630.8C629.92 240.719 629.48 241.099 629.48 241.979V250.699H638.08V240.719ZM651 250.699V241.979C651 241.119 650.54 240.719 649.64 240.719H641.98V250.699H651Z" fill="#010F32"/>
</g>
<defs>
<clipPath id="clip0_489_164">
<rect width="680" height="309.66" fill="white" transform="translate(0.5 0.5)"/>
</clipPath>
</defs>
</svg>
