<svg width="790" height="120" viewBox="0 0 790 120" fill="none" xmlns="http://www.w3.org/2000/svg">
<g clip-path="url(#clip0_489_120)">
<path d="M170 120H0V0.230469H170L199.45 60.1105L170 120Z" fill="#F8DB6C"/>
<path d="M429.01 0H199.37L228.82 59.89L199.37 119.77H429.01L458.46 59.89L429.01 0Z" fill="#F6D03F"/>
<path d="M760.55 0H458.38L487.83 59.89L458.38 119.77H760.55L790 59.89L760.55 0Z" fill="#F3BE00"/>
<path d="M557.95 36.8198C558.87 36.8198 559.35 37.5498 559.35 38.4998C559.35 39.4498 558.87 40.2898 557.95 40.2898H544.79C543.5 40.2898 542.83 39.5098 542.83 38.1098C542.83 37.0698 543.5 35.6498 544.06 34.7198C544.98 33.1198 546.5 31.3898 549.18 29.5998L550.89 28.4498C553.58 26.6598 555.01 25.6798 555.01 23.6098C555.01 21.7098 553.5 20.6098 551.23 20.6098C548.46 20.6098 547.51 22.1498 547 23.9098C546.78 24.7198 546.1 25.0898 545.35 25.0898C545.13 25.0898 544.9 25.0598 544.68 25.0098C543.78 24.8098 543.14 24.2798 543.14 23.4098C543.14 23.2398 543.17 23.0498 543.22 22.8198C543.5 21.6698 544.14 20.4998 544.98 19.6598C546.38 18.1798 548.28 17.3398 551.34 17.3398C556.07 17.3398 558.9 19.6598 558.9 23.6098C558.9 27.1098 556.91 28.7098 554.06 30.4698L552.41 31.4798C549.55 33.2398 547.9 34.8098 547.17 36.8298H557.95V36.8198Z" fill="#010F32"/>
<path d="M569.37 42.2005C568.75 43.2105 567.91 43.8205 566.93 44.3305C566.79 44.3905 566.68 44.4105 566.54 44.4105C566.2 44.4105 565.84 44.2105 565.7 43.9605C565.62 43.8205 565.56 43.6205 565.56 43.4605C565.56 43.1505 565.7 42.8705 565.98 42.7305C566.51 42.4205 567.04 42.1105 567.44 41.7205C567.72 41.4105 567.97 41.0205 568.06 40.5705V40.5405C568.06 40.4305 568 40.3705 567.89 40.3705H567.83C567.66 40.4005 567.58 40.4005 567.44 40.4005C566.46 40.4005 565.34 39.6705 565.34 38.2205C565.34 37.0405 566.15 35.9805 567.61 35.9805C568.98 35.9805 570.21 36.9305 570.21 38.9505C570.21 40.3205 569.9 41.3605 569.37 42.2005Z" fill="#010F32"/>
<path d="M591.49 36.8198C592.41 36.8198 592.89 37.5498 592.89 38.4998C592.89 39.4498 592.41 40.2898 591.49 40.2898H578.33C577.04 40.2898 576.37 39.5098 576.37 38.1098C576.37 37.0698 577.04 35.6498 577.6 34.7198C578.52 33.1198 580.04 31.3898 582.72 29.5998L584.43 28.4498C587.12 26.6598 588.55 25.6798 588.55 23.6098C588.55 21.7098 587.04 20.6098 584.77 20.6098C582 20.6098 581.05 22.1498 580.54 23.9098C580.32 24.7198 579.64 25.0898 578.89 25.0898C578.67 25.0898 578.44 25.0598 578.22 25.0098C577.32 24.8098 576.68 24.2798 576.68 23.4098C576.68 23.2398 576.71 23.0498 576.76 22.8198C577.04 21.6698 577.68 20.4998 578.52 19.6598C579.92 18.1798 581.82 17.3398 584.88 17.3398C589.61 17.3398 592.44 19.6598 592.44 23.6098C592.44 27.1098 590.45 28.7098 587.6 30.4698L585.95 31.4798C583.09 33.2398 581.44 34.8098 580.71 36.8298H591.49V36.8198Z" fill="#010F32"/>
<path d="M613.42 36.8198C614.34 36.8198 614.82 37.5498 614.82 38.4998C614.82 39.4498 614.34 40.2898 613.42 40.2898H600.26C598.97 40.2898 598.3 39.5098 598.3 38.1098C598.3 37.0698 598.97 35.6498 599.53 34.7198C600.45 33.1198 601.97 31.3898 604.65 29.5998L606.36 28.4498C609.05 26.6598 610.48 25.6798 610.48 23.6098C610.48 21.7098 608.97 20.6098 606.7 20.6098C603.93 20.6098 602.98 22.1498 602.47 23.9098C602.25 24.7198 601.57 25.0898 600.82 25.0898C600.6 25.0898 600.37 25.0598 600.15 25.0098C599.25 24.8098 598.61 24.2798 598.61 23.4098C598.61 23.2398 598.64 23.0498 598.69 22.8198C598.97 21.6698 599.61 20.4998 600.45 19.6598C601.85 18.1798 603.75 17.3398 606.81 17.3398C611.54 17.3398 614.37 19.6598 614.37 23.6098C614.37 27.1098 612.38 28.7098 609.53 30.4698L607.88 31.4798C605.02 33.2398 603.37 34.8098 602.64 36.8298H613.42V36.8198Z" fill="#010F32"/>
<path d="M635.34 36.8198C636.26 36.8198 636.74 37.5498 636.74 38.4998C636.74 39.4498 636.26 40.2898 635.34 40.2898H622.18C620.89 40.2898 620.22 39.5098 620.22 38.1098C620.22 37.0698 620.89 35.6498 621.45 34.7198C622.37 33.1198 623.89 31.3898 626.57 29.5998L628.28 28.4498C630.97 26.6598 632.4 25.6798 632.4 23.6098C632.4 21.7098 630.89 20.6098 628.62 20.6098C625.85 20.6098 624.9 22.1498 624.39 23.9098C624.17 24.7198 623.49 25.0898 622.74 25.0898C622.52 25.0898 622.29 25.0598 622.07 25.0098C621.17 24.8098 620.53 24.2798 620.53 23.4098C620.53 23.2398 620.56 23.0498 620.61 22.8198C620.89 21.6698 621.53 20.4998 622.37 19.6598C623.77 18.1798 625.67 17.3398 628.73 17.3398C633.46 17.3398 636.29 19.6598 636.29 23.6098C636.29 27.1098 634.3 28.7098 631.45 30.4698L629.8 31.4798C626.94 33.2398 625.29 34.8098 624.56 36.8298H635.34V36.8198Z" fill="#010F32"/>
<path d="M648.8 39.8398C648.03 39.8398 647.6 39.4598 647.52 38.6998C647.49 38.3798 647.57 38.0998 647.75 37.8598C647.93 37.6198 648.18 37.4798 648.5 37.4398C648.9 37.3898 649.16 37.2998 649.28 37.1798C649.4 37.0598 649.46 36.8298 649.46 36.4998V33.3798C648.93 33.5898 648.5 33.7598 648.18 33.8798C647.81 34.0098 647.46 34.0098 647.15 33.8598C646.84 33.7098 646.63 33.4898 646.54 33.1798C646.45 32.8298 646.46 32.5198 646.59 32.2298C646.72 31.9398 646.97 31.7498 647.36 31.6398C647.65 31.5598 647.98 31.4598 648.35 31.3498C648.72 31.2398 649.09 31.1098 649.46 30.9798V27.3998H647.74C647.41 27.3998 647.14 27.2898 646.94 27.0698C646.74 26.8498 646.64 26.5898 646.64 26.2998C646.64 26.0098 646.74 25.7298 646.94 25.5198C647.14 25.3098 647.41 25.1998 647.74 25.1998H649.46V22.4198C649.46 22.0698 649.57 21.7998 649.79 21.5998C650.01 21.3998 650.27 21.2998 650.58 21.2998C650.89 21.2998 651.17 21.3998 651.39 21.5998C651.61 21.7998 651.72 22.0698 651.72 22.4198V25.1998H652.7C653.05 25.1998 653.32 25.3098 653.51 25.5198C653.7 25.7298 653.8 25.9898 653.8 26.2998C653.8 26.6098 653.7 26.8498 653.51 27.0698C653.32 27.2898 653.05 27.3998 652.7 27.3998H651.72V30.1798C651.87 30.1298 652.01 30.0798 652.14 30.0298C652.27 29.9798 652.4 29.9298 652.52 29.8798C652.83 29.7598 653.1 29.7598 653.35 29.8798C653.6 29.9998 653.76 30.1898 653.84 30.4598C653.85 30.5098 653.86 30.5598 653.87 30.5998C653.87 30.6398 653.89 30.6798 653.9 30.7198C653.93 30.4798 654.03 30.2798 654.2 30.1098C654.37 29.9398 654.59 29.8598 654.86 29.8598H660.64C661.32 29.8598 661.85 30.0098 662.23 30.2998C662.61 30.5898 662.83 30.9798 662.9 31.4498C662.97 31.9198 662.85 32.4298 662.56 32.9598C662.31 33.4398 662.02 33.8998 661.71 34.3498C661.4 34.7998 661.05 35.2298 660.68 35.6398C661.16 36.0098 661.69 36.3398 662.27 36.6198C662.85 36.8998 663.48 37.1198 664.16 37.2798C664.53 37.3698 664.8 37.5398 664.97 37.7898C665.14 38.0398 665.17 38.3298 665.06 38.6798C664.95 39.0098 664.74 39.2498 664.43 39.3798C664.12 39.5098 663.79 39.5298 663.44 39.4198C662.57 39.1398 661.78 38.8098 661.05 38.4198C660.32 38.0298 659.67 37.5998 659.08 37.1198C658.41 37.6498 657.69 38.1298 656.91 38.5398C656.13 38.9498 655.29 39.2998 654.4 39.5798C654.07 39.6898 653.76 39.6698 653.48 39.5298C653.2 39.3898 653.01 39.1698 652.9 38.8798C652.81 38.5898 652.82 38.3098 652.95 38.0598C653.08 37.8098 653.31 37.6298 653.64 37.5198C655.08 37.0498 656.38 36.4098 657.54 35.5798C657.1 35.0298 656.71 34.4498 656.38 33.8398C656.05 33.2298 655.77 32.5798 655.54 31.8998H654.86C654.61 31.8998 654.39 31.8198 654.22 31.6598C654.05 31.4998 653.94 31.3098 653.9 31.0798C653.87 31.2298 653.8 31.3698 653.69 31.4998C653.58 31.6298 653.41 31.7498 653.18 31.8598C652.99 31.9398 652.77 32.0298 652.52 32.1398C652.27 32.2498 652 32.3598 651.72 32.4798V36.9998C651.72 37.9598 651.49 38.6698 651.03 39.1398C650.57 39.6098 649.83 39.8398 648.8 39.8398ZM655.54 29.3798C655.29 29.5798 654.99 29.6798 654.65 29.6798C654.31 29.6798 654.03 29.5698 653.8 29.3398C653.59 29.1098 653.49 28.8498 653.51 28.5598C653.53 28.2698 653.66 28.0098 653.9 27.7998C654.25 27.5198 654.51 27.2398 654.7 26.9498C654.89 26.6598 655.02 26.3198 655.1 25.9198C655.18 25.5198 655.22 24.9998 655.22 24.3598C655.23 23.7498 655.34 23.2598 655.53 22.8998C655.72 22.5398 656.05 22.2798 656.52 22.1298C656.99 21.9798 657.63 21.8998 658.44 21.8998C659.25 21.8998 659.89 21.9798 660.36 22.1298C660.83 22.2798 661.16 22.5398 661.35 22.8998C661.54 23.2598 661.64 23.7498 661.64 24.3798V26.4798C661.64 26.6698 661.69 26.7898 661.79 26.8598C661.89 26.9298 662.06 26.9598 662.3 26.9598C662.55 26.9598 662.73 26.8898 662.82 26.7498C662.91 26.6098 663.01 26.3098 663.1 25.8598C663.17 25.5498 663.33 25.3398 663.6 25.2198C663.87 25.0998 664.16 25.0698 664.48 25.1398C664.79 25.2098 665.02 25.3598 665.17 25.5998C665.32 25.8398 665.37 26.1098 665.32 26.4198C665.15 27.4298 664.82 28.1398 664.34 28.5298C663.86 28.9198 663.15 29.1198 662.2 29.1198C661.19 29.1198 660.47 28.9698 660.06 28.6698C659.65 28.3698 659.44 27.7998 659.44 26.9598V24.7998C659.44 24.4498 659.38 24.2298 659.25 24.1198C659.12 24.0098 658.86 23.9598 658.46 23.9598C658.06 23.9598 657.78 24.0098 657.65 24.1198C657.52 24.2298 657.46 24.4498 657.46 24.7998C657.45 25.8398 657.27 26.7398 656.93 27.5098C656.59 28.2798 656.13 28.8998 655.54 29.3798ZM659.14 34.1598C659.35 33.9298 659.55 33.6998 659.73 33.4698C659.91 33.2398 660.07 32.9998 660.22 32.7598C660.59 32.1898 660.42 31.8998 659.7 31.8998H657.76C657.93 32.2898 658.13 32.6698 658.36 33.0598C658.59 33.4498 658.85 33.8098 659.14 34.1598Z" fill="#010F32"/>
<path d="M672.44 39.9198C672.15 39.9198 671.9 39.8298 671.7 39.6398C671.5 39.4498 671.4 39.1898 671.4 38.8598V32.8798C671.2 33.2798 671 33.6598 670.81 34.0298C670.62 34.3998 670.43 34.7198 670.26 34.9998C670.1 35.2398 669.88 35.3998 669.59 35.4698C669.3 35.5398 669.03 35.5098 668.76 35.3798C668.51 35.2298 668.36 35.0098 668.32 34.6998C668.28 34.3898 668.35 34.1198 668.52 33.8798C668.73 33.5698 668.97 33.1898 669.24 32.7298C669.51 32.2698 669.77 31.7798 670.04 31.2498C670.31 30.7198 670.56 30.2098 670.79 29.6998C671.02 29.1898 671.21 28.7398 671.36 28.3398H669.58C669.26 28.3398 669.01 28.2398 668.82 28.0398C668.63 27.8398 668.54 27.5898 668.54 27.2998C668.54 27.0098 668.63 26.7798 668.82 26.5798C669.01 26.3798 669.26 26.2798 669.58 26.2798H671.4V24.6398C671.16 24.6898 670.93 24.7398 670.71 24.7898C670.49 24.8398 670.27 24.8698 670.04 24.8998C669.63 24.9498 669.31 24.9198 669.1 24.7898C668.89 24.6598 668.75 24.4498 668.68 24.1598C668.61 23.8398 668.66 23.5798 668.82 23.3698C668.98 23.1598 669.21 23.0398 669.52 22.9998C670.03 22.9298 670.56 22.8398 671.13 22.7198C671.7 22.5998 672.24 22.4598 672.77 22.2998C673.3 22.1398 673.75 21.9898 674.12 21.8398C674.43 21.7298 674.72 21.7298 674.99 21.8398C675.26 21.9398 675.45 22.1298 675.54 22.4098C675.63 22.6598 675.63 22.9098 675.54 23.1398C675.44 23.3698 675.26 23.5398 674.99 23.6498C674.76 23.7298 674.53 23.8098 674.28 23.8898C674.03 23.9698 673.78 24.0498 673.51 24.1298V26.2898H674.65C674.97 26.2898 675.22 26.3898 675.41 26.5898C675.6 26.7898 675.69 27.0298 675.69 27.3098C675.69 27.5998 675.6 27.8498 675.41 28.0498C675.22 28.2498 674.97 28.3498 674.65 28.3498H673.51V29.1098C673.7 29.3398 673.93 29.6098 674.2 29.9198C674.47 30.2298 674.75 30.5398 675.03 30.8298C675.31 31.1198 675.54 31.3598 675.71 31.5298C675.75 31.5598 675.8 31.6098 675.85 31.6898C676.29 31.0598 677.22 30.7498 678.65 30.7498H683.55C684.78 30.7498 685.62 30.9598 686.08 31.3798C686.54 31.7998 686.77 32.4998 686.77 33.4898V37.3298C686.77 38.2098 686.56 38.8498 686.13 39.2498C685.7 39.6498 685.04 39.8498 684.13 39.8498C683.82 39.8498 683.57 39.7598 683.36 39.5898C683.15 39.4198 683.03 39.1998 682.99 38.9298C682.94 38.5998 683 38.3298 683.18 38.1198C683.36 37.9098 683.6 37.7898 683.91 37.7498C684.2 37.7098 684.39 37.6398 684.48 37.5298C684.57 37.4198 684.61 37.2298 684.61 36.9498V33.8498C684.61 33.3198 684.52 32.9698 684.35 32.8098C684.18 32.6498 683.78 32.5698 683.15 32.5698H679.05C678.44 32.5698 678.04 32.6498 677.86 32.8098C677.68 32.9698 677.59 33.3198 677.59 33.8498V38.8498C677.59 39.1698 677.49 39.4298 677.28 39.6298C677.07 39.8298 676.82 39.9298 676.51 39.9298C676.2 39.9298 675.96 39.8298 675.75 39.6298C675.54 39.4298 675.43 39.1698 675.43 38.8498V33.3198C675.43 33.3198 675.43 33.2198 675.45 33.1698C675.04 33.3398 674.66 33.2598 674.33 32.9098C674.13 32.6798 673.86 32.3598 673.51 31.9298V38.8698C673.51 39.1998 673.41 39.4598 673.21 39.6498C673.01 39.8398 672.76 39.9298 672.45 39.9298L672.44 39.9198ZM676.06 25.0598C675.77 25.0598 675.54 24.9698 675.38 24.7898C675.22 24.6098 675.14 24.3898 675.14 24.1398C675.14 23.8698 675.22 23.6498 675.38 23.4798C675.54 23.3098 675.77 23.2198 676.06 23.2198H679.84V22.4598C679.84 22.0898 679.96 21.7898 680.19 21.5798C680.42 21.3698 680.71 21.2598 681.04 21.2598C681.37 21.2598 681.65 21.3698 681.88 21.5798C682.11 21.7898 682.22 22.0898 682.22 22.4598V23.2198H686.16C686.45 23.2198 686.68 23.3098 686.85 23.4798C687.02 23.6498 687.1 23.8698 687.1 24.1398C687.1 24.4098 687.02 24.6098 686.85 24.7898C686.68 24.9698 686.45 25.0598 686.16 25.0598H676.06ZM679.82 29.9998C679.03 29.9998 678.43 29.9398 678.02 29.8298C677.61 29.7198 677.33 29.5098 677.18 29.1998C677.03 28.8898 676.96 28.4498 676.96 27.8798C676.96 27.3098 677.03 26.8698 677.18 26.5698C677.33 26.2698 677.61 26.0598 678.02 25.9498C678.43 25.8398 679.03 25.7798 679.82 25.7798H682.42C683.22 25.7798 683.82 25.8398 684.23 25.9498C684.64 26.0598 684.91 26.2698 685.06 26.5698C685.21 26.8698 685.28 27.3098 685.28 27.8798C685.28 28.4498 685.21 28.8898 685.06 29.1998C684.91 29.5098 684.64 29.7198 684.23 29.8298C683.82 29.9398 683.22 29.9998 682.42 29.9998H679.82ZM681.06 37.7798C680.37 37.7798 679.83 37.7198 679.46 37.5998C679.09 37.4798 678.83 37.2598 678.69 36.9298C678.55 36.5998 678.48 36.1298 678.48 35.4998C678.48 34.8698 678.55 34.3998 678.69 34.0698C678.83 33.7398 679.09 33.5198 679.46 33.3998C679.83 33.2798 680.37 33.2198 681.06 33.2198C681.75 33.2198 682.31 33.2798 682.68 33.3998C683.05 33.5198 683.31 33.7398 683.45 34.0698C683.59 34.3998 683.66 34.8698 683.66 35.4998C683.66 36.1298 683.59 36.5998 683.45 36.9298C683.31 37.2598 683.05 37.4798 682.68 37.5998C682.31 37.7198 681.77 37.7798 681.06 37.7798ZM680.12 28.4598H682.12C682.56 28.4598 682.84 28.4298 682.97 28.3598C683.1 28.2898 683.16 28.1298 683.16 27.8798C683.16 27.6398 683.1 27.4898 682.97 27.4198C682.84 27.3498 682.56 27.3198 682.12 27.3198H680.12C679.68 27.3198 679.4 27.3498 679.27 27.4198C679.14 27.4898 679.08 27.6398 679.08 27.8798C679.08 28.1298 679.14 28.2898 679.27 28.3598C679.4 28.4298 679.68 28.4598 680.12 28.4598ZM681.06 36.3198C681.41 36.3198 681.63 36.2698 681.72 36.1698C681.81 36.0698 681.86 35.8498 681.86 35.4998C681.86 35.1498 681.81 34.9298 681.72 34.8298C681.63 34.7298 681.41 34.6798 681.06 34.6798C680.71 34.6798 680.51 34.7298 680.42 34.8298C680.33 34.9298 680.28 35.1498 680.28 35.4998C680.28 35.8498 680.33 36.0698 680.42 36.1698C680.51 36.2698 680.73 36.3198 681.06 36.3198Z" fill="#010F32"/>
<path d="M705 38.8405C703.43 38.6105 702.13 38.1605 701.1 37.4705C700.07 36.7805 699.31 35.9505 698.81 34.9805C698.31 34.0105 698.06 32.9905 698.06 31.9405C698.06 30.8905 698.27 29.8805 698.68 28.9505C699.09 28.0205 699.69 27.2205 700.48 26.5405C699.68 26.6605 698.83 26.8005 697.92 26.9505C697.01 27.1005 696.14 27.2605 695.29 27.4105C694.44 27.5605 693.7 27.7005 693.06 27.8205C692.73 27.8705 692.43 27.8005 692.17 27.6005C691.91 27.4005 691.75 27.1405 691.7 26.8205C691.65 26.4905 691.72 26.1905 691.91 25.9305C692.1 25.6705 692.37 25.5105 692.7 25.4605C693.13 25.3905 693.67 25.3005 694.34 25.1905C695.01 25.0805 695.75 24.9505 696.58 24.8205C697.41 24.6905 698.25 24.5505 699.12 24.4005C699.99 24.2505 700.84 24.1105 701.67 23.9705C702.5 23.8305 703.27 23.7005 703.96 23.5805C704.65 23.4605 705.22 23.3605 705.66 23.2805C705.97 23.2305 706.26 23.2905 706.53 23.4805C706.8 23.6705 706.97 23.9105 707.02 24.2205C707.09 24.5405 707.04 24.8405 706.87 25.1205C706.7 25.4005 706.46 25.5705 706.14 25.6205C705.21 25.7705 704.39 26.0505 703.68 26.4705C702.97 26.8905 702.38 27.4005 701.89 27.9905C701.4 28.5805 701.04 29.2105 700.79 29.8705C700.54 30.5305 700.42 31.1805 700.42 31.8205C700.42 33.1105 700.86 34.1605 701.74 34.9505C702.62 35.7405 703.82 36.2505 705.34 36.4605C705.66 36.5105 705.92 36.6705 706.12 36.9405C706.32 37.2105 706.39 37.5005 706.34 37.8205C706.3 38.1505 706.15 38.4205 705.88 38.6205C705.61 38.8205 705.32 38.8905 705 38.8405ZM707.54 30.6605C707.37 30.8105 707.16 30.8705 706.91 30.8405C706.66 30.8105 706.47 30.7005 706.32 30.5005C706.17 30.3105 705.99 30.0805 705.76 29.7905C705.53 29.5005 705.33 29.2505 705.14 29.0405C705.02 28.8905 704.96 28.7205 704.97 28.5105C704.97 28.3005 705.07 28.1305 705.24 27.9805C705.4 27.8305 705.58 27.7605 705.79 27.7705C706 27.7705 706.19 27.8505 706.36 28.0005C706.56 28.1705 706.79 28.4005 707.05 28.6805C707.31 28.9605 707.53 29.2105 707.7 29.4405C707.85 29.6305 707.9 29.8405 707.87 30.0805C707.84 30.3205 707.73 30.5105 707.54 30.6605ZM709.46 28.9405C709.29 29.1105 709.08 29.1905 708.83 29.1805C708.58 29.1705 708.38 29.0705 708.22 28.8805C708.06 28.6905 707.86 28.4705 707.61 28.2005C707.36 27.9305 707.14 27.7005 706.94 27.5005C706.81 27.3705 706.74 27.1905 706.73 26.9805C706.73 26.7705 706.8 26.5805 706.96 26.4205C707.11 26.2705 707.29 26.2005 707.5 26.1905C707.71 26.1905 707.91 26.2505 708.08 26.3805C708.29 26.5305 708.54 26.7305 708.82 26.9905C709.1 27.2505 709.33 27.4905 709.52 27.7205C709.68 27.8905 709.75 28.1005 709.74 28.3305C709.73 28.5605 709.63 28.7705 709.46 28.9405Z" fill="#010F32"/>
<path d="M535.23 98.7499C536.42 98.7499 537.03 99.6899 537.03 100.91C537.03 102.13 536.42 103.21 535.23 103.21H518.31C516.65 103.21 515.79 102.2 515.79 100.4C515.79 99.0699 516.65 97.2299 517.37 96.0399C518.56 93.9899 520.5 91.7599 523.96 89.4499L526.16 87.9699C529.62 85.6699 531.45 84.4099 531.45 81.7399C531.45 79.2899 529.51 77.8899 526.59 77.8899C523.03 77.8899 521.8 79.8699 521.15 82.1399C520.86 83.1799 520 83.6499 519.03 83.6499C518.74 83.6499 518.45 83.6099 518.17 83.5399C517.02 83.2899 516.19 82.5999 516.19 81.4899C516.19 81.2699 516.23 81.0199 516.3 80.7299C516.66 79.2499 517.49 77.7399 518.57 76.6599C520.37 74.7499 522.82 73.6699 526.74 73.6699C532.82 73.6699 536.46 76.6599 536.46 81.7299C536.46 86.2299 533.9 88.2799 530.23 90.5499L528.11 91.8399C524.44 94.1099 522.31 96.1199 521.38 98.7199H535.24L535.23 98.7499Z" fill="#010F32"/>
<path d="M560.54 98.7499C561.73 98.7499 562.34 99.6899 562.34 100.91C562.34 102.13 561.73 103.21 560.54 103.21H543.62C541.96 103.21 541.1 102.2 541.1 100.4C541.1 99.0699 541.96 97.2299 542.68 96.0399C543.87 93.9899 545.81 91.7599 549.27 89.4499L551.47 87.9699C554.93 85.6699 556.76 84.4099 556.76 81.7399C556.76 79.2899 554.82 77.8899 551.9 77.8899C548.34 77.8899 547.11 79.8699 546.46 82.1399C546.17 83.1799 545.31 83.6499 544.34 83.6499C544.05 83.6499 543.76 83.6099 543.48 83.5399C542.33 83.2899 541.5 82.5999 541.5 81.4899C541.5 81.2699 541.54 81.0199 541.61 80.7299C541.97 79.2499 542.8 77.7399 543.88 76.6599C545.68 74.7499 548.13 73.6699 552.05 73.6699C558.13 73.6699 561.77 76.6599 561.77 81.7299C561.77 86.2299 559.21 88.2799 555.54 90.5499L553.42 91.8399C549.75 94.1099 547.63 96.1199 546.69 98.7199H560.55L560.54 98.7499Z" fill="#010F32"/>
<path d="M570.97 84.3002C570.27 84.3002 569.91 83.6802 569.91 82.9802C569.91 82.2402 570.27 81.6602 570.97 81.6602H590.99C591.69 81.6602 592.05 82.2402 592.05 82.9802C592.05 83.6802 591.69 84.3002 590.99 84.3002H579.76C579.74 85.5502 579.64 86.7702 579.57 88.0002H586.96C588.81 88.0002 589.6 88.7902 589.58 90.5702C589.51 94.3602 589.1 97.6002 588.5 99.7602C587.95 101.75 586.75 102.47 584.32 102.47C583.14 102.47 581.8 102.35 580.89 102.13C580.29 101.96 579.95 101.55 579.95 100.91C579.95 100.77 579.97 100.62 580 100.45C580.17 99.8001 580.58 99.4202 581.13 99.4202C581.25 99.4202 581.37 99.4402 581.49 99.4702C582.09 99.6402 583.12 99.8102 583.96 99.8102C585.18 99.8102 585.64 99.5502 585.88 98.6802C586.36 96.9502 586.67 94.1402 586.74 91.2602V91.1902C586.74 90.6602 586.5 90.5201 585.97 90.5201H579.23C578.85 92.7501 578.25 94.6502 577.48 96.2802C576.28 98.8202 574.53 100.79 572.51 102.3C572.2 102.54 571.84 102.66 571.5 102.66C571.07 102.66 570.66 102.47 570.35 102.11C570.11 101.82 569.97 101.46 569.97 101.13C569.97 100.72 570.16 100.31 570.52 100.03C572.42 98.6102 573.9 96.9602 574.94 94.8502C576.21 92.2102 576.84 88.9002 576.88 84.3102H570.98L570.97 84.3002Z" fill="#010F32"/>
<path d="M618.84 98.7499C620.03 98.7499 620.64 99.6899 620.64 100.91C620.64 102.13 620.03 103.21 618.84 103.21H601.92C600.26 103.21 599.4 102.2 599.4 100.4C599.4 99.0699 600.26 97.2299 600.98 96.0399C602.17 93.9899 604.11 91.7599 607.57 89.4499L609.77 87.9699C613.23 85.6699 615.06 84.4099 615.06 81.7399C615.06 79.2899 613.12 77.8899 610.2 77.8899C606.64 77.8899 605.41 79.8699 604.76 82.1399C604.47 83.1799 603.61 83.6499 602.64 83.6499C602.35 83.6499 602.06 83.6099 601.78 83.5399C600.63 83.2899 599.8 82.5999 599.8 81.4899C599.8 81.2699 599.84 81.0199 599.91 80.7299C600.27 79.2499 601.1 77.7399 602.18 76.6599C603.98 74.7499 606.43 73.6699 610.35 73.6699C616.43 73.6699 620.07 76.6599 620.07 81.7299C620.07 86.2299 617.51 88.2799 613.84 90.5499L611.72 91.8399C608.05 94.1099 605.92 96.1199 604.99 98.7199H618.85L618.84 98.7499Z" fill="#010F32"/>
<path d="M629.93 105.66C629.14 106.96 628.06 107.75 626.8 108.4C626.62 108.47 626.48 108.51 626.3 108.51C625.87 108.51 625.4 108.26 625.22 107.93C625.11 107.75 625.04 107.5 625.04 107.28C625.04 106.88 625.22 106.52 625.58 106.34C626.26 105.94 626.95 105.55 627.45 105.04C627.81 104.64 628.13 104.14 628.24 103.56V103.52C628.24 103.38 628.17 103.3 628.02 103.3H627.95C627.73 103.34 627.63 103.34 627.45 103.34C626.19 103.34 624.75 102.4 624.75 100.53C624.75 99.0204 625.79 97.6504 627.67 97.6504C629.43 97.6504 631.02 98.8704 631.02 101.47C631.02 103.23 630.62 104.57 629.94 105.65L629.93 105.66Z" fill="#010F32"/>
<path d="M655.49 98.7499C656.68 98.7499 657.29 99.6899 657.29 100.91C657.29 102.13 656.68 103.21 655.49 103.21H638.57C636.91 103.21 636.05 102.2 636.05 100.4C636.05 99.0699 636.91 97.2299 637.63 96.0399C638.82 93.9899 640.76 91.7599 644.22 89.4499L646.42 87.9699C649.88 85.6699 651.71 84.4099 651.71 81.7399C651.71 79.2899 649.77 77.8899 646.85 77.8899C643.29 77.8899 642.06 79.8699 641.41 82.1399C641.12 83.1799 640.26 83.6499 639.29 83.6499C639 83.6499 638.71 83.6099 638.43 83.5399C637.28 83.2899 636.45 82.5999 636.45 81.4899C636.45 81.2699 636.49 81.0199 636.56 80.7299C636.92 79.2499 637.75 77.7399 638.83 76.6599C640.63 74.7499 643.08 73.6699 647 73.6699C653.08 73.6699 656.72 76.6599 656.72 81.7299C656.72 86.2299 654.16 88.2799 650.49 90.5499L648.37 91.8399C644.7 94.1099 642.57 96.1199 641.64 98.7199H655.5L655.49 98.7499Z" fill="#010F32"/>
<path d="M680.8 98.7499C681.99 98.7499 682.6 99.6899 682.6 100.91C682.6 102.13 681.99 103.21 680.8 103.21H663.88C662.22 103.21 661.36 102.2 661.36 100.4C661.36 99.0699 662.22 97.2299 662.94 96.0399C664.13 93.9899 666.07 91.7599 669.53 89.4499L671.73 87.9699C675.19 85.6699 677.02 84.4099 677.02 81.7399C677.02 79.2899 675.08 77.8899 672.16 77.8899C668.6 77.8899 667.37 79.8699 666.72 82.1399C666.43 83.1799 665.57 83.6499 664.6 83.6499C664.31 83.6499 664.02 83.6099 663.74 83.5399C662.59 83.2899 661.76 82.5999 661.76 81.4899C661.76 81.2699 661.8 81.0199 661.87 80.7299C662.23 79.2499 663.06 77.7399 664.14 76.6599C665.94 74.7499 668.39 73.6699 672.31 73.6699C678.39 73.6699 682.03 76.6599 682.03 81.7299C682.03 86.2299 679.47 88.2799 675.8 90.5499L673.68 91.8399C670.01 94.1099 667.88 96.1199 666.95 98.7199H680.81L680.8 98.7499Z" fill="#010F32"/>
<path d="M706.1 98.7499C707.29 98.7499 707.9 99.6899 707.9 100.91C707.9 102.13 707.29 103.21 706.1 103.21H689.18C687.52 103.21 686.66 102.2 686.66 100.4C686.66 99.0699 687.52 97.2299 688.24 96.0399C689.43 93.9899 691.37 91.7599 694.83 89.4499L697.03 87.9699C700.49 85.6699 702.32 84.4099 702.32 81.7399C702.32 79.2899 700.38 77.8899 697.46 77.8899C693.9 77.8899 692.67 79.8699 692.02 82.1399C691.73 83.1799 690.87 83.6499 689.9 83.6499C689.61 83.6499 689.32 83.6099 689.04 83.5399C687.89 83.2899 687.06 82.5999 687.06 81.4899C687.06 81.2699 687.1 81.0199 687.17 80.7299C687.53 79.2499 688.36 77.7399 689.44 76.6599C691.24 74.7499 693.69 73.6699 697.61 73.6699C703.69 73.6699 707.33 76.6599 707.33 81.7299C707.33 86.2299 704.77 88.2799 701.1 90.5499L698.98 91.8399C695.31 94.1099 693.18 96.1199 692.25 98.7199H706.11L706.1 98.7499Z" fill="#010F32"/>
<path d="M717.16 101.82C717.16 102.37 716.58 102.73 715.82 102.73C715.06 102.73 714.45 102.35 714.45 101.79V84.15C714.45 82.33 715.53 81.29 717.35 81.29H731.75C733.57 81.29 734.68 82.35 734.68 84.15V99.51C734.68 101.48 733.6 102.29 731.32 102.29C730.31 102.29 729.18 102.22 728.27 102.05C727.6 101.95 727.24 101.52 727.24 100.9C727.24 100.78 727.24 100.66 727.26 100.54C727.38 99.87 727.76 99.53 728.29 99.53C728.39 99.53 728.51 99.53 728.6 99.55C729.27 99.67 730.09 99.74 730.71 99.74C731.79 99.74 731.98 99.6 731.98 98.83V93.21H717.15V101.8L717.16 101.82ZM723.09 83.84H718.07C717.47 83.84 717.16 84.1 717.16 84.7V90.72H723.09V83.83V83.84ZM731.99 90.73V84.71C731.99 84.11 731.68 83.85 731.05 83.85H725.77V90.74H731.99V90.73Z" fill="#010F32"/>
<path d="M626.73 64.8603L633.84 52.5303H619.61L626.73 64.8603Z" fill="#010F32"/>
<path d="M41.85 36.8198C42.77 36.8198 43.25 37.5498 43.25 38.4998C43.25 39.4498 42.77 40.2898 41.85 40.2898H28.69C27.4 40.2898 26.73 39.5098 26.73 38.1098C26.73 37.0698 27.4 35.6498 27.96 34.7198C28.88 33.1198 30.4 31.3898 33.08 29.5998L34.79 28.4498C37.48 26.6598 38.91 25.6798 38.91 23.6098C38.91 21.7098 37.4 20.6098 35.13 20.6098C32.36 20.6098 31.41 22.1498 30.9 23.9098C30.68 24.7198 30 25.0898 29.25 25.0898C29.03 25.0898 28.8 25.0598 28.58 25.0098C27.68 24.8098 27.04 24.2798 27.04 23.4098C27.04 23.2398 27.07 23.0498 27.12 22.8198C27.4 21.6698 28.04 20.4998 28.88 19.6598C30.28 18.1798 32.18 17.3398 35.24 17.3398C39.97 17.3398 42.8 19.6598 42.8 23.6098C42.8 27.1098 40.81 28.7098 37.96 30.4698L36.31 31.4798C33.45 33.2398 31.8 34.8098 31.07 36.8298H41.85V36.8198Z" fill="#010F32"/>
<path d="M63.77 36.8198C64.69 36.8198 65.17 37.5498 65.17 38.4998C65.17 39.4498 64.69 40.2898 63.77 40.2898H50.61C49.32 40.2898 48.65 39.5098 48.65 38.1098C48.65 37.0698 49.32 35.6498 49.88 34.7198C50.8 33.1198 52.32 31.3898 55 29.5998L56.71 28.4498C59.4 26.6598 60.83 25.6798 60.83 23.6098C60.83 21.7098 59.32 20.6098 57.05 20.6098C54.28 20.6098 53.33 22.1498 52.82 23.9098C52.6 24.7198 51.92 25.0898 51.17 25.0898C50.95 25.0898 50.72 25.0598 50.5 25.0098C49.6 24.8098 48.96 24.2798 48.96 23.4098C48.96 23.2398 48.99 23.0498 49.04 22.8198C49.32 21.6698 49.96 20.4998 50.8 19.6598C52.2 18.1798 54.1 17.3398 57.16 17.3398C61.89 17.3398 64.72 19.6598 64.72 23.6098C64.72 27.1098 62.73 28.7098 59.88 30.4698L58.23 31.4798C55.37 33.2398 53.72 34.8098 52.99 36.8298H63.77V36.8198Z" fill="#010F32"/>
<path d="M85.69 36.8198C86.61 36.8198 87.09 37.5498 87.09 38.4998C87.09 39.4498 86.61 40.2898 85.69 40.2898H72.53C71.24 40.2898 70.57 39.5098 70.57 38.1098C70.57 37.0698 71.24 35.6498 71.8 34.7198C72.72 33.1198 74.24 31.3898 76.92 29.5998L78.63 28.4498C81.32 26.6598 82.75 25.6798 82.75 23.6098C82.75 21.7098 81.24 20.6098 78.97 20.6098C76.2 20.6098 75.25 22.1498 74.74 23.9098C74.52 24.7198 73.84 25.0898 73.09 25.0898C72.87 25.0898 72.64 25.0598 72.42 25.0098C71.52 24.8098 70.88 24.2798 70.88 23.4098C70.88 23.2398 70.91 23.0498 70.96 22.8198C71.24 21.6698 71.88 20.4998 72.72 19.6598C74.12 18.1798 76.02 17.3398 79.08 17.3398C83.81 17.3398 86.64 19.6598 86.64 23.6098C86.64 27.1098 84.65 28.7098 81.8 30.4698L80.15 31.4798C77.29 33.2398 75.64 34.8098 74.91 36.8298H85.69V36.8198Z" fill="#010F32"/>
<path d="M95.8 39.8398C95.03 39.8398 94.6 39.4598 94.52 38.6998C94.49 38.3798 94.57 38.0998 94.75 37.8598C94.93 37.6198 95.18 37.4798 95.5 37.4398C95.9 37.3898 96.16 37.2998 96.28 37.1798C96.4 37.0598 96.46 36.8298 96.46 36.4998V33.3798C95.93 33.5898 95.5 33.7598 95.18 33.8798C94.81 34.0098 94.46 34.0098 94.15 33.8598C93.84 33.7098 93.63 33.4898 93.54 33.1798C93.45 32.8298 93.46 32.5198 93.59 32.2298C93.72 31.9398 93.97 31.7498 94.36 31.6398C94.65 31.5598 94.98 31.4598 95.35 31.3498C95.72 31.2398 96.09 31.1098 96.46 30.9798V27.3998H94.74C94.41 27.3998 94.14 27.2898 93.94 27.0698C93.74 26.8498 93.64 26.5898 93.64 26.2998C93.64 26.0098 93.74 25.7298 93.94 25.5198C94.14 25.3098 94.41 25.1998 94.74 25.1998H96.46V22.4198C96.46 22.0698 96.57 21.7998 96.79 21.5998C97.01 21.3998 97.27 21.2998 97.58 21.2998C97.89 21.2998 98.17 21.3998 98.39 21.5998C98.61 21.7998 98.72 22.0698 98.72 22.4198V25.1998H99.7C100.05 25.1998 100.32 25.3098 100.51 25.5198C100.7 25.7298 100.8 25.9898 100.8 26.2998C100.8 26.6098 100.7 26.8498 100.51 27.0698C100.32 27.2898 100.05 27.3998 99.7 27.3998H98.72V30.1798C98.87 30.1298 99.01 30.0798 99.14 30.0298C99.27 29.9798 99.4 29.9298 99.52 29.8798C99.83 29.7598 100.1 29.7598 100.35 29.8798C100.6 29.9998 100.76 30.1898 100.84 30.4598C100.85 30.5098 100.86 30.5598 100.87 30.5998C100.87 30.6398 100.89 30.6798 100.9 30.7198C100.93 30.4798 101.03 30.2798 101.2 30.1098C101.37 29.9398 101.59 29.8598 101.86 29.8598H107.64C108.32 29.8598 108.85 30.0098 109.23 30.2998C109.61 30.5898 109.83 30.9798 109.9 31.4498C109.97 31.9198 109.85 32.4298 109.56 32.9598C109.31 33.4398 109.02 33.8998 108.71 34.3498C108.4 34.7998 108.05 35.2298 107.68 35.6398C108.16 36.0098 108.69 36.3398 109.27 36.6198C109.85 36.8998 110.48 37.1198 111.16 37.2798C111.53 37.3698 111.8 37.5398 111.97 37.7898C112.14 38.0398 112.17 38.3298 112.06 38.6798C111.95 39.0098 111.74 39.2498 111.43 39.3798C111.12 39.5098 110.79 39.5298 110.44 39.4198C109.57 39.1398 108.78 38.8098 108.05 38.4198C107.32 38.0298 106.67 37.5998 106.08 37.1198C105.41 37.6498 104.69 38.1298 103.91 38.5398C103.13 38.9498 102.29 39.2998 101.4 39.5798C101.07 39.6898 100.76 39.6698 100.48 39.5298C100.2 39.3898 100.01 39.1698 99.9 38.8798C99.81 38.5898 99.82 38.3098 99.95 38.0598C100.08 37.8098 100.31 37.6298 100.64 37.5198C102.08 37.0498 103.38 36.4098 104.54 35.5798C104.1 35.0298 103.71 34.4498 103.38 33.8398C103.05 33.2298 102.77 32.5798 102.54 31.8998H101.86C101.61 31.8998 101.39 31.8198 101.22 31.6598C101.05 31.4998 100.94 31.3098 100.9 31.0798C100.87 31.2298 100.8 31.3698 100.69 31.4998C100.58 31.6298 100.41 31.7498 100.18 31.8598C99.99 31.9398 99.77 32.0298 99.52 32.1398C99.27 32.2498 99 32.3598 98.72 32.4798V36.9998C98.72 37.9598 98.49 38.6698 98.03 39.1398C97.57 39.6098 96.83 39.8398 95.8 39.8398ZM102.54 29.3798C102.29 29.5798 101.99 29.6798 101.65 29.6798C101.31 29.6798 101.03 29.5698 100.8 29.3398C100.59 29.1098 100.49 28.8498 100.51 28.5598C100.53 28.2698 100.66 28.0098 100.9 27.7998C101.25 27.5198 101.51 27.2398 101.7 26.9498C101.89 26.6598 102.02 26.3198 102.1 25.9198C102.18 25.5198 102.22 24.9998 102.22 24.3598C102.23 23.7498 102.34 23.2598 102.53 22.8998C102.72 22.5398 103.05 22.2798 103.52 22.1298C103.99 21.9798 104.63 21.8998 105.44 21.8998C106.25 21.8998 106.89 21.9798 107.36 22.1298C107.83 22.2798 108.16 22.5398 108.35 22.8998C108.54 23.2598 108.64 23.7498 108.64 24.3798V26.4798C108.64 26.6698 108.69 26.7898 108.79 26.8598C108.89 26.9298 109.06 26.9598 109.3 26.9598C109.55 26.9598 109.73 26.8898 109.82 26.7498C109.91 26.6098 110.01 26.3098 110.1 25.8598C110.17 25.5498 110.33 25.3398 110.6 25.2198C110.87 25.0998 111.16 25.0698 111.48 25.1398C111.79 25.2098 112.02 25.3598 112.17 25.5998C112.32 25.8398 112.37 26.1098 112.32 26.4198C112.15 27.4298 111.82 28.1398 111.34 28.5298C110.86 28.9198 110.15 29.1198 109.2 29.1198C108.19 29.1198 107.47 28.9698 107.06 28.6698C106.65 28.3698 106.44 27.7998 106.44 26.9598V24.7998C106.44 24.4498 106.38 24.2298 106.25 24.1198C106.12 24.0098 105.86 23.9598 105.46 23.9598C105.06 23.9598 104.78 24.0098 104.65 24.1198C104.52 24.2298 104.46 24.4498 104.46 24.7998C104.45 25.8398 104.27 26.7398 103.93 27.5098C103.59 28.2798 103.13 28.8998 102.54 29.3798ZM106.14 34.1598C106.35 33.9298 106.55 33.6998 106.73 33.4698C106.91 33.2398 107.07 32.9998 107.22 32.7598C107.59 32.1898 107.42 31.8998 106.7 31.8998H104.76C104.93 32.2898 105.13 32.6698 105.36 33.0598C105.59 33.4498 105.85 33.8098 106.14 34.1598Z" fill="#010F32"/>
<path d="M119.44 39.9198C119.15 39.9198 118.9 39.8298 118.7 39.6398C118.5 39.4498 118.4 39.1898 118.4 38.8598V32.8798C118.2 33.2798 118 33.6598 117.81 34.0298C117.62 34.3998 117.43 34.7198 117.26 34.9998C117.1 35.2398 116.88 35.3998 116.59 35.4698C116.3 35.5398 116.03 35.5098 115.76 35.3798C115.51 35.2298 115.36 35.0098 115.32 34.6998C115.28 34.3898 115.35 34.1198 115.52 33.8798C115.73 33.5698 115.97 33.1898 116.24 32.7298C116.51 32.2698 116.77 31.7798 117.04 31.2498C117.31 30.7198 117.56 30.2098 117.79 29.6998C118.02 29.1898 118.21 28.7398 118.36 28.3398H116.58C116.26 28.3398 116.01 28.2398 115.82 28.0398C115.63 27.8398 115.54 27.5898 115.54 27.2998C115.54 27.0098 115.63 26.7798 115.82 26.5798C116.01 26.3798 116.26 26.2798 116.58 26.2798H118.4V24.6398C118.16 24.6898 117.93 24.7398 117.71 24.7898C117.49 24.8398 117.27 24.8698 117.04 24.8998C116.63 24.9498 116.31 24.9198 116.1 24.7898C115.89 24.6598 115.75 24.4498 115.68 24.1598C115.61 23.8398 115.66 23.5798 115.82 23.3698C115.98 23.1598 116.21 23.0398 116.52 22.9998C117.03 22.9298 117.56 22.8398 118.13 22.7198C118.7 22.5998 119.24 22.4598 119.77 22.2998C120.3 22.1398 120.75 21.9898 121.12 21.8398C121.43 21.7298 121.72 21.7298 121.99 21.8398C122.26 21.9398 122.45 22.1298 122.54 22.4098C122.63 22.6598 122.63 22.9098 122.54 23.1398C122.44 23.3698 122.26 23.5398 121.99 23.6498C121.76 23.7298 121.53 23.8098 121.28 23.8898C121.03 23.9698 120.78 24.0498 120.51 24.1298V26.2898H121.65C121.97 26.2898 122.22 26.3898 122.41 26.5898C122.6 26.7898 122.69 27.0298 122.69 27.3098C122.69 27.5998 122.6 27.8498 122.41 28.0498C122.22 28.2498 121.97 28.3498 121.65 28.3498H120.51V29.1098C120.7 29.3398 120.93 29.6098 121.2 29.9198C121.47 30.2298 121.75 30.5398 122.03 30.8298C122.31 31.1198 122.54 31.3598 122.71 31.5298C122.75 31.5598 122.8 31.6098 122.85 31.6898C123.29 31.0598 124.22 30.7498 125.65 30.7498H130.55C131.78 30.7498 132.62 30.9598 133.08 31.3798C133.54 31.7998 133.77 32.4998 133.77 33.4898V37.3298C133.77 38.2098 133.56 38.8498 133.13 39.2498C132.7 39.6498 132.04 39.8498 131.13 39.8498C130.82 39.8498 130.57 39.7598 130.36 39.5898C130.15 39.4198 130.03 39.1998 129.99 38.9298C129.94 38.5998 130 38.3298 130.18 38.1198C130.36 37.9098 130.6 37.7898 130.91 37.7498C131.2 37.7098 131.39 37.6398 131.48 37.5298C131.57 37.4198 131.61 37.2298 131.61 36.9498V33.8498C131.61 33.3198 131.52 32.9698 131.35 32.8098C131.18 32.6498 130.78 32.5698 130.15 32.5698H126.05C125.44 32.5698 125.04 32.6498 124.86 32.8098C124.68 32.9698 124.59 33.3198 124.59 33.8498V38.8498C124.59 39.1698 124.49 39.4298 124.28 39.6298C124.07 39.8298 123.82 39.9298 123.51 39.9298C123.2 39.9298 122.96 39.8298 122.75 39.6298C122.54 39.4298 122.43 39.1698 122.43 38.8498V33.3198C122.43 33.3198 122.43 33.2198 122.45 33.1698C122.04 33.3398 121.66 33.2598 121.33 32.9098C121.13 32.6798 120.86 32.3598 120.51 31.9298V38.8698C120.51 39.1998 120.41 39.4598 120.21 39.6498C120.01 39.8398 119.76 39.9298 119.45 39.9298L119.44 39.9198ZM123.06 25.0598C122.77 25.0598 122.54 24.9698 122.38 24.7898C122.22 24.6098 122.14 24.3898 122.14 24.1398C122.14 23.8698 122.22 23.6498 122.38 23.4798C122.54 23.3098 122.77 23.2198 123.06 23.2198H126.84V22.4598C126.84 22.0898 126.96 21.7898 127.19 21.5798C127.42 21.3698 127.71 21.2598 128.04 21.2598C128.37 21.2598 128.65 21.3698 128.88 21.5798C129.11 21.7898 129.22 22.0898 129.22 22.4598V23.2198H133.16C133.45 23.2198 133.68 23.3098 133.85 23.4798C134.02 23.6498 134.1 23.8698 134.1 24.1398C134.1 24.4098 134.02 24.6098 133.85 24.7898C133.68 24.9698 133.45 25.0598 133.16 25.0598H123.06ZM126.82 29.9998C126.03 29.9998 125.43 29.9398 125.02 29.8298C124.61 29.7198 124.33 29.5098 124.18 29.1998C124.03 28.8898 123.96 28.4498 123.96 27.8798C123.96 27.3098 124.03 26.8698 124.18 26.5698C124.33 26.2698 124.61 26.0598 125.02 25.9498C125.43 25.8398 126.03 25.7798 126.82 25.7798H129.42C130.22 25.7798 130.82 25.8398 131.23 25.9498C131.64 26.0598 131.91 26.2698 132.06 26.5698C132.21 26.8698 132.28 27.3098 132.28 27.8798C132.28 28.4498 132.21 28.8898 132.06 29.1998C131.91 29.5098 131.64 29.7198 131.23 29.8298C130.82 29.9398 130.22 29.9998 129.42 29.9998H126.82ZM128.06 37.7798C127.37 37.7798 126.83 37.7198 126.46 37.5998C126.09 37.4798 125.83 37.2598 125.69 36.9298C125.55 36.5998 125.48 36.1298 125.48 35.4998C125.48 34.8698 125.55 34.3998 125.69 34.0698C125.83 33.7398 126.09 33.5198 126.46 33.3998C126.83 33.2798 127.37 33.2198 128.06 33.2198C128.75 33.2198 129.31 33.2798 129.68 33.3998C130.05 33.5198 130.31 33.7398 130.45 34.0698C130.59 34.3998 130.66 34.8698 130.66 35.4998C130.66 36.1298 130.59 36.5998 130.45 36.9298C130.31 37.2598 130.05 37.4798 129.68 37.5998C129.31 37.7198 128.77 37.7798 128.06 37.7798ZM127.12 28.4598H129.12C129.56 28.4598 129.84 28.4298 129.97 28.3598C130.1 28.2898 130.16 28.1298 130.16 27.8798C130.16 27.6398 130.1 27.4898 129.97 27.4198C129.84 27.3498 129.56 27.3198 129.12 27.3198H127.12C126.68 27.3198 126.4 27.3498 126.27 27.4198C126.14 27.4898 126.08 27.6398 126.08 27.8798C126.08 28.1298 126.14 28.2898 126.27 28.3598C126.4 28.4298 126.68 28.4598 127.12 28.4598ZM128.06 36.3198C128.41 36.3198 128.63 36.2698 128.72 36.1698C128.81 36.0698 128.86 35.8498 128.86 35.4998C128.86 35.1498 128.81 34.9298 128.72 34.8298C128.63 34.7298 128.41 34.6798 128.06 34.6798C127.71 34.6798 127.51 34.7298 127.42 34.8298C127.33 34.9298 127.28 35.1498 127.28 35.4998C127.28 35.8498 127.33 36.0698 127.42 36.1698C127.51 36.2698 127.73 36.3198 128.06 36.3198Z" fill="#010F32"/>
<path d="M152 38.8405C150.43 38.6105 149.13 38.1605 148.1 37.4705C147.07 36.7805 146.31 35.9505 145.81 34.9805C145.31 34.0105 145.06 32.9905 145.06 31.9405C145.06 30.8905 145.27 29.8805 145.68 28.9505C146.09 28.0205 146.69 27.2205 147.48 26.5405C146.68 26.6605 145.83 26.8005 144.92 26.9505C144.01 27.1005 143.14 27.2605 142.29 27.4105C141.44 27.5605 140.7 27.7005 140.06 27.8205C139.73 27.8705 139.43 27.8005 139.17 27.6005C138.91 27.4005 138.75 27.1405 138.7 26.8205C138.65 26.4905 138.72 26.1905 138.91 25.9305C139.1 25.6705 139.37 25.5105 139.7 25.4605C140.13 25.3905 140.67 25.3005 141.34 25.1905C142.01 25.0805 142.75 24.9505 143.58 24.8205C144.41 24.6905 145.25 24.5505 146.12 24.4005C146.99 24.2505 147.84 24.1105 148.67 23.9705C149.5 23.8305 150.27 23.7005 150.96 23.5805C151.65 23.4605 152.22 23.3605 152.66 23.2805C152.97 23.2305 153.26 23.2905 153.53 23.4805C153.8 23.6705 153.97 23.9105 154.02 24.2205C154.09 24.5405 154.04 24.8405 153.87 25.1205C153.7 25.4005 153.46 25.5705 153.14 25.6205C152.21 25.7705 151.39 26.0505 150.68 26.4705C149.97 26.8905 149.38 27.4005 148.89 27.9905C148.4 28.5805 148.04 29.2105 147.79 29.8705C147.54 30.5305 147.42 31.1805 147.42 31.8205C147.42 33.1105 147.86 34.1605 148.74 34.9505C149.62 35.7405 150.82 36.2505 152.34 36.4605C152.66 36.5105 152.92 36.6705 153.12 36.9405C153.32 37.2105 153.39 37.5005 153.34 37.8205C153.3 38.1505 153.15 38.4205 152.88 38.6205C152.61 38.8205 152.32 38.8905 152 38.8405ZM154.54 30.6605C154.37 30.8105 154.16 30.8705 153.91 30.8405C153.66 30.8105 153.47 30.7005 153.32 30.5005C153.17 30.3105 152.99 30.0805 152.76 29.7905C152.53 29.5005 152.33 29.2505 152.14 29.0405C152.02 28.8905 151.96 28.7205 151.97 28.5105C151.97 28.3005 152.07 28.1305 152.24 27.9805C152.4 27.8305 152.58 27.7605 152.79 27.7705C153 27.7705 153.19 27.8505 153.36 28.0005C153.56 28.1705 153.79 28.4005 154.05 28.6805C154.31 28.9605 154.53 29.2105 154.7 29.4405C154.85 29.6305 154.9 29.8405 154.87 30.0805C154.84 30.3205 154.73 30.5105 154.54 30.6605ZM156.46 28.9405C156.29 29.1105 156.08 29.1905 155.83 29.1805C155.58 29.1705 155.38 29.0705 155.22 28.8805C155.06 28.6905 154.86 28.4705 154.61 28.2005C154.36 27.9305 154.14 27.7005 153.94 27.5005C153.81 27.3705 153.74 27.1905 153.73 26.9805C153.73 26.7705 153.8 26.5805 153.96 26.4205C154.11 26.2705 154.29 26.2005 154.5 26.1905C154.71 26.1905 154.91 26.2505 155.08 26.3805C155.29 26.5305 155.54 26.7305 155.82 26.9905C156.1 27.2505 156.33 27.4905 156.52 27.7205C156.68 27.8905 156.75 28.1005 156.74 28.3305C156.73 28.5605 156.63 28.7705 156.46 28.9405Z" fill="#010F32"/>
<path d="M58.52 84.5303C58.48 84.9303 58.38 85.4703 58.27 85.9303C59.82 84.5603 61.69 83.8803 64.17 83.8803C70 83.8803 73.75 87.5903 73.75 93.5303C73.75 99.4703 69.68 103.86 63.24 103.86C58.13 103.86 55.14 101.77 53.59 99.0403C53.37 98.6803 53.27 98.2803 53.27 97.9203C53.27 97.0903 53.81 96.3003 54.6 95.8703C55.07 95.5803 55.54 95.4403 56 95.4403C56.72 95.4403 57.4 95.8003 57.87 96.5903C58.84 98.3503 60.64 99.5803 63.09 99.5803C66.58 99.5803 68.78 97.1303 68.78 93.6103C68.78 90.0903 66.58 87.9603 63.31 87.9603C61.08 87.9603 59.57 88.8203 58.56 90.2603C58.02 91.0503 57.34 91.4803 56.29 91.4803C56.15 91.4803 55.97 91.4803 55.79 91.4403C54.46 91.3003 53.7 90.5803 53.7 89.3903V89.0703L54.89 76.9403C55.11 75.2103 56.08 74.2803 57.88 74.2803H70.91C72.03 74.2803 72.57 75.2503 72.57 76.4403C72.57 77.6303 71.99 78.6403 70.91 78.6403H59.79C59.36 78.6403 59.11 78.8603 59.07 79.2903L58.53 84.5403L58.52 84.5303Z" fill="#010F32"/>
<path d="M82.31 84.3002C81.61 84.3002 81.25 83.6802 81.25 82.9802C81.25 82.2402 81.61 81.6602 82.31 81.6602H102.33C103.03 81.6602 103.39 82.2402 103.39 82.9802C103.39 83.6802 103.03 84.3002 102.33 84.3002H91.1C91.08 85.5502 90.98 86.7702 90.91 88.0002H98.3C100.15 88.0002 100.94 88.7902 100.92 90.5702C100.85 94.3602 100.44 97.6002 99.84 99.7602C99.29 101.75 98.09 102.47 95.66 102.47C94.48 102.47 93.14 102.35 92.23 102.13C91.63 101.96 91.29 101.55 91.29 100.91C91.29 100.77 91.31 100.62 91.34 100.45C91.51 99.8001 91.92 99.4202 92.47 99.4202C92.59 99.4202 92.71 99.4402 92.83 99.4702C93.43 99.6402 94.46 99.8102 95.3 99.8102C96.52 99.8102 96.98 99.5502 97.22 98.6802C97.7 96.9502 98.01 94.1402 98.08 91.2602V91.1902C98.08 90.6602 97.84 90.5201 97.31 90.5201H90.57C90.19 92.7501 89.59 94.6502 88.82 96.2802C87.62 98.8202 85.87 100.79 83.85 102.3C83.54 102.54 83.18 102.66 82.84 102.66C82.41 102.66 82 102.47 81.69 102.11C81.45 101.82 81.31 101.46 81.31 101.13C81.31 100.72 81.5 100.31 81.86 100.03C83.76 98.6102 85.24 96.9602 86.28 94.8502C87.55 92.2102 88.18 88.9002 88.22 84.3102H82.32L82.31 84.3002Z" fill="#010F32"/>
<path d="M111.35 101.82C111.35 102.37 110.77 102.73 110.01 102.73C109.25 102.73 108.64 102.35 108.64 101.79V84.15C108.64 82.33 109.72 81.29 111.54 81.29H125.94C127.76 81.29 128.87 82.35 128.87 84.15V99.51C128.87 101.48 127.79 102.29 125.51 102.29C124.5 102.29 123.37 102.22 122.46 102.05C121.79 101.95 121.43 101.52 121.43 100.9C121.43 100.78 121.43 100.66 121.45 100.54C121.57 99.87 121.95 99.53 122.48 99.53C122.58 99.53 122.7 99.53 122.79 99.55C123.46 99.67 124.28 99.74 124.9 99.74C125.98 99.74 126.17 99.6 126.17 98.83V93.21H111.34V101.8L111.35 101.82ZM117.28 83.84H112.26C111.66 83.84 111.35 84.1 111.35 84.7V90.72H117.28V83.83V83.84ZM126.18 90.73V84.71C126.18 84.11 125.87 83.85 125.24 83.85H119.96V90.74H126.18V90.73Z" fill="#010F32"/>
<path d="M97.9 64.8603L105.02 52.5303H90.78L97.9 64.8603Z" fill="#010F32"/>
<path d="M269.8 21.31C268.85 21.31 268.32 20.53 268.32 19.55C268.32 18.57 268.85 17.79 269.8 17.79H283.13C284.42 17.79 285.03 18.49 285.03 19.64C285.03 21.1 284.61 21.52 283.94 22.44C280.89 26.64 278.45 32.49 277.28 38.82C277.03 40.14 276.24 40.5 275.07 40.5C273.9 40.5 273.03 39.91 273.03 38.85C273.03 38.71 273.06 38.57 273.09 38.4C274.24 32.86 276.62 26.84 280.45 21.32H269.81L269.8 21.31Z" fill="#010F32"/>
<path d="M291.72 21.31C290.77 21.31 290.24 20.53 290.24 19.55C290.24 18.57 290.77 17.79 291.72 17.79H305.05C306.34 17.79 306.95 18.49 306.95 19.64C306.95 21.1 306.53 21.52 305.86 22.44C302.81 26.64 300.37 32.49 299.2 38.82C298.95 40.14 298.16 40.5 296.99 40.5C295.82 40.5 294.95 39.91 294.95 38.85C294.95 38.71 294.98 38.57 295.01 38.4C296.16 32.86 298.54 26.84 302.37 21.32H291.73L291.72 21.31Z" fill="#010F32"/>
<path d="M313.65 21.31C312.7 21.31 312.17 20.53 312.17 19.55C312.17 18.57 312.7 17.79 313.65 17.79H326.98C328.27 17.79 328.88 18.49 328.88 19.64C328.88 21.1 328.46 21.52 327.79 22.44C324.74 26.64 322.3 32.49 321.12 38.82C320.87 40.14 320.08 40.5 318.91 40.5C317.74 40.5 316.87 39.91 316.87 38.85C316.87 38.71 316.9 38.57 316.93 38.4C318.08 32.86 320.46 26.84 324.29 21.32H313.65V21.31Z" fill="#010F32"/>
<path d="M340.92 39.8398C340.15 39.8398 339.72 39.4598 339.64 38.6998C339.61 38.3798 339.69 38.0998 339.87 37.8598C340.05 37.6198 340.3 37.4798 340.62 37.4398C341.02 37.3898 341.28 37.2998 341.4 37.1798C341.52 37.0598 341.58 36.8298 341.58 36.4998V33.3798C341.05 33.5898 340.62 33.7598 340.3 33.8798C339.93 34.0098 339.58 34.0098 339.27 33.8598C338.96 33.7098 338.75 33.4898 338.66 33.1798C338.57 32.8298 338.58 32.5198 338.71 32.2298C338.84 31.9398 339.09 31.7498 339.48 31.6398C339.77 31.5598 340.1 31.4598 340.47 31.3498C340.84 31.2398 341.21 31.1098 341.58 30.9798V27.3998H339.86C339.53 27.3998 339.26 27.2898 339.06 27.0698C338.86 26.8498 338.76 26.5898 338.76 26.2998C338.76 26.0098 338.86 25.7298 339.06 25.5198C339.26 25.3098 339.53 25.1998 339.86 25.1998H341.58V22.4198C341.58 22.0698 341.69 21.7998 341.91 21.5998C342.13 21.3998 342.39 21.2998 342.7 21.2998C343.01 21.2998 343.29 21.3998 343.51 21.5998C343.73 21.7998 343.84 22.0698 343.84 22.4198V25.1998H344.82C345.17 25.1998 345.44 25.3098 345.63 25.5198C345.82 25.7298 345.92 25.9898 345.92 26.2998C345.92 26.6098 345.82 26.8498 345.63 27.0698C345.44 27.2898 345.17 27.3998 344.82 27.3998H343.84V30.1798C343.99 30.1298 344.13 30.0798 344.26 30.0298C344.39 29.9798 344.52 29.9298 344.64 29.8798C344.95 29.7598 345.22 29.7598 345.47 29.8798C345.72 29.9998 345.88 30.1898 345.96 30.4598C345.97 30.5098 345.98 30.5598 345.99 30.5998C345.99 30.6398 346.01 30.6798 346.02 30.7198C346.05 30.4798 346.15 30.2798 346.32 30.1098C346.49 29.9398 346.71 29.8598 346.98 29.8598H352.76C353.44 29.8598 353.97 30.0098 354.35 30.2998C354.73 30.5898 354.95 30.9798 355.02 31.4498C355.09 31.9198 354.97 32.4298 354.68 32.9598C354.43 33.4398 354.14 33.8998 353.83 34.3498C353.52 34.7998 353.17 35.2298 352.8 35.6398C353.28 36.0098 353.81 36.3398 354.39 36.6198C354.97 36.8998 355.6 37.1198 356.28 37.2798C356.65 37.3698 356.92 37.5398 357.09 37.7898C357.26 38.0398 357.29 38.3298 357.18 38.6798C357.07 39.0098 356.86 39.2498 356.55 39.3798C356.24 39.5098 355.91 39.5298 355.56 39.4198C354.69 39.1398 353.9 38.8098 353.17 38.4198C352.44 38.0298 351.79 37.5998 351.2 37.1198C350.53 37.6498 349.81 38.1298 349.03 38.5398C348.25 38.9498 347.41 39.2998 346.52 39.5798C346.19 39.6898 345.88 39.6698 345.6 39.5298C345.32 39.3898 345.13 39.1698 345.02 38.8798C344.93 38.5898 344.94 38.3098 345.07 38.0598C345.2 37.8098 345.43 37.6298 345.76 37.5198C347.2 37.0498 348.5 36.4098 349.66 35.5798C349.22 35.0298 348.83 34.4498 348.5 33.8398C348.17 33.2298 347.89 32.5798 347.66 31.8998H346.98C346.73 31.8998 346.51 31.8198 346.34 31.6598C346.17 31.4998 346.06 31.3098 346.02 31.0798C345.99 31.2298 345.92 31.3698 345.81 31.4998C345.7 31.6298 345.53 31.7498 345.3 31.8598C345.11 31.9398 344.89 32.0298 344.64 32.1398C344.39 32.2498 344.12 32.3598 343.84 32.4798V36.9998C343.84 37.9598 343.61 38.6698 343.15 39.1398C342.69 39.6098 341.95 39.8398 340.92 39.8398ZM347.66 29.3798C347.41 29.5798 347.11 29.6798 346.77 29.6798C346.43 29.6798 346.15 29.5698 345.92 29.3398C345.71 29.1098 345.61 28.8498 345.63 28.5598C345.65 28.2698 345.78 28.0098 346.02 27.7998C346.37 27.5198 346.63 27.2398 346.82 26.9498C347.01 26.6598 347.14 26.3198 347.22 25.9198C347.3 25.5198 347.34 24.9998 347.34 24.3598C347.35 23.7498 347.46 23.2598 347.65 22.8998C347.84 22.5398 348.17 22.2798 348.64 22.1298C349.11 21.9798 349.75 21.8998 350.56 21.8998C351.37 21.8998 352.01 21.9798 352.48 22.1298C352.95 22.2798 353.28 22.5398 353.47 22.8998C353.66 23.2598 353.76 23.7498 353.76 24.3798V26.4798C353.76 26.6698 353.81 26.7898 353.91 26.8598C354.01 26.9298 354.18 26.9598 354.42 26.9598C354.67 26.9598 354.85 26.8898 354.94 26.7498C355.03 26.6098 355.13 26.3098 355.22 25.8598C355.29 25.5498 355.45 25.3398 355.72 25.2198C355.99 25.0998 356.28 25.0698 356.6 25.1398C356.91 25.2098 357.14 25.3598 357.29 25.5998C357.44 25.8398 357.49 26.1098 357.44 26.4198C357.27 27.4298 356.94 28.1398 356.46 28.5298C355.98 28.9198 355.27 29.1198 354.32 29.1198C353.31 29.1198 352.59 28.9698 352.18 28.6698C351.77 28.3698 351.56 27.7998 351.56 26.9598V24.7998C351.56 24.4498 351.5 24.2298 351.37 24.1198C351.24 24.0098 350.98 23.9598 350.58 23.9598C350.18 23.9598 349.9 24.0098 349.77 24.1198C349.64 24.2298 349.58 24.4498 349.58 24.7998C349.57 25.8398 349.39 26.7398 349.05 27.5098C348.71 28.2798 348.25 28.8998 347.66 29.3798ZM351.26 34.1598C351.47 33.9298 351.67 33.6998 351.85 33.4698C352.03 33.2398 352.19 32.9998 352.34 32.7598C352.71 32.1898 352.54 31.8998 351.82 31.8998H349.88C350.05 32.2898 350.25 32.6698 350.48 33.0598C350.71 33.4498 350.97 33.8098 351.26 34.1598Z" fill="#010F32"/>
<path d="M364.56 39.9198C364.27 39.9198 364.02 39.8298 363.82 39.6398C363.62 39.4498 363.52 39.1898 363.52 38.8598V32.8798C363.32 33.2798 363.12 33.6598 362.93 34.0298C362.74 34.3998 362.55 34.7198 362.38 34.9998C362.22 35.2398 362 35.3998 361.71 35.4698C361.42 35.5398 361.15 35.5098 360.88 35.3798C360.63 35.2298 360.48 35.0098 360.44 34.6998C360.4 34.3898 360.47 34.1198 360.64 33.8798C360.85 33.5698 361.09 33.1898 361.36 32.7298C361.63 32.2698 361.89 31.7798 362.16 31.2498C362.43 30.7198 362.68 30.2098 362.91 29.6998C363.14 29.1898 363.33 28.7398 363.48 28.3398H361.7C361.38 28.3398 361.13 28.2398 360.94 28.0398C360.75 27.8398 360.66 27.5898 360.66 27.2998C360.66 27.0098 360.75 26.7798 360.94 26.5798C361.13 26.3798 361.38 26.2798 361.7 26.2798H363.52V24.6398C363.28 24.6898 363.05 24.7398 362.83 24.7898C362.61 24.8398 362.39 24.8698 362.16 24.8998C361.75 24.9498 361.43 24.9198 361.22 24.7898C361.01 24.6598 360.87 24.4498 360.8 24.1598C360.73 23.8398 360.78 23.5798 360.94 23.3698C361.1 23.1598 361.33 23.0398 361.64 22.9998C362.15 22.9298 362.68 22.8398 363.25 22.7198C363.82 22.5998 364.36 22.4598 364.89 22.2998C365.42 22.1398 365.87 21.9898 366.24 21.8398C366.55 21.7298 366.84 21.7298 367.11 21.8398C367.38 21.9398 367.57 22.1298 367.66 22.4098C367.75 22.6598 367.75 22.9098 367.66 23.1398C367.56 23.3698 367.38 23.5398 367.11 23.6498C366.88 23.7298 366.65 23.8098 366.4 23.8898C366.15 23.9698 365.9 24.0498 365.63 24.1298V26.2898H366.77C367.09 26.2898 367.34 26.3898 367.53 26.5898C367.72 26.7898 367.81 27.0298 367.81 27.3098C367.81 27.5998 367.72 27.8498 367.53 28.0498C367.34 28.2498 367.09 28.3498 366.77 28.3498H365.63V29.1098C365.82 29.3398 366.05 29.6098 366.32 29.9198C366.59 30.2298 366.87 30.5398 367.15 30.8298C367.43 31.1198 367.66 31.3598 367.83 31.5298C367.87 31.5598 367.92 31.6098 367.97 31.6898C368.41 31.0598 369.34 30.7498 370.77 30.7498H375.67C376.9 30.7498 377.74 30.9598 378.2 31.3798C378.66 31.7998 378.89 32.4998 378.89 33.4898V37.3298C378.89 38.2098 378.68 38.8498 378.25 39.2498C377.82 39.6498 377.16 39.8498 376.25 39.8498C375.94 39.8498 375.69 39.7598 375.48 39.5898C375.27 39.4198 375.15 39.1998 375.11 38.9298C375.06 38.5998 375.12 38.3298 375.3 38.1198C375.48 37.9098 375.72 37.7898 376.03 37.7498C376.32 37.7098 376.51 37.6398 376.6 37.5298C376.69 37.4198 376.73 37.2298 376.73 36.9498V33.8498C376.73 33.3198 376.64 32.9698 376.47 32.8098C376.3 32.6498 375.9 32.5698 375.27 32.5698H371.17C370.56 32.5698 370.16 32.6498 369.98 32.8098C369.8 32.9698 369.71 33.3198 369.71 33.8498V38.8498C369.71 39.1698 369.61 39.4298 369.4 39.6298C369.19 39.8298 368.94 39.9298 368.63 39.9298C368.32 39.9298 368.08 39.8298 367.87 39.6298C367.66 39.4298 367.55 39.1698 367.55 38.8498V33.3198C367.55 33.3198 367.55 33.2198 367.57 33.1698C367.16 33.3398 366.78 33.2598 366.45 32.9098C366.25 32.6798 365.98 32.3598 365.63 31.9298V38.8698C365.63 39.1998 365.53 39.4598 365.33 39.6498C365.13 39.8398 364.88 39.9298 364.57 39.9298L364.56 39.9198ZM368.18 25.0598C367.89 25.0598 367.66 24.9698 367.5 24.7898C367.34 24.6098 367.26 24.3898 367.26 24.1398C367.26 23.8698 367.34 23.6498 367.5 23.4798C367.66 23.3098 367.89 23.2198 368.18 23.2198H371.96V22.4598C371.96 22.0898 372.08 21.7898 372.31 21.5798C372.54 21.3698 372.83 21.2598 373.16 21.2598C373.49 21.2598 373.77 21.3698 374 21.5798C374.23 21.7898 374.34 22.0898 374.34 22.4598V23.2198H378.28C378.57 23.2198 378.8 23.3098 378.97 23.4798C379.14 23.6498 379.22 23.8698 379.22 24.1398C379.22 24.4098 379.14 24.6098 378.97 24.7898C378.8 24.9698 378.57 25.0598 378.28 25.0598H368.18ZM371.94 29.9998C371.15 29.9998 370.55 29.9398 370.14 29.8298C369.73 29.7198 369.45 29.5098 369.3 29.1998C369.15 28.8898 369.08 28.4498 369.08 27.8798C369.08 27.3098 369.15 26.8698 369.3 26.5698C369.45 26.2698 369.73 26.0598 370.14 25.9498C370.55 25.8398 371.15 25.7798 371.94 25.7798H374.54C375.34 25.7798 375.94 25.8398 376.35 25.9498C376.76 26.0598 377.03 26.2698 377.18 26.5698C377.33 26.8698 377.4 27.3098 377.4 27.8798C377.4 28.4498 377.33 28.8898 377.18 29.1998C377.03 29.5098 376.76 29.7198 376.35 29.8298C375.94 29.9398 375.34 29.9998 374.54 29.9998H371.94ZM373.18 37.7798C372.49 37.7798 371.95 37.7198 371.58 37.5998C371.21 37.4798 370.95 37.2598 370.81 36.9298C370.67 36.5998 370.6 36.1298 370.6 35.4998C370.6 34.8698 370.67 34.3998 370.81 34.0698C370.95 33.7398 371.21 33.5198 371.58 33.3998C371.95 33.2798 372.49 33.2198 373.18 33.2198C373.87 33.2198 374.43 33.2798 374.8 33.3998C375.17 33.5198 375.43 33.7398 375.57 34.0698C375.71 34.3998 375.78 34.8698 375.78 35.4998C375.78 36.1298 375.71 36.5998 375.57 36.9298C375.43 37.2598 375.17 37.4798 374.8 37.5998C374.43 37.7198 373.89 37.7798 373.18 37.7798ZM372.24 28.4598H374.24C374.68 28.4598 374.96 28.4298 375.09 28.3598C375.22 28.2898 375.28 28.1298 375.28 27.8798C375.28 27.6398 375.22 27.4898 375.09 27.4198C374.96 27.3498 374.68 27.3198 374.24 27.3198H372.24C371.8 27.3198 371.52 27.3498 371.39 27.4198C371.26 27.4898 371.2 27.6398 371.2 27.8798C371.2 28.1298 371.26 28.2898 371.39 28.3598C371.52 28.4298 371.8 28.4598 372.24 28.4598ZM373.18 36.3198C373.53 36.3198 373.75 36.2698 373.84 36.1698C373.93 36.0698 373.98 35.8498 373.98 35.4998C373.98 35.1498 373.93 34.9298 373.84 34.8298C373.75 34.7298 373.53 34.6798 373.18 34.6798C372.83 34.6798 372.63 34.7298 372.54 34.8298C372.45 34.9298 372.4 35.1498 372.4 35.4998C372.4 35.8498 372.45 36.0698 372.54 36.1698C372.63 36.2698 372.85 36.3198 373.18 36.3198Z" fill="#010F32"/>
<path d="M397.12 38.8405C395.55 38.6105 394.25 38.1605 393.22 37.4705C392.19 36.7805 391.43 35.9505 390.93 34.9805C390.43 34.0105 390.18 32.9905 390.18 31.9405C390.18 30.8905 390.39 29.8805 390.8 28.9505C391.21 28.0205 391.81 27.2205 392.6 26.5405C391.8 26.6605 390.95 26.8005 390.04 26.9505C389.13 27.1005 388.26 27.2605 387.41 27.4105C386.56 27.5605 385.82 27.7005 385.18 27.8205C384.85 27.8705 384.55 27.8005 384.29 27.6005C384.03 27.4005 383.87 27.1405 383.82 26.8205C383.77 26.4905 383.84 26.1905 384.03 25.9305C384.22 25.6705 384.49 25.5105 384.82 25.4605C385.25 25.3905 385.79 25.3005 386.46 25.1905C387.13 25.0805 387.87 24.9505 388.7 24.8205C389.53 24.6905 390.37 24.5505 391.24 24.4005C392.11 24.2505 392.96 24.1105 393.79 23.9705C394.62 23.8305 395.39 23.7005 396.08 23.5805C396.77 23.4605 397.34 23.3605 397.78 23.2805C398.09 23.2305 398.38 23.2905 398.65 23.4805C398.92 23.6705 399.09 23.9105 399.14 24.2205C399.21 24.5405 399.16 24.8405 398.99 25.1205C398.82 25.4005 398.58 25.5705 398.26 25.6205C397.33 25.7705 396.51 26.0505 395.8 26.4705C395.09 26.8905 394.5 27.4005 394.01 27.9905C393.52 28.5805 393.16 29.2105 392.91 29.8705C392.66 30.5305 392.54 31.1805 392.54 31.8205C392.54 33.1105 392.98 34.1605 393.86 34.9505C394.74 35.7405 395.94 36.2505 397.46 36.4605C397.78 36.5105 398.04 36.6705 398.24 36.9405C398.44 37.2105 398.51 37.5005 398.46 37.8205C398.42 38.1505 398.27 38.4205 398 38.6205C397.73 38.8205 397.44 38.8905 397.12 38.8405ZM399.66 30.6605C399.49 30.8105 399.28 30.8705 399.03 30.8405C398.78 30.8105 398.59 30.7005 398.44 30.5005C398.29 30.3105 398.11 30.0805 397.88 29.7905C397.65 29.5005 397.45 29.2505 397.26 29.0405C397.14 28.8905 397.08 28.7205 397.09 28.5105C397.09 28.3005 397.19 28.1305 397.36 27.9805C397.52 27.8305 397.7 27.7605 397.91 27.7705C398.12 27.7705 398.31 27.8505 398.48 28.0005C398.68 28.1705 398.91 28.4005 399.17 28.6805C399.43 28.9605 399.65 29.2105 399.82 29.4405C399.97 29.6305 400.02 29.8405 399.99 30.0805C399.96 30.3205 399.85 30.5105 399.66 30.6605ZM401.58 28.9405C401.41 29.1105 401.2 29.1905 400.95 29.1805C400.7 29.1705 400.5 29.0705 400.34 28.8805C400.18 28.6905 399.98 28.4705 399.73 28.2005C399.48 27.9305 399.26 27.7005 399.06 27.5005C398.93 27.3705 398.86 27.1905 398.85 26.9805C398.85 26.7705 398.92 26.5805 399.08 26.4205C399.23 26.2705 399.41 26.2005 399.62 26.1905C399.83 26.1905 400.03 26.2505 400.2 26.3805C400.41 26.5305 400.66 26.7305 400.94 26.9905C401.22 27.2505 401.45 27.4905 401.64 27.7205C401.8 27.8905 401.87 28.1005 401.86 28.3305C401.85 28.5605 401.75 28.7705 401.58 28.9405Z" fill="#010F32"/>
<path d="M295.57 101.41C295.57 102.74 294.6 103.46 293.09 103.46C291.58 103.46 290.64 102.74 290.64 101.44V79.9105C290.64 79.2605 290.46 78.9405 289.81 78.9405H289.7L286.32 79.0505C285.02 79.0905 284.2 77.9705 284.2 76.7505C284.2 75.4505 284.99 74.3705 286.25 74.3405L291.51 74.2305H291.83C294.71 74.2305 295.57 75.1705 295.57 78.3005V101.41Z" fill="#010F32"/>
<path d="M326.96 98.7499C328.15 98.7499 328.76 99.6899 328.76 100.91C328.76 102.13 328.15 103.21 326.96 103.21H310.04C308.38 103.21 307.52 102.2 307.52 100.4C307.52 99.0699 308.38 97.2299 309.1 96.0399C310.29 93.9899 312.23 91.7599 315.69 89.4499L317.89 87.9699C321.35 85.6699 323.18 84.4099 323.18 81.7399C323.18 79.2899 321.24 77.8899 318.32 77.8899C314.76 77.8899 313.53 79.8699 312.88 82.1399C312.59 83.1799 311.73 83.6499 310.76 83.6499C310.47 83.6499 310.18 83.6099 309.9 83.5399C308.75 83.2899 307.92 82.5999 307.92 81.4899C307.92 81.2699 307.96 81.0199 308.03 80.7299C308.39 79.2499 309.22 77.7399 310.3 76.6599C312.1 74.7499 314.55 73.6699 318.47 73.6699C324.55 73.6699 328.19 76.6599 328.19 81.7299C328.19 86.2299 325.63 88.2799 321.96 90.5499L319.84 91.8399C316.17 94.1099 314.04 96.1199 313.11 98.7199H326.97L326.96 98.7499Z" fill="#010F32"/>
<path d="M340.85 84.3002C340.15 84.3002 339.79 83.6802 339.79 82.9802C339.79 82.2402 340.15 81.6602 340.85 81.6602H360.87C361.57 81.6602 361.93 82.2402 361.93 82.9802C361.93 83.6802 361.57 84.3002 360.87 84.3002H349.64C349.62 85.5502 349.52 86.7702 349.45 88.0002H356.84C358.69 88.0002 359.48 88.7902 359.46 90.5702C359.39 94.3602 358.98 97.6002 358.38 99.7602C357.83 101.75 356.63 102.47 354.2 102.47C353.02 102.47 351.68 102.35 350.77 102.13C350.17 101.96 349.83 101.55 349.83 100.91C349.83 100.77 349.85 100.62 349.88 100.45C350.05 99.8001 350.46 99.4202 351.01 99.4202C351.13 99.4202 351.25 99.4402 351.37 99.4702C351.97 99.6402 353 99.8102 353.84 99.8102C355.06 99.8102 355.52 99.5502 355.76 98.6802C356.24 96.9502 356.55 94.1402 356.62 91.2602V91.1902C356.62 90.6602 356.38 90.5201 355.85 90.5201H349.11C348.73 92.7501 348.13 94.6502 347.36 96.2802C346.16 98.8202 344.41 100.79 342.39 102.3C342.08 102.54 341.72 102.66 341.38 102.66C340.95 102.66 340.54 102.47 340.23 102.11C339.99 101.82 339.85 101.46 339.85 101.13C339.85 100.72 340.04 100.31 340.4 100.03C342.3 98.6102 343.78 96.9602 344.82 94.8502C346.09 92.2102 346.72 88.9002 346.76 84.3102H340.86L340.85 84.3002Z" fill="#010F32"/>
<path d="M369.89 101.82C369.89 102.37 369.31 102.73 368.55 102.73C367.79 102.73 367.18 102.35 367.18 101.79V84.15C367.18 82.33 368.26 81.29 370.08 81.29H384.48C386.3 81.29 387.41 82.35 387.41 84.15V99.51C387.41 101.48 386.33 102.29 384.05 102.29C383.04 102.29 381.91 102.22 381 102.05C380.33 101.95 379.97 101.52 379.97 100.9C379.97 100.78 379.97 100.66 379.99 100.54C380.11 99.87 380.49 99.53 381.02 99.53C381.12 99.53 381.24 99.53 381.33 99.55C382 99.67 382.82 99.74 383.44 99.74C384.52 99.74 384.71 99.6 384.71 98.83V93.21H369.88V101.8L369.89 101.82ZM375.82 83.84H370.8C370.2 83.84 369.89 84.1 369.89 84.7V90.72H375.82V83.83V83.84ZM384.72 90.73V84.71C384.72 84.11 384.41 83.85 383.78 83.85H378.5V90.74H384.72V90.73Z" fill="#010F32"/>
<path d="M322.72 64.8603L329.84 52.5303H315.6L322.72 64.8603Z" fill="#010F32"/>
</g>
<defs>
<clipPath id="clip0_489_120">
<rect width="790" height="120" fill="white"/>
</clipPath>
</defs>
</svg>
