<svg width="414" height="101" viewBox="0 0 414 101" fill="none" xmlns="http://www.w3.org/2000/svg">
<path d="M142.33 97.7206V95.8006C142.33 82.9846 157.066 82.0726 157.066 74.9686C157.066 72.7126 155.914 70.2646 151.93 70.2646C149.674 70.2646 147.61 70.9846 146.506 71.4166C145.354 71.8486 144.49 71.4646 144.01 70.3606L143.674 69.5446C143.242 68.3926 143.722 67.4806 144.874 67.0006C146.266 66.4246 149.002 65.5126 151.978 65.5126C158.65 65.5126 162.73 69.5926 162.73 74.9686C162.73 85.0966 147.946 86.3926 147.946 94.9846H160.954C162.106 94.9846 162.874 95.7046 162.874 96.8566V97.7206C162.874 98.8726 162.106 99.6406 160.954 99.6406H144.202C143.05 99.6406 142.33 98.8726 142.33 97.7206ZM177.581 86.6806V79.0486C177.581 70.6006 181.805 65.5126 189.197 65.5126C196.685 65.5126 200.861 70.8886 200.861 79.0486V86.6806C200.861 95.1286 196.685 100.265 189.197 100.265C181.805 100.265 177.581 94.9366 177.581 86.6806ZM189.197 95.5126C193.805 95.5126 195.197 91.4326 195.197 85.9606V79.7686C195.197 74.2966 193.805 70.2646 189.197 70.2646C184.589 70.2646 183.245 74.2966 183.245 79.7686V85.9606C183.245 91.4326 184.589 95.5126 189.197 95.5126ZM215.202 97.7206V95.8006C215.202 82.9846 229.938 82.0726 229.938 74.9686C229.938 72.7126 228.786 70.2646 224.802 70.2646C222.546 70.2646 220.482 70.9846 219.378 71.4166C218.226 71.8486 217.362 71.4646 216.882 70.3606L216.546 69.5446C216.114 68.3926 216.594 67.4806 217.746 67.0006C219.138 66.4246 221.874 65.5126 224.85 65.5126C231.522 65.5126 235.602 69.5926 235.602 74.9686C235.602 85.0966 220.818 86.3926 220.818 94.9846H233.826C234.978 94.9846 235.746 95.7046 235.746 96.8566V97.7206C235.746 98.8726 234.978 99.6406 233.826 99.6406H217.074C215.922 99.6406 215.202 98.8726 215.202 97.7206ZM254.034 92.6326C249.762 92.6326 247.938 90.7606 248.898 86.2486L252.882 67.9126C253.122 66.7126 253.986 66.1366 255.138 66.1366H256.578C257.73 66.1366 258.354 66.9526 258.114 68.2006L254.322 86.2486C254.082 87.3046 254.322 87.9766 255.426 87.9766H260.658V77.8486C260.658 76.6966 261.282 75.8326 262.386 75.6406L264.114 75.3526C265.314 75.1606 266.082 75.7846 266.082 76.9366V87.9766H270.162C271.314 87.9766 272.082 88.6966 272.082 89.8486V90.7126C272.082 91.8646 271.314 92.6326 270.162 92.6326H266.082V97.7206C266.082 98.8726 265.362 99.6406 264.21 99.6406H262.578C261.426 99.6406 260.658 98.8726 260.658 97.7206V92.6326H254.034Z" fill="white"/>
<path d="M6.76405 48.3432C5.76934 48.5422 4.97357 48.3432 4.1778 47.9453C3.38202 47.5475 2.98414 46.9506 2.78519 45.9559C2.58625 44.9612 2.7852 44.1654 3.18308 43.5686C3.58097 42.7728 4.37674 42.5739 5.17251 42.3749C6.36617 42.176 7.55983 41.9771 8.3556 41.3802C9.15137 40.9823 9.74819 39.9876 10.1461 38.595C10.544 37.2024 10.7429 35.412 10.7429 32.8257C10.7429 31.2342 10.7429 29.6426 10.544 28.25C9.7482 29.4437 8.95242 30.4384 8.15665 31.632C7.36088 32.6268 6.56511 33.6215 5.76934 34.4172C5.17251 35.0141 4.57568 35.4119 3.77991 35.6109C2.98414 35.8098 2.18837 35.4119 1.59154 35.0141C0.994713 34.6162 0.596827 33.8204 0.596827 33.2236C0.596827 32.6268 0.795773 31.831 1.3926 31.2342C2.38732 30.2394 3.18308 29.0458 4.1778 27.8521C5.17251 26.6585 6.16722 25.2659 7.16194 23.8733C8.15665 22.4807 8.75349 21.287 9.35031 20.2923C9.15137 19.4965 8.95242 18.8997 8.75348 18.3029C8.55454 17.706 8.3556 17.1092 7.95771 16.3134C6.963 17.3082 6.16722 18.1039 5.17251 19.0986C4.57568 19.6955 3.97886 19.8944 2.98414 19.8944C2.18837 19.8944 1.3926 19.6955 0.795767 19.0986C0.198938 18.5018 0 17.905 0 17.1092C0 16.3134 0.397881 15.7166 0.795767 15.1198C2.18837 13.9261 3.38203 12.5335 4.97357 10.942C4.37674 10.1462 3.97886 9.35043 3.38203 8.55466C2.7852 7.75889 2.18837 6.96312 1.59154 6.16735C1.19366 5.57052 0.994711 4.97369 1.19365 4.17792C1.3926 3.38215 1.79049 2.98426 2.38732 2.58637C2.98414 2.18849 3.58097 1.98955 4.37674 2.18849C5.17251 2.18849 5.76934 2.58638 6.16722 3.18321C7.16194 4.37686 7.95771 5.37158 8.95243 6.76418C9.35031 6.16735 9.94714 5.37158 10.345 4.77476C10.7429 4.17793 11.1408 3.58111 11.5387 2.98428C11.9366 2.18851 12.5334 1.7906 13.3292 1.59166C14.1249 1.39271 14.7218 1.39273 15.5175 1.79061C16.3133 2.1885 16.7112 2.78533 16.9101 3.38216C17.1091 3.97899 16.9101 4.77474 16.5123 5.57051C15.9154 6.56523 15.3186 7.55995 14.5228 8.75361C13.7271 9.94727 12.9313 10.942 12.1355 11.9367C13.5281 14.9209 14.7218 18.1039 15.3186 21.4859C16.1144 24.868 16.3133 28.8468 16.3133 33.2236C16.3133 37.2024 15.9154 40.1866 15.1197 42.3749C14.3239 44.5633 13.3292 45.9559 11.9366 46.9506C10.544 47.5475 8.95242 48.1443 6.76405 48.3432ZM26.6583 18.7008C25.8626 18.7008 25.0668 18.5018 24.47 17.905C23.8731 17.5071 23.6742 16.7113 23.6742 15.7166V12.7325H18.1038C17.308 12.7325 16.7112 12.5335 16.1144 11.9367C15.7165 11.3399 15.3186 10.743 15.3186 10.1462C15.3186 9.54938 15.5175 8.75362 16.1144 8.35573C16.5123 7.7589 17.308 7.55994 18.1038 7.55994H23.6742V3.78004C23.6742 2.78533 23.8731 1.98954 24.47 1.59166C25.0668 1.19377 25.6636 0.795898 26.6583 0.795898C27.653 0.795898 28.0509 0.994829 28.6478 1.59166C29.2446 1.98954 29.4435 2.78533 29.4435 3.78004V7.55994H35.0139V3.78004C35.0139 2.78533 35.2129 1.98954 35.8097 1.59166C36.4065 1.19377 37.0034 0.795898 37.7991 0.795898C38.5949 0.795898 39.1917 0.994829 39.7886 1.59166C40.3854 1.98954 40.5843 2.78533 40.5843 3.78004V7.55994H46.1547C46.9505 7.55994 47.5473 7.7589 48.1442 8.35573C48.542 8.95256 48.9399 9.54938 48.9399 10.1462C48.9399 10.743 48.741 11.5388 48.1442 11.9367C47.7463 12.5335 46.9505 12.7325 46.1547 12.7325H40.5843V15.9156C40.5843 16.9103 40.3854 17.5071 39.7886 18.1039C39.1917 18.5018 38.5949 18.8997 37.7991 18.8997C37.0034 18.8997 36.4065 18.7007 35.8097 18.1039C35.2129 17.706 35.0139 16.9103 35.0139 15.9156V12.7325H29.4435V15.9156C29.4435 16.9103 29.2446 17.5071 28.6478 18.1039C28.0509 18.5018 27.4541 18.7008 26.6583 18.7008ZM28.8467 47.5475C25.2657 47.5475 22.6795 46.7517 21.0879 45.3591C19.4964 43.9665 18.7006 41.5792 18.7006 37.9982V29.0458C18.7006 25.6637 19.4964 23.0775 21.0879 21.6849C22.6795 20.2923 25.2657 19.4965 28.8467 19.4965H36.4065C39.9875 19.4965 42.5738 20.2923 44.1653 21.6849C45.7568 23.0775 46.5526 25.4648 46.5526 29.0458V37.9982C46.5526 41.5792 45.7568 43.9665 44.1653 45.3591C42.5738 46.7517 39.9875 47.5475 36.4065 47.5475H28.8467ZM24.6689 31.0352H30.0404V25.2659H29.4435C28.2499 25.2659 27.2552 25.4648 26.6583 25.6638C26.0615 25.8627 25.4647 26.2606 25.2657 26.8574C25.0668 27.4543 24.8679 28.25 24.8679 29.4437V31.0352H24.6689ZM29.2446 42.176H29.8414V36.4067H24.47V38.1972C24.47 39.7887 24.6689 40.9823 25.2657 41.3802C26.0615 41.7781 27.4541 42.176 29.2446 42.176ZM35.4118 31.0352H40.7833V29.2447C40.7833 28.0511 40.5843 27.2553 40.3854 26.6585C40.1864 26.0616 39.7886 25.6637 38.9928 25.4648C38.396 25.2659 37.4013 25.0669 36.0087 25.0669H35.4118V31.0352ZM35.4118 42.176H36.0087C37.2023 42.176 38.197 41.9771 38.9928 41.7781C39.5896 41.5792 39.9875 41.1813 40.3854 40.5845C40.5843 39.9876 40.7833 39.1919 40.7833 37.9982V36.2077H35.4118V42.176Z" fill="white"/>
<path d="M56.3008 26.8573C55.505 26.8573 54.9082 26.6583 54.5103 26.0615C53.9135 25.4647 53.7146 24.8679 53.7146 24.271C53.7146 23.6742 53.9135 22.8784 54.5103 22.4805C55.1072 21.8837 55.704 21.6848 56.3008 21.6848H61.4733C61.2744 21.4858 61.2744 21.4858 61.2744 21.2869C61.2744 21.0879 61.0754 21.088 61.0754 20.889C60.8765 20.0932 60.4786 19.2975 59.8818 18.3027C59.4839 17.308 59.086 16.5123 58.6881 15.9154C58.2902 15.3186 58.2902 14.5228 58.4892 13.7271C58.6881 12.9313 59.285 12.5334 59.8818 12.1355C60.0807 12.1355 60.0807 11.9366 60.2797 11.9366C60.4786 11.9366 60.4786 11.9366 60.6776 11.7376H57.8924C57.0966 11.7376 56.4998 11.5387 56.1019 10.9419C55.505 10.544 55.3061 9.94714 55.3061 9.15137C55.3061 8.3556 55.505 7.95772 56.1019 7.36089C56.6987 6.96301 57.2955 6.5651 57.8924 6.5651H65.0543V3.18308C65.0543 2.18837 65.4522 1.3926 66.049 0.795774C66.6458 0.198946 67.4416 0 68.2374 0C69.2321 0 69.8289 0.198946 70.4258 0.795774C71.0226 1.3926 71.4205 2.18837 71.4205 3.18308V6.5651H78.5824C79.3782 6.5651 79.7761 6.76406 80.3729 7.36089C80.7708 7.75878 81.1687 8.3556 81.1687 9.15137C81.1687 9.94714 80.9697 10.345 80.3729 10.9419C79.975 11.3398 79.3782 11.7376 78.5824 11.7376H75.9962L76.1951 11.9366C76.9909 12.1355 77.3888 12.7323 77.7866 13.3292C78.1845 13.926 78.1845 14.7218 77.7866 15.5175C77.5877 16.1144 77.1898 17.1091 76.593 18.1038C75.9962 19.2975 75.5983 20.2922 75.2004 21.2869H79.3782C80.174 21.2869 80.7708 21.4858 81.1687 22.0826C81.7655 22.6795 81.9644 23.2763 81.9644 23.8732C81.9644 24.47 81.7655 25.2657 81.1687 25.6636C80.5718 26.2605 79.975 26.4594 79.3782 26.4594H56.3008V26.8573ZM68.0384 47.5473C65.4522 47.5473 63.4628 47.3484 61.8712 46.7516C60.4786 46.1547 59.4839 45.359 58.8871 43.9664C58.2903 42.5738 58.0913 40.7833 58.0913 38.5949C58.0913 36.2076 58.2903 34.4171 58.8871 33.2235C59.4839 31.8309 60.4786 31.0351 61.8712 30.4382C63.2638 29.8414 65.2532 29.6425 68.0384 29.6425C70.6247 29.6425 72.8131 29.8414 74.2057 30.4382C75.5983 31.0351 76.593 31.8309 77.1898 33.2235C77.7866 34.6161 77.9856 36.4065 77.9856 38.5949C77.9856 40.9822 77.7866 42.7727 77.1898 43.9664C76.593 45.16 75.5983 46.1547 74.2057 46.7516C72.8131 47.3484 70.8236 47.5473 68.0384 47.5473ZM65.8501 21.6848H69.2321C69.63 20.889 69.8289 20.0932 70.4258 18.8996C70.8236 17.9049 71.2215 16.9102 71.6194 15.9154C72.0173 14.9207 72.2162 14.3239 72.4152 13.7271C72.8131 12.9313 73.4099 12.3345 74.2057 11.9366H62.0702C62.8659 12.1355 63.2638 12.5334 63.6617 13.3292C63.8606 13.7271 64.2585 14.3239 64.4575 14.9207C64.8554 15.5176 65.0543 16.3133 65.4522 16.9102C65.6511 17.507 66.049 18.1038 66.049 18.3027C66.8448 19.6953 66.6459 20.889 65.8501 21.6848ZM68.0384 42.1759C69.0332 42.1759 70.0279 42.1759 70.4258 41.9769C71.0226 41.778 71.4205 41.3801 71.6194 40.9822C71.8184 40.3854 72.0173 39.5896 72.0173 38.5949C72.0173 37.6002 71.8184 36.8044 71.6194 36.2076C71.4205 35.6108 71.0226 35.4118 70.4258 35.2129C69.8289 35.0139 69.0332 35.0139 68.0384 35.0139C67.0437 35.0139 66.248 35.0139 65.6511 35.2129C65.0543 35.4118 64.6564 35.8097 64.4575 36.2076C64.2585 36.8044 64.0596 37.6002 64.0596 38.5949C64.0596 39.5896 64.2585 40.5843 64.4575 40.9822C64.6564 41.579 65.0543 41.9769 65.6511 41.9769C66.248 42.1759 67.0437 42.1759 68.0384 42.1759ZM85.9433 49.1389C85.1475 49.1389 84.3518 48.9399 83.7549 48.3431C83.1581 47.7463 82.9592 47.1495 82.9592 46.1547V9.94716C82.9592 7.95773 83.1581 6.5651 83.7549 5.57039C84.3518 4.57568 85.3465 3.77992 86.7391 3.38204C88.1317 2.98415 90.32 2.7852 92.9063 2.7852C97.0841 2.7852 99.8693 3.58099 100.864 4.97359C102.058 6.56513 101.859 8.75348 100.665 11.5387C100.267 12.7323 99.6703 13.7271 99.2725 14.7218C98.8746 15.7165 98.4767 16.5123 98.0788 17.308C97.6809 18.1038 97.482 18.8996 97.283 19.2975C97.0841 19.6953 97.283 20.2922 97.482 20.6901C97.6809 21.0879 98.2778 21.6848 98.8746 22.4805C100.267 24.0721 101.262 25.6636 102.058 27.2552C102.853 28.8467 103.251 30.8361 103.251 33.0245C103.251 36.4065 102.456 38.9928 100.665 40.5843C98.8746 42.1759 96.4873 43.1706 93.5031 43.1706C92.5084 43.1706 91.7126 42.9716 91.1158 42.3748C90.519 41.9769 90.1211 41.1812 90.1211 40.1865C90.1211 39.1917 90.32 38.5949 90.7179 37.9981C91.3148 37.4012 92.1105 37.0034 93.1052 37.0034C94.4978 36.8044 95.4926 36.4065 96.0894 36.0086C96.6862 35.4118 96.8852 34.4171 96.8852 32.8256C96.8852 31.234 96.6862 29.8414 96.0894 28.6478C95.4926 27.2552 94.8957 26.0615 93.901 24.8679C93.1052 23.8732 92.5084 23.0774 92.1105 22.2816C91.7126 21.6848 91.5137 20.889 91.3148 20.2922C91.3148 19.6953 91.3147 19.0985 91.5137 18.3027C91.7126 17.507 91.9116 16.7112 92.5084 15.5175C92.9063 14.7218 93.1052 13.926 93.5031 13.1302C93.901 12.3345 94.0999 11.7376 94.4978 10.7429C94.8957 9.7482 94.8957 9.15137 94.6968 8.75349C94.2989 8.3556 93.5031 8.15665 92.3095 8.15665C91.1158 8.15665 90.1211 8.35559 89.7232 8.55453C89.3253 8.95242 89.1264 9.54926 89.1264 10.7429V46.5526C89.1264 47.5473 88.9274 48.1442 88.3306 48.741C87.3359 48.741 86.7391 49.1389 85.9433 49.1389Z" fill="white"/>
<path d="M117.177 39.1916C116.382 39.1916 115.586 38.7937 114.989 38.1969C114.392 37.6 113.994 36.8042 113.994 36.0085C113.994 35.0138 114.392 34.417 114.989 33.8201C115.586 33.2233 116.382 32.8254 117.177 32.8254H135.48C137.668 32.8254 139.26 32.6264 140.255 32.4275C141.249 32.0296 142.045 31.4328 142.443 30.2391C142.841 29.2444 143.04 27.4539 143.04 25.2656C143.04 23.0772 142.841 21.2867 142.443 20.292C142.045 19.2973 141.448 18.5015 140.255 18.1036C139.26 17.7057 137.668 17.7057 135.48 17.7057H117.774C116.978 17.7057 116.183 17.3079 115.586 16.711C114.989 16.1142 114.591 15.3184 114.591 14.3237C114.591 13.329 114.989 12.7322 115.586 12.1353C116.183 11.5385 116.978 11.1406 117.774 11.1406H135.48C138.265 11.1406 140.454 11.3396 142.244 11.7375C144.035 12.1353 145.427 12.9311 146.422 13.9258C147.417 14.9206 148.212 16.3132 148.61 18.3026C149.008 20.0931 149.207 22.4804 149.207 25.2656C149.207 28.0508 149.008 30.4381 148.61 32.2286C148.212 34.0191 147.417 35.4117 146.422 36.6053C145.427 37.799 144.035 38.3958 142.045 38.7937C140.255 39.1916 137.867 39.3905 135.281 39.3905H117.177V39.1916Z" fill="white"/>
<path d="M170.096 45.9561C169.3 46.1551 168.505 46.1551 167.709 45.7572C166.913 45.3593 166.316 44.7625 166.117 43.9667C165.918 43.1709 165.918 42.3752 166.316 41.5794C166.714 40.7836 167.311 40.1868 168.107 39.9878C172.483 38.5952 176.263 36.6058 179.446 34.0196C182.63 31.4333 185.017 28.6481 186.608 25.465C187.802 22.8788 186.807 21.4862 183.823 21.4862H164.725C163.929 21.4862 163.133 21.0883 162.536 20.4914C161.939 19.8946 161.542 19.0989 161.542 18.3031C161.542 17.3084 161.939 16.7115 162.536 16.1147C163.133 15.5179 163.929 15.3189 164.725 15.3189H184.022C187.006 15.3189 189.394 15.9158 190.985 16.9105C192.577 18.1042 193.571 19.4967 193.77 21.4862C193.969 23.4756 193.571 25.664 192.378 28.2502C190.388 32.2291 187.603 35.81 183.624 38.9931C179.645 41.7783 175.07 44.1656 170.096 45.9561ZM168.107 11.1411C167.311 11.1411 166.515 10.9422 165.918 10.3454C165.322 9.74855 164.924 8.95277 164.924 8.15699C164.924 7.16228 165.322 6.56547 165.918 5.96864C166.515 5.37181 167.311 5.17285 168.107 5.17285H188.001C188.797 5.17285 189.593 5.37181 190.189 5.96864C190.786 6.56547 191.184 7.36122 191.184 8.15699C191.184 8.95277 190.786 9.74855 190.189 10.3454C189.593 10.9422 188.797 11.1411 188.001 11.1411H168.107Z" fill="white"/>
<path d="M209.686 38.3958C208.89 38.7937 208.094 38.9927 207.298 38.7937C206.503 38.5948 205.707 37.9979 205.309 37.4011C204.911 36.6053 204.712 35.8095 204.911 35.0138C205.11 34.218 205.707 33.4222 206.503 33.0243C207.895 32.0296 209.487 31.0349 210.879 29.6423C212.471 28.4487 213.665 27.0561 214.858 25.8624C215.455 25.2656 216.251 24.8677 217.047 24.6688C217.842 24.4698 218.638 24.6688 219.235 25.0666C220.031 25.6635 220.429 26.2603 220.429 27.255C220.429 28.2497 220.429 28.8466 219.832 29.6423C219.036 30.836 217.842 31.8307 216.649 33.0243C215.455 34.218 214.261 35.2127 213.068 36.2074C211.874 37.0032 210.68 37.799 209.686 38.3958ZM220.031 44.9609C219.235 44.9609 218.439 44.563 217.842 43.9662C217.246 43.3694 216.848 42.5736 216.848 41.7779C216.848 40.7831 217.246 40.1863 217.842 39.3905C218.439 38.5947 219.235 38.3958 220.031 38.3958C221.622 38.3958 222.816 38.1969 223.214 37.6C223.612 37.2022 224.01 36.2074 224.01 34.6159V20.0931H210.084C209.288 20.0931 208.492 19.6952 207.895 19.0984C207.298 18.5015 207.099 17.7058 207.099 16.91C207.099 16.1142 207.298 15.3184 207.895 14.7216C208.492 14.1248 209.288 13.7269 210.084 13.7269H224.01V8.1565C224.01 7.16178 224.408 6.56497 225.004 5.96814C225.601 5.37132 226.397 4.97343 227.193 4.97343C228.187 4.97343 228.784 5.37132 229.381 5.96814C229.978 6.56497 230.376 7.36073 230.376 8.1565V13.7269H243.307C244.103 13.7269 244.899 14.1248 245.495 14.7216C246.092 15.3184 246.291 16.1142 246.291 16.91C246.291 17.7058 246.092 18.5015 245.495 19.0984C244.899 19.6952 244.103 20.0931 243.307 20.0931H230.376V35.0138C230.376 38.5947 229.58 41.181 227.988 42.5736C226.397 43.9662 223.811 44.9609 220.031 44.9609ZM248.281 37.2022C247.684 37.799 246.888 37.9979 245.893 37.9979C245.098 37.9979 244.302 37.6 243.705 37.0032C243.108 36.2074 242.113 35.6106 241.318 34.6159C240.323 33.8201 239.328 32.8254 238.333 32.0296C237.339 31.2339 236.344 30.4381 235.548 29.8413C234.753 29.4434 234.355 28.6476 234.156 27.8519C233.957 27.0561 234.156 26.2603 234.554 25.4645C234.951 24.6687 235.747 24.2709 236.543 24.0719C237.339 23.873 238.135 24.0719 238.93 24.4698C239.925 25.0666 240.92 25.8624 242.113 26.8571C243.307 27.8519 244.501 28.8466 245.694 29.8413C246.888 30.836 247.883 31.8307 248.679 32.6265C249.275 33.2233 249.673 34.0191 249.474 35.0138C249.275 36.0085 248.877 36.6053 248.281 37.2022ZM246.291 12.3343C245.893 12.7322 245.296 12.9311 244.7 12.9311C244.103 12.9311 243.506 12.5332 243.108 12.1354C242.71 11.7375 242.113 11.1407 241.517 10.3449C240.92 9.54911 240.323 8.95228 239.726 8.35545C239.328 7.95757 239.129 7.55969 239.129 6.96286C239.129 6.36603 239.328 5.96812 239.726 5.57023C240.124 5.17235 240.721 4.97343 241.119 4.97343C241.716 4.97343 242.113 5.17235 242.511 5.57023C243.108 5.96812 243.705 6.56496 244.501 7.16178C245.297 7.95755 245.893 8.55438 246.291 9.15121C246.689 9.5491 246.888 10.1459 246.888 10.7428C246.888 11.3396 246.689 11.9364 246.291 12.3343ZM247.883 7.75862C247.485 7.36073 246.888 6.76392 246.291 5.96814C245.694 5.37132 245.098 4.77447 244.501 4.17764C244.103 3.77976 243.904 3.38188 243.904 2.78505C243.904 2.18822 244.103 1.79033 244.501 1.1935C244.899 0.795613 245.297 0.59668 245.893 0.59668C246.49 0.59668 246.888 0.795632 247.485 0.994574C248.082 1.39246 248.679 1.79034 249.474 2.38717C250.27 2.984 250.867 3.58081 251.464 4.17764C251.862 4.57553 252.061 5.17236 252.061 5.76919C252.061 6.36602 251.862 6.96285 251.464 7.36074C251.066 7.75862 250.469 7.95757 249.872 7.95757C249.275 7.95757 248.281 8.1565 247.883 7.75862Z" fill="white"/>
<path d="M285.682 49.3379C284.886 49.3379 284.09 48.94 283.493 48.5421C282.897 47.9453 282.499 47.1495 282.499 46.1548V37.4013H261.013C260.217 37.4013 259.62 37.2024 259.024 36.6056C258.427 36.0087 258.228 35.4119 258.228 34.6161C258.228 33.8204 258.427 33.2235 259.024 32.6267C259.62 32.0299 260.217 31.831 261.013 31.831H267.777V27.4542C267.777 25.2658 267.976 23.6743 268.573 22.2817C269.17 21.088 270.164 20.0933 271.557 19.4965C272.95 18.8997 274.939 18.7007 277.525 18.7007H282.101V12.7324H271.358C270.363 14.324 269.369 15.7166 268.175 17.1092C266.981 18.5018 265.987 19.6954 264.793 20.8891C264.196 21.4859 263.4 21.8838 262.406 22.0827C261.61 22.2817 260.814 21.8838 260.018 21.287C259.421 20.6902 259.024 20.0933 259.024 19.2976C259.024 18.5018 259.222 17.706 260.018 17.1092C261.411 15.7166 262.803 14.125 264.196 12.3346C265.589 10.5441 266.782 8.75359 267.976 6.96311C269.17 5.17262 270.164 3.38212 270.761 1.79058C271.159 0.994809 271.756 0.596917 272.552 0.199031C273.347 8.84607e-05 274.143 0.000100613 274.939 0.397986C275.735 0.795872 276.133 1.19376 276.53 1.98953C276.729 2.78531 276.729 3.38212 276.332 4.17789C275.934 5.1726 275.337 6.36627 274.74 7.36098H301.796C302.592 7.36098 303.189 7.55992 303.786 8.15674C304.382 8.75357 304.581 9.3504 304.581 10.1462C304.581 10.9419 304.382 11.5388 303.786 12.1356C303.189 12.7324 302.592 12.9314 301.796 12.9314H288.666V18.8997H298.613C299.409 18.8997 300.006 19.0986 300.603 19.6954C301.199 20.2923 301.398 20.8891 301.398 21.6849C301.398 22.4806 301.199 23.0775 300.603 23.6743C300.006 24.2711 299.409 24.47 298.613 24.47H288.666V32.0299H304.184C304.979 32.0299 305.576 32.2288 306.173 32.8257C306.77 33.4225 306.969 34.0193 306.969 34.8151C306.969 35.6109 306.77 36.2077 306.173 36.8045C305.576 37.4014 304.979 37.6003 304.184 37.6003H288.666V46.3538C288.666 47.3485 288.268 48.1443 287.671 48.7411C287.273 48.94 286.677 49.3379 285.682 49.3379ZM274.143 31.831H282.3V24.2711H277.724C276.332 24.2711 275.337 24.4701 274.939 24.868C274.541 25.2658 274.342 26.0616 274.342 27.4542V31.831H274.143Z" fill="white"/>
<path d="M317.115 21.0881C316.319 21.486 315.722 21.685 314.728 21.685C313.932 21.685 313.136 21.2871 312.738 20.4913C312.34 19.8945 312.141 19.2976 312.34 18.5019C312.539 17.7061 312.937 17.1093 313.534 16.9104C315.324 15.9156 316.916 14.722 318.11 13.5283C319.303 12.3346 320.099 10.7431 320.895 8.95264H315.324C314.529 8.95264 314.131 8.75369 313.733 8.35581C313.335 7.95792 313.136 7.36109 313.136 6.76426C313.136 6.16743 313.335 5.57059 313.733 5.17271C314.131 4.77482 314.728 4.57587 315.324 4.57587H321.889C321.889 4.37693 322.088 3.97905 322.088 3.58116C322.088 3.18327 322.088 2.98433 322.088 2.58645C322.088 1.59173 322.486 0.994919 323.083 0.597033C323.68 0.199147 324.476 0.000195548 325.272 0.199138C326.067 0.199138 326.664 0.597042 327.062 0.994928C327.46 1.59176 327.858 2.18857 327.659 3.18328C327.659 3.38222 327.659 3.58117 327.659 3.78012C327.659 3.97906 327.659 4.17801 327.659 4.37695H331.041C333.229 4.37695 334.622 4.97378 335.617 5.9685C336.611 6.96321 337.009 8.55476 336.611 10.9421C336.412 12.9315 336.014 14.523 335.418 15.5177C334.821 16.5124 334.025 17.3082 332.831 17.7061C331.638 18.104 330.245 18.3029 328.654 18.3029C327.858 18.3029 327.261 18.104 326.863 17.7061C326.465 17.3082 326.067 16.7114 326.067 15.9156C326.067 15.1199 326.266 14.523 326.664 14.1251C327.062 13.5283 327.659 13.3294 328.256 13.3294C329.449 13.3294 330.245 13.1304 330.444 12.9315C330.842 12.7326 331.041 12.1357 331.24 11.141C331.439 10.3452 331.439 9.74839 331.041 9.54945C330.842 9.3505 330.245 9.15157 329.449 9.15157H326.863C326.067 11.9368 324.675 14.3241 323.282 16.3135C321.889 18.3029 319.303 19.6955 317.115 21.0881ZM318.706 48.9401C317.712 49.1391 316.916 49.1391 316.319 48.9401C315.523 48.7412 315.125 48.1444 314.926 47.3486C314.728 46.5528 314.728 45.956 315.125 45.1602C315.523 44.3645 315.921 43.9666 316.717 43.7676C317.712 43.5687 318.706 43.3697 319.701 42.9718C320.895 42.574 322.088 42.1761 323.282 41.7782C324.476 41.3803 325.669 40.7835 326.465 40.3856C324.277 39.9877 322.685 39.1919 321.691 38.1972C320.696 37.0036 320.298 35.2131 320.298 33.0247V26.8575C320.298 23.8734 321.094 21.8839 322.486 20.8892C323.879 19.8945 326.465 19.0987 330.046 19.0987H342.381C345.962 19.0987 348.548 19.6956 349.94 20.8892C351.333 22.0829 352.129 24.0723 352.129 26.8575V33.0247C352.129 35.412 351.731 37.2025 350.736 38.3962C349.741 39.5898 348.15 40.3856 345.962 40.5845C347.553 41.3803 349.145 41.9771 350.935 42.574C352.726 43.1708 354.317 43.7676 355.71 43.9666C356.506 44.1655 357.102 44.5634 357.301 45.3592C357.5 46.1549 357.699 46.7518 357.5 47.5475C357.301 48.3433 356.704 48.9401 356.108 49.1391C355.312 49.338 354.516 49.338 353.72 49.1391C352.527 48.7412 351.333 48.3433 349.94 47.9454C348.548 47.5475 347.155 46.7518 345.763 46.1549C344.37 45.5581 343.176 44.9613 342.182 44.5634C341.585 44.1655 341.187 43.5687 340.988 42.9718C340.789 42.375 340.988 41.7782 341.187 41.1814H331.24L331.439 41.3803C331.837 41.9771 331.837 42.574 331.638 43.1708C331.439 43.7676 331.041 44.3645 330.444 44.7624C329.449 45.3592 328.256 45.757 326.863 46.3539C325.47 46.9507 324.078 47.5475 322.685 48.1444C321.293 48.7412 319.9 48.5422 318.706 48.9401ZM326.465 30.8364H345.962V28.648H326.465V30.8364ZM326.664 25.2659H345.962C345.763 24.4702 345.564 24.0723 344.967 23.6744C344.569 23.4755 343.574 23.2765 342.381 23.2765H330.046C328.852 23.2765 328.057 23.4755 327.46 23.6744C327.062 24.0723 326.664 24.4702 326.664 25.2659ZM330.046 36.4067H342.381C343.574 36.4067 344.569 36.2078 344.967 36.0089C345.365 35.8099 345.763 35.2131 345.763 34.4173H326.465C326.465 35.2131 326.863 35.8099 327.261 36.0089C328.057 36.4067 328.852 36.4067 330.046 36.4067ZM347.155 17.1093C345.166 17.1093 343.773 16.9103 342.58 16.5124C341.386 16.1146 340.59 15.3188 339.993 14.3241C339.396 13.3294 339.198 11.7378 339.198 9.94736C339.198 7.95793 339.396 6.5653 339.993 5.57059C340.59 4.57587 341.386 3.78012 342.58 3.38224C343.773 2.98435 345.365 2.7854 347.155 2.7854H350.139C352.129 2.7854 353.72 2.98435 354.715 3.38224C355.909 3.78012 356.704 4.57587 357.102 5.57059C357.5 6.5653 357.898 8.15687 357.898 9.94736C357.898 11.9368 357.699 13.3294 357.102 14.3241C356.506 15.3188 355.71 16.1146 354.715 16.5124C353.521 16.9103 351.93 17.1093 350.139 17.1093H347.155ZM347.553 12.5336H350.139C351.333 12.5336 352.129 12.3347 352.527 12.1357C352.925 11.7378 353.124 11.141 353.124 10.1463C353.124 9.15157 352.925 8.35581 352.527 7.95793C352.129 7.56004 351.333 7.56002 350.139 7.56002H347.553C346.359 7.56002 345.564 7.75898 345.166 7.95793C344.768 8.35581 344.569 8.95262 344.569 10.1463C344.569 11.141 344.768 11.9368 345.166 12.1357C345.564 12.3347 346.359 12.5336 347.553 12.5336Z" fill="white"/>
<path d="M378.19 48.9401C377.395 48.9401 376.599 48.7411 376.002 48.1443C375.405 47.5475 375.206 46.9506 375.206 45.9559V32.6267C374.211 33.4225 373.217 34.2183 372.023 35.0141C370.829 35.8098 370.034 36.4067 369.437 37.0035C368.641 37.4014 367.845 37.6003 367.049 37.6003C366.254 37.4014 365.458 37.0035 365.06 36.2077C364.662 35.412 364.463 34.6162 364.662 33.8204C364.861 33.0246 365.259 32.4278 366.055 32.0299C366.453 31.632 367.248 31.2341 368.044 30.6373C368.84 30.0405 369.636 29.4437 370.63 28.8468C371.625 28.25 372.421 27.4542 373.217 26.8574C374.013 26.2606 374.609 25.6638 375.206 25.2659V18.7008C375.007 19.2976 374.41 19.6955 373.814 20.0933C373.018 20.4912 372.222 20.6902 371.426 20.2923C370.63 19.8944 370.034 19.4965 369.636 18.7008C369.437 18.3029 369.039 17.706 368.641 16.9103C368.243 16.1145 367.646 15.3187 367.248 14.5229C366.851 13.7272 366.453 13.1304 366.254 12.7325C365.856 11.9367 365.657 11.3399 365.856 10.5441C366.055 9.74831 366.652 9.1515 367.447 8.75361C368.243 8.35572 369.039 8.15679 369.835 8.35573C370.63 8.55467 371.227 8.95255 371.625 9.74832C371.824 10.1462 372.222 10.942 372.819 11.7378C373.217 12.5335 373.814 13.3293 374.211 14.1251C374.609 14.9208 375.007 15.5177 375.206 15.9156L375.405 16.3134V3.78004C375.405 2.78533 375.604 2.18849 376.201 1.59166C376.798 0.994829 377.395 0.795898 378.389 0.795898C379.384 0.795898 379.782 0.994829 380.379 1.59166C380.975 2.18849 381.174 2.78533 381.174 3.78004V45.757C381.174 46.5528 380.975 47.3485 380.379 47.9453C379.583 48.7411 378.986 48.9401 378.19 48.9401ZM408.827 46.9506C406.042 44.9612 403.854 42.5739 401.864 39.9876C400.074 37.4014 398.482 34.6162 397.488 31.831C396.493 34.6162 395.1 37.4014 393.509 39.9876C391.917 42.5739 389.53 44.7623 386.944 46.7517C386.148 47.3485 385.352 47.5475 384.556 47.5475C383.761 47.5475 382.965 47.1496 382.368 46.3538C381.97 45.558 381.771 44.9612 381.771 44.1654C381.97 43.3697 382.368 42.7728 382.965 42.176C389.53 37.4014 393.31 30.6373 393.907 21.6849H385.153C384.358 21.6849 383.761 21.486 383.164 20.8891C382.567 20.2923 382.368 19.6955 382.368 18.8997C382.368 18.1039 382.567 17.5071 383.164 16.9103C383.761 16.3134 384.358 16.1145 385.153 16.1145H394.106V4.17792C394.106 3.18321 394.504 2.5864 395.1 1.98957C395.697 1.39274 396.493 1.19378 397.289 1.19378C398.085 1.19378 398.88 1.39274 399.477 1.98957C400.074 2.5864 400.273 3.18321 400.273 4.17792V16.1145H410.817C411.613 16.1145 412.21 16.3134 412.806 16.9103C413.403 17.5071 413.602 18.1039 413.602 18.8997C413.602 19.6955 413.403 20.2923 412.806 20.8891C412.21 21.486 411.613 21.6849 410.817 21.6849H400.472C400.87 26.0616 402.262 30.0405 404.451 33.4225C406.639 36.8045 409.424 39.7887 412.806 42.176C413.602 42.5739 414 43.3697 414 44.1654C414 44.9612 413.801 45.757 413.403 46.3538C412.806 47.1496 412.011 47.5475 411.215 47.5475C410.419 47.7464 409.623 47.5475 408.827 46.9506ZM411.016 13.1303C410.419 13.5282 409.822 13.9261 408.827 13.7272C407.833 13.5282 407.435 13.3293 406.838 12.7325C406.639 12.3346 406.241 11.9367 405.644 11.3399C405.247 10.743 404.65 10.1462 404.053 9.54937C403.456 8.95254 403.058 8.55466 402.859 8.15678C402.461 7.55995 402.063 6.96312 402.262 6.16735C402.461 5.37158 402.66 4.77476 403.257 4.37687C403.854 3.78005 404.451 3.58109 405.247 3.58109C406.042 3.58109 406.639 3.78005 407.236 4.37687C407.634 4.77476 408.032 5.17264 408.43 5.76947C409.026 6.3663 409.424 6.96313 410.021 7.36102C410.618 7.95785 410.817 8.35571 411.016 8.55466C411.613 9.35043 412.011 9.94727 411.812 10.743C411.613 11.5388 411.812 12.5335 411.016 13.1303Z" fill="white"/>
</svg>
