<svg width="445" height="107" viewBox="0 0 445 107" fill="none" xmlns="http://www.w3.org/2000/svg">
<path d="M157.83 103.75V101.83C157.83 89.0139 172.566 88.1019 172.566 80.9979C172.566 78.7419 171.414 76.2939 167.43 76.2939C165.174 76.2939 163.11 77.0139 162.006 77.4459C160.854 77.8779 159.99 77.4939 159.51 76.3899L159.174 75.5739C158.742 74.4219 159.222 73.5099 160.374 73.0299C161.766 72.4539 164.502 71.5419 167.478 71.5419C174.15 71.5419 178.23 75.6219 178.23 80.9979C178.23 91.1259 163.446 92.4219 163.446 101.014H176.454C177.606 101.014 178.374 101.734 178.374 102.886V103.75C178.374 104.902 177.606 105.67 176.454 105.67H159.702C158.55 105.67 157.83 104.902 157.83 103.75ZM193.081 92.7099V85.0779C193.081 76.6299 197.305 71.5419 204.697 71.5419C212.185 71.5419 216.361 76.9179 216.361 85.0779V92.7099C216.361 101.158 212.185 106.294 204.697 106.294C197.305 106.294 193.081 100.966 193.081 92.7099ZM204.697 101.542C209.305 101.542 210.697 97.4619 210.697 91.9899V85.7979C210.697 80.3259 209.305 76.2939 204.697 76.2939C200.089 76.2939 198.745 80.3259 198.745 85.7979V91.9899C198.745 97.4619 200.089 101.542 204.697 101.542ZM230.702 103.75V101.83C230.702 89.0139 245.438 88.1019 245.438 80.9979C245.438 78.7419 244.286 76.2939 240.302 76.2939C238.046 76.2939 235.982 77.0139 234.878 77.4459C233.726 77.8779 232.862 77.4939 232.382 76.3899L232.046 75.5739C231.614 74.4219 232.094 73.5099 233.246 73.0299C234.638 72.4539 237.374 71.5419 240.35 71.5419C247.022 71.5419 251.102 75.6219 251.102 80.9979C251.102 91.1259 236.318 92.4219 236.318 101.014H249.326C250.478 101.014 251.246 101.734 251.246 102.886V103.75C251.246 104.902 250.478 105.67 249.326 105.67H232.574C231.422 105.67 230.702 104.902 230.702 103.75ZM269.534 98.6619C265.262 98.6619 263.438 96.7899 264.398 92.2779L268.382 73.9419C268.622 72.7419 269.486 72.1659 270.638 72.1659H272.078C273.23 72.1659 273.854 72.9819 273.614 74.2299L269.822 92.2779C269.582 93.3339 269.822 94.0059 270.926 94.0059H276.158V83.8779C276.158 82.7259 276.782 81.8619 277.886 81.6699L279.614 81.3819C280.814 81.1899 281.582 81.8139 281.582 82.9659V94.0059H285.662C286.814 94.0059 287.582 94.7259 287.582 95.8779V96.7419C287.582 97.8939 286.814 98.6619 285.662 98.6619H281.582V103.75C281.582 104.902 280.862 105.67 279.71 105.67H278.078C276.926 105.67 276.158 104.902 276.158 103.75V98.6619H269.534Z" fill="white"/>
<path d="M7.7542 52.3463C6.6874 52.5597 5.83397 52.3463 4.98053 51.9196C4.1271 51.4929 3.70038 50.8528 3.48702 49.786C3.27366 48.7192 3.48702 47.8658 3.91374 47.2257C4.34046 46.3723 5.19389 46.1589 6.04733 45.9455C7.32748 45.7322 8.60764 45.5188 9.46108 44.8787C10.3145 44.452 10.9546 43.3852 11.3813 41.8917C11.808 40.3982 12.0214 38.478 12.0214 35.7043C12.0214 33.9975 12.0214 32.2906 11.808 30.7971C10.9546 32.0772 10.1011 33.144 9.24771 34.4242C8.39428 35.491 7.54084 36.5577 6.6874 37.4112C6.04733 38.0512 5.40725 38.478 4.55382 38.6913C3.70038 38.9047 2.84695 38.478 2.20687 38.0513C1.56679 37.6245 1.14008 36.7711 1.14008 36.131C1.14008 35.491 1.35344 34.6375 1.99351 33.9974C3.06031 32.9307 3.91374 31.6505 4.98053 30.3703C6.04733 29.0902 7.11412 27.5967 8.18092 26.1032C9.24771 24.6097 9.8878 23.3295 10.5279 22.2627C10.3145 21.4093 10.1011 20.7692 9.88779 20.1291C9.67443 19.489 9.46108 18.849 9.03436 17.9955C7.96756 19.0623 7.11412 19.9157 6.04733 20.9825C5.40725 21.6226 4.76718 21.836 3.70038 21.836C2.84695 21.836 1.99351 21.6226 1.35343 20.9825C0.713354 20.3425 0.5 19.7024 0.5 18.8489C0.5 17.9955 0.926713 17.3554 1.35343 16.7154C2.84694 15.4352 4.1271 13.9417 5.83397 12.2348C5.1939 11.3814 4.76718 10.5279 4.1271 9.6745C3.48703 8.82107 2.84695 7.96764 2.20687 7.1142C1.78015 6.47412 1.56679 5.83405 1.78015 4.98061C1.99351 4.12718 2.42023 3.70045 3.06031 3.27373C3.70039 2.84702 4.34046 2.63366 5.1939 2.84702C6.04733 2.84702 6.68741 3.27374 7.11412 3.91382C8.18092 5.19397 9.03436 6.26077 10.1012 7.75428C10.5279 7.11421 11.1679 6.26077 11.5947 5.6207C12.0214 4.98062 12.4481 4.34055 12.8748 3.70048C13.3015 2.84704 13.9416 2.4203 14.7951 2.20694C15.6485 1.99358 16.2886 1.99359 17.142 2.42031C17.9954 2.84703 18.4222 3.48711 18.6355 4.12719C18.8489 4.76727 18.6355 5.62068 18.2088 6.47412C17.5687 7.54091 16.9286 8.60772 16.0752 9.88787C15.2218 11.168 14.3683 12.2348 13.5149 13.3016C15.0084 16.502 16.2886 19.9157 16.9286 23.5428C17.7821 27.1699 17.9954 31.4371 17.9954 36.131C17.9954 40.3982 17.5687 43.5986 16.7153 45.9455C15.8618 48.2925 14.795 49.786 13.3015 50.8528C11.808 51.4929 10.1011 52.1329 7.7542 52.3463ZM29.0901 20.5558C28.2367 20.5558 27.3832 20.3425 26.7431 19.7024C26.1031 19.2757 25.8897 18.4222 25.8897 17.3554V14.1551H19.9157C19.0622 14.1551 18.4221 13.9417 17.7821 13.3016C17.3554 12.6616 16.9286 12.0215 16.9286 11.3814C16.9286 10.7413 17.142 9.88788 17.7821 9.46116C18.2088 8.82109 19.0622 8.60771 19.9157 8.60771H25.8897V4.5539C25.8897 3.48711 26.1031 2.63366 26.7431 2.20694C27.3832 1.78022 28.0233 1.35352 29.0901 1.35352C30.1569 1.35352 30.5836 1.56686 31.2237 2.20694C31.8638 2.63366 32.0771 3.48711 32.0771 4.5539V8.60771H38.0512V4.5539C38.0512 3.48711 38.2645 2.63366 38.9046 2.20694C39.5447 1.78022 40.1848 1.35352 41.0382 1.35352C41.8916 1.35352 42.5317 1.56686 43.1718 2.20694C43.8119 2.63366 44.0252 3.48711 44.0252 4.5539V8.60771H49.9993C50.8527 8.60771 51.4928 8.82109 52.1329 9.46116C52.5596 10.1012 52.9863 10.7413 52.9863 11.3814C52.9863 12.0215 52.7729 12.8749 52.1329 13.3016C51.7061 13.9417 50.8527 14.1551 49.9993 14.1551H44.0252V17.5688C44.0252 18.6356 43.8119 19.2757 43.1718 19.9157C42.5317 20.3425 41.8916 20.7692 41.0382 20.7692C40.1848 20.7692 39.5447 20.5558 38.9046 19.9157C38.2645 19.489 38.0512 18.6356 38.0512 17.5688V14.1551H32.0771V17.5688C32.0771 18.6356 31.8638 19.2757 31.2237 19.9157C30.5836 20.3425 29.9435 20.5558 29.0901 20.5558ZM31.437 51.4929C27.5966 51.4929 24.8229 50.6394 23.116 49.1459C21.4092 47.6524 20.5557 45.0921 20.5557 41.2516V31.6505C20.5557 28.0234 21.4092 25.2497 23.116 23.7562C24.8229 22.2627 27.5966 21.4092 31.437 21.4092H39.5447C43.3851 21.4092 46.1588 22.2627 47.8657 23.7562C49.5726 25.2497 50.426 27.81 50.426 31.6505V41.2516C50.426 45.0921 49.5726 47.6524 47.8657 49.1459C46.1588 50.6394 43.3851 51.4929 39.5447 51.4929H31.437ZM26.9565 33.7841H32.7172V27.5967H32.0771C30.797 27.5967 29.7302 27.81 29.0901 28.0234C28.45 28.2367 27.8099 28.6635 27.5966 29.3036C27.3832 29.9436 27.1699 30.797 27.1699 32.0772V33.7841H26.9565ZM31.8638 45.7322H32.5038V39.5448H26.7431V41.465C26.7431 43.1719 26.9565 44.452 27.5966 44.8787C28.45 45.3055 29.9435 45.7322 31.8638 45.7322ZM38.4779 33.7841H44.2386V31.8639C44.2386 30.5837 44.0252 29.7303 43.8119 29.0902C43.5985 28.4501 43.1718 28.0234 42.3184 27.81C41.6783 27.5967 40.6115 27.3833 39.118 27.3833H38.4779V33.7841ZM38.4779 45.7322H39.118C40.3981 45.7322 41.4649 45.5188 42.3184 45.3055C42.9584 45.0921 43.3851 44.6654 43.8119 44.0253C44.0252 43.3852 44.2386 42.5318 44.2386 41.2516V39.3314H38.4779V45.7322Z" fill="white"/>
<path d="M60.8809 29.3035C60.0274 29.3035 59.3873 29.0901 58.9606 28.45C58.3205 27.8099 58.1072 27.1699 58.1072 26.5298C58.1072 25.8897 58.3205 25.0363 58.9606 24.6096C59.6007 23.9695 60.2408 23.7561 60.8809 23.7561H66.4282C66.2148 23.5428 66.2148 23.5428 66.2148 23.3294C66.2148 23.1161 66.0015 23.1161 66.0015 22.9027C65.7881 22.0493 65.3614 21.1958 64.7213 20.129C64.2946 19.0622 63.8679 18.2088 63.4412 17.5687C63.0144 16.9287 63.0144 16.0752 63.2278 15.2218C63.4412 14.3683 64.0812 13.9416 64.7213 13.5149C64.9347 13.5149 64.9347 13.3016 65.148 13.3016C65.3614 13.3016 65.3614 13.3015 65.5747 13.0882H62.5877C61.7343 13.0882 61.0942 12.8748 60.6675 12.2348C60.0274 11.808 59.8141 11.1679 59.8141 10.3145C59.8141 9.46107 60.0274 9.03437 60.6675 8.39429C61.3076 7.96757 61.9477 7.54084 62.5877 7.54084H70.2686V3.91374C70.2686 2.84695 70.6954 1.99352 71.3354 1.35344C71.9755 0.713362 72.829 0.5 73.6824 0.5C74.7492 0.5 75.3893 0.713362 76.0293 1.35344C76.6694 1.99352 77.0961 2.84695 77.0961 3.91374V7.54084H84.777C85.6305 7.54084 86.0572 7.75421 86.6973 8.39429C87.124 8.82101 87.5507 9.46107 87.5507 10.3145C87.5507 11.1679 87.3374 11.5947 86.6973 12.2348C86.2706 12.6615 85.6305 13.0882 84.777 13.0882H82.0034L82.2167 13.3016C83.0702 13.5149 83.4969 14.155 83.9236 14.7951C84.3503 15.4351 84.3503 16.2886 83.9236 17.142C83.7103 17.7821 83.2835 18.8489 82.6435 19.9157C82.0034 21.1958 81.5767 22.2626 81.15 23.3294H85.6305C86.4839 23.3294 87.124 23.5428 87.5507 24.1828C88.1908 24.8229 88.4042 25.463 88.4042 26.1031C88.4042 26.7432 88.1908 27.5966 87.5507 28.0233C86.9106 28.6634 86.2706 28.8767 85.6305 28.8767H60.8809V29.3035ZM73.469 51.4928C70.6954 51.4928 68.5618 51.2794 66.8549 50.6394C65.3614 49.9993 64.2946 49.1458 63.6545 47.6523C63.0144 46.1588 62.8011 44.2386 62.8011 41.8916C62.8011 39.3313 63.0144 37.4111 63.6545 36.131C64.2946 34.6374 65.3614 33.784 66.8549 33.1439C68.3484 32.5038 70.482 32.2905 73.469 32.2905C76.2427 32.2905 78.5896 32.5038 80.0832 33.1439C81.5767 33.784 82.6435 34.6374 83.2835 36.131C83.9236 37.6245 84.137 39.5447 84.137 41.8916C84.137 44.4519 83.9236 46.3722 83.2835 47.6523C82.6435 48.9325 81.5767 49.9993 80.0832 50.6394C78.5896 51.2794 76.4561 51.4928 73.469 51.4928ZM71.1221 23.7561H74.7492C75.1759 22.9027 75.3893 22.0493 76.0293 20.7691C76.4561 19.7023 76.8828 18.6355 77.3095 17.5687C77.7362 16.5019 77.9496 15.8618 78.1629 15.2218C78.5896 14.3683 79.2297 13.7283 80.0832 13.3016H67.0683C67.9217 13.5149 68.3484 13.9416 68.7751 14.7951C68.9885 15.2218 69.4152 15.8619 69.6286 16.5019C70.0553 17.142 70.2686 17.9955 70.6954 18.6355C70.9087 19.2756 71.3354 19.9157 71.3354 20.129C72.1889 21.6225 71.9755 22.9027 71.1221 23.7561ZM73.469 45.7321C74.5358 45.7321 75.6026 45.7321 76.0293 45.5187C76.6694 45.3054 77.0961 44.8787 77.3095 44.4519C77.5228 43.8119 77.7362 42.9584 77.7362 41.8916C77.7362 40.8248 77.5228 39.9714 77.3095 39.3313C77.0961 38.6913 76.6694 38.4779 76.0293 38.2645C75.3893 38.0512 74.5358 38.0512 73.469 38.0512C72.4022 38.0512 71.5488 38.0512 70.9087 38.2645C70.2686 38.4779 69.8419 38.9046 69.6286 39.3313C69.4152 39.9714 69.2019 40.8248 69.2019 41.8916C69.2019 42.9584 69.4152 44.0252 69.6286 44.4519C69.8419 45.092 70.2686 45.5187 70.9087 45.5187C71.5488 45.7321 72.4022 45.7321 73.469 45.7321ZM92.6713 53.1997C91.8179 53.1997 90.9645 52.9863 90.3244 52.3462C89.6843 51.7061 89.471 51.0661 89.471 49.9993V11.168C89.471 9.03437 89.6843 7.54084 90.3244 6.47404C90.9645 5.40725 92.0313 4.55383 93.5248 4.12711C95.0183 3.70039 97.3652 3.48703 100.139 3.48703C104.619 3.48703 107.606 4.34048 108.673 5.83399C109.953 7.54086 109.74 9.88778 108.46 12.8748C108.033 14.155 107.393 15.2218 106.966 16.2886C106.54 17.3554 106.113 18.2088 105.686 19.0622C105.26 19.9157 105.046 20.7691 104.833 21.1958C104.619 21.6225 104.833 22.2626 105.046 22.6893C105.26 23.1161 105.9 23.7561 106.54 24.6096C108.033 26.3164 109.1 28.0233 109.953 29.7302C110.807 31.4371 111.234 33.5706 111.234 35.9176C111.234 39.5447 110.38 42.3184 108.46 44.0252C106.54 45.7321 103.979 46.7989 100.779 46.7989C99.7122 46.7989 98.8587 46.5855 98.2187 45.9454C97.5786 45.5187 97.1519 44.6653 97.1519 43.5985C97.1519 42.5317 97.3652 41.8916 97.792 41.2516C98.432 40.6115 99.2855 40.1848 100.352 40.1848C101.846 39.9714 102.913 39.5447 103.553 39.118C104.193 38.4779 104.406 37.4111 104.406 35.7042C104.406 33.9974 104.193 32.5038 103.553 31.2237C102.913 29.7302 102.272 28.45 101.206 27.1699C100.352 26.1031 99.7122 25.2496 99.2855 24.3962C98.8587 23.7561 98.6454 22.9027 98.432 22.2626C98.432 21.6225 98.432 20.9825 98.6454 20.129C98.8587 19.2756 99.0721 18.4221 99.7122 17.142C100.139 16.2886 100.352 15.4351 100.779 14.5817C101.206 13.7283 101.419 13.0882 101.846 12.0214C102.272 10.9546 102.272 10.3145 102.059 9.8878C101.632 9.46108 100.779 9.24771 99.4988 9.24771C98.2187 9.24771 97.1519 9.46107 96.7252 9.67443C96.2984 10.1011 96.0851 10.7412 96.0851 12.0214V50.426C96.0851 51.4928 95.8717 52.1329 95.2316 52.773C94.1648 52.773 93.5248 53.1997 92.6713 53.1997Z" fill="white"/>
<path d="M126.168 42.5309C125.315 42.5309 124.461 42.1042 123.821 41.4641C123.181 40.824 122.754 39.9706 122.754 39.1171C122.754 38.0503 123.181 37.4103 123.821 36.7702C124.461 36.1301 125.315 35.7034 126.168 35.7034H145.797C148.144 35.7034 149.851 35.49 150.918 35.2767C151.985 34.85 152.838 34.2099 153.265 32.9297C153.691 31.8629 153.905 29.9427 153.905 27.5958C153.905 25.2488 153.691 23.3286 153.265 22.2618C152.838 21.195 152.198 20.3415 150.918 19.9148C149.851 19.4881 148.144 19.4881 145.797 19.4881H126.808C125.955 19.4881 125.101 19.0614 124.461 18.4213C123.821 17.7812 123.394 16.9278 123.394 15.861C123.394 14.7942 123.821 14.1541 124.461 13.5141C125.101 12.874 125.955 12.4473 126.808 12.4473H145.797C148.784 12.4473 151.131 12.6606 153.051 13.0873C154.972 13.5141 156.465 14.3675 157.532 15.4343C158.599 16.5011 159.452 17.9946 159.879 20.1282C160.306 22.0484 160.519 24.6087 160.519 27.5958C160.519 30.5828 160.306 33.1431 159.879 35.0633C159.452 36.9836 158.599 38.4771 157.532 39.7572C156.465 41.0374 154.972 41.6775 152.838 42.1042C150.918 42.5309 148.357 42.7442 145.584 42.7442H126.168V42.5309Z" fill="white"/>
<path d="M182.922 49.7855C182.069 49.9988 181.215 49.9988 180.362 49.5721C179.508 49.1454 178.868 48.5053 178.655 47.6519C178.441 46.7984 178.441 45.945 178.868 45.0916C179.295 44.2381 179.935 43.5981 180.788 43.3847C185.482 41.8912 189.536 39.7576 192.95 36.9839C196.364 34.2103 198.924 31.2232 200.631 27.8095C201.911 25.0358 200.844 23.5423 197.644 23.5423H177.161C176.308 23.5423 175.454 23.1156 174.814 22.4755C174.174 21.8354 173.748 20.982 173.748 20.1286C173.748 19.0618 174.174 18.4217 174.814 17.7816C175.454 17.1415 176.308 16.9282 177.161 16.9282H197.857C201.058 16.9282 203.618 17.5683 205.325 18.6351C207.032 19.9152 208.098 21.4087 208.312 23.5423C208.525 25.6759 208.098 28.0229 206.818 30.7965C204.685 35.0637 201.698 38.9042 197.43 42.3179C193.163 45.3049 188.256 47.8652 182.922 49.7855ZM180.788 12.4476C179.935 12.4476 179.082 12.2343 178.441 11.5942C177.801 10.9541 177.375 10.1007 177.375 9.24726C177.375 8.18046 177.801 7.54041 178.441 6.90033C179.082 6.26025 179.935 6.04688 180.788 6.04688H202.124C202.978 6.04688 203.831 6.26025 204.471 6.90033C205.111 7.54041 205.538 8.39382 205.538 9.24726C205.538 10.1007 205.111 10.9541 204.471 11.5942C203.831 12.2343 202.978 12.4476 202.124 12.4476H180.788Z" fill="white"/>
<path d="M225.381 41.6788C224.527 42.1055 223.674 42.3189 222.82 42.1056C221.967 41.8922 221.113 41.2521 220.687 40.612C220.26 39.7586 220.047 38.9051 220.26 38.0517C220.473 37.1983 221.113 36.3448 221.967 35.9181C223.46 34.8513 225.167 33.7845 226.661 32.291C228.368 31.0109 229.648 29.5174 230.928 28.2372C231.568 27.5971 232.421 27.1704 233.275 26.9571C234.128 26.7437 234.982 26.957 235.622 27.3838C236.475 28.0238 236.902 28.6639 236.902 29.7307C236.902 30.7975 236.902 31.4376 236.262 32.291C235.408 33.5712 234.128 34.638 232.848 35.9181C231.568 37.1983 230.288 38.2651 229.008 39.3319C227.728 40.1853 226.447 41.0387 225.381 41.6788ZM236.475 48.7197C235.622 48.7197 234.768 48.2929 234.128 47.6529C233.488 47.0128 233.062 46.1594 233.062 45.3059C233.062 44.2391 233.488 43.599 234.128 42.7456C234.768 41.8922 235.622 41.6788 236.475 41.6788C238.182 41.6788 239.462 41.4655 239.889 40.8254C240.316 40.3987 240.742 39.3319 240.742 37.625V22.0498H225.807C224.954 22.0498 224.1 21.6231 223.46 20.983C222.82 20.3429 222.607 19.4895 222.607 18.6361C222.607 17.7826 222.82 16.9292 223.46 16.2891C224.1 15.649 224.954 15.2223 225.807 15.2223H240.742V9.24826C240.742 8.18146 241.169 7.5414 241.809 6.90133C242.449 6.26125 243.303 5.83453 244.156 5.83453C245.223 5.83453 245.863 6.26125 246.503 6.90133C247.143 7.5414 247.57 8.39482 247.57 9.24826V15.2223H261.438C262.292 15.2223 263.145 15.649 263.785 16.2891C264.425 16.9292 264.639 17.7826 264.639 18.6361C264.639 19.4895 264.425 20.3429 263.785 20.983C263.145 21.6231 262.292 22.0498 261.438 22.0498H247.57V38.0517C247.57 41.8922 246.716 44.6658 245.01 46.1594C243.303 47.6529 240.529 48.7197 236.475 48.7197ZM266.772 40.3987C266.132 41.0388 265.279 41.2521 264.212 41.2521C263.358 41.2521 262.505 40.8254 261.865 40.1853C261.225 39.3319 260.158 38.6918 259.305 37.625C258.238 36.7716 257.171 35.7048 256.104 34.8513C255.037 33.9979 253.971 33.1445 253.117 32.5044C252.264 32.0777 251.837 31.2242 251.624 30.3708C251.41 29.5174 251.624 28.6639 252.05 27.8105C252.477 26.957 253.331 26.5303 254.184 26.317C255.038 26.1036 255.891 26.317 256.744 26.7437C257.811 27.3838 258.878 28.2372 260.158 29.304C261.438 30.3708 262.718 31.4376 263.999 32.5044C265.279 33.5712 266.346 34.638 267.199 35.4914C267.839 36.1315 268.266 36.9849 268.052 38.0517C267.839 39.1185 267.412 39.7586 266.772 40.3987ZM264.639 13.7288C264.212 14.1555 263.572 14.3689 262.932 14.3689C262.292 14.3689 261.652 13.9422 261.225 13.5154C260.798 13.0887 260.158 12.4487 259.518 11.5952C258.878 10.7418 258.238 10.1017 257.598 9.46163C257.171 9.03491 256.958 8.6082 256.958 7.96812C256.958 7.32804 257.171 6.9013 257.598 6.47458C258.025 6.04786 258.665 5.83453 259.091 5.83453C259.731 5.83453 260.158 6.04786 260.585 6.47458C261.225 6.9013 261.865 7.54138 262.718 8.18146C263.572 9.0349 264.212 9.67497 264.639 10.3151C265.065 10.7418 265.279 11.3819 265.279 12.0219C265.279 12.662 265.065 13.3021 264.639 13.7288ZM266.346 8.82154C265.919 8.39483 265.279 7.75476 264.639 6.90133C263.999 6.26125 263.359 5.62115 262.718 4.98108C262.292 4.55436 262.078 4.12765 262.078 3.48757C262.078 2.84749 262.292 2.42077 262.718 1.78069C263.145 1.35397 263.572 1.14062 264.212 1.14062C264.852 1.14062 265.279 1.35399 265.919 1.56735C266.559 1.99407 267.199 2.42078 268.052 3.06086C268.906 3.70094 269.546 4.341 270.186 4.98108C270.613 5.40779 270.826 6.04788 270.826 6.68795C270.826 7.32803 270.613 7.96811 270.186 8.39483C269.759 8.82155 269.119 9.03492 268.479 9.03492C267.839 9.03492 266.772 9.24826 266.346 8.82154Z" fill="white"/>
<path d="M306.883 53.4121C306.03 53.4121 305.177 52.9854 304.537 52.5586C303.896 51.9186 303.47 51.0651 303.47 49.9983V40.6105H280.427C279.574 40.6105 278.933 40.3972 278.293 39.7571C277.653 39.117 277.44 38.4769 277.44 37.6235C277.44 36.7701 277.653 36.13 278.293 35.4899C278.933 34.8498 279.574 34.6365 280.427 34.6365H287.681V29.9426C287.681 27.5956 287.895 25.8888 288.535 24.3953C289.175 23.1151 290.241 22.0483 291.735 21.4082C293.228 20.7681 295.362 20.5548 298.136 20.5548H303.043V14.154H291.522C290.455 15.8609 289.388 17.3544 288.108 18.8479C286.828 20.3414 285.761 21.6216 284.481 22.9018C283.841 23.5418 282.987 23.9685 281.92 24.1819C281.067 24.3953 280.214 23.9685 279.36 23.3285C278.72 22.6884 278.293 22.0483 278.293 21.1949C278.293 20.3414 278.507 19.488 279.36 18.8479C280.854 17.3544 282.347 15.6475 283.841 13.7273C285.334 11.8071 286.614 9.88686 287.895 7.96663C289.175 6.0464 290.241 4.12616 290.882 2.41928C291.308 1.56585 291.948 1.13912 292.802 0.712407C293.655 0.499048 294.509 0.499061 295.362 0.925778C296.216 1.3525 296.642 1.77922 297.069 2.63266C297.282 3.48609 297.282 4.12615 296.856 4.97959C296.429 6.04638 295.789 7.32655 295.149 8.39334H324.166C325.019 8.39334 325.659 8.60669 326.299 9.24676C326.939 9.88684 327.153 10.5269 327.153 11.3804C327.153 12.2338 326.939 12.8739 326.299 13.5139C325.659 14.154 325.019 14.3674 324.166 14.3674H310.084V20.7682H320.752C321.605 20.7682 322.245 20.9815 322.885 21.6216C323.525 22.2617 323.739 22.9017 323.739 23.7552C323.739 24.6086 323.525 25.2487 322.885 25.8888C322.245 26.5288 321.605 26.7422 320.752 26.7422H310.084V34.8498H326.726C327.579 34.8498 328.219 35.0632 328.859 35.7033C329.5 36.3434 329.713 36.9834 329.713 37.8369C329.713 38.6903 329.5 39.3304 328.859 39.9705C328.219 40.6106 327.579 40.8239 326.726 40.8239H310.084V50.2117C310.084 51.2785 309.657 52.1319 309.017 52.772C308.59 52.9854 307.95 53.4121 306.883 53.4121ZM294.509 34.6365H303.256V26.5289H298.349C296.856 26.5289 295.789 26.7422 295.362 27.1689C294.935 27.5957 294.722 28.4491 294.722 29.9426V34.6365H294.509Z" fill="white"/>
<path d="M340.594 23.1153C339.741 23.542 339.101 23.7554 338.034 23.7554C337.181 23.7554 336.327 23.3287 335.901 22.4752C335.474 21.8351 335.26 21.1951 335.474 20.3416C335.687 19.4882 336.114 18.8481 336.754 18.6348C338.674 17.568 340.381 16.2878 341.661 15.0077C342.941 13.7275 343.795 12.0207 344.648 10.1004H338.674C337.821 10.1004 337.394 9.88706 336.967 9.46034C336.541 9.03362 336.327 8.39354 336.327 7.75346C336.327 7.11338 336.541 6.4733 336.967 6.04658C337.394 5.61986 338.034 5.4065 338.674 5.4065H345.715C345.715 5.19314 345.928 4.76642 345.928 4.3397C345.928 3.91298 345.928 3.69963 345.928 3.27291C345.928 2.20611 346.355 1.56605 346.995 1.13933C347.635 0.712616 348.489 0.499247 349.342 0.712606C350.196 0.712606 350.836 1.13934 351.262 1.56606C351.689 2.20614 352.116 2.8462 351.902 3.91299C351.902 4.12635 351.902 4.33972 351.902 4.55307C351.902 4.76643 351.902 4.9798 351.902 5.19316H355.53C357.877 5.19316 359.37 5.83324 360.437 6.90004C361.504 7.96683 361.93 9.6737 361.504 12.234C361.29 14.3676 360.864 16.0744 360.223 17.1412C359.583 18.208 358.73 19.0615 357.45 19.4882C356.17 19.9149 354.676 20.1283 352.969 20.1283C352.116 20.1283 351.476 19.9149 351.049 19.4882C350.622 19.0615 350.196 18.4214 350.196 17.568C350.196 16.7145 350.409 16.0745 350.836 15.6477C351.262 15.0077 351.902 14.7943 352.543 14.7943C353.823 14.7943 354.676 14.581 354.89 14.3676C355.316 14.1542 355.53 13.5141 355.743 12.4474C355.956 11.5939 355.956 10.9538 355.53 10.7405C355.316 10.5271 354.676 10.3138 353.823 10.3138H351.049C350.196 13.3008 348.702 15.8611 347.209 17.9947C345.715 20.1283 342.941 21.6218 340.594 23.1153ZM342.301 52.9856C341.235 53.1989 340.381 53.1989 339.741 52.9856C338.888 52.7722 338.461 52.1321 338.248 51.2787C338.034 50.4252 338.034 49.7852 338.461 48.9317C338.888 48.0783 339.314 47.6516 340.168 47.4382C341.235 47.2249 342.301 47.0115 343.368 46.5848C344.648 46.1581 345.928 45.7314 347.209 45.3047C348.489 44.8779 349.769 44.2378 350.622 43.8111C348.275 43.3844 346.568 42.531 345.502 41.4642C344.435 40.184 344.008 38.2638 344.008 35.9168V29.3027C344.008 26.1023 344.862 23.9688 346.355 22.902C347.849 21.8352 350.622 20.9817 354.463 20.9817H367.691C371.532 20.9817 374.305 21.6218 375.799 22.902C377.292 24.1821 378.146 26.3157 378.146 29.3027V35.9168C378.146 38.4771 377.719 40.3974 376.652 41.6775C375.585 42.9577 373.878 43.8111 371.532 44.0245C373.238 44.8779 374.945 45.518 376.865 46.1581C378.786 46.7982 380.493 47.4382 381.986 47.6516C382.84 47.8649 383.48 48.2917 383.693 49.1451C383.906 49.9985 384.12 50.6386 383.906 51.4921C383.693 52.3455 383.053 52.9856 382.413 53.1989C381.559 53.4123 380.706 53.4123 379.853 53.1989C378.572 52.7722 377.292 52.3455 375.799 51.9188C374.305 51.492 372.812 50.6386 371.318 49.9985C369.825 49.3585 368.544 48.7184 367.478 48.2917C366.838 47.8649 366.411 47.2249 366.198 46.5848C365.984 45.9447 366.198 45.3046 366.411 44.6646H355.743L355.956 44.8779C356.383 45.518 356.383 46.1581 356.17 46.7982C355.956 47.4382 355.53 48.0783 354.89 48.505C353.823 49.1451 352.543 49.5718 351.049 50.2119C349.556 50.852 348.062 51.4921 346.568 52.1321C345.075 52.7722 343.581 52.5588 342.301 52.9856ZM350.622 33.5699H371.532V31.2229H350.622V33.5699ZM350.836 27.5958H371.532C371.318 26.7424 371.105 26.3157 370.465 25.889C370.038 25.6756 368.971 25.4623 367.691 25.4623H354.463C353.183 25.4623 352.329 25.6756 351.689 25.889C351.262 26.3157 350.836 26.7424 350.836 27.5958ZM354.463 39.5439H367.691C368.971 39.5439 370.038 39.3306 370.465 39.1172C370.891 38.9039 371.318 38.2638 371.318 37.4103H350.622C350.622 38.2638 351.049 38.9039 351.476 39.1172C352.329 39.5439 353.183 39.5439 354.463 39.5439ZM372.812 18.8481C370.678 18.8481 369.185 18.6348 367.904 18.208C366.624 17.7813 365.771 16.9279 365.131 15.8611C364.491 14.7943 364.277 13.0874 364.277 11.1672C364.277 9.03363 364.491 7.54009 365.131 6.47329C365.771 5.4065 366.624 4.55308 367.904 4.12636C369.185 3.69964 370.891 3.48628 372.812 3.48628H376.012C378.146 3.48628 379.853 3.69964 380.919 4.12636C382.199 4.55308 383.053 5.4065 383.48 6.47329C383.906 7.54009 384.333 9.24699 384.333 11.1672C384.333 13.3008 384.12 14.7943 383.48 15.8611C382.84 16.9279 381.986 17.7813 380.919 18.208C379.639 18.6348 377.932 18.8481 376.012 18.8481H372.812ZM373.238 13.9409H376.012C377.292 13.9409 378.146 13.7275 378.572 13.5141C378.999 13.0874 379.212 12.4474 379.212 11.3806C379.212 10.3138 378.999 9.46034 378.572 9.03363C378.146 8.60691 377.292 8.60688 376.012 8.60688H373.238C371.958 8.60688 371.105 8.82027 370.678 9.03363C370.251 9.46034 370.038 10.1004 370.038 11.3806C370.038 12.4474 370.251 13.3008 370.678 13.5141C371.105 13.7275 371.958 13.9409 373.238 13.9409Z" fill="white"/>
<path d="M406.096 52.9864C405.242 52.9864 404.389 52.773 403.749 52.133C403.108 51.4929 402.895 50.8528 402.895 49.786V35.4909C401.828 36.3444 400.762 37.1978 399.481 38.0512C398.201 38.9047 397.348 39.5448 396.708 40.1848C395.854 40.6116 395.001 40.8249 394.147 40.8249C393.294 40.6116 392.441 40.1849 392.014 39.3314C391.587 38.478 391.374 37.6246 391.587 36.7711C391.8 35.9177 392.227 35.2776 393.081 34.8509C393.507 34.4241 394.361 33.9974 395.214 33.3574C396.068 32.7173 396.921 32.0772 397.988 31.4371C399.055 30.7971 399.908 29.9436 400.762 29.3036C401.615 28.6635 402.255 28.0234 402.895 27.5967V20.5558C402.682 21.1959 402.042 21.6226 401.402 22.0493C400.548 22.476 399.695 22.6894 398.841 22.2627C397.988 21.836 397.348 21.4093 396.921 20.5558C396.708 20.1291 396.281 19.489 395.854 18.6356C395.428 17.7822 394.788 16.9287 394.361 16.0753C393.934 15.2218 393.507 14.5818 393.294 14.1551C392.867 13.3016 392.654 12.6615 392.867 11.8081C393.081 10.9547 393.721 10.3146 394.574 9.88787C395.428 9.46116 396.281 9.2478 397.134 9.46116C397.988 9.67452 398.628 10.1012 399.055 10.9547C399.268 11.3814 399.695 12.2348 400.335 13.0883C400.762 13.9417 401.402 14.7951 401.828 15.6486C402.255 16.502 402.682 17.1421 402.895 17.5688L403.108 17.9955V4.5539C403.108 3.48711 403.322 2.84702 403.962 2.20694C404.602 1.56686 405.242 1.35352 406.309 1.35352C407.376 1.35352 407.802 1.56686 408.442 2.20694C409.083 2.84702 409.296 3.48711 409.296 4.5539V49.5727C409.296 50.4261 409.083 51.2795 408.442 51.9196C407.589 52.773 406.949 52.9864 406.096 52.9864ZM438.953 50.8528C435.966 48.7192 433.619 46.1589 431.485 43.3852C429.565 40.6116 427.858 37.6246 426.791 34.6375C425.725 37.6246 424.231 40.6116 422.524 43.3852C420.817 46.1589 418.257 48.5059 415.483 50.6394C414.63 51.2795 413.776 51.4929 412.923 51.4929C412.07 51.4929 411.216 51.0661 410.576 50.2127C410.149 49.3593 409.936 48.7192 409.936 47.8658C410.149 47.0123 410.576 46.3723 411.216 45.7322C418.257 40.6116 422.311 33.3574 422.951 23.7562H413.563C412.71 23.7562 412.07 23.5429 411.43 22.9028C410.789 22.2627 410.576 21.6226 410.576 20.7692C410.576 19.9158 410.789 19.2757 411.43 18.6356C412.07 17.9955 412.71 17.7821 413.563 17.7821H423.164V4.98061C423.164 3.91382 423.591 3.27376 424.231 2.63368C424.871 1.99361 425.725 1.78023 426.578 1.78023C427.431 1.78023 428.285 1.99361 428.925 2.63368C429.565 3.27376 429.778 3.91382 429.778 4.98061V17.7821H441.086C441.94 17.7821 442.58 17.9955 443.22 18.6356C443.86 19.2757 444.073 19.9158 444.073 20.7692C444.073 21.6226 443.86 22.2627 443.22 22.9028C442.58 23.5429 441.94 23.7562 441.086 23.7562H429.992C430.418 28.4501 431.912 32.7173 434.259 36.3444C436.606 39.9715 439.593 43.1719 443.22 45.7322C444.073 46.1589 444.5 47.0123 444.5 47.8658C444.5 48.7192 444.287 49.5726 443.86 50.2127C443.22 51.0661 442.367 51.4929 441.513 51.4929C440.66 51.7062 439.806 51.4929 438.953 50.8528ZM441.3 14.5818C440.66 15.0085 440.02 15.4352 438.953 15.2218C437.886 15.0085 437.459 14.7951 436.819 14.1551C436.606 13.7283 436.179 13.3016 435.539 12.6615C435.112 12.0215 434.472 11.3814 433.832 10.7413C433.192 10.1012 432.765 9.67451 432.552 9.24779C432.125 8.60771 431.699 7.96764 431.912 7.1142C432.125 6.26076 432.339 5.6207 432.979 5.19398C433.619 4.55391 434.259 4.34053 435.112 4.34053C435.966 4.34053 436.606 4.55391 437.246 5.19398C437.673 5.6207 438.099 6.04741 438.526 6.68749C439.166 7.32757 439.593 7.96765 440.233 8.39437C440.873 9.03444 441.086 9.46114 441.3 9.6745C441.94 10.5279 442.367 11.168 442.153 12.0215C441.94 12.8749 442.153 13.9417 441.3 14.5818Z" fill="white"/>
</svg>
