<svg width="604" height="35" viewBox="0 0 604 35" fill="none" xmlns="http://www.w3.org/2000/svg">
<path d="M3.956 31.576C3.356 31.672 2.816 31.552 2.336 31.216C1.856 30.88 1.556 30.424 1.436 29.848C1.22 28.624 1.052 27.208 0.932 25.6C0.812 23.968 0.752 22.252 0.752 20.452C0.752 18.652 0.8 16.84 0.896 15.016C0.992 13.192 1.136 11.452 1.328 9.796C1.544 8.116 1.796 6.616 2.084 5.296C2.204 4.72 2.516 4.276 3.02 3.964C3.524 3.628 4.064 3.52 4.64 3.64C5.216 3.784 5.66 4.108 5.972 4.612C6.308 5.092 6.416 5.632 6.296 6.232C5.912 7.936 5.612 9.784 5.396 11.776C5.18 13.768 5.036 15.796 4.964 17.86C4.916 19.9 4.952 21.892 5.072 23.836C5.192 25.756 5.396 27.508 5.684 29.092C5.804 29.668 5.684 30.196 5.324 30.676C4.988 31.156 4.532 31.456 3.956 31.576ZM18.716 29.632C15.596 29.632 13.268 29.068 11.732 27.94C10.22 26.812 9.308 25.156 8.996 22.972C8.9 22.396 9.02 21.868 9.356 21.388C9.716 20.908 10.196 20.62 10.796 20.524C11.372 20.452 11.9 20.596 12.38 20.956C12.86 21.292 13.148 21.76 13.244 22.36C13.388 23.392 13.88 24.16 14.72 24.664C15.56 25.168 16.928 25.42 18.824 25.42C20.624 25.42 22.796 25.144 25.34 24.592C25.916 24.448 26.456 24.544 26.96 24.88C27.464 25.216 27.776 25.672 27.896 26.248C28.016 26.824 27.908 27.364 27.572 27.868C27.236 28.348 26.78 28.66 26.204 28.804C24.908 29.116 23.612 29.332 22.316 29.452C21.044 29.572 19.844 29.632 18.716 29.632ZM12.128 11.812C11.552 11.932 11.012 11.836 10.508 11.524C10.028 11.188 9.728 10.72 9.608 10.12C9.488 9.544 9.584 9.004 9.896 8.5C10.232 7.996 10.7 7.696 11.3 7.6C12.644 7.336 14.144 7.168 15.8 7.096C17.456 7 19.1 6.988 20.732 7.06C22.364 7.108 23.804 7.24 25.052 7.456C25.652 7.552 26.12 7.852 26.456 8.356C26.792 8.836 26.9 9.376 26.78 9.976C26.684 10.576 26.384 11.044 25.88 11.38C25.4 11.692 24.872 11.8 24.296 11.704C22.352 11.368 20.336 11.212 18.248 11.236C16.16 11.236 14.12 11.428 12.128 11.812ZM49.604 33.952C49.076 34.024 48.608 33.904 48.2 33.592C47.816 33.28 47.588 32.86 47.516 32.332C47.3 30.892 46.952 29.236 46.472 27.364C46.016 25.468 45.464 23.572 44.816 21.676C43.856 21.988 42.932 22.3 42.044 22.612C41.18 22.9 40.376 23.176 39.632 23.44C39.128 23.608 38.636 23.584 38.156 23.368C37.7 23.152 37.376 22.804 37.184 22.324C37.016 21.82 37.04 21.34 37.256 20.884C37.496 20.404 37.868 20.08 38.372 19.912C39.86 19.384 41.588 18.808 43.556 18.184C43.268 17.488 42.98 16.816 42.692 16.168C42.404 15.52 42.104 14.908 41.792 14.332C41.552 13.852 41.492 13.36 41.612 12.856C41.756 12.352 42.056 11.98 42.512 11.74C42.992 11.476 43.472 11.428 43.952 11.596C44.456 11.74 44.828 12.052 45.068 12.532C45.428 13.204 45.776 13.924 46.112 14.692C46.448 15.46 46.772 16.264 47.084 17.104C47.708 16.912 48.332 16.72 48.956 16.528C49.58 16.336 50.192 16.156 50.792 15.988C50.408 15.868 50.108 15.628 49.892 15.268L48.344 12.964C48.08 12.532 47.996 12.076 48.092 11.596C48.188 11.092 48.452 10.696 48.884 10.408C49.34 10.12 49.82 10.036 50.324 10.156C50.828 10.252 51.212 10.516 51.476 10.948L52.988 13.216C53.228 13.576 53.336 13.96 53.312 14.368C53.288 14.752 53.144 15.112 52.88 15.448C53.048 15.4 53.204 15.352 53.348 15.304C53.492 15.256 53.636 15.22 53.78 15.196C56.276 14.572 58.292 14.668 59.828 15.484C61.364 16.3 62.252 17.68 62.492 19.624C62.66 21.016 62.456 22.24 61.88 23.296C61.328 24.352 60.5 25.156 59.396 25.708C58.316 26.26 57.08 26.512 55.688 26.464C54.32 26.416 52.916 25.996 51.476 25.204C51.02 24.94 50.708 24.556 50.54 24.052C50.396 23.548 50.444 23.068 50.684 22.612C50.948 22.132 51.332 21.82 51.836 21.676C52.34 21.532 52.82 21.592 53.276 21.856C54.332 22.456 55.292 22.756 56.156 22.756C57.02 22.732 57.692 22.48 58.172 22C58.652 21.496 58.832 20.836 58.712 20.02C58.616 19.324 58.232 18.844 57.56 18.58C56.912 18.316 55.928 18.34 54.608 18.652C53.72 18.892 52.724 19.168 51.62 19.48C50.54 19.792 49.436 20.14 48.308 20.524C48.956 22.492 49.532 24.472 50.036 26.464C50.564 28.432 50.96 30.22 51.224 31.828C51.32 32.356 51.2 32.824 50.864 33.232C50.552 33.664 50.132 33.904 49.604 33.952ZM72.968 31.576C72.44 31.36 72.068 30.964 71.852 30.388C71.636 29.812 71.648 29.26 71.888 28.732C72.296 27.844 72.812 26.728 73.436 25.384C74.084 24.04 74.78 22.576 75.524 20.992C76.292 19.408 77.072 17.788 77.864 16.132C78.656 14.476 79.436 12.868 80.204 11.308C80.972 9.748 81.68 8.332 82.328 7.06C82.976 5.764 83.516 4.708 83.948 3.892C84.212 3.364 84.632 3.028 85.208 2.884C85.808 2.716 86.36 2.788 86.864 3.1C87.392 3.412 87.728 3.856 87.872 4.432C88.04 4.984 87.968 5.524 87.656 6.052C87.32 6.652 86.876 7.468 86.324 8.5C85.796 9.532 85.196 10.696 84.524 11.992C83.876 13.288 83.204 14.644 82.508 16.06C83.348 15.7 84.2 15.52 85.064 15.52C87.344 15.52 88.904 16.24 89.744 17.68C90.608 19.12 90.692 21.088 89.996 23.584C89.636 24.88 89.6 25.768 89.888 26.248C90.2 26.728 90.764 26.968 91.58 26.968C92.132 26.968 92.66 26.848 93.164 26.608C93.668 26.344 94.184 25.828 94.712 25.06C95.24 24.292 95.792 23.164 96.368 21.676C96.584 21.124 96.968 20.728 97.52 20.488C98.072 20.248 98.624 20.224 99.176 20.416C99.728 20.632 100.124 21.016 100.364 21.568C100.628 22.12 100.652 22.684 100.436 23.26C99.476 25.948 98.276 27.952 96.836 29.272C95.42 30.568 93.608 31.216 91.4 31.216C89.888 31.216 88.616 30.904 87.584 30.28C86.552 29.656 85.868 28.72 85.532 27.472C85.196 26.2 85.292 24.616 85.82 22.72C86.156 21.568 86.192 20.764 85.928 20.308C85.664 19.828 85.112 19.588 84.272 19.588C83.192 19.588 82.184 19.924 81.248 20.596C80.312 21.268 79.4 22.528 78.512 24.376C78.416 24.568 78.236 24.952 77.972 25.528C77.732 26.08 77.468 26.692 77.18 27.364C76.892 28.036 76.616 28.648 76.352 29.2C76.112 29.728 75.956 30.088 75.884 30.28C75.644 30.832 75.248 31.24 74.696 31.504C74.168 31.792 73.592 31.816 72.968 31.576ZM109.976 33.988C109.352 34.156 108.8 34.156 108.32 33.988C107.84 33.844 107.504 33.496 107.312 32.944C107.168 32.464 107.204 31.972 107.42 31.468C107.636 30.988 108.008 30.688 108.536 30.568C109.16 30.424 109.856 30.232 110.624 29.992C111.416 29.728 112.22 29.44 113.036 29.128C113.876 28.816 114.632 28.504 115.304 28.192C113.792 27.952 112.712 27.436 112.064 26.644C111.416 25.828 111.092 24.616 111.092 23.008V18.76C111.092 16.768 111.596 15.388 112.604 14.62C113.612 13.828 115.34 13.432 117.788 13.432H126.32C128.792 13.432 130.532 13.828 131.54 14.62C132.548 15.388 133.052 16.768 133.052 18.76V23.008C133.052 24.64 132.716 25.864 132.044 26.68C131.396 27.472 130.292 27.976 128.732 28.192C129.764 28.672 130.916 29.14 132.188 29.596C133.46 30.052 134.552 30.376 135.464 30.568C136.016 30.688 136.388 30.988 136.58 31.468C136.796 31.972 136.832 32.464 136.688 32.944C136.496 33.496 136.16 33.844 135.68 33.988C135.2 34.156 134.648 34.156 134.024 33.988C133.256 33.772 132.368 33.472 131.36 33.088C130.376 32.728 129.404 32.344 128.444 31.936C127.484 31.528 126.668 31.144 125.996 30.784C125.54 30.52 125.264 30.172 125.168 29.74C125.072 29.284 125.132 28.852 125.348 28.444C125.372 28.42 125.384 28.408 125.384 28.408C125.384 28.384 125.396 28.36 125.42 28.336H118.58C118.628 28.384 118.652 28.42 118.652 28.444C118.868 28.852 118.928 29.284 118.832 29.74C118.76 30.172 118.484 30.52 118.004 30.784C117.332 31.144 116.516 31.528 115.556 31.936C114.596 32.344 113.624 32.728 112.64 33.088C111.656 33.472 110.768 33.772 109.976 33.988ZM108.896 14.836C108.416 15.148 107.876 15.292 107.276 15.268C106.676 15.244 106.208 14.98 105.872 14.476C105.608 14.068 105.524 13.612 105.62 13.108C105.716 12.58 105.98 12.196 106.412 11.956C107.684 11.26 108.716 10.468 109.508 9.58C110.3 8.692 110.924 7.636 111.38 6.412H107.6C107.12 6.412 106.736 6.268 106.448 5.98C106.16 5.668 106.016 5.296 106.016 4.864C106.016 4.408 106.16 4.024 106.448 3.712C106.736 3.4 107.12 3.244 107.6 3.244H112.1C112.148 3.052 112.172 2.848 112.172 2.632C112.196 2.392 112.22 2.164 112.244 1.948C112.292 1.324 112.532 0.879998 112.964 0.615999C113.396 0.351999 113.888 0.243999 114.44 0.291998C114.944 0.339999 115.364 0.543999 115.7 0.903999C116.036 1.264 116.18 1.744 116.132 2.344C116.108 2.512 116.084 2.668 116.06 2.812C116.06 2.956 116.048 3.1 116.024 3.244H118.292C119.732 3.244 120.788 3.604 121.46 4.324C122.156 5.02 122.408 6.148 122.216 7.708C122.048 9.1 121.748 10.168 121.316 10.912C120.908 11.656 120.32 12.172 119.552 12.46C118.808 12.748 117.836 12.892 116.636 12.892C116.132 12.892 115.7 12.748 115.34 12.46C115.004 12.148 114.812 11.728 114.764 11.2C114.74 10.72 114.872 10.312 115.16 9.976C115.448 9.616 115.82 9.424 116.276 9.4C117.068 9.352 117.572 9.244 117.788 9.076C118.028 8.908 118.208 8.488 118.328 7.816C118.424 7.288 118.4 6.928 118.256 6.736C118.112 6.52 117.728 6.412 117.104 6.412H115.268C114.668 8.284 113.828 9.928 112.748 11.344C111.668 12.736 110.384 13.9 108.896 14.836ZM129.596 12.1C128.276 12.1 127.208 11.968 126.392 11.704C125.6 11.416 125.024 10.924 124.664 10.228C124.328 9.508 124.16 8.488 124.16 7.168C124.16 5.824 124.328 4.804 124.664 4.108C125.024 3.388 125.6 2.896 126.392 2.632C127.208 2.344 128.276 2.2 129.596 2.2H131.684C133.028 2.2 134.096 2.344 134.888 2.632C135.68 2.896 136.244 3.388 136.58 4.108C136.94 4.804 137.12 5.824 137.12 7.168C137.12 8.488 136.94 9.508 136.58 10.228C136.244 10.924 135.68 11.416 134.888 11.704C134.096 11.968 133.028 12.1 131.684 12.1H129.596ZM115.376 21.568H128.732V20.128H115.376V21.568ZM129.776 8.932H131.504C132.32 8.932 132.848 8.824 133.088 8.608C133.328 8.368 133.448 7.888 133.448 7.168C133.448 6.424 133.328 5.944 133.088 5.728C132.848 5.488 132.32 5.368 131.504 5.368H129.776C128.96 5.368 128.432 5.488 128.192 5.728C127.952 5.944 127.832 6.424 127.832 7.168C127.832 7.888 127.952 8.368 128.192 8.608C128.432 8.824 128.96 8.932 129.776 8.932ZM117.86 25.42H126.284C127.148 25.42 127.748 25.324 128.084 25.132C128.42 24.94 128.624 24.556 128.696 23.98H115.448C115.496 24.556 115.688 24.94 116.024 25.132C116.384 25.324 116.996 25.42 117.86 25.42ZM115.448 17.716H128.696C128.6 17.188 128.384 16.84 128.048 16.672C127.712 16.48 127.124 16.384 126.284 16.384H117.86C117.02 16.384 116.42 16.48 116.06 16.672C115.724 16.84 115.52 17.188 115.448 17.716ZM171.248 32.692C169.352 31.276 167.756 29.692 166.46 27.94C165.188 26.164 164.168 24.292 163.4 22.324C162.728 24.292 161.792 26.152 160.592 27.904C159.416 29.632 157.928 31.192 156.128 32.584C155.648 32.944 155.096 33.124 154.472 33.124C153.872 33.124 153.368 32.86 152.96 32.332C152.624 31.852 152.504 31.336 152.6 30.784C152.696 30.232 152.984 29.788 153.464 29.452C158.024 26.212 160.556 21.532 161.06 15.412H155.012C154.484 15.412 154.028 15.22 153.644 14.836C153.26 14.428 153.068 13.96 153.068 13.432C153.068 12.88 153.26 12.412 153.644 12.028C154.028 11.644 154.484 11.452 155.012 11.452H161.168V3.28C161.168 2.632 161.384 2.128 161.816 1.768C162.248 1.384 162.728 1.192 163.256 1.192C163.832 1.192 164.312 1.384 164.696 1.768C165.104 2.128 165.308 2.632 165.308 3.28V11.452H172.544C173.096 11.452 173.564 11.644 173.948 12.028C174.332 12.412 174.524 12.88 174.524 13.432C174.524 13.96 174.332 14.428 173.948 14.836C173.564 15.22 173.096 15.412 172.544 15.412H165.452C165.788 18.46 166.712 21.16 168.224 23.512C169.76 25.84 171.704 27.82 174.056 29.452C174.536 29.764 174.812 30.208 174.884 30.784C174.956 31.36 174.8 31.876 174.416 32.332C174.008 32.86 173.504 33.148 172.904 33.196C172.328 33.244 171.776 33.076 171.248 32.692ZM150.188 34.024C149.636 34.024 149.156 33.832 148.748 33.448C148.34 33.088 148.136 32.608 148.136 32.008V22.828C147.464 23.356 146.744 23.908 145.976 24.484C145.232 25.036 144.632 25.468 144.176 25.78C143.648 26.116 143.084 26.248 142.484 26.176C141.884 26.08 141.416 25.732 141.08 25.132C140.792 24.604 140.72 24.076 140.864 23.548C141.008 23.02 141.332 22.6 141.836 22.288C142.172 22.072 142.616 21.772 143.168 21.388C143.744 21.004 144.344 20.584 144.968 20.128C145.592 19.672 146.18 19.24 146.732 18.832C147.308 18.4 147.776 18.04 148.136 17.752V13.144C147.992 13.552 147.656 13.888 147.128 14.152C146.6 14.44 146.048 14.5 145.472 14.332C144.896 14.164 144.476 13.816 144.212 13.288C144.068 12.976 143.84 12.544 143.528 11.992C143.216 11.44 142.904 10.888 142.592 10.336C142.304 9.784 142.076 9.364 141.908 9.076C141.596 8.596 141.524 8.08 141.692 7.528C141.86 6.976 142.22 6.556 142.772 6.268C143.324 5.98 143.864 5.908 144.392 6.052C144.944 6.172 145.376 6.496 145.688 7.024C145.88 7.336 146.132 7.78 146.444 8.356C146.756 8.932 147.056 9.508 147.344 10.084C147.656 10.636 147.884 11.056 148.028 11.344L148.136 11.668V3.1C148.136 2.476 148.34 1.984 148.748 1.624C149.156 1.264 149.636 1.084 150.188 1.084C150.74 1.084 151.208 1.264 151.592 1.624C152 1.984 152.204 2.476 152.204 3.1V32.008C152.204 32.608 152 33.088 151.592 33.448C151.208 33.832 150.74 34.024 150.188 34.024ZM172.832 9.4C172.424 9.736 171.944 9.892 171.392 9.868C170.84 9.82 170.396 9.58 170.06 9.148C169.892 8.932 169.64 8.632 169.304 8.248C168.968 7.84 168.62 7.444 168.26 7.06C167.924 6.652 167.648 6.34 167.432 6.124C167.096 5.74 166.952 5.296 167 4.792C167.048 4.288 167.264 3.88 167.648 3.568C168.056 3.208 168.512 3.028 169.016 3.028C169.52 3.028 169.964 3.232 170.348 3.64C170.564 3.856 170.852 4.156 171.212 4.54C171.572 4.924 171.92 5.308 172.256 5.692C172.616 6.076 172.868 6.364 173.012 6.556C173.444 7.036 173.636 7.528 173.588 8.032C173.564 8.536 173.312 8.992 172.832 9.4ZM197.852 30.892C197.252 31.036 196.688 30.952 196.16 30.64C195.632 30.328 195.296 29.884 195.152 29.308C195.008 28.732 195.092 28.192 195.404 27.688C195.716 27.16 196.16 26.824 196.736 26.68C199.4 25.984 201.356 24.856 202.604 23.296C203.876 21.736 204.512 19.756 204.512 17.356C204.512 15.844 204.176 14.488 203.504 13.288C202.832 12.088 201.872 11.116 200.624 10.372C199.4 9.628 197.924 9.172 196.196 9.004C195.764 13.036 195.032 16.528 194 19.48C192.992 22.408 191.792 24.676 190.4 26.284C189.032 27.868 187.592 28.66 186.08 28.66C184.808 28.66 183.644 28.288 182.588 27.544C181.532 26.8 180.692 25.732 180.068 24.34C179.468 22.948 179.168 21.28 179.168 19.336C179.168 17.344 179.54 15.484 180.284 13.756C181.052 12.004 182.132 10.468 183.524 9.148C184.916 7.828 186.548 6.796 188.42 6.052C190.316 5.308 192.392 4.936 194.648 4.936C197.384 4.936 199.808 5.464 201.92 6.52C204.056 7.552 205.736 9.004 206.96 10.876C208.184 12.724 208.796 14.884 208.796 17.356C208.796 20.836 207.86 23.74 205.988 26.068C204.14 28.372 201.428 29.98 197.852 30.892ZM186.116 24.232C186.548 24.232 187.04 23.872 187.592 23.152C188.168 22.408 188.744 21.364 189.32 20.02C189.896 18.676 190.424 17.092 190.904 15.268C191.384 13.42 191.744 11.38 191.984 9.148C190.112 9.508 188.54 10.204 187.268 11.236C185.996 12.244 185.036 13.456 184.388 14.872C183.74 16.264 183.404 17.728 183.38 19.264C183.38 20.896 183.632 22.132 184.136 22.972C184.664 23.812 185.324 24.232 186.116 24.232ZM226.904 34.168C226.304 34.168 225.8 33.976 225.392 33.592C224.984 33.208 224.78 32.692 224.78 32.044V26.644C223.916 26.932 222.908 27.256 221.756 27.616C220.604 27.976 219.476 28.324 218.372 28.66C217.292 28.996 216.404 29.272 215.708 29.488C215.036 29.68 214.46 29.656 213.98 29.416C213.5 29.152 213.164 28.72 212.972 28.12C212.804 27.568 212.852 27.064 213.116 26.608C213.38 26.128 213.836 25.804 214.484 25.636C214.724 25.588 214.988 25.528 215.276 25.456C215.588 25.384 215.912 25.3 216.248 25.204V5.764H214.844C214.316 5.764 213.872 5.584 213.512 5.224C213.152 4.84 212.972 4.396 212.972 3.892C212.972 3.364 213.152 2.92 213.512 2.56C213.872 2.176 214.316 1.984 214.844 1.984H229.964C230.492 1.984 230.936 2.176 231.296 2.56C231.656 2.92 231.836 3.364 231.836 3.892C231.836 4.108 231.8 4.324 231.728 4.54C231.776 4.54 231.812 4.54 231.836 4.54C231.884 4.516 231.932 4.504 231.98 4.504H238.352C240.104 4.504 241.448 4.72 242.384 5.152C243.32 5.56 243.92 6.232 244.184 7.168C244.472 8.104 244.472 9.364 244.184 10.948C243.464 15.076 242.132 18.856 240.188 22.288C241.748 24.328 243.716 26.236 246.092 28.012C246.572 28.348 246.86 28.828 246.956 29.452C247.052 30.052 246.896 30.592 246.488 31.072C246.08 31.552 245.552 31.816 244.904 31.864C244.256 31.936 243.692 31.768 243.212 31.36C242.18 30.496 241.208 29.608 240.296 28.696C239.384 27.784 238.544 26.836 237.776 25.852C236.192 27.916 234.332 29.812 232.196 31.54C231.74 31.924 231.2 32.104 230.576 32.08C229.952 32.056 229.46 31.792 229.1 31.288L229.028 31.216V32.044C229.028 32.692 228.824 33.208 228.416 33.592C228.008 33.976 227.504 34.168 226.904 34.168ZM229.028 28.876C229.076 28.804 229.136 28.744 229.208 28.696C229.28 28.624 229.352 28.564 229.424 28.516C230.624 27.604 231.716 26.632 232.7 25.6C233.684 24.544 234.584 23.464 235.4 22.36C233.504 19.168 232.148 15.52 231.332 11.416C231.212 10.816 231.308 10.312 231.62 9.904C231.956 9.496 232.388 9.244 232.916 9.148C233.468 9.052 233.96 9.148 234.392 9.436C234.824 9.7 235.088 10.12 235.184 10.696C235.472 12.112 235.82 13.468 236.228 14.764C236.66 16.036 237.176 17.248 237.776 18.4C239 15.928 239.828 13.324 240.26 10.588C240.38 9.748 240.308 9.172 240.044 8.86C239.804 8.548 239.204 8.392 238.244 8.392H231.98C231.452 8.392 230.996 8.2 230.612 7.816C230.228 7.432 230.036 6.976 230.036 6.448C230.036 6.16 230.084 5.92 230.18 5.728C230.132 5.752 230.06 5.764 229.964 5.764H229.028V28.876ZM220.496 24.088C221.288 23.872 222.056 23.668 222.8 23.476C223.544 23.26 224.204 23.08 224.78 22.936V19.948H220.496V24.088ZM220.496 16.384H224.78V12.856H220.496V16.384ZM220.496 9.292H224.78V5.764H220.496V9.292ZM264.668 32.692C264.236 32.284 263.996 31.78 263.948 31.18C263.924 30.58 264.128 30.064 264.56 29.632C266.384 27.784 267.812 25.456 268.844 22.648C269.9 19.84 270.428 16.78 270.428 13.468C270.428 11.596 270.128 10.24 269.528 9.4C268.928 8.56 268.04 8.14 266.864 8.14C265.904 8.14 265.016 8.536 264.2 9.328C263.384 10.096 262.772 11.248 262.364 12.784C261.956 14.32 261.848 16.252 262.04 18.58C262.088 19.132 261.932 19.636 261.572 20.092C261.236 20.524 260.792 20.764 260.24 20.812C259.664 20.86 259.16 20.716 258.728 20.38C258.32 20.044 258.068 19.6 257.972 19.048C257.804 17.8 257.696 16.432 257.648 14.944C257.6 13.432 257.588 11.932 257.612 10.444C257.66 8.932 257.732 7.54 257.828 6.268C257.924 4.972 258.02 3.904 258.116 3.064C258.188 2.488 258.452 2.02 258.908 1.66C259.364 1.3 259.88 1.156 260.456 1.228C261.056 1.3 261.524 1.552 261.86 1.984C262.22 2.416 262.352 2.944 262.256 3.568C262.208 4 262.136 4.552 262.04 5.224C261.968 5.896 261.908 6.532 261.86 7.132C262.412 6.196 263.156 5.416 264.092 4.792C265.028 4.144 266 3.82 267.008 3.82C269.576 3.82 271.496 4.66 272.768 6.34C274.04 7.996 274.676 10.372 274.676 13.468C274.676 15.94 274.412 18.352 273.884 20.704C273.38 23.032 272.612 25.216 271.58 27.256C270.572 29.272 269.3 31.06 267.764 32.62C267.356 33.052 266.84 33.268 266.216 33.268C265.616 33.292 265.1 33.1 264.668 32.692ZM299.948 32.728C299.372 32.728 298.916 32.548 298.58 32.188C298.244 31.828 298.076 31.384 298.076 30.856C298.076 30.352 298.244 29.92 298.58 29.56C298.916 29.2 299.372 29.02 299.948 29.02H302.36V8.068C302.36 6.58 302.564 5.404 302.972 4.54C303.38 3.676 304.052 3.064 304.988 2.704C305.924 2.32 307.172 2.128 308.732 2.128H309.956C311.54 2.128 312.788 2.32 313.7 2.704C314.636 3.064 315.308 3.676 315.716 4.54C316.124 5.404 316.328 6.58 316.328 8.068V29.02H317.732C318.308 29.02 318.764 29.2 319.1 29.56C319.436 29.92 319.604 30.352 319.604 30.856C319.604 31.384 319.436 31.828 319.1 32.188C318.764 32.548 318.308 32.728 317.732 32.728H299.948ZM293.324 34.06C292.772 34.06 292.304 33.88 291.92 33.52C291.56 33.16 291.38 32.68 291.38 32.08V19.048C290.612 19.144 289.892 19.24 289.22 19.336C288.548 19.408 287.972 19.468 287.492 19.516C286.892 19.588 286.376 19.468 285.944 19.156C285.536 18.82 285.308 18.352 285.26 17.752C285.212 17.2 285.344 16.732 285.656 16.348C285.992 15.94 286.46 15.724 287.06 15.7C287.228 15.676 287.408 15.664 287.6 15.664C287.816 15.664 288.032 15.652 288.248 15.628C288.584 15.196 288.968 14.68 289.4 14.08C289.856 13.456 290.336 12.808 290.84 12.136C290.408 11.8 289.892 11.428 289.292 11.02C288.692 10.588 288.116 10.18 287.564 9.796C287.036 9.388 286.616 9.088 286.304 8.896C285.848 8.608 285.572 8.212 285.476 7.708C285.404 7.204 285.512 6.724 285.8 6.268C286.112 5.788 286.532 5.5 287.06 5.404C287.588 5.284 288.08 5.38 288.536 5.692L288.824 5.872C289.064 5.464 289.352 4.984 289.688 4.432C290.024 3.88 290.336 3.352 290.624 2.848C290.936 2.344 291.152 1.96 291.272 1.696C291.536 1.216 291.932 0.903998 292.46 0.759999C293.012 0.591998 293.528 0.639998 294.008 0.903999C294.464 1.144 294.752 1.516 294.872 2.02C294.992 2.524 294.92 3.004 294.656 3.46C294.464 3.796 294.188 4.24 293.828 4.792C293.492 5.344 293.132 5.908 292.748 6.484C292.388 7.06 292.064 7.552 291.776 7.96L293.108 8.932C293.66 8.188 294.152 7.492 294.584 6.844C295.04 6.196 295.4 5.668 295.664 5.26C296 4.78 296.432 4.492 296.96 4.396C297.488 4.3 297.98 4.408 298.436 4.72C298.916 5.008 299.204 5.416 299.3 5.944C299.396 6.472 299.288 6.964 298.976 7.42C298.568 7.972 298.028 8.692 297.356 9.58C296.708 10.468 296.012 11.404 295.268 12.388C294.524 13.372 293.816 14.308 293.144 15.196C293.816 15.148 294.476 15.088 295.124 15.016C295.772 14.944 296.36 14.884 296.888 14.836L296.528 14.008C296.336 13.552 296.348 13.108 296.564 12.676C296.804 12.22 297.152 11.908 297.608 11.74C298.088 11.548 298.544 11.548 298.976 11.74C299.432 11.908 299.78 12.232 300.02 12.712C300.188 13.024 300.404 13.492 300.668 14.116C300.932 14.716 301.196 15.328 301.46 15.952C301.724 16.552 301.916 17.032 302.036 17.392C302.228 17.896 302.24 18.364 302.072 18.796C301.904 19.228 301.544 19.552 300.992 19.768C300.464 19.96 299.96 19.96 299.48 19.768C299 19.576 298.664 19.24 298.472 18.76C298.448 18.664 298.412 18.556 298.364 18.436C298.316 18.316 298.268 18.196 298.22 18.076C297.836 18.148 297.392 18.22 296.888 18.292C296.384 18.364 295.856 18.436 295.304 18.508V32.08C295.304 32.68 295.112 33.16 294.728 33.52C294.344 33.88 293.876 34.06 293.324 34.06ZM286.628 30.064C286.172 29.896 285.824 29.608 285.584 29.2C285.368 28.768 285.356 28.324 285.548 27.868C285.74 27.388 285.956 26.788 286.196 26.068C286.46 25.324 286.7 24.58 286.916 23.836C287.132 23.092 287.3 22.456 287.42 21.928C287.54 21.448 287.804 21.088 288.212 20.848C288.644 20.608 289.112 20.548 289.616 20.668C290.096 20.764 290.456 21.016 290.696 21.424C290.936 21.832 290.996 22.276 290.876 22.756C290.756 23.308 290.588 23.968 290.372 24.736C290.156 25.48 289.928 26.224 289.688 26.968C289.448 27.688 289.232 28.312 289.04 28.84C288.848 29.32 288.512 29.68 288.032 29.92C287.576 30.16 287.108 30.208 286.628 30.064ZM306.428 29.02H312.08V23.692H306.428V29.02ZM306.428 19.876H312.08V14.872H306.428V19.876ZM306.428 11.056H312.08V8.284C312.08 7.396 311.9 6.808 311.54 6.52C311.204 6.208 310.532 6.052 309.524 6.052H308.984C307.976 6.052 307.292 6.208 306.932 6.52C306.596 6.808 306.428 7.396 306.428 8.284V11.056ZM299.768 27.904C299.24 28.072 298.748 28.06 298.292 27.868C297.86 27.652 297.56 27.304 297.392 26.824C297.272 26.464 297.116 26.008 296.924 25.456C296.732 24.88 296.552 24.316 296.384 23.764C296.216 23.188 296.084 22.72 295.988 22.36C295.868 21.88 295.928 21.436 296.168 21.028C296.432 20.62 296.804 20.368 297.284 20.272C297.764 20.152 298.196 20.2 298.58 20.416C298.988 20.632 299.264 20.968 299.408 21.424C299.504 21.76 299.648 22.192 299.84 22.72C300.032 23.248 300.224 23.776 300.416 24.304C300.608 24.832 300.764 25.264 300.884 25.6C301.076 26.08 301.064 26.536 300.848 26.968C300.632 27.4 300.272 27.712 299.768 27.904ZM337.712 31.864C337.28 31.456 337.052 30.952 337.028 30.352C337.004 29.752 337.196 29.236 337.604 28.804C338.588 27.82 339.5 26.644 340.34 25.276C341.18 23.884 341.912 22.432 342.536 20.92C340.568 20.416 338.684 20.056 336.884 19.84C335.996 21.712 334.988 23.272 333.86 24.52C332.732 25.768 331.532 26.632 330.26 27.112C329.06 27.592 327.884 27.76 326.732 27.616C325.58 27.448 324.62 26.98 323.852 26.212C323.108 25.444 322.736 24.364 322.736 22.972C322.736 21.652 323.132 20.452 323.924 19.372C324.716 18.292 325.94 17.428 327.596 16.78C329.276 16.108 331.436 15.772 334.076 15.772C334.58 14.356 335.048 12.724 335.48 10.876C335.816 9.484 335.756 8.56 335.3 8.104C334.844 7.624 333.956 7.468 332.636 7.636C332.18 7.708 331.592 7.792 330.872 7.888C330.152 7.984 329.588 8.056 329.18 8.104C328.58 8.128 328.052 7.948 327.596 7.564C327.14 7.18 326.888 6.688 326.84 6.088C326.816 5.488 326.996 4.972 327.38 4.54C327.764 4.084 328.256 3.832 328.856 3.784C329.36 3.736 329.984 3.676 330.728 3.604C331.472 3.532 332.084 3.484 332.564 3.46C335.588 3.268 337.664 3.796 338.792 5.044C339.944 6.292 340.244 8.356 339.692 11.236C339.524 12.1 339.332 12.94 339.116 13.756C338.9 14.548 338.672 15.316 338.432 16.06C339.296 16.156 340.184 16.3 341.096 16.492C342.008 16.66 342.908 16.852 343.796 17.068C343.988 16.252 344.144 15.46 344.264 14.692C344.384 13.9 344.456 13.144 344.48 12.424C344.504 11.824 344.708 11.32 345.092 10.912C345.5 10.48 346.004 10.252 346.604 10.228C347.204 10.228 347.708 10.444 348.116 10.876C348.548 11.284 348.752 11.788 348.728 12.388C348.704 13.324 348.608 14.284 348.44 15.268C348.296 16.228 348.092 17.2 347.828 18.184C348.572 18.424 349.292 18.676 349.988 18.94C350.708 19.18 351.404 19.432 352.076 19.696C352.628 19.936 353.012 20.332 353.228 20.884C353.468 21.436 353.468 21.988 353.228 22.54C353.012 23.068 352.628 23.452 352.076 23.692C351.524 23.932 350.972 23.932 350.42 23.692C349.796 23.404 349.16 23.14 348.512 22.9C347.864 22.636 347.216 22.384 346.568 22.144C345.824 24.064 344.948 25.864 343.94 27.544C342.956 29.224 341.9 30.628 340.772 31.756C340.364 32.164 339.86 32.38 339.26 32.404C338.684 32.428 338.168 32.248 337.712 31.864ZM328.748 23.332C329.324 23.092 329.912 22.684 330.512 22.108C331.112 21.532 331.7 20.74 332.276 19.732C330.38 19.9 329.024 20.26 328.208 20.812C327.416 21.364 327.008 21.976 326.984 22.648C326.984 23.032 327.128 23.308 327.416 23.476C327.728 23.62 328.172 23.572 328.748 23.332ZM382.964 32.044C379.1 32.572 375.74 32.62 372.884 32.188C370.028 31.78 367.82 30.868 366.26 29.452C364.724 28.036 363.956 26.116 363.956 23.692C363.956 21.58 364.484 19.78 365.54 18.292C366.62 16.78 368.108 15.472 370.004 14.368C369.836 13.432 369.596 12.364 369.284 11.164C368.972 9.964 368.648 8.776 368.312 7.6C367.976 6.4 367.676 5.392 367.412 4.576C367.244 4.024 367.304 3.484 367.592 2.956C367.904 2.428 368.336 2.08 368.888 1.912C369.488 1.744 370.04 1.816 370.544 2.128C371.072 2.416 371.42 2.848 371.588 3.424C371.996 4.816 372.392 6.328 372.776 7.96C373.184 9.568 373.52 11.116 373.784 12.604C374.936 12.148 376.16 11.74 377.456 11.38C378.752 10.996 380.096 10.648 381.488 10.336C382.064 10.192 382.604 10.276 383.108 10.588C383.612 10.9 383.924 11.344 384.044 11.92C384.164 12.52 384.068 13.072 383.756 13.576C383.444 14.056 383 14.356 382.424 14.476C379.424 15.1 376.988 15.772 375.116 16.492C373.244 17.188 371.804 17.932 370.796 18.724C369.812 19.492 369.128 20.296 368.744 21.136C368.384 21.952 368.204 22.804 368.204 23.692C368.204 25.588 369.356 26.932 371.66 27.724C373.964 28.492 377.552 28.516 382.424 27.796C383.024 27.7 383.552 27.844 384.008 28.228C384.488 28.588 384.764 29.056 384.836 29.632C384.908 30.232 384.764 30.76 384.404 31.216C384.044 31.696 383.564 31.972 382.964 32.044ZM398.264 33.556C397.76 33.556 397.328 33.376 396.968 33.016C396.632 32.656 396.464 32.224 396.464 31.72C396.464 31.24 396.632 30.82 396.968 30.46C397.328 30.1 397.76 29.92 398.264 29.92H407.768V27.616H403.268C402.788 27.616 402.38 27.448 402.044 27.112C401.708 26.752 401.54 26.344 401.54 25.888C401.54 25.408 401.708 25 402.044 24.664C402.38 24.328 402.788 24.16 403.268 24.16H407.768V21.496C407.768 21.4 407.768 21.304 407.768 21.208C407.792 21.088 407.816 20.98 407.84 20.884H405.464C404.744 21.748 403.868 22.66 402.836 23.62C401.828 24.556 400.784 25.456 399.704 26.32C398.624 27.16 397.604 27.892 396.644 28.516C396.116 28.828 395.54 28.972 394.916 28.948C394.292 28.924 393.8 28.648 393.44 28.12C393.08 27.592 392.96 27.052 393.08 26.5C393.2 25.924 393.548 25.48 394.124 25.168C394.964 24.688 395.948 24.052 397.076 23.26C398.204 22.468 399.26 21.676 400.244 20.884H395.204C394.724 20.884 394.316 20.716 393.98 20.38C393.644 20.044 393.476 19.648 393.476 19.192C393.476 18.712 393.644 18.304 393.98 17.968C394.316 17.632 394.724 17.464 395.204 17.464H401.36V7.024H396.644C396.188 7.024 395.792 6.856 395.456 6.52C395.12 6.184 394.952 5.788 394.952 5.332C394.952 4.852 395.12 4.456 395.456 4.144C395.792 3.832 396.188 3.676 396.644 3.676H401.36V2.236C401.36 1.588 401.564 1.072 401.972 0.687998C402.38 0.303998 402.884 0.111999 403.484 0.111999C404.084 0.111999 404.588 0.303998 404.996 0.687998C405.404 1.072 405.608 1.588 405.608 2.236V3.676H414.392V2.236C414.392 1.588 414.596 1.072 415.004 0.687998C415.436 0.303998 415.94 0.111999 416.516 0.111999C417.116 0.111999 417.62 0.303998 418.028 0.687998C418.46 1.072 418.676 1.588 418.676 2.236V3.676H423.356C423.836 3.676 424.232 3.832 424.544 4.144C424.88 4.456 425.048 4.852 425.048 5.332C425.048 5.788 424.88 6.184 424.544 6.52C424.232 6.856 423.836 7.024 423.356 7.024H418.676V17.464H424.94C425.42 17.464 425.828 17.632 426.164 17.968C426.5 18.304 426.668 18.712 426.668 19.192C426.668 19.648 426.5 20.044 426.164 20.38C425.828 20.716 425.42 20.884 424.94 20.884H419.864C420.896 21.676 421.964 22.432 423.068 23.152C424.172 23.848 425.192 24.436 426.128 24.916C426.68 25.204 427.028 25.648 427.172 26.248C427.316 26.848 427.22 27.4 426.884 27.904C426.524 28.456 426.02 28.756 425.372 28.804C424.748 28.828 424.16 28.684 423.608 28.372C422.672 27.796 421.652 27.1 420.548 26.284C419.468 25.468 418.412 24.592 417.38 23.656C416.348 22.696 415.436 21.772 414.644 20.884H412.052C412.076 20.98 412.088 21.088 412.088 21.208C412.112 21.304 412.124 21.4 412.124 21.496V24.16H416.948C417.428 24.16 417.836 24.328 418.172 24.664C418.508 25 418.676 25.408 418.676 25.888C418.676 26.344 418.508 26.752 418.172 27.112C417.836 27.448 417.428 27.616 416.948 27.616H412.124V29.92H422.096C422.576 29.92 422.996 30.1 423.356 30.46C423.716 30.82 423.896 31.24 423.896 31.72C423.896 32.224 423.716 32.656 423.356 33.016C422.996 33.376 422.576 33.556 422.096 33.556H398.264ZM405.608 17.464H414.392V15.772H405.608V17.464ZM405.608 13.036H414.392V11.38H405.608V13.036ZM405.608 8.644H414.392V7.024H405.608V8.644ZM432.212 32.692C431.636 32.692 431.18 32.512 430.844 32.152C430.508 31.792 430.34 31.36 430.34 30.856C430.34 30.328 430.508 29.884 430.844 29.524C431.18 29.164 431.636 28.984 432.212 28.984H438.404C438.332 28.936 438.26 28.876 438.188 28.804C438.14 28.732 438.092 28.66 438.044 28.588C437.852 28.276 437.588 27.892 437.252 27.436C436.94 26.956 436.616 26.5 436.28 26.068C435.944 25.612 435.68 25.264 435.488 25.024C435.152 24.616 435.008 24.148 435.056 23.62C435.128 23.068 435.368 22.636 435.776 22.324C436.256 21.964 436.784 21.808 437.36 21.856C437.936 21.904 438.416 22.156 438.8 22.612C438.992 22.852 439.256 23.212 439.592 23.692C439.952 24.148 440.3 24.604 440.636 25.06C440.972 25.516 441.224 25.876 441.392 26.14C441.728 26.596 441.848 27.1 441.752 27.652C441.68 28.18 441.428 28.624 440.996 28.984H443.732V21.784H434.444C433.844 21.784 433.376 21.592 433.04 21.208C432.704 20.824 432.536 20.368 432.536 19.84C432.536 19.312 432.704 18.868 433.04 18.508C433.376 18.124 433.844 17.932 434.444 17.932H443.732V15.088H439.34C438.764 15.088 438.308 14.908 437.972 14.548C437.636 14.188 437.468 13.744 437.468 13.216C437.468 12.736 437.6 12.328 437.864 11.992C436.856 12.712 435.848 13.408 434.84 14.08C433.856 14.728 432.932 15.304 432.068 15.808C431.492 16.12 430.892 16.216 430.268 16.096C429.668 15.976 429.2 15.652 428.864 15.124C428.528 14.572 428.444 14.02 428.612 13.468C428.804 12.892 429.152 12.472 429.656 12.208C430.76 11.632 431.924 10.948 433.148 10.156C434.372 9.364 435.584 8.512 436.784 7.6C437.984 6.688 439.1 5.776 440.132 4.864C441.188 3.952 442.1 3.088 442.868 2.272C443.852 1.264 444.896 0.747999 446 0.723999C447.104 0.675998 448.124 1.12 449.06 2.056C449.828 2.824 450.752 3.652 451.832 4.54C452.936 5.428 454.1 6.316 455.324 7.204C456.548 8.092 457.76 8.908 458.96 9.652C460.16 10.396 461.252 11.008 462.236 11.488C462.788 11.752 463.16 12.22 463.352 12.892C463.544 13.564 463.472 14.176 463.136 14.728C462.752 15.328 462.236 15.712 461.588 15.88C460.94 16.024 460.304 15.916 459.68 15.556C458.768 15.028 457.736 14.392 456.584 13.648C455.456 12.88 454.304 12.064 453.128 11.2C451.976 10.312 450.884 9.436 449.852 8.572C448.82 7.684 447.956 6.856 447.26 6.088C446.54 5.296 445.808 5.284 445.064 6.052C444.296 6.844 443.348 7.708 442.22 8.644C441.092 9.58 439.892 10.516 438.62 11.452C438.812 11.356 439.052 11.308 439.34 11.308H452.552C453.128 11.308 453.584 11.5 453.92 11.884C454.28 12.244 454.46 12.688 454.46 13.216C454.46 13.744 454.28 14.188 453.92 14.548C453.584 14.908 453.128 15.088 452.552 15.088H448.268V17.932H457.448C458.024 17.932 458.48 18.124 458.816 18.508C459.176 18.868 459.356 19.312 459.356 19.84C459.356 20.368 459.176 20.824 458.816 21.208C458.48 21.592 458.024 21.784 457.448 21.784H448.268V28.984H450.896C450.536 28.648 450.32 28.24 450.248 27.76C450.176 27.28 450.284 26.836 450.572 26.428C450.74 26.188 450.968 25.84 451.256 25.384C451.544 24.904 451.832 24.424 452.12 23.944C452.408 23.464 452.624 23.104 452.768 22.864C453.056 22.36 453.476 22.036 454.028 21.892C454.58 21.748 455.108 21.808 455.612 22.072C456.116 22.336 456.44 22.744 456.584 23.296C456.728 23.848 456.668 24.364 456.404 24.844C456.236 25.132 456.008 25.528 455.72 26.032C455.432 26.512 455.144 26.992 454.856 27.472C454.568 27.928 454.328 28.288 454.136 28.552C454.088 28.648 454.028 28.732 453.956 28.804C453.908 28.852 453.848 28.912 453.776 28.984H459.5C460.076 28.984 460.532 29.164 460.868 29.524C461.204 29.884 461.372 30.328 461.372 30.856C461.372 31.36 461.204 31.792 460.868 32.152C460.532 32.512 460.076 32.692 459.5 32.692H432.212ZM471.956 31.576C471.356 31.672 470.816 31.552 470.336 31.216C469.856 30.88 469.556 30.424 469.436 29.848C469.22 28.624 469.052 27.208 468.932 25.6C468.812 23.968 468.752 22.252 468.752 20.452C468.752 18.652 468.8 16.84 468.896 15.016C468.992 13.192 469.136 11.452 469.328 9.796C469.544 8.116 469.796 6.616 470.084 5.296C470.204 4.72 470.516 4.276 471.02 3.964C471.524 3.628 472.064 3.52 472.64 3.64C473.216 3.784 473.66 4.108 473.972 4.612C474.308 5.092 474.416 5.632 474.296 6.232C473.912 7.936 473.612 9.784 473.396 11.776C473.18 13.768 473.036 15.796 472.964 17.86C472.916 19.9 472.952 21.892 473.072 23.836C473.192 25.756 473.396 27.508 473.684 29.092C473.804 29.668 473.684 30.196 473.324 30.676C472.988 31.156 472.532 31.456 471.956 31.576ZM486.716 29.632C483.596 29.632 481.268 29.068 479.732 27.94C478.22 26.812 477.308 25.156 476.996 22.972C476.9 22.396 477.02 21.868 477.356 21.388C477.716 20.908 478.196 20.62 478.796 20.524C479.372 20.452 479.9 20.596 480.38 20.956C480.86 21.292 481.148 21.76 481.244 22.36C481.388 23.392 481.88 24.16 482.72 24.664C483.56 25.168 484.928 25.42 486.824 25.42C488.624 25.42 490.796 25.144 493.34 24.592C493.916 24.448 494.456 24.544 494.96 24.88C495.464 25.216 495.776 25.672 495.896 26.248C496.016 26.824 495.908 27.364 495.572 27.868C495.236 28.348 494.78 28.66 494.204 28.804C492.908 29.116 491.612 29.332 490.316 29.452C489.044 29.572 487.844 29.632 486.716 29.632ZM480.128 11.812C479.552 11.932 479.012 11.836 478.508 11.524C478.028 11.188 477.728 10.72 477.608 10.12C477.488 9.544 477.584 9.004 477.896 8.5C478.232 7.996 478.7 7.696 479.3 7.6C480.644 7.336 482.144 7.168 483.8 7.096C485.456 7 487.1 6.988 488.732 7.06C490.364 7.108 491.804 7.24 493.052 7.456C493.652 7.552 494.12 7.852 494.456 8.356C494.792 8.836 494.9 9.376 494.78 9.976C494.684 10.576 494.384 11.044 493.88 11.38C493.4 11.692 492.872 11.8 492.296 11.704C490.352 11.368 488.336 11.212 486.248 11.236C484.16 11.236 482.12 11.428 480.128 11.812ZM516.056 30.136C515.456 30.208 514.916 30.064 514.436 29.704C513.956 29.344 513.68 28.864 513.608 28.264C513.536 27.664 513.68 27.124 514.04 26.644C514.4 26.164 514.88 25.888 515.48 25.816C518.456 25.456 520.844 24.844 522.644 23.98C524.468 23.116 525.764 22.072 526.532 20.848C527.324 19.6 527.672 18.244 527.576 16.78C527.456 14.86 526.796 13.468 525.596 12.604C524.396 11.716 522.512 11.368 519.944 11.56C518.912 11.632 517.76 11.776 516.488 11.992C515.216 12.184 513.908 12.412 512.564 12.676C511.244 12.94 509.972 13.216 508.748 13.504C507.524 13.792 506.432 14.068 505.472 14.332C504.896 14.5 504.344 14.44 503.816 14.152C503.312 13.84 502.976 13.396 502.808 12.82C502.64 12.22 502.7 11.656 502.988 11.128C503.3 10.6 503.744 10.252 504.32 10.084C505.352 9.796 506.516 9.52 507.812 9.256C509.108 8.968 510.452 8.704 511.844 8.464C513.26 8.2 514.64 7.972 515.984 7.78C517.328 7.588 518.552 7.456 519.656 7.384C523.52 7.096 526.46 7.756 528.476 9.364C530.492 10.972 531.62 13.336 531.86 16.456C532.028 18.688 531.548 20.764 530.42 22.684C529.316 24.58 527.564 26.188 525.164 27.508C522.788 28.804 519.752 29.68 516.056 30.136ZM548.132 28.156C547.028 28.204 545.972 27.952 544.964 27.4C543.956 26.848 543.068 25.96 542.3 24.736C541.652 23.656 541.1 22.288 540.644 20.632C540.188 18.976 539.864 17.188 539.672 15.268C539.48 13.324 539.432 11.392 539.528 9.472C539.576 8.872 539.804 8.38 540.212 7.996C540.644 7.588 541.16 7.408 541.76 7.456C542.36 7.48 542.852 7.72 543.236 8.176C543.644 8.608 543.824 9.124 543.776 9.724C543.68 11.404 543.692 13.048 543.812 14.656C543.932 16.24 544.16 17.692 544.496 19.012C544.832 20.308 545.252 21.388 545.756 22.252C546.308 23.236 547.004 23.728 547.844 23.728C548.876 23.704 549.74 22.624 550.436 20.488C550.628 19.936 550.988 19.528 551.516 19.264C552.044 18.976 552.596 18.928 553.172 19.12C553.724 19.288 554.132 19.648 554.396 20.2C554.66 20.728 554.696 21.268 554.504 21.82C553.832 23.932 552.932 25.504 551.804 26.536C550.676 27.544 549.452 28.084 548.132 28.156ZM567.752 21.82C567.176 22.036 566.612 22.012 566.06 21.748C565.532 21.484 565.16 21.076 564.944 20.524C564.584 19.636 564.092 18.736 563.468 17.824C562.868 16.912 562.184 16.048 561.416 15.232C560.672 14.416 559.904 13.732 559.112 13.18C558.632 12.844 558.332 12.376 558.212 11.776C558.092 11.176 558.224 10.636 558.608 10.156C558.992 9.676 559.46 9.412 560.012 9.364C560.588 9.316 561.128 9.472 561.632 9.832C562.64 10.528 563.624 11.38 564.584 12.388C565.568 13.396 566.456 14.476 567.248 15.628C568.04 16.78 568.628 17.908 569.012 19.012C569.204 19.564 569.18 20.128 568.94 20.704C568.7 21.256 568.304 21.628 567.752 21.82ZM599.36 32.152C596.528 31.744 594.188 30.928 592.34 29.704C590.492 28.456 589.112 26.956 588.2 25.204C587.312 23.452 586.868 21.628 586.868 19.732C586.868 17.812 587.24 16.024 587.984 14.368C588.752 12.688 589.844 11.236 591.26 10.012C589.82 10.228 588.284 10.48 586.652 10.768C585.02 11.032 583.436 11.308 581.9 11.596C580.364 11.86 579.02 12.1 577.868 12.316C577.292 12.412 576.764 12.28 576.284 11.92C575.804 11.56 575.516 11.092 575.42 10.516C575.324 9.916 575.456 9.388 575.816 8.932C576.176 8.452 576.656 8.164 577.256 8.068C578.024 7.948 579.008 7.792 580.208 7.6C581.408 7.384 582.752 7.156 584.24 6.916C585.728 6.676 587.252 6.424 588.812 6.16C590.372 5.896 591.896 5.644 593.384 5.404C594.896 5.14 596.276 4.9 597.524 4.684C598.772 4.468 599.792 4.288 600.584 4.144C601.136 4.048 601.652 4.168 602.132 4.504C602.612 4.84 602.912 5.284 603.032 5.836C603.152 6.412 603.044 6.952 602.708 7.456C602.396 7.96 601.952 8.26 601.376 8.356C599.624 8.596 598.1 9.1 596.804 9.868C595.532 10.612 594.476 11.524 593.636 12.604C592.796 13.66 592.172 14.788 591.764 15.988C591.356 17.188 591.152 18.352 591.152 19.48C591.152 21.808 591.944 23.692 593.528 25.132C595.112 26.548 597.26 27.46 599.972 27.868C600.572 27.964 601.052 28.252 601.412 28.732C601.772 29.212 601.904 29.74 601.808 30.316C601.712 30.916 601.424 31.396 600.944 31.756C600.488 32.116 599.96 32.248 599.36 32.152Z" fill="#010F32"/>
</svg>
