<svg width="540" height="74" viewBox="0 0 540 74" fill="none" xmlns="http://www.w3.org/2000/svg">
<path d="M533.986 72.1636H6.01365C4.05001 72.1636 2.45456 70.5681 2.45456 68.6045V67.1317C2.45456 65.659 3.31365 64.4317 4.66365 63.8181V9.81811C3.31365 9.3272 2.45456 8.09993 2.45456 6.50447V5.03175C2.45456 2.94538 3.92729 1.47266 6.01365 1.47266H533.986C535.95 1.47266 537.545 3.06811 537.545 5.03175V6.50447C537.545 8.09993 536.564 9.3272 535.214 9.81811V63.8181C536.564 64.309 537.545 65.659 537.545 67.1317V68.6045C537.545 70.6908 536.073 72.1636 533.986 72.1636ZM6.01365 66.0272C5.27729 66.0272 4.9091 66.6408 4.9091 67.1317V68.6045C4.9091 69.3408 5.52274 69.709 6.01365 69.709H533.986C534.6 69.709 535.091 69.2181 535.091 68.6045V67.1317C535.091 66.3954 534.477 66.0272 533.986 66.0272H6.01365ZM7.1182 63.5727H532.759V10.0636H7.1182V63.5727ZM6.01365 7.60902H533.986C534.6 7.60902 535.091 7.11811 535.091 6.50447V5.03175C535.091 4.54084 534.723 3.9272 533.986 3.9272H6.01365C5.40001 3.9272 4.9091 4.41811 4.9091 5.03175V6.50447C4.9091 7.11811 5.40001 7.60902 6.01365 7.60902Z" fill="#010F32"/>
<path d="M41.4818 21.2319H18.1636C17.4273 21.2319 16.9364 20.741 16.9364 20.0046C16.9364 19.2683 17.4273 18.7773 18.1636 18.7773H41.4818C42.2182 18.7773 42.7091 19.2683 42.7091 20.0046C42.7091 20.741 42.2182 21.2319 41.4818 21.2319ZM14.4818 21.2319H5.89091C5.15454 21.2319 4.66364 20.741 4.66364 20.0046C4.66364 19.2683 5.15454 18.7773 5.89091 18.7773H14.4818C15.2182 18.7773 15.7091 19.2683 15.7091 20.0046C15.7091 20.741 15.2182 21.2319 14.4818 21.2319Z" fill="#010F32"/>
<path d="M35.5909 32.8911H27C26.2636 32.8911 25.7727 32.4002 25.7727 31.6638C25.7727 30.9274 26.2636 30.4365 27 30.4365H35.5909C36.3273 30.4365 36.8182 30.9274 36.8182 31.6638C36.8182 32.4002 36.3273 32.8911 35.5909 32.8911ZM23.3182 32.8911H5.89091C5.15454 32.8911 4.66364 32.4002 4.66364 31.6638C4.66364 30.9274 5.15454 30.4365 5.89091 30.4365H23.3182C24.0545 30.4365 24.5455 30.9274 24.5455 31.6638C24.5455 32.4002 24.0545 32.8911 23.3182 32.8911Z" fill="#010F32"/>
<path d="M35.5909 44.4272H24.3C23.5636 44.4272 23.0727 43.9363 23.0727 43.1999C23.0727 42.4636 23.5636 41.9727 24.3 41.9727H35.5909C36.3273 41.9727 36.8182 42.4636 36.8182 43.1999C36.8182 43.9363 36.3273 44.4272 35.5909 44.4272ZM18.1636 44.4272H5.89091C5.15454 44.4272 4.66364 43.9363 4.66364 43.1999C4.66364 42.4636 5.15454 41.9727 5.89091 41.9727H18.1636C18.9 41.9727 19.3909 42.4636 19.3909 43.1999C19.3909 43.9363 18.9 44.4272 18.1636 44.4272Z" fill="#010F32"/>
<path d="M41.4818 56.0864H18.1636C17.4273 56.0864 16.9364 55.5955 16.9364 54.8591C16.9364 54.1227 17.4273 53.6318 18.1636 53.6318H41.4818C42.2182 53.6318 42.7091 54.1227 42.7091 54.8591C42.7091 55.5955 42.2182 56.0864 41.4818 56.0864ZM14.4818 56.0864H5.89091C5.15454 56.0864 4.66364 55.5955 4.66364 54.8591C4.66364 54.1227 5.15454 53.6318 5.89091 53.6318H14.4818C15.2182 53.6318 15.7091 54.1227 15.7091 54.8591C15.7091 55.5955 15.2182 56.0864 14.4818 56.0864Z" fill="#010F32"/>
<path d="M534.109 21.2319H510.791C510.055 21.2319 509.564 20.741 509.564 20.0046C509.564 19.2683 510.055 18.7773 510.791 18.7773H534.109C534.845 18.7773 535.336 19.2683 535.336 20.0046C535.336 20.741 534.845 21.2319 534.109 21.2319ZM507.109 21.2319H498.518C497.782 21.2319 497.291 20.741 497.291 20.0046C497.291 19.2683 497.782 18.7773 498.518 18.7773H507.109C507.845 18.7773 508.336 19.2683 508.336 20.0046C508.336 20.741 507.845 21.2319 507.109 21.2319Z" fill="#010F32"/>
<path d="M534.109 32.8911H525.518C524.782 32.8911 524.291 32.4002 524.291 31.6638C524.291 30.9274 524.782 30.4365 525.518 30.4365H534.109C534.845 30.4365 535.336 30.9274 535.336 31.6638C535.336 32.4002 534.845 32.8911 534.109 32.8911ZM521.836 32.8911H504.409C503.673 32.8911 503.182 32.4002 503.182 31.6638C503.182 30.9274 503.673 30.4365 504.409 30.4365H521.836C522.573 30.4365 523.064 30.9274 523.064 31.6638C523.064 32.4002 522.573 32.8911 521.836 32.8911Z" fill="#010F32"/>
<path d="M534.109 44.4272H522.818C522.082 44.4272 521.591 43.9363 521.591 43.1999C521.591 42.4636 522.082 41.9727 522.818 41.9727H534.109C534.845 41.9727 535.336 42.4636 535.336 43.1999C535.336 43.9363 534.845 44.4272 534.109 44.4272ZM516.682 44.4272H504.409C503.673 44.4272 503.182 43.9363 503.182 43.1999C503.182 42.4636 503.673 41.9727 504.409 41.9727H516.682C517.418 41.9727 517.909 42.4636 517.909 43.1999C517.909 43.9363 517.418 44.4272 516.682 44.4272Z" fill="#010F32"/>
<path d="M534.109 56.0864H516.927C516.191 56.0864 515.7 55.5955 515.7 54.8591C515.7 54.1227 516.191 53.6318 516.927 53.6318H534.109C534.845 53.6318 535.336 54.1227 535.336 54.8591C535.336 55.5955 534.845 56.0864 534.109 56.0864ZM510.791 56.0864H498.518C497.782 56.0864 497.291 55.5955 497.291 54.8591C497.291 54.1227 497.782 53.6318 498.518 53.6318H510.791C511.527 53.6318 512.018 54.1227 512.018 54.8591C512.018 55.5955 511.527 56.0864 510.791 56.0864Z" fill="#010F32"/>
<path d="M77.1955 54.6136C76.4591 54.6136 75.8455 54.3682 75.2318 53.8773C74.7409 53.3864 74.3727 52.7727 74.3727 52.0364C74.3727 51.3 74.6182 50.6864 75.2318 50.0727C75.7227 49.5818 76.4591 49.3364 77.1955 49.2136C78.9136 49.2136 80.0182 48.9682 80.5091 48.4773C81 48.1091 81.2455 47.25 81.2455 45.9C81.2455 44.9182 81.1227 43.8136 81.1227 42.3409C81 40.8682 81 39.3955 80.8773 37.8C79.2818 39.5182 77.4409 41.2364 75.4773 42.9545C73.5136 44.6727 71.55 46.2682 69.5864 47.8636C67.6227 49.3364 65.7818 50.6864 63.9409 51.7909C63.3273 52.1591 62.5909 52.2818 61.8546 52.0364C61.1182 51.7909 60.6273 51.4227 60.1364 50.8091C59.7682 50.1955 59.6455 49.4591 59.8909 48.7227C60.1364 47.9864 60.5046 47.4955 61.1182 47.1273C62.5909 46.1455 64.3091 44.9182 66.2727 43.4455C68.2364 41.9727 70.2 40.3773 72.1636 38.6591C74.25 36.9409 76.0909 35.2227 77.8091 33.5045H63.8182C63.0818 33.5045 62.4682 33.2591 61.9773 32.7682C61.4864 32.2773 61.2409 31.6636 61.2409 30.9273C61.2409 30.1909 61.4864 29.5773 61.9773 29.0864C62.4682 28.5955 63.0818 28.35 63.8182 28.35H80.3864C80.3864 27.1227 80.2636 26.1409 80.2636 25.1591C80.2636 24.3 80.1409 23.5636 80.1409 23.0727C80.1409 22.3364 80.3864 21.6 80.8773 21.1091C81.3682 20.6182 81.9818 20.25 82.7182 20.25C83.4546 20.25 84.0682 20.4955 84.6818 20.9864C85.1727 21.4773 85.4182 22.0909 85.5409 22.95C85.5409 23.5636 85.5409 24.3 85.6636 25.1591C85.6636 26.1409 85.7864 27.1227 85.7864 28.35H92.5364C93.2727 28.35 93.8864 28.5955 94.3773 29.0864C94.8682 29.5773 95.1136 30.1909 95.1136 30.9273C95.1136 31.6636 94.8682 32.2773 94.3773 32.7682C93.8864 33.2591 93.2727 33.5045 92.5364 33.5045H86.0318C86.0318 34.9773 86.1546 36.5727 86.2773 38.0455C86.4 39.5182 86.4 40.9909 86.5227 42.3409C86.6455 43.6909 86.6455 44.7955 86.6455 45.6545C86.7682 48.8455 86.1546 51.1773 84.6818 52.5273C83.0864 53.8773 80.6318 54.6136 77.1955 54.6136Z" fill="#010F32"/>
<path d="M108.736 40.9908C108 40.9908 107.386 40.6226 106.895 40.009C106.405 39.3954 106.282 38.7817 106.282 37.9226C106.282 37.1863 106.405 36.0817 106.282 34.8545C106.282 33.6272 106.159 32.2772 106.159 30.8045C106.159 29.3317 106.036 27.9817 105.914 26.7545C105.791 25.4045 105.668 24.4226 105.545 23.5635C105.423 22.8272 105.545 22.0908 106.036 21.4772C106.527 20.8635 107.141 20.4954 107.877 20.4954C108.614 20.3726 109.35 20.6181 109.964 20.9863C110.577 21.3545 110.945 21.9681 110.945 22.8272C111.068 23.6863 111.068 24.7908 111.191 26.1408C111.314 27.4908 111.436 28.9635 111.436 30.559C111.559 32.1545 111.559 33.6272 111.559 35.0999C111.559 36.5726 111.559 37.6772 111.559 38.5363C111.559 39.2726 111.191 40.009 110.577 40.3772C110.209 40.8681 109.473 41.1135 108.736 40.9908ZM113.155 55.7181C112.541 56.0863 111.805 56.209 111.068 55.9635C110.332 55.7181 109.718 55.2272 109.35 54.6135C108.982 53.8772 108.859 53.2635 109.105 52.5272C109.35 51.7908 109.718 51.2999 110.332 50.9317C112.173 49.9499 113.645 48.8454 114.873 47.6181C116.1 46.3908 117.082 44.9181 117.818 43.3226C118.555 41.7272 119.168 39.7635 119.414 37.5545C119.659 35.3454 119.905 32.7681 119.905 29.6999C119.905 28.4726 119.905 27.1226 119.782 25.7726C119.659 24.2999 119.536 23.1954 119.414 22.3363C119.291 21.5999 119.536 20.8635 120.027 20.2499C120.518 19.6363 121.132 19.2681 121.868 19.2681C122.605 19.1454 123.341 19.3908 123.832 19.8817C124.445 20.3726 124.691 20.9863 124.814 21.7226C124.936 22.459 125.059 23.3181 125.059 24.2999C125.059 25.2817 125.182 26.2635 125.182 27.2454C125.182 28.2272 125.182 29.0863 125.182 29.8226C125.182 34.1181 124.814 37.7999 124.077 40.9908C123.341 44.1817 122.114 47.0045 120.395 49.459C118.923 51.6681 116.345 53.8772 113.155 55.7181Z" fill="#010F32"/>
<path d="M145.8 39.15C145.432 38.7818 144.818 38.4136 143.959 37.9227C143.223 37.4318 142.364 36.9409 141.505 36.45C140.645 35.959 139.909 35.5909 139.418 35.3454C138.682 34.9772 138.314 34.4863 138.068 33.75C137.823 33.0136 137.823 32.2772 138.191 31.6636C138.559 30.9272 139.05 30.559 139.786 30.3136C140.523 30.0681 141.136 30.1909 141.873 30.4363C142.609 30.8045 143.468 31.1727 144.327 31.6636C145.309 32.1545 146.168 32.7681 147.15 33.3818C148.009 33.9954 148.745 34.4863 149.359 34.8545C149.973 35.3454 150.218 35.959 150.341 36.6954C150.341 37.4318 150.218 38.1681 149.727 38.659C149.236 39.2727 148.623 39.5181 147.886 39.6409C147.027 39.8863 146.291 39.6409 145.8 39.15ZM144.082 53.509C143.345 53.7545 142.609 53.6318 141.995 53.2636C141.382 52.8954 140.891 52.4045 140.645 51.6681C140.4 50.9318 140.523 50.3181 140.891 49.5818C141.259 48.8454 141.75 48.4772 142.486 48.2318C144.695 47.4954 147.027 46.5136 149.482 45.2863C151.814 44.059 154.145 42.5863 156.355 40.9909C158.564 39.3954 160.65 37.6772 162.491 35.8363C164.332 33.9954 165.927 32.1545 167.155 30.3136C167.523 29.7 168.136 29.3318 168.873 29.209C169.609 29.0863 170.345 29.209 170.959 29.7C171.573 30.0681 171.941 30.6818 172.186 31.4181C172.309 32.1545 172.186 32.8909 171.818 33.5045C170.468 35.4681 168.75 37.5545 166.664 39.6409C164.577 41.7272 162.245 43.6909 159.791 45.5318C157.336 47.3727 154.759 48.9681 152.059 50.4409C149.114 51.5454 146.659 52.65 144.082 53.509ZM150.464 31.05C150.095 30.6818 149.482 30.3136 148.745 29.7C148.009 29.209 147.273 28.5954 146.414 28.1045C145.677 27.6136 144.941 27.2454 144.327 26.8772C143.714 26.509 143.223 26.0181 143.1 25.2818C142.855 24.5454 142.977 23.809 143.345 23.1954C143.714 22.459 144.327 22.0909 145.064 21.9681C145.8 21.8454 146.536 21.8454 147.15 22.2136C147.764 22.5818 148.623 23.0727 149.482 23.6863C150.464 24.3 151.323 24.9136 152.182 25.5272C153.041 26.1409 153.777 26.6318 154.268 27.1227C154.882 27.6136 155.127 28.2272 155.127 28.9636C155.127 29.7 154.882 30.4363 154.391 30.9272C153.9 31.5409 153.286 31.7863 152.55 31.7863C151.691 31.7863 151.077 31.5409 150.464 31.05ZM166.786 27.4909C166.418 27.859 165.927 28.1045 165.436 28.1045C164.945 28.1045 164.455 27.859 164.086 27.4909C163.718 27.1227 163.227 26.6318 162.736 26.0181C162.245 25.4045 161.632 24.9136 161.264 24.5454C161.018 24.3 160.773 23.9318 160.773 23.4409C160.773 22.95 160.895 22.5818 161.264 22.2136C161.632 21.8454 162 21.7227 162.491 21.7227C162.982 21.7227 163.35 21.8454 163.718 22.0909C164.209 22.459 164.7 22.8272 165.436 23.4409C166.05 24.0545 166.541 24.5454 167.032 25.0363C167.4 25.4045 167.645 25.8954 167.523 26.3863C167.277 26.6318 167.155 27.1227 166.786 27.4909ZM167.891 23.4409C167.523 23.0727 167.032 22.5818 166.418 22.0909C165.805 21.6 165.314 21.109 164.823 20.7409C164.455 20.4954 164.332 20.1272 164.209 19.6363C164.209 19.1454 164.332 18.7772 164.577 18.409C164.823 18.0409 165.191 17.7954 165.682 17.7954C166.173 17.7954 166.541 17.7954 167.032 18.0409C167.523 18.2863 168.136 18.7772 168.75 19.2681C169.364 19.759 169.977 20.25 170.468 20.7409C170.836 21.109 171.082 21.4772 171.082 22.0909C171.082 22.5818 170.959 23.0727 170.591 23.5636C170.223 23.9318 169.855 24.1772 169.241 24.1772C168.75 24.0545 168.382 23.9318 167.891 23.4409Z" fill="#010F32"/>
<path d="M188.018 55.1043C187.282 55.4724 186.668 55.4724 185.932 55.227C185.195 54.9815 184.705 54.4906 184.336 53.877C184.091 53.1406 183.968 52.527 184.214 51.7906C184.459 51.0543 184.95 50.5633 185.564 50.1952C188.632 48.8452 190.964 47.0043 192.682 44.7952C194.4 42.5861 195.505 39.7633 196.118 36.4497H182.986C182.25 36.4497 181.636 36.2043 181.145 35.7133C180.655 35.2224 180.409 34.6088 180.409 33.8724C180.409 33.1361 180.655 32.5224 181.145 32.0315C181.636 31.5406 182.25 31.2952 182.986 31.2952H196.609V31.1724C196.609 29.8224 196.609 28.3497 196.486 26.877C196.486 25.4043 196.364 24.177 196.241 23.0724C196.241 22.3361 196.364 21.5997 196.855 21.1088C197.345 20.4952 197.836 20.127 198.573 20.127C199.309 20.0043 200.045 20.2497 200.659 20.7406C201.273 21.2315 201.641 21.8452 201.641 22.5815C201.764 23.8088 201.886 25.1588 201.886 26.7543C201.886 28.3497 201.886 29.8224 201.886 31.2952V31.4179H213.3C214.036 31.4179 214.65 31.6633 215.264 32.1543C215.755 32.6452 216 33.2588 216 33.9952C216 34.7315 215.755 35.3452 215.264 35.8361C214.773 36.327 214.159 36.5724 213.3 36.5724H201.518C200.414 45.2861 195.995 51.4224 188.018 55.1043Z" fill="#010F32"/>
<path d="M223.241 50.8087C222.505 51.0542 221.891 51.1769 221.155 50.9314C220.418 50.686 219.927 50.1951 219.559 49.5814C219.314 48.8451 219.191 48.2314 219.436 47.4951C219.682 46.7587 220.173 46.2678 220.786 46.0223C223.118 44.9178 225.082 43.5678 226.432 41.9723C227.782 40.3769 228.764 38.536 229.377 36.4496C229.991 34.3633 230.236 32.1542 230.236 29.8223C230.236 29.086 230.482 28.3496 230.973 27.8587C231.464 27.3678 232.077 27.1223 232.814 27.1223C233.55 27.1223 234.164 27.3678 234.777 27.8587C235.268 28.3496 235.514 29.086 235.514 29.8223C235.514 34.8542 234.409 39.2723 232.2 42.8314C230.359 46.2678 227.168 48.9678 223.241 50.8087ZM252.205 47.986C249.627 48.9678 247.418 49.336 245.455 49.2132C243.491 49.0905 242.018 48.3542 240.914 47.1269C239.809 45.8996 239.318 43.936 239.318 41.4814V27.4905C239.318 26.7542 239.564 26.0178 240.177 25.5269C240.668 25.036 241.405 24.7905 242.141 24.7905C242.877 24.7905 243.491 25.036 244.105 25.5269C244.595 26.0178 244.841 26.7542 244.841 27.4905V40.7451C244.841 43.5678 246.559 44.3042 249.873 43.0769C251.223 42.586 252.695 41.9723 254.168 41.3587C255.764 40.6223 257.114 40.0087 258.341 39.5178C259.077 39.1496 259.691 39.1496 260.427 39.3951C261.164 39.6405 261.655 40.0087 262.023 40.7451C262.391 41.3587 262.391 42.0951 262.268 42.8314C262.023 43.5678 261.655 44.0587 260.918 44.4269C259.568 45.0405 258.095 45.7769 256.5 46.3905C255.027 46.8814 253.555 47.4951 252.205 47.986Z" fill="#010F32"/>
<path d="M272.7 54.4905C271.964 54.6133 271.35 54.4905 270.736 53.9996C270.123 53.5087 269.755 53.0178 269.632 52.2815C269.386 50.8087 269.141 49.0905 269.018 47.0042C268.895 45.0405 268.773 42.9542 268.773 40.7451C268.773 38.536 268.773 36.3269 268.895 34.1178C269.018 31.9087 269.141 29.6996 269.509 27.736C269.755 25.6496 270 23.8087 270.368 22.2133C270.491 21.4769 270.859 20.986 271.473 20.6178C272.086 20.2496 272.7 20.1269 273.436 20.2496C274.173 20.3724 274.664 20.8633 275.032 21.4769C275.4 22.0905 275.523 22.7042 275.4 23.4405C274.909 25.5269 274.541 27.8587 274.295 30.1905C274.05 32.5224 273.805 35.0996 273.805 37.6769C273.682 40.2542 273.805 42.586 273.927 45.0405C274.05 47.4951 274.295 49.5815 274.664 51.5451C274.786 52.2815 274.664 52.8951 274.295 53.5087C273.927 53.9996 273.436 54.3678 272.7 54.4905ZM290.864 52.036C287.059 52.036 284.236 51.2996 282.273 49.9496C280.309 48.5996 279.327 46.5133 278.836 43.8133C278.714 43.0769 278.836 42.4633 279.327 41.8496C279.695 41.236 280.309 40.8678 281.045 40.7451C281.782 40.6224 282.395 40.8678 283.009 41.236C283.623 41.6042 283.991 42.2178 284.114 42.9542C284.236 44.1815 284.85 45.1633 285.955 45.7769C286.936 46.3905 288.655 46.7587 290.986 46.7587C293.195 46.7587 295.895 46.3905 298.964 45.7769C299.7 45.6542 300.314 45.7769 300.927 46.1451C301.541 46.5133 301.909 47.1269 302.032 47.8633C302.155 48.5996 302.032 49.2133 301.664 49.8269C301.295 50.4405 300.682 50.8087 299.945 51.0542C298.35 51.4224 296.755 51.6678 295.159 51.7905C293.564 51.9133 292.214 52.036 290.864 52.036ZM282.764 30.1905C282.027 30.3133 281.414 30.1905 280.8 29.8224C280.186 29.4542 279.818 28.8405 279.695 28.1042C279.573 27.3678 279.695 26.7542 280.064 26.1405C280.432 25.5269 281.045 25.1587 281.782 25.036C283.377 24.6678 285.218 24.5451 287.305 24.4224C289.391 24.2996 291.355 24.2996 293.318 24.4224C295.282 24.5451 297.123 24.6678 298.595 24.9133C299.332 25.036 299.945 25.4042 300.314 26.0178C300.682 26.6315 300.805 27.2451 300.682 27.9815C300.559 28.7178 300.191 29.3315 299.577 29.6996C298.964 30.0678 298.35 30.1905 297.614 30.0678C295.282 29.6996 292.705 29.4542 290.25 29.4542C287.673 29.4542 285.218 29.6996 282.764 30.1905Z" fill="#010F32"/>
<path d="M328.664 57.4361C328.05 57.5588 327.436 57.4361 326.945 56.9452C326.455 56.577 326.209 56.0861 326.086 55.3497C325.841 53.6316 325.35 51.5452 324.859 49.2134C324.245 46.8816 323.632 44.5498 322.773 42.2179C321.545 42.5861 320.441 42.9543 319.336 43.3225C318.232 43.6907 317.25 44.0588 316.391 44.3043C315.777 44.5497 315.164 44.427 314.55 44.1816C313.936 43.9361 313.568 43.4452 313.323 42.9543C313.077 42.3407 313.2 41.727 313.445 41.1134C313.691 40.4998 314.182 40.1316 314.795 39.8861C316.636 39.2725 318.723 38.5361 321.177 37.7998C320.809 36.9407 320.441 36.0816 320.073 35.3452C319.705 34.6088 319.336 33.7498 318.968 33.1361C318.723 32.5225 318.6 31.9088 318.723 31.2952C318.845 30.6816 319.214 30.1907 319.827 29.9452C320.441 29.577 321.055 29.577 321.668 29.6998C322.282 29.9452 322.773 30.3134 323.018 30.927C323.509 31.7861 323.877 32.6452 324.245 33.627C324.614 34.6088 325.105 35.5907 325.473 36.5725C326.209 36.327 326.945 36.0816 327.805 35.8361C328.664 35.5907 329.277 35.3452 330.014 35.2225C329.523 35.0998 329.155 34.7316 328.909 34.3634L327.068 31.5407C326.7 31.0498 326.7 30.4361 326.7 29.8225C326.7 29.2088 327.191 28.7179 327.682 28.3498C328.295 27.9816 328.786 27.8588 329.4 27.9816C330.014 28.1043 330.505 28.4725 330.873 28.9634L332.714 31.7861C332.959 32.277 333.082 32.6452 333.082 33.1361C333.082 33.627 332.836 34.1179 332.591 34.4861C332.836 34.4861 332.959 34.3634 333.205 34.3634C333.327 34.3634 333.573 34.2407 333.695 34.2407C336.764 33.5043 339.218 33.627 341.059 34.6088C342.9 35.5907 344.005 37.3088 344.373 39.6407C344.618 41.3588 344.373 42.8316 343.636 44.1816C342.9 45.5316 341.918 46.5134 340.568 47.127C339.218 47.8634 337.745 48.1088 336.027 48.1088C334.309 48.1088 332.591 47.4952 330.873 46.5134C330.259 46.1452 329.891 45.777 329.768 45.0407C329.645 44.3043 329.645 43.8134 329.891 43.3225C330.259 42.7088 330.627 42.3407 331.364 42.2179C331.977 42.0952 332.591 42.0952 333.082 42.4634C334.432 43.1997 335.536 43.5679 336.641 43.5679C337.745 43.5679 338.482 43.1998 339.095 42.5861C339.709 41.9725 339.955 41.2361 339.709 40.1316C339.586 39.2725 339.095 38.6588 338.359 38.4134C337.5 38.0452 336.273 38.1679 334.677 38.5361C333.573 38.7816 332.345 39.1498 330.995 39.5179C329.645 39.8861 328.295 40.377 326.945 40.7452C327.682 43.1998 328.418 45.5316 329.032 47.9861C329.645 50.4407 330.136 52.6498 330.505 54.6134C330.627 55.227 330.505 55.8407 330.136 56.3316C329.768 56.8225 329.4 57.3134 328.664 57.4361Z" fill="#010F32"/>
<path d="M357.382 54.4906C356.768 54.2452 356.277 53.7543 356.032 53.0179C355.786 52.2815 355.786 51.6679 356.032 50.9315C356.523 49.827 357.136 48.477 357.995 46.8815C358.732 45.2861 359.591 43.4452 360.573 41.4815C361.555 39.5179 362.414 37.5543 363.395 35.4679C364.377 33.3815 365.359 31.4179 366.218 29.577C367.2 27.6134 368.059 25.8952 368.795 24.2997C369.532 22.7043 370.268 21.477 370.759 20.3725C371.127 19.7588 371.618 19.2679 372.355 19.1452C373.091 19.0225 373.705 19.0225 374.318 19.3906C374.932 19.7588 375.423 20.3725 375.545 20.9861C375.791 21.7225 375.668 22.3361 375.3 22.9497C374.932 23.6861 374.318 24.6679 373.705 25.8952C373.091 27.1225 372.355 28.5952 371.495 30.1906C370.636 31.7861 369.9 33.5043 369.041 35.2225C370.023 34.7315 371.127 34.6088 372.232 34.6088C375.055 34.6088 376.895 35.4679 378 37.3088C379.105 39.027 379.105 41.4815 378.245 44.5497C377.755 46.1452 377.755 47.2497 378.123 47.8634C378.491 48.477 379.227 48.7225 380.209 48.7225C380.945 48.7225 381.559 48.5997 382.173 48.2315C382.786 47.8634 383.4 47.2497 384.014 46.3906C384.627 45.4088 385.364 44.0588 386.1 42.2179C386.345 41.4815 386.836 41.1134 387.573 40.7452C388.309 40.4997 388.923 40.377 389.659 40.6224C390.395 40.8679 390.886 41.3588 391.132 42.0952C391.377 42.8315 391.5 43.4452 391.255 44.1815C390.027 47.4952 388.555 49.9497 386.836 51.5452C385.118 53.1406 382.909 53.9997 380.086 53.9997C378.245 53.9997 376.65 53.6315 375.423 52.8952C374.195 52.1588 373.336 50.9315 372.845 49.4588C372.477 47.8634 372.6 46.0224 373.214 43.6906C373.582 42.2179 373.705 41.2361 373.336 40.7452C372.968 40.2543 372.355 39.8861 371.25 39.8861C369.9 39.8861 368.673 40.2543 367.568 41.1134C366.464 41.9724 365.359 43.4452 364.255 45.777C364.132 46.0224 363.886 46.5134 363.641 47.127C363.273 47.8634 363.027 48.5997 362.659 49.4588C362.291 50.3179 361.923 51.0543 361.677 51.6679C361.432 52.2815 361.186 52.7724 361.064 53.0179C360.818 53.7543 360.327 54.2452 359.591 54.4906C358.855 54.7361 358.118 54.7361 357.382 54.4906Z" fill="#010F32"/>
<path d="M401.441 33.8726C400.827 34.2408 400.214 34.4862 399.477 34.3635C398.741 34.3635 398.127 33.9953 397.759 33.3817C397.391 32.8908 397.391 32.2771 397.391 31.6635C397.514 31.0498 397.882 30.5589 398.373 30.3135C399.968 29.4544 401.195 28.4726 402.177 27.368C403.159 26.2635 403.895 25.0362 404.509 23.4408H399.845C399.232 23.4408 398.741 23.318 398.373 22.8271C398.005 22.4589 397.882 21.968 397.882 21.4771C397.882 20.8635 398.005 20.4953 398.373 20.0044C398.741 19.6362 399.232 19.3908 399.845 19.3908H405.368C405.368 19.1453 405.491 18.8998 405.491 18.6544C405.491 18.4089 405.491 18.0408 405.614 17.7953C405.614 17.0589 405.982 16.4453 406.473 16.1998C406.964 15.8317 407.577 15.7089 408.314 15.8317C408.927 15.8317 409.418 16.1998 409.909 16.568C410.277 17.0589 410.523 17.5498 410.4 18.2862C410.4 18.5317 410.4 18.6544 410.277 18.8998C410.277 19.0226 410.277 19.268 410.155 19.3908H412.977C414.695 19.3908 416.045 19.8817 416.905 20.7408C417.764 21.5998 418.009 22.9498 417.764 24.9135C417.518 26.6317 417.15 27.9817 416.659 28.8408C416.168 29.6999 415.432 30.4362 414.45 30.6817C413.468 30.9271 412.364 31.1726 410.891 31.1726C410.277 31.1726 409.786 31.0499 409.295 30.6817C408.927 30.3135 408.682 29.8226 408.559 29.2089C408.559 28.5953 408.682 28.1044 409.05 27.7362C409.418 27.368 409.909 27.1226 410.4 26.9999C411.382 26.9999 411.995 26.7544 412.241 26.6317C412.486 26.5089 412.732 25.8953 412.855 25.0362C412.977 24.4226 412.977 23.9317 412.732 23.6862C412.609 23.4408 412.118 23.318 411.259 23.318H409.05C408.314 25.6498 407.332 27.6135 405.982 29.3317C404.632 31.0498 403.282 32.768 401.441 33.8726ZM402.791 57.4362C402.055 57.6817 401.318 57.6817 400.705 57.4362C400.091 57.1908 399.723 56.8226 399.477 56.0862C399.355 55.4726 399.355 54.8589 399.6 54.2453C399.845 53.6317 400.336 53.2635 400.95 53.1408C401.686 53.018 402.545 52.7726 403.527 52.4044C404.509 52.0362 405.491 51.7908 406.473 51.4226C407.455 51.0544 408.436 50.6862 409.173 50.318C407.332 50.0726 405.982 49.3362 405.245 48.3544C404.509 47.3726 404.018 45.8998 404.018 43.9362V38.7817C404.018 36.3271 404.632 34.6089 405.859 33.6271C407.086 32.6453 409.173 32.1544 412.241 32.1544H422.673C425.741 32.1544 427.827 32.6453 429.055 33.6271C430.282 34.6089 430.895 36.3271 430.895 38.7817V43.9362C430.895 45.8998 430.527 47.4953 429.668 48.4771C428.809 49.4589 427.459 50.0726 425.618 50.318C426.845 50.9317 428.318 51.4226 429.914 52.0362C431.509 52.6499 432.859 53.018 433.964 53.2635C434.7 53.3862 435.068 53.7544 435.314 54.368C435.559 54.9817 435.559 55.5953 435.436 56.2089C435.191 56.9453 434.823 57.3135 434.209 57.5589C433.595 57.8044 432.982 57.6817 432.123 57.5589C431.141 57.3135 430.036 56.9453 428.932 56.4544C427.705 55.9635 426.477 55.4726 425.373 54.9817C424.145 54.4908 423.164 53.9998 422.427 53.5089C421.814 53.1408 421.568 52.7726 421.445 52.1589C421.323 51.668 421.445 51.0544 421.691 50.5635C421.691 50.5635 421.691 50.5635 421.691 50.4408C421.691 50.4408 421.691 50.4408 421.691 50.318H413.345L413.468 50.4408C413.714 50.9317 413.836 51.4226 413.714 52.0362C413.591 52.5271 413.223 53.018 412.732 53.3862C411.873 53.8771 410.891 54.2453 409.786 54.8589C408.682 55.4726 407.455 55.8408 406.227 56.3317C404.877 56.8226 403.773 57.1908 402.791 57.4362ZM409.418 42.218H425.864V40.4999H409.418V42.218ZM409.541 37.4317H425.741C425.618 36.818 425.373 36.3271 425.005 36.0817C424.636 35.8362 423.9 35.7135 422.795 35.7135H412.486C411.505 35.7135 410.768 35.8362 410.277 36.0817C409.909 36.3271 409.664 36.818 409.541 37.4317ZM412.486 46.8817H422.795C423.9 46.8817 424.636 46.7589 425.005 46.5135C425.373 46.268 425.618 45.7771 425.741 45.0408H409.541C409.541 45.7771 409.786 46.268 410.277 46.5135C410.645 46.7589 411.382 46.8817 412.486 46.8817ZM426.845 30.5589C425.25 30.5589 423.9 30.4362 422.918 30.068C421.936 29.6999 421.2 29.0862 420.832 28.2271C420.464 27.368 420.218 26.1408 420.218 24.5453C420.218 22.9498 420.464 21.5998 420.832 20.7408C421.2 19.8817 421.936 19.268 422.918 18.8998C423.9 18.5317 425.25 18.4089 426.845 18.4089H429.423C431.018 18.4089 432.368 18.5317 433.35 18.8998C434.332 19.268 435.068 19.8817 435.436 20.7408C435.805 21.5998 436.05 22.8271 436.05 24.5453C436.05 26.1408 435.805 27.368 435.436 28.2271C435.068 29.0862 434.332 29.6999 433.35 30.068C432.368 30.4362 431.018 30.5589 429.423 30.5589H426.845ZM427.091 26.6317H429.177C430.159 26.6317 430.773 26.5089 431.141 26.2635C431.386 26.018 431.632 25.4044 431.632 24.5453C431.632 23.6862 431.509 23.0726 431.141 22.7044C430.895 22.4589 430.159 22.3362 429.177 22.3362H427.091C426.109 22.3362 425.495 22.4589 425.127 22.7044C424.882 22.9498 424.636 23.5635 424.636 24.5453C424.636 25.4044 424.759 26.018 425.127 26.2635C425.495 26.5089 426.109 26.6317 427.091 26.6317Z" fill="#010F32"/>
<path d="M452.127 57.4364C451.391 57.4364 450.9 57.1909 450.409 56.7C449.918 56.2091 449.673 55.5955 449.673 54.8591V43.5682C448.814 44.1818 447.955 44.9182 447.095 45.5318C446.114 46.2682 445.377 46.7591 444.886 47.1273C444.273 47.4955 443.536 47.7409 442.8 47.6182C442.064 47.4955 441.45 47.1273 441.082 46.3909C440.714 45.7773 440.591 45.0409 440.836 44.4273C440.959 43.8136 441.45 43.3227 442.064 42.8318C442.432 42.5864 443.045 42.2182 443.659 41.7273C444.395 41.2364 445.132 40.7455 445.868 40.1318C446.605 39.5182 447.341 39.0273 448.077 38.5364C448.814 38.0455 449.305 37.5546 449.795 37.1864V31.5409C449.673 32.0318 449.182 32.4 448.568 32.7682C447.955 33.1364 447.218 33.1364 446.482 33.0136C445.745 32.7682 445.255 32.4 444.886 31.7864C444.764 31.4182 444.395 30.9273 444.027 30.1909C443.659 29.4546 443.291 28.8409 442.923 28.1046C442.555 27.3682 442.309 26.8773 442.064 26.5091C441.695 25.8955 441.573 25.2818 441.818 24.6682C442.064 23.9318 442.432 23.4409 443.168 23.0727C443.905 22.7046 444.518 22.5818 445.132 22.8273C445.745 23.0727 446.359 23.4409 446.727 24.0546C446.973 24.4227 447.218 25.0364 447.709 25.65C448.077 26.3864 448.445 27 448.814 27.7364C449.182 28.4727 449.427 28.9636 449.673 29.3318L449.795 29.7V19.1455C449.795 18.4091 450.041 17.7955 450.532 17.3046C451.023 16.8136 451.636 16.6909 452.25 16.6909C452.986 16.6909 453.477 16.9364 453.968 17.3046C454.459 17.7955 454.705 18.4091 454.705 19.1455V54.6136C454.705 55.35 454.459 55.9636 453.968 56.4546C453.477 57.1909 452.864 57.4364 452.127 57.4364ZM478.023 55.8409C475.691 54.1227 473.727 52.1591 472.132 49.95C470.536 47.7409 469.309 45.5318 468.327 43.0773C467.468 45.5318 466.364 47.7409 464.891 49.95C463.418 52.0364 461.577 54 459.368 55.7182C458.755 56.2091 458.141 56.3318 457.405 56.3318C456.668 56.3318 456.055 55.9636 455.564 55.35C455.195 54.7364 454.95 54.1227 455.073 53.5091C455.195 52.8955 455.564 52.2818 456.177 51.9136C461.823 47.9864 464.891 42.2182 465.505 34.7318H458.141C457.527 34.7318 456.914 34.4864 456.423 33.9955C455.932 33.5046 455.686 32.8909 455.686 32.2773C455.686 31.5409 455.932 31.05 456.423 30.5591C456.914 30.0682 457.405 29.8227 458.141 29.8227H465.75V19.7591C465.75 19.0227 465.995 18.2864 466.486 17.9182C466.977 17.4273 467.591 17.1818 468.205 17.1818C468.941 17.1818 469.555 17.4273 470.045 17.9182C470.536 18.4091 470.782 19.0227 470.782 19.7591V29.8227H479.618C480.355 29.8227 480.845 30.0682 481.336 30.5591C481.827 31.05 482.073 31.6636 482.073 32.2773C482.073 32.8909 481.827 33.5046 481.336 33.9955C480.845 34.4864 480.232 34.7318 479.618 34.7318H470.905C471.273 38.4136 472.5 41.7273 474.341 44.6727C476.182 47.4955 478.636 49.95 481.459 52.0364C482.073 52.4046 482.441 53.0182 482.441 53.6318C482.441 54.2455 482.318 54.9818 481.827 55.4727C481.336 56.0864 480.723 56.4546 479.986 56.5773C479.373 56.4546 478.636 56.3318 478.023 55.8409ZM479.986 27.2455C479.495 27.6136 478.882 27.8591 478.268 27.7364C477.532 27.7364 477.041 27.3682 476.673 26.8773C476.427 26.6318 476.182 26.2636 475.691 25.7727C475.323 25.2818 474.832 24.7909 474.464 24.3C474.095 23.8091 473.727 23.4409 473.482 23.1955C473.114 22.7046 472.868 22.2136 472.991 21.6C472.991 20.9864 473.359 20.4955 473.727 20.1273C474.218 19.6364 474.832 19.5136 475.445 19.5136C476.059 19.5136 476.55 19.7591 477.041 20.25C477.286 20.4955 477.655 20.8636 478.145 21.3546C478.636 21.8455 479.005 22.3364 479.495 22.8273C479.864 23.3182 480.232 23.6864 480.355 23.9318C480.845 24.5455 481.091 25.1591 481.091 25.7727C480.845 26.1409 480.6 26.7546 479.986 27.2455Z" fill="#010F32"/>
</svg>
