<svg width="671" height="73" viewBox="0 0 671 73" fill="none" xmlns="http://www.w3.org/2000/svg">
<path d="M101.82 56.98C101.073 57.0067 100.46 56.82 99.98 56.42C99.5267 56.0467 99.26 55.5267 99.18 54.86C99.1267 54.22 99.3 53.6733 99.7 53.22C100.1 52.74 100.647 52.4467 101.34 52.34C102.113 52.26 102.607 52.1133 102.82 51.9C103.06 51.6867 103.18 51.2733 103.18 50.66V43.66C102.807 43.7933 102.433 43.9267 102.06 44.06C101.687 44.1667 101.353 44.2867 101.06 44.42C100.34 44.66 99.6867 44.6467 99.1 44.38C98.54 44.0867 98.1533 43.6067 97.94 42.94C97.7533 42.2733 97.7933 41.6733 98.06 41.14C98.3533 40.58 98.8733 40.1933 99.62 39.98C100.127 39.8467 100.673 39.6867 101.26 39.5C101.873 39.2867 102.513 39.0733 103.18 38.86V31.98H99.98C99.3933 31.98 98.8867 31.78 98.46 31.38C98.06 30.9533 97.86 30.4467 97.86 29.86C97.86 29.2733 98.06 28.78 98.46 28.38C98.8867 27.9533 99.3933 27.74 99.98 27.74H103.18V21.9C103.18 21.2333 103.393 20.7 103.82 20.3C104.247 19.9 104.767 19.7 105.38 19.7C105.993 19.7 106.5 19.9 106.9 20.3C107.327 20.7 107.54 21.2333 107.54 21.9V27.74H109.66C110.247 27.74 110.74 27.9533 111.14 28.38C111.567 28.78 111.78 29.2733 111.78 29.86C111.833 29.38 112.047 28.9933 112.42 28.7C112.793 28.38 113.273 28.2067 113.86 28.18C114.1 28.1533 114.353 28.14 114.62 28.14C114.913 28.1133 115.207 28.0867 115.5 28.06C115.74 27.4467 116.047 26.6867 116.42 25.78C116.793 24.8467 117.153 23.9533 117.5 23.1C117.873 22.22 118.14 21.5533 118.3 21.1C118.513 20.46 118.913 20.02 119.5 19.78C120.113 19.54 120.727 19.5267 121.34 19.74C121.953 19.98 122.38 20.3667 122.62 20.9C122.86 21.4333 122.86 21.9933 122.62 22.58C122.38 23.1667 122.033 23.9533 121.58 24.94C121.127 25.9 120.673 26.82 120.22 27.7C121.287 27.62 122.353 27.54 123.42 27.46C124.487 27.3533 125.487 27.26 126.42 27.18C126.18 26.8867 125.953 26.6067 125.74 26.34C125.553 26.0733 125.367 25.8333 125.18 25.62C124.833 25.22 124.7 24.7667 124.78 24.26C124.887 23.7267 125.153 23.3 125.58 22.98C126.007 22.66 126.487 22.5133 127.02 22.54C127.58 22.54 128.06 22.7667 128.46 23.22C128.993 23.8067 129.593 24.5 130.26 25.3C130.927 26.0733 131.567 26.86 132.18 27.66C132.793 28.4333 133.3 29.1 133.7 29.66C134.073 30.1667 134.207 30.7133 134.1 31.3C134.02 31.8867 133.713 32.3533 133.18 32.7C132.647 33.0467 132.087 33.18 131.5 33.1C130.913 32.9933 130.433 32.6733 130.06 32.14C129.927 31.9267 129.78 31.7 129.62 31.46C129.46 31.22 129.273 30.9667 129.06 30.7C127.78 30.86 126.233 31.0467 124.42 31.26C122.633 31.4467 120.873 31.62 119.14 31.78C119.647 32.3933 119.74 33.0867 119.42 33.86C119.393 33.9933 119.34 34.14 119.26 34.3C119.18 34.4333 119.113 34.58 119.06 34.74H130.82C131.38 34.74 131.847 34.94 132.22 35.34C132.62 35.7133 132.82 36.1667 132.82 36.7C132.82 37.26 132.62 37.74 132.22 38.14C131.847 38.5133 131.38 38.7 130.82 38.7H124.74V40.34C124.74 41.0867 124.7 41.82 124.62 42.54H132.78C133.34 42.54 133.807 42.74 134.18 43.14C134.58 43.5133 134.78 43.9933 134.78 44.58C134.78 45.14 134.58 45.62 134.18 46.02C133.807 46.3933 133.34 46.58 132.78 46.58H126.3C127.26 47.8067 128.407 48.9133 129.74 49.9C131.073 50.86 132.473 51.6867 133.94 52.38C134.527 52.6467 134.927 53.06 135.14 53.62C135.353 54.2067 135.3 54.82 134.98 55.46C134.633 56.1 134.113 56.4867 133.42 56.62C132.753 56.7533 132.073 56.6467 131.38 56.3C129.86 55.5533 128.327 54.5267 126.78 53.22C125.233 51.9133 123.913 50.4467 122.82 48.82C120.9 52.3667 117.567 54.94 112.82 56.54C112.153 56.78 111.5 56.8067 110.86 56.62C110.22 56.4333 109.767 56.0067 109.5 55.34C109.287 54.7267 109.313 54.1267 109.58 53.54C109.847 52.9533 110.34 52.5533 111.06 52.34C112.9 51.7267 114.46 50.9533 115.74 50.02C117.02 49.0867 118.007 47.94 118.7 46.58H112.26C111.7 46.58 111.22 46.3933 110.82 46.02C110.42 45.62 110.22 45.14 110.22 44.58C110.22 43.9933 110.42 43.5133 110.82 43.14C111.22 42.74 111.7 42.54 112.26 42.54H119.94C119.993 42.1667 120.033 41.7933 120.06 41.42C120.087 41.0467 120.1 40.66 120.1 40.26V38.7H117.06C116.5 39.7667 115.927 40.6867 115.34 41.46C114.993 41.9667 114.513 42.3 113.9 42.46C113.313 42.5933 112.753 42.5 112.22 42.18C111.527 41.7533 111.207 41.1533 111.26 40.38C111.153 40.46 111.047 40.54 110.94 40.62C110.833 40.6733 110.713 40.7267 110.58 40.78C110.18 40.94 109.727 41.1267 109.22 41.34C108.713 41.5533 108.153 41.7667 107.54 41.98V51.46C107.54 53.3267 107.073 54.7 106.14 55.58C105.207 56.46 103.767 56.9267 101.82 56.98ZM112.06 38.66C112.46 38.0467 112.873 37.3533 113.3 36.58C113.727 35.8067 114.127 35.0467 114.5 34.3C114.873 33.5533 115.18 32.8867 115.42 32.3C115.42 32.2467 115.447 32.1933 115.5 32.14L114.34 32.26C113.593 32.3133 112.993 32.1667 112.54 31.82C112.087 31.4733 111.833 30.9933 111.78 30.38V30.1C111.727 30.6333 111.487 31.0867 111.06 31.46C110.66 31.8067 110.193 31.98 109.66 31.98H107.54V37.38C107.833 37.2733 108.113 37.18 108.38 37.1C108.647 37.02 108.9 36.94 109.14 36.86C109.807 36.6467 110.393 36.6467 110.9 36.86C111.407 37.0733 111.753 37.4733 111.94 38.06L112.06 38.66ZM153.66 56.74C152.887 56.9533 152.207 56.94 151.62 56.7C151.06 56.46 150.673 56.0067 150.46 55.34C150.273 54.7267 150.34 54.1533 150.66 53.62C150.98 53.1133 151.487 52.7667 152.18 52.58C153.753 52.2067 155.193 51.7667 156.5 51.26C157.833 50.7267 159.073 50.14 160.22 49.5C159.793 49.1267 159.353 48.74 158.9 48.34C158.447 47.94 158.047 47.6067 157.7 47.34C157.247 46.9133 157.033 46.3933 157.06 45.78C157.087 45.14 157.313 44.62 157.74 44.22C158.193 43.82 158.713 43.62 159.3 43.62C159.887 43.5933 160.393 43.7667 160.82 44.14C161.193 44.4333 161.687 44.86 162.3 45.42C162.94 45.9533 163.487 46.4467 163.94 46.9C165.14 45.8067 166.207 44.62 167.14 43.34C167.567 42.7267 167.673 42.26 167.46 41.94C167.273 41.5933 166.807 41.42 166.06 41.42H160.1C159.247 42.5133 158.327 43.5667 157.34 44.58C156.353 45.5667 155.34 46.46 154.3 47.26C153.793 47.66 153.22 47.86 152.58 47.86C151.94 47.86 151.42 47.6067 151.02 47.1C150.647 46.62 150.487 46.0733 150.54 45.46C150.62 44.8467 150.913 44.3667 151.42 44.02C152.833 42.9267 154.22 41.6067 155.58 40.06C156.967 38.4867 158.113 36.9267 159.02 35.38C158.94 35.46 158.82 35.5533 158.66 35.66C158.153 35.98 157.58 36.0867 156.94 35.98C156.3 35.8467 155.833 35.5133 155.54 34.98C155.273 34.5267 154.953 33.9667 154.58 33.3C154.207 32.6067 153.873 32.02 153.58 31.54C153.127 30.74 152.807 30.0333 152.62 29.42C152.46 28.78 152.433 28.1267 152.54 27.46C152.673 26.7933 152.94 26.02 153.34 25.14C153.607 24.6067 153.913 23.94 154.26 23.14C154.633 22.3133 154.94 21.6467 155.18 21.14C155.393 20.6067 155.807 20.2333 156.42 20.02C157.033 19.8067 157.62 19.8333 158.18 20.1C158.713 20.3667 159.073 20.78 159.26 21.34C159.447 21.8733 159.407 22.3933 159.14 22.9C158.873 23.4333 158.553 24.06 158.18 24.78C157.807 25.4733 157.46 26.1 157.14 26.66C156.82 27.2467 156.687 27.74 156.74 28.14C156.793 28.5133 156.993 28.9933 157.34 29.58C157.633 29.98 157.967 30.4867 158.34 31.1C158.74 31.7133 159.06 32.2067 159.3 32.58C159.7 33.1933 159.793 33.8467 159.58 34.54C159.927 34.1667 160.367 33.9533 160.9 33.9C161.433 33.82 161.913 33.9267 162.34 34.22C162.447 34.2733 162.527 34.34 162.58 34.42C162.66 34.4733 162.74 34.54 162.82 34.62C162.553 34.14 162.22 33.58 161.82 32.94C161.447 32.2733 161.1 31.7133 160.78 31.26C160.087 30.14 159.7 29.1533 159.62 28.3C159.567 27.4467 159.86 26.38 160.5 25.1C160.793 24.5667 161.113 23.9267 161.46 23.18C161.807 22.4067 162.1 21.74 162.34 21.18C162.607 20.6467 163.033 20.2867 163.62 20.1C164.207 19.8867 164.767 19.9267 165.3 20.22C165.833 20.4867 166.18 20.9 166.34 21.46C166.527 21.9933 166.473 22.5133 166.18 23.02C165.913 23.5267 165.62 24.1 165.3 24.74C164.98 25.3533 164.673 25.9133 164.38 26.42C164.033 27.0333 163.873 27.5267 163.9 27.9C163.927 28.2467 164.14 28.7133 164.54 29.3C164.833 29.7 165.193 30.22 165.62 30.86C166.047 31.5 166.393 32.0067 166.66 32.38C166.98 32.8867 167.087 33.4467 166.98 34.06C166.873 34.6467 166.553 35.1 166.02 35.42C165.567 35.7133 165.06 35.8333 164.5 35.78C163.967 35.7 163.513 35.4733 163.14 35.1C163.433 35.7133 163.393 36.3533 163.02 37.02C162.967 37.1267 162.913 37.2333 162.86 37.34C162.807 37.42 162.753 37.5 162.7 37.58H167.3C169.033 37.58 170.327 37.9 171.18 38.54C172.06 39.18 172.513 40.0333 172.54 41.1C172.593 42.1667 172.22 43.3267 171.42 44.58C169.5 47.5667 167.113 50.06 164.26 52.06C161.407 54.06 157.873 55.62 153.66 56.74ZM141.98 56.86C141.233 56.8867 140.607 56.6867 140.1 56.26C139.62 55.86 139.353 55.2867 139.3 54.54C139.273 53.9267 139.447 53.3667 139.82 52.86C140.22 52.3533 140.82 52.06 141.62 51.98C142.393 51.9267 142.873 51.7933 143.06 51.58C143.273 51.3667 143.38 50.9533 143.38 50.34V43.98C142.633 44.22 141.993 44.4467 141.46 44.66C140.713 44.9 140.033 44.8867 139.42 44.62C138.833 44.3533 138.433 43.8867 138.22 43.22C138.033 42.6067 138.06 42.0067 138.3 41.42C138.567 40.8333 139.06 40.4333 139.78 40.22C140.793 39.9267 141.993 39.5533 143.38 39.1V31.98H140.26C139.673 31.98 139.167 31.7667 138.74 31.34C138.313 30.9133 138.1 30.4067 138.1 29.82C138.1 29.2067 138.313 28.7 138.74 28.3C139.167 27.8733 139.673 27.66 140.26 27.66H143.38V21.94C143.38 21.2733 143.593 20.7533 144.02 20.38C144.473 19.98 144.993 19.78 145.58 19.78C146.193 19.78 146.713 19.98 147.14 20.38C147.567 20.7533 147.78 21.2733 147.78 21.94V27.66H149.98C150.593 27.66 151.1 27.8733 151.5 28.3C151.927 28.7 152.14 29.2067 152.14 29.82C152.14 30.4067 151.927 30.9133 151.5 31.34C151.1 31.7667 150.593 31.98 149.98 31.98H147.78V37.62C148.207 37.46 148.607 37.3133 148.98 37.18C149.353 37.0467 149.687 36.9267 149.98 36.82C150.647 36.58 151.233 36.5667 151.74 36.78C152.247 36.9933 152.593 37.3933 152.78 37.98C152.993 38.5933 152.967 39.1533 152.7 39.66C152.433 40.1667 151.993 40.5667 151.38 40.86C150.953 41.0467 150.42 41.26 149.78 41.5C149.14 41.74 148.473 42.0067 147.78 42.3V50.94C147.78 52.9933 147.3 54.4733 146.34 55.38C145.407 56.3133 143.953 56.8067 141.98 56.86ZM173.38 35.22C172.873 35.54 172.3 35.6467 171.66 35.54C171.02 35.4067 170.553 35.0867 170.26 34.58C169.993 34.1 169.633 33.5133 169.18 32.82C168.753 32.1 168.367 31.4867 168.02 30.98C167.3 29.94 166.9 29.0067 166.82 28.18C166.74 27.3267 167.02 26.2733 167.66 25.02C167.953 24.4867 168.273 23.8733 168.62 23.18C168.967 22.46 169.273 21.8067 169.54 21.22C169.807 20.6867 170.22 20.34 170.78 20.18C171.367 19.9933 171.927 20.0467 172.46 20.34C172.993 20.6067 173.34 21.0067 173.5 21.54C173.66 22.0733 173.607 22.5933 173.34 23.1C173.073 23.6067 172.78 24.1267 172.46 24.66C172.14 25.1933 171.847 25.6867 171.58 26.14C171.207 26.8067 171.02 27.3133 171.02 27.66C171.047 27.98 171.287 28.4467 171.74 29.06C172.033 29.4333 172.407 29.9533 172.86 30.62C173.34 31.26 173.713 31.7933 173.98 32.22C174.3 32.7267 174.407 33.2733 174.3 33.86C174.22 34.42 173.913 34.8733 173.38 35.22ZM211.22 55.38C209.113 53.8067 207.34 52.0467 205.9 50.1C204.487 48.1267 203.353 46.0467 202.5 43.86C201.753 46.0467 200.713 48.1133 199.38 50.06C198.073 51.98 196.42 53.7133 194.42 55.26C193.887 55.66 193.273 55.86 192.58 55.86C191.913 55.86 191.353 55.5667 190.9 54.98C190.527 54.4467 190.393 53.8733 190.5 53.26C190.607 52.6467 190.927 52.1533 191.46 51.78C196.527 48.18 199.34 42.98 199.9 36.18H193.18C192.593 36.18 192.087 35.9667 191.66 35.54C191.233 35.0867 191.02 34.5667 191.02 33.98C191.02 33.3667 191.233 32.8467 191.66 32.42C192.087 31.9933 192.593 31.78 193.18 31.78H200.02V22.7C200.02 21.98 200.26 21.42 200.74 21.02C201.22 20.5933 201.753 20.38 202.34 20.38C202.98 20.38 203.513 20.5933 203.94 21.02C204.393 21.42 204.62 21.98 204.62 22.7V31.78H212.66C213.273 31.78 213.793 31.9933 214.22 32.42C214.647 32.8467 214.86 33.3667 214.86 33.98C214.86 34.5667 214.647 35.0867 214.22 35.54C213.793 35.9667 213.273 36.18 212.66 36.18H204.78C205.153 39.5667 206.18 42.5667 207.86 45.18C209.567 47.7667 211.727 49.9667 214.34 51.78C214.873 52.1267 215.18 52.62 215.26 53.26C215.34 53.9 215.167 54.4733 214.74 54.98C214.287 55.5667 213.727 55.8867 213.06 55.94C212.42 55.9933 211.807 55.8067 211.22 55.38ZM187.82 56.86C187.207 56.86 186.673 56.6467 186.22 56.22C185.767 55.82 185.54 55.2867 185.54 54.62V44.42C184.793 45.0067 183.993 45.62 183.14 46.26C182.313 46.8733 181.647 47.3533 181.14 47.7C180.553 48.0733 179.927 48.22 179.26 48.14C178.593 48.0333 178.073 47.6467 177.7 46.98C177.38 46.3933 177.3 45.8067 177.46 45.22C177.62 44.6333 177.98 44.1667 178.54 43.82C178.913 43.58 179.407 43.2467 180.02 42.82C180.66 42.3933 181.327 41.9267 182.02 41.42C182.713 40.9133 183.367 40.4333 183.98 39.98C184.62 39.5 185.14 39.1 185.54 38.78V33.66C185.38 34.1133 185.007 34.4867 184.42 34.78C183.833 35.1 183.22 35.1667 182.58 34.98C181.94 34.7933 181.473 34.4067 181.18 33.82C181.02 33.4733 180.767 32.9933 180.42 32.38C180.073 31.7667 179.727 31.1533 179.38 30.54C179.06 29.9267 178.807 29.46 178.62 29.14C178.273 28.6067 178.193 28.0333 178.38 27.42C178.567 26.8067 178.967 26.34 179.58 26.02C180.193 25.7 180.793 25.62 181.38 25.78C181.993 25.9133 182.473 26.2733 182.82 26.86C183.033 27.2067 183.313 27.7 183.66 28.34C184.007 28.98 184.34 29.62 184.66 30.26C185.007 30.8733 185.26 31.34 185.42 31.66L185.54 32.02V22.5C185.54 21.8067 185.767 21.26 186.22 20.86C186.673 20.46 187.207 20.26 187.82 20.26C188.433 20.26 188.953 20.46 189.38 20.86C189.833 21.26 190.06 21.8067 190.06 22.5V54.62C190.06 55.2867 189.833 55.82 189.38 56.22C188.953 56.6467 188.433 56.86 187.82 56.86ZM212.98 29.5C212.527 29.8733 211.993 30.0467 211.38 30.02C210.767 29.9667 210.273 29.7 209.9 29.22C209.713 28.98 209.433 28.6467 209.06 28.22C208.687 27.7667 208.3 27.3267 207.9 26.9C207.527 26.4467 207.22 26.1 206.98 25.86C206.607 25.4333 206.447 24.94 206.5 24.38C206.553 23.82 206.793 23.3667 207.22 23.02C207.673 22.62 208.18 22.42 208.74 22.42C209.3 22.42 209.793 22.6467 210.22 23.1C210.46 23.34 210.78 23.6733 211.18 24.1C211.58 24.5267 211.967 24.9533 212.34 25.38C212.74 25.8067 213.02 26.1267 213.18 26.34C213.66 26.8733 213.873 27.42 213.82 27.98C213.793 28.54 213.513 29.0467 212.98 29.5ZM234.06 55.26C233.393 55.26 232.82 55.0067 232.34 54.5C231.86 54.02 231.62 53.4467 231.62 52.78V25.14C231.62 24.4467 231.86 23.8733 232.34 23.42C232.82 22.94 233.393 22.7 234.06 22.7C234.753 22.7 235.34 22.94 235.82 23.42C236.3 23.8733 236.54 24.4467 236.54 25.14V34.78C236.887 34.2467 237.367 33.9 237.98 33.74C238.593 33.5533 239.193 33.62 239.78 33.94C241.353 34.7667 242.953 35.7133 244.58 36.78C246.233 37.82 247.66 38.8467 248.86 39.86C249.393 40.2867 249.687 40.86 249.74 41.58C249.82 42.2733 249.633 42.8867 249.18 43.42C248.753 43.9267 248.193 44.22 247.5 44.3C246.807 44.3533 246.193 44.1667 245.66 43.74C244.913 43.1533 244.047 42.5267 243.06 41.86C242.1 41.1933 241.127 40.5533 240.14 39.94C239.18 39.3 238.3 38.7533 237.5 38.3C237.073 38.06 236.753 37.7667 236.54 37.42V52.78C236.54 53.4467 236.3 54.02 235.82 54.5C235.34 55.0067 234.753 55.26 234.06 55.26ZM249.66 32.78C249.313 33.0733 248.887 33.1933 248.38 33.14C247.9 33.0867 247.513 32.86 247.22 32.46C246.953 32.06 246.593 31.5667 246.14 30.98C245.687 30.3933 245.273 29.8867 244.9 29.46C244.66 29.1667 244.553 28.8067 244.58 28.38C244.607 27.9533 244.793 27.5933 245.14 27.3C245.46 27.0067 245.82 26.8733 246.22 26.9C246.647 26.9267 247.02 27.0867 247.34 27.38C247.74 27.7267 248.193 28.1933 248.7 28.78C249.207 29.34 249.633 29.8467 249.98 30.3C250.273 30.7 250.38 31.14 250.3 31.62C250.247 32.0733 250.033 32.46 249.66 32.78ZM253.54 29.38C253.193 29.7267 252.767 29.8867 252.26 29.86C251.78 29.8333 251.393 29.6333 251.1 29.26C250.78 28.8867 250.38 28.4333 249.9 27.9C249.42 27.3667 248.98 26.8867 248.58 26.46C248.313 26.1667 248.167 25.82 248.14 25.42C248.14 24.9933 248.313 24.6067 248.66 24.26C248.953 23.9667 249.3 23.82 249.7 23.82C250.127 23.7933 250.513 23.9133 250.86 24.18C251.26 24.5 251.74 24.9267 252.3 25.46C252.86 25.9933 253.327 26.4867 253.7 26.94C253.993 27.2867 254.127 27.7 254.1 28.18C254.073 28.6333 253.887 29.0333 253.54 29.38ZM272.18 55.18C271.647 55.42 271.087 55.4333 270.5 55.22C269.94 55.0067 269.54 54.6333 269.3 54.1C269.06 53.54 269.047 52.98 269.26 52.42C269.473 51.86 269.847 51.46 270.38 51.22C273.1 49.9933 275.327 48.6067 277.06 47.06C278.82 45.4867 280.193 43.6867 281.18 41.66C282.167 39.6067 282.847 37.26 283.22 34.62C283.3 34.0067 283.58 33.5267 284.06 33.18C284.567 32.8333 285.113 32.7 285.7 32.78C286.287 32.86 286.753 33.14 287.1 33.62C287.473 34.1 287.607 34.6467 287.5 35.26C286.807 39.8467 285.207 43.8067 282.7 47.14C280.22 50.4467 276.713 53.1267 272.18 55.18ZM277.46 42.14C276.873 42.3267 276.327 42.3 275.82 42.06C275.313 41.7933 274.953 41.38 274.74 40.82C274.447 40.0467 274.073 39.1667 273.62 38.18C273.193 37.1933 272.833 36.4067 272.54 35.82C272.273 35.2867 272.207 34.74 272.34 34.18C272.473 33.5933 272.793 33.1533 273.3 32.86C273.833 32.54 274.393 32.46 274.98 32.62C275.567 32.7533 275.993 33.0867 276.26 33.62C276.66 34.3667 277.1 35.2867 277.58 36.38C278.087 37.4467 278.5 38.46 278.82 39.42C279.033 39.98 278.993 40.5267 278.7 41.06C278.433 41.5933 278.02 41.9533 277.46 42.14ZM270.9 43.66C270.367 43.9 269.82 43.9133 269.26 43.7C268.727 43.46 268.327 43.0733 268.06 42.54C267.633 41.66 267.18 40.8067 266.7 39.98C266.247 39.1267 265.833 38.4067 265.46 37.82C265.113 37.3133 264.98 36.7667 265.06 36.18C265.167 35.5933 265.46 35.1267 265.94 34.78C266.42 34.4333 266.953 34.3133 267.54 34.42C268.153 34.5 268.633 34.78 268.98 35.26C269.487 35.98 270.033 36.8867 270.62 37.98C271.207 39.0467 271.673 39.9933 272.02 40.82C272.287 41.3533 272.3 41.9 272.06 42.46C271.847 43.02 271.46 43.42 270.9 43.66ZM314.06 55.22C313.393 55.22 312.82 54.98 312.34 54.5C311.86 54.02 311.62 53.4467 311.62 52.78V25.14C311.62 24.4467 311.86 23.8733 312.34 23.42C312.82 22.94 313.393 22.7 314.06 22.7C314.753 22.7 315.34 22.94 315.82 23.42C316.3 23.8733 316.54 24.4467 316.54 25.14V34.78C316.887 34.2467 317.367 33.9 317.98 33.74C318.593 33.5533 319.193 33.6067 319.78 33.9C321.353 34.7267 322.953 35.6733 324.58 36.74C326.233 37.8067 327.66 38.8467 328.86 39.86C329.393 40.2867 329.687 40.86 329.74 41.58C329.82 42.2733 329.633 42.8867 329.18 43.42C328.753 43.9267 328.193 44.22 327.5 44.3C326.807 44.3533 326.193 44.1667 325.66 43.74C324.913 43.1533 324.047 42.5267 323.06 41.86C322.1 41.1933 321.127 40.5533 320.14 39.94C319.18 39.3 318.3 38.7533 317.5 38.3C317.073 38.06 316.753 37.7667 316.54 37.42V52.78C316.54 53.4467 316.3 54.02 315.82 54.5C315.34 54.98 314.753 55.22 314.06 55.22ZM345.1 49.34C344.433 49.34 343.847 49.1 343.34 48.62C342.86 48.1133 342.62 47.5267 342.62 46.86C342.62 46.1667 342.86 45.5933 343.34 45.14C343.847 44.66 344.433 44.42 345.1 44.42H359.06C360.687 44.42 361.913 44.3 362.74 44.06C363.567 43.7933 364.113 43.2467 364.38 42.42C364.673 41.5933 364.82 40.3267 364.82 38.62C364.82 36.8867 364.673 35.62 364.38 34.82C364.113 33.9933 363.567 33.46 362.74 33.22C361.94 32.9533 360.727 32.82 359.1 32.82H345.54C344.873 32.82 344.3 32.58 343.82 32.1C343.34 31.62 343.1 31.0333 343.1 30.34C343.1 29.6467 343.34 29.0733 343.82 28.62C344.3 28.14 344.873 27.9 345.54 27.9H359.1C361.18 27.9 362.9 28.06 364.26 28.38C365.647 28.7 366.74 29.26 367.54 30.06C368.34 30.86 368.9 31.9533 369.22 33.34C369.567 34.7267 369.74 36.4867 369.74 38.62C369.74 40.7533 369.567 42.5133 369.22 43.9C368.9 45.2867 368.34 46.38 367.54 47.18C366.74 47.98 365.647 48.54 364.26 48.86C362.873 49.18 361.14 49.34 359.06 49.34H345.1ZM411.02 52.18C410.433 52.5 409.807 52.5533 409.14 52.34C408.5 52.1267 408.007 51.7267 407.66 51.14C407.393 50.66 407.033 50.1 406.58 49.46C406.127 48.82 405.633 48.1267 405.1 47.38C403.553 47.6467 401.793 47.9267 399.82 48.22C397.847 48.4867 395.793 48.7533 393.66 49.02C391.553 49.26 389.513 49.4867 387.54 49.7C385.567 49.8867 383.82 50.0333 382.3 50.14C381.633 50.1933 381.033 49.9933 380.5 49.54C379.993 49.0867 379.713 48.5267 379.66 47.86C379.633 47.1667 379.847 46.5667 380.3 46.06C380.78 45.5533 381.353 45.2867 382.02 45.26C382.447 45.2067 382.887 45.1667 383.34 45.14C383.793 45.1133 384.273 45.0867 384.78 45.06C385.58 43.8867 386.42 42.5267 387.3 40.98C388.207 39.4067 389.087 37.78 389.94 36.1C390.793 34.42 391.567 32.8067 392.26 31.26C392.98 29.7133 393.567 28.38 394.02 27.26C394.26 26.62 394.687 26.1533 395.3 25.86C395.913 25.5667 396.54 25.54 397.18 25.78C397.82 26.02 398.287 26.46 398.58 27.1C398.9 27.7133 398.927 28.3267 398.66 28.94C398.073 30.3267 397.34 31.9267 396.46 33.74C395.58 35.5267 394.62 37.3667 393.58 39.26C392.54 41.1267 391.487 42.9 390.42 44.58C392.393 44.3933 394.38 44.2067 396.38 44.02C398.407 43.8067 400.273 43.5933 401.98 43.38C401.42 42.6867 400.873 42.0333 400.34 41.42C399.807 40.8067 399.313 40.2867 398.86 39.86C398.407 39.3533 398.18 38.7667 398.18 38.1C398.207 37.4333 398.473 36.8733 398.98 36.42C399.487 35.9667 400.073 35.7533 400.74 35.78C401.407 35.8067 401.967 36.06 402.42 36.54C403.113 37.2333 403.913 38.1267 404.82 39.22C405.727 40.2867 406.647 41.42 407.58 42.62C408.54 43.82 409.42 44.9667 410.22 46.06C411.02 47.1533 411.633 48.0733 412.06 48.82C412.407 49.4067 412.473 50.0333 412.26 50.7C412.047 51.3667 411.633 51.86 411.02 52.18ZM440.78 53.38C440.113 53.54 439.487 53.4467 438.9 53.1C438.313 52.7533 437.94 52.26 437.78 51.62C437.62 50.98 437.713 50.38 438.06 49.82C438.407 49.2333 438.9 48.86 439.54 48.7C442.5 47.9267 444.673 46.6733 446.06 44.94C447.473 43.2067 448.18 41.0067 448.18 38.34C448.18 36.66 447.807 35.1533 447.06 33.82C446.313 32.4867 445.247 31.4067 443.86 30.58C442.5 29.7533 440.86 29.2467 438.94 29.06C438.46 33.54 437.647 37.42 436.5 40.7C435.38 43.9533 434.047 46.4733 432.5 48.26C430.98 50.02 429.38 50.9 427.7 50.9C426.287 50.9 424.993 50.4867 423.82 49.66C422.647 48.8333 421.713 47.6467 421.02 46.1C420.353 44.5533 420.02 42.7 420.02 40.54C420.02 38.3267 420.433 36.26 421.26 34.34C422.113 32.3933 423.313 30.6867 424.86 29.22C426.407 27.7533 428.22 26.6067 430.3 25.78C432.407 24.9533 434.713 24.54 437.22 24.54C440.26 24.54 442.953 25.1267 445.3 26.3C447.673 27.4467 449.54 29.06 450.9 31.14C452.26 33.1933 452.94 35.5933 452.94 38.34C452.94 42.2067 451.9 45.4333 449.82 48.02C447.767 50.58 444.753 52.3667 440.78 53.38ZM427.74 45.98C428.22 45.98 428.767 45.58 429.38 44.78C430.02 43.9533 430.66 42.7933 431.3 41.3C431.94 39.8067 432.527 38.0467 433.06 36.02C433.593 33.9667 433.993 31.7 434.26 29.22C432.18 29.62 430.433 30.3933 429.02 31.54C427.607 32.66 426.54 34.0067 425.82 35.58C425.1 37.1267 424.727 38.7533 424.7 40.46C424.7 42.2733 424.98 43.6467 425.54 44.58C426.127 45.5133 426.86 45.98 427.74 45.98ZM478.7 57.1C478.033 57.1 477.447 56.8733 476.94 56.42C476.46 55.9667 476.22 55.3667 476.22 54.62V47.98H459.82C459.233 47.98 458.74 47.78 458.34 47.38C457.94 46.98 457.74 46.4867 457.74 45.9C457.74 45.3133 457.94 44.82 458.34 44.42C458.74 44.02 459.233 43.82 459.82 43.82H465.02V40.46C465.02 38.8067 465.247 37.5 465.7 36.54C466.153 35.58 466.927 34.9 468.02 34.5C469.14 34.0733 470.687 33.86 472.66 33.86H476.22V29.3H468.02C467.247 30.4467 466.433 31.5533 465.58 32.62C464.727 33.66 463.873 34.62 463.02 35.5C462.513 36.0067 461.913 36.3 461.22 36.38C460.553 36.46 459.953 36.26 459.42 35.78C458.913 35.3533 458.647 34.8333 458.62 34.22C458.593 33.58 458.833 33.0067 459.34 32.5C460.433 31.4333 461.487 30.22 462.5 28.86C463.54 27.5 464.5 26.1133 465.38 24.7C466.26 23.2867 466.98 21.98 467.54 20.78C467.833 20.1933 468.287 19.7933 468.9 19.58C469.54 19.3667 470.14 19.4067 470.7 19.7C471.287 19.9667 471.687 20.38 471.9 20.94C472.113 21.4733 472.073 22.0333 471.78 22.62C471.433 23.42 471.033 24.22 470.58 25.02H491.26C491.847 25.02 492.34 25.2333 492.74 25.66C493.167 26.06 493.38 26.5533 493.38 27.14C493.38 27.7267 493.167 28.2333 492.74 28.66C492.34 29.0867 491.847 29.3 491.26 29.3H481.18V33.86H488.74C489.327 33.86 489.82 34.0733 490.22 34.5C490.62 34.9 490.82 35.3933 490.82 35.98C490.82 36.5667 490.62 37.0733 490.22 37.5C489.82 37.9 489.327 38.1 488.74 38.1H481.18V43.82H493.02C493.607 43.82 494.1 44.02 494.5 44.42C494.9 44.82 495.1 45.3133 495.1 45.9C495.1 46.4867 494.9 46.98 494.5 47.38C494.1 47.78 493.607 47.98 493.02 47.98H481.18V54.62C481.18 55.3667 480.94 55.9667 480.46 56.42C479.98 56.8733 479.393 57.1 478.7 57.1ZM469.94 43.82H476.22V38.1H472.66C471.54 38.1 470.807 38.2467 470.46 38.54C470.113 38.8067 469.94 39.4467 469.94 40.46V43.82ZM503.14 56.82C502.447 57.0067 501.833 57.0067 501.3 56.82C500.767 56.66 500.393 56.2733 500.18 55.66C500.02 55.1267 500.06 54.58 500.3 54.02C500.54 53.4867 500.953 53.1533 501.54 53.02C502.233 52.86 503.007 52.6467 503.86 52.38C504.74 52.0867 505.633 51.7667 506.54 51.42C507.473 51.0733 508.313 50.7267 509.06 50.38C507.38 50.1133 506.18 49.54 505.46 48.66C504.74 47.7533 504.38 46.4067 504.38 44.62V39.9C504.38 37.6867 504.94 36.1533 506.06 35.3C507.18 34.42 509.1 33.98 511.82 33.98H521.3C524.047 33.98 525.98 34.42 527.1 35.3C528.22 36.1533 528.78 37.6867 528.78 39.9V44.62C528.78 46.4333 528.407 47.7933 527.66 48.7C526.94 49.58 525.713 50.14 523.98 50.38C525.127 50.9133 526.407 51.4333 527.82 51.94C529.233 52.4467 530.447 52.8067 531.46 53.02C532.073 53.1533 532.487 53.4867 532.7 54.02C532.94 54.58 532.98 55.1267 532.82 55.66C532.607 56.2733 532.233 56.66 531.7 56.82C531.167 57.0067 530.553 57.0067 529.86 56.82C529.007 56.58 528.02 56.2467 526.9 55.82C525.807 55.42 524.727 54.9933 523.66 54.54C522.593 54.0867 521.687 53.66 520.94 53.26C520.433 52.9667 520.127 52.58 520.02 52.1C519.913 51.5933 519.98 51.1133 520.22 50.66C520.247 50.6333 520.26 50.62 520.26 50.62C520.26 50.5933 520.273 50.5667 520.3 50.54H512.7C512.753 50.5933 512.78 50.6333 512.78 50.66C513.02 51.1133 513.087 51.5933 512.98 52.1C512.9 52.58 512.593 52.9667 512.06 53.26C511.313 53.66 510.407 54.0867 509.34 54.54C508.273 54.9933 507.193 55.42 506.1 55.82C505.007 56.2467 504.02 56.58 503.14 56.82ZM501.94 35.54C501.407 35.8867 500.807 36.0467 500.14 36.02C499.473 35.9933 498.953 35.7 498.58 35.14C498.287 34.6867 498.193 34.18 498.3 33.62C498.407 33.0333 498.7 32.6067 499.18 32.34C500.593 31.5667 501.74 30.6867 502.62 29.7C503.5 28.7133 504.193 27.54 504.7 26.18H500.5C499.967 26.18 499.54 26.02 499.22 25.7C498.9 25.3533 498.74 24.94 498.74 24.46C498.74 23.9533 498.9 23.5267 499.22 23.18C499.54 22.8333 499.967 22.66 500.5 22.66H505.5C505.553 22.4467 505.58 22.22 505.58 21.98C505.607 21.7133 505.633 21.46 505.66 21.22C505.713 20.5267 505.98 20.0333 506.46 19.74C506.94 19.4467 507.487 19.3267 508.1 19.38C508.66 19.4333 509.127 19.66 509.5 20.06C509.873 20.46 510.033 20.9933 509.98 21.66C509.953 21.8467 509.927 22.02 509.9 22.18C509.9 22.34 509.887 22.5 509.86 22.66H512.38C513.98 22.66 515.153 23.06 515.9 23.86C516.673 24.6333 516.953 25.8867 516.74 27.62C516.553 29.1667 516.22 30.3533 515.74 31.18C515.287 32.0067 514.633 32.58 513.78 32.9C512.953 33.22 511.873 33.38 510.54 33.38C509.98 33.38 509.5 33.22 509.1 32.9C508.727 32.5533 508.513 32.0867 508.46 31.5C508.433 30.9667 508.58 30.5133 508.9 30.14C509.22 29.74 509.633 29.5267 510.14 29.5C511.02 29.4467 511.58 29.3267 511.82 29.14C512.087 28.9533 512.287 28.4867 512.42 27.74C512.527 27.1533 512.5 26.7533 512.34 26.54C512.18 26.3 511.753 26.18 511.06 26.18H509.02C508.353 28.26 507.42 30.0867 506.22 31.66C505.02 33.2067 503.593 34.5 501.94 35.54ZM524.94 32.5C523.473 32.5 522.287 32.3533 521.38 32.06C520.5 31.74 519.86 31.1933 519.46 30.42C519.087 29.62 518.9 28.4867 518.9 27.02C518.9 25.5267 519.087 24.3933 519.46 23.62C519.86 22.82 520.5 22.2733 521.38 21.98C522.287 21.66 523.473 21.5 524.94 21.5H527.26C528.753 21.5 529.94 21.66 530.82 21.98C531.7 22.2733 532.327 22.82 532.7 23.62C533.1 24.3933 533.3 25.5267 533.3 27.02C533.3 28.4867 533.1 29.62 532.7 30.42C532.327 31.1933 531.7 31.74 530.82 32.06C529.94 32.3533 528.753 32.5 527.26 32.5H524.94ZM509.14 43.02H523.98V41.42H509.14V43.02ZM525.14 28.98H527.06C527.967 28.98 528.553 28.86 528.82 28.62C529.087 28.3533 529.22 27.82 529.22 27.02C529.22 26.1933 529.087 25.66 528.82 25.42C528.553 25.1533 527.967 25.02 527.06 25.02H525.14C524.233 25.02 523.647 25.1533 523.38 25.42C523.113 25.66 522.98 26.1933 522.98 27.02C522.98 27.82 523.113 28.3533 523.38 28.62C523.647 28.86 524.233 28.98 525.14 28.98ZM511.9 47.3H521.26C522.22 47.3 522.887 47.1933 523.26 46.98C523.633 46.7667 523.86 46.34 523.94 45.7H509.22C509.273 46.34 509.487 46.7667 509.86 46.98C510.26 47.1933 510.94 47.3 511.9 47.3ZM509.22 38.74H523.94C523.833 38.1533 523.593 37.7667 523.22 37.58C522.847 37.3667 522.193 37.26 521.26 37.26H511.9C510.967 37.26 510.3 37.3667 509.9 37.58C509.527 37.7667 509.3 38.1533 509.22 38.74ZM571.22 55.38C569.113 53.8067 567.34 52.0467 565.9 50.1C564.487 48.1267 563.353 46.0467 562.5 43.86C561.753 46.0467 560.713 48.1133 559.38 50.06C558.073 51.98 556.42 53.7133 554.42 55.26C553.887 55.66 553.273 55.86 552.58 55.86C551.913 55.86 551.353 55.5667 550.9 54.98C550.527 54.4467 550.393 53.8733 550.5 53.26C550.607 52.6467 550.927 52.1533 551.46 51.78C556.527 48.18 559.34 42.98 559.9 36.18H553.18C552.593 36.18 552.087 35.9667 551.66 35.54C551.233 35.0867 551.02 34.5667 551.02 33.98C551.02 33.3667 551.233 32.8467 551.66 32.42C552.087 31.9933 552.593 31.78 553.18 31.78H560.02V22.7C560.02 21.98 560.26 21.42 560.74 21.02C561.22 20.5933 561.753 20.38 562.34 20.38C562.98 20.38 563.513 20.5933 563.94 21.02C564.393 21.42 564.62 21.98 564.62 22.7V31.78H572.66C573.273 31.78 573.793 31.9933 574.22 32.42C574.647 32.8467 574.86 33.3667 574.86 33.98C574.86 34.5667 574.647 35.0867 574.22 35.54C573.793 35.9667 573.273 36.18 572.66 36.18H564.78C565.153 39.5667 566.18 42.5667 567.86 45.18C569.567 47.7667 571.727 49.9667 574.34 51.78C574.873 52.1267 575.18 52.62 575.26 53.26C575.34 53.9 575.167 54.4733 574.74 54.98C574.287 55.5667 573.727 55.8867 573.06 55.94C572.42 55.9933 571.807 55.8067 571.22 55.38ZM547.82 56.86C547.207 56.86 546.673 56.6467 546.22 56.22C545.767 55.82 545.54 55.2867 545.54 54.62V44.42C544.793 45.0067 543.993 45.62 543.14 46.26C542.313 46.8733 541.647 47.3533 541.14 47.7C540.553 48.0733 539.927 48.22 539.26 48.14C538.593 48.0333 538.073 47.6467 537.7 46.98C537.38 46.3933 537.3 45.8067 537.46 45.22C537.62 44.6333 537.98 44.1667 538.54 43.82C538.913 43.58 539.407 43.2467 540.02 42.82C540.66 42.3933 541.327 41.9267 542.02 41.42C542.713 40.9133 543.367 40.4333 543.98 39.98C544.62 39.5 545.14 39.1 545.54 38.78V33.66C545.38 34.1133 545.007 34.4867 544.42 34.78C543.833 35.1 543.22 35.1667 542.58 34.98C541.94 34.7933 541.473 34.4067 541.18 33.82C541.02 33.4733 540.767 32.9933 540.42 32.38C540.073 31.7667 539.727 31.1533 539.38 30.54C539.06 29.9267 538.807 29.46 538.62 29.14C538.273 28.6067 538.193 28.0333 538.38 27.42C538.567 26.8067 538.967 26.34 539.58 26.02C540.193 25.7 540.793 25.62 541.38 25.78C541.993 25.9133 542.473 26.2733 542.82 26.86C543.033 27.2067 543.313 27.7 543.66 28.34C544.007 28.98 544.34 29.62 544.66 30.26C545.007 30.8733 545.26 31.34 545.42 31.66L545.54 32.02V22.5C545.54 21.8067 545.767 21.26 546.22 20.86C546.673 20.46 547.207 20.26 547.82 20.26C548.433 20.26 548.953 20.46 549.38 20.86C549.833 21.26 550.06 21.8067 550.06 22.5V54.62C550.06 55.2867 549.833 55.82 549.38 56.22C548.953 56.6467 548.433 56.86 547.82 56.86ZM572.98 29.5C572.527 29.8733 571.993 30.0467 571.38 30.02C570.767 29.9667 570.273 29.7 569.9 29.22C569.713 28.98 569.433 28.6467 569.06 28.22C568.687 27.7667 568.3 27.3267 567.9 26.9C567.527 26.4467 567.22 26.1 566.98 25.86C566.607 25.4333 566.447 24.94 566.5 24.38C566.553 23.82 566.793 23.3667 567.22 23.02C567.673 22.62 568.18 22.42 568.74 22.42C569.3 22.42 569.793 22.6467 570.22 23.1C570.46 23.34 570.78 23.6733 571.18 24.1C571.58 24.5267 571.967 24.9533 572.34 25.38C572.74 25.8067 573.02 26.1267 573.18 26.34C573.66 26.8733 573.873 27.42 573.82 27.98C573.793 28.54 573.513 29.0467 572.98 29.5Z" fill="#010F32"/>
<g clip-path="url(#clip0_444_1209)">
<path d="M35.4999 29.1564C32.5356 29.1564 30.0913 26.7368 30.0913 23.8024C30.0913 20.8681 32.5356 18.5 35.4999 18.5C38.4643 18.5 40.9085 20.9196 40.9085 23.8539C40.9085 26.7883 38.4643 29.1564 35.4999 29.1564ZM35.4999 21.8462C34.4078 21.8462 33.4717 22.7214 33.4717 23.8539C33.4717 24.9865 34.3558 25.8616 35.4999 25.8616C36.5921 25.8616 37.5282 24.9865 37.5282 23.8539C37.5282 22.7214 36.5921 21.8462 35.4999 21.8462Z" fill="#010F32"/>
<path d="M50.3217 36.5184C47.3574 36.5184 44.9131 34.0988 44.9131 31.1645C44.9131 28.2301 47.3574 25.8105 50.3217 25.8105C53.286 25.8105 55.7303 28.2301 55.7303 31.1645C55.7303 34.0988 53.286 36.5184 50.3217 36.5184ZM50.3217 29.1568C49.2296 29.1568 48.2935 30.0319 48.2935 31.1645C48.2935 32.297 49.1776 33.1722 50.3217 33.1722C51.4138 33.1722 52.3499 32.297 52.3499 31.1645C52.3499 30.0319 51.4138 29.1568 50.3217 29.1568Z" fill="#010F32"/>
<path d="M65.0912 43.8289C62.1269 43.8289 59.6826 41.4094 59.6826 38.475C59.6826 35.5407 62.1269 33.1211 65.0912 33.1211C68.0556 33.1211 70.4999 35.5407 70.4999 38.475C70.4999 41.4609 68.1076 43.8289 65.0912 43.8289ZM65.0912 36.5188C63.9991 36.5188 63.063 37.3939 63.063 38.5265C63.063 39.6591 63.9471 40.5342 65.0912 40.5342C66.1834 40.5342 67.1195 39.6591 67.1195 38.5265C67.1195 37.3939 66.2354 36.5188 65.0912 36.5188Z" fill="#010F32"/>
<path d="M50.3217 51.1375C47.3574 51.1375 44.9131 48.718 44.9131 45.7836C44.9131 42.8493 47.3574 40.4297 50.3217 40.4297C53.286 40.4297 55.7303 42.8493 55.7303 45.7836C55.6783 48.7695 53.286 51.1375 50.3217 51.1375ZM50.3217 43.8274C49.2296 43.8274 48.2935 44.7025 48.2935 45.8351C48.2935 46.9162 49.1776 47.8428 50.3217 47.8428C51.4138 47.8428 52.3499 46.9677 52.3499 45.8351C52.2979 44.7025 51.4138 43.8274 50.3217 43.8274Z" fill="#010F32"/>
<path d="M35.4999 58.5008C32.5356 58.5008 30.0913 56.0813 30.0913 53.1469C30.0913 50.2125 32.5356 47.793 35.4999 47.793C38.4643 47.793 40.9085 50.2125 40.9085 53.1469C40.9085 56.0813 38.4643 58.5008 35.4999 58.5008ZM35.4999 51.1392C34.4078 51.1392 33.4717 52.0143 33.4717 53.1469C33.4717 54.228 34.3558 55.1546 35.4999 55.1546C36.5921 55.1546 37.5282 54.2795 37.5282 53.1469C37.5282 52.0658 36.5921 51.1392 35.4999 51.1392Z" fill="#010F32"/>
<path d="M35.4999 43.8289C32.5356 43.8289 30.0913 41.4094 30.0913 38.475C30.0913 35.5407 32.5356 33.1211 35.4999 33.1211C38.4643 33.1211 40.9085 35.5407 40.9085 38.475C40.9085 41.4609 38.4643 43.8289 35.4999 43.8289ZM35.4999 36.5188C34.4078 36.5188 33.4717 37.3939 33.4717 38.5265C33.4717 39.6591 34.3558 40.5342 35.4999 40.5342C36.5921 40.5342 37.5282 39.6591 37.5282 38.5265C37.5282 37.3939 36.5921 36.5188 35.4999 36.5188Z" fill="#010F32"/>
<path d="M20.6781 51.1375C17.7138 51.1375 15.2695 48.718 15.2695 45.7836C15.2695 42.8493 17.7138 40.4297 20.6781 40.4297C23.6425 40.4297 26.0868 42.8493 26.0868 45.7836C26.0868 48.7695 23.6945 51.1375 20.6781 51.1375ZM20.6781 43.8274C19.586 43.8274 18.6499 44.7025 18.6499 45.8351C18.6499 46.9162 19.534 47.8428 20.6781 47.8428C21.7703 47.8428 22.7064 46.9677 22.7064 45.8351C22.7064 44.7025 21.8223 43.8274 20.6781 43.8274Z" fill="#010F32"/>
<path d="M5.90862 43.8289C2.94428 43.8289 0.5 41.4609 0.5 38.475C0.5 35.5407 2.94428 33.1211 5.90862 33.1211C8.87296 33.1211 11.3172 35.5407 11.3172 38.475C11.2652 41.4609 8.87296 43.8289 5.90862 43.8289ZM5.90862 36.5188C4.81649 36.5188 3.88039 37.3939 3.88039 38.5265C3.88039 39.6591 4.76449 40.5342 5.90862 40.5342C7.00074 40.5342 7.93685 39.6591 7.93685 38.5265C7.93685 37.3939 7.00074 36.5188 5.90862 36.5188Z" fill="#010F32"/>
<path d="M20.6784 36.5184C17.7141 36.5184 15.2698 34.0988 15.2698 31.1645C15.2698 28.2301 17.7141 25.8105 20.6784 25.8105C23.6427 25.8105 26.087 28.2301 26.087 31.1645C26.087 34.0988 23.6947 36.5184 20.6784 36.5184ZM20.6784 29.1568C19.5863 29.1568 18.6502 30.0319 18.6502 31.1645C18.6502 32.297 19.5343 33.1722 20.6784 33.1722C21.7705 33.1722 22.7066 32.297 22.7066 31.1645C22.7066 30.0319 21.8225 29.1568 20.6784 29.1568Z" fill="#010F32"/>
</g>
<g clip-path="url(#clip1_444_1209)">
<path d="M635.5 29.1564C632.536 29.1564 630.091 26.7368 630.091 23.8024C630.091 20.8681 632.536 18.5 635.5 18.5C638.464 18.5 640.909 20.9196 640.909 23.8539C640.909 26.7883 638.464 29.1564 635.5 29.1564ZM635.5 21.8462C634.408 21.8462 633.472 22.7214 633.472 23.8539C633.472 24.9865 634.356 25.8616 635.5 25.8616C636.592 25.8616 637.528 24.9865 637.528 23.8539C637.528 22.7214 636.592 21.8462 635.5 21.8462Z" fill="#010F32"/>
<path d="M650.322 36.5184C647.357 36.5184 644.913 34.0988 644.913 31.1645C644.913 28.2301 647.357 25.8105 650.322 25.8105C653.286 25.8105 655.73 28.2301 655.73 31.1645C655.73 34.0988 653.286 36.5184 650.322 36.5184ZM650.322 29.1568C649.23 29.1568 648.293 30.0319 648.293 31.1645C648.293 32.297 649.178 33.1722 650.322 33.1722C651.414 33.1722 652.35 32.297 652.35 31.1645C652.35 30.0319 651.414 29.1568 650.322 29.1568Z" fill="#010F32"/>
<path d="M665.091 43.8289C662.127 43.8289 659.683 41.4094 659.683 38.475C659.683 35.5407 662.127 33.1211 665.091 33.1211C668.056 33.1211 670.5 35.5407 670.5 38.475C670.5 41.4609 668.108 43.8289 665.091 43.8289ZM665.091 36.5188C663.999 36.5188 663.063 37.3939 663.063 38.5265C663.063 39.6591 663.947 40.5342 665.091 40.5342C666.183 40.5342 667.119 39.6591 667.119 38.5265C667.119 37.3939 666.235 36.5188 665.091 36.5188Z" fill="#010F32"/>
<path d="M650.322 51.1375C647.357 51.1375 644.913 48.718 644.913 45.7836C644.913 42.8493 647.357 40.4297 650.322 40.4297C653.286 40.4297 655.73 42.8493 655.73 45.7836C655.678 48.7695 653.286 51.1375 650.322 51.1375ZM650.322 43.8274C649.23 43.8274 648.293 44.7025 648.293 45.8351C648.293 46.9162 649.178 47.8428 650.322 47.8428C651.414 47.8428 652.35 46.9677 652.35 45.8351C652.298 44.7025 651.414 43.8274 650.322 43.8274Z" fill="#010F32"/>
<path d="M635.5 58.5008C632.536 58.5008 630.091 56.0813 630.091 53.1469C630.091 50.2125 632.536 47.793 635.5 47.793C638.464 47.793 640.909 50.2125 640.909 53.1469C640.909 56.0813 638.464 58.5008 635.5 58.5008ZM635.5 51.1392C634.408 51.1392 633.472 52.0143 633.472 53.1469C633.472 54.228 634.356 55.1546 635.5 55.1546C636.592 55.1546 637.528 54.2795 637.528 53.1469C637.528 52.0658 636.592 51.1392 635.5 51.1392Z" fill="#010F32"/>
<path d="M635.5 43.8289C632.536 43.8289 630.091 41.4094 630.091 38.475C630.091 35.5407 632.536 33.1211 635.5 33.1211C638.464 33.1211 640.909 35.5407 640.909 38.475C640.909 41.4609 638.464 43.8289 635.5 43.8289ZM635.5 36.5188C634.408 36.5188 633.472 37.3939 633.472 38.5265C633.472 39.6591 634.356 40.5342 635.5 40.5342C636.592 40.5342 637.528 39.6591 637.528 38.5265C637.528 37.3939 636.592 36.5188 635.5 36.5188Z" fill="#010F32"/>
<path d="M620.678 51.1375C617.714 51.1375 615.27 48.718 615.27 45.7836C615.27 42.8493 617.714 40.4297 620.678 40.4297C623.642 40.4297 626.087 42.8493 626.087 45.7836C626.087 48.7695 623.694 51.1375 620.678 51.1375ZM620.678 43.8274C619.586 43.8274 618.65 44.7025 618.65 45.8351C618.65 46.9162 619.534 47.8428 620.678 47.8428C621.77 47.8428 622.706 46.9677 622.706 45.8351C622.706 44.7025 621.822 43.8274 620.678 43.8274Z" fill="#010F32"/>
<path d="M605.909 43.8289C602.944 43.8289 600.5 41.4609 600.5 38.475C600.5 35.5407 602.944 33.1211 605.909 33.1211C608.873 33.1211 611.317 35.5407 611.317 38.475C611.265 41.4609 608.873 43.8289 605.909 43.8289ZM605.909 36.5188C604.816 36.5188 603.88 37.3939 603.88 38.5265C603.88 39.6591 604.764 40.5342 605.909 40.5342C607.001 40.5342 607.937 39.6591 607.937 38.5265C607.937 37.3939 607.001 36.5188 605.909 36.5188Z" fill="#010F32"/>
<path d="M620.678 36.5184C617.714 36.5184 615.27 34.0988 615.27 31.1645C615.27 28.2301 617.714 25.8105 620.678 25.8105C623.643 25.8105 626.087 28.2301 626.087 31.1645C626.087 34.0988 623.695 36.5184 620.678 36.5184ZM620.678 29.1568C619.586 29.1568 618.65 30.0319 618.65 31.1645C618.65 32.297 619.534 33.1722 620.678 33.1722C621.771 33.1722 622.707 32.297 622.707 31.1645C622.707 30.0319 621.823 29.1568 620.678 29.1568Z" fill="#010F32"/>
</g>
<defs>
<clipPath id="clip0_444_1209">
<rect width="70" height="40" fill="white" transform="translate(0.5 18.5)"/>
</clipPath>
<clipPath id="clip1_444_1209">
<rect width="70" height="40" fill="white" transform="translate(600.5 18.5)"/>
</clipPath>
</defs>
</svg>
