<svg width="433" height="96" viewBox="0 0 433 96" fill="none" xmlns="http://www.w3.org/2000/svg">
<path d="M11.9 35.3C9.70004 35.3 7.70005 35.1 6.30005 34.9C4.90005 34.5 3.70004 34.1 2.70004 33.3C1.90004 32.5 1.30004 31.5 0.90004 30.1C0.50004 28.7 0.300049 26.9 0.300049 24.7V14.1C0.300049 11.9 0.50004 10.1 0.90004 8.70001C1.30004 7.30001 1.90004 6.3 2.70004 5.5C3.50004 4.7 4.70005 4.10002 6.30005 3.90002C7.70005 3.50002 9.70004 3.5 11.9 3.5H14.9C17.1 3.5 19.1 3.70002 20.5 3.90002C21.9 4.10002 23.1001 4.7 24.1001 5.5C24.9001 6.3 25.5 7.30001 25.9 8.70001C26.3 10.1 26.5 11.9 26.5 14.1V24.7C26.5 26.9 26.3 28.7 25.9 30.1C25.5 31.5 24.9001 32.5 24.1001 33.3C23.3001 34.1 22.1 34.7 20.5 34.9C18.9 35.1 17.1 35.3 14.9 35.3H11.9ZM5.30005 16.9H21.7V14.1C21.7 12.3 21.5 11.1 21.3 10.1C20.9 9.29998 20.3 8.69999 19.3 8.29999C18.3 8.09999 16.9001 7.90002 15.1001 7.90002H12.1001C10.3001 7.90002 8.90004 8.09999 7.90004 8.29999C6.90004 8.49999 6.30004 9.09998 5.90004 10.1C5.50004 10.9 5.50005 12.3 5.50005 14.1V16.9H5.30005ZM11.9 30.9H14.9C16.7 30.9 18.3001 30.7 19.1001 30.5C20.1001 30.1 20.7001 29.7 21.1001 28.7C21.5001 27.9 21.5 26.5 21.5 24.7V21.3H5.10005V24.7C5.10005 26.5 5.30005 27.7 5.50005 28.7C5.90005 29.5 6.50005 30.1 7.50005 30.5C8.70005 30.7 10.1 30.9 11.9 30.9Z" fill="#010F32"/>
<path d="M53.4998 37.9004C52.8998 37.9004 52.2997 37.7004 51.8997 37.3004C51.4997 36.9004 51.2998 36.3004 51.2998 35.5004V30.9004H46.4998C45.8998 30.9004 45.4997 30.7004 44.8997 30.3004C44.4997 29.9004 44.2998 29.3004 44.2998 28.7004C44.2998 28.1004 44.4997 27.5003 44.8997 27.1003C45.2997 26.7003 45.8998 26.5004 46.4998 26.5004H51.2998V16.9004C50.2998 18.5004 48.8998 20.1004 47.6998 21.9004C46.2998 23.5004 44.8998 25.1004 43.2998 26.7004C41.6998 28.1004 40.2997 29.5004 38.8997 30.7004C38.2997 31.1004 37.6998 31.3004 37.0998 31.3004C36.2998 31.3004 35.6998 31.1004 35.2998 30.5004C34.8998 29.9004 34.6997 29.3004 34.8997 28.7004C35.0997 28.1004 35.2997 27.5003 35.8997 27.1003C37.4997 25.9003 39.0997 24.5004 40.8997 22.9004C42.6997 21.3004 44.0998 19.5004 45.6998 17.9004C47.0998 16.1004 48.4998 14.5004 49.4998 12.9004H37.8997C37.2997 12.9004 36.8998 12.7004 36.2998 12.3004C35.8998 11.9004 35.6998 11.3004 35.6998 10.7004C35.6998 10.1004 35.8998 9.50034 36.2998 9.10034C36.6998 8.70034 37.2997 8.50037 37.8997 8.50037H51.6998V3.10034C51.6998 2.50034 51.8998 1.90037 52.2998 1.50037C52.6998 1.10037 53.2997 0.900391 53.8997 0.900391C54.4997 0.900391 55.0998 1.10037 55.4998 1.50037C55.8998 1.90037 56.0998 2.50034 56.0998 3.10034V8.50037H69.8997C70.4997 8.50037 71.0998 8.70034 71.4998 9.10034C71.8998 9.50034 72.0998 10.1004 72.0998 10.7004C72.0998 11.3004 71.8998 11.7004 71.4998 12.3004C71.0998 12.7004 70.4997 12.9004 69.8997 12.9004H58.2998C59.2998 14.5004 60.6998 16.3004 62.0998 17.9004C63.6998 19.7004 65.2997 21.3004 66.8997 22.9004C68.6997 24.5004 70.2998 25.9003 71.8997 27.1003C72.4997 27.5003 72.6998 27.9004 72.6998 28.7004C72.6998 29.5004 72.4998 29.9004 72.0998 30.3004C71.6998 30.9004 71.0998 31.1004 70.4998 31.3004C69.8998 31.5004 69.2998 31.3004 68.6998 30.7004C67.2998 29.5004 65.6998 28.1004 64.2998 26.7004C62.6998 25.3004 61.2997 23.7004 59.8997 21.9004C58.4997 20.3004 57.0998 18.5004 56.0998 16.7004V26.5004H61.0998C61.6998 26.5004 62.2998 26.7003 62.6998 27.1003C63.0998 27.5003 63.2998 28.1004 63.2998 28.7004C63.2998 29.3004 63.0998 29.9004 62.6998 30.3004C62.2998 30.7004 61.6998 30.9004 61.0998 30.9004H56.0998V35.5004C56.0998 36.3004 55.8998 36.7004 55.4998 37.3004C54.6998 37.7004 54.0998 37.9004 53.4998 37.9004Z" fill="#010F32"/>
<path d="M86.3002 36.0996C85.7002 36.4996 85.1002 36.6996 84.5002 36.6996C83.9002 36.6996 83.3001 36.2996 82.9001 35.6996C82.5001 35.0996 82.3002 34.4997 82.3002 33.8997C82.3002 33.2997 82.7002 32.6996 83.3002 32.2996C85.1002 30.8996 86.7001 29.2996 87.9001 27.2996C89.1001 25.2996 89.9002 23.2996 90.3002 21.0996C90.7002 18.8996 90.7002 16.4996 90.3002 14.0996C90.1002 13.4996 90.3001 12.6996 90.7001 12.2996C91.1001 11.8996 91.5002 11.4996 92.3002 11.2996C92.9002 11.0996 93.7002 11.2996 94.1002 11.6996C94.7002 12.0996 94.9002 12.6996 95.1002 13.2996C95.1002 13.4996 95.1002 13.6997 95.1002 13.8997C95.1002 14.0997 95.1002 14.2996 95.1002 14.4996C97.5002 14.2996 99.3002 14.0997 100.5 13.8997C101.7 13.6997 102.5 13.2997 102.9 12.8997C103.3 12.4997 103.5 12.0996 103.5 11.6996C103.5 11.0996 103.3 10.6996 102.9 10.4996C102.5 10.0996 101.9 10.0996 100.7 10.0996H79.5002C78.9002 10.0996 78.3001 9.89962 77.7001 9.29962C77.3001 8.89962 76.9001 8.29963 76.9001 7.49963C76.9001 6.89963 77.1001 6.29965 77.7001 5.69965C78.1001 5.29965 78.7002 5.09961 79.5002 5.09961H100.7C105.9 5.09961 108.7 7.29963 108.7 11.4996C108.7 13.0996 108.3 14.4996 107.3 15.4996C106.3 16.4996 104.9 17.2997 102.9 17.8997C100.9 18.4997 98.3002 18.8996 95.1002 19.0996C94.9002 22.4996 93.9002 25.6996 92.3002 28.6996C91.1002 31.6996 88.9002 34.0996 86.3002 36.0996Z" fill="#010F32"/>
<path d="M119.9 29.2992C119.3 29.2992 118.7 29.0992 118.1 28.4992C117.7 28.0992 117.3 27.4992 117.3 26.6992C117.3 26.0992 117.5 25.4992 118.1 24.8992C118.5 24.4992 119.1 24.2992 119.9 24.2992H147.1C147.7 24.2992 148.3 24.4992 148.9 24.8992C149.5 25.2992 149.7 25.8992 149.7 26.6992C149.7 27.2992 149.5 27.8992 148.9 28.4992C148.3 29.0992 147.9 29.2992 147.1 29.2992H119.9ZM124.7 14.8992C124.1 14.8992 123.5 14.6992 122.9 14.0992C122.3 13.4992 122.1 13.0992 122.1 12.2992C122.1 11.6992 122.3 11.0992 122.9 10.4992C123.5 9.89921 123.9 9.69922 124.7 9.69922H142.3C142.9 9.69922 143.5 9.89921 144.1 10.4992C144.5 10.8992 144.9 11.4992 144.9 12.2992C144.9 12.8992 144.7 13.4992 144.1 14.0992C143.7 14.4992 143.1 14.8992 142.3 14.8992H124.7Z" fill="#010F32"/>
<path d="M180.3 32.8992C179.7 33.2992 179.1 33.2992 178.5 33.0992C177.9 32.8992 177.3 32.4992 177.1 31.8992C176.7 31.2992 176.3 30.4992 175.7 29.4992C175.1 28.4992 174.3 27.4992 173.7 26.2992C172.9 25.2992 172.1 24.0992 171.5 23.0992C170.9 22.0992 170.1 21.2992 169.5 20.6992C169.1 20.0992 168.7 19.6992 168.9 18.8992C168.9 18.2992 169.1 17.6992 169.7 17.0992C170.3 16.6992 170.9 16.4992 171.5 16.4992C172.1 16.4992 172.7 16.6992 173.3 17.2992C173.7 17.8992 174.3 18.2992 174.7 19.0992C175.1 19.8992 175.7 20.4992 176.3 21.0992C178.5 20.2992 180.1 19.4992 181.3 18.6992C182.5 18.0992 183.3 17.2992 183.7 16.6992C184.1 16.0992 184.3 15.4992 184.3 15.0992C184.3 14.4992 184.1 14.0992 183.7 13.8992C183.3 13.6992 182.5 13.4992 181.5 13.4992L159.9 14.2992C159.3 14.2992 158.7 14.0992 158.1 13.6992C157.5 13.2992 157.3 12.6992 157.3 11.8992C157.3 11.2992 157.5 10.6992 157.9 10.0992C158.3 9.69919 158.9 9.29921 159.5 9.29921L180.9 8.49922C183.9 8.29922 185.9 8.69923 187.1 9.69923C188.3 10.6992 189.1 12.0992 189.3 14.0992C189.5 15.6992 189.1 17.0992 188.3 18.2992C187.5 19.4992 186.3 20.6992 184.7 21.6992C183.1 22.6992 181.1 23.6992 178.9 24.4992C179.5 25.2992 180.1 26.0992 180.5 26.8992C180.9 27.6992 181.5 28.2992 181.7 28.8992C181.9 29.4992 182.1 30.0992 181.9 30.8992C181.3 32.0992 180.9 32.6992 180.3 32.8992Z" fill="#010F32"/>
<path d="M197.5 31.9004C196.9 32.1004 196.3 32.1004 195.7 31.9004C195.1 31.7004 194.5 31.3004 194.3 30.7004C194.1 30.1004 194.1 29.5004 194.3 28.7004C194.5 28.1004 194.9 27.5004 195.5 27.3004C197.7 26.3004 199.3 25.1004 200.7 23.5004C202.1 21.9004 202.9 20.3004 203.3 18.5004C203.7 16.7004 204.1 14.7004 204.1 12.5004C204.1 11.9004 204.3 11.3004 204.9 10.7004C205.3 10.3004 205.9 9.90039 206.7 9.90039C207.3 9.90039 207.9 10.1004 208.5 10.7004C209.1 11.3004 209.3 11.7004 209.3 12.5004C209.3 17.1004 208.3 21.1004 206.3 24.3004C203.9 27.7004 201.1 30.1004 197.5 31.9004ZM223.7 29.3004C221.3 30.1004 219.3 30.5004 217.7 30.5004C215.9 30.3004 214.7 29.7004 213.7 28.5004C212.7 27.3004 212.3 25.7004 212.3 23.3004V10.5004C212.3 9.90037 212.5 9.30038 213.1 8.70038C213.5 8.30038 214.1 7.90039 214.9 7.90039C215.5 7.90039 216.1 8.10038 216.7 8.70038C217.1 9.10038 217.3 9.70037 217.3 10.5004V22.5004C217.3 25.1004 218.9 25.7004 221.9 24.7004C223.1 24.3004 224.5 23.7003 225.9 23.1003C227.3 22.5003 228.7 21.9004 229.7 21.3004C230.3 21.1004 230.9 20.9003 231.5 21.1003C232.1 21.3003 232.7 21.7004 232.9 22.3004C233.3 22.9004 233.3 23.5003 233.1 24.1003C232.9 24.7003 232.5 25.3004 231.9 25.5004C230.7 26.1004 229.3 26.7004 227.9 27.3004C226.3 28.3004 224.9 28.9004 223.7 29.3004Z" fill="#010F32"/>
<path d="M251.1 36.3C250.5 36.3 249.9 36.1 249.3 35.5C248.9 35.1 248.5 34.5 248.5 33.7V6.09998C248.5 5.49998 248.7 4.89999 249.3 4.29999C249.7 3.89999 250.3 3.5 251.1 3.5C251.7 3.5 252.3 3.69999 252.9 4.29999C253.5 4.89999 253.7 5.29998 253.7 6.09998V15.7C254.1 15.1 254.5 14.9 255.1 14.7C255.7 14.5 256.3 14.5 256.9 14.9C258.5 15.7 260.1 16.7 261.7 17.7C263.3 18.7 264.7 19.9 265.9 20.9C266.5 21.3 266.7 21.9 266.7 22.7C266.7 23.5 266.5 24.1 266.1 24.5C265.7 25.1 265.1 25.3 264.5 25.3C263.9 25.3 263.1 25.1 262.7 24.7C261.9 24.1 261.1 23.5 260.1 22.9C259.1 22.3 258.1 21.5 257.1 20.9C256.1 20.3 255.3 19.7 254.5 19.3C254.1 19.1 253.7 18.7 253.5 18.5V33.9C253.5 34.5 253.3 35.1 252.7 35.7C252.1 36.3 251.7 36.3 251.1 36.3Z" fill="#010F32"/>
<path d="M287.3 35.4988C286.7 35.6988 286.1 35.6988 285.5 35.2988C284.9 34.8988 284.5 34.4989 284.3 33.8989C284.1 33.2989 284.1 32.6988 284.5 32.0988C284.9 31.4988 285.3 31.0989 285.9 30.8989C289.1 29.8989 292.1 28.2988 294.5 26.4988C296.9 24.4988 298.9 22.2989 300.1 19.8989C301.1 17.8989 300.3 16.8989 297.9 16.8989H283.3C282.7 16.8989 282.1 16.6988 281.5 16.2988C281.1 15.8988 280.7 15.2988 280.7 14.4988C280.7 13.6988 280.9 13.2989 281.5 12.6989C281.9 12.2989 282.5 12.0988 283.3 12.0988H298.1C300.3 12.0988 302.1 12.4988 303.5 13.2988C304.7 14.0988 305.5 15.2989 305.5 16.6989C305.5 18.0989 305.3 19.8989 304.3 21.6989C302.9 24.6989 300.7 27.4989 297.7 29.8989C294.7 32.2989 291.1 34.2988 287.3 35.4988ZM285.9 8.89886C285.3 8.89886 284.7 8.69883 284.1 8.29883C283.7 7.89883 283.3 7.29885 283.3 6.69885C283.3 6.09885 283.5 5.49886 284.1 4.89886C284.5 4.49886 285.1 4.29883 285.9 4.29883H301.1C301.7 4.29883 302.3 4.49886 302.9 4.89886C303.5 5.29886 303.5 5.89885 303.5 6.69885C303.5 7.29885 303.3 7.89883 302.9 8.29883C302.5 8.69883 301.9 8.89886 301.1 8.89886H285.9Z" fill="#010F32"/>
<path d="M320.9 33.7C320.3 33.9 319.7 34.1 319.1 33.9C318.5 33.7 317.9 33.3 317.7 32.7C317.5 32.1 317.3 31.5 317.5 30.9C317.7 30.3 318.1 29.7 318.7 29.5C322.5 27.7 325.9 25.5 328.9 22.9C331.9 20.3 334.3 17.5 336.1 14.5C337.3 12.5 336.7 11.7 334.1 11.7H323.1C322.5 11.7 321.9 11.5 321.3 10.9C320.9 10.5 320.5 9.89998 320.5 9.09998C320.5 8.49998 320.7 7.89999 321.3 7.29999C321.7 6.89999 322.3 6.5 323.1 6.5H334.1C336.5 6.5 338.3 6.90001 339.7 7.70001C340.9 8.50001 341.7 9.69999 341.7 11.3C341.9 12.7 341.3 14.5 340.1 16.5C339.5 17.5 338.9 18.7 337.9 19.7C339.1 20.7 340.3 21.9 341.7 23.1C342.9 24.3 344.3 25.5 345.3 26.7C346.5 27.9 347.3 28.9 348.1 29.7C348.5 30.1 348.7 30.7 348.7 31.5C348.7 32.3 348.5 32.7 347.9 33.3C347.5 33.7 346.9 34.1 346.1 34.1C345.5 34.1 344.9 33.9 344.3 33.3C343.5 32.5 342.7 31.7 341.5 30.5C340.5 29.3 339.3 28.1 338.1 26.9C336.9 25.7 335.7 24.5 334.5 23.5C332.5 25.7 330.3 27.5 327.7 29.5C326.1 30.9 323.5 32.5 320.9 33.7Z" fill="#010F32"/>
<path d="M371.1 36.3C370.5 36.3 369.9 36.1 369.3 35.5C368.7 34.9 368.5 34.5 368.5 33.7V6.09998C368.5 5.49998 368.7 4.89999 369.3 4.29999C369.9 3.69999 370.3 3.5 371.1 3.5C371.7 3.5 372.3 3.69999 372.9 4.29999C373.5 4.89999 373.7 5.29998 373.7 6.09998V15.7C374.1 15.1 374.5 14.9 375.1 14.7C375.7 14.5 376.3 14.5 376.9 14.9C378.5 15.7 380.1 16.7 381.7 17.7C383.3 18.7 384.7 19.9 385.9 20.9C386.5 21.3 386.7 21.9 386.9 22.7C387.1 23.5 386.7 24.1 386.3 24.5C385.9 25.1 385.3 25.3 384.7 25.3C384.1 25.3 383.3 25.1 382.9 24.7C382.1 24.1 381.3 23.5 380.3 22.9C379.3 22.3 378.3 21.5 377.3 20.9C376.3 20.3 375.5 19.7 374.7 19.3C374.3 19.1 373.9 18.7 373.7 18.5V33.9C373.7 34.5 373.5 35.1 372.9 35.7C372.3 36.3 371.7 36.3 371.1 36.3Z" fill="#010F32"/>
<path d="M402.3 38.0997C401.7 38.0997 401.3 37.8997 400.9 37.4997C400.5 37.0997 400.3 36.6997 400.3 36.0997V22.6997C399.9 23.4997 399.5 24.2997 399.1 24.8997C398.7 25.6997 398.3 26.2997 398.1 26.8997C397.9 27.4997 397.5 27.6997 396.9 27.8997C396.3 28.0997 395.7 27.8997 395.3 27.4997C394.9 27.2997 394.7 26.8997 394.5 26.2997C394.5 25.6997 394.5 25.2997 394.9 24.8997C395.3 24.2997 395.9 23.2997 396.3 22.2997C396.7 21.2997 397.3 20.2997 397.9 19.0997C398.5 17.8997 398.9 16.8997 399.3 15.8997C399.7 14.8997 400.1 13.8997 400.3 13.0997V12.6997H396.7C396.1 12.6997 395.7 12.4997 395.3 12.0997C394.9 11.6997 394.7 11.2997 394.7 10.6997C394.7 10.0997 394.9 9.6997 395.3 9.2997C395.7 8.8997 396.1 8.69973 396.7 8.69973H400.3V2.89974C400.3 2.29974 400.5 1.6997 400.9 1.2997C401.3 0.899701 401.9 0.699726 402.3 0.699726C402.9 0.699726 403.3 0.899701 403.7 1.2997C404.1 1.6997 404.3 2.09974 404.3 2.89974V8.69973H406.9C407.5 8.69973 407.9 8.8997 408.3 9.2997C408.7 9.6997 408.9 10.0997 408.9 10.6997C408.9 11.2997 408.7 11.6997 408.3 12.0997C407.9 12.4997 407.5 12.6997 406.9 12.6997H404.5V15.2997C404.9 15.6997 405.3 16.4997 405.9 17.0997C406.5 17.8997 407.1 18.6997 407.7 19.4997C408.3 20.2997 408.7 20.8997 409.1 21.2997C409.5 21.6997 409.7 22.0997 409.5 22.6997C409.5 23.2997 409.3 23.6997 408.9 24.0997C408.5 24.4997 407.9 24.6997 407.3 24.4997C406.7 24.4997 406.3 24.0997 405.9 23.6997C405.7 23.4997 405.5 23.0997 405.1 22.6997C404.9 22.2997 404.5 21.8997 404.1 21.2997V36.0997C404.1 36.6997 403.9 37.2997 403.5 37.4997C403.5 37.8997 402.9 38.0997 402.3 38.0997ZM409.7 33.8997C409.1 34.0997 408.5 34.2997 407.9 34.0997C407.3 33.8997 406.9 33.4997 406.7 33.0997C406.5 32.4997 406.5 31.8997 406.7 31.4997C406.9 30.8997 407.3 30.4997 407.9 30.2997C408.5 30.0997 409.3 29.6997 409.9 29.2997C410.7 28.8997 411.5 28.4997 412.3 28.0997C413.1 27.6997 413.7 27.2997 414.3 27.0997C414.7 26.8997 415.3 26.6997 415.7 26.8997C416.1 27.0997 416.5 27.2997 416.7 27.8997C417.3 28.8997 416.9 29.8997 415.9 30.4997C415.3 30.8997 414.7 31.2997 413.9 31.6997C413.1 32.0997 412.3 32.6997 411.5 33.0997C411.1 33.2997 410.3 33.6997 409.7 33.8997ZM415.9 37.8997C415.3 37.8997 414.7 37.6997 414.3 37.2997C413.9 36.8997 413.5 36.2997 413.5 35.6997C413.5 35.0997 413.7 34.4997 414.1 34.0997C414.5 33.6997 415.1 33.4997 415.7 33.2997C416.5 33.2997 416.9 33.0997 417.1 32.8997C417.3 32.6997 417.5 32.2997 417.5 31.4997V19.8997H409.7C409.1 19.8997 408.7 19.6997 408.5 19.2997C408.1 18.8997 407.9 18.4997 407.9 18.0997C407.9 17.4997 408.1 17.0997 408.5 16.8997C408.9 16.4997 409.3 16.2997 409.7 16.2997H417.5V14.2997H411.5C411.1 14.2997 410.7 14.0997 410.3 13.8997C409.9 13.4997 409.9 13.0997 409.9 12.6997C409.9 12.2997 410.1 11.8997 410.3 11.4997C410.7 11.0997 410.9 11.0997 411.5 11.0997H417.5V9.09969H410.1C409.7 9.09969 409.3 8.89973 408.9 8.69973C408.5 8.29973 408.5 7.89971 408.5 7.49971C408.5 7.09971 408.7 6.6997 408.9 6.2997C409.1 5.8997 409.7 5.89974 410.1 5.89974H413.7C413.5 5.49974 413.3 5.09971 412.9 4.49971C412.5 3.89971 412.5 3.69971 412.3 3.49971C412.1 3.09971 411.9 2.49969 412.1 2.09969C412.3 1.49969 412.5 1.09974 413.1 0.899738C413.7 0.699738 414.1 0.499726 414.7 0.699726C415.3 0.899726 415.7 1.09973 415.9 1.69973C416.1 1.89973 416.3 2.09973 416.5 2.69973C416.7 3.09973 416.9 3.49969 417.3 4.09969C417.7 4.69969 417.7 4.89969 417.9 5.09969C418.1 5.29969 418.1 5.69974 418.1 5.89974H421.1C421.3 5.49974 421.5 5.09971 421.7 4.49971C421.9 3.89971 422.3 3.49974 422.5 2.89974C422.7 2.29974 422.9 1.89973 423.1 1.69973C423.3 1.09973 423.7 0.899726 424.3 0.699726C424.9 0.499726 425.3 0.499738 425.9 0.899738C426.5 1.09974 426.7 1.49969 426.9 2.09969C427.1 2.69969 427.1 3.09971 426.7 3.49971C426.5 3.69971 426.5 4.09971 426.1 4.49971C425.9 4.89971 425.5 5.49974 425.3 5.89974H429.5C429.9 5.89974 430.3 6.0997 430.7 6.2997C431.1 6.4997 431.1 7.09971 431.1 7.49971C431.1 7.89971 430.9 8.29973 430.7 8.69973C430.3 9.09973 429.9 9.09969 429.5 9.09969H421.9V11.0997H427.5C427.9 11.0997 428.3 11.2997 428.7 11.4997C429.1 11.8997 429.1 12.2997 429.1 12.6997C429.1 13.0997 428.9 13.4997 428.7 13.8997C428.3 14.2997 427.9 14.2997 427.5 14.2997H421.9V16.2997H430.1C430.7 16.2997 431.1 16.4997 431.3 16.8997C431.7 17.2997 431.9 17.6997 431.9 18.0997C431.9 18.6997 431.7 19.0997 431.3 19.2997C430.9 19.6997 430.5 19.8997 430.1 19.8997H421.9V23.0997C422.7 23.6997 423.3 24.2997 424.1 24.8997C424.5 24.2997 425.1 23.6997 425.7 22.8997C426.3 22.0997 426.7 21.6997 426.9 21.2997C427.3 20.8997 427.7 20.4997 428.1 20.2997C428.7 20.0997 429.1 20.2997 429.7 20.4997C430.1 20.6997 430.5 21.0997 430.7 21.6997C430.9 22.2997 430.7 22.6997 430.5 23.0997C430.1 23.4997 429.7 24.0997 429.1 24.8997C428.5 25.6997 427.9 26.2997 427.3 26.8997C428.1 27.4997 429.1 28.0997 429.7 28.6997C430.5 29.2997 431.1 29.6997 431.7 30.0997C432.1 30.2997 432.5 30.8997 432.5 31.4997C432.7 32.0997 432.5 32.6997 432.1 33.0997C431.7 33.6997 431.3 34.0997 430.7 34.0997C430.1 34.0997 429.5 34.0997 429.1 33.6997C428.5 33.2997 427.7 32.6997 426.9 31.8997C426.1 31.0997 425.3 30.4997 424.5 29.6997C423.7 28.8997 422.9 28.2997 422.3 27.6997V31.4997C422.3 33.6997 421.9 35.0997 420.9 36.0997C419.9 37.0997 418.1 37.8997 415.9 37.8997ZM415.5 25.8997C415.1 26.2997 414.7 26.4997 414.1 26.2997C413.5 26.0997 413.1 26.0997 412.9 25.6997C412.7 25.2997 412.1 24.8997 411.7 24.4997C411.1 23.8997 410.7 23.4997 410.3 23.2997C409.9 22.8997 409.7 22.4997 409.9 21.8997C409.9 21.2997 410.1 20.8997 410.5 20.4997C410.9 20.0997 411.3 19.8997 411.9 19.8997C412.3 19.8997 412.9 20.0997 413.3 20.4997C413.5 20.6997 413.7 20.8997 414.1 21.2997C414.5 21.6997 414.7 21.8997 415.1 22.2997C415.5 22.6997 415.7 22.8997 415.9 23.0997C416.3 23.4997 416.5 23.8997 416.5 24.4997C416.1 25.0997 415.9 25.4997 415.5 25.8997Z" fill="#010F32"/>
<path d="M157.7 92.3C157.1 92.5 156.5 92.3 155.9 92.1C155.3 91.7 154.9 91.3 154.7 90.7C154.5 90.1 154.7 89.5 154.9 88.9C155.3 88.3 155.7 87.9 156.3 87.7C159.3 86.9 161.5 85.7 162.9 83.9C164.3 82.1 164.9 79.9 164.9 77.3C164.9 75.7 164.5 74.1 163.7 72.7C162.9 71.3 161.9 70.3 160.5 69.5C159.1 68.7 157.5 68.1 155.5 67.9C155.1 72.3 154.3 76.3 153.1 79.5C151.9 82.7 150.7 85.3 149.1 87.1C147.5 88.9 145.9 89.7 144.3 89.7C142.9 89.7 141.5 89.3 140.5 88.5C139.5 87.7 138.5 86.5 137.7 84.9C137.1 83.3 136.7 81.5 136.7 79.3C136.7 77.1 137.1 75.1 137.9 73.1C138.7 71.1 139.9 69.5 141.5 68.1C143.1 66.7 144.9 65.5 146.9 64.7C148.9 63.9 151.3 63.5 153.9 63.5C156.9 63.5 159.7 64.1 161.9 65.3C164.1 66.5 166.1 68.1 167.5 70.1C168.9 72.1 169.5 74.5 169.5 77.3C169.5 81.1 168.5 84.3 166.3 86.9C164.7 89.5 161.7 91.3 157.7 92.3ZM144.7 84.9C145.1 84.9 145.7 84.5 146.3 83.7C146.9 82.9 147.5 81.7 148.3 80.3C148.9 78.9 149.5 77.1 150.1 74.9C150.7 72.7 151.1 70.5 151.3 68.1C149.3 68.5 147.5 69.3 146.1 70.3C144.7 71.5 143.7 72.7 142.9 74.3C142.1 75.9 141.9 77.5 141.7 79.3C141.7 81.1 141.9 82.5 142.5 83.5C143.1 84.5 143.9 84.9 144.7 84.9Z" fill="#010F32"/>
<path d="M203.9 91.2996C199.9 92.2996 196.3 92.6996 193.1 92.4996C189.9 92.2996 187.3 91.6996 185.3 90.6996C183.3 89.6996 181.7 88.0996 180.9 86.0996C180.7 85.4996 180.7 84.8996 180.9 84.2996C181.1 83.6996 181.7 83.2996 182.3 83.0996C182.9 82.8996 183.5 82.8996 184.1 83.0996C184.7 83.2996 185.1 83.8996 185.3 84.4996C185.9 85.6996 186.9 86.4996 188.5 87.0996C190.1 87.6996 192.1 88.0996 194.5 88.0996C196.9 88.0996 199.7 87.6997 202.9 86.8997C203.5 86.6997 204.1 86.8996 204.7 87.2996C205.3 87.6996 205.7 88.0997 205.7 88.8997C205.9 89.4997 205.7 90.0996 205.3 90.6996C204.9 90.8996 204.5 91.2996 203.9 91.2996ZM200.1 69.4996C198.7 69.0996 197.1 68.8996 195.5 68.6996C193.9 68.4996 192.3 68.2996 190.7 68.2996C189.1 68.2996 187.7 68.2996 186.3 68.4996C185.7 68.4996 185.1 68.2996 184.5 68.0996C183.9 67.8996 183.7 67.0996 183.5 66.4996C183.5 65.8996 183.5 65.2996 183.9 64.6996C184.3 64.0996 184.9 63.8996 185.5 63.6996C187.1 63.4996 188.9 63.4996 190.7 63.4996C192.5 63.4996 194.5 63.6997 196.3 63.8997C198.1 64.0997 199.7 64.2996 201.1 64.6996C201.7 64.8996 202.3 65.2996 202.5 65.6996C202.7 66.0996 202.9 66.8996 202.7 67.4996C202.5 68.0996 202.3 68.6996 201.7 69.0996C201.3 69.4996 200.7 69.6996 200.1 69.4996ZM209.5 69.2996C209.1 69.6996 208.7 69.6996 208.3 69.6996C207.7 69.6996 207.3 69.4996 207.1 69.0996C206.9 68.6996 206.5 68.2996 205.9 67.6996C205.5 67.0996 204.9 66.6996 204.5 66.2996C204.3 66.0996 204.1 65.6996 204.1 65.2996C204.1 64.8996 204.3 64.4996 204.7 64.0996C204.9 63.8996 205.3 63.6996 205.7 63.6996C206.1 63.6996 206.5 63.8996 206.9 64.0996C207.3 64.4996 207.7 64.8996 208.3 65.4996C208.9 66.0996 209.3 66.4996 209.7 67.0996C209.9 67.4996 210.1 67.8996 210.1 68.2996C210.1 68.6996 209.9 69.0996 209.5 69.2996ZM213.3 65.8997C212.9 66.2997 212.5 66.2996 212.1 66.2996C211.7 66.2996 211.1 66.0996 210.9 65.6996C210.5 65.2996 210.1 64.8996 209.7 64.2996C209.3 63.6996 208.7 63.2997 208.3 62.8997C208.1 62.6997 207.9 62.2997 207.9 61.8997C207.9 61.4997 208.1 61.0996 208.3 60.6996C208.5 60.2996 208.9 60.2996 209.3 60.0996C209.7 60.0996 210.1 60.0996 210.5 60.4996C210.9 60.6996 211.5 61.0996 212.1 61.6996C212.7 62.2996 213.1 62.6996 213.5 63.0996C213.9 63.4996 213.9 63.8996 213.9 64.2996C213.9 64.6996 213.7 65.4997 213.3 65.8997Z" fill="#010F32"/>
<path d="M223.7 95.8996C223.1 95.8996 222.7 95.6996 222.1 95.2996C221.7 94.8996 221.5 94.2996 221.5 93.6996V79.0996C220.7 79.2996 219.9 79.2996 219.1 79.2996C218.3 79.2996 217.7 79.4996 217.1 79.4996C216.5 79.4996 215.9 79.4996 215.3 79.0996C214.7 78.6996 214.5 78.2996 214.5 77.6996C214.5 77.0996 214.5 76.4996 214.9 76.0996C215.3 75.6996 215.7 75.4996 216.5 75.4996C216.7 75.4996 216.9 75.4996 217.3 75.4996C217.5 75.4996 217.9 75.4996 218.1 75.4996C218.5 75.0996 218.9 74.4996 219.3 73.6996C219.7 73.0996 220.3 72.2996 220.9 71.4996C220.5 71.0996 219.9 70.6996 219.1 70.2996C218.5 69.8996 217.7 69.2996 217.1 68.8996C216.5 68.4996 215.9 68.0996 215.5 67.8996C215.1 67.4996 214.7 67.0996 214.5 66.4996C214.3 65.8996 214.5 65.4996 214.7 64.8996C214.9 64.2996 215.5 64.0996 216.1 63.8996C216.7 63.6996 217.3 63.8996 217.7 64.0996C217.9 64.2996 218.1 64.4996 218.3 64.4996C218.5 64.0996 218.9 63.4996 219.3 62.8996C219.7 62.2996 220.1 61.6996 220.3 61.0996C220.7 60.4996 220.9 60.0996 221.1 59.6996C221.3 59.0996 221.7 58.6996 222.3 58.4996C222.9 58.2996 223.5 58.2996 223.9 58.4996C224.5 58.6996 224.7 59.0996 224.9 59.6996C225.1 60.2996 224.9 60.6996 224.7 61.2996C224.5 61.6996 224.1 62.2996 223.7 62.8996C223.3 63.4996 222.9 64.0996 222.5 64.8996C222.1 65.4996 221.7 66.0996 221.5 66.4996C221.9 66.6996 222.1 66.8996 222.5 67.0996C222.7 67.2996 223.1 67.4996 223.3 67.6996C223.9 66.8996 224.5 66.0996 224.9 65.2996C225.3 64.4996 225.7 63.8996 226.1 63.4996C226.5 62.8996 226.9 62.4996 227.5 62.4996C228.1 62.4996 228.5 62.4996 229.1 62.6996C229.7 62.8996 229.9 63.2996 230.1 63.8996C230.3 64.4996 230.1 65.0996 229.7 65.6996C229.3 66.2996 228.7 67.2996 227.9 68.0996C227.1 69.0996 226.3 70.0996 225.5 71.2996C224.7 72.4996 223.9 73.4996 223.1 74.4996C223.7 74.4996 224.5 74.2996 225.1 74.2996C225.7 74.2996 226.3 74.0996 226.9 74.0996L226.5 73.0996C226.3 72.4996 226.3 72.0996 226.5 71.4996C226.7 70.8996 227.1 70.6996 227.5 70.4996C228.1 70.2996 228.5 70.2996 229.1 70.4996C229.5 70.6996 229.9 71.0996 230.3 71.6996C230.5 72.0996 230.7 72.6996 230.9 73.2996C231.1 73.8996 231.3 74.4996 231.7 75.2996C231.9 75.8996 232.1 76.4996 232.3 76.8996C232.5 77.4996 232.5 78.0996 232.3 78.4996C232.1 78.8996 231.7 79.2996 231.1 79.4996C230.5 79.6996 229.9 79.6996 229.5 79.2996C228.9 79.0996 228.7 78.6996 228.5 78.0996C228.5 77.8996 228.3 77.4996 228.3 77.2996C227.5 77.4996 226.7 77.4996 225.7 77.6996V92.8996C225.7 93.4996 225.5 94.0996 225.1 94.4996C224.7 95.6996 224.3 95.8996 223.7 95.8996ZM216.1 91.4996C215.5 91.2996 215.3 91.0996 215.1 90.4996C214.9 89.8996 214.9 89.4996 215.1 89.0996C215.3 88.4996 215.5 87.8996 215.9 87.0996C216.1 86.2996 216.5 85.4996 216.7 84.4996C216.9 83.6996 217.1 82.8996 217.3 82.2996C217.5 81.6996 217.7 81.2996 218.1 81.0996C218.5 80.8996 218.9 80.6996 219.5 80.8996C220.1 81.0996 220.5 81.2996 220.7 81.6996C220.9 82.0996 221.1 82.6996 220.9 83.2996C220.7 83.8996 220.7 84.6996 220.3 85.4996C220.1 86.2996 219.7 87.2996 219.5 88.0996C219.3 88.8996 218.9 89.6996 218.7 90.2996C218.5 90.8996 218.1 91.2996 217.7 91.4996C217.3 91.4996 216.7 91.6996 216.1 91.4996ZM231.1 89.6996C230.5 89.8996 230.1 89.8996 229.5 89.6996C228.9 89.4996 228.7 89.0996 228.5 88.4996C228.3 88.0996 228.1 87.4996 227.9 86.6996C227.7 85.8996 227.5 85.2996 227.3 84.4996C227.1 83.6996 226.9 83.0996 226.7 82.6996C226.5 82.0996 226.7 81.6996 226.9 81.0996C227.1 80.6996 227.5 80.4996 228.1 80.2996C228.7 80.0996 229.1 80.2996 229.5 80.4996C229.9 80.6996 230.3 81.0996 230.3 81.6996C230.5 82.0996 230.7 82.6996 230.9 83.2996C231.1 83.8996 231.3 84.6996 231.7 85.2996C231.9 85.8996 232.1 86.4996 232.3 86.8996C232.5 87.4996 232.5 88.0996 232.3 88.4996C231.9 89.0996 231.5 89.4996 231.1 89.6996ZM235.9 77.2996C235.3 77.6996 234.9 77.8996 234.1 77.6996C233.5 77.6996 232.9 77.2996 232.5 76.8996C232.1 76.4996 232.1 75.8996 232.1 75.4996C232.1 74.8996 232.3 74.4996 232.9 74.2996C234.5 73.0996 235.7 71.6996 236.5 70.0996C237.3 68.4996 237.7 66.6996 237.9 64.4996H233.7C233.1 64.4996 232.7 64.2996 232.3 63.8996C231.9 63.4996 231.7 63.0996 231.7 62.4996C231.7 61.8996 231.9 61.4996 232.3 61.0996C232.7 60.6996 233.1 60.4996 233.7 60.4996H245.7C247.7 60.4996 249.1 60.8996 250.1 61.8996C250.9 62.8996 251.3 64.2996 251.3 66.0996C251.3 67.0996 251.3 67.8996 251.1 68.8996C251.1 69.8996 250.9 70.8996 250.7 71.4996C250.5 72.8996 250.1 74.0996 249.7 74.8996C249.1 75.6996 248.5 76.2996 247.5 76.6996C246.5 77.0996 245.5 77.2996 243.9 77.2996C243.3 77.2996 242.7 77.0996 242.1 76.8996C241.7 76.4996 241.3 76.0996 241.3 75.2996C241.3 74.6996 241.5 74.0996 241.7 73.6996C242.1 73.2996 242.5 73.0996 243.1 73.0996C244.3 73.0996 245.1 72.8996 245.3 72.6996C245.7 72.4996 245.9 71.8996 246.1 71.0996C246.3 70.4996 246.3 69.8996 246.5 69.0996C246.5 68.2996 246.7 67.4996 246.7 66.8996C246.7 66.0996 246.7 65.4996 246.3 65.0996C245.9 64.6996 245.5 64.6996 244.7 64.6996H242.1C241.9 67.4996 241.3 70.0996 240.3 72.0996C239.3 74.0996 237.9 75.6996 235.9 77.2996ZM241.9 94.8996C239.7 94.8996 237.9 94.6996 236.7 94.2996C235.5 93.8996 234.7 93.0996 234.1 91.8996C233.7 90.6996 233.3 89.0996 233.3 86.8996C233.3 84.6996 233.5 83.0996 234.1 81.8996C234.5 80.6996 235.5 79.8996 236.7 79.4996C237.9 79.0996 239.7 78.8996 241.9 78.8996C244.1 78.8996 245.9 79.0996 247.1 79.4996C248.3 79.8996 249.1 80.6996 249.7 81.8996C250.1 83.0996 250.3 84.6996 250.3 86.8996C250.3 89.0996 250.1 90.6996 249.7 91.8996C249.3 93.0996 248.3 93.8996 247.1 94.2996C245.9 94.6996 244.3 94.8996 241.9 94.8996ZM241.9 90.6996C243.1 90.6996 243.9 90.6996 244.5 90.4996C245.1 90.2996 245.5 89.8996 245.7 89.2996C245.9 88.6996 245.9 87.8996 245.9 86.8996C245.9 85.8996 245.9 85.0996 245.7 84.4996C245.5 83.8996 245.1 83.4996 244.5 83.2996C243.9 83.0996 243.1 83.0996 241.9 83.0996C240.7 83.0996 239.9 83.0996 239.3 83.2996C238.7 83.4996 238.3 83.8996 238.1 84.2996C237.9 84.8996 237.9 85.6996 237.9 86.6996C237.9 87.6996 237.9 88.4996 238.1 89.0996C238.3 89.6996 238.7 90.0996 239.3 90.2996C239.9 90.4996 240.9 90.6996 241.9 90.6996Z" fill="#010F32"/>
<path d="M258.5 75.8989C257.9 76.2989 257.3 76.4988 256.5 76.2988C255.7 76.0988 255.3 75.8988 254.9 75.2988C254.7 74.8988 254.5 74.2989 254.7 73.6989C254.9 73.0989 255.1 72.6988 255.9 72.2988C257.3 71.2988 258.9 70.2988 260.5 69.2988C262.1 68.0988 263.5 67.0989 264.9 65.8989C266.3 64.6989 267.7 63.4988 268.9 62.2988C270.1 61.0988 271.1 60.4988 272.1 60.0988C273.1 59.6988 274.1 59.6988 275.1 60.0988C276.1 60.4988 277.3 61.0988 278.5 62.2988C279.3 62.8988 280.1 63.6989 281.3 64.4989C282.3 65.2989 283.5 66.2988 284.7 67.0988C285.9 68.0988 287.1 68.8989 288.3 69.6989C289.5 70.4989 290.7 71.2989 291.7 71.8989C292.3 72.2989 292.7 72.8989 292.9 73.4989C293.1 74.0989 292.9 74.6988 292.5 75.2988C292.1 75.8988 291.5 76.0988 290.9 76.2988C290.1 76.2988 289.5 76.0989 288.7 75.6989C287.7 75.0989 286.5 74.2988 285.3 73.2988C284.1 72.4988 282.9 71.4989 281.7 70.4989C280.5 69.4989 279.3 68.4989 278.3 67.6989C277.3 66.6989 276.3 65.8988 275.5 65.0988C274.9 64.4988 274.3 64.0988 273.9 64.0988C273.5 64.0988 272.9 64.2988 272.3 65.0988C271.5 65.8988 270.5 66.6989 269.3 67.6989C268.1 68.6989 267.1 69.6989 265.9 70.6989C264.7 71.6989 263.5 72.6989 262.3 73.4989C261.1 74.2989 259.5 75.0989 258.5 75.8989ZM261.7 94.4989C260.9 94.8989 260.1 95.0989 259.5 94.8989C258.9 94.6989 258.3 94.2989 257.9 93.6989C257.5 93.0989 257.5 92.2989 257.9 91.6989C258.3 91.0989 258.7 90.6988 259.3 90.2988C261.3 89.4988 262.7 88.2988 263.7 87.0988C264.7 85.8988 265.3 84.2989 265.7 82.4989C266.1 80.6989 266.3 78.2989 266.1 75.4989C266.1 74.8989 266.3 74.2989 266.7 73.8989C267.1 73.4989 267.7 73.2988 268.3 73.2988C268.9 73.2988 269.5 73.4989 270.1 73.8989C270.7 74.2989 270.7 74.8989 270.7 75.4989C270.7 78.8989 270.5 81.8988 269.9 84.2988C269.3 86.6988 268.3 88.6988 266.9 90.2988C265.5 91.8988 263.9 93.2989 261.7 94.4989ZM279.5 94.8989C278.7 94.8989 278.1 94.6988 277.7 94.2988C277.3 93.8988 277.1 93.2989 277.1 92.6989V75.2988C277.1 74.6988 277.3 74.0989 277.9 73.6989C278.3 73.2989 278.9 73.0988 279.5 73.0988C280.1 73.0988 280.7 73.2989 281.1 73.6989C281.5 74.0989 281.9 74.6988 281.9 75.2988V92.6989C281.9 93.2989 281.7 93.8988 281.3 94.2988C280.9 94.6988 280.3 94.8989 279.5 94.8989Z" fill="#010F32"/>
</svg>
