<svg width="773" height="50" viewBox="0 0 773 50" fill="none" xmlns="http://www.w3.org/2000/svg">
<path d="M128.852 42.828C128.031 42.8573 127.356 42.652 126.828 42.212C126.329 41.8013 126.036 41.2293 125.948 40.496C125.889 39.792 126.08 39.1907 126.52 38.692C126.96 38.164 127.561 37.8413 128.324 37.724C129.175 37.636 129.717 37.4747 129.952 37.24C130.216 37.0053 130.348 36.5507 130.348 35.876V28.176C129.937 28.3227 129.527 28.4693 129.116 28.616C128.705 28.7333 128.339 28.8653 128.016 29.012C127.224 29.276 126.505 29.2613 125.86 28.968C125.244 28.6453 124.819 28.1173 124.584 27.384C124.379 26.6507 124.423 25.9907 124.716 25.404C125.039 24.788 125.611 24.3627 126.432 24.128C126.989 23.9813 127.591 23.8053 128.236 23.6C128.911 23.3653 129.615 23.1307 130.348 22.896V15.328H126.828C126.183 15.328 125.625 15.108 125.156 14.668C124.716 14.1987 124.496 13.6413 124.496 12.996C124.496 12.3507 124.716 11.808 125.156 11.368C125.625 10.8987 126.183 10.664 126.828 10.664H130.348V4.24C130.348 3.50666 130.583 2.92 131.052 2.48C131.521 2.04 132.093 1.82 132.768 1.82C133.443 1.82 134 2.04 134.44 2.48C134.909 2.92 135.144 3.50666 135.144 4.24V10.664H137.476C138.121 10.664 138.664 10.8987 139.104 11.368C139.573 11.808 139.808 12.3507 139.808 12.996C139.867 12.468 140.101 12.0427 140.512 11.72C140.923 11.368 141.451 11.1773 142.096 11.148C142.36 11.1187 142.639 11.104 142.932 11.104C143.255 11.0747 143.577 11.0453 143.9 11.016C144.164 10.3413 144.501 9.50533 144.912 8.508C145.323 7.48133 145.719 6.49866 146.1 5.56C146.511 4.592 146.804 3.85866 146.98 3.36C147.215 2.656 147.655 2.172 148.3 1.908C148.975 1.644 149.649 1.62933 150.324 1.864C150.999 2.128 151.468 2.55333 151.732 3.14C151.996 3.72667 151.996 4.34267 151.732 4.988C151.468 5.63333 151.087 6.49866 150.588 7.584C150.089 8.64 149.591 9.652 149.092 10.62C150.265 10.532 151.439 10.444 152.612 10.356C153.785 10.2387 154.885 10.136 155.912 10.048C155.648 9.72533 155.399 9.41733 155.164 9.124C154.959 8.83067 154.753 8.56667 154.548 8.332C154.167 7.892 154.02 7.39333 154.108 6.836C154.225 6.24933 154.519 5.78 154.988 5.428C155.457 5.076 155.985 4.91466 156.572 4.944C157.188 4.944 157.716 5.19333 158.156 5.692C158.743 6.33733 159.403 7.1 160.136 7.98C160.869 8.83066 161.573 9.696 162.248 10.576C162.923 11.4267 163.48 12.16 163.92 12.776C164.331 13.3333 164.477 13.9347 164.36 14.58C164.272 15.2253 163.935 15.7387 163.348 16.12C162.761 16.5013 162.145 16.648 161.5 16.56C160.855 16.4427 160.327 16.0907 159.916 15.504C159.769 15.2693 159.608 15.02 159.432 14.756C159.256 14.492 159.051 14.2133 158.816 13.92C157.408 14.096 155.707 14.3013 153.712 14.536C151.747 14.7413 149.811 14.932 147.904 15.108C148.461 15.7827 148.564 16.5453 148.212 17.396C148.183 17.5427 148.124 17.704 148.036 17.88C147.948 18.0267 147.875 18.188 147.816 18.364H160.752C161.368 18.364 161.881 18.584 162.292 19.024C162.732 19.4347 162.952 19.9333 162.952 20.52C162.952 21.136 162.732 21.664 162.292 22.104C161.881 22.5147 161.368 22.72 160.752 22.72H154.064V24.524C154.064 25.3453 154.02 26.152 153.932 26.944H162.908C163.524 26.944 164.037 27.164 164.448 27.604C164.888 28.0147 165.108 28.5427 165.108 29.188C165.108 29.804 164.888 30.332 164.448 30.772C164.037 31.1827 163.524 31.388 162.908 31.388H155.78C156.836 32.7373 158.097 33.9547 159.564 35.04C161.031 36.096 162.571 37.0053 164.184 37.768C164.829 38.0613 165.269 38.516 165.504 39.132C165.739 39.7773 165.68 40.452 165.328 41.156C164.947 41.86 164.375 42.2853 163.612 42.432C162.879 42.5787 162.131 42.4613 161.368 42.08C159.696 41.2587 158.009 40.1293 156.308 38.692C154.607 37.2547 153.155 35.6413 151.952 33.852C149.84 37.7533 146.173 40.584 140.952 42.344C140.219 42.608 139.5 42.6373 138.796 42.432C138.092 42.2267 137.593 41.7573 137.3 41.024C137.065 40.3493 137.095 39.6893 137.388 39.044C137.681 38.3987 138.224 37.9587 139.016 37.724C141.04 37.0493 142.756 36.1987 144.164 35.172C145.572 34.1453 146.657 32.884 147.42 31.388H140.336C139.72 31.388 139.192 31.1827 138.752 30.772C138.312 30.332 138.092 29.804 138.092 29.188C138.092 28.5427 138.312 28.0147 138.752 27.604C139.192 27.164 139.72 26.944 140.336 26.944H148.784C148.843 26.5333 148.887 26.1227 148.916 25.712C148.945 25.3013 148.96 24.876 148.96 24.436V22.72H145.616C145 23.8933 144.369 24.9053 143.724 25.756C143.343 26.3133 142.815 26.68 142.14 26.856C141.495 27.0027 140.879 26.9 140.292 26.548C139.529 26.0787 139.177 25.4187 139.236 24.568C139.119 24.656 139.001 24.744 138.884 24.832C138.767 24.8907 138.635 24.9493 138.488 25.008C138.048 25.184 137.549 25.3893 136.992 25.624C136.435 25.8587 135.819 26.0933 135.144 26.328V36.756C135.144 38.8093 134.631 40.32 133.604 41.288C132.577 42.256 130.993 42.7693 128.852 42.828ZM140.116 22.676C140.556 22.0013 141.011 21.2387 141.48 20.388C141.949 19.5373 142.389 18.7013 142.8 17.88C143.211 17.0587 143.548 16.3253 143.812 15.68C143.812 15.6213 143.841 15.5627 143.9 15.504L142.624 15.636C141.803 15.6947 141.143 15.5333 140.644 15.152C140.145 14.7707 139.867 14.2427 139.808 13.568V13.26C139.749 13.8467 139.485 14.3453 139.016 14.756C138.576 15.1373 138.063 15.328 137.476 15.328H135.144V21.268C135.467 21.1507 135.775 21.048 136.068 20.96C136.361 20.872 136.64 20.784 136.904 20.696C137.637 20.4613 138.283 20.4613 138.84 20.696C139.397 20.9307 139.779 21.3707 139.984 22.016L140.116 22.676ZM185.876 42.564C185.025 42.7987 184.277 42.784 183.632 42.52C183.016 42.256 182.591 41.7573 182.356 41.024C182.151 40.3493 182.224 39.7187 182.576 39.132C182.928 38.5747 183.485 38.1933 184.248 37.988C185.979 37.5773 187.563 37.0933 189 36.536C190.467 35.9493 191.831 35.304 193.092 34.6C192.623 34.1893 192.139 33.764 191.64 33.324C191.141 32.884 190.701 32.5173 190.32 32.224C189.821 31.7547 189.587 31.1827 189.616 30.508C189.645 29.804 189.895 29.232 190.364 28.792C190.863 28.352 191.435 28.132 192.08 28.132C192.725 28.1027 193.283 28.2933 193.752 28.704C194.163 29.0267 194.705 29.496 195.38 30.112C196.084 30.6987 196.685 31.2413 197.184 31.74C198.504 30.5373 199.677 29.232 200.704 27.824C201.173 27.1493 201.291 26.636 201.056 26.284C200.851 25.9027 200.337 25.712 199.516 25.712H192.96C192.021 26.9147 191.009 28.0733 189.924 29.188C188.839 30.2733 187.724 31.256 186.58 32.136C186.023 32.576 185.392 32.796 184.688 32.796C183.984 32.796 183.412 32.5173 182.972 31.96C182.561 31.432 182.385 30.8307 182.444 30.156C182.532 29.4813 182.855 28.9533 183.412 28.572C184.967 27.3693 186.492 25.9173 187.988 24.216C189.513 22.4853 190.775 20.7693 191.772 19.068C191.684 19.156 191.552 19.2587 191.376 19.376C190.819 19.728 190.188 19.8453 189.484 19.728C188.78 19.5813 188.267 19.2147 187.944 18.628C187.651 18.1293 187.299 17.5133 186.888 16.78C186.477 16.0173 186.111 15.372 185.788 14.844C185.289 13.964 184.937 13.1867 184.732 12.512C184.556 11.808 184.527 11.0893 184.644 10.356C184.791 9.62266 185.084 8.772 185.524 7.804C185.817 7.21733 186.155 6.484 186.536 5.604C186.947 4.69467 187.284 3.96133 187.548 3.404C187.783 2.81733 188.237 2.40666 188.912 2.172C189.587 1.93733 190.232 1.96667 190.848 2.26C191.435 2.55333 191.831 3.008 192.036 3.624C192.241 4.21067 192.197 4.78266 191.904 5.34C191.611 5.92666 191.259 6.616 190.848 7.408C190.437 8.17066 190.056 8.86 189.704 9.476C189.352 10.1213 189.205 10.664 189.264 11.104C189.323 11.5147 189.543 12.0427 189.924 12.688C190.247 13.128 190.613 13.6853 191.024 14.36C191.464 15.0347 191.816 15.5773 192.08 15.988C192.52 16.6627 192.623 17.3813 192.388 18.144C192.769 17.7333 193.253 17.4987 193.84 17.44C194.427 17.352 194.955 17.4693 195.424 17.792C195.541 17.8507 195.629 17.924 195.688 18.012C195.776 18.0707 195.864 18.144 195.952 18.232C195.659 17.704 195.292 17.088 194.852 16.384C194.441 15.6507 194.06 15.0347 193.708 14.536C192.945 13.304 192.52 12.2187 192.432 11.28C192.373 10.3413 192.696 9.168 193.4 7.76C193.723 7.17333 194.075 6.46933 194.456 5.648C194.837 4.79733 195.16 4.064 195.424 3.448C195.717 2.86133 196.187 2.46533 196.832 2.26C197.477 2.02533 198.093 2.06933 198.68 2.392C199.267 2.68533 199.648 3.14 199.824 3.756C200.029 4.34267 199.971 4.91467 199.648 5.472C199.355 6.02933 199.032 6.66 198.68 7.364C198.328 8.03866 197.991 8.65466 197.668 9.212C197.287 9.88666 197.111 10.4293 197.14 10.84C197.169 11.2213 197.404 11.7347 197.844 12.38C198.167 12.82 198.563 13.392 199.032 14.096C199.501 14.8 199.883 15.3573 200.176 15.768C200.528 16.3253 200.645 16.9413 200.528 17.616C200.411 18.2613 200.059 18.76 199.472 19.112C198.973 19.4347 198.416 19.5667 197.8 19.508C197.213 19.42 196.715 19.1707 196.304 18.76C196.627 19.4347 196.583 20.1387 196.172 20.872C196.113 20.9893 196.055 21.1067 195.996 21.224C195.937 21.312 195.879 21.4 195.82 21.488H200.88C202.787 21.488 204.209 21.84 205.148 22.544C206.116 23.248 206.615 24.1867 206.644 25.36C206.703 26.5333 206.292 27.8093 205.412 29.188C203.3 32.4733 200.675 35.216 197.536 37.416C194.397 39.616 190.511 41.332 185.876 42.564ZM173.028 42.696C172.207 42.7253 171.517 42.5053 170.96 42.036C170.432 41.596 170.139 40.9653 170.08 40.144C170.051 39.4693 170.241 38.8533 170.652 38.296C171.092 37.7387 171.752 37.416 172.632 37.328C173.483 37.2693 174.011 37.1227 174.216 36.888C174.451 36.6533 174.568 36.1987 174.568 35.524V28.528C173.747 28.792 173.043 29.0413 172.456 29.276C171.635 29.54 170.887 29.5253 170.212 29.232C169.567 28.9387 169.127 28.4253 168.892 27.692C168.687 27.0173 168.716 26.3573 168.98 25.712C169.273 25.0667 169.816 24.6267 170.608 24.392C171.723 24.0693 173.043 23.6587 174.568 23.16V15.328H171.136C170.491 15.328 169.933 15.0933 169.464 14.624C168.995 14.1547 168.76 13.5973 168.76 12.952C168.76 12.2773 168.995 11.72 169.464 11.28C169.933 10.8107 170.491 10.576 171.136 10.576H174.568V4.284C174.568 3.55067 174.803 2.97867 175.272 2.568C175.771 2.128 176.343 1.908 176.988 1.908C177.663 1.908 178.235 2.128 178.704 2.568C179.173 2.97867 179.408 3.55067 179.408 4.284V10.576H181.828C182.503 10.576 183.06 10.8107 183.5 11.28C183.969 11.72 184.204 12.2773 184.204 12.952C184.204 13.5973 183.969 14.1547 183.5 14.624C183.06 15.0933 182.503 15.328 181.828 15.328H179.408V21.532C179.877 21.356 180.317 21.1947 180.728 21.048C181.139 20.9013 181.505 20.7693 181.828 20.652C182.561 20.388 183.207 20.3733 183.764 20.608C184.321 20.8427 184.703 21.2827 184.908 21.928C185.143 22.6027 185.113 23.2187 184.82 23.776C184.527 24.3333 184.043 24.7733 183.368 25.096C182.899 25.3013 182.312 25.536 181.608 25.8C180.904 26.064 180.171 26.3573 179.408 26.68V36.184C179.408 38.4427 178.88 40.0707 177.824 41.068C176.797 42.0947 175.199 42.6373 173.028 42.696ZM207.568 18.892C207.011 19.244 206.38 19.3613 205.676 19.244C204.972 19.0973 204.459 18.7453 204.136 18.188C203.843 17.66 203.447 17.0147 202.948 16.252C202.479 15.46 202.053 14.7853 201.672 14.228C200.88 13.084 200.44 12.0573 200.352 11.148C200.264 10.2093 200.572 9.05067 201.276 7.672C201.599 7.08533 201.951 6.41066 202.332 5.648C202.713 4.856 203.051 4.13733 203.344 3.492C203.637 2.90533 204.092 2.524 204.708 2.348C205.353 2.14266 205.969 2.20133 206.556 2.524C207.143 2.81733 207.524 3.25733 207.7 3.844C207.876 4.43067 207.817 5.00266 207.524 5.56C207.231 6.11733 206.908 6.68933 206.556 7.276C206.204 7.86267 205.881 8.40533 205.588 8.904C205.177 9.63733 204.972 10.1947 204.972 10.576C205.001 10.928 205.265 11.4413 205.764 12.116C206.087 12.5267 206.497 13.0987 206.996 13.832C207.524 14.536 207.935 15.1227 208.228 15.592C208.58 16.1493 208.697 16.7507 208.58 17.396C208.492 18.012 208.155 18.5107 207.568 18.892ZM249.192 41.068C246.875 39.3373 244.924 37.4013 243.34 35.26C241.785 33.0893 240.539 30.8013 239.6 28.396C238.779 30.8013 237.635 33.0747 236.168 35.216C234.731 37.328 232.912 39.2347 230.712 40.936C230.125 41.376 229.451 41.596 228.688 41.596C227.955 41.596 227.339 41.2733 226.84 40.628C226.429 40.0413 226.283 39.4107 226.4 38.736C226.517 38.0613 226.869 37.5187 227.456 37.108C233.029 33.148 236.124 27.428 236.74 19.948H229.348C228.703 19.948 228.145 19.7133 227.676 19.244C227.207 18.7453 226.972 18.1733 226.972 17.528C226.972 16.8533 227.207 16.2813 227.676 15.812C228.145 15.3427 228.703 15.108 229.348 15.108H236.872V5.12C236.872 4.328 237.136 3.712 237.664 3.272C238.192 2.80266 238.779 2.568 239.424 2.568C240.128 2.568 240.715 2.80266 241.184 3.272C241.683 3.712 241.932 4.328 241.932 5.12V15.108H250.776C251.451 15.108 252.023 15.3427 252.492 15.812C252.961 16.2813 253.196 16.8533 253.196 17.528C253.196 18.1733 252.961 18.7453 252.492 19.244C252.023 19.7133 251.451 19.948 250.776 19.948H242.108C242.519 23.6733 243.648 26.9733 245.496 29.848C247.373 32.6933 249.749 35.1133 252.624 37.108C253.211 37.4893 253.548 38.032 253.636 38.736C253.724 39.44 253.533 40.0707 253.064 40.628C252.565 41.2733 251.949 41.6253 251.216 41.684C250.512 41.7427 249.837 41.5373 249.192 41.068ZM223.452 42.696C222.777 42.696 222.191 42.4613 221.692 41.992C221.193 41.552 220.944 40.9653 220.944 40.232V29.012C220.123 29.6573 219.243 30.332 218.304 31.036C217.395 31.7107 216.661 32.2387 216.104 32.62C215.459 33.0307 214.769 33.192 214.036 33.104C213.303 32.9867 212.731 32.5613 212.32 31.828C211.968 31.1827 211.88 30.5373 212.056 29.892C212.232 29.2467 212.628 28.7333 213.244 28.352C213.655 28.088 214.197 27.7213 214.872 27.252C215.576 26.7827 216.309 26.2693 217.072 25.712C217.835 25.1547 218.553 24.6267 219.228 24.128C219.932 23.6 220.504 23.16 220.944 22.808V17.176C220.768 17.6747 220.357 18.0853 219.712 18.408C219.067 18.76 218.392 18.8333 217.688 18.628C216.984 18.4227 216.471 17.9973 216.148 17.352C215.972 16.9707 215.693 16.4427 215.312 15.768C214.931 15.0933 214.549 14.4187 214.168 13.744C213.816 13.0693 213.537 12.556 213.332 12.204C212.951 11.6173 212.863 10.9867 213.068 10.312C213.273 9.63733 213.713 9.124 214.388 8.772C215.063 8.42 215.723 8.332 216.368 8.508C217.043 8.65467 217.571 9.05067 217.952 9.696C218.187 10.0773 218.495 10.62 218.876 11.324C219.257 12.028 219.624 12.732 219.976 13.436C220.357 14.1107 220.636 14.624 220.812 14.976L220.944 15.372V4.9C220.944 4.13733 221.193 3.536 221.692 3.096C222.191 2.656 222.777 2.436 223.452 2.436C224.127 2.436 224.699 2.656 225.168 3.096C225.667 3.536 225.916 4.13733 225.916 4.9V40.232C225.916 40.9653 225.667 41.552 225.168 41.992C224.699 42.4613 224.127 42.696 223.452 42.696ZM251.128 12.6C250.629 13.0107 250.043 13.2013 249.368 13.172C248.693 13.1133 248.151 12.82 247.74 12.292C247.535 12.028 247.227 11.6613 246.816 11.192C246.405 10.6933 245.98 10.2093 245.54 9.74C245.129 9.24133 244.792 8.86 244.528 8.596C244.117 8.12667 243.941 7.584 244 6.968C244.059 6.352 244.323 5.85333 244.792 5.472C245.291 5.032 245.848 4.812 246.464 4.812C247.08 4.812 247.623 5.06133 248.092 5.56C248.356 5.824 248.708 6.19067 249.148 6.66C249.588 7.12933 250.013 7.59867 250.424 8.068C250.864 8.53733 251.172 8.88933 251.348 9.124C251.876 9.71067 252.111 10.312 252.052 10.928C252.023 11.544 251.715 12.1013 251.128 12.6ZM274.316 40.936C273.583 40.936 272.952 40.6573 272.424 40.1C271.896 39.572 271.632 38.9413 271.632 38.208V7.804C271.632 7.04133 271.896 6.41067 272.424 5.912C272.952 5.384 273.583 5.12 274.316 5.12C275.079 5.12 275.724 5.384 276.252 5.912C276.78 6.41067 277.044 7.04133 277.044 7.804V18.408C277.425 17.8213 277.953 17.44 278.628 17.264C279.303 17.0587 279.963 17.132 280.608 17.484C282.339 18.3933 284.099 19.4347 285.888 20.608C287.707 21.752 289.276 22.8813 290.596 23.996C291.183 24.4653 291.505 25.096 291.564 25.888C291.652 26.6507 291.447 27.3253 290.948 27.912C290.479 28.4693 289.863 28.792 289.1 28.88C288.337 28.9387 287.663 28.7333 287.076 28.264C286.255 27.6187 285.301 26.9293 284.216 26.196C283.16 25.4627 282.089 24.7587 281.004 24.084C279.948 23.38 278.98 22.7787 278.1 22.28C277.631 22.016 277.279 21.6933 277.044 21.312V38.208C277.044 38.9413 276.78 39.572 276.252 40.1C275.724 40.6573 275.079 40.936 274.316 40.936ZM291.476 16.208C291.095 16.5307 290.625 16.6627 290.068 16.604C289.54 16.5453 289.115 16.296 288.792 15.856C288.499 15.416 288.103 14.8733 287.604 14.228C287.105 13.5827 286.651 13.0253 286.24 12.556C285.976 12.2333 285.859 11.8373 285.888 11.368C285.917 10.8987 286.123 10.5027 286.504 10.18C286.856 9.85733 287.252 9.71067 287.692 9.74C288.161 9.76933 288.572 9.94533 288.924 10.268C289.364 10.6493 289.863 11.1627 290.42 11.808C290.977 12.424 291.447 12.9813 291.828 13.48C292.151 13.92 292.268 14.404 292.18 14.932C292.121 15.4307 291.887 15.856 291.476 16.208ZM295.744 12.468C295.363 12.8493 294.893 13.0253 294.336 12.996C293.808 12.9667 293.383 12.7467 293.06 12.336C292.708 11.9253 292.268 11.4267 291.74 10.84C291.212 10.2533 290.728 9.72533 290.288 9.256C289.995 8.93333 289.833 8.552 289.804 8.112C289.804 7.64266 289.995 7.21733 290.376 6.836C290.699 6.51333 291.08 6.352 291.52 6.352C291.989 6.32267 292.415 6.45467 292.796 6.748C293.236 7.1 293.764 7.56933 294.38 8.156C294.996 8.74266 295.509 9.28533 295.92 9.784C296.243 10.1653 296.389 10.62 296.36 11.148C296.331 11.6467 296.125 12.0867 295.744 12.468ZM316.248 40.848C315.661 41.112 315.045 41.1267 314.4 40.892C313.784 40.6573 313.344 40.2467 313.08 39.66C312.816 39.044 312.801 38.428 313.036 37.812C313.271 37.196 313.681 36.756 314.268 36.492C317.26 35.1427 319.709 33.6173 321.616 31.916C323.552 30.1853 325.063 28.2053 326.148 25.976C327.233 23.7173 327.981 21.136 328.392 18.232C328.48 17.5573 328.788 17.0293 329.316 16.648C329.873 16.2667 330.475 16.12 331.12 16.208C331.765 16.296 332.279 16.604 332.66 17.132C333.071 17.66 333.217 18.2613 333.1 18.936C332.337 23.9813 330.577 28.3373 327.82 32.004C325.092 35.6413 321.235 38.5893 316.248 40.848ZM322.056 26.504C321.411 26.7093 320.809 26.68 320.252 26.416C319.695 26.1227 319.299 25.668 319.064 25.052C318.741 24.2013 318.331 23.2333 317.832 22.148C317.363 21.0627 316.967 20.1973 316.644 19.552C316.351 18.9653 316.277 18.364 316.424 17.748C316.571 17.1027 316.923 16.6187 317.48 16.296C318.067 15.944 318.683 15.856 319.328 16.032C319.973 16.1787 320.443 16.5453 320.736 17.132C321.176 17.9533 321.66 18.9653 322.188 20.168C322.745 21.3413 323.2 22.456 323.552 23.512C323.787 24.128 323.743 24.7293 323.42 25.316C323.127 25.9027 322.672 26.2987 322.056 26.504ZM314.84 28.176C314.253 28.44 313.652 28.4547 313.036 28.22C312.449 27.956 312.009 27.5307 311.716 26.944C311.247 25.976 310.748 25.0373 310.22 24.128C309.721 23.1893 309.267 22.3973 308.856 21.752C308.475 21.1947 308.328 20.5933 308.416 19.948C308.533 19.3027 308.856 18.7893 309.384 18.408C309.912 18.0267 310.499 17.8947 311.144 18.012C311.819 18.1 312.347 18.408 312.728 18.936C313.285 19.728 313.887 20.7253 314.532 21.928C315.177 23.1013 315.691 24.1427 316.072 25.052C316.365 25.6387 316.38 26.24 316.116 26.856C315.881 27.472 315.456 27.912 314.84 28.176ZM362.316 40.892C361.583 40.892 360.952 40.628 360.424 40.1C359.896 39.572 359.632 38.9413 359.632 38.208V7.804C359.632 7.04133 359.896 6.41067 360.424 5.912C360.952 5.384 361.583 5.12 362.316 5.12C363.079 5.12 363.724 5.384 364.252 5.912C364.78 6.41067 365.044 7.04133 365.044 7.804V18.408C365.425 17.8213 365.953 17.44 366.628 17.264C367.303 17.0587 367.963 17.1173 368.608 17.44C370.339 18.3493 372.099 19.3907 373.888 20.564C375.707 21.7373 377.276 22.8813 378.596 23.996C379.183 24.4653 379.505 25.096 379.564 25.888C379.652 26.6507 379.447 27.3253 378.948 27.912C378.479 28.4693 377.863 28.792 377.1 28.88C376.337 28.9387 375.663 28.7333 375.076 28.264C374.255 27.6187 373.301 26.9293 372.216 26.196C371.16 25.4627 370.089 24.7587 369.004 24.084C367.948 23.38 366.98 22.7787 366.1 22.28C365.631 22.016 365.279 21.6933 365.044 21.312V38.208C365.044 38.9413 364.78 39.572 364.252 40.1C363.724 40.628 363.079 40.892 362.316 40.892ZM396.46 34.424C395.727 34.424 395.081 34.16 394.524 33.632C393.996 33.0747 393.732 32.4293 393.732 31.696C393.732 30.9333 393.996 30.3027 394.524 29.804C395.081 29.276 395.727 29.012 396.46 29.012H411.816C413.605 29.012 414.955 28.88 415.864 28.616C416.773 28.3227 417.375 27.7213 417.668 26.812C417.991 25.9027 418.152 24.5093 418.152 22.632C418.152 20.7253 417.991 19.332 417.668 18.452C417.375 17.5427 416.773 16.956 415.864 16.692C414.984 16.3987 413.649 16.252 411.86 16.252H396.944C396.211 16.252 395.58 15.988 395.052 15.46C394.524 14.932 394.26 14.2867 394.26 13.524C394.26 12.7613 394.524 12.1307 395.052 11.632C395.58 11.104 396.211 10.84 396.944 10.84H411.86C414.148 10.84 416.04 11.016 417.536 11.368C419.061 11.72 420.264 12.336 421.144 13.216C422.024 14.096 422.64 15.2987 422.992 16.824C423.373 18.3493 423.564 20.2853 423.564 22.632C423.564 24.9787 423.373 26.9147 422.992 28.44C422.64 29.9653 422.024 31.168 421.144 32.048C420.264 32.928 419.061 33.544 417.536 33.896C416.011 34.248 414.104 34.424 411.816 34.424H396.46ZM468.972 37.548C468.327 37.9 467.637 37.9587 466.904 37.724C466.2 37.4893 465.657 37.0493 465.276 36.404C464.983 35.876 464.587 35.26 464.088 34.556C463.589 33.852 463.047 33.0893 462.46 32.268C460.759 32.5613 458.823 32.8693 456.652 33.192C454.481 33.4853 452.223 33.7787 449.876 34.072C447.559 34.336 445.315 34.5853 443.144 34.82C440.973 35.0253 439.052 35.1867 437.38 35.304C436.647 35.3627 435.987 35.1427 435.4 34.644C434.843 34.1453 434.535 33.5293 434.476 32.796C434.447 32.0333 434.681 31.3733 435.18 30.816C435.708 30.2587 436.339 29.9653 437.072 29.936C437.541 29.8773 438.025 29.8333 438.524 29.804C439.023 29.7747 439.551 29.7453 440.108 29.716C440.988 28.4253 441.912 26.9293 442.88 25.228C443.877 23.4973 444.845 21.708 445.784 19.86C446.723 18.012 447.573 16.2373 448.336 14.536C449.128 12.8347 449.773 11.368 450.272 10.136C450.536 9.432 451.005 8.91867 451.68 8.596C452.355 8.27333 453.044 8.244 453.748 8.508C454.452 8.772 454.965 9.256 455.288 9.96C455.64 10.6347 455.669 11.3093 455.376 11.984C454.731 13.5093 453.924 15.2693 452.956 17.264C451.988 19.2293 450.932 21.2533 449.788 23.336C448.644 25.3893 447.485 27.34 446.312 29.188C448.483 28.9827 450.668 28.7773 452.868 28.572C455.097 28.3373 457.151 28.1027 459.028 27.868C458.412 27.1053 457.811 26.3867 457.224 25.712C456.637 25.0373 456.095 24.4653 455.596 23.996C455.097 23.4387 454.848 22.7933 454.848 22.06C454.877 21.3267 455.171 20.7107 455.728 20.212C456.285 19.7133 456.931 19.4787 457.664 19.508C458.397 19.5373 459.013 19.816 459.512 20.344C460.275 21.1067 461.155 22.0893 462.152 23.292C463.149 24.4653 464.161 25.712 465.188 27.032C466.244 28.352 467.212 29.6133 468.092 30.816C468.972 32.0187 469.647 33.0307 470.116 33.852C470.497 34.4973 470.571 35.1867 470.336 35.92C470.101 36.6533 469.647 37.196 468.972 37.548ZM501.708 38.868C500.975 39.044 500.285 38.9413 499.64 38.56C498.995 38.1787 498.584 37.636 498.408 36.932C498.232 36.228 498.335 35.568 498.716 34.952C499.097 34.3067 499.64 33.896 500.344 33.72C503.6 32.8693 505.991 31.4907 507.516 29.584C509.071 27.6773 509.848 25.2573 509.848 22.324C509.848 20.476 509.437 18.8187 508.616 17.352C507.795 15.8853 506.621 14.6973 505.096 13.788C503.6 12.8787 501.796 12.3213 499.684 12.116C499.156 17.044 498.261 21.312 497 24.92C495.768 28.4987 494.301 31.2707 492.6 33.236C490.928 35.172 489.168 36.14 487.32 36.14C485.765 36.14 484.343 35.6853 483.052 34.776C481.761 33.8667 480.735 32.5613 479.972 30.86C479.239 29.1587 478.872 27.12 478.872 24.744C478.872 22.3093 479.327 20.036 480.236 17.924C481.175 15.7827 482.495 13.9053 484.196 12.292C485.897 10.6787 487.892 9.41733 490.18 8.508C492.497 7.59867 495.035 7.144 497.792 7.144C501.136 7.144 504.099 7.78933 506.68 9.08C509.291 10.3413 511.344 12.116 512.84 14.404C514.336 16.6627 515.084 19.3027 515.084 22.324C515.084 26.5773 513.94 30.1267 511.652 32.972C509.393 35.788 506.079 37.7533 501.708 38.868ZM487.364 30.728C487.892 30.728 488.493 30.288 489.168 29.408C489.872 28.4987 490.576 27.2227 491.28 25.58C491.984 23.9373 492.629 22.0013 493.216 19.772C493.803 17.5133 494.243 15.02 494.536 12.292C492.248 12.732 490.327 13.5827 488.772 14.844C487.217 16.076 486.044 17.5573 485.252 19.288C484.46 20.9893 484.049 22.7787 484.02 24.656C484.02 26.6507 484.328 28.1613 484.944 29.188C485.589 30.2147 486.396 30.728 487.364 30.728ZM543.42 42.96C542.687 42.96 542.041 42.7107 541.484 42.212C540.956 41.7133 540.692 41.0533 540.692 40.232V32.928H522.652C522.007 32.928 521.464 32.708 521.024 32.268C520.584 31.828 520.364 31.2853 520.364 30.64C520.364 29.9947 520.584 29.452 521.024 29.012C521.464 28.572 522.007 28.352 522.652 28.352H528.372V24.656C528.372 22.8373 528.621 21.4 529.12 20.344C529.619 19.288 530.469 18.54 531.672 18.1C532.904 17.6307 534.605 17.396 536.776 17.396H540.692V12.38H531.672C530.821 13.6413 529.927 14.8587 528.988 16.032C528.049 17.176 527.111 18.232 526.172 19.2C525.615 19.7573 524.955 20.08 524.192 20.168C523.459 20.256 522.799 20.036 522.212 19.508C521.655 19.0387 521.361 18.4667 521.332 17.792C521.303 17.088 521.567 16.4573 522.124 15.9C523.327 14.7267 524.485 13.392 525.6 11.896C526.744 10.4 527.8 8.87466 528.768 7.32C529.736 5.76533 530.528 4.328 531.144 3.008C531.467 2.36267 531.965 1.92266 532.64 1.688C533.344 1.45333 534.004 1.49733 534.62 1.82C535.265 2.11333 535.705 2.568 535.94 3.184C536.175 3.77067 536.131 4.38667 535.808 5.032C535.427 5.912 534.987 6.792 534.488 7.672H557.236C557.881 7.672 558.424 7.90667 558.864 8.376C559.333 8.816 559.568 9.35866 559.568 10.004C559.568 10.6493 559.333 11.2067 558.864 11.676C558.424 12.1453 557.881 12.38 557.236 12.38H546.148V17.396H554.464C555.109 17.396 555.652 17.6307 556.092 18.1C556.532 18.54 556.752 19.0827 556.752 19.728C556.752 20.3733 556.532 20.9307 556.092 21.4C555.652 21.84 555.109 22.06 554.464 22.06H546.148V28.352H559.172C559.817 28.352 560.36 28.572 560.8 29.012C561.24 29.452 561.46 29.9947 561.46 30.64C561.46 31.2853 561.24 31.828 560.8 32.268C560.36 32.708 559.817 32.928 559.172 32.928H546.148V40.232C546.148 41.0533 545.884 41.7133 545.356 42.212C544.828 42.7107 544.183 42.96 543.42 42.96ZM533.784 28.352H540.692V22.06H536.776C535.544 22.06 534.737 22.2213 534.356 22.544C533.975 22.8373 533.784 23.5413 533.784 24.656V28.352ZM570.304 42.652C569.541 42.8573 568.867 42.8573 568.28 42.652C567.693 42.476 567.283 42.0507 567.048 41.376C566.872 40.7893 566.916 40.188 567.18 39.572C567.444 38.9853 567.899 38.6187 568.544 38.472C569.307 38.296 570.157 38.0613 571.096 37.768C572.064 37.4453 573.047 37.0933 574.044 36.712C575.071 36.3307 575.995 35.9493 576.816 35.568C574.968 35.2747 573.648 34.644 572.856 33.676C572.064 32.6787 571.668 31.1973 571.668 29.232V24.04C571.668 21.6053 572.284 19.9187 573.516 18.98C574.748 18.012 576.86 17.528 579.852 17.528H590.28C593.301 17.528 595.428 18.012 596.66 18.98C597.892 19.9187 598.508 21.6053 598.508 24.04V29.232C598.508 31.2267 598.097 32.7227 597.276 33.72C596.484 34.688 595.135 35.304 593.228 35.568C594.489 36.1547 595.897 36.7267 597.452 37.284C599.007 37.8413 600.341 38.2373 601.456 38.472C602.131 38.6187 602.585 38.9853 602.82 39.572C603.084 40.188 603.128 40.7893 602.952 41.376C602.717 42.0507 602.307 42.476 601.72 42.652C601.133 42.8573 600.459 42.8573 599.696 42.652C598.757 42.388 597.672 42.0213 596.44 41.552C595.237 41.112 594.049 40.6427 592.876 40.144C591.703 39.6453 590.705 39.176 589.884 38.736C589.327 38.4133 588.989 37.988 588.872 37.46C588.755 36.9027 588.828 36.3747 589.092 35.876C589.121 35.8467 589.136 35.832 589.136 35.832C589.136 35.8027 589.151 35.7733 589.18 35.744H580.82C580.879 35.8027 580.908 35.8467 580.908 35.876C581.172 36.3747 581.245 36.9027 581.128 37.46C581.04 37.988 580.703 38.4133 580.116 38.736C579.295 39.176 578.297 39.6453 577.124 40.144C575.951 40.6427 574.763 41.112 573.56 41.552C572.357 42.0213 571.272 42.388 570.304 42.652ZM568.984 19.244C568.397 19.6253 567.737 19.8013 567.004 19.772C566.271 19.7427 565.699 19.42 565.288 18.804C564.965 18.3053 564.863 17.748 564.98 17.132C565.097 16.4867 565.42 16.0173 565.948 15.724C567.503 14.8733 568.764 13.9053 569.732 12.82C570.7 11.7347 571.463 10.444 572.02 8.948H567.4C566.813 8.948 566.344 8.772 565.992 8.42C565.64 8.03867 565.464 7.584 565.464 7.056C565.464 6.49866 565.64 6.02933 565.992 5.648C566.344 5.26667 566.813 5.076 567.4 5.076H572.9C572.959 4.84133 572.988 4.592 572.988 4.328C573.017 4.03466 573.047 3.756 573.076 3.492C573.135 2.72933 573.428 2.18666 573.956 1.864C574.484 1.54133 575.085 1.40933 575.76 1.468C576.376 1.52667 576.889 1.776 577.3 2.216C577.711 2.656 577.887 3.24266 577.828 3.976C577.799 4.18133 577.769 4.372 577.74 4.548C577.74 4.724 577.725 4.9 577.696 5.076H580.468C582.228 5.076 583.519 5.516 584.34 6.396C585.191 7.24667 585.499 8.62533 585.264 10.532C585.059 12.2333 584.692 13.5387 584.164 14.448C583.665 15.3573 582.947 15.988 582.008 16.34C581.099 16.692 579.911 16.868 578.444 16.868C577.828 16.868 577.3 16.692 576.86 16.34C576.449 15.9587 576.215 15.4453 576.156 14.8C576.127 14.2133 576.288 13.7147 576.64 13.304C576.992 12.864 577.447 12.6293 578.004 12.6C578.972 12.5413 579.588 12.4093 579.852 12.204C580.145 11.9987 580.365 11.4853 580.512 10.664C580.629 10.0187 580.6 9.57867 580.424 9.344C580.248 9.08 579.779 8.948 579.016 8.948H576.772C576.039 11.236 575.012 13.2453 573.692 14.976C572.372 16.6773 570.803 18.1 568.984 19.244ZM594.284 15.9C592.671 15.9 591.365 15.7387 590.368 15.416C589.4 15.064 588.696 14.4627 588.256 13.612C587.845 12.732 587.64 11.4853 587.64 9.872C587.64 8.22933 587.845 6.98266 588.256 6.132C588.696 5.252 589.4 4.65067 590.368 4.328C591.365 3.976 592.671 3.8 594.284 3.8H596.836C598.479 3.8 599.784 3.976 600.752 4.328C601.72 4.65067 602.409 5.252 602.82 6.132C603.26 6.98266 603.48 8.22933 603.48 9.872C603.48 11.4853 603.26 12.732 602.82 13.612C602.409 14.4627 601.72 15.064 600.752 15.416C599.784 15.7387 598.479 15.9 596.836 15.9H594.284ZM576.904 27.472H593.228V25.712H576.904V27.472ZM594.504 12.028H596.616C597.613 12.028 598.259 11.896 598.552 11.632C598.845 11.3387 598.992 10.752 598.992 9.872C598.992 8.96267 598.845 8.376 598.552 8.112C598.259 7.81867 597.613 7.672 596.616 7.672H594.504C593.507 7.672 592.861 7.81867 592.568 8.112C592.275 8.376 592.128 8.96267 592.128 9.872C592.128 10.752 592.275 11.3387 592.568 11.632C592.861 11.896 593.507 12.028 594.504 12.028ZM579.94 32.18H590.236C591.292 32.18 592.025 32.0627 592.436 31.828C592.847 31.5933 593.096 31.124 593.184 30.42H576.992C577.051 31.124 577.285 31.5933 577.696 31.828C578.136 32.0627 578.884 32.18 579.94 32.18ZM576.992 22.764H593.184C593.067 22.1187 592.803 21.6933 592.392 21.488C591.981 21.2533 591.263 21.136 590.236 21.136H579.94C578.913 21.136 578.18 21.2533 577.74 21.488C577.329 21.6933 577.08 22.1187 576.992 22.764ZM645.192 41.068C642.875 39.3373 640.924 37.4013 639.34 35.26C637.785 33.0893 636.539 30.8013 635.6 28.396C634.779 30.8013 633.635 33.0747 632.168 35.216C630.731 37.328 628.912 39.2347 626.712 40.936C626.125 41.376 625.451 41.596 624.688 41.596C623.955 41.596 623.339 41.2733 622.84 40.628C622.429 40.0413 622.283 39.4107 622.4 38.736C622.517 38.0613 622.869 37.5187 623.456 37.108C629.029 33.148 632.124 27.428 632.74 19.948H625.348C624.703 19.948 624.145 19.7133 623.676 19.244C623.207 18.7453 622.972 18.1733 622.972 17.528C622.972 16.8533 623.207 16.2813 623.676 15.812C624.145 15.3427 624.703 15.108 625.348 15.108H632.872V5.12C632.872 4.328 633.136 3.712 633.664 3.272C634.192 2.80266 634.779 2.568 635.424 2.568C636.128 2.568 636.715 2.80266 637.184 3.272C637.683 3.712 637.932 4.328 637.932 5.12V15.108H646.776C647.451 15.108 648.023 15.3427 648.492 15.812C648.961 16.2813 649.196 16.8533 649.196 17.528C649.196 18.1733 648.961 18.7453 648.492 19.244C648.023 19.7133 647.451 19.948 646.776 19.948H638.108C638.519 23.6733 639.648 26.9733 641.496 29.848C643.373 32.6933 645.749 35.1133 648.624 37.108C649.211 37.4893 649.548 38.032 649.636 38.736C649.724 39.44 649.533 40.0707 649.064 40.628C648.565 41.2733 647.949 41.6253 647.216 41.684C646.512 41.7427 645.837 41.5373 645.192 41.068ZM619.452 42.696C618.777 42.696 618.191 42.4613 617.692 41.992C617.193 41.552 616.944 40.9653 616.944 40.232V29.012C616.123 29.6573 615.243 30.332 614.304 31.036C613.395 31.7107 612.661 32.2387 612.104 32.62C611.459 33.0307 610.769 33.192 610.036 33.104C609.303 32.9867 608.731 32.5613 608.32 31.828C607.968 31.1827 607.88 30.5373 608.056 29.892C608.232 29.2467 608.628 28.7333 609.244 28.352C609.655 28.088 610.197 27.7213 610.872 27.252C611.576 26.7827 612.309 26.2693 613.072 25.712C613.835 25.1547 614.553 24.6267 615.228 24.128C615.932 23.6 616.504 23.16 616.944 22.808V17.176C616.768 17.6747 616.357 18.0853 615.712 18.408C615.067 18.76 614.392 18.8333 613.688 18.628C612.984 18.4227 612.471 17.9973 612.148 17.352C611.972 16.9707 611.693 16.4427 611.312 15.768C610.931 15.0933 610.549 14.4187 610.168 13.744C609.816 13.0693 609.537 12.556 609.332 12.204C608.951 11.6173 608.863 10.9867 609.068 10.312C609.273 9.63733 609.713 9.124 610.388 8.772C611.063 8.42 611.723 8.332 612.368 8.508C613.043 8.65467 613.571 9.05067 613.952 9.696C614.187 10.0773 614.495 10.62 614.876 11.324C615.257 12.028 615.624 12.732 615.976 13.436C616.357 14.1107 616.636 14.624 616.812 14.976L616.944 15.372V4.9C616.944 4.13733 617.193 3.536 617.692 3.096C618.191 2.656 618.777 2.436 619.452 2.436C620.127 2.436 620.699 2.656 621.168 3.096C621.667 3.536 621.916 4.13733 621.916 4.9V40.232C621.916 40.9653 621.667 41.552 621.168 41.992C620.699 42.4613 620.127 42.696 619.452 42.696ZM647.128 12.6C646.629 13.0107 646.043 13.2013 645.368 13.172C644.693 13.1133 644.151 12.82 643.74 12.292C643.535 12.028 643.227 11.6613 642.816 11.192C642.405 10.6933 641.98 10.2093 641.54 9.74C641.129 9.24133 640.792 8.86 640.528 8.596C640.117 8.12667 639.941 7.584 640 6.968C640.059 6.352 640.323 5.85333 640.792 5.472C641.291 5.032 641.848 4.812 642.464 4.812C643.08 4.812 643.623 5.06133 644.092 5.56C644.356 5.824 644.708 6.19067 645.148 6.66C645.588 7.12933 646.013 7.59867 646.424 8.068C646.864 8.53733 647.172 8.88933 647.348 9.124C647.876 9.71067 648.111 10.312 648.052 10.928C648.023 11.544 647.715 12.1013 647.128 12.6Z" fill="#010F32"/>
<g clip-path="url(#clip0_444_1235)">
<path d="M43 13.3205C39.3581 13.3205 36.3551 10.296 36.3551 6.62806C36.3551 2.9601 39.3581 0 43 0C46.6419 0 49.6449 3.02445 49.6449 6.69241C49.6449 10.3604 46.6419 13.3205 43 13.3205ZM43 4.18275C41.6583 4.18275 40.5082 5.27671 40.5082 6.69241C40.5082 8.10811 41.5944 9.20206 43 9.20206C44.3418 9.20206 45.4918 8.10811 45.4918 6.69241C45.4918 5.27671 44.3418 4.18275 43 4.18275Z" fill="#010F32"/>
<path d="M61.2095 22.5225C57.5676 22.5225 54.5646 19.4981 54.5646 15.8301C54.5646 12.1621 57.5676 9.1377 61.2095 9.1377C64.8514 9.1377 67.8544 12.1621 67.8544 15.8301C67.8544 19.4981 64.8514 22.5225 61.2095 22.5225ZM61.2095 13.3205C59.8678 13.3205 58.7177 14.4144 58.7177 15.8301C58.7177 17.2458 59.8039 18.3398 61.2095 18.3398C62.5513 18.3398 63.7013 17.2458 63.7013 15.8301C63.7013 14.4144 62.5513 13.3205 61.2095 13.3205Z" fill="#010F32"/>
<path d="M79.3551 31.6602C75.7132 31.6602 72.7103 28.6358 72.7103 24.9678C72.7103 21.2998 75.7132 18.2754 79.3551 18.2754C82.997 18.2754 86 21.2998 86 24.9678C86 28.7001 83.0609 31.6602 79.3551 31.6602ZM79.3551 22.5225C78.0134 22.5225 76.8633 23.6164 76.8633 25.0321C76.8633 26.4479 77.9495 27.5418 79.3551 27.5418C80.6969 27.5418 81.847 26.4479 81.847 25.0321C81.847 23.6164 80.7608 22.5225 79.3551 22.5225Z" fill="#010F32"/>
<path d="M61.2095 40.7979C57.5676 40.7979 54.5646 37.7734 54.5646 34.1055C54.5646 30.4375 57.5676 27.4131 61.2095 27.4131C64.8514 27.4131 67.8544 30.4375 67.8544 34.1055C67.7905 37.8378 64.8514 40.7979 61.2095 40.7979ZM61.2095 31.6602C59.8678 31.6602 58.7177 32.7541 58.7177 34.1698C58.7177 35.5212 59.8039 36.6795 61.2095 36.6795C62.5513 36.6795 63.7013 35.5855 63.7013 34.1698C63.6374 32.7541 62.5513 31.6602 61.2095 31.6602Z" fill="#010F32"/>
<path d="M43 50C39.3581 50 36.3551 46.9756 36.3551 43.3076C36.3551 39.6397 39.3581 36.6152 43 36.6152C46.6419 36.6152 49.6449 39.6397 49.6449 43.3076C49.6449 46.9756 46.6419 50 43 50ZM43 40.798C41.6583 40.798 40.5082 41.8919 40.5082 43.3076C40.5082 44.659 41.5944 45.8173 43 45.8173C44.3418 45.8173 45.4918 44.7233 45.4918 43.3076C45.4918 41.9563 44.3418 40.798 43 40.798Z" fill="#010F32"/>
<path d="M43 31.6602C39.3581 31.6602 36.3551 28.6358 36.3551 24.9678C36.3551 21.2998 39.3581 18.2754 43 18.2754C46.6419 18.2754 49.6449 21.2998 49.6449 24.9678C49.6449 28.7001 46.6419 31.6602 43 31.6602ZM43 22.5225C41.6583 22.5225 40.5082 23.6164 40.5082 25.0321C40.5082 26.4479 41.5944 27.5418 43 27.5418C44.3418 27.5418 45.4918 26.4479 45.4918 25.0321C45.4918 23.6164 44.3418 22.5225 43 22.5225Z" fill="#010F32"/>
<path d="M24.7905 40.7979C21.1486 40.7979 18.1456 37.7734 18.1456 34.1055C18.1456 30.4375 21.1486 27.4131 24.7905 27.4131C28.4324 27.4131 31.4354 30.4375 31.4354 34.1055C31.4354 37.8378 28.4963 40.7979 24.7905 40.7979ZM24.7905 31.6602C23.4488 31.6602 22.2987 32.7541 22.2987 34.1698C22.2987 35.5212 23.3849 36.6795 24.7905 36.6795C26.1323 36.6795 27.2823 35.5855 27.2823 34.1698C27.2823 32.7541 26.1961 31.6602 24.7905 31.6602Z" fill="#010F32"/>
<path d="M6.64487 31.6602C3.00297 31.6602 0 28.7001 0 24.9678C0 21.2998 3.00297 18.2754 6.64487 18.2754C10.2868 18.2754 13.2897 21.2998 13.2897 24.9678C13.2259 28.7001 10.2868 31.6602 6.64487 31.6602ZM6.64487 22.5225C5.30312 22.5225 4.15305 23.6164 4.15305 25.0321C4.15305 26.4479 5.23923 27.5418 6.64487 27.5418C7.98663 27.5418 9.1367 26.4479 9.1367 25.0321C9.1367 23.6164 7.98663 22.5225 6.64487 22.5225Z" fill="#010F32"/>
<path d="M24.7905 22.5225C21.1486 22.5225 18.1456 19.4981 18.1456 15.8301C18.1456 12.1621 21.1486 9.1377 24.7905 9.1377C28.4324 9.1377 31.4354 12.1621 31.4354 15.8301C31.4354 19.4981 28.4963 22.5225 24.7905 22.5225ZM24.7905 13.3205C23.4488 13.3205 22.2987 14.4144 22.2987 15.8301C22.2987 17.2458 23.3849 18.3398 24.7905 18.3398C26.1323 18.3398 27.2823 17.2458 27.2823 15.8301C27.2823 14.4144 26.1961 13.3205 24.7905 13.3205Z" fill="#010F32"/>
</g>
<g clip-path="url(#clip1_444_1235)">
<path d="M730 13.3205C726.358 13.3205 723.355 10.296 723.355 6.62806C723.355 2.9601 726.358 0 730 0C733.642 0 736.645 3.02445 736.645 6.69241C736.645 10.3604 733.642 13.3205 730 13.3205ZM730 4.18275C728.658 4.18275 727.508 5.27671 727.508 6.69241C727.508 8.10811 728.594 9.20206 730 9.20206C731.342 9.20206 732.492 8.10811 732.492 6.69241C732.492 5.27671 731.342 4.18275 730 4.18275Z" fill="#010F32"/>
<path d="M748.21 22.5225C744.568 22.5225 741.565 19.4981 741.565 15.8301C741.565 12.1621 744.568 9.1377 748.21 9.1377C751.851 9.1377 754.854 12.1621 754.854 15.8301C754.854 19.4981 751.851 22.5225 748.21 22.5225ZM748.21 13.3205C746.868 13.3205 745.718 14.4144 745.718 15.8301C745.718 17.2458 746.804 18.3398 748.21 18.3398C749.551 18.3398 750.701 17.2458 750.701 15.8301C750.701 14.4144 749.551 13.3205 748.21 13.3205Z" fill="#010F32"/>
<path d="M766.355 31.6602C762.713 31.6602 759.71 28.6358 759.71 24.9678C759.71 21.2998 762.713 18.2754 766.355 18.2754C769.997 18.2754 773 21.2998 773 24.9678C773 28.7001 770.061 31.6602 766.355 31.6602ZM766.355 22.5225C765.013 22.5225 763.863 23.6164 763.863 25.0321C763.863 26.4479 764.949 27.5418 766.355 27.5418C767.697 27.5418 768.847 26.4479 768.847 25.0321C768.847 23.6164 767.761 22.5225 766.355 22.5225Z" fill="#010F32"/>
<path d="M748.21 40.7979C744.568 40.7979 741.565 37.7734 741.565 34.1055C741.565 30.4375 744.568 27.4131 748.21 27.4131C751.851 27.4131 754.854 30.4375 754.854 34.1055C754.79 37.8378 751.851 40.7979 748.21 40.7979ZM748.21 31.6602C746.868 31.6602 745.718 32.7541 745.718 34.1698C745.718 35.5212 746.804 36.6795 748.21 36.6795C749.551 36.6795 750.701 35.5855 750.701 34.1698C750.637 32.7541 749.551 31.6602 748.21 31.6602Z" fill="#010F32"/>
<path d="M730 50C726.358 50 723.355 46.9756 723.355 43.3076C723.355 39.6397 726.358 36.6152 730 36.6152C733.642 36.6152 736.645 39.6397 736.645 43.3076C736.645 46.9756 733.642 50 730 50ZM730 40.798C728.658 40.798 727.508 41.8919 727.508 43.3076C727.508 44.659 728.594 45.8173 730 45.8173C731.342 45.8173 732.492 44.7233 732.492 43.3076C732.492 41.9563 731.342 40.798 730 40.798Z" fill="#010F32"/>
<path d="M730 31.6602C726.358 31.6602 723.355 28.6358 723.355 24.9678C723.355 21.2998 726.358 18.2754 730 18.2754C733.642 18.2754 736.645 21.2998 736.645 24.9678C736.645 28.7001 733.642 31.6602 730 31.6602ZM730 22.5225C728.658 22.5225 727.508 23.6164 727.508 25.0321C727.508 26.4479 728.594 27.5418 730 27.5418C731.342 27.5418 732.492 26.4479 732.492 25.0321C732.492 23.6164 731.342 22.5225 730 22.5225Z" fill="#010F32"/>
<path d="M711.791 40.7979C708.149 40.7979 705.146 37.7734 705.146 34.1055C705.146 30.4375 708.149 27.4131 711.791 27.4131C715.432 27.4131 718.435 30.4375 718.435 34.1055C718.435 37.8378 715.496 40.7979 711.791 40.7979ZM711.791 31.6602C710.449 31.6602 709.299 32.7541 709.299 34.1698C709.299 35.5212 710.385 36.6795 711.791 36.6795C713.132 36.6795 714.282 35.5855 714.282 34.1698C714.282 32.7541 713.196 31.6602 711.791 31.6602Z" fill="#010F32"/>
<path d="M693.645 31.6602C690.003 31.6602 687 28.7001 687 24.9678C687 21.2998 690.003 18.2754 693.645 18.2754C697.287 18.2754 700.29 21.2998 700.29 24.9678C700.226 28.7001 697.287 31.6602 693.645 31.6602ZM693.645 22.5225C692.303 22.5225 691.153 23.6164 691.153 25.0321C691.153 26.4479 692.239 27.5418 693.645 27.5418C694.987 27.5418 696.137 26.4479 696.137 25.0321C696.137 23.6164 694.987 22.5225 693.645 22.5225Z" fill="#010F32"/>
<path d="M711.791 22.5225C708.149 22.5225 705.146 19.4981 705.146 15.8301C705.146 12.1621 708.149 9.1377 711.791 9.1377C715.432 9.1377 718.435 12.1621 718.435 15.8301C718.435 19.4981 715.496 22.5225 711.791 22.5225ZM711.791 13.3205C710.449 13.3205 709.299 14.4144 709.299 15.8301C709.299 17.2458 710.385 18.3398 711.791 18.3398C713.132 18.3398 714.282 17.2458 714.282 15.8301C714.282 14.4144 713.196 13.3205 711.791 13.3205Z" fill="#010F32"/>
</g>
<defs>
<clipPath id="clip0_444_1235">
<rect width="86" height="50" fill="white"/>
</clipPath>
<clipPath id="clip1_444_1235">
<rect width="86" height="50" fill="white" transform="translate(687)"/>
</clipPath>
</defs>
</svg>
