<svg width="1030" height="110" viewBox="0 0 1030 110" fill="none" xmlns="http://www.w3.org/2000/svg">
<g clip-path="url(#clip0_387_715)">
<path d="M40.16 54.1299H35.4C35.2233 54.1299 35.08 54.2732 35.08 54.4499V73.2399C35.08 73.4166 35.2233 73.5599 35.4 73.5599H40.16C40.3367 73.5599 40.48 73.4166 40.48 73.2399V54.4499C40.48 54.2732 40.3367 54.1299 40.16 54.1299Z" fill="#F8B1BF"/>
<path d="M33.14 54.1299H28.38C28.2033 54.1299 28.06 54.2732 28.06 54.4499V73.2399C28.06 73.4166 28.2033 73.5599 28.38 73.5599H33.14C33.3167 73.5599 33.46 73.4166 33.46 73.2399V54.4499C33.46 54.2732 33.3167 54.1299 33.14 54.1299Z" fill="#F8B1BF"/>
<path d="M26.13 54.1299H21.37C21.1933 54.1299 21.05 54.2732 21.05 54.4499V73.2399C21.05 73.4166 21.1933 73.5599 21.37 73.5599H26.13C26.3067 73.5599 26.45 73.4166 26.45 73.2399V54.4499C26.45 54.2732 26.3067 54.1299 26.13 54.1299Z" fill="#F8B1BF"/>
<path d="M82.25 54.1299H77.49C77.3133 54.1299 77.17 54.2732 77.17 54.4499V73.2399C77.17 73.4166 77.3133 73.5599 77.49 73.5599H82.25C82.4267 73.5599 82.57 73.4166 82.57 73.2399V54.4499C82.57 54.2732 82.4267 54.1299 82.25 54.1299Z" fill="#F8B1BF"/>
<path d="M75.24 54.1299H70.48C70.3033 54.1299 70.16 54.2732 70.16 54.4499V73.2399C70.16 73.4166 70.3033 73.5599 70.48 73.5599H75.24C75.4167 73.5599 75.56 73.4166 75.56 73.2399V54.4499C75.56 54.2732 75.4167 54.1299 75.24 54.1299Z" fill="#F8B1BF"/>
<path d="M68.22 54.1299H63.46C63.2833 54.1299 63.14 54.2732 63.14 54.4499V73.2399C63.14 73.4166 63.2833 73.5599 63.46 73.5599H68.22C68.3967 73.5599 68.54 73.4166 68.54 73.2399V54.4499C68.54 54.2732 68.3967 54.1299 68.22 54.1299Z" fill="#F8B1BF"/>
<path d="M124.35 54.1299H119.59C119.413 54.1299 119.27 54.2732 119.27 54.4499V73.2399C119.27 73.4166 119.413 73.5599 119.59 73.5599H124.35C124.527 73.5599 124.67 73.4166 124.67 73.2399V54.4499C124.67 54.2732 124.527 54.1299 124.35 54.1299Z" fill="#F8B1BF"/>
<path d="M117.33 54.1299H112.57C112.393 54.1299 112.25 54.2732 112.25 54.4499V73.2399C112.25 73.4166 112.393 73.5599 112.57 73.5599H117.33C117.507 73.5599 117.65 73.4166 117.65 73.2399V54.4499C117.65 54.2732 117.507 54.1299 117.33 54.1299Z" fill="#F8B1BF"/>
<path d="M110.32 54.1299H105.56C105.383 54.1299 105.24 54.2732 105.24 54.4499V73.2399C105.24 73.4166 105.383 73.5599 105.56 73.5599H110.32C110.497 73.5599 110.64 73.4166 110.64 73.2399V54.4499C110.64 54.2732 110.497 54.1299 110.32 54.1299Z" fill="#F8B1BF"/>
<path d="M166.44 54.1299H161.68C161.503 54.1299 161.36 54.2732 161.36 54.4499V73.2399C161.36 73.4166 161.503 73.5599 161.68 73.5599H166.44C166.617 73.5599 166.76 73.4166 166.76 73.2399V54.4499C166.76 54.2732 166.617 54.1299 166.44 54.1299Z" fill="#F8B1BF"/>
<path d="M159.43 54.1299H154.67C154.493 54.1299 154.35 54.2732 154.35 54.4499V73.2399C154.35 73.4166 154.493 73.5599 154.67 73.5599H159.43C159.607 73.5599 159.75 73.4166 159.75 73.2399V54.4499C159.75 54.2732 159.607 54.1299 159.43 54.1299Z" fill="#F8B1BF"/>
<path d="M152.41 54.1299H147.65C147.473 54.1299 147.33 54.2732 147.33 54.4499V73.2399C147.33 73.4166 147.473 73.5599 147.65 73.5599H152.41C152.587 73.5599 152.73 73.4166 152.73 73.2399V54.4499C152.73 54.2732 152.587 54.1299 152.41 54.1299Z" fill="#F8B1BF"/>
<path d="M208.54 54.1299H203.78C203.603 54.1299 203.46 54.2732 203.46 54.4499V73.2399C203.46 73.4166 203.603 73.5599 203.78 73.5599H208.54C208.717 73.5599 208.86 73.4166 208.86 73.2399V54.4499C208.86 54.2732 208.717 54.1299 208.54 54.1299Z" fill="#F8B1BF"/>
<path d="M201.52 54.1299H196.76C196.583 54.1299 196.44 54.2732 196.44 54.4499V73.2399C196.44 73.4166 196.583 73.5599 196.76 73.5599H201.52C201.697 73.5599 201.84 73.4166 201.84 73.2399V54.4499C201.84 54.2732 201.697 54.1299 201.52 54.1299Z" fill="#F8B1BF"/>
<path d="M194.51 54.1299H189.75C189.573 54.1299 189.43 54.2732 189.43 54.4499V73.2399C189.43 73.4166 189.573 73.5599 189.75 73.5599H194.51C194.687 73.5599 194.83 73.4166 194.83 73.2399V54.4499C194.83 54.2732 194.687 54.1299 194.51 54.1299Z" fill="#F8B1BF"/>
<path d="M250.63 54.1299H245.87C245.693 54.1299 245.55 54.2732 245.55 54.4499V73.2399C245.55 73.4166 245.693 73.5599 245.87 73.5599H250.63C250.807 73.5599 250.95 73.4166 250.95 73.2399V54.4499C250.95 54.2732 250.807 54.1299 250.63 54.1299Z" fill="#F8B1BF"/>
<path d="M243.62 54.1299H238.86C238.683 54.1299 238.54 54.2732 238.54 54.4499V73.2399C238.54 73.4166 238.683 73.5599 238.86 73.5599H243.62C243.797 73.5599 243.94 73.4166 243.94 73.2399V54.4499C243.94 54.2732 243.797 54.1299 243.62 54.1299Z" fill="#F8B1BF"/>
<path d="M236.6 54.1299H231.84C231.663 54.1299 231.52 54.2732 231.52 54.4499V73.2399C231.52 73.4166 231.663 73.5599 231.84 73.5599H236.6C236.777 73.5599 236.92 73.4166 236.92 73.2399V54.4499C236.92 54.2732 236.777 54.1299 236.6 54.1299Z" fill="#F8B1BF"/>
<path d="M292.73 54.1299H287.97C287.793 54.1299 287.65 54.2732 287.65 54.4499V73.2399C287.65 73.4166 287.793 73.5599 287.97 73.5599H292.73C292.907 73.5599 293.05 73.4166 293.05 73.2399V54.4499C293.05 54.2732 292.907 54.1299 292.73 54.1299Z" fill="#F8B1BF"/>
<path d="M285.71 54.1299H280.95C280.773 54.1299 280.63 54.2732 280.63 54.4499V73.2399C280.63 73.4166 280.773 73.5599 280.95 73.5599H285.71C285.887 73.5599 286.03 73.4166 286.03 73.2399V54.4499C286.03 54.2732 285.887 54.1299 285.71 54.1299Z" fill="#F8B1BF"/>
<path d="M278.69 54.1299H273.93C273.753 54.1299 273.61 54.2732 273.61 54.4499V73.2399C273.61 73.4166 273.753 73.5599 273.93 73.5599H278.69C278.867 73.5599 279.01 73.4166 279.01 73.2399V54.4499C279.01 54.2732 278.867 54.1299 278.69 54.1299Z" fill="#F8B1BF"/>
<path d="M755.76 54.1299H751C750.823 54.1299 750.68 54.2732 750.68 54.4499V73.2399C750.68 73.4166 750.823 73.5599 751 73.5599H755.76C755.937 73.5599 756.08 73.4166 756.08 73.2399V54.4499C756.08 54.2732 755.937 54.1299 755.76 54.1299Z" fill="#F8B1BF"/>
<path d="M748.75 54.1299H743.99C743.813 54.1299 743.67 54.2732 743.67 54.4499V73.2399C743.67 73.4166 743.813 73.5599 743.99 73.5599H748.75C748.927 73.5599 749.07 73.4166 749.07 73.2399V54.4499C749.07 54.2732 748.927 54.1299 748.75 54.1299Z" fill="#F8B1BF"/>
<path d="M736.98 54.1299H741.73C741.91 54.1299 742.05 54.2799 742.05 54.4499V73.2299C742.05 73.4099 741.9 73.5499 741.73 73.5499H736.98C736.8 73.5499 736.66 73.4099 736.66 73.2299V54.4499C736.66 54.2699 736.81 54.1299 736.98 54.1299Z" fill="#F8B1BF"/>
<path d="M793.1 54.1299H797.85C798.03 54.1299 798.17 54.2799 798.17 54.4499V73.2299C798.17 73.4099 798.02 73.5499 797.85 73.5499H793.1C792.92 73.5499 792.78 73.4099 792.78 73.2299V54.4499C792.78 54.2699 792.93 54.1299 793.1 54.1299Z" fill="#F8B1BF"/>
<path d="M786.09 54.1299H790.84C791.02 54.1299 791.16 54.2799 791.16 54.4499V73.2299C791.16 73.4099 791.01 73.5499 790.84 73.5499H786.09C785.91 73.5499 785.77 73.4099 785.77 73.2299V54.4499C785.77 54.2699 785.92 54.1299 786.09 54.1299Z" fill="#F8B1BF"/>
<path d="M779.07 54.1299H783.82C784 54.1299 784.14 54.2699 784.14 54.4499V73.2299C784.14 73.4099 784 73.5499 783.82 73.5499H779.07C778.89 73.5499 778.75 73.4099 778.75 73.2299V54.4499C778.75 54.2699 778.9 54.1299 779.07 54.1299Z" fill="#F8B1BF"/>
<path d="M839.95 54.1299H835.19C835.013 54.1299 834.87 54.2732 834.87 54.4499V73.2399C834.87 73.4166 835.013 73.5599 835.19 73.5599H839.95C840.127 73.5599 840.27 73.4166 840.27 73.2399V54.4499C840.27 54.2732 840.127 54.1299 839.95 54.1299Z" fill="#F8B1BF"/>
<path d="M832.94 54.1299H828.18C828.003 54.1299 827.86 54.2732 827.86 54.4499V73.2399C827.86 73.4166 828.003 73.5599 828.18 73.5599H832.94C833.117 73.5599 833.26 73.4166 833.26 73.2399V54.4499C833.26 54.2732 833.117 54.1299 832.94 54.1299Z" fill="#F8B1BF"/>
<path d="M825.92 54.1299H821.16C820.983 54.1299 820.84 54.2732 820.84 54.4499V73.2399C820.84 73.4166 820.983 73.5599 821.16 73.5599H825.92C826.097 73.5599 826.24 73.4166 826.24 73.2399V54.4499C826.24 54.2732 826.097 54.1299 825.92 54.1299Z" fill="#F8B1BF"/>
<path d="M882.05 54.1299H877.29C877.113 54.1299 876.97 54.2732 876.97 54.4499V73.2399C876.97 73.4166 877.113 73.5599 877.29 73.5599H882.05C882.227 73.5599 882.37 73.4166 882.37 73.2399V54.4499C882.37 54.2732 882.227 54.1299 882.05 54.1299Z" fill="#F8B1BF"/>
<path d="M875.03 54.1299H870.27C870.093 54.1299 869.95 54.2732 869.95 54.4499V73.2399C869.95 73.4166 870.093 73.5599 870.27 73.5599H875.03C875.207 73.5599 875.35 73.4166 875.35 73.2399V54.4499C875.35 54.2732 875.207 54.1299 875.03 54.1299Z" fill="#F8B1BF"/>
<path d="M868.02 54.1299H863.26C863.083 54.1299 862.94 54.2732 862.94 54.4499V73.2399C862.94 73.4166 863.083 73.5599 863.26 73.5599H868.02C868.197 73.5599 868.34 73.4166 868.34 73.2399V54.4499C868.34 54.2732 868.197 54.1299 868.02 54.1299Z" fill="#F8B1BF"/>
<path d="M924.14 54.1299H919.38C919.203 54.1299 919.06 54.2732 919.06 54.4499V73.2399C919.06 73.4166 919.203 73.5599 919.38 73.5599H924.14C924.317 73.5599 924.46 73.4166 924.46 73.2399V54.4499C924.46 54.2732 924.317 54.1299 924.14 54.1299Z" fill="#F8B1BF"/>
<path d="M917.13 54.1299H912.37C912.193 54.1299 912.05 54.2732 912.05 54.4499V73.2399C912.05 73.4166 912.193 73.5599 912.37 73.5599H917.13C917.307 73.5599 917.45 73.4166 917.45 73.2399V54.4499C917.45 54.2732 917.307 54.1299 917.13 54.1299Z" fill="#F8B1BF"/>
<path d="M910.11 54.1299H905.35C905.173 54.1299 905.03 54.2732 905.03 54.4499V73.2399C905.03 73.4166 905.173 73.5599 905.35 73.5599H910.11C910.287 73.5599 910.43 73.4166 910.43 73.2399V54.4499C910.43 54.2732 910.287 54.1299 910.11 54.1299Z" fill="#F8B1BF"/>
<path d="M966.24 54.1299H961.48C961.303 54.1299 961.16 54.2732 961.16 54.4499V73.2399C961.16 73.4166 961.303 73.5599 961.48 73.5599H966.24C966.417 73.5599 966.56 73.4166 966.56 73.2399V54.4499C966.56 54.2732 966.417 54.1299 966.24 54.1299Z" fill="#F8B1BF"/>
<path d="M959.22 54.1299H954.46C954.283 54.1299 954.14 54.2732 954.14 54.4499V73.2399C954.14 73.4166 954.283 73.5599 954.46 73.5599H959.22C959.397 73.5599 959.54 73.4166 959.54 73.2399V54.4499C959.54 54.2732 959.397 54.1299 959.22 54.1299Z" fill="#F8B1BF"/>
<path d="M952.21 54.1299H947.45C947.273 54.1299 947.13 54.2732 947.13 54.4499V73.2399C947.13 73.4166 947.273 73.5599 947.45 73.5599H952.21C952.387 73.5599 952.53 73.4166 952.53 73.2399V54.4499C952.53 54.2732 952.387 54.1299 952.21 54.1299Z" fill="#F8B1BF"/>
<path d="M1008.33 54.1299H1003.57C1003.39 54.1299 1003.25 54.2732 1003.25 54.4499V73.2399C1003.25 73.4166 1003.39 73.5599 1003.57 73.5599H1008.33C1008.51 73.5599 1008.65 73.4166 1008.65 73.2399V54.4499C1008.65 54.2732 1008.51 54.1299 1008.33 54.1299Z" fill="#F8B1BF"/>
<path d="M1001.32 54.1299H996.56C996.383 54.1299 996.24 54.2732 996.24 54.4499V73.2399C996.24 73.4166 996.383 73.5599 996.56 73.5599H1001.32C1001.5 73.5599 1001.64 73.4166 1001.64 73.2399V54.4499C1001.64 54.2732 1001.5 54.1299 1001.32 54.1299Z" fill="#F8B1BF"/>
<path d="M994.3 54.1299H989.54C989.363 54.1299 989.22 54.2732 989.22 54.4499V73.2399C989.22 73.4166 989.363 73.5599 989.54 73.5599H994.3C994.477 73.5599 994.62 73.4166 994.62 73.2399V54.4499C994.62 54.2732 994.477 54.1299 994.3 54.1299Z" fill="#F8B1BF"/>
<path d="M19.11 54.1299H0.32C0.143269 54.1299 0 54.2732 0 54.4499V59.2099C0 59.3866 0.143269 59.5299 0.32 59.5299H19.11C19.2867 59.5299 19.43 59.3866 19.43 59.2099V54.4499C19.43 54.2732 19.2867 54.1299 19.11 54.1299Z" fill="#98CEE3"/>
<path d="M19.11 61.1494H0.32C0.143269 61.1494 0 61.2927 0 61.4694V66.2294C0 66.4061 0.143269 66.5494 0.32 66.5494H19.11C19.2867 66.5494 19.43 66.4061 19.43 66.2294V61.4694C19.43 61.2927 19.2867 61.1494 19.11 61.1494Z" fill="#98CEE3"/>
<path d="M19.11 68.1592H0.32C0.143269 68.1592 0 68.3024 0 68.4792V73.2392C0 73.4159 0.143269 73.5592 0.32 73.5592H19.11C19.2867 73.5592 19.43 73.4159 19.43 73.2392V68.4792C19.43 68.3024 19.2867 68.1592 19.11 68.1592Z" fill="#98CEE3"/>
<path d="M61.2 54.1299H42.41C42.2333 54.1299 42.09 54.2732 42.09 54.4499V59.2099C42.09 59.3866 42.2333 59.5299 42.41 59.5299H61.2C61.3767 59.5299 61.52 59.3866 61.52 59.2099V54.4499C61.52 54.2732 61.3767 54.1299 61.2 54.1299Z" fill="#98CEE3"/>
<path d="M61.2 61.1494H42.41C42.2333 61.1494 42.09 61.2927 42.09 61.4694V66.2294C42.09 66.4061 42.2333 66.5494 42.41 66.5494H61.2C61.3767 66.5494 61.52 66.4061 61.52 66.2294V61.4694C61.52 61.2927 61.3767 61.1494 61.2 61.1494Z" fill="#98CEE3"/>
<path d="M61.2 68.1592H42.41C42.2333 68.1592 42.09 68.3024 42.09 68.4792V73.2392C42.09 73.4159 42.2333 73.5592 42.41 73.5592H61.2C61.3767 73.5592 61.52 73.4159 61.52 73.2392V68.4792C61.52 68.3024 61.3767 68.1592 61.2 68.1592Z" fill="#98CEE3"/>
<path d="M103.3 54.1299H84.51C84.3333 54.1299 84.19 54.2732 84.19 54.4499V59.2099C84.19 59.3866 84.3333 59.5299 84.51 59.5299H103.3C103.477 59.5299 103.62 59.3866 103.62 59.2099V54.4499C103.62 54.2732 103.477 54.1299 103.3 54.1299Z" fill="#98CEE3"/>
<path d="M103.3 61.1494H84.51C84.3333 61.1494 84.19 61.2927 84.19 61.4694V66.2294C84.19 66.4061 84.3333 66.5494 84.51 66.5494H103.3C103.477 66.5494 103.62 66.4061 103.62 66.2294V61.4694C103.62 61.2927 103.477 61.1494 103.3 61.1494Z" fill="#98CEE3"/>
<path d="M103.3 68.1592H84.51C84.3333 68.1592 84.19 68.3024 84.19 68.4792V73.2392C84.19 73.4159 84.3333 73.5592 84.51 73.5592H103.3C103.477 73.5592 103.62 73.4159 103.62 73.2392V68.4792C103.62 68.3024 103.477 68.1592 103.3 68.1592Z" fill="#98CEE3"/>
<path d="M145.39 54.1299H126.6C126.423 54.1299 126.28 54.2732 126.28 54.4499V59.2099C126.28 59.3866 126.423 59.5299 126.6 59.5299H145.39C145.567 59.5299 145.71 59.3866 145.71 59.2099V54.4499C145.71 54.2732 145.567 54.1299 145.39 54.1299Z" fill="#98CEE3"/>
<path d="M145.39 61.1494H126.6C126.423 61.1494 126.28 61.2927 126.28 61.4694V66.2294C126.28 66.4061 126.423 66.5494 126.6 66.5494H145.39C145.567 66.5494 145.71 66.4061 145.71 66.2294V61.4694C145.71 61.2927 145.567 61.1494 145.39 61.1494Z" fill="#98CEE3"/>
<path d="M145.39 68.1592H126.6C126.423 68.1592 126.28 68.3024 126.28 68.4792V73.2392C126.28 73.4159 126.423 73.5592 126.6 73.5592H145.39C145.567 73.5592 145.71 73.4159 145.71 73.2392V68.4792C145.71 68.3024 145.567 68.1592 145.39 68.1592Z" fill="#98CEE3"/>
<path d="M187.49 54.1299H168.7C168.523 54.1299 168.38 54.2732 168.38 54.4499V59.2099C168.38 59.3866 168.523 59.5299 168.7 59.5299H187.49C187.667 59.5299 187.81 59.3866 187.81 59.2099V54.4499C187.81 54.2732 187.667 54.1299 187.49 54.1299Z" fill="#98CEE3"/>
<path d="M187.49 61.1494H168.7C168.523 61.1494 168.38 61.2927 168.38 61.4694V66.2294C168.38 66.4061 168.523 66.5494 168.7 66.5494H187.49C187.667 66.5494 187.81 66.4061 187.81 66.2294V61.4694C187.81 61.2927 187.667 61.1494 187.49 61.1494Z" fill="#98CEE3"/>
<path d="M187.49 68.1592H168.7C168.523 68.1592 168.38 68.3024 168.38 68.4792V73.2392C168.38 73.4159 168.523 73.5592 168.7 73.5592H187.49C187.667 73.5592 187.81 73.4159 187.81 73.2392V68.4792C187.81 68.3024 187.667 68.1592 187.49 68.1592Z" fill="#98CEE3"/>
<path d="M229.58 54.1299H210.79C210.613 54.1299 210.47 54.2732 210.47 54.4499V59.2099C210.47 59.3866 210.613 59.5299 210.79 59.5299H229.58C229.757 59.5299 229.9 59.3866 229.9 59.2099V54.4499C229.9 54.2732 229.757 54.1299 229.58 54.1299Z" fill="#98CEE3"/>
<path d="M229.58 61.1494H210.79C210.613 61.1494 210.47 61.2927 210.47 61.4694V66.2294C210.47 66.4061 210.613 66.5494 210.79 66.5494H229.58C229.757 66.5494 229.9 66.4061 229.9 66.2294V61.4694C229.9 61.2927 229.757 61.1494 229.58 61.1494Z" fill="#98CEE3"/>
<path d="M229.58 68.1592H210.79C210.613 68.1592 210.47 68.3024 210.47 68.4792V73.2392C210.47 73.4159 210.613 73.5592 210.79 73.5592H229.58C229.757 73.5592 229.9 73.4159 229.9 73.2392V68.4792C229.9 68.3024 229.757 68.1592 229.58 68.1592Z" fill="#98CEE3"/>
<path d="M271.68 54.1299H252.89C252.713 54.1299 252.57 54.2732 252.57 54.4499V59.2099C252.57 59.3866 252.713 59.5299 252.89 59.5299H271.68C271.857 59.5299 272 59.3866 272 59.2099V54.4499C272 54.2732 271.857 54.1299 271.68 54.1299Z" fill="#98CEE3"/>
<path d="M271.68 61.1494H252.89C252.713 61.1494 252.57 61.2927 252.57 61.4694V66.2294C252.57 66.4061 252.713 66.5494 252.89 66.5494H271.68C271.857 66.5494 272 66.4061 272 66.2294V61.4694C272 61.2927 271.857 61.1494 271.68 61.1494Z" fill="#98CEE3"/>
<path d="M271.68 68.1592H252.89C252.713 68.1592 252.57 68.3024 252.57 68.4792V73.2392C252.57 73.4159 252.713 73.5592 252.89 73.5592H271.68C271.857 73.5592 272 73.4159 272 73.2392V68.4792C272 68.3024 271.857 68.1592 271.68 68.1592Z" fill="#98CEE3"/>
<path d="M758.02 54.1299H776.8C776.98 54.1299 777.12 54.2699 777.12 54.4499V59.1999C777.12 59.3799 776.97 59.5199 776.8 59.5199H758.02C757.84 59.5199 757.7 59.3699 757.7 59.1999V54.4499C757.7 54.2699 757.85 54.1299 758.02 54.1299Z" fill="#98CEE3"/>
<path d="M758.03 61.1494H776.81C776.99 61.1494 777.13 61.2994 777.13 61.4694V66.2194C777.13 66.3994 776.99 66.5394 776.81 66.5394H758.03C757.85 66.5394 757.71 66.3894 757.71 66.2194V61.4694C757.71 61.2894 757.86 61.1494 758.03 61.1494Z" fill="#98CEE3"/>
<path d="M758.02 68.1592H776.8C776.98 68.1592 777.12 68.2992 777.12 68.4792V73.2292C777.12 73.4092 776.97 73.5492 776.8 73.5492H758.02C757.84 73.5492 757.7 73.3992 757.7 73.2292V68.4792C757.7 68.2992 757.85 68.1592 758.02 68.1592Z" fill="#98CEE3"/>
<path d="M818.9 54.1299H800.11C799.933 54.1299 799.79 54.2732 799.79 54.4499V59.2099C799.79 59.3866 799.933 59.5299 800.11 59.5299H818.9C819.077 59.5299 819.22 59.3866 819.22 59.2099V54.4499C819.22 54.2732 819.077 54.1299 818.9 54.1299Z" fill="#98CEE3"/>
<path d="M818.9 61.1494H800.11C799.933 61.1494 799.79 61.2927 799.79 61.4694V66.2294C799.79 66.4061 799.933 66.5494 800.11 66.5494H818.9C819.077 66.5494 819.22 66.4061 819.22 66.2294V61.4694C819.22 61.2927 819.077 61.1494 818.9 61.1494Z" fill="#98CEE3"/>
<path d="M818.9 68.1592H800.11C799.933 68.1592 799.79 68.3024 799.79 68.4792V73.2392C799.79 73.4159 799.933 73.5592 800.11 73.5592H818.9C819.077 73.5592 819.22 73.4159 819.22 73.2392V68.4792C819.22 68.3024 819.077 68.1592 818.9 68.1592Z" fill="#98CEE3"/>
<path d="M861 54.1299H842.21C842.033 54.1299 841.89 54.2732 841.89 54.4499V59.2099C841.89 59.3866 842.033 59.5299 842.21 59.5299H861C861.177 59.5299 861.32 59.3866 861.32 59.2099V54.4499C861.32 54.2732 861.177 54.1299 861 54.1299Z" fill="#98CEE3"/>
<path d="M861 61.1494H842.21C842.033 61.1494 841.89 61.2927 841.89 61.4694V66.2294C841.89 66.4061 842.033 66.5494 842.21 66.5494H861C861.177 66.5494 861.32 66.4061 861.32 66.2294V61.4694C861.32 61.2927 861.177 61.1494 861 61.1494Z" fill="#98CEE3"/>
<path d="M861 68.1592H842.21C842.033 68.1592 841.89 68.3024 841.89 68.4792V73.2392C841.89 73.4159 842.033 73.5592 842.21 73.5592H861C861.177 73.5592 861.32 73.4159 861.32 73.2392V68.4792C861.32 68.3024 861.177 68.1592 861 68.1592Z" fill="#98CEE3"/>
<path d="M903.09 54.1299H884.3C884.123 54.1299 883.98 54.2732 883.98 54.4499V59.2099C883.98 59.3866 884.123 59.5299 884.3 59.5299H903.09C903.267 59.5299 903.41 59.3866 903.41 59.2099V54.4499C903.41 54.2732 903.267 54.1299 903.09 54.1299Z" fill="#98CEE3"/>
<path d="M903.09 61.1494H884.3C884.123 61.1494 883.98 61.2927 883.98 61.4694V66.2294C883.98 66.4061 884.123 66.5494 884.3 66.5494H903.09C903.267 66.5494 903.41 66.4061 903.41 66.2294V61.4694C903.41 61.2927 903.267 61.1494 903.09 61.1494Z" fill="#98CEE3"/>
<path d="M903.09 68.1592H884.3C884.123 68.1592 883.98 68.3024 883.98 68.4792V73.2392C883.98 73.4159 884.123 73.5592 884.3 73.5592H903.09C903.267 73.5592 903.41 73.4159 903.41 73.2392V68.4792C903.41 68.3024 903.267 68.1592 903.09 68.1592Z" fill="#98CEE3"/>
<path d="M945.19 54.1299H926.4C926.223 54.1299 926.08 54.2732 926.08 54.4499V59.2099C926.08 59.3866 926.223 59.5299 926.4 59.5299H945.19C945.367 59.5299 945.51 59.3866 945.51 59.2099V54.4499C945.51 54.2732 945.367 54.1299 945.19 54.1299Z" fill="#98CEE3"/>
<path d="M945.19 61.1494H926.4C926.223 61.1494 926.08 61.2927 926.08 61.4694V66.2294C926.08 66.4061 926.223 66.5494 926.4 66.5494H945.19C945.367 66.5494 945.51 66.4061 945.51 66.2294V61.4694C945.51 61.2927 945.367 61.1494 945.19 61.1494Z" fill="#98CEE3"/>
<path d="M945.19 68.1592H926.4C926.223 68.1592 926.08 68.3024 926.08 68.4792V73.2392C926.08 73.4159 926.223 73.5592 926.4 73.5592H945.19C945.367 73.5592 945.51 73.4159 945.51 73.2392V68.4792C945.51 68.3024 945.367 68.1592 945.19 68.1592Z" fill="#98CEE3"/>
<path d="M987.28 54.1299H968.49C968.313 54.1299 968.17 54.2732 968.17 54.4499V59.2099C968.17 59.3866 968.313 59.5299 968.49 59.5299H987.28C987.457 59.5299 987.6 59.3866 987.6 59.2099V54.4499C987.6 54.2732 987.457 54.1299 987.28 54.1299Z" fill="#98CEE3"/>
<path d="M987.28 61.1494H968.49C968.313 61.1494 968.17 61.2927 968.17 61.4694V66.2294C968.17 66.4061 968.313 66.5494 968.49 66.5494H987.28C987.457 66.5494 987.6 66.4061 987.6 66.2294V61.4694C987.6 61.2927 987.457 61.1494 987.28 61.1494Z" fill="#98CEE3"/>
<path d="M987.28 68.1592H968.49C968.313 68.1592 968.17 68.3024 968.17 68.4792V73.2392C968.17 73.4159 968.313 73.5592 968.49 73.5592H987.28C987.457 73.5592 987.6 73.4159 987.6 73.2392V68.4792C987.6 68.3024 987.457 68.1592 987.28 68.1592Z" fill="#98CEE3"/>
<path d="M1029.38 54.1299H1010.59C1010.41 54.1299 1010.27 54.2732 1010.27 54.4499V59.2099C1010.27 59.3866 1010.41 59.5299 1010.59 59.5299H1029.38C1029.56 59.5299 1029.7 59.3866 1029.7 59.2099V54.4499C1029.7 54.2732 1029.56 54.1299 1029.38 54.1299Z" fill="#98CEE3"/>
<path d="M1029.38 61.1494H1010.59C1010.41 61.1494 1010.27 61.2927 1010.27 61.4694V66.2294C1010.27 66.4061 1010.41 66.5494 1010.59 66.5494H1029.38C1029.56 66.5494 1029.7 66.4061 1029.7 66.2294V61.4694C1029.7 61.2927 1029.56 61.1494 1029.38 61.1494Z" fill="#98CEE3"/>
<path d="M1029.38 68.1592H1010.59C1010.41 68.1592 1010.27 68.3024 1010.27 68.4792V73.2392C1010.27 73.4159 1010.41 73.5592 1010.59 73.5592H1029.38C1029.56 73.5592 1029.7 73.4159 1029.7 73.2392V68.4792C1029.7 68.3024 1029.56 68.1592 1029.38 68.1592Z" fill="#98CEE3"/>
<path d="M717.89 18.2197H312.11C305.483 18.2197 300.11 23.5923 300.11 30.2197V97.4697C300.11 104.097 305.483 109.47 312.11 109.47H717.89C724.517 109.47 729.89 104.097 729.89 97.4697V30.2197C729.89 23.5923 724.517 18.2197 717.89 18.2197Z" fill="#98CEE3"/>
<path d="M666.51 3.9996L631.6 64.4696H703.66L680.91 5.1396C678.5 -1.1504 669.88 -1.8304 666.51 3.9996Z" fill="#98CEE3"/>
<path d="M363.49 3.9996L398.4 64.4696H326.34L349.09 5.1396C351.5 -1.1504 360.12 -1.8304 363.49 3.9996Z" fill="#98CEE3"/>
<path d="M353.74 58.3095C353.32 58.3095 352.97 58.1795 352.67 57.9095C352.38 57.6395 352.23 57.2695 352.23 56.7995V52.9795C351.55 53.5695 350.8 54.1495 349.97 54.7395C349.14 55.3195 348.28 55.8595 347.41 56.3595C346.53 56.8595 345.68 57.2995 344.85 57.6595C344.36 57.8495 343.93 57.8795 343.56 57.7595C343.19 57.6395 342.91 57.3895 342.74 57.0095C342.57 56.6095 342.55 56.2295 342.69 55.8695C342.83 55.5095 343.11 55.2395 343.55 55.0595C344.62 54.6295 345.7 54.1095 346.79 53.4995C347.88 52.8895 348.87 52.2695 349.77 51.6295H347.22C345.9 51.6295 344.98 51.3595 344.46 50.8095C343.94 50.2595 343.78 49.4095 343.99 48.2495C344.15 47.4495 344.37 46.8295 344.65 46.3895C344.94 45.9495 345.36 45.6395 345.94 45.4495C346.51 45.2695 347.29 45.1795 348.28 45.1795H352.23V43.7995H344.9C344.55 43.7995 344.25 43.6695 344 43.4095C343.75 43.1495 343.62 42.8495 343.62 42.4995C343.62 42.1495 343.75 41.8495 344 41.5895C344.25 41.3295 344.55 41.1995 344.9 41.1995H348.51C348.09 41.0595 347.82 40.7995 347.7 40.4195C347.63 40.1795 347.53 39.8795 347.4 39.5195C347.27 39.1595 347.15 38.8695 347.05 38.6195H345.75C345.52 38.9495 345.3 39.2695 345.07 39.5795C344.84 39.8895 344.64 40.1795 344.45 40.4395C344.17 40.7695 343.85 40.9995 343.48 41.1295C343.11 41.2595 342.71 41.1995 342.3 40.9395C341.99 40.7495 341.79 40.4695 341.7 40.0895C341.61 39.7195 341.7 39.3795 341.93 39.0895C342.26 38.6895 342.61 38.2195 342.98 37.6895C343.35 37.1595 343.71 36.5995 344.06 36.0395C344.41 35.4795 344.68 34.9595 344.89 34.4895C345.08 34.0595 345.35 33.7895 345.71 33.6995C346.06 33.5995 346.43 33.6295 346.81 33.7895C347.17 33.9295 347.43 34.1695 347.58 34.4995C347.73 34.8395 347.7 35.2095 347.51 35.6095C347.47 35.6995 347.43 35.7895 347.38 35.8995C347.33 35.9995 347.28 36.1095 347.22 36.2095H352.24C352.6 36.2095 352.89 36.3295 353.11 36.5595C353.33 36.7895 353.44 37.0795 353.44 37.4095C353.44 37.5095 353.42 37.6395 353.39 37.7695C353.75 37.2195 354.1 36.6395 354.43 36.0495C354.76 35.4595 355.03 34.9395 355.24 34.4895C355.43 34.0895 355.71 33.8195 356.09 33.6695C356.46 33.5195 356.85 33.5495 357.25 33.7395C357.65 33.9095 357.92 34.1695 358.06 34.5195C358.2 34.8695 358.17 35.2495 357.98 35.6595C357.94 35.7495 357.9 35.8395 357.85 35.9295C357.8 36.0295 357.75 36.1195 357.72 36.1995H364.09C364.45 36.1995 364.74 36.3195 364.95 36.5495C365.16 36.7795 365.26 37.0695 365.26 37.3995C365.26 37.7295 365.16 38.0195 364.95 38.2595C364.74 38.4995 364.46 38.6195 364.09 38.6195H360.71C360.76 38.7595 360.82 38.8995 360.88 39.0495C360.94 39.1995 360.99 39.3195 361.02 39.4295C361.16 39.7595 361.15 40.0995 361.01 40.4595C360.86 40.8195 360.59 41.0595 360.19 41.1995L360.11 41.2295C361.18 41.2795 361.93 41.5595 362.36 42.0495C362.79 42.5395 363 43.3295 363 44.3995C363 45.5795 362.75 46.4095 362.26 46.8995C361.77 47.3895 360.87 47.6295 359.57 47.6295H355.25V49.0295H360.84C362.12 49.0295 363.06 49.3295 363.65 49.9395C364.24 50.5495 364.46 51.4895 364.3 52.7695C364.16 53.9495 363.88 54.8495 363.46 55.4895C363.04 56.1195 362.49 56.5495 361.82 56.7795C361.15 56.9995 360.36 57.1195 359.44 57.1195C358.94 57.1195 358.52 56.9995 358.2 56.7595C357.88 56.5195 357.7 56.1495 357.67 55.6695C357.65 55.2195 357.77 54.8395 358.02 54.5295C358.27 54.2195 358.64 54.0395 359.12 53.9795C359.6 53.9195 359.97 53.8695 360.23 53.8095C360.48 53.7495 360.67 53.6495 360.79 53.4995C360.91 53.3495 361 53.1095 361.05 52.7795C361.14 52.3095 361.11 51.9995 360.97 51.8595C360.83 51.7095 360.53 51.6395 360.06 51.6395H355.25V56.8095C355.25 57.2795 355.1 57.6495 354.81 57.9195C354.52 58.1895 354.16 58.3195 353.74 58.3195V58.3095ZM347.94 49.0295H352.23V47.6295H348.12C347.72 47.6295 347.44 47.6795 347.29 47.7895C347.13 47.8895 347.04 48.0695 347 48.3095C346.96 48.5895 347.01 48.7795 347.14 48.8795C347.27 48.9795 347.53 49.0395 347.93 49.0395L347.94 49.0295ZM350.41 39.4395C350.55 39.7895 350.54 40.1295 350.4 40.4795C350.25 40.8295 349.98 41.0695 349.58 41.2095H353.35C353.19 41.1895 353.01 41.1195 352.8 40.9995C352.45 40.7895 352.25 40.4895 352.19 40.0895C352.13 39.6895 352.22 39.3395 352.46 39.0495C352.55 38.9595 352.63 38.8695 352.71 38.7595C352.79 38.6595 352.87 38.5395 352.96 38.4195C352.74 38.5595 352.5 38.6295 352.26 38.6295H350.1C350.15 38.7695 350.21 38.9095 350.27 39.0595C350.33 39.2095 350.38 39.3295 350.41 39.4395ZM353.89 41.2095H359.12C358.7 41.0695 358.44 40.8095 358.31 40.4295C358.24 40.2095 358.14 39.9095 358.01 39.5495C357.88 39.1895 357.77 38.8795 357.68 38.6395H356.33C356.1 38.9695 355.88 39.2895 355.67 39.5995C355.45 39.9095 355.24 40.2095 355.03 40.4795C354.7 40.8995 354.32 41.1395 353.89 41.2095ZM355.24 45.1895H359.01C359.41 45.1895 359.67 45.1395 359.79 45.0495C359.91 44.9595 359.97 44.7695 359.97 44.4895C359.97 44.2095 359.91 44.0295 359.79 43.9395C359.67 43.8495 359.41 43.8095 359.01 43.8095H355.24V45.1895Z" fill="#010F32"/>
<path d="M397.26 57.8693C396.77 57.8693 396.38 57.7493 396.06 57.5093C395.75 57.2693 395.57 56.9093 395.54 56.4393C395.5 56.0093 395.61 55.6393 395.86 55.3393C396.11 55.0393 396.45 54.8693 396.89 54.8293C397.51 54.7793 397.99 54.7093 398.32 54.6193C398.65 54.5293 398.9 54.3693 399.06 54.1293C399.23 53.8893 399.35 53.5293 399.44 53.0593C399.53 52.5593 399.61 51.9993 399.69 51.3993C399.77 50.7893 399.83 50.1793 399.89 49.5493C399.92 49.0493 399.85 48.7093 399.67 48.5193C399.49 48.3293 399.14 48.2493 398.62 48.2493H397.79C396.87 48.2493 396.22 48.0493 395.83 47.6493C395.44 47.2493 395.3 46.5893 395.4 45.6693C395.47 45.0993 395.52 44.5793 395.56 44.1193C395.59 43.6593 395.63 43.1493 395.66 42.5993C395.73 41.7493 395.97 41.1593 396.37 40.8193C396.77 40.4793 397.4 40.3093 398.23 40.3093H398.8C399.25 40.3093 399.56 40.2393 399.72 40.1093C399.88 39.9793 399.97 39.7393 399.97 39.3993V38.6693C399.97 38.2693 399.89 37.9993 399.72 37.8593C399.55 37.7193 399.25 37.6493 398.8 37.6493H396.1C395.7 37.6493 395.38 37.5193 395.14 37.2593C394.9 36.9993 394.78 36.6893 394.78 36.3193C394.78 35.9493 394.9 35.6493 395.14 35.3993C395.38 35.1493 395.7 35.0193 396.1 35.0193H400.08C401.1 35.0193 401.83 35.2193 402.28 35.6293C402.72 36.0393 402.94 36.7293 402.94 37.6993V40.1393C402.94 41.1093 402.73 41.7893 402.3 42.1693C401.88 42.5493 401.26 42.7393 400.44 42.7393H399.56C399.14 42.7393 398.85 42.7993 398.68 42.9093C398.51 43.0193 398.4 43.2593 398.37 43.6193C398.35 43.7893 398.34 43.9293 398.34 44.0393C398.34 44.1493 398.34 44.2693 398.31 44.3993C398.27 44.8193 398.34 45.0893 398.49 45.2093C398.64 45.3293 398.93 45.3893 399.35 45.3893H400.26C401.23 45.3893 401.93 45.6093 402.37 46.0393C402.81 46.4693 403 47.1393 402.97 48.0393C402.94 49.0393 402.88 50.0393 402.79 51.0293C402.7 52.0193 402.6 52.8893 402.48 53.6293C402.32 54.7193 402.02 55.5693 401.58 56.1793C401.14 56.7893 400.56 57.2193 399.85 57.4693C399.14 57.7193 398.28 57.8493 397.28 57.8493L397.26 57.8693ZM410.88 58.1293C410.48 58.1293 410.14 57.9993 409.87 57.7393C409.59 57.4793 409.45 57.1293 409.45 56.6993V53.3193H404.41C404.03 53.3193 403.72 53.1893 403.47 52.9293C403.23 52.6693 403.11 52.3693 403.11 52.0193C403.11 51.6693 403.23 51.3493 403.47 51.0993C403.71 50.8493 404.02 50.7193 404.41 50.7193H409.45V49.3193H408.54C407.03 49.3193 405.95 49.0293 405.29 48.4493C404.63 47.8693 404.3 46.8693 404.3 45.4493V43.3393C404.3 41.9193 404.63 40.9193 405.29 40.3393C405.95 39.7593 407.03 39.4693 408.54 39.4693H412.47C412.47 39.4693 412.5 39.4293 412.5 39.3993C412.5 39.3693 412.5 39.3493 412.53 39.3393C412.72 38.9893 412.95 38.5493 413.23 37.9993C413.51 37.4493 413.78 36.8993 414.05 36.3493C414.32 35.7993 414.52 35.3493 414.66 34.9993C414.82 34.5993 415.07 34.3193 415.43 34.1693C415.78 34.0093 416.15 34.0093 416.53 34.1693C416.89 34.3093 417.16 34.5493 417.32 34.8993C417.48 35.2493 417.48 35.6193 417.31 36.0193C417.17 36.3093 416.98 36.6893 416.75 37.1393C416.52 37.5893 416.27 38.0493 416.02 38.5093C415.77 38.9693 415.53 39.3793 415.31 39.7393C416.09 39.9693 416.66 40.3593 417.01 40.9393C417.36 41.5093 417.54 42.3193 417.54 43.3593V45.4693C417.54 46.8893 417.21 47.8893 416.54 48.4693C415.87 49.0493 414.79 49.3393 413.28 49.3393H412.34V50.7393H417.57C417.97 50.7393 418.28 50.8693 418.52 51.1193C418.75 51.3693 418.87 51.6793 418.87 52.0393C418.87 52.3993 418.75 52.6893 418.52 52.9493C418.29 53.2093 417.97 53.3393 417.57 53.3393H412.34V56.7193C412.34 57.1493 412.2 57.4993 411.92 57.7593C411.64 58.0193 411.3 58.1493 410.88 58.1493V58.1293ZM407.29 39.1993C406.96 39.3693 406.62 39.4193 406.26 39.3293C405.9 39.2393 405.64 39.0393 405.47 38.7093C405.38 38.5393 405.26 38.3093 405.09 38.0193C404.92 37.7293 404.76 37.4493 404.6 37.1593C404.43 36.8693 404.3 36.6493 404.2 36.4993C404.01 36.1693 403.97 35.8193 404.07 35.4593C404.17 35.0993 404.39 34.8293 404.72 34.6493C405.07 34.4593 405.43 34.4193 405.81 34.5293C406.19 34.6393 406.49 34.8693 406.69 35.2193C406.79 35.3793 406.92 35.5893 407.08 35.8693C407.24 36.1493 407.39 36.4193 407.55 36.6893C407.71 36.9593 407.83 37.1793 407.91 37.3493C408.1 37.6993 408.13 38.0393 408 38.3893C407.87 38.7393 407.63 39.0093 407.29 39.1993ZM407.08 43.3093H409.45V41.6993H408.83C408.15 41.6993 407.7 41.7993 407.45 42.0093C407.21 42.2193 407.09 42.6193 407.09 43.2093V43.3093H407.08ZM408.82 47.0793H409.44V45.4693H407.07V45.5693C407.07 46.1593 407.19 46.5593 407.43 46.7693C407.67 46.9793 408.13 47.0793 408.81 47.0793H408.82ZM411.24 38.8593C410.88 38.9793 410.53 38.9693 410.21 38.8293C409.89 38.6893 409.66 38.4293 409.52 38.0493C409.47 37.8593 409.38 37.6093 409.26 37.3093C409.14 37.0093 409.02 36.6993 408.9 36.3893C408.78 36.0793 408.68 35.8393 408.61 35.6593C408.45 35.2593 408.47 34.8993 408.65 34.5793C408.83 34.2593 409.1 34.0393 409.44 33.9193C409.84 33.7793 410.2 33.7893 410.53 33.9493C410.86 34.1093 411.1 34.3793 411.26 34.7793C411.33 34.9493 411.43 35.1893 411.55 35.4893C411.67 35.7893 411.79 36.0993 411.9 36.4093C412.01 36.7193 412.1 36.9593 412.15 37.1393C412.29 37.5593 412.27 37.9193 412.1 38.2193C411.93 38.5193 411.64 38.7393 411.24 38.8593ZM412.33 43.3093H414.75V43.2093C414.75 42.6193 414.63 42.2193 414.39 42.0093C414.15 41.7993 413.69 41.6993 413.01 41.6993H412.33V43.3093ZM412.33 47.0793H413.01C413.69 47.0793 414.14 46.9793 414.39 46.7693C414.63 46.5593 414.75 46.1593 414.75 45.5693V45.4693H412.33V47.0793Z" fill="#010F32"/>
<path d="M388.42 54.1397C389.51 54.1397 390.07 54.9997 390.07 56.1197C390.07 57.2397 389.51 58.2297 388.42 58.2297H372.91C371.39 58.2297 370.6 57.3097 370.6 55.6597C370.6 54.4397 371.39 52.7497 372.05 51.6697C373.14 49.7897 374.92 47.7397 378.09 45.6297L380.1 44.2797C383.27 42.1697 384.95 41.0097 384.95 38.5697C384.95 36.3297 383.17 35.0397 380.49 35.0397C377.22 35.0397 376.1 36.8597 375.51 38.9297C375.25 39.8897 374.45 40.3197 373.56 40.3197C373.3 40.3197 373.03 40.2897 372.77 40.2197C371.71 39.9897 370.95 39.3597 370.95 38.3397C370.95 38.1397 370.98 37.9097 371.05 37.6497C371.38 36.2997 372.14 34.9097 373.13 33.9197C374.78 32.1697 377.02 31.1797 380.62 31.1797C386.2 31.1797 389.53 33.9197 389.53 38.5697C389.53 42.6997 387.19 44.5797 383.82 46.6597L381.87 47.8497C378.5 49.9297 376.56 51.7797 375.7 54.1497H388.41L388.42 54.1397Z" fill="#010F32"/>
<path d="M471.83 55.1597C470.81 55.1597 470.3 54.6497 470.3 53.6297V39.7497H466.35C465.33 39.7497 464.82 39.2897 464.82 38.3697C464.82 37.4497 465.33 36.9697 466.35 36.9697H477.24C478.28 36.9697 478.8 37.4397 478.8 38.3697C478.8 39.2997 478.28 39.7497 477.24 39.7497H473.34V53.6297C473.34 54.6497 472.84 55.1597 471.83 55.1597Z" fill="#010F32"/>
<path d="M484.91 55.1594C484.08 55.1594 483.53 54.7294 483.27 53.8594L480.49 44.3694C480.35 43.8494 480.36 43.4294 480.52 43.1194C480.68 42.8094 480.97 42.6494 481.4 42.6494H481.43C482.35 42.6494 482.92 43.0894 483.15 43.9794L485.02 50.9994L486.89 43.9794C487.12 43.0994 487.64 42.6494 488.45 42.6494C489.26 42.6494 489.76 43.0894 489.98 43.9794L491.85 50.9994L493.75 43.9794C493.97 43.0994 494.55 42.6494 495.47 42.6494C495.9 42.6494 496.2 42.8094 496.37 43.1194C496.53 43.4294 496.54 43.8494 496.38 44.3694L493.6 53.8594C493.34 54.7294 492.79 55.1594 491.96 55.1594C491.13 55.1594 490.57 54.7194 490.35 53.8294L488.45 46.7294L486.53 53.8294C486.31 54.7094 485.77 55.1594 484.92 55.1594H484.91Z" fill="#010F32"/>
<path d="M500.79 40.5994C500.29 40.5994 499.85 40.4194 499.49 40.0494C499.13 39.6794 498.94 39.2494 498.94 38.7494C498.94 38.2494 499.12 37.8094 499.49 37.4494C499.86 37.0894 500.29 36.8994 500.79 36.8994C501.29 36.8994 501.73 37.0794 502.09 37.4494C502.45 37.8094 502.64 38.2494 502.64 38.7494C502.64 39.2494 502.46 39.6894 502.09 40.0494C501.73 40.4094 501.29 40.5994 500.79 40.5994ZM500.82 55.1594C499.85 55.1594 499.36 54.6494 499.36 53.6294V44.1894C499.36 43.1694 499.85 42.6594 500.82 42.6594C501.79 42.6594 502.28 43.1694 502.28 44.1894V53.6294C502.28 54.6494 501.79 55.1594 500.82 55.1594Z" fill="#010F32"/>
<path d="M510.93 55.4493C509.7 55.4493 508.76 55.2193 508.11 54.7693C507.46 54.3193 507.14 53.4193 507.14 52.0693V45.1793H506.28C505.26 45.1793 504.75 44.7593 504.75 43.9093C504.75 43.5093 504.86 43.1993 505.08 42.9893C505.3 42.7693 505.69 42.6693 506.26 42.6693H507.14V39.8093C507.14 38.7893 507.63 38.2793 508.62 38.2793C509.61 38.2793 510.05 38.7893 510.05 39.8093V42.6693H511.97C512.99 42.6693 513.5 43.0893 513.5 43.9193C513.5 44.7493 513 45.1893 511.99 45.1893H510.04V51.3293C510.04 51.9193 510.18 52.3193 510.47 52.5293C510.76 52.7393 511.17 52.8393 511.71 52.8393C512.25 52.8393 512.7 52.8993 513.02 53.0293C513.34 53.1593 513.5 53.4893 513.5 54.0293C513.5 54.4593 513.37 54.7793 513.12 54.9793C512.87 55.1793 512.55 55.3093 512.16 55.3693C511.77 55.4293 511.36 55.4593 510.92 55.4593L510.93 55.4493Z" fill="#010F32"/>
<path d="M520.94 55.4493C519.71 55.4493 518.77 55.2193 518.12 54.7693C517.47 54.3193 517.15 53.4193 517.15 52.0693V45.1793H516.29C515.27 45.1793 514.76 44.7593 514.76 43.9093C514.76 43.5093 514.87 43.1993 515.09 42.9893C515.31 42.7693 515.7 42.6693 516.27 42.6693H517.15V39.8093C517.15 38.7893 517.64 38.2793 518.63 38.2793C519.62 38.2793 520.06 38.7893 520.06 39.8093V42.6693H521.98C523 42.6693 523.51 43.0893 523.51 43.9193C523.51 44.7493 523.01 45.1893 522 45.1893H520.05V51.3293C520.05 51.9193 520.19 52.3193 520.48 52.5293C520.77 52.7393 521.18 52.8393 521.72 52.8393C522.26 52.8393 522.71 52.8993 523.03 53.0293C523.35 53.1593 523.51 53.4893 523.51 54.0293C523.51 54.4593 523.38 54.7793 523.13 54.9793C522.88 55.1793 522.56 55.3093 522.17 55.3693C521.78 55.4293 521.37 55.4593 520.93 55.4593L520.94 55.4493Z" fill="#010F32"/>
<path d="M531.29 55.4496C529.47 55.4496 528 54.8996 526.87 53.7996C525.74 52.6996 525.18 51.0696 525.18 48.8996C525.18 47.5496 525.43 46.3796 525.93 45.3996C526.43 44.4196 527.13 43.6696 528.04 43.1396C528.94 42.6096 529.97 42.3496 531.13 42.3496C532.29 42.3496 533.28 42.6196 534.09 43.1596C534.91 43.6996 535.53 44.3896 535.96 45.2396C536.39 46.0896 536.61 46.9696 536.61 47.8896C536.61 48.5296 536.48 48.9496 536.22 49.1496C535.96 49.3496 535.58 49.4496 535.08 49.4496H528.06C528.13 50.6996 528.46 51.5896 529.05 52.1196C529.64 52.6496 530.4 52.9096 531.34 52.9096C532.4 52.9096 533.22 52.5496 533.81 51.8196C534.16 51.4596 534.48 51.2196 534.78 51.1096C535.08 50.9996 535.41 51.0596 535.75 51.3096C536.09 51.5596 536.3 51.8596 536.35 52.2496C536.4 52.6296 536.25 53.0296 535.88 53.4496C535.29 54.1596 534.61 54.6796 533.85 54.9996C533.09 55.3196 532.23 55.4796 531.28 55.4796L531.29 55.4496ZM528.2 47.1796H533.74C533.6 46.3696 533.3 45.7396 532.84 45.2996C532.38 44.8596 531.8 44.6396 531.09 44.6396C530.33 44.6396 529.7 44.8496 529.21 45.2596C528.72 45.6696 528.38 46.3196 528.21 47.1796H528.2Z" fill="#010F32"/>
<path d="M540.86 55.1596C539.87 55.1596 539.38 54.6496 539.38 53.6296V44.1896C539.38 43.1696 539.89 42.6596 540.91 42.6596C541.26 42.6596 541.56 42.7396 541.82 42.9096C542.08 43.0696 542.21 43.3796 542.21 43.8296V44.4296C542.52 43.8096 543.01 43.2996 543.68 42.9196C544.35 42.5396 545.05 42.3496 545.8 42.3496C546.34 42.3496 546.75 42.4896 547.04 42.7796C547.33 43.0696 547.47 43.4496 547.47 43.9396C547.47 44.3896 547.36 44.7196 547.13 44.9296C546.9 45.1396 546.64 45.2196 546.35 45.1896C546.21 45.1696 546.06 45.1596 545.91 45.1496C545.75 45.1496 545.58 45.1396 545.39 45.1396C544.54 45.1396 543.82 45.4196 543.22 45.9696C542.62 46.5196 542.32 47.2996 542.32 48.3096V53.6396C542.32 54.6596 541.83 55.1696 540.86 55.1696V55.1596Z" fill="#010F32"/>
<path d="M567.14 55.4898C566.74 55.5398 566.38 55.4398 566.05 55.1898C565.72 54.9398 565.53 54.6198 565.49 54.2198C565.44 53.7898 565.35 53.0598 565.2 52.0198C565.06 50.9898 564.9 49.8298 564.72 48.5498C563.7 48.6598 562.72 48.7798 561.79 48.8998C560.86 49.0198 560.06 49.1198 559.38 49.1998C558.7 49.2798 558.21 49.3398 557.9 49.3898C557.5 49.4398 557.14 49.3298 556.82 49.0798C556.5 48.8298 556.32 48.4998 556.29 48.0998C556.24 47.6798 556.35 47.3198 556.6 47.0098C556.86 46.6998 557.18 46.5198 557.58 46.4698C557.84 46.4398 558.3 46.3898 558.97 46.3098C559.64 46.2398 560.44 46.1498 561.37 46.0298C562.3 45.9198 563.27 45.8098 564.3 45.6898L563.92 42.9498C562.86 43.0598 561.91 43.1698 561.05 43.2898C560.19 43.3998 559.61 43.4698 559.29 43.5098C558.89 43.5598 558.53 43.4498 558.22 43.1898C557.91 42.9298 557.73 42.5898 557.68 42.1898C557.65 41.7898 557.76 41.4298 558.02 41.1198C558.28 40.8098 558.6 40.6298 559 40.5798C559.26 40.5498 559.8 40.4898 560.64 40.3998C561.48 40.3098 562.44 40.1998 563.51 40.0798C563.32 38.8298 563.18 37.8998 563.1 37.2998C563.04 36.8798 563.13 36.5198 563.39 36.1998C563.65 35.8798 563.97 35.6998 564.37 35.6498C564.79 35.5898 565.15 35.6798 565.47 35.9298C565.79 36.1798 565.97 36.5098 566.02 36.9298C566.05 37.2298 566.1 37.6298 566.18 38.1198C566.25 38.6098 566.33 39.1598 566.41 39.7898C567.35 39.6798 568.22 39.5798 569 39.4898C569.78 39.3998 570.38 39.3298 570.8 39.2898C571.2 39.2398 571.56 39.3498 571.87 39.5998C572.18 39.8598 572.35 40.1898 572.39 40.6098C572.42 41.0098 572.31 41.3698 572.07 41.6798C571.82 41.9898 571.49 42.1598 571.07 42.1998C570.67 42.2298 570.09 42.2898 569.32 42.3698C568.55 42.4498 567.71 42.5498 566.8 42.6598L567.18 45.3698C568.16 45.2398 569.08 45.1298 569.94 45.0298C570.8 44.9298 571.55 44.8498 572.17 44.7698C572.79 44.6898 573.22 44.6398 573.44 44.6298C573.95 44.8398 574.34 45.0398 574.62 45.2298C574.89 45.4198 575.04 45.6498 575.08 45.9298C575.13 46.3298 575.02 46.6898 574.77 47.0098C574.51 47.3298 574.19 47.5098 573.79 47.5398C573.55 47.5598 573.12 47.5998 572.52 47.6698C571.91 47.7398 571.18 47.8298 570.32 47.9198C569.46 48.0198 568.56 48.1298 567.6 48.2598C567.78 49.5598 567.94 50.7098 568.09 51.7298C568.24 52.7498 568.35 53.4498 568.41 53.8498C568.49 54.2498 568.41 54.6098 568.15 54.9398C567.89 55.2698 567.56 55.4598 567.14 55.5298V55.4898Z" fill="#010F32"/>
<path d="M588.52 56.2995C588.17 56.3595 587.84 56.2995 587.54 56.0995C587.24 55.8995 587.05 55.6195 586.99 55.2695C586.89 54.6895 586.76 53.9795 586.59 53.1295C586.42 52.2795 586.23 51.3695 586.01 50.3895C585.79 49.4095 585.57 48.4395 585.33 47.4595C584.45 47.6195 583.63 47.7695 582.86 47.8995C582.09 48.0395 581.48 48.1395 581.04 48.2195C580.69 48.2695 580.37 48.1795 580.08 47.9695C579.79 47.7495 579.62 47.4695 579.55 47.1195C579.5 46.7695 579.59 46.4495 579.8 46.1695C580.02 45.8895 580.3 45.7295 580.65 45.6795C581.05 45.6195 581.61 45.5195 582.33 45.3995C583.05 45.2795 583.84 45.1495 584.71 44.9995C584.44 43.8995 584.18 42.9695 583.94 42.2195C583.83 41.8795 583.86 41.5595 584.04 41.2395C584.22 40.9195 584.48 40.7095 584.83 40.6195C585.18 40.5195 585.51 40.5595 585.83 40.7295C586.14 40.8995 586.35 41.1595 586.44 41.5095C586.57 41.9095 586.7 42.3695 586.82 42.8995C586.94 43.4295 587.08 43.9895 587.23 44.5795L590.85 43.9595C593.36 43.5295 594.83 44.2595 595.24 46.1395C595.46 47.1995 595.23 48.1595 594.53 49.0195C593.83 49.8795 592.65 50.5895 590.97 51.1295C590.63 51.2395 590.31 51.2295 590 51.0795C589.69 50.9395 589.47 50.6895 589.34 50.3395C589.23 49.9995 589.24 49.6795 589.39 49.3595C589.53 49.0395 589.78 48.8195 590.13 48.7095C590.87 48.4395 591.41 48.1995 591.76 47.9895C592.11 47.7795 592.34 47.5795 592.44 47.3795C592.54 47.1795 592.57 46.9795 592.52 46.7895C592.49 46.5995 592.38 46.4595 592.21 46.3795C592.03 46.2995 591.75 46.2995 591.37 46.3795C590.89 46.4595 590.34 46.5595 589.73 46.6695C589.11 46.7795 588.48 46.8995 587.82 47.0295C588.06 48.0095 588.29 48.9795 588.5 49.9495C588.71 50.9195 588.92 51.8195 589.1 52.6495C589.28 53.4795 589.43 54.1895 589.54 54.7595C589.6 55.1095 589.54 55.4395 589.34 55.7295C589.14 56.0295 588.86 56.2095 588.51 56.2895L588.52 56.2995Z" fill="#010F32"/>
<path d="M605.13 44.0101C604.52 43.5001 603.84 42.9701 603.09 42.4101C602.34 41.8501 601.66 41.4101 601.05 41.0501C600.7 40.8301 600.47 40.5201 600.38 40.1301C600.28 39.7401 600.34 39.3701 600.55 39.0101C600.77 38.6601 601.08 38.4301 601.47 38.3301C601.86 38.2301 602.23 38.2901 602.59 38.5101C603.02 38.7801 603.51 39.1101 604.07 39.5101C604.62 39.9001 605.16 40.2901 605.68 40.6701C606.2 41.0501 606.63 41.3801 606.96 41.6501C607.28 41.9101 607.47 42.2401 607.52 42.6501C607.58 43.0601 607.48 43.4201 607.22 43.7401C606.96 44.0601 606.63 44.2501 606.22 44.3001C605.81 44.3601 605.45 44.2601 605.13 44.0001V44.0101ZM603.07 53.4701C602.69 53.6101 602.31 53.6001 601.93 53.4201C601.55 53.2401 601.29 52.9601 601.15 52.5801C601.01 52.2001 601.02 51.8201 601.2 51.4401C601.38 51.0601 601.66 50.8001 602.04 50.6601C603.32 50.2101 604.61 49.6601 605.92 49.0001C607.22 48.3401 608.47 47.6301 609.66 46.8501C610.85 46.0701 611.94 45.2701 612.92 44.4501C613.9 43.6301 614.71 42.8301 615.33 42.0601C615.6 41.7401 615.94 41.5601 616.35 41.5101C616.76 41.4601 617.11 41.5701 617.42 41.8501C617.74 42.1101 617.92 42.4401 617.97 42.8501C618.02 43.2601 617.91 43.6201 617.63 43.9401C616.97 44.7401 616.1 45.5901 615.01 46.5001C613.92 47.4001 612.71 48.3001 611.36 49.1801C610.01 50.0601 608.63 50.8801 607.21 51.6301C605.79 52.3801 604.4 53.0001 603.06 53.4801L603.07 53.4701Z" fill="#010F32"/>
<path d="M640.7 51.6894C640.22 51.2294 639.62 50.6794 638.9 50.0494C638.18 49.4194 637.41 48.7594 636.6 48.0794C635.78 47.3994 634.98 46.7494 634.2 46.1194C633.42 45.4894 632.72 44.9594 632.11 44.5094C631.66 44.1694 631.26 43.9494 630.9 43.8294C630.54 43.7094 630.16 43.6894 629.77 43.7794C629.38 43.8694 628.91 44.0594 628.37 44.3694C627.92 44.6294 627.41 44.9294 626.83 45.2794C626.25 45.6294 625.7 45.9794 625.16 46.3094C624.62 46.6394 624.19 46.9194 623.85 47.1294C623.5 47.3394 623.12 47.3894 622.72 47.2994C622.32 47.1994 622.02 46.9794 621.81 46.6294C621.6 46.2794 621.54 45.8994 621.63 45.4994C621.72 45.0994 621.94 44.7994 622.29 44.5894C622.63 44.3794 623.08 44.1094 623.65 43.7694C624.22 43.4294 624.81 43.0894 625.43 42.7494C626.05 42.4094 626.58 42.1094 627.03 41.8494C627.99 41.3394 628.83 40.9994 629.54 40.8394C630.25 40.6794 630.94 40.6994 631.59 40.9094C632.24 41.1194 632.98 41.5194 633.8 42.1094C634.23 42.4094 634.75 42.7994 635.36 43.2694C635.97 43.7394 636.62 44.2494 637.32 44.8094C638.02 45.3594 638.71 45.9294 639.41 46.4994C640.11 47.0694 640.75 47.6194 641.35 48.1394C641.95 48.6594 642.46 49.1194 642.87 49.5194C643.17 49.7894 643.33 50.1394 643.34 50.5494C643.35 50.9594 643.2 51.3294 642.9 51.6494C642.61 51.9394 642.25 52.0894 641.82 52.0894C641.39 52.0894 641.02 51.9594 640.72 51.6694L640.7 51.6894ZM638.2 42.7094C637.53 42.7094 636.96 42.4694 636.48 41.9894C636.01 41.5094 635.77 40.9394 635.77 40.2894C635.77 39.6394 636.01 39.0494 636.48 38.5694C636.95 38.0894 637.52 37.8594 638.2 37.8594C638.88 37.8594 639.44 38.0994 639.92 38.5694C640.39 39.0394 640.63 39.6094 640.63 40.2894C640.63 40.9694 640.39 41.5094 639.92 41.9894C639.45 42.4694 638.88 42.7094 638.2 42.7094ZM638.2 41.3194C638.49 41.3194 638.73 41.2194 638.93 41.0094C639.13 40.7994 639.23 40.5594 639.23 40.2894C639.23 39.9994 639.13 39.7494 638.93 39.5494C638.73 39.3494 638.49 39.2394 638.2 39.2394C637.91 39.2394 637.67 39.3394 637.47 39.5494C637.27 39.7594 637.17 40.0094 637.17 40.2894C637.17 40.5594 637.27 40.7994 637.47 41.0094C637.67 41.2194 637.91 41.3194 638.2 41.3194Z" fill="#010F32"/>
<path d="M648.43 46.8694C648.03 46.8694 647.68 46.7194 647.39 46.4294C647.09 46.1294 646.95 45.7894 646.95 45.3894C646.95 44.9894 647.1 44.6194 647.39 44.3294C647.69 44.0394 648.03 43.8994 648.43 43.8994H663.38C663.8 43.8994 664.15 44.0394 664.44 44.3294C664.73 44.6194 664.87 44.9694 664.87 45.3894C664.87 45.8094 664.73 46.1394 664.44 46.4294C664.15 46.7294 663.8 46.8694 663.38 46.8694H648.43Z" fill="#010F32"/>
<path d="M673.75 44.0101C673.14 43.5001 672.46 42.9701 671.71 42.4101C670.96 41.8501 670.28 41.4101 669.67 41.0501C669.32 40.8301 669.09 40.5201 669 40.1301C668.9 39.7401 668.96 39.3701 669.17 39.0101C669.39 38.6601 669.7 38.4301 670.09 38.3301C670.48 38.2301 670.85 38.2901 671.21 38.5101C671.64 38.7801 672.13 39.1101 672.69 39.5101C673.24 39.9001 673.78 40.2901 674.3 40.6701C674.82 41.0501 675.25 41.3801 675.58 41.6501C675.9 41.9101 676.09 42.2401 676.14 42.6501C676.2 43.0601 676.1 43.4201 675.84 43.7401C675.58 44.0601 675.25 44.2501 674.84 44.3001C674.43 44.3601 674.07 44.2601 673.75 44.0001V44.0101ZM671.69 53.4701C671.31 53.6101 670.93 53.6001 670.55 53.4201C670.17 53.2401 669.91 52.9601 669.77 52.5801C669.63 52.2001 669.64 51.8201 669.82 51.4401C670 51.0601 670.28 50.8001 670.66 50.6601C671.94 50.2101 673.23 49.6601 674.54 49.0001C675.84 48.3401 677.09 47.6301 678.28 46.8501C679.47 46.0701 680.56 45.2701 681.54 44.4501C682.52 43.6301 683.33 42.8301 683.95 42.0601C684.22 41.7401 684.56 41.5601 684.97 41.5101C685.38 41.4601 685.73 41.5701 686.04 41.8501C686.36 42.1101 686.54 42.4401 686.59 42.8501C686.64 43.2601 686.53 43.6201 686.25 43.9401C685.59 44.7401 684.72 45.5901 683.63 46.5001C682.54 47.4001 681.33 48.3001 679.98 49.1801C678.63 50.0601 677.25 50.8801 675.83 51.6301C674.41 52.3801 673.02 53.0001 671.68 53.4801L671.69 53.4701Z" fill="#010F32"/>
<path d="M438.25 42.8395L437.51 42.5595L436.84 42.1695L436.29 41.6195L435.87 40.9595L435.6 40.2295L435.49 39.4495L435.33 38.6795L435.38 37.8995L435.64 37.1595L435.91 36.4795L436.47 36.0295L437.04 35.6195L437.73 35.4795L438.45 35.5195L439.17 35.7895L439.83 36.2295L440.25 36.8895L440.53 37.6195L440.79 38.3695L440.74 39.1595V39.9995L440.68 40.8395L440.39 41.6395L439.83 42.2795L439.06 42.5895L438.25 42.8395Z" fill="#010F32"/>
<path d="M444.01 36.2793L444.74 36.0893L445.52 36.0693L446.25 36.3493L446.89 36.7993L447.42 37.3693L447.69 38.1193L447.66 38.8593L447.69 39.6093L447.42 40.3093L447.26 41.0493L446.82 41.6493L446.36 42.2493L445.75 42.6893L445.06 42.9993L444.25 42.9893L443.54 42.7193L443 42.1493L442.61 41.4593L442.4 40.6793L442.29 39.8893L442.33 39.0893L442.46 38.2293L442.81 37.4293L443.25 36.6893L444.01 36.2793Z" fill="#010F32"/>
<path d="M451.1 41.6992L451.67 42.3392L452.12 43.0592L452.26 43.8992L452.21 44.7492L452.22 45.5792L451.98 46.3792L451.6 47.1192L451.06 47.7592L450.41 48.2592L449.7 48.6992H448.87L448.07 48.5892L447.38 48.1392L446.97 47.4292L446.77 46.6192L446.59 45.7992L446.78 44.9692L446.95 44.1492L447.23 43.4192L447.61 42.7392L448.09 42.0892L448.78 41.6992L449.53 41.4092L450.33 41.4492L451.1 41.6992Z" fill="#010F32"/>
<path d="M431.19 40.4897L431.95 40.2197L432.75 40.2697L433.52 40.5297L434.23 40.9697L434.73 41.6297L435.21 42.2897L435.54 43.0297L435.75 43.8097L435.89 44.5597L435.88 45.3197L435.76 46.0597L435.54 46.7697L434.98 47.2597L434.33 47.6597L433.56 47.6497L432.81 47.5797L432.13 47.2597L431.48 46.8597L430.98 46.2797L430.62 45.5997L430.22 44.8897L430.03 44.0897L429.93 43.2897L430.02 42.4797L430.16 41.6897L430.62 41.0297L431.19 40.4897Z" fill="#010F32"/>
<path d="M434.35 52.2798L434.39 51.4298L434.55 50.5898L434.83 49.7798L435.4 49.1298L435.88 48.4298L436.6 47.9598L437.11 47.2998L437.65 46.6998L438.16 46.0498L438.8 45.4998L439.63 45.3598L440.4 45.1798L441.18 45.0898L441.96 45.1698L442.61 45.6098L443.25 45.9998L443.91 46.4198L444.42 46.9998L444.79 47.7098L445.52 48.0598L445.96 48.6998L446.39 49.3098L446.85 49.8998L447.32 50.5098L447.36 51.2898L447.45 52.0198L447.66 52.7798L447.27 53.4598L446.94 54.1598L446.3 54.5998L445.59 54.8598L444.85 54.9798L444.12 54.8898L443.38 54.7998L442.63 54.6998L441.89 54.5598L441.15 54.4598L440.36 54.3898L439.61 54.5798L438.94 55.0098L438.14 54.9698L437.4 55.0498L436.65 55.0698L435.88 54.9298L435.32 54.3198L434.82 53.7398L434.5 53.0498L434.35 52.2798Z" fill="#010F32"/>
<path d="M300.11 70.8594H729.89V97.4694C729.89 104.089 724.51 109.469 717.89 109.469H312.11C305.49 109.469 300.11 104.089 300.11 97.4694V70.8594Z" fill="#65ABD5"/>
<path d="M389.33 98.1994C389.73 98.1994 389.93 98.5094 389.93 98.9194C389.93 99.3294 389.73 99.6894 389.33 99.6894H383.69C383.14 99.6894 382.85 99.3494 382.85 98.7494C382.85 98.3094 383.14 97.6994 383.38 97.2994C383.78 96.6194 384.42 95.8694 385.57 95.1094L386.3 94.6194C387.45 93.8494 388.06 93.4294 388.06 92.5494C388.06 91.7294 387.41 91.2694 386.44 91.2694C385.25 91.2694 384.84 91.9294 384.63 92.6894C384.53 93.0394 384.25 93.1894 383.92 93.1894C383.82 93.1894 383.73 93.1794 383.63 93.1494C383.25 93.0694 382.97 92.8394 382.97 92.4694C382.97 92.3994 382.98 92.3094 383.01 92.2194C383.13 91.7294 383.41 91.2194 383.77 90.8594C384.37 90.2194 385.19 89.8594 386.49 89.8594C388.52 89.8594 389.73 90.8594 389.73 92.5494C389.73 94.0494 388.88 94.7294 387.66 95.4894L386.95 95.9194C385.73 96.6694 385.02 97.3494 384.71 98.2094H389.33V98.1994Z" fill="white"/>
<path d="M399.48 94.8494C399.48 98.1194 398.17 99.8794 395.79 99.8794C393.41 99.8794 392.12 98.1294 392.12 94.8094C392.12 91.4894 393.43 89.8594 395.8 89.8594C398.17 89.8594 399.48 91.4294 399.48 94.8594V94.8494ZM393.76 94.8294C393.76 97.1594 394.42 98.4194 395.8 98.4194C397.18 98.4194 397.83 97.1994 397.83 94.8194C397.83 92.4394 397.19 91.3194 395.8 91.3194C394.41 91.3194 393.76 92.5294 393.76 94.8294Z" fill="white"/>
<path d="M408.12 98.1994C408.52 98.1994 408.72 98.5094 408.72 98.9194C408.72 99.3294 408.52 99.6894 408.12 99.6894H402.48C401.93 99.6894 401.64 99.3494 401.64 98.7494C401.64 98.3094 401.93 97.6994 402.17 97.2994C402.57 96.6194 403.21 95.8694 404.36 95.1094L405.09 94.6194C406.24 93.8494 406.85 93.4294 406.85 92.5494C406.85 91.7294 406.2 91.2694 405.23 91.2694C404.04 91.2694 403.63 91.9294 403.42 92.6894C403.32 93.0394 403.04 93.1894 402.71 93.1894C402.61 93.1894 402.52 93.1794 402.42 93.1494C402.04 93.0694 401.76 92.8394 401.76 92.4694C401.76 92.3994 401.77 92.3094 401.8 92.2194C401.92 91.7294 402.2 91.2194 402.56 90.8594C403.16 90.2194 403.98 89.8594 405.28 89.8594C407.31 89.8594 408.52 90.8594 408.52 92.5494C408.52 94.0494 407.67 94.7294 406.45 95.4894L405.74 95.9194C404.52 96.6694 403.81 97.3494 403.5 98.2094H408.12V98.1994Z" fill="white"/>
<path d="M414.34 93.9901H414.42C415.5 93.9901 416.19 93.4701 416.19 92.5401C416.19 91.6801 415.53 91.2101 414.52 91.2101C413.51 91.2101 413.07 91.6301 412.81 92.2601C412.69 92.5401 412.49 92.6401 412.23 92.6401C412.09 92.6401 411.93 92.6001 411.77 92.5401C411.45 92.4201 411.24 92.2201 411.24 91.9401C411.24 91.8401 411.26 91.7401 411.31 91.6301C411.68 90.7801 412.56 89.8301 414.56 89.8301C416.56 89.8301 417.79 90.8101 417.79 92.3701C417.79 93.5701 417.2 94.3501 415.96 94.6601C417.38 94.8401 418.07 95.6901 418.07 97.0801C418.07 98.6901 416.86 99.8901 414.47 99.8901C412.35 99.8901 411.36 98.9101 410.98 97.9401C410.94 97.8401 410.93 97.7601 410.93 97.6801C410.93 97.3501 411.19 97.0901 411.57 97.0101C411.69 96.9901 411.8 96.9701 411.91 96.9701C412.23 96.9701 412.47 97.1101 412.59 97.4301C412.85 98.0901 413.42 98.5001 414.52 98.5001C415.62 98.5001 416.42 97.9401 416.42 96.9401C416.42 95.9401 415.66 95.4501 414.44 95.4501H413.67C413.26 95.4701 413.05 95.1101 413.05 94.7101C413.05 94.3101 413.27 93.9701 413.67 93.9801H414.33L414.34 93.9901Z" fill="white"/>
<path d="M432.03 98.4393C432.03 99.3293 431.38 99.8093 430.37 99.8093C429.36 99.8093 428.74 99.3293 428.74 98.4693V84.1193C428.74 83.6893 428.62 83.4693 428.19 83.4693H428.12L425.86 83.5393C425 83.5593 424.44 82.8193 424.44 81.9993C424.44 81.1393 424.97 80.4193 425.81 80.3893L429.31 80.3193H429.53C431.45 80.3193 432.03 80.9393 432.03 83.0293V98.4393Z" fill="white"/>
<path d="M446.5 98.4393C446.5 99.3293 445.85 99.8093 444.84 99.8093C443.83 99.8093 443.21 99.3293 443.21 98.4693V84.1193C443.21 83.6893 443.09 83.4693 442.66 83.4693H442.59L440.33 83.5393C439.47 83.5593 438.91 82.8193 438.91 81.9993C438.91 81.1393 439.44 80.4193 440.28 80.3893L443.78 80.3193H444C445.92 80.3193 446.5 80.9393 446.5 83.0293V98.4393Z" fill="white"/>
<path d="M458.62 97.7693C458.62 98.9693 457.76 99.7893 456.63 99.7893C455.5 99.7893 454.61 98.9693 454.61 97.7693C454.61 96.5693 455.47 95.7793 456.63 95.7793C457.79 95.7793 458.62 96.6193 458.62 97.7693Z" fill="white"/>
<path d="M475.47 96.6693C476.26 96.6693 476.67 97.2893 476.67 98.1093C476.67 98.9293 476.26 99.6493 475.47 99.6493H464.19C463.09 99.6493 462.51 98.9793 462.51 97.7793C462.51 96.8893 463.09 95.6693 463.57 94.8793C464.36 93.5093 465.66 92.0193 467.96 90.4893L469.42 89.5093C471.72 87.9693 472.95 87.1293 472.95 85.3593C472.95 83.7293 471.65 82.7893 469.71 82.7893C467.33 82.7893 466.52 84.1093 466.09 85.6193C465.9 86.3193 465.32 86.6293 464.67 86.6293C464.48 86.6293 464.29 86.6093 464.09 86.5593C463.32 86.3893 462.77 85.9393 462.77 85.1893C462.77 85.0493 462.79 84.8793 462.84 84.6893C463.08 83.7093 463.63 82.6993 464.35 81.9793C465.55 80.7093 467.18 79.9893 469.8 79.9893C473.86 79.9893 476.28 81.9793 476.28 85.3693C476.28 88.3693 474.58 89.7393 472.13 91.2493L470.71 92.1093C468.26 93.6193 466.85 94.9693 466.22 96.6893H475.46L475.47 96.6693Z" fill="white"/>
<path d="M493.3 96.6693C494.09 96.6693 494.5 97.2893 494.5 98.1093C494.5 98.9293 494.09 99.6493 493.3 99.6493H482.02C480.92 99.6493 480.34 98.9793 480.34 97.7793C480.34 96.8893 480.92 95.6693 481.4 94.8793C482.19 93.5093 483.49 92.0193 485.79 90.4893L487.25 89.5093C489.55 87.9693 490.78 87.1293 490.78 85.3593C490.78 83.7293 489.48 82.7893 487.54 82.7893C485.16 82.7893 484.35 84.1093 483.92 85.6193C483.73 86.3193 483.15 86.6293 482.5 86.6293C482.31 86.6293 482.12 86.6093 481.92 86.5593C481.15 86.3893 480.6 85.9393 480.6 85.1893C480.6 85.0493 480.62 84.8793 480.67 84.6893C480.91 83.7093 481.46 82.6993 482.18 81.9793C483.38 80.7093 485.01 79.9893 487.63 79.9893C491.69 79.9893 494.11 81.9793 494.11 85.3693C494.11 88.3693 492.41 89.7393 489.96 91.2493L488.54 92.1093C486.09 93.6193 484.68 94.9693 484.05 96.6893H493.29L493.3 96.6693Z" fill="white"/>
<path d="M517.04 82.4697H504.06C502.955 82.4697 502.06 83.3652 502.06 84.4697V97.4497C502.06 98.5543 502.955 99.4497 504.06 99.4497H517.04C518.145 99.4497 519.04 98.5543 519.04 97.4497V84.4697C519.04 83.3652 518.145 82.4697 517.04 82.4697Z" fill="white"/>
<path d="M505.63 89.6401C505.31 89.6401 505.11 89.3901 505.11 89.0001C505.11 88.6101 505.3 88.3601 505.63 88.3601H508.39C509.11 88.3601 509.46 88.6601 509.46 89.3301C509.46 89.5301 509.42 89.7601 509.36 90.0401C509.13 91.0101 508.71 92.0001 508.16 92.8601C507.6 93.7501 506.89 94.5001 506.13 95.1101C505.97 95.2301 505.81 95.3001 505.64 95.3001C505.45 95.3001 505.26 95.2001 505.09 95.0201C504.97 94.8901 504.91 94.7201 504.91 94.5501C504.91 94.3601 504.98 94.1801 505.16 94.0501C505.87 93.5201 506.49 92.8901 506.93 92.2601C507.47 91.4901 507.84 90.6901 508.05 89.9101C508.06 89.8501 508.07 89.8001 508.07 89.7501C508.07 89.6501 508.01 89.6201 507.85 89.6201H505.62L505.63 89.6401ZM511.27 87.7701C511.43 88.5101 511.73 89.2701 512.09 89.9601C512.92 89.3001 513.66 88.5001 514.19 87.7301C514.31 87.5601 514.48 87.4801 514.66 87.4801C514.82 87.4801 514.97 87.5401 515.13 87.6501C515.35 87.7901 515.47 87.9901 515.47 88.2001C515.47 88.3301 515.42 88.4601 515.33 88.6001C514.67 89.4901 513.73 90.3901 512.79 91.1001C512.92 91.2901 513.05 91.4601 513.19 91.6301C513.89 92.5101 514.81 93.3401 515.82 93.9401C516.05 94.0701 516.14 94.2801 516.14 94.4901C516.14 94.6501 516.09 94.8101 516.01 94.9601C515.87 95.2001 515.63 95.3401 515.36 95.3401C515.24 95.3401 515.11 95.3001 515 95.2301C514.11 94.6801 513.26 93.8901 512.6 93.0201C512 92.2401 511.42 91.1501 511.09 90.1201C511.21 90.9801 511.29 91.7901 511.29 92.5301V95.2001C511.29 96.2101 510.69 96.6001 509.67 96.6001C509.18 96.6001 508.73 96.5501 508.39 96.4801C508.07 96.4201 507.9 96.2001 507.9 95.8701C507.9 95.8201 507.9 95.7701 507.91 95.7101C507.96 95.3601 508.17 95.1801 508.43 95.1801C508.47 95.1801 508.5 95.1801 508.54 95.1901C508.83 95.2401 509.16 95.2901 509.45 95.2901C509.83 95.2901 509.95 95.1901 509.95 94.8001V86.0601C509.95 85.7501 510.19 85.5801 510.6 85.5801C511.03 85.5801 511.3 85.7501 511.3 86.0601V87.7601L511.27 87.7701Z" fill="#65ABD5"/>
<path d="M577.36 98.4393C577.36 99.3293 576.71 99.8093 575.7 99.8093C574.69 99.8093 574.07 99.3293 574.07 98.4693V84.1193C574.07 83.6893 573.95 83.4693 573.52 83.4693H573.45L571.19 83.5393C570.32 83.5593 569.77 82.8193 569.77 81.9993C569.77 81.1393 570.3 80.4193 571.14 80.3893L574.64 80.3193H574.86C576.78 80.3193 577.36 80.9393 577.36 83.0293V98.4393Z" fill="white"/>
<path d="M595.41 96.6693C596.2 96.6693 596.61 97.2893 596.61 98.1093C596.61 98.9293 596.2 99.6493 595.41 99.6493H584.13C583.03 99.6493 582.45 98.9793 582.45 97.7793C582.45 96.8893 583.03 95.6693 583.51 94.8793C584.3 93.5093 585.6 92.0193 587.9 90.4893L589.36 89.5093C591.66 87.9693 592.89 87.1293 592.89 85.3593C592.89 83.7293 591.59 82.7893 589.65 82.7893C587.27 82.7893 586.46 84.1093 586.03 85.6193C585.84 86.3193 585.26 86.6293 584.61 86.6293C584.42 86.6293 584.23 86.6093 584.03 86.5593C583.26 86.3893 582.71 85.9393 582.71 85.1893C582.71 85.0493 582.73 84.8793 582.78 84.6893C583.02 83.7093 583.57 82.6993 584.29 81.9793C585.49 80.7093 587.12 79.9893 589.74 79.9893C593.8 79.9893 596.22 81.9793 596.22 85.3693C596.22 88.3693 594.51 89.7393 592.07 91.2493L590.65 92.1093C588.2 93.6193 586.79 94.9693 586.16 96.6893H595.4L595.41 96.6693Z" fill="white"/>
<path d="M604.91 97.7693C604.91 98.9693 604.05 99.7893 602.92 99.7893C601.79 99.7893 600.9 98.9693 600.9 97.7693C600.9 96.5693 601.77 95.7793 602.92 95.7793C604.07 95.7793 604.91 96.6193 604.91 97.7693Z" fill="white"/>
<path d="M618.23 86.9194C622 86.9194 624.61 89.4594 624.61 93.2794C624.61 97.0994 621.97 100.049 617.82 100.049C613.09 100.049 610.33 96.5894 610.33 90.2794C610.33 83.9694 612.71 79.9395 617.94 79.9395C621.13 79.9395 622.88 81.4495 623.8 83.3695C623.9 83.5595 623.94 83.7794 623.94 83.9494C623.94 84.5294 623.51 84.9594 622.96 85.1694C622.7 85.2694 622.43 85.3094 622.17 85.3094C621.64 85.3094 621.19 85.1195 620.97 84.6395C620.44 83.4894 619.6 82.7394 617.83 82.7394C616.32 82.7394 615.07 83.4595 614.33 84.9995C613.78 86.1295 613.51 87.2595 613.39 89.4395C614.42 87.8295 616.03 86.9194 618.24 86.9194H618.23ZM613.86 93.3995C613.86 95.6295 615.52 97.2394 617.68 97.2394C619.84 97.2394 621.47 95.6595 621.47 93.3295C621.47 90.9995 619.98 89.6095 617.75 89.6095C615.52 89.6095 613.86 91.2195 613.86 93.3995Z" fill="white"/>
<path d="M645.68 82.4697H632.7C631.595 82.4697 630.7 83.3652 630.7 84.4697V97.4497C630.7 98.5543 631.595 99.4497 632.7 99.4497H645.68C646.785 99.4497 647.68 98.5543 647.68 97.4497V84.4697C647.68 83.3652 646.785 82.4697 645.68 82.4697Z" fill="white"/>
<path d="M634.27 89.6401C633.95 89.6401 633.75 89.3901 633.75 89.0001C633.75 88.6101 633.94 88.3601 634.27 88.3601H637.03C637.75 88.3601 638.1 88.6601 638.1 89.3301C638.1 89.5301 638.06 89.7601 638 90.0401C637.77 91.0101 637.35 92.0001 636.8 92.8601C636.24 93.7501 635.53 94.5001 634.77 95.1101C634.61 95.2301 634.45 95.3001 634.28 95.3001C634.09 95.3001 633.9 95.2001 633.73 95.0201C633.61 94.8901 633.55 94.7201 633.55 94.5501C633.55 94.3601 633.62 94.1801 633.8 94.0501C634.51 93.5201 635.13 92.8901 635.58 92.2601C636.12 91.4901 636.49 90.6901 636.7 89.9101C636.71 89.8501 636.72 89.8001 636.72 89.7501C636.72 89.6501 636.66 89.6201 636.5 89.6201H634.27V89.6401ZM639.91 87.7701C640.07 88.5101 640.37 89.2701 640.73 89.9601C641.56 89.3001 642.3 88.5001 642.83 87.7301C642.95 87.5601 643.12 87.4801 643.3 87.4801C643.46 87.4801 643.61 87.5401 643.77 87.6501C643.99 87.7901 644.1 87.9901 644.1 88.2001C644.1 88.3301 644.05 88.4601 643.96 88.6001C643.3 89.4901 642.37 90.3901 641.42 91.1001C641.55 91.2901 641.68 91.4601 641.82 91.6301C642.52 92.5101 643.44 93.3401 644.45 93.9401C644.68 94.0701 644.77 94.2801 644.77 94.4901C644.77 94.6501 644.72 94.8101 644.64 94.9601C644.5 95.2001 644.26 95.3401 643.99 95.3401C643.87 95.3401 643.74 95.3001 643.63 95.2301C642.74 94.6801 641.89 93.8901 641.23 93.0201C640.63 92.2401 640.05 91.1501 639.72 90.1201C639.84 90.9801 639.92 91.7901 639.92 92.5301V95.2001C639.92 96.2101 639.32 96.6001 638.3 96.6001C637.81 96.6001 637.36 96.5501 637.02 96.4801C636.7 96.4201 636.53 96.2001 636.53 95.8701C636.53 95.8201 636.53 95.7701 636.54 95.7101C636.59 95.3601 636.8 95.1801 637.06 95.1801C637.1 95.1801 637.13 95.1801 637.17 95.1901C637.46 95.2401 637.79 95.2901 638.08 95.2901C638.46 95.2901 638.58 95.1901 638.58 94.8001V86.0601C638.58 85.7501 638.82 85.5801 639.23 85.5801C639.66 85.5801 639.93 85.7501 639.93 86.0601V87.7601L639.91 87.7701Z" fill="#65ABD5"/>
<path d="M533.09 93.4194H558.66L554.61 86.6494" stroke="white" stroke-width="2" stroke-linecap="round" stroke-linejoin="round"/>
</g>
<defs>
<clipPath id="clip0_387_715">
<rect width="1029.7" height="109.47" fill="white"/>
</clipPath>
</defs>
</svg>
