<svg width="1030" height="110" viewBox="0 0 1030 110" fill="none" xmlns="http://www.w3.org/2000/svg">
<g clip-path="url(#clip0_387_455)">
<path d="M40.16 54.1299H35.4C35.2233 54.1299 35.08 54.2732 35.08 54.4499V73.2399C35.08 73.4166 35.2233 73.5599 35.4 73.5599H40.16C40.3367 73.5599 40.48 73.4166 40.48 73.2399V54.4499C40.48 54.2732 40.3367 54.1299 40.16 54.1299Z" fill="#98CEE3"/>
<path d="M33.14 54.1299H28.38C28.2033 54.1299 28.06 54.2732 28.06 54.4499V73.2399C28.06 73.4166 28.2033 73.5599 28.38 73.5599H33.14C33.3167 73.5599 33.46 73.4166 33.46 73.2399V54.4499C33.46 54.2732 33.3167 54.1299 33.14 54.1299Z" fill="#98CEE3"/>
<path d="M26.13 54.1299H21.37C21.1933 54.1299 21.05 54.2732 21.05 54.4499V73.2399C21.05 73.4166 21.1933 73.5599 21.37 73.5599H26.13C26.3067 73.5599 26.45 73.4166 26.45 73.2399V54.4499C26.45 54.2732 26.3067 54.1299 26.13 54.1299Z" fill="#98CEE3"/>
<path d="M82.25 54.1299H77.49C77.3133 54.1299 77.17 54.2732 77.17 54.4499V73.2399C77.17 73.4166 77.3133 73.5599 77.49 73.5599H82.25C82.4267 73.5599 82.57 73.4166 82.57 73.2399V54.4499C82.57 54.2732 82.4267 54.1299 82.25 54.1299Z" fill="#98CEE3"/>
<path d="M75.24 54.1299H70.48C70.3033 54.1299 70.16 54.2732 70.16 54.4499V73.2399C70.16 73.4166 70.3033 73.5599 70.48 73.5599H75.24C75.4167 73.5599 75.56 73.4166 75.56 73.2399V54.4499C75.56 54.2732 75.4167 54.1299 75.24 54.1299Z" fill="#98CEE3"/>
<path d="M68.22 54.1299H63.46C63.2833 54.1299 63.14 54.2732 63.14 54.4499V73.2399C63.14 73.4166 63.2833 73.5599 63.46 73.5599H68.22C68.3967 73.5599 68.54 73.4166 68.54 73.2399V54.4499C68.54 54.2732 68.3967 54.1299 68.22 54.1299Z" fill="#98CEE3"/>
<path d="M124.35 54.1299H119.59C119.413 54.1299 119.27 54.2732 119.27 54.4499V73.2399C119.27 73.4166 119.413 73.5599 119.59 73.5599H124.35C124.527 73.5599 124.67 73.4166 124.67 73.2399V54.4499C124.67 54.2732 124.527 54.1299 124.35 54.1299Z" fill="#98CEE3"/>
<path d="M117.33 54.1299H112.57C112.393 54.1299 112.25 54.2732 112.25 54.4499V73.2399C112.25 73.4166 112.393 73.5599 112.57 73.5599H117.33C117.507 73.5599 117.65 73.4166 117.65 73.2399V54.4499C117.65 54.2732 117.507 54.1299 117.33 54.1299Z" fill="#98CEE3"/>
<path d="M110.32 54.1299H105.56C105.383 54.1299 105.24 54.2732 105.24 54.4499V73.2399C105.24 73.4166 105.383 73.5599 105.56 73.5599H110.32C110.497 73.5599 110.64 73.4166 110.64 73.2399V54.4499C110.64 54.2732 110.497 54.1299 110.32 54.1299Z" fill="#98CEE3"/>
<path d="M166.44 54.1299H161.68C161.503 54.1299 161.36 54.2732 161.36 54.4499V73.2399C161.36 73.4166 161.503 73.5599 161.68 73.5599H166.44C166.617 73.5599 166.76 73.4166 166.76 73.2399V54.4499C166.76 54.2732 166.617 54.1299 166.44 54.1299Z" fill="#98CEE3"/>
<path d="M159.43 54.1299H154.67C154.493 54.1299 154.35 54.2732 154.35 54.4499V73.2399C154.35 73.4166 154.493 73.5599 154.67 73.5599H159.43C159.607 73.5599 159.75 73.4166 159.75 73.2399V54.4499C159.75 54.2732 159.607 54.1299 159.43 54.1299Z" fill="#98CEE3"/>
<path d="M152.41 54.1299H147.65C147.473 54.1299 147.33 54.2732 147.33 54.4499V73.2399C147.33 73.4166 147.473 73.5599 147.65 73.5599H152.41C152.587 73.5599 152.73 73.4166 152.73 73.2399V54.4499C152.73 54.2732 152.587 54.1299 152.41 54.1299Z" fill="#98CEE3"/>
<path d="M208.54 54.1299H203.78C203.603 54.1299 203.46 54.2732 203.46 54.4499V73.2399C203.46 73.4166 203.603 73.5599 203.78 73.5599H208.54C208.717 73.5599 208.86 73.4166 208.86 73.2399V54.4499C208.86 54.2732 208.717 54.1299 208.54 54.1299Z" fill="#98CEE3"/>
<path d="M201.52 54.1299H196.76C196.583 54.1299 196.44 54.2732 196.44 54.4499V73.2399C196.44 73.4166 196.583 73.5599 196.76 73.5599H201.52C201.697 73.5599 201.84 73.4166 201.84 73.2399V54.4499C201.84 54.2732 201.697 54.1299 201.52 54.1299Z" fill="#98CEE3"/>
<path d="M194.51 54.1299H189.75C189.573 54.1299 189.43 54.2732 189.43 54.4499V73.2399C189.43 73.4166 189.573 73.5599 189.75 73.5599H194.51C194.687 73.5599 194.83 73.4166 194.83 73.2399V54.4499C194.83 54.2732 194.687 54.1299 194.51 54.1299Z" fill="#98CEE3"/>
<path d="M250.63 54.1299H245.87C245.693 54.1299 245.55 54.2732 245.55 54.4499V73.2399C245.55 73.4166 245.693 73.5599 245.87 73.5599H250.63C250.807 73.5599 250.95 73.4166 250.95 73.2399V54.4499C250.95 54.2732 250.807 54.1299 250.63 54.1299Z" fill="#98CEE3"/>
<path d="M243.62 54.1299H238.86C238.683 54.1299 238.54 54.2732 238.54 54.4499V73.2399C238.54 73.4166 238.683 73.5599 238.86 73.5599H243.62C243.797 73.5599 243.94 73.4166 243.94 73.2399V54.4499C243.94 54.2732 243.797 54.1299 243.62 54.1299Z" fill="#98CEE3"/>
<path d="M236.6 54.1299H231.84C231.663 54.1299 231.52 54.2732 231.52 54.4499V73.2399C231.52 73.4166 231.663 73.5599 231.84 73.5599H236.6C236.777 73.5599 236.92 73.4166 236.92 73.2399V54.4499C236.92 54.2732 236.777 54.1299 236.6 54.1299Z" fill="#98CEE3"/>
<path d="M292.73 54.1299H287.97C287.793 54.1299 287.65 54.2732 287.65 54.4499V73.2399C287.65 73.4166 287.793 73.5599 287.97 73.5599H292.73C292.907 73.5599 293.05 73.4166 293.05 73.2399V54.4499C293.05 54.2732 292.907 54.1299 292.73 54.1299Z" fill="#98CEE3"/>
<path d="M285.71 54.1299H280.95C280.773 54.1299 280.63 54.2732 280.63 54.4499V73.2399C280.63 73.4166 280.773 73.5599 280.95 73.5599H285.71C285.887 73.5599 286.03 73.4166 286.03 73.2399V54.4499C286.03 54.2732 285.887 54.1299 285.71 54.1299Z" fill="#98CEE3"/>
<path d="M278.69 54.1299H273.93C273.753 54.1299 273.61 54.2732 273.61 54.4499V73.2399C273.61 73.4166 273.753 73.5599 273.93 73.5599H278.69C278.867 73.5599 279.01 73.4166 279.01 73.2399V54.4499C279.01 54.2732 278.867 54.1299 278.69 54.1299Z" fill="#98CEE3"/>
<path d="M755.76 54.1299H751C750.823 54.1299 750.68 54.2732 750.68 54.4499V73.2399C750.68 73.4166 750.823 73.5599 751 73.5599H755.76C755.937 73.5599 756.08 73.4166 756.08 73.2399V54.4499C756.08 54.2732 755.937 54.1299 755.76 54.1299Z" fill="#98CEE3"/>
<path d="M748.75 54.1299H743.99C743.813 54.1299 743.67 54.2732 743.67 54.4499V73.2399C743.67 73.4166 743.813 73.5599 743.99 73.5599H748.75C748.927 73.5599 749.07 73.4166 749.07 73.2399V54.4499C749.07 54.2732 748.927 54.1299 748.75 54.1299Z" fill="#98CEE3"/>
<path d="M736.98 54.1299H741.73C741.91 54.1299 742.05 54.2799 742.05 54.4499V73.2299C742.05 73.4099 741.9 73.5499 741.73 73.5499H736.98C736.8 73.5499 736.66 73.4099 736.66 73.2299V54.4499C736.66 54.2699 736.81 54.1299 736.98 54.1299Z" fill="#98CEE3"/>
<path d="M793.1 54.1299H797.85C798.03 54.1299 798.17 54.2799 798.17 54.4499V73.2299C798.17 73.4099 798.02 73.5499 797.85 73.5499H793.1C792.92 73.5499 792.78 73.4099 792.78 73.2299V54.4499C792.78 54.2699 792.93 54.1299 793.1 54.1299Z" fill="#98CEE3"/>
<path d="M790.84 54.1299H786.08C785.903 54.1299 785.76 54.2732 785.76 54.4499V73.2399C785.76 73.4166 785.903 73.5599 786.08 73.5599H790.84C791.017 73.5599 791.16 73.4166 791.16 73.2399V54.4499C791.16 54.2732 791.017 54.1299 790.84 54.1299Z" fill="#98CEE3"/>
<path d="M779.07 54.1299H783.82C784 54.1299 784.14 54.2699 784.14 54.4499V73.2299C784.14 73.4099 783.99 73.5499 783.82 73.5499H779.07C778.89 73.5499 778.75 73.4099 778.75 73.2299V54.4499C778.75 54.2699 778.9 54.1299 779.07 54.1299Z" fill="#98CEE3"/>
<path d="M839.95 54.1299H835.19C835.013 54.1299 834.87 54.2732 834.87 54.4499V73.2399C834.87 73.4166 835.013 73.5599 835.19 73.5599H839.95C840.127 73.5599 840.27 73.4166 840.27 73.2399V54.4499C840.27 54.2732 840.127 54.1299 839.95 54.1299Z" fill="#98CEE3"/>
<path d="M832.94 54.1299H828.18C828.003 54.1299 827.86 54.2732 827.86 54.4499V73.2399C827.86 73.4166 828.003 73.5599 828.18 73.5599H832.94C833.117 73.5599 833.26 73.4166 833.26 73.2399V54.4499C833.26 54.2732 833.117 54.1299 832.94 54.1299Z" fill="#98CEE3"/>
<path d="M825.92 54.1299H821.16C820.983 54.1299 820.84 54.2732 820.84 54.4499V73.2399C820.84 73.4166 820.983 73.5599 821.16 73.5599H825.92C826.097 73.5599 826.24 73.4166 826.24 73.2399V54.4499C826.24 54.2732 826.097 54.1299 825.92 54.1299Z" fill="#98CEE3"/>
<path d="M882.05 54.1299H877.29C877.113 54.1299 876.97 54.2732 876.97 54.4499V73.2399C876.97 73.4166 877.113 73.5599 877.29 73.5599H882.05C882.227 73.5599 882.37 73.4166 882.37 73.2399V54.4499C882.37 54.2732 882.227 54.1299 882.05 54.1299Z" fill="#98CEE3"/>
<path d="M875.03 54.1299H870.27C870.093 54.1299 869.95 54.2732 869.95 54.4499V73.2399C869.95 73.4166 870.093 73.5599 870.27 73.5599H875.03C875.207 73.5599 875.35 73.4166 875.35 73.2399V54.4499C875.35 54.2732 875.207 54.1299 875.03 54.1299Z" fill="#98CEE3"/>
<path d="M868.02 54.1299H863.26C863.083 54.1299 862.94 54.2732 862.94 54.4499V73.2399C862.94 73.4166 863.083 73.5599 863.26 73.5599H868.02C868.197 73.5599 868.34 73.4166 868.34 73.2399V54.4499C868.34 54.2732 868.197 54.1299 868.02 54.1299Z" fill="#98CEE3"/>
<path d="M924.14 54.1299H919.38C919.203 54.1299 919.06 54.2732 919.06 54.4499V73.2399C919.06 73.4166 919.203 73.5599 919.38 73.5599H924.14C924.317 73.5599 924.46 73.4166 924.46 73.2399V54.4499C924.46 54.2732 924.317 54.1299 924.14 54.1299Z" fill="#98CEE3"/>
<path d="M917.13 54.1299H912.37C912.193 54.1299 912.05 54.2732 912.05 54.4499V73.2399C912.05 73.4166 912.193 73.5599 912.37 73.5599H917.13C917.307 73.5599 917.45 73.4166 917.45 73.2399V54.4499C917.45 54.2732 917.307 54.1299 917.13 54.1299Z" fill="#98CEE3"/>
<path d="M910.11 54.1299H905.35C905.173 54.1299 905.03 54.2732 905.03 54.4499V73.2399C905.03 73.4166 905.173 73.5599 905.35 73.5599H910.11C910.287 73.5599 910.43 73.4166 910.43 73.2399V54.4499C910.43 54.2732 910.287 54.1299 910.11 54.1299Z" fill="#98CEE3"/>
<path d="M966.24 54.1299H961.48C961.303 54.1299 961.16 54.2732 961.16 54.4499V73.2399C961.16 73.4166 961.303 73.5599 961.48 73.5599H966.24C966.417 73.5599 966.56 73.4166 966.56 73.2399V54.4499C966.56 54.2732 966.417 54.1299 966.24 54.1299Z" fill="#98CEE3"/>
<path d="M959.22 54.1299H954.46C954.283 54.1299 954.14 54.2732 954.14 54.4499V73.2399C954.14 73.4166 954.283 73.5599 954.46 73.5599H959.22C959.397 73.5599 959.54 73.4166 959.54 73.2399V54.4499C959.54 54.2732 959.397 54.1299 959.22 54.1299Z" fill="#98CEE3"/>
<path d="M952.21 54.1299H947.45C947.273 54.1299 947.13 54.2732 947.13 54.4499V73.2399C947.13 73.4166 947.273 73.5599 947.45 73.5599H952.21C952.387 73.5599 952.53 73.4166 952.53 73.2399V54.4499C952.53 54.2732 952.387 54.1299 952.21 54.1299Z" fill="#98CEE3"/>
<path d="M1008.33 54.1299H1003.57C1003.39 54.1299 1003.25 54.2732 1003.25 54.4499V73.2399C1003.25 73.4166 1003.39 73.5599 1003.57 73.5599H1008.33C1008.51 73.5599 1008.65 73.4166 1008.65 73.2399V54.4499C1008.65 54.2732 1008.51 54.1299 1008.33 54.1299Z" fill="#98CEE3"/>
<path d="M1001.32 54.1299H996.56C996.383 54.1299 996.24 54.2732 996.24 54.4499V73.2399C996.24 73.4166 996.383 73.5599 996.56 73.5599H1001.32C1001.5 73.5599 1001.64 73.4166 1001.64 73.2399V54.4499C1001.64 54.2732 1001.5 54.1299 1001.32 54.1299Z" fill="#98CEE3"/>
<path d="M994.3 54.1299H989.54C989.363 54.1299 989.22 54.2732 989.22 54.4499V73.2399C989.22 73.4166 989.363 73.5599 989.54 73.5599H994.3C994.477 73.5599 994.62 73.4166 994.62 73.2399V54.4499C994.62 54.2732 994.477 54.1299 994.3 54.1299Z" fill="#98CEE3"/>
<path d="M19.11 54.1299H0.32C0.143269 54.1299 0 54.2732 0 54.4499V59.2099C0 59.3866 0.143269 59.5299 0.32 59.5299H19.11C19.2867 59.5299 19.43 59.3866 19.43 59.2099V54.4499C19.43 54.2732 19.2867 54.1299 19.11 54.1299Z" fill="#F8B1BF"/>
<path d="M19.11 61.1494H0.32C0.143269 61.1494 0 61.2927 0 61.4694V66.2294C0 66.4061 0.143269 66.5494 0.32 66.5494H19.11C19.2867 66.5494 19.43 66.4061 19.43 66.2294V61.4694C19.43 61.2927 19.2867 61.1494 19.11 61.1494Z" fill="#F8B1BF"/>
<path d="M19.11 68.1592H0.32C0.143269 68.1592 0 68.3024 0 68.4792V73.2392C0 73.4159 0.143269 73.5592 0.32 73.5592H19.11C19.2867 73.5592 19.43 73.4159 19.43 73.2392V68.4792C19.43 68.3024 19.2867 68.1592 19.11 68.1592Z" fill="#F8B1BF"/>
<path d="M61.2 54.1299H42.41C42.2333 54.1299 42.09 54.2732 42.09 54.4499V59.2099C42.09 59.3866 42.2333 59.5299 42.41 59.5299H61.2C61.3767 59.5299 61.52 59.3866 61.52 59.2099V54.4499C61.52 54.2732 61.3767 54.1299 61.2 54.1299Z" fill="#F8B1BF"/>
<path d="M61.2 61.1494H42.41C42.2333 61.1494 42.09 61.2927 42.09 61.4694V66.2294C42.09 66.4061 42.2333 66.5494 42.41 66.5494H61.2C61.3767 66.5494 61.52 66.4061 61.52 66.2294V61.4694C61.52 61.2927 61.3767 61.1494 61.2 61.1494Z" fill="#F8B1BF"/>
<path d="M61.2 68.1592H42.41C42.2333 68.1592 42.09 68.3024 42.09 68.4792V73.2392C42.09 73.4159 42.2333 73.5592 42.41 73.5592H61.2C61.3767 73.5592 61.52 73.4159 61.52 73.2392V68.4792C61.52 68.3024 61.3767 68.1592 61.2 68.1592Z" fill="#F8B1BF"/>
<path d="M103.3 54.1299H84.51C84.3333 54.1299 84.19 54.2732 84.19 54.4499V59.2099C84.19 59.3866 84.3333 59.5299 84.51 59.5299H103.3C103.477 59.5299 103.62 59.3866 103.62 59.2099V54.4499C103.62 54.2732 103.477 54.1299 103.3 54.1299Z" fill="#F8B1BF"/>
<path d="M103.3 61.1494H84.51C84.3333 61.1494 84.19 61.2927 84.19 61.4694V66.2294C84.19 66.4061 84.3333 66.5494 84.51 66.5494H103.3C103.477 66.5494 103.62 66.4061 103.62 66.2294V61.4694C103.62 61.2927 103.477 61.1494 103.3 61.1494Z" fill="#F8B1BF"/>
<path d="M103.3 68.1592H84.51C84.3333 68.1592 84.19 68.3024 84.19 68.4792V73.2392C84.19 73.4159 84.3333 73.5592 84.51 73.5592H103.3C103.477 73.5592 103.62 73.4159 103.62 73.2392V68.4792C103.62 68.3024 103.477 68.1592 103.3 68.1592Z" fill="#F8B1BF"/>
<path d="M145.39 54.1299H126.6C126.423 54.1299 126.28 54.2732 126.28 54.4499V59.2099C126.28 59.3866 126.423 59.5299 126.6 59.5299H145.39C145.567 59.5299 145.71 59.3866 145.71 59.2099V54.4499C145.71 54.2732 145.567 54.1299 145.39 54.1299Z" fill="#F8B1BF"/>
<path d="M145.39 61.1494H126.6C126.423 61.1494 126.28 61.2927 126.28 61.4694V66.2294C126.28 66.4061 126.423 66.5494 126.6 66.5494H145.39C145.567 66.5494 145.71 66.4061 145.71 66.2294V61.4694C145.71 61.2927 145.567 61.1494 145.39 61.1494Z" fill="#F8B1BF"/>
<path d="M145.39 68.1592H126.6C126.423 68.1592 126.28 68.3024 126.28 68.4792V73.2392C126.28 73.4159 126.423 73.5592 126.6 73.5592H145.39C145.567 73.5592 145.71 73.4159 145.71 73.2392V68.4792C145.71 68.3024 145.567 68.1592 145.39 68.1592Z" fill="#F8B1BF"/>
<path d="M187.49 54.1299H168.7C168.523 54.1299 168.38 54.2732 168.38 54.4499V59.2099C168.38 59.3866 168.523 59.5299 168.7 59.5299H187.49C187.667 59.5299 187.81 59.3866 187.81 59.2099V54.4499C187.81 54.2732 187.667 54.1299 187.49 54.1299Z" fill="#F8B1BF"/>
<path d="M187.49 61.1494H168.7C168.523 61.1494 168.38 61.2927 168.38 61.4694V66.2294C168.38 66.4061 168.523 66.5494 168.7 66.5494H187.49C187.667 66.5494 187.81 66.4061 187.81 66.2294V61.4694C187.81 61.2927 187.667 61.1494 187.49 61.1494Z" fill="#F8B1BF"/>
<path d="M187.49 68.1592H168.7C168.523 68.1592 168.38 68.3024 168.38 68.4792V73.2392C168.38 73.4159 168.523 73.5592 168.7 73.5592H187.49C187.667 73.5592 187.81 73.4159 187.81 73.2392V68.4792C187.81 68.3024 187.667 68.1592 187.49 68.1592Z" fill="#F8B1BF"/>
<path d="M229.58 54.1299H210.79C210.613 54.1299 210.47 54.2732 210.47 54.4499V59.2099C210.47 59.3866 210.613 59.5299 210.79 59.5299H229.58C229.757 59.5299 229.9 59.3866 229.9 59.2099V54.4499C229.9 54.2732 229.757 54.1299 229.58 54.1299Z" fill="#F8B1BF"/>
<path d="M229.58 61.1494H210.79C210.613 61.1494 210.47 61.2927 210.47 61.4694V66.2294C210.47 66.4061 210.613 66.5494 210.79 66.5494H229.58C229.757 66.5494 229.9 66.4061 229.9 66.2294V61.4694C229.9 61.2927 229.757 61.1494 229.58 61.1494Z" fill="#F8B1BF"/>
<path d="M229.58 68.1592H210.79C210.613 68.1592 210.47 68.3024 210.47 68.4792V73.2392C210.47 73.4159 210.613 73.5592 210.79 73.5592H229.58C229.757 73.5592 229.9 73.4159 229.9 73.2392V68.4792C229.9 68.3024 229.757 68.1592 229.58 68.1592Z" fill="#F8B1BF"/>
<path d="M271.68 54.1299H252.89C252.713 54.1299 252.57 54.2732 252.57 54.4499V59.2099C252.57 59.3866 252.713 59.5299 252.89 59.5299H271.68C271.857 59.5299 272 59.3866 272 59.2099V54.4499C272 54.2732 271.857 54.1299 271.68 54.1299Z" fill="#F8B1BF"/>
<path d="M271.68 61.1494H252.89C252.713 61.1494 252.57 61.2927 252.57 61.4694V66.2294C252.57 66.4061 252.713 66.5494 252.89 66.5494H271.68C271.857 66.5494 272 66.4061 272 66.2294V61.4694C272 61.2927 271.857 61.1494 271.68 61.1494Z" fill="#F8B1BF"/>
<path d="M271.68 68.1592H252.89C252.713 68.1592 252.57 68.3024 252.57 68.4792V73.2392C252.57 73.4159 252.713 73.5592 252.89 73.5592H271.68C271.857 73.5592 272 73.4159 272 73.2392V68.4792C272 68.3024 271.857 68.1592 271.68 68.1592Z" fill="#F8B1BF"/>
<path d="M758.02 54.1299H776.8C776.98 54.1299 777.12 54.2699 777.12 54.4499V59.1999C777.12 59.3799 776.97 59.5199 776.8 59.5199H758.02C757.84 59.5199 757.7 59.3699 757.7 59.1999V54.4499C757.7 54.2699 757.85 54.1299 758.02 54.1299Z" fill="#F8B1BF"/>
<path d="M758.02 61.1494H776.8C776.98 61.1494 777.12 61.2994 777.12 61.4694V66.2194C777.12 66.3994 776.98 66.5394 776.8 66.5394H758.02C757.84 66.5394 757.7 66.3894 757.7 66.2194V61.4694C757.7 61.2894 757.85 61.1494 758.02 61.1494Z" fill="#F8B1BF"/>
<path d="M776.81 68.1592H758.02C757.843 68.1592 757.7 68.3024 757.7 68.4792V73.2392C757.7 73.4159 757.843 73.5592 758.02 73.5592H776.81C776.987 73.5592 777.13 73.4159 777.13 73.2392V68.4792C777.13 68.3024 776.987 68.1592 776.81 68.1592Z" fill="#F8B1BF"/>
<path d="M818.9 54.1299H800.11C799.933 54.1299 799.79 54.2732 799.79 54.4499V59.2099C799.79 59.3866 799.933 59.5299 800.11 59.5299H818.9C819.077 59.5299 819.22 59.3866 819.22 59.2099V54.4499C819.22 54.2732 819.077 54.1299 818.9 54.1299Z" fill="#F8B1BF"/>
<path d="M818.9 61.1494H800.11C799.933 61.1494 799.79 61.2927 799.79 61.4694V66.2294C799.79 66.4061 799.933 66.5494 800.11 66.5494H818.9C819.077 66.5494 819.22 66.4061 819.22 66.2294V61.4694C819.22 61.2927 819.077 61.1494 818.9 61.1494Z" fill="#F8B1BF"/>
<path d="M818.9 68.1592H800.11C799.933 68.1592 799.79 68.3024 799.79 68.4792V73.2392C799.79 73.4159 799.933 73.5592 800.11 73.5592H818.9C819.077 73.5592 819.22 73.4159 819.22 73.2392V68.4792C819.22 68.3024 819.077 68.1592 818.9 68.1592Z" fill="#F8B1BF"/>
<path d="M861 54.1299H842.21C842.033 54.1299 841.89 54.2732 841.89 54.4499V59.2099C841.89 59.3866 842.033 59.5299 842.21 59.5299H861C861.177 59.5299 861.32 59.3866 861.32 59.2099V54.4499C861.32 54.2732 861.177 54.1299 861 54.1299Z" fill="#F8B1BF"/>
<path d="M861 61.1494H842.21C842.033 61.1494 841.89 61.2927 841.89 61.4694V66.2294C841.89 66.4061 842.033 66.5494 842.21 66.5494H861C861.177 66.5494 861.32 66.4061 861.32 66.2294V61.4694C861.32 61.2927 861.177 61.1494 861 61.1494Z" fill="#F8B1BF"/>
<path d="M861 68.1592H842.21C842.033 68.1592 841.89 68.3024 841.89 68.4792V73.2392C841.89 73.4159 842.033 73.5592 842.21 73.5592H861C861.177 73.5592 861.32 73.4159 861.32 73.2392V68.4792C861.32 68.3024 861.177 68.1592 861 68.1592Z" fill="#F8B1BF"/>
<path d="M903.09 54.1299H884.3C884.123 54.1299 883.98 54.2732 883.98 54.4499V59.2099C883.98 59.3866 884.123 59.5299 884.3 59.5299H903.09C903.267 59.5299 903.41 59.3866 903.41 59.2099V54.4499C903.41 54.2732 903.267 54.1299 903.09 54.1299Z" fill="#F8B1BF"/>
<path d="M903.09 61.1494H884.3C884.123 61.1494 883.98 61.2927 883.98 61.4694V66.2294C883.98 66.4061 884.123 66.5494 884.3 66.5494H903.09C903.267 66.5494 903.41 66.4061 903.41 66.2294V61.4694C903.41 61.2927 903.267 61.1494 903.09 61.1494Z" fill="#F8B1BF"/>
<path d="M903.09 68.1592H884.3C884.123 68.1592 883.98 68.3024 883.98 68.4792V73.2392C883.98 73.4159 884.123 73.5592 884.3 73.5592H903.09C903.267 73.5592 903.41 73.4159 903.41 73.2392V68.4792C903.41 68.3024 903.267 68.1592 903.09 68.1592Z" fill="#F8B1BF"/>
<path d="M945.19 54.1299H926.4C926.223 54.1299 926.08 54.2732 926.08 54.4499V59.2099C926.08 59.3866 926.223 59.5299 926.4 59.5299H945.19C945.367 59.5299 945.51 59.3866 945.51 59.2099V54.4499C945.51 54.2732 945.367 54.1299 945.19 54.1299Z" fill="#F8B1BF"/>
<path d="M945.19 61.1494H926.4C926.223 61.1494 926.08 61.2927 926.08 61.4694V66.2294C926.08 66.4061 926.223 66.5494 926.4 66.5494H945.19C945.367 66.5494 945.51 66.4061 945.51 66.2294V61.4694C945.51 61.2927 945.367 61.1494 945.19 61.1494Z" fill="#F8B1BF"/>
<path d="M945.19 68.1592H926.4C926.223 68.1592 926.08 68.3024 926.08 68.4792V73.2392C926.08 73.4159 926.223 73.5592 926.4 73.5592H945.19C945.367 73.5592 945.51 73.4159 945.51 73.2392V68.4792C945.51 68.3024 945.367 68.1592 945.19 68.1592Z" fill="#F8B1BF"/>
<path d="M987.28 54.1299H968.49C968.313 54.1299 968.17 54.2732 968.17 54.4499V59.2099C968.17 59.3866 968.313 59.5299 968.49 59.5299H987.28C987.457 59.5299 987.6 59.3866 987.6 59.2099V54.4499C987.6 54.2732 987.457 54.1299 987.28 54.1299Z" fill="#F8B1BF"/>
<path d="M987.28 61.1494H968.49C968.313 61.1494 968.17 61.2927 968.17 61.4694V66.2294C968.17 66.4061 968.313 66.5494 968.49 66.5494H987.28C987.457 66.5494 987.6 66.4061 987.6 66.2294V61.4694C987.6 61.2927 987.457 61.1494 987.28 61.1494Z" fill="#F8B1BF"/>
<path d="M987.28 68.1592H968.49C968.313 68.1592 968.17 68.3024 968.17 68.4792V73.2392C968.17 73.4159 968.313 73.5592 968.49 73.5592H987.28C987.457 73.5592 987.6 73.4159 987.6 73.2392V68.4792C987.6 68.3024 987.457 68.1592 987.28 68.1592Z" fill="#F8B1BF"/>
<path d="M1029.38 54.1299H1010.59C1010.41 54.1299 1010.27 54.2732 1010.27 54.4499V59.2099C1010.27 59.3866 1010.41 59.5299 1010.59 59.5299H1029.38C1029.56 59.5299 1029.7 59.3866 1029.7 59.2099V54.4499C1029.7 54.2732 1029.56 54.1299 1029.38 54.1299Z" fill="#F8B1BF"/>
<path d="M1029.38 61.1494H1010.59C1010.41 61.1494 1010.27 61.2927 1010.27 61.4694V66.2294C1010.27 66.4061 1010.41 66.5494 1010.59 66.5494H1029.38C1029.56 66.5494 1029.7 66.4061 1029.7 66.2294V61.4694C1029.7 61.2927 1029.56 61.1494 1029.38 61.1494Z" fill="#F8B1BF"/>
<path d="M1029.38 68.1592H1010.59C1010.41 68.1592 1010.27 68.3024 1010.27 68.4792V73.2392C1010.27 73.4159 1010.41 73.5592 1010.59 73.5592H1029.38C1029.56 73.5592 1029.7 73.4159 1029.7 73.2392V68.4792C1029.7 68.3024 1029.56 68.1592 1029.38 68.1592Z" fill="#F8B1BF"/>
<path d="M717.89 18.2197H312.11C305.483 18.2197 300.11 23.5923 300.11 30.2197V97.4697C300.11 104.097 305.483 109.47 312.11 109.47H717.89C724.517 109.47 729.89 104.097 729.89 97.4697V30.2197C729.89 23.5923 724.517 18.2197 717.89 18.2197Z" fill="#F8B1BF"/>
<path d="M666.51 3.9996L631.6 64.4696H703.66L680.91 5.1396C678.5 -1.1504 669.88 -1.8304 666.51 3.9996Z" fill="#F8B1BF"/>
<path d="M363.49 3.9996L398.4 64.4696H326.34L349.09 5.1396C351.5 -1.1504 360.12 -1.8304 363.49 3.9996Z" fill="#F8B1BF"/>
<path d="M339.61 58.3093C339.19 58.3093 338.84 58.1793 338.54 57.9093C338.25 57.6393 338.1 57.2693 338.1 56.8093V52.9893C337.42 53.5793 336.67 54.1593 335.84 54.7493C335.01 55.3393 334.15 55.8693 333.28 56.3693C332.41 56.8693 331.55 57.3093 330.72 57.6693C330.23 57.8593 329.8 57.8993 329.43 57.7693C329.06 57.6493 328.78 57.3993 328.61 57.0193C328.44 56.6193 328.42 56.2393 328.56 55.8793C328.7 55.5193 328.98 55.2493 329.42 55.0693C330.49 54.6393 331.57 54.1193 332.66 53.5093C333.74 52.8993 334.74 52.2793 335.64 51.6393H333.09C331.77 51.6393 330.85 51.3693 330.33 50.8193C329.81 50.2693 329.65 49.4193 329.86 48.2593C330.02 47.4593 330.24 46.8393 330.52 46.3993C330.8 45.9593 331.23 45.6493 331.81 45.4593C332.39 45.2693 333.16 45.1893 334.15 45.1893H338.1V43.8093H330.77C330.42 43.8093 330.12 43.6793 329.87 43.4193C329.62 43.1593 329.49 42.8593 329.49 42.5093C329.49 42.1593 329.62 41.8593 329.87 41.5993C330.12 41.3393 330.42 41.2093 330.77 41.2093H334.38C333.96 41.0693 333.69 40.8093 333.57 40.4293C333.5 40.1893 333.4 39.8893 333.27 39.5293C333.14 39.1693 333.02 38.8793 332.92 38.6293H331.62C331.39 38.9593 331.17 39.2793 330.94 39.5893C330.71 39.8993 330.51 40.1893 330.32 40.4493C330.04 40.7793 329.72 41.0093 329.35 41.1393C328.98 41.2693 328.58 41.1993 328.17 40.9493C327.86 40.7593 327.66 40.4793 327.57 40.0993C327.48 39.7293 327.57 39.3893 327.8 39.0993C328.13 38.6993 328.48 38.2293 328.85 37.6993C329.22 37.1693 329.58 36.6093 329.93 36.0493C330.28 35.4893 330.55 34.9693 330.76 34.4993C330.95 34.0693 331.22 33.7993 331.58 33.7093C331.93 33.6093 332.3 33.6493 332.68 33.7993C333.04 33.9393 333.3 34.1793 333.45 34.5193C333.6 34.8593 333.57 35.2293 333.38 35.6193C333.34 35.7093 333.3 35.7993 333.25 35.9093C333.2 36.0193 333.15 36.1193 333.09 36.2193H338.11C338.47 36.2193 338.76 36.3393 338.98 36.5693C339.2 36.7993 339.31 37.0893 339.31 37.4193C339.31 37.5193 339.29 37.6493 339.26 37.7793C339.62 37.2293 339.97 36.6493 340.3 36.0593C340.63 35.4693 340.9 34.9493 341.11 34.4993C341.3 34.0993 341.58 33.8293 341.96 33.6793C342.33 33.5293 342.72 33.5493 343.12 33.7393C343.52 33.9093 343.79 34.1693 343.93 34.5193C344.07 34.8693 344.04 35.2493 343.85 35.6593C343.81 35.7493 343.77 35.8393 343.72 35.9293C343.67 36.0293 343.62 36.1193 343.59 36.1993H349.96C350.32 36.1993 350.61 36.3193 350.82 36.5493C351.03 36.7793 351.13 37.0693 351.13 37.3993C351.13 37.7293 351.03 38.0193 350.82 38.2593C350.61 38.4993 350.33 38.6193 349.96 38.6193H346.58C346.63 38.7593 346.69 38.8993 346.75 39.0493C346.81 39.1993 346.86 39.3193 346.89 39.4293C347.03 39.7593 347.02 40.0993 346.88 40.4593C346.73 40.8193 346.46 41.0593 346.06 41.1993L345.98 41.2293C347.05 41.2793 347.8 41.5593 348.23 42.0493C348.65 42.5393 348.87 43.3293 348.87 44.3993C348.87 45.5793 348.62 46.4093 348.13 46.8993C347.64 47.3893 346.74 47.6293 345.44 47.6293H341.12V49.0293H346.71C347.99 49.0293 348.93 49.3293 349.52 49.9393C350.11 50.5493 350.33 51.4893 350.17 52.7693C350.03 53.9493 349.75 54.8493 349.33 55.4893C348.91 56.1193 348.36 56.5493 347.69 56.7793C347.02 57.0093 346.23 57.1193 345.31 57.1193C344.81 57.1193 344.39 56.9993 344.07 56.7593C343.75 56.5193 343.57 56.1493 343.54 55.6693C343.52 55.2193 343.64 54.8393 343.89 54.5293C344.14 54.2193 344.51 54.0393 344.99 53.9793C345.48 53.9293 345.84 53.8693 346.1 53.8093C346.35 53.7493 346.54 53.6493 346.66 53.4993C346.78 53.3493 346.87 53.1093 346.92 52.7793C347.01 52.3093 346.98 51.9993 346.84 51.8593C346.7 51.7093 346.4 51.6393 345.93 51.6393H341.12V56.8093C341.12 57.2793 340.97 57.6493 340.68 57.9093C340.39 58.1793 340.03 58.3093 339.61 58.3093ZM333.81 49.0293H338.1V47.6293H333.99C333.59 47.6293 333.31 47.6793 333.16 47.7893C333 47.8893 332.91 48.0693 332.87 48.3093C332.83 48.5893 332.88 48.7793 333.01 48.8793C333.14 48.9793 333.4 49.0393 333.8 49.0393L333.81 49.0293ZM336.28 39.4393C336.42 39.7893 336.41 40.1293 336.27 40.4793C336.12 40.8293 335.85 41.0693 335.45 41.2093H339.22C339.06 41.1893 338.88 41.1193 338.67 40.9993C338.32 40.7893 338.12 40.4893 338.06 40.0893C338 39.6893 338.09 39.3493 338.33 39.0493C338.42 38.9593 338.5 38.8693 338.58 38.7593C338.66 38.6593 338.74 38.5393 338.83 38.4193C338.61 38.5593 338.37 38.6293 338.13 38.6293H335.97C336.02 38.7693 336.08 38.9093 336.14 39.0593C336.2 39.2093 336.25 39.3293 336.28 39.4393ZM339.76 41.2093H344.99C344.57 41.0693 344.31 40.8093 344.18 40.4293C344.11 40.1993 344.01 39.9093 343.88 39.5493C343.75 39.1893 343.64 38.8793 343.55 38.6393H342.2C341.97 38.9693 341.75 39.2893 341.54 39.5993C341.32 39.9093 341.11 40.2093 340.9 40.4793C340.57 40.8993 340.19 41.1393 339.76 41.2093ZM341.11 45.1893H344.88C345.28 45.1893 345.54 45.1393 345.66 45.0493C345.78 44.9593 345.84 44.7693 345.84 44.4893C345.84 44.2093 345.78 44.0293 345.66 43.9393C345.54 43.8493 345.28 43.8093 344.88 43.8093H341.11V45.1893Z" fill="#010F32"/>
<path d="M383.13 57.8693C382.64 57.8693 382.25 57.7493 381.93 57.5093C381.62 57.2693 381.44 56.9093 381.41 56.4393C381.37 56.0093 381.48 55.6393 381.73 55.3393C381.98 55.0393 382.32 54.8693 382.76 54.8293C383.38 54.7793 383.86 54.7093 384.19 54.6193C384.52 54.5293 384.77 54.3693 384.93 54.1293C385.1 53.8893 385.22 53.5293 385.31 53.0593C385.4 52.5593 385.48 51.9993 385.56 51.3993C385.64 50.7893 385.7 50.1793 385.76 49.5493C385.79 49.0493 385.72 48.6993 385.54 48.5193C385.36 48.3393 385.01 48.2493 384.49 48.2493H383.66C382.74 48.2493 382.09 48.0493 381.7 47.6493C381.31 47.2493 381.17 46.5893 381.27 45.6693C381.34 45.0993 381.39 44.5793 381.43 44.1193C381.46 43.6593 381.5 43.1493 381.53 42.5993C381.6 41.7493 381.84 41.1593 382.24 40.8193C382.64 40.4793 383.27 40.3093 384.1 40.3093H384.67C385.12 40.3093 385.43 40.2493 385.59 40.1093C385.75 39.9793 385.84 39.7393 385.84 39.3993V38.6693C385.84 38.2693 385.76 37.9993 385.59 37.8593C385.42 37.7193 385.12 37.6493 384.67 37.6493H381.97C381.57 37.6493 381.25 37.5193 381.01 37.2593C380.77 36.9993 380.65 36.6893 380.65 36.3193C380.65 35.9493 380.77 35.6493 381.01 35.3993C381.25 35.1493 381.57 35.0193 381.97 35.0193H385.95C386.97 35.0193 387.7 35.2193 388.15 35.6293C388.59 36.0393 388.81 36.7293 388.81 37.6993V40.1393C388.81 41.1093 388.6 41.7893 388.17 42.1693C387.74 42.5493 387.13 42.7393 386.31 42.7393H385.43C385.01 42.7393 384.72 42.7993 384.55 42.9093C384.38 43.0193 384.27 43.2593 384.24 43.6193C384.22 43.7893 384.21 43.9293 384.21 44.0393C384.21 44.1493 384.21 44.2693 384.18 44.3993C384.14 44.8193 384.21 45.0893 384.36 45.2093C384.51 45.3293 384.8 45.3893 385.22 45.3893H386.13C387.1 45.3893 387.8 45.6093 388.24 46.0393C388.67 46.4693 388.87 47.1393 388.84 48.0393C388.81 49.0493 388.75 50.0393 388.66 51.0293C388.57 52.0193 388.47 52.8793 388.35 53.6293C388.19 54.7193 387.89 55.5693 387.45 56.1793C387.01 56.7893 386.43 57.2193 385.72 57.4693C385.01 57.7193 384.15 57.8493 383.15 57.8493L383.13 57.8693ZM396.75 58.1293C396.35 58.1293 396.01 57.9993 395.74 57.7393C395.46 57.4793 395.32 57.1293 395.32 56.6993V53.3193H390.28C389.9 53.3193 389.59 53.1893 389.34 52.9293C389.1 52.6693 388.98 52.3693 388.98 52.0193C388.98 51.6693 389.1 51.3493 389.34 51.0993C389.58 50.8493 389.89 50.7193 390.28 50.7193H395.32V49.3193H394.41C392.9 49.3193 391.82 49.0293 391.16 48.4493C390.5 47.8693 390.17 46.8693 390.17 45.4493V43.3393C390.17 41.9193 390.5 40.9193 391.16 40.3393C391.82 39.7593 392.9 39.4693 394.41 39.4693H398.34C398.34 39.4693 398.37 39.4293 398.37 39.3993C398.37 39.3693 398.37 39.3493 398.4 39.3393C398.59 38.9893 398.82 38.5493 399.1 37.9993C399.38 37.4493 399.65 36.8993 399.92 36.3493C400.19 35.7993 400.39 35.3393 400.53 34.9993C400.69 34.5993 400.94 34.3193 401.3 34.1693C401.65 34.0093 402.02 34.0093 402.4 34.1693C402.76 34.3093 403.03 34.5493 403.19 34.8993C403.35 35.2493 403.35 35.6193 403.18 36.0193C403.04 36.3093 402.85 36.6893 402.62 37.1393C402.39 37.5893 402.14 38.0493 401.89 38.5093C401.64 38.9693 401.4 39.3793 401.18 39.7393C401.96 39.9693 402.53 40.3593 402.88 40.9393C403.23 41.5093 403.41 42.3193 403.41 43.3593V45.4693C403.41 46.8893 403.08 47.8893 402.41 48.4693C401.74 49.0493 400.66 49.3393 399.15 49.3393H398.21V50.7393H403.44C403.84 50.7393 404.15 50.8693 404.39 51.1193C404.62 51.3693 404.74 51.6793 404.74 52.0393C404.74 52.3993 404.62 52.6893 404.39 52.9493C404.16 53.2093 403.84 53.3393 403.44 53.3393H398.21V56.7193C398.21 57.1493 398.07 57.4993 397.79 57.7593C397.51 58.0193 397.17 58.1493 396.75 58.1493V58.1293ZM393.16 39.1993C392.83 39.3693 392.49 39.4193 392.13 39.3293C391.77 39.2393 391.51 39.0393 391.34 38.7093C391.25 38.5393 391.13 38.3093 390.96 38.0193C390.79 37.7293 390.63 37.4493 390.47 37.1593C390.3 36.8693 390.17 36.6493 390.07 36.4993C389.88 36.1693 389.84 35.8193 389.94 35.4593C390.04 35.0993 390.26 34.8293 390.59 34.6493C390.94 34.4593 391.3 34.4193 391.68 34.5293C392.06 34.6393 392.36 34.8693 392.56 35.2193C392.66 35.3793 392.79 35.5893 392.95 35.8693C393.11 36.1493 393.26 36.4193 393.42 36.6893C393.58 36.9593 393.7 37.1793 393.78 37.3493C393.97 37.6993 394 38.0393 393.87 38.3893C393.74 38.7393 393.5 39.0093 393.16 39.1993ZM392.95 43.3093H395.32V41.6993H394.7C394.02 41.6993 393.57 41.7993 393.32 42.0093C393.08 42.2193 392.96 42.6193 392.96 43.2093V43.3093H392.95ZM394.69 47.0793H395.31V45.4693H392.94V45.5693C392.94 46.1593 393.06 46.5593 393.3 46.7693C393.54 46.9793 394 47.0793 394.68 47.0793H394.69ZM397.11 38.8593C396.75 38.9793 396.4 38.9693 396.08 38.8293C395.76 38.6893 395.53 38.4293 395.39 38.0493C395.34 37.8593 395.25 37.6093 395.13 37.3093C395.01 37.0093 394.89 36.6993 394.77 36.3893C394.65 36.0793 394.55 35.8393 394.48 35.6593C394.32 35.2593 394.34 34.8993 394.52 34.5793C394.7 34.2593 394.97 34.0393 395.31 33.9193C395.71 33.7793 396.07 33.7893 396.4 33.9493C396.73 34.1093 396.97 34.3793 397.13 34.7793C397.2 34.9493 397.3 35.1893 397.42 35.4893C397.54 35.7893 397.66 36.0993 397.77 36.4093C397.88 36.7193 397.97 36.9693 398.02 37.1393C398.16 37.5593 398.14 37.9193 397.97 38.2193C397.8 38.5193 397.51 38.7393 397.11 38.8593ZM398.2 43.3093H400.62V43.2093C400.62 42.6193 400.5 42.2193 400.26 42.0093C400.02 41.7993 399.56 41.6993 398.88 41.6993H398.2V43.3093ZM398.2 47.0793H398.88C399.56 47.0793 400.01 46.9793 400.26 46.7693C400.5 46.5593 400.62 46.1593 400.62 45.5693V45.4693H398.2V47.0793Z" fill="#010F32"/>
<path d="M369.37 56.5792C369.37 57.7992 368.48 58.4592 367.09 58.4592C365.7 58.4592 364.85 57.7992 364.85 56.6092V36.8692C364.85 36.2792 364.68 35.9792 364.09 35.9792H363.99L360.89 36.0792C359.7 36.1092 358.94 35.0892 358.94 33.9692C358.94 32.7792 359.67 31.7892 360.82 31.7592L365.64 31.6592H365.94C368.58 31.6592 369.37 32.5192 369.37 35.3892V56.5792Z" fill="#010F32"/>
<path d="M453.28 55.1597C452.29 55.1597 451.8 54.6497 451.8 53.6297V38.4997C451.8 37.4797 452.29 36.9697 453.28 36.9697C454.27 36.9697 454.79 37.4797 454.79 38.4997V53.6297C454.79 54.6497 454.29 55.1597 453.28 55.1597Z" fill="#010F32"/>
<path d="M459.7 55.1594C458.71 55.1594 458.22 54.6494 458.22 53.6294V44.1894C458.22 43.1694 458.66 42.6594 459.55 42.6594C460.44 42.6594 460.89 42.8894 460.93 43.3394L461.01 44.1494C461.36 43.6594 461.82 43.2394 462.39 42.8894C462.96 42.5394 463.64 42.3594 464.42 42.3594C465.72 42.3594 466.78 42.7794 467.6 43.6094C468.42 44.4394 468.84 45.6594 468.84 47.2794V53.6494C468.84 54.6694 468.35 55.1794 467.38 55.1794C466.41 55.1794 465.9 54.6694 465.9 53.6494V47.9794C465.9 46.9894 465.7 46.2494 465.3 45.7594C464.9 45.2694 464.36 45.0194 463.69 45.0194C462.94 45.0194 462.34 45.2794 461.87 45.7894C461.4 46.2994 461.17 47.0594 461.17 48.0594V53.6494C461.17 54.6694 460.68 55.1794 459.71 55.1794L459.7 55.1594Z" fill="#010F32"/>
<path d="M476.52 55.4198C475.74 55.4198 475 55.3198 474.3 55.1198C473.6 54.9198 472.95 54.6098 472.36 54.1998C471.93 53.9098 471.7 53.5798 471.67 53.2198C471.64 52.8698 471.78 52.5198 472.07 52.1898C472.36 51.8798 472.67 51.7298 472.99 51.7498C473.31 51.7698 473.69 51.8998 474.12 52.1398C474.81 52.6298 475.66 52.8698 476.67 52.8698C477.38 52.8698 477.9 52.7698 478.22 52.5698C478.54 52.3698 478.7 51.9998 478.7 51.4698C478.7 51.2098 478.62 50.9998 478.47 50.8298C478.31 50.6698 478.02 50.5098 477.6 50.3698C477.18 50.2298 476.56 50.0798 475.74 49.9298C474.53 49.6898 473.56 49.2898 472.83 48.7298C472.1 48.1798 471.74 47.2998 471.74 46.0998C471.74 45.3198 471.95 44.6498 472.36 44.0798C472.78 43.5198 473.34 43.0798 474.05 42.7698C474.76 42.4598 475.55 42.2998 476.42 42.2998C477.77 42.2998 478.92 42.5898 479.85 43.1598C480.32 43.3998 480.58 43.6998 480.64 44.0598C480.7 44.4198 480.6 44.7598 480.34 45.0898C480.06 45.4398 479.76 45.6098 479.44 45.6098C479.12 45.6098 478.74 45.5098 478.31 45.3198C478.03 45.1598 477.74 45.0498 477.44 44.9798C477.14 44.9098 476.81 44.8798 476.47 44.8798C475.83 44.8798 475.37 44.9898 475.1 45.2198C474.83 45.4498 474.7 45.7098 474.7 46.0298C474.7 46.2598 474.77 46.4498 474.9 46.5998C475.03 46.7598 475.29 46.8998 475.67 47.0398C476.05 47.1798 476.61 47.3298 477.33 47.5098C478.72 47.8398 479.79 48.3198 480.55 48.9398C481.31 49.5598 481.69 50.4398 481.69 51.5698C481.69 52.8398 481.21 53.7898 480.25 54.4398C479.29 55.0898 478.04 55.4098 476.52 55.4098V55.4198Z" fill="#010F32"/>
<path d="M489.13 55.4493C487.9 55.4493 486.96 55.2193 486.31 54.7693C485.66 54.3193 485.34 53.4193 485.34 52.0693V45.1793H484.48C483.46 45.1793 482.95 44.7593 482.95 43.9093C482.95 43.5093 483.06 43.1993 483.28 42.9893C483.5 42.7693 483.89 42.6693 484.46 42.6693H485.34V39.8093C485.34 38.7893 485.83 38.2793 486.82 38.2793C487.81 38.2793 488.25 38.7893 488.25 39.8093V42.6693H490.17C491.19 42.6693 491.7 43.0893 491.7 43.9193C491.7 44.7493 491.2 45.1893 490.19 45.1893H488.24V51.3293C488.24 51.9193 488.38 52.3193 488.67 52.5293C488.96 52.7393 489.37 52.8393 489.91 52.8393C490.45 52.8393 490.9 52.8993 491.22 53.0293C491.54 53.1593 491.7 53.4893 491.7 54.0293C491.7 54.4593 491.57 54.7793 491.32 54.9793C491.07 55.1793 490.75 55.3093 490.36 55.3693C489.97 55.4293 489.56 55.4593 489.12 55.4593L489.13 55.4493Z" fill="#010F32"/>
<path d="M498.13 55.3494C496.78 55.3994 495.66 55.1094 494.79 54.4694C493.91 53.8294 493.48 52.8994 493.48 51.6894C493.48 50.8094 493.75 50.0494 494.29 49.4294C494.83 48.8094 495.52 48.3194 496.37 47.9594C497.22 47.6094 498.09 47.4194 499 47.3994C499.45 47.3694 499.88 47.3994 500.27 47.4994C500.67 47.5994 501.02 47.7494 501.34 47.9394V46.8494C501.34 46.0394 501.17 45.5094 500.82 45.2594C500.47 45.0094 499.96 44.8994 499.29 44.8994C498.8 44.8994 498.3 44.9594 497.77 45.0794C497.24 45.1994 496.73 45.3694 496.22 45.5694C495.77 45.7594 495.38 45.8294 495.06 45.7794C494.74 45.7294 494.48 45.5194 494.27 45.1594C494.06 44.7994 494.01 44.4394 494.13 44.1094C494.25 43.7794 494.53 43.5094 495 43.3194C495.62 43.0294 496.3 42.7894 497.04 42.6194C497.78 42.4494 498.53 42.3594 499.29 42.3594C500.9 42.3594 502.12 42.6794 502.93 43.3394C503.75 43.9894 504.15 45.1594 504.15 46.8594V52.6094C504.15 52.7794 504.17 52.9194 504.21 53.0294C504.25 53.1394 504.29 53.2094 504.33 53.2594C504.49 53.4894 504.66 53.6194 504.84 53.6494C505.02 53.6894 505.18 53.7094 505.32 53.7094C505.46 53.7094 505.53 53.7994 505.53 53.9594C505.53 54.2694 505.45 54.5394 505.28 54.7694C505.11 54.9994 504.84 55.1494 504.46 55.2394C504.06 55.3294 503.67 55.3694 503.29 55.3694C502.75 55.3694 502.34 55.2794 502.06 55.0994C501.77 54.9194 501.57 54.6094 501.45 54.1794C501.02 54.5394 500.51 54.8294 499.94 55.0294C499.37 55.2294 498.77 55.3494 498.15 55.3794L498.13 55.3494ZM498.08 52.7994C499.05 52.7694 499.85 52.5794 500.49 52.2294C501.12 51.8794 501.42 51.3894 501.39 50.7494C501.37 50.3294 501.16 50.0494 500.75 49.8894C500.34 49.7294 499.84 49.6694 499.23 49.7094C498.38 49.7294 497.68 49.9394 497.12 50.3494C496.57 50.7594 496.3 51.2094 496.31 51.7194C496.34 52.4994 496.93 52.8594 498.08 52.8094V52.7994Z" fill="#010F32"/>
<path d="M513.03 60.3401C511.07 60.3401 509.52 59.7701 508.38 58.6201C508.02 58.2401 507.87 57.8701 507.94 57.5001C508.01 57.1401 508.23 56.8301 508.62 56.5901C509 56.3301 509.35 56.2401 509.66 56.3301C509.97 56.4201 510.32 56.6101 510.7 56.9001C511.31 57.4201 512.09 57.6801 513.04 57.6801C514.06 57.6801 514.82 57.3701 515.3 56.7401C515.78 56.1101 516.03 55.1201 516.03 53.7501V53.0501C515.21 53.9001 514.18 54.3201 512.94 54.3201C511.85 54.3201 510.87 54.0901 510.02 53.6301C509.16 53.1701 508.49 52.4901 508.01 51.6001C507.53 50.7101 507.28 49.6101 507.28 48.3101C507.28 47.0101 507.52 45.8901 508.01 45.0101C508.5 44.1301 509.17 43.4601 510.02 43.0101C510.88 42.5601 511.85 42.3301 512.94 42.3301C513.62 42.3301 514.27 42.4701 514.89 42.7601C515.51 43.0501 516.03 43.5301 516.42 44.2001V43.7601C516.42 43.3301 516.53 43.0301 516.76 42.8801C516.99 42.7201 517.3 42.6501 517.7 42.6501C518.53 42.6501 518.95 43.1601 518.95 44.1801V53.7501C518.95 55.8101 518.47 57.4201 517.51 58.5901C516.55 59.7501 515.06 60.3301 513.05 60.3301L513.03 60.3401ZM513.16 51.7601C514.06 51.7601 514.8 51.4501 515.37 50.8401C515.94 50.2301 516.23 49.3901 516.23 48.3301C516.23 47.2701 515.94 46.4201 515.37 45.8201C514.8 45.2201 514.06 44.9201 513.16 44.9201C512.26 44.9201 511.54 45.2201 511.02 45.8201C510.49 46.4201 510.23 47.2501 510.23 48.3301C510.23 49.4101 510.49 50.2201 511.02 50.8401C511.55 51.4601 512.26 51.7601 513.16 51.7601Z" fill="#010F32"/>
<path d="M523.61 55.1596C522.62 55.1596 522.13 54.6496 522.13 53.6296V44.1896C522.13 43.1696 522.64 42.6596 523.66 42.6596C524.01 42.6596 524.31 42.7396 524.57 42.9096C524.83 43.0696 524.96 43.3796 524.96 43.8296V44.4296C525.27 43.8096 525.76 43.2996 526.43 42.9196C527.1 42.5396 527.8 42.3496 528.55 42.3496C529.09 42.3496 529.5 42.4896 529.79 42.7796C530.08 43.0696 530.22 43.4496 530.22 43.9396C530.22 44.3896 530.11 44.7196 529.88 44.9296C529.65 45.1396 529.39 45.2196 529.1 45.1896C528.96 45.1696 528.81 45.1596 528.66 45.1496C528.5 45.1496 528.33 45.1396 528.14 45.1396C527.29 45.1396 526.57 45.4196 525.97 45.9696C525.37 46.5296 525.07 47.2996 525.07 48.3096V53.6396C525.07 54.6596 524.58 55.1696 523.61 55.1696V55.1596Z" fill="#010F32"/>
<path d="M536.17 55.3494C534.82 55.3994 533.7 55.1094 532.83 54.4694C531.95 53.8294 531.52 52.8994 531.52 51.6894C531.52 50.8094 531.79 50.0494 532.33 49.4294C532.87 48.8094 533.56 48.3194 534.41 47.9594C535.26 47.6094 536.13 47.4194 537.04 47.3994C537.49 47.3694 537.92 47.3994 538.31 47.4994C538.71 47.5994 539.06 47.7494 539.38 47.9394V46.8494C539.38 46.0394 539.21 45.5094 538.86 45.2594C538.51 45.0094 538 44.8994 537.33 44.8994C536.84 44.8994 536.34 44.9594 535.81 45.0794C535.28 45.1994 534.77 45.3694 534.26 45.5694C533.81 45.7594 533.42 45.8294 533.1 45.7794C532.78 45.7294 532.52 45.5194 532.31 45.1594C532.1 44.7994 532.05 44.4394 532.17 44.1094C532.29 43.7794 532.57 43.5094 533.04 43.3194C533.66 43.0294 534.34 42.7894 535.08 42.6194C535.82 42.4494 536.57 42.3594 537.33 42.3594C538.94 42.3594 540.16 42.6794 540.97 43.3394C541.79 43.9894 542.19 45.1594 542.19 46.8594V52.6094C542.19 52.7794 542.21 52.9194 542.25 53.0294C542.29 53.1394 542.33 53.2094 542.37 53.2594C542.53 53.4894 542.7 53.6194 542.88 53.6494C543.06 53.6894 543.22 53.7094 543.36 53.7094C543.5 53.7094 543.57 53.7994 543.57 53.9594C543.57 54.2694 543.49 54.5394 543.32 54.7694C543.15 54.9994 542.88 55.1494 542.5 55.2394C542.1 55.3294 541.71 55.3694 541.33 55.3694C540.79 55.3694 540.38 55.2794 540.1 55.0994C539.81 54.9194 539.61 54.6094 539.49 54.1794C539.06 54.5394 538.55 54.8294 537.98 55.0294C537.41 55.2294 536.81 55.3494 536.19 55.3794L536.17 55.3494ZM536.12 52.7994C537.09 52.7694 537.89 52.5794 538.53 52.2294C539.16 51.8794 539.46 51.3894 539.43 50.7494C539.41 50.3294 539.2 50.0494 538.79 49.8894C538.38 49.7294 537.88 49.6694 537.27 49.7094C536.42 49.7294 535.72 49.9394 535.16 50.3494C534.61 50.7594 534.34 51.2094 534.35 51.7194C534.38 52.4994 534.97 52.8594 536.12 52.8094V52.7994Z" fill="#010F32"/>
<path d="M547.42 55.1596C546.43 55.1596 545.94 54.6496 545.94 53.6296V44.1896C545.94 43.1696 546.38 42.6596 547.27 42.6596C548.16 42.6596 548.6 42.8896 548.65 43.3396L548.75 44.1696C548.99 43.6496 549.4 43.2196 549.97 42.8696C550.54 42.5196 551.2 42.3496 551.95 42.3496C552.76 42.3496 553.48 42.5396 554.08 42.9196C554.69 43.2996 555.16 43.8496 555.48 44.5596C555.81 43.9196 556.29 43.3896 556.92 42.9696C557.55 42.5496 558.28 42.3496 559.09 42.3496C560.32 42.3496 561.31 42.7796 562.07 43.6396C562.82 44.4996 563.2 45.7096 563.2 47.2696V53.6396C563.2 54.6596 562.71 55.1696 561.74 55.1696C560.77 55.1696 560.23 54.6596 560.23 53.6396V47.9496C560.23 47.0296 560.06 46.3096 559.74 45.7896C559.41 45.2696 558.95 45.0096 558.36 45.0096C557.61 45.0096 557.04 45.2796 556.63 45.8196C556.22 46.3596 556.02 47.1196 556.02 48.1096V53.6496C556.02 54.6696 555.53 55.1796 554.56 55.1796C553.59 55.1796 553.08 54.6696 553.08 53.6496V47.9596C553.08 47.0396 552.91 46.3196 552.56 45.7996C552.21 45.2796 551.75 45.0196 551.16 45.0196C550.43 45.0196 549.87 45.2896 549.47 45.8396C549.07 46.3896 548.87 47.1396 548.87 48.1196V53.6596C548.87 54.6796 548.38 55.1896 547.41 55.1896L547.42 55.1596Z" fill="#010F32"/>
<path d="M581.27 55.4898C580.87 55.5398 580.51 55.4398 580.18 55.1898C579.85 54.9398 579.66 54.6198 579.62 54.2198C579.57 53.7898 579.48 53.0598 579.33 52.0198C579.19 50.9898 579.03 49.8298 578.85 48.5498C577.83 48.6598 576.85 48.7798 575.92 48.8998C574.99 49.0198 574.19 49.1198 573.51 49.1998C572.83 49.2798 572.34 49.3398 572.03 49.3898C571.63 49.4398 571.27 49.3298 570.95 49.0798C570.63 48.8198 570.45 48.4998 570.42 48.0998C570.37 47.6798 570.48 47.3198 570.73 47.0098C570.98 46.6998 571.31 46.5198 571.71 46.4698C571.97 46.4398 572.43 46.3898 573.1 46.3098C573.77 46.2398 574.57 46.1498 575.5 46.0298C576.43 45.9198 577.4 45.8098 578.43 45.6898L578.05 42.9498C576.99 43.0598 576.04 43.1698 575.18 43.2898C574.32 43.3998 573.74 43.4698 573.42 43.5098C573.02 43.5598 572.66 43.4498 572.35 43.1898C572.04 42.9298 571.86 42.5898 571.81 42.1898C571.78 41.7898 571.89 41.4298 572.15 41.1198C572.41 40.8098 572.73 40.6298 573.13 40.5798C573.39 40.5498 573.93 40.4898 574.77 40.3998C575.61 40.3098 576.57 40.1998 577.64 40.0798C577.45 38.8298 577.31 37.8998 577.23 37.2998C577.17 36.8798 577.26 36.5198 577.52 36.1998C577.78 35.8798 578.1 35.6998 578.5 35.6498C578.92 35.5898 579.28 35.6798 579.6 35.9298C579.92 36.1798 580.1 36.5098 580.15 36.9298C580.18 37.2298 580.23 37.6298 580.31 38.1198C580.38 38.6098 580.46 39.1598 580.54 39.7898C581.48 39.6798 582.35 39.5798 583.13 39.4898C583.91 39.3998 584.51 39.3298 584.93 39.2898C585.33 39.2398 585.69 39.3498 586 39.5998C586.31 39.8598 586.48 40.1898 586.52 40.6098C586.55 41.0098 586.44 41.3698 586.2 41.6798C585.96 41.9898 585.62 42.1598 585.2 42.1998C584.8 42.2298 584.22 42.2898 583.45 42.3698C582.68 42.4498 581.84 42.5498 580.93 42.6598L581.31 45.3698C582.29 45.2398 583.21 45.1298 584.07 45.0298C584.93 44.9298 585.68 44.8498 586.3 44.7698C586.92 44.6898 587.35 44.6398 587.57 44.6298C588.08 44.8398 588.47 45.0398 588.75 45.2298C589.02 45.4198 589.17 45.6498 589.21 45.9298C589.26 46.3298 589.15 46.6898 588.9 47.0098C588.64 47.3298 588.32 47.5098 587.92 47.5398C587.68 47.5598 587.25 47.5998 586.65 47.6698C586.04 47.7398 585.31 47.8298 584.45 47.9198C583.59 48.0198 582.69 48.1298 581.73 48.2598C581.91 49.5598 582.07 50.7098 582.22 51.7298C582.37 52.7498 582.48 53.4498 582.54 53.8498C582.62 54.2498 582.54 54.6098 582.28 54.9398C582.02 55.2698 581.69 55.4598 581.27 55.5298V55.4898Z" fill="#010F32"/>
<path d="M602.65 56.2995C602.3 56.3595 601.97 56.2995 601.67 56.0995C601.37 55.8995 601.18 55.6195 601.12 55.2695C601.02 54.6895 600.89 53.9795 600.72 53.1295C600.55 52.2795 600.36 51.3695 600.14 50.3895C599.92 49.4095 599.7 48.4395 599.46 47.4595C598.58 47.6195 597.76 47.7695 596.99 47.8995C596.22 48.0395 595.61 48.1395 595.17 48.2195C594.82 48.2695 594.5 48.1795 594.21 47.9695C593.92 47.7495 593.75 47.4695 593.68 47.1195C593.63 46.7695 593.72 46.4495 593.93 46.1695C594.15 45.8895 594.43 45.7295 594.78 45.6795C595.18 45.6195 595.74 45.5195 596.46 45.3995C597.18 45.2795 597.97 45.1495 598.84 44.9995C598.57 43.8995 598.31 42.9695 598.07 42.2195C597.96 41.8795 597.99 41.5595 598.17 41.2395C598.35 40.9195 598.61 40.7095 598.96 40.6195C599.31 40.5195 599.64 40.5595 599.96 40.7295C600.27 40.8995 600.48 41.1595 600.57 41.5095C600.7 41.9095 600.83 42.3695 600.95 42.8995C601.08 43.4295 601.21 43.9895 601.36 44.5795L604.98 43.9595C607.49 43.5295 608.96 44.2595 609.37 46.1395C609.59 47.1995 609.36 48.1595 608.66 49.0195C607.96 49.8795 606.78 50.5895 605.1 51.1295C604.76 51.2395 604.44 51.2295 604.13 51.0795C603.82 50.9395 603.6 50.6895 603.47 50.3395C603.36 49.9995 603.37 49.6795 603.52 49.3595C603.66 49.0395 603.91 48.8195 604.26 48.7095C605 48.4395 605.54 48.1995 605.89 47.9895C606.24 47.7795 606.47 47.5795 606.57 47.3795C606.67 47.1795 606.7 46.9795 606.65 46.7895C606.62 46.5995 606.51 46.4595 606.34 46.3795C606.16 46.2995 605.88 46.2995 605.5 46.3795C605.02 46.4595 604.47 46.5595 603.86 46.6695C603.24 46.7795 602.61 46.8995 601.95 47.0295C602.19 48.0095 602.42 48.9795 602.63 49.9495C602.85 50.9195 603.05 51.8195 603.23 52.6495C603.41 53.4795 603.56 54.1895 603.67 54.7595C603.73 55.1095 603.67 55.4395 603.47 55.7295C603.27 56.0295 602.99 56.2095 602.64 56.2895L602.65 56.2995Z" fill="#010F32"/>
<path d="M619.26 44.0101C618.65 43.5001 617.97 42.9701 617.22 42.4101C616.47 41.8601 615.79 41.4101 615.18 41.0501C614.83 40.8301 614.6 40.5201 614.51 40.1301C614.41 39.7401 614.47 39.3701 614.68 39.0101C614.9 38.6601 615.21 38.4301 615.6 38.3301C615.99 38.2301 616.36 38.2901 616.72 38.5101C617.15 38.7801 617.64 39.1101 618.2 39.5101C618.75 39.9001 619.29 40.2901 619.81 40.6701C620.33 41.0501 620.76 41.3801 621.09 41.6501C621.41 41.9101 621.6 42.2401 621.65 42.6501C621.71 43.0601 621.61 43.4201 621.35 43.7401C621.09 44.0601 620.76 44.2501 620.35 44.3001C619.94 44.3601 619.58 44.2601 619.26 44.0001V44.0101ZM617.2 53.4701C616.82 53.6101 616.44 53.6001 616.06 53.4201C615.68 53.2401 615.42 52.9601 615.28 52.5801C615.14 52.2001 615.15 51.8201 615.33 51.4401C615.51 51.0601 615.79 50.8001 616.17 50.6601C617.45 50.2101 618.74 49.6601 620.05 49.0001C621.35 48.3401 622.6 47.6301 623.79 46.8501C624.98 46.0701 626.07 45.2701 627.05 44.4501C628.03 43.6301 628.84 42.8301 629.46 42.0601C629.73 41.7401 630.07 41.5601 630.48 41.5101C630.89 41.4601 631.24 41.5701 631.55 41.8501C631.87 42.1101 632.05 42.4401 632.1 42.8501C632.15 43.2601 632.04 43.6201 631.76 43.9401C631.1 44.7401 630.23 45.5901 629.14 46.5001C628.05 47.4001 626.84 48.3001 625.49 49.1801C624.14 50.0601 622.76 50.8801 621.34 51.6301C619.92 52.3801 618.53 53.0001 617.19 53.4801L617.2 53.4701Z" fill="#010F32"/>
<path d="M654.83 51.6894C654.35 51.2294 653.75 50.6794 653.03 50.0494C652.31 49.4194 651.54 48.7594 650.73 48.0794C649.91 47.3994 649.11 46.7494 648.33 46.1194C647.55 45.4894 646.85 44.9594 646.24 44.5094C645.79 44.1694 645.39 43.9494 645.03 43.8294C644.67 43.7094 644.29 43.6894 643.9 43.7794C643.51 43.8694 643.04 44.0594 642.5 44.3694C642.05 44.6294 641.54 44.9294 640.96 45.2794C640.38 45.6294 639.83 45.9794 639.29 46.3094C638.75 46.6394 638.32 46.9194 637.98 47.1294C637.63 47.3394 637.25 47.3894 636.85 47.2994C636.45 47.1994 636.15 46.9794 635.94 46.6294C635.73 46.2794 635.67 45.8994 635.76 45.4994C635.85 45.0994 636.07 44.7994 636.42 44.5894C636.76 44.3794 637.21 44.1094 637.78 43.7694C638.35 43.4294 638.94 43.0894 639.56 42.7494C640.18 42.4094 640.71 42.1094 641.16 41.8494C642.12 41.3394 642.96 40.9994 643.67 40.8394C644.38 40.6794 645.07 40.6994 645.72 40.9094C646.37 41.1194 647.11 41.5194 647.93 42.1094C648.36 42.4094 648.88 42.7994 649.49 43.2694C650.1 43.7394 650.75 44.2494 651.45 44.8094C652.15 45.3594 652.84 45.9294 653.54 46.4994C654.24 47.0694 654.88 47.6194 655.48 48.1394C656.08 48.6594 656.59 49.1194 657 49.5194C657.3 49.7894 657.46 50.1394 657.47 50.5494C657.48 50.9594 657.33 51.3294 657.03 51.6494C656.74 51.9394 656.38 52.0894 655.95 52.0894C655.52 52.0894 655.15 51.9594 654.85 51.6694L654.83 51.6894ZM652.33 42.7094C651.66 42.7094 651.09 42.4694 650.61 41.9894C650.13 41.5094 649.9 40.9394 649.9 40.2894C649.9 39.6394 650.14 39.0494 650.61 38.5694C651.08 38.0994 651.65 37.8594 652.33 37.8594C653.01 37.8594 653.57 38.0994 654.05 38.5694C654.52 39.0394 654.76 39.6094 654.76 40.2894C654.76 40.9694 654.52 41.5094 654.05 41.9894C653.58 42.4694 653.01 42.7094 652.33 42.7094ZM652.33 41.3194C652.62 41.3194 652.86 41.2194 653.06 41.0094C653.26 40.7994 653.36 40.5594 653.36 40.2894C653.36 39.9994 653.26 39.7494 653.06 39.5494C652.86 39.3494 652.62 39.2394 652.33 39.2394C652.04 39.2394 651.8 39.3394 651.6 39.5494C651.4 39.7594 651.3 40.0094 651.3 40.2894C651.3 40.5594 651.4 40.7994 651.6 41.0094C651.8 41.2194 652.04 41.3194 652.33 41.3194Z" fill="#010F32"/>
<path d="M662.56 46.8694C662.16 46.8694 661.81 46.7194 661.52 46.4294C661.22 46.1294 661.08 45.7894 661.08 45.3894C661.08 44.9894 661.23 44.6194 661.52 44.3294C661.82 44.0394 662.16 43.8994 662.56 43.8994H677.51C677.93 43.8994 678.28 44.0394 678.57 44.3294C678.86 44.6194 679 44.9694 679 45.3894C679 45.8094 678.86 46.1394 678.57 46.4294C678.28 46.7294 677.93 46.8694 677.51 46.8694H662.56Z" fill="#010F32"/>
<path d="M687.88 44.0101C687.27 43.5001 686.59 42.9701 685.84 42.4101C685.09 41.8601 684.41 41.4101 683.8 41.0501C683.45 40.8301 683.22 40.5201 683.13 40.1301C683.03 39.7401 683.09 39.3701 683.3 39.0101C683.52 38.6601 683.83 38.4301 684.22 38.3301C684.61 38.2301 684.98 38.2901 685.34 38.5101C685.77 38.7801 686.26 39.1101 686.82 39.5101C687.37 39.9001 687.91 40.2901 688.43 40.6701C688.95 41.0501 689.38 41.3801 689.71 41.6501C690.03 41.9101 690.22 42.2401 690.27 42.6501C690.33 43.0601 690.23 43.4201 689.97 43.7401C689.71 44.0601 689.38 44.2501 688.97 44.3001C688.56 44.3601 688.2 44.2601 687.88 44.0001V44.0101ZM685.82 53.4701C685.44 53.6101 685.06 53.6001 684.68 53.4201C684.3 53.2401 684.04 52.9601 683.9 52.5801C683.76 52.2001 683.77 51.8201 683.95 51.4401C684.13 51.0601 684.41 50.8001 684.79 50.6601C686.07 50.2101 687.36 49.6601 688.67 49.0001C689.97 48.3401 691.22 47.6301 692.41 46.8501C693.6 46.0701 694.69 45.2701 695.67 44.4501C696.65 43.6301 697.46 42.8301 698.08 42.0601C698.35 41.7401 698.69 41.5601 699.1 41.5101C699.51 41.4601 699.86 41.5701 700.17 41.8501C700.49 42.1101 700.67 42.4401 700.72 42.8501C700.77 43.2601 700.66 43.6201 700.38 43.9401C699.72 44.7401 698.85 45.5901 697.76 46.5001C696.67 47.4001 695.46 48.3001 694.11 49.1801C692.76 50.0601 691.38 50.8801 689.96 51.6301C688.54 52.3801 687.15 53.0001 685.81 53.4801L685.82 53.4701Z" fill="#010F32"/>
<path d="M424.12 42.8395L423.38 42.5595L422.71 42.1695L422.16 41.6195L421.74 40.9595L421.47 40.2295L421.36 39.4495L421.2 38.6795L421.25 37.8995L421.51 37.1595L421.78 36.4795L422.34 36.0295L422.91 35.6195L423.6 35.4795L424.32 35.5195L425.04 35.7895L425.7 36.2295L426.12 36.8895L426.4 37.6195L426.66 38.3695L426.61 39.1595V39.9995L426.55 40.8395L426.26 41.6395L425.7 42.2795L424.93 42.5895L424.12 42.8395Z" fill="#010F32"/>
<path d="M429.88 36.2793L430.61 36.0893L431.39 36.0693L432.12 36.3493L432.76 36.7993L433.29 37.3693L433.56 38.1193L433.53 38.8593L433.56 39.6093L433.29 40.3093L433.13 41.0493L432.69 41.6493L432.23 42.2493L431.62 42.6893L430.93 42.9993L430.12 42.9893L429.41 42.7193L428.87 42.1493L428.48 41.4593L428.27 40.6793L428.16 39.8893L428.2 39.0893L428.33 38.2293L428.68 37.4293L429.12 36.6893L429.88 36.2793Z" fill="#010F32"/>
<path d="M436.97 41.6992L437.54 42.3392L437.99 43.0592L438.13 43.8992L438.08 44.7492L438.09 45.5792L437.85 46.3792L437.47 47.1192L436.93 47.7592L436.28 48.2592L435.57 48.6992H434.74L433.94 48.5892L433.25 48.1392L432.84 47.4292L432.64 46.6192L432.46 45.7992L432.65 44.9692L432.82 44.1492L433.1 43.4192L433.48 42.7392L433.95 42.0892L434.65 41.6992L435.4 41.4092L436.2 41.4492L436.97 41.6992Z" fill="#010F32"/>
<path d="M417.06 40.4897L417.82 40.2197L418.62 40.2697L419.39 40.5297L420.1 40.9697L420.6 41.6297L421.08 42.2897L421.41 43.0297L421.62 43.8097L421.76 44.5597L421.75 45.3197L421.63 46.0597L421.41 46.7697L420.85 47.2597L420.2 47.6597L419.43 47.6497L418.68 47.5797L418 47.2597L417.35 46.8597L416.85 46.2797L416.49 45.5997L416.09 44.8897L415.9 44.0897L415.8 43.2897L415.89 42.4797L416.03 41.6897L416.49 41.0297L417.06 40.4897Z" fill="#010F32"/>
<path d="M420.22 52.2798L420.26 51.4298L420.42 50.5898L420.7 49.7798L421.27 49.1298L421.75 48.4298L422.47 47.9598L422.98 47.2998L423.52 46.6998L424.03 46.0498L424.67 45.4998L425.5 45.3598L426.27 45.1798L427.05 45.0898L427.83 45.1698L428.48 45.6098L429.12 45.9998L429.78 46.4198L430.29 46.9998L430.66 47.7098L431.39 48.0598L431.83 48.6998L432.26 49.3098L432.72 49.8998L433.19 50.5098L433.23 51.2898L433.32 52.0198L433.53 52.7798L433.14 53.4598L432.81 54.1598L432.17 54.5998L431.46 54.8598L430.72 54.9798L429.99 54.8898L429.25 54.7998L428.5 54.6998L427.76 54.5598L427.02 54.4598L426.23 54.3898L425.48 54.5798L424.81 55.0098L424.01 54.9698L423.27 55.0498L422.52 55.0698L421.75 54.9298L421.19 54.3198L420.69 53.7398L420.37 53.0498L420.22 52.2798Z" fill="#010F32"/>
<path d="M300.11 70.8594H729.89V97.4694C729.89 104.089 724.51 109.469 717.89 109.469H312.11C305.49 109.469 300.11 104.089 300.11 97.4694V70.8594Z" fill="#F27891"/>
<path d="M391.71 98.1991C392.11 98.1991 392.31 98.5091 392.31 98.9191C392.31 99.3291 392.11 99.6891 391.71 99.6891H386.07C385.52 99.6891 385.23 99.3491 385.23 98.7491C385.23 98.3091 385.52 97.6891 385.76 97.2991C386.16 96.6191 386.8 95.8691 387.95 95.1091L388.68 94.6191C389.83 93.8491 390.44 93.4291 390.44 92.5491C390.44 91.7291 389.79 91.2691 388.82 91.2691C387.63 91.2691 387.22 91.9291 387.01 92.6891C386.91 93.0391 386.63 93.1891 386.3 93.1891C386.2 93.1891 386.11 93.1791 386.01 93.1491C385.63 93.0691 385.35 92.8391 385.35 92.4691C385.35 92.3991 385.36 92.3091 385.39 92.2191C385.51 91.7291 385.79 91.2191 386.15 90.8691C386.75 90.2291 387.57 89.8691 388.87 89.8691C390.9 89.8691 392.11 90.8691 392.11 92.5591C392.11 94.0591 391.26 94.7391 390.04 95.4991L389.33 95.9291C388.11 96.6891 387.4 97.3591 387.09 98.2191H391.71V98.1991Z" fill="white"/>
<path d="M401.86 94.8496C401.86 98.1196 400.55 99.8696 398.17 99.8696C395.79 99.8696 394.5 98.1196 394.5 94.7996C394.5 91.4796 395.81 89.8496 398.18 89.8496C400.55 89.8496 401.86 91.4196 401.86 94.8496ZM396.14 94.8296C396.14 97.1596 396.8 98.4196 398.18 98.4196C399.56 98.4196 400.21 97.1996 400.21 94.8196C400.21 92.4396 399.57 91.3196 398.18 91.3196C396.79 91.3196 396.14 92.5296 396.14 94.8296Z" fill="white"/>
<path d="M410.5 98.1991C410.9 98.1991 411.1 98.5091 411.1 98.9191C411.1 99.3291 410.9 99.6891 410.5 99.6891H404.86C404.31 99.6891 404.02 99.3491 404.02 98.7491C404.02 98.3091 404.31 97.6891 404.55 97.2991C404.95 96.6191 405.59 95.8691 406.74 95.1091L407.47 94.6191C408.62 93.8491 409.23 93.4291 409.23 92.5491C409.23 91.7291 408.58 91.2691 407.61 91.2691C406.42 91.2691 406.01 91.9291 405.8 92.6891C405.7 93.0391 405.42 93.1891 405.09 93.1891C404.99 93.1891 404.9 93.1791 404.8 93.1491C404.42 93.0691 404.14 92.8391 404.14 92.4691C404.14 92.3991 404.15 92.3091 404.18 92.2191C404.3 91.7291 404.58 91.2191 404.94 90.8691C405.54 90.2291 406.36 89.8691 407.66 89.8691C409.69 89.8691 410.9 90.8691 410.9 92.5591C410.9 94.0591 410.05 94.7391 408.83 95.4991L408.12 95.9291C406.9 96.6891 406.19 97.3591 405.88 98.2191H410.5V98.1991Z" fill="white"/>
<path d="M416.72 93.9898H416.8C417.88 93.9898 418.57 93.4698 418.57 92.5398C418.57 91.6798 417.91 91.2098 416.9 91.2098C415.89 91.2098 415.45 91.6298 415.19 92.2698C415.07 92.5498 414.87 92.6498 414.61 92.6498C414.47 92.6498 414.31 92.6099 414.15 92.5499C413.83 92.4299 413.62 92.2298 413.62 91.9498C413.62 91.8498 413.64 91.7498 413.69 91.6398C414.06 90.7898 414.94 89.8398 416.94 89.8398C418.94 89.8398 420.17 90.8198 420.17 92.3798C420.17 93.5798 419.58 94.3598 418.34 94.6698C419.76 94.8498 420.45 95.6998 420.45 97.0898C420.45 98.6998 419.24 99.8998 416.85 99.8998C414.73 99.8998 413.74 98.9198 413.36 97.9498C413.32 97.8498 413.31 97.7698 413.31 97.6898C413.31 97.3498 413.57 97.0998 413.95 97.0198C414.07 96.9998 414.18 96.9799 414.29 96.9799C414.61 96.9799 414.85 97.1198 414.97 97.4398C415.23 98.0998 415.8 98.5098 416.9 98.5098C418 98.5098 418.8 97.9498 418.8 96.9498C418.8 95.9498 418.04 95.4598 416.82 95.4598H416.05C415.64 95.4798 415.43 95.1198 415.43 94.7198C415.43 94.3198 415.65 93.9798 416.05 93.9898H416.71H416.72Z" fill="white"/>
<path d="M434.41 98.4393C434.41 99.3293 433.76 99.8093 432.75 99.8093C431.74 99.8093 431.12 99.3293 431.12 98.4693V84.1193C431.12 83.6893 431 83.4693 430.57 83.4693H430.5L428.24 83.5393C427.38 83.5593 426.82 82.8193 426.82 81.9993C426.82 81.1393 427.35 80.4193 428.19 80.3893L431.69 80.3193H431.91C433.83 80.3193 434.41 80.9393 434.41 83.0293V98.4393Z" fill="white"/>
<path d="M448.88 98.4393C448.88 99.3293 448.23 99.8093 447.22 99.8093C446.21 99.8093 445.59 99.3293 445.59 98.4693V84.1193C445.59 83.6893 445.47 83.4693 445.04 83.4693H444.97L442.71 83.5393C441.85 83.5593 441.29 82.8193 441.29 81.9993C441.29 81.1393 441.82 80.4193 442.66 80.3893L446.16 80.3193H446.38C448.3 80.3193 448.88 80.9393 448.88 83.0293V98.4393Z" fill="white"/>
<path d="M461 97.7693C461 98.9693 460.14 99.7893 459.01 99.7893C457.88 99.7893 456.99 98.9693 456.99 97.7693C456.99 96.5693 457.85 95.7793 459.01 95.7793C460.17 95.7793 461 96.6193 461 97.7693Z" fill="white"/>
<path d="M474.27 98.4393C474.27 99.3293 473.62 99.8093 472.61 99.8093C471.6 99.8093 470.98 99.3293 470.98 98.4693V84.1193C470.98 83.6893 470.86 83.4693 470.43 83.4693H470.36L468.1 83.5393C467.24 83.5593 466.68 82.8193 466.68 81.9993C466.68 81.1393 467.21 80.4193 468.05 80.3893L471.55 80.3193H471.77C473.69 80.3193 474.27 80.9393 474.27 83.0293V98.4393Z" fill="white"/>
<path d="M497.94 82.4697H484.96C483.855 82.4697 482.96 83.3652 482.96 84.4697V97.4497C482.96 98.5543 483.855 99.4497 484.96 99.4497H497.94C499.045 99.4497 499.94 98.5543 499.94 97.4497V84.4697C499.94 83.3652 499.045 82.4697 497.94 82.4697Z" fill="white"/>
<path d="M486.53 89.6393C486.21 89.6393 486.01 89.3893 486.01 88.9993C486.01 88.6093 486.2 88.3593 486.53 88.3593H489.29C490.01 88.3593 490.36 88.6593 490.36 89.3293C490.36 89.5293 490.32 89.7593 490.26 90.0393C490.03 91.0093 489.61 91.9993 489.06 92.8593C488.5 93.7493 487.79 94.4993 487.03 95.1093C486.87 95.2293 486.71 95.2993 486.54 95.2993C486.35 95.2993 486.16 95.1993 485.99 95.0193C485.87 94.8893 485.81 94.7193 485.81 94.5493C485.81 94.3593 485.88 94.1793 486.06 94.0493C486.77 93.5193 487.39 92.8893 487.83 92.2593C488.37 91.4893 488.74 90.6893 488.95 89.9093C488.96 89.8493 488.97 89.7993 488.97 89.7493C488.97 89.6493 488.91 89.6193 488.75 89.6193H486.52L486.53 89.6393ZM492.17 87.7693C492.33 88.5093 492.63 89.2693 492.99 89.9593C493.82 89.2993 494.56 88.4993 495.09 87.7293C495.21 87.5593 495.38 87.4793 495.56 87.4793C495.72 87.4793 495.87 87.5393 496.03 87.6493C496.25 87.7893 496.37 87.9893 496.37 88.1993C496.37 88.3293 496.32 88.4593 496.23 88.5993C495.57 89.4893 494.63 90.3893 493.69 91.0893C493.82 91.2793 493.95 91.4493 494.09 91.6193C494.79 92.4993 495.71 93.3293 496.72 93.9293C496.95 94.0593 497.04 94.2693 497.04 94.4793C497.04 94.6393 496.99 94.7993 496.91 94.9493C496.77 95.1893 496.53 95.3293 496.26 95.3293C496.14 95.3293 496.01 95.2893 495.9 95.2193C495.01 94.6693 494.16 93.8793 493.5 93.0093C492.9 92.2293 492.32 91.1393 491.99 90.1093C492.11 90.9693 492.19 91.7793 492.19 92.5193V95.1893C492.19 96.1993 491.59 96.5893 490.57 96.5893C490.08 96.5893 489.63 96.5393 489.29 96.4693C488.97 96.4093 488.8 96.1893 488.8 95.8593C488.8 95.8093 488.8 95.7593 488.81 95.6993C488.86 95.3493 489.07 95.1693 489.33 95.1693C489.37 95.1693 489.4 95.1693 489.44 95.1793C489.73 95.2293 490.06 95.2793 490.35 95.2793C490.73 95.2793 490.85 95.1793 490.85 94.7893V86.0493C490.85 85.7393 491.09 85.5693 491.5 85.5693C491.93 85.5693 492.2 85.7393 492.2 86.0493V87.7493L492.17 87.7693Z" fill="#F27891"/>
<path d="M558.26 98.4393C558.26 99.3293 557.61 99.8093 556.6 99.8093C555.59 99.8093 554.97 99.3293 554.97 98.4693V84.1193C554.97 83.6893 554.85 83.4693 554.42 83.4693H554.35L552.09 83.5393C551.23 83.5593 550.67 82.8193 550.67 81.9993C550.67 81.1393 551.2 80.4193 552.04 80.3893L555.54 80.3193H555.76C557.68 80.3193 558.26 80.9393 558.26 83.0293V98.4393Z" fill="white"/>
<path d="M576.3 96.6693C577.09 96.6693 577.5 97.2893 577.5 98.1093C577.5 98.9293 577.09 99.6493 576.3 99.6493H565.02C563.92 99.6493 563.34 98.9793 563.34 97.7793C563.34 96.8893 563.92 95.6693 564.4 94.8793C565.19 93.5093 566.49 92.0193 568.79 90.4893L570.25 89.5093C572.55 87.9693 573.78 87.1293 573.78 85.3593C573.78 83.7293 572.48 82.7893 570.54 82.7893C568.16 82.7893 567.35 84.1093 566.92 85.6193C566.73 86.3193 566.15 86.6293 565.5 86.6293C565.31 86.6293 565.12 86.6093 564.92 86.5593C564.15 86.3893 563.6 85.9393 563.6 85.1893C563.6 85.0493 563.62 84.8793 563.67 84.6893C563.91 83.7093 564.46 82.6993 565.18 81.9793C566.38 80.7093 568.01 79.9893 570.63 79.9893C574.69 79.9893 577.11 81.9793 577.11 85.3693C577.11 88.3693 575.41 89.7393 572.96 91.2493L571.54 92.1093C569.09 93.6193 567.68 94.9693 567.05 96.6893H576.29L576.3 96.6693Z" fill="white"/>
<path d="M585.81 97.7693C585.81 98.9693 584.95 99.7893 583.82 99.7893C582.69 99.7893 581.8 98.9693 581.8 97.7693C581.8 96.5693 582.66 95.7793 583.82 95.7793C584.98 95.7793 585.81 96.6193 585.81 97.7693Z" fill="white"/>
<path d="M604.1 96.6693C604.89 96.6693 605.3 97.2893 605.3 98.1093C605.3 98.9293 604.89 99.6493 604.1 99.6493H592.82C591.72 99.6493 591.14 98.9793 591.14 97.7793C591.14 96.8893 591.72 95.6693 592.2 94.8793C592.99 93.5093 594.29 92.0193 596.59 90.4893L598.05 89.5093C600.35 87.9693 601.58 87.1293 601.58 85.3593C601.58 83.7293 600.28 82.7893 598.34 82.7893C595.96 82.7893 595.15 84.1093 594.72 85.6193C594.53 86.3193 593.95 86.6293 593.3 86.6293C593.11 86.6293 592.92 86.6093 592.72 86.5593C591.95 86.3893 591.4 85.9393 591.4 85.1893C591.4 85.0493 591.42 84.8793 591.47 84.6893C591.71 83.7093 592.26 82.6993 592.98 81.9793C594.18 80.7093 595.81 79.9893 598.43 79.9893C602.49 79.9893 604.91 81.9793 604.91 85.3693C604.91 88.3693 603.21 89.7393 600.76 91.2493L599.34 92.1093C596.89 93.6193 595.48 94.9693 594.85 96.6893H604.09L604.1 96.6693Z" fill="white"/>
<path d="M611.34 87.1798C611.32 87.4398 611.24 87.7998 611.17 88.1199C612.2 87.2099 613.45 86.7498 615.11 86.7498C619 86.7498 621.49 89.2198 621.49 93.1798C621.49 97.1398 618.78 100.07 614.48 100.07C611.07 100.07 609.08 98.6798 608.05 96.8498C607.91 96.6098 607.83 96.3498 607.83 96.1098C607.83 95.5598 608.19 95.0298 608.72 94.7398C609.03 94.5498 609.34 94.4498 609.66 94.4498C610.14 94.4498 610.6 94.6898 610.91 95.2198C611.56 96.3998 612.76 97.2098 614.39 97.2098C616.72 97.2098 618.18 95.5799 618.18 93.2299C618.18 90.8799 616.72 89.4598 614.53 89.4598C613.04 89.4598 612.03 90.0398 611.36 90.9998C611 91.5298 610.54 91.8198 609.85 91.8198C609.75 91.8198 609.63 91.8199 609.51 91.7999C608.62 91.6999 608.12 91.2198 608.12 90.4298V90.2098L608.91 82.1199C609.05 80.9699 609.7 80.3398 610.9 80.3398H619.59C620.33 80.3398 620.69 80.9898 620.69 81.7798C620.69 82.5698 620.31 83.2398 619.59 83.2398H612.17C611.88 83.2398 611.71 83.3798 611.69 83.6698L611.33 87.1698L611.34 87.1798Z" fill="white"/>
<path d="M643.3 82.4697H630.32C629.215 82.4697 628.32 83.3652 628.32 84.4697V97.4497C628.32 98.5543 629.215 99.4497 630.32 99.4497H643.3C644.405 99.4497 645.3 98.5543 645.3 97.4497V84.4697C645.3 83.3652 644.405 82.4697 643.3 82.4697Z" fill="white"/>
<path d="M634.09 92.92C633.87 94.34 633.44 95.46 632.72 96.36C632.58 96.54 632.38 96.64 632.17 96.64C632.01 96.64 631.85 96.59 631.69 96.48C631.49 96.34 631.38 96.13 631.38 95.92C631.38 95.78 631.43 95.63 631.52 95.5C632.6 94.19 632.95 92.5 632.95 89.32V87.23C632.95 86.33 633.41 85.96 634.27 85.96H639.66C640.49 85.96 640.95 86.33 640.95 87.23V95.24C640.95 96.12 640.55 96.58 639.24 96.58C638.75 96.58 638.26 96.54 637.81 96.45C637.51 96.39 637.29 96.21 637.29 95.86C637.29 95.8 637.29 95.74 637.3 95.68C637.37 95.31 637.61 95.16 637.83 95.16C637.88 95.16 637.91 95.16 637.95 95.17C638.26 95.24 638.62 95.29 638.99 95.29C639.49 95.29 639.6 95.19 639.6 94.86V92.91H634.08L634.09 92.92ZM634.31 90.04C634.3 90.59 634.29 91.13 634.24 91.68H639.61V90.04H634.31ZM639.61 87.55C639.61 87.32 639.5 87.25 639.24 87.25H634.71C634.45 87.25 634.31 87.32 634.31 87.55V88.82H639.61V87.55Z" fill="#F27891"/>
<path d="M513.99 93.4194H539.55L535.5 86.6494" stroke="white" stroke-width="2" stroke-linecap="round" stroke-linejoin="round"/>
</g>
<defs>
<clipPath id="clip0_387_455">
<rect width="1029.7" height="109.47" fill="white"/>
</clipPath>
</defs>
</svg>
