<svg width="551" height="73" viewBox="0 0 551 73" fill="none" xmlns="http://www.w3.org/2000/svg">
<path d="M146.82 52.38C142.793 53.3133 139.193 53.7133 136.02 53.58C132.873 53.4733 130.247 52.8733 128.14 51.78C126.06 50.6867 124.607 49.14 123.78 47.14C123.513 46.5267 123.513 45.9133 123.78 45.3C124.047 44.6867 124.487 44.26 125.1 44.02C125.713 43.7533 126.313 43.7533 126.9 44.02C127.513 44.2867 127.94 44.7267 128.18 45.34C128.687 46.4867 129.727 47.3667 131.3 47.98C132.873 48.5933 134.887 48.9 137.34 48.9C139.82 48.8733 142.607 48.4733 145.7 47.7C146.367 47.54 146.98 47.6467 147.54 48.02C148.1 48.3667 148.46 48.86 148.62 49.5C148.753 50.14 148.647 50.74 148.3 51.3C147.953 51.86 147.46 52.22 146.82 52.38ZM143.14 30.5C141.7 30.1267 140.153 29.8467 138.5 29.66C136.873 29.4467 135.26 29.3267 133.66 29.3C132.06 29.2733 130.567 29.3267 129.18 29.46C128.513 29.5133 127.913 29.3533 127.38 28.98C126.873 28.58 126.58 28.0467 126.5 27.38C126.42 26.7133 126.58 26.1267 126.98 25.62C127.38 25.0867 127.913 24.78 128.58 24.7C130.18 24.54 131.94 24.5 133.86 24.58C135.78 24.6333 137.647 24.7667 139.46 24.98C141.3 25.1933 142.9 25.4733 144.26 25.82C144.9 25.98 145.393 26.34 145.74 26.9C146.087 27.46 146.18 28.06 146.02 28.7C145.887 29.34 145.527 29.8467 144.94 30.22C144.38 30.5667 143.78 30.66 143.14 30.5ZM152.58 30.38C152.233 30.7 151.807 30.8333 151.3 30.78C150.793 30.7267 150.393 30.5133 150.1 30.14C149.807 29.74 149.42 29.2733 148.94 28.74C148.487 28.18 148.06 27.6867 147.66 27.26C147.42 26.9667 147.3 26.6067 147.3 26.18C147.327 25.7533 147.513 25.38 147.86 25.06C148.153 24.7667 148.5 24.6333 148.9 24.66C149.327 24.66 149.713 24.8067 150.06 25.1C150.46 25.42 150.927 25.86 151.46 26.42C152.02 26.9533 152.473 27.4467 152.82 27.9C153.113 28.2733 153.233 28.7 153.18 29.18C153.153 29.66 152.953 30.06 152.58 30.38ZM156.3 26.9C155.98 27.22 155.567 27.38 155.06 27.38C154.58 27.3533 154.18 27.1667 153.86 26.82C153.513 26.4467 153.087 26.0067 152.58 25.5C152.1 24.9667 151.647 24.5 151.22 24.1C150.953 23.8333 150.807 23.5 150.78 23.1C150.753 22.6733 150.9 22.2867 151.22 21.94C151.513 21.62 151.873 21.4467 152.3 21.42C152.727 21.3933 153.113 21.5133 153.46 21.78C153.887 22.0733 154.38 22.4733 154.94 22.98C155.527 23.4867 156.007 23.9667 156.38 24.42C156.7 24.7667 156.847 25.18 156.82 25.66C156.82 26.1133 156.647 26.5267 156.3 26.9ZM170.22 55.42C169.633 55.42 169.113 55.1933 168.66 54.74C168.233 54.3133 168.02 53.8067 168.02 53.22C168.02 52.6067 168.233 52.0867 168.66 51.66C169.113 51.2333 169.633 51.02 170.22 51.02H179.1V43.42H172.82C172.18 43.42 171.633 43.2067 171.18 42.78C170.753 42.3267 170.54 41.7933 170.54 41.18C170.54 40.54 170.753 40.0067 171.18 39.58C171.633 39.1267 172.18 38.9 172.82 38.9H179.1V32.46H171.18C170.593 32.46 170.087 32.26 169.66 31.86C169.233 31.4333 169.02 30.9267 169.02 30.34C169.02 29.7267 169.233 29.22 169.66 28.82C170.087 28.3933 170.593 28.18 171.18 28.18H180.66C180.607 28.1267 180.553 28.0867 180.5 28.06C180.233 27.7667 179.847 27.3933 179.34 26.94C178.86 26.46 178.34 25.9667 177.78 25.46C177.247 24.9267 176.753 24.46 176.3 24.06C175.847 23.66 175.593 23.1533 175.54 22.54C175.513 21.9 175.727 21.34 176.18 20.86C176.633 20.3533 177.18 20.0733 177.82 20.02C178.46 19.94 179.047 20.1267 179.58 20.58C179.927 20.8467 180.38 21.2333 180.94 21.74C181.527 22.2467 182.1 22.7667 182.66 23.3C183.247 23.8333 183.7 24.2733 184.02 24.62C184.473 25.1267 184.713 25.7133 184.74 26.38C184.767 27.02 184.527 27.58 184.02 28.06L183.9 28.18H191.82C192.433 28.18 192.94 28.3933 193.34 28.82C193.767 29.22 193.98 29.7267 193.98 30.34C193.98 30.9267 193.767 31.4333 193.34 31.86C192.94 32.26 192.433 32.46 191.82 32.46H184.06V38.9H190.18C190.793 38.9 191.327 39.1267 191.78 39.58C192.233 40.0067 192.46 40.54 192.46 41.18C192.46 41.7933 192.233 42.3267 191.78 42.78C191.327 43.2067 190.793 43.42 190.18 43.42H184.06V51.02H192.86C193.473 51.02 193.993 51.2333 194.42 51.66C194.847 52.0867 195.06 52.6067 195.06 53.22C195.06 53.8067 194.847 54.3133 194.42 54.74C193.993 55.1933 193.473 55.42 192.86 55.42H170.22ZM160.06 55.46C159.473 55.0867 159.113 54.5667 158.98 53.9C158.847 53.26 158.98 52.6467 159.38 52.06C159.887 51.2867 160.447 50.3667 161.06 49.3C161.7 48.2067 162.327 47.0867 162.94 45.94C163.58 44.7667 164.14 43.6867 164.62 42.7C164.913 42.0867 165.367 41.6733 165.98 41.46C166.593 41.2467 167.207 41.3133 167.82 41.66C169.1 42.3267 169.447 43.3667 168.86 44.78C168.433 45.7667 167.913 46.8733 167.3 48.1C166.687 49.3267 166.06 50.5133 165.42 51.66C164.78 52.8067 164.207 53.78 163.7 54.58C163.353 55.1667 162.82 55.5533 162.1 55.74C161.38 55.9267 160.7 55.8333 160.06 55.46ZM166.02 28.3C165.673 28.0333 165.22 27.7267 164.66 27.38C164.1 27.0067 163.54 26.6467 162.98 26.3C162.447 25.9533 161.993 25.6867 161.62 25.5C161.087 25.18 160.74 24.7267 160.58 24.14C160.42 23.5267 160.487 22.94 160.78 22.38C161.073 21.7933 161.527 21.4067 162.14 21.22C162.78 21.0333 163.393 21.0867 163.98 21.38C164.38 21.5667 164.86 21.8333 165.42 22.18C165.98 22.5 166.54 22.8333 167.1 23.18C167.687 23.5267 168.193 23.8467 168.62 24.14C169.207 24.5133 169.567 25.0333 169.7 25.7C169.833 26.3667 169.713 27.0067 169.34 27.62C168.993 28.18 168.487 28.5267 167.82 28.66C167.153 28.7933 166.553 28.6733 166.02 28.3ZM163.54 37.38C163.193 37.1133 162.74 36.8067 162.18 36.46C161.647 36.0867 161.1 35.7267 160.54 35.38C159.98 35.0333 159.527 34.7667 159.18 34.58C158.62 34.26 158.26 33.8067 158.1 33.22C157.967 32.6067 158.047 32.02 158.34 31.46C158.633 30.9 159.087 30.5267 159.7 30.34C160.34 30.1267 160.953 30.1667 161.54 30.46C161.94 30.6467 162.407 30.9133 162.94 31.26C163.5 31.58 164.06 31.9133 164.62 32.26C165.207 32.6067 165.713 32.9267 166.14 33.22C166.727 33.5933 167.087 34.1133 167.22 34.78C167.353 35.4467 167.233 36.0867 166.86 36.7C166.513 37.26 166.007 37.6067 165.34 37.74C164.673 37.8733 164.073 37.7533 163.54 37.38ZM201.7 56.62C200.713 56.9133 199.927 56.9 199.34 56.58C198.753 56.2867 198.327 55.7933 198.06 55.1C197.847 54.46 197.9 53.82 198.22 53.18C198.54 52.54 199.1 52.1267 199.9 51.94C202.727 51.1933 205.233 50.2733 207.42 49.18C209.607 48.0867 211.54 46.8467 213.22 45.46C211.567 43.5133 210.14 41.3667 208.94 39.02C207.767 36.6467 206.793 34.0733 206.02 31.3H200.18C199.593 31.3 199.087 31.0867 198.66 30.66C198.233 30.2333 198.02 29.7267 198.02 29.14C198.02 28.5533 198.233 28.06 198.66 27.66C199.087 27.2333 199.593 27.02 200.18 27.02H213.9V22.22C213.9 21.4467 214.153 20.82 214.66 20.34C215.167 19.86 215.78 19.62 216.5 19.62C217.22 19.62 217.833 19.86 218.34 20.34C218.847 20.82 219.1 21.4467 219.1 22.22V27.02H232.74C233.327 27.02 233.82 27.2333 234.22 27.66C234.647 28.06 234.86 28.5533 234.86 29.14C234.86 29.7267 234.647 30.2333 234.22 30.66C233.82 31.0867 233.327 31.3 232.74 31.3H227.22C226.473 34.0733 225.5 36.6333 224.3 38.98C223.127 41.3267 221.713 43.4733 220.06 45.42C221.767 46.8333 223.727 48.0867 225.94 49.18C228.153 50.2733 230.66 51.1933 233.46 51.94C234.26 52.1267 234.807 52.54 235.1 53.18C235.393 53.82 235.42 54.46 235.18 55.1C234.94 55.7933 234.513 56.2867 233.9 56.58C233.313 56.8733 232.54 56.8867 231.58 56.62C225.527 54.8333 220.553 52.26 216.66 48.9C214.713 50.5533 212.5 52.02 210.02 53.3C207.567 54.58 204.793 55.6867 201.7 56.62ZM216.66 41.94C217.86 40.4467 218.887 38.8067 219.74 37.02C220.593 35.2333 221.313 33.3267 221.9 31.3H211.3C211.913 33.3267 212.647 35.2333 213.5 37.02C214.38 38.8067 215.433 40.4467 216.66 41.94ZM260.78 53.38C260.113 53.54 259.487 53.4467 258.9 53.1C258.313 52.7533 257.94 52.26 257.78 51.62C257.62 50.98 257.713 50.38 258.06 49.82C258.407 49.2333 258.9 48.86 259.54 48.7C262.5 47.9267 264.673 46.6733 266.06 44.94C267.473 43.2067 268.18 41.0067 268.18 38.34C268.18 36.66 267.807 35.1533 267.06 33.82C266.313 32.4867 265.247 31.4067 263.86 30.58C262.5 29.7533 260.86 29.2467 258.94 29.06C258.46 33.54 257.647 37.42 256.5 40.7C255.38 43.9533 254.047 46.4733 252.5 48.26C250.98 50.02 249.38 50.9 247.7 50.9C246.287 50.9 244.993 50.4867 243.82 49.66C242.647 48.8333 241.713 47.6467 241.02 46.1C240.353 44.5533 240.02 42.7 240.02 40.54C240.02 38.3267 240.433 36.26 241.26 34.34C242.113 32.3933 243.313 30.6867 244.86 29.22C246.407 27.7533 248.22 26.6067 250.3 25.78C252.407 24.9533 254.713 24.54 257.22 24.54C260.26 24.54 262.953 25.1267 265.3 26.3C267.673 27.4467 269.54 29.06 270.9 31.14C272.26 33.1933 272.94 35.5933 272.94 38.34C272.94 42.2067 271.9 45.4333 269.82 48.02C267.767 50.58 264.753 52.3667 260.78 53.38ZM247.74 45.98C248.22 45.98 248.767 45.58 249.38 44.78C250.02 43.9533 250.66 42.7933 251.3 41.3C251.94 39.8067 252.527 38.0467 253.06 36.02C253.593 33.9667 253.993 31.7 254.26 29.22C252.18 29.62 250.433 30.3933 249.02 31.54C247.607 32.66 246.54 34.0067 245.82 35.58C245.1 37.1267 244.727 38.7533 244.7 40.46C244.7 42.2733 244.98 43.6467 245.54 44.58C246.127 45.5133 246.86 45.98 247.74 45.98ZM285.34 54.14C284.673 54.2467 284.073 54.1133 283.54 53.74C283.007 53.3667 282.673 52.86 282.54 52.22C282.3 50.86 282.113 49.2867 281.98 47.5C281.847 45.6867 281.78 43.78 281.78 41.78C281.78 39.78 281.833 37.7667 281.94 35.74C282.047 33.7133 282.207 31.78 282.42 29.94C282.66 28.0733 282.94 26.4067 283.26 24.94C283.393 24.3 283.74 23.8067 284.3 23.46C284.86 23.0867 285.46 22.9667 286.1 23.1C286.74 23.26 287.233 23.62 287.58 24.18C287.953 24.7133 288.073 25.3133 287.94 25.98C287.513 27.8733 287.18 29.9267 286.94 32.14C286.7 34.3533 286.54 36.6067 286.46 38.9C286.407 41.1667 286.447 43.38 286.58 45.54C286.713 47.6733 286.94 49.62 287.26 51.38C287.393 52.02 287.26 52.6067 286.86 53.14C286.487 53.6733 285.98 54.0067 285.34 54.14ZM301.74 51.98C298.273 51.98 295.687 51.3533 293.98 50.1C292.3 48.8467 291.287 47.0067 290.94 44.58C290.833 43.94 290.967 43.3533 291.34 42.82C291.74 42.2867 292.273 41.9667 292.94 41.86C293.58 41.78 294.167 41.94 294.7 42.34C295.233 42.7133 295.553 43.2333 295.66 43.9C295.82 45.0467 296.367 45.9 297.3 46.46C298.233 47.02 299.753 47.3 301.86 47.3C303.86 47.3 306.273 46.9933 309.1 46.38C309.74 46.22 310.34 46.3267 310.9 46.7C311.46 47.0733 311.807 47.58 311.94 48.22C312.073 48.86 311.953 49.46 311.58 50.02C311.207 50.5533 310.7 50.9 310.06 51.06C308.62 51.4067 307.18 51.6467 305.74 51.78C304.327 51.9133 302.993 51.98 301.74 51.98ZM294.42 32.18C293.78 32.3133 293.18 32.2067 292.62 31.86C292.087 31.4867 291.753 30.9667 291.62 30.3C291.487 29.66 291.593 29.06 291.94 28.5C292.313 27.94 292.833 27.6067 293.5 27.5C294.993 27.2067 296.66 27.02 298.5 26.94C300.34 26.8333 302.167 26.82 303.98 26.9C305.793 26.9533 307.393 27.1 308.78 27.34C309.447 27.4467 309.967 27.78 310.34 28.34C310.713 28.8733 310.833 29.4733 310.7 30.14C310.593 30.8067 310.26 31.3267 309.7 31.7C309.167 32.0467 308.58 32.1667 307.94 32.06C305.78 31.6867 303.54 31.5133 301.22 31.54C298.9 31.54 296.633 31.7533 294.42 32.18ZM336.06 56.78C335.473 56.86 334.953 56.7267 334.5 56.38C334.073 56.0333 333.82 55.5667 333.74 54.98C333.5 53.38 333.113 51.54 332.58 49.46C332.073 47.3533 331.46 45.2467 330.74 43.14C329.673 43.4867 328.647 43.8333 327.66 44.18C326.7 44.5 325.807 44.8067 324.98 45.1C324.42 45.2867 323.873 45.26 323.34 45.02C322.833 44.78 322.473 44.3933 322.26 43.86C322.073 43.3 322.1 42.7667 322.34 42.26C322.607 41.7267 323.02 41.3667 323.58 41.18C325.233 40.5933 327.153 39.9533 329.34 39.26C329.02 38.4867 328.7 37.74 328.38 37.02C328.06 36.3 327.727 35.62 327.38 34.98C327.113 34.4467 327.047 33.9 327.18 33.34C327.34 32.78 327.673 32.3667 328.18 32.1C328.713 31.8067 329.247 31.7533 329.78 31.94C330.34 32.1 330.753 32.4467 331.02 32.98C331.42 33.7267 331.807 34.5267 332.18 35.38C332.553 36.2333 332.913 37.1267 333.26 38.06C333.953 37.8467 334.647 37.6333 335.34 37.42C336.033 37.2067 336.713 37.0067 337.38 36.82C336.953 36.6867 336.62 36.42 336.38 36.02L334.66 33.46C334.367 32.98 334.273 32.4733 334.38 31.94C334.487 31.38 334.78 30.94 335.26 30.62C335.767 30.3 336.3 30.2067 336.86 30.34C337.42 30.4467 337.847 30.74 338.14 31.22L339.82 33.74C340.087 34.14 340.207 34.5667 340.18 35.02C340.153 35.4467 339.993 35.8467 339.7 36.22C339.887 36.1667 340.06 36.1133 340.22 36.06C340.38 36.0067 340.54 35.9667 340.7 35.94C343.473 35.2467 345.713 35.3533 347.42 36.26C349.127 37.1667 350.113 38.7 350.38 40.86C350.567 42.4067 350.34 43.7667 349.7 44.94C349.087 46.1133 348.167 47.0067 346.94 47.62C345.74 48.2333 344.367 48.5133 342.82 48.46C341.3 48.4067 339.74 47.94 338.14 47.06C337.633 46.7667 337.287 46.34 337.1 45.78C336.94 45.22 336.993 44.6867 337.26 44.18C337.553 43.6467 337.98 43.3 338.54 43.14C339.1 42.98 339.633 43.0467 340.14 43.34C341.313 44.0067 342.38 44.34 343.34 44.34C344.3 44.3133 345.047 44.0333 345.58 43.5C346.113 42.94 346.313 42.2067 346.18 41.3C346.073 40.5267 345.647 39.9933 344.9 39.7C344.18 39.4067 343.087 39.4333 341.62 39.78C340.633 40.0467 339.527 40.3533 338.3 40.7C337.1 41.0467 335.873 41.4333 334.62 41.86C335.34 44.0467 335.98 46.2467 336.54 48.46C337.127 50.6467 337.567 52.6333 337.86 54.42C337.967 55.0067 337.833 55.5267 337.46 55.98C337.113 56.46 336.647 56.7267 336.06 56.78ZM370.5 54.46C369.86 54.38 369.34 54.0733 368.94 53.54C368.54 53.0333 368.38 52.4467 368.46 51.78C368.54 51.1133 368.833 50.58 369.34 50.18C369.873 49.78 370.473 49.62 371.14 49.7C371.967 49.8067 372.7 49.8333 373.34 49.78C374.007 49.7 374.58 49.42 375.06 48.94C375.54 48.46 375.967 47.6733 376.34 46.58C376.713 45.4867 377.033 43.98 377.3 42.06C377.54 40.38 377.553 39.0733 377.34 38.14C377.153 37.18 376.66 36.5267 375.86 36.18C375.06 35.8067 373.873 35.6733 372.3 35.78C371.66 37.9667 370.887 40.1533 369.98 42.34C369.1 44.5267 368.127 46.6067 367.06 48.58C365.993 50.5267 364.833 52.2867 363.58 53.86C363.153 54.3667 362.62 54.66 361.98 54.74C361.34 54.8467 360.753 54.7 360.22 54.3C359.713 53.8733 359.407 53.34 359.3 52.7C359.22 52.0333 359.393 51.4467 359.82 50.94C361.393 49.02 362.82 46.7667 364.1 44.18C365.38 41.5933 366.46 38.9267 367.34 36.18C366.513 36.2867 365.66 36.3933 364.78 36.5C363.927 36.58 363.087 36.66 362.26 36.74C361.593 36.7933 361.007 36.62 360.5 36.22C359.993 35.82 359.7 35.2867 359.62 34.62C359.567 33.9533 359.74 33.3667 360.14 32.86C360.54 32.3267 361.073 32.0333 361.74 31.98C362.887 31.8467 364.047 31.74 365.22 31.66C366.393 31.5533 367.54 31.4733 368.66 31.42C368.953 30.22 369.18 29.0467 369.34 27.9C369.5 26.7267 369.607 25.6067 369.66 24.54C369.713 23.8733 369.98 23.3267 370.46 22.9C370.967 22.4467 371.553 22.2467 372.22 22.3C372.887 22.3267 373.433 22.5933 373.86 23.1C374.313 23.58 374.513 24.1533 374.46 24.82C374.353 25.8067 374.22 26.8333 374.06 27.9C373.9 28.9667 373.7 30.06 373.46 31.18C377.087 31.2333 379.54 32.2067 380.82 34.1C382.127 35.9933 382.513 38.86 381.98 42.7C381.553 46.0067 380.86 48.5667 379.9 50.38C378.967 52.1933 377.727 53.3933 376.18 53.98C374.633 54.5933 372.74 54.7533 370.5 54.46ZM392.82 42.7C392.233 43.02 391.62 43.0867 390.98 42.9C390.34 42.7133 389.86 42.3267 389.54 41.74C389.087 40.8867 388.513 39.9933 387.82 39.06C387.127 38.1 386.407 37.18 385.66 36.3C384.94 35.3933 384.247 34.62 383.58 33.98C383.1 33.5267 382.847 32.98 382.82 32.34C382.793 31.6733 383.007 31.1 383.46 30.62C383.913 30.14 384.46 29.9 385.1 29.9C385.767 29.8733 386.34 30.0867 386.82 30.54C387.673 31.34 388.527 32.26 389.38 33.3C390.26 34.3133 391.073 35.3533 391.82 36.42C392.593 37.4867 393.233 38.5 393.74 39.46C394.06 40.0467 394.127 40.66 393.94 41.3C393.78 41.9133 393.407 42.38 392.82 42.7ZM389.46 30.66C389.113 30.3133 388.673 29.9 388.14 29.42C387.633 28.9133 387.153 28.4733 386.7 28.1C386.433 27.86 386.273 27.5267 386.22 27.1C386.193 26.6733 386.327 26.2867 386.62 25.94C386.913 25.5933 387.26 25.4067 387.66 25.38C388.087 25.3533 388.473 25.4467 388.82 25.66C389.273 25.9267 389.793 26.3133 390.38 26.82C390.993 27.3 391.5 27.74 391.9 28.14C392.247 28.4867 392.42 28.9 392.42 29.38C392.42 29.8333 392.26 30.2467 391.94 30.62C391.62 30.9667 391.207 31.1533 390.7 31.18C390.22 31.18 389.807 31.0067 389.46 30.66ZM392.82 26.9C392.447 26.58 391.967 26.1933 391.38 25.74C390.82 25.2867 390.313 24.8867 389.86 24.54C389.593 24.3 389.42 23.9667 389.34 23.54C389.287 23.1133 389.393 22.7267 389.66 22.38C389.9 22.0333 390.22 21.8333 390.62 21.78C391.047 21.7 391.447 21.7667 391.82 21.98C392.273 22.22 392.82 22.5667 393.46 23.02C394.1 23.4467 394.633 23.8467 395.06 24.22C395.433 24.54 395.633 24.94 395.66 25.42C395.687 25.9 395.553 26.3267 395.26 26.7C394.993 27.0733 394.607 27.2867 394.1 27.34C393.62 27.3933 393.193 27.2467 392.82 26.9ZM408.74 56.5C408.1 56.5 407.553 56.2733 407.1 55.82C406.647 55.3667 406.42 54.82 406.42 54.18V45.38C405.967 46.0733 405.513 46.7667 405.06 47.46C404.633 48.1267 404.233 48.7667 403.86 49.38C403.513 49.94 403.007 50.2867 402.34 50.42C401.7 50.5267 401.113 50.4067 400.58 50.06C400.047 49.6867 399.713 49.18 399.58 48.54C399.473 47.8733 399.607 47.2733 399.98 46.74C400.753 45.7 401.687 44.3933 402.78 42.82C403.9 41.22 405.113 39.5933 406.42 37.94V32.82C406.34 32.8467 406.247 32.8733 406.14 32.9C406.033 32.9 405.927 32.9267 405.82 32.98C405.527 33.0333 405.1 33.14 404.54 33.3C404.007 33.46 403.487 33.62 402.98 33.78C402.5 33.9133 402.167 34.0067 401.98 34.06C401.34 34.1933 400.74 34.0867 400.18 33.74C399.62 33.3933 399.26 32.8867 399.1 32.22C398.967 31.58 399.073 30.98 399.42 30.42C399.793 29.86 400.3 29.5133 400.94 29.38C401.18 29.3267 401.553 29.2467 402.06 29.14C402.567 29.0067 403.1 28.8867 403.66 28.78C404.247 28.6467 404.74 28.54 405.14 28.46C405.567 28.3533 405.993 28.2733 406.42 28.22V22.46C406.42 21.82 406.647 21.2733 407.1 20.82C407.553 20.3667 408.1 20.14 408.74 20.14C409.38 20.14 409.927 20.3667 410.38 20.82C410.833 21.2733 411.06 21.82 411.06 22.46V29.02C411.513 29.3133 411.887 29.74 412.18 30.3C412.367 30.62 412.5 30.9933 412.58 31.42C413.833 30.38 415.073 29.54 416.3 28.9C417.553 28.26 418.793 27.94 420.02 27.94C422.98 27.94 425.06 28.9267 426.26 30.9C427.46 32.8467 427.673 35.9667 426.9 40.26C426.607 41.9667 426.393 43.34 426.26 44.38C426.127 45.3933 426.06 46.1667 426.06 46.7C426.087 47.2333 426.153 47.6067 426.26 47.82C426.393 48.0333 426.567 48.2067 426.78 48.34C427.393 48.66 428.073 48.6867 428.82 48.42C429.567 48.1267 430.353 47.58 431.18 46.78C431.66 46.3267 432.233 46.14 432.9 46.22C433.567 46.3 434.113 46.5933 434.54 47.1C434.993 47.6067 435.18 48.1933 435.1 48.86C435.047 49.5 434.78 50.0467 434.3 50.5C432.673 52.0467 430.913 53.0067 429.02 53.38C427.127 53.7267 425.42 53.4867 423.9 52.66C422.993 52.1267 422.327 51.4067 421.9 50.5C421.473 49.5933 421.273 48.38 421.3 46.86C421.327 45.34 421.553 43.4067 421.98 41.06C422.407 38.7133 422.593 36.94 422.54 35.74C422.487 34.5133 422.22 33.6867 421.74 33.26C421.287 32.8067 420.633 32.58 419.78 32.58C418.98 32.58 418.1 32.8733 417.14 33.46C416.18 34.0467 415.18 34.8333 414.14 35.82C413.127 36.8067 412.1 37.9133 411.06 39.14V54.18C411.06 54.82 410.833 55.3667 410.38 55.82C409.927 56.2733 409.38 56.5 408.74 56.5Z" fill="#010F32"/>
<g clip-path="url(#clip0_433_570)">
<path d="M35.4999 29.1564C32.5356 29.1564 30.0913 26.7368 30.0913 23.8024C30.0913 20.8681 32.5356 18.5 35.4999 18.5C38.4643 18.5 40.9085 20.9196 40.9085 23.8539C40.9085 26.7883 38.4643 29.1564 35.4999 29.1564ZM35.4999 21.8462C34.4078 21.8462 33.4717 22.7214 33.4717 23.8539C33.4717 24.9865 34.3558 25.8616 35.4999 25.8616C36.5921 25.8616 37.5282 24.9865 37.5282 23.8539C37.5282 22.7214 36.5921 21.8462 35.4999 21.8462Z" fill="#010F32"/>
<path d="M50.3217 36.5184C47.3574 36.5184 44.9131 34.0988 44.9131 31.1645C44.9131 28.2301 47.3574 25.8105 50.3217 25.8105C53.286 25.8105 55.7303 28.2301 55.7303 31.1645C55.7303 34.0988 53.286 36.5184 50.3217 36.5184ZM50.3217 29.1568C49.2296 29.1568 48.2935 30.0319 48.2935 31.1645C48.2935 32.297 49.1776 33.1722 50.3217 33.1722C51.4138 33.1722 52.3499 32.297 52.3499 31.1645C52.3499 30.0319 51.4138 29.1568 50.3217 29.1568Z" fill="#010F32"/>
<path d="M65.0912 43.8289C62.1269 43.8289 59.6826 41.4094 59.6826 38.475C59.6826 35.5407 62.1269 33.1211 65.0912 33.1211C68.0556 33.1211 70.4999 35.5407 70.4999 38.475C70.4999 41.4609 68.1076 43.8289 65.0912 43.8289ZM65.0912 36.5188C63.9991 36.5188 63.063 37.3939 63.063 38.5265C63.063 39.6591 63.9471 40.5342 65.0912 40.5342C66.1834 40.5342 67.1195 39.6591 67.1195 38.5265C67.1195 37.3939 66.2354 36.5188 65.0912 36.5188Z" fill="#010F32"/>
<path d="M50.3217 51.1375C47.3574 51.1375 44.9131 48.718 44.9131 45.7836C44.9131 42.8493 47.3574 40.4297 50.3217 40.4297C53.286 40.4297 55.7303 42.8493 55.7303 45.7836C55.6783 48.7695 53.286 51.1375 50.3217 51.1375ZM50.3217 43.8274C49.2296 43.8274 48.2935 44.7025 48.2935 45.8351C48.2935 46.9162 49.1776 47.8428 50.3217 47.8428C51.4138 47.8428 52.3499 46.9677 52.3499 45.8351C52.2979 44.7025 51.4138 43.8274 50.3217 43.8274Z" fill="#010F32"/>
<path d="M35.4999 58.5008C32.5356 58.5008 30.0913 56.0813 30.0913 53.1469C30.0913 50.2125 32.5356 47.793 35.4999 47.793C38.4643 47.793 40.9085 50.2125 40.9085 53.1469C40.9085 56.0813 38.4643 58.5008 35.4999 58.5008ZM35.4999 51.1392C34.4078 51.1392 33.4717 52.0143 33.4717 53.1469C33.4717 54.228 34.3558 55.1546 35.4999 55.1546C36.5921 55.1546 37.5282 54.2795 37.5282 53.1469C37.5282 52.0658 36.5921 51.1392 35.4999 51.1392Z" fill="#010F32"/>
<path d="M35.4999 43.8289C32.5356 43.8289 30.0913 41.4094 30.0913 38.475C30.0913 35.5407 32.5356 33.1211 35.4999 33.1211C38.4643 33.1211 40.9085 35.5407 40.9085 38.475C40.9085 41.4609 38.4643 43.8289 35.4999 43.8289ZM35.4999 36.5188C34.4078 36.5188 33.4717 37.3939 33.4717 38.5265C33.4717 39.6591 34.3558 40.5342 35.4999 40.5342C36.5921 40.5342 37.5282 39.6591 37.5282 38.5265C37.5282 37.3939 36.5921 36.5188 35.4999 36.5188Z" fill="#010F32"/>
<path d="M20.6781 51.1375C17.7138 51.1375 15.2695 48.718 15.2695 45.7836C15.2695 42.8493 17.7138 40.4297 20.6781 40.4297C23.6425 40.4297 26.0868 42.8493 26.0868 45.7836C26.0868 48.7695 23.6945 51.1375 20.6781 51.1375ZM20.6781 43.8274C19.586 43.8274 18.6499 44.7025 18.6499 45.8351C18.6499 46.9162 19.534 47.8428 20.6781 47.8428C21.7703 47.8428 22.7064 46.9677 22.7064 45.8351C22.7064 44.7025 21.8223 43.8274 20.6781 43.8274Z" fill="#010F32"/>
<path d="M5.90862 43.8289C2.94428 43.8289 0.5 41.4609 0.5 38.475C0.5 35.5407 2.94428 33.1211 5.90862 33.1211C8.87296 33.1211 11.3172 35.5407 11.3172 38.475C11.2652 41.4609 8.87296 43.8289 5.90862 43.8289ZM5.90862 36.5188C4.81649 36.5188 3.88039 37.3939 3.88039 38.5265C3.88039 39.6591 4.76449 40.5342 5.90862 40.5342C7.00074 40.5342 7.93685 39.6591 7.93685 38.5265C7.93685 37.3939 7.00074 36.5188 5.90862 36.5188Z" fill="#010F32"/>
<path d="M20.6784 36.5184C17.7141 36.5184 15.2698 34.0988 15.2698 31.1645C15.2698 28.2301 17.7141 25.8105 20.6784 25.8105C23.6427 25.8105 26.087 28.2301 26.087 31.1645C26.087 34.0988 23.6947 36.5184 20.6784 36.5184ZM20.6784 29.1568C19.5863 29.1568 18.6502 30.0319 18.6502 31.1645C18.6502 32.297 19.5343 33.1722 20.6784 33.1722C21.7705 33.1722 22.7066 32.297 22.7066 31.1645C22.7066 30.0319 21.8225 29.1568 20.6784 29.1568Z" fill="#010F32"/>
</g>
<g clip-path="url(#clip1_433_570)">
<path d="M515.5 29.1564C512.536 29.1564 510.091 26.7368 510.091 23.8024C510.091 20.8681 512.536 18.5 515.5 18.5C518.464 18.5 520.909 20.9196 520.909 23.8539C520.909 26.7883 518.464 29.1564 515.5 29.1564ZM515.5 21.8462C514.408 21.8462 513.472 22.7214 513.472 23.8539C513.472 24.9865 514.356 25.8616 515.5 25.8616C516.592 25.8616 517.528 24.9865 517.528 23.8539C517.528 22.7214 516.592 21.8462 515.5 21.8462Z" fill="#010F32"/>
<path d="M530.322 36.5184C527.357 36.5184 524.913 34.0988 524.913 31.1645C524.913 28.2301 527.357 25.8105 530.322 25.8105C533.286 25.8105 535.73 28.2301 535.73 31.1645C535.73 34.0988 533.286 36.5184 530.322 36.5184ZM530.322 29.1568C529.23 29.1568 528.293 30.0319 528.293 31.1645C528.293 32.297 529.178 33.1722 530.322 33.1722C531.414 33.1722 532.35 32.297 532.35 31.1645C532.35 30.0319 531.414 29.1568 530.322 29.1568Z" fill="#010F32"/>
<path d="M545.091 43.8289C542.127 43.8289 539.683 41.4094 539.683 38.475C539.683 35.5407 542.127 33.1211 545.091 33.1211C548.056 33.1211 550.5 35.5407 550.5 38.475C550.5 41.4609 548.108 43.8289 545.091 43.8289ZM545.091 36.5188C543.999 36.5188 543.063 37.3939 543.063 38.5265C543.063 39.6591 543.947 40.5342 545.091 40.5342C546.183 40.5342 547.119 39.6591 547.119 38.5265C547.119 37.3939 546.235 36.5188 545.091 36.5188Z" fill="#010F32"/>
<path d="M530.322 51.1375C527.357 51.1375 524.913 48.718 524.913 45.7836C524.913 42.8493 527.357 40.4297 530.322 40.4297C533.286 40.4297 535.73 42.8493 535.73 45.7836C535.678 48.7695 533.286 51.1375 530.322 51.1375ZM530.322 43.8274C529.23 43.8274 528.293 44.7025 528.293 45.8351C528.293 46.9162 529.178 47.8428 530.322 47.8428C531.414 47.8428 532.35 46.9677 532.35 45.8351C532.298 44.7025 531.414 43.8274 530.322 43.8274Z" fill="#010F32"/>
<path d="M515.5 58.5008C512.536 58.5008 510.091 56.0813 510.091 53.1469C510.091 50.2125 512.536 47.793 515.5 47.793C518.464 47.793 520.909 50.2125 520.909 53.1469C520.909 56.0813 518.464 58.5008 515.5 58.5008ZM515.5 51.1392C514.408 51.1392 513.472 52.0143 513.472 53.1469C513.472 54.228 514.356 55.1546 515.5 55.1546C516.592 55.1546 517.528 54.2795 517.528 53.1469C517.528 52.0658 516.592 51.1392 515.5 51.1392Z" fill="#010F32"/>
<path d="M515.5 43.8289C512.536 43.8289 510.091 41.4094 510.091 38.475C510.091 35.5407 512.536 33.1211 515.5 33.1211C518.464 33.1211 520.909 35.5407 520.909 38.475C520.909 41.4609 518.464 43.8289 515.5 43.8289ZM515.5 36.5188C514.408 36.5188 513.472 37.3939 513.472 38.5265C513.472 39.6591 514.356 40.5342 515.5 40.5342C516.592 40.5342 517.528 39.6591 517.528 38.5265C517.528 37.3939 516.592 36.5188 515.5 36.5188Z" fill="#010F32"/>
<path d="M500.678 51.1375C497.714 51.1375 495.27 48.718 495.27 45.7836C495.27 42.8493 497.714 40.4297 500.678 40.4297C503.642 40.4297 506.087 42.8493 506.087 45.7836C506.087 48.7695 503.694 51.1375 500.678 51.1375ZM500.678 43.8274C499.586 43.8274 498.65 44.7025 498.65 45.8351C498.65 46.9162 499.534 47.8428 500.678 47.8428C501.77 47.8428 502.706 46.9677 502.706 45.8351C502.706 44.7025 501.822 43.8274 500.678 43.8274Z" fill="#010F32"/>
<path d="M485.909 43.8289C482.944 43.8289 480.5 41.4609 480.5 38.475C480.5 35.5407 482.944 33.1211 485.909 33.1211C488.873 33.1211 491.317 35.5407 491.317 38.475C491.265 41.4609 488.873 43.8289 485.909 43.8289ZM485.909 36.5188C484.816 36.5188 483.88 37.3939 483.88 38.5265C483.88 39.6591 484.764 40.5342 485.909 40.5342C487.001 40.5342 487.937 39.6591 487.937 38.5265C487.937 37.3939 487.001 36.5188 485.909 36.5188Z" fill="#010F32"/>
<path d="M500.678 36.5184C497.714 36.5184 495.27 34.0988 495.27 31.1645C495.27 28.2301 497.714 25.8105 500.678 25.8105C503.643 25.8105 506.087 28.2301 506.087 31.1645C506.087 34.0988 503.695 36.5184 500.678 36.5184ZM500.678 29.1568C499.586 29.1568 498.65 30.0319 498.65 31.1645C498.65 32.297 499.534 33.1722 500.678 33.1722C501.771 33.1722 502.707 32.297 502.707 31.1645C502.707 30.0319 501.823 29.1568 500.678 29.1568Z" fill="#010F32"/>
</g>
<defs>
<clipPath id="clip0_433_570">
<rect width="70" height="40" fill="white" transform="translate(0.5 18.5)"/>
</clipPath>
<clipPath id="clip1_433_570">
<rect width="70" height="40" fill="white" transform="translate(480.5 18.5)"/>
</clipPath>
</defs>
</svg>
