<svg width="540" height="74" viewBox="0 0 540 74" fill="none" xmlns="http://www.w3.org/2000/svg">
<path d="M9.57274 68.6849C9.45001 68.6849 9.20456 68.6849 9.08183 68.5622C8.4682 68.3169 8.10001 67.581 8.34547 66.9677L20.6182 36.7954L8.4682 6.62299C8.22274 6.00973 8.59092 5.27382 9.20456 5.02851C9.8182 4.78321 10.5546 5.02851 10.8 5.76442L23.1955 36.4274C23.3182 36.6727 23.3182 37.0407 23.1955 37.286L10.8 67.949C10.5546 68.4396 10.0637 68.6849 9.57274 68.6849Z" fill="#010F32"/>
<path d="M518.645 68.685H22.4591C21.7227 68.685 21.2318 68.1944 21.2318 67.4585C21.2318 66.7225 21.7227 66.2319 22.4591 66.2319H518.645C519.382 66.2319 519.873 66.7225 519.873 67.4585C519.873 68.1944 519.382 68.685 518.645 68.685Z" fill="#010F32"/>
<path d="M530.427 68.6849C529.936 68.6849 529.445 68.317 529.323 67.8264L518.155 37.1634C518.032 36.9181 518.032 36.5501 518.155 36.3048L529.323 5.64185C529.568 5.02859 530.305 4.66063 530.918 4.90594C531.532 5.15124 531.9 5.88715 531.655 6.50041L520.609 36.7954L531.655 67.0905C531.9 67.7037 531.532 68.4396 530.918 68.6849C530.673 68.6849 530.55 68.6849 530.427 68.6849Z" fill="#010F32"/>
<path d="M518.645 7.3588H22.4591C21.7227 7.3588 21.2318 6.86819 21.2318 6.13228C21.2318 5.39637 21.7227 4.90576 22.4591 4.90576H518.645C519.382 4.90576 519.873 5.39637 519.873 6.13228C519.873 6.86819 519.382 7.3588 518.645 7.3588Z" fill="#010F32"/>
<path d="M123.586 52.9856C121.377 52.9856 119.414 52.6176 117.45 51.8817C115.609 51.1458 113.891 49.9193 112.541 48.0795C112.05 47.3436 111.927 46.7303 112.05 46.1171C112.173 45.5038 112.664 45.0132 113.4 44.6453C114.136 44.1546 114.75 44.032 115.364 44.1546C115.977 44.2773 116.468 44.7679 117.082 45.3812C117.818 46.2397 118.8 46.853 119.905 47.3436C121.009 47.8342 122.359 48.0795 123.832 48.0795C125.918 48.0795 127.391 47.7115 128.127 46.9756C128.864 46.2397 129.355 45.2585 129.355 43.9093C129.355 43.0508 129.232 42.4375 128.864 41.8243C128.495 41.211 127.759 40.7204 126.532 40.1071C125.427 39.6165 123.586 39.1259 121.132 38.5127C118.309 37.7767 116.1 36.7955 114.75 35.3237C113.4 33.8519 112.664 32.0121 112.664 29.6817C112.664 27.8419 113.155 26.2475 114.014 24.8983C114.873 23.5491 116.1 22.4452 117.695 21.7093C119.291 20.9734 121.132 20.6055 123.218 20.6055C125.427 20.6055 127.391 20.9734 128.986 21.7093C130.582 22.4452 132.055 23.4265 133.159 24.653C133.773 25.2662 133.895 25.8795 133.773 26.4928C133.65 27.106 133.282 27.7193 132.668 28.2099C132.055 28.7005 131.441 28.9458 130.827 28.8231C130.214 28.7005 129.6 28.3325 129.109 27.8419C128.373 27.106 127.514 26.6154 126.532 26.1248C125.55 25.6342 124.445 25.5115 123.218 25.5115C121.745 25.5115 120.395 25.8795 119.536 26.4928C118.555 27.106 118.064 28.2099 118.064 29.4364C118.064 30.0497 118.186 30.5403 118.432 31.1535C118.677 31.6441 119.291 32.2574 120.273 32.748C121.255 33.2386 122.727 33.7292 124.691 34.2198C128.25 34.9557 130.827 36.1823 132.3 37.7767C133.895 39.3712 134.632 41.3336 134.632 43.7867C134.632 46.7303 133.65 48.9381 131.564 50.5325C129.723 52.127 127.023 52.9856 123.586 52.9856Z" fill="#010F32"/>
<path d="M143.468 52.3726C141.75 52.3726 140.891 51.5141 140.891 49.797V24.04C140.891 22.3229 141.75 21.4644 143.468 21.4644H144.082C145.432 21.4644 146.414 22.0776 147.273 23.1815L160.65 43.4191V24.04C160.65 23.1815 160.895 22.5682 161.386 22.0776C161.877 21.587 162.491 21.4644 163.35 21.4644C165.068 21.4644 165.927 22.3229 165.927 24.04V49.797C165.927 51.5141 165.068 52.3726 163.473 52.3726H162.982C161.632 52.3726 160.527 51.7594 159.791 50.6555L146.045 29.8047V49.797C146.045 51.3914 145.186 52.3726 143.468 52.3726Z" fill="#010F32"/>
<path d="M183.723 52.9855C181.514 52.9855 179.55 52.6175 177.586 51.8816C175.745 51.1457 174.027 49.9192 172.677 48.0794C172.186 47.3435 172.064 46.7302 172.186 46.117C172.309 45.5037 172.8 45.0131 173.536 44.6452C174.273 44.2772 174.886 44.1545 175.377 44.2772C175.991 44.3998 176.482 44.8905 177.095 45.5037C177.832 46.3623 178.814 46.9755 179.918 47.4662C181.023 47.9568 182.373 48.2021 183.845 48.2021C185.932 48.2021 187.405 47.8341 188.141 47.0982C189 46.3623 189.368 45.3811 189.368 44.0319C189.368 43.1733 189.123 42.5601 188.755 41.9468C188.386 41.3336 187.65 40.8429 186.423 40.2297C185.318 39.7391 183.477 39.2485 181.023 38.6352C178.2 37.8993 176.114 36.9181 174.641 35.4463C173.291 33.9744 172.555 32.1347 172.555 29.8043C172.555 27.9645 173.045 26.37 173.905 25.0208C174.764 23.6717 175.991 22.5678 177.586 21.8319C179.182 21.096 181.023 20.728 183.109 20.728C185.318 20.728 187.282 21.096 188.877 21.8319C190.473 22.5678 191.945 23.549 193.05 24.7755C193.664 25.3888 193.786 26.0021 193.664 26.6153C193.541 27.2286 193.173 27.8418 192.559 28.3324C191.945 28.8231 191.332 29.0684 190.718 28.9457C190.105 28.8231 189.491 28.4551 189 27.9645C188.264 27.2286 187.405 26.738 186.423 26.2474C185.441 25.7568 184.336 25.6341 183.109 25.6341C181.636 25.6341 180.286 26.0021 179.427 26.6153C178.445 27.2286 177.955 28.3324 177.955 29.559C177.955 30.1722 178.077 30.6628 178.323 31.2761C178.568 31.7667 179.182 32.38 180.164 32.8706C181.145 33.3612 182.618 33.8518 184.582 34.3424C188.141 35.0783 190.718 36.3048 192.191 37.8993C193.786 39.4938 194.523 41.4562 194.523 43.9092C194.523 46.8529 193.541 49.0606 191.455 50.6551C189.368 52.2496 187.159 52.9855 183.723 52.9855Z" fill="#010F32"/>
<path d="M224.1 54.3348C223.364 54.4575 222.75 54.2122 222.136 53.7216C221.523 53.231 221.155 52.6177 221.155 51.8818C221.032 51.1459 220.909 49.7967 220.664 47.8343C220.418 45.8719 220.05 43.7868 219.805 41.4564C217.964 41.7017 216.123 41.8243 214.405 42.0696C212.686 42.315 211.214 42.4376 209.986 42.6829C208.759 42.8056 207.777 42.9282 207.286 43.0509C206.55 43.1735 205.936 42.9282 205.323 42.4376C204.709 41.947 204.464 41.3337 204.341 40.5978C204.218 39.8619 204.464 39.126 204.955 38.6354C205.445 38.0221 206.059 37.7768 206.795 37.6542C207.286 37.6542 208.145 37.5315 209.373 37.4089C210.6 37.2862 212.073 37.1636 213.791 36.9183C215.509 36.673 217.35 36.5503 219.191 36.305L218.455 31.2763C216.491 31.5216 214.773 31.6442 213.177 31.8895C211.582 32.1348 210.477 32.2575 209.986 32.2575C209.25 32.3801 208.636 32.1348 208.023 31.6442C207.409 31.1536 207.164 30.5404 207.041 29.8045C207.041 29.0685 207.164 28.4553 207.655 27.842C208.145 27.2288 208.759 26.9835 209.495 26.8608C209.986 26.8608 210.968 26.7382 212.564 26.4929C214.159 26.3702 215.877 26.1249 217.841 25.8796C217.473 23.5492 217.227 21.8321 217.105 20.7282C216.982 19.9923 217.105 19.2564 217.595 18.6431C218.086 18.0299 218.7 17.6619 219.436 17.6619C220.173 17.5393 220.909 17.6619 221.523 18.1525C222.136 18.6431 222.505 19.2564 222.505 19.9923C222.505 20.6056 222.627 21.3415 222.75 22.2C222.873 23.0586 222.995 24.1625 223.118 25.2663C224.836 25.021 226.432 24.8984 227.905 24.6531C229.377 24.5304 230.482 24.4078 231.218 24.2851C231.955 24.1625 232.568 24.4078 233.182 24.8984C233.795 25.389 234.041 26.0022 234.164 26.7382C234.164 27.4741 234.041 28.0873 233.55 28.7006C233.059 29.3138 232.445 29.5592 231.709 29.6818C230.973 29.6818 229.868 29.8045 228.518 30.0498C227.045 30.1724 225.573 30.4177 223.855 30.5404L224.591 35.5691C226.432 35.3238 228.027 35.0785 229.623 34.9558C231.218 34.8332 232.568 34.5879 233.673 34.4652C234.777 34.3426 235.636 34.2199 236.005 34.2199C236.986 34.5879 237.723 34.9558 238.214 35.3238C238.705 35.6917 238.95 36.0597 239.073 36.5503C239.195 37.2862 238.95 37.8995 238.459 38.5127C237.968 39.126 237.355 39.3713 236.618 39.494C236.127 39.494 235.391 39.6166 234.286 39.7393C233.182 39.8619 231.832 39.9846 230.236 40.2299C228.641 40.4752 227.045 40.5978 225.205 40.8431C225.573 43.1735 225.818 45.3813 226.064 47.221C226.309 49.0608 226.555 50.41 226.677 51.1459C226.8 51.8818 226.677 52.4951 226.186 53.1083C225.573 53.8442 224.959 54.2122 224.1 54.3348Z" fill="#010F32"/>
<path d="M262.391 55.8066C261.777 55.9293 261.164 55.8066 260.55 55.4387C259.936 55.0707 259.691 54.5801 259.568 53.9668C259.445 52.863 259.2 51.6365 258.832 50.042C258.464 48.4475 258.218 46.853 257.727 45.0133C257.359 43.1735 256.868 41.4563 256.5 39.6166C254.905 39.8619 253.309 40.2298 251.959 40.4751C250.486 40.7204 249.382 40.9657 248.645 41.0884C248.032 41.211 247.418 40.9657 246.927 40.5978C246.436 40.2298 246.068 39.6166 245.945 39.0033C245.823 38.39 246.068 37.7768 246.436 37.2862C246.805 36.7956 247.418 36.4276 248.032 36.4276C248.768 36.305 249.75 36.1823 251.1 35.937C252.45 35.6917 253.923 35.4464 255.518 35.2011C255.027 33.116 254.536 31.5215 254.045 30.0497C253.8 29.4365 253.923 28.8232 254.168 28.2099C254.536 27.5967 255.027 27.2287 255.641 27.1061C256.255 26.9834 256.868 26.9834 257.482 27.3514C258.095 27.7193 258.464 28.0873 258.586 28.8232C258.832 29.5591 259.077 30.4177 259.323 31.3989C259.568 32.3801 259.814 33.3613 260.059 34.4652L266.686 33.3613C271.35 32.6254 274.05 33.8519 274.786 37.4088C275.155 39.3713 274.786 41.0884 273.436 42.6829C272.086 44.2773 270 45.6265 266.932 46.6077C266.318 46.853 265.705 46.7304 265.091 46.4851C264.477 46.2398 264.109 45.7492 263.864 45.1359C263.618 44.5226 263.741 43.9094 263.986 43.2961C264.232 42.6829 264.723 42.3149 265.336 42.0696C266.686 41.579 267.668 41.0884 268.282 40.7204C268.895 40.3525 269.386 39.9845 269.509 39.6166C269.755 39.2486 269.755 38.8807 269.632 38.5127C269.632 38.1447 269.386 37.8994 269.018 37.7768C268.65 37.6541 268.159 37.6541 267.423 37.7768C266.564 37.8994 265.582 38.1447 264.355 38.2674C263.25 38.5127 262.023 38.6354 260.795 38.8807C261.286 40.7204 261.655 42.4376 262.023 44.2773C262.391 46.1171 262.759 47.7116 263.127 49.3061C263.495 50.7779 263.741 52.1271 263.986 53.2309C264.109 53.8442 263.986 54.4575 263.618 55.0707C263.618 55.316 263.005 55.684 262.391 55.8066Z" fill="#010F32"/>
<path d="M289.145 33.2385C288.041 32.2573 286.814 31.2761 285.341 30.2949C283.868 29.3136 282.764 28.4551 281.536 27.8418C280.923 27.4739 280.432 26.8606 280.309 26.1247C280.186 25.3888 280.186 24.7755 280.677 24.0396C281.045 23.4263 281.659 22.9357 282.395 22.8131C283.132 22.5678 283.745 22.6904 284.482 23.181C285.218 23.6716 286.2 24.2849 287.182 25.0208C288.164 25.7567 289.145 26.4926 290.127 27.1059C291.109 27.8418 291.845 28.4551 292.459 28.9457C293.073 29.4363 293.441 30.0495 293.441 30.7855C293.564 31.5214 293.318 32.2573 292.827 32.7479C292.336 33.3611 291.723 33.7291 290.986 33.7291C290.495 33.8518 289.759 33.6065 289.145 33.2385ZM285.341 50.5324C284.605 50.7777 283.991 50.7777 283.255 50.4098C282.518 50.0418 282.027 49.5512 281.782 48.8153C281.536 48.0794 281.536 47.4661 281.905 46.7302C282.273 45.9943 282.764 45.5037 283.5 45.2584C285.832 44.3998 288.286 43.4186 290.618 42.1921C293.073 40.9656 295.282 39.6164 297.491 38.2672C299.7 36.7954 301.664 35.3236 303.505 33.8518C305.345 32.3799 306.818 30.9081 307.923 29.4363C308.414 28.823 309.027 28.4551 309.764 28.4551C310.5 28.3324 311.114 28.5777 311.727 29.0683C312.341 29.5589 312.709 30.1722 312.709 30.9081C312.709 31.644 312.586 32.3799 312.095 32.8705C310.868 34.3424 309.273 35.9368 307.309 37.5313C305.345 39.2484 303.014 40.8429 300.559 42.4374C298.105 44.0319 295.527 45.5037 292.95 46.9755C290.373 48.57 287.918 49.6739 285.341 50.5324Z" fill="#010F32"/>
<path d="M351.859 47.3437C351 46.4852 349.895 45.5039 348.545 44.2774C347.195 43.1736 345.845 41.947 344.25 40.5979C342.777 39.3713 341.305 38.1448 339.832 37.041C338.359 35.9371 337.132 34.9559 336.027 34.0973C335.168 33.4841 334.432 33.1161 333.818 32.8708C333.205 32.6255 332.468 32.6255 331.732 32.7481C330.995 32.8708 330.136 33.2388 329.155 33.852C328.295 34.3426 327.436 34.8332 326.332 35.5691C325.227 36.1824 324.245 36.7957 323.264 37.4089C322.282 38.0222 321.423 38.5128 320.809 38.8807C320.195 39.2487 319.459 39.3714 318.723 39.2487C317.986 39.126 317.373 38.6354 317.005 38.0222C316.636 37.4089 316.514 36.673 316.636 35.9371C316.759 35.2012 317.25 34.5879 317.864 34.22C318.477 33.852 319.336 33.3614 320.318 32.7481C321.423 32.1349 322.405 31.5216 323.632 30.9084C324.736 30.2951 325.718 29.6818 326.577 29.1912C328.295 28.21 329.891 27.5968 331.241 27.3515C332.591 27.1062 333.818 27.1062 335.045 27.4741C336.273 27.8421 337.623 28.578 339.095 29.6818C339.832 30.2951 340.814 30.9084 341.918 31.7669C343.023 32.6255 344.25 33.6067 345.477 34.5879C346.705 35.5691 348.055 36.673 349.282 37.6542C350.509 38.7581 351.736 39.7393 352.841 40.7205C353.945 41.7017 354.927 42.5603 355.664 43.2962C356.277 43.7868 356.523 44.4001 356.523 45.136C356.523 45.8719 356.277 46.6078 355.664 47.2211C355.173 47.7117 354.436 48.0796 353.7 48.0796C353.086 48.0796 352.35 47.8343 351.859 47.3437ZM347.195 30.7857C345.968 30.7857 344.864 30.2951 344.005 29.4365C343.145 28.578 342.655 27.4741 342.655 26.2476C342.655 25.0211 343.145 23.9172 344.005 23.0586C344.864 22.2001 345.968 21.7095 347.195 21.7095C348.423 21.7095 349.527 22.2001 350.386 23.0586C351.245 23.9172 351.736 25.0211 351.736 26.2476C351.736 27.4741 351.245 28.4553 350.386 29.4365C349.527 30.4178 348.423 30.7857 347.195 30.7857ZM347.195 28.21C347.686 28.21 348.177 27.9647 348.545 27.5968C348.914 27.2288 349.159 26.7382 349.159 26.2476C349.159 25.757 348.914 25.2664 348.545 24.8984C348.177 24.5305 347.686 24.2852 347.195 24.2852C346.705 24.2852 346.214 24.5305 345.845 24.8984C345.477 25.2664 345.232 25.757 345.232 26.2476C345.232 26.7382 345.355 27.2288 345.845 27.5968C346.214 28.0874 346.705 28.21 347.195 28.21Z" fill="#010F32"/>
<path d="M361.432 38.3899C360.695 38.3899 360.082 38.1446 359.468 37.5314C358.977 37.0408 358.609 36.3049 358.609 35.5689C358.609 34.833 358.855 34.0971 359.468 33.6065C359.959 33.1159 360.695 32.8706 361.432 32.8706H388.923C389.659 32.8706 390.395 33.1159 390.886 33.6065C391.377 34.0971 391.623 34.833 391.623 35.5689C391.623 36.3049 391.377 36.9181 390.886 37.5314C390.395 38.022 389.659 38.3899 388.923 38.3899H361.432Z" fill="#010F32"/>
<path d="M404.264 33.2385C403.159 32.2573 401.932 31.2761 400.459 30.2949C398.986 29.3136 397.882 28.4551 396.655 27.8418C396.041 27.4739 395.55 26.8606 395.427 26.1247C395.305 25.3888 395.305 24.7755 395.795 24.0396C396.164 23.4263 396.777 22.9357 397.514 22.8131C398.25 22.5678 398.864 22.6904 399.6 23.181C400.336 23.6716 401.318 24.2849 402.3 25.0208C403.282 25.7567 404.264 26.4926 405.245 27.1059C406.227 27.8418 406.964 28.4551 407.577 28.9457C408.191 29.4363 408.559 30.0495 408.559 30.7855C408.682 31.5214 408.436 32.2573 407.945 32.7479C407.455 33.3611 406.841 33.7291 406.105 33.7291C405.491 33.8518 404.877 33.6065 404.264 33.2385ZM400.459 50.5324C399.723 50.7777 399.109 50.7777 398.373 50.4098C397.636 50.0418 397.145 49.5512 396.9 48.8153C396.655 48.0794 396.655 47.4661 397.023 46.7302C397.391 45.9943 397.882 45.5037 398.618 45.2584C400.95 44.3998 403.405 43.4186 405.736 42.1921C408.191 40.9656 410.4 39.6164 412.609 38.2672C414.818 36.7954 416.782 35.3236 418.623 33.8518C420.464 32.3799 421.936 30.9081 423.041 29.4363C423.532 28.823 424.145 28.4551 424.882 28.4551C425.618 28.3324 426.232 28.5777 426.845 29.0683C427.459 29.5589 427.827 30.1722 427.827 30.9081C427.827 31.644 427.705 32.3799 427.214 32.8705C425.986 34.3424 424.391 35.9368 422.427 37.5313C420.464 39.2484 418.132 40.8429 415.677 42.4374C413.223 44.0319 410.645 45.5037 408.068 46.9755C405.491 48.57 402.914 49.6739 400.459 50.5324Z" fill="#010F32"/>
</svg>
