<svg width="598" height="50" viewBox="0 0 598 50" fill="none" xmlns="http://www.w3.org/2000/svg">
<g clip-path="url(#clip0_98_111)">
<path d="M43 13.3205C39.3581 13.3205 36.3551 10.296 36.3551 6.62806C36.3551 2.9601 39.3581 0 43 0C46.6419 0 49.6449 3.02445 49.6449 6.69241C49.6449 10.3604 46.6419 13.3205 43 13.3205ZM43 4.18275C41.6583 4.18275 40.5082 5.27671 40.5082 6.69241C40.5082 8.10811 41.5944 9.20206 43 9.20206C44.3418 9.20206 45.4918 8.10811 45.4918 6.69241C45.4918 5.27671 44.3418 4.18275 43 4.18275Z" fill="#010F32"/>
<path d="M61.2095 22.5225C57.5676 22.5225 54.5646 19.4981 54.5646 15.8301C54.5646 12.1621 57.5676 9.1377 61.2095 9.1377C64.8514 9.1377 67.8544 12.1621 67.8544 15.8301C67.8544 19.4981 64.8514 22.5225 61.2095 22.5225ZM61.2095 13.3205C59.8678 13.3205 58.7177 14.4144 58.7177 15.8301C58.7177 17.2458 59.8039 18.3398 61.2095 18.3398C62.5513 18.3398 63.7013 17.2458 63.7013 15.8301C63.7013 14.4144 62.5513 13.3205 61.2095 13.3205Z" fill="#010F32"/>
<path d="M79.3551 31.6602C75.7132 31.6602 72.7103 28.6358 72.7103 24.9678C72.7103 21.2998 75.7132 18.2754 79.3551 18.2754C82.997 18.2754 86 21.2998 86 24.9678C86 28.7001 83.0609 31.6602 79.3551 31.6602ZM79.3551 22.5225C78.0134 22.5225 76.8633 23.6164 76.8633 25.0321C76.8633 26.4479 77.9495 27.5418 79.3551 27.5418C80.6969 27.5418 81.847 26.4479 81.847 25.0321C81.847 23.6164 80.7608 22.5225 79.3551 22.5225Z" fill="#010F32"/>
<path d="M61.2095 40.7979C57.5676 40.7979 54.5646 37.7734 54.5646 34.1055C54.5646 30.4375 57.5676 27.4131 61.2095 27.4131C64.8514 27.4131 67.8544 30.4375 67.8544 34.1055C67.7905 37.8378 64.8514 40.7979 61.2095 40.7979ZM61.2095 31.6602C59.8678 31.6602 58.7177 32.7541 58.7177 34.1698C58.7177 35.5212 59.8039 36.6795 61.2095 36.6795C62.5513 36.6795 63.7013 35.5855 63.7013 34.1698C63.6374 32.7541 62.5513 31.6602 61.2095 31.6602Z" fill="#010F32"/>
<path d="M43 50C39.3581 50 36.3551 46.9756 36.3551 43.3076C36.3551 39.6397 39.3581 36.6152 43 36.6152C46.6419 36.6152 49.6449 39.6397 49.6449 43.3076C49.6449 46.9756 46.6419 50 43 50ZM43 40.798C41.6583 40.798 40.5082 41.8919 40.5082 43.3076C40.5082 44.659 41.5944 45.8173 43 45.8173C44.3418 45.8173 45.4918 44.7233 45.4918 43.3076C45.4918 41.9563 44.3418 40.798 43 40.798Z" fill="#010F32"/>
<path d="M43 31.6602C39.3581 31.6602 36.3551 28.6358 36.3551 24.9678C36.3551 21.2998 39.3581 18.2754 43 18.2754C46.6419 18.2754 49.6449 21.2998 49.6449 24.9678C49.6449 28.7001 46.6419 31.6602 43 31.6602ZM43 22.5225C41.6583 22.5225 40.5082 23.6164 40.5082 25.0321C40.5082 26.4479 41.5944 27.5418 43 27.5418C44.3418 27.5418 45.4918 26.4479 45.4918 25.0321C45.4918 23.6164 44.3418 22.5225 43 22.5225Z" fill="#010F32"/>
<path d="M24.7905 40.7979C21.1486 40.7979 18.1456 37.7734 18.1456 34.1055C18.1456 30.4375 21.1486 27.4131 24.7905 27.4131C28.4324 27.4131 31.4354 30.4375 31.4354 34.1055C31.4354 37.8378 28.4963 40.7979 24.7905 40.7979ZM24.7905 31.6602C23.4488 31.6602 22.2987 32.7541 22.2987 34.1698C22.2987 35.5212 23.3849 36.6795 24.7905 36.6795C26.1323 36.6795 27.2823 35.5855 27.2823 34.1698C27.2823 32.7541 26.1961 31.6602 24.7905 31.6602Z" fill="#010F32"/>
<path d="M6.64487 31.6602C3.00297 31.6602 0 28.7001 0 24.9678C0 21.2998 3.00297 18.2754 6.64487 18.2754C10.2868 18.2754 13.2897 21.2998 13.2897 24.9678C13.2259 28.7001 10.2868 31.6602 6.64487 31.6602ZM6.64487 22.5225C5.30312 22.5225 4.15305 23.6164 4.15305 25.0321C4.15305 26.4479 5.23923 27.5418 6.64487 27.5418C7.98663 27.5418 9.1367 26.4479 9.1367 25.0321C9.1367 23.6164 7.98663 22.5225 6.64487 22.5225Z" fill="#010F32"/>
<path d="M24.7905 22.5225C21.1486 22.5225 18.1456 19.4981 18.1456 15.8301C18.1456 12.1621 21.1486 9.1377 24.7905 9.1377C28.4324 9.1377 31.4354 12.1621 31.4354 15.8301C31.4354 19.4981 28.4963 22.5225 24.7905 22.5225ZM24.7905 13.3205C23.4488 13.3205 22.2987 14.4144 22.2987 15.8301C22.2987 17.2458 23.3849 18.3398 24.7905 18.3398C26.1323 18.3398 27.2823 17.2458 27.2823 15.8301C27.2823 14.4144 26.1961 13.3205 24.7905 13.3205Z" fill="#010F32"/>
</g>
<g clip-path="url(#clip1_98_111)">
<path d="M555 13.3205C551.358 13.3205 548.355 10.296 548.355 6.62806C548.355 2.9601 551.358 0 555 0C558.642 0 561.645 3.02445 561.645 6.69241C561.645 10.3604 558.642 13.3205 555 13.3205ZM555 4.18275C553.658 4.18275 552.508 5.27671 552.508 6.69241C552.508 8.10811 553.594 9.20206 555 9.20206C556.342 9.20206 557.492 8.10811 557.492 6.69241C557.492 5.27671 556.342 4.18275 555 4.18275Z" fill="#010F32"/>
<path d="M573.21 22.5225C569.568 22.5225 566.565 19.4981 566.565 15.8301C566.565 12.1621 569.568 9.1377 573.21 9.1377C576.851 9.1377 579.854 12.1621 579.854 15.8301C579.854 19.4981 576.851 22.5225 573.21 22.5225ZM573.21 13.3205C571.868 13.3205 570.718 14.4144 570.718 15.8301C570.718 17.2458 571.804 18.3398 573.21 18.3398C574.551 18.3398 575.701 17.2458 575.701 15.8301C575.701 14.4144 574.551 13.3205 573.21 13.3205Z" fill="#010F32"/>
<path d="M591.355 31.6602C587.713 31.6602 584.71 28.6358 584.71 24.9678C584.71 21.2998 587.713 18.2754 591.355 18.2754C594.997 18.2754 598 21.2998 598 24.9678C598 28.7001 595.061 31.6602 591.355 31.6602ZM591.355 22.5225C590.013 22.5225 588.863 23.6164 588.863 25.0321C588.863 26.4479 589.949 27.5418 591.355 27.5418C592.697 27.5418 593.847 26.4479 593.847 25.0321C593.847 23.6164 592.761 22.5225 591.355 22.5225Z" fill="#010F32"/>
<path d="M573.21 40.7979C569.568 40.7979 566.565 37.7734 566.565 34.1055C566.565 30.4375 569.568 27.4131 573.21 27.4131C576.851 27.4131 579.854 30.4375 579.854 34.1055C579.79 37.8378 576.851 40.7979 573.21 40.7979ZM573.21 31.6602C571.868 31.6602 570.718 32.7541 570.718 34.1698C570.718 35.5212 571.804 36.6795 573.21 36.6795C574.551 36.6795 575.701 35.5855 575.701 34.1698C575.637 32.7541 574.551 31.6602 573.21 31.6602Z" fill="#010F32"/>
<path d="M555 50C551.358 50 548.355 46.9756 548.355 43.3076C548.355 39.6397 551.358 36.6152 555 36.6152C558.642 36.6152 561.645 39.6397 561.645 43.3076C561.645 46.9756 558.642 50 555 50ZM555 40.798C553.658 40.798 552.508 41.8919 552.508 43.3076C552.508 44.659 553.594 45.8173 555 45.8173C556.342 45.8173 557.492 44.7233 557.492 43.3076C557.492 41.9563 556.342 40.798 555 40.798Z" fill="#010F32"/>
<path d="M555 31.6602C551.358 31.6602 548.355 28.6358 548.355 24.9678C548.355 21.2998 551.358 18.2754 555 18.2754C558.642 18.2754 561.645 21.2998 561.645 24.9678C561.645 28.7001 558.642 31.6602 555 31.6602ZM555 22.5225C553.658 22.5225 552.508 23.6164 552.508 25.0321C552.508 26.4479 553.594 27.5418 555 27.5418C556.342 27.5418 557.492 26.4479 557.492 25.0321C557.492 23.6164 556.342 22.5225 555 22.5225Z" fill="#010F32"/>
<path d="M536.79 40.7979C533.149 40.7979 530.146 37.7734 530.146 34.1055C530.146 30.4375 533.149 27.4131 536.79 27.4131C540.432 27.4131 543.435 30.4375 543.435 34.1055C543.435 37.8378 540.496 40.7979 536.79 40.7979ZM536.79 31.6602C535.449 31.6602 534.299 32.7541 534.299 34.1698C534.299 35.5212 535.385 36.6795 536.79 36.6795C538.132 36.6795 539.282 35.5855 539.282 34.1698C539.282 32.7541 538.196 31.6602 536.79 31.6602Z" fill="#010F32"/>
<path d="M518.645 31.6602C515.003 31.6602 512 28.7001 512 24.9678C512 21.2998 515.003 18.2754 518.645 18.2754C522.287 18.2754 525.29 21.2998 525.29 24.9678C525.226 28.7001 522.287 31.6602 518.645 31.6602ZM518.645 22.5225C517.303 22.5225 516.153 23.6164 516.153 25.0321C516.153 26.4479 517.239 27.5418 518.645 27.5418C519.987 27.5418 521.137 26.4479 521.137 25.0321C521.137 23.6164 519.987 22.5225 518.645 22.5225Z" fill="#010F32"/>
<path d="M536.79 22.5225C533.149 22.5225 530.146 19.4981 530.146 15.8301C530.146 12.1621 533.149 9.1377 536.79 9.1377C540.432 9.1377 543.435 12.1621 543.435 15.8301C543.435 19.4981 540.496 22.5225 536.79 22.5225ZM536.79 13.3205C535.449 13.3205 534.299 14.4144 534.299 15.8301C534.299 17.2458 535.385 18.3398 536.79 18.3398C538.132 18.3398 539.282 17.2458 539.282 15.8301C539.282 14.4144 538.196 13.3205 536.79 13.3205Z" fill="#010F32"/>
</g>
<path d="M156.352 37.768C151.923 38.7947 147.963 39.2347 144.472 39.088C141.011 38.9707 138.121 38.3107 135.804 37.108C133.516 35.9053 131.917 34.204 131.008 32.004C130.715 31.3293 130.715 30.6547 131.008 29.98C131.301 29.3053 131.785 28.836 132.46 28.572C133.135 28.2787 133.795 28.2787 134.44 28.572C135.115 28.8653 135.584 29.3493 135.848 30.024C136.405 31.2853 137.549 32.2533 139.28 32.928C141.011 33.6027 143.225 33.94 145.924 33.94C148.652 33.9107 151.717 33.4707 155.12 32.62C155.853 32.444 156.528 32.5613 157.144 32.972C157.76 33.3533 158.156 33.896 158.332 34.6C158.479 35.304 158.361 35.964 157.98 36.58C157.599 37.196 157.056 37.592 156.352 37.768ZM152.304 13.7C150.72 13.2893 149.019 12.9813 147.2 12.776C145.411 12.5413 143.636 12.4093 141.876 12.38C140.116 12.3507 138.473 12.4093 136.948 12.556C136.215 12.6147 135.555 12.4387 134.968 12.028C134.411 11.588 134.088 11.0013 134 10.268C133.912 9.53466 134.088 8.88933 134.528 8.332C134.968 7.74533 135.555 7.408 136.288 7.32C138.048 7.144 139.984 7.1 142.096 7.188C144.208 7.24667 146.261 7.39333 148.256 7.628C150.28 7.86266 152.04 8.17066 153.536 8.552C154.24 8.728 154.783 9.124 155.164 9.74C155.545 10.356 155.648 11.016 155.472 11.72C155.325 12.424 154.929 12.9813 154.284 13.392C153.668 13.7733 153.008 13.876 152.304 13.7ZM162.688 13.568C162.307 13.92 161.837 14.0667 161.28 14.008C160.723 13.9493 160.283 13.7147 159.96 13.304C159.637 12.864 159.212 12.3507 158.684 11.764C158.185 11.148 157.716 10.6053 157.276 10.136C157.012 9.81333 156.88 9.41733 156.88 8.948C156.909 8.47866 157.115 8.068 157.496 7.716C157.819 7.39333 158.2 7.24666 158.64 7.276C159.109 7.276 159.535 7.43733 159.916 7.76C160.356 8.112 160.869 8.596 161.456 9.212C162.072 9.79867 162.571 10.3413 162.952 10.84C163.275 11.2507 163.407 11.72 163.348 12.248C163.319 12.776 163.099 13.216 162.688 13.568ZM166.78 9.74C166.428 10.092 165.973 10.268 165.416 10.268C164.888 10.2387 164.448 10.0333 164.096 9.652C163.715 9.24133 163.245 8.75733 162.688 8.2C162.16 7.61333 161.661 7.1 161.192 6.66C160.899 6.36666 160.737 6 160.708 5.56C160.679 5.09067 160.84 4.66533 161.192 4.284C161.515 3.932 161.911 3.74133 162.38 3.712C162.849 3.68267 163.275 3.81467 163.656 4.108C164.125 4.43066 164.668 4.87066 165.284 5.428C165.929 5.98533 166.457 6.51333 166.868 7.012C167.22 7.39333 167.381 7.848 167.352 8.376C167.352 8.87467 167.161 9.32933 166.78 9.74ZM182.092 41.112C181.447 41.112 180.875 40.8627 180.376 40.364C179.907 39.8947 179.672 39.3373 179.672 38.692C179.672 38.0173 179.907 37.4453 180.376 36.976C180.875 36.5067 181.447 36.272 182.092 36.272H191.86V27.912H184.952C184.248 27.912 183.647 27.6773 183.148 27.208C182.679 26.7093 182.444 26.1227 182.444 25.448C182.444 24.744 182.679 24.1573 183.148 23.688C183.647 23.1893 184.248 22.94 184.952 22.94H191.86V15.856H183.148C182.503 15.856 181.945 15.636 181.476 15.196C181.007 14.7267 180.772 14.1693 180.772 13.524C180.772 12.8493 181.007 12.292 181.476 11.852C181.945 11.3827 182.503 11.148 183.148 11.148H193.576C193.517 11.0893 193.459 11.0453 193.4 11.016C193.107 10.6933 192.681 10.2827 192.124 9.784C191.596 9.256 191.024 8.71333 190.408 8.156C189.821 7.56933 189.279 7.056 188.78 6.616C188.281 6.176 188.003 5.61866 187.944 4.944C187.915 4.24 188.149 3.624 188.648 3.096C189.147 2.53866 189.748 2.23067 190.452 2.172C191.156 2.084 191.801 2.28933 192.388 2.788C192.769 3.08133 193.268 3.50667 193.884 4.064C194.529 4.62133 195.16 5.19333 195.776 5.78C196.421 6.36667 196.92 6.85067 197.272 7.232C197.771 7.78933 198.035 8.43467 198.064 9.168C198.093 9.872 197.829 10.488 197.272 11.016L197.14 11.148H205.852C206.527 11.148 207.084 11.3827 207.524 11.852C207.993 12.292 208.228 12.8493 208.228 13.524C208.228 14.1693 207.993 14.7267 207.524 15.196C207.084 15.636 206.527 15.856 205.852 15.856H197.316V22.94H204.048C204.723 22.94 205.309 23.1893 205.808 23.688C206.307 24.1573 206.556 24.744 206.556 25.448C206.556 26.1227 206.307 26.7093 205.808 27.208C205.309 27.6773 204.723 27.912 204.048 27.912H197.316V36.272H206.996C207.671 36.272 208.243 36.5067 208.712 36.976C209.181 37.4453 209.416 38.0173 209.416 38.692C209.416 39.3373 209.181 39.8947 208.712 40.364C208.243 40.8627 207.671 41.112 206.996 41.112H182.092ZM170.916 41.156C170.271 40.7453 169.875 40.1733 169.728 39.44C169.581 38.736 169.728 38.0613 170.168 37.416C170.725 36.5653 171.341 35.5533 172.016 34.38C172.72 33.1773 173.409 31.9453 174.084 30.684C174.788 29.3933 175.404 28.2053 175.932 27.12C176.255 26.4453 176.753 25.9907 177.428 25.756C178.103 25.5213 178.777 25.5947 179.452 25.976C180.86 26.7093 181.241 27.8533 180.596 29.408C180.127 30.4933 179.555 31.7107 178.88 33.06C178.205 34.4093 177.516 35.7147 176.812 36.976C176.108 38.2373 175.477 39.308 174.92 40.188C174.539 40.8333 173.952 41.2587 173.16 41.464C172.368 41.6693 171.62 41.5667 170.916 41.156ZM177.472 11.28C177.091 10.9867 176.592 10.6493 175.976 10.268C175.36 9.85733 174.744 9.46133 174.128 9.08C173.541 8.69867 173.043 8.40533 172.632 8.2C172.045 7.848 171.664 7.34933 171.488 6.704C171.312 6.02933 171.385 5.384 171.708 4.768C172.031 4.12267 172.529 3.69733 173.204 3.492C173.908 3.28667 174.583 3.34533 175.228 3.668C175.668 3.87333 176.196 4.16666 176.812 4.548C177.428 4.9 178.044 5.26667 178.66 5.648C179.305 6.02933 179.863 6.38133 180.332 6.704C180.977 7.11467 181.373 7.68667 181.52 8.42C181.667 9.15333 181.535 9.85733 181.124 10.532C180.743 11.148 180.185 11.5293 179.452 11.676C178.719 11.8227 178.059 11.6907 177.472 11.28ZM174.744 21.268C174.363 20.9747 173.864 20.6373 173.248 20.256C172.661 19.8453 172.06 19.4493 171.444 19.068C170.828 18.6867 170.329 18.3933 169.948 18.188C169.332 17.836 168.936 17.3373 168.76 16.692C168.613 16.0173 168.701 15.372 169.024 14.756C169.347 14.14 169.845 13.7293 170.52 13.524C171.224 13.2893 171.899 13.3333 172.544 13.656C172.984 13.8613 173.497 14.1547 174.084 14.536C174.7 14.888 175.316 15.2547 175.932 15.636C176.577 16.0173 177.135 16.3693 177.604 16.692C178.249 17.1027 178.645 17.6747 178.792 18.408C178.939 19.1413 178.807 19.8453 178.396 20.52C178.015 21.136 177.457 21.5173 176.724 21.664C175.991 21.8107 175.331 21.6787 174.744 21.268ZM216.72 42.432C215.635 42.7547 214.769 42.74 214.124 42.388C213.479 42.0653 213.009 41.5227 212.716 40.76C212.481 40.056 212.54 39.352 212.892 38.648C213.244 37.944 213.86 37.4893 214.74 37.284C217.849 36.4627 220.607 35.4507 223.012 34.248C225.417 33.0453 227.544 31.6813 229.392 30.156C227.573 28.0147 226.004 25.6533 224.684 23.072C223.393 20.4613 222.323 17.6307 221.472 14.58H215.048C214.403 14.58 213.845 14.3453 213.376 13.876C212.907 13.4067 212.672 12.8493 212.672 12.204C212.672 11.5587 212.907 11.016 213.376 10.576C213.845 10.1067 214.403 9.872 215.048 9.872H230.14V4.592C230.14 3.74133 230.419 3.052 230.976 2.524C231.533 1.996 232.208 1.732 233 1.732C233.792 1.732 234.467 1.996 235.024 2.524C235.581 3.052 235.86 3.74133 235.86 4.592V9.872H250.864C251.509 9.872 252.052 10.1067 252.492 10.576C252.961 11.016 253.196 11.5587 253.196 12.204C253.196 12.8493 252.961 13.4067 252.492 13.876C252.052 14.3453 251.509 14.58 250.864 14.58H244.792C243.971 17.6307 242.9 20.4467 241.58 23.028C240.289 25.6093 238.735 27.9707 236.916 30.112C238.793 31.6667 240.949 33.0453 243.384 34.248C245.819 35.4507 248.576 36.4627 251.656 37.284C252.536 37.4893 253.137 37.944 253.46 38.648C253.783 39.352 253.812 40.056 253.548 40.76C253.284 41.5227 252.815 42.0653 252.14 42.388C251.495 42.7107 250.644 42.7253 249.588 42.432C242.929 40.4667 237.459 37.636 233.176 33.94C231.035 35.7587 228.6 37.372 225.872 38.78C223.173 40.188 220.123 41.4053 216.72 42.432ZM233.176 26.284C234.496 24.6413 235.625 22.8373 236.564 20.872C237.503 18.9067 238.295 16.8093 238.94 14.58H227.28C227.955 16.8093 228.761 18.9067 229.7 20.872C230.668 22.8373 231.827 24.6413 233.176 26.284ZM281.708 38.868C280.975 39.044 280.285 38.9413 279.64 38.56C278.995 38.1787 278.584 37.636 278.408 36.932C278.232 36.228 278.335 35.568 278.716 34.952C279.097 34.3067 279.64 33.896 280.344 33.72C283.6 32.8693 285.991 31.4907 287.516 29.584C289.071 27.6773 289.848 25.2573 289.848 22.324C289.848 20.476 289.437 18.8187 288.616 17.352C287.795 15.8853 286.621 14.6973 285.096 13.788C283.6 12.8787 281.796 12.3213 279.684 12.116C279.156 17.044 278.261 21.312 277 24.92C275.768 28.4987 274.301 31.2707 272.6 33.236C270.928 35.172 269.168 36.14 267.32 36.14C265.765 36.14 264.343 35.6853 263.052 34.776C261.761 33.8667 260.735 32.5613 259.972 30.86C259.239 29.1587 258.872 27.12 258.872 24.744C258.872 22.3093 259.327 20.036 260.236 17.924C261.175 15.7827 262.495 13.9053 264.196 12.292C265.897 10.6787 267.892 9.41733 270.18 8.508C272.497 7.59867 275.035 7.144 277.792 7.144C281.136 7.144 284.099 7.78933 286.68 9.08C289.291 10.3413 291.344 12.116 292.84 14.404C294.336 16.6627 295.084 19.3027 295.084 22.324C295.084 26.5773 293.94 30.1267 291.652 32.972C289.393 35.788 286.079 37.7533 281.708 38.868ZM267.364 30.728C267.892 30.728 268.493 30.288 269.168 29.408C269.872 28.4987 270.576 27.2227 271.28 25.58C271.984 23.9373 272.629 22.0013 273.216 19.772C273.803 17.5133 274.243 15.02 274.536 12.292C272.248 12.732 270.327 13.5827 268.772 14.844C267.217 16.076 266.044 17.5573 265.252 19.288C264.46 20.9893 264.049 22.7787 264.02 24.656C264.02 26.6507 264.328 28.1613 264.944 29.188C265.589 30.2147 266.396 30.728 267.364 30.728ZM308.724 39.704C307.991 39.8213 307.331 39.6747 306.744 39.264C306.157 38.8533 305.791 38.296 305.644 37.592C305.38 36.096 305.175 34.3653 305.028 32.4C304.881 30.4053 304.808 28.308 304.808 26.108C304.808 23.908 304.867 21.6933 304.984 19.464C305.101 17.2347 305.277 15.108 305.512 13.084C305.776 11.0307 306.084 9.19733 306.436 7.584C306.583 6.88 306.964 6.33733 307.58 5.956C308.196 5.54533 308.856 5.41333 309.56 5.56C310.264 5.736 310.807 6.132 311.188 6.748C311.599 7.33466 311.731 7.99466 311.584 8.728C311.115 10.8107 310.748 13.0693 310.484 15.504C310.22 17.9387 310.044 20.4173 309.956 22.94C309.897 25.4333 309.941 27.868 310.088 30.244C310.235 32.5907 310.484 34.732 310.836 36.668C310.983 37.372 310.836 38.0173 310.396 38.604C309.985 39.1907 309.428 39.5573 308.724 39.704ZM326.764 37.328C322.951 37.328 320.105 36.6387 318.228 35.26C316.38 33.8813 315.265 31.8573 314.884 29.188C314.767 28.484 314.913 27.8387 315.324 27.252C315.764 26.6653 316.351 26.3133 317.084 26.196C317.788 26.108 318.433 26.284 319.02 26.724C319.607 27.1347 319.959 27.7067 320.076 28.44C320.252 29.7013 320.853 30.64 321.88 31.256C322.907 31.872 324.579 32.18 326.896 32.18C329.096 32.18 331.751 31.8427 334.86 31.168C335.564 30.992 336.224 31.1093 336.84 31.52C337.456 31.9307 337.837 32.488 337.984 33.192C338.131 33.896 337.999 34.556 337.588 35.172C337.177 35.7587 336.62 36.14 335.916 36.316C334.332 36.6973 332.748 36.9613 331.164 37.108C329.609 37.2547 328.143 37.328 326.764 37.328ZM318.712 15.548C318.008 15.6947 317.348 15.5773 316.732 15.196C316.145 14.7853 315.779 14.2133 315.632 13.48C315.485 12.776 315.603 12.116 315.984 11.5C316.395 10.884 316.967 10.5173 317.7 10.4C319.343 10.0773 321.176 9.872 323.2 9.784C325.224 9.66666 327.233 9.652 329.228 9.74C331.223 9.79866 332.983 9.96 334.508 10.224C335.241 10.3413 335.813 10.708 336.224 11.324C336.635 11.9107 336.767 12.5707 336.62 13.304C336.503 14.0373 336.136 14.6093 335.52 15.02C334.933 15.4013 334.288 15.5333 333.584 15.416C331.208 15.0053 328.744 14.8147 326.192 14.844C323.64 14.844 321.147 15.0787 318.712 15.548ZM364.516 42.608C363.871 42.696 363.299 42.5493 362.8 42.168C362.331 41.7867 362.052 41.2733 361.964 40.628C361.7 38.868 361.275 36.844 360.688 34.556C360.131 32.2387 359.456 29.9213 358.664 27.604C357.491 27.9853 356.361 28.3667 355.276 28.748C354.22 29.1 353.237 29.4373 352.328 29.76C351.712 29.9653 351.111 29.936 350.524 29.672C349.967 29.408 349.571 28.9827 349.336 28.396C349.131 27.78 349.16 27.1933 349.424 26.636C349.717 26.0493 350.172 25.6533 350.788 25.448C352.607 24.8027 354.719 24.0987 357.124 23.336C356.772 22.4853 356.42 21.664 356.068 20.872C355.716 20.08 355.349 19.332 354.968 18.628C354.675 18.0413 354.601 17.44 354.748 16.824C354.924 16.208 355.291 15.7533 355.848 15.46C356.435 15.1373 357.021 15.0787 357.608 15.284C358.224 15.46 358.679 15.8413 358.972 16.428C359.412 17.2493 359.837 18.1293 360.248 19.068C360.659 20.0067 361.055 20.9893 361.436 22.016C362.199 21.7813 362.961 21.5467 363.724 21.312C364.487 21.0773 365.235 20.8573 365.968 20.652C365.499 20.5053 365.132 20.212 364.868 19.772L362.976 16.956C362.653 16.428 362.551 15.8707 362.668 15.284C362.785 14.668 363.108 14.184 363.636 13.832C364.193 13.48 364.78 13.3773 365.396 13.524C366.012 13.6413 366.481 13.964 366.804 14.492L368.652 17.264C368.945 17.704 369.077 18.1733 369.048 18.672C369.019 19.1413 368.843 19.5813 368.52 19.992C368.725 19.9333 368.916 19.8747 369.092 19.816C369.268 19.7573 369.444 19.7133 369.62 19.684C372.671 18.9213 375.135 19.0387 377.012 20.036C378.889 21.0333 379.975 22.72 380.268 25.096C380.473 26.7973 380.224 28.2933 379.52 29.584C378.845 30.8747 377.833 31.8573 376.484 32.532C375.164 33.2067 373.653 33.5147 371.952 33.456C370.28 33.3973 368.564 32.884 366.804 31.916C366.247 31.5933 365.865 31.124 365.66 30.508C365.484 29.892 365.543 29.3053 365.836 28.748C366.159 28.1613 366.628 27.78 367.244 27.604C367.86 27.428 368.447 27.5013 369.004 27.824C370.295 28.5573 371.468 28.924 372.524 28.924C373.58 28.8947 374.401 28.5867 374.988 28C375.575 27.384 375.795 26.5773 375.648 25.58C375.531 24.7293 375.061 24.1427 374.24 23.82C373.448 23.4973 372.245 23.5267 370.632 23.908C369.547 24.2013 368.329 24.5387 366.98 24.92C365.66 25.3013 364.311 25.7267 362.932 26.196C363.724 28.6013 364.428 31.0213 365.044 33.456C365.689 35.8613 366.173 38.0467 366.496 40.012C366.613 40.6573 366.467 41.2293 366.056 41.728C365.675 42.256 365.161 42.5493 364.516 42.608ZM402.4 40.056C401.696 39.968 401.124 39.6307 400.684 39.044C400.244 38.4867 400.068 37.8413 400.156 37.108C400.244 36.3747 400.567 35.788 401.124 35.348C401.711 34.908 402.371 34.732 403.104 34.82C404.013 34.9373 404.82 34.9667 405.524 34.908C406.257 34.82 406.888 34.512 407.416 33.984C407.944 33.456 408.413 32.5907 408.824 31.388C409.235 30.1853 409.587 28.528 409.88 26.416C410.144 24.568 410.159 23.1307 409.924 22.104C409.719 21.048 409.176 20.3293 408.296 19.948C407.416 19.5373 406.111 19.3907 404.38 19.508C403.676 21.9133 402.825 24.3187 401.828 26.724C400.86 29.1293 399.789 31.4173 398.616 33.588C397.443 35.7293 396.167 37.6653 394.788 39.396C394.319 39.9533 393.732 40.276 393.028 40.364C392.324 40.4813 391.679 40.32 391.092 39.88C390.535 39.4107 390.197 38.824 390.08 38.12C389.992 37.3867 390.183 36.7413 390.652 36.184C392.383 34.072 393.952 31.5933 395.36 28.748C396.768 25.9027 397.956 22.9693 398.924 19.948C398.015 20.0653 397.076 20.1827 396.108 20.3C395.169 20.388 394.245 20.476 393.336 20.564C392.603 20.6227 391.957 20.432 391.4 19.992C390.843 19.552 390.52 18.9653 390.432 18.232C390.373 17.4987 390.564 16.8533 391.004 16.296C391.444 15.7093 392.031 15.3867 392.764 15.328C394.025 15.1813 395.301 15.064 396.592 14.976C397.883 14.8587 399.144 14.7707 400.376 14.712C400.699 13.392 400.948 12.1013 401.124 10.84C401.3 9.54933 401.417 8.31733 401.476 7.144C401.535 6.41067 401.828 5.80933 402.356 5.34C402.913 4.84133 403.559 4.62133 404.292 4.68C405.025 4.70933 405.627 5.00266 406.096 5.56C406.595 6.088 406.815 6.71867 406.756 7.452C406.639 8.53733 406.492 9.66667 406.316 10.84C406.14 12.0133 405.92 13.216 405.656 14.448C409.645 14.5067 412.344 15.5773 413.752 17.66C415.189 19.7427 415.615 22.896 415.028 27.12C414.559 30.7573 413.796 33.5733 412.74 35.568C411.713 37.5627 410.349 38.8827 408.648 39.528C406.947 40.2027 404.864 40.3787 402.4 40.056ZM426.952 27.12C426.307 27.472 425.632 27.5453 424.928 27.34C424.224 27.1347 423.696 26.7093 423.344 26.064C422.845 25.1253 422.215 24.1427 421.452 23.116C420.689 22.06 419.897 21.048 419.076 20.08C418.284 19.0827 417.521 18.232 416.788 17.528C416.26 17.0293 415.981 16.428 415.952 15.724C415.923 14.9907 416.157 14.36 416.656 13.832C417.155 13.304 417.756 13.04 418.46 13.04C419.193 13.0107 419.824 13.2453 420.352 13.744C421.291 14.624 422.229 15.636 423.168 16.78C424.136 17.8947 425.031 19.0387 425.852 20.212C426.703 21.3853 427.407 22.5 427.964 23.556C428.316 24.2013 428.389 24.876 428.184 25.58C428.008 26.2547 427.597 26.768 426.952 27.12ZM423.256 13.876C422.875 13.4947 422.391 13.04 421.804 12.512C421.247 11.9547 420.719 11.4707 420.22 11.06C419.927 10.796 419.751 10.4293 419.692 9.96C419.663 9.49066 419.809 9.06533 420.132 8.684C420.455 8.30267 420.836 8.09733 421.276 8.068C421.745 8.03866 422.171 8.14133 422.552 8.376C423.051 8.66933 423.623 9.09466 424.268 9.652C424.943 10.18 425.5 10.664 425.94 11.104C426.321 11.4853 426.512 11.94 426.512 12.468C426.512 12.9667 426.336 13.4213 425.984 13.832C425.632 14.2133 425.177 14.4187 424.62 14.448C424.092 14.448 423.637 14.2573 423.256 13.876ZM426.952 9.74C426.541 9.388 426.013 8.96267 425.368 8.464C424.752 7.96533 424.195 7.52533 423.696 7.144C423.403 6.88 423.212 6.51333 423.124 6.044C423.065 5.57467 423.183 5.14933 423.476 4.768C423.74 4.38667 424.092 4.16667 424.532 4.108C425.001 4.02 425.441 4.09333 425.852 4.328C426.351 4.592 426.952 4.97333 427.656 5.472C428.36 5.94133 428.947 6.38133 429.416 6.792C429.827 7.144 430.047 7.584 430.076 8.112C430.105 8.64 429.959 9.10933 429.636 9.52C429.343 9.93067 428.917 10.1653 428.36 10.224C427.832 10.2827 427.363 10.1213 426.952 9.74ZM444.464 42.3C443.76 42.3 443.159 42.0507 442.66 41.552C442.161 41.0533 441.912 40.452 441.912 39.748V30.068C441.413 30.8307 440.915 31.5933 440.416 32.356C439.947 33.0893 439.507 33.7933 439.096 34.468C438.715 35.084 438.157 35.4653 437.424 35.612C436.72 35.7293 436.075 35.5973 435.488 35.216C434.901 34.8053 434.535 34.248 434.388 33.544C434.271 32.8107 434.417 32.1507 434.828 31.564C435.679 30.42 436.705 28.9827 437.908 27.252C439.14 25.492 440.475 23.7027 441.912 21.884V16.252C441.824 16.2813 441.721 16.3107 441.604 16.34C441.487 16.34 441.369 16.3693 441.252 16.428C440.929 16.4867 440.46 16.604 439.844 16.78C439.257 16.956 438.685 17.132 438.128 17.308C437.6 17.4547 437.233 17.5573 437.028 17.616C436.324 17.7627 435.664 17.6453 435.048 17.264C434.432 16.8827 434.036 16.3253 433.86 15.592C433.713 14.888 433.831 14.228 434.212 13.612C434.623 12.996 435.18 12.6147 435.884 12.468C436.148 12.4093 436.559 12.3213 437.116 12.204C437.673 12.0573 438.26 11.9253 438.876 11.808C439.521 11.6613 440.064 11.544 440.504 11.456C440.973 11.3387 441.443 11.2507 441.912 11.192V4.856C441.912 4.152 442.161 3.55067 442.66 3.052C443.159 2.55333 443.76 2.304 444.464 2.304C445.168 2.304 445.769 2.55333 446.268 3.052C446.767 3.55067 447.016 4.152 447.016 4.856V12.072C447.515 12.3947 447.925 12.864 448.248 13.48C448.453 13.832 448.6 14.2427 448.688 14.712C450.067 13.568 451.431 12.644 452.78 11.94C454.159 11.236 455.523 10.884 456.872 10.884C460.128 10.884 462.416 11.9693 463.736 14.14C465.056 16.2813 465.291 19.7133 464.44 24.436C464.117 26.3133 463.883 27.824 463.736 28.968C463.589 30.0827 463.516 30.9333 463.516 31.52C463.545 32.1067 463.619 32.5173 463.736 32.752C463.883 32.9867 464.073 33.1773 464.308 33.324C464.983 33.676 465.731 33.7053 466.552 33.412C467.373 33.0893 468.239 32.488 469.148 31.608C469.676 31.1093 470.307 30.904 471.04 30.992C471.773 31.08 472.375 31.4027 472.844 31.96C473.343 32.5173 473.548 33.1627 473.46 33.896C473.401 34.6 473.108 35.2013 472.58 35.7C470.791 37.4013 468.855 38.4573 466.772 38.868C464.689 39.2493 462.812 38.9853 461.14 38.076C460.143 37.4893 459.409 36.6973 458.94 35.7C458.471 34.7027 458.251 33.368 458.28 31.696C458.309 30.024 458.559 27.8973 459.028 25.316C459.497 22.7347 459.703 20.784 459.644 19.464C459.585 18.1147 459.292 17.2053 458.764 16.736C458.265 16.2373 457.547 15.988 456.608 15.988C455.728 15.988 454.76 16.3107 453.704 16.956C452.648 17.6013 451.548 18.4667 450.404 19.552C449.289 20.6373 448.16 21.8547 447.016 23.204V39.748C447.016 40.452 446.767 41.0533 446.268 41.552C445.769 42.0507 445.168 42.3 444.464 42.3Z" fill="#010F32"/>
<defs>
<clipPath id="clip0_98_111">
<rect width="86" height="50" fill="white"/>
</clipPath>
<clipPath id="clip1_98_111">
<rect width="86" height="50" fill="white" transform="translate(512)"/>
</clipPath>
</defs>
</svg>
