<svg width="356" height="24" viewBox="0 0 356 24" fill="none" xmlns="http://www.w3.org/2000/svg">
<path d="M7.088 21.48C5.728 21.48 4.6 21.384 3.704 21.192C2.808 21.016 2.096 20.696 1.568 20.232C1.056 19.752 0.688 19.096 0.464 18.264C0.24 17.432 0.128 16.368 0.128 15.072V8.688C0.128 7.392 0.24 6.328 0.464 5.496C0.688 4.664 1.056 4.016 1.568 3.552C2.096 3.072 2.808 2.744 3.704 2.568C4.6 2.376 5.728 2.28 7.088 2.28H8.912C10.272 2.28 11.4 2.376 12.296 2.568C13.192 2.744 13.896 3.072 14.408 3.552C14.936 4.016 15.312 4.664 15.536 5.496C15.76 6.328 15.872 7.392 15.872 8.688V15.072C15.872 16.368 15.76 17.432 15.536 18.264C15.312 19.096 14.936 19.752 14.408 20.232C13.896 20.696 13.192 21.016 12.296 21.192C11.4 21.384 10.272 21.48 8.912 21.48H7.088ZM7.088 18.792H8.912C10.048 18.792 10.896 18.704 11.456 18.528C12.032 18.336 12.416 17.976 12.608 17.448C12.816 16.92 12.92 16.128 12.92 15.072V13.008H3.08V15.072C3.08 16.128 3.176 16.92 3.368 17.448C3.576 17.976 3.968 18.336 4.544 18.528C5.12 18.704 5.968 18.792 7.088 18.792ZM3.08 10.392H12.92V8.688C12.92 7.632 12.816 6.84 12.608 6.312C12.416 5.768 12.032 5.408 11.456 5.232C10.896 5.056 10.048 4.968 8.912 4.968H7.088C5.968 4.968 5.12 5.056 4.544 5.232C3.968 5.408 3.576 5.768 3.368 6.312C3.176 6.84 3.08 7.632 3.08 8.688V10.392ZM32 23.064C31.6 23.064 31.264 22.936 30.992 22.68C30.72 22.424 30.584 22.08 30.584 21.648V18.84H27.68C27.328 18.84 27.016 18.712 26.744 18.456C26.488 18.184 26.36 17.872 26.36 17.52C26.36 17.152 26.488 16.84 26.744 16.584C27.016 16.328 27.328 16.2 27.68 16.2H30.584V10.44C29.928 11.416 29.192 12.4 28.376 13.392C27.56 14.384 26.696 15.328 25.784 16.224C24.888 17.12 23.992 17.928 23.096 18.648C22.776 18.904 22.4 19.04 21.968 19.056C21.536 19.056 21.184 18.888 20.912 18.552C20.656 18.232 20.56 17.88 20.624 17.496C20.704 17.112 20.912 16.8 21.248 16.56C22.208 15.84 23.184 15 24.176 14.04C25.184 13.064 26.136 12.048 27.032 10.992C27.928 9.92 28.688 8.904 29.312 7.944H22.328C21.976 7.944 21.672 7.816 21.416 7.56C21.16 7.304 21.032 7 21.032 6.648C21.032 6.28 21.16 5.976 21.416 5.736C21.672 5.48 21.976 5.352 22.328 5.352H30.584V2.064C30.584 1.648 30.72 1.312 30.992 1.056C31.264 0.783999 31.6 0.647999 32 0.647999C32.384 0.647999 32.712 0.783999 32.984 1.056C33.256 1.312 33.392 1.648 33.392 2.064V5.352H41.648C42.016 5.352 42.32 5.48 42.56 5.736C42.816 5.976 42.944 6.28 42.944 6.648C42.944 7 42.816 7.304 42.56 7.56C42.32 7.816 42.016 7.944 41.648 7.944H34.736C35.376 8.936 36.152 9.96 37.064 11.016C37.976 12.056 38.944 13.056 39.968 14.016C40.992 14.976 41.992 15.832 42.968 16.584C43.272 16.808 43.424 17.112 43.424 17.496C43.44 17.88 43.336 18.208 43.112 18.48C42.856 18.784 42.528 18.968 42.128 19.032C41.728 19.096 41.36 18.992 41.024 18.72C40.16 18 39.272 17.192 38.36 16.296C37.448 15.4 36.568 14.448 35.72 13.44C34.872 12.416 34.096 11.376 33.392 10.32V16.2H36.392C36.76 16.2 37.072 16.328 37.328 16.584C37.584 16.84 37.712 17.152 37.712 17.52C37.712 17.872 37.584 18.184 37.328 18.456C37.072 18.712 36.76 18.84 36.392 18.84H33.392V21.648C33.392 22.08 33.256 22.424 32.984 22.68C32.712 22.936 32.384 23.064 32 23.064ZM51.68 22.008C51.36 22.264 51 22.368 50.6 22.32C50.2 22.272 49.872 22.088 49.616 21.768C49.36 21.448 49.256 21.088 49.304 20.688C49.352 20.272 49.536 19.936 49.856 19.68C50.944 18.832 51.848 17.84 52.568 16.704C53.288 15.552 53.784 14.296 54.056 12.936C54.344 11.576 54.36 10.168 54.104 8.712C54.04 8.296 54.12 7.928 54.344 7.608C54.568 7.272 54.88 7.072 55.28 7.008C55.696 6.928 56.064 7 56.384 7.224C56.72 7.448 56.92 7.768 56.984 8.184C57.016 8.296 57.032 8.416 57.032 8.544C57.048 8.672 57.064 8.8 57.08 8.928C58.52 8.848 59.6 8.728 60.32 8.568C61.056 8.392 61.544 8.2 61.784 7.992C62.04 7.768 62.168 7.544 62.168 7.32C62.168 6.984 62.064 6.728 61.856 6.552C61.648 6.36 61.2 6.264 60.512 6.264H47.816C47.416 6.264 47.064 6.12 46.76 5.832C46.472 5.544 46.328 5.2 46.328 4.8C46.328 4.384 46.472 4.04 46.76 3.768C47.064 3.48 47.416 3.336 47.816 3.336H60.512C63.68 3.336 65.264 4.624 65.264 7.2C65.264 8.16 64.984 8.96 64.424 9.6C63.88 10.224 63.008 10.704 61.808 11.04C60.624 11.376 59.064 11.6 57.128 11.712C56.984 13.792 56.44 15.72 55.496 17.496C54.552 19.272 53.28 20.776 51.68 22.008ZM71.864 17.88C71.464 17.88 71.112 17.736 70.808 17.448C70.52 17.144 70.376 16.792 70.376 16.392C70.376 15.976 70.52 15.632 70.808 15.36C71.112 15.072 71.464 14.928 71.864 14.928H88.136C88.552 14.928 88.904 15.072 89.192 15.36C89.48 15.632 89.624 15.976 89.624 16.392C89.624 16.792 89.48 17.144 89.192 17.448C88.904 17.736 88.552 17.88 88.136 17.88H71.864ZM74.744 9.288C74.344 9.288 73.992 9.144 73.688 8.856C73.4 8.552 73.256 8.2 73.256 7.8C73.256 7.384 73.4 7.032 73.688 6.744C73.992 6.456 74.344 6.312 74.744 6.312H85.256C85.672 6.312 86.024 6.456 86.312 6.744C86.6 7.032 86.744 7.384 86.744 7.8C86.744 8.2 86.6 8.552 86.312 8.856C86.024 9.144 85.672 9.288 85.256 9.288H74.744ZM108.08 20.064C107.728 20.256 107.352 20.288 106.952 20.16C106.552 20.032 106.256 19.792 106.064 19.44C105.856 19.056 105.56 18.568 105.176 17.976C104.792 17.384 104.368 16.76 103.904 16.104C103.456 15.448 103 14.824 102.536 14.232C102.088 13.64 101.688 13.152 101.336 12.768C101.048 12.464 100.904 12.112 100.904 11.712C100.92 11.312 101.072 10.968 101.36 10.68C101.664 10.408 102.024 10.28 102.44 10.296C102.856 10.312 103.2 10.472 103.472 10.776C103.744 11.08 104.04 11.424 104.36 11.808C104.68 12.192 105.008 12.6 105.344 13.032C106.624 12.52 107.616 12.056 108.32 11.64C109.024 11.224 109.504 10.84 109.76 10.488C110.032 10.136 110.16 9.808 110.144 9.504C110.128 9.168 109.992 8.92 109.736 8.76C109.48 8.6 109.024 8.536 108.368 8.568L95.456 9.072C95.056 9.088 94.704 8.96 94.4 8.688C94.096 8.4 93.936 8.056 93.92 7.656C93.904 7.24 94.032 6.888 94.304 6.6C94.592 6.296 94.936 6.136 95.336 6.12L108.2 5.688C109.944 5.624 111.2 5.872 111.968 6.432C112.736 6.976 113.176 7.848 113.288 9.048C113.384 9.976 113.176 10.816 112.664 11.568C112.168 12.32 111.432 13.008 110.456 13.632C109.496 14.24 108.352 14.808 107.024 15.336C107.376 15.848 107.696 16.336 107.984 16.8C108.288 17.264 108.536 17.68 108.728 18.048C108.92 18.416 108.952 18.8 108.824 19.2C108.696 19.584 108.448 19.872 108.08 20.064ZM134.144 17.88C132.752 18.408 131.536 18.64 130.496 18.576C129.456 18.512 128.64 18.136 128.048 17.448C127.472 16.744 127.184 15.712 127.184 14.352V6.72C127.184 6.304 127.328 5.952 127.616 5.664C127.92 5.376 128.272 5.232 128.672 5.232C129.088 5.232 129.432 5.376 129.704 5.664C129.992 5.952 130.136 6.304 130.136 6.72V13.896C130.136 15.416 131.056 15.84 132.896 15.168C133.616 14.896 134.4 14.576 135.248 14.208C136.112 13.84 136.88 13.496 137.552 13.176C137.92 13 138.296 12.976 138.68 13.104C139.064 13.216 139.352 13.456 139.544 13.824C139.736 14.176 139.768 14.552 139.64 14.952C139.528 15.352 139.288 15.64 138.92 15.816C138.184 16.168 137.392 16.536 136.544 16.92C135.696 17.288 134.896 17.608 134.144 17.88ZM118.424 19.416C118.056 19.576 117.68 19.592 117.296 19.464C116.912 19.32 116.632 19.064 116.456 18.696C116.296 18.328 116.28 17.952 116.408 17.568C116.552 17.168 116.808 16.888 117.176 16.728C118.472 16.12 119.496 15.384 120.248 14.52C121 13.64 121.536 12.648 121.856 11.544C122.176 10.424 122.336 9.224 122.336 7.944C122.336 7.528 122.48 7.176 122.768 6.888C123.056 6.6 123.4 6.456 123.8 6.456C124.216 6.456 124.56 6.6 124.832 6.888C125.12 7.176 125.264 7.528 125.264 7.944C125.248 10.696 124.648 13.048 123.464 15C122.28 16.952 120.6 18.424 118.424 19.416ZM150.536 22.032C150.136 22.032 149.792 21.888 149.504 21.6C149.216 21.312 149.072 20.968 149.072 20.568V3.984C149.072 3.568 149.216 3.224 149.504 2.952C149.792 2.664 150.136 2.52 150.536 2.52C150.952 2.52 151.304 2.664 151.592 2.952C151.88 3.224 152.024 3.568 152.024 3.984V9.768C152.232 9.448 152.52 9.24 152.888 9.144C153.256 9.032 153.616 9.064 153.968 9.24C154.912 9.736 155.872 10.304 156.848 10.944C157.84 11.584 158.696 12.208 159.416 12.816C159.736 13.072 159.912 13.416 159.944 13.848C159.992 14.264 159.88 14.632 159.608 14.952C159.352 15.256 159.016 15.432 158.6 15.48C158.184 15.512 157.816 15.4 157.496 15.144C157.048 14.792 156.528 14.416 155.936 14.016C155.36 13.616 154.776 13.232 154.184 12.864C153.608 12.48 153.08 12.152 152.6 11.88C152.344 11.736 152.152 11.56 152.024 11.352V20.568C152.024 20.968 151.88 21.312 151.592 21.6C151.304 21.888 150.952 22.032 150.536 22.032ZM172.256 21.6C171.872 21.712 171.496 21.68 171.128 21.504C170.776 21.328 170.536 21.04 170.408 20.64C170.28 20.256 170.304 19.88 170.48 19.512C170.672 19.144 170.96 18.896 171.344 18.768C173.312 18.128 175.04 17.232 176.528 16.08C178.032 14.912 179.136 13.592 179.84 12.12C180.4 10.92 179.976 10.32 178.568 10.32H169.856C169.456 10.32 169.112 10.184 168.824 9.912C168.536 9.624 168.392 9.272 168.392 8.856C168.392 8.44 168.536 8.096 168.824 7.824C169.112 7.552 169.456 7.416 169.856 7.416H178.688C180.064 7.416 181.12 7.672 181.856 8.184C182.608 8.68 183.032 9.376 183.128 10.272C183.224 11.152 183 12.168 182.456 13.32C181.576 15.176 180.24 16.832 178.448 18.288C176.672 19.728 174.608 20.832 172.256 21.6ZM171.392 5.64C170.992 5.64 170.648 5.504 170.36 5.232C170.072 4.96 169.928 4.624 169.928 4.224C169.928 3.808 170.072 3.464 170.36 3.192C170.648 2.92 170.992 2.784 171.392 2.784H180.56C180.96 2.784 181.296 2.92 181.568 3.192C181.856 3.464 182 3.808 182 4.224C182 4.624 181.856 4.96 181.568 5.232C181.296 5.504 180.96 5.64 180.56 5.64H171.392ZM192.44 20.52C192.088 20.696 191.712 20.72 191.312 20.592C190.928 20.448 190.648 20.192 190.472 19.824C190.296 19.456 190.272 19.08 190.4 18.696C190.544 18.312 190.792 18.032 191.144 17.856C193.432 16.752 195.464 15.424 197.24 13.872C199.032 12.304 200.488 10.608 201.608 8.784C202.312 7.632 201.928 7.056 200.456 7.056H193.904C193.504 7.056 193.16 6.912 192.872 6.624C192.584 6.32 192.44 5.968 192.44 5.568C192.44 5.152 192.584 4.8 192.872 4.512C193.16 4.224 193.504 4.08 193.904 4.08H200.552C201.992 4.08 203.096 4.344 203.864 4.872C204.632 5.384 205.048 6.088 205.112 6.984C205.192 7.88 204.896 8.912 204.224 10.08C203.872 10.72 203.448 11.36 202.952 12C203.688 12.608 204.44 13.28 205.208 14.016C205.992 14.736 206.72 15.44 207.392 16.128C208.08 16.8 208.656 17.376 209.12 17.856C209.392 18.144 209.528 18.496 209.528 18.912C209.528 19.328 209.376 19.68 209.072 19.968C208.784 20.256 208.432 20.4 208.016 20.4C207.6 20.384 207.248 20.232 206.96 19.944C206.528 19.496 205.984 18.936 205.328 18.264C204.672 17.576 203.976 16.872 203.24 16.152C202.504 15.416 201.792 14.752 201.104 14.16C199.888 15.424 198.528 16.616 197.024 17.736C195.536 18.84 194.008 19.768 192.44 20.52ZM222.536 22.032C222.136 22.032 221.792 21.888 221.504 21.6C221.216 21.312 221.072 20.968 221.072 20.568V3.984C221.072 3.568 221.216 3.224 221.504 2.952C221.792 2.664 222.136 2.52 222.536 2.52C222.952 2.52 223.304 2.664 223.592 2.952C223.88 3.224 224.024 3.568 224.024 3.984V9.768C224.232 9.448 224.52 9.24 224.888 9.144C225.256 9.032 225.616 9.064 225.968 9.24C226.912 9.736 227.872 10.304 228.848 10.944C229.84 11.584 230.696 12.208 231.416 12.816C231.736 13.072 231.912 13.416 231.944 13.848C231.992 14.264 231.88 14.632 231.608 14.952C231.352 15.256 231.016 15.432 230.6 15.48C230.184 15.512 229.816 15.4 229.496 15.144C229.048 14.792 228.528 14.416 227.936 14.016C227.36 13.616 226.776 13.232 226.184 12.864C225.608 12.48 225.08 12.152 224.6 11.88C224.344 11.736 224.152 11.56 224.024 11.352V20.568C224.024 20.968 223.88 21.312 223.592 21.6C223.304 21.888 222.952 22.032 222.536 22.032ZM249.44 23.064C249.056 23.064 248.728 22.936 248.456 22.68C248.184 22.44 248.032 22.12 248 21.72C247.984 21.336 248.096 21.016 248.336 20.76C248.592 20.504 248.92 20.36 249.32 20.328C249.768 20.28 250.056 20.2 250.184 20.088C250.328 19.96 250.4 19.688 250.4 19.272V12.288H245.672C245.368 12.288 245.112 12.184 244.904 11.976C244.696 11.768 244.592 11.512 244.592 11.208C244.592 10.904 244.696 10.648 244.904 10.44C245.112 10.232 245.368 10.128 245.672 10.128H250.4V8.952H246.848C246.592 8.952 246.368 8.856 246.176 8.664C245.984 8.456 245.888 8.216 245.888 7.944C245.888 7.672 245.984 7.44 246.176 7.248C246.368 7.056 246.592 6.96 246.848 6.96H250.4V5.808H245.984C245.712 5.808 245.48 5.712 245.288 5.52C245.096 5.312 245 5.072 245 4.8C245 4.528 245.096 4.296 245.288 4.104C245.48 3.896 245.712 3.792 245.984 3.792H248.12C247.976 3.536 247.816 3.272 247.64 3C247.48 2.712 247.36 2.512 247.28 2.4C247.12 2.128 247.08 1.84 247.16 1.536C247.256 1.216 247.448 0.975999 247.736 0.816C248.04 0.656 248.344 0.616 248.648 0.696C248.968 0.776 249.224 0.967999 249.416 1.272C249.496 1.384 249.608 1.568 249.752 1.824C249.896 2.08 250.04 2.352 250.184 2.64C250.344 2.912 250.464 3.128 250.544 3.288C250.64 3.448 250.688 3.616 250.688 3.792H252.512C252.624 3.584 252.76 3.32 252.92 3C253.08 2.664 253.24 2.336 253.4 2.016C253.56 1.696 253.688 1.448 253.784 1.272C253.928 0.951999 254.16 0.743999 254.48 0.647999C254.816 0.535999 255.144 0.559999 255.464 0.719999C255.784 0.863999 255.992 1.088 256.088 1.392C256.2 1.696 256.176 1.992 256.016 2.28C255.952 2.408 255.84 2.616 255.68 2.904C255.52 3.192 255.352 3.488 255.176 3.792H257.648C257.92 3.792 258.152 3.896 258.344 4.104C258.536 4.296 258.632 4.528 258.632 4.8C258.632 5.072 258.536 5.312 258.344 5.52C258.152 5.712 257.92 5.808 257.648 5.808H253.064V6.96H256.424C256.696 6.96 256.928 7.056 257.12 7.248C257.312 7.44 257.408 7.672 257.408 7.944C257.408 8.216 257.312 8.456 257.12 8.664C256.928 8.856 256.696 8.952 256.424 8.952H253.064V10.128H258.032C258.336 10.128 258.592 10.232 258.8 10.44C259.008 10.648 259.112 10.904 259.112 11.208C259.112 11.512 259.008 11.768 258.8 11.976C258.592 12.184 258.336 12.288 258.032 12.288H253.064V14.208C253.496 14.592 253.944 14.968 254.408 15.336C254.68 14.984 254.984 14.592 255.32 14.16C255.656 13.728 255.896 13.416 256.04 13.224C256.232 12.936 256.488 12.752 256.808 12.672C257.128 12.592 257.432 12.648 257.72 12.84C258.008 13.016 258.192 13.264 258.272 13.584C258.352 13.888 258.296 14.176 258.104 14.448C257.912 14.704 257.616 15.064 257.216 15.528C256.832 15.976 256.48 16.384 256.16 16.752C256.688 17.152 257.184 17.528 257.648 17.88C258.128 18.232 258.536 18.52 258.872 18.744C259.144 18.92 259.312 19.184 259.376 19.536C259.44 19.888 259.376 20.2 259.184 20.472C258.944 20.824 258.648 21.016 258.296 21.048C257.944 21.096 257.608 21.016 257.288 20.808C256.888 20.52 256.432 20.176 255.92 19.776C255.424 19.36 254.928 18.928 254.432 18.48C253.936 18.032 253.48 17.616 253.064 17.232V19.512C253.064 20.776 252.776 21.68 252.2 22.224C251.624 22.768 250.704 23.048 249.44 23.064ZM241.328 23.184C240.992 23.184 240.696 23.072 240.44 22.848C240.2 22.624 240.08 22.328 240.08 21.96V13.872C239.856 14.352 239.632 14.808 239.408 15.24C239.184 15.672 238.968 16.056 238.76 16.392C238.6 16.696 238.336 16.888 237.968 16.968C237.616 17.032 237.288 16.96 236.984 16.752C236.728 16.576 236.576 16.336 236.528 16.032C236.48 15.728 236.544 15.432 236.72 15.144C236.992 14.728 237.288 14.216 237.608 13.608C237.928 13 238.248 12.368 238.568 11.712C238.888 11.04 239.176 10.392 239.432 9.768C239.704 9.128 239.92 8.576 240.08 8.112V7.824H237.872C237.552 7.824 237.28 7.712 237.056 7.488C236.832 7.248 236.72 6.976 236.72 6.672C236.72 6.352 236.832 6.08 237.056 5.856C237.28 5.616 237.552 5.496 237.872 5.496H240.08V2.016C240.08 1.632 240.2 1.328 240.44 1.104C240.696 0.879999 240.992 0.767999 241.328 0.767999C241.68 0.767999 241.976 0.879999 242.216 1.104C242.456 1.328 242.576 1.632 242.576 2.016V5.496H244.16C244.48 5.496 244.752 5.616 244.976 5.856C245.2 6.08 245.312 6.352 245.312 6.672C245.312 6.976 245.2 7.248 244.976 7.488C244.752 7.712 244.48 7.824 244.16 7.824H242.576V9.432C242.8 9.72 243.088 10.104 243.44 10.584C243.808 11.048 244.176 11.504 244.544 11.952C244.912 12.4 245.2 12.744 245.408 12.984C245.632 13.224 245.728 13.512 245.696 13.848C245.68 14.168 245.544 14.44 245.288 14.664C245.032 14.888 244.728 14.984 244.376 14.952C244.04 14.92 243.768 14.768 243.56 14.496C243.448 14.336 243.304 14.136 243.128 13.896C242.952 13.656 242.768 13.392 242.576 13.104V21.96C242.576 22.328 242.456 22.624 242.216 22.848C241.976 23.072 241.68 23.184 241.328 23.184ZM245.768 20.664C245.416 20.824 245.064 20.864 244.712 20.784C244.376 20.688 244.128 20.464 243.968 20.112C243.808 19.76 243.784 19.432 243.896 19.128C244.024 18.808 244.272 18.568 244.64 18.408C245.008 18.248 245.424 18.056 245.888 17.832C246.368 17.592 246.84 17.344 247.304 17.088C247.784 16.832 248.192 16.616 248.528 16.44C248.816 16.28 249.104 16.248 249.392 16.344C249.696 16.44 249.912 16.624 250.04 16.896C250.344 17.536 250.176 18.072 249.536 18.504C249.232 18.696 248.848 18.936 248.384 19.224C247.92 19.496 247.456 19.76 246.992 20.016C246.528 20.272 246.12 20.488 245.768 20.664ZM249.176 15.888C248.936 16.096 248.664 16.2 248.36 16.2C248.056 16.184 247.8 16.064 247.592 15.84C247.416 15.648 247.16 15.392 246.824 15.072C246.504 14.752 246.24 14.504 246.032 14.328C245.824 14.12 245.72 13.864 245.72 13.56C245.736 13.24 245.848 12.976 246.056 12.768C246.312 12.544 246.584 12.432 246.872 12.432C247.16 12.432 247.424 12.544 247.664 12.768C247.792 12.864 247.96 13.016 248.168 13.224C248.376 13.416 248.584 13.608 248.792 13.8C249 13.992 249.152 14.144 249.248 14.256C249.472 14.496 249.576 14.776 249.56 15.096C249.544 15.4 249.416 15.664 249.176 15.888ZM274.568 20.928C274.168 21.024 273.792 20.968 273.44 20.76C273.088 20.552 272.864 20.256 272.768 19.872C272.672 19.488 272.728 19.128 272.936 18.792C273.144 18.44 273.44 18.216 273.824 18.12C275.6 17.656 276.904 16.904 277.736 15.864C278.584 14.824 279.008 13.504 279.008 11.904C279.008 10.896 278.784 9.992 278.336 9.192C277.888 8.392 277.248 7.744 276.416 7.248C275.6 6.752 274.616 6.448 273.464 6.336C273.176 9.024 272.688 11.352 272 13.32C271.328 15.272 270.528 16.784 269.6 17.856C268.688 18.912 267.728 19.44 266.72 19.44C265.872 19.44 265.096 19.192 264.392 18.696C263.688 18.2 263.128 17.488 262.712 16.56C262.312 15.632 262.112 14.52 262.112 13.224C262.112 11.896 262.36 10.656 262.856 9.504C263.368 8.336 264.088 7.312 265.016 6.432C265.944 5.552 267.032 4.864 268.28 4.368C269.544 3.872 270.928 3.624 272.432 3.624C274.256 3.624 275.872 3.976 277.28 4.68C278.704 5.368 279.824 6.336 280.64 7.584C281.456 8.816 281.864 10.256 281.864 11.904C281.864 14.224 281.24 16.16 279.992 17.712C278.76 19.248 276.952 20.32 274.568 20.928ZM266.744 16.488C267.032 16.488 267.36 16.248 267.728 15.768C268.112 15.272 268.496 14.576 268.88 13.68C269.264 12.784 269.616 11.728 269.936 10.512C270.256 9.28 270.496 7.92 270.656 6.432C269.408 6.672 268.36 7.136 267.512 7.824C266.664 8.496 266.024 9.304 265.592 10.248C265.16 11.176 264.936 12.152 264.92 13.176C264.92 14.264 265.088 15.088 265.424 15.648C265.776 16.208 266.216 16.488 266.744 16.488ZM302.192 20.328C299.776 20.888 297.616 21.128 295.712 21.048C293.824 20.984 292.248 20.624 290.984 19.968C289.736 19.312 288.864 18.384 288.368 17.184C288.208 16.816 288.208 16.448 288.368 16.08C288.528 15.712 288.792 15.456 289.16 15.312C289.528 15.152 289.888 15.152 290.24 15.312C290.608 15.472 290.864 15.736 291.008 16.104C291.312 16.792 291.936 17.32 292.88 17.688C293.824 18.056 295.032 18.24 296.504 18.24C297.992 18.224 299.664 17.984 301.52 17.52C301.92 17.424 302.288 17.488 302.624 17.712C302.96 17.92 303.176 18.216 303.272 18.6C303.352 18.984 303.288 19.344 303.08 19.68C302.872 20.016 302.576 20.232 302.192 20.328ZM299.984 7.2C299.12 6.976 298.192 6.808 297.2 6.696C296.224 6.568 295.256 6.496 294.296 6.48C293.336 6.464 292.44 6.496 291.608 6.576C291.208 6.608 290.848 6.512 290.528 6.288C290.224 6.048 290.048 5.728 290 5.328C289.952 4.928 290.048 4.576 290.288 4.272C290.528 3.952 290.848 3.768 291.248 3.72C292.208 3.624 293.264 3.6 294.416 3.648C295.568 3.68 296.688 3.76 297.776 3.888C298.88 4.016 299.84 4.184 300.656 4.392C301.04 4.488 301.336 4.704 301.544 5.04C301.752 5.376 301.808 5.736 301.712 6.12C301.632 6.504 301.416 6.808 301.064 7.032C300.728 7.24 300.368 7.296 299.984 7.2ZM305.648 7.128C305.44 7.32 305.184 7.4 304.88 7.368C304.576 7.336 304.336 7.208 304.16 6.984C303.984 6.744 303.752 6.464 303.464 6.144C303.192 5.808 302.936 5.512 302.696 5.256C302.552 5.08 302.48 4.864 302.48 4.608C302.496 4.352 302.608 4.128 302.816 3.936C302.992 3.76 303.2 3.68 303.44 3.696C303.696 3.696 303.928 3.784 304.136 3.96C304.376 4.152 304.656 4.416 304.976 4.752C305.312 5.072 305.584 5.368 305.792 5.64C305.968 5.864 306.04 6.12 306.008 6.408C305.992 6.696 305.872 6.936 305.648 7.128ZM307.88 5.04C307.688 5.232 307.44 5.328 307.136 5.328C306.848 5.312 306.608 5.2 306.416 4.992C306.208 4.768 305.952 4.504 305.648 4.2C305.36 3.88 305.088 3.6 304.832 3.36C304.672 3.2 304.584 3 304.568 2.76C304.552 2.504 304.64 2.272 304.832 2.064C305.008 1.872 305.224 1.768 305.48 1.752C305.736 1.736 305.968 1.808 306.176 1.968C306.432 2.144 306.728 2.384 307.064 2.688C307.416 2.992 307.704 3.28 307.928 3.552C308.12 3.76 308.208 4.008 308.192 4.296C308.192 4.568 308.088 4.816 307.88 5.04ZM314.072 23.04C313.72 23.04 313.416 22.92 313.16 22.68C312.904 22.44 312.776 22.12 312.776 21.72V12.984C312.28 13.048 311.808 13.104 311.36 13.152C310.928 13.2 310.552 13.24 310.232 13.272C309.832 13.32 309.488 13.248 309.2 13.056C308.928 12.864 308.768 12.576 308.72 12.192C308.672 11.808 308.76 11.488 308.984 11.232C309.208 10.96 309.52 10.816 309.92 10.8C310.048 10.784 310.192 10.776 310.352 10.776C310.512 10.76 310.672 10.744 310.832 10.728C311.056 10.456 311.312 10.12 311.6 9.72C311.904 9.304 312.224 8.872 312.56 8.424C312.272 8.216 311.92 7.968 311.504 7.68C311.088 7.376 310.68 7.088 310.28 6.816C309.88 6.528 309.568 6.32 309.344 6.192C309.056 6 308.872 5.736 308.792 5.4C308.728 5.064 308.784 4.752 308.96 4.464C309.136 4.16 309.392 3.968 309.728 3.888C310.08 3.808 310.408 3.864 310.712 4.056C310.856 4.152 310.992 4.248 311.12 4.344C311.28 4.088 311.464 3.776 311.672 3.408C311.896 3.04 312.104 2.68 312.296 2.328C312.504 1.976 312.656 1.704 312.752 1.512C312.912 1.192 313.16 0.967999 313.496 0.839999C313.832 0.711999 314.16 0.727999 314.48 0.887999C314.8 1.048 315.008 1.296 315.104 1.632C315.2 1.968 315.16 2.288 314.984 2.592C314.84 2.832 314.648 3.144 314.408 3.528C314.168 3.912 313.92 4.296 313.664 4.68C313.424 5.064 313.216 5.392 313.04 5.664C313.248 5.792 313.432 5.92 313.592 6.048C313.768 6.176 313.92 6.28 314.048 6.36C314.4 5.848 314.72 5.376 315.008 4.944C315.312 4.512 315.552 4.16 315.728 3.888C315.952 3.552 316.224 3.344 316.544 3.264C316.864 3.168 317.192 3.208 317.528 3.384C317.832 3.528 318.024 3.784 318.104 4.152C318.2 4.52 318.136 4.864 317.912 5.184C317.64 5.584 317.28 6.088 316.832 6.696C316.4 7.288 315.936 7.92 315.44 8.592C314.944 9.248 314.472 9.88 314.024 10.488C314.424 10.456 314.808 10.424 315.176 10.392C315.56 10.344 315.912 10.304 316.232 10.272L316.04 9.72C315.928 9.384 315.936 9.08 316.064 8.808C316.208 8.52 316.432 8.32 316.736 8.208C317.056 8.096 317.36 8.104 317.648 8.232C317.952 8.36 318.176 8.592 318.32 8.928C318.416 9.168 318.536 9.48 318.68 9.864C318.84 10.248 318.992 10.64 319.136 11.04C319.28 11.424 319.392 11.744 319.472 12C319.584 12.352 319.568 12.688 319.424 13.008C319.28 13.312 319.032 13.528 318.68 13.656C318.328 13.768 318 13.744 317.696 13.584C317.392 13.424 317.2 13.192 317.12 12.888C317.088 12.728 317.04 12.568 316.976 12.408C316.528 12.472 316 12.544 315.392 12.624V21.72C315.392 22.12 315.264 22.44 315.008 22.68C314.752 22.92 314.44 23.04 314.072 23.04ZM325.064 22.44C323.704 22.44 322.656 22.304 321.92 22.032C321.184 21.76 320.672 21.272 320.384 20.568C320.096 19.864 319.952 18.872 319.952 17.592C319.952 16.312 320.096 15.32 320.384 14.616C320.672 13.912 321.184 13.424 321.92 13.152C322.656 12.88 323.704 12.744 325.064 12.744C326.424 12.744 327.472 12.88 328.208 13.152C328.944 13.424 329.448 13.912 329.72 14.616C330.008 15.32 330.152 16.312 330.152 17.592C330.152 18.872 330.008 19.864 329.72 20.568C329.448 21.272 328.944 21.76 328.208 22.032C327.472 22.304 326.424 22.44 325.064 22.44ZM321.392 11.88C321.088 12.104 320.744 12.208 320.36 12.192C319.976 12.16 319.672 12 319.448 11.712C319.256 11.44 319.176 11.144 319.208 10.824C319.24 10.504 319.384 10.248 319.64 10.056C320.632 9.32 321.344 8.488 321.776 7.56C322.224 6.616 322.504 5.488 322.616 4.176H320.048C319.68 4.176 319.384 4.056 319.16 3.816C318.952 3.576 318.848 3.296 318.848 2.976C318.848 2.656 318.952 2.384 319.16 2.16C319.368 1.92 319.648 1.8 320 1.8H327.2C328.416 1.8 329.28 2.072 329.792 2.616C330.32 3.16 330.552 4 330.488 5.136C330.472 5.68 330.432 6.256 330.368 6.864C330.32 7.472 330.256 8.008 330.176 8.472C330.048 9.336 329.824 10.016 329.504 10.512C329.2 10.992 328.776 11.336 328.232 11.544C327.688 11.736 326.984 11.848 326.12 11.88C325.704 11.896 325.352 11.808 325.064 11.616C324.776 11.408 324.616 11.096 324.584 10.68C324.552 10.296 324.648 9.984 324.872 9.744C325.112 9.488 325.408 9.352 325.76 9.336C326.448 9.304 326.904 9.208 327.128 9.048C327.352 8.872 327.512 8.536 327.608 8.04C327.672 7.736 327.728 7.328 327.776 6.816C327.84 6.304 327.88 5.864 327.896 5.496C327.928 4.984 327.856 4.64 327.68 4.464C327.52 4.272 327.192 4.176 326.696 4.176H325.112C324.984 5.904 324.64 7.4 324.08 8.664C323.52 9.912 322.624 10.984 321.392 11.88ZM325.064 19.896C325.736 19.896 326.24 19.84 326.576 19.728C326.928 19.616 327.16 19.392 327.272 19.056C327.384 18.72 327.44 18.224 327.44 17.568C327.44 16.928 327.384 16.448 327.272 16.128C327.16 15.808 326.928 15.592 326.576 15.48C326.24 15.352 325.736 15.288 325.064 15.288C324.392 15.288 323.88 15.344 323.528 15.456C323.192 15.568 322.96 15.784 322.832 16.104C322.72 16.424 322.664 16.904 322.664 17.544C322.664 18.184 322.72 18.672 322.832 19.008C322.96 19.344 323.192 19.576 323.528 19.704C323.88 19.832 324.392 19.896 325.064 19.896ZM309.584 20.4C309.28 20.32 309.056 20.136 308.912 19.848C308.784 19.56 308.776 19.272 308.888 18.984C309.016 18.664 309.16 18.256 309.32 17.76C309.496 17.264 309.656 16.76 309.8 16.248C309.96 15.736 310.08 15.296 310.16 14.928C310.24 14.592 310.408 14.352 310.664 14.208C310.92 14.048 311.2 14 311.504 14.064C311.824 14.128 312.072 14.28 312.248 14.52C312.424 14.76 312.472 15.064 312.392 15.432C312.328 15.8 312.216 16.248 312.056 16.776C311.912 17.288 311.76 17.792 311.6 18.288C311.44 18.784 311.296 19.208 311.168 19.56C311.056 19.88 310.848 20.128 310.544 20.304C310.24 20.464 309.92 20.496 309.584 20.4ZM318.512 19.344C318.208 19.456 317.904 19.456 317.6 19.344C317.296 19.232 317.088 19 316.976 18.648C316.896 18.376 316.784 18.024 316.64 17.592C316.496 17.144 316.352 16.696 316.208 16.248C316.08 15.8 315.976 15.44 315.896 15.168C315.816 14.816 315.864 14.52 316.04 14.28C316.216 14.024 316.456 13.864 316.76 13.8C317.08 13.72 317.368 13.76 317.624 13.92C317.88 14.064 318.048 14.288 318.128 14.592C318.208 14.848 318.312 15.176 318.44 15.576C318.584 15.976 318.728 16.376 318.872 16.776C319.016 17.176 319.128 17.496 319.208 17.736C319.336 18.088 319.336 18.416 319.208 18.72C319.08 19.008 318.848 19.216 318.512 19.344ZM334.952 11.016C334.584 11.256 334.192 11.352 333.776 11.304C333.376 11.24 333.064 11.032 332.84 10.68C332.664 10.392 332.608 10.08 332.672 9.744C332.752 9.392 332.984 9.096 333.368 8.856C334.264 8.296 335.168 7.688 336.08 7.032C337.008 6.36 337.904 5.664 338.768 4.944C339.648 4.224 340.44 3.52 341.144 2.832C341.832 2.16 342.464 1.712 343.04 1.488C343.616 1.248 344.208 1.232 344.816 1.44C345.44 1.648 346.128 2.08 346.88 2.736C347.344 3.136 347.888 3.592 348.512 4.104C349.136 4.6 349.8 5.12 350.504 5.664C351.208 6.208 351.92 6.736 352.64 7.248C353.376 7.76 354.072 8.216 354.728 8.616C355.128 8.872 355.376 9.192 355.472 9.576C355.584 9.96 355.52 10.328 355.28 10.68C355.04 11.016 354.704 11.208 354.272 11.256C353.84 11.304 353.416 11.192 353 10.92C352.392 10.504 351.728 10.032 351.008 9.504C350.288 8.96 349.56 8.392 348.824 7.8C348.088 7.208 347.392 6.632 346.736 6.072C346.096 5.512 345.536 5.008 345.056 4.56C344.672 4.192 344.336 4.008 344.048 4.008C343.76 3.992 343.424 4.168 343.04 4.536C342.528 5.016 341.936 5.552 341.264 6.144C340.608 6.72 339.912 7.304 339.176 7.896C338.456 8.488 337.728 9.056 336.992 9.6C336.272 10.144 335.592 10.616 334.952 11.016ZM336.896 22.152C336.4 22.392 335.952 22.456 335.552 22.344C335.168 22.248 334.872 22.016 334.664 21.648C334.456 21.248 334.448 20.864 334.64 20.496C334.848 20.128 335.144 19.864 335.528 19.704C336.68 19.176 337.56 18.544 338.168 17.808C338.776 17.056 339.184 16.112 339.392 14.976C339.616 13.84 339.712 12.424 339.68 10.728C339.664 10.376 339.784 10.064 340.04 9.792C340.296 9.52 340.624 9.384 341.024 9.384C341.44 9.384 341.784 9.528 342.056 9.816C342.328 10.088 342.464 10.392 342.464 10.728C342.496 12.808 342.328 14.576 341.96 16.032C341.608 17.488 341.016 18.704 340.184 19.68C339.368 20.656 338.272 21.48 336.896 22.152ZM347.576 22.488C347.128 22.488 346.776 22.368 346.52 22.128C346.28 21.888 346.16 21.56 346.16 21.144V10.728C346.16 10.344 346.296 10.024 346.568 9.768C346.856 9.512 347.192 9.384 347.576 9.384C347.944 9.384 348.272 9.512 348.56 9.768C348.848 10.024 348.992 10.344 348.992 10.728V21.144C348.992 21.56 348.872 21.888 348.632 22.128C348.392 22.368 348.04 22.488 347.576 22.488Z" fill="#010F32"/>
</svg>
