<svg width="681" height="178" viewBox="0 0 681 178" fill="none" xmlns="http://www.w3.org/2000/svg">
<g clip-path="url(#clip0_420_1781)">
<path d="M606.66 8.20008L643.9 105.32H528.02L585.08 6.50008C590.12 -2.23992 603.06 -1.21992 606.68 8.20008H606.66ZM74.3201 8.20008L37.0801 105.32H152.96L95.9401 6.50008C90.9001 -2.23992 77.9601 -1.21992 74.3401 8.20008H74.3201Z" fill="#F8B1BF"/>
<path d="M661.52 33.1406H19.48C8.99763 33.1406 0.5 41.6383 0.5 52.1206V158.541C0.5 169.023 8.99763 177.521 19.48 177.521H661.52C672.002 177.521 680.5 169.023 680.5 158.541V52.1206C680.5 41.6383 672.002 33.1406 661.52 33.1406Z" fill="#F8B1BF"/>
<path d="M64.78 96.4597C64.14 96.4597 63.6 96.2597 63.14 95.8397C62.68 95.4197 62.46 94.8597 62.46 94.1397V88.2597C61.42 89.1597 60.26 90.0597 58.98 90.9597C57.7 91.8597 56.38 92.6797 55.04 93.4597C53.7 94.2397 52.38 94.8997 51.1 95.4597C50.36 95.7597 49.7 95.7997 49.12 95.6197C48.54 95.4397 48.12 95.0397 47.86 94.4597C47.6 93.8397 47.56 93.2597 47.78 92.6997C48 92.1397 48.44 91.7197 49.1 91.4597C50.76 90.7997 52.42 89.9997 54.08 89.0597C55.74 88.1197 57.28 87.1597 58.66 86.1797H54.74C52.72 86.1797 51.3 85.7597 50.5 84.9197C49.7 84.0797 49.46 82.7597 49.78 80.9797C50.02 79.7597 50.36 78.7997 50.8 78.1197C51.24 77.4397 51.9 76.9597 52.78 76.6797C53.66 76.3997 54.86 76.2597 56.38 76.2597H62.46V74.1397H51.18C50.64 74.1397 50.18 73.9397 49.8 73.5397C49.42 73.1397 49.22 72.6797 49.22 72.1397C49.22 71.5997 49.42 71.1397 49.8 70.7397C50.18 70.3397 50.64 70.1397 51.18 70.1397H56.74C56.1 69.9197 55.68 69.5197 55.5 68.9397C55.4 68.5597 55.24 68.0997 55.04 67.5597C54.84 67.0197 54.66 66.5597 54.5 66.1797H52.5C52.16 66.6797 51.8 67.1797 51.46 67.6597C51.12 68.1397 50.8 68.5797 50.5 68.9797C50.08 69.4797 49.58 69.8397 49 70.0397C48.42 70.2397 47.82 70.1397 47.18 69.7397C46.7 69.4397 46.4 69.0197 46.26 68.4397C46.12 67.8597 46.26 67.3597 46.62 66.8997C47.12 66.2797 47.66 65.5597 48.24 64.7397C48.82 63.9197 49.36 63.0597 49.9 62.1997C50.44 61.3397 50.86 60.5397 51.18 59.8197C51.48 59.1597 51.9 58.7397 52.44 58.5997C52.98 58.4597 53.56 58.4997 54.14 58.7397C54.7 58.9597 55.1 59.3197 55.32 59.8397C55.54 60.3597 55.52 60.9197 55.22 61.5397C55.16 61.6797 55.1 61.8197 55.02 61.9797C54.94 62.1397 54.86 62.2997 54.78 62.4597H62.5C63.06 62.4597 63.5 62.6397 63.84 62.9997C64.18 63.3597 64.34 63.7997 64.34 64.2997C64.34 64.4597 64.32 64.6397 64.26 64.8597C64.82 63.9997 65.36 63.1197 65.86 62.2197C66.36 61.3197 66.78 60.5197 67.1 59.8197C67.4 59.1997 67.82 58.7797 68.4 58.5597C68.98 58.3397 69.56 58.3597 70.18 58.6597C70.8 58.9197 71.2 59.3197 71.42 59.8597C71.64 60.3997 71.6 60.9797 71.3 61.6197C71.24 61.7597 71.18 61.8997 71.1 62.0397C71.02 62.1797 70.96 62.3197 70.9 62.4597H80.7C81.26 62.4597 81.7 62.6397 82.02 62.9997C82.34 63.3597 82.5 63.7997 82.5 64.2997C82.5 64.7997 82.34 65.2397 82.02 65.6197C81.7 65.9997 81.26 66.1797 80.7 66.1797H75.5C75.58 66.3997 75.66 66.6197 75.76 66.8397C75.86 67.0597 75.92 67.2597 75.98 67.4197C76.2 67.9197 76.18 68.4597 75.98 68.9997C75.76 69.5397 75.34 69.9197 74.72 70.1397L74.6 70.1797C76.26 70.2597 77.4 70.6797 78.06 71.4397C78.72 72.1997 79.04 73.3997 79.04 75.0597C79.04 76.8797 78.66 78.1597 77.9 78.8997C77.14 79.6397 75.76 80.0197 73.76 80.0197H67.12V82.1797H75.72C77.7 82.1797 79.14 82.6397 80.04 83.5797C80.94 84.5197 81.28 85.9597 81.04 87.9397C80.82 89.7597 80.4 91.1397 79.74 92.1197C79.08 93.0997 78.24 93.7597 77.22 94.0997C76.2 94.4397 74.98 94.6197 73.56 94.6197C72.78 94.6197 72.16 94.4397 71.66 94.0597C71.16 93.6797 70.9 93.1197 70.84 92.3797C70.82 91.6797 71 91.0997 71.38 90.6197C71.76 90.1397 72.34 89.8597 73.08 89.7797C73.82 89.6997 74.4 89.6197 74.78 89.5197C75.16 89.4197 75.46 89.2597 75.64 89.0397C75.82 88.8197 75.96 88.4397 76.04 87.9397C76.18 87.2197 76.14 86.7397 75.92 86.5197C75.7 86.2997 75.24 86.1797 74.52 86.1797H67.12V94.1397C67.12 94.8597 66.9 95.4197 66.44 95.8397C65.98 96.2597 65.44 96.4597 64.8 96.4597H64.78ZM55.86 82.1797H62.46V80.0197H56.14C55.52 80.0197 55.1 80.0997 54.86 80.2597C54.62 80.4197 54.48 80.6797 54.42 81.0597C54.36 81.4797 54.42 81.7797 54.64 81.9397C54.84 82.0997 55.24 82.1797 55.86 82.1797ZM59.66 67.4197C59.88 67.9597 59.86 68.4797 59.66 69.0197C59.46 69.5597 59.02 69.9197 58.4 70.1397H64.2C63.96 70.1197 63.68 69.9997 63.36 69.8197C62.82 69.4997 62.52 69.0397 62.42 68.4197C62.32 67.7997 62.46 67.2797 62.84 66.8197C62.98 66.6797 63.1 66.5397 63.22 66.3797C63.34 66.2197 63.46 66.0397 63.6 65.8597C63.26 66.0797 62.9 66.1797 62.52 66.1797H59.2C59.28 66.3997 59.36 66.6197 59.46 66.8397C59.56 67.0597 59.62 67.2597 59.68 67.4197H59.66ZM65.02 70.1397H73.06C72.42 69.9197 72 69.5197 71.82 68.9397C71.72 68.5997 71.56 68.1397 71.36 67.5797C71.16 67.0197 71 66.5597 70.86 66.1797H68.78C68.44 66.6797 68.1 67.1797 67.76 67.6597C67.42 68.1397 67.1 68.5997 66.78 69.0197C66.28 69.6597 65.68 70.0397 65.02 70.1397ZM67.1 76.2597H72.9C73.52 76.2597 73.92 76.1797 74.1 76.0397C74.28 75.8997 74.38 75.5997 74.38 75.1797C74.38 74.7597 74.28 74.4797 74.1 74.3397C73.92 74.1997 73.52 74.1397 72.9 74.1397H67.1V76.2597Z" fill="#010F32"/>
<path d="M131.74 95.7803C131 95.7803 130.38 95.6003 129.9 95.2203C129.42 94.8403 129.16 94.3003 129.1 93.5803C129.04 92.9203 129.22 92.3403 129.6 91.8803C129.98 91.4203 130.52 91.1603 131.18 91.1003C132.14 91.0203 132.88 90.9203 133.38 90.7803C133.88 90.6403 134.26 90.4003 134.52 90.0203C134.78 89.6403 134.96 89.1003 135.1 88.3803C135.24 87.6003 135.36 86.7603 135.48 85.8203C135.6 84.8803 135.7 83.9403 135.78 82.9803C135.84 82.2003 135.72 81.6803 135.44 81.4003C135.16 81.1203 134.62 80.9803 133.82 80.9803H132.54C131.12 80.9803 130.12 80.6803 129.52 80.0603C128.92 79.4403 128.7 78.4403 128.86 77.0203C128.96 76.1403 129.04 75.3403 129.1 74.6403C129.16 73.9403 129.2 73.1603 129.26 72.3003C129.36 71.0003 129.74 70.0803 130.36 69.5603C130.98 69.0403 131.94 68.7803 133.22 68.7803H134.1C134.8 68.7803 135.26 68.6803 135.52 68.4803C135.78 68.2803 135.9 67.9203 135.9 67.3803V66.2603C135.9 65.6403 135.78 65.2403 135.52 65.0203C135.26 64.8003 134.8 64.7003 134.1 64.7003H129.94C129.32 64.7003 128.84 64.5003 128.46 64.1003C128.08 63.7003 127.9 63.2203 127.9 62.6603C127.9 62.1003 128.08 61.6203 128.46 61.2403C128.84 60.8603 129.32 60.6603 129.94 60.6603H136.06C137.64 60.6603 138.76 60.9803 139.44 61.6003C140.12 62.2203 140.46 63.2803 140.46 64.7803V68.5403C140.46 70.0403 140.14 71.0803 139.48 71.6603C138.82 72.2403 137.88 72.5403 136.62 72.5403H135.26C134.62 72.5403 134.16 72.6203 133.9 72.8003C133.64 72.9803 133.48 73.3403 133.42 73.9003C133.4 74.1603 133.38 74.3803 133.38 74.5403C133.38 74.7003 133.38 74.8803 133.34 75.1003C133.28 75.7403 133.38 76.1603 133.62 76.3403C133.86 76.5203 134.3 76.6203 134.94 76.6203H136.34C137.84 76.6203 138.92 76.9603 139.58 77.6203C140.24 78.2803 140.56 79.3203 140.5 80.7003C140.44 82.2403 140.36 83.7803 140.22 85.3003C140.08 86.8203 139.92 88.1603 139.74 89.3003C139.5 90.9803 139.04 92.2803 138.36 93.2203C137.68 94.1603 136.8 94.8203 135.7 95.2003C134.6 95.5803 133.28 95.7803 131.74 95.7803ZM152.7 96.1803C152.08 96.1803 151.56 95.9803 151.14 95.5803C150.72 95.1803 150.5 94.6403 150.5 93.9803V88.7803H142.74C142.16 88.7803 141.68 88.5803 141.3 88.1803C140.92 87.7803 140.74 87.3203 140.74 86.7803C140.74 86.2203 140.92 85.7403 141.3 85.3603C141.68 84.9803 142.16 84.7803 142.74 84.7803H150.5V82.6203H149.1C146.78 82.6203 145.12 82.1803 144.1 81.2803C143.08 80.3803 142.58 78.8403 142.58 76.6603V73.4203C142.58 71.2403 143.08 69.7003 144.1 68.8003C145.12 67.9003 146.78 67.4603 149.1 67.4603H155.14C155.14 67.4603 155.18 67.4003 155.18 67.3603C155.18 67.3203 155.18 67.2803 155.22 67.2603C155.52 66.7203 155.88 66.0403 156.3 65.2003C156.72 64.3603 157.14 63.5203 157.56 62.6603C157.98 61.8003 158.28 61.1203 158.5 60.5803C158.74 59.9603 159.14 59.5403 159.68 59.3003C160.22 59.0603 160.8 59.0603 161.38 59.3003C161.94 59.5203 162.34 59.8803 162.6 60.4203C162.86 60.9603 162.84 61.5203 162.6 62.1403C162.38 62.6003 162.1 63.1603 161.74 63.8603C161.38 64.5603 161 65.2603 160.62 65.9603C160.24 66.6603 159.86 67.3003 159.52 67.8603C160.72 68.2003 161.6 68.8203 162.14 69.7003C162.68 70.5803 162.96 71.8203 162.96 73.4203V76.6603C162.96 78.8403 162.44 80.3803 161.42 81.2803C160.4 82.1803 158.72 82.6203 156.4 82.6203H154.96V84.7803H163C163.62 84.7803 164.1 84.9803 164.46 85.3603C164.82 85.7403 165 86.2203 165 86.7803C165 87.3403 164.82 87.7803 164.46 88.1803C164.1 88.5803 163.62 88.7803 163 88.7803H154.96V93.9803C154.96 94.6403 154.74 95.1803 154.32 95.5803C153.9 95.9803 153.36 96.1803 152.72 96.1803H152.7ZM147.18 67.0603C146.68 67.3203 146.14 67.4003 145.6 67.2603C145.06 67.1203 144.64 66.8003 144.38 66.3003C144.24 66.0403 144.06 65.6803 143.8 65.2403C143.54 64.8003 143.3 64.3603 143.04 63.9203C142.78 63.4803 142.58 63.1403 142.42 62.9003C142.12 62.4003 142.06 61.8603 142.22 61.3003C142.38 60.7403 142.72 60.3203 143.22 60.0603C143.76 59.7603 144.32 59.7003 144.9 59.8803C145.48 60.0603 145.94 60.4003 146.26 60.9403C146.42 61.1803 146.62 61.5203 146.86 61.9403C147.1 62.3603 147.34 62.7803 147.58 63.2003C147.82 63.6203 148 63.9603 148.14 64.2203C148.44 64.7603 148.48 65.2803 148.28 65.8203C148.08 66.3603 147.72 66.7603 147.18 67.0603ZM146.86 73.3803H150.5V70.9003H149.54C148.5 70.9003 147.8 71.0603 147.42 71.3803C147.04 71.7003 146.86 72.3203 146.86 73.2203V73.3803ZM149.54 79.1803H150.5V76.7003H146.86V76.8603C146.86 77.7603 147.04 78.3803 147.42 78.7003C147.8 79.0203 148.5 79.1803 149.54 79.1803ZM153.26 66.5403C152.7 66.7203 152.18 66.7203 151.68 66.5003C151.18 66.2803 150.84 65.8803 150.62 65.3003C150.54 65.0003 150.4 64.6203 150.22 64.1603C150.04 63.7003 149.84 63.2203 149.66 62.7403C149.48 62.2603 149.32 61.8803 149.22 61.6203C148.98 61.0003 149 60.4603 149.28 59.9603C149.56 59.4603 149.96 59.1203 150.5 58.9403C151.12 58.7203 151.68 58.7403 152.18 58.9803C152.68 59.2203 153.06 59.6403 153.3 60.2603C153.4 60.5203 153.56 60.9003 153.74 61.3603C153.92 61.8203 154.1 62.3003 154.28 62.7803C154.46 63.2603 154.58 63.6403 154.66 63.9003C154.88 64.5403 154.84 65.1003 154.58 65.5603C154.32 66.0203 153.88 66.3603 153.26 66.5403ZM154.94 73.3803H158.66V73.2203C158.66 72.3203 158.48 71.7003 158.1 71.3803C157.72 71.0603 157.02 70.9003 155.98 70.9003H154.94V73.3803ZM154.94 79.1803H155.98C157.02 79.1803 157.72 79.0203 158.1 78.7003C158.48 78.3803 158.66 77.7603 158.66 76.8603V76.7003H154.94V79.1803Z" fill="#010F32"/>
<path d="M110.36 93.8997C110.36 95.7397 109.02 96.7397 106.92 96.7397C104.82 96.7397 103.52 95.7397 103.52 93.9397V64.0397C103.52 63.1397 103.28 62.6997 102.36 62.6997H102.2L97.5001 62.8597C95.7001 62.8997 94.5601 61.3597 94.5601 59.6597C94.5601 57.8597 95.6601 56.3597 97.4001 56.3197L104.7 56.1797H105.14C109.14 56.1797 110.34 57.4797 110.34 61.8197V93.9197L110.36 93.8997Z" fill="#010F32"/>
<path d="M245.06 91.5801C243.54 91.5801 242.78 90.8001 242.78 89.2201V65.9401C242.78 64.3601 243.54 63.5801 245.06 63.5801C246.58 63.5801 247.38 64.3601 247.38 65.9401V89.2201C247.38 90.8001 246.6 91.5801 245.06 91.5801Z" fill="#010F32"/>
<path d="M254.94 91.5804C253.42 91.5804 252.66 90.8004 252.66 89.2204V74.7003C252.66 73.1203 253.34 72.3403 254.7 72.3403C256.06 72.3403 256.76 72.6803 256.82 73.3803L256.94 74.6204C257.48 73.8804 258.18 73.2204 259.06 72.6804C259.94 72.1404 260.98 71.8604 262.18 71.8604C264.18 71.8604 265.82 72.5003 267.08 73.7803C268.34 75.0603 268.98 76.9403 268.98 79.4203V89.2204C268.98 90.8004 268.24 91.5804 266.74 91.5804C265.24 91.5804 264.46 90.8004 264.46 89.2204V80.5004C264.46 78.9804 264.16 77.8404 263.54 77.0804C262.92 76.3204 262.1 75.9404 261.06 75.9404C259.92 75.9404 258.98 76.3404 258.26 77.1204C257.54 77.9004 257.18 79.0804 257.18 80.6204V89.2204C257.18 90.8004 256.44 91.5804 254.94 91.5804Z" fill="#010F32"/>
<path d="M280.82 91.9803C279.62 91.9803 278.48 91.8203 277.4 91.5203C276.32 91.2203 275.32 90.7403 274.42 90.1003C273.76 89.6403 273.4 89.1403 273.36 88.6003C273.32 88.0603 273.52 87.5203 273.98 87.0203C274.44 86.5403 274.9 86.3203 275.4 86.3403C275.9 86.3603 276.48 86.5603 277.14 86.9403C278.2 87.6803 279.52 88.0603 281.06 88.0603C282.16 88.0603 282.94 87.9003 283.44 87.6003C283.94 87.3003 284.18 86.7203 284.18 85.9003C284.18 85.5003 284.06 85.1803 283.82 84.9203C283.58 84.6603 283.14 84.4403 282.48 84.2203C281.82 84.0003 280.88 83.7803 279.62 83.5403C277.76 83.1603 276.26 82.5603 275.14 81.7003C274.02 80.8403 273.46 79.5003 273.46 77.6603C273.46 76.4603 273.78 75.4203 274.42 74.5603C275.06 73.7003 275.92 73.0203 277.02 72.5403C278.12 72.0603 279.32 71.8203 280.66 71.8203C282.74 71.8203 284.5 72.2603 285.94 73.1403C286.66 73.5203 287.06 73.9803 287.16 74.5203C287.26 75.0603 287.1 75.6003 286.7 76.1003C286.28 76.6403 285.82 76.9003 285.32 76.9003C284.82 76.9003 284.24 76.7603 283.58 76.4603C283.16 76.2203 282.7 76.0403 282.24 75.9403C281.78 75.8403 281.28 75.7803 280.74 75.7803C279.76 75.7803 279.06 75.9603 278.64 76.3003C278.22 76.6403 278.02 77.0603 278.02 77.5403C278.02 77.8803 278.12 78.1803 278.32 78.4203C278.52 78.6603 278.92 78.8803 279.5 79.1003C280.08 79.3203 280.94 79.5603 282.06 79.8203C284.2 80.3203 285.84 81.0603 287.02 82.0203C288.2 82.9803 288.78 84.3203 288.78 86.0603C288.78 88.0003 288.04 89.4803 286.56 90.4803C285.08 91.4803 283.16 91.9803 280.82 91.9803Z" fill="#010F32"/>
<path d="M300.22 92.0201C298.32 92.0201 296.88 91.6801 295.88 90.9801C294.88 90.2801 294.38 88.9001 294.38 86.8201V76.2201H293.06C291.48 76.2201 290.7 75.5601 290.7 74.2601C290.7 73.6401 290.86 73.1801 291.2 72.8401C291.54 72.5001 292.14 72.3401 293.02 72.3401H294.38V67.9401C294.38 66.3601 295.14 65.5801 296.66 65.5801C298.18 65.5801 298.86 66.3601 298.86 67.9401V72.3401H301.82C303.4 72.3401 304.18 72.9801 304.18 74.2601C304.18 75.5401 303.4 76.2201 301.86 76.2201H298.86V85.6601C298.86 86.5601 299.08 87.1801 299.52 87.5001C299.96 87.8201 300.6 87.9801 301.42 87.9801C302.24 87.9801 302.94 88.0801 303.44 88.2801C303.94 88.4801 304.18 89.0001 304.18 89.8201C304.18 90.4801 303.98 90.9801 303.6 91.2801C303.22 91.5801 302.72 91.7801 302.12 91.8801C301.52 91.9801 300.88 92.0201 300.22 92.0201Z" fill="#010F32"/>
<path d="M314.06 91.8604C311.98 91.9404 310.26 91.4804 308.92 90.5004C307.58 89.5204 306.9 88.0804 306.9 86.2204C306.9 84.8604 307.32 83.7003 308.14 82.7403C308.96 81.7803 310.04 81.0204 311.34 80.4804C312.64 79.9404 314 79.6404 315.38 79.6204C316.08 79.5604 316.72 79.6203 317.34 79.7803C317.96 79.9403 318.5 80.1604 318.98 80.4604V78.7803C318.98 77.5203 318.72 76.7203 318.18 76.3403C317.64 75.9603 316.86 75.7803 315.82 75.7803C315.08 75.7803 314.3 75.8803 313.48 76.0603C312.66 76.2403 311.88 76.5004 311.1 76.8204C310.4 77.1204 309.82 77.2204 309.32 77.1404C308.82 77.0604 308.42 76.7404 308.1 76.1804C307.78 75.6204 307.7 75.0803 307.88 74.5603C308.06 74.0403 308.5 73.6403 309.22 73.3403C310.18 72.8803 311.22 72.5204 312.36 72.2604C313.5 72.0004 314.64 71.8604 315.82 71.8604C318.3 71.8604 320.16 72.3604 321.42 73.3604C322.68 74.3604 323.3 76.1603 323.3 78.7803V87.6204C323.3 87.8804 323.34 88.1004 323.4 88.2604C323.46 88.4204 323.52 88.5404 323.58 88.6204C323.82 88.9604 324.08 89.1604 324.36 89.2204C324.64 89.2804 324.88 89.3004 325.1 89.3204C325.32 89.3204 325.42 89.4603 325.42 89.7003C325.42 90.1803 325.3 90.6004 325.04 90.9404C324.78 91.2804 324.36 91.5204 323.78 91.6604C323.16 91.8004 322.56 91.8604 321.98 91.8604C321.16 91.8604 320.52 91.7204 320.08 91.4404C319.64 91.1604 319.32 90.6803 319.14 90.0203C318.48 90.5803 317.7 91.0204 316.82 91.3204C315.94 91.6204 315.02 91.8004 314.06 91.8604ZM313.98 87.9404C315.48 87.8804 316.7 87.6003 317.68 87.0603C318.66 86.5203 319.12 85.7603 319.06 84.7803C319.04 84.1403 318.7 83.7004 318.08 83.4604C317.46 83.2204 316.68 83.1204 315.74 83.1804C314.44 83.2004 313.36 83.5404 312.5 84.1604C311.64 84.7804 311.24 85.4804 311.26 86.2604C311.32 87.4604 312.22 88.0204 313.98 87.9404Z" fill="#010F32"/>
<path d="M336.98 99.5404C333.96 99.5404 331.58 98.6604 329.82 96.9004C329.26 96.3204 329.04 95.7404 329.14 95.1804C329.24 94.6204 329.6 94.1603 330.18 93.7803C330.76 93.3803 331.3 93.2403 331.78 93.3803C332.26 93.5203 332.8 93.8004 333.38 94.2604C334.32 95.0604 335.52 95.4604 336.98 95.4604C338.56 95.4604 339.72 94.9803 340.46 94.0203C341.2 93.0603 341.58 91.5203 341.58 89.4203V88.3403C340.32 89.6403 338.74 90.3004 336.82 90.3004C335.14 90.3004 333.64 89.9403 332.32 89.2403C331 88.5403 329.96 87.5004 329.22 86.1204C328.48 84.7404 328.1 83.0603 328.1 81.0603C328.1 79.0603 328.48 77.3404 329.22 75.9804C329.96 74.6204 331 73.6004 332.32 72.9004C333.64 72.2004 335.14 71.8604 336.82 71.8604C337.86 71.8604 338.86 72.0803 339.82 72.5203C340.78 72.9603 341.56 73.7003 342.18 74.7403V74.0603C342.18 73.4003 342.36 72.9403 342.7 72.7003C343.04 72.4603 343.52 72.3403 344.14 72.3403C345.42 72.3403 346.06 73.1203 346.06 74.7003V89.4203C346.06 92.6003 345.32 95.0804 343.84 96.8604C342.36 98.6404 340.08 99.5404 336.98 99.5404ZM337.18 86.3403C338.56 86.3403 339.7 85.8603 340.58 84.9203C341.46 83.9803 341.9 82.6803 341.9 81.0603C341.9 79.4403 341.46 78.1203 340.58 77.2003C339.7 76.2803 338.56 75.8204 337.18 75.8204C335.8 75.8204 334.7 76.2803 333.88 77.2003C333.06 78.1203 332.66 79.4003 332.66 81.0603C332.66 82.7203 333.06 83.9803 333.88 84.9203C334.7 85.8603 335.8 86.3403 337.18 86.3403Z" fill="#010F32"/>
<path d="M353.26 91.5804C351.74 91.5804 350.98 90.8004 350.98 89.2204V74.7003C350.98 73.1203 351.76 72.3403 353.34 72.3403C353.88 72.3403 354.34 72.4604 354.74 72.7204C355.14 72.9804 355.34 73.4404 355.34 74.1404V75.0603C355.82 74.1003 356.58 73.3203 357.6 72.7403C358.62 72.1603 359.72 71.8604 360.86 71.8604C361.68 71.8604 362.32 72.0803 362.76 72.5203C363.2 72.9603 363.42 73.5604 363.42 74.3004C363.42 75.0004 363.24 75.5004 362.9 75.8204C362.56 76.1404 362.16 76.2804 361.7 76.2204C361.48 76.2004 361.26 76.1804 361.02 76.1604C360.78 76.1404 360.52 76.1404 360.22 76.1404C358.92 76.1404 357.8 76.5603 356.88 77.4203C355.96 78.2803 355.5 79.4803 355.5 81.0203V89.2204C355.5 90.8004 354.76 91.5804 353.26 91.5804Z" fill="#010F32"/>
<path d="M372.58 91.8604C370.5 91.9404 368.78 91.4804 367.44 90.5004C366.1 89.5204 365.42 88.0804 365.42 86.2204C365.42 84.8604 365.84 83.7003 366.66 82.7403C367.48 81.7803 368.56 81.0204 369.86 80.4804C371.16 79.9404 372.52 79.6404 373.9 79.6204C374.6 79.5604 375.24 79.6203 375.86 79.7803C376.48 79.9403 377.02 80.1604 377.5 80.4604V78.7803C377.5 77.5203 377.24 76.7203 376.7 76.3403C376.16 75.9603 375.38 75.7803 374.34 75.7803C373.6 75.7803 372.82 75.8803 372 76.0603C371.18 76.2403 370.4 76.5004 369.62 76.8204C368.92 77.1204 368.34 77.2204 367.84 77.1404C367.34 77.0604 366.94 76.7404 366.62 76.1804C366.3 75.6204 366.22 75.0803 366.4 74.5603C366.58 74.0403 367.02 73.6403 367.74 73.3403C368.7 72.8803 369.74 72.5204 370.88 72.2604C372.02 72.0004 373.16 71.8604 374.34 71.8604C376.82 71.8604 378.68 72.3604 379.94 73.3604C381.2 74.3604 381.82 76.1603 381.82 78.7803V87.6204C381.82 87.8804 381.86 88.1004 381.92 88.2604C381.98 88.4204 382.04 88.5404 382.1 88.6204C382.34 88.9604 382.6 89.1604 382.88 89.2204C383.16 89.2804 383.4 89.3004 383.62 89.3204C383.84 89.3204 383.94 89.4603 383.94 89.7003C383.94 90.1803 383.82 90.6004 383.56 90.9404C383.3 91.2804 382.88 91.5204 382.3 91.6604C381.68 91.8004 381.08 91.8604 380.5 91.8604C379.68 91.8604 379.04 91.7204 378.6 91.4404C378.16 91.1604 377.84 90.6803 377.66 90.0203C377 90.5803 376.22 91.0204 375.34 91.3204C374.46 91.6204 373.54 91.8004 372.58 91.8604ZM372.5 87.9404C374 87.8804 375.22 87.6003 376.2 87.0603C377.18 86.5203 377.64 85.7603 377.58 84.7803C377.56 84.1403 377.22 83.7004 376.6 83.4604C375.98 83.2204 375.2 83.1204 374.26 83.1804C372.96 83.2004 371.88 83.5404 371.02 84.1604C370.16 84.7804 369.76 85.4804 369.78 86.2604C369.84 87.4604 370.74 88.0204 372.5 87.9404Z" fill="#010F32"/>
<path d="M389.9 91.5804C388.38 91.5804 387.62 90.8004 387.62 89.2204V74.7003C387.62 73.1203 388.3 72.3403 389.66 72.3403C391.02 72.3403 391.7 72.6803 391.78 73.3803L391.94 74.6604C392.32 73.8604 392.94 73.2004 393.82 72.6604C394.7 72.1204 395.72 71.8604 396.86 71.8604C398.12 71.8604 399.2 72.1603 400.14 72.7403C401.08 73.3203 401.8 74.1604 402.3 75.2604C402.8 74.2804 403.54 73.4604 404.52 72.8204C405.5 72.1804 406.6 71.8604 407.86 71.8604C409.76 71.8604 411.28 72.5203 412.44 73.8403C413.6 75.1603 414.18 77.0203 414.18 79.4203V89.2204C414.18 90.8004 413.44 91.5804 411.94 91.5804C410.44 91.5804 409.62 90.8004 409.62 89.2204V80.4604C409.62 79.0404 409.36 77.9404 408.86 77.1404C408.36 76.3404 407.64 75.9404 406.74 75.9404C405.6 75.9404 404.7 76.3604 404.08 77.1804C403.46 78.0004 403.14 79.1803 403.14 80.7003V89.2204C403.14 90.8004 402.4 91.5804 400.9 91.5804C399.4 91.5804 398.62 90.8004 398.62 89.2204V80.4604C398.62 79.0404 398.36 77.9404 397.82 77.1404C397.28 76.3404 396.56 75.9404 395.66 75.9404C394.54 75.9404 393.68 76.3603 393.06 77.2003C392.44 78.0403 392.14 79.2003 392.14 80.7003V89.2204C392.14 90.8004 391.4 91.5804 389.9 91.5804Z" fill="#010F32"/>
<path d="M442.84 92.5399C442.2 92.6199 441.62 92.4599 441.12 92.0599C440.6 91.6599 440.3 91.1599 440.22 90.5199C440.14 89.8399 440 88.6799 439.76 87.0399C439.52 85.3999 439.28 83.5799 439 81.5399C437.38 81.7199 435.84 81.8999 434.36 82.0999C432.9 82.2799 431.62 82.4399 430.54 82.5799C429.46 82.6999 428.68 82.7999 428.2 82.8799C427.56 82.9599 427 82.7999 426.5 82.3799C426 81.9799 425.72 81.4599 425.66 80.8199C425.58 80.1599 425.74 79.5799 426.16 79.0999C426.56 78.5999 427.08 78.3199 427.72 78.2399C428.12 78.1799 428.86 78.0999 429.92 77.9999C430.98 77.8999 432.26 77.7399 433.72 77.5599C435.2 77.3799 436.74 77.1999 438.36 77.0199L437.76 72.6799C436.08 72.8599 434.58 73.0399 433.22 73.2199C431.86 73.3999 430.94 73.5199 430.42 73.5599C429.78 73.6399 429.22 73.4599 428.72 73.0399C428.22 72.6199 427.94 72.0999 427.86 71.4599C427.8 70.8199 427.98 70.2599 428.4 69.7599C428.8 69.2599 429.32 68.9799 429.96 68.8999C430.36 68.8399 431.24 68.7599 432.56 68.6199C433.9 68.4799 435.4 68.2999 437.1 68.0999C436.8 66.1199 436.58 64.6599 436.46 63.6999C436.36 63.0399 436.52 62.4599 436.92 61.9599C437.32 61.4599 437.84 61.1599 438.48 61.0799C439.14 60.9799 439.72 61.1199 440.22 61.5199C440.72 61.9199 441.02 62.4399 441.1 63.0999C441.16 63.5799 441.24 64.1999 441.34 64.9799C441.46 65.7599 441.58 66.6399 441.7 67.6199C443.2 67.4399 444.56 67.2799 445.8 67.1399C447.04 66.9999 448 66.8999 448.66 66.8199C449.3 66.7399 449.86 66.8999 450.34 67.3199C450.84 67.7199 451.1 68.2599 451.16 68.9199C451.22 69.5599 451.04 70.1199 450.64 70.6199C450.24 71.1199 449.72 71.3799 449.06 71.4399C448.42 71.4999 447.5 71.5799 446.28 71.6999C445.06 71.8199 443.74 71.9799 442.3 72.1599L442.9 76.4599C444.44 76.2599 445.9 76.0799 447.26 75.9199C448.62 75.7599 449.8 75.6199 450.8 75.4999C451.78 75.3799 452.46 75.2999 452.82 75.2799C453.64 75.5999 454.24 75.9199 454.68 76.2399C455.12 76.5399 455.36 76.9199 455.4 77.3399C455.48 77.9799 455.32 78.5399 454.9 79.0399C454.5 79.5399 453.98 79.8199 453.34 79.8799C452.96 79.8999 452.28 79.9799 451.32 80.0799C450.36 80.1999 449.2 80.3199 447.84 80.4799C446.48 80.6399 445.04 80.7999 443.52 81.0199C443.8 83.0799 444.06 84.8999 444.3 86.5199C444.54 88.1199 444.72 89.2599 444.82 89.8799C444.94 90.5199 444.82 91.0799 444.4 91.5999C444 92.1199 443.46 92.4199 442.8 92.5399H442.84Z" fill="#010F32"/>
<path d="M476.7 93.8404C476.14 93.9404 475.62 93.8404 475.14 93.5204C474.66 93.2004 474.36 92.7604 474.26 92.2004C474.1 91.2804 473.9 90.1604 473.64 88.8204C473.38 87.4804 473.06 86.0404 472.72 84.4804C472.38 82.9204 472.02 81.3804 471.64 79.8404C470.24 80.1004 468.94 80.3204 467.72 80.5404C466.5 80.7604 465.54 80.9204 464.84 81.0604C464.28 81.1404 463.78 81.0004 463.32 80.6604C462.86 80.3204 462.58 79.8604 462.48 79.3204C462.4 78.7604 462.54 78.2604 462.88 77.8204C463.22 77.3804 463.68 77.1204 464.22 77.0404C464.86 76.9404 465.74 76.8004 466.88 76.6004C468.02 76.4204 469.28 76.2004 470.64 75.9804C470.22 74.2404 469.8 72.7604 469.42 71.5804C469.24 71.0404 469.3 70.5204 469.58 70.0204C469.86 69.5204 470.28 69.1804 470.84 69.0404C471.4 68.8804 471.92 68.9404 472.42 69.2204C472.92 69.4804 473.24 69.9004 473.38 70.4604C473.58 71.1004 473.78 71.8204 473.98 72.6604C474.18 73.5004 474.4 74.3804 474.62 75.3204L480.36 74.3404C484.34 73.6604 486.66 74.8004 487.32 77.8004C487.68 79.4804 487.32 81.0004 486.2 82.3604C485.1 83.7204 483.22 84.8404 480.56 85.7004C480.02 85.8804 479.52 85.8604 479.02 85.6204C478.52 85.4004 478.18 85.0004 477.98 84.4404C477.8 83.9004 477.82 83.3804 478.06 82.8804C478.28 82.3804 478.68 82.0404 479.24 81.8604C480.4 81.4204 481.26 81.0404 481.82 80.7204C482.38 80.4004 482.74 80.0604 482.9 79.7604C483.06 79.4404 483.1 79.1404 483.04 78.8204C482.98 78.5204 482.82 78.3004 482.54 78.1804C482.26 78.0604 481.82 78.0604 481.2 78.1804C480.44 78.3004 479.58 78.4604 478.6 78.6404C477.62 78.8204 476.62 79.0004 475.58 79.2204C475.96 80.7604 476.32 82.3004 476.66 83.8404C477 85.3804 477.32 86.8004 477.62 88.1204C477.92 89.4404 478.14 90.5604 478.32 91.4604C478.42 92.0204 478.32 92.5204 478 93.0004C477.68 93.4604 477.24 93.7604 476.68 93.9004L476.7 93.8404Z" fill="#010F32"/>
<path d="M503 74.3801C502.04 73.5601 500.96 72.7201 499.76 71.8601C498.56 70.9801 497.5 70.2801 496.52 69.7201C495.96 69.3601 495.6 68.8801 495.46 68.2601C495.3 67.6401 495.4 67.0601 495.72 66.5001C496.08 65.9401 496.56 65.5801 497.18 65.4201C497.8 65.2601 498.38 65.3601 498.94 65.7001C499.62 66.1401 500.4 66.6601 501.28 67.2801C502.16 67.9001 503 68.5201 503.82 69.1201C504.64 69.7201 505.32 70.2401 505.86 70.6801C506.36 71.0801 506.66 71.6201 506.76 72.2601C506.84 72.9001 506.68 73.4801 506.28 73.9801C505.88 74.4801 505.36 74.7801 504.7 74.8801C504.04 74.9801 503.48 74.8001 502.98 74.4001L503 74.3801ZM499.74 89.3601C499.14 89.5801 498.54 89.5601 497.94 89.2801C497.34 89.0001 496.94 88.5601 496.7 87.9401C496.48 87.3401 496.5 86.7401 496.78 86.1401C497.06 85.5401 497.5 85.1401 498.12 84.9001C500.14 84.2001 502.2 83.3201 504.26 82.2801C506.32 81.2401 508.3 80.1001 510.18 78.8801C512.06 77.6601 513.78 76.3801 515.34 75.0801C516.9 73.7801 518.18 72.5201 519.16 71.3001C519.6 70.8001 520.14 70.5001 520.78 70.4201C521.42 70.3401 522 70.5201 522.48 70.9601C522.98 71.3601 523.28 71.9001 523.36 72.5401C523.44 73.1801 523.26 73.7601 522.82 74.2601C521.78 75.5201 520.4 76.8801 518.68 78.3001C516.96 79.7401 515.04 81.1401 512.9 82.5401C510.78 83.9401 508.58 85.2201 506.32 86.4201C504.06 87.6201 501.88 88.5801 499.74 89.3401V89.3601Z" fill="#010F32"/>
<path d="M559.32 86.5406C558.56 85.8006 557.6 84.9406 556.48 83.9406C555.34 82.9406 554.12 81.9006 552.84 80.8206C551.54 79.7406 550.28 78.7206 549.04 77.7206C547.8 76.7406 546.7 75.8806 545.74 75.1806C545.02 74.6406 544.4 74.2806 543.82 74.1006C543.24 73.9206 542.66 73.8806 542.04 74.0206C541.42 74.1606 540.68 74.4806 539.82 74.9606C539.12 75.3606 538.3 75.8406 537.38 76.4006C536.46 76.9606 535.58 77.5006 534.74 78.0406C533.9 78.5806 533.2 79.0006 532.66 79.3406C532.1 79.6606 531.5 79.7606 530.88 79.6006C530.26 79.4406 529.76 79.1006 529.44 78.5406C529.1 77.9806 529.02 77.3806 529.16 76.7606C529.3 76.1406 529.64 75.6406 530.2 75.3206C530.74 75.0006 531.44 74.5606 532.34 74.0206C533.24 73.4806 534.18 72.9406 535.16 72.4006C536.14 71.8606 536.98 71.3806 537.68 70.9806C539.2 70.1606 540.52 69.6406 541.66 69.3806C542.8 69.1206 543.86 69.1606 544.9 69.5006C545.94 69.8406 547.1 70.4606 548.4 71.4006C549.08 71.8806 549.9 72.5006 550.88 73.2406C551.84 73.9806 552.88 74.8006 553.98 75.6806C555.08 76.5606 556.18 77.4406 557.28 78.3606C558.38 79.2806 559.4 80.1406 560.36 80.9606C561.32 81.7806 562.12 82.5206 562.78 83.1406C563.26 83.5806 563.5 84.1206 563.52 84.7806C563.52 85.4406 563.3 86.0206 562.82 86.5206C562.36 86.9806 561.8 87.2206 561.12 87.2206C560.44 87.2206 559.86 87.0206 559.38 86.5606L559.32 86.5406ZM555.36 72.3206C554.3 72.3206 553.4 71.9406 552.64 71.1806C551.9 70.4206 551.52 69.5206 551.52 68.4806C551.52 67.4406 551.9 66.5206 552.64 65.7606C553.38 65.0206 554.3 64.6406 555.36 64.6406C556.42 64.6406 557.34 65.0206 558.08 65.7606C558.82 66.5006 559.2 67.4206 559.2 68.4806C559.2 69.5406 558.82 70.4206 558.08 71.1806C557.34 71.9406 556.42 72.3206 555.36 72.3206ZM555.36 70.1206C555.82 70.1206 556.2 69.9606 556.52 69.6206C556.84 69.3006 557 68.9206 557 68.4806C557 68.0206 556.84 67.6406 556.52 67.3006C556.2 66.9806 555.82 66.8006 555.36 66.8006C554.9 66.8006 554.52 66.9606 554.2 67.3006C553.88 67.6406 553.72 68.0206 553.72 68.4806C553.72 68.9206 553.88 69.3006 554.2 69.6206C554.52 69.9606 554.9 70.1206 555.36 70.1206Z" fill="#010F32"/>
<path d="M571.56 78.8997C570.92 78.8997 570.38 78.6597 569.9 78.1997C569.42 77.7397 569.2 77.1797 569.2 76.5397C569.2 75.8997 569.44 75.3197 569.9 74.8597C570.36 74.3997 570.92 74.1797 571.56 74.1797H595.24C595.9 74.1797 596.46 74.3997 596.92 74.8597C597.38 75.3197 597.6 75.8797 597.6 76.5397C597.6 77.1997 597.38 77.7197 596.92 78.1997C596.46 78.6597 595.9 78.8997 595.24 78.8997H571.56Z" fill="#010F32"/>
<path d="M611.64 74.3801C610.68 73.5601 609.6 72.7201 608.4 71.8601C607.2 70.9801 606.14 70.2801 605.16 69.7201C604.6 69.3601 604.24 68.8801 604.1 68.2601C603.94 67.6401 604.04 67.0601 604.36 66.5001C604.72 65.9401 605.2 65.5801 605.82 65.4201C606.44 65.2601 607.02 65.3601 607.58 65.7001C608.26 66.1401 609.04 66.6601 609.92 67.2801C610.8 67.9001 611.64 68.5201 612.46 69.1201C613.28 69.7201 613.96 70.2401 614.5 70.6801C615 71.0801 615.3 71.6201 615.4 72.2601C615.48 72.9001 615.32 73.4801 614.92 73.9801C614.52 74.4801 614 74.7801 613.34 74.8801C612.68 74.9801 612.12 74.8001 611.62 74.4001L611.64 74.3801ZM608.38 89.3601C607.78 89.5801 607.18 89.5601 606.58 89.2801C605.98 89.0001 605.58 88.5601 605.34 87.9401C605.12 87.3401 605.14 86.7401 605.42 86.1401C605.7 85.5401 606.14 85.1401 606.76 84.9001C608.78 84.2001 610.84 83.3201 612.9 82.2801C614.96 81.2401 616.94 80.1001 618.82 78.8801C620.7 77.6601 622.42 76.3801 623.98 75.0801C625.54 73.7801 626.82 72.5201 627.8 71.3001C628.24 70.8001 628.78 70.5001 629.42 70.4201C630.06 70.3401 630.64 70.5201 631.12 70.9601C631.62 71.3601 631.92 71.9001 632 72.5401C632.08 73.1801 631.9 73.7601 631.46 74.2601C630.42 75.5201 629.04 76.8801 627.32 78.3001C625.6 79.7401 623.68 81.1401 621.54 82.5401C619.42 83.9401 617.22 85.2201 614.96 86.4201C612.7 87.6201 610.52 88.5801 608.38 89.3401V89.3601Z" fill="#010F32"/>
<path d="M199.08 72.1003L197.58 71.5004L196.34 70.5404L195.42 69.2604L194.82 67.7803L194.54 66.2204L194.64 64.6204L194.84 63.0604L195.56 61.8204L196.66 60.9403L197.96 60.3604L199.38 60.6003L200.76 61.0404L201.82 62.0604L202.56 63.3604L202.94 64.7803L203.18 66.2604L203.04 67.8604L202.64 69.4004L201.98 70.8604L200.6 71.6003L199.08 72.1003Z" fill="#010F32"/>
<path d="M208.18 61.7004L209.58 61.4004L211.06 61.5204L212.38 62.2004L213.4 63.2604L214 64.6204L214.06 66.1804L213.72 67.7204L213.32 69.2404L212.32 70.4404L211.28 71.6404L209.82 72.2404L208.34 72.4804L207 71.7604L206.12 70.5204L205.78 69.0804L205.56 67.6204L205.62 66.1604L205.96 64.3804L206.76 62.7604L208.18 61.7004Z" fill="#010F32"/>
<path d="M219.42 70.2805L220.54 71.6605L221.22 73.3205L221.3 75.1205L220.98 76.5605L220.64 78.0405L219.88 79.3405L218.84 80.4205L217.52 81.1605L216.06 81.4205L214.58 81.3005L213.4 80.2405L212.68 78.8605L212.42 77.3005L212.48 75.7205L212.84 74.1605L213.2 72.7405L214.18 71.6205L215.24 70.6605L216.54 70.0805L217.96 69.9805L219.42 70.2805Z" fill="#010F32"/>
<path d="M187.92 68.3599L189.28 67.9199L190.72 68.1199L192.06 68.7399L193.26 69.6399L194.06 70.9199L194.78 72.1999L195.12 73.6399L195.32 75.1199V76.5999L194.88 78.0199L193.9 79.0599L192.36 79.7399L190.72 79.6199L189.12 79.0799L188 77.7999L187 76.4599L186.42 75.0999L185.92 73.6599L185.86 72.1599L186.16 70.6799L186.72 69.2799L187.92 68.3599Z" fill="#010F32"/>
<path d="M192.9 87.0205L193.02 85.4205L193.4 83.8405L194.08 82.3605L195.24 81.2205L196.34 80.0405L197.6 79.1005L198.48 77.8005L199.62 76.7405L200.9 75.8405L202.46 75.4805L204.08 75.9005L205.64 76.2205L207.08 76.9605L208.26 78.0805L209.12 79.5005L210.36 80.6005L211.64 81.4805L212.58 82.7205L213.02 84.2205L213.88 85.5405L213.78 87.1005L213.38 88.5405L212.66 89.8205L211.64 90.8805L210.2 91.1005L208.82 91.1805L207.36 91.3805L206.04 90.7205L204.5 90.5605L202.98 90.5005L201.44 90.7405L199.94 91.1605L198.4 91.3405L196.9 91.4005L195.34 91.1605L193.86 90.2405L192.98 88.7205L192.9 87.0205Z" fill="#010F32"/>
<mask id="mask0_420_1781" style="mask-type:luminance" maskUnits="userSpaceOnUse" x="0" y="116" width="681" height="62">
<path d="M680.5 116.421H0.5V177.501H680.5V116.421Z" fill="white"/>
</mask>
<g mask="url(#mask0_420_1781)">
<path d="M661.52 33.1406H19.48C8.99763 33.1406 0.5 41.6383 0.5 52.1206V158.541C0.5 169.023 8.99763 177.521 19.48 177.521H661.52C672.002 177.521 680.5 169.023 680.5 158.541V52.1206C680.5 41.6383 672.002 33.1406 661.52 33.1406Z" fill="#F27891"/>
</g>
<path d="M123.98 159.3C124.9 159.3 125.38 160.02 125.38 160.98C125.38 161.94 124.9 162.78 123.98 162.78H110.82C109.54 162.78 108.86 162 108.86 160.6C108.86 159.56 109.54 158.14 110.1 157.22C111.02 155.62 112.54 153.88 115.22 152.1L116.92 150.96C119.6 149.16 121.04 148.18 121.04 146.12C121.04 144.22 119.52 143.12 117.26 143.12C114.48 143.12 113.54 144.66 113.02 146.42C112.8 147.24 112.12 147.6 111.36 147.6C111.14 147.6 110.92 147.58 110.68 147.52C109.78 147.32 109.14 146.8 109.14 145.92C109.14 145.76 109.16 145.56 109.22 145.34C109.5 144.2 110.14 143.02 110.98 142.18C112.38 140.7 114.28 139.86 117.34 139.86C122.08 139.86 124.9 142.18 124.9 146.14C124.9 149.64 122.9 151.24 120.06 153L118.4 154C115.54 155.76 113.9 157.34 113.16 159.36H123.94L123.98 159.3Z" fill="white"/>
<path d="M147.66 151.48C147.66 159.12 144.6 163.22 139.04 163.22C133.48 163.22 130.46 159.12 130.46 151.36C130.46 143.6 133.52 139.78 139.06 139.78C144.6 139.78 147.66 143.44 147.66 151.46V151.48ZM134.3 151.42C134.3 156.86 135.84 159.8 139.06 159.8C142.28 159.8 143.8 156.94 143.8 151.4C143.8 145.86 142.32 143.22 139.06 143.22C135.8 143.22 134.3 146.04 134.3 151.42Z" fill="white"/>
<path d="M167.82 159.3C168.74 159.3 169.22 160.02 169.22 160.98C169.22 161.94 168.74 162.78 167.82 162.78H154.66C153.38 162.78 152.7 162 152.7 160.6C152.7 159.56 153.38 158.14 153.94 157.22C154.86 155.62 156.38 153.88 159.06 152.1L160.76 150.96C163.44 149.16 164.88 148.18 164.88 146.12C164.88 144.22 163.36 143.12 161.1 143.12C158.32 143.12 157.38 144.66 156.86 146.42C156.64 147.24 155.96 147.6 155.2 147.6C154.98 147.6 154.76 147.58 154.52 147.52C153.62 147.32 152.98 146.8 152.98 145.92C152.98 145.76 153 145.56 153.06 145.34C153.34 144.2 153.98 143.02 154.82 142.18C156.22 140.7 158.12 139.86 161.18 139.86C165.92 139.86 168.74 142.18 168.74 146.14C168.74 149.64 166.74 151.24 163.9 153L162.24 154C159.38 155.76 157.74 157.34 157 159.36H167.78L167.82 159.3Z" fill="white"/>
<path d="M182.32 149.46H182.52C185.04 149.46 186.66 148.26 186.66 146.08C186.66 144.06 185.12 142.98 182.76 142.98C180.4 142.98 179.38 143.96 178.76 145.44C178.48 146.08 178 146.34 177.42 146.34C177.08 146.34 176.72 146.26 176.36 146.12C175.6 145.84 175.12 145.36 175.12 144.72C175.12 144.5 175.18 144.24 175.28 144C176.14 142.02 178.2 139.8 182.88 139.8C187.56 139.8 190.42 142.1 190.42 145.74C190.42 148.54 189.04 150.36 186.14 151.1C189.44 151.52 191.06 153.52 191.06 156.76C191.06 160.52 188.24 163.32 182.66 163.32C177.7 163.32 175.4 161.02 174.5 158.76C174.42 158.54 174.38 158.34 174.38 158.14C174.38 157.36 175 156.76 175.86 156.58C176.14 156.52 176.4 156.5 176.64 156.5C177.4 156.5 177.96 156.84 178.24 157.56C178.86 159.1 180.18 160.06 182.74 160.06C185.3 160.06 187.16 158.74 187.16 156.42C187.16 154.1 185.4 152.94 182.54 152.94H180.74C179.78 153 179.28 152.16 179.28 151.2C179.28 150.24 179.78 149.46 180.74 149.5H182.28L182.32 149.46Z" fill="white"/>
<path d="M221.02 160.62C221.02 162.02 220 162.78 218.4 162.78C216.8 162.78 215.82 162.02 215.82 160.66V137.94C215.82 137.26 215.64 136.92 214.94 136.92H214.82L211.24 137.04C209.88 137.08 209 135.9 209 134.6C209 133.24 209.84 132.1 211.16 132.06L216.7 131.94H217.04C220.08 131.94 221 132.92 221 136.24V160.64L221.02 160.62Z" fill="white"/>
<path d="M243.94 160.62C243.94 162.02 242.92 162.78 241.32 162.78C239.72 162.78 238.74 162.02 238.74 160.66V137.94C238.74 137.26 238.56 136.92 237.86 136.92H237.74L234.16 137.04C232.8 137.08 231.92 135.9 231.92 134.6C231.92 133.24 232.76 132.1 234.08 132.06L239.62 131.94H239.96C243 131.94 243.92 132.92 243.92 136.24V160.64L243.94 160.62Z" fill="white"/>
<path d="M263.14 159.56C263.14 161.46 261.78 162.76 259.98 162.76C258.18 162.76 256.78 161.46 256.78 159.56C256.78 157.66 258.14 156.4 259.98 156.4C261.82 156.4 263.14 157.74 263.14 159.56Z" fill="white"/>
<path d="M284.14 160.62C284.14 162.02 283.12 162.78 281.52 162.78C279.92 162.78 278.94 162.02 278.94 160.66V137.94C278.94 137.26 278.76 136.92 278.06 136.92H277.94L274.36 137.04C273 137.08 272.12 135.9 272.12 134.6C272.12 133.24 272.96 132.1 274.28 132.06L279.82 131.94H280.16C283.2 131.94 284.12 132.92 284.12 136.24V160.64L284.14 160.62Z" fill="white"/>
<path d="M328.8 131.2H304.66C302.451 131.2 300.66 132.991 300.66 135.2V159.34C300.66 161.549 302.451 163.34 304.66 163.34H328.8C331.009 163.34 332.8 161.549 332.8 159.34V135.2C332.8 132.991 331.009 131.2 328.8 131.2Z" fill="white"/>
<path d="M305.84 143.86C305.08 143.86 304.64 143.28 304.64 142.38C304.64 141.48 305.08 140.9 305.84 140.9H312.28C313.96 140.9 314.78 141.6 314.78 143.16C314.78 143.64 314.7 144.16 314.56 144.82C314.02 147.08 313.04 149.38 311.76 151.4C310.44 153.48 308.8 155.24 307.02 156.66C306.66 156.94 306.26 157.1 305.88 157.1C305.44 157.1 304.98 156.88 304.6 156.46C304.32 156.16 304.18 155.76 304.18 155.36C304.18 154.92 304.34 154.5 304.76 154.18C306.42 152.94 307.86 151.46 308.9 150C310.16 148.2 311.04 146.34 311.5 144.5C311.52 144.36 311.56 144.24 311.56 144.14C311.56 143.92 311.42 143.84 311.06 143.84H305.84V143.86ZM319 139.48C319.36 141.22 320.06 142.98 320.9 144.6C322.84 143.06 324.56 141.18 325.8 139.38C326.08 138.98 326.48 138.8 326.9 138.8C327.26 138.8 327.62 138.94 328 139.2C328.5 139.54 328.78 139.98 328.78 140.48C328.78 140.78 328.66 141.1 328.44 141.4C326.9 143.48 324.72 145.58 322.5 147.22C322.8 147.66 323.12 148.06 323.42 148.46C325.04 150.5 327.2 152.46 329.56 153.86C330.1 154.16 330.32 154.64 330.32 155.14C330.32 155.5 330.2 155.9 330.02 156.24C329.68 156.8 329.12 157.14 328.5 157.14C328.22 157.14 327.92 157.06 327.66 156.88C325.58 155.6 323.6 153.74 322.06 151.72C320.66 149.9 319.32 147.34 318.54 144.94C318.82 146.96 319.02 148.84 319.02 150.58V156.82C319.02 159.18 317.62 160.1 315.24 160.1C314.1 160.1 313.06 159.98 312.24 159.82C311.48 159.68 311.1 159.18 311.1 158.4C311.1 158.28 311.1 158.18 311.12 158.04C311.24 157.22 311.74 156.8 312.32 156.8C312.4 156.8 312.48 156.8 312.58 156.82C313.26 156.94 314.04 157.04 314.72 157.04C315.62 157.04 315.9 156.82 315.9 155.9V135.48C315.9 134.76 316.46 134.36 317.42 134.36C318.42 134.36 319.04 134.76 319.04 135.48V139.46L319 139.48Z" fill="#F27891"/>
<path d="M432.22 160.62C432.22 162.02 431.2 162.78 429.6 162.78C428 162.78 427.02 162.02 427.02 160.66V137.94C427.02 137.26 426.84 136.92 426.14 136.92H426.02L422.44 137.04C421.08 137.08 420.2 135.9 420.2 134.6C420.2 133.24 421.04 132.1 422.36 132.06L427.9 131.94H428.24C431.28 131.94 432.2 132.92 432.2 136.24V160.64L432.22 160.62Z" fill="white"/>
<path d="M460.8 157.82C462.06 157.82 462.7 158.8 462.7 160.1C462.7 161.4 462.06 162.54 460.8 162.54H442.94C441.2 162.54 440.28 161.48 440.28 159.58C440.28 158.18 441.2 156.24 441.96 154.98C443.22 152.82 445.26 150.46 448.92 148.02L451.24 146.46C454.88 144.02 456.82 142.7 456.82 139.88C456.82 137.3 454.76 135.82 451.7 135.82C447.94 135.82 446.64 137.9 445.96 140.3C445.66 141.4 444.74 141.9 443.72 141.9C443.42 141.9 443.12 141.86 442.8 141.78C441.58 141.52 440.72 140.8 440.72 139.62C440.72 139.4 440.76 139.12 440.84 138.82C441.22 137.26 442.1 135.66 443.24 134.52C445.14 132.5 447.72 131.36 451.86 131.36C458.28 131.36 462.12 134.52 462.12 139.88C462.12 144.62 459.42 146.8 455.54 149.18L453.3 150.54C449.42 152.94 447.18 155.06 446.2 157.8H460.82L460.8 157.82Z" fill="white"/>
<path d="M473.58 159.56C473.58 161.46 472.22 162.76 470.42 162.76C468.62 162.76 467.22 161.46 467.22 159.56C467.22 157.66 468.58 156.4 470.42 156.4C472.26 156.4 473.58 157.74 473.58 159.56Z" fill="white"/>
<path d="M500.24 157.82C501.5 157.82 502.14 158.8 502.14 160.1C502.14 161.4 501.5 162.54 500.24 162.54H482.38C480.64 162.54 479.72 161.48 479.72 159.58C479.72 158.18 480.64 156.24 481.4 154.98C482.66 152.82 484.7 150.46 488.36 148.02L490.68 146.46C494.32 144.02 496.26 142.7 496.26 139.88C496.26 137.3 494.2 135.82 491.14 135.82C487.38 135.82 486.08 137.9 485.4 140.3C485.1 141.4 484.18 141.9 483.16 141.9C482.86 141.9 482.56 141.86 482.24 141.78C481.02 141.52 480.16 140.8 480.16 139.62C480.16 139.4 480.2 139.12 480.28 138.82C480.66 137.26 481.54 135.66 482.68 134.52C484.58 132.5 487.16 131.36 491.3 131.36C497.72 131.36 501.56 134.52 501.56 139.88C501.56 144.62 498.86 146.8 494.98 149.18L492.74 150.54C488.86 152.94 486.62 155.06 485.64 157.8H500.26L500.24 157.82Z" fill="white"/>
<path d="M511.72 142.82C511.68 143.24 511.56 143.8 511.46 144.3C513.1 142.86 515.06 142.14 517.7 142.14C523.86 142.14 527.8 146.06 527.8 152.32C527.8 158.58 523.5 163.22 516.7 163.22C511.3 163.22 508.16 161.02 506.52 158.12C506.3 157.74 506.18 157.32 506.18 156.94C506.18 156.06 506.76 155.24 507.58 154.78C508.08 154.48 508.56 154.32 509.06 154.32C509.82 154.32 510.54 154.7 511.04 155.54C512.06 157.4 513.96 158.7 516.54 158.7C520.22 158.7 522.54 156.12 522.54 152.4C522.54 148.68 520.22 146.44 516.76 146.44C514.4 146.44 512.8 147.36 511.74 148.88C511.16 149.72 510.44 150.18 509.34 150.18C509.18 150.18 509 150.18 508.8 150.14C507.4 149.98 506.6 149.22 506.6 147.98V147.64L507.86 134.84C508.08 133.02 509.12 132.02 511.02 132.02H524.78C525.96 132.02 526.52 133.04 526.52 134.3C526.52 135.56 525.92 136.62 524.78 136.62H513.04C512.58 136.62 512.32 136.84 512.28 137.3L511.7 142.84L511.72 142.82Z" fill="white"/>
<path d="M569.4 131.2H545.26C543.051 131.2 541.26 132.991 541.26 135.2V159.34C541.26 161.549 543.051 163.34 545.26 163.34H569.4C571.609 163.34 573.4 161.549 573.4 159.34V135.2C573.4 132.991 571.609 131.2 569.4 131.2Z" fill="white"/>
<path d="M551.56 151.52C551.06 154.82 550.04 157.46 548.36 159.56C548.02 159.98 547.58 160.2 547.08 160.2C546.72 160.2 546.32 160.08 545.96 159.84C545.48 159.5 545.24 159.02 545.24 158.52C545.24 158.18 545.36 157.84 545.58 157.54C548.1 154.48 548.92 150.54 548.92 143.12V138.24C548.92 136.14 549.98 135.28 552 135.28H564.58C566.52 135.28 567.6 136.14 567.6 138.24V156.96C567.6 159 566.68 160.1 563.6 160.1C562.46 160.1 561.3 160.02 560.26 159.8C559.56 159.66 559.06 159.24 559.06 158.42C559.06 158.28 559.06 158.14 559.08 158C559.24 157.14 559.8 156.8 560.32 156.8C560.44 156.8 560.52 156.8 560.6 156.82C561.32 156.98 562.16 157.1 563.04 157.1C564.22 157.1 564.46 156.88 564.46 156.1V151.54H551.58L551.56 151.52ZM552.06 144.8C552.04 146.08 552 147.34 551.9 148.64H564.46V144.8H552.08H552.06ZM564.44 138.98C564.44 138.44 564.18 138.28 563.58 138.28H553C552.38 138.28 552.08 138.44 552.08 138.98V141.94H564.46V138.98H564.44Z" fill="#F27891"/>
<path d="M356.56 152.68H397L390.6 141.96" stroke="white" stroke-width="4" stroke-linecap="round" stroke-linejoin="round"/>
</g>
<defs>
<clipPath id="clip0_420_1781">
<rect width="680" height="177" fill="white" transform="translate(0.5 0.5)"/>
</clipPath>
</defs>
</svg>
