<svg width="428" height="96" viewBox="0 0 428 96" fill="none" xmlns="http://www.w3.org/2000/svg">
<path d="M4.3002 35.0992C3.7002 35.2992 3.1002 35.0992 2.5002 34.6992C1.9002 34.2992 1.7002 33.8992 1.5002 33.0992C1.3002 31.6992 1.10019 30.0992 0.900192 28.2992C0.700192 26.4992 0.700195 24.4992 0.700195 22.4992C0.700195 20.4992 0.700192 18.4992 0.900192 16.4992C1.10019 14.4992 1.1002 12.4992 1.3002 10.6992C1.5002 8.89922 1.7002 7.09922 2.1002 5.69922C2.3002 5.09922 2.5002 4.49922 3.1002 4.09922C3.7002 3.69922 4.30019 3.69922 4.90019 3.69922C5.50019 3.89922 6.1002 4.29922 6.5002 4.69922C6.9002 5.29922 6.90019 5.89922 6.90019 6.49922C6.50019 8.29922 6.10019 10.4992 5.90019 12.6992C5.70019 14.8992 5.5002 17.0992 5.5002 19.4992C5.5002 21.6992 5.5002 23.8992 5.5002 26.0992C5.5002 28.2992 5.9002 30.0992 6.1002 31.8992C6.3002 32.4992 6.1002 33.0992 5.7002 33.6992C5.3002 34.2992 4.9002 34.8992 4.3002 35.0992ZM20.7002 32.8992C17.3002 32.8992 14.7002 32.2992 12.9002 31.0992C11.3002 29.8992 10.1002 28.0992 9.90019 25.4992C9.70019 24.8992 9.9002 24.2992 10.3002 23.6992C10.7002 23.0992 11.3002 22.8992 11.9002 22.6992C12.5002 22.6992 13.1002 22.6992 13.7002 23.0992C14.3002 23.4992 14.5002 24.0992 14.7002 24.6992C14.9002 25.8992 15.5002 26.6992 16.3002 27.2992C17.3002 27.8992 18.7002 28.0992 20.9002 28.0992C22.9002 28.0992 25.3002 27.6992 28.1002 27.0992C28.7002 26.8992 29.3002 27.0992 29.9002 27.4992C30.5002 27.8992 30.9002 28.2992 30.9002 29.0992C31.1002 29.6992 30.9002 30.2992 30.5002 30.8992C30.1002 31.4992 29.7002 31.8992 28.9002 31.8992C27.5002 32.2992 26.1002 32.4992 24.5002 32.6992C23.3002 32.8992 21.9002 32.8992 20.7002 32.8992ZM13.5002 13.0992C12.9002 13.2992 12.3002 13.0992 11.7002 12.6992C11.1002 12.2992 10.9002 11.8992 10.7002 11.0992C10.5002 10.4992 10.7002 9.89922 11.1002 9.29922C11.5002 8.69922 11.9002 8.49922 12.7002 8.29922C14.1002 8.09923 15.9002 7.89922 17.7002 7.69922C19.5002 7.49922 21.3002 7.49922 23.1002 7.69922C24.9002 7.69922 26.5002 7.89922 27.9002 8.09922C28.5002 8.29922 29.1002 8.49922 29.5002 9.09922C29.9002 9.69922 29.9002 10.2992 29.9002 10.8992C29.7002 11.4992 29.5002 12.0992 28.9002 12.4992C28.3002 12.8992 27.7002 12.8992 27.1002 12.8992C24.9002 12.4992 22.7002 12.2992 20.3002 12.2992C17.9002 12.4992 15.7002 12.6992 13.5002 13.0992Z" fill="#010F32"/>
<path d="M55.1003 37.6993C54.5003 37.6993 54.1003 37.6993 53.5003 37.2993C53.1003 36.8993 52.9003 36.4993 52.7003 35.8993C52.5003 34.2993 52.1003 32.4993 51.5003 30.2993C50.9003 28.2993 50.3003 26.0993 49.7003 24.0993C48.7003 24.4993 47.7003 24.6993 46.7003 25.0993C45.7003 25.4993 44.9003 25.6993 44.1003 26.0993C43.5003 26.2993 43.1003 26.2993 42.5003 26.0993C41.9003 25.8993 41.7003 25.4993 41.3003 24.8993C41.1003 24.2993 41.1003 23.8993 41.5003 23.2993C41.7003 22.6993 42.1003 22.4993 42.7003 22.2993C44.3003 21.6993 46.3003 21.0993 48.5003 20.2993C48.1003 19.4993 47.9003 18.6993 47.5003 18.0993C47.1003 17.2993 46.9003 16.6993 46.5003 16.0993C46.3003 15.4993 46.1003 15.0993 46.3003 14.4993C46.5003 13.8993 46.7003 13.4993 47.3003 13.2993C47.9003 13.0993 48.3003 12.8993 48.9003 13.0993C49.5003 13.2993 49.9003 13.6993 50.1003 14.0993C50.5003 14.8993 50.9003 15.6993 51.3003 16.4993C51.7003 17.2993 52.1003 18.2993 52.3003 19.0993C52.9003 18.8993 53.7003 18.6993 54.3003 18.4993C54.9003 18.2993 55.7003 18.0993 56.3003 17.8993C55.9003 17.6993 55.5003 17.4993 55.3003 17.0993L53.5003 14.4993C53.3003 14.0993 53.1003 13.4993 53.3003 12.8993C53.5003 12.2993 53.7003 11.8993 54.1003 11.4993C54.7003 11.0993 55.1003 11.0993 55.7003 11.2993C56.3003 11.4993 56.7003 11.6993 56.9003 12.2993L58.5003 14.8993C58.7003 15.2993 58.9003 15.6993 58.9003 16.0993C58.9003 16.4993 58.7003 16.8993 58.5003 17.2993C58.7003 17.2993 58.9003 17.0993 59.1003 17.0993C59.3003 17.0993 59.5003 17.0993 59.5003 16.8993C62.3003 16.2993 64.5003 16.2993 66.3003 17.2993C68.1003 18.2993 68.9003 19.6993 69.3003 21.8993C69.5003 23.4993 69.3003 24.8993 68.7003 25.8993C68.1003 27.0993 67.1003 27.8993 65.9003 28.4993C64.7003 29.0993 63.3003 29.2993 61.7003 29.2993C60.1003 29.2993 58.7003 28.6993 57.1003 27.8993C56.5003 27.6993 56.3003 27.0993 56.1003 26.6993C55.9003 26.0993 55.9003 25.6993 56.3003 25.0993C56.5003 24.4993 57.1003 24.2993 57.5003 24.0993C58.1003 23.8993 58.5003 24.0993 59.1003 24.2993C60.3003 24.8993 61.3003 25.2993 62.3003 25.2993C63.3003 25.2993 64.1003 25.0993 64.5003 24.4993C64.9003 23.8993 65.3003 23.2993 65.1003 22.2993C64.9003 21.4993 64.5003 20.8993 63.9003 20.6993C63.1003 20.4993 62.1003 20.4993 60.7003 20.6993C59.7003 20.8993 58.7003 21.2993 57.3003 21.6993C56.1003 22.0993 54.9003 22.4993 53.7003 22.8993C54.5003 25.0993 55.1003 27.2993 55.7003 29.4993C56.3003 31.6993 56.7003 33.6993 57.1003 35.4993C57.3003 36.0993 57.1003 36.6993 56.7003 37.0993C56.3003 37.4993 55.7003 37.6993 55.1003 37.6993Z" fill="#010F32"/>
<path d="M81.1 35.0992C80.5 34.8992 80.1 34.4992 79.9 33.6992C79.7 33.0992 79.7 32.4993 79.9 31.8993C80.3 30.8993 80.9 29.6992 81.7 28.0992C82.5 26.6992 83.1 24.8993 84.1 23.2993C84.9 21.4993 85.7 19.6992 86.7 17.8993C87.5 16.0992 88.5 14.2992 89.3 12.4992C90.1 10.6992 90.9 9.09925 91.7 7.69924C92.5 6.29924 93.1 5.09925 93.5 4.09925C93.7 3.49925 94.3 3.09925 94.9 2.89925C95.5 2.69925 96.1 2.89925 96.7 3.09925C97.3 3.49925 97.7 3.89925 97.9 4.49925C98.1 5.09925 97.9 5.69925 97.7 6.29925C97.3 6.89925 96.9 7.89925 96.3 9.09925C95.7 10.2992 95.1 11.4993 94.3 12.8993C93.5 14.2992 92.9 15.8992 92.1 17.4992C93.1 17.0992 93.9 16.8993 94.9 16.8993C97.5 16.8993 99.1 17.6993 100.1 19.2993C101.1 20.8993 101.1 23.0993 100.3 25.8993C99.9 27.2992 99.9 28.2992 100.1 28.8993C100.3 29.4993 101.1 29.6992 101.9 29.6992C102.5 29.6992 103.1 29.4993 103.7 29.2993C104.3 29.0993 104.9 28.4992 105.5 27.6992C106.1 26.8992 106.7 25.4993 107.3 23.8993C107.5 23.2992 107.9 22.8992 108.5 22.4992C109.1 22.0992 109.7 22.2992 110.3 22.4992C110.9 22.6992 111.3 23.0992 111.7 23.6992C112.1 24.2992 112.1 24.8992 111.7 25.4992C110.7 28.4992 109.3 30.6992 107.7 32.0992C106.1 33.4992 104.1 34.2993 101.7 34.2993C100.1 34.2993 98.7 33.8993 97.5 33.2993C96.3 32.6993 95.5 31.4992 95.3 30.0992C95.1 28.6992 95.1 26.8993 95.7 24.8993C96.1 23.6992 96.1 22.6992 95.9 22.0992C95.7 21.4992 94.9 21.2993 94.1 21.2993C92.9 21.2993 91.7 21.6992 90.7 22.4992C89.7 23.2992 88.7 24.6992 87.7 26.6992C87.5 26.8992 87.5 27.2992 87.1 27.8993C86.9 28.4993 86.5 29.2992 86.3 29.8993C85.9 30.6992 85.7 31.2992 85.3 31.8993C85.1 32.4993 84.9 32.8992 84.7 33.0992C84.5 33.6992 84.1 34.0992 83.5 34.4992C82.9 34.8993 81.7 35.2992 81.1 35.0992Z" fill="#010F32"/>
<path d="M120.9 16.5C120.3 16.9 119.7 17.1 119.1 16.9C118.5 16.9 117.9 16.5 117.5 16.1C117.3 15.7 117.1 15.1 117.3 14.5C117.5 13.9 117.7 13.5 118.1 13.3C119.5 12.5 120.7 11.7 121.5 10.7C122.3 9.7 123.1 8.5 123.5 7.1H119.3C118.7 7.1 118.3 6.9 118.1 6.7C117.7 6.3 117.7 5.9 117.7 5.5C117.7 4.9 117.9 4.5 118.1 4.3C118.5 3.9 118.9 3.7 119.3 3.7H124.3C124.3 3.5 124.3 3.3 124.3 3.1C124.3 2.9 124.3 2.7 124.3 2.3C124.3 1.7 124.7 1.1 125.1 0.900002C125.5 0.700002 126.1 0.5 126.7 0.5C127.3 0.5 127.7 0.699998 128.1 1.1C128.5 1.5 128.7 2.1 128.5 2.7C128.5 2.9 128.5 3.1 128.5 3.3C128.5 3.5 128.5 3.7 128.5 3.7H131.1C132.7 3.7 133.9 4.1 134.7 4.9C135.5 5.7 135.7 6.9 135.5 8.7C135.3 10.3 134.9 11.5 134.5 12.3C134.1 13.1 133.3 13.7 132.5 14.1C131.7 14.5 130.5 14.5 129.3 14.5C128.7 14.5 128.3 14.3 127.9 14.1C127.5 13.7 127.3 13.3 127.3 12.7C127.3 12.1 127.5 11.7 127.7 11.3C128.1 10.9 128.5 10.7 128.9 10.7C129.7 10.7 130.3 10.5 130.5 10.3C130.7 10.1 130.9 9.7 131.1 8.9C131.3 8.3 131.1 7.9 131.1 7.7C131.1 7.5 130.5 7.3 129.9 7.3H127.9C127.3 9.3 126.3 11.3 125.1 12.7C124.1 14.1 122.5 15.5 120.9 16.5ZM122.1 37.9C121.5 38.1 120.7 38.1 120.3 37.9C119.9 37.7 119.3 37.3 119.1 36.7C118.9 36.1 118.9 35.7 119.3 35.1C119.5 34.5 119.9 34.3 120.5 34.1C121.1 33.9 121.9 33.7 122.9 33.5C123.7 33.3 124.7 32.9 125.5 32.5C126.5 32.1 127.3 31.9 127.9 31.5C126.3 31.3 125.1 30.7 124.3 29.7C123.5 28.9 123.3 27.5 123.3 25.7V20.9C123.3 18.7 123.9 17.1 124.9 16.3C126.1 15.5 127.9 15.1 130.7 15.1H140.1C142.9 15.1 144.7 15.5 145.9 16.3C147.1 17.1 147.5 18.7 147.5 20.9V25.7C147.5 27.5 147.1 28.9 146.3 29.7C145.5 30.5 144.3 31.1 142.7 31.5C143.9 32.1 145.1 32.5 146.5 33.1C147.9 33.7 149.1 33.9 150.1 34.1C150.7 34.3 151.1 34.5 151.3 35.1C151.5 35.7 151.5 36.1 151.3 36.7C151.1 37.3 150.7 37.7 150.1 37.9C149.5 38.1 148.9 38.1 148.3 37.9C147.5 37.7 146.5 37.3 145.3 36.9C144.1 36.5 143.1 36.1 142.1 35.5C141.1 34.9 140.1 34.7 139.3 34.3C138.7 34.1 138.5 33.7 138.3 33.1C138.1 32.7 138.3 32.1 138.5 31.7H130.9C130.9 31.7 130.9 31.7 130.9 31.9C131.1 32.3 131.3 32.9 131.1 33.3C130.9 33.7 130.7 34.1 130.1 34.5C129.3 34.9 128.5 35.3 127.3 35.7C126.1 36.1 125.1 36.5 124.1 37.1C123.1 37.7 123.1 37.5 122.1 37.9ZM128.1 24.1H142.9V22.5H128.1V24.1ZM128.3 19.7H143.1C142.9 19.1 142.7 18.7 142.3 18.5C141.9 18.3 141.3 18.1 140.3 18.1H130.9C129.9 18.1 129.3 18.1 128.9 18.5C128.5 18.7 128.3 19.1 128.3 19.7ZM130.9 28.3H140.3C141.3 28.3 141.9 28.1 142.3 27.9C142.7 27.7 142.9 27.3 142.9 26.7H128.1C128.1 27.3 128.3 27.7 128.7 27.9C129.1 28.1 129.9 28.3 130.9 28.3ZM143.9 13.5C142.5 13.5 141.3 13.3 140.3 13.1C139.5 12.7 138.7 12.3 138.3 11.5C137.9 10.7 137.7 9.5 137.7 8.1C137.7 6.7 137.9 5.5 138.3 4.7C138.7 3.9 139.3 3.3 140.3 3.1C141.1 2.7 142.3 2.7 143.9 2.7H146.3C147.7 2.7 148.9 2.9 149.9 3.1C150.7 3.5 151.5 3.9 151.9 4.7C152.3 5.5 152.5 6.7 152.5 8.1C152.5 9.5 152.3 10.7 151.9 11.5C151.5 12.3 150.9 12.9 149.9 13.1C149.1 13.5 147.9 13.5 146.3 13.5H143.9ZM144.1 9.9H146.1C147.1 9.9 147.5 9.7 147.9 9.5C148.1 9.3 148.3 8.7 148.3 7.9C148.3 7.1 148.1 6.5 147.9 6.3C147.7 6.1 147.1 5.9 146.1 5.9H144.1C143.1 5.9 142.7 6.1 142.3 6.3C142.1 6.5 141.9 7.1 141.9 7.9C141.9 8.7 142.1 9.3 142.3 9.5C142.7 9.9 143.3 9.9 144.1 9.9Z" fill="#010F32"/>
<path d="M166.9 37.9008C166.3 37.9008 165.7 37.7008 165.3 37.3008C164.9 36.9008 164.7 36.3008 164.7 35.7008V25.5008C163.9 26.1008 163.1 26.7008 162.3 27.3008C161.5 27.9008 160.7 28.5008 160.3 28.7008C159.7 29.1008 159.1 29.3008 158.5 29.1008C157.9 29.1008 157.3 28.7008 156.9 27.9008C156.5 27.3008 156.5 26.7008 156.7 26.1008C156.9 25.5008 157.3 25.1008 157.7 24.7008C158.1 24.5008 158.5 24.1008 159.3 23.7008C159.9 23.3008 160.5 22.9008 161.3 22.3008C161.9 21.7008 162.7 21.3008 163.3 20.9008C163.9 20.5008 164.5 20.1008 164.9 19.7008V14.5008C164.7 14.9008 164.3 15.3008 163.7 15.7008C163.1 16.1008 162.5 16.1008 161.9 15.9008C161.3 15.7008 160.7 15.3008 160.5 14.7008C160.3 14.3008 160.1 13.9008 159.7 13.3008C159.3 12.7008 159.1 12.1008 158.7 11.5008C158.3 10.9008 158.1 10.5008 157.9 10.1008C157.5 9.50078 157.5 8.90078 157.7 8.30078C157.9 7.70078 158.3 7.30078 158.9 6.90078C159.5 6.50078 160.1 6.50078 160.7 6.70078C161.3 6.90077 161.7 7.30078 162.1 7.70078C162.3 8.10078 162.5 8.50078 162.9 9.10078C163.3 9.70078 163.5 10.3008 163.9 11.1008C164.3 11.7008 164.5 12.1008 164.7 12.5008L164.9 12.9008V3.50078C164.9 2.90078 165.1 2.30078 165.5 1.90078C165.9 1.50078 166.5 1.30078 167.1 1.30078C167.7 1.30078 168.3 1.50078 168.7 1.90078C169.1 2.30078 169.3 2.90078 169.3 3.50078V35.7008C169.3 36.3008 169.1 36.9008 168.7 37.3008C167.9 37.7008 167.5 37.9008 166.9 37.9008ZM190.3 36.3008C188.1 34.7008 186.5 32.9008 184.9 30.9008C183.5 28.9008 182.3 26.9008 181.5 24.7008C180.7 26.9008 179.7 28.9008 178.5 30.9008C177.1 32.9008 175.5 34.5008 173.5 36.1008C172.9 36.5008 172.3 36.7008 171.7 36.7008C171.1 36.7008 170.5 36.5008 170.1 35.9008C169.7 35.3008 169.5 34.7008 169.7 34.1008C169.9 33.5008 170.1 32.9008 170.7 32.7008C175.7 29.1008 178.5 23.9008 179.1 17.1008H172.3C171.7 17.1008 171.3 16.9008 170.7 16.5008C170.3 16.1008 170.1 15.5008 170.1 14.9008C170.1 14.3008 170.3 13.7008 170.7 13.3008C171.1 12.9008 171.7 12.7008 172.3 12.7008H179.1V3.70078C179.1 2.90078 179.3 2.50078 179.9 2.10078C180.5 1.70078 180.9 1.50078 181.5 1.50078C182.1 1.50078 182.7 1.70078 183.1 2.10078C183.5 2.50078 183.7 3.10078 183.7 3.70078V12.7008H191.7C192.3 12.7008 192.9 12.9008 193.3 13.3008C193.7 13.7008 193.9 14.3008 193.9 14.9008C193.9 15.5008 193.7 15.9008 193.3 16.5008C192.9 16.9008 192.3 17.1008 191.7 17.1008H183.9C184.3 20.5008 185.3 23.5008 186.9 26.1008C188.5 28.7008 190.7 30.9008 193.3 32.7008C193.9 33.1008 194.1 33.5008 194.3 34.1008C194.5 34.7008 194.3 35.3008 193.7 35.9008C193.3 36.5008 192.7 36.9008 192.1 36.9008C191.5 36.9008 190.9 36.7008 190.3 36.3008ZM191.9 10.5008C191.5 10.9008 190.9 11.1008 190.3 10.9008C189.7 10.7008 189.1 10.5008 188.9 10.1008C188.7 9.90078 188.5 9.50078 188.1 9.10078C187.7 8.70078 187.3 8.30078 186.9 7.70078C186.5 7.30078 186.3 6.90077 185.9 6.70078C185.5 6.30078 185.3 5.70078 185.5 5.30078C185.5 4.70078 185.7 4.30078 186.3 3.90078C186.7 3.50078 187.3 3.30078 187.9 3.30078C188.5 3.30078 188.9 3.50078 189.3 3.90078C189.5 4.10078 189.9 4.50078 190.3 4.90078C190.7 5.30078 191.1 5.70078 191.5 6.10078C191.9 6.50078 192.1 6.90078 192.3 7.10078C192.7 7.70078 193.1 8.10078 192.9 8.70078C192.9 9.50078 192.5 10.1008 191.9 10.5008Z" fill="#010F32"/>
<path d="M219.7 34.3C219.1 34.5 218.5 34.3 217.9 34.1C217.3 33.7 216.9 33.3 216.7 32.7C216.5 32.1 216.7 31.5 216.9 30.9C217.3 30.3 217.7 29.9 218.3 29.7C221.3 28.9 223.5 27.7 224.9 25.9C226.3 24.1 226.9 21.9 226.9 19.3C226.9 17.7 226.5 16.1 225.7 14.7C224.9 13.3 223.9 12.3 222.5 11.5C221.1 10.7 219.5 10.1 217.5 9.9C217.1 14.3 216.3 18.3 215.1 21.5C213.9 24.7 212.7 27.3 211.1 29.1C209.5 30.9 207.9 31.7 206.3 31.7C204.9 31.7 203.5 31.3 202.5 30.5C201.5 29.7 200.5 28.5 199.7 26.9C199.1 25.3 198.7 23.5 198.7 21.3C198.7 19.1 199.1 17.1 199.9 15.1C200.7 13.1 201.9 11.5 203.5 10.1C205.1 8.7 206.9 7.5 208.9 6.7C210.9 5.9 213.3 5.5 215.9 5.5C218.9 5.5 221.7 6.1 223.9 7.3C226.1 8.5 228.1 10.1 229.5 12.1C230.9 14.1 231.5 16.5 231.5 19.3C231.5 23.1 230.5 26.3 228.3 28.9C226.7 31.5 223.7 33.3 219.7 34.3ZM206.7 26.9C207.1 26.9 207.7 26.5 208.3 25.7C208.9 24.9 209.5 23.7 210.3 22.3C210.9 20.9 211.5 19.1 212.1 16.9C212.7 14.7 213.1 12.5 213.3 10.1C211.3 10.5 209.5 11.3 208.1 12.3C206.7 13.5 205.7 14.7 204.9 16.3C204.1 17.9 203.9 19.5 203.7 21.3C203.7 23.1 203.9 24.5 204.5 25.5C205.1 26.5 205.9 26.9 206.7 26.9Z" fill="#010F32"/>
<path d="M252.1 38.1008C251.5 38.1008 250.9 37.9008 250.5 37.5008C250.1 37.1008 249.9 36.5008 249.9 35.7008V29.7008C248.9 30.1008 247.9 30.3008 246.5 30.7008C245.3 31.1008 243.9 31.5008 242.7 31.9008C241.5 32.3008 240.5 32.5008 239.7 32.9008C238.9 33.1008 238.3 33.1008 237.7 32.9008C237.1 32.7008 236.7 32.1008 236.5 31.5008C236.3 30.9008 236.3 30.3008 236.7 29.7008C237.1 29.1008 237.5 28.9008 238.3 28.7008C238.5 28.7008 238.9 28.5008 239.3 28.5008C239.7 28.5008 239.9 28.3008 240.3 28.3008V6.50078H238.7C238.1 6.50078 237.7 6.30078 237.3 5.90078C236.9 5.50078 236.7 4.90078 236.7 4.50078C236.7 3.90078 236.9 3.50078 237.3 2.90078C237.7 2.50078 238.1 2.30078 238.7 2.30078H255.5C256.1 2.30078 256.5 2.50078 256.9 2.90078C257.3 3.30078 257.5 3.90078 257.5 4.50078C257.5 4.70078 257.5 4.90078 257.3 5.30078C257.3 5.30078 257.3 5.30078 257.5 5.30078C257.5 5.30078 257.5 5.30078 257.7 5.30078H264.7C266.7 5.30078 268.1 5.50078 269.1 5.90078C270.1 6.30078 270.9 7.10078 271.1 8.10078C271.5 9.10078 271.3 10.5008 271.1 12.3008C270.3 16.9008 268.9 21.1008 266.7 24.9008C268.5 27.1008 270.7 29.3008 273.3 31.3008C273.9 31.7008 274.1 32.3008 274.3 32.9008C274.5 33.5008 274.3 34.1008 273.7 34.7008C273.1 35.3008 272.7 35.5008 271.9 35.7008C271.1 35.9008 270.5 35.5008 270.1 35.1008C268.9 34.1008 267.9 33.1008 266.9 32.1008C265.9 31.1008 264.9 30.1008 264.1 28.9008C262.3 31.1008 260.3 33.3008 257.9 35.3008C257.3 35.7008 256.7 35.9008 256.1 35.9008C255.5 35.9008 254.9 35.5008 254.5 35.1008V36.1008C254.5 36.9008 254.3 37.3008 253.9 37.9008C253.3 37.7008 252.7 38.1008 252.1 38.1008ZM244.9 10.3008H249.7V6.30078H244.9V10.3008ZM244.9 18.3008H249.7V14.3008H244.9V18.3008ZM244.9 26.9008C245.7 26.7008 246.7 26.5008 247.5 26.1008C248.3 25.9008 249.1 25.7008 249.7 25.5008V22.1008H244.9V26.9008ZM254.5 32.1008L254.7 31.9008L254.9 31.7008C256.3 30.7008 257.5 29.7008 258.5 28.5008C259.5 27.3008 260.5 26.1008 261.5 24.9008C259.3 21.3008 257.9 17.3008 256.9 12.7008C256.7 12.1008 256.9 11.5008 257.3 11.1008C257.7 10.7008 258.1 10.3008 258.7 10.3008C259.3 10.1008 259.9 10.3008 260.3 10.5008C260.7 10.7008 261.1 11.3008 261.1 11.9008C261.5 13.5008 261.9 14.9008 262.3 16.3008C262.7 17.7008 263.3 19.1008 263.9 20.3008C265.3 17.5008 266.1 14.7008 266.7 11.7008C266.9 10.7008 266.7 10.1008 266.5 9.70078C266.3 9.30078 265.5 9.10078 264.5 9.10078H257.5C256.9 9.10078 256.5 8.90078 255.9 8.50078C255.5 8.10078 255.3 7.50078 255.3 6.90078C255.3 6.50078 255.3 6.30078 255.5 6.10078H255.3H254.5V32.1008Z" fill="#010F32"/>
<path d="M294.1 36.2992C293.7 35.8992 293.3 35.2992 293.3 34.6992C293.3 34.0992 293.5 33.4992 293.9 32.8992C295.9 30.8992 297.5 28.2992 298.7 25.0992C299.9 21.8992 300.5 18.4992 300.5 14.8992C300.5 12.8992 300.1 11.2992 299.5 10.2992C298.9 9.29916 297.9 8.89916 296.5 8.89916C295.5 8.89916 294.5 9.29916 293.5 10.2992C292.5 11.2992 291.9 12.4992 291.5 14.0992C291.1 15.8992 290.9 17.8992 291.1 20.4992C291.1 21.0992 290.9 21.6992 290.7 22.0992C290.3 22.4992 289.9 22.8992 289.1 22.8992C288.5 22.8992 287.9 22.6992 287.5 22.4992C287.1 22.0992 286.7 21.6992 286.7 21.0992C286.5 19.6992 286.3 18.0992 286.3 16.4992C286.3 14.8992 286.3 13.0992 286.3 11.4992C286.3 9.89916 286.5 8.29916 286.5 6.89916C286.7 5.49916 286.7 4.29917 286.9 3.29917C286.9 2.69917 287.3 2.09916 287.7 1.69916C288.3 1.29916 288.7 1.09917 289.5 1.29917C290.1 1.29917 290.7 1.69916 291.1 2.09916C291.5 2.49916 291.7 3.09916 291.5 3.89916C291.5 4.29916 291.3 4.89916 291.3 5.69916C291.3 6.49916 291.1 7.09916 291.1 7.89916C291.7 6.89916 292.5 5.89917 293.5 5.29917C294.5 4.49917 295.7 4.29917 296.7 4.29917C299.5 4.29917 301.7 5.29916 303.1 7.09916C304.5 8.89916 305.3 11.4992 305.3 15.0992C305.3 17.8992 305.1 20.4992 304.5 23.0992C303.9 25.6992 303.1 28.0992 301.9 30.2992C300.7 32.4992 299.3 34.4992 297.7 36.2992C297.3 36.6992 296.7 37.0992 295.9 37.0992C295.1 37.0992 294.5 36.8992 294.1 36.2992Z" fill="#010F32"/>
<path d="M325.9 37.9009C325.3 37.9009 324.7 37.7009 324.3 37.3009C323.9 36.9009 323.7 36.3009 323.7 35.7009V21.3009C322.9 21.5009 322.1 21.5009 321.3 21.5009C320.5 21.5009 319.9 21.7009 319.3 21.7009C318.7 21.7009 318.1 21.7009 317.5 21.3009C316.9 20.9009 316.7 20.5009 316.7 19.7009C316.7 19.1009 316.7 18.5009 317.1 18.1009C317.5 17.7009 317.9 17.5009 318.7 17.5009C318.9 17.5009 319.1 17.5009 319.3 17.5009C319.5 17.5009 319.7 17.5009 320.1 17.5009C320.5 17.1009 320.9 16.5009 321.3 15.7009C321.7 15.1009 322.3 14.3009 322.9 13.5009C322.5 13.1009 321.9 12.7009 321.1 12.3009C320.5 11.9009 319.7 11.3009 319.1 10.9009C318.5 10.5009 318.1 10.1009 317.7 9.9009C317.1 9.5009 316.9 9.1009 316.7 8.5009C316.7 7.9009 316.7 7.5009 317.1 6.9009C317.5 6.3009 317.9 6.1009 318.5 5.9009C319.1 5.7009 319.7 5.9009 320.1 6.3009L320.5 6.5009C320.7 6.1009 321.1 5.5009 321.5 4.9009C321.9 4.3009 322.3 3.7009 322.5 3.1009C322.9 2.5009 323.1 2.1009 323.1 1.9009C323.3 1.3009 323.9 1.1009 324.5 0.900903C325.1 0.700903 325.7 0.7009 326.3 1.1009C326.9 1.3009 327.1 1.7009 327.3 2.3009C327.5 2.9009 327.3 3.3009 327.1 3.9009C326.9 4.3009 326.5 4.7009 326.3 5.3009C325.9 5.9009 325.5 6.5009 325.1 7.1009C324.7 7.7009 324.3 8.3009 324.1 8.7009L325.5 9.7009C326.1 8.9009 326.7 8.1009 327.1 7.3009C327.5 6.5009 327.9 5.9009 328.3 5.5009C328.7 4.9009 329.1 4.7009 329.7 4.5009C330.3 4.3009 330.9 4.5009 331.3 4.9009C331.9 5.3009 332.1 5.7009 332.3 6.3009C332.5 6.9009 332.3 7.5009 331.9 7.9009C331.5 8.5009 330.9 9.30091 330.1 10.3009C329.3 11.3009 328.5 12.3009 327.7 13.5009C326.9 14.5009 326.1 15.7009 325.3 16.7009C326.1 16.7009 326.7 16.5009 327.5 16.5009C328.3 16.5009 328.9 16.3009 329.5 16.3009L329.1 15.3009C328.9 14.7009 328.9 14.3009 329.1 13.7009C329.3 13.3009 329.7 12.9009 330.3 12.7009C330.9 12.5009 331.3 12.5009 331.9 12.7009C332.5 12.9009 332.7 13.3009 333.1 13.7009C333.3 14.1009 333.5 14.5009 333.9 15.3009C334.1 15.9009 334.5 16.7009 334.7 17.3009C334.9 17.9009 335.3 18.5009 335.3 18.9009C335.5 19.5009 335.5 19.9009 335.3 20.5009C335.1 20.9009 334.7 21.3009 334.1 21.5009C333.5 21.7009 332.9 21.7009 332.5 21.5009C331.9 21.3009 331.5 20.9009 331.3 20.3009C331.3 20.1009 331.3 20.1009 331.1 19.9009C331.1 19.7009 330.9 19.7009 330.9 19.5009C330.5 19.5009 329.9 19.7009 329.5 19.7009C329.1 19.7009 328.3 19.9009 327.7 19.9009V34.9009C327.7 35.5009 327.5 36.1009 327.1 36.5009C326.9 37.7009 326.5 37.9009 325.9 37.9009ZM318.5 33.5009C317.9 33.3009 317.7 32.9009 317.3 32.5009C317.1 32.1009 317.1 31.5009 317.3 31.1009C317.5 30.5009 317.7 29.9009 318.1 29.1009C318.3 28.3009 318.7 27.5009 318.9 26.7009C319.1 25.9009 319.3 25.1009 319.5 24.5009C319.7 23.9009 319.9 23.5009 320.5 23.3009C320.9 23.1009 321.5 22.9009 322.1 23.1009C322.7 23.3009 323.1 23.5009 323.3 23.9009C323.5 24.3009 323.7 24.9009 323.5 25.3009C323.3 25.9009 323.1 26.7009 322.9 27.5009C322.7 28.3009 322.5 29.1009 322.1 29.9009C321.9 30.7009 321.5 31.5009 321.3 31.9009C321.1 32.5009 320.7 32.9009 320.3 33.1009C319.5 33.5009 318.9 33.7009 318.5 33.5009ZM333.1 31.1009C332.5 31.3009 331.9 31.3009 331.5 31.1009C331.1 30.9009 330.7 30.5009 330.5 29.9009C330.3 29.5009 330.1 28.9009 329.9 28.3009C329.7 27.7009 329.5 27.1009 329.3 26.5009C329.1 25.9009 328.9 25.3009 328.9 24.9009C328.7 24.3009 328.9 23.9009 329.1 23.5009C329.3 23.1009 329.7 22.7009 330.3 22.7009C330.9 22.5009 331.3 22.7009 331.7 22.9009C332.1 23.1009 332.5 23.5009 332.7 24.1009C332.9 24.5009 332.9 24.9009 333.1 25.5009C333.3 26.1009 333.5 26.7009 333.7 27.3009C333.9 27.9009 334.1 28.3009 334.3 28.7009C334.5 29.3009 334.5 29.7009 334.3 30.3009C334.1 30.9009 333.5 30.9009 333.1 31.1009ZM333.3 36.5009C332.7 36.5009 332.1 36.3009 331.7 35.9009C331.3 35.5009 331.1 35.1009 331.1 34.5009C331.1 33.9009 331.3 33.5009 331.7 33.1009C332.1 32.7009 332.5 32.5009 333.3 32.5009H335.9V9.1009C335.9 7.5009 336.1 6.1009 336.5 5.1009C336.9 4.1009 337.7 3.5009 338.7 3.1009C339.7 2.7009 341.1 2.5009 342.9 2.5009H344.3C346.1 2.5009 347.5 2.7009 348.5 3.1009C349.5 3.5009 350.3 4.3009 350.7 5.1009C351.1 6.1009 351.3 7.3009 351.3 9.1009V32.3009H352.9C353.5 32.3009 354.1 32.5009 354.5 32.9009C354.9 33.3009 355.1 33.7009 355.1 34.3009C355.1 34.9009 354.9 35.3009 354.5 35.7009C354.1 36.1009 353.7 36.3009 352.9 36.3009H333.3V36.5009ZM340.5 12.3009H346.7V9.30091C346.7 8.30091 346.5 7.7009 346.1 7.3009C345.7 6.9009 344.9 6.9009 343.9 6.9009H343.3C342.1 6.9009 341.5 7.1009 341.1 7.3009C340.7 7.7009 340.5 8.30091 340.5 9.30091V12.3009ZM340.5 22.1009H346.7V16.5009H340.5V22.1009ZM340.5 32.3009H346.7V26.3009H340.5V32.3009Z" fill="#010F32"/>
<path d="M375.1 35.4996C374.7 35.0996 374.3 34.4996 374.3 33.8996C374.3 33.2996 374.5 32.6996 374.9 32.0996C375.9 31.0996 377.1 29.6996 377.9 28.0996C378.9 26.4996 379.7 24.8996 380.3 23.2996C378.1 22.6996 376.1 22.2996 374.1 22.0996C373.1 24.0996 371.9 25.8996 370.7 27.2996C369.5 28.6996 368.1 29.6996 366.7 30.0996C365.3 30.6996 364.1 30.8996 362.7 30.6996C361.5 30.4996 360.3 30.0996 359.5 29.0996C358.7 28.0996 358.3 27.0996 358.3 25.4996C358.3 24.0996 358.7 22.6996 359.7 21.4996C360.5 20.2996 361.9 19.2996 363.9 18.4996C365.7 17.6996 368.1 17.4996 371.1 17.4996C371.7 15.8996 372.1 14.0996 372.7 12.0996C373.1 10.4996 373.1 9.49961 372.5 8.89961C371.9 8.29961 371.1 8.29961 369.5 8.49961C368.9 8.49961 368.3 8.69961 367.5 8.69961C366.7 8.69961 366.1 8.89961 365.7 8.89961C365.1 8.89961 364.5 8.69962 363.9 8.29962C363.3 7.89962 363.1 7.29961 363.1 6.69961C363.1 6.09961 363.3 5.49961 363.7 4.89961C364.1 4.49961 364.7 4.09961 365.3 4.09961C365.9 4.09961 366.5 3.89961 367.3 3.89961C368.1 3.89961 368.9 3.69961 369.3 3.69961C372.7 3.49961 374.9 4.09961 376.3 5.49961C377.5 6.89961 377.9 9.09962 377.3 12.2996C377.1 13.2996 376.9 14.0996 376.7 15.0996C376.5 16.0996 376.3 16.8996 375.9 17.6996C376.9 17.8996 377.9 17.8996 378.9 18.0996C379.9 18.2996 380.9 18.4996 381.9 18.6996C382.1 17.6996 382.3 16.8996 382.5 16.0996C382.7 15.2996 382.7 14.4996 382.7 13.6996C382.7 13.0996 382.9 12.4996 383.5 12.0996C384.1 11.6996 384.5 11.2996 385.1 11.2996C385.7 11.2996 386.3 11.4996 386.7 11.8996C387.1 12.2996 387.3 12.8996 387.3 13.6996C387.3 14.6996 387.1 15.6996 386.9 16.8996C386.7 18.0996 386.5 19.0996 386.3 20.0996C387.1 20.2996 387.9 20.6996 388.7 20.8996C389.5 21.0996 390.3 21.4996 391.1 21.6996C391.7 21.8996 392.1 22.4996 392.3 23.0996C392.5 23.6996 392.5 24.2996 392.3 24.8996C392.1 25.4996 391.7 25.8996 391.1 26.0996C390.5 26.2996 389.9 26.2996 389.3 26.0996C388.7 25.6996 387.9 25.4996 387.1 25.0996C386.3 24.8996 385.7 24.4996 384.9 24.2996C384.1 26.4996 383.1 28.4996 381.9 30.2996C380.7 32.0996 379.7 33.6996 378.3 34.8996C377.9 35.2996 377.3 35.4996 376.7 35.6996C376.3 36.0996 375.7 35.8996 375.1 35.4996ZM365.3 25.8996C365.9 25.6996 366.5 25.0996 367.3 24.4996C367.9 23.8996 368.7 22.8996 369.3 21.8996C367.1 22.0996 365.7 22.4996 364.9 23.0996C364.1 23.6996 363.5 24.2996 363.5 25.0996C363.5 25.4996 363.7 25.8996 363.9 25.8996C364.1 26.2996 364.5 26.2996 365.3 25.8996Z" fill="#010F32"/>
<path d="M425.5 35.7001C421.3 36.3001 417.5 36.3001 414.3 35.9001C411.1 35.5001 408.7 34.5001 406.9 32.9001C405.1 31.3001 404.3 29.1001 404.3 26.5001C404.3 24.1001 404.9 22.1001 406.1 20.5001C407.3 18.9001 408.9 17.3001 411.1 16.1001C410.9 15.1001 410.7 13.9001 410.3 12.5001C409.9 11.1001 409.5 9.90012 409.3 8.50012C409.1 7.10012 408.5 6.10012 408.3 5.10012C408.1 4.50012 408.1 3.90012 408.5 3.30012C408.9 2.70012 409.3 2.30012 409.9 2.10012C410.5 1.90012 411.1 1.90012 411.7 2.30012C412.3 2.70012 412.7 3.10012 412.9 3.70012C413.3 5.30012 413.9 6.90012 414.3 8.70012C414.7 10.5001 415.1 12.3001 415.3 13.9001C416.5 13.3001 417.9 12.9001 419.3 12.5001C420.7 12.1001 422.3 11.7001 423.7 11.3001C424.3 11.1001 424.9 11.3001 425.5 11.5001C426.1 11.9001 426.5 12.3001 426.5 12.9001C426.7 13.5001 426.5 14.1001 426.1 14.7001C425.7 15.3001 425.3 15.5001 424.7 15.7001C421.3 16.3001 418.7 17.1001 416.5 17.9001C414.5 18.7001 412.9 19.5001 411.7 20.3001C410.5 21.1001 409.9 22.1001 409.5 22.9001C409.1 23.7001 408.9 24.7001 408.9 25.7001C408.9 27.9001 410.1 29.3001 412.7 30.1001C415.3 30.9001 419.3 31.1001 424.7 30.1001C425.3 29.9001 425.9 30.1001 426.5 30.5001C427.1 30.9001 427.3 31.5001 427.3 32.1001C427.3 32.7001 427.3 33.3001 426.9 33.9001C426.5 34.5001 426.1 35.5001 425.5 35.7001Z" fill="#010F32"/>
<path d="M102.5 95.2996C101.9 95.2996 101.5 95.0996 101.1 94.6996C100.7 94.2996 100.5 93.8996 100.5 93.2996C100.5 92.6996 100.7 92.2996 101.1 91.8996C101.5 91.4996 101.9 91.2996 102.5 91.2996H113.1V88.6996H108.1C107.5 88.6996 107.1 88.4996 106.7 88.0996C106.3 87.6996 106.1 87.2996 106.1 86.6996C106.1 86.0996 106.3 85.6996 106.7 85.2996C107.1 84.8996 107.5 84.6996 108.1 84.6996H113.1V81.6996C113.1 81.4996 113.1 81.4996 113.1 81.2996C113.1 81.0996 113.1 81.0996 113.1 80.8996H110.5C109.7 81.8996 108.7 82.8996 107.5 83.8996C106.3 84.8996 105.1 85.8996 103.9 86.8996C102.7 87.8996 101.5 88.6996 100.5 89.2996C99.8998 89.6996 99.2998 89.8996 98.4998 89.6996C97.8998 89.6996 97.2998 89.2996 96.8998 88.6996C96.4998 88.0996 96.2998 87.4996 96.4998 86.8996C96.6998 86.2996 97.0999 85.6996 97.6999 85.4996C98.6999 84.8996 99.6998 84.2996 100.9 83.2996C102.1 82.4996 103.3 81.4996 104.5 80.6996H98.8998C98.2998 80.6996 97.8998 80.4996 97.4998 80.0996C97.0998 79.6996 96.8998 79.2996 96.8998 78.6996C96.8998 78.0996 97.0998 77.6996 97.4998 77.2996C97.8998 76.8996 98.2998 76.6996 98.8998 76.6996H105.7V65.0996H100.5C99.8998 65.0996 99.4999 64.8996 99.0999 64.4996C98.6999 64.0996 98.4998 63.6996 98.4998 63.0996C98.4998 62.4996 98.6999 62.0996 99.0999 61.6996C99.4999 61.2996 99.8998 61.0996 100.5 61.0996H105.7V59.4996C105.7 58.6996 105.9 58.2996 106.3 57.6996C106.7 57.0996 107.3 57.0996 107.9 57.0996C108.5 57.0996 109.1 57.2996 109.5 57.6996C109.9 58.0996 110.1 58.6996 110.1 59.4996V61.0996H119.9V59.4996C119.9 58.6996 120.1 58.2996 120.5 57.6996C120.9 57.0996 121.5 57.0996 122.1 57.0996C122.7 57.0996 123.3 57.2996 123.9 57.6996C124.3 58.0996 124.5 58.6996 124.5 59.4996V61.0996H129.7C130.3 61.0996 130.7 61.2996 131.1 61.6996C131.5 62.0996 131.7 62.4996 131.7 63.0996C131.7 63.6996 131.5 64.0996 131.1 64.4996C130.7 64.8996 130.3 65.0996 129.7 65.0996H124.5V77.4996H131.5C132.1 77.4996 132.5 77.6996 132.9 78.0996C133.3 78.4996 133.5 78.8996 133.5 79.4996C133.5 80.0996 133.3 80.4996 132.9 80.8996C132.5 81.2996 132.1 81.4996 131.5 81.4996H126.5C127.7 82.2996 128.9 83.2996 130.1 83.8996C131.3 84.6996 132.5 85.2996 133.5 85.8996C134.1 86.2996 134.5 86.6996 134.7 87.2996C134.9 87.8996 134.7 88.4996 134.3 89.0996C133.9 89.6996 133.3 90.0996 132.7 90.0996C131.9 90.0996 131.3 89.8996 130.7 89.6996C129.7 89.0996 128.5 88.2996 127.3 87.2996C126.1 86.2996 124.9 85.4996 123.7 84.2996C122.5 83.2996 121.5 82.2996 120.7 81.2996H117.9C117.9 81.4996 117.9 81.4996 117.9 81.6996C117.9 81.8996 117.9 81.8996 117.9 82.0996V85.0996H123.3C123.9 85.0996 124.3 85.2996 124.7 85.6996C125.1 86.0996 125.3 86.4996 125.3 87.0996C125.3 87.6996 125.1 88.0996 124.7 88.4996C124.3 88.8996 123.9 89.0996 123.3 89.0996H117.9V91.6996H128.9C129.5 91.6996 129.9 91.8996 130.3 92.2996C130.7 92.6996 130.9 93.0996 130.9 93.6996C130.9 94.2996 130.7 94.6996 130.3 95.0996C129.9 95.4996 129.5 95.6996 128.9 95.6996H102.5V95.2996ZM110.7 67.6996H120.5V65.8996H110.7V67.6996ZM110.7 72.4996H120.5V70.6996H110.7V72.4996ZM110.7 77.4996H120.5V75.4996H110.7V77.4996Z" fill="#010F32"/>
<path d="M140.1 94.3004C139.5 94.3004 138.9 94.1004 138.5 93.7004C138.1 93.3004 137.9 92.9004 137.9 92.3004C137.9 91.7004 138.1 91.3004 138.5 90.9004C138.9 90.5004 139.3 90.3004 140.1 90.3004H146.9L146.7 90.1004L146.5 89.9004C146.3 89.5004 146.1 89.1004 145.7 88.5004C145.3 87.9004 144.9 87.5004 144.7 86.9004C144.3 86.5004 144.1 86.1004 143.9 85.7004C143.5 85.3004 143.3 84.7004 143.5 84.1004C143.5 83.5004 143.9 83.1004 144.3 82.7004C144.9 82.3004 145.5 82.1004 146.1 82.1004C146.7 82.1004 147.3 82.5004 147.7 82.9004C147.9 83.1004 148.3 83.5004 148.7 84.1004C149.1 84.7004 149.5 85.1004 149.9 85.7004C150.3 86.3004 150.5 86.7004 150.7 86.9004C151.1 87.5004 151.3 87.9004 151.1 88.5004C150.9 89.1004 150.7 89.5004 150.3 90.1004H153.3V82.1004H142.9C142.3 82.1004 141.7 81.9004 141.3 81.5004C140.9 81.1004 140.7 80.5004 140.7 79.9004C140.7 79.3004 140.9 78.9004 141.3 78.3004C141.7 77.9004 142.1 77.7004 142.9 77.7004H153.3V74.5004H148.5C147.9 74.5004 147.3 74.3004 146.9 73.9004C146.5 73.5004 146.3 73.1004 146.3 72.5004C146.3 71.9004 146.5 71.5004 146.7 71.1004C145.5 71.9004 144.5 72.7004 143.3 73.3004C142.1 74.1004 141.1 74.7004 140.1 75.3004C139.5 75.7004 138.9 75.7004 138.1 75.7004C137.5 75.5004 136.9 75.3004 136.5 74.7004C136.1 74.1004 136.1 73.5004 136.3 72.9004C136.5 72.3004 136.9 71.9004 137.5 71.5004C138.7 70.9004 140.1 70.1004 141.3 69.3004C142.7 68.5004 144.1 67.5004 145.3 66.5004C146.5 65.5004 147.9 64.5004 149.1 63.5004C150.3 62.5004 151.3 61.5004 152.1 60.7004C153.1 59.5004 154.3 59.1004 155.5 58.9004C156.7 58.9004 157.9 59.3004 158.9 60.5004C159.7 61.3004 160.7 62.3004 161.9 63.3004C163.1 64.3004 164.3 65.3004 165.7 66.3004C167.1 67.3004 168.5 68.1004 169.7 69.1004C171.1 69.9004 172.3 70.7004 173.3 71.1004C173.9 71.3004 174.3 71.9004 174.5 72.7004C174.7 73.5004 174.7 74.1004 174.3 74.7004C173.9 75.3004 173.3 75.7004 172.5 75.9004C171.7 76.1004 171.1 75.9004 170.3 75.5004C169.3 74.9004 168.1 74.1004 166.9 73.3004C165.7 72.5004 164.3 71.5004 163.1 70.5004C161.9 69.5004 160.5 68.5004 159.5 67.5004C158.3 66.5004 157.3 65.7004 156.7 64.7004C155.9 63.9004 155.1 63.9004 154.3 64.7004C153.5 65.5004 152.3 66.5004 151.1 67.5004C149.9 68.5004 148.5 69.5004 147.1 70.7004C147.3 70.5004 147.5 70.5004 147.9 70.5004H162.5C163.1 70.5004 163.7 70.7004 164.1 71.1004C164.5 71.5004 164.7 72.1004 164.7 72.7004C164.7 73.3004 164.5 73.7004 164.1 74.1004C163.7 74.5004 163.1 74.7004 162.5 74.7004H157.7V77.9004H167.9C168.5 77.9004 169.1 78.1004 169.5 78.5004C169.9 78.9004 170.1 79.5004 170.1 80.1004C170.1 80.7004 169.9 81.1004 169.5 81.7004C169.1 82.1004 168.7 82.3004 167.9 82.3004H157.7V90.3004H160.7C160.3 89.9004 160.1 89.5004 159.9 88.9004C159.7 88.3004 159.9 87.9004 160.3 87.5004C160.5 87.3004 160.7 86.9004 161.1 86.3004C161.5 85.7004 161.7 85.3004 162.1 84.7004C162.5 84.1004 162.7 83.7004 162.9 83.5004C163.3 82.9004 163.7 82.5004 164.3 82.5004C164.9 82.3004 165.5 82.5004 166.1 82.7004C166.7 82.9004 167.1 83.5004 167.1 84.1004C167.3 84.7004 167.1 85.3004 166.9 85.9004C166.7 86.3004 166.5 86.7004 166.1 87.3004C165.7 87.9004 165.5 88.3004 165.1 88.9004C164.7 89.5004 164.5 89.9004 164.3 90.1004C164.3 90.3004 164.1 90.3004 164.1 90.3004L163.9 90.5004H170.3C170.9 90.5004 171.5 90.7004 171.9 91.1004C172.3 91.5004 172.5 91.9004 172.5 92.5004C172.5 93.1004 172.3 93.5004 171.9 93.9004C171.5 94.3004 171.1 94.5004 170.3 94.5004H140.1V94.3004Z" fill="#010F32"/>
<path d="M184.3 93.0992C183.7 93.2992 183.1 93.0992 182.5 92.6992C181.9 92.2992 181.7 91.8992 181.5 91.0992C181.3 89.6992 181.1 88.0992 180.9 86.2992C180.7 84.4992 180.7 82.4992 180.7 80.4992C180.7 78.4992 180.7 76.4992 180.9 74.4992C181.1 72.4992 181.1 70.4992 181.3 68.6992C181.5 66.8992 181.7 65.0992 182.1 63.6992C182.3 63.0992 182.5 62.4992 183.1 62.0992C183.7 61.6992 184.3 61.6992 184.9 61.6992C185.5 61.8992 186.1 62.2992 186.5 62.6992C186.9 63.2992 186.9 63.8992 186.9 64.4992C186.5 66.2992 186.1 68.4992 185.9 70.6992C185.7 72.8992 185.5 75.0992 185.5 77.4992C185.5 79.6992 185.5 81.8992 185.5 84.0992C185.5 86.2992 185.9 88.0992 186.1 89.8992C186.3 90.4992 186.1 91.0992 185.7 91.6992C185.3 92.2992 184.9 92.8992 184.3 93.0992ZM200.7 90.8992C197.3 90.8992 194.7 90.2992 192.9 89.0992C191.3 87.8992 190.1 86.0992 189.9 83.4992C189.7 82.8992 189.9 82.2992 190.3 81.6992C190.7 81.0992 191.3 80.8992 191.9 80.6992C192.5 80.6992 193.1 80.6992 193.7 81.0992C194.3 81.4992 194.5 82.0992 194.7 82.6992C194.9 83.8992 195.5 84.6992 196.3 85.2992C197.3 85.8992 198.7 86.0992 200.9 86.0992C202.9 86.0992 205.3 85.6992 208.1 85.0992C208.7 84.8992 209.3 85.0992 209.9 85.4992C210.5 85.8992 210.9 86.2992 210.9 87.0992C211.1 87.6992 210.9 88.2992 210.5 88.8992C210.1 89.4992 209.7 89.8992 208.9 89.8992C207.5 90.2992 206.1 90.4992 204.5 90.6992C203.3 90.8992 201.9 90.8992 200.7 90.8992ZM193.5 71.0992C192.9 71.2992 192.3 71.0992 191.7 70.6992C191.1 70.2992 190.9 69.8992 190.7 69.0992C190.5 68.4992 190.7 67.8992 191.1 67.2992C191.5 66.6992 191.9 66.4992 192.7 66.2992C194.1 66.0992 195.9 65.8992 197.7 65.6992C199.5 65.4992 201.3 65.4992 203.1 65.6992C204.9 65.6992 206.5 65.8992 207.9 66.0992C208.5 66.2992 209.1 66.4992 209.5 67.0992C209.9 67.6992 209.9 68.2992 209.9 68.8992C209.7 69.4992 209.5 70.0992 208.9 70.4992C208.3 70.8992 207.7 70.8992 207.1 70.8992C204.9 70.4992 202.7 70.2992 200.3 70.2992C197.9 70.4992 195.7 70.6992 193.5 71.0992Z" fill="#010F32"/>
<path d="M233.3 91.4994C232.7 91.4994 232.1 91.4994 231.5 91.0994C230.9 90.6994 230.7 90.0994 230.5 89.4994C230.5 88.8994 230.5 88.2994 230.9 87.6994C231.3 87.0994 231.9 86.8994 232.5 86.6994C235.9 86.2994 238.5 85.6994 240.5 84.6994C242.5 83.6994 243.9 82.4994 244.9 81.0994C245.7 79.6994 246.1 78.2994 246.1 76.6994C245.9 74.4994 245.3 73.0994 243.9 72.0994C242.5 71.0994 240.5 70.6994 237.7 70.8994C236.5 70.8994 235.3 71.0994 233.9 71.2994C232.5 71.4994 231.1 71.6994 229.5 72.0994C227.9 72.4994 226.5 72.6994 225.3 73.0994C224.1 73.4994 222.7 73.6994 221.7 74.0994C221.1 74.2994 220.5 74.2994 219.9 73.8994C219.3 73.4994 218.9 73.0994 218.7 72.4994C218.5 71.8994 218.5 71.2994 218.9 70.6994C219.3 70.0994 219.7 69.6994 220.3 69.4994C221.5 69.0994 222.7 68.8994 224.1 68.4994C225.5 68.0994 227.1 67.8994 228.5 67.6994C230.1 67.4994 231.5 67.0994 233.1 66.8994C234.5 66.6994 235.9 66.4994 237.1 66.4994C241.3 66.0994 244.7 66.8994 246.9 68.6994C249.1 70.4994 250.3 73.0994 250.7 76.4994C250.9 78.8994 250.3 81.2994 249.1 83.4994C247.9 85.6994 245.9 87.4994 243.3 88.8994C240.9 90.0994 237.5 91.0994 233.3 91.4994Z" fill="#010F32"/>
<path d="M268.9 89.3008C267.7 89.3008 266.5 89.1008 265.3 88.5008C264.1 87.9008 263.1 86.9008 262.3 85.5008C261.5 84.3008 260.9 82.7008 260.5 80.9008C260.1 79.1008 259.7 77.1008 259.5 74.9008C259.3 72.7008 259.3 70.7008 259.3 68.5008C259.3 67.9008 259.7 67.3008 260.1 66.9008C260.5 66.5008 261.1 66.3008 261.7 66.3008C262.3 66.3008 262.9 66.5008 263.3 67.1008C263.7 67.5008 263.9 68.1008 263.9 68.9008C263.7 70.7008 263.9 72.5008 263.9 74.3008C264.1 76.1008 264.3 77.7008 264.7 79.1008C265.1 80.5008 265.5 81.7008 266.1 82.7008C266.7 83.7008 267.5 84.3008 268.5 84.3008C269.7 84.3008 270.7 83.1008 271.3 80.7008C271.5 80.1008 271.9 79.7008 272.5 79.3008C273.1 78.9008 273.7 78.9008 274.3 79.1008C274.9 79.3008 275.3 79.7008 275.7 80.3008C275.9 80.9008 276.1 81.5008 275.9 82.1008C275.1 84.5008 274.1 86.1008 272.9 87.3008C271.9 88.7008 270.5 89.3008 268.9 89.3008ZM290.7 82.3008C290.1 82.5008 289.5 82.5008 288.9 82.3008C288.3 82.1008 287.9 81.5008 287.7 80.9008C287.3 79.9008 286.7 78.9008 286.1 77.9008C285.5 76.9008 284.7 75.9008 283.9 75.1008C283.1 74.3008 282.3 73.5008 281.3 72.9008C280.7 72.5008 280.5 72.1008 280.3 71.3008C280.1 70.7008 280.3 70.1008 280.7 69.5008C281.1 68.9008 281.7 68.7008 282.3 68.7008C282.9 68.7008 283.5 68.9008 284.1 69.3008C285.3 70.1008 286.3 71.1008 287.5 72.1008C288.5 73.3008 289.5 74.5008 290.5 75.7008C291.3 76.9008 292.1 78.3008 292.5 79.5008C292.7 80.1008 292.7 80.7008 292.5 81.3008C291.9 81.7008 291.3 82.1008 290.7 82.3008Z" fill="#010F32"/>
<path d="M325.9 93.7003C322.7 93.3003 320.1 92.3003 318.1 90.9003C316.1 89.5003 314.5 87.9003 313.5 85.9003C312.5 83.9003 311.9 81.9003 311.9 79.9003C311.9 77.7003 312.3 75.7003 313.1 73.9003C313.9 72.1003 315.1 70.5003 316.7 69.1003C315.1 69.3003 313.3 69.7003 311.5 69.9003C309.7 70.3003 307.9 70.5003 306.3 70.9003C304.7 71.3003 303.1 71.5003 301.9 71.7003C301.3 71.9003 300.7 71.7003 300.1 71.3003C299.5 70.9003 299.3 70.3003 299.1 69.7003C298.9 69.1003 299.1 68.5003 299.5 67.9003C299.9 67.3003 300.5 67.1003 301.1 66.9003C301.9 66.7003 303.1 66.5003 304.3 66.3003C305.7 66.1003 307.1 65.9003 308.7 65.5003C310.3 65.3003 312.1 64.9003 313.7 64.7003C315.5 64.5003 317.1 64.1003 318.9 63.9003C320.5 63.7003 322.1 63.3003 323.5 63.1003C324.9 62.9003 326.1 62.7003 326.9 62.5003C327.5 62.3003 328.1 62.5003 328.7 62.9003C329.3 63.3003 329.5 63.7003 329.7 64.3003C329.9 64.9003 329.7 65.5003 329.3 66.1003C328.9 66.7003 328.5 66.9003 327.7 67.1003C325.7 67.3003 324.1 67.9003 322.7 68.7003C321.3 69.5003 320.1 70.5003 319.1 71.7003C318.1 72.9003 317.5 74.1003 317.1 75.5003C316.7 76.9003 316.5 78.1003 316.5 79.3003C316.5 81.9003 317.3 83.9003 319.1 85.5003C320.9 87.1003 323.3 88.1003 326.3 88.5003C326.9 88.7003 327.5 88.9003 327.9 89.5003C328.3 90.1003 328.5 90.7003 328.3 91.3003C328.1 91.9003 327.9 92.5003 327.3 92.9003C327.1 93.7003 326.5 93.9003 325.9 93.7003Z" fill="#010F32"/>
</svg>
