<svg width="540" height="74" viewBox="0 0 540 74" fill="none" xmlns="http://www.w3.org/2000/svg">
<path d="M533.986 72.1636H6.01365C4.05001 72.1636 2.45456 70.5682 2.45456 68.6045V67.1318C2.45456 65.6591 3.31365 64.4318 4.66365 63.8182V9.81817C3.31365 9.32726 2.45456 8.09999 2.45456 6.50454V5.03181C2.45456 2.94544 3.92729 1.47272 6.01365 1.47272H533.986C535.95 1.47272 537.546 3.06817 537.546 5.03181V6.50454C537.546 8.09999 536.564 9.32726 535.214 9.81817V63.8182C536.564 64.3091 537.546 65.6591 537.546 67.1318V68.6045C537.546 70.6909 536.073 72.1636 533.986 72.1636ZM6.01365 66.0273C5.27729 66.0273 4.9091 66.6409 4.9091 67.1318V68.6045C4.9091 69.3409 5.52274 69.7091 6.01365 69.7091H533.986C534.6 69.7091 535.091 69.2182 535.091 68.6045V67.1318C535.091 66.3954 534.477 66.0273 533.986 66.0273H6.01365ZM7.1182 63.5727H532.759V10.0636H7.1182V63.5727ZM6.01365 7.60908H533.986C534.6 7.60908 535.091 7.11817 535.091 6.50454V5.03181C535.091 4.5409 534.723 3.92726 533.986 3.92726H6.01365C5.40001 3.92726 4.9091 4.41817 4.9091 5.03181V6.50454C4.9091 7.11817 5.40001 7.60908 6.01365 7.60908Z" fill="#010F32"/>
<path d="M41.4818 21.2318H18.1636C17.4273 21.2318 16.9364 20.7409 16.9364 20.0046C16.9364 19.2682 17.4273 18.7773 18.1636 18.7773H41.4818C42.2182 18.7773 42.7091 19.2682 42.7091 20.0046C42.7091 20.7409 42.2182 21.2318 41.4818 21.2318ZM14.4818 21.2318H5.89091C5.15454 21.2318 4.66364 20.7409 4.66364 20.0046C4.66364 19.2682 5.15454 18.7773 5.89091 18.7773H14.4818C15.2182 18.7773 15.7091 19.2682 15.7091 20.0046C15.7091 20.7409 15.2182 21.2318 14.4818 21.2318Z" fill="#010F32"/>
<path d="M35.5909 32.8909H27C26.2636 32.8909 25.7727 32.4 25.7727 31.6636C25.7727 30.9272 26.2636 30.4363 27 30.4363H35.5909C36.3273 30.4363 36.8182 30.9272 36.8182 31.6636C36.8182 32.4 36.3273 32.8909 35.5909 32.8909ZM23.3182 32.8909H5.89091C5.15454 32.8909 4.66364 32.4 4.66364 31.6636C4.66364 30.9272 5.15454 30.4363 5.89091 30.4363H23.3182C24.0545 30.4363 24.5455 30.9272 24.5455 31.6636C24.5455 32.4 24.0545 32.8909 23.3182 32.8909Z" fill="#010F32"/>
<path d="M35.5909 44.4273H24.3C23.5636 44.4273 23.0727 43.9364 23.0727 43.2C23.0727 42.4636 23.5636 41.9727 24.3 41.9727H35.5909C36.3273 41.9727 36.8182 42.4636 36.8182 43.2C36.8182 43.9364 36.3273 44.4273 35.5909 44.4273ZM18.1636 44.4273H5.89091C5.15454 44.4273 4.66364 43.9364 4.66364 43.2C4.66364 42.4636 5.15454 41.9727 5.89091 41.9727H18.1636C18.9 41.9727 19.3909 42.4636 19.3909 43.2C19.3909 43.9364 18.9 44.4273 18.1636 44.4273Z" fill="#010F32"/>
<path d="M41.4818 56.0864H18.1636C17.4273 56.0864 16.9364 55.5955 16.9364 54.8591C16.9364 54.1227 17.4273 53.6318 18.1636 53.6318H41.4818C42.2182 53.6318 42.7091 54.1227 42.7091 54.8591C42.7091 55.5955 42.2182 56.0864 41.4818 56.0864ZM14.4818 56.0864H5.89091C5.15454 56.0864 4.66364 55.5955 4.66364 54.8591C4.66364 54.1227 5.15454 53.6318 5.89091 53.6318H14.4818C15.2182 53.6318 15.7091 54.1227 15.7091 54.8591C15.7091 55.5955 15.2182 56.0864 14.4818 56.0864Z" fill="#010F32"/>
<path d="M534.109 21.2318H510.791C510.055 21.2318 509.564 20.7409 509.564 20.0046C509.564 19.2682 510.055 18.7773 510.791 18.7773H534.109C534.845 18.7773 535.336 19.2682 535.336 20.0046C535.336 20.7409 534.845 21.2318 534.109 21.2318ZM507.109 21.2318H498.518C497.782 21.2318 497.291 20.7409 497.291 20.0046C497.291 19.2682 497.782 18.7773 498.518 18.7773H507.109C507.845 18.7773 508.336 19.2682 508.336 20.0046C508.336 20.7409 507.845 21.2318 507.109 21.2318Z" fill="#010F32"/>
<path d="M534.109 32.8909H525.518C524.782 32.8909 524.291 32.4 524.291 31.6636C524.291 30.9272 524.782 30.4363 525.518 30.4363H534.109C534.845 30.4363 535.336 30.9272 535.336 31.6636C535.336 32.4 534.845 32.8909 534.109 32.8909ZM521.836 32.8909H504.409C503.673 32.8909 503.182 32.4 503.182 31.6636C503.182 30.9272 503.673 30.4363 504.409 30.4363H521.836C522.573 30.4363 523.064 30.9272 523.064 31.6636C523.064 32.4 522.573 32.8909 521.836 32.8909Z" fill="#010F32"/>
<path d="M534.109 44.4273H522.818C522.082 44.4273 521.591 43.9364 521.591 43.2C521.591 42.4636 522.082 41.9727 522.818 41.9727H534.109C534.845 41.9727 535.336 42.4636 535.336 43.2C535.336 43.9364 534.845 44.4273 534.109 44.4273ZM516.682 44.4273H504.409C503.673 44.4273 503.182 43.9364 503.182 43.2C503.182 42.4636 503.673 41.9727 504.409 41.9727H516.682C517.418 41.9727 517.909 42.4636 517.909 43.2C517.909 43.9364 517.418 44.4273 516.682 44.4273Z" fill="#010F32"/>
<path d="M534.109 56.0864H516.927C516.191 56.0864 515.7 55.5955 515.7 54.8591C515.7 54.1227 516.191 53.6318 516.927 53.6318H534.109C534.845 53.6318 535.336 54.1227 535.336 54.8591C535.336 55.5955 534.845 56.0864 534.109 56.0864ZM510.791 56.0864H498.518C497.782 56.0864 497.291 55.5955 497.291 54.8591C497.291 54.1227 497.782 53.6318 498.518 53.6318H510.791C511.527 53.6318 512.018 54.1227 512.018 54.8591C512.018 55.5955 511.527 56.0864 510.791 56.0864Z" fill="#010F32"/>
<path d="M137.086 49.2137C136.35 49.2137 135.736 48.9682 135.123 48.3546C134.632 47.8637 134.264 47.1273 134.264 46.3909C134.264 45.6546 134.509 45.0409 135.123 44.4273C135.614 43.9364 136.35 43.6909 137.086 43.6909H152.55C154.391 43.6909 155.741 43.5682 156.6 43.3228C157.459 43.0773 158.073 42.4637 158.441 41.4818C158.809 40.6228 158.932 39.15 158.932 37.3091C158.932 35.3455 158.809 33.9955 158.441 33.1364C158.073 32.2773 157.582 31.6637 156.6 31.4182C155.741 31.1728 154.391 31.05 152.55 31.05H137.577C136.841 31.05 136.227 30.8046 135.736 30.3137C135.245 29.8228 135 29.0864 135 28.35C135 27.6137 135.245 27 135.736 26.3864C136.227 25.7728 136.841 25.65 137.577 25.65H152.55C154.882 25.65 156.723 25.7728 158.318 26.1409C159.791 26.5091 161.018 27.1228 161.877 27.9818C162.736 28.8409 163.35 30.0682 163.718 31.6637C164.086 33.1364 164.332 35.1 164.332 37.5546C164.332 40.0091 164.086 41.85 163.718 43.4455C163.35 44.9182 162.736 46.1455 161.877 47.1273C161.018 47.9864 159.791 48.6 158.195 48.9682C156.723 49.3364 154.759 49.4591 152.427 49.4591H137.086V49.2137Z" fill="#010F32"/>
<path d="M183.477 54.859C182.741 55.1045 182.127 54.9818 181.391 54.7363C180.777 54.3681 180.286 53.8772 180.041 53.1409C179.795 52.4045 179.918 51.7909 180.164 51.0545C180.532 50.3181 181.023 49.95 181.759 49.7045C185.441 48.4772 188.509 46.8818 191.332 44.6727C194.032 42.5863 196.118 40.1318 197.345 37.4318C198.327 35.2227 197.591 34.1181 195.014 34.1181H178.936C178.2 34.1181 177.586 33.8727 177.095 33.3818C176.605 32.8909 176.359 32.2772 176.359 31.4181C176.359 30.559 176.605 30.0681 177.095 29.5772C177.586 29.0863 178.2 28.8409 178.936 28.8409H195.136C197.714 28.8409 199.677 29.3318 201.027 30.1909C202.377 31.1727 203.114 32.4 203.359 33.9954C203.605 35.5909 203.114 37.5545 202.132 39.6409C200.536 43.0772 198.082 46.1454 194.768 48.7227C191.577 51.4227 187.773 53.3863 183.477 54.859ZM181.882 25.5272C181.145 25.5272 180.532 25.2818 180.041 24.7909C179.55 24.3 179.305 23.6863 179.305 22.95C179.305 22.2136 179.55 21.6 180.041 21.109C180.532 20.6181 181.145 20.3727 181.882 20.3727H198.818C199.555 20.3727 200.168 20.6181 200.659 21.109C201.15 21.6 201.395 22.2136 201.395 22.95C201.395 23.6863 201.15 24.3 200.659 24.7909C200.168 25.2818 199.555 25.5272 198.818 25.5272H181.882Z" fill="#010F32"/>
<path d="M216.982 48.5999C216.368 48.9681 215.632 49.0909 214.895 48.8454C214.159 48.5999 213.545 48.2318 213.177 47.6181C212.809 46.8818 212.686 46.2681 212.932 45.5318C213.177 44.7954 213.545 44.3045 214.159 43.8136C215.386 43.0772 216.614 42.0954 217.841 40.9909C219.068 39.8863 220.295 38.9045 221.277 37.7999C221.768 37.1863 222.382 36.9409 223.118 36.8181C223.855 36.6954 224.468 36.8181 225.082 37.1863C225.695 37.6772 226.064 38.1681 226.186 38.9045C226.309 39.6409 226.186 40.2545 225.695 40.8681C224.959 41.8499 224.1 42.709 223.118 43.6909C222.136 44.6727 221.032 45.5318 220.05 46.3909C218.945 47.2499 217.964 47.9863 216.982 48.5999ZM225.818 54.1227C225.082 54.1227 224.468 53.8772 223.977 53.3863C223.486 52.8954 223.241 52.2818 223.241 51.5454C223.241 50.809 223.486 50.0727 223.977 49.5818C224.468 49.0909 225.082 48.8454 225.818 48.8454C227.168 48.8454 228.15 48.5999 228.518 48.2318C228.886 47.8636 229.132 47.0045 229.132 45.7772V33.5045H217.473C216.736 33.5045 216.123 33.259 215.632 32.7681C215.141 32.2772 214.895 31.6636 214.895 30.9272C214.895 30.1909 215.141 29.5772 215.632 29.0863C216.123 28.5954 216.736 28.3499 217.473 28.3499H229.132V23.3181C229.132 22.5818 229.377 21.9681 229.868 21.3545C230.359 20.8636 230.973 20.6181 231.709 20.6181C232.445 20.6181 233.059 20.8636 233.673 21.3545C234.286 21.8454 234.409 22.459 234.409 23.3181V28.1045H245.332C246.068 28.1045 246.682 28.3499 247.173 28.8409C247.664 29.3318 247.909 29.9454 247.909 30.6818C247.909 31.4181 247.664 32.0318 247.173 32.5227C246.682 33.0136 246.068 33.259 245.332 33.259H234.409V45.7772C234.409 48.7227 233.795 50.9318 232.445 52.159C231.218 53.509 229.009 54.1227 225.818 54.1227ZM249.627 47.6181C249.014 48.109 248.4 48.3545 247.664 48.2318C246.927 48.2318 246.314 47.8636 245.7 47.3727C245.086 46.759 244.473 46.1454 243.614 45.409C242.755 44.6727 241.895 43.9363 241.036 43.1999C240.177 42.4636 239.318 41.8499 238.705 41.359C238.091 40.9909 237.723 40.3772 237.6 39.6409C237.477 38.9045 237.6 38.2909 237.968 37.6772C238.336 37.0636 238.95 36.6954 239.686 36.5727C240.423 36.4499 241.036 36.5727 241.65 36.9409C242.386 37.4318 243.245 38.0454 244.35 38.9045C245.332 39.6409 246.314 40.4999 247.295 41.359C248.277 42.2181 249.136 42.9545 249.75 43.6909C250.241 44.1818 250.486 44.9181 250.486 45.6545C250.486 46.5136 250.241 47.1272 249.627 47.6181ZM247.909 26.6318C247.541 26.9999 247.05 27.1227 246.559 27.1227C246.068 27.1227 245.577 26.8772 245.209 26.3863C244.841 26.0181 244.473 25.5272 243.859 24.9136C243.368 24.2999 242.877 23.809 242.386 23.3181C242.141 23.0727 241.895 22.7045 241.895 22.2136C241.895 21.7227 242.018 21.3545 242.386 20.9863C242.755 20.6181 243.123 20.4954 243.614 20.4954C244.105 20.4954 244.473 20.6181 244.841 20.9863C245.332 21.3545 245.823 21.8454 246.436 22.459C247.05 23.0727 247.541 23.5636 247.909 24.0545C248.277 24.4227 248.4 24.9136 248.4 25.4045C248.523 25.7727 248.277 26.1409 247.909 26.6318ZM249.259 22.5818C248.891 22.2136 248.4 21.7227 247.786 21.109C247.173 20.4954 246.682 20.1272 246.191 19.6363C245.945 19.3909 245.7 19.0227 245.7 18.5318C245.7 18.0409 245.823 17.6727 246.191 17.3045C246.436 16.9363 246.927 16.8136 247.295 16.6909C247.786 16.6909 248.155 16.8136 248.523 17.059C249.014 17.3045 249.505 17.7954 250.241 18.2863C250.855 18.7772 251.468 19.3909 251.836 19.759C252.205 20.1272 252.45 20.6181 252.45 21.109C252.45 21.5999 252.205 22.0909 251.836 22.459C251.468 22.8272 250.977 23.0727 250.486 23.0727C249.995 23.0727 249.627 22.9499 249.259 22.5818Z" fill="#010F32"/>
<path d="M263.741 54.4909C263.005 54.6136 262.391 54.4909 261.777 54C261.164 53.5091 260.795 53.0182 260.673 52.2818C260.427 50.8091 260.182 49.0909 260.059 47.0045C259.936 45.0409 259.814 42.9545 259.814 40.7455C259.814 38.5364 259.814 36.3273 259.936 34.1182C260.059 31.9091 260.182 29.7 260.55 27.7364C260.795 25.65 261.041 23.8091 261.409 22.2136C261.532 21.4773 261.9 20.9864 262.514 20.6182C263.127 20.25 263.741 20.1273 264.477 20.25C265.214 20.3727 265.705 20.8636 266.073 21.4773C266.441 22.0909 266.564 22.7045 266.441 23.4409C265.95 25.5273 265.582 27.8591 265.336 30.1909C265.091 32.5227 264.845 35.1 264.845 37.6773C264.723 40.2545 264.845 42.5864 264.968 45.0409C265.091 47.4955 265.336 49.5818 265.705 51.5455C265.827 52.2818 265.705 52.8955 265.336 53.5091C265.091 54 264.477 54.3682 263.741 54.4909ZM281.905 52.0364C278.1 52.0364 275.277 51.3 273.314 49.95C271.35 48.6 270.368 46.5136 269.877 43.8136C269.755 43.0773 269.877 42.4636 270.368 41.85C270.736 41.2364 271.35 40.8682 272.086 40.7455C272.823 40.6227 273.436 40.8682 274.05 41.2364C274.664 41.6045 275.032 42.2182 275.155 42.9545C275.277 44.1818 275.891 45.1636 276.995 45.7773C277.977 46.3909 279.695 46.7591 282.027 46.7591C284.236 46.7591 286.936 46.3909 290.005 45.7773C290.741 45.6545 291.355 45.7773 291.968 46.1455C292.582 46.5136 292.95 47.1273 293.073 47.8636C293.195 48.6 293.073 49.2136 292.705 49.8273C292.336 50.4409 291.723 50.8091 290.986 51.0545C289.391 51.4227 287.795 51.6682 286.2 51.7909C284.605 51.9136 283.255 52.0364 281.905 52.0364ZM273.805 30.1909C273.068 30.3136 272.455 30.1909 271.841 29.8227C271.227 29.4545 270.859 28.8409 270.736 28.1045C270.614 27.3682 270.736 26.7545 271.105 26.1409C271.473 25.5273 272.086 25.1591 272.823 25.0364C274.418 24.6682 276.259 24.5455 278.345 24.4227C280.432 24.3 282.395 24.3 284.359 24.4227C286.323 24.5455 288.164 24.6682 289.636 24.9136C290.373 25.0364 290.986 25.4045 291.355 26.0182C291.723 26.6318 291.845 27.2455 291.723 27.9818C291.6 28.7182 291.232 29.3318 290.618 29.7C290.005 30.0682 289.391 30.1909 288.655 30.0682C286.323 29.7 283.745 29.4545 281.291 29.4545C278.836 29.4545 276.259 29.7 273.805 30.1909Z" fill="#010F32"/>
<path d="M319.827 57.4364C319.214 57.5591 318.6 57.4364 318.109 56.9455C317.618 56.5773 317.373 56.0864 317.25 55.35C317.005 53.6318 316.514 51.5454 316.023 49.2136C315.409 46.8818 314.795 44.55 313.936 42.2182C312.709 42.5864 311.605 42.9545 310.5 43.3227C309.395 43.6909 308.414 44.0591 307.555 44.3045C306.941 44.55 306.327 44.4273 305.714 44.1818C305.1 43.9364 304.732 43.4454 304.486 42.9545C304.241 42.3409 304.364 41.7273 304.609 41.1136C304.855 40.5 305.345 40.1318 305.959 39.8864C307.8 39.2727 309.886 38.5364 312.341 37.8C311.973 36.9409 311.605 36.0818 311.236 35.3454C310.868 34.6091 310.5 33.75 310.132 33.1364C309.886 32.5227 309.764 31.9091 309.886 31.2955C310.009 30.6818 310.377 30.1909 310.991 29.9455C311.605 29.5773 312.218 29.5773 312.832 29.7C313.445 29.9455 313.936 30.3136 314.182 30.9273C314.673 31.7864 315.041 32.6455 315.409 33.6273C315.777 34.6091 316.268 35.5909 316.636 36.5727C317.373 36.3273 318.109 36.0818 318.968 35.8364C319.827 35.5909 320.441 35.3455 321.177 35.2227C320.686 35.1 320.318 34.7318 320.073 34.3636L318.232 31.5409C317.864 31.05 317.864 30.4364 317.864 29.8227C317.864 29.2091 318.355 28.7182 318.845 28.35C319.459 27.9818 319.95 27.8591 320.564 27.9818C321.177 28.1045 321.668 28.4727 322.036 28.9636L324 31.9091C324.245 32.4 324.368 32.7682 324.368 33.2591C324.368 33.75 324.123 34.2409 323.877 34.6091C324.123 34.6091 324.245 34.4864 324.491 34.4864C324.614 34.4864 324.859 34.3636 324.982 34.3636C328.05 33.6273 330.505 33.75 332.345 34.7318C334.186 35.7136 335.291 37.4318 335.659 39.7636C335.905 41.4818 335.659 42.9545 334.923 44.3045C334.186 45.6545 333.205 46.6364 331.855 47.25C330.505 47.9864 329.032 48.2318 327.314 48.2318C325.595 48.2318 323.877 47.6182 322.159 46.6364C321.545 46.2682 321.177 45.9 321.055 45.1636C320.809 44.55 320.932 43.9364 321.177 43.4455C321.545 42.8318 321.914 42.4636 322.65 42.3409C323.264 42.2182 323.877 42.2182 324.368 42.5864C325.718 43.3227 326.823 43.6909 327.927 43.6909C329.032 43.6909 329.768 43.3227 330.382 42.7091C330.995 42.0954 331.241 41.3591 330.995 40.2545C330.873 39.3954 330.382 38.7818 329.645 38.5364C328.786 38.1682 327.559 38.2909 325.964 38.6591C324.859 38.9045 323.632 39.2727 322.282 39.6409C320.932 40.0091 319.582 40.5 318.232 40.8682C318.968 43.3227 319.705 45.6545 320.318 48.1091C320.932 50.5636 321.423 52.7727 321.791 54.7364C321.914 55.35 321.791 55.9636 321.423 56.4545C321.055 57.0682 320.441 57.3136 319.827 57.4364Z" fill="#010F32"/>
<path d="M348.545 54.4909C347.932 54.2454 347.441 53.7545 347.195 53.0181C346.95 52.2818 346.95 51.6681 347.195 50.9318C347.686 49.8272 348.3 48.4772 349.159 46.8818C349.895 45.2863 350.755 43.4454 351.736 41.4818C352.718 39.5181 353.577 37.5545 354.559 35.4681C355.541 33.3818 356.523 31.4181 357.382 29.5772C358.364 27.6136 359.223 25.8954 359.959 24.2999C360.695 22.7045 361.432 21.4772 361.923 20.3727C362.291 19.759 362.782 19.2681 363.518 19.1454C364.255 18.8999 364.868 19.0227 365.482 19.3909C366.095 19.759 366.586 20.3727 366.709 20.9863C366.955 21.7227 366.832 22.3363 366.464 22.9499C366.095 23.6863 365.482 24.6681 364.868 25.8954C364.255 27.1227 363.518 28.5954 362.659 30.1909C361.8 31.7863 361.064 33.5045 360.205 35.2227C361.186 34.7318 362.291 34.609 363.395 34.609C366.218 34.609 368.059 35.4681 369.164 37.309C370.268 39.0272 370.268 41.4818 369.409 44.5499C368.918 46.1454 368.918 47.2499 369.286 47.8636C369.655 48.4772 370.391 48.7227 371.373 48.7227C372.109 48.7227 372.723 48.5999 373.336 48.2318C373.95 47.8636 374.564 47.2499 375.177 46.3909C375.791 45.409 376.527 44.059 377.264 42.2181C377.509 41.4818 378 41.1136 378.736 40.7454C379.473 40.4999 380.086 40.3772 380.823 40.6227C381.559 40.8681 382.05 41.359 382.295 42.0954C382.664 42.8318 382.664 43.4454 382.418 44.1818C381.191 47.4954 379.718 49.9499 378 51.5454C376.282 53.1409 374.073 53.9999 371.25 53.9999C369.409 53.9999 367.814 53.6318 366.586 52.8954C365.359 52.159 364.5 50.9318 364.009 49.459C363.518 47.9863 363.764 46.0227 364.377 43.6909C364.745 42.2181 364.868 41.2363 364.5 40.7454C364.132 40.1318 363.518 39.8863 362.414 39.8863C361.064 39.8863 359.836 40.2545 358.732 41.1136C357.627 41.9727 356.523 43.4454 355.418 45.7772C355.295 46.0227 355.05 46.5136 354.805 47.1272C354.436 47.8636 354.191 48.5999 353.823 49.459C353.455 50.3181 353.086 51.0545 352.841 51.6681C352.595 52.2818 352.35 52.7727 352.227 53.0181C351.982 53.7545 351.491 54.2454 350.755 54.4909C350.018 54.7363 349.282 54.7363 348.545 54.4909Z" fill="#010F32"/>
<path d="M392.605 33.8727C391.991 34.2409 391.377 34.4863 390.641 34.3636C389.905 34.3636 389.291 33.9954 388.923 33.3818C388.555 32.8909 388.555 32.2772 388.555 31.6636C388.677 31.05 389.045 30.5591 389.536 30.3136C391.132 29.4545 392.359 28.4727 393.341 27.3682C394.323 26.2636 395.059 25.0363 395.673 23.4409H391.009C390.395 23.4409 389.905 23.3182 389.536 22.8272C389.168 22.4591 389.045 21.9682 389.045 21.4772C389.045 20.8636 389.168 20.4954 389.536 20.0045C389.905 19.6363 390.395 19.3909 391.009 19.3909H396.532C396.532 19.1454 396.655 18.9 396.655 18.6545C396.655 18.4091 396.655 18.0409 396.777 17.7954C396.777 17.0591 397.145 16.4454 397.636 16.2C398.127 15.8318 398.741 15.7091 399.477 15.8318C400.091 15.8318 400.582 16.2 401.073 16.5682C401.441 17.0591 401.686 17.55 401.564 18.2863C401.564 18.5318 401.564 18.6545 401.441 18.9C401.441 19.0227 401.441 19.2682 401.318 19.3909H404.141C405.859 19.3909 407.209 19.8818 408.068 20.7409C408.927 21.6 409.173 22.95 408.927 24.9136C408.682 26.6318 408.314 27.9818 407.823 28.8409C407.332 29.7 406.595 30.4363 405.614 30.6818C404.632 30.9272 403.527 31.1727 402.055 31.1727C401.441 31.1727 400.95 31.05 400.459 30.6818C400.091 30.3136 399.845 29.8227 399.723 29.2091C399.723 28.5954 399.845 28.1045 400.214 27.7363C400.582 27.3682 401.073 27.1227 401.564 27C402.545 27 403.159 26.7545 403.405 26.6318C403.65 26.5091 403.895 25.8954 404.018 25.0363C404.141 24.4227 404.141 23.9318 403.895 23.6863C403.773 23.4409 403.282 23.3182 402.423 23.3182H400.214C399.477 25.65 398.495 27.6136 397.145 29.3318C395.795 31.05 394.445 32.7682 392.605 33.8727ZM393.955 57.4363C393.218 57.6818 392.482 57.6818 391.868 57.4363C391.255 57.1909 390.886 56.8227 390.641 56.0863C390.518 55.4727 390.518 54.8591 390.764 54.2454C391.009 53.6318 391.5 53.2636 392.114 53.1409C392.85 53.0182 393.709 52.7727 394.691 52.4045C395.673 52.0363 396.655 51.7909 397.636 51.4227C398.618 51.0545 399.6 50.6863 400.336 50.3182C398.495 50.0727 397.145 49.3363 396.409 48.3545C395.673 47.3727 395.182 45.9 395.182 43.9363V38.7818C395.182 36.3272 395.795 34.6091 397.023 33.6272C398.25 32.6454 400.336 32.1545 403.405 32.1545H413.836C416.905 32.1545 418.991 32.6454 420.218 33.6272C421.445 34.6091 422.059 36.3272 422.059 38.7818V43.9363C422.059 45.9 421.691 47.4954 420.832 48.4772C419.973 49.4591 418.623 50.0727 416.782 50.3182C418.009 50.9318 419.482 51.4227 421.077 52.0363C422.673 52.65 424.023 53.0182 425.127 53.2636C425.864 53.3863 426.232 53.7545 426.477 54.3682C426.723 54.9818 426.723 55.5954 426.6 56.2091C426.355 56.9454 425.986 57.3136 425.373 57.5591C424.759 57.8045 424.145 57.6818 423.286 57.5591C422.305 57.3136 421.2 56.9454 420.095 56.4545C418.868 55.9636 417.641 55.4727 416.536 54.9818C415.309 54.4909 414.327 54 413.591 53.5091C412.977 53.1409 412.732 52.7727 412.609 52.1591C412.486 51.6682 412.609 51.0545 412.855 50.5636C412.855 50.5636 412.855 50.5636 412.855 50.4409C412.855 50.4409 412.855 50.4409 412.855 50.3182H404.509L404.632 50.4409C404.877 50.9318 405 51.4227 404.877 52.0363C404.755 52.5272 404.386 53.0182 403.895 53.3863C403.036 53.8772 402.055 54.2454 400.95 54.8591C399.845 55.4727 398.618 55.8409 397.391 56.3318C395.918 56.8227 394.936 57.1909 393.955 57.4363ZM400.582 42.2182H417.027V40.5H400.582V42.2182ZM400.582 37.4318H416.782C416.659 36.8182 416.414 36.3272 416.045 36.0818C415.677 35.8363 414.941 35.7136 413.836 35.7136H403.527C402.545 35.7136 401.809 35.8363 401.318 36.0818C400.95 36.3272 400.705 36.8182 400.582 37.4318ZM403.65 46.8818H413.959C415.064 46.8818 415.8 46.7591 416.168 46.5136C416.536 46.2682 416.782 45.7772 416.905 45.0409H400.705C400.705 45.7772 400.95 46.2682 401.441 46.5136C401.809 46.7591 402.545 46.8818 403.65 46.8818ZM418.009 30.5591C416.414 30.5591 415.064 30.4363 414.082 30.0682C413.1 29.7 412.364 29.0863 411.995 28.2272C411.627 27.3682 411.382 26.1409 411.382 24.5454C411.382 22.95 411.627 21.6 411.995 20.7409C412.364 19.8818 413.1 19.2682 414.082 18.9C415.064 18.5318 416.414 18.4091 418.009 18.4091H420.586C422.182 18.4091 423.532 18.5318 424.514 18.9C425.495 19.2682 426.232 19.8818 426.6 20.7409C426.968 21.6 427.214 22.8272 427.214 24.5454C427.214 26.1409 426.968 27.3682 426.6 28.2272C426.232 29.0863 425.495 29.7 424.514 30.0682C423.532 30.4363 422.182 30.5591 420.586 30.5591H418.009ZM418.255 26.6318H420.341C421.323 26.6318 421.936 26.5091 422.305 26.2636C422.55 26.0182 422.795 25.4045 422.795 24.5454C422.795 23.6863 422.673 23.0727 422.305 22.7045C422.059 22.4591 421.323 22.3363 420.341 22.3363H418.255C417.273 22.3363 416.659 22.4591 416.291 22.7045C416.045 22.95 415.8 23.5636 415.8 24.5454C415.8 25.4045 415.923 26.0182 416.291 26.2636C416.536 26.5091 417.273 26.6318 418.255 26.6318Z" fill="#010F32"/>
<path d="M443.291 57.4363C442.555 57.4363 442.064 57.1909 441.573 56.6999C441.082 56.209 440.836 55.5954 440.836 54.859V43.5681C439.977 44.1818 439.118 44.9181 438.259 45.5318C437.277 46.2681 436.541 46.759 436.05 47.1272C435.436 47.4954 434.7 47.7409 433.964 47.6181C433.227 47.4954 432.614 47.1272 432.245 46.3909C431.877 45.7772 431.755 45.0409 432 44.4272C432.123 43.8136 432.614 43.3227 433.227 42.8318C433.595 42.5863 434.209 42.2181 434.823 41.7272C435.559 41.2363 436.295 40.7454 437.032 40.1318C437.768 39.5181 438.505 39.0272 439.241 38.5363C439.977 38.0454 440.468 37.5545 440.959 37.1863V31.5409C440.836 32.0318 440.345 32.3999 439.732 32.7681C439.118 33.1363 438.382 33.1363 437.645 33.0136C436.909 32.7681 436.418 32.3999 436.05 31.7863C435.927 31.4181 435.559 30.9272 435.191 30.1909C434.823 29.4545 434.455 28.8409 434.086 28.1045C433.718 27.3681 433.473 26.8772 433.227 26.509C432.859 25.8954 432.736 25.2818 432.982 24.6681C433.227 23.9318 433.595 23.4409 434.332 23.0727C435.068 22.7045 435.682 22.5818 436.295 22.8272C436.909 23.0727 437.523 23.4409 437.891 24.0545C438.136 24.4227 438.382 25.0363 438.873 25.6499C439.241 26.3863 439.609 26.9999 439.977 27.7363C440.345 28.4727 440.591 28.9636 440.836 29.3318L440.959 29.6999V19.1454C440.959 18.409 441.205 17.7954 441.695 17.3045C442.186 16.8136 442.8 16.6909 443.414 16.6909C444.15 16.6909 444.641 16.9363 445.132 17.3045C445.623 17.7954 445.868 18.409 445.868 19.1454V54.6136C445.868 55.3499 445.623 55.9636 445.132 56.4545C444.518 57.1909 443.905 57.4363 443.291 57.4363ZM469.064 55.8409C466.732 54.1227 464.768 52.159 463.173 49.9499C461.577 47.7409 460.35 45.5318 459.368 43.0772C458.509 45.5318 457.405 47.7409 455.932 49.9499C454.459 52.0363 452.618 53.9999 450.409 55.7181C449.795 56.209 449.182 56.3318 448.445 56.3318C447.709 56.3318 447.095 55.9636 446.605 55.3499C446.236 54.7363 445.991 54.1227 446.114 53.509C446.236 52.8954 446.605 52.2818 447.218 51.9136C452.864 47.9863 455.932 42.2181 456.545 34.7318H449.182C448.568 34.7318 447.955 34.4863 447.464 33.9954C446.973 33.5045 446.727 32.8909 446.727 32.2772C446.727 31.5409 446.973 31.0499 447.464 30.559C447.955 30.0681 448.445 29.8227 449.182 29.8227H456.791V19.759C456.791 19.0227 457.036 18.2863 457.527 17.9181C458.018 17.4272 458.632 17.1818 459.245 17.1818C459.982 17.1818 460.595 17.4272 461.086 17.9181C461.577 18.409 461.823 19.0227 461.823 19.759V29.8227H470.659C471.395 29.8227 471.886 30.0681 472.377 30.559C472.868 31.0499 473.114 31.6636 473.114 32.2772C473.114 32.8909 472.868 33.5045 472.377 33.9954C471.886 34.4863 471.273 34.7318 470.659 34.7318H461.945C462.314 38.4136 463.541 41.7272 465.382 44.6727C467.223 47.4954 469.677 49.9499 472.5 52.0363C473.114 52.4045 473.482 53.0181 473.482 53.6318C473.482 54.2454 473.359 54.9818 472.868 55.4727C472.377 56.0863 471.764 56.4545 471.027 56.5772C470.414 56.4545 469.8 56.3318 469.064 55.8409ZM471.027 27.2454C470.536 27.6136 469.923 27.859 469.309 27.7363C468.573 27.7363 468.082 27.3681 467.714 26.8772C467.468 26.6318 467.223 26.2636 466.732 25.7727C466.364 25.2818 465.873 24.7909 465.505 24.2999C465.136 23.809 464.768 23.4409 464.523 23.1954C464.155 22.7045 463.909 22.2136 464.032 21.5999C464.032 20.9863 464.4 20.4954 464.768 20.1272C465.259 19.6363 465.873 19.5136 466.486 19.5136C467.1 19.5136 467.591 19.759 468.082 20.2499C468.327 20.4954 468.695 20.8636 469.186 21.3545C469.677 21.8454 470.045 22.3363 470.536 22.8272C470.905 23.3181 471.273 23.6863 471.395 23.9318C471.886 24.5454 472.132 25.159 472.132 25.7727C472.009 26.1409 471.641 26.7545 471.027 27.2454Z" fill="#010F32"/>
<path d="M112.843 15.4564C106.811 13.1364 99.538 14.2616 97.914 19.5744C96.348 24.7132 98.8188 29.0052 105.814 31.5224L106.185 31.65C106.602 31.7776 106.939 33.0188 106.95 34.4108C106.95 35.8028 107.774 36.2088 108.772 35.3272C109.769 34.434 113.319 33.0536 116.66 32.2648C116.66 32.2648 120.557 31.3368 121.497 27.9844C122.854 23.1704 119.792 18.1128 112.843 15.4564Z" fill="#010F32"/>
<path d="M107.182 19.4932L106.846 19.3772L106.672 19.9456L107.008 20.0616L107.182 19.4932ZM106.324 21.0592L106.66 21.1636L106.834 20.5952L106.498 20.4792L106.324 21.0592ZM108.354 18.2288C108.308 18.368 108.168 18.4492 108.041 18.4028L107.832 18.3332L107.786 18.4724C107.739 18.6232 107.588 18.7044 107.449 18.6464C107.31 18.6 107.229 18.4376 107.275 18.2868L107.322 18.1476L106.73 17.9388L106.684 18.078C106.637 18.2288 106.486 18.31 106.347 18.2636C106.208 18.2172 106.127 18.0548 106.173 17.904L106.22 17.7648L106.034 17.6952C105.906 17.6488 105.825 17.498 105.872 17.3588C105.918 17.2196 106.057 17.1384 106.185 17.1848L106.37 17.2544L106.417 17.092C106.463 16.9412 106.614 16.86 106.765 16.9064C106.904 16.9528 106.985 17.1152 106.927 17.266L106.881 17.4284L107.472 17.6372L107.519 17.4748C107.565 17.324 107.728 17.2428 107.867 17.2892C108.006 17.3356 108.087 17.498 108.041 17.6488L107.994 17.8112L108.203 17.8808C108.331 17.9388 108.4 18.0896 108.354 18.2288ZM106.336 19.2032L106.011 19.0872L105.837 19.6672L106.162 19.7832L106.336 19.2032ZM105.489 20.7576C105.582 20.7924 105.698 20.8388 105.802 20.8852L105.988 20.3052L105.663 20.1892L105.489 20.7576ZM104.897 20.8156L105.57 18.6696C105.616 18.5304 105.779 18.4144 105.941 18.4724L107.554 19.0292C107.762 19.0988 107.809 19.296 107.762 19.4236L107.101 21.5464C107.055 21.6856 106.939 21.8016 106.73 21.7552C106.22 21.6392 105.616 21.442 105.048 21.1752C104.909 21.1172 104.851 20.9548 104.897 20.8156ZM105.605 17.7416L105.419 17.8112L104.526 20.6996C104.456 20.9084 104.306 20.9432 104.166 20.8852L103.853 20.7692C103.714 20.7228 103.633 20.5604 103.679 20.4096C103.726 20.2588 103.876 20.1892 104.016 20.2356L104.074 20.2588L104.34 19.4236L104.143 19.528C104.016 19.5976 103.853 19.5396 103.784 19.4004C103.714 19.2612 103.772 19.0872 103.911 19.0176L104.584 18.6696L104.77 18.0664L104.607 18.1244C104.468 18.1708 104.317 18.1012 104.271 17.9504C104.224 17.7996 104.294 17.6372 104.445 17.5908L104.909 17.4168L104.735 17.092C104.654 16.9644 104.688 16.7788 104.816 16.6976C104.944 16.6164 105.118 16.6512 105.187 16.7788L105.419 17.208H105.442C105.582 17.15 105.732 17.2312 105.779 17.382C105.814 17.5328 105.744 17.6952 105.605 17.7416Z" fill="#FCFDFD"/>
<path d="M113.238 21.7204C113.191 21.8712 113.04 21.9524 112.901 21.906L112.275 21.6856L111.741 23.3792C111.695 23.5184 111.521 23.6112 111.37 23.5648L111.022 23.4488C110.883 23.4024 110.802 23.24 110.848 23.0892C110.918 22.8804 111.115 22.8804 111.196 22.9152L111.312 22.95L111.764 21.5232L110.964 21.2448C110.825 21.1984 110.744 21.036 110.79 20.8852C110.836 20.7344 110.987 20.6532 111.126 20.6996L111.927 20.978L112.089 20.4792C112.112 20.4096 112.147 20.3632 112.182 20.3168L112.785 19.818L111.927 19.5164C111.788 19.47 111.706 19.296 111.753 19.1452C111.799 18.9944 111.95 18.9132 112.101 18.9596L113.4 19.412C113.609 19.4816 113.62 19.7252 113.551 19.8412C113.504 19.9108 113.516 19.876 113.435 19.9572C113.319 20.05 113.214 20.1428 112.565 20.6996L112.426 21.152L113.052 21.3608C113.203 21.4072 113.284 21.5696 113.238 21.7204ZM110.175 22.1148C110.152 22.1148 110.117 22.1032 110.082 22.0916L109.444 22.6948C109.34 22.7992 109.166 22.7992 109.062 22.6832C108.957 22.5788 108.957 22.3932 109.073 22.2888L109.468 21.9176C109.247 21.8364 109.038 21.7552 108.876 21.6856C108.737 21.616 108.679 21.4536 108.737 21.3144C108.783 21.1984 108.899 21.1404 109.004 21.152L109.607 19.7484L109.456 19.702C109.317 19.6556 109.236 19.4932 109.282 19.3424C109.328 19.1916 109.479 19.1104 109.618 19.1568L109.827 19.2264L110.059 18.6464C110.117 18.4956 110.268 18.4376 110.419 18.4956C110.558 18.5652 110.616 18.7276 110.558 18.8668L110.338 19.4004L110.918 19.5976C111.057 19.644 111.126 19.8064 111.092 19.9572C111.045 20.108 110.894 20.1892 110.744 20.1312L110.117 19.9108L109.514 21.326L109.804 21.4304L110.152 20.34C110.198 20.1892 110.349 20.108 110.5 20.1544C110.639 20.2008 110.72 20.3748 110.674 20.514L110.338 21.5696C110.442 21.616 110.512 21.7436 110.488 21.8712C110.465 22.0336 110.326 22.138 110.175 22.1148Z" fill="#FCFDFD"/>
<path d="M115.07 21.7668L116.126 22.138L116.138 21.558L115.256 21.2564C115.117 21.21 115.036 21.0476 115.094 20.8968C115.14 20.746 115.291 20.6648 115.43 20.7112L116.149 20.9664V20.6068C116.149 20.456 116.277 20.3284 116.416 20.3284C116.567 20.3284 116.683 20.456 116.683 20.6184V21.152L117.344 21.384C117.483 21.4304 117.564 21.5928 117.518 21.7436C117.472 21.8944 117.321 21.9756 117.182 21.9176L116.671 21.7436L116.66 22.3236L117.054 22.4628C117.193 22.5092 117.274 22.6716 117.228 22.8224C117.182 22.9732 117.031 23.0544 116.88 22.9964L116.648 22.9152C116.648 22.9152 116.636 23.4256 116.613 23.6344C116.602 23.7968 116.439 23.9012 116.265 23.8432L115.801 23.6808C115.662 23.6344 115.581 23.472 115.627 23.3212C115.674 23.1704 115.824 23.0892 115.975 23.1472L116.114 23.1936V22.7296L114.896 22.312C114.757 22.2656 114.676 22.1032 114.722 21.9524C114.769 21.8016 114.92 21.7204 115.07 21.7668ZM115.07 24.748C114.316 24.4232 114.084 23.7968 114.305 23.0892C114.351 22.9152 114.525 22.834 114.664 22.9036C114.827 22.9732 114.873 23.0892 114.827 23.2864C114.746 23.6112 114.722 23.9476 115.279 24.2144C115.418 24.284 115.523 24.3884 115.465 24.574C115.407 24.7364 115.256 24.8292 115.07 24.748Z" fill="#FCFDFD"/>
<path d="M104.422 22.9964L104.456 22.8572C104.503 22.7064 104.654 22.6252 104.793 22.6716C104.932 22.718 105.013 22.8804 104.967 23.0312L104.92 23.1704C104.874 23.3212 104.723 23.4024 104.572 23.356C104.445 23.3096 104.364 23.1472 104.422 22.9964ZM104.166 23.7968L103.61 23.5996L103.563 23.7504L104.12 23.9476L104.166 23.7968ZM103.981 24.4L103.424 24.2028L103.378 24.3652L103.934 24.5624L103.981 24.4ZM103.784 25.0148L103.227 24.8176L103.18 24.9684L103.737 25.1656L103.784 25.0148ZM105.187 26.9984L104.561 26.778L104.897 27.2304L104.944 27.242C105.129 27.3116 105.199 27.474 105.141 27.6364C105.094 27.7988 104.944 27.88 104.758 27.822L104.7 27.7988C104.584 27.7408 104.538 27.6712 104.468 27.5784L103.83 26.604L103.61 27.3C103.563 27.4508 103.412 27.532 103.273 27.4856C103.134 27.4392 103.053 27.2768 103.099 27.126L103.32 26.4184L101.962 26.8244C101.8 26.8708 101.661 26.7896 101.614 26.6388C101.568 26.488 101.661 26.3372 101.8 26.2908L102.658 26.082L102.044 25.8616C101.904 25.8152 101.823 25.6412 101.87 25.502C101.916 25.3512 102.067 25.27 102.218 25.328L103.517 25.7804L103.528 25.7572C103.552 25.6992 103.575 25.6644 103.61 25.6296L102.763 25.3396C102.612 25.27 102.542 25.1192 102.6 24.9684L102.983 23.7388L102.74 23.8896C102.6 23.9592 102.438 23.8896 102.38 23.7388C102.322 23.5996 102.38 23.4256 102.519 23.3676L103.691 22.66C103.784 22.6136 103.992 22.6136 104.074 22.8108C104.12 22.9384 104.085 23.0892 103.958 23.1704L105.732 23.7852C105.86 23.8316 105.93 23.9708 105.895 24.11C105.848 24.2492 105.709 24.3188 105.582 24.284L104.688 23.9708L104.642 24.1216L105.431 24.3884C105.547 24.4348 105.616 24.5624 105.582 24.69C105.547 24.8176 105.408 24.8872 105.292 24.8524L104.503 24.5856L104.456 24.748L105.245 25.0148C105.361 25.0612 105.431 25.1888 105.396 25.3164C105.361 25.444 105.222 25.5136 105.106 25.4672L104.329 25.2004L104.282 25.3512L105.164 25.6528C105.292 25.6992 105.361 25.8384 105.315 25.9776C105.28 26.1168 105.141 26.1864 105.013 26.14L104.085 25.8152C104.097 25.8616 104.097 25.9196 104.085 25.966L104.074 26.0008L105.396 26.4648C105.535 26.5112 105.616 26.6736 105.57 26.8244C105.489 26.9636 105.338 27.0448 105.187 26.9984Z" fill="#FCFDFD"/>
<path d="M107.356 27.4508C107.264 27.4044 107.217 27.3812 107.148 27.358C106.985 27.3116 106.892 27.358 106.846 27.474C106.765 27.7176 106.916 27.9496 107.055 27.996C107.124 28.0192 107.182 27.9844 107.24 27.8336L107.356 27.4508ZM107.855 25.8732L107.971 25.4788L107.194 25.212C107.055 25.1656 106.974 25.0032 107.02 24.8524C107.066 24.7016 107.217 24.632 107.368 24.6668L108.134 24.9336L108.273 24.5044C108.319 24.3536 108.47 24.2724 108.609 24.3188C108.748 24.3652 108.818 24.5276 108.783 24.6784L108.644 25.1076L109.12 25.27C109.259 25.3164 109.34 25.4788 109.294 25.6296C109.247 25.7804 109.096 25.8616 108.957 25.8152L108.482 25.6528L108.354 26.0356L108.818 26.198C108.957 26.2444 109.038 26.4068 108.992 26.5576C108.946 26.7084 108.795 26.7896 108.644 26.7432L108.168 26.5808L107.994 27.1144C108.157 27.2072 108.331 27.3 108.574 27.4624C108.702 27.5436 108.748 27.7176 108.679 27.8568C108.609 27.996 108.435 28.0424 108.308 27.9612C108.157 27.8684 107.96 27.7292 107.82 27.6596L107.704 28.0076C107.554 28.4948 107.206 28.692 106.811 28.5296C106.428 28.3672 106.127 27.7988 106.336 27.2536C106.486 26.836 106.823 26.6968 107.252 26.8244C107.345 26.8476 107.414 26.8824 107.484 26.9056L107.646 26.3952L106.869 26.1284C106.73 26.082 106.649 25.9196 106.695 25.7688C106.742 25.618 106.892 25.5368 107.032 25.5832L107.855 25.8732Z" fill="#FCFDFD"/>
<path d="M113.203 29.8636C113.214 30.0492 113.075 30.1884 112.89 30.1768C112.669 30.1536 112.368 30.0492 112.205 29.9448C112.031 29.8288 112.031 29.6664 112.089 29.504L112.785 27.2652L111.196 27.8452L110.697 29.446C110.651 29.5968 110.5 29.678 110.349 29.6316C110.21 29.5852 110.129 29.4228 110.175 29.272L110.546 28.0888L110.222 28.2048C110.082 28.2512 109.92 28.1816 109.874 28.0308C109.827 27.88 109.897 27.7176 110.048 27.6712L110.755 27.416L110.906 26.9404L110.581 26.8244C110.442 26.7664 110.361 26.604 110.407 26.4532C110.454 26.314 110.616 26.2328 110.755 26.2792L111.08 26.3952L111.3 25.6992C111.347 25.5484 111.498 25.4672 111.637 25.5136C111.776 25.56 111.857 25.7224 111.811 25.8732L111.405 27.184L113.04 26.604C113.122 26.5808 113.18 26.5808 113.261 26.604C113.4 26.6504 113.493 26.8012 113.435 26.952L112.623 29.5504C112.692 29.5736 112.785 29.6084 112.878 29.6084C113.098 29.6316 113.203 29.7012 113.203 29.8636Z" fill="#FCFDFD"/>
<path d="M115.233 29.8172C115.198 29.9448 115.07 30.0028 114.954 29.9564C114.838 29.9216 114.78 29.7824 114.804 29.6664L115.488 27.3812C115.523 27.2304 115.685 27.1492 115.824 27.1956C115.964 27.242 116.033 27.416 115.987 27.5552L115.233 29.8172ZM114.954 30.2464C115.059 30.2812 115.128 30.4204 115.094 30.5364L115.001 30.8148C114.966 30.9308 114.85 30.9888 114.734 30.954L114.63 30.9192C114.514 30.8844 114.456 30.7568 114.49 30.6408L114.572 30.3624C114.606 30.2464 114.734 30.1768 114.838 30.2116L114.954 30.2464Z" fill="#FCFDFD"/>
<path d="M75.3636 26.0124L75.1896 26.1284L74.6444 26.5576L74.4936 26.3024C73.7976 25.0612 73.1944 24.3884 73.1364 24.3188C72.6724 23.82 71.8372 23.7852 71.3384 24.2608C71.0948 24.4928 70.944 24.8176 70.9324 25.1656C70.9208 25.5136 71.0484 25.8384 71.2804 26.0936C71.2804 26.0936 71.8604 26.7316 72.51 27.996L72.6028 28.1816L70.2016 30.0608C69.5984 30.5248 69.4824 31.4296 69.9464 32.0676C70.3988 32.6592 71.2804 32.7868 71.8836 32.3228L73.6468 30.9424L73.7396 31.3252C73.9948 32.3576 74.1572 33.448 74.2384 34.5732L74.25 34.6892L73.0088 35.826L69.7492 39.0856C69.494 39.3524 69.3432 39.7004 69.3432 40.0832C69.3432 40.4544 69.4824 40.814 69.7492 41.0808C70.2712 41.6144 71.1876 41.6144 71.7096 41.0808L74.1224 38.6796L73.9948 39.4452C73.6236 41.8348 72.8696 44.3404 71.7792 46.8692C71.4892 47.5188 71.7908 48.296 72.4288 48.586C73.0552 48.8644 73.8324 48.5512 74.1108 47.9248C77.7764 39.4452 77.0804 33.1696 75.8508 29.4112L75.7928 29.2372L77.0456 28.2512C77.3472 28.0192 77.5328 27.6944 77.5792 27.3232C77.6256 26.952 77.5328 26.5808 77.3008 26.2792C76.8368 25.6644 75.9668 25.5368 75.3636 26.0124Z" fill="#010F32"/>
<path d="M92.4736 24.5508H90.8728V23.298C90.8728 22.5208 90.2464 21.8712 89.4808 21.8712C88.7268 21.8712 88.0888 22.5208 88.0888 23.298V24.5508H83.762V23.298C83.762 22.5208 83.1472 21.8712 82.4048 21.8712C81.6276 21.8712 81.0128 22.4976 81.0128 23.298V24.5508H79.528C78.8204 24.5508 78.252 25.1192 78.252 25.85C78.252 26.5808 78.8088 27.1492 79.528 27.1492H81.0128V28.2744C81.0128 29.0748 81.6276 29.7012 82.4048 29.7012C83.1588 29.7012 83.762 29.0632 83.762 28.2744V27.1492H88.0888V28.2744C88.0888 29.0516 88.7268 29.7012 89.4808 29.7012C90.2464 29.7012 90.8728 29.0632 90.8728 28.2744V27.1492H92.4736C93.1696 27.1492 93.7148 26.5808 93.7148 25.85C93.7264 25.1192 93.1696 24.5508 92.4736 24.5508Z" fill="#010F32"/>
<path d="M89.736 39.016H87.0912V34.956H89.736V39.016ZM89.736 45.7556L89.504 45.7672L88.46 45.8136C88.0656 45.8252 87.6596 45.8484 87.358 45.86L87.0912 45.8716V41.7304H89.736V45.7556ZM84.3304 39.016H81.732V34.9212H84.3188V39.016H84.3304ZM84.3304 45.86H84.0752C83.3792 45.86 82.66 45.8368 81.9872 45.802L81.7436 45.7904V41.742H84.3304V45.86ZM90.8612 32.114H80.5256C79.5976 32.114 78.948 32.926 78.948 33.6568V46.9736C78.948 47.8088 79.4816 48.412 80.2704 48.4932C83.6228 48.8528 87.3464 48.8528 91.012 48.4932C92.2648 48.2844 92.52 47.4724 92.52 46.8228V33.6568C92.5316 33.0536 92.0792 32.114 90.8612 32.114Z" fill="#010F32"/>
<path d="M104.062 47.0664H95.9304C95.3156 47.0664 94.8168 47.5768 94.8168 48.18C94.8168 48.8064 95.304 49.3168 95.9304 49.3168H104.062C104.665 49.3168 105.176 48.8064 105.176 48.18C105.176 47.5652 104.665 47.0664 104.062 47.0664Z" fill="#010F32"/>
<path d="M96.928 43.5052H103.285C103.9 43.5052 104.398 43.0064 104.398 42.3684C104.398 41.7652 103.911 41.2316 103.285 41.2316H101.243V40.292C101.243 39.6888 100.744 39.1668 100.153 39.1668C99.538 39.1668 99.0392 39.6888 99.0392 40.292V41.2316H96.928C96.3132 41.2316 95.8144 41.7536 95.8144 42.3684C95.8144 43.0064 96.3016 43.5052 96.928 43.5052Z" fill="#010F32"/>
<path d="M96.7424 44.816V45.6164C96.7424 46.2428 97.2412 46.7532 97.856 46.7532C98.4476 46.7532 98.9464 46.2428 98.9464 45.6164V44.816C98.9464 44.2128 98.4476 43.6792 97.856 43.6792C97.2296 43.6908 96.7424 44.2128 96.7424 44.816Z" fill="#010F32"/>
<path d="M101.638 55.6504C100.768 55.6968 99.5844 55.72 98.7724 55.6736V52.5532H101.638V55.6504ZM102.751 50.3376H97.6704C97.0672 50.3376 96.58 50.8364 96.58 51.4744V56.648C96.58 57.2396 96.9512 57.7384 97.6704 57.8428C98.9 58.0284 101.498 57.982 102.798 57.8428C103.436 57.7616 103.853 57.1468 103.853 56.648V51.4744C103.842 50.8364 103.343 50.3376 102.751 50.3376Z" fill="#010F32"/>
<path d="M102.299 43.6908C101.684 43.6908 101.185 44.2128 101.185 44.8276V45.628C101.185 46.2544 101.684 46.7648 102.299 46.7648C102.914 46.7648 103.412 46.2544 103.412 45.628V44.816C103.412 44.2128 102.914 43.6908 102.299 43.6908Z" fill="#010F32"/>
<path d="M115.476 54.0264C114.92 53.922 114.386 54.2932 114.282 54.85C114.27 54.908 113.934 56.068 111.382 56.068C110.222 56.068 109.375 55.7432 108.806 55.0704C108.319 54.502 108.052 53.9104 107.948 53.0752C107.82 52.0196 107.948 42.2988 107.948 42.2988H109.955C109.955 42.2988 108.922 44.7928 108.922 44.816C108.528 45.6976 108.516 46.4168 109.027 47.3564L110.43 50.2912C110.43 50.2912 109.711 50.6044 109.688 50.6044C109.108 50.8364 108.725 51.4048 108.992 52.0776C109.201 52.646 109.943 52.878 110.477 52.6692L112.182 51.9152C112.855 51.544 113.087 50.9524 112.762 50.036C112.739 50.0128 110.79 45.802 110.79 45.802C111.103 45.106 111.695 43.8068 112.437 41.9044C112.75 41.1272 112.46 40.0136 111.324 40.0136H106.916C106.301 40.0136 105.802 40.5356 105.802 41.162L105.814 51.3352C105.802 51.7992 105.802 52.0428 105.814 52.3328C105.872 53.5276 106.173 55.198 107.252 56.4624C107.461 56.7176 107.704 56.9264 107.96 57.1236C108.864 57.8312 110.013 58.1908 111.393 58.1908C115.755 58.1908 116.3 55.3952 116.312 55.2792C116.404 54.6992 116.045 54.1308 115.476 54.0264Z" fill="#010F32"/>
<path d="M75.062 56.1492C74.6676 56.0564 74.3196 56.1028 74.3196 56.3348C74.3196 56.6016 74.5632 56.8684 74.7836 56.8684C74.9344 56.8684 75.0504 56.6828 75.062 56.1492ZM76.744 56.1724C76.6628 56.416 76.4424 56.5088 76.222 56.4276C76.106 56.3812 75.9552 56.3464 75.8276 56.3116C75.7116 57.344 75.4796 57.7268 74.8532 57.692C74.1688 57.6688 73.5656 56.9612 73.5424 56.3348C73.5308 55.8012 73.8556 55.3604 74.5864 55.3024C74.772 55.2908 74.9228 55.2908 75.1432 55.314C75.178 55.0008 75.1664 54.6296 75.1548 54.3628C75.1084 53.458 74.7836 53.4116 74.5864 53.4116C73.9716 53.4232 73.1596 54.2468 72.4288 54.8848V57.5296C72.4288 57.7616 72.2432 57.9472 72.0228 57.9472C71.8024 57.9472 71.6168 57.7616 71.6168 57.5296V55.5924C71.5008 55.72 71.3848 55.8244 71.292 55.9172C71.118 56.068 70.8512 56.0332 70.712 55.8708C70.5612 55.6968 70.5844 55.43 70.7584 55.2792C70.9672 55.082 71.2804 54.792 71.6168 54.502V54.0032H71.1528C70.9208 54.0032 70.7468 53.8176 70.7468 53.5856C70.7468 53.3536 70.9208 53.168 71.1528 53.168H71.6168V52.1588C71.6168 51.9268 71.8024 51.7412 72.0228 51.7412C72.2432 51.7412 72.4288 51.9268 72.4288 52.1588V53.7944C73.5888 52.8084 74.0412 52.5996 74.6444 52.6112C75.5956 52.646 76.0132 53.3188 75.9784 54.792C75.9784 55.024 75.9784 55.2212 75.9552 55.4764C76.1292 55.5228 76.3032 55.5576 76.4888 55.6388C76.6976 55.72 76.8136 55.952 76.744 56.1724Z" fill="#010F32"/>
<path d="M83.5532 53.0636C83.5532 53.1564 83.5068 53.2028 83.4372 53.3072L82.6948 54.3744C82.5672 54.56 82.3004 54.618 82.1148 54.4904C81.9292 54.3628 81.8944 54.096 82.022 53.8988L82.37 53.4348H80.224C79.992 53.4348 79.818 53.2492 79.818 53.0172C79.818 52.7852 79.992 52.5996 80.224 52.5996H83.1356C83.4488 52.5996 83.5648 52.8548 83.5532 53.0636ZM81.8016 57.8312C81.3028 57.8196 79.9572 57.7848 79.7716 56.6016C79.7368 56.3696 79.7484 56.1376 79.818 55.836C79.876 55.604 80.108 55.4416 80.3864 55.546C80.6068 55.6272 80.6416 55.8592 80.6068 56.0796C80.572 56.2304 80.5488 56.358 80.5604 56.474C80.6068 56.7176 80.7344 56.9612 81.8132 56.9844C82.138 56.996 82.4976 56.9612 83.066 56.8684C83.2864 56.8336 83.4952 56.938 83.5416 57.1584C83.588 57.3788 83.4372 57.6456 83.2168 57.6804C82.544 57.808 82.138 57.8312 81.8016 57.8312Z" fill="#010F32"/>
<path d="M92.2068 54.8152C92.0444 54.8152 91.9168 54.6876 91.9168 54.5136V54.0612C91.9168 53.8872 92.0444 53.748 92.2068 53.748C92.3808 53.748 92.5084 53.8872 92.5084 54.0612V54.5136C92.5084 54.676 92.3808 54.8152 92.2068 54.8152ZM91.9168 55.9636L92.5432 56.6828C92.694 56.8568 92.6824 57.1236 92.4968 57.2744C92.3344 57.4252 92.0676 57.402 91.9168 57.2396L91.302 56.5204C91.1512 56.3464 91.1628 56.0796 91.3368 55.9288C91.5108 55.778 91.766 55.7896 91.9168 55.9636ZM91.0352 54.502V54.0496C91.0352 53.8756 91.1744 53.7364 91.3252 53.7364C91.4992 53.7364 91.6152 53.8756 91.6152 54.0496V54.502C91.6152 54.676 91.4876 54.8036 91.3252 54.8036C91.1744 54.8152 91.0352 54.676 91.0352 54.502ZM89.8868 56.6364C89.7824 56.2536 89.2372 55.2212 89.2372 55.2212C89.1212 55.024 89.2024 54.7688 89.3996 54.6528C89.5968 54.5484 89.852 54.618 89.9564 54.8268C89.9564 54.8268 90.5364 55.9288 90.6756 56.4044C90.8612 57.0656 90.7336 58.1096 89.8636 58.1792C89.5736 58.2024 89.1444 58.1444 88.8892 58.0748C88.6456 58.0168 88.4948 57.75 88.6108 57.4832C88.6804 57.2976 88.8892 57.2396 89.1792 57.286C89.3648 57.3208 89.5968 57.3904 89.7244 57.3672C89.91 57.3208 90.0144 57.0772 89.8868 56.6364ZM90.8844 53.0288L90.0028 53.98C89.8404 54.154 89.562 54.154 89.3996 54.0032C89.2488 53.8408 89.214 53.6088 89.3996 53.4L89.8056 52.994L88.8544 52.8432C88.634 52.8084 88.4484 52.588 88.4832 52.356C88.5296 52.0892 88.7732 51.9732 88.9936 52.0196L90.6408 52.2864C90.838 52.3212 90.9888 52.4604 91.0004 52.646C91.012 52.7736 90.9656 52.9244 90.8844 53.0288ZM86.9636 57.4136C86.7896 57.2628 86.778 56.996 86.9172 56.8104L87.532 56.1028C87.6944 55.9172 87.9496 55.894 88.112 56.0448C88.286 56.1956 88.3092 56.4392 88.1468 56.6364L87.5436 57.3556C87.3928 57.5412 87.1376 57.5528 86.9636 57.4136Z" fill="#010F32"/>
<path d="M119.49 55.6388H118.771V57.9704H118.365V55.6388H117.646V55.2908H119.49V55.6388Z" fill="#010F32"/>
<path d="M122.355 57.9588H121.961L121.903 56.8336C121.891 56.474 121.868 56.0564 121.868 55.7316H121.856C121.775 56.0448 121.671 56.3928 121.555 56.7292L121.16 57.9472H120.859L120.488 56.764C120.383 56.416 120.29 56.068 120.221 55.7432H120.209C120.198 56.0796 120.186 56.4972 120.163 56.8684L120.105 57.9704H119.722L119.908 55.2908H120.406L120.789 56.4624C120.882 56.7872 120.963 57.0888 121.033 57.3788H121.044C121.114 57.0888 121.195 56.7872 121.3 56.4508L121.682 55.2792H122.193L122.355 57.9588Z" fill="#010F32"/>
</svg>
