<svg width="681" height="178" viewBox="0 0 681 178" fill="none" xmlns="http://www.w3.org/2000/svg">
<g clip-path="url(#clip0_426_261)">
<path d="M606.66 8.20008L643.9 105.32H528.02L585.08 6.50008C590.12 -2.23992 603.06 -1.21992 606.68 8.20008H606.66ZM74.3201 8.20008L37.0801 105.32H152.96L95.9401 6.50008C90.9001 -2.23992 77.9601 -1.21992 74.3401 8.20008H74.3201Z" fill="#98CEE3"/>
<path d="M661.52 33.1406H19.48C8.99763 33.1406 0.5 41.6383 0.5 52.1206V158.541C0.5 169.023 8.99763 177.521 19.48 177.521H661.52C672.002 177.521 680.5 169.023 680.5 158.541V52.1206C680.5 41.6383 672.002 33.1406 661.52 33.1406Z" fill="#98CEE3"/>
<path d="M86.52 96.4597C85.88 96.4597 85.34 96.2597 84.88 95.8397C84.42 95.4197 84.2 94.8597 84.2 94.1397V88.2597C83.16 89.1597 82 90.0597 80.72 90.9597C79.44 91.8597 78.12 92.6797 76.78 93.4597C75.44 94.2397 74.12 94.8997 72.84 95.4597C72.1 95.7597 71.44 95.7997 70.86 95.6197C70.28 95.4397 69.86 95.0397 69.6 94.4597C69.34 93.8397 69.3 93.2597 69.52 92.6997C69.74 92.1397 70.18 91.7197 70.84 91.4597C72.5 90.7997 74.16 89.9997 75.82 89.0597C77.48 88.1197 79.02 87.1597 80.4 86.1797H76.48C74.46 86.1797 73.04 85.7597 72.24 84.9197C71.44 84.0797 71.2 82.7597 71.52 80.9797C71.76 79.7597 72.1 78.7997 72.54 78.1197C72.98 77.4397 73.64 76.9597 74.52 76.6797C75.4 76.3997 76.6 76.2597 78.12 76.2597H84.2V74.1397H72.92C72.38 74.1397 71.92 73.9397 71.54 73.5397C71.16 73.1397 70.96 72.6797 70.96 72.1397C70.96 71.5997 71.16 71.1397 71.54 70.7397C71.92 70.3397 72.38 70.1397 72.92 70.1397H78.48C77.84 69.9197 77.42 69.5197 77.24 68.9397C77.14 68.5597 76.98 68.0997 76.78 67.5597C76.58 67.0197 76.4 66.5597 76.24 66.1797H74.24C73.9 66.6797 73.54 67.1797 73.2 67.6597C72.86 68.1397 72.54 68.5797 72.24 68.9797C71.82 69.4797 71.32 69.8397 70.74 70.0397C70.16 70.2397 69.56 70.1397 68.92 69.7397C68.44 69.4397 68.14 69.0197 68 68.4397C67.86 67.8597 68 67.3597 68.36 66.8997C68.86 66.2797 69.4 65.5597 69.98 64.7397C70.56 63.9197 71.1 63.0597 71.64 62.1997C72.18 61.3397 72.6 60.5397 72.92 59.8197C73.22 59.1597 73.64 58.7397 74.18 58.5997C74.72 58.4597 75.3 58.4997 75.88 58.7397C76.44 58.9597 76.84 59.3197 77.06 59.8397C77.28 60.3597 77.26 60.9197 76.96 61.5397C76.9 61.6797 76.84 61.8197 76.76 61.9797L76.52 62.4597H84.24C84.8 62.4597 85.24 62.6397 85.58 62.9997C85.92 63.3597 86.08 63.7997 86.08 64.2997C86.08 64.4597 86.06 64.6397 86 64.8597C86.56 63.9997 87.1 63.1197 87.6 62.2197C88.1 61.3197 88.52 60.5197 88.84 59.8197C89.14 59.1997 89.56 58.7797 90.14 58.5597C90.72 58.3397 91.3 58.3597 91.92 58.6597C92.54 58.9197 92.94 59.3197 93.16 59.8597C93.38 60.3997 93.34 60.9797 93.04 61.6197C92.98 61.7597 92.92 61.8997 92.84 62.0397C92.76 62.1797 92.7 62.3197 92.64 62.4597H102.44C103 62.4597 103.44 62.6397 103.76 62.9997C104.08 63.3597 104.24 63.7997 104.24 64.2997C104.24 64.7997 104.08 65.2397 103.76 65.6197C103.44 65.9997 103 66.1797 102.44 66.1797H97.24C97.32 66.3997 97.4 66.6197 97.5 66.8397C97.6 67.0597 97.66 67.2597 97.72 67.4197C97.94 67.9197 97.92 68.4597 97.72 68.9997C97.5 69.5397 97.08 69.9197 96.46 70.1397L96.34 70.1797C98 70.2597 99.14 70.6797 99.8 71.4397C100.46 72.1997 100.78 73.3997 100.78 75.0597C100.78 76.8797 100.4 78.1597 99.64 78.8997C98.88 79.6397 97.5 80.0197 95.5 80.0197H88.86V82.1797H97.46C99.44 82.1797 100.88 82.6397 101.78 83.5797C102.68 84.5197 103.02 85.9597 102.78 87.9397C102.56 89.7597 102.14 91.1397 101.48 92.1197C100.82 93.0997 99.98 93.7597 98.96 94.0997C97.94 94.4397 96.72 94.6197 95.3 94.6197C94.52 94.6197 93.9 94.4397 93.4 94.0597C92.9 93.6797 92.64 93.1197 92.58 92.3797C92.56 91.6797 92.74 91.0997 93.12 90.6197C93.5 90.1397 94.08 89.8597 94.82 89.7797C95.56 89.6997 96.14 89.6197 96.52 89.5197C96.9 89.4197 97.2 89.2597 97.38 89.0397C97.56 88.8197 97.7 88.4397 97.78 87.9397C97.92 87.2197 97.88 86.7397 97.66 86.5197C97.44 86.2997 96.98 86.1797 96.26 86.1797H88.86V94.1397C88.86 94.8597 88.64 95.4197 88.18 95.8397C87.72 96.2597 87.18 96.4597 86.54 96.4597H86.52ZM77.6 82.1797H84.2V80.0197H77.88C77.26 80.0197 76.84 80.0997 76.6 80.2597C76.36 80.4197 76.22 80.6797 76.16 81.0597C76.1 81.4797 76.16 81.7797 76.38 81.9397C76.58 82.0997 76.98 82.1797 77.6 82.1797ZM81.4 67.4197C81.62 67.9597 81.6 68.4797 81.4 69.0197C81.2 69.5597 80.76 69.9197 80.14 70.1397H85.94C85.7 70.1197 85.42 69.9997 85.1 69.8197C84.56 69.4997 84.26 69.0397 84.16 68.4197C84.06 67.7997 84.2 67.2797 84.58 66.8197C84.72 66.6797 84.84 66.5397 84.96 66.3797C85.08 66.2197 85.2 66.0397 85.34 65.8597C85 66.0797 84.64 66.1797 84.26 66.1797H80.94C81.02 66.3997 81.1 66.6197 81.2 66.8397C81.3 67.0597 81.36 67.2597 81.42 67.4197H81.4ZM86.76 70.1397H94.8C94.16 69.9197 93.74 69.5197 93.56 68.9397C93.46 68.5997 93.3 68.1397 93.1 67.5797C92.9 67.0197 92.74 66.5597 92.6 66.1797H90.52C90.18 66.6797 89.84 67.1797 89.5 67.6597C89.16 68.1397 88.84 68.5997 88.52 69.0197C88.02 69.6597 87.42 70.0397 86.76 70.1397ZM88.84 76.2597H94.64C95.26 76.2597 95.66 76.1797 95.84 76.0397C96.02 75.8997 96.12 75.5997 96.12 75.1797C96.12 74.7597 96.02 74.4797 95.84 74.3397C95.66 74.1997 95.26 74.1397 94.64 74.1397H88.84V76.2597Z" fill="#010F32"/>
<path d="M153.48 95.7803C152.74 95.7803 152.12 95.6003 151.64 95.2203C151.16 94.8403 150.9 94.3003 150.84 93.5803C150.78 92.9203 150.96 92.3403 151.34 91.8803C151.72 91.4203 152.26 91.1603 152.92 91.1003C153.88 91.0203 154.62 90.9203 155.12 90.7803C155.62 90.6403 156 90.4003 156.26 90.0203C156.52 89.6403 156.7 89.1003 156.84 88.3803C156.98 87.6003 157.1 86.7603 157.22 85.8203C157.34 84.8803 157.44 83.9403 157.52 82.9803C157.58 82.2003 157.46 81.6803 157.18 81.4003C156.9 81.1203 156.36 80.9803 155.56 80.9803H154.28C152.86 80.9803 151.86 80.6803 151.26 80.0603C150.66 79.4403 150.44 78.4403 150.6 77.0203C150.7 76.1403 150.78 75.3403 150.84 74.6403C150.9 73.9403 150.94 73.1603 151 72.3003C151.1 71.0003 151.48 70.0803 152.1 69.5603C152.72 69.0403 153.68 68.7803 154.96 68.7803H155.84C156.54 68.7803 157 68.6803 157.26 68.4803C157.52 68.2803 157.64 67.9203 157.64 67.3803V66.2603C157.64 65.6403 157.52 65.2403 157.26 65.0203C157 64.8003 156.54 64.7003 155.84 64.7003H151.68C151.06 64.7003 150.58 64.5003 150.2 64.1003C149.82 63.7003 149.64 63.2203 149.64 62.6603C149.64 62.1003 149.82 61.6203 150.2 61.2403C150.58 60.8603 151.06 60.6603 151.68 60.6603H157.8C159.38 60.6603 160.5 60.9803 161.18 61.6003C161.86 62.2203 162.2 63.2803 162.2 64.7803V68.5403C162.2 70.0403 161.88 71.0803 161.22 71.6603C160.56 72.2403 159.62 72.5403 158.36 72.5403H157C156.36 72.5403 155.9 72.6203 155.64 72.8003C155.38 72.9803 155.22 73.3403 155.16 73.9003C155.14 74.1603 155.12 74.3803 155.12 74.5403C155.12 74.7003 155.12 74.8803 155.08 75.1003C155.02 75.7403 155.12 76.1603 155.36 76.3403C155.6 76.5203 156.04 76.6203 156.68 76.6203H158.08C159.58 76.6203 160.66 76.9603 161.32 77.6203C161.98 78.2803 162.3 79.3203 162.24 80.7003C162.18 82.2403 162.1 83.7803 161.96 85.3003C161.82 86.8203 161.66 88.1603 161.48 89.3003C161.24 90.9803 160.78 92.2803 160.1 93.2203C159.42 94.1603 158.54 94.8203 157.44 95.2003C156.34 95.5803 155.02 95.7803 153.48 95.7803ZM174.44 96.1803C173.82 96.1803 173.3 95.9803 172.88 95.5803C172.46 95.1803 172.24 94.6403 172.24 93.9803V88.7803H164.48C163.9 88.7803 163.42 88.5803 163.04 88.1803C162.66 87.7803 162.48 87.3203 162.48 86.7803C162.48 86.2203 162.66 85.7403 163.04 85.3603C163.42 84.9803 163.9 84.7803 164.48 84.7803H172.24V82.6203H170.84C168.52 82.6203 166.86 82.1803 165.84 81.2803C164.82 80.3803 164.32 78.8403 164.32 76.6603V73.4203C164.32 71.2403 164.82 69.7003 165.84 68.8003C166.86 67.9003 168.52 67.4603 170.84 67.4603H176.88C176.88 67.4603 176.92 67.4003 176.92 67.3603C176.92 67.3203 176.92 67.2803 176.96 67.2603C177.26 66.7203 177.62 66.0403 178.04 65.2003C178.46 64.3603 178.88 63.5203 179.3 62.6603C179.72 61.8003 180.02 61.1203 180.24 60.5803C180.48 59.9603 180.88 59.5403 181.42 59.3003C181.96 59.0603 182.54 59.0603 183.12 59.3003C183.68 59.5203 184.08 59.8803 184.34 60.4203C184.6 60.9603 184.58 61.5203 184.34 62.1403C184.12 62.6003 183.84 63.1603 183.48 63.8603C183.12 64.5603 182.74 65.2603 182.36 65.9603C181.98 66.6603 181.6 67.3003 181.26 67.8603C182.46 68.2003 183.34 68.8203 183.88 69.7003C184.42 70.5803 184.7 71.8203 184.7 73.4203V76.6603C184.7 78.8403 184.18 80.3803 183.16 81.2803C182.14 82.1803 180.46 82.6203 178.14 82.6203H176.7V84.7803H184.74C185.36 84.7803 185.84 84.9803 186.2 85.3603C186.56 85.7403 186.74 86.2203 186.74 86.7803C186.74 87.3403 186.56 87.7803 186.2 88.1803C185.84 88.5803 185.36 88.7803 184.74 88.7803H176.7V93.9803C176.7 94.6403 176.48 95.1803 176.06 95.5803C175.64 95.9803 175.1 96.1803 174.46 96.1803H174.44ZM168.92 67.0603C168.42 67.3203 167.88 67.4003 167.34 67.2603C166.8 67.1203 166.38 66.8003 166.12 66.3003C165.98 66.0403 165.8 65.6803 165.54 65.2403C165.28 64.8003 165.04 64.3603 164.78 63.9203C164.52 63.4803 164.32 63.1403 164.16 62.9003C163.86 62.4003 163.8 61.8603 163.96 61.3003C164.12 60.7403 164.46 60.3203 164.96 60.0603C165.5 59.7603 166.06 59.7003 166.64 59.8803C167.22 60.0603 167.68 60.4003 168 60.9403C168.16 61.1803 168.36 61.5203 168.6 61.9403C168.84 62.3603 169.08 62.7803 169.32 63.2003C169.56 63.6203 169.74 63.9603 169.88 64.2203C170.18 64.7603 170.22 65.2803 170.02 65.8203C169.82 66.3603 169.46 66.7603 168.92 67.0603ZM168.6 73.3803H172.24V70.9003H171.28C170.24 70.9003 169.54 71.0603 169.16 71.3803C168.78 71.7003 168.6 72.3203 168.6 73.2203V73.3803ZM171.28 79.1803H172.24V76.7003H168.6V76.8603C168.6 77.7603 168.78 78.3803 169.16 78.7003C169.54 79.0203 170.24 79.1803 171.28 79.1803ZM175 66.5403C174.44 66.7203 173.92 66.7203 173.42 66.5003C172.92 66.2803 172.58 65.8803 172.36 65.3003C172.28 65.0003 172.14 64.6203 171.96 64.1603C171.78 63.7003 171.58 63.2203 171.4 62.7403C171.22 62.2603 171.06 61.8803 170.96 61.6203C170.72 61.0003 170.74 60.4603 171.02 59.9603C171.3 59.4603 171.7 59.1203 172.24 58.9403C172.86 58.7203 173.42 58.7403 173.92 58.9803C174.42 59.2203 174.8 59.6403 175.04 60.2603C175.14 60.5203 175.3 60.9003 175.48 61.3603C175.66 61.8203 175.84 62.3003 176.02 62.7803C176.2 63.2603 176.32 63.6403 176.4 63.9003C176.62 64.5403 176.58 65.1003 176.32 65.5603C176.06 66.0203 175.62 66.3603 175 66.5403ZM176.68 73.3803H180.4V73.2203C180.4 72.3203 180.22 71.7003 179.84 71.3803C179.46 71.0603 178.76 70.9003 177.72 70.9003H176.68V73.3803ZM176.68 79.1803H177.72C178.76 79.1803 179.46 79.0203 179.84 78.7003C180.22 78.3803 180.4 77.7603 180.4 76.8603V76.7003H176.68V79.1803Z" fill="#010F32"/>
<path d="M139.54 90.2009C141.2 90.2009 142.04 91.5009 142.04 93.2009C142.04 94.9009 141.2 96.4009 139.54 96.4009H116.04C113.74 96.4009 112.54 95.0009 112.54 92.5009C112.54 90.6409 113.74 88.1009 114.74 86.4409C116.38 83.6009 119.08 80.5009 123.88 77.3009L126.92 75.2609C131.72 72.0609 134.26 70.3209 134.26 66.6209C134.26 63.2209 131.56 61.2809 127.52 61.2809C122.58 61.2809 120.88 64.0209 119.98 67.1809C119.58 68.6209 118.38 69.2809 117.04 69.2809C116.64 69.2809 116.24 69.2409 115.84 69.1409C114.24 68.7809 113.08 67.8409 113.08 66.3009C113.08 66.0009 113.14 65.6409 113.24 65.2609C113.74 63.2009 114.9 61.1009 116.38 59.6209C118.88 56.9609 122.28 55.4609 127.72 55.4609C136.16 55.4609 141.22 59.6209 141.22 66.6609C141.22 72.9009 137.66 75.7609 132.58 78.9009L129.64 80.7009C124.54 83.8409 121.6 86.6409 120.3 90.2409H139.54V90.2009Z" fill="#010F32"/>
<path d="M273.6 91.5801C272.02 91.5801 271.24 90.8001 271.24 89.2201V67.8601H265.16C263.58 67.8601 262.8 67.1601 262.8 65.7401C262.8 64.3201 263.58 63.5801 265.16 63.5801H281.92C283.52 63.5801 284.32 64.3001 284.32 65.7401C284.32 67.1801 283.52 67.8601 281.92 67.8601H275.92V89.2201C275.92 90.8001 275.14 91.5801 273.6 91.5801Z" fill="#010F32"/>
<path d="M293.72 91.5798C292.44 91.5798 291.6 90.9198 291.2 89.5798L286.92 74.9799C286.7 74.1799 286.72 73.5398 286.96 73.0598C287.2 72.5798 287.66 72.3398 288.32 72.3398H288.36C289.78 72.3398 290.66 73.0198 291 74.3798L293.88 85.1798L296.76 74.3798C297.1 73.0198 297.9 72.3398 299.16 72.3398C300.42 72.3398 301.18 73.0198 301.52 74.3798L304.4 85.1798L307.32 74.3798C307.66 73.0198 308.54 72.3398 309.96 72.3398C310.62 72.3398 311.08 72.5798 311.34 73.0598C311.6 73.5398 311.6 74.1799 311.36 74.9799L307.08 89.5798C306.68 90.9198 305.84 91.5798 304.56 91.5798C303.28 91.5798 302.42 90.8998 302.08 89.5398L299.16 78.6199L296.2 89.5398C295.86 90.8998 295.02 91.5798 293.72 91.5798Z" fill="#010F32"/>
<path d="M318.16 69.18C317.38 69.18 316.72 68.9 316.16 68.34C315.6 67.78 315.32 67.12 315.32 66.34C315.32 65.56 315.6 64.9 316.16 64.34C316.72 63.78 317.38 63.5 318.16 63.5C318.94 63.5 319.6 63.78 320.16 64.34C320.72 64.9 321 65.56 321 66.34C321 67.12 320.72 67.78 320.16 68.34C319.6 68.9 318.94 69.18 318.16 69.18ZM318.2 91.58C316.7 91.58 315.96 90.8 315.96 89.22V74.7C315.96 73.12 316.7 72.34 318.2 72.34C319.7 72.34 320.44 73.12 320.44 74.7V89.22C320.44 90.8 319.7 91.58 318.2 91.58Z" fill="#010F32"/>
<path d="M333.76 92.0396C331.86 92.0396 330.42 91.6996 329.42 90.9996C328.42 90.2996 327.92 88.9196 327.92 86.8396V76.2396H326.6C325.02 76.2396 324.24 75.5796 324.24 74.2796C324.24 73.6596 324.4 73.1996 324.74 72.8596C325.08 72.5196 325.68 72.3596 326.56 72.3596H327.92V67.9596C327.92 66.3796 328.68 65.5996 330.2 65.5996C331.72 65.5996 332.4 66.3796 332.4 67.9596V72.3596H335.36C336.94 72.3596 337.72 72.9996 337.72 74.2796C337.72 75.5596 336.94 76.2396 335.4 76.2396H332.4V85.6796C332.4 86.5796 332.62 87.1996 333.06 87.5196C333.5 87.8396 334.14 87.9996 334.96 87.9996C335.78 87.9996 336.48 88.0996 336.98 88.2996C337.48 88.4996 337.72 89.0196 337.72 89.8396C337.72 90.4996 337.52 90.9996 337.14 91.2996C336.76 91.5996 336.26 91.7996 335.66 91.8996C335.06 91.9996 334.42 92.0396 333.76 92.0396Z" fill="#010F32"/>
<path d="M349.16 92.0396C347.26 92.0396 345.82 91.6996 344.82 90.9996C343.82 90.2996 343.32 88.9196 343.32 86.8396V76.2396H342C340.42 76.2396 339.64 75.5796 339.64 74.2796C339.64 73.6596 339.8 73.1996 340.14 72.8596C340.48 72.5196 341.08 72.3596 341.96 72.3596H343.32V67.9596C343.32 66.3796 344.08 65.5996 345.6 65.5996C347.12 65.5996 347.8 66.3796 347.8 67.9596V72.3596H350.76C352.34 72.3596 353.12 72.9996 353.12 74.2796C353.12 75.5596 352.34 76.2396 350.8 76.2396H347.8V85.6796C347.8 86.5796 348.02 87.1996 348.46 87.5196C348.9 87.8396 349.54 87.9996 350.36 87.9996C351.18 87.9996 351.88 88.0996 352.38 88.2996C352.88 88.4996 353.12 89.0196 353.12 89.8396C353.12 90.4996 352.92 90.9996 352.54 91.2996C352.16 91.5996 351.66 91.7996 351.06 91.8996C350.46 91.9996 349.82 92.0396 349.16 92.0396Z" fill="#010F32"/>
<path d="M365.08 92.0409C362.28 92.0409 360.02 91.2009 358.28 89.5009C356.54 87.8009 355.68 85.3009 355.68 81.9609C355.68 79.8809 356.06 78.0809 356.84 76.5809C357.62 75.0809 358.7 73.9209 360.08 73.1009C361.46 72.2809 363.06 71.8809 364.84 71.8809C366.62 71.8809 368.14 72.3009 369.4 73.1209C370.66 73.9409 371.62 75.0209 372.28 76.3209C372.94 77.6209 373.28 78.9809 373.28 80.4009C373.28 81.3809 373.08 82.0409 372.68 82.3409C372.28 82.6409 371.7 82.8009 370.92 82.8009H360.12C360.22 84.7209 360.74 86.0809 361.64 86.9009C362.54 87.7209 363.72 88.1209 365.16 88.1209C366.78 88.1209 368.06 87.5609 368.96 86.4409C369.5 85.8809 370 85.5209 370.46 85.3409C370.92 85.1609 371.42 85.2609 371.96 85.6409C372.5 86.0209 372.8 86.5009 372.88 87.0809C372.96 87.6609 372.72 88.2809 372.16 88.9209C371.26 90.0209 370.22 90.8009 369.04 91.3009C367.86 91.8009 366.54 92.0409 365.08 92.0409ZM360.32 79.3209H368.84C368.62 78.0609 368.16 77.1009 367.46 76.4209C366.76 75.7409 365.86 75.4009 364.76 75.4009C363.58 75.4009 362.62 75.7209 361.86 76.3609C361.1 77.0009 360.58 77.9809 360.32 79.3209Z" fill="#010F32"/>
<path d="M379.8 91.5794C378.28 91.5794 377.52 90.7994 377.52 89.2194V74.6994C377.52 73.1194 378.3 72.3394 379.88 72.3394C380.42 72.3394 380.88 72.4594 381.28 72.7194C381.68 72.9794 381.88 73.4394 381.88 74.1394V75.0594C382.36 74.0994 383.12 73.3194 384.14 72.7394C385.16 72.1594 386.26 71.8594 387.4 71.8594C388.22 71.8594 388.86 72.0794 389.3 72.5194C389.74 72.9594 389.96 73.5594 389.96 74.2994C389.96 74.9994 389.78 75.4994 389.44 75.8194C389.1 76.1394 388.7 76.2794 388.24 76.2194C388.02 76.1994 387.8 76.1794 387.56 76.1594C387.32 76.1394 387.06 76.1394 386.76 76.1394C385.46 76.1394 384.34 76.5594 383.42 77.4194C382.5 78.2794 382.04 79.4794 382.04 81.0194V89.2194C382.04 90.7994 381.3 91.5794 379.8 91.5794Z" fill="#010F32"/>
<path d="M421.1 92.5399C420.46 92.6199 419.88 92.4599 419.38 92.0599C418.86 91.6599 418.56 91.1599 418.48 90.5199C418.4 89.8399 418.26 88.6799 418.02 87.0399C417.78 85.3999 417.54 83.5799 417.26 81.5399C415.64 81.7199 414.1 81.8999 412.62 82.0999C411.16 82.2799 409.88 82.4399 408.8 82.5799C407.72 82.6999 406.94 82.7999 406.46 82.8799C405.82 82.9599 405.26 82.7999 404.76 82.3799C404.26 81.9799 403.98 81.4599 403.92 80.8199C403.84 80.1599 404 79.5799 404.42 79.0999C404.82 78.5999 405.34 78.3199 405.98 78.2399C406.38 78.1799 407.12 78.0999 408.18 77.9999C409.24 77.8799 410.52 77.7399 411.98 77.5599C413.46 77.3799 415 77.1999 416.62 77.0199L416.02 72.6799C414.34 72.8599 412.84 73.0399 411.48 73.2199C410.12 73.3999 409.2 73.5199 408.68 73.5599C408.04 73.6399 407.48 73.4599 406.98 73.0399C406.48 72.6199 406.2 72.0999 406.12 71.4599C406.06 70.8199 406.24 70.2599 406.66 69.7599C407.06 69.2599 407.58 68.9799 408.22 68.8999C408.62 68.8399 409.5 68.7599 410.82 68.6199C412.16 68.4799 413.66 68.3199 415.36 68.0999C415.06 66.1199 414.84 64.6599 414.72 63.6999C414.62 63.0399 414.78 62.4599 415.18 61.9599C415.58 61.4599 416.1 61.1599 416.74 61.0799C417.4 60.9799 417.98 61.1199 418.48 61.5199C418.98 61.9199 419.28 62.4399 419.36 63.0999C419.42 63.5799 419.5 64.1999 419.6 64.9799C419.72 65.7599 419.84 66.6399 419.96 67.6199C421.46 67.4399 422.82 67.2799 424.06 67.1399C425.3 66.9999 426.26 66.8999 426.92 66.8199C427.56 66.7399 428.12 66.8999 428.6 67.3199C429.1 67.7199 429.36 68.2599 429.42 68.9199C429.48 69.5599 429.3 70.1199 428.9 70.6199C428.5 71.1199 427.98 71.3799 427.32 71.4399C426.68 71.4999 425.76 71.5799 424.54 71.6999C423.32 71.8199 422 71.9799 420.56 72.1599L421.16 76.4599C422.7 76.2599 424.16 76.0799 425.52 75.9199C426.88 75.7599 428.06 75.6399 429.06 75.4999C430.04 75.3799 430.72 75.2999 431.08 75.2799C431.9 75.5999 432.5 75.9199 432.94 76.2199C433.38 76.5199 433.62 76.8999 433.66 77.3199C433.74 77.9599 433.58 78.5199 433.16 79.0399C432.76 79.5399 432.24 79.8199 431.6 79.8799C431.22 79.8999 430.54 79.9799 429.58 80.0799C428.62 80.1999 427.46 80.3199 426.1 80.4799C424.74 80.6399 423.3 80.8199 421.78 81.0199C422.06 83.0799 422.32 84.8999 422.56 86.4999C422.8 88.0999 422.98 89.2399 423.08 89.8599C423.2 90.4999 423.08 91.0799 422.66 91.5999C422.26 92.1199 421.72 92.4199 421.06 92.5199L421.1 92.5399Z" fill="#010F32"/>
<path d="M454.96 93.8409C454.4 93.9409 453.88 93.8409 453.4 93.5209C452.92 93.2009 452.62 92.7609 452.52 92.2209C452.36 91.3009 452.16 90.1809 451.9 88.8409C451.64 87.5009 451.32 86.0609 450.98 84.5009C450.64 82.9409 450.28 81.4209 449.9 79.8609C448.5 80.1209 447.2 80.3409 445.98 80.5609C444.76 80.7809 443.8 80.9409 443.1 81.0809C442.54 81.1609 442.04 81.0209 441.58 80.6809C441.12 80.3409 440.84 79.9009 440.74 79.3409C440.66 78.7809 440.8 78.2809 441.14 77.8409C441.48 77.4009 441.94 77.1409 442.48 77.0609C443.12 76.9609 444 76.8209 445.14 76.6209C446.28 76.4409 447.54 76.2209 448.9 76.0009C448.48 74.2409 448.06 72.7809 447.68 71.6009C447.5 71.0609 447.56 70.5409 447.84 70.0409C448.12 69.5409 448.54 69.2009 449.1 69.0609C449.66 68.9009 450.18 68.9609 450.68 69.2209C451.18 69.4809 451.5 69.9009 451.64 70.4609C451.84 71.1009 452.04 71.8209 452.24 72.6609C452.44 73.5009 452.66 74.3809 452.88 75.3209L458.62 74.3409C462.6 73.6609 464.92 74.8009 465.58 77.8009C465.94 79.4809 465.58 81.0009 464.46 82.3609C463.36 83.7209 461.48 84.8409 458.82 85.7009C458.28 85.8809 457.78 85.8609 457.28 85.6209C456.78 85.4009 456.44 85.0009 456.24 84.4409C456.06 83.9009 456.08 83.3809 456.32 82.8809C456.54 82.3809 456.94 82.0409 457.5 81.8609C458.66 81.4409 459.52 81.0409 460.08 80.7209C460.64 80.4009 461 80.0609 461.16 79.7609C461.32 79.4409 461.36 79.1409 461.3 78.8409C461.24 78.5409 461.08 78.3209 460.8 78.2009C460.52 78.0809 460.08 78.0809 459.46 78.2009C458.7 78.3209 457.84 78.4809 456.86 78.6609C455.88 78.8409 454.88 79.0209 453.84 79.2409C454.22 80.7809 454.58 82.3209 454.92 83.8609C455.26 85.4009 455.58 86.8209 455.88 88.1409C456.18 89.4609 456.4 90.5809 456.58 91.4809C456.68 92.0409 456.58 92.5409 456.26 93.0209C455.94 93.4809 455.5 93.7809 454.94 93.9209L454.96 93.8409Z" fill="#010F32"/>
<path d="M481.26 74.3801C480.3 73.5801 479.22 72.7201 478.02 71.8601C476.82 70.9801 475.76 70.2801 474.78 69.7201C474.22 69.3601 473.86 68.8801 473.72 68.2601C473.56 67.6401 473.66 67.0601 473.98 66.5001C474.34 65.9401 474.82 65.5801 475.44 65.4201C476.06 65.2601 476.64 65.3601 477.2 65.7001C477.88 66.1401 478.66 66.6601 479.54 67.2801C480.42 67.9001 481.26 68.5201 482.08 69.1201C482.9 69.7201 483.58 70.2401 484.12 70.6801C484.62 71.0801 484.92 71.6001 485.02 72.2601C485.1 72.9001 484.94 73.4801 484.54 73.9801C484.14 74.4801 483.62 74.7801 482.96 74.8801C482.3 74.9801 481.74 74.8001 481.24 74.4001L481.26 74.3801ZM478 89.3601C477.4 89.5801 476.8 89.5601 476.2 89.2801C475.6 89.0001 475.2 88.5601 474.96 87.9401C474.74 87.3401 474.76 86.7401 475.04 86.1401C475.32 85.5401 475.76 85.1401 476.38 84.9001C478.4 84.2001 480.46 83.3201 482.52 82.2801C484.58 81.2401 486.56 80.1001 488.44 78.8801C490.32 77.6601 492.04 76.3801 493.6 75.0801C495.16 73.7801 496.44 72.5201 497.42 71.3001C497.86 70.8001 498.4 70.5001 499.04 70.4201C499.68 70.3401 500.26 70.5201 500.74 70.9601C501.24 71.3601 501.54 71.8801 501.62 72.5401C501.7 73.2001 501.52 73.7601 501.08 74.2601C500.04 75.5201 498.66 76.8801 496.94 78.3001C495.22 79.7401 493.3 81.1401 491.16 82.5401C489.04 83.9401 486.84 85.2201 484.58 86.4201C482.32 87.6201 480.14 88.5801 478 89.3401V89.3601Z" fill="#010F32"/>
<path d="M537.58 86.5406C536.82 85.8006 535.86 84.9406 534.74 83.9406C533.6 82.9406 532.38 81.9006 531.1 80.8206C529.8 79.7406 528.54 78.7206 527.3 77.7206C526.06 76.7406 524.96 75.8806 524 75.1806C523.28 74.6406 522.66 74.2806 522.08 74.1006C521.5 73.9206 520.92 73.8806 520.3 74.0206C519.68 74.1606 518.94 74.4606 518.08 74.9406C517.38 75.3406 516.56 75.8206 515.64 76.3806C514.72 76.9406 513.84 77.4806 513 78.0206C512.16 78.5606 511.46 78.9806 510.92 79.3206C510.36 79.6406 509.76 79.7406 509.14 79.5806C508.52 79.4206 508.02 79.0806 507.7 78.5206C507.36 77.9606 507.28 77.3606 507.42 76.7406C507.56 76.1206 507.9 75.6206 508.46 75.3006C509 74.9606 509.7 74.5406 510.6 74.0006C511.5 73.4606 512.44 72.9206 513.42 72.3806C514.4 71.8406 515.24 71.3606 515.94 70.9606C517.46 70.1406 518.78 69.6206 519.92 69.3606C521.04 69.1006 522.12 69.1406 523.16 69.4806C524.2 69.8206 525.36 70.4406 526.66 71.3806C527.34 71.8606 528.16 72.4806 529.14 73.2206C530.12 73.9606 531.14 74.7806 532.24 75.6606C533.34 76.5406 534.44 77.4206 535.54 78.3406C536.64 79.2606 537.66 80.1206 538.62 80.9406C539.58 81.7606 540.38 82.5006 541.04 83.1206C541.52 83.5406 541.76 84.1006 541.78 84.7606C541.78 85.4206 541.56 86.0006 541.08 86.5006C540.62 86.9606 540.06 87.1806 539.38 87.2006C538.7 87.2206 538.12 87.0006 537.64 86.5406H537.58ZM533.62 72.3206C532.56 72.3206 531.66 71.9406 530.9 71.1806C530.16 70.4206 529.78 69.5206 529.78 68.4806C529.78 67.4406 530.16 66.5006 530.9 65.7606C531.64 65.0206 532.56 64.6406 533.62 64.6406C534.68 64.6406 535.6 65.0206 536.34 65.7606C537.08 66.5006 537.46 67.4206 537.46 68.4806C537.46 69.5406 537.08 70.4206 536.34 71.1806C535.6 71.9406 534.68 72.3206 533.62 72.3206ZM533.62 70.1206C534.08 70.1206 534.46 69.9606 534.78 69.6206C535.1 69.3006 535.26 68.9206 535.26 68.4806C535.26 68.0206 535.1 67.6406 534.78 67.3006C534.46 66.9806 534.08 66.8006 533.62 66.8006C533.16 66.8006 532.78 66.9606 532.46 67.3006C532.14 67.6406 531.98 68.0206 531.98 68.4806C531.98 68.9206 532.14 69.3006 532.46 69.6206C532.78 69.9606 533.16 70.1206 533.62 70.1206Z" fill="#010F32"/>
<path d="M549.82 78.8997C549.18 78.8997 548.64 78.6597 548.16 78.1997C547.68 77.7397 547.46 77.1797 547.46 76.5397C547.46 75.8997 547.7 75.3197 548.16 74.8597C548.62 74.3997 549.18 74.1797 549.82 74.1797H573.5C574.16 74.1797 574.72 74.3997 575.18 74.8597C575.64 75.3197 575.86 75.8797 575.86 76.5397C575.86 77.1997 575.64 77.7197 575.18 78.1997C574.72 78.6597 574.16 78.8997 573.5 78.8997H549.82Z" fill="#010F32"/>
<path d="M589.9 74.3801C588.94 73.5801 587.86 72.7201 586.66 71.8601C585.46 70.9801 584.4 70.2801 583.42 69.7201C582.86 69.3601 582.5 68.8801 582.36 68.2601C582.2 67.6401 582.3 67.0601 582.62 66.5001C582.98 65.9401 583.46 65.5801 584.08 65.4201C584.7 65.2601 585.28 65.3601 585.84 65.7001C586.52 66.1401 587.3 66.6601 588.18 67.2801C589.06 67.9001 589.9 68.5201 590.72 69.1201C591.54 69.7201 592.22 70.2401 592.76 70.6801C593.26 71.0801 593.56 71.6001 593.66 72.2601C593.74 72.9001 593.58 73.4801 593.18 73.9801C592.78 74.4801 592.26 74.7801 591.6 74.8801C590.94 74.9801 590.38 74.8001 589.88 74.4001L589.9 74.3801ZM586.64 89.3601C586.04 89.5801 585.44 89.5601 584.84 89.2801C584.24 89.0001 583.84 88.5601 583.6 87.9401C583.38 87.3401 583.4 86.7401 583.68 86.1401C583.96 85.5401 584.4 85.1401 585.02 84.9001C587.04 84.2001 589.1 83.3201 591.16 82.2801C593.22 81.2401 595.2 80.1001 597.08 78.8801C598.96 77.6601 600.68 76.3801 602.24 75.0801C603.8 73.7801 605.08 72.5201 606.06 71.3001C606.5 70.8001 607.04 70.5001 607.68 70.4201C608.32 70.3401 608.9 70.5201 609.38 70.9601C609.88 71.3601 610.18 71.8801 610.26 72.5401C610.34 73.2001 610.16 73.7601 609.72 74.2601C608.68 75.5201 607.3 76.8801 605.58 78.3001C603.86 79.7401 601.94 81.1401 599.8 82.5401C597.68 83.9401 595.48 85.2201 593.22 86.4201C590.96 87.6201 588.78 88.5801 586.64 89.3401V89.3601Z" fill="#010F32"/>
<path d="M220.82 72.0994L219.32 71.4994L218.08 70.5394L217.16 69.2594L216.56 67.7794L216.28 66.2194L216.38 64.6194L216.58 63.0594L217.3 61.8194L218.4 60.9394L219.7 60.3594L221.12 60.5994L222.5 61.0394L223.56 62.0594L224.3 63.3594L224.68 64.7794L224.92 66.2594L224.78 67.8594L224.38 69.3994L223.72 70.8594L222.34 71.5994L220.82 72.0994Z" fill="#010F32"/>
<path d="M229.92 61.7004L231.32 61.4004L232.8 61.5204L234.12 62.2004L235.14 63.2604L235.74 64.6204L235.8 66.1804L235.46 67.7204L235.06 69.2404L234.06 70.4404L233.02 71.6404L231.56 72.2404L230.08 72.4804L228.74 71.7604L227.86 70.5204L227.52 69.0804L227.3 67.6204L227.36 66.1604L227.7 64.3804L228.5 62.7604L229.92 61.7004Z" fill="#010F32"/>
<path d="M241.16 70.2805L242.28 71.6605L242.96 73.3205L243.04 75.1205L242.72 76.5605L242.38 78.0405L241.62 79.3405L240.58 80.4205L239.26 81.1605L237.8 81.4205L236.3 81.3005L235.14 80.2405L234.42 78.8605L234.16 77.3005L234.22 75.7205L234.56 74.1605L234.94 72.7405L235.92 71.6205L236.98 70.6605L238.28 70.0805L239.7 69.9805L241.16 70.2805Z" fill="#010F32"/>
<path d="M209.64 68.3599L211.02 67.9199L212.46 68.1199L213.8 68.7399L215 69.6399L215.8 70.9199L216.52 72.1999L216.86 73.6399L217.06 75.1199V76.5999L216.62 78.0199L215.64 79.0599L214.1 79.7399L212.46 79.6199L210.86 79.0799L209.74 77.7999L208.74 76.4599L208.16 75.0999L207.66 73.6599L207.6 72.1599L207.9 70.6799L208.46 69.2799L209.64 68.3599Z" fill="#010F32"/>
<path d="M214.64 87.0205L214.76 85.4205L215.14 83.8405L215.82 82.3605L216.98 81.2205L218.08 80.0405L219.34 79.1005L220.22 77.8005L221.36 76.7405L222.64 75.8405L224.2 75.4805L225.82 75.9005L227.38 76.2205L228.82 76.9605L230 78.0805L230.86 79.5005L232.1 80.6005L233.38 81.4805L234.32 82.7205L234.76 84.2205L235.62 85.5405L235.52 87.1005L235.12 88.5405L234.4 89.8205L233.38 90.8805L231.94 91.1005L230.56 91.1805L229.1 91.3805L227.78 90.7205L226.24 90.5605L224.72 90.5005L223.18 90.7405L221.68 91.1605L220.14 91.3405L218.64 91.4005L217.08 91.1605L215.6 90.2405L214.72 88.7205L214.64 87.0205Z" fill="#010F32"/>
<mask id="mask0_426_261" style="mask-type:luminance" maskUnits="userSpaceOnUse" x="0" y="116" width="681" height="62">
<path d="M680.5 116.42H0.5V177.5H680.5V116.42Z" fill="white"/>
</mask>
<g mask="url(#mask0_426_261)">
<path d="M661.52 33.1406H19.48C8.99763 33.1406 0.5 41.6383 0.5 52.1206V158.541C0.5 169.023 8.99763 177.521 19.48 177.521H661.52C672.002 177.521 680.5 169.023 680.5 158.541V52.1206C680.5 41.6383 672.002 33.1406 661.52 33.1406Z" fill="#65ABD5"/>
</g>
<path d="M122.26 159.299C123.18 159.299 123.66 160.019 123.66 160.979C123.66 161.939 123.18 162.779 122.26 162.779H109.1C107.82 162.779 107.14 161.999 107.14 160.599C107.14 159.559 107.82 158.139 108.38 157.219C109.3 155.619 110.82 153.879 113.5 152.099L115.2 150.959C117.88 149.159 119.32 148.179 119.32 146.119C119.32 144.219 117.8 143.119 115.54 143.119C112.76 143.119 111.82 144.659 111.3 146.419C111.08 147.239 110.4 147.599 109.64 147.599C109.42 147.599 109.2 147.579 108.96 147.519C108.06 147.319 107.42 146.799 107.42 145.919C107.42 145.759 107.44 145.559 107.5 145.339C107.78 144.199 108.42 143.019 109.26 142.179C110.66 140.699 112.56 139.859 115.62 139.859C120.36 139.859 123.18 142.179 123.18 146.139C123.18 149.639 121.18 151.239 118.34 152.999L116.68 153.999C113.82 155.759 112.18 157.339 111.44 159.339H122.22L122.26 159.299Z" fill="white"/>
<path d="M145.94 151.479C145.94 159.119 142.88 163.219 137.32 163.219C131.76 163.219 128.74 159.119 128.74 151.359C128.74 143.599 131.8 139.779 137.34 139.779C142.88 139.779 145.94 143.439 145.94 151.459V151.479ZM132.58 151.419C132.58 156.859 134.12 159.799 137.34 159.799C140.56 159.799 142.08 156.939 142.08 151.399C142.08 145.859 140.6 143.219 137.34 143.219C134.08 143.219 132.58 146.059 132.58 151.419Z" fill="white"/>
<path d="M166.1 159.299C167.02 159.299 167.5 160.019 167.5 160.979C167.5 161.939 167.02 162.779 166.1 162.779H152.94C151.66 162.779 150.98 161.999 150.98 160.599C150.98 159.559 151.66 158.139 152.22 157.219C153.14 155.619 154.66 153.879 157.34 152.099L159.04 150.959C161.72 149.159 163.16 148.179 163.16 146.119C163.16 144.219 161.64 143.119 159.38 143.119C156.6 143.119 155.66 144.659 155.14 146.419C154.92 147.239 154.24 147.599 153.48 147.599C153.26 147.599 153.04 147.579 152.8 147.519C151.9 147.319 151.26 146.799 151.26 145.919C151.26 145.759 151.28 145.559 151.34 145.339C151.62 144.199 152.26 143.019 153.1 142.179C154.5 140.699 156.4 139.859 159.46 139.859C164.2 139.859 167.02 142.179 167.02 146.139C167.02 149.639 165.02 151.239 162.18 152.999L160.52 153.999C157.66 155.759 156.02 157.339 155.28 159.339H166.06L166.1 159.299Z" fill="white"/>
<path d="M180.6 149.459H180.8C183.32 149.459 184.94 148.259 184.94 146.059C184.94 144.039 183.4 142.959 181.04 142.959C178.68 142.959 177.66 143.939 177.04 145.419C176.76 146.059 176.28 146.319 175.7 146.319C175.36 146.319 175 146.239 174.64 146.099C173.88 145.819 173.4 145.339 173.4 144.699C173.4 144.479 173.46 144.219 173.56 143.979C174.42 141.999 176.48 139.779 181.16 139.779C185.84 139.779 188.7 142.079 188.7 145.719C188.7 148.519 187.32 150.339 184.42 151.059C187.72 151.479 189.34 153.479 189.34 156.719C189.34 160.479 186.52 163.279 180.94 163.279C175.98 163.279 173.68 160.979 172.78 158.719C172.7 158.499 172.66 158.299 172.66 158.099C172.66 157.319 173.28 156.719 174.14 156.519C174.42 156.459 174.68 156.439 174.92 156.439C175.68 156.439 176.24 156.779 176.52 157.499C177.14 159.039 178.46 159.999 181.02 159.999C183.58 159.999 185.44 158.679 185.44 156.359C185.44 154.039 183.68 152.879 180.82 152.879H179.02C178.06 152.939 177.56 152.099 177.56 151.139C177.56 150.179 178.06 149.399 179.02 149.439H180.56L180.6 149.459Z" fill="white"/>
<path d="M219.3 160.641C219.3 162.041 218.28 162.801 216.68 162.801C215.08 162.801 214.1 162.041 214.1 160.681V137.961C214.1 137.281 213.92 136.941 213.22 136.941H213.1L209.52 137.061C208.16 137.101 207.28 135.921 207.28 134.621C207.28 133.261 208.12 132.121 209.44 132.081L214.98 131.961H215.32C218.36 131.961 219.28 132.941 219.28 136.261V160.661L219.3 160.641Z" fill="white"/>
<path d="M242.22 160.641C242.22 162.041 241.2 162.801 239.6 162.801C238 162.801 237.02 162.041 237.02 160.681V137.961C237.02 137.281 236.84 136.941 236.14 136.941H236.02L232.44 137.061C231.08 137.101 230.2 135.921 230.2 134.621C230.2 133.261 231.04 132.121 232.36 132.081L237.9 131.961H238.24C241.28 131.961 242.2 132.941 242.2 136.261V160.661L242.22 160.641Z" fill="white"/>
<path d="M261.42 159.56C261.42 161.46 260.06 162.76 258.26 162.76C256.46 162.76 255.06 161.46 255.06 159.56C255.06 157.66 256.42 156.4 258.26 156.4C260.1 156.4 261.42 157.74 261.42 159.56Z" fill="white"/>
<path d="M288.08 157.819C289.34 157.819 289.98 158.799 289.98 160.099C289.98 161.399 289.34 162.539 288.08 162.539H270.22C268.48 162.539 267.56 161.479 267.56 159.579C267.56 158.179 268.48 156.239 269.24 154.979C270.5 152.819 272.54 150.459 276.2 148.019L278.52 146.459C282.16 144.019 284.1 142.699 284.1 139.879C284.1 137.299 282.04 135.819 278.96 135.819C275.2 135.819 273.9 137.899 273.22 140.299C272.92 141.399 272 141.899 270.98 141.899C270.68 141.899 270.38 141.859 270.06 141.779C268.84 141.519 267.98 140.799 267.98 139.619C267.98 139.399 268.02 139.119 268.1 138.819C268.48 137.259 269.36 135.659 270.5 134.519C272.4 132.499 274.98 131.359 279.12 131.359C285.54 131.359 289.38 134.519 289.38 139.859C289.38 144.619 286.68 146.779 282.8 149.159L280.56 150.519C276.68 152.919 274.44 155.039 273.46 157.779H288.08V157.819Z" fill="white"/>
<path d="M314.04 157.819C315.3 157.819 315.94 158.799 315.94 160.099C315.94 161.399 315.3 162.539 314.04 162.539H296.18C294.44 162.539 293.52 161.479 293.52 159.579C293.52 158.179 294.44 156.239 295.2 154.979C296.46 152.819 298.5 150.459 302.16 148.019L304.48 146.459C308.12 144.019 310.06 142.699 310.06 139.879C310.06 137.299 308 135.819 304.92 135.819C301.16 135.819 299.86 137.899 299.18 140.299C298.88 141.399 297.96 141.899 296.94 141.899C296.64 141.899 296.34 141.859 296.02 141.779C294.8 141.519 293.94 140.799 293.94 139.619C293.94 139.399 293.98 139.119 294.06 138.819C294.44 137.259 295.32 135.659 296.46 134.519C298.36 132.499 300.94 131.359 305.08 131.359C311.5 131.359 315.34 134.519 315.34 139.859C315.34 144.619 312.64 146.779 308.76 149.159L306.52 150.519C302.64 152.919 300.4 155.039 299.42 157.779H314.04V157.819Z" fill="white"/>
<path d="M357.74 131.199H333.6C331.391 131.199 329.6 132.99 329.6 135.199V159.339C329.6 161.548 331.391 163.339 333.6 163.339H357.74C359.949 163.339 361.74 161.548 361.74 159.339V135.199C361.74 132.99 359.949 131.199 357.74 131.199Z" fill="white"/>
<path d="M334.76 143.859C334 143.859 333.56 143.279 333.56 142.379C333.56 141.479 334 140.899 334.76 140.899H341.2C342.88 140.899 343.7 141.599 343.7 143.159C343.7 143.639 343.62 144.159 343.48 144.819C342.94 147.079 341.96 149.379 340.68 151.399C339.36 153.479 337.72 155.239 335.94 156.659C335.58 156.939 335.18 157.099 334.8 157.099C334.36 157.099 333.9 156.879 333.52 156.459C333.24 156.159 333.1 155.759 333.1 155.359C333.1 154.919 333.26 154.499 333.68 154.179C335.34 152.939 336.78 151.459 337.82 149.999C339.08 148.199 339.96 146.339 340.42 144.499C340.44 144.359 340.48 144.239 340.48 144.139C340.48 143.919 340.34 143.839 339.98 143.839H334.76V143.859ZM347.92 139.499C348.28 141.239 348.98 142.999 349.82 144.619C351.76 143.079 353.48 141.199 354.72 139.399C355 138.999 355.4 138.819 355.82 138.819C356.18 138.819 356.54 138.959 356.92 139.219C357.42 139.559 357.7 139.999 357.7 140.499C357.7 140.799 357.58 141.119 357.36 141.419C355.82 143.499 353.64 145.599 351.42 147.239C351.72 147.679 352.04 148.079 352.34 148.479C353.96 150.519 356.12 152.479 358.48 153.879C359.02 154.179 359.24 154.659 359.24 155.159C359.24 155.519 359.12 155.919 358.94 156.259C358.6 156.819 358.04 157.159 357.42 157.159C357.14 157.159 356.84 157.079 356.58 156.899C354.5 155.619 352.52 153.759 350.98 151.739C349.58 149.919 348.24 147.379 347.46 144.959C347.74 146.979 347.94 148.859 347.94 150.599V156.839C347.94 159.199 346.54 160.119 344.16 160.119C343.02 160.119 341.98 159.999 341.16 159.839C340.4 159.699 340.02 159.199 340.02 158.419C340.02 158.299 340.02 158.199 340.04 158.059C340.16 157.239 340.66 156.819 341.24 156.819C341.32 156.819 341.4 156.819 341.5 156.839C342.18 156.959 342.96 157.059 343.64 157.059C344.54 157.059 344.82 156.839 344.82 155.899V135.479C344.82 134.759 345.38 134.359 346.34 134.359C347.34 134.359 347.96 134.759 347.96 135.479V139.459L347.92 139.499Z" fill="#65ABD5"/>
<path d="M461.16 160.641C461.16 162.041 460.14 162.801 458.54 162.801C456.94 162.801 455.96 162.041 455.96 160.681V137.961C455.96 137.281 455.78 136.941 455.08 136.941H454.96L451.38 137.061C450.02 137.101 449.14 135.921 449.14 134.621C449.14 133.261 449.98 132.121 451.3 132.081L456.84 131.961H457.18C460.22 131.961 461.14 132.941 461.14 136.261V160.661L461.16 160.641Z" fill="white"/>
<path d="M489.74 157.819C491 157.819 491.64 158.799 491.64 160.099C491.64 161.399 491 162.539 489.74 162.539H471.88C470.14 162.539 469.22 161.479 469.22 159.579C469.22 158.179 470.14 156.239 470.9 154.979C472.16 152.819 474.2 150.459 477.86 148.019L480.18 146.459C483.82 144.019 485.76 142.699 485.76 139.879C485.76 137.299 483.7 135.819 480.64 135.819C476.88 135.819 475.58 137.899 474.9 140.299C474.6 141.399 473.68 141.899 472.66 141.899C472.36 141.899 472.06 141.859 471.74 141.779C470.52 141.519 469.66 140.799 469.66 139.619C469.66 139.399 469.7 139.119 469.78 138.819C470.16 137.259 471.04 135.659 472.18 134.519C474.08 132.499 476.66 131.359 480.8 131.359C487.22 131.359 491.06 134.519 491.06 139.859C491.06 144.619 488.36 146.779 484.48 149.159L482.24 150.519C478.36 152.919 476.12 155.039 475.14 157.779H489.76L489.74 157.819Z" fill="white"/>
<path d="M502.5 159.56C502.5 161.46 501.14 162.76 499.34 162.76C497.54 162.76 496.14 161.46 496.14 159.56C496.14 157.66 497.5 156.4 499.34 156.4C501.18 156.4 502.5 157.74 502.5 159.56Z" fill="white"/>
<path d="M521.3 142.4C527.26 142.4 531.4 146.42 531.4 152.46C531.4 158.5 527.22 163.18 520.64 163.18C513.16 163.18 508.78 157.7 508.78 147.72C508.78 137.74 512.54 131.34 520.82 131.34C525.88 131.34 528.64 133.74 530.08 136.78C530.24 137.08 530.3 137.42 530.3 137.7C530.3 138.62 529.62 139.3 528.74 139.64C528.32 139.8 527.9 139.86 527.48 139.86C526.64 139.86 525.92 139.56 525.58 138.8C524.74 136.98 523.42 135.8 520.6 135.8C518.2 135.8 516.22 136.94 515.06 139.38C514.18 141.16 513.76 142.96 513.58 146.4C515.22 143.86 517.76 142.4 521.26 142.4H521.3ZM514.38 152.66C514.38 156.2 517 158.74 520.42 158.74C523.84 158.74 526.42 156.24 526.42 152.54C526.42 148.84 524.06 146.66 520.54 146.66C517.02 146.66 514.38 149.2 514.38 152.66Z" fill="white"/>
<path d="M571.12 131.199H546.98C544.771 131.199 542.98 132.99 542.98 135.199V159.339C542.98 161.548 544.771 163.339 546.98 163.339H571.12C573.329 163.339 575.12 161.548 575.12 159.339V135.199C575.12 132.99 573.329 131.199 571.12 131.199Z" fill="white"/>
<path d="M548.14 143.859C547.38 143.859 546.94 143.279 546.94 142.379C546.94 141.479 547.38 140.899 548.14 140.899H554.58C556.26 140.899 557.08 141.599 557.08 143.159C557.08 143.639 557 144.159 556.86 144.819C556.32 147.079 555.34 149.379 554.06 151.399C552.74 153.479 551.1 155.239 549.32 156.659C548.96 156.939 548.56 157.099 548.18 157.099C547.74 157.099 547.28 156.879 546.9 156.459C546.62 156.159 546.48 155.759 546.48 155.359C546.48 154.919 546.64 154.499 547.06 154.179C548.72 152.939 550.16 151.459 551.2 149.999C552.46 148.199 553.34 146.339 553.8 144.499C553.82 144.359 553.86 144.239 553.86 144.139C553.86 143.919 553.72 143.839 553.36 143.839H548.14V143.859ZM561.3 139.499C561.66 141.239 562.36 142.999 563.2 144.619C565.14 143.079 566.86 141.199 568.1 139.399C568.38 138.999 568.78 138.819 569.2 138.819C569.56 138.819 569.92 138.959 570.3 139.219C570.8 139.559 571.08 139.999 571.08 140.499C571.08 140.799 570.96 141.119 570.74 141.419C569.2 143.499 567.02 145.599 564.8 147.239C565.1 147.679 565.42 148.079 565.72 148.479C567.34 150.519 569.5 152.479 571.86 153.879C572.4 154.179 572.62 154.659 572.62 155.159C572.62 155.519 572.5 155.919 572.32 156.259C571.98 156.819 571.42 157.159 570.8 157.159C570.52 157.159 570.22 157.079 569.96 156.899C567.88 155.619 565.9 153.759 564.36 151.739C562.96 149.919 561.62 147.379 560.84 144.959C561.12 146.979 561.32 148.859 561.32 150.599V156.839C561.32 159.199 559.92 160.119 557.54 160.119C556.4 160.119 555.36 159.999 554.54 159.839C553.78 159.699 553.4 159.199 553.4 158.419C553.4 158.299 553.4 158.199 553.42 158.059C553.54 157.239 554.04 156.819 554.62 156.819C554.7 156.819 554.78 156.819 554.88 156.839C555.56 156.959 556.34 157.059 557.02 157.059C557.92 157.059 558.2 156.839 558.2 155.899V135.479C558.2 134.759 558.76 134.359 559.72 134.359C560.72 134.359 561.34 134.759 561.34 135.479V139.459L561.3 139.499Z" fill="#65ABD5"/>
<path d="M385.48 152.681H425.94L419.52 141.961" stroke="white" stroke-width="4" stroke-linecap="round" stroke-linejoin="round"/>
</g>
<defs>
<clipPath id="clip0_426_261">
<rect width="680" height="177" fill="white" transform="translate(0.5 0.5)"/>
</clipPath>
</defs>
</svg>
