<svg width="681" height="94" viewBox="0 0 681 94" fill="none" xmlns="http://www.w3.org/2000/svg">
<path d="M12.5544 86.9925C12.3998 86.9925 12.0907 86.9925 11.9362 86.838C11.1635 86.5291 10.6998 85.6024 11.0089 84.8302L26.4635 46.8353L11.1635 8.84049C10.8544 8.06824 11.318 7.14154 12.0907 6.83263C12.8635 6.52373 13.7907 6.83263 14.0998 7.75934L29.7089 46.372C29.8635 46.6809 29.8635 47.1442 29.7089 47.4531L14.0998 86.0658C13.7907 86.6836 13.1726 86.9925 12.5544 86.9925Z" fill="#010F32"/>
<path d="M653.609 86.9933H28.7818C27.8545 86.9933 27.2363 86.3755 27.2363 85.4488C27.2363 84.5221 27.8545 83.9043 28.7818 83.9043H653.609C654.536 83.9043 655.155 84.5221 655.155 85.4488C655.155 86.3755 654.536 86.9933 653.609 86.9933Z" fill="#010F32"/>
<path d="M668.445 86.9931C667.827 86.9931 667.209 86.5297 667.055 85.9119L652.991 47.2993C652.836 46.9904 652.836 46.527 652.991 46.2181L667.055 7.60549C667.364 6.83324 668.291 6.36989 669.064 6.67879C669.836 6.98769 670.3 7.91439 669.991 8.68665L656.082 46.8359L669.991 84.9852C670.3 85.7575 669.836 86.6842 669.064 86.9931C668.755 86.9931 668.6 86.9931 668.445 86.9931Z" fill="#010F32"/>
<path d="M653.609 9.76772H28.7818C27.8545 9.76772 27.2363 9.14992 27.2363 8.22322C27.2363 7.29651 27.8545 6.67871 28.7818 6.67871H653.609C654.536 6.67871 655.155 7.29651 655.155 8.22322C655.155 9.14992 654.536 9.76772 653.609 9.76772Z" fill="#010F32"/>
<path d="M156.127 67.2232C153.345 67.2232 150.872 66.7598 148.4 65.8331C146.081 64.9064 143.918 63.3619 142.218 61.0452C141.6 60.1185 141.445 59.3462 141.6 58.574C141.754 57.8017 142.372 57.1839 143.3 56.7206C144.227 56.1028 145 55.9483 145.772 56.1028C146.545 56.2572 147.163 56.875 147.936 57.6473C148.863 58.7284 150.1 59.5007 151.491 60.1185C152.881 60.7363 154.582 61.0452 156.436 61.0452C159.063 61.0452 160.918 60.5818 161.845 59.6551C162.772 58.7284 163.391 57.4928 163.391 55.7939C163.391 54.7127 163.236 53.9404 162.772 53.1682C162.309 52.3959 161.382 51.7781 159.836 51.0059C158.445 50.3881 156.127 49.7703 153.036 48.998C149.481 48.0713 146.7 46.8357 145 44.9823C143.3 43.1289 142.372 40.8121 142.372 37.8776C142.372 35.5608 142.991 33.553 144.072 31.854C145.154 30.1551 146.7 28.765 148.709 27.8383C150.718 26.9116 153.036 26.4482 155.663 26.4482C158.445 26.4482 160.918 26.9116 162.927 27.8383C164.936 28.765 166.791 30.0006 168.182 31.5451C168.954 32.3174 169.109 33.0896 168.954 33.8619C168.8 34.6341 168.336 35.4064 167.563 36.0242C166.791 36.642 166.018 36.9509 165.245 36.7964C164.472 36.642 163.7 36.1786 163.081 35.5608C162.154 34.6341 161.072 34.0163 159.836 33.3985C158.6 32.7807 157.209 32.6263 155.663 32.6263C153.809 32.6263 152.109 33.0896 151.027 33.8619C149.791 34.6341 149.172 36.0242 149.172 37.5687C149.172 38.3409 149.327 38.9587 149.636 39.731C149.945 40.3488 150.718 41.121 151.954 41.7389C153.191 42.3567 155.045 42.9745 157.518 43.5923C162 44.519 165.245 46.0635 167.1 48.0713C169.109 50.0792 170.036 52.5504 170.036 55.6394C170.036 59.3462 168.8 62.1263 166.172 64.1342C163.854 66.142 160.454 67.2232 156.127 67.2232Z" fill="#010F32"/>
<path d="M181.163 66.4508C179 66.4508 177.918 65.3697 177.918 63.2074V30.7728C177.918 28.6105 179 27.5293 181.163 27.5293H181.936C183.636 27.5293 184.873 28.3015 185.954 29.6916L202.8 55.176V30.7728C202.8 29.6916 203.109 28.9194 203.727 28.3015C204.345 27.6837 205.118 27.5293 206.2 27.5293C208.363 27.5293 209.445 28.6105 209.445 30.7728V63.2074C209.445 65.3697 208.363 66.4508 206.354 66.4508H205.736C204.036 66.4508 202.645 65.6786 201.718 64.2885L184.409 38.0319V63.2074C184.409 65.2152 183.327 66.4508 181.163 66.4508Z" fill="#010F32"/>
<path d="M231.854 67.2231C229.072 67.2231 226.6 66.7597 224.127 65.833C221.809 64.9063 219.645 63.3618 217.945 61.045C217.327 60.1183 217.172 59.3461 217.327 58.5738C217.482 57.8016 218.1 57.1838 219.027 56.7204C219.954 56.2571 220.727 56.1026 221.345 56.2571C222.118 56.4115 222.736 57.0293 223.509 57.8016C224.436 58.8827 225.672 59.655 227.063 60.2728C228.454 60.8906 230.154 61.1995 232.009 61.1995C234.636 61.1995 236.491 60.7361 237.418 59.8094C238.5 58.8827 238.963 57.6471 238.963 55.9482C238.963 54.867 238.654 54.0947 238.191 53.3225C237.727 52.5502 236.8 51.9324 235.254 51.1602C233.863 50.5424 231.545 49.9246 228.454 49.1523C224.9 48.2256 222.272 46.99 220.418 45.1366C218.718 43.2832 217.791 40.9664 217.791 38.0319C217.791 35.7151 218.409 33.7073 219.491 32.0083C220.572 30.3094 222.118 28.9193 224.127 27.9926C226.136 27.0659 228.454 26.6025 231.082 26.6025C233.863 26.6025 236.336 27.0659 238.345 27.9926C240.354 28.9193 242.209 30.1549 243.6 31.6994C244.372 32.4717 244.527 33.2439 244.372 34.0162C244.218 34.7884 243.754 35.5607 242.982 36.1785C242.209 36.7963 241.436 37.1052 240.663 36.9507C239.891 36.7963 239.118 36.3329 238.5 35.7151C237.572 34.7884 236.491 34.1706 235.254 33.5528C234.018 32.935 232.627 32.7806 231.082 32.7806C229.227 32.7806 227.527 33.2439 226.445 34.0162C225.209 34.7884 224.591 36.1785 224.591 37.723C224.591 38.4952 224.745 39.113 225.054 39.8853C225.363 40.5031 226.136 41.2753 227.372 41.8931C228.609 42.511 230.463 43.1288 232.936 43.7466C237.418 44.6733 240.663 46.2178 242.518 48.2256C244.527 50.2335 245.454 52.7047 245.454 55.7937C245.454 59.5005 244.218 62.2806 241.591 64.2885C238.963 66.2963 236.182 67.2231 231.854 67.2231Z" fill="#010F32"/>
<path d="M282.7 68.922C281.773 69.0764 281 68.7675 280.227 68.1497C279.454 67.5319 278.991 66.7597 278.991 65.833C278.836 64.9063 278.682 63.2073 278.372 60.7361C278.063 58.2649 277.6 55.6392 277.291 52.7047C274.973 53.0136 272.654 53.168 270.491 53.4769C268.327 53.7858 266.473 53.9403 264.927 54.2492C263.382 54.4036 262.145 54.5581 261.527 54.7125C260.6 54.867 259.827 54.5581 259.054 53.9403C258.282 53.3225 257.972 52.5502 257.818 51.6235C257.663 50.6968 257.972 49.7701 258.591 49.1523C259.209 48.3801 259.982 48.0712 260.909 47.9167C261.527 47.9167 262.609 47.7623 264.154 47.6078C265.7 47.4533 267.554 47.2989 269.718 46.99C271.882 46.6811 274.2 46.5266 276.518 46.2177L275.591 39.8853C273.118 40.1942 270.954 40.3486 268.945 40.6575C266.936 40.9664 265.545 41.1209 264.927 41.1209C264 41.2753 263.227 40.9664 262.454 40.3486C261.682 39.7308 261.372 38.9586 261.218 38.0319C261.218 37.1052 261.372 36.3329 261.991 35.5607C262.609 34.7884 263.382 34.4795 264.309 34.325C264.927 34.325 266.163 34.1706 268.172 33.8617C270.182 33.7072 272.345 33.3983 274.818 33.0894C274.354 30.1549 274.045 27.9926 273.891 26.6025C273.736 25.6758 273.891 24.7491 274.509 23.9769C275.127 23.2046 275.9 22.7413 276.827 22.7413C277.754 22.5868 278.682 22.7413 279.454 23.3591C280.227 23.9769 280.691 24.7491 280.691 25.6758C280.691 26.4481 280.845 27.3748 281 28.4559C281.154 29.5371 281.309 30.9271 281.463 32.3172C283.627 32.0083 285.636 31.8538 287.491 31.5449C289.345 31.3905 290.736 31.236 291.663 31.0816C292.591 30.9271 293.363 31.236 294.136 31.8538C294.909 32.4716 295.218 33.2439 295.373 34.1706C295.373 35.0973 295.218 35.8696 294.6 36.6418C293.982 37.4141 293.209 37.723 292.282 37.8774C291.354 37.8774 289.963 38.0319 288.263 38.3408C286.409 38.4952 284.554 38.8041 282.391 38.9586L283.318 45.291C285.636 44.9821 287.645 44.6732 289.654 44.5188C291.663 44.3643 293.363 44.0554 294.754 43.901C296.145 43.7465 297.227 43.5921 297.691 43.5921C298.927 44.0554 299.854 44.5188 300.473 44.9821C301.091 45.4455 301.4 45.9088 301.554 46.5266C301.709 47.4533 301.4 48.2256 300.782 48.9979C300.163 49.7701 299.391 50.079 298.463 50.2335C297.845 50.2335 296.918 50.3879 295.527 50.5424C294.136 50.6968 292.436 50.8513 290.427 51.1602C288.418 51.4691 286.409 51.6235 284.091 51.9324C284.554 54.867 284.863 57.6471 285.172 59.9638C285.482 62.2806 285.791 63.9796 285.945 64.9063C286.1 65.833 285.945 66.6052 285.327 67.3775C284.554 68.3042 283.782 68.7675 282.7 68.922Z" fill="#010F32"/>
<path d="M330.918 70.7748C330.145 70.9293 329.372 70.7748 328.6 70.3115C327.827 69.8481 327.518 69.2303 327.363 68.4581C327.209 67.068 326.9 65.5235 326.436 63.5157C325.972 61.5078 325.663 59.4999 325.045 57.1832C324.581 54.8664 323.963 52.7041 323.5 50.3873C321.49 50.6962 319.481 51.1596 317.781 51.4685C315.927 51.7774 314.536 52.0863 313.609 52.2408C312.836 52.3952 312.063 52.0863 311.445 51.623C310.827 51.1596 310.363 50.3873 310.209 49.6151C310.054 48.8428 310.363 48.0706 310.827 47.4528C311.29 46.835 312.063 46.3716 312.836 46.3716C313.763 46.2172 315 46.0627 316.7 45.7538C318.4 45.4449 320.254 45.136 322.263 44.8271C321.645 42.2015 321.027 40.1936 320.409 38.3402C320.1 37.568 320.254 36.7957 320.563 36.0234C321.027 35.2512 321.645 34.7878 322.418 34.6334C323.19 34.4789 323.963 34.4789 324.736 34.9423C325.509 35.4056 325.972 35.869 326.127 36.7957C326.436 37.7224 326.745 38.8036 327.054 40.0392C327.363 41.2748 327.672 42.5104 327.981 43.9004L336.327 42.5104C342.2 41.5837 345.6 43.1282 346.527 47.6072C346.99 50.0784 346.527 52.2408 344.827 54.2486C343.127 56.2565 340.5 57.9554 336.636 59.191C335.863 59.4999 335.09 59.3455 334.318 59.0366C333.545 58.7277 333.081 58.1099 332.772 57.3376C332.463 56.5654 332.618 55.7931 332.927 55.0209C333.236 54.2486 333.854 53.7853 334.627 53.4764C336.327 52.8586 337.563 52.2408 338.336 51.7774C339.109 51.3141 339.727 50.8507 339.881 50.3873C340.19 49.924 340.19 49.4606 340.036 48.9973C340.036 48.5339 339.727 48.225 339.263 48.0706C338.8 47.9161 338.181 47.9161 337.254 48.0706C336.172 48.225 334.936 48.5339 333.39 48.6884C332 48.9973 330.454 49.1517 328.909 49.4606C329.527 51.7774 329.99 53.9397 330.454 56.2565C330.918 58.5732 331.381 60.5811 331.845 62.5889C332.309 64.4424 332.618 66.1413 332.927 67.5314C333.081 68.3036 332.927 69.0759 332.463 69.8481C332.463 70.157 331.69 70.6204 330.918 70.7748Z" fill="#010F32"/>
<path d="M364.609 42.357C363.218 41.1214 361.672 39.8858 359.818 38.6502C357.963 37.4146 356.572 36.3334 355.027 35.5611C354.254 35.0978 353.636 34.3255 353.481 33.3988C353.327 32.4721 353.327 31.6999 353.945 30.7732C354.409 30.0009 355.181 29.3831 356.109 29.2287C357.036 28.9198 357.809 29.0742 358.736 29.692C359.663 30.3098 360.9 31.0821 362.136 32.0088C363.372 32.9355 364.609 33.8622 365.845 34.6344C367.081 35.5611 368.009 36.3334 368.781 36.9512C369.554 37.569 370.018 38.3413 370.018 39.268C370.172 40.1947 369.863 41.1214 369.245 41.7392C368.627 42.5114 367.854 42.9748 366.927 42.9748C366.309 43.1292 365.381 42.8203 364.609 42.357ZM359.818 64.1345C358.89 64.4434 358.118 64.4434 357.19 63.9801C356.263 63.5167 355.645 62.8989 355.336 61.9722C355.027 61.0455 355.027 60.2732 355.49 59.3465C355.954 58.4198 356.572 57.802 357.5 57.4931C360.436 56.412 363.527 55.1764 366.463 53.6319C369.554 52.0874 372.336 50.3884 375.118 48.6894C377.9 46.836 380.372 44.9826 382.69 43.1292C385.009 41.2758 386.863 39.4224 388.254 37.569C388.872 36.7967 389.645 36.3334 390.572 36.3334C391.5 36.1789 392.272 36.4878 393.045 37.1057C393.818 37.7235 394.281 38.4957 394.281 39.4224C394.281 40.3491 394.127 41.2758 393.509 41.8936C391.963 43.747 389.954 45.7549 387.481 47.7627C385.009 49.925 382.072 51.9329 378.981 53.9408C375.89 55.9486 372.645 57.802 369.4 59.6554C366.154 61.6633 363.063 63.0534 359.818 64.1345Z" fill="#010F32"/>
<path d="M443.581 60.1181C442.5 59.0369 441.109 57.8013 439.409 56.2568C437.709 54.8667 436.009 53.3222 434 51.6233C432.145 50.0788 430.291 48.5343 428.436 47.1442C426.581 45.7542 425.036 44.5186 423.645 43.4374C422.563 42.6651 421.636 42.2018 420.863 41.8929C420.091 41.584 419.163 41.584 418.236 41.7384C417.309 41.8929 416.227 42.3562 414.991 43.1285C413.909 43.7463 412.827 44.3641 411.436 45.2908C410.045 46.0631 408.809 46.8353 407.572 47.6076C406.336 48.3798 405.254 48.9976 404.481 49.461C403.709 49.9243 402.781 50.0788 401.854 49.9243C400.927 49.7699 400.154 49.1521 399.691 48.3798C399.227 47.6076 399.072 46.6809 399.227 45.7542C399.381 44.8275 400 44.0552 400.772 43.5918C401.545 43.1285 402.627 42.5107 403.863 41.7384C405.254 40.9662 406.491 40.1939 408.036 39.4217C409.427 38.6494 410.663 37.8772 411.745 37.2594C413.909 36.0238 415.918 35.2515 417.618 34.9426C419.318 34.6337 420.863 34.6337 422.409 35.0971C423.954 35.5604 425.654 36.4871 427.509 37.8772C428.436 38.6494 429.672 39.4217 431.063 40.5028C432.454 41.584 434 42.8196 435.545 44.0552C437.091 45.2908 438.791 46.6809 440.336 47.9165C441.881 49.3065 443.427 50.5421 444.818 51.7777C446.209 53.0133 447.445 54.0945 448.372 55.0212C449.145 55.639 449.454 56.4112 449.454 57.338C449.454 58.2647 449.145 59.1914 448.372 59.9636C447.754 60.5814 446.827 61.0448 445.9 61.0448C445.127 61.0448 444.2 60.7359 443.581 60.1181ZM437.709 39.2672C436.163 39.2672 434.772 38.6494 433.691 37.5683C432.609 36.4871 431.991 35.0971 431.991 33.5526C431.991 32.0081 432.609 30.618 433.691 29.5368C434.772 28.4557 436.163 27.8379 437.709 27.8379C439.254 27.8379 440.645 28.4557 441.727 29.5368C442.809 30.618 443.427 32.0081 443.427 33.5526C443.427 35.0971 442.809 36.3327 441.727 37.5683C440.645 38.8039 439.254 39.2672 437.709 39.2672ZM437.709 36.0238C438.327 36.0238 438.945 35.7149 439.409 35.2515C439.872 34.7882 440.181 34.1704 440.181 33.5526C440.181 32.9348 439.872 32.317 439.409 31.8536C438.945 31.3903 438.327 31.0814 437.709 31.0814C437.091 31.0814 436.472 31.3903 436.009 31.8536C435.545 32.317 435.236 32.9348 435.236 33.5526C435.236 34.1704 435.391 34.7882 436.009 35.2515C436.472 35.8693 437.091 36.0238 437.709 36.0238Z" fill="#010F32"/>
<path d="M455.636 48.8429C454.709 48.8429 453.936 48.534 453.163 47.7617C452.545 47.1439 452.082 46.2172 452.082 45.2905C452.082 44.3638 452.391 43.4371 453.163 42.8193C453.782 42.2015 454.709 41.8926 455.636 41.8926H490.254C491.182 41.8926 492.109 42.2015 492.727 42.8193C493.345 43.4371 493.654 44.3638 493.654 45.2905C493.654 46.2172 493.345 46.9894 492.727 47.7617C492.109 48.3795 491.182 48.8429 490.254 48.8429H455.636Z" fill="#010F32"/>
<path d="M509.572 42.357C508.182 41.1214 506.636 39.8858 504.782 38.6502C502.927 37.4146 501.536 36.3334 499.991 35.5611C499.218 35.0978 498.6 34.3255 498.445 33.3988C498.291 32.4721 498.291 31.6999 498.909 30.7732C499.372 30.0009 500.145 29.3831 501.072 29.2287C502 28.9198 502.773 29.0742 503.7 29.692C504.627 30.3098 505.863 31.0821 507.1 32.0088C508.336 32.9355 509.573 33.8622 510.809 34.6344C512.045 35.5611 512.973 36.3334 513.745 36.9512C514.518 37.569 514.982 38.3413 514.982 39.268C515.136 40.1947 514.827 41.1214 514.209 41.7392C513.591 42.5114 512.818 42.9748 511.891 42.9748C511.118 43.1292 510.345 42.8203 509.572 42.357ZM504.782 64.1345C503.854 64.4434 503.082 64.4434 502.154 63.9801C501.227 63.5167 500.609 62.8989 500.3 61.9722C499.991 61.0455 499.991 60.2732 500.454 59.3465C500.918 58.4198 501.536 57.802 502.463 57.4931C505.4 56.412 508.491 55.1764 511.427 53.6319C514.518 52.0874 517.3 50.3884 520.082 48.6894C522.863 46.836 525.336 44.9826 527.654 43.1292C529.973 41.2758 531.827 39.4224 533.218 37.569C533.836 36.7967 534.609 36.3334 535.536 36.3334C536.463 36.1789 537.236 36.4878 538.009 37.1057C538.782 37.7235 539.245 38.4957 539.245 39.4224C539.245 40.3491 539.091 41.2758 538.473 41.8936C536.927 43.747 534.918 45.7549 532.445 47.7627C529.973 49.925 527.036 51.9329 523.945 53.9408C520.854 55.9486 517.609 57.802 514.363 59.6554C511.118 61.6633 507.872 63.0534 504.782 64.1345Z" fill="#010F32"/>
</svg>
