<svg width="537" height="51" viewBox="0 0 537 51" fill="none" xmlns="http://www.w3.org/2000/svg">
<g clip-path="url(#clip0_367_123)">
<path d="M46.9594 38.921C46.2541 38.921 45.637 38.6579 45.1963 38.1316C44.6673 37.6052 44.4028 36.9912 44.4028 36.3772C44.4028 35.6754 44.6673 35.0614 45.1963 34.6228C45.7252 34.1842 46.3423 33.921 46.9594 33.921H61.4173C63.0923 33.921 64.4147 33.8333 65.2081 33.5702C66.0897 33.307 66.6186 32.7807 66.9713 31.9035C67.2357 31.0263 67.412 29.7105 67.412 27.9561C67.412 26.2017 67.2357 24.8859 66.9713 24.0088C66.7068 23.1316 66.0897 22.6052 65.2963 22.3421C64.4147 22.0789 63.1805 21.9912 61.5055 21.9912H47.4884C46.7831 21.9912 46.166 21.7281 45.7252 21.2895C45.1963 20.7631 45.0199 20.1491 45.0199 19.4474C45.0199 18.7456 45.2844 18.1316 45.7252 17.693C46.2541 17.2544 46.7831 16.9912 47.4884 16.9912H61.5055C63.6213 16.9912 65.4726 17.1666 66.8831 17.5175C68.2936 17.8684 69.4397 18.3947 70.2331 19.2719C71.0265 20.1491 71.6436 21.2017 71.9963 22.693C72.3489 24.0965 72.5252 25.9386 72.5252 28.1316C72.5252 30.3245 72.3489 32.1667 71.9963 33.5702C71.6436 34.9737 71.0265 36.114 70.2331 36.9912C69.4397 37.7807 68.2936 38.3947 66.7949 38.7456C65.3844 39.0965 63.5331 39.2719 61.4173 39.2719H46.9594V38.921Z" fill="black"/>
<path d="M89.628 44.1848C88.9227 44.3603 88.3056 44.3603 87.6885 44.0094C87.0714 43.7462 86.6306 43.2199 86.4543 42.5182C86.1898 41.8164 86.278 41.2024 86.6306 40.5883C86.9832 39.9743 87.424 39.5357 88.1293 39.2725C91.5674 38.1322 94.4766 36.641 97.1214 34.6234C99.678 32.6059 101.617 30.4129 102.852 27.869C103.821 25.7638 103.116 24.7989 100.648 24.7989H85.4845C84.7793 24.7989 84.1622 24.5357 83.7214 24.0971C83.1924 23.6585 83.0161 23.0445 83.0161 22.3427C83.0161 21.641 83.2806 21.0269 83.7214 20.5883C84.2503 20.1497 84.7793 19.8866 85.4845 19.8866H100.736C103.116 19.8866 104.967 20.3252 106.202 21.2024C107.524 22.0796 108.229 23.2199 108.406 24.7989C108.582 26.2901 108.141 28.0445 107.26 30.062C105.761 33.2199 103.469 36.1147 100.383 38.5708C97.2977 41.0269 93.6832 42.869 89.628 44.1848ZM88.1293 16.7287C87.424 16.7287 86.8069 16.4655 86.3661 16.0269C85.8372 15.5883 85.6609 14.9743 85.6609 14.2725C85.6609 13.5708 85.9253 12.9568 86.3661 12.5182C86.8951 12.0796 87.424 11.8164 88.1293 11.8164H103.998C104.703 11.8164 105.232 12.0796 105.761 12.5182C106.202 12.9568 106.466 13.5708 106.466 14.2725C106.466 14.9743 106.202 15.5006 105.761 16.0269C105.32 16.4655 104.703 16.7287 103.998 16.7287H88.1293Z" fill="black"/>
<path d="M120.13 38.395C119.513 38.7459 118.896 38.8336 118.191 38.6582C117.486 38.4828 116.957 38.0442 116.604 37.5179C116.251 36.9038 116.163 36.2021 116.34 35.588C116.516 34.8863 116.957 34.4477 117.574 34.0091C118.72 33.3073 119.866 32.4301 121.1 31.3775C122.334 30.3249 123.392 29.36 124.274 28.395C124.715 27.8687 125.332 27.5179 125.949 27.4301C126.566 27.3424 127.183 27.4301 127.712 27.781C128.241 28.2196 128.594 28.7459 128.77 29.4477C128.858 30.1494 128.77 30.7635 128.329 31.2898C127.624 32.167 126.83 33.0442 125.861 33.9214C124.891 34.7986 123.921 35.588 122.951 36.3775C122.07 37.167 121.1 37.781 120.13 38.395ZM128.505 43.4828C127.8 43.4828 127.183 43.2196 126.742 42.781C126.213 42.2547 126.037 41.7284 126.037 41.0266C126.037 40.3249 126.301 39.7108 126.742 39.1845C127.271 38.6582 127.8 38.4828 128.505 38.4828C129.828 38.4828 130.621 38.3073 131.062 37.9564C131.415 37.6056 131.679 36.8161 131.679 35.588V24.1845H120.659C119.954 24.1845 119.425 23.9214 118.896 23.4828C118.455 23.0442 118.191 22.4301 118.191 21.7284C118.191 21.0266 118.455 20.5003 118.896 19.974C119.337 19.5354 119.954 19.2722 120.659 19.2722H131.679V14.7108C131.679 14.0091 131.944 13.395 132.384 12.9564C132.913 12.5179 133.442 12.2547 134.148 12.2547C134.853 12.2547 135.47 12.5179 135.911 12.9564C136.351 13.395 136.616 14.0091 136.616 14.7108V19.1845H146.842C147.548 19.1845 148.076 19.4477 148.605 19.8863C149.046 20.3249 149.311 20.9389 149.311 21.6407C149.311 22.3424 149.046 22.9564 148.605 23.395C148.165 23.8336 147.548 24.0968 146.842 24.0968H136.616V35.7635C136.616 38.5705 135.999 40.588 134.765 41.7284C133.53 43.0442 131.415 43.4828 128.505 43.4828ZM150.809 37.5179C150.28 37.9564 149.663 38.2196 148.958 38.1319C148.253 38.0442 147.636 37.781 147.195 37.3424C146.666 36.8161 146.049 36.2021 145.255 35.5003C144.462 34.7986 143.669 34.0968 142.875 33.395C142.082 32.6933 141.288 32.167 140.671 31.7284C140.054 31.3775 139.701 30.8512 139.613 30.1494C139.525 29.4477 139.613 28.8336 139.966 28.3073C140.319 27.6933 140.848 27.3424 141.553 27.2547C142.258 27.167 142.875 27.2547 143.404 27.6056C144.109 28.0442 144.991 28.6582 145.873 29.4477C146.842 30.1494 147.724 30.9389 148.694 31.7284C149.575 32.5178 150.369 33.2196 151.074 33.9214C151.603 34.4477 151.779 35.0617 151.779 35.7635C151.779 36.4652 151.338 37.0793 150.809 37.5179ZM149.134 17.8687C148.782 18.2196 148.341 18.3073 147.812 18.3073C147.283 18.3073 146.93 18.0442 146.578 17.6933C146.225 17.3424 145.873 16.8161 145.344 16.2898C144.815 15.7635 144.374 15.2371 143.933 14.7986C143.669 14.5354 143.492 14.1845 143.492 13.7459C143.492 13.3073 143.669 12.9564 144.021 12.6056C144.374 12.3424 144.726 12.167 145.167 12.167C145.608 12.167 145.961 12.3424 146.313 12.6056C146.754 12.9564 147.283 13.395 147.812 13.9214C148.341 14.4477 148.87 14.974 149.223 15.4126C149.487 15.7635 149.663 16.2021 149.663 16.7284C149.751 17.0793 149.575 17.5179 149.134 17.8687ZM150.457 14.1845C150.104 13.8336 149.663 13.395 149.134 12.8687C148.605 12.3424 148.165 11.9038 147.724 11.4652C147.459 11.2021 147.283 10.8512 147.283 10.4126C147.283 9.97399 147.371 9.5354 147.724 9.18452C147.988 8.83364 148.341 8.6582 148.782 8.6582C149.223 8.6582 149.663 8.74592 150.016 9.00908C150.457 9.27224 150.986 9.71083 151.603 10.1494C152.22 10.6757 152.749 11.1143 153.101 11.5529C153.454 11.9038 153.63 12.3424 153.63 12.781C153.63 13.2196 153.454 13.6582 153.101 14.0968C152.749 14.4477 152.308 14.6231 151.867 14.6231C151.25 14.6231 150.809 14.4477 150.457 14.1845Z" fill="black"/>
<path d="M179.549 44.36C178.931 44.36 178.403 44.1845 177.962 43.7459C177.521 43.3074 177.256 42.781 177.256 42.0793V36.2898C176.199 37.167 175.053 38.0442 173.818 38.9214C172.584 39.7986 171.262 40.5881 169.939 41.3775C168.617 42.167 167.295 42.781 166.06 43.3074C165.355 43.5705 164.65 43.6582 164.121 43.4828C163.592 43.3074 163.151 42.9565 162.887 42.3424C162.622 41.7284 162.622 41.2021 162.799 40.5881C162.975 40.0617 163.416 39.6231 164.121 39.36C165.796 38.7459 167.383 37.9565 169.058 36.9916C170.733 36.1144 172.231 35.1495 173.642 34.1845H169.763C167.735 34.1845 166.325 33.7459 165.531 32.9565C164.738 32.167 164.474 30.8512 164.826 29.0968C165.091 27.8687 165.443 26.9038 165.796 26.2898C166.149 25.6758 166.854 25.1495 167.735 24.8863C168.617 24.6231 169.763 24.4477 171.262 24.4477H177.256V22.3424H166.06C165.531 22.3424 165.091 22.167 164.65 21.7284C164.297 21.2898 164.033 20.8512 164.033 20.3249C164.033 19.7986 164.209 19.36 164.65 18.9214C165.003 18.4828 165.531 18.3073 166.06 18.3073H171.614C170.997 18.1319 170.556 17.6933 170.38 17.167C170.292 16.8161 170.116 16.3775 169.939 15.7635C169.763 15.2372 169.587 14.7986 169.41 14.36H167.383C167.03 14.8863 166.678 15.3249 166.325 15.8512C165.972 16.2898 165.62 16.7284 165.355 17.167C164.914 17.6933 164.474 18.0442 163.856 18.2196C163.328 18.3951 162.71 18.3073 162.093 17.9565C161.653 17.6933 161.3 17.2547 161.212 16.6407C161.035 16.1144 161.212 15.5881 161.564 15.1495C162.093 14.5354 162.622 13.8337 163.151 13.0442C163.68 12.2547 164.297 11.3775 164.826 10.5003C165.355 9.62314 165.796 8.83366 166.06 8.13191C166.325 7.51787 166.766 7.07928 167.295 6.90384C167.824 6.7284 168.441 6.81612 168.97 7.07928C169.499 7.25472 169.939 7.69331 170.116 8.13191C170.38 8.65823 170.292 9.18454 170.028 9.79858C169.939 9.97402 169.939 10.0617 169.851 10.2372C169.763 10.4126 169.675 10.5881 169.587 10.6758H177.256C177.785 10.6758 178.226 10.8512 178.579 11.2021C178.931 11.553 179.108 11.9916 179.108 12.5179C179.108 12.6933 179.108 12.8688 179.02 13.0442C179.549 12.167 180.078 11.3775 180.606 10.4126C181.135 9.53542 181.488 8.74595 181.841 8.04419C182.105 7.43016 182.546 6.99156 183.163 6.81612C183.692 6.55296 184.309 6.64068 184.926 6.90384C185.543 7.167 185.984 7.51787 186.16 8.04419C186.337 8.57051 186.337 9.18454 186.072 9.79858C185.984 9.97402 185.984 10.0617 185.896 10.2372C185.808 10.4126 185.72 10.5003 185.72 10.6758H195.417C195.946 10.6758 196.387 10.8512 196.739 11.2021C197.092 11.553 197.18 11.9916 197.18 12.5179C197.18 13.0442 197.004 13.4828 196.739 13.8337C196.475 14.1845 195.946 14.36 195.417 14.36H190.304C190.392 14.5354 190.48 14.7986 190.568 14.974C190.656 15.2372 190.745 15.4126 190.745 15.5881C190.921 16.1144 190.921 16.6407 190.745 17.167C190.48 17.6933 190.128 18.0442 189.51 18.3073H189.422C191.097 18.3951 192.243 18.8337 192.86 19.5354C193.478 20.3249 193.83 21.4652 193.83 23.1319C193.83 24.8863 193.478 26.2021 192.684 26.9038C191.891 27.6056 190.568 28.0442 188.541 28.0442H181.929V30.1495H190.48C192.42 30.1495 193.83 30.5881 194.8 31.553C195.681 32.4302 196.034 33.9214 195.77 35.8512C195.593 37.6056 195.153 39.0091 194.447 39.974C193.83 40.9389 192.949 41.553 191.979 41.9038C190.921 42.2547 189.775 42.4302 188.364 42.4302C187.571 42.4302 186.954 42.2547 186.513 41.9038C185.984 41.553 185.72 41.0266 185.72 40.2372C185.72 39.5354 185.896 39.0091 186.249 38.4828C186.601 38.0442 187.218 37.6933 187.924 37.6933C188.629 37.6056 189.246 37.5179 189.599 37.4302C189.951 37.3424 190.304 37.167 190.48 36.9916C190.656 36.7284 190.833 36.3775 190.921 35.9389C191.009 35.2372 191.009 34.7986 190.833 34.5354C190.656 34.2723 190.128 34.1845 189.422 34.1845H182.105V42.0793C182.105 42.781 181.841 43.3074 181.4 43.7459C180.695 44.1845 180.166 44.36 179.549 44.36ZM170.733 30.3249H177.256V28.2196H170.997C170.38 28.2196 169.939 28.3073 169.763 28.4828C169.499 28.6582 169.41 28.9214 169.322 29.2723C169.234 29.7109 169.322 29.974 169.499 30.1495C169.675 30.3249 170.116 30.3249 170.733 30.3249ZM174.435 15.8512C174.612 16.3775 174.612 16.9038 174.435 17.4302C174.171 17.9565 173.818 18.3073 173.201 18.5705H178.931C178.667 18.5705 178.403 18.3951 178.138 18.2196C177.609 17.8688 177.256 17.4302 177.168 16.8161C177.08 16.2021 177.256 15.6758 177.609 15.2372C177.697 15.0617 177.874 14.974 177.962 14.7986C178.05 14.6231 178.226 14.4477 178.314 14.2723C177.962 14.4477 177.609 14.6231 177.256 14.6231H173.995C174.083 14.7986 174.171 15.0617 174.259 15.2372C174.347 15.4126 174.435 15.588 174.435 15.8512ZM179.813 18.4828H187.747C187.13 18.3073 186.689 17.8688 186.513 17.3424C186.425 16.9916 186.249 16.553 186.072 16.0266C185.896 15.5003 185.72 14.974 185.543 14.6231H183.516C183.163 15.1495 182.81 15.588 182.546 16.1144C182.193 16.553 181.929 16.9916 181.576 17.4302C181.047 18.0442 180.43 18.3951 179.813 18.4828ZM181.841 24.5354H187.571C188.188 24.5354 188.541 24.4477 188.717 24.36C188.893 24.1845 188.981 23.9214 188.981 23.4828C188.981 23.0442 188.893 22.781 188.717 22.6933C188.541 22.6056 188.1 22.5179 187.571 22.5179H181.841V24.5354Z" fill="black"/>
<path d="M215.958 31.377C208.817 31.377 203.616 26.4647 203.616 19.0963C203.616 12.0787 208.024 6.37695 216.839 6.37695C225.479 6.37695 230.945 12.605 230.945 24.5348C230.945 37.605 226.449 44.5348 216.663 44.5348C209.787 44.5348 206.525 41.4647 205.114 38.6577C204.938 38.2191 204.85 37.8682 204.85 37.5173C204.85 36.4647 205.467 35.4998 206.613 34.9734C207.23 34.6226 207.847 34.5348 208.376 34.5348C209.258 34.5348 210.051 34.8857 210.58 35.7629C211.55 37.5173 213.313 39.2717 216.751 39.2717C222.746 39.2717 224.95 33.5699 225.038 26.5524C223.099 29.7103 220.189 31.377 215.958 31.377ZM209.61 18.9208C209.61 23.4822 212.608 26.2015 216.839 26.2015C221.159 26.2015 224.245 23.2191 224.245 19.0085C224.245 14.798 221.247 11.6401 216.928 11.6401C212.52 11.7278 209.61 14.6226 209.61 18.9208Z" fill="black"/>
<path d="M241.524 43.6587C240.818 43.6587 240.201 43.4832 239.672 43.1323C239.232 42.7815 238.967 42.2551 238.879 41.5534C238.791 40.8516 238.967 40.3253 239.408 39.8867C239.761 39.4481 240.289 39.185 240.995 39.0972C241.964 39.0095 242.67 38.9218 243.199 38.7464C243.728 38.6587 244.08 38.3955 244.345 37.9569C244.609 37.606 244.786 37.0797 244.962 36.378C245.05 35.5885 245.226 34.799 245.314 33.8341C245.403 32.9569 245.491 31.992 245.579 31.0271C245.667 30.2376 245.491 29.7113 245.226 29.4481C244.962 29.185 244.433 29.0095 243.639 29.0095H242.317C240.907 29.0095 239.937 28.7464 239.32 28.1323C238.703 27.5183 238.526 26.5534 238.703 25.1499C238.791 24.2727 238.879 23.4832 238.967 22.7815C239.055 22.0797 239.055 21.2902 239.143 20.5008C239.232 19.185 239.584 18.3078 240.201 17.7815C240.818 17.2551 241.788 16.992 243.022 16.992H243.904C244.609 16.992 245.05 16.9043 245.314 16.7288C245.579 16.5534 245.667 16.2025 245.667 15.6762V14.6236C245.667 14.0095 245.579 13.5709 245.314 13.3955C245.05 13.2201 244.609 13.0446 243.904 13.0446H239.761C239.143 13.0446 238.703 12.8692 238.262 12.4306C237.909 12.0797 237.733 11.5534 237.733 11.0271C237.733 10.5008 237.909 9.97444 238.262 9.62356C238.614 9.27268 239.143 9.00953 239.761 9.00953H245.843C247.43 9.00953 248.488 9.3604 249.193 9.97444C249.899 10.5885 250.163 11.6411 250.163 13.1323V16.8165C250.163 18.3078 249.811 19.2727 249.193 19.8867C248.576 20.5008 247.607 20.7639 246.372 20.7639H245.05C244.433 20.7639 243.992 20.8516 243.728 21.0271C243.463 21.2025 243.287 21.5534 243.287 22.0797C243.287 22.3429 243.287 22.5183 243.287 22.6937C243.287 22.8692 243.287 23.0446 243.287 23.2201C243.199 23.8341 243.287 24.2727 243.551 24.4481C243.816 24.6236 244.257 24.7113 244.874 24.7113H246.284C247.783 24.7113 248.841 25.0622 249.458 25.6762C250.075 26.3779 250.428 27.3429 250.339 28.7464C250.251 30.2376 250.163 31.8165 250.075 33.3078C249.899 34.799 249.811 36.1148 249.634 37.2551C249.37 38.9218 248.929 40.2376 248.224 41.1148C247.518 41.992 246.637 42.6937 245.579 43.0446C244.433 43.4832 243.111 43.6587 241.524 43.6587ZM262.329 44.185C261.712 44.185 261.183 44.0095 260.742 43.5709C260.301 43.2201 260.125 42.6937 260.125 41.992V36.9043H252.455C251.838 36.9043 251.397 36.7288 251.045 36.2902C250.692 35.9394 250.516 35.413 250.516 34.8867C250.516 34.3604 250.692 33.8341 251.045 33.4832C251.397 33.1323 251.926 32.8692 252.455 32.8692H260.125V30.7639H258.714C256.422 30.7639 254.747 30.3253 253.778 29.4481C252.808 28.5709 252.279 27.0797 252.279 24.8867V21.7288C252.279 19.5358 252.808 18.0446 253.778 17.1674C254.747 16.2902 256.422 15.8516 258.714 15.8516H264.709V15.7639V15.6762C264.974 15.1499 265.326 14.4481 265.767 13.6586C266.208 12.8692 266.649 11.992 267.001 11.1148C267.442 10.2376 267.707 9.62356 267.971 9.09725C268.236 8.48321 268.588 8.04461 269.117 7.86917C269.646 7.60602 270.263 7.60602 270.792 7.86917C271.321 8.04461 271.762 8.48321 272.026 9.00953C272.291 9.53584 272.291 10.0622 272.026 10.6762C271.85 11.1148 271.497 11.7288 271.145 12.3429C270.792 13.0446 270.439 13.7464 269.999 14.4481C269.646 15.1499 269.293 15.7639 268.941 16.2902C270.087 16.6411 270.968 17.2551 271.497 18.1323C272.026 19.0095 272.291 20.2376 272.291 21.8165V24.9744C272.291 27.1674 271.762 28.6586 270.792 29.5358C269.734 30.413 268.147 30.8516 265.855 30.8516H264.445V32.9569H272.379C272.996 32.9569 273.437 33.1323 273.789 33.5709C274.142 33.9218 274.318 34.4481 274.318 34.9744C274.318 35.5008 274.142 35.9394 273.789 36.378C273.437 36.8165 272.908 36.992 272.379 36.992H264.445V41.992C264.445 42.606 264.268 43.1323 263.828 43.5709C263.475 43.9218 262.946 44.185 262.329 44.185ZM256.863 15.413C256.334 15.6762 255.805 15.7639 255.276 15.5885C254.747 15.5008 254.307 15.1499 254.042 14.6236C253.866 14.3604 253.689 14.0095 253.425 13.5709C253.161 13.1323 252.896 12.6937 252.632 12.2551C252.367 11.8165 252.191 11.4657 252.014 11.2902C251.75 10.7639 251.662 10.2376 251.838 9.71128C252.014 9.18496 252.367 8.74637 252.808 8.48321C253.337 8.22005 253.866 8.13233 254.483 8.30777C255.1 8.48321 255.541 8.83409 255.805 9.3604C255.982 9.62356 256.158 9.88672 256.422 10.3253C256.687 10.7639 256.863 11.2025 257.128 11.5534C257.392 11.992 257.568 12.2551 257.657 12.5183C257.921 13.0446 258.009 13.5709 257.833 14.0972C257.745 14.7113 257.392 15.0622 256.863 15.413ZM256.511 21.6411H260.125V19.185H259.155C258.097 19.185 257.392 19.3604 257.039 19.6236C256.687 19.9744 256.511 20.5008 256.511 21.4657V21.6411ZM259.155 27.3429H260.125V24.8867H256.511V25.0622C256.511 25.9394 256.687 26.5534 257.039 26.9043C257.48 27.2551 258.186 27.3429 259.155 27.3429ZM262.858 14.9744C262.329 15.1499 261.8 15.1499 261.271 14.9744C260.742 14.799 260.389 14.3604 260.213 13.8341C260.125 13.5709 260.037 13.1323 259.861 12.6937C259.684 12.2551 259.508 11.7288 259.332 11.2902C259.155 10.8516 258.979 10.413 258.891 10.1499C258.626 9.53584 258.714 9.00953 258.979 8.48321C259.243 7.95689 259.684 7.69374 260.213 7.5183C260.83 7.34286 261.359 7.34286 261.888 7.5183C262.417 7.78146 262.77 8.13233 263.034 8.74637C263.122 9.00953 263.299 9.3604 263.475 9.799C263.651 10.2376 263.828 10.7639 264.004 11.2025C264.18 11.6411 264.268 12.0797 264.357 12.3429C264.533 12.9569 264.533 13.4832 264.268 14.0095C264.004 14.5358 263.475 14.7113 262.858 14.9744ZM264.533 21.6411H268.236V21.4657C268.236 20.5885 268.059 19.9744 267.707 19.6236C267.354 19.2727 266.649 19.185 265.591 19.185H264.533V21.6411ZM264.533 27.3429H265.591C266.649 27.3429 267.354 27.1674 267.707 26.9043C268.059 26.5534 268.236 26.0271 268.236 25.0622V24.8867H264.533V27.3429Z" fill="black"/>
<path d="M299.796 40.5882C299.091 40.7637 298.474 40.6759 297.945 40.3251C297.328 39.9742 296.975 39.5356 296.799 38.8338C296.622 38.2198 296.711 37.6058 297.063 37.0794C297.416 36.5531 297.857 36.1145 298.562 36.0268C301.471 35.2373 303.675 34.0093 305.086 32.3426C306.496 30.6759 307.201 28.483 307.201 25.8514C307.201 24.1847 306.849 22.6935 306.055 21.3777C305.35 20.0619 304.292 19.0093 302.882 18.2198C301.559 17.4303 299.884 16.904 297.945 16.7286C297.504 21.1145 296.711 24.9742 295.565 28.2198C294.419 31.4654 293.096 33.9215 291.597 35.6759C290.099 37.4303 288.512 38.3075 286.837 38.3075C285.426 38.3075 284.192 37.8689 282.958 37.0794C281.812 36.29 280.842 35.0619 280.225 33.5707C279.608 32.0794 279.255 30.2373 279.255 28.0444C279.255 25.8514 279.696 23.8338 280.49 21.904C281.283 19.9742 282.517 18.3075 284.016 16.904C285.515 15.5005 287.366 14.3601 289.394 13.483C291.509 12.6935 293.713 12.2549 296.27 12.2549C299.267 12.2549 302 12.8689 304.292 14.0093C306.672 15.1496 308.436 16.7286 309.846 18.7461C311.169 20.7637 311.874 23.1321 311.874 25.8514C311.874 29.6233 310.816 32.8689 308.788 35.4128C306.672 37.7812 303.675 39.5356 299.796 40.5882ZM286.837 33.2198C287.278 33.2198 287.895 32.7812 288.512 31.9917C289.129 31.2023 289.746 30.0619 290.363 28.5707C290.98 27.0794 291.597 25.3251 292.126 23.3075C292.655 21.29 293.008 19.097 293.272 16.6408C291.245 17.0794 289.482 17.7812 288.071 18.9215C286.661 20.0619 285.603 21.3777 284.897 22.8689C284.192 24.4479 283.84 26.0268 283.751 27.6935C283.751 29.4479 284.016 30.8514 284.633 31.7286C285.25 32.7812 285.955 33.2198 286.837 33.2198Z" fill="black"/>
<path d="M335.147 43.9219C334.442 43.9219 333.913 43.6588 333.384 43.2202C332.855 42.7816 332.679 42.1675 332.679 41.4658V26.9044H319.191C318.486 26.9044 317.957 26.6412 317.516 26.2026C317.075 25.764 316.811 25.2377 316.811 24.536C316.811 23.9219 317.075 23.3079 317.516 22.8693C317.957 22.4307 318.486 22.1675 319.191 22.1675H332.679V14.1851H321.659C321.042 14.1851 320.513 13.9219 320.072 13.4833C319.632 13.0447 319.367 12.5184 319.367 11.8167C319.367 11.1149 319.632 10.5886 320.072 10.15C320.513 9.7114 321.042 9.44824 321.659 9.44824H348.812C349.429 9.44824 349.958 9.7114 350.487 10.15C350.928 10.5886 351.192 11.1149 351.192 11.8167C351.192 12.4307 350.928 13.0447 350.487 13.4833C350.046 13.9219 349.517 14.1851 348.812 14.1851H337.616V22.4307H351.192C351.809 22.4307 352.338 22.6939 352.867 23.1325C353.308 23.571 353.572 24.0974 353.572 24.7991C353.572 25.5009 353.308 26.0272 352.867 26.4658C352.426 26.9044 351.897 27.1675 351.192 27.1675H337.616V41.7289C337.616 42.4307 337.351 43.0447 336.911 43.4833C336.382 43.7465 335.853 43.9219 335.147 43.9219Z" fill="black"/>
<path d="M360.272 44.097C359.391 44.2724 358.686 44.2724 358.157 44.0093C357.628 43.7461 357.187 43.3075 357.011 42.6935C356.746 41.9917 356.834 41.3777 357.099 40.7637C357.363 40.1496 357.98 39.7987 358.95 39.6233C361.418 39.097 363.622 38.3952 365.65 37.6058C367.678 36.8163 369.617 35.9391 371.292 34.8865C370.058 33.6584 368.912 32.2549 367.854 30.7637C366.796 29.2724 365.915 27.6058 365.121 25.7637H362.212C361.507 25.7637 360.978 25.5882 360.625 25.1496C360.184 24.711 360.008 24.1847 360.008 23.5707C360.008 22.9566 360.184 22.4303 360.625 21.9917C361.066 21.5531 361.595 21.3777 362.212 21.3777H372.438V17.518H358.862C358.245 17.518 357.716 17.3426 357.363 16.904C357.011 16.4654 356.746 16.0268 356.746 15.4128C356.746 14.7987 356.922 14.2724 357.363 13.9215C357.716 13.483 358.245 13.3075 358.862 13.3075H372.438V9.6233C372.438 8.92155 372.703 8.30751 373.143 7.86892C373.584 7.43032 374.201 7.25488 374.907 7.25488C375.612 7.25488 376.141 7.43032 376.67 7.86892C377.111 8.30751 377.375 8.92155 377.375 9.6233V13.3075H390.951C391.568 13.3075 392.097 13.483 392.45 13.9215C392.803 14.2724 393.067 14.7987 393.067 15.4128C393.067 16.0268 392.891 16.4654 392.45 16.904C392.097 17.3426 391.568 17.518 390.951 17.518H377.375V21.3777H379.579C381.518 21.3777 383.105 21.8163 384.075 22.518C385.133 23.3075 385.662 24.3601 385.662 25.5882C385.662 26.904 385.133 28.2198 384.075 29.6233C382.576 31.5531 380.901 33.3952 379.05 34.9742C380.725 35.9391 382.665 36.8163 384.604 37.518C386.632 38.2198 388.747 38.7461 390.951 39.1847C391.745 39.3601 392.362 39.6233 392.715 40.1496C393.067 40.6759 393.243 41.3777 393.067 42.0794C392.891 42.8689 392.45 43.3952 391.833 43.6584C391.216 43.9215 390.511 44.0093 389.629 43.8338C386.896 43.3075 384.34 42.518 381.871 41.4654C379.403 40.5005 377.111 39.2724 375.083 37.7812C370.94 40.6759 366.003 42.6058 360.272 44.097ZM375.083 32.2549C376.67 31.0268 378.08 29.6233 379.315 28.1321C379.932 27.3426 380.196 26.7286 380.02 26.3777C379.843 25.9391 379.05 25.7637 377.904 25.7637H369.97C371.204 28.1321 372.879 30.3251 375.083 32.2549Z" fill="black"/>
<path d="M402.412 42.3423C401.706 42.43 401.178 42.3423 400.649 41.9914C400.12 41.6405 399.767 41.1142 399.679 40.5002C399.503 39.623 399.414 38.4826 399.326 36.9914C399.238 35.5002 399.15 33.8335 399.15 31.9037C399.15 30.0616 399.15 28.1318 399.15 26.1142C399.15 24.0967 399.238 22.1669 399.326 20.237C399.414 18.3072 399.591 16.5528 399.767 15.0616C399.943 13.4826 400.12 12.2546 400.384 11.2897C400.56 10.6756 400.913 10.1493 401.442 9.79843C401.971 9.44756 402.588 9.35984 403.205 9.53528C403.822 9.71071 404.351 10.0616 404.704 10.5879C405.056 11.1142 405.145 11.7283 404.968 12.3423C404.704 13.3072 404.528 14.5353 404.351 16.0265C404.175 17.5177 404.087 19.0967 403.999 20.8511C403.91 22.6055 403.822 24.3598 403.822 26.2019C403.822 28.044 403.734 29.7984 403.822 31.5528C403.822 33.3072 403.91 34.7984 403.999 36.2897C404.087 37.6932 404.175 38.8335 404.351 39.7107C404.439 40.3248 404.351 40.9388 403.999 41.4651C403.558 41.9037 403.029 42.1669 402.412 42.3423ZM415.635 42.1669C413.52 42.1669 411.845 41.6405 410.522 40.5879C409.2 39.5353 408.583 38.044 408.583 36.1142C408.583 34.2721 409.2 32.7809 410.522 31.6405C411.845 30.5879 413.608 29.9739 415.812 29.9739C416.517 29.9739 417.222 29.9739 417.928 30.0616C417.928 28.8335 417.839 27.5177 417.839 26.0265C417.839 24.5353 417.751 23.044 417.663 21.5528C416.253 21.6405 414.93 21.7283 413.608 21.7283C412.285 21.7283 411.139 21.7283 410.258 21.7283C409.553 21.7283 409.024 21.4651 408.583 21.0265C408.142 20.5879 407.966 19.9739 407.966 19.3598C408.054 18.7458 408.318 18.2195 408.759 17.7809C409.2 17.3423 409.729 17.1669 410.434 17.1669C411.316 17.1669 412.462 17.1669 413.696 17.1669C414.93 17.1669 416.253 17.0791 417.663 16.9914C417.663 16.0265 417.663 15.0616 417.663 14.0967C417.663 13.2195 417.663 12.3423 417.663 11.4651C417.663 10.8511 417.928 10.237 418.368 9.79843C418.809 9.35984 419.338 9.09668 420.043 9.09668C420.749 9.09668 421.278 9.35984 421.718 9.79843C422.159 10.237 422.424 10.8511 422.424 11.4651C422.424 12.2546 422.424 13.1318 422.424 14.009C422.424 14.8862 422.424 15.7633 422.424 16.6405C423.57 16.5528 424.628 16.4651 425.597 16.2897C426.567 16.2019 427.36 16.1142 428.066 15.9388C428.683 15.8511 429.3 15.9388 429.829 16.2897C430.358 16.6405 430.71 17.1669 430.799 17.7809C430.887 18.3949 430.799 19.009 430.358 19.5353C430.005 20.0616 429.476 20.3248 428.859 20.4125C428.154 20.5002 427.184 20.5879 426.126 20.7633C425.068 20.9388 423.834 21.0265 422.6 21.1142C422.688 22.9563 422.688 24.7107 422.776 26.4651C422.864 28.2195 422.864 29.7107 422.864 31.0265C424.275 31.4651 425.685 32.0791 427.008 32.6932C428.33 33.3949 429.388 34.009 430.358 34.7107C430.887 35.1493 431.239 35.5879 431.328 36.2897C431.416 36.9037 431.328 37.5177 430.975 38.0441C430.622 38.5704 430.093 38.9212 429.476 39.009C428.859 39.1844 428.242 39.009 427.713 38.5704C427.096 38.0441 426.303 37.6055 425.509 37.0791C424.716 36.5528 423.922 36.2019 423.041 35.8511C422.424 40.1493 420.043 42.1669 415.635 42.1669ZM415.635 37.7809C417.31 37.7809 418.104 36.9914 418.104 35.4125C418.104 35.3248 418.104 35.237 418.104 35.0616C418.104 34.9739 418.104 34.7984 418.104 34.623C417.31 34.4476 416.517 34.3598 415.724 34.3598C414.93 34.3598 414.313 34.5353 413.96 34.7984C413.608 35.1493 413.343 35.5002 413.343 36.0265C413.343 36.5528 413.52 36.9037 413.872 37.1669C414.137 37.6055 414.754 37.7809 415.635 37.7809Z" fill="black"/>
<path d="M439.879 43.6579C439.174 43.3948 438.821 42.9562 438.556 42.3421C438.38 41.7281 438.38 41.1141 438.733 40.5877C439.526 39.0088 440.231 37.2544 440.76 35.4123C441.289 33.5702 441.73 31.4649 441.995 29.0965C442.259 26.7281 442.435 23.8334 442.435 20.5877V17.1667C442.435 15.0614 442.7 13.3948 443.317 12.2544C443.934 11.0263 444.904 10.2369 446.314 9.71054C447.725 9.18423 449.576 9.00879 451.956 9.00879H472.585C473.203 9.00879 473.643 9.18423 474.084 9.62282C474.525 10.0614 474.613 10.5 474.613 11.0263C474.613 11.5526 474.437 12.079 474.084 12.4298C473.732 12.8684 473.203 13.0439 472.585 13.0439H451.956C450.634 13.0439 449.664 13.1316 448.871 13.3948C448.166 13.6579 447.637 14.0088 447.284 14.6228C446.931 15.2369 446.843 16.1141 446.843 17.2544V22.4298H473.114C473.731 22.4298 474.172 22.6053 474.525 23.0439C474.878 23.4825 475.054 23.9211 475.054 24.4474C475.054 24.9737 474.878 25.5 474.525 25.8509C474.172 26.2018 473.731 26.4649 473.114 26.4649H462.006C462.712 28.0439 463.593 29.6228 464.563 31.0263C465.004 30.6755 465.533 30.3246 466.062 29.886C466.591 29.4474 467.12 29.0088 467.649 28.6579C468.178 28.2193 468.53 27.9562 468.795 27.693C469.235 27.2544 469.853 27.079 470.47 27.079C471.087 27.079 471.616 27.3421 472.057 27.7807C472.497 28.2193 472.585 28.7456 472.585 29.3597C472.497 29.9737 472.233 30.4123 471.704 30.8509C471.351 31.114 470.91 31.4649 470.381 31.8158C469.853 32.2544 469.324 32.6053 468.706 33.0439C468.178 33.4825 467.649 33.8334 467.208 34.1842C468.178 35.1491 469.235 36.0263 470.381 36.9035C471.528 37.7807 472.762 38.4825 473.996 39.1842C474.613 39.5351 475.054 39.9737 475.23 40.5877C475.406 41.2018 475.406 41.8158 475.054 42.3421C474.701 43.0439 474.172 43.3948 473.467 43.4825C472.762 43.6579 472.145 43.4825 471.528 43.1316C467.913 41.1141 465.004 38.7456 462.8 35.9386C460.596 33.2193 458.833 29.9737 457.687 26.2895H454.778V37.7807C455.747 37.6053 456.629 37.4298 457.51 37.2544C458.392 37.079 459.185 36.9912 459.891 36.8158C460.508 36.7281 461.125 36.7281 461.566 36.9912C462.006 37.2544 462.271 37.693 462.359 38.307C462.447 38.9211 462.447 39.4474 462.183 39.886C461.918 40.3246 461.478 40.5877 460.86 40.7632C460.155 40.9386 459.185 41.1141 458.039 41.2895C456.893 41.4649 455.659 41.7281 454.337 41.9912C453.014 42.2544 451.78 42.5176 450.634 42.693C449.488 42.8684 448.518 43.1316 447.725 43.307C447.02 43.4825 446.403 43.307 445.874 43.0439C445.345 42.693 445.08 42.2544 444.992 41.4649C444.904 40.8509 444.992 40.3246 445.345 39.886C445.697 39.4474 446.226 39.0965 446.931 39.0088C447.372 38.9211 447.901 38.8333 448.43 38.7456C448.959 38.6579 449.576 38.5702 450.105 38.4825V26.2018H446.667C446.579 28.5702 446.314 30.6755 446.05 32.5176C445.785 34.3597 445.345 36.114 444.816 37.6053C444.287 39.1842 443.67 40.6755 442.964 42.079C442.7 42.693 442.259 43.0439 441.642 43.307C441.113 43.9211 440.496 43.9211 439.879 43.6579ZM450.282 19.6228C449.664 19.6228 449.224 19.4474 448.871 19.0088C448.518 18.6579 448.342 18.2193 448.342 17.693C448.342 17.1667 448.518 16.7281 448.871 16.3772C449.224 16.0263 449.664 15.8509 450.282 15.8509H469.941C470.558 15.8509 470.999 16.0263 471.351 16.3772C471.704 16.7281 471.88 17.1667 471.88 17.693C471.88 18.2193 471.704 18.6579 471.351 19.0088C470.999 19.3597 470.558 19.6228 469.941 19.6228H450.282Z" fill="black"/>
<path d="M487.132 43.0442C486.162 42.9565 485.368 42.5179 484.751 41.8161C484.134 41.1144 483.87 40.2372 483.958 39.2723C484.046 38.3074 484.487 37.5179 485.192 36.9039C485.897 36.2898 486.779 36.0267 487.749 36.1144C488.718 36.2021 489.512 36.6407 490.129 37.3425C490.746 38.0442 491.011 38.9214 490.922 39.8863C490.834 40.8512 490.393 41.6407 489.688 42.2547C488.983 42.8688 488.101 43.0442 487.132 43.0442ZM488.101 33.2197C486.779 33.1319 486.162 32.167 486.25 30.3249L487.22 12.8688C487.308 11.0267 488.278 10.2372 490.129 10.3249C491.98 10.5004 492.862 11.4653 492.597 13.3074L490.482 30.5881C490.129 32.5179 489.336 33.3951 488.101 33.2197Z" fill="black"/>
<path d="M3.40918 7.69336L18.4842 43.6583" stroke="black" stroke-width="8" stroke-miterlimit="10" stroke-linecap="round" stroke-linejoin="round"/>
<path d="M533.591 7.69336L518.516 43.6583" stroke="black" stroke-width="8" stroke-miterlimit="10" stroke-linecap="round" stroke-linejoin="round"/>
</g>
<defs>
<clipPath id="clip0_367_123">
<rect width="536" height="50" fill="white" transform="translate(0.5 0.5)"/>
</clipPath>
</defs>
</svg>
