<svg width="545" height="66" viewBox="0 0 545 66" fill="none" xmlns="http://www.w3.org/2000/svg">
<path d="M9.38803 64.2667C8.08096 64.5281 7.03532 64.2667 5.98966 63.7439C4.94401 63.2211 4.42119 62.4368 4.15977 61.1298C3.89836 59.8227 4.15977 58.7771 4.6826 57.9928C5.20543 56.9472 6.25108 56.6857 7.29673 56.4243C8.8652 56.1629 10.4337 55.9015 11.4793 55.1173C12.525 54.5944 13.3092 53.2874 13.832 51.4575C14.3549 49.6276 14.6163 47.2749 14.6163 43.8765C14.6163 41.7852 14.6163 39.6939 14.3549 37.864C13.3092 39.4325 12.2636 40.7396 11.2179 42.308C10.1723 43.6151 9.12662 44.9222 8.08096 45.9678C7.29673 46.752 6.51249 47.2749 5.46684 47.5363C4.42119 47.7977 3.37554 47.2749 2.5913 46.7521C1.80706 46.2292 1.28424 45.1836 1.28424 44.3994C1.28424 43.6151 1.54565 42.5695 2.32989 41.7852C3.63696 40.4782 4.6826 38.9097 5.98966 37.3412C7.29673 35.7727 8.60379 33.9429 9.91086 32.113C11.2179 30.2831 12.0022 28.7146 12.7864 27.4075C12.525 26.3619 12.2636 25.5776 12.0022 24.7934C11.7407 24.0092 11.4793 23.2249 10.9565 22.1793C9.64945 23.4863 8.60379 24.532 7.29673 25.839C6.51249 26.6233 5.72826 26.8847 4.42119 26.8847C3.37554 26.8847 2.32988 26.6233 1.54565 25.839C0.761407 25.0548 0.5 24.2706 0.5 23.2249C0.5 22.1793 1.02282 21.395 1.54565 20.6108C3.37553 19.0423 4.94402 17.2124 7.03532 15.1211C6.25108 14.0755 5.72826 13.0298 4.94402 11.9841C4.15978 10.9385 3.37554 9.89285 2.5913 8.8472C2.06847 8.06296 1.80706 7.27872 2.06847 6.23307C2.32989 5.18742 2.85272 4.66459 3.63696 4.14176C4.42119 3.61894 5.20543 3.35753 6.25108 3.61894C7.29673 3.61894 8.08097 4.14177 8.60379 4.92601C9.91086 6.49448 10.9565 7.80156 12.2636 9.63145C12.7864 8.84721 13.5706 7.80156 14.0935 7.01732C14.6163 6.23308 15.1391 5.44886 15.6619 4.66462C16.1848 3.61897 16.969 3.09611 18.0147 2.8347C19.0603 2.57328 19.8445 2.5733 20.8902 3.09613C21.9358 3.61895 22.4587 4.4032 22.7201 5.18744C22.9815 5.97167 22.7201 7.0173 22.1973 8.06295C21.413 9.37002 20.6288 10.6771 19.5831 12.2456C18.5375 13.8141 17.4918 15.1211 16.4462 16.4282C18.2761 20.3494 19.8445 24.532 20.6288 28.976C21.6744 33.42 21.9358 38.6483 21.9358 44.3994C21.9358 49.6276 21.413 53.5488 20.3674 56.4243C19.3217 59.2999 18.0147 61.1298 16.1848 62.4368C14.3549 63.2211 12.2636 64.0053 9.38803 64.2667ZM35.5293 25.3162C34.4837 25.3162 33.438 25.0548 32.6538 24.2706C31.8695 23.7478 31.6081 22.7021 31.6081 21.395V17.4738H24.2886C23.2429 17.4738 22.4587 17.2124 21.6744 16.4282C21.1516 15.644 20.6288 14.8597 20.6288 14.0755C20.6288 13.2912 20.8902 12.2456 21.6744 11.7228C22.1973 10.9385 23.2429 10.6771 24.2886 10.6771H31.6081V5.71025C31.6081 4.40319 31.8695 3.35752 32.6538 2.8347C33.438 2.31187 34.2222 1.78906 35.5293 1.78906C36.8364 1.78906 37.3592 2.05046 38.1434 2.8347C38.9277 3.35752 39.1891 4.40319 39.1891 5.71025V10.6771H46.5087V5.71025C46.5087 4.40319 46.7701 3.35752 47.5543 2.8347C48.3385 2.31187 49.1228 1.78906 50.1684 1.78906C51.2141 1.78906 51.9983 2.05046 52.7825 2.8347C53.5668 3.35752 53.8282 4.40319 53.8282 5.71025V10.6771H61.1478C62.1934 10.6771 62.9777 10.9385 63.7619 11.7228C64.2847 12.507 64.8075 13.2912 64.8075 14.0755C64.8075 14.8597 64.5461 15.9054 63.7619 16.4282C63.2391 17.2124 62.1934 17.4738 61.1478 17.4738H53.8282V21.6565C53.8282 22.9635 53.5668 23.7477 52.7825 24.532C51.9983 25.0548 51.2141 25.5776 50.1684 25.5776C49.1228 25.5776 48.3385 25.3162 47.5543 24.532C46.7701 24.0091 46.5087 22.9635 46.5087 21.6565V17.4738H39.1891V21.6565C39.1891 22.9635 38.9277 23.7477 38.1434 24.532C37.3592 25.0548 36.575 25.3162 35.5293 25.3162ZM38.4049 63.2211C33.6994 63.2211 30.3011 62.1754 28.2097 60.3455C26.1184 58.5156 25.0728 55.3787 25.0728 50.6732V38.9097C25.0728 34.4657 26.1184 31.0673 28.2097 29.2374C30.3011 27.4075 33.6994 26.3618 38.4049 26.3618H48.3385C53.044 26.3618 56.4423 27.4075 58.5336 29.2374C60.6249 31.0673 61.6706 34.2042 61.6706 38.9097V50.6732C61.6706 55.3787 60.6249 58.5156 58.5336 60.3455C56.4423 62.1754 53.044 63.2211 48.3385 63.2211H38.4049ZM32.9152 41.5238H39.9733V33.9428H39.1891C37.6206 33.9428 36.3135 34.2042 35.5293 34.4657C34.7451 34.7271 33.9608 35.2499 33.6994 36.0342C33.438 36.8184 33.1766 37.864 33.1766 39.4325V41.5238H32.9152ZM38.9277 56.1629H39.7119V48.5819H32.6538V50.9347C32.6538 53.026 32.9152 54.5944 33.6994 55.1173C34.7451 55.6401 36.575 56.1629 38.9277 56.1629ZM47.0315 41.5238H54.0896V39.1711C54.0896 37.6026 53.8282 36.557 53.5668 35.7727C53.3054 34.9885 52.7826 34.4656 51.7369 34.2042C50.9527 33.9428 49.6456 33.6814 47.8157 33.6814H47.0315V41.5238ZM47.0315 56.1629H47.8157C49.3842 56.1629 50.6913 55.9015 51.7369 55.6401C52.5211 55.3787 53.044 54.8559 53.5668 54.0716C53.8282 53.2874 54.0896 52.2417 54.0896 50.6732V48.3205H47.0315V56.1629Z" fill="#010F32"/>
<path d="M74.4802 36.0339C73.4345 36.0339 72.6503 35.7725 72.1274 34.9882C71.3432 34.204 71.0818 33.4198 71.0818 32.6355C71.0818 31.8513 71.3432 30.8056 72.1274 30.2828C72.9117 29.4986 73.6959 29.2372 74.4802 29.2372H81.2769C81.0155 28.9757 81.0155 28.9758 81.0155 28.7143C81.0155 28.4529 80.7541 28.4529 80.7541 28.1915C80.4927 27.1459 79.9698 26.1002 79.1856 24.7932C78.6628 23.4861 78.1399 22.4404 77.6171 21.6562C77.0943 20.872 77.0943 19.8263 77.3557 18.7807C77.6171 17.735 78.4014 17.2122 79.1856 16.6893C79.447 16.6893 79.447 16.428 79.7084 16.428C79.9698 16.428 79.9698 16.4279 80.2312 16.1665H76.5715C75.5258 16.1665 74.7416 15.9051 74.2188 15.1209C73.4345 14.5981 73.1731 13.8138 73.1731 12.7681C73.1731 11.7225 73.4345 11.1997 74.2188 10.4154C75.003 9.89262 75.7872 9.36977 76.5715 9.36977H85.9823V4.92576C85.9823 3.6187 86.5052 2.57306 87.2894 1.78882C88.0736 1.00458 89.1193 0.743164 90.1649 0.743164C91.472 0.743164 92.2562 1.00458 93.0405 1.78882C93.8247 2.57306 94.3475 3.6187 94.3475 4.92576V9.36977H103.758C104.804 9.36977 105.327 9.63121 106.111 10.4154C106.634 10.9383 107.157 11.7225 107.157 12.7681C107.157 13.8138 106.895 14.3366 106.111 15.1209C105.588 15.6437 104.804 16.1665 103.758 16.1665H100.36L100.621 16.428C101.667 16.6894 102.19 17.4736 102.713 18.2578C103.236 19.0421 103.236 20.0877 102.713 21.1334C102.451 21.9176 101.928 23.2247 101.144 24.5317C100.36 26.1002 99.8372 27.4073 99.3144 28.7143H104.804C105.85 28.7143 106.634 28.9757 107.157 29.76C107.941 30.5442 108.202 31.3285 108.202 32.1127C108.202 32.897 107.941 33.9426 107.157 34.4654C106.373 35.2497 105.588 35.5111 104.804 35.5111H74.4802V36.0339ZM89.9035 63.2208C86.5052 63.2208 83.891 62.9594 81.7997 62.1752C79.9698 61.3909 78.6628 60.3453 77.8785 58.5154C77.0943 56.6855 76.8329 54.3328 76.8329 51.4572C76.8329 48.3203 77.0943 45.9676 77.8785 44.3991C78.6628 42.5692 79.9698 41.5235 81.7997 40.7393C83.6296 39.9551 86.2437 39.6937 89.9035 39.6937C93.3019 39.6937 96.1774 39.9551 98.0073 40.7393C99.8372 41.5235 101.144 42.5692 101.929 44.3991C102.713 46.229 102.974 48.5817 102.974 51.4572C102.974 54.5942 102.713 56.9469 101.929 58.5154C101.144 60.0839 99.8372 61.3909 98.0073 62.1752C96.1774 62.9594 93.5633 63.2208 89.9035 63.2208ZM87.028 29.2372H91.472C91.9948 28.1915 92.2562 27.1459 93.0405 25.5774C93.5633 24.2703 94.0861 22.9633 94.6089 21.6562C95.1318 20.3491 95.3932 19.5649 95.6546 18.7807C96.1774 17.735 96.9617 16.9508 98.0073 16.428H82.0611C83.1068 16.6894 83.6296 17.2122 84.1524 18.2578C84.4138 18.7807 84.9367 19.5649 85.1981 20.3491C85.7209 21.1334 85.9823 22.179 86.5051 22.9633C86.7666 23.7475 87.2894 24.5317 87.2894 24.7932C88.335 26.623 88.0736 28.1915 87.028 29.2372ZM89.9035 56.1627C91.2106 56.1627 92.5176 56.1627 93.0405 55.9013C93.8247 55.6398 94.3475 55.117 94.6089 54.5942C94.8703 53.81 95.1318 52.7643 95.1318 51.4572C95.1318 50.1502 94.8703 49.1045 94.6089 48.3203C94.3475 47.5361 93.8247 47.2747 93.0405 47.0132C92.2562 46.7518 91.2106 46.7518 89.9035 46.7518C88.5965 46.7518 87.5508 46.7518 86.7666 47.0132C85.9823 47.2747 85.4595 47.7975 85.1981 48.3203C84.9367 49.1045 84.6753 50.1502 84.6753 51.4572C84.6753 52.7643 84.9367 54.0714 85.1981 54.5942C85.4595 55.3784 85.9823 55.9013 86.7666 55.9013C87.5508 56.1627 88.5965 56.1627 89.9035 56.1627ZM113.431 65.3121C112.385 65.3121 111.339 65.0507 110.555 64.2665C109.771 63.4822 109.509 62.698 109.509 61.3909V13.8138C109.509 11.1997 109.771 9.36977 110.555 8.06271C111.339 6.75565 112.646 5.71002 114.476 5.18719C116.306 4.66437 119.182 4.40295 122.58 4.40295C128.07 4.40295 131.73 5.44861 133.037 7.2785C134.605 9.36981 134.344 12.2453 132.775 15.9051C132.252 17.4736 131.468 18.7807 130.945 20.0877C130.422 21.3948 129.9 22.4404 129.377 23.4861C128.854 24.5317 128.593 25.5774 128.331 26.1002C128.07 26.623 128.331 27.4073 128.593 27.9301C128.854 28.4529 129.638 29.2371 130.423 30.2828C132.252 32.3741 133.559 34.4654 134.605 36.5567C135.651 38.648 136.174 41.2621 136.174 44.1377C136.174 48.5817 135.128 51.9801 132.775 54.0714C130.423 56.1627 127.286 57.4697 123.364 57.4697C122.057 57.4697 121.012 57.2083 120.227 56.4241C119.443 55.9012 118.92 54.8556 118.92 53.5486C118.92 52.2415 119.182 51.4572 119.705 50.673C120.489 49.8888 121.534 49.3659 122.842 49.3659C124.671 49.1045 125.978 48.5817 126.763 48.0589C127.547 47.2746 127.808 45.9676 127.808 43.8763C127.808 41.785 127.547 39.9551 126.763 38.3866C125.978 36.5567 125.194 34.9883 123.887 33.4198C122.842 32.1127 122.057 31.0671 121.534 30.0214C121.012 29.2372 120.75 28.1915 120.489 27.4073C120.489 26.623 120.489 25.8388 120.75 24.7932C121.012 23.7475 121.273 22.7018 122.057 21.1334C122.58 20.0877 122.842 19.0421 123.364 17.9964C123.887 16.9508 124.149 16.1665 124.671 14.8595C125.194 13.5524 125.194 12.7682 124.933 12.2453C124.41 11.7225 123.364 11.4611 121.796 11.4611C120.227 11.4611 118.92 11.7225 118.398 11.9839C117.875 12.5067 117.613 13.291 117.613 14.8595V61.9138C117.613 63.2208 117.352 64.0051 116.568 64.7893C115.261 64.7893 114.476 65.3121 113.431 65.3121Z" fill="#010F32"/>
<path d="M154.472 52.241C153.427 52.241 152.381 51.7182 151.597 50.934C150.812 50.1497 150.29 49.1041 150.29 48.0584C150.29 46.7514 150.812 45.9671 151.597 45.1829C152.381 44.3987 153.427 43.8758 154.472 43.8758H178.522C181.398 43.8758 183.489 43.6144 184.796 43.353C186.103 42.8302 187.149 42.046 187.672 40.4775C188.194 39.1704 188.456 36.8177 188.456 33.9422C188.456 31.0666 188.194 28.7139 187.672 27.4068C187.149 26.0998 186.365 25.0541 184.796 24.5313C183.489 24.0085 181.398 24.0085 178.522 24.0085H155.256C154.211 24.0085 153.165 23.4856 152.381 22.7014C151.597 21.9172 151.074 20.8715 151.074 19.5645C151.074 18.2574 151.597 17.4731 152.381 16.6889C153.165 15.9047 154.211 15.3818 155.256 15.3818H178.522C182.182 15.3818 185.057 15.6433 187.41 16.1661C189.763 16.6889 191.593 17.7346 192.9 19.0416C194.207 20.3487 195.253 22.1786 195.775 24.7927C196.298 27.1454 196.56 30.2824 196.56 33.9422C196.56 37.6019 196.298 40.7389 195.775 43.0916C195.253 45.4443 194.207 47.2742 192.9 48.8427C191.593 50.4112 189.763 51.1954 187.149 51.7182C184.796 52.2411 181.659 52.5024 178.261 52.5024H154.472V52.241Z" fill="#010F32"/>
<path d="M224.008 61.1297C222.962 61.3911 221.917 61.3911 220.871 60.8683C219.825 60.3454 219.041 59.5612 218.78 58.5155C218.518 57.4699 218.518 56.4242 219.041 55.3786C219.564 54.3329 220.348 53.5487 221.394 53.2873C227.145 51.4574 232.112 48.8433 236.294 45.4449C240.477 42.0465 243.614 38.3867 245.705 34.2041C247.274 30.8058 245.967 28.9759 242.046 28.9759H216.95C215.904 28.9759 214.859 28.4531 214.074 27.6688C213.29 26.8846 212.767 25.8389 212.767 24.7933C212.767 23.4862 213.29 22.702 214.074 21.9177C214.859 21.1335 215.904 20.8721 216.95 20.8721H242.307C246.228 20.8721 249.365 21.6564 251.456 22.9634C253.548 24.5319 254.855 26.3617 255.116 28.9759C255.378 31.59 254.855 34.4656 253.286 37.8639C250.672 43.0922 247.012 47.7976 241.784 51.9802C236.556 55.64 230.543 58.7769 224.008 61.1297ZM221.394 15.3824C220.348 15.3824 219.303 15.121 218.518 14.3368C217.734 13.5525 217.211 12.5069 217.211 11.4612C217.211 10.1542 217.734 9.36995 218.518 8.58571C219.303 7.80148 220.348 7.54004 221.394 7.54004H247.535C248.581 7.54004 249.627 7.80148 250.411 8.58571C251.195 9.36995 251.718 10.4156 251.718 11.4612C251.718 12.5069 251.195 13.5525 250.411 14.3368C249.627 15.121 248.581 15.3824 247.535 15.3824H221.394Z" fill="#010F32"/>
<path d="M276.029 51.1957C274.983 51.7186 273.937 51.98 272.892 51.7186C271.846 51.4572 270.8 50.6729 270.277 49.8887C269.755 48.843 269.493 47.7974 269.755 46.7517C270.016 45.7061 270.8 44.6604 271.846 44.1376C273.676 42.8305 275.767 41.5235 277.597 39.6936C279.688 38.1251 281.257 36.2953 282.825 34.7268C283.61 33.9425 284.655 33.4197 285.701 33.1583C286.747 32.8969 287.792 33.1583 288.576 33.6811C289.622 34.4653 290.145 35.2496 290.145 36.5567C290.145 37.8637 290.145 38.648 289.361 39.6936C288.315 41.2621 286.747 42.5691 285.178 44.1376C283.61 45.7061 282.041 47.0132 280.473 48.3202C278.904 49.3659 277.336 50.4115 276.029 51.1957ZM289.622 59.8224C288.576 59.8224 287.531 59.2996 286.746 58.5153C285.962 57.7311 285.439 56.6854 285.439 55.6398C285.439 54.3327 285.962 53.5485 286.746 52.5028C287.531 51.4572 288.576 51.1957 289.622 51.1957C291.713 51.1957 293.282 50.9344 293.805 50.1501C294.327 49.6273 294.85 48.3202 294.85 46.2289V27.1458H276.551C275.506 27.1458 274.46 26.623 273.676 25.8387C272.892 25.0545 272.63 24.0089 272.63 22.9632C272.63 21.9176 272.892 20.8719 273.676 20.0876C274.46 19.3034 275.506 18.7806 276.551 18.7806H294.85V11.461C294.85 10.154 295.373 9.36974 296.157 8.5855C296.942 7.80126 297.987 7.27844 299.033 7.27844C300.34 7.27844 301.124 7.80126 301.908 8.5855C302.693 9.36974 303.215 10.4154 303.215 11.461V18.7806H320.207C321.253 18.7806 322.299 19.3034 323.083 20.0876C323.867 20.8719 324.129 21.9176 324.129 22.9632C324.129 24.0089 323.867 25.0545 323.083 25.8387C322.299 26.623 321.253 27.1458 320.207 27.1458H303.215V46.7517C303.215 51.4572 302.17 54.8555 300.079 56.6854C297.987 58.5153 294.589 59.8224 289.622 59.8224ZM326.743 49.6273C325.958 50.4115 324.913 50.6729 323.606 50.6729C322.56 50.6729 321.514 50.1501 320.73 49.3659C319.946 48.3202 318.639 47.536 317.593 46.2289C316.286 45.1833 314.979 43.8762 313.672 42.8305C312.365 41.7849 311.058 40.7393 310.012 39.955C308.967 39.4322 308.444 38.3866 308.182 37.3409C307.921 36.2953 308.182 35.2496 308.705 34.2039C309.228 33.1583 310.274 32.6355 311.319 32.374C312.365 32.1126 313.411 32.374 314.456 32.8969C315.763 33.6811 317.07 34.7268 318.639 36.0338C320.207 37.3409 321.776 38.648 323.344 39.955C324.913 41.2621 326.22 42.5691 327.265 43.6148C328.05 44.399 328.573 45.4447 328.311 46.7517C328.05 48.0588 327.527 48.8431 326.743 49.6273ZM324.129 16.9507C323.606 17.4735 322.821 17.7349 322.037 17.7349C321.253 17.7349 320.469 17.2121 319.946 16.6893C319.423 16.1664 318.639 15.3822 317.855 14.3366C317.07 13.2909 316.286 12.5067 315.502 11.7224C314.979 11.1996 314.718 10.6768 314.718 9.89256C314.718 9.10833 314.979 8.58547 315.502 8.06264C316.025 7.53982 316.809 7.27844 317.332 7.27844C318.116 7.27844 318.639 7.53982 319.162 8.06264C319.946 8.58547 320.73 9.36971 321.776 10.154C322.821 11.1996 323.606 11.9838 324.129 12.7681C324.651 13.2909 324.913 14.0752 324.913 14.8594C324.913 15.6436 324.651 16.4279 324.129 16.9507ZM326.22 10.9382C325.697 10.4154 324.913 9.63115 324.129 8.5855C323.344 7.80126 322.56 7.017 321.776 6.23276C321.253 5.70994 320.992 5.18712 320.992 4.40288C320.992 3.61864 321.253 3.09581 321.776 2.31157C322.299 1.78874 322.821 1.52734 323.606 1.52734C324.39 1.52734 324.913 1.78877 325.697 2.05018C326.481 2.57301 327.265 3.09582 328.311 3.88006C329.357 4.6643 330.141 5.44852 330.925 6.23276C331.448 6.75559 331.709 7.53983 331.709 8.32407C331.709 9.10831 331.448 9.89256 330.925 10.4154C330.402 10.9382 329.618 11.1996 328.834 11.1996C328.05 11.1996 326.743 11.461 326.22 10.9382Z" fill="#010F32"/>
<path d="M375.889 65.5737C374.844 65.5737 373.798 65.0508 373.014 64.528C372.229 63.7438 371.707 62.6981 371.707 61.3911V49.8889H343.474C342.428 49.8889 341.644 49.6275 340.86 48.8433C340.076 48.059 339.814 47.2748 339.814 46.2291C339.814 45.1835 340.076 44.3992 340.86 43.615C341.644 42.8308 342.428 42.5694 343.474 42.5694H352.362V36.8183C352.362 33.9427 352.623 31.8514 353.408 30.0215C354.192 28.4531 355.499 27.146 357.329 26.3617C359.159 25.5775 361.773 25.3161 365.171 25.3161H371.184V17.4737H357.067C355.76 19.565 354.453 21.3949 352.885 23.2248C351.316 25.0547 350.009 26.6232 348.441 28.1917C347.657 28.9759 346.611 29.4987 345.304 29.7601C344.258 30.0215 343.213 29.4987 342.167 28.7145C341.383 27.9302 340.86 27.146 340.86 26.1004C340.86 25.0547 341.121 24.009 342.167 23.2248C343.997 21.3949 345.827 19.3036 347.657 16.9509C349.486 14.5982 351.055 12.2455 352.623 9.89277C354.192 7.54006 355.499 5.18732 356.283 3.09602C356.806 2.05037 357.59 1.52754 358.636 1.00471C359.682 0.743299 360.727 0.743315 361.773 1.26614C362.819 1.78897 363.341 2.3118 363.864 3.35745C364.126 4.4031 364.126 5.18732 363.603 6.23297C363.08 7.54003 362.296 9.10852 361.511 10.4156H397.064C398.109 10.4156 398.893 10.677 399.678 11.4612C400.462 12.2455 400.723 13.0297 400.723 14.0754C400.723 15.121 400.462 15.9052 399.678 16.6895C398.893 17.4737 398.109 17.7352 397.064 17.7352H379.81V25.5775H392.881C393.927 25.5775 394.711 25.8389 395.495 26.6232C396.279 27.4074 396.541 28.1917 396.541 29.2373C396.541 30.283 396.279 31.0672 395.495 31.8514C394.711 32.6357 393.927 32.8971 392.881 32.8971H379.81V42.8308H400.201C401.246 42.8308 402.03 43.0922 402.815 43.8764C403.599 44.6607 403.86 45.4449 403.86 46.4906C403.86 47.5362 403.599 48.3204 402.815 49.1047C402.03 49.8889 401.246 50.1503 400.201 50.1503H379.81V61.6525C379.81 62.9595 379.288 64.0052 378.503 64.7895C377.98 65.0509 377.196 65.5737 375.889 65.5737ZM360.727 42.5694H371.445V32.6357H365.433C363.603 32.6357 362.296 32.8971 361.773 33.4199C361.25 33.9427 360.989 34.9884 360.989 36.8183V42.5694H360.727Z" fill="#010F32"/>
<path d="M417.192 28.4532C416.147 28.9761 415.362 29.2375 414.055 29.2375C413.01 29.2375 411.964 28.7146 411.441 27.669C410.918 26.8848 410.657 26.1005 410.918 25.0549C411.18 24.0092 411.702 23.225 412.487 22.9636C414.839 21.6565 416.931 20.088 418.499 18.5195C420.068 16.9511 421.113 14.8598 422.159 12.5071H414.839C413.794 12.5071 413.271 12.2457 412.748 11.7228C412.225 11.2 411.964 10.4158 411.964 9.63153C411.964 8.84729 412.225 8.06304 412.748 7.54021C413.271 7.01739 414.055 6.75597 414.839 6.75597H423.466C423.466 6.49456 423.727 5.97173 423.727 5.4489C423.727 4.92608 423.727 4.66467 423.727 4.14184C423.727 2.83478 424.25 2.05056 425.035 1.52773C425.819 1.00491 426.864 0.743482 427.91 1.0049C428.956 1.0049 429.74 1.52774 430.263 2.05057C430.786 2.83481 431.308 3.61902 431.047 4.92609C431.047 5.1875 431.047 5.44892 431.047 5.71033C431.047 5.97175 431.047 6.23317 431.047 6.49458H435.491C438.367 6.49458 440.196 7.27883 441.504 8.58589C442.811 9.89295 443.333 11.9843 442.811 15.1212C442.549 17.7353 442.026 19.8266 441.242 21.1337C440.458 22.4407 439.412 23.4864 437.844 24.0092C436.275 24.5321 434.445 24.7935 432.354 24.7935C431.308 24.7935 430.524 24.5321 430.001 24.0092C429.479 23.4864 428.956 22.7022 428.956 21.6565C428.956 20.6109 429.217 19.8266 429.74 19.3038C430.263 18.5196 431.047 18.2582 431.831 18.2582C433.4 18.2582 434.445 17.9967 434.707 17.7353C435.23 17.4739 435.491 16.6897 435.752 15.3826C436.014 14.3369 436.014 13.5527 435.491 13.2913C435.23 13.0299 434.445 12.7685 433.4 12.7685H430.001C428.956 16.4283 427.126 19.5652 425.296 22.1793C423.466 24.7935 420.068 26.6233 417.192 28.4532ZM419.283 65.051C417.976 65.3124 416.931 65.3124 416.146 65.051C415.101 64.7896 414.578 64.0054 414.317 62.9597C414.055 61.9141 414.055 61.1299 414.578 60.0842C415.101 59.0386 415.624 58.5157 416.669 58.2543C417.976 57.9929 419.283 57.7315 420.59 57.2086C422.159 56.6858 423.727 56.163 425.296 55.6402C426.864 55.1174 428.433 54.3331 429.479 53.8103C426.603 53.2874 424.512 52.2418 423.205 50.9348C421.898 49.3663 421.375 47.0135 421.375 44.138V36.0342C421.375 32.113 422.42 29.4989 424.25 28.1918C426.08 26.8848 429.479 25.8391 434.184 25.8391H450.392C455.097 25.8391 458.495 26.6234 460.325 28.1918C462.155 29.7603 463.201 32.3745 463.201 36.0342V44.138C463.201 47.275 462.678 49.6277 461.371 51.1961C460.064 52.7646 457.973 53.8103 455.097 54.0717C457.188 55.1174 459.28 55.9016 461.632 56.6858C463.985 57.4701 466.076 58.2543 467.906 58.5157C468.952 58.7771 469.736 59.2999 469.998 60.3456C470.259 61.3912 470.52 62.1755 470.259 63.2211C469.998 64.2668 469.213 65.051 468.429 65.3125C467.383 65.5739 466.338 65.5739 465.292 65.3125C463.724 64.7896 462.155 64.2668 460.325 63.744C458.495 63.2211 456.665 62.1755 454.836 61.3913C453.006 60.607 451.437 59.8228 450.13 59.3C449.346 58.7771 448.823 57.9929 448.562 57.2086C448.3 56.4244 448.562 55.6402 448.823 54.8559H435.752L436.014 55.1173C436.537 55.9016 436.537 56.6858 436.275 57.4701C436.014 58.2543 435.491 59.0386 434.707 59.5614C433.4 60.3456 431.831 60.8684 430.001 61.6527C428.171 62.4369 426.342 63.2212 424.512 64.0054C422.682 64.7896 420.852 64.5282 419.283 65.051ZM429.479 41.2625H455.097V38.3869H429.479V41.2625ZM429.74 33.9429H455.097C454.836 32.8973 454.574 32.3744 453.79 31.8516C453.267 31.5902 451.96 31.3288 450.392 31.3288H434.184C432.616 31.3288 431.57 31.5902 430.786 31.8516C430.263 32.3744 429.74 32.8973 429.74 33.9429ZM434.184 48.582H450.392C451.96 48.582 453.267 48.3206 453.79 48.0592C454.313 47.7978 454.836 47.0135 454.836 45.9679H429.479C429.479 47.0135 430.001 47.7978 430.524 48.0592C431.57 48.582 432.616 48.582 434.184 48.582ZM456.665 23.225C454.051 23.225 452.221 22.9636 450.653 22.4407C449.084 21.9179 448.039 20.8723 447.255 19.5652C446.47 18.2582 446.209 16.1669 446.209 13.8141C446.209 11.2 446.47 9.3701 447.255 8.06303C448.039 6.75597 449.084 5.71034 450.653 5.18752C452.221 4.66469 454.313 4.40327 456.665 4.40327H460.587C463.201 4.40327 465.292 4.66469 466.599 5.18752C468.168 5.71034 469.213 6.75597 469.736 8.06303C470.259 9.3701 470.782 11.4614 470.782 13.8141C470.782 16.4283 470.52 18.2582 469.736 19.5652C468.952 20.8723 467.906 21.9179 466.599 22.4407C465.031 22.9636 462.939 23.225 460.587 23.225H456.665ZM457.188 17.2125H460.587C462.155 17.2125 463.201 16.9511 463.724 16.6897C464.246 16.1668 464.508 15.3826 464.508 14.0755C464.508 12.7685 464.246 11.7228 463.724 11.2C463.201 10.6772 462.155 10.6772 460.587 10.6772H457.188C455.62 10.6772 454.574 10.9386 454.051 11.2C453.529 11.7228 453.267 12.5071 453.267 14.0755C453.267 15.3826 453.529 16.4283 454.051 16.6897C454.574 16.9511 455.62 17.2125 457.188 17.2125Z" fill="#010F32"/>
<path d="M497.446 65.0509C496.4 65.0509 495.354 64.7895 494.57 64.0053C493.786 63.2211 493.525 62.4368 493.525 61.1298V43.6151C492.218 44.6608 490.91 45.7064 489.342 46.752C487.773 47.7977 486.728 48.5819 485.944 49.3662C484.898 49.889 483.852 50.1504 482.807 50.1504C481.761 49.889 480.715 49.3662 480.193 48.3205C479.67 47.2749 479.408 46.2292 479.67 45.1836C479.931 44.1379 480.454 43.3537 481.5 42.8309C482.022 42.308 483.068 41.7852 484.114 41.001C485.159 40.2167 486.205 39.4325 487.512 38.6483C488.819 37.864 489.865 36.8184 490.91 36.0341C491.956 35.2499 492.74 34.4657 493.525 33.9428V25.3162C493.263 26.1004 492.479 26.6233 491.695 27.1461C490.649 27.6689 489.603 27.9303 488.558 27.4075C487.512 26.8847 486.728 26.3619 486.205 25.3162C485.944 24.7934 485.421 24.0092 484.898 22.9635C484.375 21.9179 483.591 20.8722 483.068 19.8265C482.545 18.7809 482.022 17.9967 481.761 17.4738C481.238 16.4282 480.977 15.6439 481.238 14.5983C481.5 13.5526 482.284 12.7684 483.329 12.2456C484.375 11.7227 485.421 11.4613 486.466 11.7228C487.512 11.9842 488.296 12.507 488.819 13.5526C489.081 14.0755 489.603 15.1211 490.388 16.1668C490.91 17.2124 491.695 18.2581 492.218 19.3037C492.74 20.3494 493.263 21.1336 493.525 21.6564L493.786 22.1793V5.71025C493.786 4.40319 494.047 3.61894 494.832 2.8347C495.616 2.05046 496.4 1.78906 497.707 1.78906C499.014 1.78906 499.537 2.05046 500.321 2.8347C501.106 3.61894 501.367 4.40319 501.367 5.71025V60.8684C501.367 61.914 501.106 62.9596 500.321 63.7439C499.276 64.7895 498.491 65.0509 497.446 65.0509ZM537.703 62.4368C534.044 59.8227 531.168 56.6857 528.554 53.2874C526.201 49.889 524.11 46.2292 522.803 42.5695C521.496 46.2292 519.666 49.889 517.575 53.2874C515.483 56.6857 512.346 59.5613 508.948 62.1754C507.902 62.9597 506.857 63.2211 505.811 63.2211C504.765 63.2211 503.72 62.6982 502.935 61.6526C502.413 60.6069 502.151 59.8227 502.151 58.7771C502.413 57.7314 502.935 56.9472 503.72 56.1629C512.346 49.889 517.313 41.001 518.097 29.2374H506.595C505.55 29.2374 504.765 28.976 503.981 28.1918C503.197 27.4075 502.935 26.6233 502.935 25.5776C502.935 24.532 503.197 23.7478 503.981 22.9635C504.765 22.1793 505.55 21.9178 506.595 21.9178H518.359V6.23307C518.359 4.92601 518.882 4.14179 519.666 3.35756C520.45 2.57332 521.496 2.31188 522.541 2.31188C523.587 2.31188 524.633 2.57332 525.417 3.35756C526.201 4.14179 526.463 4.92601 526.463 6.23307V21.9178H540.317C541.363 21.9178 542.147 22.1793 542.932 22.9635C543.716 23.7478 543.977 24.532 543.977 25.5776C543.977 26.6233 543.716 27.4075 542.932 28.1918C542.147 28.976 541.363 29.2374 540.317 29.2374H526.724C527.247 34.9885 529.077 40.2167 531.952 44.6607C534.828 49.1048 538.488 53.026 542.932 56.1629C543.977 56.6857 544.5 57.7314 544.5 58.7771C544.5 59.8227 544.239 60.8683 543.716 61.6526C542.932 62.6982 541.886 63.2211 540.84 63.2211C539.795 63.4825 538.749 63.2211 537.703 62.4368ZM540.579 17.9966C539.795 18.5195 539.01 19.0423 537.703 18.7809C536.396 18.5195 535.873 18.2581 535.089 17.4738C534.828 16.951 534.305 16.4282 533.521 15.6439C532.998 14.8597 532.214 14.0754 531.429 13.2912C530.645 12.507 530.122 11.9842 529.861 11.4613C529.338 10.6771 528.815 9.89285 529.077 8.8472C529.338 7.80155 529.6 7.01733 530.384 6.4945C531.168 5.71026 531.952 5.44883 532.998 5.44883C534.044 5.44883 534.828 5.71026 535.612 6.4945C536.135 7.01733 536.658 7.54014 537.181 8.32438C537.965 9.10862 538.488 9.89287 539.272 10.4157C540.056 11.1999 540.317 11.7227 540.579 11.9841C541.363 13.0298 541.886 13.814 541.625 14.8597C541.363 15.9054 541.625 17.2124 540.579 17.9966Z" fill="#010F32"/>
</svg>
