<svg width="114" height="12" viewBox="0 0 114 12" fill="none" xmlns="http://www.w3.org/2000/svg">
<g clip-path="url(#clip0_341_265)">
<path d="M3.52999 4.88977L2.86999 4.54977L2.45999 3.91977L2.29999 3.17977L2.38999 2.43977L2.86999 1.83977L3.61999 1.75977L4.20999 2.03977L4.53999 2.62977L4.61999 3.30977L4.57999 4.02977L4.18999 4.61977L3.52999 4.88977Z" fill="#010F32"/>
<path d="M6.01001 2.06977L6.65001 2.00977L7.26001 2.27977L7.58001 2.85977L7.52001 3.69977L7.16001 4.46977L6.46001 4.94977L5.72001 4.76977L5.32001 4.07977V3.27977L5.46001 2.54977L6.01001 2.06977Z" fill="#010F32"/>
<path d="M9.06002 4.39984L9.45001 4.99984L9.58001 5.70984L9.42001 6.40984L9.02002 6.98984L8.45001 7.40984L7.74001 7.39984L7.25001 6.87984L7.14001 6.15984L7.26002 5.44984L7.59001 4.72984L8.28001 4.33984L9.06002 4.39984Z" fill="#010F32"/>
<path d="M0.5 3.88004L1.17 3.79004L1.78 4.12004L2.25 4.64004L2.51 5.30004L2.5 6.12004L2.14 6.80004L1.41 6.96004L0.73 6.66004L0.25 6.08004L0 5.31004L0.04 4.51004L0.5 3.88004Z" fill="#010F32"/>
<path d="M1.85999 8.94992L1.95999 8.22992L2.27999 7.56992L2.76999 7.02992L3.30999 6.57992L3.79999 6.07992L4.45999 5.91992L5.32999 5.97992L6.01999 6.52992L6.64999 7.14992L7.15999 7.68992L7.39999 8.37992L7.49999 9.07992L7.23998 9.72992L6.37999 10.1599L5.43999 9.91992L4.68999 9.81992L3.97999 10.0599L3.25999 10.2299L2.54999 10.0099L1.96999 9.63992L1.85999 8.94992Z" fill="#010F32"/>
<path d="M106.98 4.88977L106.31 4.54977L105.9 3.91977L105.74 3.17977L105.84 2.43977L106.31 1.83977L107.06 1.75977L107.66 2.03977L107.98 2.62977L108.06 3.30977L108.02 4.02977L107.63 4.61977L106.98 4.88977Z" fill="#010F32"/>
<path d="M109.45 2.06977L110.09 2.00977L110.7 2.27977L111.02 2.85977L110.97 3.69977L110.6 4.46977L109.9 4.94977L109.16 4.76977L108.76 4.07977V3.27977L108.9 2.54977L109.45 2.06977Z" fill="#010F32"/>
<path d="M112.5 4.39984L112.9 4.99984L113.02 5.70984L112.87 6.40984L112.46 6.98984L111.9 7.40984L111.18 7.39984L110.69 6.87984L110.58 6.15984L110.7 5.44984L111.04 4.72984L111.72 4.33984L112.5 4.39984Z" fill="#010F32"/>
<path d="M103.95 3.88004L104.61 3.79004L105.22 4.12004L105.69 4.64004L105.96 5.30004L105.95 6.12004L105.58 6.80004L104.85 6.96004L104.18 6.66004L103.69 6.08004L103.44 5.31004L103.48 4.51004L103.95 3.88004Z" fill="#010F32"/>
<path d="M105.3 8.94992L105.4 8.22992L105.72 7.56992L106.22 7.02992L106.75 6.57992L107.24 6.07992L107.9 5.91992L108.78 5.97992L109.46 6.52992L110.09 7.14992L110.6 7.68992L110.84 8.37992L110.95 9.07992L110.68 9.72992L109.82 10.1599L108.89 9.91992L108.13 9.81992L107.43 10.0599L106.7 10.2299L105.99 10.0099L105.41 9.63992L105.3 8.94992Z" fill="#010F32"/>
<path d="M24.15 6.01023C23.49 5.40023 22.84 4.61023 22.3 3.73023C20.93 3.90023 19.43 3.98023 18.02 3.99023C17.56 3.99023 17.31 3.70023 17.31 3.27023C17.31 2.87023 17.55 2.59023 17.96 2.59023C19.11 2.59023 20.43 2.54023 21.56 2.42023C21.33 1.99023 21.12 1.51023 20.95 1.06023C20.91 0.980234 20.9 0.890234 20.9 0.820234C20.9 0.530234 21.13 0.330234 21.45 0.260234C21.53 0.250234 21.62 0.240234 21.69 0.240234C22.01 0.240234 22.22 0.400234 22.35 0.730234C22.54 1.25023 22.75 1.74023 22.99 2.23023C23.96 2.10023 24.99 1.88023 25.8 1.65023C25.9 1.61023 25.99 1.60023 26.06 1.60023C26.34 1.60023 26.54 1.77023 26.65 2.09023C26.69 2.17023 26.7 2.26023 26.7 2.34023C26.7 2.62023 26.56 2.86023 26.26 2.95023C25.48 3.20023 24.56 3.39023 23.74 3.53023C24.29 4.49023 25.16 5.49023 26.03 6.34023C26.2 6.51023 26.27 6.71023 26.27 6.90023C26.27 7.09023 26.2 7.27023 26.07 7.40023C25.93 7.53023 25.77 7.60023 25.57 7.60023C25.39 7.60023 25.17 7.54023 24.92 7.41023C24.13 7.01023 22.94 6.73023 21.67 6.73023C20.09 6.73023 19.17 7.22023 19.17 8.09023C19.17 8.96023 20.15 9.40023 21.84 9.40023C22.92 9.40023 24.08 9.24023 25.02 8.98023C25.1 8.96023 25.19 8.94023 25.27 8.94023C25.58 8.94023 25.83 9.11023 25.91 9.44023C25.93 9.52023 25.95 9.61023 25.95 9.69023C25.95 10.0002 25.76 10.2302 25.41 10.3402C24.46 10.6202 23.28 10.7802 21.92 10.7802C19.21 10.7802 17.71 9.81024 17.71 8.09023C17.71 6.51023 19.2 5.54023 21.48 5.54023C22.45 5.54023 23.45 5.74023 24.13 6.04023L24.17 5.99023L24.15 6.01023Z" fill="#010F32"/>
<path d="M38.29 6.60039C38.29 8.09039 37.61 9.30039 36.18 9.90039C35.33 10.2604 33.98 10.5004 32.77 10.5004H32.69C32.26 10.5004 32.01 10.2104 31.99 9.82039V9.78039C31.99 9.38039 32.22 9.10039 32.63 9.10039C33.67 9.09039 34.93 8.90039 35.62 8.60039C36.46 8.23039 36.87 7.60039 36.87 6.69039C36.87 5.72039 36.26 4.99039 34.88 4.99039C33.73 4.99039 32.27 5.29039 30.91 5.73039C30.84 5.75039 30.75 5.77039 30.68 5.77039C30.39 5.77039 30.14 5.59039 30.07 5.29039C30.05 5.19039 30.03 5.11039 30.03 5.01039C30.03 4.72039 30.17 4.48039 30.49 4.39039C31.81 3.97039 33.44 3.65039 34.86 3.65039C37.2 3.65039 38.3 4.97039 38.3 6.61039L38.29 6.60039Z" fill="#010F32"/>
<path d="M47.07 5.69012C46.67 5.77012 46.19 5.86012 45.69 5.92012C44.35 6.09012 42.99 6.27012 41.79 6.46012C41.74 6.47012 41.69 6.47012 41.66 6.47012C41.28 6.47012 41.06 6.24012 41.01 5.89012C41 5.84012 41 5.79012 41 5.75012C41 5.44012 41.17 5.22012 41.49 5.14012C41.9 5.03012 42.31 4.90012 42.7 4.73012C44.28 4.03012 46.08 2.98012 47.53 1.88012C46.19 2.02012 44.59 2.11012 43.36 2.12012C43.05 2.12012 42.78 1.89012 42.78 1.48012C42.78 1.04012 43.01 0.820117 43.45 0.810117C44.34 0.810117 45.32 0.790117 46.23 0.750117C47.13 0.710117 47.98 0.670117 48.59 0.620117H48.73C49.1 0.620117 49.33 0.720117 49.5 1.03012C49.57 1.15012 49.61 1.28012 49.61 1.41012C49.61 1.64012 49.5 1.87012 49.31 2.06012C48.33 2.97012 47.09 3.76012 45.87 4.39012C45.49 4.57012 45.05 4.76012 44.59 4.94012V5.00012C45.13 4.88012 45.75 4.78012 46.33 4.71012C47.82 4.54012 49.51 4.39012 51.01 4.30012H51.07C51.49 4.30012 51.71 4.54012 51.73 4.94012V5.00012C51.73 5.38012 51.49 5.64012 51.13 5.65012C49.82 5.71012 48.6 5.93012 47.65 6.36012C46.69 6.78012 46.11 7.38012 46.11 8.11012C46.11 8.77012 46.64 9.20012 47.96 9.29012C48.32 9.33012 48.85 9.34012 49.28 9.34012H49.34C49.74 9.34012 50.01 9.56012 50.02 9.98012V10.0201C50.02 10.4801 49.78 10.7401 49.36 10.7801C49.14 10.7801 48.92 10.7901 48.7 10.7901C48.4 10.7901 48.1 10.7801 47.86 10.7501C45.83 10.6201 44.62 9.77012 44.62 8.35012C44.62 7.25012 45.38 6.32012 47.07 5.77012V5.71012V5.69012Z" fill="#010F32"/>
<path d="M61.45 1.09059C61.45 1.28059 61.37 1.47059 61.2 1.63059C59.99 2.77059 58.25 4.06059 56.71 4.99059C56.41 5.17059 56.35 5.30059 56.35 5.46059C56.35 5.62059 56.45 5.71059 56.77 5.90059C58.21 6.80059 60.16 8.25059 61.51 9.52059C61.69 9.69059 61.76 9.90059 61.76 10.1106C61.76 10.3306 61.68 10.5406 61.56 10.6706C61.39 10.8606 61.19 10.9606 60.97 10.9606C60.78 10.9606 60.6 10.8906 60.43 10.7206C59.07 9.41059 57.29 8.03059 55.52 6.85059C54.82 6.39059 54.62 5.97059 54.62 5.45059C54.62 4.87059 54.88 4.41059 55.52 4.02059C57.09 3.06059 58.89 1.71059 60.09 0.540586C60.22 0.410586 60.4 0.350586 60.58 0.350586C60.78 0.350586 61 0.420586 61.18 0.580586C61.36 0.720586 61.44 0.900586 61.44 1.10059L61.45 1.09059Z" fill="#010F32"/>
<path d="M69.1 3.53023C69.26 3.33023 69.39 3.11023 69.52 2.88023C69.54 2.82023 69.58 2.77023 69.63 2.74023C68.54 2.79023 67.46 2.81023 66.44 2.81023C66.07 2.81023 65.91 2.63023 65.9 2.28023V2.24023C65.9 1.92023 66.08 1.72023 66.42 1.72023H67.78C68.15 1.31023 68.54 0.780234 68.84 0.300234C68.97 0.0802344 69.14 -0.00976562 69.39 -0.00976562C69.49 -0.00976562 69.59 0.000234375 69.71 0.0302344C69.99 0.0902344 70.14 0.230234 70.14 0.430234C70.14 0.510234 70.12 0.600234 70.06 0.690234C69.83 1.04023 69.56 1.39023 69.27 1.71023C70.39 1.69023 71.49 1.64023 72.6 1.58023C72.43 1.44023 72.26 1.29023 72.1 1.16023C71.96 1.06023 71.9 0.930234 71.9 0.810234C71.9 0.680234 71.97 0.560234 72.1 0.450234C72.23 0.340234 72.38 0.290234 72.52 0.290234C72.64 0.290234 72.77 0.340234 72.89 0.420234C73.59 0.920234 74.35 1.60023 74.99 2.22023C75.11 2.35023 75.17 2.48023 75.17 2.63023C75.17 2.76023 75.11 2.91023 74.99 3.03023C74.85 3.16023 74.68 3.23023 74.52 3.23023C74.36 3.23023 74.22 3.17023 74.11 3.04023C73.93 2.85023 73.75 2.64023 73.56 2.46023C72.56 2.54023 71.57 2.64023 70.57 2.68023C70.68 2.76023 70.75 2.90023 70.75 3.02023C70.75 3.06023 70.74 3.10023 70.71 3.14023C70.65 3.27023 70.58 3.40023 70.49 3.52023H75.67C75.95 3.52023 76.11 3.72023 76.11 4.05023C76.11 4.38023 75.94 4.58023 75.67 4.58023H72.82C73.61 5.25023 74.67 5.73023 75.86 6.00023C76.12 6.06023 76.26 6.26023 76.26 6.52023C76.26 6.59023 76.25 6.68023 76.22 6.75023C76.15 7.07023 75.96 7.25023 75.67 7.25023C75.61 7.25023 75.54 7.24023 75.45 7.21023C73.95 6.80023 72.37 5.86023 71.34 4.58023H69.79C68.71 5.71023 67.3 6.50023 65.75 6.94023C65.68 6.95023 65.62 6.96023 65.57 6.96023C65.31 6.96023 65.11 6.78023 65.04 6.49023C65.02 6.42023 65 6.35023 65 6.29023C65 6.04023 65.14 5.86023 65.42 5.80023C66.5 5.52023 67.43 5.13023 68.17 4.58023H65.5C65.22 4.58023 65.08 4.38023 65.08 4.05023C65.08 3.72023 65.22 3.52023 65.5 3.52023H69.11L69.1 3.53023ZM67.07 7.81023C66.81 7.81023 66.61 7.65023 66.54 7.35023C66.53 7.30023 66.53 7.25023 66.53 7.22023C66.53 6.97023 66.67 6.80023 66.95 6.75023C68.32 6.51023 69.6 5.99023 70.62 5.20023C70.72 5.12023 70.84 5.08023 70.96 5.08023C71.1 5.08023 71.26 5.15023 71.38 5.27023C71.51 5.40023 71.57 5.53023 71.57 5.67023C71.57 5.81023 71.51 5.93023 71.39 6.03023C70.23 6.92023 68.69 7.52023 67.2 7.79023C67.15 7.80023 67.1 7.80023 67.07 7.80023V7.81023ZM67.12 9.57023C66.83 9.57023 66.66 9.39023 66.6 9.08023C66.59 9.03023 66.59 9.00023 66.59 8.95023C66.59 8.72023 66.73 8.49023 67.01 8.46023C68.93 8.18023 70.57 7.57023 72.06 6.42023C72.16 6.35023 72.28 6.31023 72.4 6.31023C72.54 6.31023 72.69 6.37023 72.82 6.49023C72.96 6.63023 73.02 6.78023 73.02 6.92023C73.02 7.09023 72.94 7.23023 72.79 7.34023C71.1 8.58023 69.23 9.26023 67.25 9.56024C67.2 9.57024 67.15 9.57023 67.12 9.57023ZM67.19 11.3602C66.87 11.3602 66.67 11.1802 66.63 10.8702C66.62 10.8202 66.62 10.7902 66.62 10.7502C66.62 10.4602 66.78 10.2302 67.09 10.2202C69.45 9.98024 71.98 9.04023 73.63 7.69023C73.74 7.61023 73.85 7.57023 73.97 7.57023C74.15 7.57023 74.33 7.65023 74.46 7.80023C74.59 7.95023 74.65 8.08023 74.65 8.22023C74.65 8.38023 74.57 8.52023 74.4 8.66023C72.53 10.1202 69.79 11.1102 67.3 11.3602H67.2H67.19Z" fill="#010F32"/>
<path d="M78.96 2.15004C78.97 1.73004 78.97 1.30004 78.97 0.820039V0.530039C78.97 0.210039 79.26 0.0400391 79.64 0.0400391C80.02 0.0400391 80.31 0.210039 80.31 0.530039C80.31 1.11004 80.31 1.65004 80.3 2.15004H81.51C82.43 2.15004 82.75 2.53004 82.75 3.41004C82.75 6.20004 82.59 8.39004 82.31 9.63004C82.11 10.53 81.63 10.9 80.75 10.9C80.38 10.9 80.03 10.88 79.73 10.8C79.44 10.73 79.27 10.52 79.27 10.22C79.27 10.16 79.27 10.11 79.28 10.05C79.35 9.71004 79.56 9.51004 79.77 9.51004C79.79 9.51004 79.82 9.51004 79.84 9.52004C80.08 9.58004 80.32 9.62004 80.52 9.62004C80.83 9.62004 80.93 9.52004 81 9.18004C81.24 8.08004 81.4 5.98004 81.4 3.71004C81.4 3.42004 81.3 3.37004 81.02 3.37004H80.24C80.16 4.80004 80 5.96004 79.76 6.97004C79.42 8.37004 78.91 9.69004 78.25 10.7C78.14 10.88 77.91 10.98 77.69 10.98C77.55 10.98 77.39 10.94 77.26 10.85C77.04 10.71 76.94 10.49 76.94 10.27C76.94 10.14 76.98 10.01 77.05 9.90004C77.65 9.04004 78.17 7.87004 78.49 6.55004C78.71 5.71004 78.85 4.72004 78.92 3.37004H77.59C77.28 3.37004 77.11 3.11004 77.11 2.73004C77.11 2.38004 77.28 2.13004 77.59 2.13004H78.97L78.96 2.15004ZM87.94 9.51004C87.94 10.37 87.52 10.71 86.66 10.71H84.74C83.89 10.71 83.48 10.37 83.48 9.51004V2.35004C83.48 1.49004 83.89 1.15004 84.74 1.15004H86.66C87.52 1.15004 87.94 1.49004 87.94 2.35004V9.51004ZM84.81 9.14004C84.81 9.38004 84.91 9.45004 85.12 9.45004H86.27C86.5 9.45004 86.59 9.38004 86.59 9.14004V2.71004C86.59 2.47004 86.49 2.40004 86.27 2.40004H85.12C84.9 2.40004 84.81 2.47004 84.81 2.71004V9.14004Z" fill="#010F32"/>
<path d="M95.79 9.56C95.79 10.16 95.35 10.56 94.79 10.56C94.23 10.56 93.79 10.16 93.79 9.56C93.79 8.96 94.22 8.56 94.79 8.56C95.36 8.56 95.79 8.96 95.79 9.56ZM93.89 1.48C93.88 1.02 94.21 0.75 94.8 0.75C95.39 0.75 95.71 1.03 95.7 1.48L95.46 7.36C95.45 7.7 95.18 7.9 94.79 7.9C94.4 7.9 94.13 7.7 94.12 7.36L93.89 1.48Z" fill="#010F32"/>
</g>
<defs>
<clipPath id="clip0_341_265">
<rect width="113.02" height="11.36" fill="white"/>
</clipPath>
</defs>
</svg>
