<svg width="409" height="39" viewBox="0 0 409 39" fill="none" xmlns="http://www.w3.org/2000/svg">
<path d="M35.4512 29.4642C34.913 29.4642 34.4421 29.2624 34.1058 28.8587C33.7021 28.4551 33.5003 27.9842 33.5003 27.5133C33.5003 26.9752 33.7021 26.5043 34.1058 26.1679C34.5094 25.8316 34.9803 25.6298 35.4512 25.6298H46.4834C47.7615 25.6298 48.7706 25.5625 49.376 25.3607C50.0487 25.1589 50.4523 24.7553 50.7214 24.0826C50.9232 23.4099 51.0577 22.4008 51.0577 21.0554C51.0577 19.7101 50.9232 18.701 50.7214 18.0283C50.5196 17.3556 50.0487 16.952 49.4433 16.7502C48.7706 16.5484 47.8288 16.4811 46.5507 16.4811H35.8548C35.3166 16.4811 34.8457 16.2793 34.5094 15.9429C34.1058 15.5393 33.9712 15.0684 33.9712 14.5303C33.9712 13.9921 34.173 13.5212 34.5094 13.1849C34.913 12.8485 35.3166 12.6467 35.8548 12.6467H46.5507C48.1651 12.6467 49.5778 12.7813 50.6541 13.0503C51.7304 13.3194 52.6049 13.723 53.2104 14.3957C53.8158 15.0684 54.2867 15.8757 54.5558 17.0193C54.8248 18.0956 54.9594 19.5082 54.9594 21.19C54.9594 22.8717 54.8248 24.2844 54.5558 25.3607C54.2867 26.437 53.8158 27.3115 53.2104 27.9842C52.6049 28.5897 51.7304 29.0605 50.5868 29.3296C49.5105 29.5987 48.0979 29.7332 46.4834 29.7332H35.4512V29.4642Z" fill="black"/>
<path d="M68.0097 33.5003C67.4715 33.6349 67.0007 33.6349 66.5298 33.3658C66.0589 33.164 65.7225 32.7604 65.588 32.2222C65.3862 31.684 65.4535 31.2132 65.7225 30.7423C65.9916 30.2714 66.328 29.935 66.8661 29.7332C69.4896 28.8587 71.7095 27.7151 73.7276 26.1679C75.6785 24.6207 77.1584 22.939 78.1002 20.9882C78.8401 19.3737 78.302 18.6337 76.4184 18.6337H64.848C64.3099 18.6337 63.839 18.4319 63.5026 18.0956C63.099 17.7592 62.9645 17.2883 62.9645 16.7502C62.9645 16.212 63.1663 15.7411 63.5026 15.4048C63.9063 15.0684 64.3099 14.8666 64.848 14.8666H76.4857C78.302 14.8666 79.7146 15.203 80.6564 15.8757C81.6655 16.5484 82.2036 17.4229 82.3382 18.6337C82.4727 19.7773 82.1364 21.1227 81.4637 22.6699C80.3201 25.0916 78.5711 27.3115 76.2166 29.1951C73.8622 31.0786 71.1041 32.4913 68.0097 33.5003ZM66.8661 12.4449C66.328 12.4449 65.8571 12.2431 65.5207 11.9067C65.1171 11.5704 64.9826 11.0995 64.9826 10.5613C64.9826 10.0232 65.1844 9.5523 65.5207 9.21595C65.9243 8.8796 66.328 8.6778 66.8661 8.6778H78.9747C79.5128 8.6778 79.9165 8.8796 80.3201 9.21595C80.6564 9.5523 80.8582 10.0232 80.8582 10.5613C80.8582 11.0995 80.6564 11.5031 80.3201 11.9067C79.9837 12.2431 79.5128 12.4449 78.9747 12.4449H66.8661Z" fill="black"/>
<path d="M91.285 29.0605C90.8141 29.3296 90.3433 29.3969 89.8051 29.2624C89.2669 29.1278 88.8633 28.7915 88.5942 28.3878C88.3252 27.917 88.2579 27.3788 88.3924 26.9079C88.527 26.3698 88.8633 26.0334 89.3342 25.6971C90.2087 25.1589 91.0832 24.4862 92.025 23.679C92.9668 22.8717 93.774 22.1318 94.4467 21.3918C94.7831 20.9882 95.254 20.7191 95.7248 20.6518C96.1957 20.5846 96.6666 20.6518 97.0702 20.9209C97.4739 21.2573 97.7429 21.6609 97.8775 22.199C97.9447 22.7372 97.8775 23.2081 97.5411 23.6117C97.003 24.2844 96.3975 24.9571 95.6576 25.6298C94.9176 26.3025 94.1776 26.9079 93.4377 27.5133C92.765 28.1188 92.025 28.5897 91.285 29.0605ZM97.6757 32.9622C97.1375 32.9622 96.6666 32.7604 96.3303 32.424C95.9266 32.0204 95.7921 31.6168 95.7921 31.0786C95.7921 30.5405 95.9939 30.0696 96.3303 29.666C96.7339 29.2624 97.1375 29.1278 97.6757 29.1278C98.6847 29.1278 99.2901 28.9933 99.6265 28.7242C99.8956 28.4551 100.097 27.8497 100.097 26.9079V18.1628H91.6887C91.1505 18.1628 90.7469 17.961 90.3433 17.6247C90.0069 17.2883 89.8051 16.8175 89.8051 16.2793C89.8051 15.7411 90.0069 15.3375 90.3433 14.9339C90.6796 14.5976 91.1505 14.3957 91.6887 14.3957H100.097V10.8977C100.097 10.3596 100.299 9.88867 100.636 9.55232C101.039 9.21597 101.443 9.01416 101.981 9.01416C102.519 9.01416 102.99 9.21597 103.326 9.55232C103.663 9.88867 103.864 10.3596 103.864 10.8977V14.3285H111.668C112.206 14.3285 112.61 14.5303 113.013 14.8666C113.35 15.203 113.551 15.6739 113.551 16.212C113.551 16.7502 113.35 17.2211 113.013 17.5574C112.677 17.8938 112.206 18.0956 111.668 18.0956H103.864V27.0425C103.864 29.1951 103.394 30.7423 102.452 31.6168C101.51 32.6258 99.8956 32.9622 97.6757 32.9622ZM114.695 28.3878C114.291 28.7242 113.82 28.926 113.282 28.8587C112.744 28.7915 112.273 28.5897 111.937 28.2533C111.533 27.8497 111.062 27.3788 110.457 26.8406C109.851 26.3025 109.246 25.7643 108.641 25.2262C108.035 24.688 107.43 24.2844 106.959 23.948C106.488 23.679 106.219 23.2753 106.152 22.7372C106.084 22.199 106.152 21.7281 106.421 21.3245C106.69 20.8536 107.093 20.5846 107.632 20.5173C108.17 20.45 108.641 20.5173 109.044 20.7864C109.582 21.1227 110.255 21.5936 110.928 22.199C111.668 22.7372 112.34 23.3426 113.08 23.948C113.753 24.5535 114.359 25.0916 114.897 25.6298C115.3 26.0334 115.435 26.5043 115.435 27.0425C115.435 27.5806 115.099 28.0515 114.695 28.3878ZM113.417 13.3194C113.148 13.5885 112.811 13.6558 112.408 13.6558C112.004 13.6558 111.735 13.454 111.466 13.1849C111.197 12.9158 110.928 12.5122 110.524 12.1086C110.121 11.705 109.784 11.3013 109.448 10.965C109.246 10.7632 109.112 10.4941 109.112 10.1577C109.112 9.8214 109.246 9.55232 109.515 9.28324C109.784 9.08143 110.053 8.94689 110.39 8.94689C110.726 8.94689 110.995 9.08143 111.264 9.28324C111.6 9.55232 112.004 9.88867 112.408 10.2923C112.811 10.6959 113.215 11.0995 113.484 11.4359C113.686 11.705 113.82 12.0413 113.82 12.4449C113.888 12.714 113.753 13.0503 113.417 13.3194ZM114.426 10.4941C114.157 10.225 113.82 9.88867 113.417 9.48505C113.013 9.08143 112.677 8.74508 112.34 8.40874C112.139 8.20693 112.004 7.93785 112.004 7.6015C112.004 7.26515 112.071 6.9288 112.34 6.65972C112.542 6.39064 112.811 6.2561 113.148 6.2561C113.484 6.2561 113.82 6.32337 114.089 6.52518C114.426 6.72699 114.829 7.06334 115.3 7.39969C115.771 7.80331 116.175 8.13966 116.444 8.476C116.713 8.74508 116.848 9.08143 116.848 9.41778C116.848 9.75413 116.713 10.0905 116.444 10.4268C116.175 10.6959 115.838 10.8304 115.502 10.8304C115.031 10.8304 114.695 10.6959 114.426 10.4941Z" fill="black"/>
<path d="M136.625 33.6349C136.154 33.6349 135.75 33.5003 135.414 33.164C135.078 32.8276 134.876 32.424 134.876 31.8858V27.446C134.069 28.1187 133.194 28.7914 132.252 29.4641C131.311 30.1368 130.301 30.7423 129.292 31.3477C128.283 31.9531 127.274 32.424 126.333 32.8276C125.794 33.0294 125.256 33.0967 124.853 32.9622C124.449 32.8276 124.113 32.5585 123.911 32.0877C123.709 31.6168 123.709 31.2131 123.844 30.7423C123.978 30.3386 124.314 30.0023 124.853 29.8005C126.131 29.3296 127.342 28.7242 128.62 27.9842C129.898 27.3115 131.041 26.5715 132.118 25.8316H129.158C127.611 25.8316 126.534 25.4952 125.929 24.8898C125.324 24.2844 125.122 23.2753 125.391 21.9299C125.593 20.9881 125.862 20.2482 126.131 19.7773C126.4 19.3064 126.938 18.9028 127.611 18.701C128.283 18.4992 129.158 18.3646 130.301 18.3646H134.876V16.7502H126.333C125.929 16.7502 125.593 16.6156 125.256 16.2793C124.987 15.9429 124.785 15.6066 124.785 15.2029C124.785 14.7993 124.92 14.463 125.256 14.1266C125.525 13.7903 125.929 13.6557 126.333 13.6557H130.571C130.1 13.5212 129.763 13.1849 129.629 12.7812C129.562 12.5122 129.427 12.1758 129.292 11.7049C129.158 11.3013 129.023 10.965 128.889 10.6286H127.342C127.073 11.0322 126.803 11.3686 126.534 11.7722C126.265 12.1085 125.996 12.4449 125.794 12.7812C125.458 13.1849 125.122 13.4539 124.651 13.5885C124.247 13.723 123.776 13.6557 123.305 13.3867C122.969 13.1849 122.7 12.8485 122.633 12.3776C122.498 11.974 122.633 11.5704 122.902 11.234C123.305 10.7631 123.709 10.225 124.113 9.61956C124.516 9.01413 124.987 8.34144 125.391 7.66874C125.794 6.99604 126.131 6.39061 126.333 5.85246C126.534 5.38157 126.871 5.04522 127.274 4.91068C127.678 4.77614 128.149 4.84341 128.552 5.04522C128.956 5.17976 129.292 5.51611 129.427 5.85246C129.629 6.25607 129.562 6.65969 129.36 7.13058C129.292 7.26512 129.292 7.33239 129.225 7.46693C129.158 7.60147 129.091 7.73601 129.023 7.80328H134.876C135.279 7.80328 135.616 7.93782 135.885 8.2069C136.154 8.47597 136.288 8.81232 136.288 9.21594C136.288 9.35048 136.288 9.48502 136.221 9.61956C136.625 8.94686 137.028 8.34144 137.432 7.60147C137.836 6.92877 138.105 6.32334 138.374 5.78519C138.576 5.3143 138.912 4.97795 139.383 4.84341C139.787 4.6416 140.257 4.70887 140.728 4.91068C141.199 5.11249 141.536 5.38157 141.67 5.78519C141.805 6.1888 141.805 6.65969 141.603 7.13058C141.536 7.26512 141.536 7.33239 141.468 7.46693C141.401 7.60147 141.334 7.66874 141.334 7.80328H148.733C149.137 7.80328 149.473 7.93782 149.742 8.2069C150.012 8.47597 150.079 8.81232 150.079 9.21594C150.079 9.61956 149.944 9.95591 149.742 10.225C149.541 10.4941 149.137 10.6286 148.733 10.6286H144.832C144.899 10.7631 144.966 10.965 145.034 11.0995C145.101 11.3013 145.168 11.4358 145.168 11.5704C145.303 11.974 145.303 12.3776 145.168 12.7812C144.966 13.1849 144.697 13.4539 144.226 13.6557H144.159C145.437 13.723 146.312 14.0594 146.783 14.5975C147.253 15.2029 147.523 16.0775 147.523 17.3556C147.523 18.701 147.253 19.71 146.648 20.2482C146.043 20.7863 145.034 21.1227 143.486 21.1227H138.441V22.7372H144.966C146.446 22.7372 147.523 23.0735 148.263 23.8135C148.935 24.4862 149.204 25.6298 149.002 27.1097C148.868 28.4551 148.532 29.5314 147.993 30.2714C147.523 31.0113 146.85 31.4822 146.11 31.7513C145.303 32.0204 144.428 32.1549 143.352 32.1549C142.746 32.1549 142.275 32.0204 141.939 31.7513C141.536 31.4822 141.334 31.0786 141.334 30.4732C141.334 29.935 141.468 29.5314 141.737 29.1278C142.006 28.7914 142.477 28.5224 143.015 28.5224C143.554 28.4551 144.025 28.3878 144.294 28.3205C144.563 28.2533 144.832 28.1187 144.966 27.9842C145.101 27.7824 145.235 27.5133 145.303 27.177C145.37 26.6388 145.37 26.3025 145.235 26.1006C145.101 25.8988 144.697 25.8316 144.159 25.8316H138.576V31.8858C138.576 32.424 138.374 32.8276 138.038 33.164C137.499 33.5003 137.096 33.6349 136.625 33.6349ZM129.898 22.8717H134.876V21.2572H130.1C129.629 21.2572 129.292 21.3245 129.158 21.459C128.956 21.5936 128.889 21.7954 128.822 22.0645C128.754 22.4008 128.822 22.6026 128.956 22.7372C129.091 22.8717 129.427 22.8717 129.898 22.8717ZM132.723 11.7722C132.858 12.1758 132.858 12.5794 132.723 12.983C132.521 13.3867 132.252 13.6557 131.781 13.8576H136.154C135.952 13.8576 135.75 13.723 135.549 13.5885C135.145 13.3194 134.876 12.983 134.809 12.5122C134.741 12.0413 134.876 11.6377 135.145 11.3013C135.212 11.1668 135.347 11.0995 135.414 10.965C135.481 10.8304 135.616 10.6959 135.683 10.5613C135.414 10.6959 135.145 10.8304 134.876 10.8304H132.387C132.454 10.965 132.521 11.1668 132.589 11.3013C132.656 11.4358 132.723 11.5704 132.723 11.7722ZM136.827 13.7903H142.881C142.41 13.6557 142.074 13.3194 141.939 12.9158C141.872 12.6467 141.737 12.3104 141.603 11.9067C141.468 11.5031 141.334 11.0995 141.199 10.8304H139.652C139.383 11.234 139.114 11.5704 138.912 11.974C138.643 12.3103 138.441 12.6467 138.172 12.983C137.768 13.4539 137.298 13.723 136.827 13.7903ZM138.374 18.4319H142.746C143.217 18.4319 143.486 18.3646 143.621 18.2974C143.755 18.1628 143.823 17.961 143.823 17.6247C143.823 17.2883 143.755 17.0865 143.621 17.0192C143.486 16.952 143.15 16.8847 142.746 16.8847H138.374V18.4319Z" fill="black"/>
<path d="M164.407 23.679C158.958 23.679 154.989 19.9118 154.989 14.2612C154.989 8.87961 158.353 4.50708 165.08 4.50708C171.672 4.50708 175.843 9.28323 175.843 18.4319C175.843 28.4551 172.412 33.7694 164.945 33.7694C159.698 33.7694 157.209 31.415 156.133 29.2623C155.999 28.926 155.931 28.6569 155.931 28.3878C155.931 27.5806 156.402 26.8406 157.277 26.437C157.748 26.1679 158.218 26.1007 158.622 26.1007C159.295 26.1007 159.9 26.3697 160.304 27.0424C161.044 28.3878 162.389 29.7332 165.013 29.7332C169.587 29.7332 171.269 25.3607 171.336 19.9791C169.856 22.4008 167.636 23.679 164.407 23.679ZM159.564 14.1267C159.564 17.6247 161.851 19.71 165.08 19.71C168.376 19.71 170.731 17.4229 170.731 14.1939C170.731 10.965 168.443 8.54326 165.147 8.54326C161.784 8.61053 159.564 10.8304 159.564 14.1267Z" fill="black"/>
<path d="M183.915 33.0967C183.377 33.0967 182.906 32.9621 182.503 32.6931C182.166 32.424 181.965 32.0204 181.897 31.4822C181.83 30.944 181.965 30.5404 182.301 30.2041C182.57 29.8677 182.974 29.6659 183.512 29.5986C184.252 29.5314 184.79 29.4641 185.194 29.3296C185.597 29.2623 185.866 29.0605 186.068 28.7241C186.27 28.4551 186.404 28.0514 186.539 27.5133C186.606 26.9079 186.741 26.3024 186.808 25.5625C186.875 24.8898 186.943 24.1498 187.01 23.4098C187.077 22.8044 186.943 22.4008 186.741 22.199C186.539 21.9972 186.135 21.8626 185.53 21.8626H184.521C183.445 21.8626 182.705 21.6608 182.234 21.1899C181.763 20.719 181.628 19.9791 181.763 18.9028C181.83 18.2301 181.897 17.6246 181.965 17.0865C182.032 16.5483 182.032 15.9429 182.099 15.3375C182.166 14.3284 182.436 13.6557 182.906 13.2521C183.377 12.8485 184.117 12.6467 185.059 12.6467H185.732C186.27 12.6467 186.606 12.5794 186.808 12.4449C187.01 12.3103 187.077 12.0412 187.077 11.6376V10.8304C187.077 10.3595 187.01 10.0232 186.808 9.88862C186.606 9.75408 186.27 9.61954 185.732 9.61954H182.57C182.099 9.61954 181.763 9.485 181.427 9.14865C181.157 8.87957 181.023 8.47595 181.023 8.07233C181.023 7.66872 181.157 7.2651 181.427 6.99602C181.696 6.72694 182.099 6.52513 182.57 6.52513H187.212C188.423 6.52513 189.23 6.79421 189.768 7.2651C190.306 7.73599 190.508 8.54322 190.508 9.68681V12.5121C190.508 13.6557 190.239 14.3957 189.768 14.8666C189.297 15.3375 188.557 15.5393 187.615 15.5393H186.606C186.135 15.5393 185.799 15.6065 185.597 15.7411C185.395 15.8756 185.261 16.1447 185.261 16.5483C185.261 16.7501 185.261 16.8847 185.261 17.0192C185.261 17.1537 185.261 17.2883 185.261 17.4228C185.194 17.8937 185.261 18.2301 185.463 18.3646C185.665 18.4991 186.001 18.5664 186.472 18.5664H187.548C188.692 18.5664 189.499 18.8355 189.97 19.3064C190.441 19.8445 190.71 20.5845 190.642 21.6608C190.575 22.8044 190.508 24.0153 190.441 25.1588C190.306 26.3024 190.239 27.3115 190.104 28.186C189.902 29.4641 189.566 30.4732 189.028 31.1459C188.49 31.8186 187.817 32.3567 187.01 32.6258C186.135 32.9621 185.126 33.0967 183.915 33.0967ZM199.791 33.5003C199.32 33.5003 198.917 33.3658 198.58 33.0294C198.244 32.7603 198.109 32.3567 198.109 31.8186V27.9169H192.257C191.786 27.9169 191.45 27.7824 191.181 27.446C190.912 27.1769 190.777 26.7733 190.777 26.3697C190.777 25.9661 190.912 25.5625 191.181 25.2934C191.45 25.0243 191.853 24.8225 192.257 24.8225H198.109V23.208H197.033C195.284 23.208 194.006 22.8717 193.266 22.199C192.526 21.5263 192.122 20.3827 192.122 18.701V16.2792C192.122 14.5975 192.526 13.4539 193.266 12.7812C194.006 12.1085 195.284 11.7722 197.033 11.7722H201.607V11.7049V11.6376C201.809 11.234 202.078 10.6959 202.415 10.0904C202.751 9.485 203.087 8.8123 203.356 8.1396C203.693 7.46691 203.895 6.99602 204.096 6.5924C204.298 6.12151 204.567 5.78516 204.971 5.65062C205.375 5.44881 205.845 5.44881 206.249 5.65062C206.653 5.78516 206.989 6.12151 207.191 6.52513C207.393 6.92875 207.393 7.33237 207.191 7.80326C207.056 8.1396 206.787 8.61049 206.518 9.08138C206.249 9.61954 205.98 10.1577 205.644 10.6959C205.375 11.234 205.105 11.7049 204.836 12.1085C205.711 12.3776 206.384 12.8485 206.787 13.5212C207.191 14.1939 207.393 15.1357 207.393 16.3465V18.7682C207.393 20.45 206.989 21.5935 206.249 22.2662C205.442 22.9389 204.231 23.2753 202.482 23.2753H201.406V24.8898H207.46C207.931 24.8898 208.267 25.0243 208.536 25.3607C208.805 25.6297 208.94 26.0334 208.94 26.437C208.94 26.8406 208.805 27.1769 208.536 27.5133C208.267 27.8496 207.864 27.9842 207.46 27.9842H201.406V31.8186C201.406 32.2894 201.271 32.6931 200.935 33.0294C200.666 33.2985 200.262 33.5003 199.791 33.5003ZM195.62 11.4358C195.217 11.6376 194.813 11.7049 194.41 11.5704C194.006 11.5031 193.67 11.234 193.468 10.8304C193.333 10.6286 193.199 10.3595 192.997 10.0232C192.795 9.68681 192.593 9.35046 192.391 9.01411C192.19 8.67776 192.055 8.40868 191.921 8.27414C191.719 7.87052 191.652 7.46691 191.786 7.06329C191.921 6.65967 192.19 6.32332 192.526 6.12151C192.93 5.9197 193.333 5.85243 193.804 5.98697C194.275 6.12151 194.611 6.39059 194.813 6.79421C194.948 6.99602 195.082 7.19783 195.284 7.53418C195.486 7.87052 195.62 8.20687 195.822 8.47595C196.024 8.8123 196.159 9.01411 196.226 9.21592C196.428 9.61954 196.495 10.0232 196.36 10.4268C196.293 10.8977 196.024 11.1667 195.62 11.4358ZM195.351 16.212H198.109V14.3284H197.369C196.562 14.3284 196.024 14.463 195.755 14.6648C195.486 14.9338 195.351 15.3375 195.351 16.0774V16.212ZM197.369 20.5845H198.109V18.701H195.351V18.8355C195.351 19.5082 195.486 19.9791 195.755 20.2482C196.091 20.5172 196.629 20.5845 197.369 20.5845ZM200.195 11.0995C199.791 11.234 199.388 11.234 198.984 11.0995C198.58 10.9649 198.311 10.6286 198.177 10.225C198.109 10.0232 198.042 9.68681 197.908 9.35046C197.773 9.01411 197.639 8.61049 197.504 8.27414C197.369 7.93779 197.235 7.60145 197.168 7.39964C196.966 6.92875 197.033 6.52513 197.235 6.12151C197.437 5.71789 197.773 5.51608 198.177 5.38154C198.648 5.247 199.051 5.247 199.455 5.38154C199.858 5.58335 200.127 5.85243 200.329 6.32332C200.397 6.52513 200.531 6.79421 200.666 7.13056C200.8 7.46691 200.935 7.87052 201.069 8.20687C201.204 8.54322 201.271 8.87957 201.338 9.08138C201.473 9.55227 201.473 9.95589 201.271 10.3595C201.069 10.7631 200.666 10.8977 200.195 11.0995ZM201.473 16.212H204.298V16.0774C204.298 15.4047 204.164 14.9338 203.895 14.6648C203.626 14.3957 203.087 14.3284 202.28 14.3284H201.473V16.212ZM201.473 20.5845H202.28C203.087 20.5845 203.626 20.45 203.895 20.2482C204.164 19.9791 204.298 19.5755 204.298 18.8355V18.701H201.473V20.5845Z" fill="black"/>
<path d="M228.381 30.7422C227.843 30.8768 227.372 30.8095 226.968 30.5404C226.497 30.2713 226.228 29.935 226.094 29.3968C225.959 28.9259 226.026 28.4551 226.295 28.0514C226.564 27.6478 226.901 27.3115 227.439 27.2442C229.659 26.6388 231.341 25.697 232.417 24.4189C233.493 23.1407 234.031 21.459 234.031 19.4409C234.031 18.1628 233.762 17.0192 233.157 16.0102C232.619 15.0011 231.812 14.1939 230.735 13.5884C229.726 12.983 228.448 12.5794 226.968 12.4449C226.632 15.8083 226.026 18.7682 225.152 21.2572C224.277 23.7462 223.268 25.6297 222.125 26.9751C220.981 28.3205 219.77 28.9932 218.492 28.9932C217.416 28.9932 216.474 28.6569 215.532 28.0514C214.658 27.446 213.918 26.5042 213.447 25.3606C212.976 24.2171 212.707 22.8044 212.707 21.1227C212.707 19.4409 213.043 17.8937 213.649 16.4138C214.254 14.9338 215.196 13.6557 216.34 12.5794C217.483 11.5031 218.896 10.6286 220.443 9.95588C222.057 9.35045 223.739 9.0141 225.69 9.0141C227.977 9.0141 230.063 9.48499 231.812 10.3595C233.628 11.234 234.973 12.4449 236.05 13.9921C237.059 15.5393 237.597 17.3555 237.597 19.4409C237.597 22.3335 236.79 24.8225 235.242 26.7733C233.628 28.5896 231.341 29.935 228.381 30.7422ZM218.492 25.0916C218.828 25.0916 219.299 24.7552 219.77 24.1498C220.241 23.5444 220.712 22.6699 221.183 21.5263C221.654 20.3827 222.125 19.0373 222.528 17.4901C222.932 15.9429 223.201 14.2611 223.403 12.3776C221.856 12.7139 220.51 13.2521 219.434 14.1266C218.358 15.0011 217.55 16.0102 217.012 17.1537C216.474 18.3646 216.205 19.5754 216.138 20.8536C216.138 22.199 216.339 23.2753 216.81 23.948C217.281 24.7552 217.819 25.0916 218.492 25.0916Z" fill="black"/>
<path d="M255.356 33.2985C254.818 33.2985 254.414 33.0967 254.011 32.7604C253.607 32.424 253.472 31.9531 253.472 31.415V20.2482H243.18C242.642 20.2482 242.238 20.0464 241.902 19.71C241.566 19.3737 241.364 18.9701 241.364 18.4319C241.364 17.961 241.566 17.4901 241.902 17.1538C242.238 16.8174 242.642 16.6156 243.18 16.6156H253.472V10.4941H245.064C244.593 10.4941 244.189 10.2923 243.853 9.95592C243.516 9.61957 243.315 9.21595 243.315 8.67779C243.315 8.13964 243.516 7.73602 243.853 7.39967C244.189 7.06332 244.593 6.86151 245.064 6.86151H265.783C266.254 6.86151 266.657 7.06332 267.061 7.39967C267.397 7.73602 267.599 8.13964 267.599 8.67779C267.599 9.14868 267.397 9.61957 267.061 9.95592C266.725 10.2923 266.321 10.4941 265.783 10.4941H257.239V16.8174H267.599C268.07 16.8174 268.474 17.0192 268.877 17.3556C269.214 17.6919 269.415 18.0956 269.415 18.6337C269.415 19.1719 269.214 19.5755 268.877 19.9118C268.541 20.2482 268.137 20.45 267.599 20.45H257.239V31.6168C257.239 32.1549 257.038 32.6258 256.701 32.9622C256.298 33.164 255.894 33.2985 255.356 33.2985Z" fill="black"/>
<path d="M274.528 33.433C273.855 33.5676 273.317 33.5676 272.913 33.3658C272.51 33.164 272.173 32.8276 272.039 32.3567C271.837 31.8186 271.904 31.3477 272.106 30.8768C272.308 30.4059 272.779 30.1368 273.519 30.0023C275.402 29.5987 277.084 29.0605 278.631 28.4551C280.178 27.8496 281.658 27.177 282.937 26.3697C281.995 25.4279 281.12 24.3516 280.313 23.208C279.506 22.0645 278.833 20.7863 278.228 19.3737H276.008C275.47 19.3737 275.066 19.2391 274.797 18.9028C274.461 18.5664 274.326 18.1628 274.326 17.6919C274.326 17.221 274.461 16.8174 274.797 16.4811C275.133 16.1447 275.537 16.0102 276.008 16.0102H283.811V13.0503H273.452C272.981 13.0503 272.577 12.9158 272.308 12.5794C272.039 12.2431 271.837 11.9067 271.837 11.4358C271.837 10.9649 271.972 10.5613 272.308 10.2922C272.577 9.9559 272.981 9.82136 273.452 9.82136H283.811V6.99603C283.811 6.45787 284.013 5.98699 284.349 5.65064C284.686 5.31429 285.156 5.17975 285.695 5.17975C286.233 5.17975 286.636 5.31429 287.04 5.65064C287.376 5.98699 287.578 6.45787 287.578 6.99603V9.82136H297.938C298.409 9.82136 298.812 9.9559 299.081 10.2922C299.35 10.5613 299.552 10.9649 299.552 11.4358C299.552 11.9067 299.418 12.2431 299.081 12.5794C298.812 12.9158 298.409 13.0503 297.938 13.0503H287.578V16.0102H289.26C290.74 16.0102 291.951 16.3465 292.691 16.8847C293.498 17.4901 293.902 18.2973 293.902 19.2391C293.902 20.2482 293.498 21.2572 292.691 22.3335C291.547 23.8135 290.269 25.2261 288.856 26.437C290.134 27.177 291.614 27.8496 293.094 28.3878C294.641 28.926 296.256 29.3296 297.938 29.6659C298.543 29.8005 299.014 30.0023 299.283 30.4059C299.552 30.8095 299.687 31.3477 299.552 31.8858C299.418 32.4913 299.081 32.8949 298.61 33.0967C298.139 33.2985 297.601 33.3658 296.929 33.2312C294.843 32.8276 292.892 32.2222 291.009 31.4149C289.125 30.675 287.376 29.7332 285.829 28.5896C282.667 30.8095 278.9 32.2895 274.528 33.433ZM285.829 24.3516C287.04 23.4098 288.116 22.3335 289.058 21.1899C289.529 20.5845 289.731 20.1136 289.596 19.8446C289.462 19.5082 288.856 19.3737 287.982 19.3737H281.927C282.869 21.1899 284.147 22.8717 285.829 24.3516Z" fill="black"/>
<path d="M306.683 32.0876C306.145 32.1549 305.741 32.0876 305.337 31.8186C304.934 31.5495 304.665 31.1459 304.597 30.675C304.463 30.0023 304.396 29.1278 304.328 27.9842C304.261 26.8406 304.194 25.5625 304.194 24.0825C304.194 22.6699 304.194 21.1899 304.194 19.6427C304.194 18.0955 304.261 16.6156 304.328 15.1357C304.396 13.6557 304.53 12.3103 304.665 11.1667C304.799 9.95589 304.934 9.01412 305.136 8.27415C305.27 7.80326 305.539 7.39964 305.943 7.13057C306.346 6.86149 306.817 6.79422 307.288 6.92876C307.759 7.0633 308.163 7.33237 308.432 7.73599C308.701 8.13961 308.768 8.6105 308.634 9.08139C308.432 9.82135 308.297 10.7631 308.163 11.9067C308.028 13.0503 307.961 14.2612 307.894 15.6066C307.826 16.9519 307.759 18.2973 307.759 19.71C307.759 21.1227 307.692 22.4681 307.759 23.8135C307.759 25.1589 307.826 26.3024 307.894 27.446C307.961 28.5223 308.028 29.3968 308.163 30.0695C308.23 30.5404 308.163 31.0113 307.894 31.4149C307.557 31.7513 307.154 31.9531 306.683 32.0876ZM316.773 31.9531C315.159 31.9531 313.881 31.5495 312.872 30.7422C311.863 29.935 311.392 28.7914 311.392 27.3115C311.392 25.8988 311.863 24.7552 312.872 23.8807C313.881 23.0735 315.226 22.6026 316.908 22.6026C317.446 22.6026 317.984 22.6026 318.522 22.6699C318.522 21.7281 318.455 20.7191 318.455 19.5755C318.455 18.4319 318.388 17.2883 318.32 16.1447C317.244 16.212 316.235 16.2793 315.226 16.2793C314.217 16.2793 313.342 16.2793 312.67 16.2793C312.132 16.2793 311.728 16.0774 311.392 15.7411C311.055 15.4047 310.921 14.9339 310.921 14.463C310.988 13.9921 311.19 13.5885 311.526 13.2521C311.863 12.9158 312.266 12.7812 312.804 12.7812C313.477 12.7812 314.352 12.7812 315.293 12.7812C316.235 12.7812 317.244 12.714 318.32 12.6467C318.32 11.9067 318.32 11.1667 318.32 10.4268C318.32 9.75408 318.32 9.08139 318.32 8.40869C318.32 7.9378 318.522 7.46691 318.859 7.13057C319.195 6.79422 319.599 6.59241 320.137 6.59241C320.675 6.59241 321.078 6.79422 321.415 7.13057C321.751 7.46691 321.953 7.9378 321.953 8.40869C321.953 9.01412 321.953 9.68681 321.953 10.3595C321.953 11.0322 321.953 11.7049 321.953 12.3776C322.827 12.3103 323.635 12.2431 324.375 12.1085C325.115 12.0413 325.72 11.974 326.258 11.8394C326.729 11.7722 327.2 11.8394 327.604 12.1085C328.007 12.3776 328.276 12.7812 328.344 13.2521C328.411 13.723 328.344 14.1939 328.007 14.5975C327.738 15.0011 327.335 15.2029 326.864 15.2702C326.326 15.3375 325.586 15.4047 324.778 15.5393C323.971 15.6738 323.029 15.7411 322.088 15.8084C322.155 17.221 322.155 18.5664 322.222 19.9118C322.289 21.2572 322.289 22.4008 322.289 23.4098C323.366 23.7462 324.442 24.2171 325.451 24.688C326.46 25.2261 327.267 25.697 328.007 26.2352C328.411 26.5715 328.68 26.9079 328.747 27.446C328.814 27.9169 328.747 28.3878 328.478 28.7914C328.209 29.195 327.805 29.4641 327.335 29.5314C326.864 29.6659 326.393 29.5314 325.989 29.195C325.518 28.7914 324.913 28.4551 324.307 28.0515C323.702 27.6478 323.097 27.3788 322.424 27.1097C321.953 30.4059 320.137 31.9531 316.773 31.9531ZM316.773 28.5896C318.051 28.5896 318.657 27.9842 318.657 26.7733C318.657 26.7061 318.657 26.6388 318.657 26.5043C318.657 26.437 318.657 26.3024 318.657 26.1679C318.051 26.0334 317.446 25.9661 316.84 25.9661C316.235 25.9661 315.764 26.1006 315.495 26.3024C315.226 26.5715 315.024 26.8406 315.024 27.2442C315.024 27.6478 315.159 27.9169 315.428 28.1187C315.63 28.4551 316.101 28.5896 316.773 28.5896Z" fill="black"/>
<path d="M335.272 33.0967C334.734 32.8949 334.465 32.5585 334.263 32.0876C334.129 31.6168 334.129 31.1459 334.398 30.7423C335.003 29.5314 335.541 28.186 335.945 26.7733C336.349 25.3607 336.685 23.7462 336.887 21.9299C337.089 20.1136 337.223 17.8937 337.223 15.4048V12.7812C337.223 11.1668 337.425 9.88863 337.896 9.01413C338.367 8.07235 339.107 7.46692 340.183 7.0633C341.259 6.65969 342.672 6.52515 344.488 6.52515H360.229C360.7 6.52515 361.037 6.65969 361.373 6.99603C361.709 7.33238 361.777 7.66873 361.777 8.07235C361.777 8.47597 361.642 8.87959 361.373 9.14867C361.104 9.48502 360.7 9.61955 360.229 9.61955H344.488C343.479 9.61955 342.739 9.68682 342.134 9.88863C341.596 10.0904 341.192 10.3595 340.923 10.8304C340.654 11.3013 340.587 11.974 340.587 12.8485V16.8174H360.633C361.104 16.8174 361.44 16.952 361.709 17.2883C361.978 17.6247 362.113 17.961 362.113 18.3646C362.113 18.7682 361.978 19.1719 361.709 19.4409C361.44 19.71 361.104 19.9118 360.633 19.9118H352.157C352.695 21.1227 353.368 22.3335 354.108 23.4098C354.444 23.1408 354.848 22.8717 355.251 22.5353C355.655 22.199 356.059 21.8626 356.462 21.5936C356.866 21.2572 357.135 21.0554 357.337 20.8536C357.673 20.5173 358.144 20.3827 358.615 20.3827C359.086 20.3827 359.489 20.5845 359.826 20.9209C360.162 21.2572 360.229 21.6608 360.229 22.1317C360.162 22.6026 359.96 22.939 359.557 23.2753C359.288 23.4771 358.951 23.7462 358.548 24.0153C358.144 24.3516 357.74 24.6207 357.27 24.9571C356.866 25.2934 356.462 25.5625 356.126 25.8316C356.866 26.5715 357.673 27.2442 358.548 27.9169C359.422 28.5896 360.364 29.1278 361.306 29.6659C361.777 29.935 362.113 30.2714 362.248 30.7423C362.382 31.2131 362.382 31.684 362.113 32.0876C361.844 32.6258 361.44 32.8949 360.902 32.9622C360.364 33.0967 359.893 32.9622 359.422 32.6931C356.664 31.1459 354.444 29.3296 352.763 27.177C351.081 25.0916 349.735 22.6026 348.861 19.7773H346.641V28.5896C347.381 28.4551 348.054 28.3205 348.726 28.186C349.399 28.0515 350.004 27.9842 350.543 27.8497C351.013 27.7824 351.484 27.7824 351.821 27.9842C352.157 28.186 352.359 28.5223 352.426 28.9932C352.493 29.4641 352.493 29.8677 352.292 30.2041C352.09 30.5404 351.753 30.7423 351.283 30.8768C350.744 31.0113 350.004 31.1459 349.13 31.2804C348.255 31.4149 347.314 31.6168 346.305 31.8186C345.296 32.0204 344.354 32.2222 343.479 32.3567C342.605 32.4913 341.865 32.6931 341.259 32.8276C340.721 32.9622 340.25 32.8276 339.847 32.6258C339.443 32.3567 339.241 32.0204 339.174 31.4149C339.107 30.9441 339.174 30.5404 339.443 30.2041C339.712 29.8677 340.116 29.5987 340.654 29.5314C340.99 29.4641 341.394 29.3969 341.798 29.3296C342.201 29.2623 342.672 29.195 343.076 29.1278V19.71H340.452C340.385 21.5263 340.183 23.1408 339.981 24.5534C339.779 25.9661 339.443 27.3115 339.039 28.4551C338.636 29.6659 338.165 30.8095 337.627 31.8858C337.425 32.3567 337.089 32.6258 336.618 32.8276C336.214 33.2985 335.743 33.2985 335.272 33.0967ZM343.21 14.6648C342.739 14.6648 342.403 14.5302 342.134 14.1939C341.865 13.9248 341.73 13.5885 341.73 13.1849C341.73 12.7812 341.865 12.4449 342.134 12.1758C342.403 11.9067 342.739 11.7722 343.21 11.7722H358.211C358.682 11.7722 359.019 11.9067 359.288 12.1758C359.557 12.4449 359.691 12.7812 359.691 13.1849C359.691 13.5885 359.557 13.9248 359.288 14.1939C359.019 14.463 358.682 14.6648 358.211 14.6648H343.21Z" fill="black"/>
<path d="M371.329 32.6258C370.589 32.5585 369.984 32.2222 369.513 31.684C369.042 31.1459 368.84 30.4732 368.907 29.7332C368.975 28.9932 369.311 28.3878 369.849 27.9169C370.387 27.446 371.06 27.2442 371.8 27.3115C372.54 27.3788 373.145 27.7151 373.616 28.2533C374.087 28.7914 374.289 29.4641 374.222 30.2041C374.154 30.9441 373.818 31.5495 373.28 32.0204C372.742 32.4913 372.069 32.6258 371.329 32.6258ZM372.069 25.0916C371.06 25.0243 370.589 24.2844 370.656 22.8717L371.396 9.48503C371.463 8.07236 372.203 7.46693 373.616 7.5342C375.029 7.66874 375.702 8.40871 375.5 9.82137L373.885 23.0735C373.616 24.5534 373.011 25.2261 372.069 25.0916Z" fill="black"/>
<path d="M2.21991 5.51611L13.723 33.0967" stroke="black" stroke-width="4" stroke-miterlimit="10" stroke-linecap="round" stroke-linejoin="round"/>
<path d="M406.78 5.51611L395.277 33.0967" stroke="black" stroke-width="4" stroke-miterlimit="10" stroke-linecap="round" stroke-linejoin="round"/>
</svg>
