<svg width="414" height="157" viewBox="0 0 414 157" fill="none" xmlns="http://www.w3.org/2000/svg">
<path d="M6.76405 104.703C5.76934 104.902 4.97357 104.703 4.1778 104.305C3.38202 103.907 2.98414 103.31 2.78519 102.315C2.58625 101.321 2.7852 100.525 3.18308 99.9282C3.58097 99.1324 4.37674 98.9334 5.17251 98.7345C6.36617 98.5356 7.55983 98.3366 8.3556 97.7398C9.15137 97.3419 9.74819 96.3472 10.1461 94.9546C10.544 93.562 10.7429 91.7715 10.7429 89.1853C10.7429 87.5937 10.7429 86.0022 10.544 84.6096C9.7482 85.8032 8.95242 86.7979 8.15665 87.9916C7.36088 88.9863 6.56511 89.981 5.76934 90.7768C5.17251 91.3736 4.57568 91.7715 3.77991 91.9705C2.98414 92.1694 2.18837 91.7715 1.59154 91.3736C0.994713 90.9757 0.596827 90.18 0.596827 89.5831C0.596827 88.9863 0.795773 88.1905 1.3926 87.5937C2.38732 86.599 3.18308 85.4053 4.1778 84.2117C5.17251 83.018 6.16722 81.6254 7.16194 80.2328C8.15665 78.8402 8.75349 77.6466 9.35031 76.6519C9.15137 75.8561 8.95242 75.2593 8.75348 74.6624C8.55454 74.0656 8.3556 73.4688 7.95771 72.673C6.963 73.6677 6.16722 74.4635 5.17251 75.4582C4.57568 76.055 3.97886 76.254 2.98414 76.254C2.18837 76.254 1.3926 76.055 0.795767 75.4582C0.198938 74.8614 0 74.2645 0 73.4688C0 72.673 0.397881 72.0762 0.795767 71.4793C2.18837 70.2857 3.38203 68.8931 4.97357 67.3016C4.37674 66.5058 3.97886 65.71 3.38203 64.9142C2.7852 64.1184 2.18837 63.3227 1.59154 62.5269C1.19366 61.9301 0.994711 61.3333 1.19365 60.5375C1.3926 59.7417 1.79049 59.3438 2.38732 58.9459C2.98414 58.548 3.58097 58.3491 4.37674 58.5481C5.17251 58.5481 5.76934 58.9459 6.16722 59.5428C7.16194 60.7364 7.95771 61.7311 8.95243 63.1237C9.35031 62.5269 9.94714 61.7311 10.345 61.1343C10.7429 60.5375 11.1408 59.9407 11.5387 59.3438C11.9366 58.5481 12.5334 58.1502 13.3292 57.9512C14.1249 57.7523 14.7218 57.7523 15.5175 58.1502C16.3133 58.5481 16.7112 59.1449 16.9101 59.7417C17.1091 60.3385 16.9101 61.1343 16.5123 61.9301C15.9154 62.9248 15.3186 63.9195 14.5228 65.1132C13.7271 66.3068 12.9313 67.3016 12.1355 68.2963C13.5281 71.2804 14.7218 74.4635 15.3186 77.8455C16.1144 81.2275 16.3133 85.2064 16.3133 89.5831C16.3133 93.562 15.9154 96.5461 15.1197 98.7345C14.3239 100.923 13.3292 102.315 11.9366 103.31C10.544 103.907 8.95242 104.504 6.76405 104.703ZM26.6583 75.0603C25.8626 75.0603 25.0668 74.8614 24.47 74.2646C23.8731 73.8667 23.6742 73.0709 23.6742 72.0762V69.092H18.1038C17.308 69.092 16.7112 68.8931 16.1144 68.2963C15.7165 67.6994 15.3186 67.1026 15.3186 66.5058C15.3186 65.9089 15.5175 65.1132 16.1144 64.7153C16.5123 64.1185 17.308 63.9195 18.1038 63.9195H23.6742V60.1396C23.6742 59.1449 23.8731 58.3491 24.47 57.9512C25.0668 57.5533 25.6636 57.1555 26.6583 57.1555C27.653 57.1555 28.0509 57.3544 28.6478 57.9512C29.2446 58.3491 29.4435 59.1449 29.4435 60.1396V63.9195H35.0139V60.1396C35.0139 59.1449 35.2129 58.3491 35.8097 57.9512C36.4065 57.5533 37.0034 57.1555 37.7991 57.1555C38.5949 57.1555 39.1917 57.3544 39.7886 57.9512C40.3854 58.3491 40.5843 59.1449 40.5843 60.1396V63.9195H46.1547C46.9505 63.9195 47.5473 64.1185 48.1442 64.7153C48.542 65.3121 48.9399 65.9089 48.9399 66.5058C48.9399 67.1026 48.741 67.8984 48.1442 68.2963C47.7463 68.8931 46.9505 69.092 46.1547 69.092H40.5843V72.2751C40.5843 73.2698 40.3854 73.8666 39.7886 74.4635C39.1917 74.8614 38.5949 75.2593 37.7991 75.2593C37.0034 75.2593 36.4065 75.0603 35.8097 74.4635C35.2129 74.0656 35.0139 73.2698 35.0139 72.2751V69.092H29.4435V72.2751C29.4435 73.2698 29.2446 73.8666 28.6478 74.4635C28.0509 74.8614 27.4541 75.0603 26.6583 75.0603ZM28.8467 103.907C25.2657 103.907 22.6795 103.111 21.0879 101.719C19.4964 100.326 18.7006 97.9387 18.7006 94.3578V85.4053C18.7006 82.0233 19.4964 79.4371 21.0879 78.0445C22.6795 76.6519 25.2657 75.8561 28.8467 75.8561H36.4065C39.9875 75.8561 42.5738 76.6519 44.1653 78.0445C45.7568 79.4371 46.5526 81.8244 46.5526 85.4053V94.3578C46.5526 97.9387 45.7568 100.326 44.1653 101.719C42.5738 103.111 39.9875 103.907 36.4065 103.907H28.8467ZM24.6689 87.3948H30.0404V81.6254H29.4435C28.2499 81.6254 27.2552 81.8244 26.6583 82.0233C26.0615 82.2223 25.4647 82.6202 25.2657 83.217C25.0668 83.8138 24.8679 84.6096 24.8679 85.8032V87.3948H24.6689ZM29.2446 98.5356H29.8414V92.7662H24.47V94.5567C24.47 96.1483 24.6689 97.3419 25.2657 97.7398C26.0615 98.1377 27.4541 98.5356 29.2446 98.5356ZM35.4118 87.3948H40.7833V85.6043C40.7833 84.4106 40.5843 83.6149 40.3854 83.018C40.1864 82.4212 39.7886 82.0233 38.9928 81.8244C38.396 81.6254 37.4013 81.4265 36.0087 81.4265H35.4118V87.3948ZM35.4118 98.5356H36.0087C37.2023 98.5356 38.197 98.3366 38.9928 98.1377C39.5896 97.9387 39.9875 97.5409 40.3854 96.944C40.5843 96.3472 40.7833 95.5514 40.7833 94.3578V92.5673H35.4118V98.5356Z" fill="#010F32"/>
<path d="M56.3008 83.2169C55.5051 83.2169 54.9082 83.018 54.5103 82.4211C53.9135 81.8243 53.7146 81.2275 53.7146 80.6307C53.7146 80.0338 53.9135 79.238 54.5103 78.8401C55.1072 78.2433 55.704 78.0444 56.3008 78.0444H61.4733C61.2744 77.8454 61.2744 77.8455 61.2744 77.6465C61.2744 77.4476 61.0755 77.4476 61.0755 77.2486C60.8765 76.4529 60.4786 75.6571 59.8818 74.6624C59.4839 73.6677 59.086 72.8719 58.6881 72.2751C58.2903 71.6782 58.2903 70.8824 58.4892 70.0867C58.6881 69.2909 59.285 68.893 59.8818 68.4951C60.0808 68.4951 60.0807 68.2962 60.2797 68.2962C60.4786 68.2962 60.4786 68.2962 60.6776 68.0972H57.8924C57.0966 68.0972 56.4998 67.8983 56.1019 67.3015C55.5051 66.9036 55.3061 66.3068 55.3061 65.511C55.3061 64.7152 55.5051 64.3173 56.1019 63.7205C56.6987 63.3226 57.2956 62.9247 57.8924 62.9247H65.0543V59.5427C65.0543 58.548 65.4522 57.7522 66.049 57.1554C66.6459 56.5586 67.4416 56.3596 68.2374 56.3596C69.2321 56.3596 69.8289 56.5586 70.4258 57.1554C71.0226 57.7522 71.4205 58.548 71.4205 59.5427V62.9247H78.5824C79.3782 62.9247 79.7761 63.1237 80.3729 63.7205C80.7708 64.1184 81.1687 64.7152 81.1687 65.511C81.1687 66.3068 80.9697 66.7047 80.3729 67.3015C79.975 67.6994 79.3782 68.0972 78.5824 68.0972H75.9962L76.1951 68.2962C76.9909 68.4951 77.3888 69.092 77.7867 69.6888C78.1845 70.2856 78.1845 71.0814 77.7867 71.8771C77.5877 72.474 77.1898 73.4687 76.593 74.4634C75.9962 75.6571 75.5983 76.6518 75.2004 77.6465H79.3782C80.174 77.6465 80.7708 77.8454 81.1687 78.4423C81.7655 79.0391 81.9645 79.6359 81.9645 80.2328C81.9645 80.8296 81.7655 81.6254 81.1687 82.0232C80.5719 82.6201 79.975 82.819 79.3782 82.819H56.3008V83.2169ZM68.0385 103.907C65.4522 103.907 63.4628 103.708 61.8712 103.111C60.4786 102.514 59.4839 101.719 58.8871 100.326C58.2903 98.9334 58.0913 97.1429 58.0913 94.9545C58.0913 92.5672 58.2903 90.7767 58.8871 89.5831C59.4839 88.1905 60.4786 87.3947 61.8712 86.7979C63.2638 86.201 65.2533 86.0021 68.0385 86.0021C70.6247 86.0021 72.8131 86.201 74.2057 86.7979C75.5983 87.3947 76.593 88.1905 77.1898 89.5831C77.7867 90.9757 77.9856 92.7662 77.9856 94.9545C77.9856 97.3418 77.7867 99.1323 77.1898 100.326C76.593 101.52 75.5983 102.514 74.2057 103.111C72.8131 103.708 70.8237 103.907 68.0385 103.907ZM65.8501 78.0444H69.2321C69.63 77.2486 69.8289 76.4529 70.4258 75.2592C70.8237 74.2645 71.2215 73.2698 71.6194 72.2751C72.0173 71.2803 72.2163 70.6835 72.4152 70.0867C72.8131 69.2909 73.4099 68.6941 74.2057 68.2962H62.0702C62.8659 68.4951 63.2638 68.893 63.6617 69.6888C63.8607 70.0867 64.2585 70.6835 64.4575 71.2803C64.8554 71.8772 65.0543 72.6729 65.4522 73.2698C65.6511 73.8666 66.049 74.4634 66.049 74.6624C66.8448 76.055 66.6459 77.2486 65.8501 78.0444ZM68.0385 98.5355C69.0332 98.5355 70.0279 98.5355 70.4258 98.3366C71.0226 98.1376 71.4205 97.7397 71.6194 97.3418C71.8184 96.745 72.0173 95.9492 72.0173 94.9545C72.0173 93.9598 71.8184 93.1641 71.6194 92.5672C71.4205 91.9704 71.0226 91.7715 70.4258 91.5725C69.8289 91.3736 69.0332 91.3736 68.0385 91.3736C67.0437 91.3736 66.248 91.3736 65.6511 91.5725C65.0543 91.7715 64.6564 92.1693 64.4575 92.5672C64.2585 93.1641 64.0596 93.9598 64.0596 94.9545C64.0596 95.9492 64.2585 96.944 64.4575 97.3418C64.6564 97.9387 65.0543 98.3366 65.6511 98.3366C66.248 98.5355 67.0437 98.5355 68.0385 98.5355ZM85.9433 105.499C85.1475 105.499 84.3518 105.3 83.7549 104.703C83.1581 104.106 82.9592 103.509 82.9592 102.514V66.3068C82.9592 64.3173 83.1581 62.9247 83.7549 61.93C84.3518 60.9353 85.3465 60.1395 86.7391 59.7417C88.1317 59.3438 90.3201 59.1448 92.9063 59.1448C97.0841 59.1448 99.8693 59.9406 100.864 61.3332C102.058 62.9247 101.859 65.1131 100.665 67.8983C100.267 69.092 99.6704 70.0867 99.2725 71.0814C98.8746 72.0761 98.4767 72.8719 98.0788 73.6677C97.6809 74.4634 97.482 75.2592 97.2831 75.6571C97.0841 76.055 97.283 76.6518 97.482 77.0497C97.6809 77.4476 98.2778 78.0444 98.8746 78.8401C100.267 80.4317 101.262 82.0233 102.058 83.6148C102.853 85.2063 103.251 87.1958 103.251 89.3841C103.251 92.7662 102.456 95.3524 100.665 96.944C98.8746 98.5355 96.4873 99.5302 93.5031 99.5302C92.5084 99.5302 91.7127 99.3313 91.1158 98.7344C90.519 98.3365 90.1211 97.5408 90.1211 96.5461C90.1211 95.5514 90.3201 94.9545 90.7179 94.3577C91.3148 93.7609 92.1105 93.363 93.1053 93.363C94.4979 93.164 95.4926 92.7662 96.0894 92.3683C96.6862 91.7714 96.8852 90.7767 96.8852 89.1852C96.8852 87.5937 96.6862 86.201 96.0894 85.0074C95.4926 83.6148 94.8957 82.4211 93.901 81.2275C93.1053 80.2328 92.5084 79.437 92.1105 78.6412C91.7127 78.0444 91.5137 77.2486 91.3148 76.6518C91.3148 76.055 91.3148 75.4581 91.5137 74.6624C91.7127 73.8666 91.9116 73.0708 92.5084 71.8771C92.9063 71.0814 93.1052 70.2856 93.5031 69.4898C93.901 68.6941 94.1 68.0972 94.4978 67.1025C94.8957 66.1078 94.8957 65.511 94.6968 65.1131C94.2989 64.7152 93.5031 64.5163 92.3095 64.5163C91.1158 64.5163 90.1211 64.7152 89.7232 64.9142C89.3253 65.312 89.1264 65.9089 89.1264 67.1025V102.912C89.1264 103.907 88.9275 104.504 88.3306 105.101C87.3359 105.101 86.7391 105.499 85.9433 105.499Z" fill="#010F32"/>
<path d="M117.177 95.5514C116.382 95.5514 115.586 95.1535 114.989 94.5567C114.392 93.9598 113.994 93.1641 113.994 92.3683C113.994 91.3736 114.392 90.7768 114.989 90.1799C115.586 89.5831 116.382 89.1852 117.177 89.1852H135.48C137.668 89.1852 139.26 88.9862 140.255 88.7873C141.249 88.3894 142.045 87.7926 142.443 86.5989C142.841 85.6042 143.04 83.8138 143.04 81.6254C143.04 79.437 142.841 77.6465 142.443 76.6518C142.045 75.6571 141.448 74.8613 140.255 74.4634C139.26 74.0655 137.668 74.0655 135.48 74.0655H117.774C116.978 74.0655 116.183 73.6677 115.586 73.0708C114.989 72.474 114.591 71.6782 114.591 70.6835C114.591 69.6888 114.989 69.092 115.586 68.4951C116.183 67.8983 116.978 67.5004 117.774 67.5004H135.48C138.265 67.5004 140.454 67.6994 142.244 68.0973C144.035 68.4951 145.427 69.2909 146.422 70.2856C147.417 71.2804 148.212 72.673 148.61 74.6624C149.008 76.4529 149.207 78.8402 149.207 81.6254C149.207 84.4106 149.008 86.7979 148.61 88.5884C148.212 90.3789 147.417 91.7715 146.422 92.9651C145.427 94.1588 144.035 94.7556 142.045 95.1535C140.255 95.5514 137.867 95.7503 135.281 95.7503H117.177V95.5514Z" fill="#010F32"/>
<path d="M170.096 102.315C169.3 102.514 168.505 102.514 167.709 102.116C166.913 101.719 166.316 101.122 166.117 100.326C165.918 99.5302 165.918 98.7344 166.316 97.9386C166.714 97.1429 167.311 96.546 168.107 96.3471C172.483 94.9545 176.263 92.9651 179.446 90.3788C182.63 87.7926 185.017 85.0074 186.608 81.8243C187.802 79.238 186.807 77.8454 183.823 77.8454H164.725C163.929 77.8454 163.133 77.4475 162.536 76.8507C161.939 76.2539 161.542 75.4581 161.542 74.6623C161.542 73.6676 161.939 73.0708 162.536 72.474C163.133 71.8771 163.929 71.6782 164.725 71.6782H184.022C187.006 71.6782 189.394 72.275 190.985 73.2697C192.577 74.4634 193.571 75.856 193.77 77.8454C193.969 79.8348 193.571 82.0232 192.378 84.6095C190.388 88.5883 187.603 92.1693 183.624 95.3524C179.645 98.1376 175.07 100.525 170.096 102.315ZM168.107 67.5004C167.311 67.5004 166.515 67.3015 165.918 66.7046C165.322 66.1078 164.924 65.312 164.924 64.5162C164.924 63.5215 165.322 62.9247 165.918 62.3279C166.515 61.7311 167.311 61.5321 168.107 61.5321H188.001C188.797 61.5321 189.593 61.7311 190.189 62.3279C190.786 62.9247 191.184 63.7205 191.184 64.5162C191.184 65.312 190.786 66.1078 190.189 66.7046C189.593 67.3015 188.797 67.5004 188.001 67.5004H168.107Z" fill="#010F32"/>
<path d="M209.686 94.7555C208.89 95.1534 208.094 95.3524 207.298 95.1535C206.503 94.9545 205.707 94.3577 205.309 93.7608C204.911 92.9651 204.712 92.1693 204.911 91.3735C205.11 90.5777 205.707 89.782 206.503 89.3841C207.895 88.3894 209.487 87.3947 210.879 86.0021C212.471 84.8084 213.665 83.4158 214.858 82.2222C215.455 81.6253 216.251 81.2274 217.047 81.0285C217.842 80.8296 218.638 81.0285 219.235 81.4264C220.031 82.0232 220.429 82.62 220.429 83.6148C220.429 84.6095 220.429 85.2063 219.832 86.0021C219.036 87.1957 217.842 88.1904 216.649 89.3841C215.455 90.5777 214.261 91.5725 213.068 92.5672C211.874 93.363 210.68 94.1587 209.686 94.7555ZM220.031 101.321C219.235 101.321 218.439 100.923 217.842 100.326C217.246 99.7291 216.848 98.9334 216.848 98.1376C216.848 97.1429 217.246 96.546 217.842 95.7503C218.439 94.9545 219.235 94.7555 220.031 94.7555C221.622 94.7555 222.816 94.5566 223.214 93.9598C223.612 93.5619 224.01 92.5672 224.01 90.9756V76.4528H210.084C209.288 76.4528 208.492 76.0549 207.895 75.4581C207.298 74.8613 207.099 74.0655 207.099 73.2697C207.099 72.474 207.298 71.6782 207.895 71.0814C208.492 70.4845 209.288 70.0866 210.084 70.0866H224.01V64.5162C224.01 63.5215 224.408 62.9247 225.004 62.3279C225.601 61.7311 226.397 61.3332 227.193 61.3332C228.187 61.3332 228.784 61.7311 229.381 62.3279C229.978 62.9247 230.376 63.7205 230.376 64.5162V70.0866H243.307C244.103 70.0866 244.899 70.4845 245.495 71.0814C246.092 71.6782 246.291 72.474 246.291 73.2697C246.291 74.0655 246.092 74.8613 245.495 75.4581C244.899 76.0549 244.103 76.4528 243.307 76.4528H230.376V91.3735C230.376 94.9545 229.58 97.5408 227.988 98.9334C226.397 100.326 223.811 101.321 220.031 101.321ZM248.281 93.5619C247.684 94.1587 246.888 94.3577 245.893 94.3577C245.098 94.3577 244.302 93.9598 243.705 93.3629C243.108 92.5672 242.113 91.9704 241.318 90.9756C240.323 90.1799 239.328 89.1851 238.333 88.3894C237.339 87.5936 236.344 86.7979 235.548 86.201C234.753 85.8031 234.355 85.0074 234.156 84.2116C233.957 83.4158 234.156 82.62 234.554 81.8243C234.951 81.0285 235.747 80.6306 236.543 80.4317C237.339 80.2327 238.135 80.4317 238.93 80.8295C239.925 81.4264 240.92 82.2222 242.113 83.2169C243.307 84.2116 244.501 85.2063 245.694 86.201C246.888 87.1957 247.883 88.1904 248.679 88.9862C249.275 89.583 249.673 90.3788 249.474 91.3735C249.275 92.3682 248.877 92.9651 248.281 93.5619ZM246.291 68.694C245.893 69.0919 245.296 69.2909 244.7 69.2909C244.103 69.2909 243.506 68.893 243.108 68.4951C242.71 68.0972 242.113 67.5004 241.517 66.7046C240.92 65.9089 240.323 65.312 239.726 64.7152C239.328 64.3173 239.129 63.9194 239.129 63.3226C239.129 62.7258 239.328 62.3279 239.726 61.93C240.124 61.5321 240.721 61.3332 241.119 61.3332C241.716 61.3332 242.113 61.5321 242.511 61.93C243.108 62.3279 243.705 62.9247 244.501 63.5215C245.297 64.3173 245.893 64.9141 246.291 65.511C246.689 65.9088 246.888 66.5057 246.888 67.1025C246.888 67.6993 246.689 68.2962 246.291 68.694ZM247.883 64.1184C247.485 63.7205 246.888 63.1237 246.291 62.3279C245.694 61.7311 245.098 61.1342 244.501 60.5374C244.103 60.1395 243.904 59.7416 243.904 59.1448C243.904 58.548 244.103 58.1501 244.501 57.5532C244.899 57.1554 245.297 56.9564 245.893 56.9564C246.49 56.9564 246.888 57.1554 247.485 57.3543C248.082 57.7522 248.679 58.1501 249.474 58.7469C250.27 59.3437 250.867 59.9406 251.464 60.5374C251.862 60.9353 252.061 61.5321 252.061 62.1289C252.061 62.7258 251.862 63.3226 251.464 63.7205C251.066 64.1184 250.469 64.3173 249.872 64.3173C249.275 64.3173 248.281 64.5162 247.883 64.1184Z" fill="#010F32"/>
<path d="M285.682 105.697C284.886 105.697 284.09 105.3 283.493 104.902C282.897 104.305 282.499 103.509 282.499 102.514V93.7608H261.013C260.217 93.7608 259.62 93.5619 259.024 92.9651C258.427 92.3682 258.228 91.7714 258.228 90.9756C258.228 90.1799 258.427 89.583 259.024 88.9862C259.62 88.3894 260.217 88.1905 261.013 88.1905H267.777V83.8137C267.777 81.6253 267.976 80.0338 268.573 78.6412C269.17 77.4475 270.164 76.4528 271.557 75.856C272.95 75.2591 274.939 75.0602 277.525 75.0602H282.101V69.0919H271.358C270.363 70.6835 269.369 72.0761 268.175 73.4687C266.981 74.8613 265.987 76.0549 264.793 77.2486C264.196 77.8454 263.4 78.2433 262.406 78.4422C261.61 78.6412 260.814 78.2433 260.018 77.6465C259.421 77.0497 259.024 76.4528 259.024 75.6571C259.024 74.8613 259.222 74.0655 260.018 73.4687C261.411 72.0761 262.803 70.4845 264.196 68.6941C265.589 66.9036 266.782 65.1131 267.976 63.3226C269.17 61.5321 270.164 59.7416 270.761 58.1501C271.159 57.3543 271.756 56.9564 272.552 56.5585C273.347 56.3596 274.143 56.3596 274.939 56.7575C275.735 57.1554 276.133 57.5533 276.53 58.349C276.729 59.1448 276.729 59.7416 276.332 60.5374C275.934 61.5321 275.337 62.7258 274.74 63.7205H301.796C302.592 63.7205 303.189 63.9194 303.786 64.5162C304.382 65.1131 304.581 65.7099 304.581 66.5057C304.581 67.3014 304.382 67.8983 303.786 68.4951C303.189 69.0919 302.592 69.2909 301.796 69.2909H288.666V75.2592H298.613C299.409 75.2592 300.006 75.4581 300.603 76.0549C301.199 76.6518 301.398 77.2486 301.398 78.0444C301.398 78.8401 301.199 79.437 300.603 80.0338C300.006 80.6306 299.409 80.8295 298.613 80.8295H288.666V88.3894H304.184C304.979 88.3894 305.576 88.5883 306.173 89.1852C306.77 89.782 306.969 90.3788 306.969 91.1746C306.969 91.9704 306.77 92.5672 306.173 93.164C305.576 93.7609 304.979 93.9598 304.184 93.9598H288.666V102.713C288.666 103.708 288.268 104.504 287.671 105.101C287.273 105.3 286.677 105.697 285.682 105.697ZM274.143 88.1905H282.3V80.6306H277.724C276.332 80.6306 275.337 80.8296 274.939 81.2275C274.541 81.6253 274.342 82.4211 274.342 83.8137V88.1905H274.143Z" fill="#010F32"/>
<path d="M317.115 77.4476C316.319 77.8455 315.722 78.0444 314.728 78.0444C313.932 78.0444 313.136 77.6465 312.738 76.8507C312.34 76.2539 312.141 75.6571 312.34 74.8613C312.539 74.0655 312.937 73.4687 313.534 73.2698C315.324 72.2751 316.916 71.0814 318.11 69.8877C319.303 68.6941 320.099 67.1026 320.895 65.3121H315.324C314.529 65.3121 314.131 65.1131 313.733 64.7152C313.335 64.3174 313.136 63.7205 313.136 63.1237C313.136 62.5269 313.335 61.93 313.733 61.5321C314.131 61.1343 314.728 60.9353 315.324 60.9353H321.889C321.889 60.7364 322.088 60.3385 322.088 59.9406C322.088 59.5427 322.088 59.3438 322.088 58.9459C322.088 57.9512 322.486 57.3544 323.083 56.9565C323.68 56.5586 324.476 56.3596 325.272 56.5586C326.067 56.5586 326.664 56.9565 327.062 57.3544C327.46 57.9512 327.858 58.548 327.659 59.5427C327.659 59.7417 327.659 59.9406 327.659 60.1396C327.659 60.3385 327.659 60.5374 327.659 60.7364H331.041C333.229 60.7364 334.622 61.3332 335.617 62.3279C336.611 63.3226 337.009 64.9142 336.611 67.3015C336.412 69.2909 336.014 70.8825 335.418 71.8772C334.821 72.8719 334.025 73.6677 332.831 74.0655C331.638 74.4634 330.245 74.6624 328.654 74.6624C327.858 74.6624 327.261 74.4634 326.863 74.0655C326.465 73.6677 326.067 73.0708 326.067 72.2751C326.067 71.4793 326.266 70.8825 326.664 70.4846C327.062 69.8877 327.659 69.6888 328.256 69.6888C329.449 69.6888 330.245 69.4899 330.444 69.2909C330.842 69.092 331.041 68.4951 331.24 67.5004C331.439 66.7047 331.439 66.1078 331.041 65.9089C330.842 65.7099 330.245 65.511 329.449 65.511H326.863C326.067 68.2962 324.675 70.6835 323.282 72.673C321.889 74.6624 319.303 76.055 317.115 77.4476ZM318.706 105.3C317.712 105.499 316.916 105.499 316.319 105.3C315.523 105.101 315.125 104.504 314.926 103.708C314.728 102.912 314.728 102.315 315.125 101.52C315.523 100.724 315.921 100.326 316.717 100.127C317.712 99.9281 318.706 99.7292 319.701 99.3313C320.895 98.9334 322.088 98.5355 323.282 98.1376C324.476 97.7398 325.669 97.1429 326.465 96.745C324.277 96.3471 322.685 95.5514 321.691 94.5567C320.696 93.363 320.298 91.5725 320.298 89.3841V83.2169C320.298 80.2328 321.094 78.2434 322.486 77.2486C323.879 76.2539 326.465 75.4581 330.046 75.4581H342.381C345.962 75.4581 348.548 76.055 349.94 77.2486C351.333 78.4423 352.129 80.4317 352.129 83.2169V89.3841C352.129 91.7715 351.731 93.5619 350.736 94.7556C349.741 95.9492 348.15 96.745 345.962 96.944C347.553 97.7397 349.145 98.3366 350.935 98.9334C352.726 99.5302 354.317 100.127 355.71 100.326C356.506 100.525 357.102 100.923 357.301 101.719C357.5 102.514 357.699 103.111 357.5 103.907C357.301 104.703 356.704 105.3 356.108 105.499C355.312 105.697 354.516 105.697 353.72 105.499C352.527 105.101 351.333 104.703 349.94 104.305C348.548 103.907 347.155 103.111 345.763 102.514C344.37 101.918 343.176 101.321 342.182 100.923C341.585 100.525 341.187 99.9281 340.988 99.3313C340.789 98.7345 340.988 98.1376 341.187 97.5408H331.24L331.439 97.7397C331.837 98.3366 331.837 98.9334 331.638 99.5302C331.439 100.127 331.041 100.724 330.444 101.122C329.449 101.719 328.256 102.116 326.863 102.713C325.47 103.31 324.078 103.907 322.685 104.504C321.293 105.101 319.9 104.902 318.706 105.3ZM326.465 87.1958H345.962V85.0074H326.465V87.1958ZM326.664 81.6254H345.962C345.763 80.8296 345.564 80.4317 344.967 80.0338C344.569 79.8349 343.574 79.636 342.381 79.636H330.046C328.852 79.636 328.057 79.8349 327.46 80.0338C327.062 80.4317 326.664 80.8296 326.664 81.6254ZM330.046 92.7662H342.381C343.574 92.7662 344.569 92.5672 344.967 92.3683C345.365 92.1693 345.763 91.5725 345.763 90.7767H326.465C326.465 91.5725 326.863 92.1693 327.261 92.3683C328.057 92.7662 328.852 92.7662 330.046 92.7662ZM347.155 73.4687C345.166 73.4687 343.773 73.2698 342.58 72.8719C341.386 72.474 340.59 71.6782 339.993 70.6835C339.396 69.6888 339.198 68.0973 339.198 66.3068C339.198 64.3174 339.396 62.9247 339.993 61.93C340.59 60.9353 341.386 60.1396 342.58 59.7417C343.773 59.3438 345.365 59.1448 347.155 59.1448H350.139C352.129 59.1448 353.72 59.3438 354.715 59.7417C355.909 60.1396 356.704 60.9353 357.102 61.93C357.5 62.9247 357.898 64.5163 357.898 66.3068C357.898 68.2962 357.699 69.6888 357.102 70.6835C356.506 71.6782 355.71 72.474 354.715 72.8719C353.521 73.2698 351.93 73.4687 350.139 73.4687H347.155ZM347.553 68.893H350.139C351.333 68.893 352.129 68.6941 352.527 68.4951C352.925 68.0973 353.124 67.5004 353.124 66.5057C353.124 65.511 352.925 64.7152 352.527 64.3174C352.129 63.9195 351.333 63.9195 350.139 63.9195H347.553C346.359 63.9195 345.564 64.1184 345.166 64.3174C344.768 64.7152 344.569 65.3121 344.569 66.5057C344.569 67.5004 344.768 68.2962 345.166 68.4951C345.564 68.6941 346.359 68.893 347.553 68.893Z" fill="#010F32"/>
<path d="M378.19 105.3C377.395 105.3 376.599 105.101 376.002 104.504C375.405 103.907 375.206 103.31 375.206 102.315V88.9863C374.211 89.7821 373.217 90.5778 372.023 91.3736C370.829 92.1694 370.034 92.7662 369.437 93.363C368.641 93.7609 367.845 93.9599 367.049 93.9599C366.254 93.7609 365.458 93.3631 365.06 92.5673C364.662 91.7715 364.463 90.9757 364.662 90.18C364.861 89.3842 365.259 88.7874 366.055 88.3895C366.453 87.9916 367.248 87.5937 368.044 86.9969C368.84 86.4 369.636 85.8032 370.63 85.2064C371.625 84.6096 372.421 83.8138 373.217 83.217C374.013 82.6201 374.609 82.0233 375.206 81.6254V75.0603C375.007 75.6571 374.41 76.055 373.814 76.4529C373.018 76.8508 372.222 77.0497 371.426 76.6519C370.63 76.254 370.034 75.8561 369.636 75.0603C369.437 74.6624 369.039 74.0656 368.641 73.2698C368.243 72.4741 367.646 71.6783 367.248 70.8825C366.851 70.0867 366.453 69.4899 366.254 69.092C365.856 68.2963 365.657 67.6994 365.856 66.9036C366.055 66.1079 366.652 65.5111 367.447 65.1132C368.243 64.7153 369.039 64.5163 369.835 64.7153C370.63 64.9142 371.227 65.3121 371.625 66.1079C371.824 66.5058 372.222 67.3015 372.819 68.0973C373.217 68.8931 373.814 69.6888 374.211 70.4846C374.609 71.2804 375.007 71.8772 375.206 72.2751L375.405 72.673V60.1396C375.405 59.1449 375.604 58.548 376.201 57.9512C376.798 57.3544 377.395 57.1555 378.389 57.1555C379.384 57.1555 379.782 57.3544 380.379 57.9512C380.975 58.548 381.174 59.1449 381.174 60.1396V102.117C381.174 102.912 380.975 103.708 380.379 104.305C379.583 105.101 378.986 105.3 378.19 105.3ZM408.827 103.31C406.042 101.321 403.854 98.9334 401.864 96.3472C400.074 93.7609 398.482 90.9757 397.488 88.1905C396.493 90.9757 395.1 93.7609 393.509 96.3472C391.917 98.9334 389.53 101.122 386.944 103.111C386.148 103.708 385.352 103.907 384.556 103.907C383.761 103.907 382.965 103.509 382.368 102.713C381.97 101.918 381.771 101.321 381.771 100.525C381.97 99.7292 382.368 99.1324 382.965 98.5356C389.53 93.7609 393.31 86.9969 393.907 78.0445H385.153C384.358 78.0445 383.761 77.8455 383.164 77.2487C382.567 76.6519 382.368 76.055 382.368 75.2593C382.368 74.4635 382.567 73.8667 383.164 73.2698C383.761 72.673 384.358 72.474 385.153 72.474H394.106V60.5375C394.106 59.5428 394.504 58.946 395.1 58.3491C395.697 57.7523 396.493 57.5533 397.289 57.5533C398.085 57.5533 398.88 57.7523 399.477 58.3491C400.074 58.946 400.273 59.5428 400.273 60.5375V72.474H410.817C411.613 72.474 412.21 72.673 412.806 73.2698C413.403 73.8667 413.602 74.4635 413.602 75.2593C413.602 76.055 413.403 76.6519 412.806 77.2487C412.21 77.8455 411.613 78.0445 410.817 78.0445H400.472C400.87 82.4212 402.262 86.4 404.451 89.7821C406.639 93.1641 409.424 96.1483 412.806 98.5356C413.602 98.9335 414 99.7292 414 100.525C414 101.321 413.801 102.117 413.403 102.713C412.806 103.509 412.011 103.907 411.215 103.907C410.419 104.106 409.623 103.907 408.827 103.31ZM411.016 69.4899C410.419 69.8878 409.822 70.2857 408.827 70.0867C407.833 69.8878 407.435 69.6889 406.838 69.092C406.639 68.6941 406.241 68.2963 405.644 67.6994C405.247 67.1026 404.65 66.5058 404.053 65.9089C403.456 65.3121 403.058 64.9142 402.859 64.5163C402.461 63.9195 402.063 63.3227 402.262 62.5269C402.461 61.7311 402.66 61.1343 403.257 60.7364C403.854 60.1396 404.451 59.9406 405.247 59.9406C406.042 59.9406 406.639 60.1396 407.236 60.7364C407.634 61.1343 408.032 61.5322 408.43 62.129C409.026 62.7259 409.424 63.3227 410.021 63.7206C410.618 64.3174 410.817 64.7153 411.016 64.9142C411.613 65.71 412.011 66.3068 411.812 67.1026C411.613 67.8984 411.812 68.8931 411.016 69.4899Z" fill="#010F32"/>
<path d="M142.33 154.08V152.16C142.33 139.344 157.066 138.432 157.066 131.328C157.066 129.072 155.914 126.624 151.93 126.624C149.674 126.624 147.61 127.344 146.506 127.776C145.354 128.208 144.49 127.824 144.01 126.72L143.674 125.904C143.242 124.752 143.722 123.84 144.874 123.36C146.266 122.784 149.002 121.872 151.978 121.872C158.65 121.872 162.73 125.952 162.73 131.328C162.73 141.456 147.946 142.752 147.946 151.344H160.954C162.106 151.344 162.874 152.064 162.874 153.216V154.08C162.874 155.232 162.106 156 160.954 156H144.202C143.05 156 142.33 155.232 142.33 154.08ZM177.581 143.04V135.408C177.581 126.96 181.805 121.872 189.197 121.872C196.685 121.872 200.861 127.248 200.861 135.408V143.04C200.861 151.488 196.685 156.624 189.197 156.624C181.805 156.624 177.581 151.296 177.581 143.04ZM189.197 151.872C193.805 151.872 195.197 147.792 195.197 142.32V136.128C195.197 130.656 193.805 126.624 189.197 126.624C184.589 126.624 183.245 130.656 183.245 136.128V142.32C183.245 147.792 184.589 151.872 189.197 151.872ZM215.202 154.08V152.16C215.202 139.344 229.938 138.432 229.938 131.328C229.938 129.072 228.786 126.624 224.802 126.624C222.546 126.624 220.482 127.344 219.378 127.776C218.226 128.208 217.362 127.824 216.882 126.72L216.546 125.904C216.114 124.752 216.594 123.84 217.746 123.36C219.138 122.784 221.874 121.872 224.85 121.872C231.522 121.872 235.602 125.952 235.602 131.328C235.602 141.456 220.818 142.752 220.818 151.344H233.826C234.978 151.344 235.746 152.064 235.746 153.216V154.08C235.746 155.232 234.978 156 233.826 156H217.074C215.922 156 215.202 155.232 215.202 154.08ZM254.034 148.992C249.762 148.992 247.938 147.12 248.898 142.608L252.882 124.272C253.122 123.072 253.986 122.496 255.138 122.496H256.578C257.73 122.496 258.354 123.312 258.114 124.56L254.322 142.608C254.082 143.664 254.322 144.336 255.426 144.336H260.658V134.208C260.658 133.056 261.282 132.192 262.386 132L264.114 131.712C265.314 131.52 266.082 132.144 266.082 133.296V144.336H270.162C271.314 144.336 272.082 145.056 272.082 146.208V147.072C272.082 148.224 271.314 148.992 270.162 148.992H266.082V154.08C266.082 155.232 265.362 156 264.21 156H262.578C261.426 156 260.658 155.232 260.658 154.08V148.992H254.034Z" fill="#010F32"/>
<path d="M40.4512 29.4642C39.913 29.4642 39.4421 29.2624 39.1058 28.8587C38.7021 28.4551 38.5003 27.9842 38.5003 27.5133C38.5003 26.9752 38.7021 26.5043 39.1058 26.1679C39.5094 25.8316 39.9803 25.6298 40.4512 25.6298H51.4834C52.7615 25.6298 53.7706 25.5625 54.376 25.3607C55.0487 25.1589 55.4523 24.7553 55.7214 24.0826C55.9232 23.4099 56.0577 22.4008 56.0577 21.0554C56.0577 19.7101 55.9232 18.701 55.7214 18.0283C55.5196 17.3556 55.0487 16.952 54.4433 16.7502C53.7706 16.5484 52.8288 16.4811 51.5507 16.4811H40.8548C40.3166 16.4811 39.8457 16.2793 39.5094 15.9429C39.1058 15.5393 38.9712 15.0684 38.9712 14.5303C38.9712 13.9921 39.173 13.5212 39.5094 13.1849C39.913 12.8485 40.3166 12.6467 40.8548 12.6467H51.5507C53.1651 12.6467 54.5778 12.7813 55.6541 13.0503C56.7304 13.3194 57.6049 13.723 58.2104 14.3957C58.8158 15.0684 59.2867 15.8757 59.5558 17.0193C59.8248 18.0956 59.9594 19.5082 59.9594 21.19C59.9594 22.8717 59.8248 24.2844 59.5558 25.3607C59.2867 26.437 58.8158 27.3115 58.2104 27.9842C57.6049 28.5897 56.7304 29.0605 55.5868 29.3296C54.5105 29.5987 53.0979 29.7332 51.4834 29.7332H40.4512V29.4642Z" fill="black"/>
<path d="M73.0097 33.5003C72.4715 33.6349 72.0007 33.6349 71.5298 33.3658C71.0589 33.164 70.7225 32.7604 70.588 32.2222C70.3862 31.684 70.4535 31.2132 70.7225 30.7423C70.9916 30.2714 71.328 29.935 71.8661 29.7332C74.4896 28.8587 76.7095 27.7151 78.7276 26.1679C80.6785 24.6207 82.1584 22.939 83.1002 20.9882C83.8401 19.3737 83.302 18.6337 81.4184 18.6337H69.848C69.3099 18.6337 68.839 18.4319 68.5026 18.0956C68.099 17.7592 67.9645 17.2883 67.9645 16.7502C67.9645 16.212 68.1663 15.7411 68.5026 15.4048C68.9063 15.0684 69.3099 14.8666 69.848 14.8666H81.4857C83.302 14.8666 84.7146 15.203 85.6564 15.8757C86.6655 16.5484 87.2036 17.4229 87.3382 18.6337C87.4727 19.7773 87.1364 21.1227 86.4637 22.6699C85.3201 25.0916 83.5711 27.3115 81.2166 29.1951C78.8622 31.0786 76.1041 32.4913 73.0097 33.5003ZM71.8661 12.4449C71.328 12.4449 70.8571 12.2431 70.5207 11.9067C70.1171 11.5704 69.9826 11.0995 69.9826 10.5613C69.9826 10.0232 70.1844 9.5523 70.5207 9.21595C70.9243 8.8796 71.328 8.6778 71.8661 8.6778H83.9747C84.5128 8.6778 84.9165 8.8796 85.3201 9.21595C85.6564 9.5523 85.8582 10.0232 85.8582 10.5613C85.8582 11.0995 85.6564 11.5031 85.3201 11.9067C84.9837 12.2431 84.5128 12.4449 83.9747 12.4449H71.8661Z" fill="black"/>
<path d="M96.285 29.0605C95.8141 29.3296 95.3433 29.3969 94.8051 29.2624C94.2669 29.1278 93.8633 28.7915 93.5942 28.3878C93.3252 27.917 93.2579 27.3788 93.3924 26.9079C93.527 26.3698 93.8633 26.0334 94.3342 25.6971C95.2087 25.1589 96.0832 24.4862 97.025 23.679C97.9668 22.8717 98.774 22.1318 99.4467 21.3918C99.7831 20.9882 100.254 20.7191 100.725 20.6518C101.196 20.5846 101.667 20.6518 102.07 20.9209C102.474 21.2573 102.743 21.6609 102.877 22.199C102.945 22.7372 102.877 23.2081 102.541 23.6117C102.003 24.2844 101.398 24.9571 100.658 25.6298C99.9176 26.3025 99.1776 26.9079 98.4377 27.5133C97.765 28.1188 97.025 28.5897 96.285 29.0605ZM102.676 32.9622C102.138 32.9622 101.667 32.7604 101.33 32.424C100.927 32.0204 100.792 31.6168 100.792 31.0786C100.792 30.5405 100.994 30.0696 101.33 29.666C101.734 29.2624 102.138 29.1278 102.676 29.1278C103.685 29.1278 104.29 28.9933 104.626 28.7242C104.896 28.4551 105.097 27.8497 105.097 26.9079V18.1628H96.6887C96.1505 18.1628 95.7469 17.961 95.3433 17.6247C95.0069 17.2883 94.8051 16.8175 94.8051 16.2793C94.8051 15.7411 95.0069 15.3375 95.3433 14.9339C95.6796 14.5976 96.1505 14.3957 96.6887 14.3957H105.097V10.8977C105.097 10.3596 105.299 9.88867 105.636 9.55232C106.039 9.21597 106.443 9.01416 106.981 9.01416C107.519 9.01416 107.99 9.21597 108.326 9.55232C108.663 9.88867 108.864 10.3596 108.864 10.8977V14.3285H116.668C117.206 14.3285 117.61 14.5303 118.013 14.8666C118.35 15.203 118.551 15.6739 118.551 16.212C118.551 16.7502 118.35 17.2211 118.013 17.5574C117.677 17.8938 117.206 18.0956 116.668 18.0956H108.864V27.0425C108.864 29.1951 108.394 30.7423 107.452 31.6168C106.51 32.6258 104.896 32.9622 102.676 32.9622ZM119.695 28.3878C119.291 28.7242 118.82 28.926 118.282 28.8587C117.744 28.7915 117.273 28.5897 116.937 28.2533C116.533 27.8497 116.062 27.3788 115.457 26.8406C114.851 26.3025 114.246 25.7643 113.641 25.2262C113.035 24.688 112.43 24.2844 111.959 23.948C111.488 23.679 111.219 23.2753 111.152 22.7372C111.084 22.199 111.152 21.7281 111.421 21.3245C111.69 20.8536 112.093 20.5846 112.632 20.5173C113.17 20.45 113.641 20.5173 114.044 20.7864C114.582 21.1227 115.255 21.5936 115.928 22.199C116.668 22.7372 117.34 23.3426 118.08 23.948C118.753 24.5535 119.359 25.0916 119.897 25.6298C120.3 26.0334 120.435 26.5043 120.435 27.0425C120.435 27.5806 120.099 28.0515 119.695 28.3878ZM118.417 13.3194C118.148 13.5885 117.811 13.6558 117.408 13.6558C117.004 13.6558 116.735 13.454 116.466 13.1849C116.197 12.9158 115.928 12.5122 115.524 12.1086C115.121 11.705 114.784 11.3013 114.448 10.965C114.246 10.7632 114.112 10.4941 114.112 10.1577C114.112 9.8214 114.246 9.55232 114.515 9.28324C114.784 9.08143 115.053 8.94689 115.39 8.94689C115.726 8.94689 115.995 9.08143 116.264 9.28324C116.6 9.55232 117.004 9.88867 117.408 10.2923C117.811 10.6959 118.215 11.0995 118.484 11.4359C118.686 11.705 118.82 12.0413 118.82 12.4449C118.888 12.714 118.753 13.0503 118.417 13.3194ZM119.426 10.4941C119.157 10.225 118.82 9.88867 118.417 9.48505C118.013 9.08143 117.677 8.74508 117.34 8.40874C117.139 8.20693 117.004 7.93785 117.004 7.6015C117.004 7.26515 117.071 6.9288 117.34 6.65972C117.542 6.39064 117.811 6.2561 118.148 6.2561C118.484 6.2561 118.82 6.32337 119.089 6.52518C119.426 6.72699 119.829 7.06334 120.3 7.39969C120.771 7.80331 121.175 8.13966 121.444 8.476C121.713 8.74508 121.848 9.08143 121.848 9.41778C121.848 9.75413 121.713 10.0905 121.444 10.4268C121.175 10.6959 120.838 10.8304 120.502 10.8304C120.031 10.8304 119.695 10.6959 119.426 10.4941Z" fill="black"/>
<path d="M141.625 33.6349C141.154 33.6349 140.75 33.5003 140.414 33.164C140.078 32.8276 139.876 32.424 139.876 31.8858V27.446C139.069 28.1187 138.194 28.7914 137.252 29.4641C136.311 30.1368 135.301 30.7423 134.292 31.3477C133.283 31.9531 132.274 32.424 131.333 32.8276C130.794 33.0294 130.256 33.0967 129.853 32.9622C129.449 32.8276 129.113 32.5585 128.911 32.0877C128.709 31.6168 128.709 31.2131 128.844 30.7423C128.978 30.3386 129.314 30.0023 129.853 29.8005C131.131 29.3296 132.342 28.7242 133.62 27.9842C134.898 27.3115 136.041 26.5715 137.118 25.8316H134.158C132.611 25.8316 131.534 25.4952 130.929 24.8898C130.324 24.2844 130.122 23.2753 130.391 21.9299C130.593 20.9881 130.862 20.2482 131.131 19.7773C131.4 19.3064 131.938 18.9028 132.611 18.701C133.283 18.4992 134.158 18.3646 135.301 18.3646H139.876V16.7502H131.333C130.929 16.7502 130.593 16.6156 130.256 16.2793C129.987 15.9429 129.785 15.6066 129.785 15.2029C129.785 14.7993 129.92 14.463 130.256 14.1266C130.525 13.7903 130.929 13.6557 131.333 13.6557H135.571C135.1 13.5212 134.763 13.1849 134.629 12.7812C134.562 12.5122 134.427 12.1758 134.292 11.7049C134.158 11.3013 134.023 10.965 133.889 10.6286H132.342C132.073 11.0322 131.803 11.3686 131.534 11.7722C131.265 12.1085 130.996 12.4449 130.794 12.7812C130.458 13.1849 130.122 13.4539 129.651 13.5885C129.247 13.723 128.776 13.6557 128.305 13.3867C127.969 13.1849 127.7 12.8485 127.633 12.3776C127.498 11.974 127.633 11.5704 127.902 11.234C128.305 10.7631 128.709 10.225 129.113 9.61956C129.516 9.01413 129.987 8.34144 130.391 7.66874C130.794 6.99604 131.131 6.39061 131.333 5.85246C131.534 5.38157 131.871 5.04522 132.274 4.91068C132.678 4.77614 133.149 4.84341 133.552 5.04522C133.956 5.17976 134.292 5.51611 134.427 5.85246C134.629 6.25607 134.562 6.65969 134.36 7.13058C134.292 7.26512 134.292 7.33239 134.225 7.46693C134.158 7.60147 134.091 7.73601 134.023 7.80328H139.876C140.279 7.80328 140.616 7.93782 140.885 8.2069C141.154 8.47597 141.288 8.81232 141.288 9.21594C141.288 9.35048 141.288 9.48502 141.221 9.61956C141.625 8.94686 142.028 8.34144 142.432 7.60147C142.836 6.92877 143.105 6.32334 143.374 5.78519C143.576 5.3143 143.912 4.97795 144.383 4.84341C144.787 4.6416 145.257 4.70887 145.728 4.91068C146.199 5.11249 146.536 5.38157 146.67 5.78519C146.805 6.1888 146.805 6.65969 146.603 7.13058C146.536 7.26512 146.536 7.33239 146.468 7.46693C146.401 7.60147 146.334 7.66874 146.334 7.80328H153.733C154.137 7.80328 154.473 7.93782 154.742 8.2069C155.012 8.47597 155.079 8.81232 155.079 9.21594C155.079 9.61956 154.944 9.95591 154.742 10.225C154.541 10.4941 154.137 10.6286 153.733 10.6286H149.832C149.899 10.7631 149.966 10.965 150.034 11.0995C150.101 11.3013 150.168 11.4358 150.168 11.5704C150.303 11.974 150.303 12.3776 150.168 12.7812C149.966 13.1849 149.697 13.4539 149.226 13.6557H149.159C150.437 13.723 151.312 14.0594 151.783 14.5975C152.253 15.2029 152.523 16.0775 152.523 17.3556C152.523 18.701 152.253 19.71 151.648 20.2482C151.043 20.7863 150.034 21.1227 148.486 21.1227H143.441V22.7372H149.966C151.446 22.7372 152.523 23.0735 153.263 23.8135C153.935 24.4862 154.204 25.6298 154.002 27.1097C153.868 28.4551 153.532 29.5314 152.993 30.2714C152.523 31.0113 151.85 31.4822 151.11 31.7513C150.303 32.0204 149.428 32.1549 148.352 32.1549C147.746 32.1549 147.275 32.0204 146.939 31.7513C146.536 31.4822 146.334 31.0786 146.334 30.4732C146.334 29.935 146.468 29.5314 146.737 29.1278C147.006 28.7914 147.477 28.5224 148.015 28.5224C148.554 28.4551 149.025 28.3878 149.294 28.3205C149.563 28.2533 149.832 28.1187 149.966 27.9842C150.101 27.7824 150.235 27.5133 150.303 27.177C150.37 26.6388 150.37 26.3025 150.235 26.1006C150.101 25.8988 149.697 25.8316 149.159 25.8316H143.576V31.8858C143.576 32.424 143.374 32.8276 143.038 33.164C142.499 33.5003 142.096 33.6349 141.625 33.6349ZM134.898 22.8717H139.876V21.2572H135.1C134.629 21.2572 134.292 21.3245 134.158 21.459C133.956 21.5936 133.889 21.7954 133.822 22.0645C133.754 22.4008 133.822 22.6026 133.956 22.7372C134.091 22.8717 134.427 22.8717 134.898 22.8717ZM137.723 11.7722C137.858 12.1758 137.858 12.5794 137.723 12.983C137.521 13.3867 137.252 13.6557 136.781 13.8576H141.154C140.952 13.8576 140.75 13.723 140.549 13.5885C140.145 13.3194 139.876 12.983 139.809 12.5122C139.741 12.0413 139.876 11.6377 140.145 11.3013C140.212 11.1668 140.347 11.0995 140.414 10.965C140.481 10.8304 140.616 10.6959 140.683 10.5613C140.414 10.6959 140.145 10.8304 139.876 10.8304H137.387C137.454 10.965 137.521 11.1668 137.589 11.3013C137.656 11.4358 137.723 11.5704 137.723 11.7722ZM141.827 13.7903H147.881C147.41 13.6557 147.074 13.3194 146.939 12.9158C146.872 12.6467 146.737 12.3104 146.603 11.9067C146.468 11.5031 146.334 11.0995 146.199 10.8304H144.652C144.383 11.234 144.114 11.5704 143.912 11.974C143.643 12.3103 143.441 12.6467 143.172 12.983C142.768 13.4539 142.298 13.723 141.827 13.7903ZM143.374 18.4319H147.746C148.217 18.4319 148.486 18.3646 148.621 18.2974C148.755 18.1628 148.823 17.961 148.823 17.6247C148.823 17.2883 148.755 17.0865 148.621 17.0192C148.486 16.952 148.15 16.8847 147.746 16.8847H143.374V18.4319Z" fill="black"/>
<path d="M169.407 23.679C163.958 23.679 159.989 19.9118 159.989 14.2612C159.989 8.87961 163.353 4.50708 170.08 4.50708C176.672 4.50708 180.843 9.28323 180.843 18.4319C180.843 28.4551 177.412 33.7694 169.945 33.7694C164.698 33.7694 162.209 31.415 161.133 29.2623C160.999 28.926 160.931 28.6569 160.931 28.3878C160.931 27.5806 161.402 26.8406 162.277 26.437C162.748 26.1679 163.218 26.1007 163.622 26.1007C164.295 26.1007 164.9 26.3697 165.304 27.0424C166.044 28.3878 167.389 29.7332 170.013 29.7332C174.587 29.7332 176.269 25.3607 176.336 19.9791C174.856 22.4008 172.636 23.679 169.407 23.679ZM164.564 14.1267C164.564 17.6247 166.851 19.71 170.08 19.71C173.376 19.71 175.731 17.4229 175.731 14.1939C175.731 10.965 173.443 8.54326 170.147 8.54326C166.784 8.61053 164.564 10.8304 164.564 14.1267Z" fill="black"/>
<path d="M188.915 33.0967C188.377 33.0967 187.906 32.9621 187.503 32.6931C187.166 32.424 186.965 32.0204 186.897 31.4822C186.83 30.944 186.965 30.5404 187.301 30.2041C187.57 29.8677 187.974 29.6659 188.512 29.5986C189.252 29.5314 189.79 29.4641 190.194 29.3296C190.597 29.2623 190.866 29.0605 191.068 28.7241C191.27 28.4551 191.404 28.0514 191.539 27.5133C191.606 26.9079 191.741 26.3024 191.808 25.5625C191.875 24.8898 191.943 24.1498 192.01 23.4098C192.077 22.8044 191.943 22.4008 191.741 22.199C191.539 21.9972 191.135 21.8626 190.53 21.8626H189.521C188.445 21.8626 187.705 21.6608 187.234 21.1899C186.763 20.719 186.628 19.9791 186.763 18.9028C186.83 18.2301 186.897 17.6246 186.965 17.0865C187.032 16.5483 187.032 15.9429 187.099 15.3375C187.166 14.3284 187.436 13.6557 187.906 13.2521C188.377 12.8485 189.117 12.6467 190.059 12.6467H190.732C191.27 12.6467 191.606 12.5794 191.808 12.4449C192.01 12.3103 192.077 12.0412 192.077 11.6376V10.8304C192.077 10.3595 192.01 10.0232 191.808 9.88862C191.606 9.75408 191.27 9.61954 190.732 9.61954H187.57C187.099 9.61954 186.763 9.485 186.427 9.14865C186.157 8.87957 186.023 8.47595 186.023 8.07233C186.023 7.66872 186.157 7.2651 186.427 6.99602C186.696 6.72694 187.099 6.52513 187.57 6.52513H192.212C193.423 6.52513 194.23 6.79421 194.768 7.2651C195.306 7.73599 195.508 8.54322 195.508 9.68681V12.5121C195.508 13.6557 195.239 14.3957 194.768 14.8666C194.297 15.3375 193.557 15.5393 192.615 15.5393H191.606C191.135 15.5393 190.799 15.6065 190.597 15.7411C190.395 15.8756 190.261 16.1447 190.261 16.5483C190.261 16.7501 190.261 16.8847 190.261 17.0192C190.261 17.1537 190.261 17.2883 190.261 17.4228C190.194 17.8937 190.261 18.2301 190.463 18.3646C190.665 18.4991 191.001 18.5664 191.472 18.5664H192.548C193.692 18.5664 194.499 18.8355 194.97 19.3064C195.441 19.8445 195.71 20.5845 195.642 21.6608C195.575 22.8044 195.508 24.0153 195.441 25.1588C195.306 26.3024 195.239 27.3115 195.104 28.186C194.902 29.4641 194.566 30.4732 194.028 31.1459C193.49 31.8186 192.817 32.3567 192.01 32.6258C191.135 32.9621 190.126 33.0967 188.915 33.0967ZM204.791 33.5003C204.32 33.5003 203.917 33.3658 203.58 33.0294C203.244 32.7603 203.109 32.3567 203.109 31.8186V27.9169H197.257C196.786 27.9169 196.45 27.7824 196.181 27.446C195.912 27.1769 195.777 26.7733 195.777 26.3697C195.777 25.9661 195.912 25.5625 196.181 25.2934C196.45 25.0243 196.853 24.8225 197.257 24.8225H203.109V23.208H202.033C200.284 23.208 199.006 22.8717 198.266 22.199C197.526 21.5263 197.122 20.3827 197.122 18.701V16.2792C197.122 14.5975 197.526 13.4539 198.266 12.7812C199.006 12.1085 200.284 11.7722 202.033 11.7722H206.607V11.7049V11.6376C206.809 11.234 207.078 10.6959 207.415 10.0904C207.751 9.485 208.087 8.8123 208.356 8.1396C208.693 7.46691 208.895 6.99602 209.096 6.5924C209.298 6.12151 209.567 5.78516 209.971 5.65062C210.375 5.44881 210.845 5.44881 211.249 5.65062C211.653 5.78516 211.989 6.12151 212.191 6.52513C212.393 6.92875 212.393 7.33237 212.191 7.80326C212.056 8.1396 211.787 8.61049 211.518 9.08138C211.249 9.61954 210.98 10.1577 210.644 10.6959C210.375 11.234 210.105 11.7049 209.836 12.1085C210.711 12.3776 211.384 12.8485 211.787 13.5212C212.191 14.1939 212.393 15.1357 212.393 16.3465V18.7682C212.393 20.45 211.989 21.5935 211.249 22.2662C210.442 22.9389 209.231 23.2753 207.482 23.2753H206.406V24.8898H212.46C212.931 24.8898 213.267 25.0243 213.536 25.3607C213.805 25.6297 213.94 26.0334 213.94 26.437C213.94 26.8406 213.805 27.1769 213.536 27.5133C213.267 27.8496 212.864 27.9842 212.46 27.9842H206.406V31.8186C206.406 32.2894 206.271 32.6931 205.935 33.0294C205.666 33.2985 205.262 33.5003 204.791 33.5003ZM200.62 11.4358C200.217 11.6376 199.813 11.7049 199.41 11.5704C199.006 11.5031 198.67 11.234 198.468 10.8304C198.333 10.6286 198.199 10.3595 197.997 10.0232C197.795 9.68681 197.593 9.35046 197.391 9.01411C197.19 8.67776 197.055 8.40868 196.921 8.27414C196.719 7.87052 196.652 7.46691 196.786 7.06329C196.921 6.65967 197.19 6.32332 197.526 6.12151C197.93 5.9197 198.333 5.85243 198.804 5.98697C199.275 6.12151 199.611 6.39059 199.813 6.79421C199.948 6.99602 200.082 7.19783 200.284 7.53418C200.486 7.87052 200.62 8.20687 200.822 8.47595C201.024 8.8123 201.159 9.01411 201.226 9.21592C201.428 9.61954 201.495 10.0232 201.36 10.4268C201.293 10.8977 201.024 11.1667 200.62 11.4358ZM200.351 16.212H203.109V14.3284H202.369C201.562 14.3284 201.024 14.463 200.755 14.6648C200.486 14.9338 200.351 15.3375 200.351 16.0774V16.212ZM202.369 20.5845H203.109V18.701H200.351V18.8355C200.351 19.5082 200.486 19.9791 200.755 20.2482C201.091 20.5172 201.629 20.5845 202.369 20.5845ZM205.195 11.0995C204.791 11.234 204.388 11.234 203.984 11.0995C203.58 10.9649 203.311 10.6286 203.177 10.225C203.109 10.0232 203.042 9.68681 202.908 9.35046C202.773 9.01411 202.639 8.61049 202.504 8.27414C202.369 7.93779 202.235 7.60145 202.168 7.39964C201.966 6.92875 202.033 6.52513 202.235 6.12151C202.437 5.71789 202.773 5.51608 203.177 5.38154C203.648 5.247 204.051 5.247 204.455 5.38154C204.858 5.58335 205.127 5.85243 205.329 6.32332C205.397 6.52513 205.531 6.79421 205.666 7.13056C205.8 7.46691 205.935 7.87052 206.069 8.20687C206.204 8.54322 206.271 8.87957 206.338 9.08138C206.473 9.55227 206.473 9.95589 206.271 10.3595C206.069 10.7631 205.666 10.8977 205.195 11.0995ZM206.473 16.212H209.298V16.0774C209.298 15.4047 209.164 14.9338 208.895 14.6648C208.626 14.3957 208.087 14.3284 207.28 14.3284H206.473V16.212ZM206.473 20.5845H207.28C208.087 20.5845 208.626 20.45 208.895 20.2482C209.164 19.9791 209.298 19.5755 209.298 18.8355V18.701H206.473V20.5845Z" fill="black"/>
<path d="M233.381 30.7422C232.843 30.8768 232.372 30.8095 231.968 30.5404C231.497 30.2713 231.228 29.935 231.094 29.3968C230.959 28.9259 231.026 28.4551 231.295 28.0514C231.564 27.6478 231.901 27.3115 232.439 27.2442C234.659 26.6388 236.341 25.697 237.417 24.4189C238.493 23.1407 239.031 21.459 239.031 19.4409C239.031 18.1628 238.762 17.0192 238.157 16.0102C237.619 15.0011 236.812 14.1939 235.735 13.5884C234.726 12.983 233.448 12.5794 231.968 12.4449C231.632 15.8083 231.026 18.7682 230.152 21.2572C229.277 23.7462 228.268 25.6297 227.125 26.9751C225.981 28.3205 224.77 28.9932 223.492 28.9932C222.416 28.9932 221.474 28.6569 220.532 28.0514C219.658 27.446 218.918 26.5042 218.447 25.3606C217.976 24.2171 217.707 22.8044 217.707 21.1227C217.707 19.4409 218.043 17.8937 218.649 16.4138C219.254 14.9338 220.196 13.6557 221.34 12.5794C222.483 11.5031 223.896 10.6286 225.443 9.95588C227.057 9.35045 228.739 9.0141 230.69 9.0141C232.977 9.0141 235.063 9.48499 236.812 10.3595C238.628 11.234 239.973 12.4449 241.05 13.9921C242.059 15.5393 242.597 17.3555 242.597 19.4409C242.597 22.3335 241.79 24.8225 240.242 26.7733C238.628 28.5896 236.341 29.935 233.381 30.7422ZM223.492 25.0916C223.828 25.0916 224.299 24.7552 224.77 24.1498C225.241 23.5444 225.712 22.6699 226.183 21.5263C226.654 20.3827 227.125 19.0373 227.528 17.4901C227.932 15.9429 228.201 14.2611 228.403 12.3776C226.856 12.7139 225.51 13.2521 224.434 14.1266C223.358 15.0011 222.55 16.0102 222.012 17.1537C221.474 18.3646 221.205 19.5754 221.138 20.8536C221.138 22.199 221.339 23.2753 221.81 23.948C222.281 24.7552 222.819 25.0916 223.492 25.0916Z" fill="black"/>
<path d="M260.356 33.2985C259.818 33.2985 259.414 33.0967 259.011 32.7604C258.607 32.424 258.472 31.9531 258.472 31.415V20.2482H248.18C247.642 20.2482 247.238 20.0464 246.902 19.71C246.566 19.3737 246.364 18.9701 246.364 18.4319C246.364 17.961 246.566 17.4901 246.902 17.1538C247.238 16.8174 247.642 16.6156 248.18 16.6156H258.472V10.4941H250.064C249.593 10.4941 249.189 10.2923 248.853 9.95592C248.516 9.61957 248.315 9.21595 248.315 8.67779C248.315 8.13964 248.516 7.73602 248.853 7.39967C249.189 7.06332 249.593 6.86151 250.064 6.86151H270.783C271.254 6.86151 271.657 7.06332 272.061 7.39967C272.397 7.73602 272.599 8.13964 272.599 8.67779C272.599 9.14868 272.397 9.61957 272.061 9.95592C271.725 10.2923 271.321 10.4941 270.783 10.4941H262.239V16.8174H272.599C273.07 16.8174 273.474 17.0192 273.877 17.3556C274.214 17.6919 274.415 18.0956 274.415 18.6337C274.415 19.1719 274.214 19.5755 273.877 19.9118C273.541 20.2482 273.137 20.45 272.599 20.45H262.239V31.6168C262.239 32.1549 262.038 32.6258 261.701 32.9622C261.298 33.164 260.894 33.2985 260.356 33.2985Z" fill="black"/>
<path d="M279.528 33.433C278.855 33.5676 278.317 33.5676 277.913 33.3658C277.51 33.164 277.173 32.8276 277.039 32.3567C276.837 31.8186 276.904 31.3477 277.106 30.8768C277.308 30.4059 277.779 30.1368 278.519 30.0023C280.402 29.5987 282.084 29.0605 283.631 28.4551C285.178 27.8496 286.658 27.177 287.937 26.3697C286.995 25.4279 286.12 24.3516 285.313 23.208C284.506 22.0645 283.833 20.7863 283.228 19.3737H281.008C280.47 19.3737 280.066 19.2391 279.797 18.9028C279.461 18.5664 279.326 18.1628 279.326 17.6919C279.326 17.221 279.461 16.8174 279.797 16.4811C280.133 16.1447 280.537 16.0102 281.008 16.0102H288.811V13.0503H278.452C277.981 13.0503 277.577 12.9158 277.308 12.5794C277.039 12.2431 276.837 11.9067 276.837 11.4358C276.837 10.9649 276.972 10.5613 277.308 10.2922C277.577 9.9559 277.981 9.82136 278.452 9.82136H288.811V6.99603C288.811 6.45787 289.013 5.98699 289.349 5.65064C289.686 5.31429 290.156 5.17975 290.695 5.17975C291.233 5.17975 291.636 5.31429 292.04 5.65064C292.376 5.98699 292.578 6.45787 292.578 6.99603V9.82136H302.938C303.409 9.82136 303.812 9.9559 304.081 10.2922C304.35 10.5613 304.552 10.9649 304.552 11.4358C304.552 11.9067 304.418 12.2431 304.081 12.5794C303.812 12.9158 303.409 13.0503 302.938 13.0503H292.578V16.0102H294.26C295.74 16.0102 296.951 16.3465 297.691 16.8847C298.498 17.4901 298.902 18.2973 298.902 19.2391C298.902 20.2482 298.498 21.2572 297.691 22.3335C296.547 23.8135 295.269 25.2261 293.856 26.437C295.134 27.177 296.614 27.8496 298.094 28.3878C299.641 28.926 301.256 29.3296 302.938 29.6659C303.543 29.8005 304.014 30.0023 304.283 30.4059C304.552 30.8095 304.687 31.3477 304.552 31.8858C304.418 32.4913 304.081 32.8949 303.61 33.0967C303.139 33.2985 302.601 33.3658 301.929 33.2312C299.843 32.8276 297.892 32.2222 296.009 31.4149C294.125 30.675 292.376 29.7332 290.829 28.5896C287.667 30.8095 283.9 32.2895 279.528 33.433ZM290.829 24.3516C292.04 23.4098 293.116 22.3335 294.058 21.1899C294.529 20.5845 294.731 20.1136 294.596 19.8446C294.462 19.5082 293.856 19.3737 292.982 19.3737H286.927C287.869 21.1899 289.147 22.8717 290.829 24.3516Z" fill="black"/>
<path d="M311.683 32.0876C311.145 32.1549 310.741 32.0876 310.337 31.8186C309.934 31.5495 309.665 31.1459 309.597 30.675C309.463 30.0023 309.396 29.1278 309.328 27.9842C309.261 26.8406 309.194 25.5625 309.194 24.0825C309.194 22.6699 309.194 21.1899 309.194 19.6427C309.194 18.0955 309.261 16.6156 309.328 15.1357C309.396 13.6557 309.53 12.3103 309.665 11.1667C309.799 9.95589 309.934 9.01412 310.136 8.27415C310.27 7.80326 310.539 7.39964 310.943 7.13057C311.346 6.86149 311.817 6.79422 312.288 6.92876C312.759 7.0633 313.163 7.33237 313.432 7.73599C313.701 8.13961 313.768 8.6105 313.634 9.08139C313.432 9.82135 313.297 10.7631 313.163 11.9067C313.028 13.0503 312.961 14.2612 312.894 15.6066C312.826 16.9519 312.759 18.2973 312.759 19.71C312.759 21.1227 312.692 22.4681 312.759 23.8135C312.759 25.1589 312.826 26.3024 312.894 27.446C312.961 28.5223 313.028 29.3968 313.163 30.0695C313.23 30.5404 313.163 31.0113 312.894 31.4149C312.557 31.7513 312.154 31.9531 311.683 32.0876ZM321.773 31.9531C320.159 31.9531 318.881 31.5495 317.872 30.7422C316.863 29.935 316.392 28.7914 316.392 27.3115C316.392 25.8988 316.863 24.7552 317.872 23.8807C318.881 23.0735 320.226 22.6026 321.908 22.6026C322.446 22.6026 322.984 22.6026 323.522 22.6699C323.522 21.7281 323.455 20.7191 323.455 19.5755C323.455 18.4319 323.388 17.2883 323.32 16.1447C322.244 16.212 321.235 16.2793 320.226 16.2793C319.217 16.2793 318.342 16.2793 317.67 16.2793C317.132 16.2793 316.728 16.0774 316.392 15.7411C316.055 15.4047 315.921 14.9339 315.921 14.463C315.988 13.9921 316.19 13.5885 316.526 13.2521C316.863 12.9158 317.266 12.7812 317.804 12.7812C318.477 12.7812 319.352 12.7812 320.293 12.7812C321.235 12.7812 322.244 12.714 323.32 12.6467C323.32 11.9067 323.32 11.1667 323.32 10.4268C323.32 9.75408 323.32 9.08139 323.32 8.40869C323.32 7.9378 323.522 7.46691 323.859 7.13057C324.195 6.79422 324.599 6.59241 325.137 6.59241C325.675 6.59241 326.078 6.79422 326.415 7.13057C326.751 7.46691 326.953 7.9378 326.953 8.40869C326.953 9.01412 326.953 9.68681 326.953 10.3595C326.953 11.0322 326.953 11.7049 326.953 12.3776C327.827 12.3103 328.635 12.2431 329.375 12.1085C330.115 12.0413 330.72 11.974 331.258 11.8394C331.729 11.7722 332.2 11.8394 332.604 12.1085C333.007 12.3776 333.276 12.7812 333.344 13.2521C333.411 13.723 333.344 14.1939 333.007 14.5975C332.738 15.0011 332.335 15.2029 331.864 15.2702C331.326 15.3375 330.586 15.4047 329.778 15.5393C328.971 15.6738 328.029 15.7411 327.088 15.8084C327.155 17.221 327.155 18.5664 327.222 19.9118C327.289 21.2572 327.289 22.4008 327.289 23.4098C328.366 23.7462 329.442 24.2171 330.451 24.688C331.46 25.2261 332.267 25.697 333.007 26.2352C333.411 26.5715 333.68 26.9079 333.747 27.446C333.814 27.9169 333.747 28.3878 333.478 28.7914C333.209 29.195 332.805 29.4641 332.335 29.5314C331.864 29.6659 331.393 29.5314 330.989 29.195C330.518 28.7914 329.913 28.4551 329.307 28.0515C328.702 27.6478 328.097 27.3788 327.424 27.1097C326.953 30.4059 325.137 31.9531 321.773 31.9531ZM321.773 28.5896C323.051 28.5896 323.657 27.9842 323.657 26.7733C323.657 26.7061 323.657 26.6388 323.657 26.5043C323.657 26.437 323.657 26.3024 323.657 26.1679C323.051 26.0334 322.446 25.9661 321.84 25.9661C321.235 25.9661 320.764 26.1006 320.495 26.3024C320.226 26.5715 320.024 26.8406 320.024 27.2442C320.024 27.6478 320.159 27.9169 320.428 28.1187C320.63 28.4551 321.101 28.5896 321.773 28.5896Z" fill="black"/>
<path d="M340.272 33.0967C339.734 32.8949 339.465 32.5585 339.263 32.0876C339.129 31.6168 339.129 31.1459 339.398 30.7423C340.003 29.5314 340.541 28.186 340.945 26.7733C341.349 25.3607 341.685 23.7462 341.887 21.9299C342.089 20.1136 342.223 17.8937 342.223 15.4048V12.7812C342.223 11.1668 342.425 9.88863 342.896 9.01413C343.367 8.07235 344.107 7.46692 345.183 7.0633C346.259 6.65969 347.672 6.52515 349.488 6.52515H365.229C365.7 6.52515 366.037 6.65969 366.373 6.99603C366.709 7.33238 366.777 7.66873 366.777 8.07235C366.777 8.47597 366.642 8.87959 366.373 9.14867C366.104 9.48502 365.7 9.61955 365.229 9.61955H349.488C348.479 9.61955 347.739 9.68682 347.134 9.88863C346.596 10.0904 346.192 10.3595 345.923 10.8304C345.654 11.3013 345.587 11.974 345.587 12.8485V16.8174H365.633C366.104 16.8174 366.44 16.952 366.709 17.2883C366.978 17.6247 367.113 17.961 367.113 18.3646C367.113 18.7682 366.978 19.1719 366.709 19.4409C366.44 19.71 366.104 19.9118 365.633 19.9118H357.157C357.695 21.1227 358.368 22.3335 359.108 23.4098C359.444 23.1408 359.848 22.8717 360.251 22.5353C360.655 22.199 361.059 21.8626 361.462 21.5936C361.866 21.2572 362.135 21.0554 362.337 20.8536C362.673 20.5173 363.144 20.3827 363.615 20.3827C364.086 20.3827 364.489 20.5845 364.826 20.9209C365.162 21.2572 365.229 21.6608 365.229 22.1317C365.162 22.6026 364.96 22.939 364.557 23.2753C364.288 23.4771 363.951 23.7462 363.548 24.0153C363.144 24.3516 362.74 24.6207 362.27 24.9571C361.866 25.2934 361.462 25.5625 361.126 25.8316C361.866 26.5715 362.673 27.2442 363.548 27.9169C364.422 28.5896 365.364 29.1278 366.306 29.6659C366.777 29.935 367.113 30.2714 367.248 30.7423C367.382 31.2131 367.382 31.684 367.113 32.0876C366.844 32.6258 366.44 32.8949 365.902 32.9622C365.364 33.0967 364.893 32.9622 364.422 32.6931C361.664 31.1459 359.444 29.3296 357.763 27.177C356.081 25.0916 354.735 22.6026 353.861 19.7773H351.641V28.5896C352.381 28.4551 353.054 28.3205 353.726 28.186C354.399 28.0515 355.004 27.9842 355.543 27.8497C356.013 27.7824 356.484 27.7824 356.821 27.9842C357.157 28.186 357.359 28.5223 357.426 28.9932C357.493 29.4641 357.493 29.8677 357.292 30.2041C357.09 30.5404 356.753 30.7423 356.283 30.8768C355.744 31.0113 355.004 31.1459 354.13 31.2804C353.255 31.4149 352.314 31.6168 351.305 31.8186C350.296 32.0204 349.354 32.2222 348.479 32.3567C347.605 32.4913 346.865 32.6931 346.259 32.8276C345.721 32.9622 345.25 32.8276 344.847 32.6258C344.443 32.3567 344.241 32.0204 344.174 31.4149C344.107 30.9441 344.174 30.5404 344.443 30.2041C344.712 29.8677 345.116 29.5987 345.654 29.5314C345.99 29.4641 346.394 29.3969 346.798 29.3296C347.201 29.2623 347.672 29.195 348.076 29.1278V19.71H345.452C345.385 21.5263 345.183 23.1408 344.981 24.5534C344.779 25.9661 344.443 27.3115 344.039 28.4551C343.636 29.6659 343.165 30.8095 342.627 31.8858C342.425 32.3567 342.089 32.6258 341.618 32.8276C341.214 33.2985 340.743 33.2985 340.272 33.0967ZM348.21 14.6648C347.739 14.6648 347.403 14.5302 347.134 14.1939C346.865 13.9248 346.73 13.5885 346.73 13.1849C346.73 12.7812 346.865 12.4449 347.134 12.1758C347.403 11.9067 347.739 11.7722 348.21 11.7722H363.211C363.682 11.7722 364.019 11.9067 364.288 12.1758C364.557 12.4449 364.691 12.7812 364.691 13.1849C364.691 13.5885 364.557 13.9248 364.288 14.1939C364.019 14.463 363.682 14.6648 363.211 14.6648H348.21Z" fill="black"/>
<path d="M376.329 32.6258C375.589 32.5585 374.984 32.2222 374.513 31.684C374.042 31.1459 373.84 30.4732 373.907 29.7332C373.975 28.9932 374.311 28.3878 374.849 27.9169C375.387 27.446 376.06 27.2442 376.8 27.3115C377.54 27.3788 378.145 27.7151 378.616 28.2533C379.087 28.7914 379.289 29.4641 379.222 30.2041C379.154 30.9441 378.818 31.5495 378.28 32.0204C377.742 32.4913 377.069 32.6258 376.329 32.6258ZM377.069 25.0916C376.06 25.0243 375.589 24.2844 375.656 22.8717L376.396 9.48503C376.463 8.07236 377.203 7.46693 378.616 7.5342C380.029 7.66874 380.702 8.40871 380.5 9.82137L378.885 23.0735C378.616 24.5534 378.011 25.2261 377.069 25.0916Z" fill="black"/>
<path d="M7.21991 5.51611L18.723 33.0967" stroke="black" stroke-width="4" stroke-miterlimit="10" stroke-linecap="round" stroke-linejoin="round"/>
<path d="M411.78 5.51611L400.277 33.0967" stroke="black" stroke-width="4" stroke-miterlimit="10" stroke-linecap="round" stroke-linejoin="round"/>
</svg>
