<svg width="564" height="101" viewBox="0 0 564 101" fill="none" xmlns="http://www.w3.org/2000/svg">
<path d="M7.072 42.512C6.53867 42.5973 6.05867 42.4907 5.632 42.192C5.20533 41.8933 4.93867 41.488 4.832 40.976C4.64 39.888 4.49067 38.6293 4.384 37.2C4.27733 35.7493 4.224 34.224 4.224 32.624C4.224 31.024 4.26667 29.4133 4.352 27.792C4.43733 26.1707 4.56533 24.624 4.736 23.152C4.928 21.6587 5.152 20.3253 5.408 19.152C5.51467 18.64 5.792 18.2453 6.24 17.968C6.688 17.6693 7.168 17.5733 7.68 17.68C8.192 17.808 8.58667 18.096 8.864 18.544C9.16267 18.9707 9.25867 19.4507 9.152 19.984C8.81067 21.4987 8.544 23.1413 8.352 24.912C8.16 26.6827 8.032 28.4853 7.968 30.32C7.92533 32.1333 7.95733 33.904 8.064 35.632C8.17067 37.3387 8.352 38.896 8.608 40.304C8.71467 40.816 8.608 41.2853 8.288 41.712C7.98933 42.1387 7.584 42.4053 7.072 42.512ZM20.192 40.784C17.4187 40.784 15.3493 40.2827 13.984 39.28C12.64 38.2773 11.8293 36.8053 11.552 34.864C11.4667 34.352 11.5733 33.8827 11.872 33.456C12.192 33.0293 12.6187 32.7733 13.152 32.688C13.664 32.624 14.1333 32.752 14.56 33.072C14.9867 33.3707 15.2427 33.7867 15.328 34.32C15.456 35.2373 15.8933 35.92 16.64 36.368C17.3867 36.816 18.6027 37.04 20.288 37.04C21.888 37.04 23.8187 36.7947 26.08 36.304C26.592 36.176 27.072 36.2613 27.52 36.56C27.968 36.8587 28.2453 37.264 28.352 37.776C28.4587 38.288 28.3627 38.768 28.064 39.216C27.7653 39.6427 27.36 39.92 26.848 40.048C25.696 40.3253 24.544 40.5173 23.392 40.624C22.2613 40.7307 21.1947 40.784 20.192 40.784ZM14.336 24.944C13.824 25.0507 13.344 24.9653 12.896 24.688C12.4693 24.3893 12.2027 23.9733 12.096 23.44C11.9893 22.928 12.0747 22.448 12.352 22C12.6507 21.552 13.0667 21.2853 13.6 21.2C14.7947 20.9653 16.128 20.816 17.6 20.752C19.072 20.6667 20.5333 20.656 21.984 20.72C23.4347 20.7627 24.7147 20.88 25.824 21.072C26.3573 21.1573 26.7733 21.424 27.072 21.872C27.3707 22.2987 27.4667 22.7787 27.36 23.312C27.2747 23.8453 27.008 24.2613 26.56 24.56C26.1333 24.8373 25.664 24.9333 25.152 24.848C23.424 24.5493 21.632 24.4107 19.776 24.432C17.92 24.432 16.1067 24.6027 14.336 24.944ZM47.648 44.624C47.1787 44.688 46.7627 44.5813 46.4 44.304C46.0587 44.0267 45.856 43.6533 45.792 43.184C45.6 41.904 45.2907 40.432 44.864 38.768C44.4587 37.0827 43.968 35.3973 43.392 33.712C42.5387 33.9893 41.7173 34.2667 40.928 34.544C40.16 34.8 39.4453 35.0453 38.784 35.28C38.336 35.4293 37.8987 35.408 37.472 35.216C37.0667 35.024 36.7787 34.7147 36.608 34.288C36.4587 33.84 36.48 33.4133 36.672 33.008C36.8853 32.5813 37.216 32.2933 37.664 32.144C38.9867 31.6747 40.5227 31.1627 42.272 30.608C42.016 29.9893 41.76 29.392 41.504 28.816C41.248 28.24 40.9813 27.696 40.704 27.184C40.4907 26.7573 40.4373 26.32 40.544 25.872C40.672 25.424 40.9387 25.0933 41.344 24.88C41.7707 24.6453 42.1973 24.6027 42.624 24.752C43.072 24.88 43.4027 25.1573 43.616 25.584C43.936 26.1813 44.2453 26.8213 44.544 27.504C44.8427 28.1867 45.1307 28.9013 45.408 29.648C45.9627 29.4773 46.5173 29.3067 47.072 29.136C47.6267 28.9653 48.1707 28.8053 48.704 28.656C48.3627 28.5493 48.096 28.336 47.904 28.016L46.528 25.968C46.2933 25.584 46.2187 25.1787 46.304 24.752C46.3893 24.304 46.624 23.952 47.008 23.696C47.4133 23.44 47.84 23.3653 48.288 23.472C48.736 23.5573 49.0773 23.792 49.312 24.176L50.656 26.192C50.8693 26.512 50.9653 26.8533 50.944 27.216C50.9227 27.5573 50.7947 27.8773 50.56 28.176C50.7093 28.1333 50.848 28.0907 50.976 28.048C51.104 28.0053 51.232 27.9733 51.36 27.952C53.5787 27.3973 55.3707 27.4827 56.736 28.208C58.1013 28.9333 58.8907 30.16 59.104 31.888C59.2533 33.1253 59.072 34.2133 58.56 35.152C58.0693 36.0907 57.3333 36.8053 56.352 37.296C55.392 37.7867 54.2933 38.0107 53.056 37.968C51.84 37.9253 50.592 37.552 49.312 36.848C48.9067 36.6133 48.6293 36.272 48.48 35.824C48.352 35.376 48.3947 34.9493 48.608 34.544C48.8427 34.1173 49.184 33.84 49.632 33.712C50.08 33.584 50.5067 33.6373 50.912 33.872C51.8507 34.4053 52.704 34.672 53.472 34.672C54.24 34.6507 54.8373 34.4267 55.264 34C55.6907 33.552 55.8507 32.9653 55.744 32.24C55.6587 31.6213 55.3173 31.1947 54.72 30.96C54.144 30.7253 53.2693 30.7467 52.096 31.024C51.3067 31.2373 50.4213 31.4827 49.44 31.76C48.48 32.0373 47.4987 32.3467 46.496 32.688C47.072 34.4373 47.584 36.1973 48.032 37.968C48.5013 39.7173 48.8533 41.3067 49.088 42.736C49.1733 43.2053 49.0667 43.6213 48.768 43.984C48.4907 44.368 48.1173 44.5813 47.648 44.624ZM68.416 42.512C67.9467 42.32 67.616 41.968 67.424 41.456C67.232 40.944 67.2427 40.4533 67.456 39.984C67.8187 39.1947 68.2773 38.2027 68.832 37.008C69.408 35.8133 70.0267 34.512 70.688 33.104C71.3707 31.696 72.064 30.256 72.768 28.784C73.472 27.312 74.1653 25.8827 74.848 24.496C75.5307 23.1093 76.16 21.8507 76.736 20.72C77.312 19.568 77.792 18.6293 78.176 17.904C78.4107 17.4347 78.784 17.136 79.296 17.008C79.8293 16.8587 80.32 16.9227 80.768 17.2C81.2373 17.4773 81.536 17.872 81.664 18.384C81.8133 18.8747 81.7493 19.3547 81.472 19.824C81.1733 20.3573 80.7787 21.0827 80.288 22C79.8187 22.9173 79.2853 23.952 78.688 25.104C78.112 26.256 77.5147 27.4613 76.896 28.72C77.6427 28.4 78.4 28.24 79.168 28.24C81.1947 28.24 82.5813 28.88 83.328 30.16C84.096 31.44 84.1707 33.1893 83.552 35.408C83.232 36.56 83.2 37.3493 83.456 37.776C83.7333 38.2027 84.2347 38.416 84.96 38.416C85.4507 38.416 85.92 38.3093 86.368 38.096C86.816 37.8613 87.2747 37.4027 87.744 36.72C88.2133 36.0373 88.704 35.0347 89.216 33.712C89.408 33.2213 89.7493 32.8693 90.24 32.656C90.7307 32.4427 91.2213 32.4213 91.712 32.592C92.2027 32.784 92.5547 33.1253 92.768 33.616C93.0027 34.1067 93.024 34.608 92.832 35.12C91.9787 37.5093 90.912 39.2907 89.632 40.464C88.3733 41.616 86.7627 42.192 84.8 42.192C83.456 42.192 82.3253 41.9147 81.408 41.36C80.4907 40.8053 79.8827 39.9733 79.584 38.864C79.2853 37.7333 79.3707 36.3253 79.84 34.64C80.1387 33.616 80.1707 32.9013 79.936 32.496C79.7013 32.0693 79.2107 31.856 78.464 31.856C77.504 31.856 76.608 32.1547 75.776 32.752C74.944 33.3493 74.1333 34.4693 73.344 36.112C73.2587 36.2827 73.0987 36.624 72.864 37.136C72.6507 37.6267 72.416 38.1707 72.16 38.768C71.904 39.3653 71.6587 39.9093 71.424 40.4C71.2107 40.8693 71.072 41.1893 71.008 41.36C70.7947 41.8507 70.4427 42.2133 69.952 42.448C69.4827 42.704 68.9707 42.7253 68.416 42.512ZM101.312 44.656C100.757 44.8053 100.267 44.8053 99.84 44.656C99.4133 44.528 99.1147 44.2187 98.944 43.728C98.816 43.3013 98.848 42.864 99.04 42.416C99.232 41.9893 99.5627 41.7227 100.032 41.616C100.587 41.488 101.205 41.3173 101.888 41.104C102.592 40.8693 103.307 40.6133 104.032 40.336C104.779 40.0587 105.451 39.7813 106.048 39.504C104.704 39.2907 103.744 38.832 103.168 38.128C102.592 37.4027 102.304 36.3253 102.304 34.896V31.12C102.304 29.3493 102.752 28.1227 103.648 27.44C104.544 26.736 106.08 26.384 108.256 26.384H115.84C118.037 26.384 119.584 26.736 120.48 27.44C121.376 28.1227 121.824 29.3493 121.824 31.12V34.896C121.824 36.3467 121.525 37.4347 120.928 38.16C120.352 38.864 119.371 39.312 117.984 39.504C118.901 39.9307 119.925 40.3467 121.056 40.752C122.187 41.1573 123.157 41.4453 123.968 41.616C124.459 41.7227 124.789 41.9893 124.96 42.416C125.152 42.864 125.184 43.3013 125.056 43.728C124.885 44.2187 124.587 44.528 124.16 44.656C123.733 44.8053 123.243 44.8053 122.688 44.656C122.005 44.464 121.216 44.1973 120.32 43.856C119.445 43.536 118.581 43.1947 117.728 42.832C116.875 42.4693 116.149 42.128 115.552 41.808C115.147 41.5733 114.901 41.264 114.816 40.88C114.731 40.4747 114.784 40.0907 114.976 39.728C114.997 39.7067 115.008 39.696 115.008 39.696C115.008 39.6747 115.019 39.6533 115.04 39.632H108.96C109.003 39.6747 109.024 39.7067 109.024 39.728C109.216 40.0907 109.269 40.4747 109.184 40.88C109.12 41.264 108.875 41.5733 108.448 41.808C107.851 42.128 107.125 42.4693 106.272 42.832C105.419 43.1947 104.555 43.536 103.68 43.856C102.805 44.1973 102.016 44.464 101.312 44.656ZM100.352 27.632C99.9253 27.9093 99.4453 28.0373 98.912 28.016C98.3787 27.9947 97.9627 27.76 97.664 27.312C97.4293 26.9493 97.3547 26.544 97.44 26.096C97.5253 25.6267 97.76 25.2853 98.144 25.072C99.2747 24.4533 100.192 23.7493 100.896 22.96C101.6 22.1707 102.155 21.232 102.56 20.144H99.2C98.7733 20.144 98.432 20.016 98.176 19.76C97.92 19.4827 97.792 19.152 97.792 18.768C97.792 18.3627 97.92 18.0213 98.176 17.744C98.432 17.4667 98.7733 17.328 99.2 17.328H103.2C103.243 17.1573 103.264 16.976 103.264 16.784C103.285 16.5707 103.307 16.368 103.328 16.176C103.371 15.6213 103.584 15.2267 103.968 14.992C104.352 14.7573 104.789 14.6613 105.28 14.704C105.728 14.7467 106.101 14.928 106.4 15.248C106.699 15.568 106.827 15.9947 106.784 16.528C106.763 16.6773 106.741 16.816 106.72 16.944C106.72 17.072 106.709 17.2 106.688 17.328H108.704C109.984 17.328 110.923 17.648 111.52 18.288C112.139 18.9067 112.363 19.9093 112.192 21.296C112.043 22.5333 111.776 23.4827 111.392 24.144C111.029 24.8053 110.507 25.264 109.824 25.52C109.163 25.776 108.299 25.904 107.232 25.904C106.784 25.904 106.4 25.776 106.08 25.52C105.781 25.2427 105.611 24.8693 105.568 24.4C105.547 23.9733 105.664 23.6107 105.92 23.312C106.176 22.992 106.507 22.8213 106.912 22.8C107.616 22.7573 108.064 22.6613 108.256 22.512C108.469 22.3627 108.629 21.9893 108.736 21.392C108.821 20.9227 108.8 20.6027 108.672 20.432C108.544 20.24 108.203 20.144 107.648 20.144H106.016C105.483 21.808 104.736 23.2693 103.776 24.528C102.816 25.7653 101.675 26.8 100.352 27.632ZM118.752 25.2C117.579 25.2 116.629 25.0827 115.904 24.848C115.2 24.592 114.688 24.1547 114.368 23.536C114.069 22.896 113.92 21.9893 113.92 20.816C113.92 19.6213 114.069 18.7147 114.368 18.096C114.688 17.456 115.2 17.0187 115.904 16.784C116.629 16.528 117.579 16.4 118.752 16.4H120.608C121.803 16.4 122.752 16.528 123.456 16.784C124.16 17.0187 124.661 17.456 124.96 18.096C125.28 18.7147 125.44 19.6213 125.44 20.816C125.44 21.9893 125.28 22.896 124.96 23.536C124.661 24.1547 124.16 24.592 123.456 24.848C122.752 25.0827 121.803 25.2 120.608 25.2H118.752ZM106.112 33.616H117.984V32.336H106.112V33.616ZM118.912 22.384H120.448C121.173 22.384 121.643 22.288 121.856 22.096C122.069 21.8827 122.176 21.456 122.176 20.816C122.176 20.1547 122.069 19.728 121.856 19.536C121.643 19.3227 121.173 19.216 120.448 19.216H118.912C118.187 19.216 117.717 19.3227 117.504 19.536C117.291 19.728 117.184 20.1547 117.184 20.816C117.184 21.456 117.291 21.8827 117.504 22.096C117.717 22.288 118.187 22.384 118.912 22.384ZM108.32 37.04H115.808C116.576 37.04 117.109 36.9547 117.408 36.784C117.707 36.6133 117.888 36.272 117.952 35.76H106.176C106.219 36.272 106.389 36.6133 106.688 36.784C107.008 36.9547 107.552 37.04 108.32 37.04ZM106.176 30.192H117.952C117.867 29.7227 117.675 29.4133 117.376 29.264C117.077 29.0933 116.555 29.008 115.808 29.008H108.32C107.573 29.008 107.04 29.0933 106.72 29.264C106.421 29.4133 106.24 29.7227 106.176 30.192ZM155.776 43.504C154.091 42.2453 152.672 40.8373 151.52 39.28C150.389 37.7013 149.483 36.0373 148.8 34.288C148.203 36.0373 147.371 37.6907 146.304 39.248C145.259 40.784 143.936 42.1707 142.336 43.408C141.909 43.728 141.419 43.888 140.864 43.888C140.331 43.888 139.883 43.6533 139.52 43.184C139.221 42.7573 139.115 42.2987 139.2 41.808C139.285 41.3173 139.541 40.9227 139.968 40.624C144.021 37.744 146.272 33.584 146.72 28.144H141.344C140.875 28.144 140.469 27.9733 140.128 27.632C139.787 27.2693 139.616 26.8533 139.616 26.384C139.616 25.8933 139.787 25.4773 140.128 25.136C140.469 24.7947 140.875 24.624 141.344 24.624H146.816V17.36C146.816 16.784 147.008 16.336 147.392 16.016C147.776 15.6747 148.203 15.504 148.672 15.504C149.184 15.504 149.611 15.6747 149.952 16.016C150.315 16.336 150.496 16.784 150.496 17.36V24.624H156.928C157.419 24.624 157.835 24.7947 158.176 25.136C158.517 25.4773 158.688 25.8933 158.688 26.384C158.688 26.8533 158.517 27.2693 158.176 27.632C157.835 27.9733 157.419 28.144 156.928 28.144H150.624C150.923 30.8533 151.744 33.2533 153.088 35.344C154.453 37.4133 156.181 39.1733 158.272 40.624C158.699 40.9013 158.944 41.296 159.008 41.808C159.072 42.32 158.933 42.7787 158.592 43.184C158.229 43.6533 157.781 43.9093 157.248 43.952C156.736 43.9947 156.245 43.8453 155.776 43.504ZM137.056 44.688C136.565 44.688 136.139 44.5173 135.776 44.176C135.413 43.856 135.232 43.4293 135.232 42.896V34.736C134.635 35.2053 133.995 35.696 133.312 36.208C132.651 36.6987 132.117 37.0827 131.712 37.36C131.243 37.6587 130.741 37.776 130.208 37.712C129.675 37.6267 129.259 37.3173 128.96 36.784C128.704 36.3147 128.64 35.8453 128.768 35.376C128.896 34.9067 129.184 34.5333 129.632 34.256C129.931 34.064 130.325 33.7973 130.816 33.456C131.328 33.1147 131.861 32.7413 132.416 32.336C132.971 31.9307 133.493 31.5467 133.984 31.184C134.496 30.8 134.912 30.48 135.232 30.224V26.128C135.104 26.4907 134.805 26.7893 134.336 27.024C133.867 27.28 133.376 27.3333 132.864 27.184C132.352 27.0347 131.979 26.7253 131.744 26.256C131.616 25.9787 131.413 25.5947 131.136 25.104C130.859 24.6133 130.581 24.1227 130.304 23.632C130.048 23.1413 129.845 22.768 129.696 22.512C129.419 22.0853 129.355 21.6267 129.504 21.136C129.653 20.6453 129.973 20.272 130.464 20.016C130.955 19.76 131.435 19.696 131.904 19.824C132.395 19.9307 132.779 20.2187 133.056 20.688C133.227 20.9653 133.451 21.36 133.728 21.872C134.005 22.384 134.272 22.896 134.528 23.408C134.805 23.8987 135.008 24.272 135.136 24.528L135.232 24.816V17.2C135.232 16.6453 135.413 16.208 135.776 15.888C136.139 15.568 136.565 15.408 137.056 15.408C137.547 15.408 137.963 15.568 138.304 15.888C138.667 16.208 138.848 16.6453 138.848 17.2V42.896C138.848 43.4293 138.667 43.856 138.304 44.176C137.963 44.5173 137.547 44.688 137.056 44.688ZM157.184 22.8C156.821 23.0987 156.395 23.2373 155.904 23.216C155.413 23.1733 155.019 22.96 154.72 22.576C154.571 22.384 154.347 22.1173 154.048 21.776C153.749 21.4133 153.44 21.0613 153.12 20.72C152.821 20.3573 152.576 20.08 152.384 19.888C152.085 19.5467 151.957 19.152 152 18.704C152.043 18.256 152.235 17.8933 152.576 17.616C152.939 17.296 153.344 17.136 153.792 17.136C154.24 17.136 154.635 17.3173 154.976 17.68C155.168 17.872 155.424 18.1387 155.744 18.48C156.064 18.8213 156.373 19.1627 156.672 19.504C156.992 19.8453 157.216 20.1013 157.344 20.272C157.728 20.6987 157.899 21.136 157.856 21.584C157.835 22.032 157.611 22.4373 157.184 22.8ZM179.424 41.904C178.891 42.032 178.389 41.9573 177.92 41.68C177.451 41.4027 177.152 41.008 177.024 40.496C176.896 39.984 176.971 39.504 177.248 39.056C177.525 38.5867 177.92 38.288 178.432 38.16C180.8 37.5413 182.539 36.5387 183.648 35.152C184.779 33.7653 185.344 32.0053 185.344 29.872C185.344 28.528 185.045 27.3227 184.448 26.256C183.851 25.1893 182.997 24.3253 181.888 23.664C180.8 23.0027 179.488 22.5973 177.952 22.448C177.568 26.032 176.917 29.136 176 31.76C175.104 34.3627 174.037 36.3787 172.8 37.808C171.584 39.216 170.304 39.92 168.96 39.92C167.829 39.92 166.795 39.5893 165.856 38.928C164.917 38.2667 164.171 37.3173 163.616 36.08C163.083 34.8427 162.816 33.36 162.816 31.632C162.816 29.8613 163.147 28.208 163.808 26.672C164.491 25.1147 165.451 23.7493 166.688 22.576C167.925 21.4027 169.376 20.4853 171.04 19.824C172.725 19.1627 174.571 18.832 176.576 18.832C179.008 18.832 181.163 19.3013 183.04 20.24C184.939 21.1573 186.432 22.448 187.52 24.112C188.608 25.7547 189.152 27.6747 189.152 29.872C189.152 32.9653 188.32 35.5467 186.656 37.616C185.013 39.664 182.603 41.0933 179.424 41.904ZM168.992 35.984C169.376 35.984 169.813 35.664 170.304 35.024C170.816 34.3627 171.328 33.4347 171.84 32.24C172.352 31.0453 172.821 29.6373 173.248 28.016C173.675 26.3733 173.995 24.56 174.208 22.576C172.544 22.896 171.147 23.5147 170.016 24.432C168.885 25.328 168.032 26.4053 167.456 27.664C166.88 28.9013 166.581 30.2027 166.56 31.568C166.56 33.0187 166.784 34.1173 167.232 34.864C167.701 35.6107 168.288 35.984 168.992 35.984ZM216.256 41.104C213.035 41.8507 210.155 42.1707 207.616 42.064C205.099 41.9787 202.997 41.4987 201.312 40.624C199.648 39.7493 198.485 38.512 197.824 36.912C197.611 36.4213 197.611 35.9307 197.824 35.44C198.037 34.9493 198.389 34.608 198.88 34.416C199.371 34.2027 199.851 34.2027 200.32 34.416C200.811 34.6293 201.152 34.9813 201.344 35.472C201.749 36.3893 202.581 37.0933 203.84 37.584C205.099 38.0747 206.709 38.32 208.672 38.32C210.656 38.2987 212.885 37.9787 215.36 37.36C215.893 37.232 216.384 37.3173 216.832 37.616C217.28 37.8933 217.568 38.288 217.696 38.8C217.803 39.312 217.717 39.792 217.44 40.24C217.163 40.688 216.768 40.976 216.256 41.104ZM213.312 23.6C212.16 23.3013 210.923 23.0773 209.6 22.928C208.299 22.7573 207.008 22.6613 205.728 22.64C204.448 22.6187 203.253 22.6613 202.144 22.768C201.611 22.8107 201.131 22.6827 200.704 22.384C200.299 22.064 200.064 21.6373 200 21.104C199.936 20.5707 200.064 20.1013 200.384 19.696C200.704 19.2693 201.131 19.024 201.664 18.96C202.944 18.832 204.352 18.8 205.888 18.864C207.424 18.9067 208.917 19.0133 210.368 19.184C211.84 19.3547 213.12 19.5787 214.208 19.856C214.72 19.984 215.115 20.272 215.392 20.72C215.669 21.168 215.744 21.648 215.616 22.16C215.509 22.672 215.221 23.0773 214.752 23.376C214.304 23.6533 213.824 23.728 213.312 23.6ZM220.864 23.504C220.587 23.76 220.245 23.8667 219.84 23.824C219.435 23.7813 219.115 23.6107 218.88 23.312C218.645 22.992 218.336 22.6187 217.952 22.192C217.589 21.744 217.248 21.3493 216.928 21.008C216.736 20.7733 216.64 20.4853 216.64 20.144C216.661 19.8027 216.811 19.504 217.088 19.248C217.323 19.0133 217.6 18.9067 217.92 18.928C218.261 18.928 218.571 19.0453 218.848 19.28C219.168 19.536 219.541 19.888 219.968 20.336C220.416 20.7627 220.779 21.1573 221.056 21.52C221.291 21.8187 221.387 22.16 221.344 22.544C221.323 22.928 221.163 23.248 220.864 23.504ZM223.84 20.72C223.584 20.976 223.253 21.104 222.848 21.104C222.464 21.0827 222.144 20.9333 221.888 20.656C221.611 20.3573 221.269 20.0053 220.864 19.6C220.48 19.1733 220.117 18.8 219.776 18.48C219.563 18.2667 219.445 18 219.424 17.68C219.403 17.3387 219.52 17.0293 219.776 16.752C220.011 16.496 220.299 16.3573 220.64 16.336C220.981 16.3147 221.291 16.4107 221.568 16.624C221.909 16.8587 222.304 17.1787 222.752 17.584C223.221 17.9893 223.605 18.3733 223.904 18.736C224.16 19.0133 224.277 19.344 224.256 19.728C224.256 20.0907 224.117 20.4213 223.84 20.72ZM234.976 43.536C234.507 43.536 234.091 43.3547 233.728 42.992C233.387 42.6507 233.216 42.2453 233.216 41.776C233.216 41.2853 233.387 40.8693 233.728 40.528C234.091 40.1867 234.507 40.016 234.976 40.016H242.08V33.936H237.056C236.544 33.936 236.107 33.7653 235.744 33.424C235.403 33.0613 235.232 32.6347 235.232 32.144C235.232 31.632 235.403 31.2053 235.744 30.864C236.107 30.5013 236.544 30.32 237.056 30.32H242.08V25.168H235.744C235.275 25.168 234.869 25.008 234.528 24.688C234.187 24.3467 234.016 23.9413 234.016 23.472C234.016 22.9813 234.187 22.576 234.528 22.256C234.869 21.9147 235.275 21.744 235.744 21.744H243.328C243.285 21.7013 243.243 21.6693 243.2 21.648C242.987 21.4133 242.677 21.1147 242.272 20.752C241.888 20.368 241.472 19.9733 241.024 19.568C240.597 19.1413 240.203 18.768 239.84 18.448C239.477 18.128 239.275 17.7227 239.232 17.232C239.211 16.72 239.381 16.272 239.744 15.888C240.107 15.4827 240.544 15.2587 241.056 15.216C241.568 15.152 242.037 15.3013 242.464 15.664C242.741 15.8773 243.104 16.1867 243.552 16.592C244.021 16.9973 244.48 17.4133 244.928 17.84C245.397 18.2667 245.76 18.6187 246.016 18.896C246.379 19.3013 246.571 19.7707 246.592 20.304C246.613 20.816 246.421 21.264 246.016 21.648L245.92 21.744H252.256C252.747 21.744 253.152 21.9147 253.472 22.256C253.813 22.576 253.984 22.9813 253.984 23.472C253.984 23.9413 253.813 24.3467 253.472 24.688C253.152 25.008 252.747 25.168 252.256 25.168H246.048V30.32H250.944C251.435 30.32 251.861 30.5013 252.224 30.864C252.587 31.2053 252.768 31.632 252.768 32.144C252.768 32.6347 252.587 33.0613 252.224 33.424C251.861 33.7653 251.435 33.936 250.944 33.936H246.048V40.016H253.088C253.579 40.016 253.995 40.1867 254.336 40.528C254.677 40.8693 254.848 41.2853 254.848 41.776C254.848 42.2453 254.677 42.6507 254.336 42.992C253.995 43.3547 253.579 43.536 253.088 43.536H234.976ZM226.848 43.568C226.379 43.2693 226.091 42.8533 225.984 42.32C225.877 41.808 225.984 41.3173 226.304 40.848C226.709 40.2293 227.157 39.4933 227.648 38.64C228.16 37.7653 228.661 36.8693 229.152 35.952C229.664 35.0133 230.112 34.1493 230.496 33.36C230.731 32.8693 231.093 32.5387 231.584 32.368C232.075 32.1973 232.565 32.2507 233.056 32.528C234.08 33.0613 234.357 33.8933 233.888 35.024C233.547 35.8133 233.131 36.6987 232.64 37.68C232.149 38.6613 231.648 39.6107 231.136 40.528C230.624 41.4453 230.165 42.224 229.76 42.864C229.483 43.3333 229.056 43.6427 228.48 43.792C227.904 43.9413 227.36 43.8667 226.848 43.568ZM231.616 21.84C231.339 21.6267 230.976 21.3813 230.528 21.104C230.08 20.8053 229.632 20.5173 229.184 20.24C228.757 19.9627 228.395 19.7493 228.096 19.6C227.669 19.344 227.392 18.9813 227.264 18.512C227.136 18.0213 227.189 17.552 227.424 17.104C227.659 16.6347 228.021 16.3253 228.512 16.176C229.024 16.0267 229.515 16.0693 229.984 16.304C230.304 16.4533 230.688 16.6667 231.136 16.944C231.584 17.2 232.032 17.4667 232.48 17.744C232.949 18.0213 233.355 18.2773 233.696 18.512C234.165 18.8107 234.453 19.2267 234.56 19.76C234.667 20.2933 234.571 20.8053 234.272 21.296C233.995 21.744 233.589 22.0213 233.056 22.128C232.523 22.2347 232.043 22.1387 231.616 21.84ZM229.632 29.104C229.355 28.8907 228.992 28.6453 228.544 28.368C228.117 28.0693 227.68 27.7813 227.232 27.504C226.784 27.2267 226.421 27.0133 226.144 26.864C225.696 26.608 225.408 26.2453 225.28 25.776C225.173 25.2853 225.237 24.816 225.472 24.368C225.707 23.92 226.069 23.6213 226.56 23.472C227.072 23.3013 227.563 23.3333 228.032 23.568C228.352 23.7173 228.725 23.9307 229.152 24.208C229.6 24.464 230.048 24.7307 230.496 25.008C230.965 25.2853 231.371 25.5413 231.712 25.776C232.181 26.0747 232.469 26.4907 232.576 27.024C232.683 27.5573 232.587 28.0693 232.288 28.56C232.011 29.008 231.605 29.2853 231.072 29.392C230.539 29.4987 230.059 29.4027 229.632 29.104ZM260.16 44.496C259.371 44.7307 258.741 44.72 258.272 44.464C257.803 44.2293 257.461 43.8347 257.248 43.28C257.077 42.768 257.12 42.256 257.376 41.744C257.632 41.232 258.08 40.9013 258.72 40.752C260.981 40.1547 262.987 39.4187 264.736 38.544C266.485 37.6693 268.032 36.6773 269.376 35.568C268.053 34.0107 266.912 32.2933 265.952 30.416C265.013 28.5173 264.235 26.4587 263.616 24.24H258.944C258.475 24.24 258.069 24.0693 257.728 23.728C257.387 23.3867 257.216 22.9813 257.216 22.512C257.216 22.0427 257.387 21.648 257.728 21.328C258.069 20.9867 258.475 20.816 258.944 20.816H269.92V16.976C269.92 16.3573 270.123 15.856 270.528 15.472C270.933 15.088 271.424 14.896 272 14.896C272.576 14.896 273.067 15.088 273.472 15.472C273.877 15.856 274.08 16.3573 274.08 16.976V20.816H284.992C285.461 20.816 285.856 20.9867 286.176 21.328C286.517 21.648 286.688 22.0427 286.688 22.512C286.688 22.9813 286.517 23.3867 286.176 23.728C285.856 24.0693 285.461 24.24 284.992 24.24H280.576C279.979 26.4587 279.2 28.5067 278.24 30.384C277.301 32.2613 276.171 33.9787 274.848 35.536C276.213 36.6667 277.781 37.6693 279.552 38.544C281.323 39.4187 283.328 40.1547 285.568 40.752C286.208 40.9013 286.645 41.232 286.88 41.744C287.115 42.256 287.136 42.768 286.944 43.28C286.752 43.8347 286.411 44.2293 285.92 44.464C285.451 44.6987 284.832 44.7093 284.064 44.496C279.221 43.0667 275.243 41.008 272.128 38.32C270.571 39.6427 268.8 40.816 266.816 41.84C264.853 42.864 262.635 43.7493 260.16 44.496ZM272.128 32.752C273.088 31.5573 273.909 30.2453 274.592 28.816C275.275 27.3867 275.851 25.8613 276.32 24.24H267.84C268.331 25.8613 268.917 27.3867 269.6 28.816C270.304 30.2453 271.147 31.5573 272.128 32.752Z" fill="#010F32"/>
<path d="M350.2 43.952C349.709 44.272 349.155 44.4 348.536 44.336C347.939 44.2933 347.48 44.0053 347.16 43.472C346.883 43.0027 346.819 42.512 346.968 42C347.117 41.5093 347.459 41.1253 347.992 40.848C349.379 40.1013 350.605 39.3013 351.672 38.448C352.739 37.5733 353.667 36.6453 354.456 35.664C353.667 34.3413 352.995 32.9333 352.44 31.44C351.907 29.9253 351.501 28.3253 351.224 26.64C350.989 26.9813 350.744 27.312 350.488 27.632C350.253 27.9307 350.019 28.2293 349.784 28.528C349.464 28.912 349.048 29.136 348.536 29.2C348.045 29.264 347.597 29.1253 347.192 28.784C346.829 28.464 346.616 28.0587 346.552 27.568C346.509 27.056 346.659 26.6187 347 26.256C347.704 25.4453 348.397 24.464 349.08 23.312C349.784 22.1387 350.424 20.944 351 19.728C351.597 18.4907 352.067 17.392 352.408 16.432C352.621 15.8347 352.963 15.4507 353.432 15.28C353.901 15.088 354.403 15.088 354.936 15.28C355.427 15.4507 355.779 15.76 355.992 16.208C356.205 16.6347 356.205 17.1253 355.992 17.68C355.565 18.8107 355.064 19.9307 354.488 21.04H364.088C364.621 21.04 365.037 21.2107 365.336 21.552C365.656 21.8933 365.816 22.3093 365.816 22.8C365.816 23.2693 365.656 23.6853 365.336 24.048C365.037 24.3893 364.621 24.56 364.088 24.56H362.616C362.296 26.6933 361.827 28.6773 361.208 30.512C360.611 32.3467 359.832 34.0427 358.872 35.6C360.493 37.5413 362.52 39.1627 364.952 40.464C365.507 40.7413 365.859 41.1467 366.008 41.68C366.157 42.192 366.083 42.6933 365.784 43.184C365.507 43.7173 365.059 44.0373 364.44 44.144C363.843 44.272 363.277 44.176 362.744 43.856C360.419 42.448 358.371 40.72 356.6 38.672C355.747 39.6533 354.787 40.592 353.72 41.488C352.653 42.3627 351.48 43.184 350.2 43.952ZM343 44.784C342.488 44.784 342.051 44.6133 341.688 44.272C341.347 43.952 341.176 43.5253 341.176 42.992V32.464C340.835 33.1467 340.493 33.7973 340.152 34.416C339.811 35.0133 339.491 35.5467 339.192 36.016C338.936 36.4213 338.563 36.688 338.072 36.816C337.603 36.944 337.155 36.88 336.728 36.624C336.323 36.368 336.067 36.0053 335.96 35.536C335.853 35.0667 335.939 34.64 336.216 34.256C336.621 33.68 337.059 32.9973 337.528 32.208C338.019 31.3973 338.499 30.544 338.968 29.648C339.437 28.752 339.864 27.888 340.248 27.056C340.653 26.2027 340.963 25.4667 341.176 24.848V24.56H337.848C337.336 24.56 336.931 24.4 336.632 24.08C336.333 23.76 336.184 23.3653 336.184 22.896C336.184 22.448 336.333 22.064 336.632 21.744C336.931 21.4027 337.336 21.232 337.848 21.232H341.176V16.848C341.176 16.2933 341.347 15.856 341.688 15.536C342.051 15.216 342.488 15.056 343 15.056C343.491 15.056 343.907 15.216 344.248 15.536C344.611 15.856 344.792 16.2933 344.792 16.848V21.232H347.16C347.651 21.232 348.045 21.4027 348.344 21.744C348.643 22.064 348.792 22.448 348.792 22.896C348.792 23.3653 348.643 23.76 348.344 24.08C348.045 24.4 347.651 24.56 347.16 24.56H344.792V26.576C345.133 27.024 345.56 27.5787 346.072 28.24C346.605 28.88 347.139 29.5093 347.672 30.128C348.205 30.7253 348.653 31.2053 349.016 31.568C349.379 31.9307 349.549 32.3467 349.528 32.816C349.528 33.2853 349.336 33.7013 348.952 34.064C348.611 34.3627 348.195 34.512 347.704 34.512C347.235 34.512 346.829 34.3093 346.488 33.904C345.976 33.328 345.411 32.6133 344.792 31.76V42.992C344.792 43.5253 344.611 43.952 344.248 44.272C343.907 44.6133 343.491 44.784 343 44.784ZM356.664 32.144C357.219 31.0133 357.667 29.8187 358.008 28.56C358.349 27.28 358.616 25.9467 358.808 24.56H354.584C354.819 27.2907 355.512 29.8187 356.664 32.144ZM374.072 42.512C373.539 42.5973 373.059 42.4907 372.632 42.192C372.205 41.8933 371.939 41.488 371.832 40.976C371.64 39.888 371.491 38.6293 371.384 37.2C371.277 35.7493 371.224 34.224 371.224 32.624C371.224 31.024 371.267 29.4133 371.352 27.792C371.437 26.1707 371.565 24.624 371.736 23.152C371.928 21.6587 372.152 20.3253 372.408 19.152C372.515 18.64 372.792 18.2453 373.24 17.968C373.688 17.6693 374.168 17.5733 374.68 17.68C375.192 17.808 375.587 18.096 375.864 18.544C376.163 18.9707 376.259 19.4507 376.152 19.984C375.811 21.4987 375.544 23.1413 375.352 24.912C375.16 26.6827 375.032 28.4853 374.968 30.32C374.925 32.1333 374.957 33.904 375.064 35.632C375.171 37.3387 375.352 38.896 375.608 40.304C375.715 40.816 375.608 41.2853 375.288 41.712C374.989 42.1387 374.584 42.4053 374.072 42.512ZM387.192 40.784C384.419 40.784 382.349 40.2827 380.984 39.28C379.64 38.2773 378.829 36.8053 378.552 34.864C378.467 34.352 378.573 33.8827 378.872 33.456C379.192 33.0293 379.619 32.7733 380.152 32.688C380.664 32.624 381.133 32.752 381.56 33.072C381.987 33.3707 382.243 33.7867 382.328 34.32C382.456 35.2373 382.893 35.92 383.64 36.368C384.387 36.816 385.603 37.04 387.288 37.04C388.888 37.04 390.819 36.7947 393.08 36.304C393.592 36.176 394.072 36.2613 394.52 36.56C394.968 36.8587 395.245 37.264 395.352 37.776C395.459 38.288 395.363 38.768 395.064 39.216C394.765 39.6427 394.36 39.92 393.848 40.048C392.696 40.3253 391.544 40.5173 390.392 40.624C389.261 40.7307 388.195 40.784 387.192 40.784ZM381.336 24.944C380.824 25.0507 380.344 24.9653 379.896 24.688C379.469 24.3893 379.203 23.9733 379.096 23.44C378.989 22.928 379.075 22.448 379.352 22C379.651 21.552 380.067 21.2853 380.6 21.2C381.795 20.9653 383.128 20.816 384.6 20.752C386.072 20.6667 387.533 20.656 388.984 20.72C390.435 20.7627 391.715 20.88 392.824 21.072C393.357 21.1573 393.773 21.424 394.072 21.872C394.371 22.2987 394.467 22.7787 394.36 23.312C394.275 23.8453 394.008 24.2613 393.56 24.56C393.133 24.8373 392.664 24.9333 392.152 24.848C390.424 24.5493 388.632 24.4107 386.776 24.432C384.92 24.432 383.107 24.6027 381.336 24.944ZM413.272 41.232C412.739 41.296 412.259 41.168 411.832 40.848C411.405 40.528 411.16 40.1013 411.096 39.568C411.032 39.0347 411.16 38.5547 411.48 38.128C411.8 37.7013 412.227 37.456 412.76 37.392C415.405 37.072 417.528 36.528 419.128 35.76C420.749 34.992 421.901 34.064 422.584 32.976C423.288 31.8667 423.597 30.6613 423.512 29.36C423.405 27.6533 422.819 26.416 421.752 25.648C420.685 24.8587 419.011 24.5493 416.728 24.72C415.811 24.784 414.787 24.912 413.656 25.104C412.525 25.2747 411.363 25.4773 410.168 25.712C408.995 25.9467 407.864 26.192 406.776 26.448C405.688 26.704 404.717 26.9493 403.864 27.184C403.352 27.3333 402.861 27.28 402.392 27.024C401.944 26.7467 401.645 26.352 401.496 25.84C401.347 25.3067 401.4 24.8053 401.656 24.336C401.933 23.8667 402.328 23.5573 402.84 23.408C403.757 23.152 404.792 22.9067 405.944 22.672C407.096 22.416 408.291 22.1813 409.528 21.968C410.787 21.7333 412.013 21.5307 413.208 21.36C414.403 21.1893 415.491 21.072 416.472 21.008C419.907 20.752 422.52 21.3387 424.312 22.768C426.104 24.1973 427.107 26.2987 427.32 29.072C427.469 31.056 427.043 32.9013 426.04 34.608C425.059 36.2933 423.501 37.7227 421.368 38.896C419.256 40.048 416.557 40.8267 413.272 41.232ZM449.72 44.688C447.075 44.7733 444.877 44.5067 443.128 43.888C441.379 43.2693 440.099 42.3733 439.288 41.2C438.477 40.0267 438.136 38.6507 438.264 37.072C438.371 35.9413 438.723 34.9813 439.32 34.192C439.939 33.3813 440.739 32.7627 441.72 32.336C442.723 31.888 443.832 31.6213 445.048 31.536C446.285 31.4507 447.555 31.5573 448.856 31.856C448.536 31.3867 448.216 30.896 447.896 30.384C447.597 29.8507 447.299 29.3173 447 28.784C445.784 28.9973 444.557 29.1893 443.32 29.36C442.104 29.5307 440.931 29.68 439.8 29.808C439.288 29.8507 438.829 29.7013 438.424 29.36C438.04 29.0187 437.827 28.592 437.784 28.08C437.741 27.5467 437.88 27.088 438.2 26.704C438.541 26.2987 438.979 26.0853 439.512 26.064C440.387 25.9787 441.325 25.872 442.328 25.744C443.331 25.616 444.344 25.4667 445.368 25.296C445.219 24.9333 445.069 24.5707 444.92 24.208C444.771 23.8453 444.632 23.4827 444.504 23.12C443.651 23.2693 442.808 23.408 441.976 23.536C441.165 23.6427 440.408 23.7387 439.704 23.824C439.192 23.8667 438.733 23.728 438.328 23.408C437.923 23.088 437.688 22.672 437.624 22.16C437.581 21.648 437.72 21.1893 438.04 20.784C438.36 20.3573 438.776 20.1227 439.288 20.08C439.843 20.0373 440.461 19.9733 441.144 19.888C441.827 19.7813 442.531 19.6747 443.256 19.568C443.171 19.2053 443.075 18.864 442.968 18.544C442.861 18.2027 442.765 17.872 442.68 17.552C442.552 17.04 442.616 16.56 442.872 16.112C443.149 15.6427 443.544 15.344 444.056 15.216C444.568 15.088 445.048 15.1627 445.496 15.44C445.965 15.696 446.264 16.08 446.392 16.592C446.499 16.976 446.595 17.36 446.68 17.744C446.787 18.128 446.904 18.5227 447.032 18.928C447.715 18.8 448.365 18.672 448.984 18.544C449.624 18.3947 450.211 18.256 450.744 18.128C451.235 18 451.704 18.0853 452.152 18.384C452.6 18.6613 452.877 19.0453 452.984 19.536C453.091 20.048 453.005 20.528 452.728 20.976C452.472 21.4027 452.088 21.6693 451.576 21.776C451.085 21.8827 450.552 22 449.976 22.128C449.4 22.256 448.803 22.3733 448.184 22.48C448.312 22.8427 448.44 23.2053 448.568 23.568C448.717 23.9307 448.867 24.2933 449.016 24.656C449.891 24.4853 450.733 24.304 451.544 24.112C452.376 23.92 453.133 23.7387 453.816 23.568C454.307 23.4613 454.776 23.5467 455.224 23.824C455.672 24.1013 455.96 24.4853 456.088 24.976C456.195 25.488 456.109 25.968 455.832 26.416C455.555 26.8427 455.171 27.12 454.68 27.248C454.125 27.3973 453.496 27.5467 452.792 27.696C452.109 27.824 451.395 27.9627 450.648 28.112C451.181 29.0933 451.747 30.0213 452.344 30.896C452.941 31.7493 453.571 32.496 454.232 33.136C454.552 33.456 454.733 33.84 454.776 34.288C454.84 34.736 454.744 35.152 454.488 35.536C454.253 35.92 453.912 36.1867 453.464 36.336C453.037 36.4853 452.611 36.4747 452.184 36.304C450.2 35.4507 448.451 34.992 446.936 34.928C445.421 34.8427 444.227 35.0453 443.352 35.536C442.499 36.0053 442.051 36.6667 442.008 37.52C441.88 39.9093 444.408 41.0293 449.592 40.88C450.125 40.8587 450.584 41.0293 450.968 41.392C451.352 41.7333 451.555 42.1707 451.576 42.704C451.597 43.2373 451.427 43.696 451.064 44.08C450.701 44.464 450.253 44.6667 449.72 44.688Z" fill="#010F32"/>
<path d="M321.22 7.14V44.376C321.22 46.522 319.654 47.682 317.218 47.682C314.724 47.682 313.274 46.522 313.274 44.434V9.75C313.274 8.706 312.984 8.184 311.94 8.184C311.882 8.184 311.824 8.184 311.766 8.184L306.314 8.358C304.226 8.416 302.892 6.618 302.892 4.646C302.892 2.558 304.168 0.817997 306.198 0.759998L314.666 0.585997C314.84 0.585997 315.014 0.585997 315.188 0.585997C319.828 0.585997 321.22 2.094 321.22 7.14Z" fill="#DF4220"/>
<path d="M505.152 44.624C504.597 44.624 504.139 44.432 503.776 44.048C503.413 43.6853 503.232 43.2053 503.232 42.608V24.4C503.232 22.7147 503.371 21.3387 503.648 20.272C503.925 19.2053 504.395 18.384 505.056 17.808C505.739 17.2107 506.656 16.8053 507.808 16.592C508.981 16.3573 510.464 16.24 512.256 16.24H519.712C521.504 16.24 522.976 16.3573 524.128 16.592C525.301 16.8053 526.219 17.2107 526.88 17.808C527.563 18.384 528.043 19.2053 528.32 20.272C528.597 21.3387 528.736 22.7147 528.736 24.4V38.192C528.736 39.8133 528.533 41.0827 528.128 42C527.744 42.896 527.125 43.5253 526.272 43.888C525.419 44.272 524.299 44.496 522.912 44.56C522.251 44.5813 521.696 44.432 521.248 44.112C520.821 43.8133 520.576 43.3547 520.512 42.736C520.469 42.1173 520.619 41.6053 520.96 41.2C521.323 40.7733 521.803 40.5493 522.4 40.528C523.104 40.4853 523.637 40.3893 524 40.24C524.363 40.0907 524.608 39.8133 524.736 39.408C524.864 39.0027 524.928 38.4373 524.928 37.712V31.6H507.04V42.608C507.04 43.2053 506.859 43.6853 506.496 44.048C506.155 44.432 505.707 44.624 505.152 44.624ZM517.856 28.08H524.928V24.4C524.928 23.056 524.789 22.064 524.512 21.424C524.256 20.7627 523.755 20.336 523.008 20.144C522.261 19.9307 521.152 19.824 519.68 19.824H517.856V28.08ZM507.04 28.08H514.08V19.824H512.288C510.837 19.824 509.728 19.9307 508.96 20.144C508.213 20.336 507.701 20.7627 507.424 21.424C507.168 22.064 507.04 23.056 507.04 24.4V28.08ZM555.04 43.44C552.181 43.8453 549.771 43.9947 547.808 43.888C545.845 43.8027 544.267 43.5147 543.072 43.024C541.899 42.5333 541.045 41.8827 540.512 41.072C539.979 40.24 539.712 39.3013 539.712 38.256C539.712 36.656 540.352 35.1627 541.632 33.776C542.933 32.3893 544.811 31.1733 547.264 30.128C546.923 29.7013 546.507 29.4133 546.016 29.264C544.949 28.944 543.893 29.0613 542.848 29.616C541.824 30.1707 540.821 30.9813 539.84 32.048C539.477 32.432 538.997 32.6453 538.4 32.688C537.824 32.7093 537.355 32.528 536.992 32.144C536.651 31.7387 536.491 31.2693 536.512 30.736C536.555 30.2027 536.779 29.7653 537.184 29.424C538.229 28.528 539.147 27.5573 539.936 26.512C540.747 25.4667 541.429 24.3893 541.984 23.28C541.067 23.3013 540.203 23.3227 539.392 23.344C538.603 23.344 537.92 23.3333 537.344 23.312C536.811 23.312 536.363 23.1307 536 22.768C535.637 22.384 535.456 21.9253 535.456 21.392C535.477 20.8587 535.68 20.4213 536.064 20.08C536.448 19.7387 536.907 19.5787 537.44 19.6C538.187 19.6213 539.083 19.632 540.128 19.632C541.195 19.6107 542.304 19.5893 543.456 19.568C543.563 19.1627 543.659 18.768 543.744 18.384C543.829 18 543.904 17.616 543.968 17.232C544.053 16.6987 544.288 16.272 544.672 15.952C545.056 15.6107 545.515 15.472 546.048 15.536C546.581 15.6 547.008 15.8347 547.328 16.24C547.648 16.6453 547.776 17.1147 547.712 17.648C547.691 17.9253 547.648 18.2133 547.584 18.512C547.52 18.8107 547.445 19.1093 547.36 19.408C548.171 19.3653 548.928 19.3227 549.632 19.28C550.336 19.216 550.965 19.1413 551.52 19.056C552.053 18.992 552.523 19.12 552.928 19.44C553.355 19.7387 553.6 20.1547 553.664 20.688C553.728 21.2213 553.589 21.6907 553.248 22.096C552.928 22.5013 552.512 22.7253 552 22.768C551.211 22.8533 550.304 22.928 549.28 22.992C548.256 23.056 547.189 23.1093 546.08 23.152C545.611 24.1973 545.099 25.1787 544.544 26.096C545.056 25.9893 545.547 25.9573 546.016 26C546.485 26.0213 546.933 26.096 547.36 26.224C548 26.3947 548.619 26.6933 549.216 27.12C549.835 27.5253 550.379 28.1013 550.848 28.848C551.893 28.5493 553.003 28.272 554.176 28.016C555.371 27.76 556.629 27.536 557.952 27.344C558.464 27.2587 558.933 27.376 559.36 27.696C559.787 27.9947 560.032 28.4107 560.096 28.944C560.181 29.4773 560.064 29.9467 559.744 30.352C559.424 30.7573 558.997 31.0027 558.464 31.088C557.227 31.2373 556.085 31.4187 555.04 31.632C553.995 31.824 553.024 32.0373 552.128 32.272C552.235 32.848 552.32 33.4773 552.384 34.16C552.448 34.8427 552.48 35.5787 552.48 36.368C552.48 36.9013 552.288 37.36 551.904 37.744C551.541 38.1067 551.093 38.288 550.56 38.288C550.027 38.288 549.579 38.1067 549.216 37.744C548.853 37.36 548.672 36.9013 548.672 36.368C548.672 35.28 548.608 34.3093 548.48 33.456C546.731 34.1813 545.461 34.96 544.672 35.792C543.904 36.6027 543.52 37.392 543.52 38.16C543.52 38.736 543.861 39.2053 544.544 39.568C545.227 39.9307 546.368 40.1333 547.968 40.176C549.568 40.2187 551.755 40.0587 554.528 39.696C555.04 39.632 555.509 39.76 555.936 40.08C556.363 40.3787 556.608 40.7947 556.672 41.328C556.736 41.84 556.608 42.2987 556.288 42.704C555.968 43.1093 555.552 43.3547 555.04 43.44Z" fill="#010F32"/>
<path d="M488.22 7.14V44.376C488.22 46.522 486.654 47.682 484.218 47.682C481.724 47.682 480.274 46.522 480.274 44.434V9.75C480.274 8.706 479.984 8.184 478.94 8.184C478.882 8.184 478.824 8.184 478.766 8.184L473.314 8.358C471.226 8.416 469.892 6.618 469.892 4.646C469.892 2.558 471.168 0.817997 473.198 0.759998L481.666 0.585997C481.84 0.585997 482.014 0.585997 482.188 0.585997C486.828 0.585997 488.22 2.094 488.22 7.14Z" fill="#DF4220"/>
<path d="M24.784 97.64C22.9707 97.64 21.4667 97.512 20.272 97.256C19.0773 97.0213 18.128 96.5947 17.424 95.976C16.7413 95.336 16.2507 94.4613 15.952 93.352C15.6533 92.2427 15.504 90.824 15.504 89.096V80.584C15.504 78.856 15.6533 77.4373 15.952 76.328C16.2507 75.2187 16.7413 74.3547 17.424 73.736C18.128 73.096 19.0773 72.6587 20.272 72.424C21.4667 72.168 22.9707 72.04 24.784 72.04H27.216C29.0293 72.04 30.5333 72.168 31.728 72.424C32.9227 72.6587 33.8613 73.096 34.544 73.736C35.248 74.3547 35.7493 75.2187 36.048 76.328C36.3467 77.4373 36.496 78.856 36.496 80.584V89.096C36.496 90.824 36.3467 92.2427 36.048 93.352C35.7493 94.4613 35.248 95.336 34.544 95.976C33.8613 96.5947 32.9227 97.0213 31.728 97.256C30.5333 97.512 29.0293 97.64 27.216 97.64H24.784ZM24.784 94.056H27.216C28.7307 94.056 29.8613 93.9387 30.608 93.704C31.376 93.448 31.888 92.968 32.144 92.264C32.4213 91.56 32.56 90.504 32.56 89.096V86.344H19.44V89.096C19.44 90.504 19.568 91.56 19.824 92.264C20.1013 92.968 20.624 93.448 21.392 93.704C22.16 93.9387 23.2907 94.056 24.784 94.056ZM19.44 82.856H32.56V80.584C32.56 79.176 32.4213 78.12 32.144 77.416C31.888 76.6907 31.376 76.2107 30.608 75.976C29.8613 75.7413 28.7307 75.624 27.216 75.624H24.784C23.2907 75.624 22.16 75.7413 21.392 75.976C20.624 76.2107 20.1013 76.6907 19.824 77.416C19.568 78.12 19.44 79.176 19.44 80.584V82.856ZM58 99.752C57.4667 99.752 57.0187 99.5813 56.656 99.24C56.2933 98.8987 56.112 98.44 56.112 97.864V94.12H52.24C51.7707 94.12 51.3547 93.9493 50.992 93.608C50.6507 93.2453 50.48 92.8293 50.48 92.36C50.48 91.8693 50.6507 91.4533 50.992 91.112C51.3547 90.7707 51.7707 90.6 52.24 90.6H56.112V82.92C55.2373 84.2213 54.256 85.5333 53.168 86.856C52.08 88.1787 50.928 89.4373 49.712 90.632C48.5173 91.8267 47.3227 92.904 46.128 93.864C45.7013 94.2053 45.2 94.3867 44.624 94.408C44.048 94.408 43.5787 94.184 43.216 93.736C42.8747 93.3093 42.7467 92.84 42.832 92.328C42.9387 91.816 43.216 91.4 43.664 91.08C44.944 90.12 46.2453 89 47.568 87.72C48.912 86.4187 50.1813 85.064 51.376 83.656C52.5707 82.2267 53.584 80.872 54.416 79.592H45.104C44.6347 79.592 44.2293 79.4213 43.888 79.08C43.5467 78.7387 43.376 78.3333 43.376 77.864C43.376 77.3733 43.5467 76.968 43.888 76.648C44.2293 76.3067 44.6347 76.136 45.104 76.136H56.112V71.752C56.112 71.1973 56.2933 70.7493 56.656 70.408C57.0187 70.0453 57.4667 69.864 58 69.864C58.512 69.864 58.9493 70.0453 59.312 70.408C59.6747 70.7493 59.856 71.1973 59.856 71.752V76.136H70.864C71.3547 76.136 71.76 76.3067 72.08 76.648C72.4213 76.968 72.592 77.3733 72.592 77.864C72.592 78.3333 72.4213 78.7387 72.08 79.08C71.76 79.4213 71.3547 79.592 70.864 79.592H61.648C62.5013 80.9147 63.536 82.28 64.752 83.688C65.968 85.0747 67.2587 86.408 68.624 87.688C69.9893 88.968 71.3227 90.1093 72.624 91.112C73.0293 91.4107 73.232 91.816 73.232 92.328C73.2533 92.84 73.1147 93.2773 72.816 93.64C72.4747 94.0453 72.0373 94.2907 71.504 94.376C70.9707 94.4613 70.48 94.3227 70.032 93.96C68.88 93 67.696 91.9227 66.48 90.728C65.264 89.5333 64.0907 88.264 62.96 86.92C61.8293 85.5547 60.7947 84.168 59.856 82.76V90.6H63.856C64.3467 90.6 64.7627 90.7707 65.104 91.112C65.4453 91.4533 65.616 91.8693 65.616 92.36C65.616 92.8293 65.4453 93.2453 65.104 93.608C64.7627 93.9493 64.3467 94.12 63.856 94.12H59.856V97.864C59.856 98.44 59.6747 98.8987 59.312 99.24C58.9493 99.5813 58.512 99.752 58 99.752ZM84.24 98.344C83.8133 98.6853 83.3333 98.824 82.8 98.76C82.2667 98.696 81.8293 98.4507 81.488 98.024C81.1467 97.5973 81.008 97.1173 81.072 96.584C81.136 96.0293 81.3813 95.5813 81.808 95.24C83.2587 94.1093 84.464 92.7867 85.424 91.272C86.384 89.736 87.0453 88.0613 87.408 86.248C87.792 84.4347 87.8133 82.5573 87.472 80.616C87.3867 80.0613 87.4933 79.5707 87.792 79.144C88.0907 78.696 88.5067 78.4293 89.04 78.344C89.5947 78.2373 90.0853 78.3333 90.512 78.632C90.96 78.9307 91.2267 79.3573 91.312 79.912C91.3547 80.0613 91.376 80.2213 91.376 80.392C91.3973 80.5627 91.4187 80.7333 91.44 80.904C93.36 80.7973 94.8 80.6373 95.76 80.424C96.7413 80.1893 97.392 79.9333 97.712 79.656C98.0533 79.3573 98.224 79.0587 98.224 78.76C98.224 78.312 98.0853 77.9707 97.808 77.736C97.5307 77.48 96.9333 77.352 96.016 77.352H79.088C78.5547 77.352 78.0853 77.16 77.68 76.776C77.296 76.392 77.104 75.9333 77.104 75.4C77.104 74.8453 77.296 74.3867 77.68 74.024C78.0853 73.64 78.5547 73.448 79.088 73.448H96.016C100.24 73.448 102.352 75.1653 102.352 78.6C102.352 79.88 101.979 80.9467 101.232 81.8C100.507 82.632 99.344 83.272 97.744 83.72C96.1653 84.168 94.0853 84.4667 91.504 84.616C91.312 87.3893 90.5867 89.96 89.328 92.328C88.0693 94.696 86.3733 96.7013 84.24 98.344ZM111.152 92.84C110.619 92.84 110.149 92.648 109.744 92.264C109.36 91.8587 109.168 91.3893 109.168 90.856C109.168 90.3013 109.36 89.8427 109.744 89.48C110.149 89.096 110.619 88.904 111.152 88.904H132.848C133.403 88.904 133.872 89.096 134.256 89.48C134.64 89.8427 134.832 90.3013 134.832 90.856C134.832 91.3893 134.64 91.8587 134.256 92.264C133.872 92.648 133.403 92.84 132.848 92.84H111.152ZM114.992 81.384C114.459 81.384 113.989 81.192 113.584 80.808C113.2 80.4027 113.008 79.9333 113.008 79.4C113.008 78.8453 113.2 78.376 113.584 77.992C113.989 77.608 114.459 77.416 114.992 77.416H129.008C129.563 77.416 130.032 77.608 130.416 77.992C130.8 78.376 130.992 78.8453 130.992 79.4C130.992 79.9333 130.8 80.4027 130.416 80.808C130.032 81.192 129.563 81.384 129.008 81.384H114.992ZM159.44 95.752C158.971 96.008 158.469 96.0507 157.936 95.88C157.403 95.7093 157.008 95.3893 156.752 94.92C156.475 94.408 156.08 93.7573 155.568 92.968C155.056 92.1787 154.491 91.3467 153.872 90.472C153.275 89.5973 152.667 88.7653 152.048 87.976C151.451 87.1867 150.917 86.536 150.448 86.024C150.064 85.6187 149.872 85.1493 149.872 84.616C149.893 84.0827 150.096 83.624 150.48 83.24C150.885 82.8773 151.365 82.7067 151.92 82.728C152.475 82.7493 152.933 82.9627 153.296 83.368C153.659 83.7733 154.053 84.232 154.48 84.744C154.907 85.256 155.344 85.8 155.792 86.376C157.499 85.6933 158.821 85.0747 159.76 84.52C160.699 83.9653 161.339 83.4533 161.68 82.984C162.043 82.5147 162.213 82.0773 162.192 81.672C162.171 81.224 161.989 80.8933 161.648 80.68C161.307 80.4667 160.699 80.3813 159.824 80.424L142.608 81.096C142.075 81.1173 141.605 80.9467 141.2 80.584C140.795 80.2 140.581 79.7413 140.56 79.208C140.539 78.6533 140.709 78.184 141.072 77.8C141.456 77.3947 141.915 77.1813 142.448 77.16L159.6 76.584C161.925 76.4987 163.6 76.8293 164.624 77.576C165.648 78.3013 166.235 79.464 166.384 81.064C166.512 82.3013 166.235 83.4213 165.552 84.424C164.891 85.4267 163.909 86.344 162.608 87.176C161.328 87.9867 159.803 88.744 158.032 89.448C158.501 90.1307 158.928 90.7813 159.312 91.4C159.717 92.0187 160.048 92.5733 160.304 93.064C160.56 93.5547 160.603 94.0667 160.432 94.6C160.261 95.112 159.931 95.496 159.44 95.752ZM194.192 92.84C192.336 93.544 190.715 93.8533 189.328 93.768C187.941 93.6827 186.853 93.1813 186.064 92.264C185.296 91.3253 184.912 89.9493 184.912 88.136V77.96C184.912 77.4053 185.104 76.936 185.488 76.552C185.893 76.168 186.363 75.976 186.896 75.976C187.451 75.976 187.909 76.168 188.272 76.552C188.656 76.936 188.848 77.4053 188.848 77.96V87.528C188.848 89.5547 190.075 90.12 192.528 89.224C193.488 88.8613 194.533 88.4347 195.664 87.944C196.816 87.4533 197.84 86.9947 198.736 86.568C199.227 86.3333 199.728 86.3013 200.24 86.472C200.752 86.6213 201.136 86.9413 201.392 87.432C201.648 87.9013 201.691 88.4027 201.52 88.936C201.371 89.4693 201.051 89.8533 200.56 90.088C199.579 90.5573 198.523 91.048 197.392 91.56C196.261 92.0507 195.195 92.4773 194.192 92.84ZM173.232 94.888C172.741 95.1013 172.24 95.1227 171.728 94.952C171.216 94.76 170.843 94.4187 170.608 93.928C170.395 93.4373 170.373 92.936 170.544 92.424C170.736 91.8907 171.077 91.5173 171.568 91.304C173.296 90.4933 174.661 89.512 175.664 88.36C176.667 87.1867 177.381 85.864 177.808 84.392C178.235 82.8987 178.448 81.2987 178.448 79.592C178.448 79.0373 178.64 78.568 179.024 78.184C179.408 77.8 179.867 77.608 180.4 77.608C180.955 77.608 181.413 77.8 181.776 78.184C182.16 78.568 182.352 79.0373 182.352 79.592C182.331 83.2613 181.531 86.3973 179.952 89C178.373 91.6027 176.133 93.5653 173.232 94.888ZM216.048 98.376C215.515 98.376 215.056 98.184 214.672 97.8C214.288 97.416 214.096 96.9573 214.096 96.424V74.312C214.096 73.7573 214.288 73.2987 214.672 72.936C215.056 72.552 215.515 72.36 216.048 72.36C216.603 72.36 217.072 72.552 217.456 72.936C217.84 73.2987 218.032 73.7573 218.032 74.312V82.024C218.309 81.5973 218.693 81.32 219.184 81.192C219.675 81.0427 220.155 81.0853 220.624 81.32C221.883 81.9813 223.163 82.7387 224.464 83.592C225.787 84.4453 226.928 85.2773 227.888 86.088C228.315 86.4293 228.549 86.888 228.592 87.464C228.656 88.0187 228.507 88.5093 228.144 88.936C227.803 89.3413 227.355 89.576 226.8 89.64C226.245 89.6827 225.755 89.5333 225.328 89.192C224.731 88.7227 224.037 88.2213 223.248 87.688C222.48 87.1547 221.701 86.6427 220.912 86.152C220.144 85.64 219.44 85.2027 218.8 84.84C218.459 84.648 218.203 84.4133 218.032 84.136V96.424C218.032 96.9573 217.84 97.416 217.456 97.8C217.072 98.184 216.603 98.376 216.048 98.376ZM245.008 97.8C244.496 97.9493 243.995 97.9067 243.504 97.672C243.035 97.4373 242.715 97.0533 242.544 96.52C242.373 96.008 242.405 95.5067 242.64 95.016C242.896 94.5253 243.28 94.1947 243.792 94.024C246.416 93.1707 248.72 91.976 250.704 90.44C252.709 88.8827 254.181 87.1227 255.12 85.16C255.867 83.56 255.301 82.76 253.424 82.76H241.808C241.275 82.76 240.816 82.5787 240.432 82.216C240.048 81.832 239.856 81.3627 239.856 80.808C239.856 80.2533 240.048 79.7947 240.432 79.432C240.816 79.0693 241.275 78.888 241.808 78.888H253.584C255.419 78.888 256.827 79.2293 257.808 79.912C258.811 80.5733 259.376 81.5013 259.504 82.696C259.632 83.8693 259.333 85.224 258.608 86.76C257.435 89.2347 255.653 91.4427 253.264 93.384C250.896 95.304 248.144 96.776 245.008 97.8ZM243.856 76.52C243.323 76.52 242.864 76.3387 242.48 75.976C242.096 75.6133 241.904 75.1653 241.904 74.632C241.904 74.0773 242.096 73.6187 242.48 73.256C242.864 72.8933 243.323 72.712 243.856 72.712H256.08C256.613 72.712 257.061 72.8933 257.424 73.256C257.808 73.6187 258 74.0773 258 74.632C258 75.1653 257.808 75.6133 257.424 75.976C257.061 76.3387 256.613 76.52 256.08 76.52H243.856ZM271.92 96.36C271.451 96.5947 270.949 96.6267 270.416 96.456C269.904 96.264 269.531 95.9227 269.296 95.432C269.061 94.9413 269.029 94.44 269.2 93.928C269.392 93.416 269.723 93.0427 270.192 92.808C273.243 91.336 275.952 89.5653 278.32 87.496C280.709 85.4053 282.651 83.144 284.144 80.712C285.083 79.176 284.571 78.408 282.608 78.408H273.872C273.339 78.408 272.88 78.216 272.496 77.832C272.112 77.4267 271.92 76.9573 271.92 76.424C271.92 75.8693 272.112 75.4 272.496 75.016C272.88 74.632 273.339 74.44 273.872 74.44H282.736C284.656 74.44 286.128 74.792 287.152 75.496C288.176 76.1787 288.731 77.1173 288.816 78.312C288.923 79.5067 288.528 80.8827 287.632 82.44C287.163 83.2933 286.597 84.1467 285.936 85C286.917 85.8107 287.92 86.7067 288.944 87.688C289.989 88.648 290.96 89.5867 291.856 90.504C292.773 91.4 293.541 92.168 294.16 92.808C294.523 93.192 294.704 93.6613 294.704 94.216C294.704 94.7707 294.501 95.24 294.096 95.624C293.712 96.008 293.243 96.2 292.688 96.2C292.133 96.1787 291.664 95.976 291.28 95.592C290.704 94.9947 289.979 94.248 289.104 93.352C288.229 92.4347 287.301 91.496 286.32 90.536C285.339 89.5547 284.389 88.6693 283.472 87.88C281.851 89.5653 280.037 91.1547 278.032 92.648C276.048 94.12 274.011 95.3573 271.92 96.36ZM312.048 98.376C311.515 98.376 311.056 98.184 310.672 97.8C310.288 97.416 310.096 96.9573 310.096 96.424V74.312C310.096 73.7573 310.288 73.2987 310.672 72.936C311.056 72.552 311.515 72.36 312.048 72.36C312.603 72.36 313.072 72.552 313.456 72.936C313.84 73.2987 314.032 73.7573 314.032 74.312V82.024C314.309 81.5973 314.693 81.32 315.184 81.192C315.675 81.0427 316.155 81.0853 316.624 81.32C317.883 81.9813 319.163 82.7387 320.464 83.592C321.787 84.4453 322.928 85.2773 323.888 86.088C324.315 86.4293 324.549 86.888 324.592 87.464C324.656 88.0187 324.507 88.5093 324.144 88.936C323.803 89.3413 323.355 89.576 322.8 89.64C322.245 89.6827 321.755 89.5333 321.328 89.192C320.731 88.7227 320.037 88.2213 319.248 87.688C318.48 87.1547 317.701 86.6427 316.912 86.152C316.144 85.64 315.44 85.2027 314.8 84.84C314.459 84.648 314.203 84.4133 314.032 84.136V96.424C314.032 96.9573 313.84 97.416 313.456 97.8C313.072 98.184 312.603 98.376 312.048 98.376ZM347.92 99.752C347.408 99.752 346.971 99.5813 346.608 99.24C346.245 98.92 346.043 98.4933 346 97.96C345.979 97.448 346.128 97.0213 346.448 96.68C346.789 96.3387 347.227 96.1467 347.76 96.104C348.357 96.04 348.741 95.9333 348.912 95.784C349.104 95.6133 349.2 95.2507 349.2 94.696V85.384H342.896C342.491 85.384 342.149 85.2453 341.872 84.968C341.595 84.6907 341.456 84.3493 341.456 83.944C341.456 83.5387 341.595 83.1973 341.872 82.92C342.149 82.6427 342.491 82.504 342.896 82.504H349.2V80.936H344.464C344.123 80.936 343.824 80.808 343.568 80.552C343.312 80.2747 343.184 79.9547 343.184 79.592C343.184 79.2293 343.312 78.92 343.568 78.664C343.824 78.408 344.123 78.28 344.464 78.28H349.2V76.744H343.312C342.949 76.744 342.64 76.616 342.384 76.36C342.128 76.0827 342 75.7627 342 75.4C342 75.0373 342.128 74.728 342.384 74.472C342.64 74.1947 342.949 74.056 343.312 74.056H346.16C345.968 73.7147 345.755 73.3627 345.52 73C345.307 72.616 345.147 72.3493 345.04 72.2C344.827 71.8373 344.773 71.4533 344.88 71.048C345.008 70.6213 345.264 70.3013 345.648 70.088C346.053 69.8747 346.459 69.8213 346.864 69.928C347.291 70.0347 347.632 70.2907 347.888 70.696C347.995 70.8453 348.144 71.0907 348.336 71.432C348.528 71.7733 348.72 72.136 348.912 72.52C349.125 72.8827 349.285 73.1707 349.392 73.384C349.52 73.5973 349.584 73.8213 349.584 74.056H352.016C352.165 73.7787 352.347 73.4267 352.56 73C352.773 72.552 352.987 72.1147 353.2 71.688C353.413 71.2613 353.584 70.9307 353.712 70.696C353.904 70.2693 354.213 69.992 354.64 69.864C355.088 69.7147 355.525 69.7467 355.952 69.96C356.379 70.152 356.656 70.4507 356.784 70.856C356.933 71.2613 356.901 71.656 356.688 72.04C356.603 72.2107 356.453 72.488 356.24 72.872C356.027 73.256 355.803 73.6507 355.568 74.056H358.864C359.227 74.056 359.536 74.1947 359.792 74.472C360.048 74.728 360.176 75.0373 360.176 75.4C360.176 75.7627 360.048 76.0827 359.792 76.36C359.536 76.616 359.227 76.744 358.864 76.744H352.752V78.28H357.232C357.595 78.28 357.904 78.408 358.16 78.664C358.416 78.92 358.544 79.2293 358.544 79.592C358.544 79.9547 358.416 80.2747 358.16 80.552C357.904 80.808 357.595 80.936 357.232 80.936H352.752V82.504H359.376C359.781 82.504 360.123 82.6427 360.4 82.92C360.677 83.1973 360.816 83.5387 360.816 83.944C360.816 84.3493 360.677 84.6907 360.4 84.968C360.123 85.2453 359.781 85.384 359.376 85.384H352.752V87.944C353.328 88.456 353.925 88.9573 354.544 89.448C354.907 88.9787 355.312 88.456 355.76 87.88C356.208 87.304 356.528 86.888 356.72 86.632C356.976 86.248 357.317 86.0027 357.744 85.896C358.171 85.7893 358.576 85.864 358.96 86.12C359.344 86.3547 359.589 86.6853 359.696 87.112C359.803 87.5173 359.728 87.9013 359.472 88.264C359.216 88.6053 358.821 89.0853 358.288 89.704C357.776 90.3013 357.307 90.8453 356.88 91.336C357.584 91.8693 358.245 92.3707 358.864 92.84C359.504 93.3093 360.048 93.6933 360.496 93.992C360.859 94.2267 361.083 94.5787 361.168 95.048C361.253 95.5173 361.168 95.9333 360.912 96.296C360.592 96.7653 360.197 97.0213 359.728 97.064C359.259 97.128 358.811 97.0213 358.384 96.744C357.851 96.36 357.243 95.9013 356.56 95.368C355.899 94.8133 355.237 94.2373 354.576 93.64C353.915 93.0427 353.307 92.488 352.752 91.976V95.016C352.752 96.7013 352.368 97.9067 351.6 98.632C350.832 99.3573 349.605 99.7307 347.92 99.752ZM337.104 99.912C336.656 99.912 336.261 99.7627 335.92 99.464C335.6 99.1653 335.44 98.7707 335.44 98.28V87.496C335.141 88.136 334.843 88.744 334.544 89.32C334.245 89.896 333.957 90.408 333.68 90.856C333.467 91.2613 333.115 91.5173 332.624 91.624C332.155 91.7093 331.717 91.6133 331.312 91.336C330.971 91.1013 330.768 90.7813 330.704 90.376C330.64 89.9707 330.725 89.576 330.96 89.192C331.323 88.6373 331.717 87.9547 332.144 87.144C332.571 86.3333 332.997 85.4907 333.424 84.616C333.851 83.72 334.235 82.856 334.576 82.024C334.939 81.1707 335.227 80.4347 335.44 79.816V79.432H332.496C332.069 79.432 331.707 79.2827 331.408 78.984C331.109 78.664 330.96 78.3013 330.96 77.896C330.96 77.4693 331.109 77.1067 331.408 76.808C331.707 76.488 332.069 76.328 332.496 76.328H335.44V71.688C335.44 71.176 335.6 70.7707 335.92 70.472C336.261 70.1733 336.656 70.024 337.104 70.024C337.573 70.024 337.968 70.1733 338.288 70.472C338.608 70.7707 338.768 71.176 338.768 71.688V76.328H340.88C341.307 76.328 341.669 76.488 341.968 76.808C342.267 77.1067 342.416 77.4693 342.416 77.896C342.416 78.3013 342.267 78.664 341.968 78.984C341.669 79.2827 341.307 79.432 340.88 79.432H338.768V81.576C339.067 81.96 339.451 82.472 339.92 83.112C340.411 83.7307 340.901 84.3387 341.392 84.936C341.883 85.5333 342.267 85.992 342.544 86.312C342.843 86.632 342.971 87.016 342.928 87.464C342.907 87.8907 342.725 88.2533 342.384 88.552C342.043 88.8507 341.637 88.9787 341.168 88.936C340.72 88.8933 340.357 88.6907 340.08 88.328C339.931 88.1147 339.739 87.848 339.504 87.528C339.269 87.208 339.024 86.856 338.768 86.472V98.28C338.768 98.7707 338.608 99.1653 338.288 99.464C337.968 99.7627 337.573 99.912 337.104 99.912ZM343.024 96.552C342.555 96.7653 342.085 96.8187 341.616 96.712C341.168 96.584 340.837 96.2853 340.624 95.816C340.411 95.3467 340.379 94.9093 340.528 94.504C340.699 94.0773 341.029 93.7573 341.52 93.544C342.011 93.3307 342.565 93.0747 343.184 92.776C343.824 92.456 344.453 92.1253 345.072 91.784C345.712 91.4427 346.256 91.1547 346.704 90.92C347.088 90.7067 347.472 90.664 347.856 90.792C348.261 90.92 348.549 91.1653 348.72 91.528C349.125 92.3813 348.901 93.096 348.048 93.672C347.643 93.928 347.131 94.248 346.512 94.632C345.893 94.9947 345.275 95.3467 344.656 95.688C344.037 96.0293 343.493 96.3173 343.024 96.552ZM347.568 90.184C347.248 90.4613 346.885 90.6 346.48 90.6C346.075 90.5787 345.733 90.4187 345.456 90.12C345.221 89.864 344.88 89.5227 344.432 89.096C344.005 88.6693 343.653 88.3387 343.376 88.104C343.099 87.8267 342.96 87.4853 342.96 87.08C342.981 86.6533 343.131 86.3013 343.408 86.024C343.749 85.7253 344.112 85.576 344.496 85.576C344.88 85.576 345.232 85.7253 345.552 86.024C345.723 86.152 345.947 86.3547 346.224 86.632C346.501 86.888 346.779 87.144 347.056 87.4C347.333 87.656 347.536 87.8587 347.664 88.008C347.963 88.328 348.101 88.7013 348.08 89.128C348.059 89.5333 347.888 89.8853 347.568 90.184ZM369.072 97.512C368.539 97.5973 368.059 97.4907 367.632 97.192C367.205 96.8933 366.939 96.488 366.832 95.976C366.64 94.888 366.491 93.6293 366.384 92.2C366.277 90.7493 366.224 89.224 366.224 87.624C366.224 86.024 366.267 84.4133 366.352 82.792C366.437 81.1707 366.565 79.624 366.736 78.152C366.928 76.6587 367.152 75.3253 367.408 74.152C367.515 73.64 367.792 73.2453 368.24 72.968C368.688 72.6693 369.168 72.5733 369.68 72.68C370.192 72.808 370.587 73.096 370.864 73.544C371.163 73.9707 371.259 74.4507 371.152 74.984C370.811 76.4987 370.544 78.1413 370.352 79.912C370.16 81.6827 370.032 83.4853 369.968 85.32C369.925 87.1333 369.957 88.904 370.064 90.632C370.171 92.3387 370.352 93.896 370.608 95.304C370.715 95.816 370.608 96.2853 370.288 96.712C369.989 97.1387 369.584 97.4053 369.072 97.512ZM382.192 95.784C379.419 95.784 377.349 95.2827 375.984 94.28C374.64 93.2773 373.829 91.8053 373.552 89.864C373.467 89.352 373.573 88.8827 373.872 88.456C374.192 88.0293 374.619 87.7733 375.152 87.688C375.664 87.624 376.133 87.752 376.56 88.072C376.987 88.3707 377.243 88.7867 377.328 89.32C377.456 90.2373 377.893 90.92 378.64 91.368C379.387 91.816 380.603 92.04 382.288 92.04C383.888 92.04 385.819 91.7947 388.08 91.304C388.592 91.176 389.072 91.2613 389.52 91.56C389.968 91.8587 390.245 92.264 390.352 92.776C390.459 93.288 390.363 93.768 390.064 94.216C389.765 94.6427 389.36 94.92 388.848 95.048C387.696 95.3253 386.544 95.5173 385.392 95.624C384.261 95.7307 383.195 95.784 382.192 95.784ZM376.336 79.944C375.824 80.0507 375.344 79.9653 374.896 79.688C374.469 79.3893 374.203 78.9733 374.096 78.44C373.989 77.928 374.075 77.448 374.352 77C374.651 76.552 375.067 76.2853 375.6 76.2C376.795 75.9653 378.128 75.816 379.6 75.752C381.072 75.6667 382.533 75.656 383.984 75.72C385.435 75.7627 386.715 75.88 387.824 76.072C388.357 76.1573 388.773 76.424 389.072 76.872C389.371 77.2987 389.467 77.7787 389.36 78.312C389.275 78.8453 389.008 79.2613 388.56 79.56C388.133 79.8373 387.664 79.9333 387.152 79.848C385.424 79.5493 383.632 79.4107 381.776 79.432C379.92 79.432 378.107 79.6027 376.336 79.944ZM415.216 100.072C414.619 100.093 414.107 99.9547 413.68 99.656C413.275 99.3573 413.04 98.92 412.976 98.344C412.933 97.7893 413.061 97.2987 413.36 96.872C413.68 96.4453 414.149 96.2107 414.768 96.168C415.579 96.104 416.091 95.976 416.304 95.784C416.517 95.592 416.624 95.1973 416.624 94.6V88.392H396.688C396.283 88.392 395.931 88.232 395.632 87.912C395.333 87.592 395.184 87.2293 395.184 86.824C395.184 86.3973 395.333 86.0347 395.632 85.736C395.931 85.416 396.283 85.256 396.688 85.256H399.568C399.525 85.1707 399.483 85.0853 399.44 85C399.397 84.8933 399.365 84.7867 399.344 84.68C399.237 84.2747 399.291 83.9013 399.504 83.56C399.739 83.1973 400.123 82.9733 400.656 82.888C403.259 82.44 405.125 81.6613 406.256 80.552H402.16C401.712 80.552 401.36 80.4133 401.104 80.136C400.848 79.8587 400.72 79.5173 400.72 79.112C400.72 78.7067 400.848 78.3653 401.104 78.088C401.36 77.8107 401.712 77.672 402.16 77.672H407.824C407.867 77.5013 407.909 77.32 407.952 77.128C407.995 76.936 408.027 76.744 408.048 76.552C408.069 76.2533 408.165 75.9867 408.336 75.752H401.84C401.072 75.752 400.539 75.88 400.24 76.136C399.963 76.392 399.824 76.84 399.824 77.48V78.504C399.824 79.0373 399.643 79.4533 399.28 79.752C398.939 80.0293 398.523 80.168 398.032 80.168C397.541 80.168 397.115 80.008 396.752 79.688C396.389 79.368 396.208 78.9413 396.208 78.408V77.256C396.208 75.6133 396.624 74.4613 397.456 73.8C398.288 73.1173 399.675 72.776 401.616 72.776H407.888V71.528C407.888 70.9733 408.08 70.5147 408.464 70.152C408.869 69.7893 409.349 69.608 409.904 69.608C410.459 69.608 410.928 69.7893 411.312 70.152C411.717 70.5147 411.92 70.9733 411.92 71.528V72.776H418.352C420.315 72.776 421.701 73.1173 422.512 73.8C423.344 74.4613 423.76 75.6133 423.76 77.256V78.408C423.76 78.9413 423.579 79.368 423.216 79.688C422.853 80.008 422.427 80.168 421.936 80.168C421.445 80.168 421.019 80.0293 420.656 79.752C420.315 79.4533 420.144 79.0373 420.144 78.504V77.48C420.144 76.84 419.995 76.392 419.696 76.136C419.419 75.88 418.896 75.752 418.128 75.752H411.28C411.472 76.0507 411.536 76.392 411.472 76.776C411.451 76.9253 411.429 77.0747 411.408 77.224C411.387 77.3733 411.355 77.5227 411.312 77.672H417.904C418.352 77.672 418.704 77.8107 418.96 78.088C419.216 78.3653 419.344 78.7067 419.344 79.112C419.344 79.5173 419.216 79.8587 418.96 80.136C418.704 80.4133 418.352 80.552 417.904 80.552H413.584C414.352 81.1493 415.216 81.64 416.176 82.024C417.157 82.3867 418.192 82.6747 419.28 82.888C419.771 82.9733 420.123 83.208 420.336 83.592C420.571 83.9547 420.613 84.36 420.464 84.808C420.443 84.936 420.368 85.0853 420.24 85.256H423.28C423.707 85.256 424.069 85.416 424.368 85.736C424.667 86.0347 424.816 86.3973 424.816 86.824C424.816 87.2293 424.667 87.592 424.368 87.912C424.069 88.232 423.707 88.392 423.28 88.392H420.304V95.592C420.304 97.2133 419.899 98.3653 419.088 99.048C418.277 99.7307 416.987 100.072 415.216 100.072ZM404.848 97.832C403.589 97.832 402.597 97.6933 401.872 97.416C401.168 97.16 400.677 96.7333 400.4 96.136C400.123 95.5387 399.984 94.728 399.984 93.704C399.984 92.68 400.123 91.8693 400.4 91.272C400.677 90.6533 401.168 90.216 401.872 89.96C402.597 89.6827 403.589 89.544 404.848 89.544H407.472C408.752 89.544 409.744 89.6827 410.448 89.96C411.152 90.216 411.643 90.6533 411.92 91.272C412.197 91.8693 412.336 92.68 412.336 93.704C412.336 94.728 412.197 95.5387 411.92 96.136C411.643 96.7333 411.152 97.16 410.448 97.416C409.744 97.6933 408.752 97.832 407.472 97.832H404.848ZM403.92 85.256H415.92C414.747 84.8507 413.659 84.3067 412.656 83.624C411.653 82.92 410.757 82.0453 409.968 81C409.371 81.96 408.571 82.8027 407.568 83.528C406.587 84.232 405.371 84.808 403.92 85.256ZM405.072 94.792H407.28C407.835 94.792 408.208 94.7173 408.4 94.568C408.592 94.3973 408.688 94.1093 408.688 93.704C408.688 93.2773 408.592 92.9893 408.4 92.84C408.208 92.6693 407.835 92.584 407.28 92.584H405.072C404.496 92.584 404.112 92.6693 403.92 92.84C403.728 92.9893 403.632 93.2773 403.632 93.704C403.632 94.1093 403.728 94.3973 403.92 94.568C404.112 94.7173 404.496 94.792 405.072 94.792ZM446.64 99.56C446 99.56 445.488 99.368 445.104 98.984C444.72 98.6213 444.507 98.1413 444.464 97.544C444.443 97.0107 444.603 96.552 444.944 96.168C445.285 95.7627 445.765 95.5387 446.384 95.496C447.323 95.432 447.909 95.2933 448.144 95.08C448.4 94.8453 448.528 94.376 448.528 93.672V81.096H438.576C438.043 81.096 437.605 80.9253 437.264 80.584C436.944 80.2213 436.784 79.7947 436.784 79.304C436.784 78.8133 436.944 78.3973 437.264 78.056C437.605 77.6933 438.043 77.512 438.576 77.512H448.528V72.104C448.528 71.5067 448.709 71.0373 449.072 70.696C449.456 70.3547 449.915 70.184 450.448 70.184C450.981 70.184 451.429 70.3547 451.792 70.696C452.176 71.0373 452.368 71.5067 452.368 72.104V77.512H455.216C455.771 77.512 456.208 77.6933 456.528 78.056C456.848 78.3973 457.008 78.8133 457.008 79.304C457.008 79.7947 456.848 80.2213 456.528 80.584C456.208 80.9253 455.771 81.096 455.216 81.096H452.368V94.312C452.368 95.6347 452.187 96.68 451.824 97.448C451.483 98.216 450.896 98.76 450.064 99.08C449.232 99.4 448.091 99.56 446.64 99.56ZM433.968 99.688C433.435 99.688 432.976 99.5173 432.592 99.176C432.229 98.8347 432.048 98.376 432.048 97.8V83.016C431.344 83.912 430.64 84.744 429.936 85.512C429.595 85.896 429.157 86.1093 428.624 86.152C428.112 86.1733 427.664 86.0133 427.28 85.672C426.917 85.3307 426.715 84.9253 426.672 84.456C426.651 83.9867 426.8 83.5813 427.12 83.24C428.123 82.152 429.115 80.9147 430.096 79.528C431.077 78.1413 431.973 76.7227 432.784 75.272C433.595 73.8213 434.235 72.4667 434.704 71.208C434.917 70.7173 435.248 70.3867 435.696 70.216C436.144 70.024 436.613 70.0133 437.104 70.184C437.573 70.3333 437.915 70.632 438.128 71.08C438.341 71.528 438.341 72.008 438.128 72.52C437.851 73.2667 437.52 74.0453 437.136 74.856C436.752 75.6453 436.325 76.4453 435.856 77.256V97.8C435.856 98.376 435.664 98.8347 435.28 99.176C434.917 99.5173 434.48 99.688 433.968 99.688ZM445.264 90.76C444.752 91.1013 444.229 91.2187 443.696 91.112C443.184 91.0053 442.779 90.7173 442.48 90.248C442.267 89.8853 441.968 89.448 441.584 88.936C441.221 88.424 440.848 87.912 440.464 87.4C440.08 86.888 439.749 86.472 439.472 86.152C439.173 85.768 439.067 85.3307 439.152 84.84C439.237 84.328 439.483 83.9227 439.888 83.624C440.315 83.3253 440.773 83.1867 441.264 83.208C441.776 83.208 442.213 83.4213 442.576 83.848C442.853 84.168 443.195 84.5947 443.6 85.128C444.005 85.64 444.4 86.1627 444.784 86.696C445.189 87.208 445.499 87.6347 445.712 87.976C446.053 88.4667 446.171 88.9787 446.064 89.512C445.957 90.0453 445.691 90.4613 445.264 90.76ZM475.024 98.376C472.464 98.376 470.448 97.7467 468.976 96.488C467.525 95.208 466.8 93.16 466.8 90.344V73.288C466.8 72.7547 466.981 72.3067 467.344 71.944C467.728 71.56 468.187 71.368 468.72 71.368C469.253 71.368 469.701 71.56 470.064 71.944C470.448 72.3067 470.64 72.7547 470.64 73.288V90.344C470.64 91.9227 470.992 93.0213 471.696 93.64C472.421 94.2587 473.531 94.568 475.024 94.568C476.347 94.568 477.584 94.216 478.736 93.512C479.909 92.808 480.859 91.6773 481.584 90.12C481.819 89.6293 482.192 89.2987 482.704 89.128C483.216 88.9573 483.707 88.9893 484.176 89.224C484.667 89.4373 484.987 89.8 485.136 90.312C485.307 90.824 485.285 91.3253 485.072 91.816C484.133 93.928 482.757 95.5493 480.944 96.68C479.152 97.8107 477.179 98.376 475.024 98.376ZM502.512 98.92C500.763 98.92 499.355 98.504 498.288 97.672C497.221 96.8613 496.688 95.6453 496.688 94.024C496.688 92.5733 497.221 91.4107 498.288 90.536C499.376 89.6613 500.827 89.224 502.64 89.224C503.28 89.224 503.92 89.256 504.56 89.32L504.464 85.704C502.245 85.768 500.283 85.768 498.576 85.704C498.043 85.6613 497.605 85.448 497.264 85.064C496.944 84.6587 496.795 84.2 496.816 83.688C496.859 83.176 497.072 82.7493 497.456 82.408C497.861 82.0667 498.32 81.9173 498.832 81.96C499.643 82.0027 500.517 82.0347 501.456 82.056C502.416 82.056 503.387 82.0453 504.368 82.024C504.347 81.512 504.336 81 504.336 80.488C504.336 79.976 504.325 79.4747 504.304 78.984C503.259 79.0053 502.245 79.016 501.264 79.016C500.283 78.9947 499.387 78.9733 498.576 78.952C498.043 78.9307 497.605 78.728 497.264 78.344C496.944 77.9387 496.795 77.4693 496.816 76.936C496.859 76.424 497.072 75.9973 497.456 75.656C497.861 75.3147 498.32 75.1653 498.832 75.208C500.411 75.3147 502.213 75.3467 504.24 75.304V72.552C504.24 72.0187 504.421 71.5707 504.784 71.208C505.147 70.824 505.595 70.632 506.128 70.632C506.661 70.632 507.109 70.824 507.472 71.208C507.856 71.5707 508.048 72.0187 508.048 72.552C508.048 72.936 508.048 73.352 508.048 73.8C508.048 74.2267 508.059 74.6853 508.08 75.176C508.955 75.112 509.797 75.048 510.608 74.984C511.419 74.8987 512.155 74.8133 512.816 74.728C513.328 74.664 513.787 74.792 514.192 75.112C514.619 75.4107 514.864 75.816 514.928 76.328C514.992 76.8613 514.864 77.3413 514.544 77.768C514.245 78.1733 513.84 78.408 513.328 78.472C512.581 78.5573 511.76 78.632 510.864 78.696C509.989 78.76 509.083 78.8133 508.144 78.856C508.144 79.3467 508.144 79.848 508.144 80.36C508.165 80.872 508.187 81.384 508.208 81.896C509.061 81.8533 509.872 81.8 510.64 81.736C511.429 81.6507 512.155 81.5653 512.816 81.48C513.328 81.3947 513.787 81.512 514.192 81.832C514.619 82.152 514.864 82.568 514.928 83.08C514.992 83.592 514.864 84.0613 514.544 84.488C514.245 84.8933 513.84 85.128 513.328 85.192C512.603 85.2773 511.813 85.352 510.96 85.416C510.107 85.48 509.211 85.5333 508.272 85.576C508.315 86.4293 508.336 87.24 508.336 88.008C508.357 88.776 508.379 89.4907 508.4 90.152C509.637 90.5147 510.811 90.9627 511.92 91.496C513.029 92.0293 514.011 92.5947 514.864 93.192C515.291 93.4693 515.547 93.8747 515.632 94.408C515.739 94.9413 515.643 95.4213 515.344 95.848C515.045 96.2747 514.629 96.5413 514.096 96.648C513.584 96.7333 513.115 96.6267 512.688 96.328C512.091 95.9013 511.429 95.496 510.704 95.112C509.979 94.7067 509.221 94.344 508.432 94.024C508.347 95.7093 507.792 96.9467 506.768 97.736C505.744 98.5253 504.325 98.92 502.512 98.92ZM502.48 95.304C503.355 95.304 503.931 95.1547 504.208 94.856C504.485 94.536 504.624 94.088 504.624 93.512V92.904C503.899 92.776 503.184 92.712 502.48 92.712C501.797 92.712 501.296 92.8293 500.976 93.064C500.656 93.2987 500.496 93.6187 500.496 94.024C500.496 94.8773 501.157 95.304 502.48 95.304ZM534.768 99.24C534.256 99.3893 533.755 99.3787 533.264 99.208C532.795 99.0587 532.443 98.7493 532.208 98.28C531.995 97.7893 531.973 97.288 532.144 96.776C532.315 96.264 532.645 95.912 533.136 95.72C534.757 95.1013 536.016 94.408 536.912 93.64C537.808 92.872 538.437 91.9867 538.8 90.984C538.075 91.3253 537.36 91.496 536.656 91.496C534.971 91.496 533.595 91.0693 532.528 90.216C531.461 89.3413 530.928 88.0613 530.928 86.376C530.928 84.6907 531.483 83.368 532.592 82.408C533.701 81.448 535.099 80.968 536.784 80.968C536.933 80.968 537.072 80.9787 537.2 81C537.328 81 537.467 81.0107 537.616 81.032C537.552 80.6693 537.499 80.296 537.456 79.912C537.435 79.528 537.413 79.1227 537.392 78.696C535.259 78.7813 533.157 78.9093 531.088 79.08C529.04 79.2293 527.131 79.3893 525.36 79.56C524.848 79.6027 524.389 79.4747 523.984 79.176C523.579 78.856 523.344 78.44 523.28 77.928C523.237 77.3947 523.376 76.9253 523.696 76.52C524.016 76.1147 524.432 75.9013 524.944 75.88C526.757 75.7307 528.731 75.6027 530.864 75.496C532.997 75.368 535.163 75.2613 537.36 75.176V72.424C537.36 71.8907 537.541 71.4427 537.904 71.08C538.267 70.7173 538.715 70.536 539.248 70.536C539.803 70.536 540.261 70.7173 540.624 71.08C540.987 71.4427 541.168 71.8907 541.168 72.424V75.048C542.939 75.0053 544.635 74.9733 546.256 74.952C547.877 74.9093 549.371 74.8773 550.736 74.856C551.269 74.856 551.707 75.048 552.048 75.432C552.411 75.816 552.581 76.264 552.56 76.776C552.539 77.3093 552.336 77.7467 551.952 78.088C551.589 78.4293 551.141 78.5893 550.608 78.568C547.877 78.4613 544.731 78.4613 541.168 78.568C541.189 79.3147 541.221 80.0613 541.264 80.808C541.328 81.5547 541.381 82.2693 541.424 82.952C542.448 84.168 542.96 85.8213 542.96 87.912C542.96 90.5787 542.256 92.9147 540.848 94.92C539.461 96.9253 537.435 98.3653 534.768 99.24ZM536.656 88.2C537.275 88.1787 537.755 88.0187 538.096 87.72C538.459 87.4 538.64 86.9413 538.64 86.344C538.64 86.1733 538.619 85.9813 538.576 85.768C538.555 85.5547 538.523 85.3413 538.48 85.128C538.032 84.5947 537.445 84.328 536.72 84.328C536.123 84.328 535.611 84.5093 535.184 84.872C534.779 85.2133 534.576 85.6933 534.576 86.312C534.576 86.9307 534.768 87.4107 535.152 87.752C535.557 88.072 536.059 88.2213 536.656 88.2Z" fill="#010F32"/>
</svg>
