<svg width="391" height="22" viewBox="0 0 391 22" fill="none" xmlns="http://www.w3.org/2000/svg">
<path d="M0.877353 19.704C0.598687 19.4547 0.45202 19.1467 0.437353 18.78C0.422687 18.3987 0.54002 18.0687 0.789354 17.79C1.93335 16.558 2.90869 15.172 3.71535 13.632C4.53669 12.0773 5.17469 10.398 5.62935 8.594C4.80802 8.638 4.03802 8.682 3.31935 8.726C2.61535 8.75533 2.15335 8.77733 1.93335 8.792C1.56669 8.80667 1.24402 8.68933 0.965354 8.44C0.686687 8.176 0.54002 7.86067 0.525353 7.494C0.510687 7.11267 0.62802 6.78267 0.877353 6.504C1.12669 6.22533 1.44202 6.07867 1.82335 6.064C1.98469 6.04933 2.29269 6.03467 2.74735 6.02C3.20202 6.00533 3.73002 5.99067 4.33135 5.976C4.94735 5.94667 5.56335 5.91733 6.17935 5.888C6.35535 4.788 6.46535 3.65133 6.50935 2.478C6.52402 2.09667 6.67069 1.78133 6.94935 1.532C7.22802 1.268 7.55069 1.15067 7.91735 1.18C8.29869 1.19467 8.61402 1.34133 8.86335 1.62C9.12735 1.884 9.24469 2.20667 9.21535 2.588C9.20069 3.13067 9.16402 3.666 9.10535 4.194C9.04669 4.722 8.98069 5.25733 8.90735 5.8L9.54535 5.756C11.144 5.69733 12.376 5.89533 13.2414 6.35C14.1067 6.80467 14.664 7.56 14.9134 8.616C15.1627 9.672 15.148 11.0873 14.8694 12.862C14.6347 14.358 14.2974 15.5753 13.8574 16.514C13.432 17.4527 12.9114 18.164 12.2954 18.648C11.694 19.1173 11.012 19.4033 10.2494 19.506C9.48669 19.6233 8.65802 19.6087 7.76335 19.462C7.39669 19.4033 7.10335 19.22 6.88335 18.912C6.66335 18.604 6.58269 18.2667 6.64135 17.9C6.71469 17.5187 6.90535 17.2253 7.21335 17.02C7.52135 16.8 7.85869 16.7267 8.22535 16.8C8.70935 16.888 9.14935 16.91 9.54535 16.866C9.94135 16.822 10.3007 16.6607 10.6234 16.382C10.9607 16.1033 11.254 15.6487 11.5034 15.018C11.7674 14.3727 11.9947 13.4927 12.1854 12.378C12.3907 11.2193 12.4494 10.354 12.3614 9.782C12.2734 9.19533 12.0094 8.80667 11.5694 8.616C11.144 8.42533 10.4987 8.34467 9.63335 8.374C9.41335 8.374 8.99535 8.396 8.37935 8.44C7.85135 10.6547 7.10335 12.73 6.13535 14.666C5.16735 16.602 4.05269 18.2593 2.79135 19.638C2.54202 19.9167 2.22669 20.056 1.84535 20.056C1.47869 20.0707 1.15602 19.9533 0.877353 19.704ZM27.0574 18.142C26.7054 18.274 26.3534 18.2593 26.0014 18.098C25.664 17.9367 25.4294 17.68 25.2974 17.328C25.1654 16.976 25.18 16.6313 25.3414 16.294C25.5027 15.942 25.7594 15.7 26.1114 15.568C27.2847 15.1573 28.4654 14.6513 29.6534 14.05C30.856 13.4487 32 12.796 33.0854 12.092C34.1854 11.3733 35.1827 10.64 36.0774 9.892C36.9867 9.12933 37.7274 8.396 38.2994 7.692C38.5487 7.39867 38.8567 7.23 39.2234 7.186C39.6047 7.142 39.9347 7.24467 40.2134 7.494C40.5067 7.72867 40.6754 8.03667 40.7194 8.418C40.7634 8.78467 40.6607 9.11467 40.4114 9.408C39.81 10.1413 39.0107 10.926 38.0134 11.762C37.016 12.5833 35.9014 13.3973 34.6694 14.204C33.4374 15.0107 32.1687 15.7587 30.8634 16.448C29.558 17.1373 28.2894 17.702 27.0574 18.142ZM28.9494 9.474C28.392 9.00467 27.7687 8.52067 27.0794 8.022C26.39 7.50867 25.7667 7.09067 25.2094 6.768C24.8867 6.56267 24.6814 6.284 24.5934 5.932C24.5054 5.56533 24.5567 5.22067 24.7474 4.898C24.9527 4.57533 25.2314 4.37 25.5834 4.282C25.95 4.17933 26.2947 4.23067 26.6174 4.436C27.0134 4.68533 27.4607 4.99333 27.9594 5.36C28.4727 5.712 28.964 6.064 29.4334 6.416C29.9174 6.768 30.3134 7.06867 30.6214 7.318C30.9147 7.55267 31.0834 7.86067 31.1274 8.242C31.186 8.60867 31.098 8.93867 30.8634 9.232C30.6287 9.52533 30.3207 9.70133 29.9394 9.76C29.5727 9.804 29.2427 9.70867 28.9494 9.474ZM50.8834 19.946C50.5314 20.0927 50.1794 20.1 49.8274 19.968C49.49 19.836 49.2407 19.594 49.0794 19.242C48.9327 18.9047 48.9254 18.56 49.0574 18.208C49.204 17.856 49.446 17.6067 49.7834 17.46C52.8047 16.1547 55.2907 14.4973 57.2414 12.488C56.9187 12.1653 56.6107 11.872 56.3174 11.608C56.024 11.344 55.7747 11.1313 55.5694 10.97C55.2907 10.7207 55.122 10.4127 55.0634 10.046C55.0194 9.67933 55.1147 9.35667 55.3494 9.078C55.5987 8.78467 55.9067 8.616 56.2734 8.572C56.6547 8.528 56.9847 8.63067 57.2634 8.88C57.5127 9.07067 57.7767 9.298 58.0554 9.562C58.3487 9.81133 58.6567 10.0827 58.9794 10.376C59.2434 9.99467 59.4927 9.606 59.7274 9.21C59.962 8.814 60.182 8.41067 60.3874 8C60.622 7.516 60.666 7.15667 60.5194 6.922C60.3874 6.67267 60.0354 6.548 59.4634 6.548H56.4714C55.738 7.53067 54.9167 8.47667 54.0074 9.386C53.098 10.2807 52.2327 11.0287 51.4114 11.63C51.1034 11.85 50.7587 11.9307 50.3774 11.872C50.0107 11.7987 49.7247 11.608 49.5194 11.3C49.2994 10.992 49.2187 10.6547 49.2774 10.288C49.3507 9.92133 49.5414 9.628 49.8494 9.408C50.7 8.792 51.514 8.09533 52.2914 7.318C53.0834 6.54067 53.7947 5.72667 54.4254 4.876C55.056 4.01067 55.562 3.17467 55.9434 2.368C56.1047 2.03067 56.354 1.796 56.6914 1.664C57.0434 1.51733 57.388 1.51733 57.7254 1.664C58.0627 1.81067 58.2974 2.06733 58.4294 2.434C58.576 2.786 58.5687 3.13067 58.4074 3.468C58.378 3.54133 58.3414 3.622 58.2974 3.71C58.268 3.78333 58.2314 3.85667 58.1874 3.93H59.8814C61.0107 3.93 61.876 4.14267 62.4774 4.568C63.0934 4.99333 63.438 5.58733 63.5114 6.35C63.5847 7.098 63.3794 7.956 62.8954 8.924C62.3527 10.068 61.678 11.1607 60.8714 12.202C61.2087 12.5247 61.5167 12.8327 61.7954 13.126C62.074 13.4193 62.3087 13.6833 62.4994 13.918C62.7487 14.2113 62.8514 14.5487 62.8074 14.93C62.7634 15.3113 62.5874 15.6267 62.2794 15.876C61.986 16.1107 61.6487 16.206 61.2674 16.162C60.9007 16.1033 60.5927 15.9347 60.3434 15.656C60.1967 15.48 60.0134 15.2747 59.7934 15.04C59.5734 14.8053 59.3387 14.5633 59.0894 14.314C56.8014 16.69 54.066 18.5673 50.8834 19.946ZM75.4574 18.142C75.1054 18.274 74.7534 18.2593 74.4014 18.098C74.064 17.9367 73.8294 17.68 73.6974 17.328C73.5654 16.976 73.58 16.6313 73.7414 16.294C73.9027 15.942 74.1594 15.7 74.5114 15.568C75.6847 15.1573 76.8654 14.6513 78.0534 14.05C79.256 13.4487 80.4 12.796 81.4854 12.092C82.5854 11.3733 83.5827 10.64 84.4774 9.892C85.3867 9.12933 86.1274 8.396 86.6994 7.692C86.9487 7.39867 87.2567 7.23 87.6234 7.186C88.0047 7.142 88.3347 7.24467 88.6134 7.494C88.9067 7.72867 89.0754 8.03667 89.1194 8.418C89.1634 8.78467 89.0607 9.11467 88.8114 9.408C88.21 10.1413 87.4107 10.926 86.4134 11.762C85.416 12.5833 84.3014 13.3973 83.0694 14.204C81.8374 15.0107 80.5687 15.7587 79.2634 16.448C77.958 17.1373 76.6894 17.702 75.4574 18.142ZM77.3494 9.474C76.792 9.00467 76.1687 8.52067 75.4794 8.022C74.79 7.50867 74.1667 7.09067 73.6094 6.768C73.2867 6.56267 73.0814 6.284 72.9934 5.932C72.9054 5.56533 72.9567 5.22067 73.1474 4.898C73.3527 4.57533 73.6314 4.37 73.9834 4.282C74.35 4.17933 74.6947 4.23067 75.0174 4.436C75.4134 4.68533 75.8607 4.99333 76.3594 5.36C76.8727 5.712 77.364 6.064 77.8334 6.416C78.3174 6.768 78.7134 7.06867 79.0214 7.318C79.3147 7.55267 79.4834 7.86067 79.5274 8.242C79.586 8.60867 79.498 8.93867 79.2634 9.232C79.0287 9.52533 78.7207 9.70133 78.3394 9.76C77.9727 9.804 77.6427 9.70867 77.3494 9.474ZM98.6674 19.22C96.9954 19.22 95.7414 18.5527 94.9054 17.218C94.6707 16.8367 94.612 16.4993 94.7294 16.206C94.8467 15.9127 95.074 15.7147 95.4114 15.612C95.778 15.4947 96.0787 15.4947 96.3134 15.612C96.548 15.7293 96.8047 15.9347 97.0834 16.228C97.2447 16.448 97.45 16.6313 97.6994 16.778C97.9634 16.91 98.2714 16.976 98.6234 16.976C99.3714 16.976 99.9654 16.7927 100.405 16.426C100.845 16.0593 101.065 15.4433 101.065 14.578C101.065 13.8007 100.845 13.1773 100.405 12.708C99.9654 12.2387 99.3347 12.004 98.5134 12.004C97.78 12.004 97.4134 11.6447 97.4134 10.926C97.4134 10.2073 97.78 9.848 98.5134 9.848C99.2467 9.848 99.7894 9.63533 100.141 9.21C100.493 8.77 100.669 8.23467 100.669 7.604C100.669 6.87067 100.457 6.35733 100.031 6.064C99.6207 5.756 99.1514 5.602 98.6234 5.602C98.33 5.602 98.066 5.67533 97.8314 5.822C97.6114 5.96867 97.4207 6.14467 97.2594 6.35C96.9807 6.64333 96.7167 6.84867 96.4674 6.966C96.2327 7.08333 95.9394 7.06867 95.5874 6.922C95.25 6.79 95.03 6.57733 94.9274 6.284C94.8247 5.976 94.9054 5.646 95.1694 5.294C95.5947 4.66333 96.108 4.18667 96.7094 3.864C97.3254 3.52667 97.978 3.358 98.6674 3.358C99.562 3.358 100.339 3.534 100.999 3.886C101.674 4.22333 102.195 4.7 102.561 5.316C102.943 5.932 103.133 6.658 103.133 7.494C103.133 8.25667 102.928 8.946 102.517 9.562C102.121 10.1633 101.615 10.6033 100.999 10.882C101.733 11.1607 102.327 11.6373 102.781 12.312C103.251 12.9867 103.485 13.7713 103.485 14.666C103.485 16.0593 103.06 17.1667 102.209 17.988C101.373 18.8093 100.193 19.22 98.6674 19.22ZM110.777 18.56C110.454 18.7213 110.109 18.7433 109.743 18.626C109.391 18.494 109.134 18.2593 108.973 17.922C108.811 17.5847 108.789 17.24 108.907 16.888C109.039 16.536 109.266 16.2793 109.589 16.118C111.686 15.106 113.549 13.8887 115.177 12.466C116.819 11.0287 118.154 9.474 119.181 7.802C119.826 6.746 119.474 6.218 118.125 6.218H112.119C111.752 6.218 111.437 6.086 111.173 5.822C110.909 5.54333 110.777 5.22067 110.777 4.854C110.777 4.47267 110.909 4.15 111.173 3.886C111.437 3.622 111.752 3.49 112.119 3.49H118.213C119.533 3.49 120.545 3.732 121.249 4.216C121.953 4.68533 122.334 5.33067 122.393 6.152C122.466 6.97333 122.195 7.91933 121.579 8.99C121.256 9.57667 120.867 10.1633 120.413 10.75C121.087 11.3073 121.777 11.9233 122.481 12.598C123.199 13.258 123.867 13.9033 124.483 14.534C125.113 15.15 125.641 15.678 126.067 16.118C126.316 16.382 126.441 16.7047 126.441 17.086C126.441 17.4673 126.301 17.79 126.023 18.054C125.759 18.318 125.436 18.45 125.055 18.45C124.673 18.4353 124.351 18.296 124.087 18.032C123.691 17.6213 123.192 17.108 122.591 16.492C121.989 15.8613 121.351 15.216 120.677 14.556C120.002 13.8813 119.349 13.2727 118.719 12.73C117.604 13.8887 116.357 14.9813 114.979 16.008C113.615 17.02 112.214 17.8707 110.777 18.56ZM136.891 19.55C136.568 19.7113 136.223 19.7407 135.857 19.638C135.505 19.55 135.233 19.3447 135.043 19.022C134.852 18.6993 134.808 18.362 134.911 18.01C135.013 17.6433 135.226 17.3647 135.549 17.174C137.059 16.3527 138.284 15.3333 139.223 14.116C140.176 12.8987 140.77 11.5787 141.005 10.156H134.647C134.28 10.156 133.965 10.0313 133.701 9.782C133.451 9.518 133.327 9.20267 133.327 8.836C133.327 8.46933 133.451 8.16133 133.701 7.912C133.965 7.648 134.28 7.516 134.647 7.516H149.211C149.577 7.516 149.885 7.648 150.135 7.912C150.399 8.16133 150.531 8.46933 150.531 8.836C150.531 9.20267 150.399 9.518 150.135 9.782C149.885 10.0313 149.577 10.156 149.211 10.156H143.667C143.505 11.4173 143.124 12.6493 142.523 13.852C141.936 15.04 141.166 16.1253 140.213 17.108C139.259 18.0907 138.152 18.9047 136.891 19.55ZM137.199 5.426C136.832 5.426 136.524 5.30133 136.275 5.052C136.025 4.788 135.901 4.47267 135.901 4.106C135.901 3.73933 136.025 3.43133 136.275 3.182C136.524 2.918 136.832 2.786 137.199 2.786H146.857C147.223 2.786 147.531 2.918 147.781 3.182C148.045 3.43133 148.177 3.73933 148.177 4.106C148.177 4.47267 148.045 4.788 147.781 5.052C147.531 5.30133 147.223 5.426 146.857 5.426H137.199ZM163.731 19.924C163.437 20.056 163.129 20.0633 162.807 19.946C162.499 19.8287 162.279 19.6233 162.147 19.33C162.015 19.022 162.007 18.714 162.125 18.406C162.242 18.098 162.447 17.878 162.741 17.746C164.237 17.0713 165.461 16.3087 166.415 15.458C167.383 14.5927 168.138 13.6027 168.681 12.488C169.223 11.3587 169.597 10.068 169.803 8.616C169.847 8.27867 170.001 8.01467 170.265 7.824C170.543 7.63333 170.844 7.56 171.167 7.604C171.489 7.648 171.746 7.802 171.937 8.066C172.142 8.33 172.215 8.63067 172.157 8.968C171.775 11.4907 170.895 13.6687 169.517 15.502C168.153 17.3207 166.224 18.7947 163.731 19.924ZM166.635 12.752C166.312 12.8547 166.011 12.84 165.733 12.708C165.454 12.5613 165.256 12.334 165.139 12.026C164.977 11.6007 164.772 11.1167 164.523 10.574C164.288 10.0313 164.09 9.59867 163.929 9.276C163.782 8.98267 163.745 8.682 163.819 8.374C163.892 8.05133 164.068 7.80933 164.347 7.648C164.64 7.472 164.948 7.428 165.271 7.516C165.593 7.58933 165.828 7.77267 165.975 8.066C166.195 8.47667 166.437 8.98267 166.701 9.584C166.979 10.1707 167.207 10.728 167.383 11.256C167.5 11.564 167.478 11.8647 167.317 12.158C167.17 12.4513 166.943 12.6493 166.635 12.752ZM163.027 13.588C162.733 13.72 162.433 13.7273 162.125 13.61C161.831 13.478 161.611 13.2653 161.465 12.972C161.23 12.488 160.981 12.0187 160.717 11.564C160.467 11.0947 160.24 10.6987 160.035 10.376C159.844 10.0973 159.771 9.79667 159.815 9.474C159.873 9.15133 160.035 8.89467 160.299 8.704C160.563 8.51333 160.856 8.44733 161.179 8.506C161.516 8.55 161.78 8.704 161.971 8.968C162.249 9.364 162.55 9.86267 162.873 10.464C163.195 11.0507 163.452 11.5713 163.643 12.026C163.789 12.3193 163.797 12.62 163.665 12.928C163.547 13.236 163.335 13.456 163.027 13.588ZM185.797 19.374C185.459 19.5207 185.115 19.5207 184.763 19.374C184.411 19.242 184.154 19.0073 183.993 18.67C183.846 18.318 183.839 17.966 183.971 17.614C184.103 17.2473 184.337 16.9907 184.675 16.844C186.963 15.8173 188.891 14.5853 190.461 13.148C192.045 11.7107 193.196 10.1487 193.915 8.462C194.237 7.72867 194.289 7.17867 194.069 6.812C193.849 6.43067 193.306 6.24 192.441 6.24H184.191C183.824 6.24 183.509 6.108 183.245 5.844C182.981 5.56533 182.849 5.24267 182.849 4.876C182.849 4.49467 182.981 4.172 183.245 3.908C183.509 3.644 183.824 3.512 184.191 3.512H192.551C193.9 3.512 194.941 3.76133 195.675 4.26C196.423 4.744 196.863 5.426 196.995 6.306C197.127 7.17133 196.951 8.19067 196.467 9.364C195.601 11.4173 194.259 13.3093 192.441 15.04C190.637 16.756 188.422 18.2007 185.797 19.374ZM199.459 6.086C198.843 6.086 198.315 5.87333 197.875 5.448C197.449 5.008 197.237 4.48 197.237 3.864C197.237 3.248 197.449 2.72733 197.875 2.302C198.315 1.862 198.843 1.642 199.459 1.642C200.06 1.642 200.573 1.862 200.999 2.302C201.439 2.72733 201.659 3.248 201.659 3.864C201.659 4.48 201.439 5.008 200.999 5.448C200.573 5.87333 200.06 6.086 199.459 6.086ZM199.459 4.81C199.723 4.81 199.943 4.722 200.119 4.546C200.309 4.35533 200.405 4.128 200.405 3.864C200.405 3.6 200.309 3.38 200.119 3.204C199.943 3.01333 199.723 2.918 199.459 2.918C199.195 2.918 198.967 3.01333 198.777 3.204C198.586 3.38 198.491 3.6 198.491 3.864C198.491 4.128 198.586 4.35533 198.777 4.546C198.967 4.722 199.195 4.81 199.459 4.81ZM220.139 19.704C218.408 19.4547 216.978 18.956 215.849 18.208C214.719 17.4453 213.876 16.5287 213.319 15.458C212.776 14.3873 212.505 13.2727 212.505 12.114C212.505 10.9407 212.732 9.848 213.187 8.836C213.641 7.80933 214.301 6.922 215.167 6.174C214.287 6.306 213.348 6.46 212.351 6.636C211.353 6.79733 210.385 6.966 209.447 7.142C208.523 7.30333 207.709 7.45 207.005 7.582C206.638 7.64067 206.308 7.56 206.015 7.34C205.736 7.12 205.567 6.834 205.509 6.482C205.45 6.11533 205.523 5.79267 205.729 5.514C205.949 5.22067 206.242 5.04467 206.609 4.986C207.078 4.91267 207.679 4.81733 208.413 4.7C209.146 4.568 209.967 4.42867 210.877 4.282C211.786 4.13533 212.717 3.98133 213.671 3.82C214.624 3.65867 215.555 3.50467 216.465 3.358C217.389 3.19667 218.232 3.05 218.995 2.918C219.757 2.786 220.381 2.676 220.865 2.588C221.202 2.52933 221.517 2.60267 221.811 2.808C222.119 3.01333 222.302 3.28467 222.361 3.622C222.434 3.974 222.375 4.304 222.185 4.612C222.009 4.92 221.745 5.10333 221.393 5.162C220.366 5.32333 219.464 5.63867 218.687 6.108C217.909 6.56267 217.249 7.12 216.707 7.78C216.179 8.42533 215.775 9.11467 215.497 9.848C215.233 10.5667 215.101 11.278 215.101 11.982C215.101 13.4047 215.585 14.556 216.553 15.436C217.521 16.3013 218.841 16.8513 220.513 17.086C220.865 17.1447 221.151 17.3207 221.371 17.614C221.591 17.9073 221.671 18.23 221.613 18.582C221.569 18.9487 221.4 19.242 221.107 19.462C220.813 19.682 220.491 19.7627 220.139 19.704ZM222.933 10.706C222.742 10.8673 222.507 10.9333 222.229 10.904C221.965 10.8747 221.752 10.75 221.591 10.53C221.429 10.3247 221.224 10.068 220.975 9.76C220.725 9.43733 220.498 9.15867 220.293 8.924C220.161 8.76267 220.095 8.572 220.095 8.352C220.109 8.11733 220.212 7.91933 220.403 7.758C220.579 7.59667 220.777 7.52333 220.997 7.538C221.231 7.538 221.444 7.61867 221.635 7.78C221.855 7.97067 222.104 8.22 222.383 8.528C222.676 8.836 222.918 9.11467 223.109 9.364C223.27 9.56933 223.329 9.804 223.285 10.068C223.255 10.332 223.138 10.5447 222.933 10.706ZM225.045 8.814C224.854 9.00467 224.619 9.09267 224.341 9.078C224.077 9.06333 223.857 8.95333 223.681 8.748C223.505 8.54267 223.277 8.29333 222.999 8C222.735 7.70667 222.493 7.45 222.273 7.23C222.126 7.08333 222.045 6.89267 222.031 6.658C222.031 6.42333 222.119 6.218 222.295 6.042C222.456 5.88067 222.654 5.8 222.889 5.8C223.123 5.78533 223.336 5.85133 223.527 5.998C223.761 6.15933 224.033 6.38667 224.341 6.68C224.649 6.95867 224.905 7.22267 225.111 7.472C225.287 7.66267 225.367 7.89 225.353 8.154C225.338 8.40333 225.235 8.62333 225.045 8.814ZM235.253 20.056C234.93 20.056 234.644 19.9313 234.395 19.682C234.16 19.4473 234.043 19.1687 234.043 18.846C234.043 18.5087 234.16 18.2227 234.395 17.988C234.644 17.7533 234.93 17.636 235.253 17.636H240.137V13.456H236.683C236.331 13.456 236.03 13.3387 235.781 13.104C235.546 12.8547 235.429 12.5613 235.429 12.224C235.429 11.872 235.546 11.5787 235.781 11.344C236.03 11.0947 236.331 10.97 236.683 10.97H240.137V7.428H235.781C235.458 7.428 235.179 7.318 234.945 7.098C234.71 6.86333 234.593 6.58467 234.593 6.262C234.593 5.92467 234.71 5.646 234.945 5.426C235.179 5.19133 235.458 5.074 235.781 5.074H240.995C240.965 5.04467 240.936 5.02267 240.907 5.008C240.76 4.84667 240.547 4.64133 240.269 4.392C240.005 4.128 239.719 3.85667 239.411 3.578C239.117 3.28467 238.846 3.028 238.597 2.808C238.347 2.588 238.208 2.30933 238.179 1.972C238.164 1.62 238.281 1.312 238.531 1.048C238.78 0.769332 239.081 0.615333 239.433 0.586C239.785 0.541999 240.107 0.644666 240.401 0.894C240.591 1.04067 240.841 1.25333 241.149 1.532C241.471 1.81067 241.787 2.09667 242.095 2.39C242.417 2.68333 242.667 2.92533 242.843 3.116C243.092 3.39467 243.224 3.71733 243.239 4.084C243.253 4.436 243.121 4.744 242.843 5.008L242.777 5.074H247.133C247.47 5.074 247.749 5.19133 247.969 5.426C248.203 5.646 248.321 5.92467 248.321 6.262C248.321 6.58467 248.203 6.86333 247.969 7.098C247.749 7.318 247.47 7.428 247.133 7.428H242.865V10.97H246.231C246.568 10.97 246.861 11.0947 247.111 11.344C247.36 11.5787 247.485 11.872 247.485 12.224C247.485 12.5613 247.36 12.8547 247.111 13.104C246.861 13.3387 246.568 13.456 246.231 13.456H242.865V17.636H247.705C248.042 17.636 248.328 17.7533 248.563 17.988C248.797 18.2227 248.915 18.5087 248.915 18.846C248.915 19.1687 248.797 19.4473 248.563 19.682C248.328 19.9313 248.042 20.056 247.705 20.056H235.253ZM229.665 20.078C229.342 19.8727 229.144 19.5867 229.071 19.22C228.997 18.868 229.071 18.5307 229.291 18.208C229.569 17.7827 229.877 17.2767 230.215 16.69C230.567 16.0887 230.911 15.4727 231.249 14.842C231.601 14.1967 231.909 13.6027 232.173 13.06C232.334 12.7227 232.583 12.4953 232.921 12.378C233.258 12.2607 233.595 12.2973 233.933 12.488C234.637 12.8547 234.827 13.4267 234.505 14.204C234.27 14.7467 233.984 15.3553 233.647 16.03C233.309 16.7047 232.965 17.3573 232.613 17.988C232.261 18.6187 231.945 19.154 231.667 19.594C231.476 19.9167 231.183 20.1293 230.787 20.232C230.391 20.3347 230.017 20.2833 229.665 20.078ZM232.943 5.14C232.752 4.99333 232.503 4.82467 232.195 4.634C231.887 4.42867 231.579 4.23067 231.271 4.04C230.977 3.84933 230.728 3.70267 230.523 3.6C230.229 3.424 230.039 3.17467 229.951 2.852C229.863 2.51467 229.899 2.192 230.061 1.884C230.222 1.56133 230.471 1.34867 230.809 1.246C231.161 1.14333 231.498 1.17267 231.821 1.334C232.041 1.43667 232.305 1.58333 232.613 1.774C232.921 1.95 233.229 2.13333 233.537 2.324C233.859 2.51467 234.138 2.69067 234.373 2.852C234.695 3.05733 234.893 3.34333 234.967 3.71C235.04 4.07667 234.974 4.42867 234.769 4.766C234.578 5.074 234.299 5.26467 233.933 5.338C233.566 5.41133 233.236 5.34533 232.943 5.14ZM231.579 10.134C231.388 9.98733 231.139 9.81867 230.831 9.628C230.537 9.42267 230.237 9.22467 229.929 9.034C229.621 8.84333 229.371 8.69667 229.181 8.594C228.873 8.418 228.675 8.16867 228.587 7.846C228.513 7.50867 228.557 7.186 228.719 6.878C228.88 6.57 229.129 6.36467 229.467 6.262C229.819 6.14467 230.156 6.16667 230.479 6.328C230.699 6.43067 230.955 6.57733 231.249 6.768C231.557 6.944 231.865 7.12733 232.173 7.318C232.495 7.50867 232.774 7.68467 233.009 7.846C233.331 8.05133 233.529 8.33733 233.603 8.704C233.676 9.07067 233.61 9.42267 233.405 9.76C233.214 10.068 232.935 10.2587 232.569 10.332C232.202 10.4053 231.872 10.3393 231.579 10.134ZM254.767 20.716C254.224 20.8773 253.791 20.87 253.469 20.694C253.146 20.5327 252.911 20.2613 252.765 19.88C252.647 19.528 252.677 19.176 252.853 18.824C253.029 18.472 253.337 18.2447 253.777 18.142C255.331 17.7313 256.71 17.2253 257.913 16.624C259.115 16.0227 260.179 15.3407 261.103 14.578C260.193 13.5073 259.409 12.3267 258.749 11.036C258.103 9.73067 257.568 8.31533 257.143 6.79H253.931C253.608 6.79 253.329 6.67267 253.095 6.438C252.86 6.20333 252.743 5.92467 252.743 5.602C252.743 5.27933 252.86 5.008 253.095 4.788C253.329 4.55333 253.608 4.436 253.931 4.436H261.477V1.796C261.477 1.37067 261.616 1.026 261.895 0.761999C262.173 0.497999 262.511 0.365999 262.907 0.365999C263.303 0.365999 263.64 0.497999 263.919 0.761999C264.197 1.026 264.337 1.37067 264.337 1.796V4.436H271.839C272.161 4.436 272.433 4.55333 272.653 4.788C272.887 5.008 273.005 5.27933 273.005 5.602C273.005 5.92467 272.887 6.20333 272.653 6.438C272.433 6.67267 272.161 6.79 271.839 6.79H268.803C268.392 8.31533 267.857 9.72333 267.197 11.014C266.551 12.3047 265.774 13.4853 264.865 14.556C265.803 15.3333 266.881 16.0227 268.099 16.624C269.316 17.2253 270.695 17.7313 272.235 18.142C272.675 18.2447 272.975 18.472 273.137 18.824C273.298 19.176 273.313 19.528 273.181 19.88C273.049 20.2613 272.814 20.5327 272.477 20.694C272.154 20.8553 271.729 20.8627 271.201 20.716C267.871 19.7333 265.136 18.318 262.995 16.47C261.924 17.3793 260.707 18.186 259.343 18.89C257.993 19.594 256.468 20.2027 254.767 20.716ZM262.995 12.642C263.655 11.8207 264.219 10.9187 264.689 9.936C265.158 8.95333 265.554 7.90467 265.877 6.79H260.047C260.384 7.90467 260.787 8.95333 261.257 9.936C261.741 10.9187 262.32 11.8207 262.995 12.642ZM279.011 20.936C278.571 21.0387 278.197 21.0093 277.889 20.848C277.595 20.6867 277.39 20.4153 277.273 20.034C277.17 19.6527 277.221 19.3227 277.427 19.044C277.647 18.7653 277.947 18.582 278.329 18.494C279.898 18.1127 281.086 17.4967 281.893 16.646C282.714 15.7807 283.227 14.5927 283.433 13.082H278.197C277.845 13.082 277.559 12.9647 277.339 12.73C277.133 12.4953 277.031 12.2167 277.031 11.894C277.031 11.5713 277.133 11.3 277.339 11.08C277.559 10.8453 277.845 10.728 278.197 10.728H296.061C296.413 10.728 296.691 10.8453 296.897 11.08C297.117 11.3 297.227 11.5713 297.227 11.894C297.227 12.2167 297.117 12.4953 296.897 12.73C296.691 12.9647 296.413 13.082 296.061 13.082H290.561V16.954C290.561 17.5113 290.693 17.878 290.957 18.054C291.235 18.23 291.778 18.318 292.585 18.318C293.157 18.318 293.575 18.2813 293.839 18.208C294.103 18.12 294.293 17.966 294.411 17.746C294.543 17.526 294.682 17.2253 294.829 16.844C294.961 16.5067 295.188 16.272 295.511 16.14C295.848 15.9933 296.2 15.9933 296.567 16.14C296.933 16.2867 297.175 16.5067 297.293 16.8C297.41 17.0787 297.41 17.4087 297.293 17.79C297.087 18.5233 296.816 19.11 296.479 19.55C296.141 19.99 295.657 20.3053 295.027 20.496C294.396 20.6867 293.531 20.782 292.431 20.782C291.331 20.782 290.451 20.6867 289.791 20.496C289.145 20.3053 288.676 19.9607 288.383 19.462C288.104 18.9633 287.965 18.2593 287.965 17.35V13.082H285.985C285.794 15.15 285.141 16.844 284.027 18.164C282.912 19.4693 281.24 20.3933 279.011 20.936ZM278.791 8.704C278.424 8.704 278.109 8.594 277.845 8.374C277.595 8.13933 277.471 7.824 277.471 7.428V6.24C277.471 5.052 277.757 4.20867 278.329 3.71C278.901 3.21133 279.876 2.962 281.255 2.962H285.655V1.51C285.655 1.08467 285.794 0.754666 286.073 0.519999C286.351 0.270666 286.689 0.145999 287.085 0.145999C287.481 0.145999 287.818 0.270666 288.097 0.519999C288.39 0.754666 288.537 1.08467 288.537 1.51V2.962H292.937C294.33 2.962 295.305 3.21133 295.863 3.71C296.435 4.20867 296.721 5.052 296.721 6.24V7.428C296.721 7.824 296.589 8.13933 296.325 8.374C296.075 8.594 295.767 8.704 295.401 8.704C295.034 8.704 294.719 8.60133 294.455 8.396C294.205 8.176 294.081 7.868 294.081 7.472V6.46C294.081 6.03467 293.978 5.734 293.773 5.558C293.567 5.382 293.186 5.294 292.629 5.294H281.563C281.02 5.294 280.639 5.382 280.419 5.558C280.213 5.734 280.111 6.03467 280.111 6.46V7.472C280.111 7.868 279.979 8.176 279.715 8.396C279.465 8.60133 279.157 8.704 278.791 8.704ZM282.047 9.188C281.68 9.188 281.394 9.078 281.189 8.858C280.983 8.62333 280.881 8.34467 280.881 8.022C280.881 7.68467 280.983 7.406 281.189 7.186C281.394 6.95133 281.68 6.834 282.047 6.834H292.233C292.585 6.834 292.863 6.95133 293.069 7.186C293.289 7.406 293.399 7.68467 293.399 8.022C293.399 8.34467 293.289 8.62333 293.069 8.858C292.863 9.078 292.585 9.188 292.233 9.188H282.047ZM307.875 20.694C307.464 20.694 307.119 20.5767 306.841 20.342C306.562 20.1073 306.408 19.7627 306.379 19.308C306.364 18.868 306.503 18.5233 306.797 18.274C307.105 18.0247 307.442 17.9 307.809 17.9C308.879 17.9 309.723 17.7753 310.339 17.526C310.955 17.2767 311.395 16.8587 311.659 16.272C311.937 15.6853 312.077 14.8933 312.077 13.896C312.077 12.6347 311.776 11.4907 311.175 10.464C310.573 9.43733 309.803 8.52067 308.865 7.714C308.586 7.46467 308.439 7.14933 308.425 6.768C308.41 6.372 308.527 6.05667 308.777 5.822C309.085 5.52867 309.415 5.38933 309.767 5.404C310.119 5.404 310.456 5.536 310.779 5.8C310.984 5.94667 311.175 6.108 311.351 6.284C311.527 6.44533 311.703 6.614 311.879 6.79C312.201 6.62867 312.561 6.44533 312.957 6.24C313.367 6.03467 313.771 5.82933 314.167 5.624C314.563 5.41867 314.922 5.23533 315.245 5.074C315.567 4.91267 315.802 4.788 315.949 4.7C316.227 4.53867 316.352 4.36267 316.323 4.172C316.293 3.96667 316.103 3.864 315.751 3.864H303.057C302.719 3.864 302.426 3.74667 302.177 3.512C301.942 3.27733 301.825 2.99133 301.825 2.654C301.825 2.302 301.942 2.00867 302.177 1.774C302.426 1.53933 302.719 1.422 303.057 1.422H316.675C317.569 1.422 318.281 1.60533 318.809 1.972C319.337 2.33867 319.659 2.80067 319.777 3.358C319.894 3.91533 319.799 4.48 319.491 5.052C319.183 5.624 318.64 6.11533 317.863 6.526C317.173 6.89267 316.425 7.28133 315.619 7.692C314.827 8.10267 314.093 8.47667 313.419 8.814C313.844 9.53267 314.174 10.3393 314.409 11.234C314.658 12.114 314.783 13.0747 314.783 14.116C314.783 16.4333 314.233 18.1053 313.133 19.132C312.033 20.1733 310.28 20.694 307.875 20.694ZM329.369 19.352C329.002 19.4107 328.672 19.3373 328.379 19.132C328.085 18.9267 327.902 18.648 327.829 18.296C327.697 17.548 327.594 16.6827 327.521 15.7C327.447 14.7027 327.411 13.654 327.411 12.554C327.411 11.454 327.44 10.3467 327.499 9.232C327.557 8.11733 327.645 7.054 327.763 6.042C327.895 5.01533 328.049 4.09867 328.225 3.292C328.298 2.94 328.489 2.66867 328.797 2.478C329.105 2.27267 329.435 2.20667 329.787 2.28C330.139 2.368 330.41 2.566 330.601 2.874C330.806 3.16733 330.872 3.49733 330.799 3.864C330.564 4.90533 330.381 6.03467 330.249 7.252C330.117 8.46933 330.029 9.70867 329.985 10.97C329.955 12.2167 329.977 13.434 330.051 14.622C330.124 15.7953 330.249 16.866 330.425 17.834C330.498 18.186 330.425 18.5087 330.205 18.802C329.999 19.0953 329.721 19.2787 329.369 19.352ZM338.389 18.164C336.482 18.164 335.059 17.8193 334.121 17.13C333.197 16.4407 332.639 15.4287 332.449 14.094C332.39 13.742 332.463 13.4193 332.669 13.126C332.889 12.8327 333.182 12.6567 333.549 12.598C333.901 12.554 334.223 12.642 334.517 12.862C334.81 13.0673 334.986 13.3533 335.045 13.72C335.133 14.3507 335.433 14.82 335.947 15.128C336.46 15.436 337.296 15.59 338.455 15.59C339.555 15.59 340.882 15.4213 342.437 15.084C342.789 14.996 343.119 15.0547 343.427 15.26C343.735 15.4653 343.925 15.744 343.999 16.096C344.072 16.448 344.006 16.778 343.801 17.086C343.595 17.3793 343.317 17.57 342.965 17.658C342.173 17.8487 341.381 17.9807 340.589 18.054C339.811 18.1273 339.078 18.164 338.389 18.164ZM334.363 7.274C334.011 7.34733 333.681 7.28867 333.373 7.098C333.079 6.89267 332.896 6.60667 332.823 6.24C332.749 5.888 332.808 5.558 332.999 5.25C333.204 4.942 333.49 4.75867 333.857 4.7C334.678 4.53867 335.595 4.436 336.607 4.392C337.619 4.33333 338.623 4.326 339.621 4.37C340.618 4.39933 341.498 4.48 342.261 4.612C342.627 4.67067 342.913 4.854 343.119 5.162C343.324 5.45533 343.39 5.78533 343.317 6.152C343.258 6.51867 343.075 6.80467 342.767 7.01C342.473 7.20067 342.151 7.26667 341.799 7.208C340.611 7.00267 339.379 6.90733 338.103 6.922C336.827 6.922 335.58 7.03933 334.363 7.274ZM359.465 20.804C359.142 20.848 358.856 20.7747 358.607 20.584C358.372 20.3933 358.233 20.1367 358.189 19.814C358.057 18.934 357.844 17.922 357.551 16.778C357.272 15.6193 356.935 14.4607 356.539 13.302C355.952 13.4927 355.387 13.6833 354.845 13.874C354.317 14.05 353.825 14.2187 353.371 14.38C353.063 14.4827 352.762 14.468 352.469 14.336C352.19 14.204 351.992 13.9913 351.875 13.698C351.772 13.39 351.787 13.0967 351.919 12.818C352.065 12.5247 352.293 12.3267 352.601 12.224C353.51 11.9013 354.566 11.5493 355.769 11.168C355.593 10.7427 355.417 10.332 355.241 9.936C355.065 9.54 354.881 9.166 354.691 8.814C354.544 8.52067 354.507 8.22 354.581 7.912C354.669 7.604 354.852 7.37667 355.131 7.23C355.424 7.06867 355.717 7.03933 356.011 7.142C356.319 7.23 356.546 7.42067 356.693 7.714C356.913 8.12467 357.125 8.56467 357.331 9.034C357.536 9.50333 357.734 9.99467 357.925 10.508C358.306 10.3907 358.687 10.2733 359.069 10.156C359.45 10.0387 359.824 9.92867 360.191 9.826C359.956 9.75267 359.773 9.606 359.641 9.386L358.695 7.978C358.533 7.714 358.482 7.43533 358.541 7.142C358.599 6.834 358.761 6.592 359.025 6.416C359.303 6.24 359.597 6.18867 359.905 6.262C360.213 6.32067 360.447 6.482 360.609 6.746L361.533 8.132C361.679 8.352 361.745 8.58667 361.731 8.836C361.716 9.07067 361.628 9.29067 361.467 9.496C361.569 9.46667 361.665 9.43733 361.753 9.408C361.841 9.37867 361.929 9.35667 362.017 9.342C363.542 8.96067 364.774 9.01933 365.713 9.518C366.651 10.0167 367.194 10.86 367.341 12.048C367.443 12.8987 367.319 13.6467 366.967 14.292C366.629 14.9373 366.123 15.4287 365.449 15.766C364.789 16.1033 364.033 16.2573 363.183 16.228C362.347 16.1987 361.489 15.942 360.609 15.458C360.33 15.2967 360.139 15.062 360.037 14.754C359.949 14.446 359.978 14.1527 360.125 13.874C360.286 13.5807 360.521 13.39 360.829 13.302C361.137 13.214 361.43 13.2507 361.709 13.412C362.354 13.7787 362.941 13.962 363.469 13.962C363.997 13.9473 364.407 13.7933 364.701 13.5C364.994 13.192 365.104 12.7887 365.031 12.29C364.972 11.8647 364.737 11.5713 364.327 11.41C363.931 11.2487 363.329 11.2633 362.523 11.454C361.98 11.6007 361.371 11.7693 360.697 11.96C360.037 12.1507 359.362 12.3633 358.673 12.598C359.069 13.8007 359.421 15.0107 359.729 16.228C360.051 17.4307 360.293 18.5233 360.455 19.506C360.513 19.8287 360.44 20.1147 360.235 20.364C360.044 20.628 359.787 20.7747 359.465 20.804ZM379.419 20.716C378.832 20.716 378.363 20.54 378.011 20.188C377.673 19.8507 377.505 19.4107 377.505 18.868C377.505 18.252 377.681 17.7313 378.033 17.306C378.385 16.8807 378.847 16.5287 379.419 16.25C380.005 15.9713 380.621 15.7587 381.267 15.612C381.619 15.5387 381.853 15.4287 381.971 15.282C382.103 15.1353 382.169 14.8713 382.169 14.49V0.894C382.169 0.673999 382.249 0.519999 382.411 0.431999C382.587 0.343999 382.763 0.329333 382.939 0.388C383.115 0.431999 383.225 0.563999 383.269 0.783998C383.401 1.37067 383.657 1.89867 384.039 2.368C384.435 2.83733 384.897 3.27 385.425 3.666C385.967 4.062 386.517 4.458 387.075 4.854C387.632 5.25 388.153 5.66067 388.637 6.086C389.135 6.51133 389.531 6.98067 389.825 7.494C390.133 8.00733 390.287 8.594 390.287 9.254C390.287 10.1487 390.111 10.992 389.759 11.784C389.407 12.576 388.937 13.302 388.351 13.962C387.764 14.622 387.111 15.2087 386.393 15.722C386.29 15.7953 386.173 15.8393 386.041 15.854C385.923 15.854 385.821 15.8027 385.733 15.7C385.645 15.5973 385.601 15.4873 385.601 15.37C385.601 15.238 385.652 15.128 385.755 15.04C386.473 14.38 387.075 13.6027 387.559 12.708C388.043 11.8133 388.285 10.926 388.285 10.046C388.285 9.53267 388.101 9.08533 387.735 8.704C387.383 8.308 386.943 7.956 386.415 7.648C385.901 7.34 385.388 7.054 384.875 6.79C384.376 6.526 383.98 6.262 383.687 5.998V15.546C383.687 16.4553 383.518 17.306 383.181 18.098C382.858 18.89 382.381 19.5207 381.751 19.99C381.12 20.474 380.343 20.716 379.419 20.716Z" fill="#010F32"/>
</svg>
