<svg width="205" height="82" viewBox="0 0 205 82" fill="none" xmlns="http://www.w3.org/2000/svg">
<path d="M8.99225 28.384C7.47225 28.384 6.11225 28.024 4.91225 27.304C3.72825 26.584 2.80025 25.568 2.12825 24.256C1.45625 22.928 1.12025 21.376 1.12025 19.6C1.12025 17.808 1.45625 16.256 2.12825 14.944C2.80025 13.616 3.72825 12.592 4.91225 11.872C6.11225 11.136 7.47225 10.768 8.99225 10.768C10.1282 10.768 11.1682 10.976 12.1122 11.392C13.0722 11.808 13.9042 12.392 14.6082 13.144C14.9282 13.496 15.0322 13.856 14.9202 14.224C14.8082 14.576 14.5922 14.848 14.2722 15.04L14.1522 15.112C13.9442 15.24 13.6482 15.288 13.2642 15.256C12.8802 15.224 12.5282 15.056 12.2082 14.752C11.7922 14.336 11.3122 14.024 10.7682 13.816C10.2402 13.592 9.64825 13.48 8.99225 13.48C8.00025 13.48 7.12825 13.736 6.37625 14.248C5.62425 14.744 5.04025 15.456 4.62425 16.384C4.22425 17.296 4.02425 18.368 4.02425 19.6C4.02425 20.816 4.22425 21.888 4.62425 22.816C5.04025 23.728 5.62425 24.44 6.37625 24.952C7.12825 25.448 8.00025 25.696 8.99225 25.696C10.2562 25.696 11.3282 25.272 12.2082 24.424C12.5282 24.12 12.8562 23.944 13.1922 23.896C13.5282 23.848 13.8482 23.896 14.1522 24.04L14.2002 24.088C14.5362 24.248 14.7682 24.52 14.8962 24.904C15.0402 25.272 14.9602 25.632 14.6562 25.984C13.9522 26.752 13.1202 27.344 12.1602 27.76C11.2002 28.176 10.1442 28.384 8.99225 28.384ZM25.2132 28.264C24.1572 28.264 23.2052 28.016 22.3572 27.52C21.5252 27.008 20.8612 26.304 20.3652 25.408C19.8852 24.496 19.6452 23.432 19.6452 22.216C19.6452 21 19.8852 19.944 20.3652 19.048C20.8612 18.136 21.5252 17.432 22.3572 16.936C23.2052 16.424 24.1572 16.168 25.2132 16.168C26.3012 16.168 27.2612 16.424 28.0932 16.936C28.9412 17.432 29.6052 18.136 30.0852 19.048C30.5652 19.944 30.8052 21 30.8052 22.216C30.8052 23.432 30.5652 24.496 30.0852 25.408C29.6052 26.304 28.9412 27.008 28.0932 27.52C27.2612 28.016 26.3012 28.264 25.2132 28.264ZM25.2132 25.816C26.0612 25.816 26.7492 25.504 27.2772 24.88C27.8212 24.256 28.0932 23.368 28.0932 22.216C28.0932 21.064 27.8212 20.176 27.2772 19.552C26.7492 18.928 26.0612 18.616 25.2132 18.616C24.3812 18.616 23.7012 18.928 23.1732 19.552C22.6452 20.176 22.3812 21.064 22.3812 22.216C22.3812 23.368 22.6452 24.256 23.1732 24.88C23.7012 25.504 24.3812 25.816 25.2132 25.816ZM36.9039 28C35.9919 28 35.5359 27.528 35.5359 26.584V17.872C35.5359 16.928 35.9439 16.456 36.7599 16.456C37.5599 16.456 37.9839 16.664 38.0319 17.08L38.1279 17.848C38.3519 17.368 38.7279 16.968 39.2559 16.648C39.7839 16.328 40.3919 16.168 41.0799 16.168C41.8319 16.168 42.4879 16.344 43.0479 16.696C43.6079 17.048 44.0399 17.552 44.3439 18.208C44.6479 17.616 45.0879 17.128 45.6639 16.744C46.2559 16.36 46.9279 16.168 47.6799 16.168C48.8159 16.168 49.7279 16.568 50.4159 17.368C51.1199 18.152 51.4719 19.264 51.4719 20.704V26.584C51.4719 27.528 51.0239 28 50.1279 28C49.1999 28 48.7359 27.528 48.7359 26.584V21.328C48.7359 20.48 48.5839 19.816 48.2799 19.336C47.9759 18.856 47.5519 18.616 47.0079 18.616C46.3199 18.616 45.7839 18.864 45.3999 19.36C45.0319 19.856 44.8479 20.56 44.8479 21.472V26.584C44.8479 27.528 44.3999 28 43.5039 28C42.5919 28 42.1359 27.528 42.1359 26.584V21.328C42.1359 20.48 41.9759 19.816 41.6559 19.336C41.3359 18.856 40.9039 18.616 40.3599 18.616C39.6879 18.616 39.1679 18.872 38.7999 19.384C38.4319 19.88 38.2479 20.576 38.2479 21.472V26.584C38.2479 27.528 37.7999 28 36.9039 28ZM58.1711 28C57.2591 28 56.8031 27.528 56.8031 26.584V17.872C56.8031 16.928 57.2111 16.456 58.0271 16.456C58.8271 16.456 59.2511 16.664 59.2991 17.08L59.3951 17.848C59.6191 17.368 59.9951 16.968 60.5231 16.648C61.0511 16.328 61.6591 16.168 62.3471 16.168C63.0991 16.168 63.7551 16.344 64.3151 16.696C64.8751 17.048 65.3071 17.552 65.6111 18.208C65.9151 17.616 66.3551 17.128 66.9311 16.744C67.5231 16.36 68.1951 16.168 68.9471 16.168C70.0831 16.168 70.9951 16.568 71.6831 17.368C72.3871 18.152 72.7391 19.264 72.7391 20.704V26.584C72.7391 27.528 72.2911 28 71.3951 28C70.4671 28 70.0031 27.528 70.0031 26.584V21.328C70.0031 20.48 69.8511 19.816 69.5471 19.336C69.2431 18.856 68.8191 18.616 68.2751 18.616C67.5871 18.616 67.0511 18.864 66.6671 19.36C66.2991 19.856 66.1151 20.56 66.1151 21.472V26.584C66.1151 27.528 65.6671 28 64.7711 28C63.8591 28 63.4031 27.528 63.4031 26.584V21.328C63.4031 20.48 63.2431 19.816 62.9231 19.336C62.6031 18.856 62.1711 18.616 61.6271 18.616C60.9551 18.616 60.4351 18.872 60.0671 19.384C59.6991 19.88 59.5151 20.576 59.5151 21.472V26.584C59.5151 27.528 59.0671 28 58.1711 28ZM79.7982 28C78.9022 28 78.4542 27.528 78.4542 26.584V17.872C78.4542 16.928 78.9022 16.456 79.7982 16.456C80.6942 16.456 81.1422 16.928 81.1422 17.872V26.584C81.1422 27.528 80.6942 28 79.7982 28ZM79.7742 14.56C79.3102 14.56 78.9102 14.392 78.5742 14.056C78.2382 13.72 78.0702 13.32 78.0702 12.856C78.0702 12.392 78.2382 11.992 78.5742 11.656C78.9102 11.32 79.3102 11.152 79.7742 11.152C80.2382 11.152 80.6382 11.32 80.9742 11.656C81.3102 11.992 81.4782 12.392 81.4782 12.856C81.4782 13.32 81.3102 13.72 80.9742 14.056C80.6382 14.392 80.2382 14.56 79.7742 14.56ZM88.1664 28C87.2544 28 86.7984 27.528 86.7984 26.584V17.872C86.7984 16.928 87.2064 16.456 88.0224 16.456C88.8384 16.456 89.2624 16.664 89.2944 17.08L89.3664 17.824C89.6864 17.376 90.1104 16.992 90.6384 16.672C91.1664 16.336 91.7904 16.168 92.5104 16.168C93.7104 16.168 94.6864 16.552 95.4384 17.32C96.2064 18.088 96.5904 19.216 96.5904 20.704V26.584C96.5904 27.528 96.1424 28 95.2464 28C94.3344 28 93.8784 27.528 93.8784 26.584V21.352C93.8784 20.44 93.6944 19.76 93.3264 19.312C92.9584 18.848 92.4624 18.616 91.8384 18.616C91.1504 18.616 90.5904 18.856 90.1584 19.336C89.7264 19.8 89.5104 20.496 89.5104 21.424V26.584C89.5104 27.528 89.0624 28 88.1664 28ZM106.676 32.776C104.868 32.776 103.436 32.248 102.38 31.192C102.044 30.84 101.908 30.496 101.972 30.16C102.036 29.824 102.244 29.544 102.596 29.32C102.948 29.08 103.268 29 103.556 29.08C103.844 29.16 104.164 29.336 104.516 29.608C105.076 30.088 105.796 30.328 106.676 30.328C107.62 30.328 108.316 30.04 108.764 29.464C109.212 28.888 109.436 27.968 109.436 26.704V26.056C108.684 26.84 107.732 27.232 106.58 27.232C105.572 27.232 104.668 27.024 103.868 26.608C103.084 26.176 102.468 25.552 102.02 24.736C101.572 23.904 101.348 22.888 101.348 21.688C101.348 20.472 101.572 19.456 102.02 18.64C102.468 17.824 103.084 17.208 103.868 16.792C104.668 16.376 105.572 16.168 106.58 16.168C107.204 16.168 107.804 16.304 108.38 16.576C108.956 16.832 109.428 17.272 109.796 17.896V17.488C109.796 17.088 109.9 16.816 110.108 16.672C110.316 16.528 110.604 16.456 110.972 16.456C111.74 16.456 112.124 16.928 112.124 17.872V26.704C112.124 28.608 111.676 30.096 110.78 31.168C109.9 32.24 108.532 32.776 106.676 32.776ZM106.796 24.856C107.628 24.856 108.308 24.576 108.836 24.016C109.364 23.44 109.628 22.664 109.628 21.688C109.628 20.696 109.364 19.928 108.836 19.384C108.308 18.824 107.628 18.544 106.796 18.544C105.964 18.544 105.3 18.824 104.804 19.384C104.324 19.928 104.084 20.696 104.084 21.688C104.084 22.664 104.324 23.44 104.804 24.016C105.3 24.576 105.964 24.856 106.796 24.856ZM130.752 28.24C130.032 28.24 129.344 28.152 128.688 27.976C128.048 27.784 127.456 27.496 126.912 27.112C126.512 26.84 126.296 26.544 126.264 26.224C126.248 25.888 126.376 25.568 126.648 25.264C126.92 24.976 127.2 24.84 127.488 24.856C127.792 24.872 128.144 24.992 128.544 25.216C129.184 25.664 129.968 25.888 130.896 25.888C131.552 25.888 132.024 25.8 132.312 25.624C132.616 25.432 132.768 25.088 132.768 24.592C132.768 24.352 132.696 24.16 132.552 24.016C132.408 23.856 132.136 23.712 131.736 23.584C131.352 23.456 130.784 23.32 130.032 23.176C128.912 22.952 128.016 22.584 127.344 22.072C126.672 21.56 126.336 20.752 126.336 19.648C126.336 18.928 126.528 18.312 126.912 17.8C127.296 17.272 127.816 16.864 128.472 16.576C129.128 16.288 129.856 16.144 130.656 16.144C131.904 16.144 132.96 16.408 133.824 16.936C134.256 17.16 134.496 17.44 134.544 17.776C134.608 18.096 134.52 18.408 134.28 18.712C134.024 19.032 133.744 19.192 133.44 19.192C133.152 19.192 132.808 19.104 132.408 18.928C132.152 18.784 131.88 18.68 131.592 18.616C131.32 18.552 131.024 18.52 130.704 18.52C130.112 18.52 129.688 18.624 129.432 18.832C129.192 19.04 129.072 19.288 129.072 19.576C129.072 19.784 129.128 19.96 129.24 20.104C129.368 20.248 129.608 20.384 129.96 20.512C130.312 20.64 130.824 20.784 131.496 20.944C132.776 21.248 133.768 21.688 134.472 22.264C135.176 22.84 135.528 23.648 135.528 24.688C135.528 25.856 135.08 26.744 134.184 27.352C133.304 27.944 132.16 28.24 130.752 28.24ZM145.03 28.264C143.974 28.264 143.022 28.016 142.174 27.52C141.342 27.008 140.678 26.304 140.182 25.408C139.702 24.496 139.462 23.432 139.462 22.216C139.462 21 139.702 19.944 140.182 19.048C140.678 18.136 141.342 17.432 142.174 16.936C143.022 16.424 143.974 16.168 145.03 16.168C146.118 16.168 147.078 16.424 147.91 16.936C148.758 17.432 149.422 18.136 149.902 19.048C150.382 19.944 150.622 21 150.622 22.216C150.622 23.432 150.382 24.496 149.902 25.408C149.422 26.304 148.758 27.008 147.91 27.52C147.078 28.016 146.118 28.264 145.03 28.264ZM145.03 25.816C145.878 25.816 146.566 25.504 147.094 24.88C147.638 24.256 147.91 23.368 147.91 22.216C147.91 21.064 147.638 20.176 147.094 19.552C146.566 18.928 145.878 18.616 145.03 18.616C144.198 18.616 143.518 18.928 142.99 19.552C142.462 20.176 142.198 21.064 142.198 22.216C142.198 23.368 142.462 24.256 142.99 24.88C143.518 25.504 144.198 25.816 145.03 25.816ZM160.321 28.264C159.265 28.264 158.313 28.016 157.465 27.52C156.633 27.008 155.969 26.304 155.473 25.408C154.993 24.496 154.753 23.432 154.753 22.216C154.753 21 154.993 19.944 155.473 19.048C155.969 18.136 156.633 17.432 157.465 16.936C158.313 16.424 159.265 16.168 160.321 16.168C161.409 16.168 162.369 16.424 163.201 16.936C164.049 17.432 164.713 18.136 165.193 19.048C165.673 19.944 165.913 21 165.913 22.216C165.913 23.432 165.673 24.496 165.193 25.408C164.713 26.304 164.049 27.008 163.201 27.52C162.369 28.016 161.409 28.264 160.321 28.264ZM160.321 25.816C161.169 25.816 161.857 25.504 162.385 24.88C162.929 24.256 163.201 23.368 163.201 22.216C163.201 21.064 162.929 20.176 162.385 19.552C161.857 18.928 161.169 18.616 160.321 18.616C159.489 18.616 158.809 18.928 158.281 19.552C157.753 20.176 157.489 21.064 157.489 22.216C157.489 23.368 157.753 24.256 158.281 24.88C158.809 25.504 159.489 25.816 160.321 25.816ZM172.012 28C171.1 28 170.644 27.528 170.644 26.584V17.872C170.644 16.928 171.052 16.456 171.868 16.456C172.684 16.456 173.108 16.664 173.14 17.08L173.212 17.824C173.532 17.376 173.956 16.992 174.484 16.672C175.012 16.336 175.636 16.168 176.356 16.168C177.556 16.168 178.532 16.552 179.284 17.32C180.052 18.088 180.436 19.216 180.436 20.704V26.584C180.436 27.528 179.988 28 179.092 28C178.18 28 177.724 27.528 177.724 26.584V21.352C177.724 20.44 177.54 19.76 177.172 19.312C176.804 18.848 176.308 18.616 175.684 18.616C174.996 18.616 174.436 18.856 174.004 19.336C173.572 19.8 173.356 20.496 173.356 21.424V26.584C173.356 27.528 172.908 28 172.012 28ZM187.738 28.264C187.242 28.264 186.81 28.088 186.442 27.736C186.09 27.368 185.914 26.936 185.914 26.44C185.914 25.944 186.09 25.52 186.442 25.168C186.81 24.8 187.242 24.616 187.738 24.616C188.234 24.616 188.658 24.8 189.01 25.168C189.378 25.52 189.562 25.944 189.562 26.44C189.562 26.936 189.378 27.368 189.01 27.736C188.658 28.088 188.234 28.264 187.738 28.264ZM201.346 28.264C200.85 28.264 200.426 28.088 200.074 27.736C199.722 27.368 199.546 26.936 199.546 26.44C199.546 25.944 199.722 25.52 200.074 25.168C200.426 24.8 200.85 24.616 201.346 24.616C201.858 24.616 202.29 24.8 202.642 25.168C202.994 25.52 203.17 25.944 203.17 26.44C203.17 26.936 202.994 27.368 202.642 27.736C202.29 28.088 201.858 28.264 201.346 28.264ZM194.554 28.264C194.058 28.264 193.626 28.088 193.258 27.736C192.906 27.368 192.73 26.936 192.73 26.44C192.73 25.944 192.906 25.52 193.258 25.168C193.626 24.8 194.058 24.616 194.554 24.616C195.05 24.616 195.474 24.8 195.826 25.168C196.178 25.52 196.354 25.944 196.354 26.44C196.354 26.936 196.178 27.368 195.826 27.736C195.474 28.088 195.05 28.264 194.554 28.264Z" fill="#010F32"/>
<path d="M14.8 71.912C13.5413 71.912 12.5493 71.5813 11.824 70.92C11.0987 70.2587 10.736 69.3147 10.736 68.088C10.736 67.96 10.752 67.7787 10.784 67.544C10.816 67.3093 10.8533 67.0373 10.896 66.728C10.5973 66.6747 10.3093 66.616 10.032 66.552C9.76533 66.488 9.52 66.4293 9.296 66.376C9.04 66.3013 8.848 66.1467 8.72 65.912C8.60267 65.6773 8.58133 65.4373 8.656 65.192C8.74133 64.9467 8.896 64.76 9.12 64.632C9.35467 64.504 9.59467 64.4773 9.84 64.552C10.2133 64.6693 10.6773 64.776 11.232 64.872C11.2853 64.5627 11.344 64.248 11.408 63.928C11.472 63.608 11.5307 63.2827 11.584 62.952C11.296 62.8987 11.0293 62.8453 10.784 62.792C10.5387 62.7387 10.336 62.6907 10.176 62.648C9.93067 62.5733 9.744 62.424 9.616 62.2C9.488 61.9653 9.46133 61.7253 9.536 61.48C9.61067 61.224 9.76 61.032 9.984 60.904C10.208 60.776 10.448 60.7493 10.704 60.824C10.832 60.856 11.0027 60.8987 11.216 60.952C11.4293 60.9947 11.6693 61.0427 11.936 61.096C12.0213 60.5947 12.096 60.1413 12.16 59.736C12.2347 59.32 12.2773 58.984 12.288 58.728C12.3093 58.4613 12.4267 58.248 12.64 58.088C12.864 57.928 13.104 57.864 13.36 57.896C13.6267 57.928 13.84 58.0507 14 58.264C14.16 58.4667 14.224 58.7013 14.192 58.968C14.16 59.2347 14.1067 59.5867 14.032 60.024C13.968 60.4507 13.8827 60.92 13.776 61.432C13.9467 61.464 14.1013 61.4907 14.24 61.512C14.3893 61.5227 14.5227 61.5387 14.64 61.56C14.896 61.6027 15.104 61.7253 15.264 61.928C15.424 62.1307 15.488 62.36 15.456 62.616C15.424 62.8827 15.3013 63.096 15.088 63.256C14.8853 63.4053 14.656 63.464 14.4 63.432C14.272 63.4213 14.1227 63.4053 13.952 63.384C13.7813 63.352 13.6053 63.3253 13.424 63.304C13.36 63.6133 13.296 63.9227 13.232 64.232C13.1787 64.5413 13.1253 64.8453 13.072 65.144C13.2853 65.1653 13.488 65.1867 13.68 65.208C13.8827 65.2293 14.0693 65.2453 14.24 65.256C14.496 65.2667 14.7093 65.3733 14.88 65.576C15.0613 65.768 15.1467 65.992 15.136 66.248C15.1253 66.5147 15.0187 66.7333 14.816 66.904C14.624 67.0747 14.3947 67.1547 14.128 67.144C13.9147 67.1227 13.6907 67.1067 13.456 67.096C13.2213 67.0747 12.9813 67.048 12.736 67.016C12.6507 67.528 12.608 67.8853 12.608 68.088C12.608 69.368 13.3387 70.008 14.8 70.008C15.408 70.008 15.9147 69.8693 16.32 69.592C16.7253 69.304 16.9707 68.9307 17.056 68.472C17.216 67.6613 16.8907 66.8827 16.08 66.136C15.888 65.9547 15.7973 65.7307 15.808 65.464C15.8293 65.1867 15.9413 64.9573 16.144 64.776C16.336 64.5947 16.56 64.5147 16.816 64.536C17.072 64.5573 17.296 64.6587 17.488 64.84C18.0853 65.4053 18.5013 66.024 18.736 66.696C18.9707 67.3573 19.0293 68.024 18.912 68.696C18.752 69.6667 18.304 70.4453 17.568 71.032C16.832 71.6187 15.9093 71.912 14.8 71.912ZM32.208 72.12C32.0053 72.2907 31.7653 72.3707 31.488 72.36C31.2213 72.36 30.9973 72.2587 30.816 72.056C30.6453 71.8533 30.56 71.6187 30.56 71.352C30.5707 71.0853 30.6773 70.8667 30.88 70.696C31.7333 69.9493 32.3787 69.1387 32.816 68.264C33.264 67.3893 33.488 66.4133 33.488 65.336C33.488 64.6213 33.296 64.0987 32.912 63.768C32.5387 63.4373 32.0427 63.272 31.424 63.272C30.9653 63.272 30.496 63.384 30.016 63.608C29.5467 63.8213 29.0933 64.1307 28.656 64.536C28.4533 64.7067 28.2187 64.7867 27.952 64.776C27.696 64.7547 27.4773 64.6427 27.296 64.44C27.1253 64.2373 27.0507 64.008 27.072 63.752C27.0933 63.4853 27.2 63.2667 27.392 63.096C28.0107 62.5307 28.6667 62.12 29.36 61.864C30.0533 61.5973 30.7413 61.464 31.424 61.464C32.1813 61.464 32.8587 61.608 33.456 61.896C34.0533 62.1733 34.5227 62.6 34.864 63.176C35.216 63.7413 35.392 64.4613 35.392 65.336C35.392 66.6907 35.1093 67.9493 34.544 69.112C33.9787 70.2747 33.2 71.2773 32.208 72.12ZM33.392 60.872C32.9227 60.744 32.432 60.6 31.92 60.44C31.408 60.2693 30.912 60.088 30.432 59.896C29.952 59.704 29.5307 59.5227 29.168 59.352C28.9333 59.2347 28.7733 59.0533 28.688 58.808C28.6027 58.552 28.6187 58.3067 28.736 58.072C28.8533 57.8267 29.04 57.6667 29.296 57.592C29.5627 57.5173 29.8133 57.5387 30.048 57.656C30.5813 57.8907 31.1893 58.136 31.872 58.392C32.5547 58.6373 33.2213 58.8453 33.872 59.016C34.128 59.08 34.32 59.2293 34.448 59.464C34.5867 59.688 34.624 59.928 34.56 60.184C34.496 60.44 34.3467 60.6373 34.112 60.776C33.888 60.904 33.648 60.936 33.392 60.872ZM43.824 72.2C43.4827 72.2533 43.1947 72.2107 42.96 72.072C42.736 71.944 42.592 71.7307 42.528 71.432C42.4747 71.1547 42.528 70.904 42.688 70.68C42.8587 70.456 43.1093 70.3173 43.44 70.264C45.5733 69.912 47.3973 69.288 48.912 68.392C50.4267 67.496 51.664 66.296 52.624 64.792C52.7733 64.5467 52.9867 64.3973 53.264 64.344C53.552 64.28 53.8027 64.3227 54.016 64.472C54.2613 64.632 54.4107 64.8453 54.464 65.112C54.5173 65.3787 54.4587 65.6347 54.288 65.88C53.136 67.5547 51.7067 68.9253 50 69.992C48.304 71.048 46.2453 71.784 43.824 72.2ZM47.456 67.72C47.1147 67.72 46.8427 67.6293 46.64 67.448C46.4373 67.2667 46.3253 67.0267 46.304 66.728C46.2933 66.4507 46.3893 66.2107 46.592 66.008C46.7947 65.8053 47.0453 65.688 47.344 65.656C47.728 65.624 47.9787 65.56 48.096 65.464C48.2133 65.368 48.272 65.1707 48.272 64.872V58.696C48.272 58.3867 48.368 58.1413 48.56 57.96C48.752 57.7787 48.9867 57.688 49.264 57.688C49.5413 57.688 49.776 57.7787 49.968 57.96C50.16 58.1413 50.256 58.3867 50.256 58.696V65.048C50.256 65.9867 50.016 66.6693 49.536 67.096C49.056 67.512 48.3627 67.72 47.456 67.72ZM42.24 65.656C42.0373 65.4747 41.936 65.256 41.936 65C41.936 64.7333 42.0267 64.504 42.208 64.312C42.5387 63.9707 42.8747 63.576 43.216 63.128C43.568 62.68 43.904 62.2213 44.224 61.752C44.544 61.272 44.8107 60.8293 45.024 60.424C45.152 60.1893 45.3493 60.0453 45.616 59.992C45.8827 59.9387 46.128 59.9707 46.352 60.088C46.5867 60.2267 46.736 60.4187 46.8 60.664C46.864 60.8987 46.8373 61.1387 46.72 61.384C46.4853 61.832 46.1973 62.3173 45.856 62.84C45.5253 63.352 45.1733 63.848 44.8 64.328C44.4373 64.7973 44.0853 65.2027 43.744 65.544C43.5413 65.7467 43.296 65.8693 43.008 65.912C42.7307 65.944 42.4747 65.8587 42.24 65.656ZM56.304 64.744C56.1013 64.9147 55.856 64.9947 55.568 64.984C55.2907 64.9627 55.072 64.8507 54.912 64.648C54.752 64.4347 54.5493 64.1893 54.304 63.912C54.0587 63.6347 53.7973 63.3467 53.52 63.048C53.2533 62.7493 52.9867 62.4667 52.72 62.2C52.464 61.9227 52.2347 61.6933 52.032 61.512C51.8613 61.3413 51.7813 61.1333 51.792 60.888C51.8027 60.6427 51.8933 60.4347 52.064 60.264C52.2667 60.0613 52.4907 59.96 52.736 59.96C52.992 59.96 53.2213 60.0507 53.424 60.232C53.7227 60.488 54.0587 60.808 54.432 61.192C54.816 61.576 55.1893 61.9653 55.552 62.36C55.9147 62.744 56.2133 63.0853 56.448 63.384C56.6293 63.5973 56.704 63.832 56.672 64.088C56.64 64.344 56.5173 64.5627 56.304 64.744ZM67.312 71.688C66.032 71.688 65.024 71.3733 64.288 70.744C63.5627 70.104 63.2 69.08 63.2 67.672V59.144C63.2 58.8773 63.2907 58.6533 63.472 58.472C63.664 58.28 63.8933 58.184 64.16 58.184C64.4267 58.184 64.6507 58.28 64.832 58.472C65.024 58.6533 65.12 58.8773 65.12 59.144V67.672C65.12 68.4613 65.296 69.0107 65.648 69.32C66.0107 69.6293 66.5653 69.784 67.312 69.784C67.9733 69.784 68.592 69.608 69.168 69.256C69.7547 68.904 70.2293 68.3387 70.592 67.56C70.7093 67.3147 70.896 67.1493 71.152 67.064C71.408 66.9787 71.6533 66.9947 71.888 67.112C72.1333 67.2187 72.2933 67.4 72.368 67.656C72.4533 67.912 72.4427 68.1627 72.336 68.408C71.8667 69.464 71.1787 70.2747 70.272 70.84C69.376 71.4053 68.3893 71.688 67.312 71.688ZM80.032 72.312C79.776 72.312 79.5573 72.2267 79.376 72.056C79.2053 71.896 79.12 71.6773 79.12 71.4V65.864C78.992 65.9707 78.864 66.072 78.736 66.168C78.6187 66.2533 78.5013 66.3387 78.384 66.424C78.1493 66.584 77.8933 66.6587 77.616 66.648C77.3387 66.6373 77.1147 66.52 76.944 66.296C76.7947 66.0827 76.7307 65.8427 76.752 65.576C76.7733 65.3093 76.8853 65.1067 77.088 64.968C77.5147 64.6907 77.9467 64.3653 78.384 63.992C78.832 63.6187 79.2587 63.224 79.664 62.808C80.0693 62.3813 80.4267 61.9707 80.736 61.576C80.8853 61.3733 81.0933 61.2613 81.36 61.24C81.6267 61.208 81.8613 61.2667 82.064 61.416C82.2133 61.5227 82.32 61.6667 82.384 61.848C82.448 62.0187 82.4533 62.1947 82.4 62.376H85.6V60.968H83.184C82.9493 60.968 82.7573 60.8933 82.608 60.744C82.4693 60.584 82.4 60.3973 82.4 60.184C82.4 59.96 82.4693 59.7733 82.608 59.624C82.7573 59.464 82.9493 59.384 83.184 59.384H85.6V58.36C85.6 58.0613 85.6907 57.832 85.872 57.672C86.0533 57.5013 86.2773 57.416 86.544 57.416C86.8107 57.416 87.0293 57.5013 87.2 57.672C87.3813 57.832 87.472 58.0613 87.472 58.36V59.384H89.952C90.1973 59.384 90.3893 59.464 90.528 59.624C90.6773 59.7733 90.752 59.96 90.752 60.184C90.752 60.3973 90.6773 60.584 90.528 60.744C90.3893 60.8933 90.1973 60.968 89.952 60.968H87.472V62.376H90.992C91.248 62.376 91.4507 62.456 91.6 62.616C91.7493 62.776 91.824 62.9733 91.824 63.208C91.824 63.4427 91.7493 63.64 91.6 63.8C91.4507 63.96 91.248 64.04 90.992 64.04H89.392V65.32H90.784C91.04 65.32 91.2427 65.4053 91.392 65.576C91.552 65.736 91.632 65.9333 91.632 66.168C91.632 66.4027 91.552 66.6 91.392 66.76C91.2427 66.92 91.04 67 90.784 67H89.392V69.992C89.392 70.792 89.1893 71.3733 88.784 71.736C88.3893 72.0987 87.776 72.28 86.944 72.28C86.624 72.28 86.3733 72.1893 86.192 72.008C86.0213 71.8373 85.9253 71.624 85.904 71.368C85.8827 71.1013 85.9573 70.8773 86.128 70.696C86.2987 70.504 86.512 70.4027 86.768 70.392C87.1093 70.36 87.328 70.296 87.424 70.2C87.5307 70.0933 87.584 69.896 87.584 69.608V67H82.496C82.2293 67 82.0213 66.92 81.872 66.76C81.7227 66.6 81.648 66.4027 81.648 66.168C81.648 65.9333 81.7227 65.736 81.872 65.576C82.0213 65.4053 82.2293 65.32 82.496 65.32H87.584V64.04H82.464C82.2507 64.04 82.0747 63.9813 81.936 63.864C81.7973 63.7467 81.7013 63.6027 81.648 63.432C81.5413 63.56 81.4293 63.688 81.312 63.816C81.1947 63.944 81.072 64.072 80.944 64.2V71.4C80.944 71.6773 80.8533 71.896 80.672 72.056C80.5013 72.2267 80.288 72.312 80.032 72.312ZM78.832 61.752C78.608 61.8907 78.3627 61.9547 78.096 61.944C77.8293 61.9227 77.6213 61.8 77.472 61.576C77.3333 61.3627 77.28 61.1387 77.312 60.904C77.3547 60.6693 77.4773 60.488 77.68 60.36C77.968 60.168 78.288 59.9387 78.64 59.672C79.0027 59.3947 79.3547 59.1067 79.696 58.808C80.048 58.5093 80.3467 58.2267 80.592 57.96C80.7733 57.7787 80.9867 57.688 81.232 57.688C81.488 57.688 81.7013 57.7787 81.872 57.96C82.0427 58.12 82.1333 58.3227 82.144 58.568C82.1653 58.8027 82.0853 59.0107 81.904 59.192C81.6267 59.48 81.3067 59.784 80.944 60.104C80.592 60.424 80.2293 60.728 79.856 61.016C79.4827 61.304 79.1413 61.5493 78.832 61.752ZM85.424 70.008C85.2213 70.1787 84.992 70.2533 84.736 70.232C84.48 70.2 84.2667 70.0827 84.096 69.88C84 69.7627 83.8773 69.6187 83.728 69.448C83.5787 69.2773 83.4293 69.112 83.28 68.952C83.1413 68.7813 83.0293 68.6533 82.944 68.568C82.7733 68.3867 82.6933 68.1733 82.704 67.928C82.7253 67.672 82.832 67.4587 83.024 67.288C83.2267 67.1173 83.4613 67.0373 83.728 67.048C83.9947 67.0587 84.2187 67.16 84.4 67.352C84.4853 67.4267 84.6027 67.5493 84.752 67.72C84.9013 67.88 85.0507 68.04 85.2 68.2C85.3493 68.36 85.456 68.4827 85.52 68.568C85.7013 68.7813 85.7813 69.032 85.76 69.32C85.7493 69.5973 85.6373 69.8267 85.424 70.008ZM101.36 71.32C101.125 71.352 100.912 71.2933 100.72 71.144C100.539 71.0053 100.432 70.8187 100.4 70.584C100.379 70.3493 100.437 70.1413 100.576 69.96C100.725 69.768 100.917 69.656 101.152 69.624C102.165 69.4853 102.965 69.2667 103.552 68.968C104.149 68.6693 104.565 68.3173 104.8 67.912C105.035 67.5067 105.12 67.0853 105.056 66.648C104.981 66.0827 104.773 65.672 104.432 65.416C104.091 65.16 103.605 65.0587 102.976 65.112C102.635 65.1333 102.235 65.1813 101.776 65.256C101.328 65.32 100.864 65.3947 100.384 65.48C99.904 65.5653 99.4453 65.6613 99.008 65.768C98.5707 65.864 98.192 65.9547 97.872 66.04C97.6373 66.104 97.4187 66.0827 97.216 65.976C97.0133 65.8587 96.88 65.6827 96.816 65.448C96.752 65.224 96.7733 65.0107 96.88 64.808C96.9973 64.5947 97.1733 64.456 97.408 64.392C97.7493 64.296 98.1493 64.2 98.608 64.104C99.0773 64.008 99.5627 63.9173 100.064 63.832C100.576 63.736 101.072 63.656 101.552 63.592C102.043 63.528 102.475 63.48 102.848 63.448C103.925 63.3627 104.805 63.5813 105.488 64.104C106.171 64.616 106.581 65.368 106.72 66.36C106.837 67.1173 106.72 67.848 106.368 68.552C106.016 69.2453 105.424 69.8427 104.592 70.344C103.76 70.8347 102.683 71.16 101.36 71.32ZM123.76 71.512C122.501 71.3307 121.461 70.968 120.64 70.424C119.819 69.8693 119.205 69.2027 118.8 68.424C118.405 67.6453 118.208 66.8347 118.208 65.992C118.208 65.1387 118.373 64.344 118.704 63.608C119.045 62.8613 119.531 62.216 120.16 61.672C119.52 61.768 118.837 61.88 118.112 62.008C117.387 62.1253 116.683 62.248 116 62.376C115.317 62.4933 114.72 62.6 114.208 62.696C113.952 62.7387 113.717 62.68 113.504 62.52C113.291 62.36 113.163 62.152 113.12 61.896C113.077 61.6293 113.136 61.3947 113.296 61.192C113.456 60.9787 113.669 60.8507 113.936 60.808C114.277 60.7547 114.715 60.6853 115.248 60.6C115.781 60.504 116.379 60.4027 117.04 60.296C117.701 60.1893 118.379 60.0773 119.072 59.96C119.765 59.8427 120.443 59.7307 121.104 59.624C121.776 59.5067 122.389 59.4 122.944 59.304C123.499 59.208 123.952 59.128 124.304 59.064C124.549 59.0213 124.779 59.0747 124.992 59.224C125.205 59.3733 125.339 59.5707 125.392 59.816C125.445 60.072 125.397 60.312 125.248 60.536C125.109 60.76 124.912 60.8933 124.656 60.936C123.877 61.0427 123.2 61.2667 122.624 61.608C122.059 61.9387 121.589 62.344 121.216 62.824C120.843 63.2933 120.565 63.7947 120.384 64.328C120.203 64.8613 120.112 65.3787 120.112 65.88C120.112 66.9147 120.464 67.752 121.168 68.392C121.872 69.0213 122.827 69.4267 124.032 69.608C124.299 69.6507 124.512 69.7787 124.672 69.992C124.832 70.2053 124.891 70.44 124.848 70.696C124.805 70.9627 124.677 71.176 124.464 71.336C124.261 71.496 124.027 71.5547 123.76 71.512ZM141.36 71.512C140.101 71.3307 139.061 70.968 138.24 70.424C137.419 69.8693 136.805 69.2027 136.4 68.424C136.005 67.6453 135.808 66.8347 135.808 65.992C135.808 65.1387 135.973 64.344 136.304 63.608C136.645 62.8613 137.131 62.216 137.76 61.672C137.12 61.768 136.437 61.88 135.712 62.008C134.987 62.1253 134.283 62.248 133.6 62.376C132.917 62.4933 132.32 62.6 131.808 62.696C131.552 62.7387 131.317 62.68 131.104 62.52C130.891 62.36 130.763 62.152 130.72 61.896C130.677 61.6293 130.736 61.3947 130.896 61.192C131.056 60.9787 131.269 60.8507 131.536 60.808C131.877 60.7547 132.315 60.6853 132.848 60.6C133.381 60.504 133.979 60.4027 134.64 60.296C135.301 60.1893 135.979 60.0773 136.672 59.96C137.365 59.8427 138.043 59.7307 138.704 59.624C139.376 59.5067 139.989 59.4 140.544 59.304C141.099 59.208 141.552 59.128 141.904 59.064C142.149 59.0213 142.379 59.0747 142.592 59.224C142.805 59.3733 142.939 59.5707 142.992 59.816C143.045 60.072 142.997 60.312 142.848 60.536C142.709 60.76 142.512 60.8933 142.256 60.936C141.477 61.0427 140.8 61.2667 140.224 61.608C139.659 61.9387 139.189 62.344 138.816 62.824C138.443 63.2933 138.165 63.7947 137.984 64.328C137.803 64.8613 137.712 65.3787 137.712 65.88C137.712 66.9147 138.064 67.752 138.768 68.392C139.472 69.0213 140.427 69.4267 141.632 69.608C141.899 69.6507 142.112 69.7787 142.272 69.992C142.432 70.2053 142.491 70.44 142.448 70.696C142.405 70.9627 142.277 71.176 142.064 71.336C141.861 71.496 141.627 71.5547 141.36 71.512ZM150.336 71.256C150.069 71.2987 149.829 71.2453 149.616 71.096C149.403 70.9467 149.269 70.744 149.216 70.488C149.12 69.944 149.045 69.3147 148.992 68.6C148.939 67.8747 148.912 67.112 148.912 66.312C148.912 65.512 148.933 64.7067 148.976 63.896C149.019 63.0853 149.083 62.312 149.168 61.576C149.264 60.8293 149.376 60.1627 149.504 59.576C149.557 59.32 149.696 59.1227 149.92 58.984C150.144 58.8347 150.384 58.7867 150.64 58.84C150.896 58.904 151.093 59.048 151.232 59.272C151.381 59.4853 151.429 59.7253 151.376 59.992C151.205 60.7493 151.072 61.5707 150.976 62.456C150.88 63.3413 150.816 64.2427 150.784 65.16C150.763 66.0667 150.779 66.952 150.832 67.816C150.885 68.6693 150.976 69.448 151.104 70.152C151.157 70.408 151.104 70.6427 150.944 70.856C150.795 71.0693 150.592 71.2027 150.336 71.256ZM156.896 70.392C155.509 70.392 154.475 70.1413 153.792 69.64C153.12 69.1387 152.715 68.4027 152.576 67.432C152.533 67.176 152.587 66.9413 152.736 66.728C152.896 66.5147 153.109 66.3867 153.376 66.344C153.632 66.312 153.867 66.376 154.08 66.536C154.293 66.6853 154.421 66.8933 154.464 67.16C154.528 67.6187 154.747 67.96 155.12 68.184C155.493 68.408 156.101 68.52 156.944 68.52C157.744 68.52 158.709 68.3973 159.84 68.152C160.096 68.088 160.336 68.1307 160.56 68.28C160.784 68.4293 160.923 68.632 160.976 68.888C161.029 69.144 160.981 69.384 160.832 69.608C160.683 69.8213 160.48 69.96 160.224 70.024C159.648 70.1627 159.072 70.2587 158.496 70.312C157.931 70.3653 157.397 70.392 156.896 70.392ZM153.968 62.472C153.712 62.5253 153.472 62.4827 153.248 62.344C153.035 62.1947 152.901 61.9867 152.848 61.72C152.795 61.464 152.837 61.224 152.976 61C153.125 60.776 153.333 60.6427 153.6 60.6C154.197 60.4827 154.864 60.408 155.6 60.376C156.336 60.3333 157.067 60.328 157.792 60.36C158.517 60.3813 159.157 60.44 159.712 60.536C159.979 60.5787 160.187 60.712 160.336 60.936C160.485 61.1493 160.533 61.3893 160.48 61.656C160.437 61.9227 160.304 62.1307 160.08 62.28C159.867 62.4187 159.632 62.4667 159.376 62.424C158.512 62.2747 157.616 62.2053 156.688 62.216C155.76 62.216 154.853 62.3013 153.968 62.472ZM172.224 72.312C171.989 72.344 171.781 72.2907 171.6 72.152C171.429 72.0133 171.328 71.8267 171.296 71.592C171.2 70.952 171.045 70.216 170.832 69.384C170.629 68.5413 170.384 67.6987 170.096 66.856C169.669 66.9947 169.259 67.1333 168.864 67.272C168.48 67.4 168.123 67.5227 167.792 67.64C167.568 67.7147 167.349 67.704 167.136 67.608C166.933 67.512 166.789 67.3573 166.704 67.144C166.629 66.92 166.64 66.7067 166.736 66.504C166.843 66.2907 167.008 66.1467 167.232 66.072C167.893 65.8373 168.661 65.5813 169.536 65.304C169.408 64.9947 169.28 64.696 169.152 64.408C169.024 64.12 168.891 63.848 168.752 63.592C168.645 63.3787 168.619 63.16 168.672 62.936C168.736 62.712 168.869 62.5467 169.072 62.44C169.285 62.3227 169.499 62.3013 169.712 62.376C169.936 62.44 170.101 62.5787 170.208 62.792C170.368 63.0907 170.523 63.4107 170.672 63.752C170.821 64.0933 170.965 64.4507 171.104 64.824C171.381 64.7387 171.659 64.6533 171.936 64.568C172.213 64.4827 172.485 64.4027 172.752 64.328C172.581 64.2747 172.448 64.168 172.352 64.008L171.664 62.984C171.547 62.792 171.509 62.5893 171.552 62.376C171.595 62.152 171.712 61.976 171.904 61.848C172.107 61.72 172.32 61.6827 172.544 61.736C172.768 61.7787 172.939 61.896 173.056 62.088L173.728 63.096C173.835 63.256 173.883 63.4267 173.872 63.608C173.861 63.7787 173.797 63.9387 173.68 64.088C173.755 64.0667 173.824 64.0453 173.888 64.024C173.952 64.0027 174.016 63.9867 174.08 63.976C175.189 63.6987 176.085 63.7413 176.768 64.104C177.451 64.4667 177.845 65.08 177.952 65.944C178.027 66.5627 177.936 67.1067 177.68 67.576C177.435 68.0453 177.067 68.4027 176.576 68.648C176.096 68.8933 175.547 69.0053 174.928 68.984C174.32 68.9627 173.696 68.776 173.056 68.424C172.853 68.3067 172.715 68.136 172.64 67.912C172.576 67.688 172.597 67.4747 172.704 67.272C172.821 67.0587 172.992 66.92 173.216 66.856C173.44 66.792 173.653 66.8187 173.856 66.936C174.325 67.2027 174.752 67.336 175.136 67.336C175.52 67.3253 175.819 67.2133 176.032 67C176.245 66.776 176.325 66.4827 176.272 66.12C176.229 65.8107 176.059 65.5973 175.76 65.48C175.472 65.3627 175.035 65.3733 174.448 65.512C174.053 65.6187 173.611 65.7413 173.12 65.88C172.64 66.0187 172.149 66.1733 171.648 66.344C171.936 67.2187 172.192 68.0987 172.416 68.984C172.651 69.8587 172.827 70.6533 172.944 71.368C172.987 71.6027 172.933 71.8107 172.784 71.992C172.645 72.184 172.459 72.2907 172.224 72.312ZM186.736 72.248C186.309 72.248 185.968 72.12 185.712 71.864C185.467 71.6187 185.344 71.2987 185.344 70.904C185.344 70.456 185.472 70.0773 185.728 69.768C185.984 69.4587 186.32 69.2027 186.736 69C187.163 68.7973 187.611 68.6427 188.08 68.536C188.336 68.4827 188.507 68.4027 188.592 68.296C188.688 68.1893 188.736 67.9973 188.736 67.72V57.832C188.736 57.672 188.795 57.56 188.912 57.496C189.04 57.432 189.168 57.4213 189.296 57.464C189.424 57.496 189.504 57.592 189.536 57.752C189.632 58.1787 189.819 58.5627 190.096 58.904C190.384 59.2453 190.72 59.56 191.104 59.848C191.499 60.136 191.899 60.424 192.304 60.712C192.709 61 193.088 61.2987 193.44 61.608C193.803 61.9173 194.091 62.2587 194.304 62.632C194.528 63.0053 194.64 63.432 194.64 63.912C194.64 64.5627 194.512 65.176 194.256 65.752C194 66.328 193.659 66.856 193.232 67.336C192.805 67.816 192.331 68.2427 191.808 68.616C191.733 68.6693 191.648 68.7013 191.552 68.712C191.467 68.712 191.392 68.6747 191.328 68.6C191.264 68.5253 191.232 68.4453 191.232 68.36C191.232 68.264 191.269 68.184 191.344 68.12C191.867 67.64 192.304 67.0747 192.656 66.424C193.008 65.7733 193.184 65.128 193.184 64.488C193.184 64.1147 193.051 63.7893 192.784 63.512C192.528 63.224 192.208 62.968 191.824 62.744C191.451 62.52 191.077 62.312 190.704 62.12C190.341 61.928 190.053 61.736 189.84 61.544V68.488C189.84 69.1493 189.717 69.768 189.472 70.344C189.237 70.92 188.891 71.3787 188.432 71.72C187.973 72.072 187.408 72.248 186.736 72.248Z" fill="#010F32"/>
</svg>
