<svg width="174" height="47" viewBox="0 0 174 47" fill="none" xmlns="http://www.w3.org/2000/svg">
<path d="M0.273753 42.94V40.38C0.273753 23.292 19.9218 22.076 19.9218 12.604C19.9218 9.596 18.3858 6.332 13.0738 6.332C10.0658 6.332 7.31375 7.292 5.84175 7.868C4.30575 8.444 3.15375 7.932 2.51375 6.46L2.06575 5.372C1.48975 3.836 2.12975 2.62 3.66575 1.98C5.52175 1.212 9.16975 -0.00400162 13.1378 -0.00400162C22.0338 -0.00400162 27.4738 5.436 27.4738 12.604C27.4738 26.108 7.76175 27.836 7.76175 39.292H25.1058C26.6418 39.292 27.6658 40.252 27.6658 41.788V42.94C27.6658 44.476 26.6418 45.5 25.1058 45.5H2.76975C1.23375 45.5 0.273753 44.476 0.273753 42.94ZM47.2748 28.22V18.044C47.2748 6.78 52.9068 -0.00400162 62.7628 -0.00400162C72.7468 -0.00400162 78.3148 7.164 78.3148 18.044V28.22C78.3148 39.484 72.7468 46.332 62.7628 46.332C52.9068 46.332 47.2748 39.228 47.2748 28.22ZM62.7628 39.996C68.9068 39.996 70.7628 34.556 70.7628 27.26V19.004C70.7628 11.708 68.9068 6.332 62.7628 6.332C56.6188 6.332 54.8268 11.708 54.8268 19.004V27.26C54.8268 34.556 56.6188 39.996 62.7628 39.996ZM97.4363 42.94V40.38C97.4363 23.292 117.084 22.076 117.084 12.604C117.084 9.596 115.548 6.332 110.236 6.332C107.228 6.332 104.476 7.292 103.004 7.868C101.468 8.444 100.316 7.932 99.6763 6.46L99.2283 5.372C98.6523 3.836 99.2923 2.62 100.828 1.98C102.684 1.212 106.332 -0.00400162 110.3 -0.00400162C119.196 -0.00400162 124.636 5.436 124.636 12.604C124.636 26.108 104.924 27.836 104.924 39.292H122.268C123.804 39.292 124.828 40.252 124.828 41.788V42.94C124.828 44.476 123.804 45.5 122.268 45.5H99.9323C98.3963 45.5 97.4363 44.476 97.4363 42.94ZM149.212 36.156C143.516 36.156 141.084 33.66 142.364 27.644L147.676 3.196C147.996 1.596 149.148 0.827999 150.684 0.827999H152.604C154.14 0.827999 154.972 1.916 154.652 3.58L149.596 27.644C149.276 29.052 149.596 29.948 151.068 29.948H158.044V16.444C158.044 14.908 158.876 13.756 160.348 13.5L162.652 13.116C164.252 12.86 165.276 13.692 165.276 15.228V29.948H170.716C172.252 29.948 173.276 30.908 173.276 32.444V33.596C173.276 35.132 172.252 36.156 170.716 36.156H165.276V42.94C165.276 44.476 164.316 45.5 162.78 45.5H160.604C159.068 45.5 158.044 44.476 158.044 42.94V36.156H149.212Z" fill="#010F32"/>
</svg>
