<svg width="489" height="61" viewBox="0 0 489 61" fill="none" xmlns="http://www.w3.org/2000/svg">
<path d="M17.5001 21.1C15.1001 21.7 12.9001 21.9 11.1001 21.9C9.30006 21.9 7.70006 21.5 6.30006 20.9C4.90006 20.3 4.10005 19.3 3.70005 18.1C3.50005 17.7 3.50005 17.3 3.70005 16.9C3.90005 16.5 4.10005 16.3 4.50005 16.1C4.90005 15.9 5.30005 15.9 5.50005 16.1C5.70005 16.3 6.10006 16.5 6.30006 16.9C6.70006 17.5 7.30006 18.1 8.10006 18.5C9.10006 18.9 10.3 19.1 11.7 19.1C13.1 19.1 14.9 18.9 16.7 18.3C17.1 18.3 17.5 18.3 17.7 18.5C18.1 18.7 18.3001 19.1 18.3001 19.5C18.3001 19.9 18.3001 20.3 18.1001 20.5C17.9001 20.7 17.9001 21.1 17.5001 21.1ZM15.3001 8.10003C14.5001 7.90003 13.5001 7.70002 12.5001 7.50002C11.5001 7.30002 10.5001 7.30002 9.50005 7.30002C8.50005 7.30002 7.70005 7.30002 6.90005 7.30002C6.50005 7.30002 6.10005 7.30003 5.90005 7.10003C5.70005 6.90003 5.50005 6.50003 5.30005 6.10003C5.10005 5.70003 5.30005 5.30003 5.50005 5.10003C5.70005 4.90003 6.10005 4.70002 6.50005 4.50002C7.50005 4.50002 8.50005 4.30002 9.70005 4.50002C10.9 4.50002 11.9001 4.70002 13.1001 4.70002C14.1001 4.90002 15.1 4.90002 15.9 5.30002C16.3 5.50002 16.5 5.70002 16.7 5.90002C16.9 6.10002 16.9 6.50002 16.9 6.90002C16.9 7.30002 16.7001 7.50002 16.3001 7.90002C16.1001 8.10002 15.7001 8.10003 15.3001 8.10003Z" fill="#010F32"/>
<path d="M30.5 23.7004C30.1 23.7004 29.7 23.5004 29.5 23.3004C29.3 23.1004 29.1 22.7004 29.1 22.3004V17.1004C28.9 17.5004 28.5 17.9004 28.3 18.3004C28.1 18.7004 27.7 19.1004 27.5 19.5004C27.3 19.9004 26.9 20.1004 26.5 20.1004C26.1 20.1004 25.7 20.1004 25.5 19.9004C25.1 19.7004 24.9 19.3004 24.9 18.9004C24.9 18.5004 24.9 18.1004 25.1 17.9004C25.5 17.3004 26.1 16.5004 26.7 15.5004C27.3 14.5004 28.1 13.5004 28.9 12.5004V9.5004H28.7H28.5C28.3 9.5004 28.1 9.50039 27.7 9.70039C27.3 9.70039 27.1 9.90039 26.7 9.90039C26.5 9.90039 26.1 10.1004 26.1 10.1004C25.7 10.1004 25.3 10.1004 25.1 9.90039C24.7 9.70039 24.5 9.30039 24.5 8.90039C24.5 8.50039 24.5 8.10039 24.7 7.90039C24.9 7.50039 25.3 7.3004 25.7 7.3004C25.9 7.3004 26.1 7.3004 26.3 7.1004C26.9 7.1004 27.1 7.1004 27.5 7.1004C27.9 7.1004 28.1 6.90039 28.3 6.90039C28.5 6.90039 28.9 6.70039 29.1 6.70039V3.3004C29.1 2.9004 29.3 2.5004 29.5 2.3004C29.7 2.1004 30.1 1.90039 30.5 1.90039C30.9 1.90039 31.3 2.1004 31.5 2.3004C31.7 2.5004 31.9 2.9004 31.9 3.3004V7.3004C32.1 7.5004 32.3 7.7004 32.5 8.1004C32.7 8.3004 32.7 8.50039 32.7 8.70039C33.5 8.10039 34.3 7.5004 34.9 7.1004C35.7 6.7004 36.3 6.5004 37.1 6.5004C38.9 6.5004 40.1 7.1004 40.9 8.3004C41.7 9.5004 41.7 11.3004 41.3 13.9004C41.1 14.9004 40.9 15.7004 40.9 16.3004C40.9 16.9004 40.7 17.3004 40.7 17.7004C40.7 18.1004 40.7 18.3004 40.9 18.3004C40.9 18.5004 41.1 18.5004 41.1 18.7004C41.5 18.9004 41.9 18.9004 42.3 18.7004C42.7 18.5004 43.3 18.3004 43.7 17.7004C43.9 17.5004 44.3 17.3004 44.7 17.3004C45.1 17.3004 45.5 17.5004 45.7 17.9004C45.9 18.3004 46.1 18.5004 46.1 18.9004C46.1 19.3004 45.9 19.7004 45.7 19.9004C44.7 20.9004 43.7 21.5004 42.5 21.7004C41.3 21.9004 40.3 21.7004 39.5 21.3004C38.9 20.9004 38.5 20.5004 38.3 20.1004C38.1 19.5004 37.9 18.9004 37.9 17.9004C37.9 16.9004 38.1 15.9004 38.3 14.5004C38.5 13.1004 38.7 12.1004 38.7 11.3004C38.7 10.5004 38.5 10.1004 38.3 9.90039C38.1 9.70039 37.7 9.5004 37.1 9.5004C36.7 9.5004 36.1 9.7004 35.5 10.1004C34.9 10.5004 34.3 10.9004 33.7 11.5004C33.1 12.1004 32.5 12.7004 31.9 13.5004V22.5004C31.9 22.9004 31.7 23.3004 31.5 23.5004C31.3 23.5004 30.9 23.7004 30.5 23.7004Z" fill="#010F32"/>
<path d="M56.5001 23.3004C55.1001 23.3004 54.1001 22.9004 53.3001 22.3004C52.5001 21.7004 52.1001 20.7004 52.1001 19.5004C52.1001 18.5004 52.5001 17.5004 53.3001 16.9004C54.1001 16.3004 55.1001 15.9004 56.5001 15.9004C56.9001 15.9004 57.5001 15.9004 57.9001 15.9004V13.1004C56.3001 13.1004 54.7001 13.1004 53.5001 13.1004C53.1001 13.1004 52.7001 12.9004 52.5001 12.7004C52.3001 12.5004 52.1001 12.1004 52.1001 11.7004C52.1001 11.3004 52.3001 10.9004 52.5001 10.7004C52.7001 10.5004 53.1001 10.3004 53.5001 10.3004C54.1001 10.3004 54.7001 10.3004 55.5001 10.3004C56.3001 10.3004 56.9001 10.3004 57.7001 10.3004C57.7001 9.9004 57.7001 9.5004 57.7001 9.1004C57.7001 8.7004 57.7001 8.30039 57.7001 7.90039C56.9001 7.90039 56.1001 7.90039 55.5001 7.90039C54.7001 7.90039 54.1001 7.90039 53.5001 7.90039C53.1001 7.90039 52.7001 7.7004 52.5001 7.5004C52.3001 7.3004 52.3001 7.10039 52.3001 6.70039C52.3001 6.30039 52.5001 5.90039 52.7001 5.70039C52.9001 5.50039 53.3001 5.3004 53.7001 5.3004C54.9001 5.3004 56.3001 5.5004 57.7001 5.3004V3.3004C57.7001 2.9004 57.9001 2.5004 58.1001 2.3004C58.3001 2.1004 58.7001 1.90039 59.1001 1.90039C59.5001 1.90039 59.9001 2.1004 60.1001 2.3004C60.3001 2.5004 60.5001 2.9004 60.5001 3.3004C60.5001 3.5004 60.5001 3.9004 60.5001 4.3004C60.5001 4.7004 60.5001 4.9004 60.5001 5.3004C61.1001 5.3004 61.7001 5.3004 62.3001 5.1004C62.9001 5.1004 63.5001 4.90039 63.9001 4.90039C64.3001 4.90039 64.7001 4.9004 64.9001 5.1004C65.3001 5.3004 65.3001 5.7004 65.5001 6.1004C65.5001 6.5004 65.5001 6.9004 65.3001 7.1004C65.1001 7.5004 64.7001 7.50039 64.3001 7.70039C63.7001 7.70039 63.1001 7.90039 62.5001 7.90039C61.9001 7.90039 61.1001 7.9004 60.5001 8.1004C60.5001 8.5004 60.5001 8.9004 60.5001 9.3004C60.5001 9.7004 60.5001 10.1004 60.5001 10.5004C61.1001 10.5004 61.7001 10.5004 62.3001 10.3004C62.9001 10.3004 63.5001 10.1004 63.9001 10.1004C64.3001 10.1004 64.7001 10.1004 64.9001 10.3004C65.3001 10.5004 65.3001 10.9004 65.5001 11.3004C65.5001 11.7004 65.5001 12.1004 65.3001 12.3004C65.1001 12.7004 64.7001 12.7004 64.3001 12.9004C63.7001 12.9004 63.1001 13.1004 62.5001 13.1004C61.9001 13.1004 61.1001 13.1004 60.5001 13.3004C60.5001 13.9004 60.5001 14.5004 60.5001 15.1004C60.5001 15.7004 60.5001 16.3004 60.5001 16.7004C61.5001 16.9004 62.3001 17.3004 63.1001 17.7004C63.9001 18.1004 64.7001 18.5004 65.3001 18.9004C65.7001 19.1004 65.9001 19.5004 65.9001 19.9004C65.9001 20.3004 65.9001 20.7004 65.7001 20.9004C65.5001 21.1004 65.1001 21.5004 64.7001 21.5004C64.3001 21.5004 63.9001 21.5004 63.7001 21.3004C63.3001 20.9004 62.7001 20.7004 62.3001 20.3004C61.7001 20.1004 61.1001 19.7004 60.5001 19.5004C60.5001 20.7004 60.1001 21.7004 59.3001 22.3004C59.1001 22.9004 57.9001 23.3004 56.5001 23.3004ZM56.5001 20.5004C57.1001 20.5004 57.5001 20.3004 57.7001 20.1004C57.9001 19.9004 58.1001 19.5004 58.1001 19.1004V18.7004C57.5001 18.7004 57.1001 18.5004 56.5001 18.5004C55.9001 18.5004 55.7001 18.5004 55.3001 18.7004C55.1001 18.9004 54.9001 19.1004 54.9001 19.5004C55.1001 20.3004 55.5001 20.5004 56.5001 20.5004Z" fill="#010F32"/>
<path d="M89.3 22.7004C87.5 22.5004 85.9 21.9004 84.7 21.1004C83.5 20.3004 82.4999 19.3004 81.8999 18.1004C81.2999 16.9004 81.1 15.7004 81.1 14.5004C81.1 13.3004 81.2999 12.1004 81.8999 10.9004C82.4999 9.70039 83.1 8.9004 84.1 8.1004C83.1 8.3004 82.1 8.5004 81.1 8.5004C80.1 8.7004 78.8999 8.9004 77.8999 9.1004C76.8999 9.3004 75.9 9.5004 75.3 9.5004C74.9 9.5004 74.5 9.5004 74.3 9.3004C73.9 9.1004 73.9 8.7004 73.7 8.3004C73.7 7.9004 73.6999 7.5004 73.8999 7.3004C74.0999 6.9004 74.4999 6.90039 74.8999 6.70039C75.4999 6.70039 76.0999 6.5004 76.8999 6.3004C77.2999 6.1004 78.3 5.90039 79.3 5.70039C80.3 5.50039 81.3 5.3004 82.3 5.1004C83.3 5.1004 84.3 4.90039 85.3 4.70039C86.3 4.50039 87.3 4.3004 88.1 4.3004C88.9 4.1004 89.7 4.10039 90.1 3.90039C90.5 3.90039 90.9 3.9004 91.1 4.1004C91.5 4.3004 91.7 4.70039 91.7 4.90039C91.7 5.30039 91.7 5.70039 91.5 5.90039C91.3 6.10039 91.1 6.5004 90.7 6.5004C89.5 6.7004 88.5 7.1004 87.7 7.5004C86.9 8.1004 86.1 8.7004 85.5 9.3004C84.9 10.1004 84.5 10.7004 84.1 11.5004C83.9 12.3004 83.7 13.1004 83.7 13.9004C83.7 15.5004 84.3 16.7004 85.3 17.7004C86.3 18.7004 87.7 19.3004 89.7 19.5004C90.1 19.5004 90.3 19.7004 90.7 20.1004C90.9 20.5004 91.0999 20.7004 90.8999 21.1004C90.8999 21.5004 90.7 21.9004 90.3 22.1004C90.1 22.5004 89.7 22.7004 89.3 22.7004ZM92.5 12.7004C92.3 12.9004 92.1 12.9004 91.7 12.9004C91.5 12.9004 91.0999 12.7004 90.8999 12.5004C90.6999 12.3004 90.5 11.9004 90.3 11.7004C90.1 11.3004 89.7 11.1004 89.5 10.7004C89.3 10.7004 89.3 10.5004 89.3 10.3004C89.3 10.1004 89.5 9.90039 89.7 9.70039C89.9 9.50039 90.1 9.5004 90.3 9.5004C90.5 9.5004 90.6999 9.50039 90.8999 9.70039C91.0999 9.90039 91.5 10.1004 91.7 10.5004C92.1 10.9004 92.3 11.1004 92.5 11.5004C92.7 11.7004 92.7 11.9004 92.7 12.3004C92.7 12.3004 92.7 12.7004 92.5 12.7004ZM94.7 10.7004C94.5 10.9004 94.2999 11.1004 93.8999 10.9004C93.6999 10.9004 93.3 10.7004 93.1 10.5004C92.9 10.3004 92.7 10.1004 92.3 9.70039C92.1 9.30039 91.7 9.10039 91.5 8.90039C91.3 8.70039 91.3 8.5004 91.3 8.3004C91.3 8.1004 91.3 7.90039 91.5 7.70039C91.7 7.50039 91.9 7.5004 92.1 7.5004C92.3 7.5004 92.5 7.50039 92.7 7.70039C92.9 7.90039 93.3 8.1004 93.5 8.5004C93.9 8.9004 94.1 9.1004 94.3 9.3004C94.5 9.5004 94.5 9.7004 94.5 10.1004C95.1 10.3004 94.9 10.5004 94.7 10.7004Z" fill="#010F32"/>
<path d="M109.7 21.7008C109.3 21.7008 108.9 21.7008 108.5 21.5008C108.1 21.3008 107.9 20.9008 107.9 20.7008C107.9 20.3008 107.9 19.9008 108.1 19.7008C108.3 19.3008 108.7 19.1008 108.9 19.1008C110.7 18.7008 111.9 17.9008 112.9 16.9008C113.7 15.9008 114.1 14.5008 114.1 12.9008C114.1 11.9008 113.9 10.9008 113.5 10.1008C113.1 9.30078 112.5 8.70078 111.5 8.10078C110.5 7.50078 109.9 7.30078 108.7 7.10078C108.5 9.70078 107.9 12.1008 107.3 14.1008C106.7 16.1008 105.9 17.5008 104.9 18.7008C103.9 19.7008 103.1 20.3008 102.1 20.3008C101.3 20.3008 100.5 20.1008 99.7 19.5008C98.9 19.1008 98.5 18.3008 98.1 17.3008C97.7 16.3008 97.5 15.3008 97.5 13.9008C97.5 12.5008 97.7 11.3008 98.3 10.1008C98.9 8.90078 99.5 7.90078 100.5 7.10078C101.5 6.30078 102.5 5.50078 103.7 5.10078C104.9 4.70078 106.3 4.30078 107.9 4.30078C109.7 4.30078 111.3 4.70078 112.7 5.30078C114.1 5.90078 115.3 6.90078 116.1 8.30078C116.9 9.50078 117.3 10.9008 117.3 12.7008C117.3 15.1008 116.7 16.9008 115.5 18.5008C113.9 20.1008 112.1 21.1008 109.7 21.7008ZM101.9 17.3008C102.1 17.3008 102.5 17.1008 102.9 16.5008C103.3 15.9008 103.7 15.3008 104.1 14.5008C104.5 13.7008 104.9 12.5008 105.1 11.3008C105.5 10.1008 105.7 8.70078 105.9 7.30078C104.7 7.50078 103.7 8.10078 102.7 8.70078C101.9 9.30078 101.3 10.1008 100.7 11.1008C100.3 12.1008 100.1 13.1008 100.1 14.1008C100.1 15.1008 100.3 16.1008 100.7 16.5008C100.9 17.1008 101.5 17.3008 101.9 17.3008Z" fill="#010F32"/>
<path d="M11.3 52.5C10.9 52.5 10.5 52.3 10.3 52.1C10.1 51.9 9.89999 51.5 9.89999 51.1V46.7C8.29999 46.7 6.9 46.9 5.5 46.9C4.1 47.1 2.89999 47.1 1.89999 47.1C1.49999 47.1 1.09999 47.1 0.899994 46.7C0.699994 46.3 0.5 46.1 0.5 45.7C0.5 45.3 0.699994 44.9 0.899994 44.7C1.09999 44.5 1.49999 44.3 1.89999 44.3C2.69999 44.3 3.7 44.3 4.5 44.3C5.5 44.3 6.3 44.3 7.3 44.3C6.7 44.1 6.1 43.7 5.3 43.1C4.7 42.7 4.1 42.3 3.7 42.1C3.5 41.9 3.30001 41.7 3.10001 41.3C3.10001 40.9 3.1 40.7 3.3 40.3C3.5 39.9 3.70001 39.9 4.10001 39.7C4.50001 39.7 4.70001 39.7 5.10001 39.9C5.30001 40.1 5.5 40.1 5.7 40.3C5.9 40.5 6.1 40.5 6.5 40.7C6.7 40.5 6.9 40.3 7.3 39.9C7.7 39.5 7.90001 39.3 8.10001 38.9H7.3C6.1 38.9 5.1 38.7 4.3 38.5C3.5 38.3 3.09999 37.9 2.89999 37.3C2.69999 36.7 2.5 36.1 2.5 35.1V33.9C2.5 32.9 2.69999 32.3 2.89999 31.7C3.29999 31.5 3.7 31.1 4.5 30.9C5.3 30.7 6.1 30.5 7.5 30.5H15.1C16.3 30.5 17.3 30.7 18.1 30.9C18.9 31.1 19.3 31.5 19.5 32.1C19.7 32.7 19.9 33.3 19.9 34.3V35.5C19.9 36.3 19.7 37.1 19.5 37.7C19.3 38.3 18.7 38.7 18.1 38.9C17.3 39.1 16.3 39.1 15.1 39.1H15.3C15.3 39.1 15.5 39.1 15.5 39.3C15.7 39.5 15.9 39.9 15.9 40.1C15.9 40.5 15.9 40.7 15.5 41.1C15.3 41.3 14.9 41.7 14.7 41.9C14.3 42.3 13.9 42.5 13.5 42.9C13.1 43.3 12.7 43.7 12.3 43.9C13.1 43.9 13.9 43.9 14.5 43.9C15.3 43.9 15.9 43.9 16.5 43.9C16.3 43.7 16.3 43.7 16.1 43.5C15.9 43.3 15.9 43.3 15.9 43.3C15.7 43.1 15.5 42.7 15.5 42.5C15.5 42.3 15.7 41.9 15.9 41.7C16.1 41.5 16.5 41.3 16.9 41.3C17.3 41.3 17.5 41.5 17.9 41.7C18.3 42.1 18.7 42.3 19.1 42.9C19.5 43.3 19.9 43.7 20.5 44.3C20.9 44.7 21.3 45.1 21.7 45.5C21.9 45.9 22.1 46.1 21.9 46.5C21.9 46.9 21.7 47.1 21.3 47.3C21.1 47.5 20.7 47.7 20.3 47.7C19.9 47.7 19.7 47.5 19.5 47.3C19.3 47.1 19.3 47.1 19.1 46.9C18.9 46.7 18.9 46.5 18.7 46.5C17.9 46.5 16.9 46.7 15.9 46.7C14.9 46.7 13.7 46.9 12.7 46.9V51.1C12.7 51.5 12.5 51.9 12.3 52.1C11.9 52.5 11.5 52.5 11.3 52.5ZM3.7 51.9C3.3 52.1 2.9 52.1 2.5 52.1C2.1 52.1 1.9 51.7 1.7 51.3C1.5 50.9 1.5 50.5 1.7 50.3C1.9 49.9 2.1 49.7 2.5 49.5C2.9 49.3 3.29999 49.1 3.89999 48.9C4.29999 48.7 4.9 48.3 5.3 48.1C5.7 47.9 6.1 47.5 6.5 47.3C6.7 47.1 7.1 47.1 7.3 47.1C7.7 47.1 7.90001 47.3 8.10001 47.5C8.30001 47.9 8.5 48.1 8.3 48.5C8.3 48.9 8.1 49.1 7.7 49.3C7.3 49.5 6.9 49.9 6.3 50.1C5.7 50.5 5.3 50.7 4.7 50.9C4.5 51.3 4.1 51.7 3.7 51.9ZM5.3 33.9H9.7V32.7H7.3C6.5 32.7 6.1 32.7 5.7 32.9C5.5 33.1 5.3 33.5 5.3 33.9ZM7.3 37.1H9.7V35.7H5.3C5.3 36.3 5.5 36.7 5.7 36.7C5.9 36.7 6.5 37.1 7.3 37.1ZM9.89999 43.3C10.3 42.9 10.7 42.5 11.3 42.1C11.7 41.7 12.3 41.3 12.7 40.7C13.1 40.3 13.5 39.9 13.7 39.7C13.9 39.5 14.1 39.3 14.5 39.3H11.3C11.3 39.7 11.3 40.1 10.9 40.5C10.7 40.7 10.5 40.9 10.3 41.1C10.1 41.3 9.7 41.7 9.5 41.9C9.3 42.1 8.9 42.3 8.7 42.5C8.9 42.7 9.1 42.9 9.3 42.9C9.5 42.9 9.69999 43.1 9.89999 43.3ZM12.5 33.9H16.9C16.9 33.3 16.7 33.1 16.5 32.9C16.3 32.7 15.7 32.7 14.9 32.7H12.5V33.9ZM12.5 37.1H14.9C15.7 37.1 16.1 37.1 16.5 36.9C16.7 36.7 16.9 36.3 16.9 35.9H12.5V37.1ZM18.7 51.9C18.3 51.7 17.9 51.5 17.3 51.1C16.7 50.9 16.3 50.5 15.7 50.1C15.1 49.7 14.7 49.5 14.3 49.3C14.1 49.1 13.9 48.9 13.9 48.5C13.9 48.1 13.9 47.9 14.1 47.5C14.3 47.3 14.7 47.1 14.9 47.1C15.3 47.1 15.5 47.1 15.9 47.3C16.3 47.5 16.7 47.7 17.1 48.1C17.5 48.3 18.1 48.7 18.5 48.9C18.9 49.1 19.5 49.3 19.9 49.7C20.3 49.9 20.5 50.1 20.5 50.5C20.7 50.9 20.5 51.1 20.5 51.5C20.3 51.9 20.1 52.1 19.7 52.3C19.5 52.1 19.1 52.1 18.7 51.9Z" fill="#010F32"/>
<path d="M25.0999 36.9006C24.6999 36.9006 24.4999 36.7006 24.2999 36.5006C24.0999 36.3006 23.8999 36.1006 23.8999 35.7006C23.8999 35.3006 24.0999 35.1006 24.2999 34.9006C24.4999 34.7006 24.6999 34.5006 25.0999 34.5006H33.2999C33.6999 34.5006 33.8999 34.7006 34.0999 34.9006C34.2999 35.1006 34.4999 35.3006 34.4999 35.7006C34.4999 36.1006 34.2999 36.3006 34.0999 36.5006C33.8999 36.7006 33.6999 36.9006 33.2999 36.9006H25.0999ZM26.2999 40.3006C25.8999 40.3006 25.6999 40.1006 25.4999 39.9006C25.2999 39.7006 25.2999 39.5006 25.2999 39.1006C25.2999 38.7006 25.4999 38.5006 25.6999 38.3006C25.8999 38.1006 26.0999 37.9006 26.4999 37.9006H32.4999C32.8999 37.9006 33.0999 38.1006 33.2999 38.3006C33.2999 38.5006 33.2999 38.9006 33.2999 39.1006C33.2999 39.5006 33.0999 39.7006 32.8999 39.9006C32.6999 40.1006 32.4999 40.3006 32.0999 40.3006H26.2999ZM26.2999 43.7006C25.8999 43.7006 25.6999 43.5006 25.4999 43.3006C25.2999 43.1006 25.2999 42.9006 25.2999 42.5006C25.2999 42.1006 25.4999 41.9006 25.6999 41.7006C25.8999 41.5006 26.0999 41.3006 26.4999 41.3006H32.4999C32.8999 41.3006 33.0999 41.5006 33.2999 41.7006C33.4999 41.9006 33.6999 42.1006 33.6999 42.5006C33.6999 42.9006 33.4999 43.1006 33.2999 43.3006C33.0999 43.5006 32.8999 43.7006 32.4999 43.7006H26.2999ZM26.2999 33.5006C25.8999 33.5006 25.6999 33.3006 25.4999 33.1006C25.2999 32.9006 25.2999 32.7006 25.2999 32.3006C25.2999 31.9006 25.4999 31.7006 25.6999 31.5006C25.8999 31.3006 26.0999 31.1006 26.4999 31.1006H32.2999C32.6999 31.1006 32.8999 31.3006 33.0999 31.5006C33.2999 31.7006 33.4999 31.9006 33.4999 32.3006C33.4999 32.7006 33.2999 32.9006 33.0999 33.1006C32.8999 33.3006 32.6999 33.5006 32.2999 33.5006H26.2999ZM29.2999 52.1006C28.2999 52.1006 27.4999 51.9006 26.8999 51.7006C26.2999 51.5006 25.8999 51.1006 25.6999 50.5006C25.4999 49.9006 25.2999 49.3006 25.2999 48.3006C25.2999 47.3006 25.4999 46.7006 25.6999 46.1006C25.8999 45.5006 26.2999 45.3006 26.8999 44.9006C27.4999 44.7006 28.2999 44.5006 29.2999 44.5006C30.2999 44.5006 31.0999 44.7006 31.6999 44.9006C32.2999 45.1006 32.6999 45.5006 32.8999 46.1006C33.0999 46.7006 33.2999 47.3006 33.2999 48.3006C33.2999 49.1006 33.0999 49.9006 32.8999 50.5006C32.6999 51.1006 32.2999 51.5006 31.6999 51.7006C31.0999 51.9006 30.2999 52.1006 29.2999 52.1006ZM29.2999 49.7006C29.8999 49.7006 30.2999 49.7006 30.4999 49.5006C30.6999 49.3006 30.6999 48.9006 30.6999 48.3006C30.6999 47.7006 30.6999 47.3006 30.4999 47.1006C30.2999 47.1006 29.8999 47.1006 29.2999 47.1006C28.6999 47.1006 28.2999 47.1006 28.0999 47.3006C27.8999 47.5006 27.8999 47.9006 27.8999 48.5006C27.8999 49.1006 27.8999 49.5006 28.0999 49.7006C28.4999 49.7006 28.6999 49.7006 29.2999 49.7006ZM40.0999 52.5006C39.6999 52.5006 39.2999 52.3006 39.0999 52.1006C38.8999 51.9006 38.6999 51.5006 38.6999 51.1006V40.3006H35.2999C34.8999 40.3006 34.6999 40.1006 34.2999 39.9006C33.8999 39.7006 33.8999 39.3006 33.8999 38.9006C33.8999 38.5006 34.0999 38.3006 34.2999 37.9006C34.4999 37.5006 34.8999 37.5006 35.2999 37.5006H38.6999V31.5006C38.6999 31.1006 38.8999 30.7006 39.0999 30.5006C39.2999 30.3006 39.6999 30.1006 40.0999 30.1006C40.4999 30.1006 40.8999 30.3006 41.0999 30.5006C41.2999 30.7006 41.4999 31.1006 41.4999 31.5006V37.5006H45.2999C45.6999 37.5006 45.8999 37.7006 46.2999 37.9006C46.6999 38.1006 46.6999 38.5006 46.6999 38.9006C46.6999 39.3006 46.4999 39.5006 46.2999 39.9006C46.0999 40.3006 45.6999 40.3006 45.2999 40.3006H41.6999V51.1006C41.6999 51.5006 41.4999 51.9006 41.2999 52.1006C41.0999 52.3006 40.4999 52.5006 40.0999 52.5006Z" fill="#010F32"/>
<path d="M63.1001 52.7002C62.7001 52.7002 62.3001 52.7002 61.9001 52.3002C61.5001 52.1002 61.5001 51.7002 61.3001 51.3002C61.3001 50.9002 61.3001 50.5002 61.5001 50.1002C61.7001 49.7002 62.1001 49.7002 62.5001 49.5002C63.1001 49.5002 63.5001 49.3002 63.7001 49.3002C63.9001 49.1002 63.9001 48.9002 63.9001 48.5002V43.9002H49.3001C48.9001 43.9002 48.7001 43.7002 48.5001 43.5002C48.3001 43.3002 48.1001 42.9002 48.1001 42.7002C48.1001 42.3002 48.3001 42.1002 48.5001 41.9002C48.7001 41.7002 48.9001 41.5002 49.3001 41.5002H51.3001V41.3002V41.1002C51.3001 40.7002 51.3001 40.5002 51.5001 40.3002C51.7001 40.1002 51.9001 39.9002 52.3001 39.9002C54.3001 39.5002 55.7001 38.9002 56.5001 38.1002H53.3001C52.9001 38.1002 52.7001 37.9002 52.5001 37.7002C52.3001 37.5002 52.3001 37.3002 52.3001 36.9002C52.3001 36.5002 52.3001 36.3002 52.5001 36.1002C52.7001 35.9002 52.9001 35.7002 53.3001 35.7002H57.5001C57.5001 35.5002 57.5001 35.5002 57.5001 35.3002C57.5001 35.1002 57.5001 35.1002 57.5001 34.9002C57.5001 34.7002 57.5001 34.5002 57.7001 34.3002H52.9001C52.3001 34.3002 51.9001 34.3002 51.7001 34.5002C51.5001 34.7002 51.3001 35.1002 51.3001 35.5002V36.3002C51.3001 36.7002 51.1001 37.1002 50.9001 37.3002C50.7001 37.5002 50.3001 37.7002 49.9001 37.7002C49.5001 37.7002 49.3001 37.5002 48.9001 37.3002C48.7001 37.1002 48.5001 36.7002 48.5001 36.3002V35.5002C48.5001 34.3002 48.9001 33.5002 49.5001 32.9002C50.1001 32.3002 51.1001 32.1002 52.7001 32.1002H57.5001V31.1002C57.5001 30.7002 57.7001 30.3002 57.9001 30.1002C58.1001 29.9002 58.5001 29.7002 58.9001 29.7002C59.3001 29.7002 59.7001 29.9002 59.9001 30.1002C60.1001 30.3002 60.3001 30.7002 60.3001 31.1002V32.1002H65.1001C66.5001 32.1002 67.7001 32.3002 68.3001 32.9002C68.9001 33.5002 69.3001 34.3002 69.3001 35.5002V36.3002C69.3001 36.7002 69.1001 37.1002 68.9001 37.3002C68.7001 37.5002 68.3001 37.7002 67.9001 37.7002C67.5001 37.7002 67.3001 37.5002 66.9001 37.3002C66.7001 37.1002 66.5001 36.7002 66.5001 36.3002V35.5002C66.5001 35.1002 66.3001 34.7002 66.1001 34.5002C65.9001 34.3002 65.5001 34.3002 64.9001 34.3002H59.7001C59.9001 34.5002 59.9001 34.7002 59.9001 35.1002C59.9001 35.3002 59.9001 35.3002 59.9001 35.5002C59.9001 35.7002 59.9001 35.7002 59.9001 35.9002H64.9001C65.3001 35.9002 65.5001 36.1002 65.7001 36.3002C65.9001 36.5002 65.9001 36.7002 65.9001 37.1002C65.9001 37.5002 65.9001 37.7002 65.7001 37.9002C65.5001 38.1002 65.3001 38.3002 64.9001 38.3002H61.7001C62.3001 38.7002 62.9001 39.1002 63.7001 39.3002C64.5001 39.5002 65.3001 39.7002 66.1001 39.9002C66.5001 39.9002 66.7001 40.1002 66.9001 40.5002C67.1001 40.7002 67.1001 41.1002 66.9001 41.5002C66.9001 41.5002 66.9001 41.7002 66.7001 41.9002H68.9001C69.3001 41.9002 69.5001 42.1002 69.7001 42.3002C69.9001 42.5002 70.1001 42.9002 70.1001 43.1002C70.1001 43.5002 69.9001 43.7002 69.7001 43.9002C69.5001 44.1002 69.3001 44.3002 68.9001 44.3002H66.7001V49.7002C66.7001 50.9002 66.3001 51.7002 65.7001 52.3002C65.5001 52.5002 64.5001 52.7002 63.1001 52.7002ZM55.3001 51.1002C54.3001 51.1002 53.7001 51.1002 53.1001 50.9002C52.5001 50.7002 52.1001 50.3002 51.9001 49.9002C51.7001 49.5002 51.5001 48.9002 51.5001 48.1002C51.5001 47.3002 51.7001 46.7002 51.9001 46.3002C52.1001 45.9002 52.5001 45.5002 53.1001 45.3002C53.7001 45.1002 54.3001 45.1002 55.3001 45.1002H57.3001C58.3001 45.1002 59.1001 45.1002 59.5001 45.3002C60.1001 45.5002 60.3001 45.9002 60.7001 46.3002C60.9001 46.7002 61.1001 47.3002 61.1001 48.1002C61.1001 48.9002 60.9001 49.5002 60.7001 49.9002C60.5001 50.3002 60.1001 50.7002 59.5001 50.9002C59.1001 50.9002 58.3001 51.1002 57.3001 51.1002H55.3001ZM55.5001 48.7002H57.1001C57.5001 48.7002 57.7001 48.7002 57.9001 48.5002C58.1001 48.3002 58.1001 48.1002 58.1001 47.9002C58.1001 47.5002 58.1001 47.3002 57.9001 47.3002C57.9001 47.1002 57.5001 47.1002 57.1001 47.1002H55.5001C55.1001 47.1002 54.7001 47.1002 54.7001 47.3002C54.5001 47.5002 54.5001 47.7002 54.5001 47.9002C54.5001 48.3002 54.5001 48.5002 54.7001 48.5002C54.7001 48.7002 55.1001 48.7002 55.5001 48.7002ZM54.7001 41.7002H63.7001C62.9001 41.3002 62.1001 40.9002 61.3001 40.5002C60.5001 39.9002 59.9001 39.3002 59.3001 38.5002C58.9001 39.3002 58.3001 39.9002 57.5001 40.3002C56.7001 40.9002 55.7001 41.3002 54.7001 41.7002Z" fill="#010F32"/>
<path d="M77.1 52.5002C76.7 52.5002 76.3 52.3002 76.1 52.1002C75.9 51.9002 75.7 51.5002 75.7 51.1002V40.1002C75.1 40.7002 74.7 41.3002 74.1 41.9002C73.9 42.1002 73.5 42.3002 73.1 42.3002C72.7 42.3002 72.3 42.3002 72.1 41.9002C71.9 41.7002 71.7 41.3002 71.7 40.9002C71.7 40.5002 71.7 40.3002 72.1 39.9002C72.9 39.1002 73.5 38.1002 74.3 37.1002C75.1 36.1002 75.7 34.9002 76.3 33.9002C76.9 32.9002 77.3 31.7002 77.7 30.9002C77.9 30.5002 78.1 30.3002 78.5 30.1002C78.9 29.9002 79.1 29.9002 79.5 30.1002C79.9 30.3002 80.1 30.5002 80.3 30.7002C80.5 30.9002 80.5 31.3002 80.3 31.7002C80.1 32.3002 79.9 32.9002 79.5 33.5002C79.3 34.1002 78.9 34.7002 78.5 35.3002V51.1002C78.5 51.5002 78.3 51.9002 78.1 52.1002C77.9 52.3002 77.5 52.5002 77.1 52.5002ZM86.7 52.3002C86.3 52.3002 85.9 52.1002 85.5 51.9002C85.1 51.7002 85.1 51.3002 85.1 50.9002C85.1 50.5002 85.3 50.1002 85.5 49.9002C85.7 49.7002 86.1 49.5002 86.5 49.5002C87.3 49.5002 87.6999 49.3002 87.8999 49.1002C88.0999 48.9002 88.1 48.5002 88.1 48.1002V38.7002H80.7C80.3 38.7002 79.9 38.5002 79.7 38.3002C79.5 38.1002 79.3 37.5002 79.3 37.1002C79.3 36.7002 79.5 36.5002 79.7 36.1002C79.9 35.9002 80.3 35.7002 80.7 35.7002H88.1V31.7002C88.1 31.3002 88.3 30.9002 88.5 30.7002C88.7 30.5002 89.1 30.3002 89.5 30.3002C89.9 30.3002 90.3 30.5002 90.5 30.7002C90.7 30.9002 90.8999 31.3002 90.8999 31.7002V35.7002H93.1C93.5 35.7002 93.9 35.9002 94.1 36.1002C94.3 36.3002 94.5 36.7002 94.5 37.1002C94.5 37.5002 94.3 37.7002 94.1 38.1002C93.9 38.3002 93.5 38.5002 93.1 38.5002H90.8999V48.5002C90.8999 49.5002 90.7 50.3002 90.5 50.9002C90.3 51.5002 89.7 51.9002 89.1 52.1002C88.5 52.3002 87.7 52.3002 86.7 52.3002ZM85.7 45.7002C85.3 45.9002 84.9 46.1002 84.5 45.9002C84.1 45.9002 83.7 45.7002 83.5 45.3002C83.3 45.1002 83.0999 44.7002 82.8999 44.3002C82.6999 43.9002 82.3 43.5002 82.1 43.1002C81.9 42.7002 81.5 42.5002 81.3 42.1002C81.1 41.9002 80.9 41.5002 81.1 41.1002C81.1 40.7002 81.3 40.5002 81.7 40.3002C82.1 40.1002 82.3 39.9002 82.7 39.9002C83.1 39.9002 83.5 40.1002 83.7 40.3002C83.9 40.5002 84.1 40.9002 84.5 41.3002C84.9 41.7002 85.1 42.1002 85.3 42.5002C85.5 42.9002 85.8999 43.3002 85.8999 43.5002C86.0999 43.9002 86.3 44.3002 86.1 44.7002C86.1 45.3002 85.9 45.5002 85.7 45.7002Z" fill="#010F32"/>
<path d="M108.1 52.1006C107.7 52.3006 107.5 52.5006 107.1 52.3006C106.7 52.3006 106.5 52.1006 106.1 51.7006C105.9 51.5006 105.9 51.1006 105.9 50.9006C105.9 50.5006 106.1 50.3006 106.3 50.1006C106.7 49.9006 107.1 49.5006 107.5 49.3006C107.9 48.9006 108.3 48.7006 108.7 48.3006C109.1 47.9006 109.3 47.7006 109.7 47.5006C109.9 47.3006 110.1 47.1006 110.5 47.1006C109.7 47.1006 109.1 46.7006 108.7 46.3006C108.3 45.9006 108.1 45.3006 108.1 44.7006C107.9 45.1006 107.7 45.3006 107.5 45.3006C107.1 45.5006 106.9 45.3006 106.5 45.3006C105.7 45.1006 104.9 44.7006 104.3 44.3006C103.5 43.9006 102.9 43.5006 102.3 42.9006C101.1 44.1006 99.4999 44.9006 97.8999 45.7006C97.4999 45.9006 97.2999 45.9006 96.8999 45.9006C96.4999 45.9006 96.2999 45.7006 96.2999 45.3006C96.0999 45.1006 96.0999 44.7006 96.2999 44.5006C96.2999 44.1006 96.4999 43.9006 96.8999 43.9006C97.6999 43.5006 98.2999 43.1006 98.8999 42.7006C99.4999 42.3006 100.1 41.9006 100.7 41.5006C100.5 41.3006 100.3 41.1006 100.1 40.9006C99.8999 40.7006 99.6999 40.5006 99.4999 40.3006C99.2999 40.5006 99.0999 40.5006 99.0999 40.7006C98.8999 40.9006 98.8999 40.9006 98.6999 41.1006C98.4999 41.3006 98.0999 41.5006 97.6999 41.5006C97.2999 41.5006 97.0999 41.3006 96.8999 41.1006C96.6999 40.9006 96.6999 40.7006 96.6999 40.3006C96.6999 39.9006 96.8999 39.7006 97.0999 39.7006C97.4999 39.3006 97.8999 38.9006 98.4999 38.5006C99.0999 38.1006 99.2999 37.5006 99.6999 36.9006C100.1 36.3006 100.3 35.9006 100.7 35.5006C100.9 35.1006 101.1 35.1006 101.5 34.9006C101.9 34.9006 102.1 34.9006 102.5 35.1006C102.7 35.3006 102.9 35.5006 103.1 35.7006C103.1 35.9006 103.1 36.3006 102.9 36.5006C102.9 36.5006 102.9 36.5006 102.9 36.7006C102.9 36.7006 102.9 36.7006 102.9 36.9006H104.5C105.1 36.9006 105.5 37.1006 105.9 37.3006C106.3 37.5006 106.5 37.9006 106.5 38.3006C106.5 38.7006 106.5 39.1006 106.1 39.5006C105.9 39.9006 105.7 40.1006 105.3 40.5006C105.1 40.9006 104.7 41.1006 104.5 41.5006C105.7 42.3006 106.9 42.9006 108.1 43.3006C108.3 43.3006 108.3 43.5006 108.5 43.5006C108.7 43.7006 108.7 43.7006 108.7 43.9006V37.7006C108.7 36.7006 108.9 36.1006 109.3 35.5006C109.7 35.1006 110.5 34.7006 111.5 34.7006C111.5 34.5006 111.7 34.1006 111.7 33.9006C111.9 33.5006 111.9 33.3006 111.9 33.1006H108.5C108.1 33.1006 107.9 32.9006 107.7 32.7006C107.5 32.5006 107.3 32.3006 107.3 31.9006C107.3 31.5006 107.5 31.3006 107.7 31.1006C107.3 31.1006 107.5 31.1006 107.9 31.1006H117.5C117.9 31.1006 118.1 31.3006 118.3 31.5006C118.5 31.7006 118.7 31.9006 118.7 32.3006C118.7 32.7006 118.5 32.9006 118.3 33.1006C118.1 33.3006 117.9 33.5006 117.5 33.5006H114.1C114.1 33.7006 113.9 34.1006 113.9 34.3006C113.7 34.5006 113.7 34.9006 113.7 35.1006H113.9C115.3 35.1006 116.1 35.3006 116.7 35.7006C117.3 36.1006 117.5 36.9006 117.5 38.1006V44.5006C117.5 45.5006 117.3 46.1006 116.9 46.5006C116.5 46.9006 115.9 47.3006 114.9 47.3006C115.1 47.3006 115.3 47.5006 115.5 47.5006C115.9 47.9006 116.3 48.3006 116.9 48.7006C117.5 49.1006 118.1 49.7006 118.7 49.9006C118.9 50.1006 119.1 50.3006 119.1 50.7006C119.1 51.1006 119.1 51.3006 118.9 51.7006C118.7 52.1006 118.3 52.3006 117.9 52.3006C117.5 52.3006 117.1 52.3006 116.9 51.9006C116.3 51.5006 115.9 51.1006 115.1 50.5006C114.5 49.9006 113.9 49.5006 113.5 48.9006C113.3 48.7006 113.1 48.3006 113.3 48.1006C113.3 47.7006 113.5 47.5006 113.7 47.3006C113.7 47.3006 113.7 47.3006 113.9 47.3006C114.1 47.3006 113.9 47.3006 114.1 47.3006H111.9H111.7H111.5C111.7 47.3006 111.9 47.5006 111.9 47.5006C112.1 47.7006 112.3 47.9006 112.3 48.3006C112.3 48.7006 112.3 48.9006 112.1 49.1006C111.7 49.7006 111.1 50.1006 110.5 50.7006C109.3 51.3006 108.7 51.7006 108.1 52.1006ZM97.6999 36.9006C97.2999 36.9006 97.0999 36.9006 96.8999 36.7006C96.6999 36.5006 96.4999 36.3006 96.4999 35.9006V34.9006C96.4999 34.1006 96.6999 33.5006 97.0999 33.1006C97.4999 32.7006 98.0999 32.5006 99.0999 32.5006H100.7V31.5006C100.7 31.1006 100.9 30.7006 101.1 30.5006C101.3 30.3006 101.7 30.1006 102.1 30.1006C102.5 30.1006 102.7 30.3006 103.1 30.5006C103.3 30.7006 103.5 31.1006 103.5 31.5006V32.5006H104.9C105.7 32.5006 106.5 32.7006 106.9 33.1006C107.3 33.5006 107.5 34.1006 107.5 34.9006V35.9006C107.5 36.3006 107.3 36.5006 107.1 36.7006C106.9 36.9006 106.7 36.9006 106.3 36.9006C105.9 36.9006 105.7 36.9006 105.5 36.7006C105.3 36.5006 105.1 36.3006 105.1 35.9006V35.5006C105.1 34.9006 104.7 34.7006 104.1 34.7006H99.8999C99.4999 34.7006 99.2999 34.7006 99.0999 34.9006C98.8999 35.1006 98.8999 35.3006 98.8999 35.5006V35.9006C98.8999 36.3006 98.6999 36.5006 98.4999 36.7006C98.2999 36.7006 97.8999 36.9006 97.6999 36.9006ZM102.1 51.9006C101.1 51.9006 100.3 51.7006 99.8999 51.5006C99.2999 51.3006 98.8999 50.9006 98.6999 50.5006C98.4999 49.9006 98.2999 49.3006 98.2999 48.5006C98.2999 47.5006 98.4999 46.9006 98.6999 46.3006C98.8999 45.9006 99.2999 45.5006 99.8999 45.3006C100.5 45.1006 101.3 45.1006 102.1 45.1006C103.1 45.1006 103.9 45.1006 104.3 45.3006C104.9 45.5006 105.3 45.9006 105.5 46.3006C105.7 46.7006 105.9 47.5006 105.9 48.5006C105.9 49.3006 105.7 50.1006 105.5 50.5006C105.3 51.1006 104.9 51.3006 104.3 51.5006C103.7 51.7006 102.9 51.9006 102.1 51.9006ZM101.9 40.1006C102.1 39.9006 102.1 39.9006 102.3 39.7006C102.3 39.5006 102.5 39.5006 102.7 39.3006C102.9 39.1006 102.9 38.9006 102.9 38.7006C102.9 38.5006 102.7 38.5006 102.3 38.5006H100.7C100.9 38.7006 101.1 38.9006 101.3 39.3006C101.5 39.7006 101.7 39.9006 101.9 40.1006ZM102.1 49.7006C102.7 49.7006 103.1 49.7006 103.3 49.5006C103.5 49.3006 103.5 48.9006 103.5 48.3006C103.5 47.7006 103.5 47.3006 103.3 47.1006C103.1 46.9006 102.7 46.9006 102.1 46.9006C101.5 46.9006 101.3 46.9006 101.1 47.1006C100.9 47.3006 100.9 47.7006 100.9 48.3006C100.9 48.9006 100.9 49.3006 101.1 49.5006C101.1 49.7006 101.5 49.7006 102.1 49.7006ZM110.5 38.5006H114.7C114.7 37.9006 114.7 37.7006 114.5 37.5006C114.3 37.3006 113.7 37.1006 113.1 37.1006H111.9C111.3 37.1006 110.9 37.1006 110.7 37.3006C110.7 37.5006 110.5 37.9006 110.5 38.5006ZM110.5 41.7006H114.7V40.5006H110.5V41.7006ZM112.1 45.1006H113.3C113.9 45.1006 114.3 45.1006 114.5 44.9006C114.7 44.7006 114.7 44.5006 114.7 43.9006V43.7006H110.5V43.9006C110.5 44.5006 110.7 44.7006 110.9 44.9006C111.1 45.1006 111.5 45.1006 112.1 45.1006Z" fill="#010F32"/>
<path d="M470.7 52.5C470.3 52.5 469.9 52.3 469.7 52.1C469.5 51.9 469.3 51.5 469.3 51.1V37.5C469.3 36.3 469.5 35.3 469.7 34.5C469.9 33.7 470.3 33.1 470.7 32.7C471.3 32.3 471.9 31.9 472.7 31.7C473.5 31.5 474.7 31.5 476.1 31.5H481.7C483.1 31.5 484.1 31.5 485.1 31.7C485.9 31.9 486.7 32.1 487.1 32.7C487.7 33.1 487.9 33.7 488.1 34.5C488.3 35.3 488.5 36.3 488.5 37.5V47.9C488.5 49.1 488.3 50.1 488.1 50.7C487.9 51.3 487.3 51.9 486.7 52.1C486.1 52.3 485.3 52.5 484.1 52.5C483.7 52.5 483.1 52.5 482.9 52.1C482.5 51.9 482.3 51.5 482.3 51.1C482.3 50.7 482.3 50.3 482.7 49.9C482.9 49.5 483.3 49.5 483.7 49.5C484.3 49.5 484.7 49.3 484.9 49.3C485.1 49.1 485.3 48.9 485.5 48.7C485.5 48.3 485.7 47.9 485.7 47.5V42.9H472.3V51.1C472.3 51.5 472.1 51.9 471.9 52.1C471.5 52.3 471.1 52.5 470.7 52.5ZM472.1 40.1H477.3V33.9H475.9C474.9 33.9 473.9 33.9 473.5 34.1C473.1 34.3 472.5 34.5 472.3 35.1C472.1 35.5 472.1 36.3 472.1 37.3V40.1ZM480.3 40.1H485.7V37.3C485.7 36.3 485.5 35.5 485.3 35.1C485.1 34.7 484.7 34.3 484.1 34.1C483.5 33.9 482.7 33.9 481.7 33.9H480.3V40.1Z" fill="#010F32"/>
<path d="M170.1 43.9C172.1 43.9 173.1 45.5 173.1 47.7C173.1 49.9 172.1 51.7 170.1 51.7H140.9C138.1 51.7 136.5 49.9 136.5 46.9C136.5 44.7 137.9 41.5 139.3 39.3C141.3 35.7 144.7 31.9 150.7 27.9L154.5 25.3C160.5 21.3 163.7 19.1 163.7 14.5C163.7 10.3 160.3 7.89999 155.3 7.89999C149.1 7.89999 147.1 11.3 145.9 15.3C145.5 17.1 143.9 17.9 142.3 17.9C141.9 17.9 141.3 17.9 140.9 17.7C138.9 17.3 137.5 16.1 137.5 14.1C137.5 13.7 137.5 13.3 137.7 12.7C138.3 10.1 139.7 7.5 141.7 5.7C144.9 2.5 149.1 0.5 155.7 0.5C166.1 0.5 172.5 5.7 172.5 14.3C172.5 22.1 168.1 25.5 161.7 29.5L158.1 31.7C151.7 35.7 148.1 39.1 146.5 43.5H170.1V43.9Z" fill="#DF4220"/>
<path d="M189.3 55.8996C187.9 58.0996 186.1 59.4996 183.9 60.6996C183.5 60.8996 183.3 60.8996 183.1 60.8996C182.3 60.8996 181.5 60.4996 181.3 59.8996C181.1 59.4996 180.9 59.0996 180.9 58.6996C180.9 58.0996 181.3 57.2996 181.9 57.0996C183.1 56.4996 184.3 55.6996 185.1 54.8996C185.7 54.2996 186.3 53.2996 186.5 52.2996C186.5 52.0996 186.3 51.8996 186.1 51.8996C186.1 51.8996 186.1 51.8996 185.9 51.8996C185.5 51.8996 185.3 51.8996 185.1 51.8996C182.9 51.8996 180.5 50.2996 180.5 47.0996C180.5 44.4996 182.3 42.0996 185.5 42.0996C188.5 42.0996 191.3 44.2996 191.3 48.6996C191.1 51.6996 190.3 54.0996 189.3 55.8996Z" fill="#DF4220"/>
<path d="M219.1 18.9002C228.9 18.9002 235.5 25.5002 235.5 35.3002C235.5 45.5002 228.7 52.7002 217.9 52.7002C205.7 52.7002 198.5 43.7002 198.5 27.5002C198.5 11.1002 204.7 0.700195 218.1 0.700195C226.3 0.700195 230.9 4.7002 233.3 9.5002C233.5 9.9002 233.7 10.5002 233.7 10.9002C233.7 12.3002 232.5 13.5002 231.1 14.1002C230.5 14.3002 229.7 14.5002 229.1 14.5002C227.7 14.5002 226.5 14.1002 226.1 12.7002C224.7 9.7002 222.5 7.90019 217.9 7.90019C213.9 7.90019 210.7 9.7002 208.9 13.7002C207.5 16.7002 206.7 19.5002 206.5 25.1002C209.3 21.1002 213.5 18.9002 219.1 18.9002ZM207.9 35.5002C207.9 41.3002 212.1 45.5002 217.7 45.5002C223.5 45.5002 227.5 41.5002 227.5 35.3002C227.5 29.5002 223.7 25.7002 217.9 25.7002C212.1 25.7002 207.9 29.9002 207.9 35.5002Z" fill="#DF4220"/>
<path d="M278.3 26.7004C278.3 43.7004 271.5 52.7004 259.3 52.7004C246.7 52.7004 240.3 43.7004 240.3 26.5004C240.3 9.9004 247.1 0.900391 259.3 0.900391C271.1 0.900391 278.3 8.90041 278.3 26.7004ZM248.7 26.5004C248.7 38.5004 252.1 45.1004 259.3 45.1004C266.5 45.1004 269.7 38.7004 269.7 26.5004C269.7 14.7004 266.5 8.3004 259.3 8.3004C252.1 8.3004 248.7 14.7004 248.7 26.5004Z" fill="#DF4220"/>
<path d="M286.1 9.7002C283.9 9.7002 282.9 7.9002 282.9 5.7002C282.9 3.5002 284.1 1.7002 286.1 1.7002H315.7C318.5 1.7002 319.9 3.3002 319.9 5.7002C319.9 8.9002 318.9 9.90019 317.5 11.9002C310.7 21.3002 305.3 34.1002 302.7 48.1002C302.1 51.1002 300.5 51.9002 297.9 51.9002C295.3 51.9002 293.3 50.5002 293.3 48.3002C293.3 47.9002 293.3 47.7002 293.5 47.3002C296.1 35.1002 301.3 21.7002 309.9 9.5002L286.1 9.7002Z" fill="#DF4220"/>
<path d="M335.7 55.8996C334.3 58.0996 332.5 59.4996 330.3 60.6996C329.9 60.8996 329.7 60.8996 329.5 60.8996C328.7 60.8996 327.9 60.4996 327.7 59.8996C327.5 59.4996 327.3 59.0996 327.3 58.6996C327.3 58.0996 327.7 57.2996 328.3 57.0996C329.5 56.4996 330.7 55.6996 331.5 54.8996C332.1 54.2996 332.7 53.2996 332.9 52.2996C332.9 52.0996 332.7 51.8996 332.5 51.8996C332.5 51.8996 332.5 51.8996 332.3 51.8996C331.9 51.8996 331.7 51.8996 331.5 51.8996C329.3 51.8996 326.9 50.2996 326.9 47.0996C326.9 44.4996 328.7 42.0996 331.9 42.0996C334.9 42.0996 337.7 44.2996 337.7 48.6996C337.7 51.6996 336.9 54.0996 335.7 55.8996Z" fill="#DF4220"/>
<path d="M365.7 18.9002C375.5 18.9002 382.1 25.5002 382.1 35.3002C382.1 45.5002 375.3 52.7002 364.5 52.7002C352.3 52.7002 345.1 43.7002 345.1 27.5002C345.1 11.1002 351.3 0.700195 364.7 0.700195C372.9 0.700195 377.5 4.7002 379.9 9.5002C380.1 9.9002 380.3 10.5002 380.3 10.9002C380.3 12.3002 379.1 13.5002 377.7 14.1002C377.1 14.3002 376.3 14.5002 375.7 14.5002C374.3 14.5002 373.1 14.1002 372.7 12.7002C371.3 9.7002 369.1 7.90019 364.5 7.90019C360.5 7.90019 357.3 9.7002 355.5 13.7002C354.1 16.7002 353.3 19.5002 353.1 25.1002C355.9 21.1002 360.1 18.9002 365.7 18.9002ZM354.5 35.5002C354.5 41.3002 358.7 45.5002 364.3 45.5002C370.1 45.5002 374.1 41.5002 374.1 35.3002C374.1 29.5002 370.3 25.7002 364.5 25.7002C358.5 25.7002 354.5 29.9002 354.5 35.5002Z" fill="#DF4220"/>
<path d="M403.7 34.7002C394.1 34.7002 387.1 28.1002 387.1 17.9002C387.1 8.50019 393.1 0.700195 405.1 0.700195C416.9 0.700195 424.1 9.1002 424.1 25.5002C424.1 43.3002 417.9 52.7002 404.7 52.7002C395.3 52.7002 390.9 48.5002 389.1 44.7002C388.9 44.1002 388.7 43.7002 388.7 43.1002C388.7 41.7002 389.5 40.3002 391.1 39.7002C391.9 39.3002 392.7 39.1002 393.5 39.1002C394.7 39.1002 395.7 39.5002 396.5 40.7002C397.9 43.1002 400.3 45.5002 404.9 45.5002C412.9 45.5002 415.9 37.7002 416.1 28.3002C413.3 32.5002 409.5 34.7002 403.7 34.7002ZM395.1 17.9002C395.1 24.1002 399.1 27.7002 404.9 27.7002C410.7 27.7002 414.9 23.7002 414.9 17.9002C414.9 12.1002 410.9 7.90019 404.9 7.90019C399.1 7.90019 395.1 11.9002 395.1 17.9002Z" fill="#DF4220"/>
<path d="M454.1 48.5002C454.1 50.7002 452.5 52.1002 449.9 52.1002C447.3 52.1002 445.7 50.9002 445.7 48.7002V11.5002C445.7 10.3002 445.3 9.90019 444.3 9.90019H444.1L438.3 10.1002C436.1 10.1002 434.7 8.3002 434.7 6.1002C434.7 3.9002 436.1 2.10019 438.3 1.90019L447.3 1.7002C447.5 1.7002 447.7 1.7002 447.9 1.7002C452.9 1.7002 454.3 3.3002 454.3 8.7002L454.1 48.5002Z" fill="#DF4220"/>
</svg>
