<svg width="616" height="62" viewBox="0 0 616 62" fill="none" xmlns="http://www.w3.org/2000/svg">
<path d="M180.192 22.152C179.792 22.152 179.472 22.024 179.232 21.768C179.008 21.512 178.896 21.208 178.896 20.856C178.896 20.488 179.008 20.184 179.232 19.944C179.472 19.688 179.792 19.56 180.192 19.56H187.536V16.944H182.784C182.384 16.944 182.064 16.816 181.824 16.56C181.584 16.288 181.464 15.976 181.464 15.624C181.464 15.256 181.584 14.944 181.824 14.688C182.064 14.432 182.384 14.304 182.784 14.304H187.536V12.072H182.904C182.504 12.072 182.176 11.944 181.92 11.688C181.68 11.416 181.56 11.096 181.56 10.728C181.56 10.552 181.6 10.368 181.68 10.176C181.36 10.432 181.04 10.672 180.72 10.896C180.4 11.104 180.088 11.304 179.784 11.496C179.384 11.752 178.976 11.864 178.56 11.832C178.144 11.8 177.816 11.608 177.576 11.256C177.336 10.888 177.272 10.52 177.384 10.152C177.512 9.784 177.752 9.488 178.104 9.264C179.048 8.704 180.032 8.032 181.056 7.248C182.096 6.464 183.088 5.656 184.032 4.824C184.992 3.976 185.808 3.192 186.48 2.472C187.312 1.576 188.136 1.12 188.952 1.104C189.784 1.088 190.688 1.552 191.664 2.496C192.352 3.152 193.144 3.864 194.04 4.632C194.952 5.384 195.912 6.128 196.92 6.864C197.944 7.584 198.952 8.224 199.944 8.784C200.296 8.976 200.528 9.28 200.64 9.696C200.768 10.096 200.72 10.472 200.496 10.824C200.24 11.224 199.888 11.456 199.44 11.52C199.008 11.568 198.584 11.464 198.168 11.208C197.176 10.568 196.16 9.864 195.12 9.096C194.096 8.312 193.112 7.504 192.168 6.672C191.24 5.84 190.424 5.04 189.72 4.272C189.288 3.808 188.848 3.824 188.4 4.32C187.696 5.072 186.832 5.904 185.808 6.816C184.784 7.728 183.744 8.6 182.688 9.432C182.736 9.416 182.808 9.408 182.904 9.408H195.048C195.448 9.408 195.768 9.536 196.008 9.792C196.248 10.048 196.368 10.36 196.368 10.728C196.368 11.096 196.248 11.416 196.008 11.688C195.768 11.944 195.448 12.072 195.048 12.072H190.536V14.304H195.192C195.592 14.304 195.904 14.432 196.128 14.688C196.368 14.944 196.488 15.256 196.488 15.624C196.488 15.976 196.368 16.288 196.128 16.56C195.904 16.816 195.592 16.944 195.192 16.944H190.536V19.56H197.832C198.232 19.56 198.544 19.688 198.768 19.944C199.008 20.184 199.128 20.488 199.128 20.856C199.128 21.208 199.008 21.512 198.768 21.768C198.544 22.024 198.232 22.152 197.832 22.152H180.192ZM209.928 22.536C208.168 22.536 206.752 22.352 205.68 21.984C204.624 21.616 203.864 20.96 203.4 20.016C202.936 19.072 202.704 17.744 202.704 16.032V7.752C202.704 6.024 202.936 4.688 203.4 3.744C203.864 2.8 204.624 2.144 205.68 1.776C206.752 1.408 208.168 1.224 209.928 1.224H216.072C217.848 1.224 219.264 1.408 220.32 1.776C221.376 2.144 222.136 2.8 222.6 3.744C223.064 4.688 223.296 6.024 223.296 7.752V16.032C223.296 17.744 223.064 19.072 222.6 20.016C222.136 20.96 221.376 21.616 220.32 21.984C219.264 22.352 217.848 22.536 216.072 22.536H209.928ZM209.928 20.016H216.072C217.16 20.016 218.024 19.912 218.664 19.704C219.304 19.496 219.76 19.104 220.032 18.528C220.32 17.952 220.464 17.12 220.464 16.032V7.752C220.464 6.664 220.32 5.832 220.032 5.256C219.76 4.68 219.304 4.288 218.664 4.08C218.024 3.872 217.16 3.768 216.072 3.768H209.928C208.84 3.768 207.976 3.872 207.336 4.08C206.696 4.288 206.232 4.68 205.944 5.256C205.672 5.832 205.536 6.664 205.536 7.752V16.032C205.536 17.12 205.672 17.952 205.944 18.528C206.232 19.104 206.696 19.496 207.336 19.704C207.976 19.912 208.84 20.016 209.928 20.016ZM207.576 18.168C207.208 18.168 206.92 18.048 206.712 17.808C206.504 17.568 206.4 17.288 206.4 16.968C206.4 16.648 206.504 16.368 206.712 16.128C206.92 15.888 207.208 15.768 207.576 15.768H211.56V12.48H208.536C208.184 12.48 207.896 12.36 207.672 12.12C207.464 11.88 207.36 11.6 207.36 11.28C207.36 10.96 207.464 10.688 207.672 10.464C207.896 10.224 208.184 10.104 208.536 10.104H211.56V7.872H207.912C207.56 7.872 207.272 7.752 207.048 7.512C206.84 7.272 206.736 6.992 206.736 6.672C206.736 6.352 206.84 6.072 207.048 5.832C207.272 5.592 207.56 5.472 207.912 5.472H218.04C218.408 5.472 218.696 5.592 218.904 5.832C219.112 6.072 219.216 6.352 219.216 6.672C219.216 6.992 219.112 7.272 218.904 7.512C218.696 7.752 218.408 7.872 218.04 7.872H214.344V10.104H217.392C217.76 10.104 218.048 10.224 218.256 10.464C218.464 10.688 218.568 10.96 218.568 11.28C218.568 11.6 218.464 11.88 218.256 12.12C218.048 12.36 217.76 12.48 217.392 12.48H216.864C216.976 12.528 217.08 12.6 217.176 12.696C217.256 12.76 217.384 12.88 217.56 13.056C217.736 13.216 217.912 13.384 218.088 13.56C218.28 13.72 218.408 13.84 218.472 13.92C218.696 14.144 218.8 14.424 218.784 14.76C218.768 15.08 218.64 15.352 218.4 15.576C218.336 15.64 218.24 15.704 218.112 15.768H218.448C218.816 15.768 219.104 15.888 219.312 16.128C219.52 16.368 219.624 16.648 219.624 16.968C219.624 17.288 219.52 17.568 219.312 17.808C219.104 18.048 218.816 18.168 218.448 18.168H207.576ZM214.344 15.768H217.152C217.04 15.72 216.936 15.648 216.84 15.552C216.776 15.472 216.64 15.344 216.432 15.168C216.24 14.976 216.048 14.792 215.856 14.616C215.664 14.424 215.528 14.288 215.448 14.208C215.224 14 215.12 13.744 215.136 13.44C215.152 13.12 215.272 12.856 215.496 12.648C215.528 12.616 215.568 12.584 215.616 12.552C215.664 12.52 215.704 12.496 215.736 12.48H214.344V15.768ZM239.568 20.928C239.168 21.024 238.792 20.968 238.44 20.76C238.088 20.552 237.864 20.256 237.768 19.872C237.672 19.488 237.728 19.128 237.936 18.792C238.144 18.44 238.44 18.216 238.824 18.12C240.6 17.656 241.904 16.904 242.736 15.864C243.584 14.824 244.008 13.504 244.008 11.904C244.008 10.896 243.784 9.992 243.336 9.192C242.888 8.392 242.248 7.744 241.416 7.248C240.6 6.752 239.616 6.448 238.464 6.336C238.176 9.024 237.688 11.352 237 13.32C236.328 15.272 235.528 16.784 234.6 17.856C233.688 18.912 232.728 19.44 231.72 19.44C230.872 19.44 230.096 19.192 229.392 18.696C228.688 18.2 228.128 17.488 227.712 16.56C227.312 15.632 227.112 14.52 227.112 13.224C227.112 11.896 227.36 10.656 227.856 9.504C228.368 8.336 229.088 7.312 230.016 6.432C230.944 5.552 232.032 4.864 233.28 4.368C234.544 3.872 235.928 3.624 237.432 3.624C239.256 3.624 240.872 3.976 242.28 4.68C243.704 5.368 244.824 6.336 245.64 7.584C246.456 8.816 246.864 10.256 246.864 11.904C246.864 14.224 246.24 16.16 244.992 17.712C243.76 19.248 241.952 20.32 239.568 20.928ZM231.744 16.488C232.032 16.488 232.36 16.248 232.728 15.768C233.112 15.272 233.496 14.576 233.88 13.68C234.264 12.784 234.616 11.728 234.936 10.512C235.256 9.28 235.496 7.92 235.656 6.432C234.408 6.672 233.36 7.136 232.512 7.824C231.664 8.496 231.024 9.304 230.592 10.248C230.16 11.176 229.936 12.152 229.92 13.176C229.92 14.264 230.088 15.088 230.424 15.648C230.776 16.208 231.216 16.488 231.744 16.488ZM263.04 22.392C261.376 22.392 260.184 22.064 259.464 21.408C258.76 20.768 258.408 19.648 258.408 18.048V13.944C258.408 12.36 258.76 11.24 259.464 10.584C260.184 9.928 261.376 9.6 263.04 9.6H266.544C268.208 9.6 269.392 9.928 270.096 10.584C270.816 11.24 271.176 12.36 271.176 13.944V18.048C271.176 19.648 270.816 20.768 270.096 21.408C269.392 22.064 268.208 22.392 266.544 22.392H263.04ZM252.936 22.752C252.472 22.8 252.08 22.72 251.76 22.512C251.44 22.32 251.24 22.032 251.16 21.648C251.08 21.216 251.144 20.84 251.352 20.52C251.56 20.2 251.872 20.024 252.288 19.992C252.88 19.928 253.352 19.784 253.704 19.56C254.056 19.336 254.312 18.928 254.472 18.336C254.648 17.728 254.736 16.84 254.736 15.672C254.736 14.92 254.712 14.224 254.664 13.584C254.312 14.096 253.944 14.6 253.56 15.096C253.192 15.592 252.84 16.024 252.504 16.392C252.248 16.68 251.928 16.848 251.544 16.896C251.176 16.944 250.832 16.84 250.512 16.584C250.224 16.36 250.072 16.072 250.056 15.72C250.04 15.368 250.152 15.064 250.392 14.808C250.808 14.36 251.248 13.848 251.712 13.272C252.176 12.68 252.616 12.08 253.032 11.472C253.464 10.864 253.816 10.312 254.088 9.816C254.008 9.496 253.912 9.192 253.8 8.904C253.704 8.6 253.6 8.304 253.488 8.016C253.056 8.464 252.64 8.88 252.24 9.264C251.968 9.52 251.648 9.648 251.28 9.648C250.912 9.648 250.592 9.52 250.32 9.264C250.064 9.008 249.936 8.704 249.936 8.352C249.952 7.984 250.088 7.688 250.344 7.464C250.952 6.92 251.576 6.296 252.216 5.592C251.976 5.224 251.72 4.856 251.448 4.488C251.176 4.104 250.888 3.728 250.584 3.36C250.376 3.088 250.304 2.792 250.368 2.472C250.448 2.152 250.624 1.896 250.896 1.704C251.168 1.512 251.472 1.44 251.808 1.488C252.144 1.52 252.424 1.672 252.648 1.944C253.096 2.456 253.512 2.992 253.896 3.552C254.12 3.248 254.328 2.952 254.52 2.664C254.728 2.36 254.912 2.072 255.072 1.8C255.28 1.448 255.552 1.224 255.888 1.128C256.24 1.016 256.584 1.056 256.92 1.248C257.24 1.424 257.44 1.68 257.52 2.016C257.6 2.352 257.552 2.68 257.376 3C257.12 3.448 256.808 3.928 256.44 4.44C256.088 4.936 255.712 5.432 255.312 5.928C255.984 7.272 256.48 8.736 256.8 10.32C257.136 11.888 257.304 13.672 257.304 15.672C257.304 17.464 257.136 18.856 256.8 19.848C256.464 20.824 255.968 21.52 255.312 21.936C254.672 22.368 253.88 22.64 252.936 22.752ZM262.032 9.168C261.664 9.168 261.344 9.056 261.072 8.832C260.8 8.608 260.664 8.28 260.664 7.848V6.36H258.144C257.776 6.36 257.48 6.248 257.256 6.024C257.048 5.784 256.944 5.496 256.944 5.16C256.944 4.824 257.048 4.544 257.256 4.32C257.48 4.08 257.776 3.96 258.144 3.96H260.664V2.184C260.664 1.736 260.8 1.408 261.072 1.2C261.344 0.975999 261.664 0.863999 262.032 0.863999C262.4 0.863999 262.712 0.975999 262.968 1.2C263.24 1.408 263.376 1.736 263.376 2.184V3.96H265.896V2.184C265.896 1.736 266.032 1.408 266.304 1.2C266.576 0.975999 266.888 0.863999 267.24 0.863999C267.608 0.863999 267.92 0.975999 268.176 1.2C268.448 1.408 268.584 1.736 268.584 2.184V3.96H271.176C271.544 3.96 271.832 4.08 272.04 4.32C272.264 4.544 272.376 4.824 272.376 5.16C272.376 5.496 272.264 5.784 272.04 6.024C271.832 6.248 271.544 6.36 271.176 6.36H268.584V7.848C268.584 8.28 268.448 8.608 268.176 8.832C267.92 9.056 267.608 9.168 267.24 9.168C266.888 9.168 266.576 9.056 266.304 8.832C266.032 8.608 265.896 8.28 265.896 7.848V6.36H263.376V7.848C263.376 8.28 263.24 8.608 262.968 8.832C262.712 9.056 262.4 9.168 262.032 9.168ZM266.04 14.784H268.464V13.968C268.464 13.456 268.408 13.072 268.296 12.816C268.184 12.56 267.976 12.384 267.672 12.288C267.384 12.192 266.944 12.144 266.352 12.144H266.04V14.784ZM261.12 14.784H263.544V12.144H263.232C262.656 12.144 262.216 12.192 261.912 12.288C261.608 12.384 261.4 12.56 261.288 12.816C261.176 13.072 261.12 13.456 261.12 13.968V14.784ZM266.04 19.872H266.352C266.944 19.872 267.384 19.824 267.672 19.728C267.976 19.632 268.184 19.448 268.296 19.176C268.408 18.904 268.464 18.52 268.464 18.024V17.232H266.04V19.872ZM263.232 19.872H263.544V17.232H261.12V18.024C261.12 18.776 261.256 19.272 261.528 19.512C261.8 19.752 262.368 19.872 263.232 19.872ZM276.624 22.488C276.288 22.728 275.92 22.848 275.52 22.848C275.12 22.864 274.776 22.696 274.488 22.344C274.232 22.04 274.128 21.696 274.176 21.312C274.24 20.928 274.432 20.624 274.752 20.4C276.32 19.344 277.552 18.152 278.448 16.824L277.8 16.392C276.936 15.848 276.304 15.352 275.904 14.904C275.52 14.456 275.312 13.952 275.28 13.392C275.248 12.832 275.336 12.12 275.544 11.256C275.656 10.84 275.76 10.408 275.856 9.96C275.968 9.496 276.072 9.04 276.168 8.592H274.824C274.488 8.592 274.2 8.472 273.96 8.232C273.72 7.976 273.6 7.68 273.6 7.344C273.6 7.008 273.72 6.72 273.96 6.48C274.2 6.224 274.488 6.096 274.824 6.096H276.672C276.8 5.392 276.92 4.712 277.032 4.056C277.144 3.384 277.24 2.752 277.32 2.16C277.384 1.728 277.56 1.416 277.848 1.224C278.136 1.016 278.48 0.935999 278.88 0.983999C279.264 1.048 279.576 1.232 279.816 1.536C280.056 1.824 280.136 2.176 280.056 2.592C279.976 3.104 279.88 3.664 279.768 4.272C279.656 4.864 279.536 5.472 279.408 6.096H279.6C281.168 6.096 282.232 6.416 282.792 7.056C283.352 7.68 283.56 8.672 283.416 10.032C283.304 11.152 283.12 12.208 282.864 13.2C282.624 14.192 282.312 15.128 281.928 16.008C282.408 16.344 282.872 16.688 283.32 17.04C283.768 17.392 284.184 17.752 284.568 18.12C284.888 18.376 285.048 18.72 285.048 19.152C285.064 19.568 284.92 19.912 284.616 20.184C284.312 20.456 283.96 20.584 283.56 20.568C283.176 20.552 282.832 20.408 282.528 20.136C282.224 19.832 281.904 19.536 281.568 19.248C281.248 18.96 280.92 18.688 280.584 18.432C280.072 19.2 279.48 19.92 278.808 20.592C278.152 21.248 277.424 21.88 276.624 22.488ZM287.136 22.776C286.704 22.792 286.344 22.68 286.056 22.44C285.768 22.216 285.608 21.896 285.576 21.48C285.56 21.096 285.672 20.76 285.912 20.472C286.152 20.184 286.496 20.016 286.944 19.968C287.392 19.92 287.776 19.84 288.096 19.728C288.432 19.616 288.704 19.408 288.912 19.104C289.12 18.8 289.272 18.36 289.368 17.784C289.464 17.208 289.512 16.432 289.512 15.456C289.512 15.04 289.496 14.64 289.464 14.256C289.432 13.856 289.384 13.472 289.32 13.104H284.904C284.536 13.104 284.224 12.976 283.968 12.72C283.712 12.464 283.584 12.152 283.584 11.784C283.584 11.416 283.712 11.104 283.968 10.848C284.224 10.592 284.536 10.464 284.904 10.464H288.576C288.416 10.048 288.24 9.64 288.048 9.24C287.856 8.84 287.656 8.464 287.448 8.112C287.288 7.808 287.272 7.488 287.4 7.152C287.528 6.8 287.752 6.544 288.072 6.384C288.392 6.224 288.728 6.2 289.08 6.312C289.448 6.408 289.736 6.616 289.944 6.936V6.96C290.264 6.736 290.584 6.512 290.904 6.288C291.224 6.048 291.44 5.888 291.552 5.808C291.872 5.536 292.016 5.296 291.984 5.088C291.952 4.88 291.72 4.776 291.288 4.776H285.048C284.696 4.776 284.4 4.656 284.16 4.416C283.92 4.176 283.8 3.88 283.8 3.528C283.8 3.192 283.92 2.904 284.16 2.664C284.4 2.424 284.696 2.304 285.048 2.304H292.08C292.96 2.304 293.648 2.48 294.144 2.832C294.64 3.184 294.944 3.632 295.056 4.176C295.184 4.704 295.112 5.264 294.84 5.856C294.584 6.432 294.12 6.952 293.448 7.416C293.048 7.672 292.624 7.96 292.176 8.28C291.744 8.6 291.368 8.872 291.048 9.096C291.24 9.544 291.408 10 291.552 10.464H295.08C295.448 10.464 295.76 10.592 296.016 10.848C296.272 11.104 296.4 11.416 296.4 11.784C296.4 12.152 296.272 12.464 296.016 12.72C295.76 12.976 295.448 13.104 295.08 13.104H292.128C292.176 13.472 292.216 13.856 292.248 14.256C292.28 14.656 292.296 15.064 292.296 15.48C292.296 17.416 292.104 18.904 291.72 19.944C291.352 20.984 290.784 21.704 290.016 22.104C289.264 22.52 288.304 22.744 287.136 22.776ZM279.696 14.52C279.984 13.816 280.216 13.072 280.392 12.288C280.568 11.504 280.688 10.688 280.752 9.84C280.8 9.328 280.72 8.992 280.512 8.832C280.304 8.672 279.928 8.592 279.384 8.592H278.904C278.776 9.2 278.648 9.784 278.52 10.344C278.408 10.888 278.288 11.376 278.16 11.808C278.016 12.416 277.992 12.88 278.088 13.2C278.2 13.52 278.544 13.848 279.12 14.184C279.216 14.248 279.312 14.304 279.408 14.352C279.504 14.4 279.6 14.456 279.696 14.52ZM311.04 23.016C309.056 23.08 307.408 22.88 306.096 22.416C304.784 21.952 303.824 21.28 303.216 20.4C302.608 19.52 302.352 18.488 302.448 17.304C302.528 16.456 302.792 15.736 303.24 15.144C303.704 14.536 304.304 14.072 305.04 13.752C305.792 13.416 306.624 13.216 307.536 13.152C308.464 13.088 309.416 13.168 310.392 13.392C310.152 13.04 309.912 12.672 309.672 12.288C309.448 11.888 309.224 11.488 309 11.088C308.088 11.248 307.168 11.392 306.24 11.52C305.328 11.648 304.448 11.76 303.6 11.856C303.216 11.888 302.872 11.776 302.568 11.52C302.28 11.264 302.12 10.944 302.088 10.56C302.056 10.16 302.16 9.816 302.4 9.528C302.656 9.224 302.984 9.064 303.384 9.048C304.04 8.984 304.744 8.904 305.496 8.808C306.248 8.712 307.008 8.6 307.776 8.472C307.664 8.2 307.552 7.928 307.44 7.656C307.328 7.384 307.224 7.112 307.128 6.84C306.488 6.952 305.856 7.056 305.232 7.152C304.624 7.232 304.056 7.304 303.528 7.368C303.144 7.4 302.8 7.296 302.496 7.056C302.192 6.816 302.016 6.504 301.968 6.12C301.936 5.736 302.04 5.392 302.28 5.088C302.52 4.768 302.832 4.592 303.216 4.56C303.632 4.528 304.096 4.48 304.608 4.416C305.12 4.336 305.648 4.256 306.192 4.176C306.128 3.904 306.056 3.648 305.976 3.408C305.896 3.152 305.824 2.904 305.76 2.664C305.664 2.28 305.712 1.92 305.904 1.584C306.112 1.232 306.408 1.008 306.792 0.912C307.176 0.815999 307.536 0.871999 307.872 1.08C308.224 1.272 308.448 1.56 308.544 1.944C308.624 2.232 308.696 2.52 308.76 2.808C308.84 3.096 308.928 3.392 309.024 3.696C309.536 3.6 310.024 3.504 310.488 3.408C310.968 3.296 311.408 3.192 311.808 3.096C312.176 3 312.528 3.064 312.864 3.288C313.2 3.496 313.408 3.784 313.488 4.152C313.568 4.536 313.504 4.896 313.296 5.232C313.104 5.552 312.816 5.752 312.432 5.832C312.064 5.912 311.664 6 311.232 6.096C310.8 6.192 310.352 6.28 309.888 6.36C309.984 6.632 310.08 6.904 310.176 7.176C310.288 7.448 310.4 7.72 310.512 7.992C311.168 7.864 311.8 7.728 312.408 7.584C313.032 7.44 313.6 7.304 314.112 7.176C314.48 7.096 314.832 7.16 315.168 7.368C315.504 7.576 315.72 7.864 315.816 8.232C315.896 8.616 315.832 8.976 315.624 9.312C315.416 9.632 315.128 9.84 314.76 9.936C314.344 10.048 313.872 10.16 313.344 10.272C312.832 10.368 312.296 10.472 311.736 10.584C312.136 11.32 312.56 12.016 313.008 12.672C313.456 13.312 313.928 13.872 314.424 14.352C314.664 14.592 314.8 14.88 314.832 15.216C314.88 15.552 314.808 15.864 314.616 16.152C314.44 16.44 314.184 16.64 313.848 16.752C313.528 16.864 313.208 16.856 312.888 16.728C311.4 16.088 310.088 15.744 308.952 15.696C307.816 15.632 306.92 15.784 306.264 16.152C305.624 16.504 305.288 17 305.256 17.64C305.16 19.432 307.056 20.272 310.944 20.16C311.344 20.144 311.688 20.272 311.976 20.544C312.264 20.8 312.416 21.128 312.432 21.528C312.448 21.928 312.32 22.272 312.048 22.56C311.776 22.848 311.44 23 311.04 23.016ZM335.568 20.928C335.168 21.024 334.792 20.968 334.44 20.76C334.088 20.552 333.864 20.256 333.768 19.872C333.672 19.488 333.728 19.128 333.936 18.792C334.144 18.44 334.44 18.216 334.824 18.12C336.6 17.656 337.904 16.904 338.736 15.864C339.584 14.824 340.008 13.504 340.008 11.904C340.008 10.896 339.784 9.992 339.336 9.192C338.888 8.392 338.248 7.744 337.416 7.248C336.6 6.752 335.616 6.448 334.464 6.336C334.176 9.024 333.688 11.352 333 13.32C332.328 15.272 331.528 16.784 330.6 17.856C329.688 18.912 328.728 19.44 327.72 19.44C326.872 19.44 326.096 19.192 325.392 18.696C324.688 18.2 324.128 17.488 323.712 16.56C323.312 15.632 323.112 14.52 323.112 13.224C323.112 11.896 323.36 10.656 323.856 9.504C324.368 8.336 325.088 7.312 326.016 6.432C326.944 5.552 328.032 4.864 329.28 4.368C330.544 3.872 331.928 3.624 333.432 3.624C335.256 3.624 336.872 3.976 338.28 4.68C339.704 5.368 340.824 6.336 341.64 7.584C342.456 8.816 342.864 10.256 342.864 11.904C342.864 14.224 342.24 16.16 340.992 17.712C339.76 19.248 337.952 20.32 335.568 20.928ZM327.744 16.488C328.032 16.488 328.36 16.248 328.728 15.768C329.112 15.272 329.496 14.576 329.88 13.68C330.264 12.784 330.616 11.728 330.936 10.512C331.256 9.28 331.496 7.92 331.656 6.432C330.408 6.672 329.36 7.136 328.512 7.824C327.664 8.496 327.024 9.304 326.592 10.248C326.16 11.176 325.936 12.152 325.92 13.176C325.92 14.264 326.088 15.088 326.424 15.648C326.776 16.208 327.216 16.488 327.744 16.488ZM356.808 21.576C356.52 21.304 356.368 20.968 356.352 20.568C356.336 20.168 356.464 19.824 356.736 19.536C357.392 18.88 358 18.096 358.56 17.184C359.12 16.256 359.608 15.288 360.024 14.28C358.712 13.944 357.456 13.704 356.256 13.56C355.664 14.808 354.992 15.848 354.24 16.68C353.488 17.512 352.688 18.088 351.84 18.408C351.04 18.728 350.256 18.84 349.488 18.744C348.72 18.632 348.08 18.32 347.568 17.808C347.072 17.296 346.824 16.576 346.824 15.648C346.824 14.768 347.088 13.968 347.616 13.248C348.144 12.528 348.96 11.952 350.064 11.52C351.184 11.072 352.624 10.848 354.384 10.848C354.72 9.904 355.032 8.816 355.32 7.584C355.544 6.656 355.504 6.04 355.2 5.736C354.896 5.416 354.304 5.312 353.424 5.424C353.12 5.472 352.728 5.528 352.248 5.592C351.768 5.656 351.392 5.704 351.12 5.736C350.72 5.752 350.368 5.632 350.064 5.376C349.76 5.12 349.592 4.792 349.56 4.392C349.544 3.992 349.664 3.648 349.92 3.36C350.176 3.056 350.504 2.888 350.904 2.856C351.24 2.824 351.656 2.784 352.152 2.736C352.648 2.688 353.056 2.656 353.376 2.64C355.392 2.512 356.776 2.864 357.528 3.696C358.296 4.528 358.496 5.904 358.128 7.824C358.016 8.4 357.888 8.96 357.744 9.504C357.6 10.032 357.448 10.544 357.288 11.04C357.864 11.104 358.456 11.2 359.064 11.328C359.672 11.44 360.272 11.568 360.864 11.712C360.992 11.168 361.096 10.64 361.176 10.128C361.256 9.6 361.304 9.096 361.32 8.616C361.336 8.216 361.472 7.88 361.728 7.608C362 7.32 362.336 7.168 362.736 7.152C363.136 7.152 363.472 7.296 363.744 7.584C364.032 7.856 364.168 8.192 364.152 8.592C364.136 9.216 364.072 9.856 363.96 10.512C363.864 11.152 363.728 11.8 363.552 12.456C364.048 12.616 364.528 12.784 364.992 12.96C365.472 13.12 365.936 13.288 366.384 13.464C366.752 13.624 367.008 13.888 367.152 14.256C367.312 14.624 367.312 14.992 367.152 15.36C367.008 15.712 366.752 15.968 366.384 16.128C366.016 16.288 365.648 16.288 365.28 16.128C364.864 15.936 364.44 15.76 364.008 15.6C363.576 15.424 363.144 15.256 362.712 15.096C362.216 16.376 361.632 17.576 360.96 18.696C360.304 19.816 359.6 20.752 358.848 21.504C358.576 21.776 358.24 21.92 357.84 21.936C357.456 21.952 357.112 21.832 356.808 21.576ZM350.832 15.888C351.216 15.728 351.608 15.456 352.008 15.072C352.408 14.688 352.8 14.16 353.184 13.488C351.92 13.6 351.016 13.84 350.472 14.208C349.944 14.576 349.672 14.984 349.656 15.432C349.656 15.688 349.752 15.872 349.944 15.984C350.152 16.08 350.448 16.048 350.832 15.888ZM372.312 21.384C371.96 21.24 371.712 20.976 371.568 20.592C371.424 20.208 371.432 19.84 371.592 19.488C371.864 18.896 372.208 18.152 372.624 17.256C373.056 16.36 373.52 15.384 374.016 14.328C374.528 13.272 375.048 12.192 375.576 11.088C376.104 9.984 376.624 8.912 377.136 7.872C377.648 6.832 378.12 5.888 378.552 5.04C378.984 4.176 379.344 3.472 379.632 2.928C379.808 2.576 380.088 2.352 380.472 2.256C380.872 2.144 381.24 2.192 381.576 2.4C381.928 2.608 382.152 2.904 382.248 3.288C382.36 3.656 382.312 4.016 382.104 4.368C381.88 4.768 381.584 5.312 381.216 6C380.864 6.688 380.464 7.464 380.016 8.328C379.584 9.192 379.136 10.096 378.672 11.04C379.232 10.8 379.8 10.68 380.376 10.68C381.896 10.68 382.936 11.16 383.496 12.12C384.072 13.08 384.128 14.392 383.664 16.056C383.424 16.92 383.4 17.512 383.592 17.832C383.8 18.152 384.176 18.312 384.72 18.312C385.088 18.312 385.44 18.232 385.776 18.072C386.112 17.896 386.456 17.552 386.808 17.04C387.16 16.528 387.528 15.776 387.912 14.784C388.056 14.416 388.312 14.152 388.68 13.992C389.048 13.832 389.416 13.816 389.784 13.944C390.152 14.088 390.416 14.344 390.576 14.712C390.752 15.08 390.768 15.456 390.624 15.84C389.984 17.632 389.184 18.968 388.224 19.848C387.28 20.712 386.072 21.144 384.6 21.144C383.592 21.144 382.744 20.936 382.056 20.52C381.368 20.104 380.912 19.48 380.688 18.648C380.464 17.8 380.528 16.744 380.88 15.48C381.104 14.712 381.128 14.176 380.952 13.872C380.776 13.552 380.408 13.392 379.848 13.392C379.128 13.392 378.456 13.616 377.832 14.064C377.208 14.512 376.6 15.352 376.008 16.584C375.944 16.712 375.824 16.968 375.648 17.352C375.488 17.72 375.312 18.128 375.12 18.576C374.928 19.024 374.744 19.432 374.568 19.8C374.408 20.152 374.304 20.392 374.256 20.52C374.096 20.888 373.832 21.16 373.464 21.336C373.112 21.528 372.728 21.544 372.312 21.384ZM404.304 22.584C403.088 22.584 402.08 22.272 401.28 21.648C400.496 21.04 400.104 20.136 400.104 18.936C400.104 17.848 400.488 16.984 401.256 16.344C402.04 15.688 403.072 15.36 404.352 15.36C404.832 15.36 405.296 15.384 405.744 15.432V10.896C405.744 10.48 405.88 10.136 406.152 9.864C406.424 9.592 406.76 9.456 407.16 9.456C407.56 9.456 407.896 9.592 408.168 9.864C408.44 10.136 408.576 10.48 408.576 10.896V16.08C409.44 16.352 410.256 16.688 411.024 17.088C411.808 17.472 412.496 17.872 413.088 18.288C413.408 18.528 413.6 18.848 413.664 19.248C413.728 19.632 413.64 19.984 413.4 20.304C413.176 20.624 412.864 20.816 412.464 20.88C412.08 20.944 411.728 20.864 411.408 20.64C411.024 20.336 410.584 20.048 410.088 19.776C409.608 19.488 409.104 19.224 408.576 18.984C408.48 20.152 408.072 21.04 407.352 21.648C406.632 22.272 405.616 22.584 404.304 22.584ZM397.92 15.936C397.616 16.192 397.264 16.32 396.864 16.32C396.48 16.32 396.152 16.184 395.88 15.912C395.592 15.624 395.448 15.28 395.448 14.88C395.448 14.464 395.6 14.128 395.904 13.872C396.816 13.056 397.616 12.128 398.304 11.088C399.008 10.048 399.584 8.968 400.032 7.848C399.6 7.912 399.176 7.96 398.76 7.992C398.36 8.024 397.976 8.056 397.608 8.088C397.192 8.104 396.84 7.984 396.552 7.728C396.264 7.472 396.112 7.12 396.096 6.672C396.08 6.272 396.2 5.944 396.456 5.688C396.712 5.416 397.064 5.272 397.512 5.256C398.024 5.224 398.56 5.176 399.12 5.112C399.696 5.048 400.272 4.976 400.848 4.896C400.928 4.528 400.976 4.152 400.992 3.768C401.024 3.384 401.04 3.016 401.04 2.664C401.04 2.264 401.176 1.928 401.448 1.656C401.72 1.368 402.056 1.224 402.456 1.224C402.856 1.224 403.2 1.368 403.488 1.656C403.776 1.928 403.912 2.264 403.896 2.664C403.88 3.208 403.832 3.776 403.752 4.368C403.864 4.336 403.968 4.312 404.064 4.296C404.176 4.264 404.28 4.24 404.376 4.224C404.776 4.128 405.144 4.176 405.48 4.368C405.816 4.56 406.024 4.864 406.104 5.28C406.184 5.68 406.112 6.04 405.888 6.36C405.68 6.68 405.384 6.888 405 6.984C404.744 7.048 404.448 7.112 404.112 7.176C403.792 7.24 403.456 7.304 403.104 7.368C402.608 9.048 401.912 10.632 401.016 12.12C400.136 13.608 399.104 14.88 397.92 15.936ZM411.768 9.576C411.256 9.256 410.648 8.928 409.944 8.592C409.256 8.256 408.648 8.008 408.12 7.848C407.752 7.72 407.464 7.496 407.256 7.176C407.048 6.856 406.992 6.504 407.088 6.12C407.168 5.736 407.376 5.44 407.712 5.232C408.064 5.024 408.432 4.976 408.816 5.088C409.296 5.216 409.824 5.4 410.4 5.64C410.976 5.88 411.528 6.136 412.056 6.408C412.6 6.68 413.048 6.936 413.4 7.176C413.72 7.384 413.912 7.688 413.976 8.088C414.056 8.488 413.984 8.856 413.76 9.192C413.552 9.512 413.248 9.712 412.848 9.792C412.464 9.856 412.104 9.784 411.768 9.576ZM404.28 19.944C404.808 19.944 405.184 19.824 405.408 19.584C405.632 19.344 405.744 18.976 405.744 18.48V18.072C405.488 18.008 405.232 17.968 404.976 17.952C404.736 17.92 404.504 17.904 404.28 17.904C403.784 17.904 403.416 18 403.176 18.192C402.952 18.368 402.84 18.616 402.84 18.936C402.84 19.24 402.952 19.488 403.176 19.68C403.4 19.856 403.768 19.944 404.28 19.944ZM422.304 21.384C421.904 21.448 421.544 21.368 421.224 21.144C420.904 20.92 420.704 20.616 420.624 20.232C420.48 19.416 420.368 18.472 420.288 17.4C420.208 16.312 420.168 15.168 420.168 13.968C420.168 12.768 420.2 11.56 420.264 10.344C420.328 9.128 420.424 7.968 420.552 6.864C420.696 5.744 420.864 4.744 421.056 3.864C421.136 3.48 421.344 3.184 421.68 2.976C422.016 2.752 422.376 2.68 422.76 2.76C423.144 2.856 423.44 3.072 423.648 3.408C423.872 3.728 423.944 4.088 423.864 4.488C423.608 5.624 423.408 6.856 423.264 8.184C423.12 9.512 423.024 10.864 422.976 12.24C422.944 13.6 422.968 14.928 423.048 16.224C423.128 17.504 423.264 18.672 423.456 19.728C423.536 20.112 423.456 20.464 423.216 20.784C422.992 21.104 422.688 21.304 422.304 21.384ZM432.144 20.088C430.064 20.088 428.512 19.712 427.488 18.96C426.48 18.208 425.872 17.104 425.664 15.648C425.6 15.264 425.68 14.912 425.904 14.592C426.144 14.272 426.464 14.08 426.864 14.016C427.248 13.968 427.6 14.064 427.92 14.304C428.24 14.528 428.432 14.84 428.496 15.24C428.592 15.928 428.92 16.44 429.48 16.776C430.04 17.112 430.952 17.28 432.216 17.28C433.416 17.28 434.864 17.096 436.56 16.728C436.944 16.632 437.304 16.696 437.64 16.92C437.976 17.144 438.184 17.448 438.264 17.832C438.344 18.216 438.272 18.576 438.048 18.912C437.824 19.232 437.52 19.44 437.136 19.536C436.272 19.744 435.408 19.888 434.544 19.968C433.696 20.048 432.896 20.088 432.144 20.088ZM427.752 8.208C427.368 8.288 427.008 8.224 426.672 8.016C426.352 7.792 426.152 7.48 426.072 7.08C425.992 6.696 426.056 6.336 426.264 6C426.488 5.664 426.8 5.464 427.2 5.4C428.096 5.224 429.096 5.112 430.2 5.064C431.304 5 432.4 4.992 433.488 5.04C434.576 5.072 435.536 5.16 436.368 5.304C436.768 5.368 437.08 5.568 437.304 5.904C437.528 6.224 437.6 6.584 437.52 6.984C437.456 7.384 437.256 7.696 436.92 7.92C436.6 8.128 436.248 8.2 435.864 8.136C434.568 7.912 433.224 7.808 431.832 7.824C430.44 7.824 429.08 7.952 427.752 8.208ZM2.304 59.384C1.904 59.448 1.544 59.368 1.224 59.144C0.904 58.92 0.704 58.616 0.624 58.232C0.48 57.416 0.368 56.472 0.288 55.4C0.208 54.312 0.168 53.168 0.168 51.968C0.168 50.768 0.2 49.56 0.264 48.344C0.328 47.128 0.424 45.968 0.552 44.864C0.696 43.744 0.864 42.744 1.056 41.864C1.136 41.48 1.344 41.184 1.68 40.976C2.016 40.752 2.376 40.68 2.76 40.76C3.144 40.856 3.44 41.072 3.648 41.408C3.872 41.728 3.944 42.088 3.864 42.488C3.608 43.624 3.408 44.856 3.264 46.184C3.12 47.512 3.024 48.864 2.976 50.24C2.944 51.6 2.968 52.928 3.048 54.224C3.128 55.504 3.264 56.672 3.456 57.728C3.536 58.112 3.456 58.464 3.216 58.784C2.992 59.104 2.688 59.304 2.304 59.384ZM12.144 58.088C10.064 58.088 8.512 57.712 7.488 56.96C6.48 56.208 5.872 55.104 5.664 53.648C5.6 53.264 5.68 52.912 5.904 52.592C6.144 52.272 6.464 52.08 6.864 52.016C7.248 51.968 7.6 52.064 7.92 52.304C8.24 52.528 8.432 52.84 8.496 53.24C8.592 53.928 8.92 54.44 9.48 54.776C10.04 55.112 10.952 55.28 12.216 55.28C13.416 55.28 14.864 55.096 16.56 54.728C16.944 54.632 17.304 54.696 17.64 54.92C17.976 55.144 18.184 55.448 18.264 55.832C18.344 56.216 18.272 56.576 18.048 56.912C17.824 57.232 17.52 57.44 17.136 57.536C16.272 57.744 15.408 57.888 14.544 57.968C13.696 58.048 12.896 58.088 12.144 58.088ZM7.752 46.208C7.368 46.288 7.008 46.224 6.672 46.016C6.352 45.792 6.152 45.48 6.072 45.08C5.992 44.696 6.056 44.336 6.264 44C6.488 43.664 6.8 43.464 7.2 43.4C8.096 43.224 9.096 43.112 10.2 43.064C11.304 43 12.4 42.992 13.488 43.04C14.576 43.072 15.536 43.16 16.368 43.304C16.768 43.368 17.08 43.568 17.304 43.904C17.528 44.224 17.6 44.584 17.52 44.984C17.456 45.384 17.256 45.696 16.92 45.92C16.6 46.128 16.248 46.2 15.864 46.136C14.568 45.912 13.224 45.808 11.832 45.824C10.44 45.824 9.08 45.952 7.752 46.208ZM32.736 60.968C32.384 61.016 32.072 60.936 31.8 60.728C31.544 60.52 31.392 60.24 31.344 59.888C31.2 58.928 30.968 57.824 30.648 56.576C30.344 55.312 29.976 54.048 29.544 52.784C28.904 52.992 28.288 53.2 27.696 53.408C27.12 53.6 26.584 53.784 26.088 53.96C25.752 54.072 25.424 54.056 25.104 53.912C24.8 53.768 24.584 53.536 24.456 53.216C24.344 52.88 24.36 52.56 24.504 52.256C24.664 51.936 24.912 51.72 25.248 51.608C26.24 51.256 27.392 50.872 28.704 50.456C28.512 49.992 28.32 49.544 28.128 49.112C27.936 48.68 27.736 48.272 27.528 47.888C27.368 47.568 27.328 47.24 27.408 46.904C27.504 46.568 27.704 46.32 28.008 46.16C28.328 45.984 28.648 45.952 28.968 46.064C29.304 46.16 29.552 46.368 29.712 46.688C29.952 47.136 30.184 47.616 30.408 48.128C30.632 48.64 30.848 49.176 31.056 49.736C31.472 49.608 31.888 49.48 32.304 49.352C32.72 49.224 33.128 49.104 33.528 48.992C33.272 48.912 33.072 48.752 32.928 48.512L31.896 46.976C31.72 46.688 31.664 46.384 31.728 46.064C31.792 45.728 31.968 45.464 32.256 45.272C32.56 45.08 32.88 45.024 33.216 45.104C33.552 45.168 33.808 45.344 33.984 45.632L34.992 47.144C35.152 47.384 35.224 47.64 35.208 47.912C35.192 48.168 35.096 48.408 34.92 48.632C35.032 48.6 35.136 48.568 35.232 48.536C35.328 48.504 35.424 48.48 35.52 48.464C37.184 48.048 38.528 48.112 39.552 48.656C40.576 49.2 41.168 50.12 41.328 51.416C41.44 52.344 41.304 53.16 40.92 53.864C40.552 54.568 40 55.104 39.264 55.472C38.544 55.84 37.72 56.008 36.792 55.976C35.88 55.944 34.944 55.664 33.984 55.136C33.68 54.96 33.472 54.704 33.36 54.368C33.264 54.032 33.296 53.712 33.456 53.408C33.632 53.088 33.888 52.88 34.224 52.784C34.56 52.688 34.88 52.728 35.184 52.904C35.888 53.304 36.528 53.504 37.104 53.504C37.68 53.488 38.128 53.32 38.448 53C38.768 52.664 38.888 52.224 38.808 51.68C38.744 51.216 38.488 50.896 38.04 50.72C37.608 50.544 36.952 50.56 36.072 50.768C35.48 50.928 34.816 51.112 34.08 51.32C33.36 51.528 32.624 51.76 31.872 52.016C32.304 53.328 32.688 54.648 33.024 55.976C33.376 57.288 33.64 58.48 33.816 59.552C33.88 59.904 33.8 60.216 33.576 60.488C33.368 60.776 33.088 60.936 32.736 60.968ZM48.312 59.384C47.96 59.24 47.712 58.976 47.568 58.592C47.424 58.208 47.432 57.84 47.592 57.488C47.864 56.896 48.208 56.152 48.624 55.256C49.056 54.36 49.52 53.384 50.016 52.328C50.528 51.272 51.048 50.192 51.576 49.088C52.104 47.984 52.624 46.912 53.136 45.872C53.648 44.832 54.12 43.888 54.552 43.04C54.984 42.176 55.344 41.472 55.632 40.928C55.808 40.576 56.088 40.352 56.472 40.256C56.872 40.144 57.24 40.192 57.576 40.4C57.928 40.608 58.152 40.904 58.248 41.288C58.36 41.656 58.312 42.016 58.104 42.368C57.88 42.768 57.584 43.312 57.216 44C56.864 44.688 56.464 45.464 56.016 46.328C55.584 47.192 55.136 48.096 54.672 49.04C55.232 48.8 55.8 48.68 56.376 48.68C57.896 48.68 58.936 49.16 59.496 50.12C60.072 51.08 60.128 52.392 59.664 54.056C59.424 54.92 59.4 55.512 59.592 55.832C59.8 56.152 60.176 56.312 60.72 56.312C61.088 56.312 61.44 56.232 61.776 56.072C62.112 55.896 62.456 55.552 62.808 55.04C63.16 54.528 63.528 53.776 63.912 52.784C64.056 52.416 64.312 52.152 64.68 51.992C65.048 51.832 65.416 51.816 65.784 51.944C66.152 52.088 66.416 52.344 66.576 52.712C66.752 53.08 66.768 53.456 66.624 53.84C65.984 55.632 65.184 56.968 64.224 57.848C63.28 58.712 62.072 59.144 60.6 59.144C59.592 59.144 58.744 58.936 58.056 58.52C57.368 58.104 56.912 57.48 56.688 56.648C56.464 55.8 56.528 54.744 56.88 53.48C57.104 52.712 57.128 52.176 56.952 51.872C56.776 51.552 56.408 51.392 55.848 51.392C55.128 51.392 54.456 51.616 53.832 52.064C53.208 52.512 52.6 53.352 52.008 54.584C51.944 54.712 51.824 54.968 51.648 55.352C51.488 55.72 51.312 56.128 51.12 56.576C50.928 57.024 50.744 57.432 50.568 57.8C50.408 58.152 50.304 58.392 50.256 58.52C50.096 58.888 49.832 59.16 49.464 59.336C49.112 59.528 48.728 59.544 48.312 59.384ZM72.984 60.992C72.568 61.104 72.2 61.104 71.88 60.992C71.56 60.896 71.336 60.664 71.208 60.296C71.112 59.976 71.136 59.648 71.28 59.312C71.424 58.992 71.672 58.792 72.024 58.712C72.44 58.616 72.904 58.488 73.416 58.328C73.944 58.152 74.48 57.96 75.024 57.752C75.584 57.544 76.088 57.336 76.536 57.128C75.528 56.968 74.808 56.624 74.376 56.096C73.944 55.552 73.728 54.744 73.728 53.672V50.84C73.728 49.512 74.064 48.592 74.736 48.08C75.408 47.552 76.56 47.288 78.192 47.288H83.88C85.528 47.288 86.688 47.552 87.36 48.08C88.032 48.592 88.368 49.512 88.368 50.84V53.672C88.368 54.76 88.144 55.576 87.696 56.12C87.264 56.648 86.528 56.984 85.488 57.128C86.176 57.448 86.944 57.76 87.792 58.064C88.64 58.368 89.368 58.584 89.976 58.712C90.344 58.792 90.592 58.992 90.72 59.312C90.864 59.648 90.888 59.976 90.792 60.296C90.664 60.664 90.44 60.896 90.12 60.992C89.8 61.104 89.432 61.104 89.016 60.992C88.504 60.848 87.912 60.648 87.24 60.392C86.584 60.152 85.936 59.896 85.296 59.624C84.656 59.352 84.112 59.096 83.664 58.856C83.36 58.68 83.176 58.448 83.112 58.16C83.048 57.856 83.088 57.568 83.232 57.296C83.248 57.28 83.256 57.272 83.256 57.272C83.256 57.256 83.264 57.24 83.28 57.224H78.72C78.752 57.256 78.768 57.28 78.768 57.296C78.912 57.568 78.952 57.856 78.888 58.16C78.84 58.448 78.656 58.68 78.336 58.856C77.888 59.096 77.344 59.352 76.704 59.624C76.064 59.896 75.416 60.152 74.76 60.392C74.104 60.648 73.512 60.848 72.984 60.992ZM72.264 48.224C71.944 48.432 71.584 48.528 71.184 48.512C70.784 48.496 70.472 48.32 70.248 47.984C70.072 47.712 70.016 47.408 70.08 47.072C70.144 46.72 70.32 46.464 70.608 46.304C71.456 45.84 72.144 45.312 72.672 44.72C73.2 44.128 73.616 43.424 73.92 42.608H71.4C71.08 42.608 70.824 42.512 70.632 42.32C70.44 42.112 70.344 41.864 70.344 41.576C70.344 41.272 70.44 41.016 70.632 40.808C70.824 40.6 71.08 40.496 71.4 40.496H74.4C74.432 40.368 74.448 40.232 74.448 40.088C74.464 39.928 74.48 39.776 74.496 39.632C74.528 39.216 74.688 38.92 74.976 38.744C75.264 38.568 75.592 38.496 75.96 38.528C76.296 38.56 76.576 38.696 76.8 38.936C77.024 39.176 77.12 39.496 77.088 39.896C77.072 40.008 77.056 40.112 77.04 40.208C77.04 40.304 77.032 40.4 77.016 40.496H78.528C79.488 40.496 80.192 40.736 80.64 41.216C81.104 41.68 81.272 42.432 81.144 43.472C81.032 44.4 80.832 45.112 80.544 45.608C80.272 46.104 79.88 46.448 79.368 46.64C78.872 46.832 78.224 46.928 77.424 46.928C77.088 46.928 76.8 46.832 76.56 46.64C76.336 46.432 76.208 46.152 76.176 45.8C76.16 45.48 76.248 45.208 76.44 44.984C76.632 44.744 76.88 44.616 77.184 44.6C77.712 44.568 78.048 44.496 78.192 44.384C78.352 44.272 78.472 43.992 78.552 43.544C78.616 43.192 78.6 42.952 78.504 42.824C78.408 42.68 78.152 42.608 77.736 42.608H76.512C76.112 43.856 75.552 44.952 74.832 45.896C74.112 46.824 73.256 47.6 72.264 48.224ZM86.064 46.4C85.184 46.4 84.472 46.312 83.928 46.136C83.4 45.944 83.016 45.616 82.776 45.152C82.552 44.672 82.44 43.992 82.44 43.112C82.44 42.216 82.552 41.536 82.776 41.072C83.016 40.592 83.4 40.264 83.928 40.088C84.472 39.896 85.184 39.8 86.064 39.8H87.456C88.352 39.8 89.064 39.896 89.592 40.088C90.12 40.264 90.496 40.592 90.72 41.072C90.96 41.536 91.08 42.216 91.08 43.112C91.08 43.992 90.96 44.672 90.72 45.152C90.496 45.616 90.12 45.944 89.592 46.136C89.064 46.312 88.352 46.4 87.456 46.4H86.064ZM76.584 52.712H85.488V51.752H76.584V52.712ZM86.184 44.288H87.336C87.88 44.288 88.232 44.216 88.392 44.072C88.552 43.912 88.632 43.592 88.632 43.112C88.632 42.616 88.552 42.296 88.392 42.152C88.232 41.992 87.88 41.912 87.336 41.912H86.184C85.64 41.912 85.288 41.992 85.128 42.152C84.968 42.296 84.888 42.616 84.888 43.112C84.888 43.592 84.968 43.912 85.128 44.072C85.288 44.216 85.64 44.288 86.184 44.288ZM78.24 55.28H83.856C84.432 55.28 84.832 55.216 85.056 55.088C85.28 54.96 85.416 54.704 85.464 54.32H76.632C76.664 54.704 76.792 54.96 77.016 55.088C77.256 55.216 77.664 55.28 78.24 55.28ZM76.632 50.144H85.464C85.4 49.792 85.256 49.56 85.032 49.448C84.808 49.32 84.416 49.256 83.856 49.256H78.24C77.68 49.256 77.28 49.32 77.04 49.448C76.816 49.56 76.68 49.792 76.632 50.144ZM113.832 60.128C112.568 59.184 111.504 58.128 110.64 56.96C109.792 55.776 109.112 54.528 108.6 53.216C108.152 54.528 107.528 55.768 106.728 56.936C105.944 58.088 104.952 59.128 103.752 60.056C103.432 60.296 103.064 60.416 102.648 60.416C102.248 60.416 101.912 60.24 101.64 59.888C101.416 59.568 101.336 59.224 101.4 58.856C101.464 58.488 101.656 58.192 101.976 57.968C105.016 55.808 106.704 52.688 107.04 48.608H103.008C102.656 48.608 102.352 48.48 102.096 48.224C101.84 47.952 101.712 47.64 101.712 47.288C101.712 46.92 101.84 46.608 102.096 46.352C102.352 46.096 102.656 45.968 103.008 45.968H107.112V40.52C107.112 40.088 107.256 39.752 107.544 39.512C107.832 39.256 108.152 39.128 108.504 39.128C108.888 39.128 109.208 39.256 109.464 39.512C109.736 39.752 109.872 40.088 109.872 40.52V45.968H114.696C115.064 45.968 115.376 46.096 115.632 46.352C115.888 46.608 116.016 46.92 116.016 47.288C116.016 47.64 115.888 47.952 115.632 48.224C115.376 48.48 115.064 48.608 114.696 48.608H109.968C110.192 50.64 110.808 52.44 111.816 54.008C112.84 55.56 114.136 56.88 115.704 57.968C116.024 58.176 116.208 58.472 116.256 58.856C116.304 59.24 116.2 59.584 115.944 59.888C115.672 60.24 115.336 60.432 114.936 60.464C114.552 60.496 114.184 60.384 113.832 60.128ZM99.792 61.016C99.424 61.016 99.104 60.888 98.832 60.632C98.56 60.392 98.424 60.072 98.424 59.672V53.552C97.976 53.904 97.496 54.272 96.984 54.656C96.488 55.024 96.088 55.312 95.784 55.52C95.432 55.744 95.056 55.832 94.656 55.784C94.256 55.72 93.944 55.488 93.72 55.088C93.528 54.736 93.48 54.384 93.576 54.032C93.672 53.68 93.888 53.4 94.224 53.192C94.448 53.048 94.744 52.848 95.112 52.592C95.496 52.336 95.896 52.056 96.312 51.752C96.728 51.448 97.12 51.16 97.488 50.888C97.872 50.6 98.184 50.36 98.424 50.168V47.096C98.328 47.368 98.104 47.592 97.752 47.768C97.4 47.96 97.032 48 96.648 47.888C96.264 47.776 95.984 47.544 95.808 47.192C95.712 46.984 95.56 46.696 95.352 46.328C95.144 45.96 94.936 45.592 94.728 45.224C94.536 44.856 94.384 44.576 94.272 44.384C94.064 44.064 94.016 43.72 94.128 43.352C94.24 42.984 94.48 42.704 94.848 42.512C95.216 42.32 95.576 42.272 95.928 42.368C96.296 42.448 96.584 42.664 96.792 43.016C96.92 43.224 97.088 43.52 97.296 43.904C97.504 44.288 97.704 44.672 97.896 45.056C98.104 45.424 98.256 45.704 98.352 45.896L98.424 46.112V40.4C98.424 39.984 98.56 39.656 98.832 39.416C99.104 39.176 99.424 39.056 99.792 39.056C100.16 39.056 100.472 39.176 100.728 39.416C101 39.656 101.136 39.984 101.136 40.4V59.672C101.136 60.072 101 60.392 100.728 60.632C100.472 60.888 100.16 61.016 99.792 61.016ZM114.888 44.6C114.616 44.824 114.296 44.928 113.928 44.912C113.56 44.88 113.264 44.72 113.04 44.432C112.928 44.288 112.76 44.088 112.536 43.832C112.312 43.56 112.08 43.296 111.84 43.04C111.616 42.768 111.432 42.56 111.288 42.416C111.064 42.16 110.968 41.864 111 41.528C111.032 41.192 111.176 40.92 111.432 40.712C111.704 40.472 112.008 40.352 112.344 40.352C112.68 40.352 112.976 40.488 113.232 40.76C113.376 40.904 113.568 41.104 113.808 41.36C114.048 41.616 114.28 41.872 114.504 42.128C114.744 42.384 114.912 42.576 115.008 42.704C115.296 43.024 115.424 43.352 115.392 43.688C115.376 44.024 115.208 44.328 114.888 44.6ZM131.568 58.928C131.168 59.024 130.792 58.968 130.44 58.76C130.088 58.552 129.864 58.256 129.768 57.872C129.672 57.488 129.728 57.128 129.936 56.792C130.144 56.44 130.44 56.216 130.824 56.12C132.6 55.656 133.904 54.904 134.736 53.864C135.584 52.824 136.008 51.504 136.008 49.904C136.008 48.896 135.784 47.992 135.336 47.192C134.888 46.392 134.248 45.744 133.416 45.248C132.6 44.752 131.616 44.448 130.464 44.336C130.176 47.024 129.688 49.352 129 51.32C128.328 53.272 127.528 54.784 126.6 55.856C125.688 56.912 124.728 57.44 123.72 57.44C122.872 57.44 122.096 57.192 121.392 56.696C120.688 56.2 120.128 55.488 119.712 54.56C119.312 53.632 119.112 52.52 119.112 51.224C119.112 49.896 119.36 48.656 119.856 47.504C120.368 46.336 121.088 45.312 122.016 44.432C122.944 43.552 124.032 42.864 125.28 42.368C126.544 41.872 127.928 41.624 129.432 41.624C131.256 41.624 132.872 41.976 134.28 42.68C135.704 43.368 136.824 44.336 137.64 45.584C138.456 46.816 138.864 48.256 138.864 49.904C138.864 52.224 138.24 54.16 136.992 55.712C135.76 57.248 133.952 58.32 131.568 58.928ZM123.744 54.488C124.032 54.488 124.36 54.248 124.728 53.768C125.112 53.272 125.496 52.576 125.88 51.68C126.264 50.784 126.616 49.728 126.936 48.512C127.256 47.28 127.496 45.92 127.656 44.432C126.408 44.672 125.36 45.136 124.512 45.824C123.664 46.496 123.024 47.304 122.592 48.248C122.16 49.176 121.936 50.152 121.92 51.176C121.92 52.264 122.088 53.088 122.424 53.648C122.776 54.208 123.216 54.488 123.744 54.488ZM150.936 61.112C150.536 61.112 150.2 60.984 149.928 60.728C149.656 60.472 149.52 60.128 149.52 59.696V56.096C148.944 56.288 148.272 56.504 147.504 56.744C146.736 56.984 145.984 57.216 145.248 57.44C144.528 57.664 143.936 57.848 143.472 57.992C143.024 58.12 142.64 58.104 142.32 57.944C142 57.768 141.776 57.48 141.648 57.08C141.536 56.712 141.568 56.376 141.744 56.072C141.92 55.752 142.224 55.536 142.656 55.424C142.816 55.392 142.992 55.352 143.184 55.304C143.392 55.256 143.608 55.2 143.832 55.136V42.176H142.896C142.544 42.176 142.248 42.056 142.008 41.816C141.768 41.56 141.648 41.264 141.648 40.928C141.648 40.576 141.768 40.28 142.008 40.04C142.248 39.784 142.544 39.656 142.896 39.656H152.976C153.328 39.656 153.624 39.784 153.864 40.04C154.104 40.28 154.224 40.576 154.224 40.928C154.224 41.072 154.2 41.216 154.152 41.36C154.184 41.36 154.208 41.36 154.224 41.36C154.256 41.344 154.288 41.336 154.32 41.336H158.568C159.736 41.336 160.632 41.48 161.256 41.768C161.88 42.04 162.28 42.488 162.456 43.112C162.648 43.736 162.648 44.576 162.456 45.632C161.976 48.384 161.088 50.904 159.792 53.192C160.832 54.552 162.144 55.824 163.728 57.008C164.048 57.232 164.24 57.552 164.304 57.968C164.368 58.368 164.264 58.728 163.992 59.048C163.72 59.368 163.368 59.544 162.936 59.576C162.504 59.624 162.128 59.512 161.808 59.24C161.12 58.664 160.472 58.072 159.864 57.464C159.256 56.856 158.696 56.224 158.184 55.568C157.128 56.944 155.888 58.208 154.464 59.36C154.16 59.616 153.8 59.736 153.384 59.72C152.968 59.704 152.64 59.528 152.4 59.192L152.352 59.144V59.696C152.352 60.128 152.216 60.472 151.944 60.728C151.672 60.984 151.336 61.112 150.936 61.112ZM152.352 57.584C152.384 57.536 152.424 57.496 152.472 57.464C152.52 57.416 152.568 57.376 152.616 57.344C153.416 56.736 154.144 56.088 154.8 55.4C155.456 54.696 156.056 53.976 156.6 53.24C155.336 51.112 154.432 48.68 153.888 45.944C153.808 45.544 153.872 45.208 154.08 44.936C154.304 44.664 154.592 44.496 154.944 44.432C155.312 44.368 155.64 44.432 155.928 44.624C156.216 44.8 156.392 45.08 156.456 45.464C156.648 46.408 156.88 47.312 157.152 48.176C157.44 49.024 157.784 49.832 158.184 50.6C159 48.952 159.552 47.216 159.84 45.392C159.92 44.832 159.872 44.448 159.696 44.24C159.536 44.032 159.136 43.928 158.496 43.928H154.32C153.968 43.928 153.664 43.8 153.408 43.544C153.152 43.288 153.024 42.984 153.024 42.632C153.024 42.44 153.056 42.28 153.12 42.152C153.088 42.168 153.04 42.176 152.976 42.176H152.352V57.584ZM146.664 54.392C147.192 54.248 147.704 54.112 148.2 53.984C148.696 53.84 149.136 53.72 149.52 53.624V51.632H146.664V54.392ZM146.664 49.256H149.52V46.904H146.664V49.256ZM146.664 44.528H149.52V42.176H146.664V44.528ZM176.112 60.128C175.824 59.856 175.664 59.52 175.632 59.12C175.616 58.72 175.752 58.376 176.04 58.088C177.256 56.856 178.208 55.304 178.896 53.432C179.6 51.56 179.952 49.52 179.952 47.312C179.952 46.064 179.752 45.16 179.352 44.6C178.952 44.04 178.36 43.76 177.576 43.76C176.936 43.76 176.344 44.024 175.8 44.552C175.256 45.064 174.848 45.832 174.576 46.856C174.304 47.88 174.232 49.168 174.36 50.72C174.392 51.088 174.288 51.424 174.048 51.728C173.824 52.016 173.528 52.176 173.16 52.208C172.776 52.24 172.44 52.144 172.152 51.92C171.88 51.696 171.712 51.4 171.648 51.032C171.536 50.2 171.464 49.288 171.432 48.296C171.4 47.288 171.392 46.288 171.408 45.296C171.44 44.288 171.488 43.36 171.552 42.512C171.616 41.648 171.68 40.936 171.744 40.376C171.792 39.992 171.968 39.68 172.272 39.44C172.576 39.2 172.92 39.104 173.304 39.152C173.704 39.2 174.016 39.368 174.24 39.656C174.48 39.944 174.568 40.296 174.504 40.712C174.472 41 174.424 41.368 174.36 41.816C174.312 42.264 174.272 42.688 174.24 43.088C174.608 42.464 175.104 41.944 175.728 41.528C176.352 41.096 177 40.88 177.672 40.88C179.384 40.88 180.664 41.44 181.512 42.56C182.36 43.664 182.784 45.248 182.784 47.312C182.784 48.96 182.608 50.568 182.256 52.136C181.92 53.688 181.408 55.144 180.72 56.504C180.048 57.848 179.2 59.04 178.176 60.08C177.904 60.368 177.56 60.512 177.144 60.512C176.744 60.528 176.4 60.4 176.112 60.128ZM199.632 60.152C199.248 60.152 198.944 60.032 198.72 59.792C198.496 59.552 198.384 59.256 198.384 58.904C198.384 58.568 198.496 58.28 198.72 58.04C198.944 57.8 199.248 57.68 199.632 57.68H201.24V43.712C201.24 42.72 201.376 41.936 201.648 41.36C201.92 40.784 202.368 40.376 202.992 40.136C203.616 39.88 204.448 39.752 205.488 39.752H206.304C207.36 39.752 208.192 39.88 208.8 40.136C209.424 40.376 209.872 40.784 210.144 41.36C210.416 41.936 210.552 42.72 210.552 43.712V57.68H211.488C211.872 57.68 212.176 57.8 212.4 58.04C212.624 58.28 212.736 58.568 212.736 58.904C212.736 59.256 212.624 59.552 212.4 59.792C212.176 60.032 211.872 60.152 211.488 60.152H199.632ZM195.216 61.04C194.848 61.04 194.536 60.92 194.28 60.68C194.04 60.44 193.92 60.12 193.92 59.72V51.032C193.408 51.096 192.928 51.16 192.48 51.224C192.032 51.272 191.648 51.312 191.328 51.344C190.928 51.392 190.584 51.312 190.296 51.104C190.024 50.88 189.872 50.568 189.84 50.168C189.808 49.8 189.896 49.488 190.104 49.232C190.328 48.96 190.64 48.816 191.04 48.8C191.152 48.784 191.272 48.776 191.4 48.776C191.544 48.776 191.688 48.768 191.832 48.752C192.056 48.464 192.312 48.12 192.6 47.72C192.904 47.304 193.224 46.872 193.56 46.424C193.272 46.2 192.928 45.952 192.528 45.68C192.128 45.392 191.744 45.12 191.376 44.864C191.024 44.592 190.744 44.392 190.536 44.264C190.232 44.072 190.048 43.808 189.984 43.472C189.936 43.136 190.008 42.816 190.2 42.512C190.408 42.192 190.688 42 191.04 41.936C191.392 41.856 191.72 41.92 192.024 42.128L192.216 42.248C192.376 41.976 192.568 41.656 192.792 41.288C193.016 40.92 193.224 40.568 193.416 40.232C193.624 39.896 193.768 39.64 193.848 39.464C194.024 39.144 194.288 38.936 194.64 38.84C195.008 38.728 195.352 38.76 195.672 38.936C195.976 39.096 196.168 39.344 196.248 39.68C196.328 40.016 196.28 40.336 196.104 40.64C195.976 40.864 195.792 41.16 195.552 41.528C195.328 41.896 195.088 42.272 194.832 42.656C194.592 43.04 194.376 43.368 194.184 43.64L195.072 44.288C195.44 43.792 195.768 43.328 196.056 42.896C196.36 42.464 196.6 42.112 196.776 41.84C197 41.52 197.288 41.328 197.64 41.264C197.992 41.2 198.32 41.272 198.624 41.48C198.944 41.672 199.136 41.944 199.2 42.296C199.264 42.648 199.192 42.976 198.984 43.28C198.712 43.648 198.352 44.128 197.904 44.72C197.472 45.312 197.008 45.936 196.512 46.592C196.016 47.248 195.544 47.872 195.096 48.464C195.544 48.432 195.984 48.392 196.416 48.344C196.848 48.296 197.24 48.256 197.592 48.224L197.352 47.672C197.224 47.368 197.232 47.072 197.376 46.784C197.536 46.48 197.768 46.272 198.072 46.16C198.392 46.032 198.696 46.032 198.984 46.16C199.288 46.272 199.52 46.488 199.68 46.808C199.792 47.016 199.936 47.328 200.112 47.744C200.288 48.144 200.464 48.552 200.64 48.968C200.816 49.368 200.944 49.688 201.024 49.928C201.152 50.264 201.16 50.576 201.048 50.864C200.936 51.152 200.696 51.368 200.328 51.512C199.976 51.64 199.64 51.64 199.32 51.512C199 51.384 198.776 51.16 198.648 50.84C198.632 50.776 198.608 50.704 198.576 50.624C198.544 50.544 198.512 50.464 198.48 50.384C198.224 50.432 197.928 50.48 197.592 50.528C197.256 50.576 196.904 50.624 196.536 50.672V59.72C196.536 60.12 196.408 60.44 196.152 60.68C195.896 60.92 195.584 61.04 195.216 61.04ZM190.752 58.376C190.448 58.264 190.216 58.072 190.056 57.8C189.912 57.512 189.904 57.216 190.032 56.912C190.16 56.592 190.304 56.192 190.464 55.712C190.64 55.216 190.8 54.72 190.944 54.224C191.088 53.728 191.2 53.304 191.28 52.952C191.36 52.632 191.536 52.392 191.808 52.232C192.096 52.072 192.408 52.032 192.744 52.112C193.064 52.176 193.304 52.344 193.464 52.616C193.624 52.888 193.664 53.184 193.584 53.504C193.504 53.872 193.392 54.312 193.248 54.824C193.104 55.32 192.952 55.816 192.792 56.312C192.632 56.792 192.488 57.208 192.36 57.56C192.232 57.88 192.008 58.12 191.688 58.28C191.384 58.44 191.072 58.472 190.752 58.376ZM203.952 57.68H207.72V54.128H203.952V57.68ZM203.952 51.584H207.72V48.248H203.952V51.584ZM203.952 45.704H207.72V43.856C207.72 43.264 207.6 42.872 207.36 42.68C207.136 42.472 206.688 42.368 206.016 42.368H205.656C204.984 42.368 204.528 42.472 204.288 42.68C204.064 42.872 203.952 43.264 203.952 43.856V45.704ZM199.512 56.936C199.16 57.048 198.832 57.04 198.528 56.912C198.24 56.768 198.04 56.536 197.928 56.216C197.848 55.976 197.744 55.672 197.616 55.304C197.488 54.92 197.368 54.544 197.256 54.176C197.144 53.792 197.056 53.48 196.992 53.24C196.912 52.92 196.952 52.624 197.112 52.352C197.288 52.08 197.536 51.912 197.856 51.848C198.176 51.768 198.464 51.8 198.72 51.944C198.992 52.088 199.176 52.312 199.272 52.616C199.336 52.84 199.432 53.128 199.56 53.48C199.688 53.832 199.816 54.184 199.944 54.536C200.072 54.888 200.176 55.176 200.256 55.4C200.384 55.72 200.376 56.024 200.232 56.312C200.088 56.6 199.848 56.808 199.512 56.936ZM224.808 59.576C224.52 59.304 224.368 58.968 224.352 58.568C224.336 58.168 224.464 57.824 224.736 57.536C225.392 56.88 226 56.096 226.56 55.184C227.12 54.256 227.608 53.288 228.024 52.28C226.712 51.944 225.456 51.704 224.256 51.56C223.664 52.808 222.992 53.848 222.24 54.68C221.488 55.512 220.688 56.088 219.84 56.408C219.04 56.728 218.256 56.84 217.488 56.744C216.72 56.632 216.08 56.32 215.568 55.808C215.072 55.296 214.824 54.576 214.824 53.648C214.824 52.768 215.088 51.968 215.616 51.248C216.144 50.528 216.96 49.952 218.064 49.52C219.184 49.072 220.624 48.848 222.384 48.848C222.72 47.904 223.032 46.816 223.32 45.584C223.544 44.656 223.504 44.04 223.2 43.736C222.896 43.416 222.304 43.312 221.424 43.424C221.12 43.472 220.728 43.528 220.248 43.592C219.768 43.656 219.392 43.704 219.12 43.736C218.72 43.752 218.368 43.632 218.064 43.376C217.76 43.12 217.592 42.792 217.56 42.392C217.544 41.992 217.664 41.648 217.92 41.36C218.176 41.056 218.504 40.888 218.904 40.856C219.24 40.824 219.656 40.784 220.152 40.736C220.648 40.688 221.056 40.656 221.376 40.64C223.392 40.512 224.776 40.864 225.528 41.696C226.296 42.528 226.496 43.904 226.128 45.824C226.016 46.4 225.888 46.96 225.744 47.504C225.6 48.032 225.448 48.544 225.288 49.04C225.864 49.104 226.456 49.2 227.064 49.328C227.672 49.44 228.272 49.568 228.864 49.712C228.992 49.168 229.096 48.64 229.176 48.128C229.256 47.6 229.304 47.096 229.32 46.616C229.336 46.216 229.472 45.88 229.728 45.608C230 45.32 230.336 45.168 230.736 45.152C231.136 45.152 231.472 45.296 231.744 45.584C232.032 45.856 232.168 46.192 232.152 46.592C232.136 47.216 232.072 47.856 231.96 48.512C231.864 49.152 231.728 49.8 231.552 50.456C232.048 50.616 232.528 50.784 232.992 50.96C233.472 51.12 233.936 51.288 234.384 51.464C234.752 51.624 235.008 51.888 235.152 52.256C235.312 52.624 235.312 52.992 235.152 53.36C235.008 53.712 234.752 53.968 234.384 54.128C234.016 54.288 233.648 54.288 233.28 54.128C232.864 53.936 232.44 53.76 232.008 53.6C231.576 53.424 231.144 53.256 230.712 53.096C230.216 54.376 229.632 55.576 228.96 56.696C228.304 57.816 227.6 58.752 226.848 59.504C226.576 59.776 226.24 59.92 225.84 59.936C225.456 59.952 225.112 59.832 224.808 59.576ZM218.832 53.888C219.216 53.728 219.608 53.456 220.008 53.072C220.408 52.688 220.8 52.16 221.184 51.488C219.92 51.6 219.016 51.84 218.472 52.208C217.944 52.576 217.672 52.984 217.656 53.432C217.656 53.688 217.752 53.872 217.944 53.984C218.152 54.08 218.448 54.048 218.832 53.888ZM254.28 60.08C252.136 60.384 250.328 60.496 248.856 60.416C247.384 60.352 246.2 60.136 245.304 59.768C244.424 59.4 243.784 58.912 243.384 58.304C242.984 57.68 242.784 56.976 242.784 56.192C242.784 54.992 243.264 53.872 244.224 52.832C245.2 51.792 246.608 50.88 248.448 50.096C248.192 49.776 247.88 49.56 247.512 49.448C246.712 49.208 245.92 49.296 245.136 49.712C244.368 50.128 243.616 50.736 242.88 51.536C242.608 51.824 242.248 51.984 241.8 52.016C241.368 52.032 241.016 51.896 240.744 51.608C240.488 51.304 240.368 50.952 240.384 50.552C240.416 50.152 240.584 49.824 240.888 49.568C241.672 48.896 242.36 48.168 242.952 47.384C243.56 46.6 244.072 45.792 244.488 44.96C243.8 44.976 243.152 44.992 242.544 45.008C241.952 45.008 241.44 45 241.008 44.984C240.608 44.984 240.272 44.848 240 44.576C239.728 44.288 239.592 43.944 239.592 43.544C239.608 43.144 239.76 42.816 240.048 42.56C240.336 42.304 240.68 42.184 241.08 42.2C241.64 42.216 242.312 42.224 243.096 42.224C243.896 42.208 244.728 42.192 245.592 42.176C245.672 41.872 245.744 41.576 245.808 41.288C245.872 41 245.928 40.712 245.976 40.424C246.04 40.024 246.216 39.704 246.504 39.464C246.792 39.208 247.136 39.104 247.536 39.152C247.936 39.2 248.256 39.376 248.496 39.68C248.736 39.984 248.832 40.336 248.784 40.736C248.768 40.944 248.736 41.16 248.688 41.384C248.64 41.608 248.584 41.832 248.52 42.056C249.128 42.024 249.696 41.992 250.224 41.96C250.752 41.912 251.224 41.856 251.64 41.792C252.04 41.744 252.392 41.84 252.696 42.08C253.016 42.304 253.2 42.616 253.248 43.016C253.296 43.416 253.192 43.768 252.936 44.072C252.696 44.376 252.384 44.544 252 44.576C251.408 44.64 250.728 44.696 249.96 44.744C249.192 44.792 248.392 44.832 247.56 44.864C247.208 45.648 246.824 46.384 246.408 47.072C246.792 46.992 247.16 46.968 247.512 47C247.864 47.016 248.2 47.072 248.52 47.168C249 47.296 249.464 47.52 249.912 47.84C250.376 48.144 250.784 48.576 251.136 49.136C251.92 48.912 252.752 48.704 253.632 48.512C254.528 48.32 255.472 48.152 256.464 48.008C256.848 47.944 257.2 48.032 257.52 48.272C257.84 48.496 258.024 48.808 258.072 49.208C258.136 49.608 258.048 49.96 257.808 50.264C257.568 50.568 257.248 50.752 256.848 50.816C255.92 50.928 255.064 51.064 254.28 51.224C253.496 51.368 252.768 51.528 252.096 51.704C252.176 52.136 252.24 52.608 252.288 53.12C252.336 53.632 252.36 54.184 252.36 54.776C252.36 55.176 252.216 55.52 251.928 55.808C251.656 56.08 251.32 56.216 250.92 56.216C250.52 56.216 250.184 56.08 249.912 55.808C249.64 55.52 249.504 55.176 249.504 54.776C249.504 53.96 249.456 53.232 249.36 52.592C248.048 53.136 247.096 53.72 246.504 54.344C245.928 54.952 245.64 55.544 245.64 56.12C245.64 56.552 245.896 56.904 246.408 57.176C246.92 57.448 247.776 57.6 248.976 57.632C250.176 57.664 251.816 57.544 253.896 57.272C254.28 57.224 254.632 57.32 254.952 57.56C255.272 57.784 255.456 58.096 255.504 58.496C255.552 58.88 255.456 59.224 255.216 59.528C254.976 59.832 254.664 60.016 254.28 60.08ZM267.024 58.856C266.624 58.968 266.24 58.936 265.872 58.76C265.52 58.568 265.28 58.272 265.152 57.872C265.04 57.488 265.072 57.112 265.248 56.744C265.44 56.376 265.728 56.136 266.112 56.024C267.344 55.64 268.6 55.104 269.88 54.416C271.176 53.728 272.424 52.944 273.624 52.064C274.84 51.168 275.952 50.224 276.96 49.232C277.984 48.24 278.832 47.248 279.504 46.256C279.728 45.92 280.04 45.712 280.44 45.632C280.84 45.552 281.208 45.632 281.544 45.872C281.896 46.096 282.104 46.408 282.168 46.808C282.248 47.208 282.176 47.576 281.952 47.912C281.216 49 280.28 50.104 279.144 51.224C278.008 52.328 276.76 53.384 275.4 54.392C274.04 55.384 272.64 56.272 271.2 57.056C269.76 57.824 268.368 58.424 267.024 58.856ZM270.456 46.664C270.232 46.456 269.912 46.208 269.496 45.92C269.096 45.632 268.68 45.352 268.248 45.08C267.816 44.792 267.44 44.568 267.12 44.408C266.768 44.216 266.536 43.92 266.424 43.52C266.312 43.12 266.36 42.744 266.568 42.392C266.776 42.024 267.08 41.792 267.48 41.696C267.88 41.6 268.256 41.648 268.608 41.84C268.96 42.032 269.384 42.296 269.88 42.632C270.392 42.952 270.888 43.28 271.368 43.616C271.848 43.952 272.224 44.24 272.496 44.48C272.8 44.752 272.952 45.096 272.952 45.512C272.968 45.928 272.84 46.288 272.568 46.592C272.28 46.896 271.936 47.048 271.536 47.048C271.136 47.048 270.776 46.92 270.456 46.664ZM267.912 51.08C267.688 50.904 267.36 50.688 266.928 50.432C266.512 50.16 266.072 49.896 265.608 49.64C265.16 49.384 264.776 49.184 264.456 49.04C264.088 48.864 263.84 48.576 263.712 48.176C263.584 47.776 263.608 47.4 263.784 47.048C263.976 46.68 264.264 46.44 264.648 46.328C265.048 46.2 265.424 46.224 265.776 46.4C266.16 46.576 266.608 46.808 267.12 47.096C267.648 47.384 268.16 47.688 268.656 48.008C269.152 48.312 269.544 48.576 269.832 48.8C270.152 49.056 270.328 49.392 270.36 49.808C270.392 50.208 270.272 50.568 270 50.888C269.744 51.208 269.408 51.384 268.992 51.416C268.592 51.448 268.232 51.336 267.912 51.08ZM290.304 57.728C289.952 57.728 289.648 57.6 289.392 57.344C289.136 57.072 289.008 56.76 289.008 56.408C289.008 56.04 289.136 55.736 289.392 55.496C289.648 55.24 289.952 55.112 290.304 55.112H295.728V51.104H292.44C292.088 51.104 291.784 50.976 291.528 50.72C291.272 50.448 291.144 50.136 291.144 49.784C291.144 49.416 291.272 49.112 291.528 48.872C291.784 48.616 292.088 48.488 292.44 48.488H301.56C301.928 48.488 302.24 48.616 302.496 48.872C302.752 49.112 302.88 49.416 302.88 49.784C302.88 50.136 302.752 50.448 302.496 50.72C302.24 50.976 301.928 51.104 301.56 51.104H298.32V55.112H303.792C304.16 55.112 304.464 55.24 304.704 55.496C304.96 55.736 305.088 56.04 305.088 56.408C305.088 56.76 304.96 57.072 304.704 57.344C304.464 57.6 304.16 57.728 303.792 57.728H290.304ZM316.68 60.008C316.36 60.264 316 60.368 315.6 60.32C315.2 60.272 314.872 60.088 314.616 59.768C314.36 59.448 314.256 59.088 314.304 58.688C314.352 58.272 314.536 57.936 314.856 57.68C315.944 56.832 316.848 55.84 317.568 54.704C318.288 53.552 318.784 52.296 319.056 50.936C319.344 49.576 319.36 48.168 319.104 46.712C319.04 46.296 319.12 45.928 319.344 45.608C319.568 45.272 319.88 45.072 320.28 45.008C320.696 44.928 321.064 45 321.384 45.224C321.72 45.448 321.92 45.768 321.984 46.184C322.016 46.296 322.032 46.416 322.032 46.544C322.048 46.672 322.064 46.8 322.08 46.928C323.52 46.848 324.6 46.728 325.32 46.568C326.056 46.392 326.544 46.2 326.784 45.992C327.04 45.768 327.168 45.544 327.168 45.32C327.168 44.984 327.064 44.728 326.856 44.552C326.648 44.36 326.2 44.264 325.512 44.264H312.816C312.416 44.264 312.064 44.12 311.76 43.832C311.472 43.544 311.328 43.2 311.328 42.8C311.328 42.384 311.472 42.04 311.76 41.768C312.064 41.48 312.416 41.336 312.816 41.336H325.512C328.68 41.336 330.264 42.624 330.264 45.2C330.264 46.16 329.984 46.96 329.424 47.6C328.88 48.224 328.008 48.704 326.808 49.04C325.624 49.376 324.064 49.6 322.128 49.712C321.984 51.792 321.44 53.72 320.496 55.496C319.552 57.272 318.28 58.776 316.68 60.008ZM345.768 60.032C343.848 60.032 342.336 59.56 341.232 58.616C340.144 57.656 339.6 56.12 339.6 54.008V41.216C339.6 40.816 339.736 40.48 340.008 40.208C340.296 39.92 340.64 39.776 341.04 39.776C341.44 39.776 341.776 39.92 342.048 40.208C342.336 40.48 342.48 40.816 342.48 41.216V54.008C342.48 55.192 342.744 56.016 343.272 56.48C343.816 56.944 344.648 57.176 345.768 57.176C346.76 57.176 347.688 56.912 348.552 56.384C349.432 55.856 350.144 55.008 350.688 53.84C350.864 53.472 351.144 53.224 351.528 53.096C351.912 52.968 352.28 52.992 352.632 53.168C353 53.328 353.24 53.6 353.352 53.984C353.48 54.368 353.464 54.744 353.304 55.112C352.6 56.696 351.568 57.912 350.208 58.76C348.864 59.608 347.384 60.032 345.768 60.032ZM375.24 59.768C373.352 59.496 371.792 58.952 370.56 58.136C369.328 57.304 368.408 56.304 367.8 55.136C367.208 53.968 366.912 52.752 366.912 51.488C366.912 50.208 367.16 49.016 367.656 47.912C368.168 46.792 368.896 45.824 369.84 45.008C368.88 45.152 367.856 45.32 366.768 45.512C365.68 45.688 364.624 45.872 363.6 46.064C362.576 46.24 361.68 46.4 360.912 46.544C360.528 46.608 360.176 46.52 359.856 46.28C359.536 46.04 359.344 45.728 359.28 45.344C359.216 44.944 359.304 44.592 359.544 44.288C359.784 43.968 360.104 43.776 360.504 43.712C361.016 43.632 361.672 43.528 362.472 43.4C363.272 43.256 364.168 43.104 365.16 42.944C366.152 42.784 367.168 42.616 368.208 42.44C369.248 42.264 370.264 42.096 371.256 41.936C372.264 41.76 373.184 41.6 374.016 41.456C374.848 41.312 375.528 41.192 376.056 41.096C376.424 41.032 376.768 41.112 377.088 41.336C377.408 41.56 377.608 41.856 377.688 42.224C377.768 42.608 377.696 42.968 377.472 43.304C377.264 43.64 376.968 43.84 376.584 43.904C375.416 44.064 374.4 44.4 373.536 44.912C372.688 45.408 371.984 46.016 371.424 46.736C370.864 47.44 370.448 48.192 370.176 48.992C369.904 49.792 369.768 50.568 369.768 51.32C369.768 52.872 370.296 54.128 371.352 55.088C372.408 56.032 373.84 56.64 375.648 56.912C376.048 56.976 376.368 57.168 376.608 57.488C376.848 57.808 376.936 58.16 376.872 58.544C376.808 58.944 376.616 59.264 376.296 59.504C375.992 59.744 375.64 59.832 375.24 59.768ZM397.272 60.488C396.952 60.712 396.592 60.784 396.192 60.704C395.792 60.64 395.48 60.456 395.256 60.152C394.712 59.368 394.096 58.552 393.408 57.704C392.736 56.856 392.064 56.048 391.392 55.28C390.72 54.496 390.112 53.832 389.568 53.288C388.624 52.36 387.992 51.488 387.672 50.672C387.352 49.856 387.36 49.048 387.696 48.248C388.032 47.432 388.696 46.56 389.688 45.632C390.024 45.328 390.424 44.944 390.888 44.48C391.368 44.016 391.872 43.52 392.4 42.992C392.928 42.464 393.44 41.936 393.936 41.408C394.432 40.88 394.88 40.408 395.28 39.992C395.552 39.704 395.888 39.56 396.288 39.56C396.704 39.544 397.056 39.672 397.344 39.944C397.632 40.2 397.776 40.536 397.776 40.952C397.792 41.352 397.664 41.696 397.392 41.984C396.832 42.592 396.208 43.24 395.52 43.928C394.848 44.6 394.192 45.248 393.552 45.872C392.912 46.48 392.36 46.992 391.896 47.408C391.272 47.984 390.856 48.48 390.648 48.896C390.456 49.296 390.456 49.696 390.648 50.096C390.856 50.496 391.24 50.992 391.8 51.584C392.344 52.144 392.96 52.816 393.648 53.6C394.352 54.384 395.056 55.2 395.76 56.048C396.464 56.896 397.08 57.704 397.608 58.472C397.848 58.776 397.928 59.128 397.848 59.528C397.784 59.944 397.592 60.264 397.272 60.488ZM412.344 60.8C411.96 60.8 411.632 60.664 411.36 60.392C411.088 60.12 410.952 59.792 410.952 59.408V54.128C410.68 54.544 410.408 54.96 410.136 55.376C409.88 55.776 409.64 56.16 409.416 56.528C409.208 56.864 408.904 57.072 408.504 57.152C408.12 57.216 407.768 57.144 407.448 56.936C407.128 56.712 406.928 56.408 406.848 56.024C406.784 55.624 406.864 55.264 407.088 54.944C407.552 54.32 408.112 53.536 408.768 52.592C409.44 51.632 410.168 50.656 410.952 49.664V46.592C410.904 46.608 410.848 46.624 410.784 46.64C410.72 46.64 410.656 46.656 410.592 46.688C410.416 46.72 410.16 46.784 409.824 46.88C409.504 46.976 409.192 47.072 408.888 47.168C408.6 47.248 408.4 47.304 408.288 47.336C407.904 47.416 407.544 47.352 407.208 47.144C406.872 46.936 406.656 46.632 406.56 46.232C406.48 45.848 406.544 45.488 406.752 45.152C406.976 44.816 407.28 44.608 407.664 44.528C407.808 44.496 408.032 44.448 408.336 44.384C408.64 44.304 408.96 44.232 409.296 44.168C409.648 44.088 409.944 44.024 410.184 43.976C410.44 43.912 410.696 43.864 410.952 43.832V40.376C410.952 39.992 411.088 39.664 411.36 39.392C411.632 39.12 411.96 38.984 412.344 38.984C412.728 38.984 413.056 39.12 413.328 39.392C413.6 39.664 413.736 39.992 413.736 40.376V44.312C414.008 44.488 414.232 44.744 414.408 45.08C414.52 45.272 414.6 45.496 414.648 45.752C415.4 45.128 416.144 44.624 416.88 44.24C417.632 43.856 418.376 43.664 419.112 43.664C420.888 43.664 422.136 44.256 422.856 45.44C423.576 46.608 423.704 48.48 423.24 51.056C423.064 52.08 422.936 52.904 422.856 53.528C422.776 54.136 422.736 54.6 422.736 54.92C422.752 55.24 422.792 55.464 422.856 55.592C422.936 55.72 423.04 55.824 423.168 55.904C423.536 56.096 423.944 56.112 424.392 55.952C424.84 55.776 425.312 55.448 425.808 54.968C426.096 54.696 426.44 54.584 426.84 54.632C427.24 54.68 427.568 54.856 427.824 55.16C428.096 55.464 428.208 55.816 428.16 56.216C428.128 56.6 427.968 56.928 427.68 57.2C426.704 58.128 425.648 58.704 424.512 58.928C423.376 59.136 422.352 58.992 421.44 58.496C420.896 58.176 420.496 57.744 420.24 57.2C419.984 56.656 419.864 55.928 419.88 55.016C419.896 54.104 420.032 52.944 420.288 51.536C420.544 50.128 420.656 49.064 420.624 48.344C420.592 47.608 420.432 47.112 420.144 46.856C419.872 46.584 419.48 46.448 418.968 46.448C418.488 46.448 417.96 46.624 417.384 46.976C416.808 47.328 416.208 47.8 415.584 48.392C414.976 48.984 414.36 49.648 413.736 50.384V59.408C413.736 59.792 413.6 60.12 413.328 60.392C413.056 60.664 412.728 60.8 412.344 60.8ZM440.928 60.032C439.472 60 438.32 59.648 437.472 58.976C436.64 58.304 436.24 57.384 436.272 56.216C436.304 55.528 436.496 54.928 436.848 54.416C437.216 53.904 437.712 53.52 438.336 53.264C438.96 52.992 439.672 52.896 440.472 52.976C441.752 53.088 442.648 53.528 443.16 54.296C443.672 55.048 443.824 55.912 443.616 56.888C444.176 56.616 444.632 56.224 444.984 55.712C445.352 55.184 445.536 54.504 445.536 53.672C445.536 53.048 445.352 52.488 444.984 51.992C444.632 51.48 444.128 51.088 443.472 50.816C442.832 50.528 442.088 50.408 441.24 50.456C440.392 50.504 439.48 50.76 438.504 51.224C437.528 51.672 436.528 52.392 435.504 53.384C435.216 53.656 434.856 53.792 434.424 53.792C433.992 53.776 433.64 53.608 433.368 53.288C433.112 52.984 432.992 52.64 433.008 52.256C433.04 51.856 433.208 51.544 433.512 51.32C434.504 50.568 435.496 49.776 436.488 48.944C437.48 48.096 438.424 47.264 439.32 46.448C440.232 45.632 441.032 44.888 441.72 44.216C442.152 43.8 442.296 43.456 442.152 43.184C442.024 42.912 441.68 42.816 441.12 42.896C440.576 42.96 439.952 43.04 439.248 43.136C438.56 43.232 437.912 43.32 437.304 43.4C436.92 43.464 436.568 43.376 436.248 43.136C435.928 42.896 435.744 42.576 435.696 42.176C435.632 41.792 435.72 41.448 435.96 41.144C436.2 40.824 436.52 40.632 436.92 40.568C437.272 40.52 437.712 40.472 438.24 40.424C438.784 40.376 439.336 40.328 439.896 40.28C440.472 40.232 440.96 40.192 441.36 40.16C442.4 40.08 443.248 40.216 443.904 40.568C444.56 40.92 445.008 41.4 445.248 42.008C445.488 42.6 445.496 43.248 445.272 43.952C445.064 44.656 444.608 45.32 443.904 45.944C443.584 46.216 443.176 46.568 442.68 47C442.2 47.432 441.704 47.872 441.192 48.32C442.104 48.144 442.992 48.136 443.856 48.296C444.72 48.44 445.488 48.744 446.16 49.208C446.848 49.672 447.392 50.288 447.792 51.056C448.192 51.808 448.392 52.696 448.392 53.72C448.392 55.176 448.072 56.384 447.432 57.344C446.792 58.288 445.912 58.976 444.792 59.408C443.672 59.856 442.384 60.064 440.928 60.032ZM440.496 57.368C440.528 57.368 440.576 57.368 440.64 57.368C440.688 57.368 440.744 57.376 440.808 57.392C440.888 57.392 440.976 57.384 441.072 57.368C441.296 56.84 441.336 56.4 441.192 56.048C441.048 55.696 440.76 55.488 440.328 55.424C439.944 55.376 439.624 55.432 439.368 55.592C439.128 55.736 438.992 55.976 438.96 56.312C438.944 56.952 439.456 57.304 440.496 57.368ZM470.976 59.696C468.4 60.048 466.16 60.08 464.256 59.792C462.352 59.52 460.88 58.912 459.84 57.968C458.816 57.024 458.304 55.744 458.304 54.128C458.304 52.72 458.656 51.52 459.36 50.528C460.08 49.52 461.072 48.648 462.336 47.912C462.224 47.288 462.064 46.576 461.856 45.776C461.648 44.976 461.432 44.184 461.208 43.4C460.984 42.6 460.784 41.928 460.608 41.384C460.496 41.016 460.536 40.656 460.728 40.304C460.936 39.952 461.224 39.72 461.592 39.608C461.992 39.496 462.36 39.544 462.696 39.752C463.048 39.944 463.28 40.232 463.392 40.616C463.664 41.544 463.928 42.552 464.184 43.64C464.456 44.712 464.68 45.744 464.856 46.736C465.624 46.432 466.44 46.16 467.304 45.92C468.168 45.664 469.064 45.432 469.992 45.224C470.376 45.128 470.736 45.184 471.072 45.392C471.408 45.6 471.616 45.896 471.696 46.28C471.776 46.68 471.712 47.048 471.504 47.384C471.296 47.704 471 47.904 470.616 47.984C468.616 48.4 466.992 48.848 465.744 49.328C464.496 49.792 463.536 50.288 462.864 50.816C462.208 51.328 461.752 51.864 461.496 52.424C461.256 52.968 461.136 53.536 461.136 54.128C461.136 55.392 461.904 56.288 463.44 56.816C464.976 57.328 467.368 57.344 470.616 56.864C471.016 56.8 471.368 56.896 471.672 57.152C471.992 57.392 472.176 57.704 472.224 58.088C472.272 58.488 472.176 58.84 471.936 59.144C471.696 59.464 471.376 59.648 470.976 59.696ZM478.776 60.224C478.52 59.968 478.392 59.664 478.392 59.312C478.392 58.96 478.512 58.68 478.752 58.472C479.92 57.368 480.864 56.184 481.584 54.92C481.44 54.808 481.296 54.704 481.152 54.608C481.024 54.512 480.896 54.416 480.768 54.32C480.144 53.888 479.68 53.496 479.376 53.144C479.088 52.776 478.92 52.368 478.872 51.92C478.84 51.456 478.896 50.88 479.04 50.192C479.168 49.616 479.288 49 479.4 48.344C479.528 47.672 479.648 46.992 479.76 46.304H478.68C478.376 46.304 478.112 46.192 477.888 45.968C477.664 45.744 477.552 45.48 477.552 45.176C477.552 44.856 477.664 44.592 477.888 44.384C478.112 44.16 478.376 44.048 478.68 44.048H480.12C480.232 43.296 480.328 42.576 480.408 41.888C480.504 41.184 480.584 40.56 480.648 40.016C480.68 39.648 480.824 39.368 481.08 39.176C481.352 38.968 481.656 38.88 481.992 38.912C482.344 38.944 482.624 39.088 482.832 39.344C483.056 39.6 483.144 39.92 483.096 40.304C483.032 40.832 482.952 41.416 482.856 42.056C482.76 42.696 482.648 43.36 482.52 44.048C483.896 44.048 484.832 44.296 485.328 44.792C485.84 45.272 486.056 46.128 485.976 47.36C485.912 48.688 485.76 49.912 485.52 51.032C485.296 52.152 484.992 53.192 484.608 54.152C484.944 54.408 485.272 54.672 485.592 54.944C485.912 55.216 486.2 55.48 486.456 55.736C486.728 55.992 486.872 56.296 486.888 56.648C486.904 57 486.776 57.312 486.504 57.584C486.264 57.84 485.96 57.968 485.592 57.968C485.224 57.968 484.912 57.84 484.656 57.584C484.48 57.408 484.288 57.232 484.08 57.056C483.888 56.864 483.688 56.672 483.48 56.48C482.712 57.776 481.784 58.968 480.696 60.056C480.44 60.328 480.128 60.488 479.76 60.536C479.392 60.584 479.064 60.48 478.776 60.224ZM486.672 54.392C486.384 54.392 486.136 54.288 485.928 54.08C485.72 53.872 485.616 53.624 485.616 53.336C485.616 53.032 485.72 52.776 485.928 52.568C486.136 52.36 486.384 52.256 486.672 52.256H489.48C489.416 52.064 489.344 51.848 489.264 51.608C489.184 51.368 489.112 51.152 489.048 50.96C488.472 50.832 488.072 50.592 487.848 50.24C487.64 49.872 487.536 49.368 487.536 48.728C487.536 47.864 487.744 47.256 488.16 46.904C488.592 46.552 489.424 46.376 490.656 46.376H495.288C496.52 46.376 497.344 46.552 497.76 46.904C498.176 47.256 498.384 47.864 498.384 48.728C498.384 49.368 498.272 49.872 498.048 50.24C497.84 50.592 497.44 50.832 496.848 50.96C496.784 51.152 496.712 51.368 496.632 51.608C496.552 51.848 496.48 52.064 496.416 52.256H499.32C499.608 52.256 499.856 52.36 500.064 52.568C500.272 52.776 500.376 53.032 500.376 53.336C500.376 53.624 500.272 53.872 500.064 54.08C499.856 54.288 499.608 54.392 499.32 54.392H486.672ZM487.464 45.512C487.208 45.512 486.984 45.416 486.792 45.224C486.6 45.032 486.504 44.808 486.504 44.552C486.504 44.28 486.6 44.048 486.792 43.856C486.984 43.664 487.208 43.568 487.464 43.568H491.4V42.608H486.648C486.376 42.608 486.136 42.512 485.928 42.32C485.736 42.112 485.64 41.872 485.64 41.6C485.64 41.328 485.736 41.096 485.928 40.904C486.136 40.696 486.376 40.592 486.648 40.592H491.4V39.944C491.4 39.528 491.536 39.192 491.808 38.936C492.08 38.68 492.408 38.552 492.792 38.552C493.176 38.552 493.504 38.68 493.776 38.936C494.048 39.192 494.184 39.528 494.184 39.944V40.592H499.08C499.352 40.592 499.584 40.696 499.776 40.904C499.984 41.096 500.088 41.328 500.088 41.6C500.088 41.872 499.984 42.112 499.776 42.32C499.584 42.512 499.352 42.608 499.08 42.608H494.184V43.568H498.288C498.56 43.568 498.784 43.664 498.96 43.856C499.152 44.048 499.248 44.28 499.248 44.552C499.248 44.808 499.152 45.032 498.96 45.224C498.784 45.416 498.56 45.512 498.288 45.512H487.464ZM490.896 60.872C489.632 60.872 488.744 60.664 488.232 60.248C487.72 59.832 487.464 59.112 487.464 58.088C487.464 57.064 487.72 56.344 488.232 55.928C488.744 55.512 489.632 55.304 490.896 55.304H495.12C496.4 55.304 497.296 55.512 497.808 55.928C498.32 56.344 498.576 57.064 498.576 58.088C498.576 59.112 498.32 59.832 497.808 60.248C497.296 60.664 496.4 60.872 495.12 60.872H490.896ZM482.616 52.712C482.904 51.912 483.12 51.088 483.264 50.24C483.424 49.376 483.528 48.48 483.576 47.552C483.608 47.04 483.528 46.704 483.336 46.544C483.144 46.384 482.792 46.304 482.28 46.304H482.136C481.992 47.088 481.848 47.84 481.704 48.56C481.576 49.28 481.448 49.912 481.32 50.456C481.208 51 481.216 51.4 481.344 51.656C481.472 51.912 481.776 52.192 482.256 52.496L482.616 52.712ZM491.016 58.808H495.024C495.376 58.808 495.616 58.76 495.744 58.664C495.872 58.552 495.936 58.36 495.936 58.088C495.936 57.8 495.872 57.608 495.744 57.512C495.616 57.4 495.376 57.344 495.024 57.344H491.016C490.664 57.344 490.424 57.4 490.296 57.512C490.168 57.608 490.104 57.8 490.104 58.088C490.104 58.36 490.168 58.552 490.296 58.664C490.424 58.76 490.664 58.808 491.016 58.808ZM490.896 49.328H495.048C495.352 49.328 495.56 49.288 495.672 49.208C495.784 49.128 495.84 48.968 495.84 48.728C495.84 48.504 495.784 48.352 495.672 48.272C495.56 48.176 495.352 48.128 495.048 48.128H490.896C490.592 48.128 490.376 48.176 490.248 48.272C490.136 48.352 490.08 48.504 490.08 48.728C490.08 48.968 490.136 49.128 490.248 49.208C490.376 49.288 490.592 49.328 490.896 49.328ZM492 52.256H493.872C493.92 52.096 493.976 51.912 494.04 51.704C494.104 51.496 494.168 51.296 494.232 51.104H491.664C491.728 51.296 491.784 51.496 491.832 51.704C491.896 51.912 491.952 52.096 492 52.256ZM513.768 60.032C511.848 60.032 510.336 59.56 509.232 58.616C508.144 57.656 507.6 56.12 507.6 54.008V41.216C507.6 40.816 507.736 40.48 508.008 40.208C508.296 39.92 508.64 39.776 509.04 39.776C509.44 39.776 509.776 39.92 510.048 40.208C510.336 40.48 510.48 40.816 510.48 41.216V54.008C510.48 55.192 510.744 56.016 511.272 56.48C511.816 56.944 512.648 57.176 513.768 57.176C514.76 57.176 515.688 56.912 516.552 56.384C517.432 55.856 518.144 55.008 518.688 53.84C518.864 53.472 519.144 53.224 519.528 53.096C519.912 52.968 520.28 52.992 520.632 53.168C521 53.328 521.24 53.6 521.352 53.984C521.48 54.368 521.464 54.744 521.304 55.112C520.6 56.696 519.568 57.912 518.208 58.76C516.864 59.608 515.384 60.032 513.768 60.032ZM533.088 57.104C532.352 57.136 531.648 56.968 530.976 56.6C530.304 56.232 529.712 55.64 529.2 54.824C528.768 54.104 528.4 53.192 528.096 52.088C527.792 50.984 527.576 49.792 527.448 48.512C527.32 47.216 527.288 45.928 527.352 44.648C527.384 44.248 527.536 43.92 527.808 43.664C528.096 43.392 528.44 43.272 528.84 43.304C529.24 43.32 529.568 43.48 529.824 43.784C530.096 44.072 530.216 44.416 530.184 44.816C530.12 45.936 530.128 47.032 530.208 48.104C530.288 49.16 530.44 50.128 530.664 51.008C530.888 51.872 531.168 52.592 531.504 53.168C531.872 53.824 532.336 54.152 532.896 54.152C533.584 54.136 534.16 53.416 534.624 51.992C534.752 51.624 534.992 51.352 535.344 51.176C535.696 50.984 536.064 50.952 536.448 51.08C536.816 51.192 537.088 51.432 537.264 51.8C537.44 52.152 537.464 52.512 537.336 52.88C536.888 54.288 536.288 55.336 535.536 56.024C534.784 56.696 533.968 57.056 533.088 57.104ZM546.168 52.88C545.784 53.024 545.408 53.008 545.04 52.832C544.688 52.656 544.44 52.384 544.296 52.016C544.056 51.424 543.728 50.824 543.312 50.216C542.912 49.608 542.456 49.032 541.944 48.488C541.448 47.944 540.936 47.488 540.408 47.12C540.088 46.896 539.888 46.584 539.808 46.184C539.728 45.784 539.816 45.424 540.072 45.104C540.328 44.784 540.64 44.608 541.008 44.576C541.392 44.544 541.752 44.648 542.088 44.888C542.76 45.352 543.416 45.92 544.056 46.592C544.712 47.264 545.304 47.984 545.832 48.752C546.36 49.52 546.752 50.272 547.008 51.008C547.136 51.376 547.12 51.752 546.96 52.136C546.8 52.504 546.536 52.752 546.168 52.88ZM554.304 59.384C553.904 59.448 553.544 59.368 553.224 59.144C552.904 58.92 552.704 58.616 552.624 58.232C552.48 57.416 552.368 56.472 552.288 55.4C552.208 54.312 552.168 53.168 552.168 51.968C552.168 50.768 552.2 49.56 552.264 48.344C552.328 47.128 552.424 45.968 552.552 44.864C552.696 43.744 552.864 42.744 553.056 41.864C553.136 41.48 553.344 41.184 553.68 40.976C554.016 40.752 554.376 40.68 554.76 40.76C555.144 40.856 555.44 41.072 555.648 41.408C555.872 41.728 555.944 42.088 555.864 42.488C555.608 43.624 555.408 44.856 555.264 46.184C555.12 47.512 555.024 48.864 554.976 50.24C554.944 51.6 554.968 52.928 555.048 54.224C555.128 55.504 555.264 56.672 555.456 57.728C555.536 58.112 555.456 58.464 555.216 58.784C554.992 59.104 554.688 59.304 554.304 59.384ZM564.144 58.088C562.064 58.088 560.512 57.712 559.488 56.96C558.48 56.208 557.872 55.104 557.664 53.648C557.6 53.264 557.68 52.912 557.904 52.592C558.144 52.272 558.464 52.08 558.864 52.016C559.248 51.968 559.6 52.064 559.92 52.304C560.24 52.528 560.432 52.84 560.496 53.24C560.592 53.928 560.92 54.44 561.48 54.776C562.04 55.112 562.952 55.28 564.216 55.28C565.416 55.28 566.864 55.096 568.56 54.728C568.944 54.632 569.304 54.696 569.64 54.92C569.976 55.144 570.184 55.448 570.264 55.832C570.344 56.216 570.272 56.576 570.048 56.912C569.824 57.232 569.52 57.44 569.136 57.536C568.272 57.744 567.408 57.888 566.544 57.968C565.696 58.048 564.896 58.088 564.144 58.088ZM559.752 46.208C559.368 46.288 559.008 46.224 558.672 46.016C558.352 45.792 558.152 45.48 558.072 45.08C557.992 44.696 558.056 44.336 558.264 44C558.488 43.664 558.8 43.464 559.2 43.4C560.096 43.224 561.096 43.112 562.2 43.064C563.304 43 564.4 42.992 565.488 43.04C566.576 43.072 567.536 43.16 568.368 43.304C568.768 43.368 569.08 43.568 569.304 43.904C569.528 44.224 569.6 44.584 569.52 44.984C569.456 45.384 569.256 45.696 568.92 45.92C568.6 46.128 568.248 46.2 567.864 46.136C566.568 45.912 565.224 45.808 563.832 45.824C562.44 45.824 561.08 45.952 559.752 46.208ZM584.736 60.968C584.384 61.016 584.072 60.936 583.8 60.728C583.544 60.52 583.392 60.24 583.344 59.888C583.2 58.928 582.968 57.824 582.648 56.576C582.344 55.312 581.976 54.048 581.544 52.784C580.904 52.992 580.288 53.2 579.696 53.408C579.12 53.6 578.584 53.784 578.088 53.96C577.752 54.072 577.424 54.056 577.104 53.912C576.8 53.768 576.584 53.536 576.456 53.216C576.344 52.88 576.36 52.56 576.504 52.256C576.664 51.936 576.912 51.72 577.248 51.608C578.24 51.256 579.392 50.872 580.704 50.456C580.512 49.992 580.32 49.544 580.128 49.112C579.936 48.68 579.736 48.272 579.528 47.888C579.368 47.568 579.328 47.24 579.408 46.904C579.504 46.568 579.704 46.32 580.008 46.16C580.328 45.984 580.648 45.952 580.968 46.064C581.304 46.16 581.552 46.368 581.712 46.688C581.952 47.136 582.184 47.616 582.408 48.128C582.632 48.64 582.848 49.176 583.056 49.736C583.472 49.608 583.888 49.48 584.304 49.352C584.72 49.224 585.128 49.104 585.528 48.992C585.272 48.912 585.072 48.752 584.928 48.512L583.896 46.976C583.72 46.688 583.664 46.384 583.728 46.064C583.792 45.728 583.968 45.464 584.256 45.272C584.56 45.08 584.88 45.024 585.216 45.104C585.552 45.168 585.808 45.344 585.984 45.632L586.992 47.144C587.152 47.384 587.224 47.64 587.208 47.912C587.192 48.168 587.096 48.408 586.92 48.632C587.032 48.6 587.136 48.568 587.232 48.536C587.328 48.504 587.424 48.48 587.52 48.464C589.184 48.048 590.528 48.112 591.552 48.656C592.576 49.2 593.168 50.12 593.328 51.416C593.44 52.344 593.304 53.16 592.92 53.864C592.552 54.568 592 55.104 591.264 55.472C590.544 55.84 589.72 56.008 588.792 55.976C587.88 55.944 586.944 55.664 585.984 55.136C585.68 54.96 585.472 54.704 585.36 54.368C585.264 54.032 585.296 53.712 585.456 53.408C585.632 53.088 585.888 52.88 586.224 52.784C586.56 52.688 586.88 52.728 587.184 52.904C587.888 53.304 588.528 53.504 589.104 53.504C589.68 53.488 590.128 53.32 590.448 53C590.768 52.664 590.888 52.224 590.808 51.68C590.744 51.216 590.488 50.896 590.04 50.72C589.608 50.544 588.952 50.56 588.072 50.768C587.48 50.928 586.816 51.112 586.08 51.32C585.36 51.528 584.624 51.76 583.872 52.016C584.304 53.328 584.688 54.648 585.024 55.976C585.376 57.288 585.64 58.48 585.816 59.552C585.88 59.904 585.8 60.216 585.576 60.488C585.368 60.776 585.088 60.936 584.736 60.968ZM604.104 60.872C603.464 60.872 602.952 60.68 602.568 60.296C602.2 59.928 602.016 59.448 602.016 58.856C602.016 58.184 602.208 57.616 602.592 57.152C602.976 56.688 603.48 56.304 604.104 56C604.744 55.696 605.416 55.464 606.12 55.304C606.504 55.224 606.76 55.104 606.888 54.944C607.032 54.784 607.104 54.496 607.104 54.08V39.248C607.104 39.008 607.192 38.84 607.368 38.744C607.56 38.648 607.752 38.632 607.944 38.696C608.136 38.744 608.256 38.888 608.304 39.128C608.448 39.768 608.728 40.344 609.144 40.856C609.576 41.368 610.08 41.84 610.656 42.272C611.248 42.704 611.848 43.136 612.456 43.568C613.064 44 613.632 44.448 614.16 44.912C614.704 45.376 615.136 45.888 615.456 46.448C615.792 47.008 615.96 47.648 615.96 48.368C615.96 49.344 615.768 50.264 615.384 51.128C615 51.992 614.488 52.784 613.848 53.504C613.208 54.224 612.496 54.864 611.712 55.424C611.6 55.504 611.472 55.552 611.328 55.568C611.2 55.568 611.088 55.512 610.992 55.4C610.896 55.288 610.848 55.168 610.848 55.04C610.848 54.896 610.904 54.776 611.016 54.68C611.8 53.96 612.456 53.112 612.984 52.136C613.512 51.16 613.776 50.192 613.776 49.232C613.776 48.672 613.576 48.184 613.176 47.768C612.792 47.336 612.312 46.952 611.736 46.616C611.176 46.28 610.616 45.968 610.056 45.68C609.512 45.392 609.08 45.104 608.76 44.816V55.232C608.76 56.224 608.576 57.152 608.208 58.016C607.856 58.88 607.336 59.568 606.648 60.08C605.96 60.608 605.112 60.872 604.104 60.872Z" fill="white"/>
</svg>
