<svg width="352" height="21" viewBox="0 0 352 21" fill="none" xmlns="http://www.w3.org/2000/svg">
<path d="M18.914 20.342L0.653984 2.038C0.507318 1.87667 0.433984 1.69333 0.433984 1.488C0.433984 1.268 0.507318 1.08467 0.653984 0.937999C0.815318 0.776666 0.998651 0.696 1.20398 0.696C1.42398 0.696 1.60732 0.776666 1.75398 0.937999L20.014 19.242C20.1753 19.3887 20.256 19.5647 20.256 19.77C20.256 19.99 20.1753 20.1807 20.014 20.342C19.8673 20.4887 19.684 20.562 19.464 20.562C19.2587 20.562 19.0753 20.4887 18.914 20.342ZM42.724 19.528C42.46 19.2787 42.3207 18.9707 42.306 18.604C42.2913 18.2373 42.4087 17.922 42.658 17.658C43.2593 17.0567 43.8167 16.338 44.33 15.502C44.8433 14.6513 45.2907 13.764 45.672 12.84C44.4693 12.532 43.318 12.312 42.218 12.18C41.6753 13.324 41.0593 14.2773 40.37 15.04C39.6807 15.8027 38.9473 16.3307 38.17 16.624C37.4367 16.9173 36.718 17.02 36.014 16.932C35.31 16.8293 34.7233 16.5433 34.254 16.074C33.7993 15.6047 33.572 14.9447 33.572 14.094C33.572 13.2873 33.814 12.554 34.298 11.894C34.782 11.234 35.53 10.706 36.542 10.31C37.5687 9.89933 38.8887 9.694 40.502 9.694C40.81 8.82867 41.096 7.83133 41.36 6.702C41.5653 5.85133 41.5287 5.28667 41.25 5.008C40.9713 4.71467 40.4287 4.61933 39.622 4.722C39.3433 4.766 38.984 4.81733 38.544 4.876C38.104 4.93467 37.7593 4.97867 37.51 5.008C37.1433 5.02267 36.8207 4.91267 36.542 4.678C36.2633 4.44333 36.1093 4.14267 36.08 3.776C36.0653 3.40933 36.1753 3.094 36.41 2.83C36.6447 2.55133 36.9453 2.39733 37.312 2.368C37.62 2.33867 38.0013 2.302 38.456 2.258C38.9107 2.214 39.2847 2.18467 39.578 2.17C41.426 2.05267 42.6947 2.37533 43.384 3.138C44.088 3.90067 44.2713 5.162 43.934 6.922C43.8313 7.45 43.714 7.96333 43.582 8.462C43.45 8.946 43.3107 9.41533 43.164 9.87C43.692 9.92867 44.2347 10.0167 44.792 10.134C45.3493 10.2367 45.8993 10.354 46.442 10.486C46.5593 9.98733 46.6547 9.50333 46.728 9.034C46.8013 8.55 46.8453 8.088 46.86 7.648C46.8747 7.28133 46.9993 6.97333 47.234 6.724C47.4833 6.46 47.7913 6.32067 48.158 6.306C48.5247 6.306 48.8327 6.438 49.082 6.702C49.346 6.95133 49.4707 7.25933 49.456 7.626C49.4413 8.198 49.3827 8.78467 49.28 9.386C49.192 9.97267 49.0673 10.5667 48.906 11.168C49.3607 11.3147 49.8007 11.4687 50.226 11.63C50.666 11.7767 51.0913 11.9307 51.502 12.092C51.8393 12.2387 52.074 12.4807 52.206 12.818C52.3527 13.1553 52.3527 13.4927 52.206 13.83C52.074 14.1527 51.8393 14.3873 51.502 14.534C51.1647 14.6807 50.8273 14.6807 50.49 14.534C50.1087 14.358 49.72 14.1967 49.324 14.05C48.928 13.8887 48.532 13.7347 48.136 13.588C47.6813 14.7613 47.146 15.8613 46.53 16.888C45.9287 17.9147 45.2833 18.7727 44.594 19.462C44.3447 19.7113 44.0367 19.8433 43.67 19.858C43.318 19.8727 43.0027 19.7627 42.724 19.528ZM37.246 14.314C37.598 14.1673 37.9573 13.918 38.324 13.566C38.6907 13.214 39.05 12.73 39.402 12.114C38.2433 12.2167 37.4147 12.4367 36.916 12.774C36.432 13.1113 36.1827 13.4853 36.168 13.896C36.168 14.1307 36.256 14.2993 36.432 14.402C36.6227 14.49 36.894 14.4607 37.246 14.314ZM59.136 19.352C58.8133 19.22 58.586 18.978 58.454 18.626C58.322 18.274 58.3293 17.9367 58.476 17.614C58.7253 17.0713 59.0407 16.3893 59.422 15.568C59.818 14.7467 60.2433 13.852 60.698 12.884C61.1673 11.916 61.644 10.926 62.128 9.914C62.612 8.902 63.0887 7.91933 63.558 6.966C64.0273 6.01267 64.46 5.14733 64.856 4.37C65.252 3.578 65.582 2.93267 65.846 2.434C66.0073 2.11133 66.264 1.906 66.616 1.818C66.9827 1.71533 67.32 1.75933 67.628 1.95C67.9507 2.14067 68.156 2.412 68.244 2.764C68.3467 3.10133 68.3027 3.43133 68.112 3.754C67.9067 4.12067 67.6353 4.61933 67.298 5.25C66.9753 5.88067 66.6087 6.592 66.198 7.384C65.802 8.176 65.3913 9.00467 64.966 9.87C65.4793 9.65 66 9.54 66.528 9.54C67.9213 9.54 68.8747 9.98 69.388 10.86C69.916 11.74 69.9673 12.9427 69.542 14.468C69.322 15.26 69.3 15.8027 69.476 16.096C69.6667 16.3893 70.0113 16.536 70.51 16.536C70.8473 16.536 71.17 16.4627 71.478 16.316C71.786 16.1547 72.1013 15.8393 72.424 15.37C72.7467 14.9007 73.084 14.2113 73.436 13.302C73.568 12.9647 73.8027 12.7227 74.14 12.576C74.4773 12.4293 74.8147 12.4147 75.152 12.532C75.4893 12.664 75.7313 12.8987 75.878 13.236C76.0393 13.5733 76.054 13.918 75.922 14.27C75.3353 15.9127 74.602 17.1373 73.722 17.944C72.8567 18.736 71.7493 19.132 70.4 19.132C69.476 19.132 68.6987 18.9413 68.068 18.56C67.4373 18.1787 67.0193 17.6067 66.814 16.844C66.6087 16.0667 66.6673 15.0987 66.99 13.94C67.1953 13.236 67.2173 12.7447 67.056 12.466C66.8947 12.1727 66.5573 12.026 66.044 12.026C65.384 12.026 64.768 12.2313 64.196 12.642C63.624 13.0527 63.0667 13.8227 62.524 14.952C62.4653 15.0693 62.3553 15.304 62.194 15.656C62.0473 15.9933 61.886 16.3673 61.71 16.778C61.534 17.1887 61.3653 17.5627 61.204 17.9C61.0573 18.2227 60.962 18.4427 60.918 18.56C60.7713 18.8973 60.5293 19.1467 60.192 19.308C59.8693 19.484 59.5173 19.4987 59.136 19.352ZM90.662 20.452C89.5473 20.452 88.6233 20.166 87.89 19.594C87.1713 19.0367 86.812 18.208 86.812 17.108C86.812 16.1107 87.164 15.3187 87.868 14.732C88.5867 14.1307 89.5327 13.83 90.706 13.83C91.146 13.83 91.5713 13.852 91.982 13.896V9.738C91.982 9.35667 92.1067 9.04133 92.356 8.792C92.6053 8.54267 92.9133 8.418 93.28 8.418C93.6467 8.418 93.9547 8.54267 94.204 8.792C94.4533 9.04133 94.578 9.35667 94.578 9.738V14.49C95.37 14.7393 96.118 15.0473 96.822 15.414C97.5407 15.766 98.1713 16.1327 98.714 16.514C99.0073 16.734 99.1833 17.0273 99.242 17.394C99.3007 17.746 99.22 18.0687 99 18.362C98.7947 18.6553 98.5087 18.8313 98.142 18.89C97.79 18.9487 97.4673 18.8753 97.174 18.67C96.822 18.3913 96.4187 18.1273 95.964 17.878C95.524 17.614 95.062 17.372 94.578 17.152C94.49 18.2227 94.116 19.0367 93.456 19.594C92.796 20.166 91.8647 20.452 90.662 20.452ZM84.81 14.358C84.5313 14.5927 84.2087 14.71 83.842 14.71C83.49 14.71 83.1893 14.5853 82.94 14.336C82.676 14.072 82.544 13.7567 82.544 13.39C82.544 13.0087 82.6833 12.7007 82.962 12.466C83.798 11.718 84.5313 10.8673 85.162 9.914C85.8073 8.96067 86.3353 7.97067 86.746 6.944C86.35 7.00267 85.9613 7.04667 85.58 7.076C85.2133 7.10533 84.8613 7.13467 84.524 7.164C84.1427 7.17867 83.82 7.06867 83.556 6.834C83.292 6.59933 83.1527 6.27667 83.138 5.866C83.1233 5.49933 83.2333 5.19867 83.468 4.964C83.7027 4.71467 84.0253 4.58267 84.436 4.568C84.9053 4.53867 85.3967 4.49467 85.91 4.436C86.438 4.37733 86.966 4.31133 87.494 4.238C87.5673 3.90067 87.6113 3.556 87.626 3.204C87.6553 2.852 87.67 2.51467 87.67 2.192C87.67 1.82533 87.7947 1.51733 88.044 1.268C88.2933 1.004 88.6013 0.871999 88.968 0.871999C89.3347 0.871999 89.65 1.004 89.914 1.268C90.178 1.51733 90.3027 1.82533 90.288 2.192C90.2733 2.69067 90.2293 3.21133 90.156 3.754C90.2587 3.72467 90.354 3.70267 90.442 3.688C90.5447 3.65867 90.64 3.63667 90.728 3.622C91.0947 3.534 91.432 3.578 91.74 3.754C92.048 3.93 92.2387 4.20867 92.312 4.59C92.3853 4.95667 92.3193 5.28667 92.114 5.58C91.9233 5.87333 91.652 6.064 91.3 6.152C91.0653 6.21067 90.794 6.26933 90.486 6.328C90.1927 6.38667 89.8847 6.44533 89.562 6.504C89.1073 8.044 88.4693 9.496 87.648 10.86C86.8413 12.224 85.8953 13.39 84.81 14.358ZM97.504 8.528C97.0347 8.23467 96.4773 7.934 95.832 7.626C95.2013 7.318 94.644 7.09067 94.16 6.944C93.8227 6.82667 93.5587 6.62133 93.368 6.328C93.1773 6.03467 93.126 5.712 93.214 5.36C93.2873 5.008 93.478 4.73667 93.786 4.546C94.1087 4.35533 94.446 4.31133 94.798 4.414C95.238 4.53133 95.722 4.7 96.25 4.92C96.778 5.14 97.284 5.37467 97.768 5.624C98.2667 5.87333 98.6773 6.108 99 6.328C99.2933 6.51867 99.4693 6.79733 99.528 7.164C99.6013 7.53067 99.5353 7.868 99.33 8.176C99.1393 8.46933 98.8607 8.65267 98.494 8.726C98.142 8.78467 97.812 8.71867 97.504 8.528ZM90.64 18.032C91.124 18.032 91.4687 17.922 91.674 17.702C91.8793 17.482 91.982 17.1447 91.982 16.69V16.316C91.7473 16.2573 91.5127 16.2207 91.278 16.206C91.058 16.1767 90.8453 16.162 90.64 16.162C90.1853 16.162 89.848 16.25 89.628 16.426C89.4227 16.5873 89.32 16.8147 89.32 17.108C89.32 17.3867 89.4227 17.614 89.628 17.79C89.8333 17.9513 90.1707 18.032 90.64 18.032ZM121.132 19.704C119.401 19.4547 117.971 18.956 116.842 18.208C115.713 17.4453 114.869 16.5287 114.312 15.458C113.769 14.3873 113.498 13.2727 113.498 12.114C113.498 10.9407 113.725 9.848 114.18 8.836C114.635 7.80933 115.295 6.922 116.16 6.174C115.28 6.306 114.341 6.46 113.344 6.636C112.347 6.79733 111.379 6.966 110.44 7.142C109.516 7.30333 108.702 7.45 107.998 7.582C107.631 7.64067 107.301 7.56 107.008 7.34C106.729 7.12 106.561 6.834 106.502 6.482C106.443 6.11533 106.517 5.79267 106.722 5.514C106.942 5.22067 107.235 5.04467 107.602 4.986C108.071 4.91267 108.673 4.81733 109.406 4.7C110.139 4.568 110.961 4.42867 111.87 4.282C112.779 4.13533 113.711 3.98133 114.664 3.82C115.617 3.65867 116.549 3.50467 117.458 3.358C118.382 3.19667 119.225 3.05 119.988 2.918C120.751 2.786 121.374 2.676 121.858 2.588C122.195 2.52933 122.511 2.60267 122.804 2.808C123.112 3.01333 123.295 3.28467 123.354 3.622C123.427 3.974 123.369 4.304 123.178 4.612C123.002 4.92 122.738 5.10333 122.386 5.162C121.359 5.32333 120.457 5.63867 119.68 6.108C118.903 6.56267 118.243 7.12 117.7 7.78C117.172 8.42533 116.769 9.11467 116.49 9.848C116.226 10.5667 116.094 11.278 116.094 11.982C116.094 13.4047 116.578 14.556 117.546 15.436C118.514 16.3013 119.834 16.8513 121.506 17.086C121.858 17.1447 122.144 17.3207 122.364 17.614C122.584 17.9073 122.665 18.23 122.606 18.582C122.562 18.9487 122.393 19.242 122.1 19.462C121.807 19.682 121.484 19.7627 121.132 19.704ZM123.926 10.706C123.735 10.8673 123.501 10.9333 123.222 10.904C122.958 10.8747 122.745 10.75 122.584 10.53C122.423 10.3247 122.217 10.068 121.968 9.76C121.719 9.43733 121.491 9.15867 121.286 8.924C121.154 8.76267 121.088 8.572 121.088 8.352C121.103 8.11733 121.205 7.91933 121.396 7.758C121.572 7.59667 121.77 7.52333 121.99 7.538C122.225 7.538 122.437 7.61867 122.628 7.78C122.848 7.97067 123.097 8.22 123.376 8.528C123.669 8.836 123.911 9.11467 124.102 9.364C124.263 9.56933 124.322 9.804 124.278 10.068C124.249 10.332 124.131 10.5447 123.926 10.706ZM126.038 8.814C125.847 9.00467 125.613 9.09267 125.334 9.078C125.07 9.06333 124.85 8.95333 124.674 8.748C124.498 8.54267 124.271 8.29333 123.992 8C123.728 7.70667 123.486 7.45 123.266 7.23C123.119 7.08333 123.039 6.89267 123.024 6.658C123.024 6.42333 123.112 6.218 123.288 6.042C123.449 5.88067 123.647 5.8 123.882 5.8C124.117 5.78533 124.329 5.85133 124.52 5.998C124.755 6.15933 125.026 6.38667 125.334 6.68C125.642 6.95867 125.899 7.22267 126.104 7.472C126.28 7.66267 126.361 7.89 126.346 8.154C126.331 8.40333 126.229 8.62333 126.038 8.814ZM140.14 20.606C139.803 20.7967 139.465 20.8407 139.128 20.738C138.791 20.65 138.527 20.4447 138.336 20.122C138.189 19.8287 138.167 19.528 138.27 19.22C138.387 18.912 138.6 18.6847 138.908 18.538C139.817 18.0687 140.624 17.5333 141.328 16.932C142.047 16.3307 142.677 15.6633 143.22 14.93C142.824 14.1967 142.479 13.434 142.186 12.642C141.893 11.85 141.658 11.0213 141.482 10.156C141.379 10.3467 141.284 10.53 141.196 10.706C141.108 10.882 141.013 11.0507 140.91 11.212C140.734 11.5053 140.485 11.7033 140.162 11.806C139.839 11.894 139.524 11.8647 139.216 11.718C138.937 11.5713 138.754 11.3513 138.666 11.058C138.593 10.75 138.629 10.4567 138.776 10.178C139.245 9.40067 139.685 8.506 140.096 7.494C140.521 6.46733 140.881 5.43333 141.174 4.392C141.467 3.336 141.673 2.38267 141.79 1.532C141.834 1.15067 141.981 0.871999 142.23 0.696C142.494 0.519999 142.787 0.453999 143.11 0.498C143.462 0.541999 143.733 0.681332 143.924 0.915999C144.129 1.15067 144.195 1.45867 144.122 1.84C144.063 2.33867 143.968 2.85933 143.836 3.402C143.719 3.93 143.579 4.47267 143.418 5.03H148.896C149.233 5.03 149.505 5.14 149.71 5.36C149.915 5.56533 150.018 5.822 150.018 6.13C150.018 6.438 149.915 6.702 149.71 6.922C149.505 7.12733 149.233 7.23 148.896 7.23H148.17C148.023 8.74067 147.774 10.1413 147.422 11.432C147.07 12.708 146.593 13.8813 145.992 14.952C146.461 15.5533 146.982 16.1253 147.554 16.668C148.141 17.196 148.779 17.6947 149.468 18.164C149.776 18.3693 149.952 18.648 149.996 19C150.055 19.3667 149.967 19.6967 149.732 19.99C149.497 20.298 149.189 20.4667 148.808 20.496C148.441 20.5253 148.097 20.4227 147.774 20.188C146.557 19.2787 145.493 18.2227 144.584 17.02C143.997 17.7387 143.337 18.3987 142.604 19C141.871 19.5867 141.049 20.122 140.14 20.606ZM132.726 20.892C132.359 20.892 132.059 20.7893 131.824 20.584C131.604 20.3787 131.479 20.1 131.45 19.748C131.406 19.4107 131.487 19.1173 131.692 18.868C131.897 18.604 132.183 18.45 132.55 18.406C132.99 18.362 133.283 18.274 133.43 18.142C133.577 18.01 133.65 17.7607 133.65 17.394V14.864C133.239 15.128 132.792 15.414 132.308 15.722C131.824 16.03 131.399 16.2793 131.032 16.47C130.68 16.646 130.357 16.6827 130.064 16.58C129.771 16.4627 129.551 16.25 129.404 15.942C129.272 15.6487 129.25 15.3627 129.338 15.084C129.441 14.8053 129.646 14.5927 129.954 14.446C130.277 14.2993 130.658 14.1013 131.098 13.852C131.553 13.588 132.007 13.324 132.462 13.06C132.931 12.7813 133.327 12.5467 133.65 12.356V6.878H130.57C130.233 6.878 129.961 6.768 129.756 6.548C129.551 6.328 129.448 6.064 129.448 5.756C129.448 5.43333 129.551 5.162 129.756 4.942C129.961 4.722 130.233 4.612 130.57 4.612H133.65V1.598C133.65 1.21667 133.76 0.923333 133.98 0.717999C134.215 0.512666 134.501 0.409999 134.838 0.409999C135.175 0.409999 135.461 0.512666 135.696 0.717999C135.931 0.923333 136.048 1.21667 136.048 1.598V4.612H138.886C139.238 4.612 139.517 4.722 139.722 4.942C139.927 5.162 140.03 5.43333 140.03 5.756C140.03 6.064 139.927 6.328 139.722 6.548C139.517 6.768 139.238 6.878 138.886 6.878H136.048V9.474C136.341 9.166 136.627 8.858 136.906 8.55C137.199 8.22733 137.427 7.97067 137.588 7.78C137.793 7.54533 138.057 7.428 138.38 7.428C138.703 7.428 138.959 7.516 139.15 7.692C139.385 7.88267 139.509 8.12467 139.524 8.418C139.553 8.71133 139.465 8.968 139.26 9.188C139.084 9.39333 138.82 9.672 138.468 10.024C138.116 10.3613 137.764 10.706 137.412 11.058C137.06 11.3953 136.774 11.6593 136.554 11.85C136.407 11.9967 136.239 12.0847 136.048 12.114V12.202C136.356 12.3633 136.752 12.5833 137.236 12.862C137.735 13.1407 138.226 13.4267 138.71 13.72C139.194 13.9987 139.575 14.2333 139.854 14.424C140.133 14.6147 140.294 14.8567 140.338 15.15C140.397 15.4433 140.331 15.7367 140.14 16.03C139.964 16.294 139.715 16.4627 139.392 16.536C139.069 16.5947 138.761 16.5287 138.468 16.338C138.189 16.1473 137.823 15.898 137.368 15.59C136.913 15.2673 136.473 14.9667 136.048 14.688V17.9C136.048 18.912 135.799 19.66 135.3 20.144C134.801 20.6427 133.943 20.892 132.726 20.892ZM144.562 12.598C144.914 11.7913 145.193 10.9407 145.398 10.046C145.618 9.15133 145.772 8.21267 145.86 7.23H143.242C143.374 9.23933 143.814 11.0287 144.562 12.598ZM132.77 11.718C132.491 11.8647 132.205 11.9087 131.912 11.85C131.633 11.7767 131.413 11.6007 131.252 11.322C131.179 11.1607 131.061 10.9627 130.9 10.728C130.753 10.4787 130.599 10.2367 130.438 10.002C130.291 9.75267 130.174 9.562 130.086 9.43C129.91 9.166 129.873 8.89467 129.976 8.616C130.093 8.33733 130.269 8.132 130.504 8C130.753 7.85333 131.025 7.802 131.318 7.846C131.611 7.89 131.853 8.05867 132.044 8.352C132.132 8.484 132.249 8.67467 132.396 8.924C132.557 9.15867 132.719 9.40067 132.88 9.65C133.041 9.88467 133.159 10.068 133.232 10.2C133.408 10.4933 133.437 10.7867 133.32 11.08C133.203 11.3733 133.019 11.586 132.77 11.718ZM138.248 3.82C138.101 3.65867 137.896 3.468 137.632 3.248C137.368 3.01333 137.163 2.83733 137.016 2.72C136.811 2.544 136.708 2.31667 136.708 2.038C136.708 1.75933 136.789 1.52467 136.95 1.334C137.141 1.114 137.375 0.981999 137.654 0.937999C137.933 0.893999 138.189 0.967332 138.424 1.158C138.571 1.26067 138.783 1.43667 139.062 1.686C139.355 1.92067 139.575 2.104 139.722 2.236C139.942 2.42667 140.052 2.676 140.052 2.984C140.052 3.27733 139.949 3.52667 139.744 3.732C139.539 3.92267 139.289 4.03267 138.996 4.062C138.703 4.09133 138.453 4.01067 138.248 3.82ZM165.99 19.924C165.623 19.9093 165.308 19.77 165.044 19.506C164.795 19.2567 164.677 18.9487 164.692 18.582C164.692 18.2007 164.824 17.8853 165.088 17.636C165.352 17.372 165.667 17.2473 166.034 17.262C167.237 17.2767 168.146 17.086 168.762 16.69C169.393 16.294 169.708 15.6927 169.708 14.886C169.708 14.1087 169.363 13.5147 168.674 13.104C167.999 12.6933 167.031 12.488 165.77 12.488C165.271 12.488 164.795 12.51 164.34 12.554C163.885 12.598 163.445 12.6567 163.02 12.73V15.502C163.02 17.0127 162.675 18.1273 161.986 18.846C161.297 19.55 160.299 19.902 158.994 19.902C157.938 19.902 157.058 19.6307 156.354 19.088C155.65 18.5453 155.298 17.68 155.298 16.492C155.298 15.2747 155.753 14.182 156.662 13.214C157.586 12.246 158.84 11.4907 160.424 10.948V7.67C159.793 7.72867 159.177 7.77267 158.576 7.802C157.989 7.83133 157.439 7.85333 156.926 7.868C156.559 7.868 156.244 7.74333 155.98 7.494C155.716 7.24467 155.584 6.93667 155.584 6.57C155.584 6.20333 155.709 5.89533 155.958 5.646C156.222 5.39667 156.537 5.272 156.904 5.272C157.417 5.25733 157.975 5.23533 158.576 5.206C159.177 5.17667 159.793 5.14 160.424 5.096V2.39C160.424 2.00867 160.549 1.69333 160.798 1.444C161.047 1.18 161.355 1.048 161.722 1.048C162.089 1.048 162.397 1.18 162.646 1.444C162.895 1.69333 163.02 2.00867 163.02 2.39V4.876C163.357 4.84667 163.673 4.81 163.966 4.766C164.259 4.722 164.545 4.68533 164.824 4.656C165.191 4.59733 165.521 4.66333 165.814 4.854C166.107 5.04467 166.283 5.32333 166.342 5.69C166.401 6.05667 166.32 6.372 166.1 6.636C165.88 6.9 165.587 7.06133 165.22 7.12C164.912 7.17867 164.567 7.23 164.186 7.274C163.819 7.318 163.431 7.36933 163.02 7.428V10.332C163.9 10.2 164.831 10.134 165.814 10.134C167.163 10.134 168.329 10.3247 169.312 10.706C170.295 11.0873 171.05 11.6373 171.578 12.356C172.121 13.06 172.392 13.9033 172.392 14.886C172.392 16.514 171.827 17.7753 170.698 18.67C169.569 19.5647 167.999 19.9827 165.99 19.924ZM170.786 9.232C170.551 9.056 170.265 8.86533 169.928 8.66C169.591 8.44 169.253 8.23467 168.916 8.044C168.579 7.83867 168.285 7.67733 168.036 7.56C167.713 7.39867 167.479 7.14933 167.332 6.812C167.2 6.47467 167.207 6.14467 167.354 5.822C167.53 5.47 167.787 5.24267 168.124 5.14C168.476 5.03733 168.813 5.06667 169.136 5.228C169.444 5.37467 169.796 5.56533 170.192 5.8C170.588 6.03467 170.977 6.27667 171.358 6.526C171.754 6.76067 172.077 6.97333 172.326 7.164C172.619 7.36933 172.788 7.648 172.832 8C172.876 8.352 172.795 8.67467 172.59 8.968C172.37 9.24667 172.084 9.41533 171.732 9.474C171.395 9.518 171.079 9.43733 170.786 9.232ZM158.994 17.394C159.434 17.394 159.779 17.2693 160.028 17.02C160.292 16.7707 160.424 16.2647 160.424 15.502V13.522C159.632 13.8887 159.016 14.3287 158.576 14.842C158.151 15.3407 157.938 15.8613 157.938 16.404C157.938 17.064 158.29 17.394 158.994 17.394ZM188.936 20.54C188.657 20.7747 188.327 20.8847 187.946 20.87C187.579 20.87 187.271 20.7307 187.022 20.452C186.787 20.1733 186.67 19.8507 186.67 19.484C186.685 19.1173 186.831 18.8167 187.11 18.582C188.283 17.5553 189.171 16.4407 189.772 15.238C190.388 14.0353 190.696 12.6933 190.696 11.212C190.696 10.2293 190.432 9.51067 189.904 9.056C189.391 8.60133 188.709 8.374 187.858 8.374C187.227 8.374 186.582 8.528 185.922 8.836C185.277 9.12933 184.653 9.55467 184.052 10.112C183.773 10.3467 183.451 10.4567 183.084 10.442C182.732 10.4127 182.431 10.2587 182.182 9.98C181.947 9.70133 181.845 9.386 181.874 9.034C181.903 8.66733 182.05 8.36667 182.314 8.132C183.165 7.35467 184.067 6.79 185.02 6.438C185.973 6.07133 186.919 5.888 187.858 5.888C188.899 5.888 189.831 6.086 190.652 6.482C191.473 6.86333 192.119 7.45 192.588 8.242C193.072 9.01933 193.314 10.0093 193.314 11.212C193.314 13.0747 192.925 14.8053 192.148 16.404C191.371 18.0027 190.3 19.3813 188.936 20.54ZM190.564 5.074C189.919 4.898 189.244 4.7 188.54 4.48C187.836 4.24533 187.154 3.996 186.494 3.732C185.834 3.468 185.255 3.21867 184.756 2.984C184.433 2.82267 184.213 2.57333 184.096 2.236C183.979 1.884 184.001 1.54667 184.162 1.224C184.323 0.886666 184.58 0.666666 184.932 0.563999C185.299 0.461332 185.643 0.490666 185.966 0.651999C186.699 0.974666 187.535 1.312 188.474 1.664C189.413 2.00133 190.329 2.28733 191.224 2.522C191.576 2.61 191.84 2.81533 192.016 3.138C192.207 3.446 192.258 3.776 192.17 4.128C192.082 4.48 191.877 4.75133 191.554 4.942C191.246 5.118 190.916 5.162 190.564 5.074ZM212.3 14.974C212.007 14.974 211.75 14.8713 211.53 14.666C211.31 14.4607 211.185 14.204 211.156 13.896C211.112 13.3387 211.068 12.7007 211.024 11.982C210.995 11.2633 210.958 10.53 210.914 9.782C210.87 9.01933 210.833 8.29333 210.804 7.604C210.775 6.91467 210.753 6.306 210.738 5.778C210.723 5.25 210.716 4.86133 210.716 4.612V2.434C210.716 2.00867 210.863 1.64933 211.156 1.356C211.464 1.06267 211.845 0.915999 212.3 0.915999C212.769 0.915999 213.151 1.06267 213.444 1.356C213.752 1.64933 213.906 2.00867 213.906 2.434V4.612C213.906 4.86133 213.891 5.25 213.862 5.778C213.847 6.306 213.825 6.91467 213.796 7.604C213.767 8.29333 213.73 9.01933 213.686 9.782C213.657 10.53 213.62 11.2633 213.576 11.982C213.532 12.7007 213.488 13.3387 213.444 13.896C213.429 14.204 213.312 14.4607 213.092 14.666C212.872 14.8713 212.608 14.974 212.3 14.974ZM212.3 20.342C211.787 20.342 211.347 20.1587 210.98 19.792C210.613 19.4253 210.43 18.9853 210.43 18.472C210.43 17.9587 210.613 17.5187 210.98 17.152C211.347 16.7853 211.787 16.602 212.3 16.602C212.813 16.602 213.253 16.7853 213.62 17.152C213.987 17.5187 214.17 17.9587 214.17 18.472C214.17 18.9853 213.987 19.4253 213.62 19.792C213.253 20.1587 212.813 20.342 212.3 20.342ZM238.37 20.276C236.845 20.276 235.752 19.9753 235.092 19.374C234.447 18.7873 234.124 17.7607 234.124 16.294V12.532C234.124 11.08 234.447 10.0533 235.092 9.452C235.752 8.85067 236.845 8.55 238.37 8.55H241.582C243.107 8.55 244.193 8.85067 244.838 9.452C245.498 10.0533 245.828 11.08 245.828 12.532V16.294C245.828 17.7607 245.498 18.7873 244.838 19.374C244.193 19.9753 243.107 20.276 241.582 20.276H238.37ZM229.108 20.606C228.683 20.65 228.323 20.5767 228.03 20.386C227.737 20.21 227.553 19.946 227.48 19.594C227.407 19.198 227.465 18.8533 227.656 18.56C227.847 18.2667 228.133 18.1053 228.514 18.076C229.057 18.0173 229.489 17.8853 229.812 17.68C230.135 17.4747 230.369 17.1007 230.516 16.558C230.677 16.0007 230.758 15.1867 230.758 14.116C230.758 13.4267 230.736 12.7887 230.692 12.202C230.369 12.6713 230.032 13.1333 229.68 13.588C229.343 14.0427 229.02 14.4387 228.712 14.776C228.477 15.04 228.184 15.194 227.832 15.238C227.495 15.282 227.179 15.1867 226.886 14.952C226.622 14.7467 226.483 14.4827 226.468 14.16C226.453 13.8373 226.556 13.5587 226.776 13.324C227.157 12.9133 227.561 12.444 227.986 11.916C228.411 11.3733 228.815 10.8233 229.196 10.266C229.592 9.70867 229.915 9.20267 230.164 8.748C230.091 8.45467 230.003 8.176 229.9 7.912C229.812 7.63333 229.717 7.362 229.614 7.098C229.218 7.50867 228.837 7.89 228.47 8.242C228.221 8.47667 227.927 8.594 227.59 8.594C227.253 8.594 226.959 8.47667 226.71 8.242C226.475 8.00733 226.358 7.72867 226.358 7.406C226.373 7.06867 226.497 6.79733 226.732 6.592C227.289 6.09333 227.861 5.52133 228.448 4.876C228.228 4.53867 227.993 4.20133 227.744 3.864C227.495 3.512 227.231 3.16733 226.952 2.83C226.761 2.58067 226.695 2.30933 226.754 2.016C226.827 1.72267 226.989 1.488 227.238 1.312C227.487 1.136 227.766 1.07 228.074 1.114C228.382 1.14333 228.639 1.28267 228.844 1.532C229.255 2.00133 229.636 2.49267 229.988 3.006C230.193 2.72733 230.384 2.456 230.56 2.192C230.751 1.91333 230.919 1.64933 231.066 1.4C231.257 1.07733 231.506 0.871999 231.814 0.783998C232.137 0.681332 232.452 0.717999 232.76 0.894C233.053 1.05533 233.237 1.29 233.31 1.598C233.383 1.906 233.339 2.20667 233.178 2.5C232.943 2.91067 232.657 3.35067 232.32 3.82C231.997 4.27467 231.653 4.72933 231.286 5.184C231.902 6.416 232.357 7.758 232.65 9.21C232.958 10.6473 233.112 12.2827 233.112 14.116C233.112 15.7587 232.958 17.0347 232.65 17.944C232.342 18.8387 231.887 19.4767 231.286 19.858C230.699 20.254 229.973 20.5033 229.108 20.606ZM237.446 8.154C237.109 8.154 236.815 8.05133 236.566 7.846C236.317 7.64067 236.192 7.34 236.192 6.944V5.58H233.882C233.545 5.58 233.273 5.47733 233.068 5.272C232.877 5.052 232.782 4.788 232.782 4.48C232.782 4.172 232.877 3.91533 233.068 3.71C233.273 3.49 233.545 3.38 233.882 3.38H236.192V1.752C236.192 1.34133 236.317 1.04067 236.566 0.849999C236.815 0.644666 237.109 0.541999 237.446 0.541999C237.783 0.541999 238.069 0.644666 238.304 0.849999C238.553 1.04067 238.678 1.34133 238.678 1.752V3.38H240.988V1.752C240.988 1.34133 241.113 1.04067 241.362 0.849999C241.611 0.644666 241.897 0.541999 242.22 0.541999C242.557 0.541999 242.843 0.644666 243.078 0.849999C243.327 1.04067 243.452 1.34133 243.452 1.752V3.38H245.828C246.165 3.38 246.429 3.49 246.62 3.71C246.825 3.91533 246.928 4.172 246.928 4.48C246.928 4.788 246.825 5.052 246.62 5.272C246.429 5.47733 246.165 5.58 245.828 5.58H243.452V6.944C243.452 7.34 243.327 7.64067 243.078 7.846C242.843 8.05133 242.557 8.154 242.22 8.154C241.897 8.154 241.611 8.05133 241.362 7.846C241.113 7.64067 240.988 7.34 240.988 6.944V5.58H238.678V6.944C238.678 7.34 238.553 7.64067 238.304 7.846C238.069 8.05133 237.783 8.154 237.446 8.154ZM241.12 13.302H243.342V12.554C243.342 12.0847 243.291 11.7327 243.188 11.498C243.085 11.2633 242.895 11.102 242.616 11.014C242.352 10.926 241.949 10.882 241.406 10.882H241.12V13.302ZM236.61 13.302H238.832V10.882H238.546C238.018 10.882 237.615 10.926 237.336 11.014C237.057 11.102 236.867 11.2633 236.764 11.498C236.661 11.7327 236.61 12.0847 236.61 12.554V13.302ZM241.12 17.966H241.406C241.949 17.966 242.352 17.922 242.616 17.834C242.895 17.746 243.085 17.5773 243.188 17.328C243.291 17.0787 243.342 16.7267 243.342 16.272V15.546H241.12V17.966ZM238.546 17.966H238.832V15.546H236.61V16.272C236.61 16.9613 236.735 17.416 236.984 17.636C237.233 17.856 237.754 17.966 238.546 17.966ZM263.054 18.934C262.687 19.022 262.343 18.9707 262.02 18.78C261.697 18.5893 261.492 18.318 261.404 17.966C261.316 17.614 261.367 17.284 261.558 16.976C261.749 16.6533 262.02 16.448 262.372 16.36C264 15.9347 265.195 15.2453 265.958 14.292C266.735 13.3387 267.124 12.1287 267.124 10.662C267.124 9.738 266.919 8.90933 266.508 8.176C266.097 7.44267 265.511 6.84867 264.748 6.394C264 5.93933 263.098 5.66067 262.042 5.558C261.778 8.022 261.331 10.156 260.7 11.96C260.084 13.7493 259.351 15.1353 258.5 16.118C257.664 17.086 256.784 17.57 255.86 17.57C255.083 17.57 254.371 17.3427 253.726 16.888C253.081 16.4333 252.567 15.7807 252.186 14.93C251.819 14.0793 251.636 13.06 251.636 11.872C251.636 10.6547 251.863 9.518 252.318 8.462C252.787 7.39133 253.447 6.45267 254.298 5.646C255.149 4.83933 256.146 4.20867 257.29 3.754C258.449 3.29933 259.717 3.072 261.096 3.072C262.768 3.072 264.249 3.39467 265.54 4.04C266.845 4.67067 267.872 5.558 268.62 6.702C269.368 7.83133 269.742 9.15133 269.742 10.662C269.742 12.7887 269.17 14.5633 268.026 15.986C266.897 17.394 265.239 18.3767 263.054 18.934ZM255.882 14.864C256.146 14.864 256.447 14.644 256.784 14.204C257.136 13.7493 257.488 13.1113 257.84 12.29C258.192 11.4687 258.515 10.5007 258.808 9.386C259.101 8.25667 259.321 7.01 259.468 5.646C258.324 5.866 257.363 6.29133 256.586 6.922C255.809 7.538 255.222 8.27867 254.826 9.144C254.43 9.99467 254.225 10.8893 254.21 11.828C254.21 12.8253 254.364 13.5807 254.672 14.094C254.995 14.6073 255.398 14.864 255.882 14.864ZM276.122 19.814C275.799 19.814 275.521 19.6893 275.286 19.44C275.051 19.2053 274.934 18.9267 274.934 18.604C274.934 18.2667 275.051 17.988 275.286 17.768C275.521 17.5333 275.799 17.416 276.122 17.416H283.844V13.346H279.18C278.857 13.346 278.571 13.2287 278.322 12.994C278.087 12.7593 277.97 12.4733 277.97 12.136C277.97 11.7987 278.087 11.52 278.322 11.3C278.571 11.0653 278.857 10.948 279.18 10.948H283.844V7.538H279.202C278.923 8.03667 278.63 8.52067 278.322 8.99C278.014 9.44467 277.713 9.86267 277.42 10.244C277.185 10.552 276.877 10.7573 276.496 10.86C276.115 10.948 275.755 10.8747 275.418 10.64C275.125 10.4493 274.949 10.178 274.89 9.826C274.831 9.474 274.905 9.15867 275.11 8.88C275.55 8.32267 276.005 7.648 276.474 6.856C276.958 6.064 277.413 5.25 277.838 4.414C278.263 3.578 278.601 2.81533 278.85 2.126C278.997 1.71533 279.231 1.45133 279.554 1.334C279.891 1.202 280.243 1.19467 280.61 1.312C280.947 1.41467 281.189 1.62733 281.336 1.95C281.497 2.27267 281.505 2.62467 281.358 3.006C281.094 3.71 280.786 4.436 280.434 5.184H283.844V1.95C283.844 1.52467 283.976 1.18733 284.24 0.937999C284.519 0.688666 284.849 0.563999 285.23 0.563999C285.611 0.563999 285.934 0.688666 286.198 0.937999C286.477 1.18733 286.616 1.52467 286.616 1.95V5.184H292.842C293.179 5.184 293.458 5.30133 293.678 5.536C293.913 5.756 294.03 6.02733 294.03 6.35C294.03 6.67267 293.913 6.95133 293.678 7.186C293.458 7.42067 293.179 7.538 292.842 7.538H286.616V10.948H291.17C291.507 10.948 291.793 11.0653 292.028 11.3C292.263 11.52 292.38 11.7987 292.38 12.136C292.38 12.4733 292.263 12.7593 292.028 12.994C291.793 13.2287 291.507 13.346 291.17 13.346H286.616V17.416H293.634C293.971 17.416 294.25 17.5333 294.47 17.768C294.705 17.988 294.822 18.2667 294.822 18.604C294.822 18.9267 294.705 19.2053 294.47 19.44C294.25 19.6893 293.971 19.814 293.634 19.814H276.122ZM311.212 20.298C310.009 20.298 309.063 20.1733 308.374 19.924C307.685 19.6747 307.193 19.242 306.9 18.626C306.621 18.01 306.482 17.1667 306.482 16.096C306.482 15.0547 306.607 14.2333 306.856 13.632C307.12 13.0307 307.553 12.598 308.154 12.334C308.77 12.07 309.613 11.9233 310.684 11.894V9.012H305.866C305.499 9.012 305.213 8.902 305.008 8.682C304.803 8.44733 304.7 8.16867 304.7 7.846C304.7 7.52333 304.803 7.252 305.008 7.032C305.213 6.79733 305.499 6.68 305.866 6.68H310.684V4.062C310.053 4.12067 309.43 4.172 308.814 4.216C308.198 4.26 307.633 4.29667 307.12 4.326C306.709 4.34067 306.379 4.26 306.13 4.084C305.881 3.89333 305.741 3.60733 305.712 3.226C305.697 2.88867 305.8 2.61 306.02 2.39C306.255 2.17 306.555 2.05267 306.922 2.038C307.582 2.02333 308.315 1.98667 309.122 1.928C309.943 1.85467 310.772 1.774 311.608 1.686C312.444 1.58333 313.236 1.47333 313.984 1.356C314.732 1.23867 315.377 1.114 315.92 0.981999C316.331 0.893999 316.69 0.915999 316.998 1.048C317.306 1.16533 317.504 1.39267 317.592 1.73C317.665 2.05267 317.629 2.368 317.482 2.676C317.335 2.96933 317.071 3.15267 316.69 3.226C316.235 3.32867 315.715 3.43133 315.128 3.534C314.541 3.622 313.925 3.70267 313.28 3.776V6.68H318.164C318.531 6.68 318.817 6.79733 319.022 7.032C319.227 7.252 319.33 7.52333 319.33 7.846C319.33 8.16867 319.227 8.44733 319.022 8.682C318.817 8.902 318.531 9.012 318.164 9.012H313.28V11.894C314.351 11.9087 315.194 12.0553 315.81 12.334C316.426 12.598 316.866 13.0307 317.13 13.632C317.394 14.2333 317.526 15.0547 317.526 16.096C317.526 17.1667 317.379 18.01 317.086 18.626C316.807 19.242 316.323 19.6747 315.634 19.924C314.959 20.1733 314.021 20.298 312.818 20.298H311.212ZM300.168 20.122C299.831 19.9313 299.611 19.6453 299.508 19.264C299.42 18.8827 299.479 18.5307 299.684 18.208C299.963 17.7533 300.271 17.218 300.608 16.602C300.96 15.9713 301.297 15.3333 301.62 14.688C301.943 14.0427 302.199 13.4853 302.39 13.016C302.522 12.6787 302.757 12.444 303.094 12.312C303.431 12.1653 303.783 12.1727 304.15 12.334C304.487 12.4807 304.7 12.73 304.788 13.082C304.891 13.4193 304.883 13.7567 304.766 14.094C304.634 14.446 304.458 14.8567 304.238 15.326C304.033 15.7953 303.798 16.2867 303.534 16.8C303.285 17.2987 303.035 17.79 302.786 18.274C302.537 18.7433 302.317 19.154 302.126 19.506C301.935 19.8433 301.642 20.078 301.246 20.21C300.865 20.342 300.505 20.3127 300.168 20.122ZM311.212 17.988H312.818C313.375 17.988 313.808 17.944 314.116 17.856C314.424 17.7533 314.637 17.5627 314.754 17.284C314.886 17.0053 314.952 16.602 314.952 16.074C314.952 15.2967 314.805 14.7907 314.512 14.556C314.219 14.3067 313.654 14.182 312.818 14.182H311.212C310.361 14.182 309.789 14.3067 309.496 14.556C309.217 14.8053 309.078 15.304 309.078 16.052C309.078 16.5947 309.137 17.0053 309.254 17.284C309.371 17.5627 309.584 17.7533 309.892 17.856C310.215 17.944 310.655 17.988 311.212 17.988ZM303.16 4.986C302.955 4.83933 302.683 4.66333 302.346 4.458C302.023 4.25267 301.708 4.05467 301.4 3.864C301.092 3.65867 300.843 3.50467 300.652 3.402C300.344 3.24067 300.153 2.99867 300.08 2.676C300.021 2.33867 300.065 2.016 300.212 1.708C300.373 1.4 300.637 1.202 301.004 1.114C301.385 1.026 301.737 1.07 302.06 1.246C302.251 1.334 302.5 1.47333 302.808 1.664C303.131 1.85467 303.453 2.05267 303.776 2.258C304.113 2.44867 304.385 2.61733 304.59 2.764C304.898 2.96933 305.089 3.25533 305.162 3.622C305.25 3.974 305.191 4.31133 304.986 4.634C304.781 4.92733 304.495 5.11067 304.128 5.184C303.776 5.24267 303.453 5.17667 303.16 4.986ZM302.148 9.98C301.943 9.83333 301.679 9.65733 301.356 9.452C301.033 9.24667 300.711 9.04867 300.388 8.858C300.08 8.66733 299.831 8.52067 299.64 8.418C299.347 8.25667 299.163 8.00733 299.09 7.67C299.017 7.33267 299.061 7.01733 299.222 6.724C299.383 6.40133 299.647 6.20333 300.014 6.13C300.381 6.042 300.725 6.07867 301.048 6.24C301.239 6.34267 301.495 6.48933 301.818 6.68C302.141 6.856 302.463 7.04667 302.786 7.252C303.109 7.44267 303.373 7.61133 303.578 7.758C303.886 7.96333 304.077 8.24933 304.15 8.616C304.238 8.98267 304.179 9.32 303.974 9.628C303.769 9.936 303.483 10.1267 303.116 10.2C302.764 10.2587 302.441 10.1853 302.148 9.98ZM331.986 20.342C331.839 20.1807 331.766 19.99 331.766 19.77C331.766 19.5647 331.839 19.3887 331.986 19.242L350.246 0.937999C350.407 0.776666 350.591 0.696 350.796 0.696C351.016 0.696 351.199 0.776666 351.346 0.937999C351.507 1.08467 351.588 1.268 351.588 1.488C351.588 1.69333 351.507 1.87667 351.346 2.038L333.086 20.342C332.939 20.4887 332.756 20.562 332.536 20.562C332.331 20.562 332.147 20.4887 331.986 20.342Z" fill="#010F32"/>
</svg>
