<svg width="513" height="104" viewBox="0 0 513 104" fill="none" xmlns="http://www.w3.org/2000/svg">
<g clip-path="url(#clip0_420_2072)">
<path d="M67.6 34.5406C67.02 34.5406 66.52 34.3406 66.1 33.9606C65.68 33.5806 65.46 33.0806 65.46 32.4406V27.2606C64.46 28.0206 63.26 28.8006 61.9 29.6006C60.54 30.4006 59.14 31.1206 57.7 31.8006C56.26 32.4806 54.96 33.0206 53.76 33.4606C53.18 33.6806 52.66 33.7006 52.2 33.5406C51.74 33.3806 51.38 33.0206 51.14 32.5006C50.94 32.0206 50.94 31.5606 51.14 31.1406C51.32 30.7006 51.66 30.4006 52.16 30.2406C53.14 29.9206 54.2 29.5406 55.32 29.0806C56.44 28.6206 57.56 28.1006 58.66 27.5606C59.78 27.0206 60.82 26.4806 61.78 25.9606H52.56C52.16 25.9606 51.8 25.8206 51.52 25.5006C51.24 25.2006 51.08 24.8406 51.08 24.4406C51.08 24.0406 51.22 23.6806 51.52 23.4006C51.8 23.1206 52.16 22.9606 52.56 22.9606H65.48V21.2406H61.62C59.5 21.2406 58.04 20.8806 57.2 20.1606C56.36 19.4406 55.96 18.1606 55.96 16.3406V10.6206C55.58 11.0206 55.2 11.4206 54.84 11.8206C54.48 12.2206 54.12 12.5806 53.76 12.9206C53.38 13.3006 52.9 13.5206 52.34 13.5606C51.78 13.6006 51.28 13.4406 50.84 13.0606C50.48 12.7206 50.28 12.3006 50.26 11.7806C50.24 11.2606 50.4 10.8606 50.76 10.5406C51.6 9.74062 52.46 8.84062 53.34 7.84062C54.22 6.84062 55.04 5.78062 55.84 4.70062C56.64 3.60062 57.3 2.58062 57.82 1.58062C58.08 1.10062 58.48 0.780616 59 0.600616C59.52 0.440616 60.02 0.480616 60.52 0.740616C61.02 0.960616 61.34 1.32062 61.5 1.82062C61.64 2.32062 61.58 2.82062 61.32 3.30062C61.18 3.54062 61.02 3.80062 60.88 4.06062C60.74 4.32062 60.54 4.58062 60.36 4.86062H65.86C66.02 4.46062 66.22 3.96062 66.46 3.40062C66.7 2.84062 66.88 2.38062 67.02 2.02062C67.28 1.40062 67.7 0.980616 68.24 0.780616C68.8 0.580616 69.34 0.580616 69.9 0.780616C70.46 0.980616 70.84 1.30062 71.06 1.74062C71.28 2.18062 71.28 2.68062 71.06 3.20062C70.94 3.44062 70.8 3.72062 70.66 4.02062C70.52 4.32062 70.38 4.62062 70.22 4.90062H79.84C80.24 4.90062 80.6 5.04062 80.88 5.32062C81.16 5.60062 81.32 5.98062 81.32 6.46062C81.32 6.94062 81.18 7.28062 80.88 7.58062C80.6 7.86062 80.24 8.02062 79.84 8.02062H69.68V9.54062H78C78.46 9.54062 78.8 9.68062 79.02 9.98062C79.24 10.2606 79.36 10.6006 79.36 10.9806C79.36 11.3606 79.24 11.7006 79.02 11.9806C78.8 12.2606 78.44 12.4006 78 12.4006H69.68V13.9206H78C78.46 13.9206 78.8 14.0606 79.02 14.3606C79.24 14.6406 79.36 14.9806 79.36 15.3606C79.36 15.7406 79.24 16.0806 79.02 16.3606C78.8 16.6406 78.44 16.7806 78 16.7806H69.68V18.3006H80.26C80.66 18.3006 81.02 18.4406 81.3 18.7006C81.58 18.9606 81.74 19.3206 81.74 19.7806C81.74 20.2406 81.6 20.6206 81.3 20.9206C81.02 21.2206 80.66 21.3806 80.26 21.3806H69.68V23.1006H82.46C82.86 23.1006 83.22 23.2406 83.5 23.5406C83.78 23.8206 83.94 24.1806 83.94 24.5806C83.94 24.9806 83.8 25.3406 83.5 25.6406C83.22 25.9406 82.86 26.1006 82.46 26.1006H73.36C74.82 26.9006 76.42 27.6606 78.14 28.4006C79.86 29.1406 81.46 29.7606 82.92 30.2406C83.42 30.4006 83.76 30.7206 83.92 31.2006C84.08 31.6606 84.08 32.1406 83.88 32.6206C83.66 33.1206 83.32 33.4606 82.84 33.6406C82.36 33.8206 81.84 33.8206 81.26 33.6406C80.08 33.2006 78.8 32.6606 77.38 32.0006C75.98 31.3406 74.6 30.6206 73.24 29.8206C71.88 29.0206 70.68 28.2606 69.66 27.5206V32.6406C69.66 33.2606 69.46 33.7606 69.04 34.1606C68.64 34.5406 68.14 34.7406 67.56 34.7406L67.6 34.5406ZM60 9.44062H65.48V7.92062H60V9.44062ZM60 13.8006H65.48V12.2806H60V13.8006ZM62.34 18.1606H65.48V16.6406H60.04C60.08 17.2406 60.28 17.6406 60.62 17.8406C60.96 18.0406 61.54 18.1406 62.34 18.1406V18.1606Z" fill="#010F32"/>
<path d="M99.58 33.4001C97.62 33.4001 96.02 32.9401 94.82 32.0201C93.62 31.1001 93.02 29.7201 93.02 27.9001C93.02 26.2601 93.62 24.9601 94.84 23.9801C96.06 23.0001 97.68 22.5001 99.72 22.5001C100.44 22.5001 101.16 22.5401 101.88 22.6001L101.78 18.5401C99.28 18.6201 97.08 18.6201 95.16 18.5401C94.56 18.5001 94.08 18.2401 93.7 17.8001C93.32 17.3601 93.16 16.8401 93.18 16.2801C93.22 15.7001 93.48 15.2201 93.92 14.8401C94.36 14.4601 94.88 14.2801 95.44 14.3401C96.36 14.3801 97.34 14.4201 98.42 14.4201C99.48 14.4201 100.58 14.4201 101.68 14.4201C101.66 13.8401 101.64 13.2601 101.64 12.7001C101.64 12.1401 101.64 11.5601 101.6 11.0001C100.42 11.0201 99.28 11.0401 98.18 11.0001C97.08 11.0001 96.06 10.9601 95.16 10.9401C94.56 10.9201 94.08 10.6801 93.7 10.2401C93.32 9.80008 93.16 9.28008 93.18 8.68008C93.22 8.10008 93.48 7.62008 93.92 7.24008C94.36 6.86008 94.88 6.68008 95.44 6.74008C97.22 6.86008 99.24 6.90008 101.52 6.84008V3.74008C101.52 3.14008 101.72 2.62008 102.14 2.20008C102.56 1.78008 103.06 1.58008 103.66 1.58008C104.26 1.58008 104.76 1.78008 105.18 2.20008C105.6 2.62008 105.82 3.14008 105.82 3.74008V5.12008C105.82 5.62008 105.82 6.14008 105.86 6.68008C106.84 6.60008 107.8 6.54008 108.7 6.44008C109.62 6.36008 110.44 6.26008 111.18 6.18008C111.76 6.10008 112.28 6.24008 112.74 6.60008C113.2 6.96008 113.48 7.40008 113.56 7.98008C113.64 8.58008 113.5 9.12008 113.14 9.58008C112.8 10.0401 112.32 10.3201 111.76 10.4001C110.92 10.5001 110 10.5801 109 10.6601C108 10.7401 106.98 10.8001 105.92 10.8401C105.92 11.4001 105.92 11.9601 105.92 12.5401C105.92 13.1201 105.96 13.7001 105.98 14.2601C106.94 14.2201 107.86 14.1401 108.74 14.0601C109.62 13.9801 110.42 13.8801 111.16 13.8001C111.74 13.7001 112.26 13.8401 112.72 14.2001C113.18 14.5601 113.46 15.0201 113.54 15.6001C113.62 16.1801 113.48 16.7001 113.12 17.1601C112.76 17.6201 112.3 17.9001 111.74 17.9601C110.92 18.0601 110.04 18.1401 109.08 18.2201C108.12 18.3001 107.12 18.3601 106.06 18.4001C106.1 19.3601 106.14 20.2801 106.14 21.1401C106.14 22.0001 106.16 22.8001 106.2 23.5601C107.6 23.9601 108.92 24.4801 110.16 25.0801C111.4 25.6801 112.52 26.3201 113.48 26.9801C113.96 27.3001 114.26 27.7401 114.36 28.3401C114.46 28.9401 114.36 29.4801 114.02 29.9601C113.68 30.4401 113.22 30.7401 112.64 30.8401C112.06 30.9401 111.52 30.8401 111.04 30.5001C110.36 30.0201 109.62 29.5601 108.8 29.1201C107.98 28.6801 107.14 28.2801 106.24 27.9201C106.14 29.8201 105.52 31.2001 104.36 32.1001C103.2 32.9801 101.6 33.4401 99.58 33.4401V33.4001ZM99.54 29.3401C100.52 29.3401 101.18 29.1601 101.48 28.8201C101.78 28.4801 101.94 27.9801 101.94 27.3201V26.6401C101.12 26.5001 100.32 26.4201 99.52 26.4201C98.72 26.4201 98.18 26.5601 97.82 26.8201C97.46 27.0801 97.28 27.4401 97.28 27.9001C97.28 28.8601 98.02 29.3401 99.52 29.3401H99.54Z" fill="#010F32"/>
<path d="M138.06 31.9607C137.54 32.0407 137.06 31.9007 136.64 31.5807C136.22 31.2607 135.98 30.8207 135.9 30.3007C135.86 29.7807 135.98 29.3007 136.32 28.8807C136.64 28.4607 137.08 28.2207 137.6 28.1407C139.88 27.8207 141.68 27.3407 143.02 26.6607C144.36 25.9807 145.28 25.2007 145.82 24.2807C146.34 23.3607 146.54 22.4207 146.4 21.4407C146.24 20.1607 145.76 19.2407 145 18.6607C144.24 18.0807 143.14 17.8607 141.72 17.9807C140.96 18.0207 140.06 18.1407 139.04 18.2807C138.02 18.4407 136.98 18.6207 135.9 18.8007C134.82 19.0007 133.78 19.2007 132.8 19.4207C131.82 19.6407 130.96 19.8607 130.24 20.0407C129.72 20.1807 129.22 20.1207 128.76 19.8807C128.3 19.6407 128 19.2407 127.86 18.7207C127.72 18.2207 127.78 17.7207 128.02 17.2607C128.26 16.8007 128.66 16.4807 129.18 16.3407C129.94 16.1207 130.86 15.9007 131.9 15.7007C132.94 15.4807 134.04 15.2807 135.18 15.0607C136.32 14.8607 137.44 14.6807 138.52 14.5407C139.6 14.4007 140.58 14.2807 141.42 14.2207C143.84 14.0207 145.82 14.5207 147.36 15.6807C148.9 16.8407 149.82 18.5407 150.14 20.7807C150.4 22.4807 150.14 24.1207 149.34 25.7007C148.54 27.2807 147.22 28.6207 145.34 29.7407C143.46 30.8607 141.04 31.6007 138.06 31.9607Z" fill="#010F32"/>
<path d="M162.5 32.38C161.98 32.06 161.64 31.62 161.5 31.04C161.36 30.46 161.46 29.92 161.78 29.42C162.72 27.9 163.54 26.24 164.26 24.42C164.98 22.6 165.6 20.7 166.12 18.74C166.64 16.78 167.04 14.84 167.36 12.94C166.66 13.02 165.98 13.08 165.32 13.12C164.66 13.16 164.04 13.22 163.46 13.26C162.86 13.28 162.34 13.12 161.9 12.74C161.46 12.36 161.22 11.88 161.16 11.28C161.14 10.68 161.32 10.16 161.7 9.72001C162.08 9.28001 162.58 9.04001 163.18 9.02001C163.88 8.98001 164.62 8.92001 165.42 8.88001C166.22 8.84001 167.04 8.76001 167.84 8.66001C167.92 7.84001 167.96 7.06001 167.98 6.32001C168 5.58001 168 4.86001 167.98 4.20001C167.96 3.60001 168.14 3.08001 168.54 2.66001C168.94 2.24001 169.44 2.00001 170.04 1.98001C170.64 1.96001 171.16 2.14001 171.58 2.54001C172.02 2.94001 172.24 3.44001 172.26 4.04001C172.28 4.64001 172.28 5.28001 172.26 5.96001C172.24 6.64001 172.18 7.38001 172.12 8.14001C173.2 7.94001 174.18 7.76001 175.04 7.60001C175.62 7.48001 176.16 7.58001 176.66 7.88001C177.16 8.20001 177.48 8.64001 177.6 9.22001C177.72 9.82001 177.6 10.36 177.3 10.84C176.98 11.32 176.52 11.62 175.96 11.74C175.36 11.86 174.7 11.98 173.96 12.1C173.22 12.22 172.46 12.34 171.64 12.46C171.3 14.64 170.84 16.9 170.28 19.24C169.72 21.58 169.02 23.82 168.2 25.98C167.4 28.12 166.48 30.04 165.44 31.68C165.12 32.18 164.68 32.5 164.1 32.66C163.52 32.8 162.98 32.72 162.48 32.4L162.5 32.38ZM187.56 31.58C183.98 32.4 180.92 32.42 178.36 31.66C175.8 30.9 173.98 29.48 172.86 27.42C172.6 26.9 172.54 26.34 172.7 25.78C172.86 25.22 173.2 24.78 173.72 24.5C174.24 24.22 174.8 24.16 175.36 24.32C175.92 24.48 176.36 24.84 176.64 25.36C177.36 26.64 178.58 27.42 180.28 27.74C181.98 28.06 184.1 27.94 186.66 27.38C187.26 27.26 187.8 27.38 188.3 27.68C188.8 27.98 189.1 28.46 189.22 29.02C189.34 29.62 189.22 30.16 188.92 30.66C188.62 31.16 188.14 31.46 187.58 31.58H187.56ZM185.8 17.82C184.98 17.62 184.06 17.5 183 17.42C181.96 17.34 180.9 17.34 179.84 17.36C178.78 17.38 177.76 17.5 176.84 17.66C176.26 17.76 175.74 17.66 175.28 17.32C174.82 17 174.52 16.56 174.4 16C174.28 15.42 174.4 14.9 174.7 14.4C175.02 13.9 175.48 13.62 176.04 13.52C177.16 13.32 178.36 13.2 179.62 13.16C180.88 13.12 182.14 13.14 183.38 13.22C184.62 13.3 185.76 13.46 186.8 13.7C187.38 13.82 187.82 14.14 188.12 14.64C188.42 15.14 188.5 15.68 188.36 16.26C188.24 16.82 187.92 17.24 187.42 17.54C186.92 17.84 186.38 17.94 185.8 17.82Z" fill="#010F32"/>
<path d="M198.76 34.1808C197.36 34.1808 196.6 33.5008 196.46 32.1208C196.42 31.5408 196.54 31.0408 196.88 30.6008C197.2 30.1608 197.66 29.9208 198.22 29.8408C198.94 29.7408 199.4 29.5808 199.62 29.3808C199.84 29.1608 199.94 28.7608 199.94 28.1608V22.5408C198.98 22.9208 198.22 23.2208 197.64 23.4408C196.96 23.6808 196.34 23.6608 195.78 23.4008C195.22 23.1408 194.84 22.7208 194.68 22.1808C194.52 21.5608 194.54 20.9808 194.76 20.4808C194.98 19.9608 195.44 19.6208 196.14 19.4208C196.66 19.2808 197.26 19.1008 197.92 18.9008C198.58 18.7008 199.24 18.4808 199.92 18.2408V11.8008H196.82C196.22 11.8008 195.74 11.6008 195.38 11.2008C195.02 10.8008 194.84 10.3408 194.84 9.82078C194.84 9.30078 195.02 8.80078 195.38 8.42078C195.74 8.04078 196.22 7.84078 196.82 7.84078H199.92V2.82078C199.92 2.20078 200.12 1.70078 200.52 1.34078C200.92 0.980781 201.38 0.800781 201.94 0.800781C202.5 0.800781 203 0.980781 203.4 1.34078C203.8 1.70078 204 2.20078 204 2.82078V7.82078H205.76C206.38 7.82078 206.86 8.02078 207.22 8.40078C207.56 8.78078 207.74 9.26078 207.74 9.80078C207.74 10.3408 207.56 10.8008 207.22 11.1808C206.88 11.5808 206.38 11.7808 205.76 11.7808H204V16.7808C204.26 16.6808 204.52 16.6008 204.76 16.5008C205 16.4008 205.22 16.3208 205.44 16.2408C206 16.0208 206.48 16.0208 206.94 16.2408C207.38 16.4608 207.68 16.8008 207.82 17.2808C207.84 17.3808 207.86 17.4608 207.88 17.5408C207.88 17.6208 207.9 17.6808 207.94 17.7608C207.98 17.3208 208.16 16.9608 208.48 16.6608C208.8 16.3608 209.18 16.2008 209.66 16.2008H220.06C221.28 16.2008 222.24 16.4608 222.92 17.0008C223.6 17.5208 224 18.2208 224.12 19.0608C224.24 19.9208 224.04 20.8208 223.5 21.7808C223.04 22.6408 222.54 23.4808 221.96 24.2808C221.38 25.0808 220.78 25.8608 220.1 26.6008C220.96 27.2808 221.92 27.8608 222.96 28.3608C224 28.8608 225.14 29.2608 226.36 29.5408C227.04 29.7008 227.52 30.0208 227.82 30.4608C228.12 30.9008 228.18 31.4408 227.98 32.0608C227.78 32.6608 227.4 33.0808 226.84 33.3208C226.28 33.5608 225.68 33.5808 225.06 33.4008C223.5 32.9008 222.06 32.3008 220.76 31.6008C219.46 30.9008 218.26 30.1208 217.22 29.2608C216.02 30.2208 214.72 31.0808 213.32 31.8208C211.92 32.5608 210.4 33.1808 208.8 33.7008C208.2 33.9008 207.64 33.8608 207.14 33.6008C206.64 33.3408 206.28 32.9608 206.1 32.4408C205.94 31.9208 205.96 31.4208 206.18 30.9608C206.4 30.5008 206.82 30.1808 207.42 29.9808C210.02 29.1408 212.36 27.9808 214.44 26.4808C213.64 25.5008 212.96 24.4608 212.36 23.3408C211.76 22.2208 211.26 21.0808 210.84 19.8408H209.62C209.16 19.8408 208.78 19.7008 208.46 19.4008C208.14 19.1208 207.96 18.7608 207.88 18.3608C207.84 18.6208 207.7 18.8808 207.5 19.1208C207.3 19.3608 207 19.5808 206.58 19.7608C206.24 19.9008 205.84 20.0808 205.4 20.2608C204.94 20.4608 204.46 20.6608 203.96 20.8808V29.0208C203.96 30.7408 203.54 32.0408 202.72 32.8808C201.9 33.7208 200.56 34.1408 198.7 34.1408L198.76 34.1808ZM210.9 15.3608C210.44 15.7208 209.9 15.9008 209.3 15.9008C208.7 15.9008 208.18 15.7008 207.76 15.2808C207.38 14.8808 207.2 14.4008 207.24 13.8808C207.28 13.3608 207.5 12.9008 207.94 12.5208C208.56 12.0208 209.04 11.5008 209.38 10.9808C209.72 10.4608 209.96 9.84078 210.1 9.12078C210.24 8.40078 210.32 7.46078 210.32 6.32078C210.34 5.22078 210.52 4.34078 210.88 3.70078C211.22 3.06078 211.82 2.60078 212.66 2.32078C213.5 2.04078 214.66 1.90078 216.12 1.90078C217.58 1.90078 218.74 2.04078 219.58 2.32078C220.42 2.60078 221.02 3.06078 221.36 3.70078C221.7 4.34078 221.88 5.24078 221.88 6.36078V10.1408C221.88 10.4808 221.96 10.7008 222.14 10.8208C222.32 10.9408 222.62 11.0008 223.06 11.0008C223.52 11.0008 223.82 10.8808 224 10.6208C224.18 10.3608 224.34 9.84078 224.5 9.02078C224.62 8.46078 224.92 8.08078 225.4 7.86078C225.88 7.64078 226.4 7.60078 226.98 7.72078C227.54 7.84078 227.94 8.12078 228.22 8.54078C228.5 8.98078 228.58 9.46078 228.48 10.0208C228.16 11.8408 227.58 13.1208 226.72 13.8208C225.86 14.5208 224.58 14.8808 222.86 14.8808C221.04 14.8808 219.76 14.6008 219 14.0608C218.26 13.5208 217.88 12.5008 217.88 10.9808V7.10078C217.88 6.48078 217.76 6.06078 217.54 5.88078C217.32 5.70078 216.84 5.60078 216.12 5.60078C215.4 5.60078 214.88 5.70078 214.66 5.88078C214.44 6.08078 214.32 6.48078 214.32 7.10078C214.3 8.98078 213.98 10.6008 213.36 11.9808C212.74 13.3608 211.92 14.4808 210.86 15.3408L210.9 15.3608ZM217.38 23.9608C217.76 23.5608 218.12 23.1408 218.44 22.7208C218.76 22.3008 219.06 21.8808 219.32 21.4408C220 20.4008 219.68 19.9008 218.38 19.9008H214.88C215.2 20.6008 215.56 21.3008 215.96 21.9808C216.36 22.6608 216.84 23.3408 217.36 23.9608H217.38Z" fill="#010F32"/>
<path d="M237.7 34.3213C237.18 34.3213 236.72 34.1613 236.36 33.8213C236 33.4813 235.82 33.0212 235.82 32.4212V21.6612C235.46 22.3812 235.1 23.0812 234.76 23.7412C234.42 24.4012 234.08 24.9812 233.76 25.4812C233.48 25.9212 233.06 26.2012 232.56 26.3212C232.06 26.4412 231.54 26.4012 231.06 26.1612C230.6 25.9012 230.34 25.4812 230.26 24.9412C230.18 24.4012 230.3 23.9012 230.62 23.4612C231 22.9012 231.44 22.2212 231.92 21.4012C232.4 20.5812 232.88 19.6812 233.36 18.7412C233.84 17.8012 234.28 16.8612 234.7 15.9412C235.12 15.0212 235.46 14.2213 235.72 13.5013H232.52C231.94 13.5013 231.48 13.3213 231.16 12.9613C230.82 12.6013 230.66 12.1613 230.66 11.6213C230.66 11.0813 230.82 10.6812 231.16 10.3212C231.5 9.96125 231.96 9.78125 232.52 9.78125H235.8V6.82125C235.36 6.92125 234.96 7.00125 234.56 7.10125C234.16 7.18125 233.76 7.24125 233.36 7.30125C232.62 7.40125 232.06 7.34125 231.66 7.10125C231.28 6.88125 231.02 6.50125 230.9 5.96125C230.78 5.38125 230.86 4.92125 231.16 4.54125C231.44 4.16125 231.86 3.94125 232.42 3.88125C233.34 3.76125 234.3 3.60125 235.32 3.38125C236.34 3.16125 237.32 2.92125 238.28 2.62125C239.22 2.34125 240.04 2.06125 240.7 1.80125C241.26 1.60125 241.78 1.60125 242.26 1.80125C242.76 1.98125 243.08 2.32125 243.26 2.82125C243.42 3.28125 243.42 3.72125 243.26 4.14125C243.08 4.56125 242.76 4.86125 242.28 5.06125C241.88 5.20125 241.44 5.34125 241 5.50125C240.56 5.64125 240.1 5.78125 239.62 5.94125V9.82125H241.68C242.26 9.82125 242.72 10.0012 243.04 10.3612C243.38 10.7212 243.54 11.1613 243.54 11.6613C243.54 12.1613 243.38 12.6413 243.04 13.0013C242.7 13.3613 242.24 13.5413 241.68 13.5413H239.62V14.9012C239.96 15.3012 240.38 15.8012 240.86 16.3612C241.36 16.9212 241.84 17.4812 242.36 18.0012C242.86 18.5212 243.28 18.9412 243.58 19.2612C243.66 19.3012 243.74 19.4013 243.84 19.5413C244.64 18.4213 246.32 17.8412 248.88 17.8412H257.7C259.9 17.8412 261.42 18.2212 262.26 18.9812C263.1 19.7412 263.5 21.0013 263.5 22.7812V29.7013C263.5 31.2813 263.12 32.4413 262.34 33.1613C261.56 33.8813 260.38 34.2413 258.74 34.2413C258.18 34.2413 257.72 34.0813 257.36 33.7812C256.98 33.4613 256.76 33.0812 256.7 32.6012C256.6 32.0012 256.7 31.5212 257.04 31.1412C257.38 30.7612 257.8 30.5412 258.36 30.4812C258.88 30.4012 259.22 30.2812 259.38 30.0812C259.54 29.8812 259.62 29.5413 259.62 29.0413V23.4612C259.62 22.5012 259.46 21.8812 259.16 21.5812C258.84 21.3012 258.12 21.1412 257 21.1412H249.62C248.52 21.1412 247.8 21.2812 247.48 21.5812C247.16 21.8612 247 22.5012 247 23.4612V32.4612C247 33.0412 246.82 33.5013 246.44 33.8613C246.06 34.2213 245.6 34.4013 245.06 34.4013C244.52 34.4013 244.08 34.2213 243.7 33.8613C243.32 33.5013 243.12 33.0412 243.12 32.4612V22.5012C243.12 22.5012 243.12 22.3212 243.16 22.2212C242.42 22.5412 241.74 22.3812 241.14 21.7612C240.78 21.3612 240.28 20.7612 239.66 20.0012V32.5012C239.66 33.1012 239.48 33.5613 239.12 33.9013C238.76 34.2413 238.3 34.4013 237.76 34.4013L237.7 34.3213ZM244.22 7.58125C243.7 7.58125 243.28 7.42125 243 7.10125C242.72 6.78125 242.56 6.38125 242.56 5.94125C242.56 5.46125 242.7 5.06125 243 4.76125C243.28 4.44125 243.7 4.30125 244.22 4.30125H251.02V2.94125C251.02 2.26125 251.22 1.74125 251.64 1.36125C252.06 0.98125 252.56 0.78125 253.16 0.78125C253.76 0.78125 254.26 0.98125 254.68 1.36125C255.1 1.74125 255.3 2.28125 255.3 2.94125V4.30125H262.4C262.92 4.30125 263.34 4.46125 263.64 4.76125C263.94 5.08125 264.08 5.46125 264.08 5.94125C264.08 6.42125 263.92 6.78125 263.64 7.10125C263.34 7.42125 262.92 7.58125 262.4 7.58125H244.22ZM250.98 16.4812C249.56 16.4812 248.48 16.3813 247.74 16.1813C247 15.9813 246.5 15.6013 246.22 15.0413C245.96 14.4813 245.82 13.7013 245.82 12.6613C245.82 11.6213 245.96 10.8413 246.22 10.3013C246.48 9.76125 246.98 9.38125 247.74 9.18125C248.5 8.98125 249.56 8.88125 250.98 8.88125H255.66C257.1 8.88125 258.18 8.98125 258.92 9.18125C259.66 9.38125 260.16 9.76125 260.42 10.3013C260.68 10.8413 260.82 11.6213 260.82 12.6613C260.82 13.7013 260.68 14.4813 260.42 15.0413C260.16 15.6013 259.66 15.9813 258.92 16.1813C258.18 16.3813 257.1 16.4812 255.66 16.4812H250.98ZM253.22 30.4812C251.98 30.4812 251.02 30.3812 250.34 30.1612C249.66 29.9412 249.2 29.5412 248.96 28.9612C248.7 28.3812 248.58 27.5212 248.58 26.3812C248.58 25.2412 248.7 24.4012 248.96 23.8012C249.22 23.2012 249.68 22.8012 250.34 22.6012C251.02 22.3812 251.98 22.2812 253.22 22.2812C254.46 22.2812 255.46 22.3812 256.14 22.6012C256.82 22.8212 257.28 23.2212 257.52 23.8012C257.76 24.3812 257.9 25.2412 257.9 26.3812C257.9 27.5212 257.78 28.3612 257.52 28.9612C257.26 29.5412 256.8 29.9612 256.14 30.1612C255.48 30.3612 254.5 30.4812 253.22 30.4812ZM251.52 13.7013H255.12C255.92 13.7013 256.42 13.6413 256.64 13.5213C256.86 13.4013 256.98 13.1213 256.98 12.6613C256.98 12.2213 256.86 11.9613 256.64 11.8413C256.42 11.7213 255.9 11.6613 255.12 11.6613H251.52C250.72 11.6613 250.22 11.7213 250 11.8413C249.78 11.9613 249.66 12.2413 249.66 12.6613C249.66 13.1213 249.78 13.4013 250 13.5213C250.22 13.6413 250.74 13.7013 251.52 13.7013ZM253.22 27.8412C253.84 27.8412 254.24 27.7612 254.4 27.5612C254.56 27.3812 254.66 26.9812 254.66 26.3612C254.66 25.7412 254.58 25.3412 254.4 25.1612C254.24 24.9812 253.84 24.9012 253.22 24.9012C252.6 24.9012 252.24 24.9812 252.06 25.1612C251.9 25.3412 251.8 25.7412 251.8 26.3612C251.8 26.9812 251.88 27.3812 252.06 27.5612C252.22 27.7412 252.62 27.8412 253.22 27.8412Z" fill="#010F32"/>
<path d="M269.42 33.9798C268.8 34.0798 268.26 34.0198 267.84 33.7998C267.4 33.5798 267.12 33.1798 266.98 32.5798C266.84 32.0198 266.92 31.5598 267.24 31.1598C267.56 30.7598 268.02 30.5198 268.64 30.4198C270.6 30.1398 272.28 29.6198 273.64 28.8798C273.36 28.7198 273.06 28.5398 272.78 28.3998C272.5 28.2398 272.22 28.0998 271.96 27.9598C269.84 26.8798 269.36 25.3398 270.52 23.3598H268.28C267.76 23.3598 267.34 23.1998 267.04 22.8598C266.74 22.5198 266.6 22.1198 266.6 21.6798C266.6 21.1998 266.76 20.7998 267.04 20.4598C267.34 20.1198 267.76 19.9598 268.28 19.9598H272.46C272.68 19.5598 272.88 19.1598 273.1 18.7798C273.3 18.3998 273.5 18.0398 273.66 17.6998C273.92 17.2198 274.24 16.8998 274.64 16.7198C274.36 16.3798 274.2 15.9798 274.2 15.4998V12.9798C273.58 13.6798 272.9 14.3598 272.2 15.0398C271.5 15.7198 270.84 16.2798 270.24 16.7598C269.84 17.0998 269.36 17.2598 268.84 17.2798C268.32 17.2798 267.86 17.0998 267.5 16.6798C267.18 16.3198 267.04 15.8998 267.06 15.4398C267.08 14.9798 267.28 14.5998 267.68 14.3398C268.38 13.8198 269.18 13.1598 270.08 12.3598C270.98 11.5598 271.74 10.8798 272.36 10.2798H268.58C268.08 10.2798 267.68 10.1198 267.4 9.81984C267.12 9.49984 266.96 9.11984 266.96 8.65984C266.96 8.19984 267.1 7.81984 267.4 7.47984C267.68 7.15984 268.08 6.99984 268.58 6.99984H270.24C270.08 6.89984 269.92 6.73984 269.8 6.53984C269.7 6.33984 269.54 6.09984 269.34 5.77984C269.12 5.45984 268.9 5.15984 268.7 4.81984C268.48 4.49984 268.32 4.23984 268.2 4.07984C267.96 3.71984 267.9 3.33984 268 2.91984C268.1 2.51984 268.34 2.19984 268.7 1.97984C269.08 1.73984 269.5 1.65984 269.92 1.71984C270.36 1.79984 270.7 2.01984 270.96 2.39984C271.08 2.55984 271.26 2.81984 271.48 3.13984C271.7 3.45984 271.94 3.77984 272.16 4.11984C272.38 4.43984 272.54 4.69984 272.64 4.85984C272.88 5.21984 272.96 5.59984 272.88 6.01984C272.8 6.41984 272.58 6.75984 272.26 6.99984H274.2V2.63984C274.2 2.07984 274.38 1.63984 274.72 1.31984C275.06 0.999844 275.48 0.839844 275.96 0.839844C276.44 0.839844 276.88 0.999844 277.24 1.31984C277.58 1.63984 277.76 2.07984 277.76 2.63984V6.91984H279.46C279.22 6.67984 279.06 6.37984 279 6.03984C278.92 5.69984 279 5.33984 279.22 5.01984C279.34 4.85984 279.5 4.59984 279.7 4.25984C279.9 3.91984 280.1 3.57984 280.32 3.25984C280.52 2.91984 280.68 2.67984 280.78 2.49984C281.02 2.01984 281.34 1.69984 281.78 1.55984C282.2 1.41984 282.64 1.45984 283.1 1.65984C283.54 1.85984 283.84 2.15984 284.02 2.57984C284.2 2.99984 284.16 3.43984 283.9 3.89984C283.78 4.09984 283.62 4.35984 283.4 4.71984C283.18 5.07984 282.96 5.43984 282.76 5.77984C282.56 6.11984 282.36 6.39984 282.22 6.57984C282.12 6.71984 282.04 6.83984 281.96 6.89984H283.3C283.8 6.89984 284.2 7.05984 284.48 7.37984C284.76 7.69984 284.92 8.09984 284.92 8.55984C284.92 9.01984 284.78 9.39984 284.48 9.71984C284.2 10.0398 283.8 10.1798 283.3 10.1798H279.62C280.1 10.6798 280.64 11.2198 281.24 11.7998C281.84 12.3798 282.36 12.8398 282.82 13.1998C283.22 13.5198 283.44 13.8798 283.44 14.3198C283.44 14.7598 283.28 15.1598 282.94 15.5398C282.62 15.8998 282.22 16.0998 281.74 16.1398C281.24 16.1798 280.8 15.9998 280.4 15.6198C280.04 15.2598 279.64 14.8398 279.18 14.3598C278.72 13.8798 278.28 13.3798 277.84 12.8798V15.3998C277.84 16.1398 277.54 16.6798 276.94 16.9798C277.2 17.2198 277.38 17.5198 277.44 17.8598C277.5 18.1998 277.44 18.5798 277.22 18.9598C277.14 19.0998 277.08 19.2598 277 19.4198C276.92 19.5798 276.84 19.7198 276.74 19.8798H283.62C284.14 19.8798 284.56 20.0398 284.86 20.3798C285.16 20.7198 285.32 21.1198 285.32 21.5998C285.32 22.0798 285.16 22.4598 284.86 22.7798C284.56 23.1198 284.14 23.2798 283.62 23.2798H282.46C282.14 24.2598 281.8 25.1798 281.4 26.0198C281 26.8598 280.52 27.6198 279.98 28.3198C280.34 28.5598 280.68 28.7998 281.02 29.0198C281.36 29.2398 281.66 29.4598 281.96 29.6398C282.18 29.7798 282.34 29.9398 282.46 30.1198C282.58 30.2998 282.66 30.4798 282.72 30.6798C282.82 30.5998 282.92 30.5398 283 30.4598C283.1 30.3798 283.2 30.3198 283.28 30.2398C284.64 29.5198 285.86 28.6998 286.94 27.7998C288.02 26.8998 288.94 25.9198 289.76 24.8798C289.08 23.6798 288.52 22.4198 288.04 21.1198C287.56 19.8198 287.18 18.4798 286.92 17.0998C286.8 17.3398 286.66 17.5798 286.52 17.8198C286.38 18.0598 286.24 18.2798 286.12 18.4998C285.8 18.9598 285.38 19.2598 284.86 19.3998C284.34 19.5398 283.82 19.4798 283.34 19.1798C282.88 18.9198 282.58 18.5398 282.46 18.0198C282.32 17.5198 282.4 17.0398 282.7 16.6198C283.54 15.3998 284.3 13.9998 284.98 12.4198C285.66 10.8398 286.24 9.21984 286.72 7.53984C287.2 5.85984 287.54 4.27984 287.72 2.77984C287.8 2.13984 288.04 1.65984 288.48 1.35984C288.92 1.05984 289.4 0.939844 289.92 1.01984C290.48 1.09984 290.9 1.31984 291.22 1.67984C291.54 2.03984 291.64 2.55984 291.54 3.17984C291.44 3.99984 291.3 4.83984 291.1 5.67984C290.9 6.53984 290.68 7.37984 290.42 8.25984H298.74C299.3 8.25984 299.74 8.43984 300.06 8.77984C300.38 9.11984 300.54 9.55984 300.54 10.0598C300.54 10.5598 300.38 10.9798 300.06 11.3398C299.74 11.6798 299.3 11.8598 298.74 11.8598H297.98C297.76 14.4598 297.36 16.8198 296.78 18.9798C296.2 21.1398 295.38 23.0998 294.36 24.8798C295.84 26.6798 297.68 28.3198 299.86 29.8198C300.34 30.1398 300.62 30.5798 300.7 31.1398C300.78 31.6998 300.64 32.2198 300.28 32.6598C299.9 33.1398 299.4 33.4198 298.78 33.4998C298.16 33.5798 297.62 33.4398 297.14 33.0798C295.14 31.5998 293.44 29.9598 292 28.1798C290.22 30.2398 287.98 32.0398 285.26 33.5398C284.68 33.8598 284.12 33.9198 283.56 33.7398C283 33.5598 282.62 33.2398 282.38 32.7798C282.36 32.6998 282.32 32.6398 282.3 32.5798C282.26 32.5198 282.24 32.4598 282.22 32.3798C281.9 32.7598 281.48 32.9798 280.96 33.0398C280.44 33.0998 279.94 32.9598 279.48 32.6198C279.1 32.3598 278.72 32.0798 278.32 31.7998C277.94 31.5198 277.54 31.2198 277.14 30.9398C275.24 32.2998 272.68 33.2798 269.48 33.8598L269.42 33.9798ZM276.58 26.4198C276.94 25.9798 277.26 25.5198 277.58 24.9998C277.88 24.4798 278.16 23.9198 278.42 23.3198H274.72L274.54 23.6398C274.22 24.1198 274.12 24.5198 274.2 24.8398C274.28 25.1598 274.62 25.4598 275.2 25.7198C275.42 25.8198 275.64 25.9198 275.88 26.0398C276.12 26.1598 276.36 26.2798 276.6 26.3998L276.58 26.4198ZM291.92 21.1998C292.56 19.7798 293.08 18.2998 293.44 16.7598C293.8 15.2198 294.04 13.6198 294.16 11.9598H289.76C289.86 13.6798 290.08 15.3198 290.42 16.8598C290.76 18.3998 291.26 19.8398 291.92 21.2198V21.1998Z" fill="#010F32"/>
<path d="M309.46 31.8007C308.86 31.9007 308.32 31.7807 307.84 31.4407C307.36 31.1007 307.06 30.6407 306.94 30.0807C306.72 28.8607 306.56 27.4407 306.44 25.8207C306.32 24.2007 306.26 22.4807 306.26 20.7007C306.26 18.9207 306.3 17.0807 306.4 15.2607C306.5 13.4407 306.64 11.7007 306.84 10.0207C307.04 8.34065 307.3 6.86065 307.58 5.54065C307.7 4.96065 308.02 4.52065 308.52 4.20065C309.02 3.88065 309.56 3.78065 310.14 3.90065C310.72 4.04065 311.16 4.36065 311.48 4.86065C311.8 5.36065 311.9 5.90065 311.78 6.50065C311.4 8.20065 311.1 10.0607 310.88 12.0407C310.66 14.0407 310.52 16.0607 310.46 18.1007C310.4 20.1607 310.42 22.1407 310.54 24.0807C310.66 26.0207 310.86 27.7607 311.16 29.3607C311.28 29.9407 311.16 30.4607 310.82 30.9407C310.48 31.4207 310 31.7207 309.44 31.8407L309.46 31.8007ZM324.22 29.8607C321.1 29.8607 318.78 29.3007 317.26 28.1607C315.74 27.0207 314.82 25.3807 314.5 23.2007C314.4 22.6207 314.52 22.1007 314.88 21.6207C315.22 21.1407 315.7 20.8607 316.3 20.7607C316.88 20.6807 317.4 20.8207 317.88 21.1807C318.36 21.5207 318.64 22.0007 318.74 22.6007C318.88 23.6407 319.38 24.4007 320.22 24.9007C321.06 25.4007 322.42 25.6607 324.32 25.6607C326.12 25.6607 328.3 25.3807 330.84 24.8407C331.42 24.7007 331.96 24.8007 332.46 25.1207C332.96 25.4607 333.28 25.9207 333.4 26.4807C333.52 27.0607 333.4 27.6007 333.08 28.0807C332.74 28.5807 332.28 28.9007 331.72 29.0407C330.42 29.3607 329.14 29.5607 327.86 29.6807C326.58 29.8007 325.36 29.8607 324.24 29.8607H324.22ZM317.64 12.0407C317.06 12.1607 316.52 12.0407 316.04 11.7407C315.56 11.4407 315.24 10.9607 315.12 10.3607C315 9.78065 315.12 9.24065 315.42 8.74065C315.72 8.24065 316.2 7.94065 316.8 7.84065C318.14 7.58065 319.64 7.40065 321.3 7.32065C322.96 7.24065 324.6 7.22065 326.24 7.28065C327.88 7.34065 329.32 7.48065 330.56 7.70065C331.16 7.80065 331.62 8.10065 331.96 8.58065C332.3 9.08065 332.4 9.62065 332.28 10.2207C332.18 10.8207 331.88 11.2807 331.4 11.6007C330.9 11.9207 330.38 12.0407 329.8 11.9407C327.86 11.6007 325.84 11.4407 323.76 11.4607C321.68 11.4607 319.64 11.6807 317.64 12.0607V12.0407Z" fill="#010F32"/>
<path d="M339.7 34.1211C339.08 33.9211 338.64 33.5611 338.4 33.0011C338.16 32.4411 338.16 31.9011 338.4 31.3811C339.02 29.9411 339.54 28.4411 339.94 26.8611C340.34 25.2811 340.64 23.5211 340.84 21.5611C341.04 19.6011 341.12 17.3411 341.12 14.8011V13.2811C341.12 11.3411 341.38 9.80109 341.92 8.70109C342.44 7.58109 343.34 6.80109 344.6 6.34109C345.86 5.88109 347.6 5.66109 349.8 5.66109H353.86V2.82109C353.86 2.14109 354.08 1.62109 354.54 1.22109C355 0.821094 355.52 0.621094 356.12 0.621094C356.72 0.621094 357.28 0.821094 357.72 1.22109C358.16 1.62109 358.38 2.16109 358.38 2.82109V5.66109H369.44C370.02 5.66109 370.48 5.84109 370.82 6.20109C371.16 6.56109 371.34 7.00109 371.34 7.54109C371.34 8.08109 371.16 8.52109 370.82 8.88109C370.48 9.24109 370.02 9.44109 369.44 9.44109H349.78C348.58 9.44109 347.64 9.54109 346.98 9.74109C346.32 9.94109 345.86 10.3211 345.6 10.8811C345.34 11.4411 345.2 12.2411 345.2 13.3011V14.8811C345.2 18.6811 344.98 22.0011 344.56 24.8811C344.14 27.7611 343.44 30.3611 342.46 32.7211C342.22 33.3011 341.84 33.7211 341.32 34.0011C340.8 34.2811 340.24 34.3411 339.64 34.1611L339.7 34.1211ZM345.78 30.7811C345.3 30.5611 344.98 30.2011 344.78 29.6611C344.6 29.1411 344.64 28.6211 344.88 28.1411C345.24 27.4211 345.6 26.5611 345.96 25.5811C346.32 24.6011 346.66 23.5811 346.98 22.5211C347.3 21.4611 347.56 20.4811 347.76 19.5611C347.9 18.9211 348.24 18.4611 348.76 18.2211C349.28 17.9811 349.82 17.9211 350.34 18.1011C350.9 18.2611 351.3 18.5811 351.54 19.0411C351.8 19.5011 351.84 20.0411 351.7 20.6611C351.48 21.6211 351.2 22.6611 350.88 23.7611C350.54 24.8611 350.18 25.9411 349.8 27.0011C349.42 28.0611 349.02 29.0011 348.62 29.8411C348.38 30.3411 347.98 30.6811 347.42 30.8611C346.86 31.0411 346.32 31.0211 345.78 30.7811ZM359.38 34.1211C357.74 34.1211 356.46 33.9611 355.5 33.6611C354.54 33.3611 353.86 32.8011 353.44 31.9611C353.02 31.1211 352.82 29.9611 352.82 28.4211V17.7211C352.82 17.0811 353.02 16.5611 353.44 16.1811C353.86 15.8011 354.36 15.6011 354.96 15.6011C355.56 15.6011 356.06 15.8011 356.48 16.1811C356.88 16.5611 357.1 17.0811 357.1 17.7211V28.0211C357.1 28.8611 357.26 29.4011 357.58 29.6611C357.9 29.9211 358.56 30.0411 359.54 30.0411C360.46 30.0411 361.1 29.9011 361.46 29.6011C361.84 29.3211 362.12 28.6811 362.34 27.7211C362.46 27.1411 362.76 26.7211 363.24 26.4411C363.72 26.1611 364.26 26.1011 364.86 26.2411C365.46 26.3611 365.9 26.6411 366.2 27.1011C366.48 27.5611 366.58 28.1011 366.46 28.7211C366.2 30.0811 365.78 31.1611 365.24 31.9411C364.68 32.7211 363.94 33.2811 363 33.6011C362.06 33.9211 360.86 34.0811 359.4 34.0811L359.38 34.1211ZM363.2 18.1811C362.8 18.5811 362.3 18.7811 361.7 18.7811C361.12 18.7811 360.62 18.5411 360.2 18.1211C359.88 17.7411 359.46 17.2811 358.94 16.7611C358.42 16.2411 357.88 15.7411 357.36 15.2411C356.84 14.7411 356.38 14.3411 356.02 14.0611C355.62 13.7211 355.4 13.2811 355.36 12.7211C355.32 12.1611 355.48 11.6811 355.84 11.2811C356.24 10.8211 356.72 10.5811 357.28 10.5211C357.84 10.4811 358.34 10.6411 358.8 11.0211C359.52 11.6011 360.3 12.2611 361.14 13.0211C361.98 13.7811 362.7 14.4611 363.3 15.0611C363.74 15.5211 363.94 16.0411 363.92 16.6211C363.9 17.2011 363.66 17.7411 363.2 18.1811ZM370.9 30.1411C370.34 30.4011 369.78 30.4211 369.2 30.2211C368.62 30.0211 368.24 29.6411 368.04 29.1011C367.76 28.3011 367.38 27.4211 366.9 26.4411C366.44 25.4611 365.96 24.4811 365.48 23.5011C365 22.5211 364.56 21.7011 364.18 21.0011C363.9 20.5211 363.84 20.0211 364.02 19.4811C364.2 18.9611 364.54 18.5611 365.04 18.3211C365.6 18.0411 366.14 17.9611 366.68 18.1211C367.22 18.2811 367.64 18.6011 367.96 19.1211C368.36 19.8011 368.82 20.6411 369.34 21.6611C369.86 22.6811 370.36 23.7011 370.84 24.7011C371.32 25.7011 371.7 26.5811 372 27.3011C372.24 27.9011 372.26 28.4611 372.06 28.9611C371.86 29.4611 371.46 29.8611 370.9 30.1411Z" fill="#010F32"/>
<path d="M392.66 32.7804C389.78 32.7804 387.52 32.0604 385.88 30.6404C384.24 29.2204 383.42 26.9204 383.42 23.7404V4.56039C383.42 3.96039 383.62 3.44039 384.04 3.02039C384.46 2.60039 384.96 2.40039 385.58 2.40039C386.2 2.40039 386.68 2.60039 387.1 3.02039C387.52 3.44039 387.74 3.96039 387.74 4.56039V23.7404C387.74 25.5204 388.14 26.7604 388.94 27.4404C389.74 28.1404 390.98 28.4804 392.66 28.4804C394.14 28.4804 395.54 28.0804 396.86 27.3004C398.18 26.5204 399.22 25.2404 400.04 23.4804C400.3 22.9204 400.72 22.5604 401.3 22.3604C401.88 22.1604 402.42 22.2004 402.96 22.4604C403.52 22.7004 403.88 23.1004 404.06 23.6804C404.24 24.2604 404.2 24.8204 403.96 25.3804C402.9 27.7604 401.36 29.5804 399.34 30.8604C397.32 32.1404 395.08 32.7604 392.66 32.7604V32.7804ZM397.92 13.2604C397.64 13.5404 397.26 13.6804 396.82 13.6804C396.38 13.6804 396 13.5004 395.72 13.1604C395.44 12.8204 395.06 12.4204 394.62 11.9404C394.18 11.4604 393.76 11.0404 393.38 10.6804C393.14 10.4404 393.02 10.1204 393 9.74039C393 9.36039 393.12 9.02039 393.42 8.74039C393.68 8.48039 394 8.34039 394.4 8.30039C394.78 8.28039 395.14 8.38039 395.44 8.62039C395.82 8.88039 396.28 9.26039 396.78 9.72039C397.28 10.1804 397.72 10.6204 398.06 11.0404C398.32 11.3604 398.44 11.7204 398.44 12.1604C398.44 12.6004 398.26 12.9604 397.92 13.2804V13.2604ZM398.92 9.94039C398.6 9.60039 398.22 9.22039 397.76 8.78039C397.3 8.34039 396.86 7.94039 396.44 7.62039C396.2 7.40039 396.06 7.10039 396.02 6.72039C395.98 6.34039 396.08 5.98039 396.32 5.68039C396.58 5.40039 396.9 5.22039 397.28 5.20039C397.66 5.16039 398 5.24039 398.34 5.44039C398.72 5.68039 399.18 6.02039 399.72 6.44039C400.26 6.88039 400.72 7.28039 401.1 7.66039C401.42 7.98039 401.56 8.34039 401.56 8.76039C401.56 9.18039 401.42 9.56039 401.12 9.90039C400.84 10.2204 400.48 10.3804 400.04 10.4004C399.6 10.4204 399.22 10.2804 398.88 9.96039L398.92 9.94039Z" fill="#010F32"/>
<path d="M436.86 32.3798C434.02 31.9798 431.68 31.1598 429.84 29.9198C428 28.6798 426.62 27.1998 425.72 25.4398C424.82 23.6798 424.36 21.8598 424.36 19.9598C424.36 18.0598 424.74 16.2398 425.5 14.5798C426.26 12.9198 427.34 11.4598 428.76 10.2398C427.32 10.4598 425.78 10.6998 424.16 10.9798C422.52 11.2598 420.94 11.5398 419.4 11.7998C417.86 12.0798 416.52 12.3198 415.36 12.5398C414.78 12.6398 414.26 12.4998 413.78 12.1398C413.3 11.7798 413.02 11.3198 412.92 10.7398C412.82 10.1398 412.96 9.59979 413.32 9.13979C413.68 8.67979 414.16 8.37979 414.76 8.29979C415.52 8.17979 416.52 8.01979 417.72 7.81979C418.92 7.61979 420.26 7.39979 421.76 7.15979C423.24 6.91979 424.78 6.65979 426.34 6.39979C427.9 6.13979 429.42 5.87979 430.92 5.61979C432.42 5.35979 433.8 5.13979 435.04 4.91979C436.28 4.69979 437.3 4.51979 438.1 4.37979C438.66 4.27979 439.16 4.39979 439.64 4.73979C440.12 5.07979 440.42 5.51979 440.54 6.07979C440.66 6.65979 440.54 7.19979 440.24 7.69979C439.94 8.19979 439.46 8.49979 438.9 8.59979C437.14 8.83979 435.62 9.33979 434.34 10.0998C433.06 10.8598 432 11.7598 431.16 12.8398C430.32 13.8998 429.7 15.0398 429.28 16.2398C428.86 17.4398 428.66 18.5998 428.66 19.7398C428.66 22.0598 429.46 23.9398 431.04 25.3798C432.62 26.8198 434.78 27.7198 437.48 28.1398C438.08 28.2398 438.56 28.5198 438.92 28.9998C439.28 29.4798 439.42 29.9998 439.32 30.5798C439.22 31.1798 438.94 31.6598 438.48 32.0198C438.02 32.3798 437.48 32.5198 436.88 32.4198L436.86 32.3798Z" fill="#010F32"/>
<path d="M456.62 32.6816C456.16 33.0616 455.64 33.2216 455.04 33.1616C454.44 33.1016 453.94 32.8416 453.52 32.3816C453.16 31.9416 452.68 31.4216 452.08 30.7816C451.48 30.1416 450.86 29.5016 450.22 28.8816C449.58 28.2416 449.02 27.7216 448.54 27.3216C448.16 26.9616 447.94 26.5016 447.88 25.9416C447.82 25.3816 447.98 24.9016 448.36 24.4816C448.76 24.0816 449.24 23.8416 449.78 23.8016C450.32 23.7616 450.82 23.9016 451.28 24.2416C451.8 24.6416 452.42 25.1816 453.14 25.8216C453.84 26.4616 454.54 27.1416 455.22 27.8216C455.9 28.5016 456.44 29.1016 456.86 29.6016C457.26 30.0616 457.44 30.5816 457.4 31.1816C457.36 31.7816 457.08 32.2816 456.6 32.7016L456.62 32.6816Z" fill="#010F32"/>
<path d="M30.5999 93.9808C29.9999 93.9808 29.4799 93.8208 29.0599 93.4808C28.6199 93.1408 28.3799 92.6608 28.3399 92.0408C28.3199 91.4208 28.4799 90.8808 28.8199 90.4608C29.1599 90.0408 29.6599 89.8008 30.3199 89.7808C31.1199 89.7408 31.7199 89.6208 32.1599 89.4808C32.5999 89.3208 32.9199 89.0208 33.1399 88.6008C33.3599 88.1608 33.5199 87.5208 33.6399 86.6608C33.8399 85.3808 33.9799 83.8408 34.0599 82.0008C34.1399 80.1608 34.1999 78.0808 34.2199 75.7208C34.2399 74.6608 34.1199 73.9808 33.8199 73.6408C33.5399 73.3208 32.9199 73.1408 31.9799 73.1208C31.8599 77.9208 31.1999 81.9808 30.0199 85.3208C28.8399 88.6608 27.1399 91.4008 24.9199 93.5208C24.4799 93.9208 23.9799 94.1608 23.3799 94.2008C22.7799 94.2408 22.2599 94.0408 21.7999 93.5808C21.4599 93.2208 21.2999 92.7808 21.3199 92.2408C21.3199 91.7208 21.5199 91.3008 21.9199 90.9808C21.9999 90.9008 22.0599 90.8408 22.1399 90.7608C22.2199 90.6808 22.2799 90.6208 22.3199 90.5408C21.0799 90.7408 19.5999 90.9408 17.8999 91.1608C16.1999 91.3808 14.4599 91.6008 12.6799 91.7808C10.8999 91.9608 9.25994 92.1208 7.73994 92.2408C7.15994 92.2608 6.67994 92.1408 6.29994 91.8408C5.91994 91.5608 5.69994 91.1208 5.65994 90.5408C5.63994 90.0608 5.77994 89.6408 6.07994 89.2608C6.37994 88.8808 6.79994 88.6808 7.31994 88.6608C8.17994 88.6208 9.15994 88.5608 10.2599 88.4808C11.3599 88.4008 12.4799 88.3208 13.6199 88.2208V86.2808H7.57994C7.11994 86.2808 6.77994 86.1208 6.53994 85.8208C6.29994 85.5008 6.17994 85.1608 6.17994 84.7808C6.17994 84.4008 6.29994 84.0608 6.53994 83.7608C6.77994 83.4608 7.11994 83.3008 7.57994 83.3008H13.6199V81.9608H13.3599C11.7199 81.9608 10.4599 81.8208 9.55994 81.5208C8.65994 81.2408 8.03994 80.7008 7.69994 79.9208C7.35994 79.1408 7.19994 78.0408 7.19994 76.5808C7.19994 75.1208 7.35994 74.0008 7.69994 73.2208C8.03994 72.4408 8.65994 71.9008 9.55994 71.6208C10.4599 71.3408 11.7199 71.1808 13.3599 71.1808H13.6199V70.0208H6.91994C6.45994 70.0208 6.09994 69.8608 5.83994 69.5608C5.57994 69.2408 5.43994 68.8808 5.43994 68.4808C5.43994 68.0808 5.57994 67.7208 5.83994 67.4208C6.09994 67.1208 6.45994 66.9808 6.91994 66.9808H13.6199V65.6808C12.7599 65.7608 11.9199 65.8008 11.0799 65.8408C10.2399 65.8808 9.45994 65.9008 8.71994 65.9208C7.53994 65.9408 6.89994 65.4208 6.77994 64.3808C6.75994 63.9408 6.89994 63.5808 7.19994 63.2408C7.49994 62.9008 7.91994 62.7408 8.47994 62.7208C9.83994 62.6808 11.2999 62.6008 12.8199 62.4808C14.3399 62.3808 15.8399 62.2208 17.2799 62.0408C18.7399 61.8608 20.0199 61.6408 21.1399 61.4008C21.7199 61.2808 22.2199 61.3208 22.6399 61.5008C23.0599 61.7008 23.3199 62.0208 23.4199 62.5008C23.6599 63.6608 23.2399 64.3408 22.1599 64.5608C21.4799 64.6808 20.7399 64.8008 19.9199 64.9208C19.0999 65.0408 18.2599 65.1608 17.3599 65.2808V66.9408H24.0199C24.4999 66.9408 24.8599 67.0808 25.1199 67.3808C25.3799 67.6808 25.4999 68.0408 25.4999 68.4408C25.4999 68.5408 25.4999 68.6408 25.4999 68.7208C25.4999 68.8208 25.4799 68.9008 25.4399 68.9808H28.0999V62.7808C28.0999 62.1608 28.2999 61.6808 28.6799 61.3208C29.0599 60.9808 29.5399 60.8008 30.0799 60.8008C30.6199 60.8008 31.0999 60.9808 31.4599 61.3208C31.8399 61.6608 32.0199 62.1608 32.0199 62.7808V68.9808C33.4799 68.9808 34.6799 69.1408 35.5799 69.4808C36.4999 69.8208 37.1599 70.4208 37.5999 71.3208C38.0399 72.2208 38.2399 73.5008 38.2199 75.2008C38.1999 77.6008 38.1399 79.8208 38.0399 81.8808C37.9399 83.9408 37.8199 85.7408 37.6399 87.3008C37.4799 89.0808 37.1199 90.4408 36.5599 91.3808C35.9999 92.3208 35.2399 92.9808 34.2799 93.3408C33.2999 93.7008 32.0999 93.8808 30.6599 93.8808L30.5999 93.9808ZM10.7999 75.3608H13.5799V73.8808H13.5399C12.4999 73.8808 11.8199 73.9608 11.4599 74.1008C11.0999 74.2408 10.8799 74.6608 10.8199 75.3608H10.7999ZM13.5399 79.3208H13.5799V77.8008H10.7999C10.8799 78.5008 11.0799 78.9208 11.4399 79.0808C11.7999 79.2408 12.4999 79.3208 13.5199 79.3208H13.5399ZM23.9799 88.6408C25.2599 86.9208 26.2199 84.7808 26.8999 82.2408C27.5799 79.7008 27.9599 76.6608 28.0599 73.0808H25.6799C25.0799 73.0808 24.5999 72.8808 24.2399 72.4808C23.8799 72.0808 23.6999 71.6208 23.6999 71.0608C23.6999 70.6608 23.7799 70.3208 23.9599 70.0608H17.3399V71.2208H17.5599C19.2199 71.2208 20.4799 71.3608 21.3599 71.6608C22.2399 71.9408 22.8399 72.4808 23.1799 73.2608C23.5199 74.0408 23.6799 75.1608 23.6799 76.6208C23.6799 78.0808 23.5199 79.1808 23.1799 79.9608C22.8399 80.7408 22.2399 81.2808 21.3599 81.5608C20.4799 81.8408 19.2199 82.0008 17.5599 82.0008H17.3399V83.3408H22.7799C23.2399 83.3408 23.5799 83.5008 23.8199 83.8008C24.0599 84.1008 24.1799 84.4408 24.1799 84.8208C24.1799 85.2008 24.0599 85.5608 23.8199 85.8608C23.5799 86.1808 23.2399 86.3208 22.7799 86.3208H17.3399V87.9408C18.2999 87.8408 19.2199 87.7608 20.0799 87.6608C20.9399 87.5608 21.6999 87.5008 22.3399 87.4208C22.7999 87.3808 23.1599 87.4608 23.4599 87.7008C23.7399 87.9208 23.9199 88.2408 23.9999 88.6608L23.9799 88.6408ZM17.3199 75.3608H20.0599C19.9799 74.6608 19.7799 74.2408 19.4199 74.1008C19.0599 73.9608 18.3599 73.8808 17.3399 73.8808V75.3608H17.3199ZM17.3199 79.3208C18.3599 79.3208 19.0399 79.2408 19.3999 79.0808C19.7599 78.9208 19.9799 78.5008 20.0399 77.8008H17.2999V79.3208H17.3199Z" fill="#010F32"/>
<path d="M50.1199 94.3007C49.5399 94.3007 49.0599 94.1207 48.6599 93.7607C48.2599 93.4007 48.0599 92.9007 48.0599 92.2807V82.7007C47.3399 82.9607 46.6599 83.2207 46.0399 83.4607C45.4199 83.7007 44.8799 83.9007 44.4199 84.0407C43.8199 84.2607 43.2599 84.2207 42.7199 83.9607C42.1799 83.6807 41.8199 83.2407 41.6199 82.6407C41.4599 82.0207 41.4799 81.4607 41.7199 80.9407C41.9599 80.4207 42.3999 80.1007 43.0599 79.9407C43.6999 79.7407 44.4799 79.5007 45.3599 79.2207C46.2399 78.9407 47.1399 78.6407 48.0599 78.3207V71.8007H45.8599C45.7599 72.3607 45.6599 72.8807 45.5399 73.4007C45.4199 73.9207 45.2999 74.4007 45.1799 74.8607C45.0399 75.4607 44.7599 75.9007 44.3399 76.1607C43.9199 76.4207 43.4399 76.5007 42.8799 76.4207C42.3799 76.3207 41.9799 76.0807 41.6799 75.6607C41.3799 75.2407 41.3199 74.7807 41.4799 74.2607C41.8199 73.1007 42.1399 71.7807 42.4399 70.3007C42.7399 68.8207 42.9399 67.4007 43.0399 66.0807C43.0799 65.5207 43.2999 65.1007 43.6799 64.8207C44.0599 64.5407 44.5199 64.4207 45.0399 64.4607C45.5599 64.4807 45.9799 64.6807 46.2999 65.0407C46.6199 65.4007 46.7399 65.8607 46.6999 66.4407C46.6799 66.6807 46.6599 66.9407 46.6199 67.2007C46.5999 67.4607 46.5599 67.7207 46.5199 68.0007H48.0599V62.7807C48.0599 62.1607 48.2599 61.6607 48.6599 61.2807C49.0599 60.9007 49.5399 60.7207 50.1199 60.7207C50.6999 60.7207 51.1799 60.9007 51.5599 61.2807C51.9399 61.6607 52.1399 62.1607 52.1399 62.7807V68.0007H53.4999C54.0799 68.0007 54.5399 68.1807 54.8599 68.5607C55.1999 68.9407 55.3599 69.3807 55.3599 69.9207V70.1007C55.9199 68.8807 56.4199 67.6007 56.8799 66.2607C57.3399 64.9207 57.6999 63.6807 57.9999 62.5007C58.1399 61.9207 58.4599 61.5207 58.9399 61.2807C59.4199 61.0407 59.9399 60.9807 60.4799 61.1007C60.9999 61.2207 61.3999 61.5007 61.6399 61.9007C61.8999 62.3207 61.9599 62.8007 61.8399 63.3607C61.6799 64.0607 61.4799 64.7807 61.2399 65.5007C60.9999 66.2207 60.7599 66.9807 60.4999 67.7407H67.2599C68.9799 67.7407 70.3599 67.9407 71.3999 68.3607C72.4399 68.7607 73.1799 69.4607 73.6399 70.4407C74.0999 71.4207 74.2999 72.8007 74.2599 74.5407C74.2199 76.8007 74.0799 79.0607 73.8799 81.3207C73.6799 83.5807 73.4399 85.5407 73.1799 87.2007C72.9199 88.8807 72.4999 90.2207 71.9199 91.2007C71.3399 92.1807 70.5399 92.8807 69.5199 93.3007C68.4999 93.7207 67.1799 93.9607 65.5399 94.0007C64.8599 94.0207 64.2999 93.8807 63.8399 93.5607C63.3799 93.2407 63.1199 92.7607 63.0399 92.0807C62.9599 91.4407 63.1199 90.9007 63.4799 90.4607C63.8399 90.0207 64.3599 89.7807 65.0199 89.7407C66.0599 89.6607 66.8199 89.5407 67.3399 89.3607C67.8599 89.1807 68.2399 88.8807 68.4799 88.4407C68.7199 88.0007 68.9199 87.3607 69.0999 86.5007C69.2199 85.8807 69.3399 85.1007 69.4599 84.1607C69.5799 83.2207 69.6999 82.2007 69.8199 81.1207C69.9399 80.0207 70.0399 78.9207 70.1199 77.8207C70.1999 76.7207 70.2599 75.6807 70.2799 74.7207C70.2999 73.3007 69.9399 72.3607 69.1999 71.8807C68.5999 76.7007 67.2999 80.7407 65.3199 84.0207C63.3199 87.2807 60.6799 89.9407 57.3999 92.0207C56.8799 92.3607 56.2999 92.4807 55.6999 92.4007C55.0799 92.3207 54.6199 92.0007 54.3199 91.4807C54.0399 91.0007 53.9599 90.5007 54.0799 89.9807C54.2199 89.4607 54.5399 89.0607 55.0399 88.7807C60.8999 85.3207 64.4399 79.5207 65.6599 71.4007H63.9999C63.5399 74.2007 62.6599 76.8407 61.3199 79.2807C59.9799 81.7207 58.3199 83.8007 56.2999 85.4807C55.8399 85.8407 55.3399 85.9807 54.7799 85.9407C54.2199 85.8807 53.7599 85.6407 53.3999 85.2007C53.0599 84.8007 52.9399 84.3207 52.9999 83.8007C53.0799 83.2807 53.3199 82.8607 53.7199 82.5407C55.4999 81.2407 56.9399 79.6007 58.0799 77.6007C59.2199 75.6007 59.9999 73.5407 60.4599 71.4007H59.0199C58.7399 72.0807 58.4399 72.7007 58.1199 73.3007C57.7999 73.9007 57.4799 74.4807 57.1399 75.0207C56.8799 75.4807 56.4799 75.8007 55.9599 75.9807C55.4399 76.1607 54.9199 76.1407 54.4399 75.9007C53.9799 75.6607 53.6799 75.3007 53.5199 74.8007C53.3599 74.3007 53.4199 73.8407 53.6799 73.4207C53.8799 73.0807 54.0599 72.7407 54.2599 72.4007C54.4599 72.0607 54.6399 71.6807 54.7999 71.3007C54.6399 71.4407 54.4399 71.5607 54.2199 71.6607C53.9999 71.7607 53.7599 71.8007 53.4999 71.8007H52.1399V76.9207L53.4399 76.4607C53.9399 76.2607 54.4199 76.2807 54.8599 76.4607C55.2999 76.6607 55.6199 77.0007 55.8199 77.4807C56.0199 77.9607 56.0199 78.4407 55.8599 78.9407C55.6999 79.4407 55.3399 79.8007 54.7799 80.0407C54.4599 80.1807 54.0799 80.3407 53.6199 80.5207C53.1599 80.7007 52.6799 80.9007 52.1399 81.1207V92.2807C52.1399 92.9007 51.9399 93.4007 51.5599 93.7607C51.1799 94.1207 50.6999 94.3007 50.1199 94.3007Z" fill="#010F32"/>
<path d="M84.4599 94.4805C83.8999 94.4805 83.4199 94.2805 83.0199 93.9005C82.6199 93.5205 82.3999 93.0405 82.3999 92.4605V75.5805C81.8399 76.4605 81.2999 77.2805 80.7399 78.0005C80.3999 78.4605 79.9599 78.7205 79.3999 78.8005C78.8399 78.8805 78.3399 78.7805 77.8599 78.4605C77.3999 78.1205 77.1199 77.7005 77.0199 77.1805C76.9199 76.6605 77.0199 76.1805 77.3199 75.7605C77.9999 74.8205 78.6599 73.7605 79.3599 72.6005C80.0399 71.4205 80.6999 70.2205 81.3199 68.9805C81.9399 67.7405 82.4999 66.5405 82.9999 65.3805C83.4999 64.2205 83.8799 63.1805 84.1599 62.2605C84.3599 61.6605 84.6999 61.2405 85.1999 61.0005C85.6999 60.7605 86.2399 60.7405 86.8199 60.9205C87.3399 61.0805 87.7399 61.4005 88.0199 61.8405C88.2999 62.2805 88.3399 62.8005 88.1399 63.4005C87.9199 64.1205 87.6799 64.8605 87.3999 65.6005C87.1199 66.3405 86.8199 67.1005 86.4799 67.8605V92.4205C86.4799 93.0405 86.2799 93.5405 85.8599 93.9205C85.4399 94.3005 84.9799 94.4805 84.4199 94.4805H84.4599ZM99.0799 94.2605C98.4999 94.2605 98.0199 94.0605 97.5999 93.6805C97.1999 93.3005 96.9799 92.8005 96.9799 92.1605V84.7005C95.9399 85.8205 94.7999 86.9605 93.5399 88.1005C92.2799 89.2405 91.0799 90.2005 89.9599 91.0005C89.4799 91.3405 88.9399 91.4805 88.3399 91.4205C87.7399 91.3605 87.2599 91.0805 86.8999 90.5805C86.5799 90.1205 86.4799 89.6205 86.5999 89.0805C86.6999 88.5405 86.9999 88.1205 87.4399 87.8405C88.2399 87.3405 89.1199 86.6805 90.0999 85.9005C91.0799 85.1005 92.0599 84.2805 93.0399 83.4205C94.0199 82.5605 94.8399 81.7605 95.4999 81.0405H89.1999C88.6799 81.0405 88.2199 80.8605 87.8399 80.4805C87.4599 80.1005 87.2599 79.6605 87.2599 79.1405C87.2599 78.6205 87.4599 78.1605 87.8399 77.7805C88.2199 77.4005 88.6799 77.2205 89.1999 77.2205H96.9799V74.3405H96.7999C95.0999 74.3405 93.7399 74.1605 92.7399 73.7805C91.7399 73.4005 91.0399 72.7805 90.6199 71.9005C90.1999 71.0205 89.9799 69.8005 89.9799 68.2605C89.9799 66.7205 90.1999 65.4805 90.6199 64.6005C91.0399 63.7205 91.7399 63.1005 92.7199 62.7205C93.6999 62.3405 95.0599 62.1605 96.7799 62.1605H101.24C102.96 62.1605 104.32 62.3405 105.32 62.7205C106.32 63.1005 107.02 63.7205 107.42 64.6005C107.82 65.4805 108.04 66.7005 108.04 68.2605C108.04 69.8205 107.84 71.0005 107.42 71.9005C107.02 72.7805 106.3 73.4205 105.32 73.7805C104.32 74.1605 102.96 74.3405 101.24 74.3405H101.14V77.2205H108.92C109.48 77.2205 109.94 77.4005 110.3 77.7805C110.68 78.1605 110.86 78.6005 110.86 79.1405C110.86 79.6805 110.68 80.1205 110.3 80.4805C109.92 80.8605 109.46 81.0405 108.92 81.0405H102.62C103.3 81.7205 104.12 82.4605 105.08 83.3005C106.06 84.1405 107.04 84.9405 108.04 85.7205C109.04 86.4805 109.92 87.1205 110.68 87.6005C111.16 87.9205 111.44 88.3405 111.52 88.8805C111.6 89.4205 111.48 89.9205 111.18 90.3805C110.84 90.8805 110.38 91.1805 109.78 91.2605C109.18 91.3405 108.62 91.2205 108.12 90.8805C107.42 90.4005 106.66 89.8205 105.86 89.1605C105.04 88.4805 104.22 87.7605 103.42 87.0005C102.6 86.2405 101.84 85.4805 101.16 84.7605V92.1805C101.16 92.8005 100.96 93.3005 100.54 93.7005C100.14 94.0805 99.6399 94.2805 99.0599 94.2805L99.0799 94.2605ZM96.9199 70.5005H101.16C102.14 70.5005 102.8 70.3605 103.14 70.0605C103.48 69.7605 103.64 69.1805 103.64 68.2605C103.64 67.3405 103.48 66.7205 103.14 66.4205C102.8 66.1205 102.14 65.9805 101.16 65.9805H96.9199C95.9599 65.9805 95.3199 66.1205 94.9799 66.4205C94.6399 66.7205 94.4799 67.3205 94.4799 68.2605C94.4799 69.2005 94.6399 69.7805 94.9799 70.0605C95.3199 70.3405 95.9599 70.5005 96.9199 70.5005Z" fill="#010F32"/>
<path d="M114.98 71.0015C114.52 71.0015 114.14 70.8415 113.82 70.5215C113.5 70.2015 113.36 69.8015 113.36 69.3615C113.36 68.9215 113.52 68.5415 113.82 68.2215C114.14 67.9015 114.52 67.7415 114.98 67.7415H125.14C125.58 67.7415 125.94 67.9015 126.26 68.2215C126.58 68.5415 126.72 68.9215 126.72 69.3615C126.72 69.8215 126.56 70.2015 126.26 70.5215C125.96 70.8415 125.58 71.0015 125.14 71.0015H114.98ZM133.98 81.4015C132.42 81.4015 131.24 81.2615 130.42 81.0015C129.6 80.7415 129.06 80.3015 128.76 79.7015C128.48 79.1015 128.32 78.3015 128.32 77.3215V75.2415C128.22 75.3615 128.14 75.4615 128.06 75.5615C127.98 75.6615 127.88 75.7615 127.8 75.8815C127.46 76.2615 127.04 76.4815 126.54 76.5015C126.04 76.5215 125.58 76.4015 125.18 76.0815C125.02 75.9415 124.9 75.8015 124.82 75.6415C124.5 75.8415 124.18 75.9215 123.84 75.9215H116.46C116 75.9215 115.62 75.7615 115.3 75.4415C114.98 75.1215 114.84 74.7415 114.84 74.3015C114.84 73.8415 115 73.4615 115.3 73.1415C115.62 72.8215 116 72.6615 116.46 72.6615H123.84C124.44 72.6615 124.9 72.9215 125.24 73.4615C125.76 72.8615 126.32 72.1815 126.88 71.4015C127.44 70.6415 127.98 69.8615 128.46 69.0615C128.94 68.2615 129.36 67.5415 129.66 66.9015C129.94 66.3015 130.42 65.9815 131.1 65.9215V65.8215H127.54C127.16 65.8215 126.82 65.6815 126.54 65.3815C126.26 65.1015 126.1 64.7615 126.1 64.3815C126.1 63.9815 126.24 63.6415 126.54 63.3615C126.82 63.0815 127.16 62.9415 127.54 62.9415H131.1V62.3615C131.1 61.8015 131.28 61.3615 131.64 61.0215C132 60.6815 132.44 60.5215 132.94 60.5215C133.44 60.5215 133.88 60.6815 134.24 61.0215C134.6 61.3615 134.78 61.8015 134.78 62.3615V62.9415H138.46V62.3615C138.46 61.8015 138.64 61.3615 139 61.0215C139.36 60.6815 139.8 60.5215 140.3 60.5215C140.8 60.5215 141.22 60.6815 141.58 61.0215C141.94 61.3615 142.1 61.8015 142.1 62.3615V62.9415H145.7C146.1 62.9415 146.44 63.0815 146.72 63.3615C147 63.6415 147.14 63.9815 147.14 64.3815C147.14 64.7615 147 65.1015 146.72 65.3815C146.44 65.6615 146.1 65.8215 145.7 65.8215H142.1V66.2815C142.1 66.8415 141.92 67.2815 141.58 67.6215C141.24 67.9615 140.8 68.1215 140.3 68.1215H140.2C140.2 68.1215 140.18 68.2015 140.12 68.3015C140.1 68.4015 140.04 68.5015 139.98 68.6215C139.9 68.7415 139.84 68.8815 139.76 69.0215H145.44C145.78 69.0215 146.06 69.1215 146.26 69.3415C146.48 69.5615 146.58 69.8415 146.58 70.1615C146.58 70.4815 146.48 70.7815 146.26 71.0015C146.04 71.2215 145.76 71.3415 145.44 71.3415H139.78V72.4615H144.54C144.82 72.4615 145.08 72.5615 145.28 72.7615C145.48 72.9615 145.58 73.2215 145.58 73.5415C145.58 73.8215 145.48 74.0815 145.28 74.2815C145.08 74.4815 144.82 74.5815 144.54 74.5815H139.78V75.6615H144.54C144.82 75.6615 145.08 75.7615 145.28 75.9615C145.48 76.1615 145.58 76.4215 145.58 76.7015C145.58 77.0215 145.48 77.2815 145.28 77.4815C145.08 77.6815 144.82 77.7815 144.54 77.7815H139.78V79.0015H145.76C146.1 79.0015 146.38 79.1015 146.6 79.3215C146.82 79.5415 146.94 79.8215 146.94 80.1415C146.94 80.4615 146.82 80.7215 146.6 80.9615C146.38 81.2015 146.08 81.3215 145.76 81.3215H133.98V81.4015ZM116.52 66.0215C116.06 66.0215 115.66 65.8615 115.34 65.5215C115 65.1815 114.84 64.7815 114.84 64.3415C114.84 63.9015 115 63.4815 115.34 63.1615C115.68 62.8215 116.08 62.6615 116.52 62.6615H123.8C124.28 62.6615 124.68 62.8215 124.98 63.1615C125.3 63.5015 125.44 63.9015 125.44 64.3415C125.44 64.7815 125.28 65.2015 124.98 65.5215C124.66 65.8615 124.28 66.0215 123.8 66.0215H116.52ZM116.44 80.9615C115.98 80.9615 115.6 80.8015 115.28 80.4815C114.96 80.1615 114.82 79.7615 114.82 79.3215C114.82 78.8815 114.98 78.4815 115.28 78.1615C115.6 77.8415 115.98 77.6815 116.44 77.6815H123.82C124.28 77.6815 124.66 77.8415 124.98 78.1615C125.3 78.4815 125.44 78.8815 125.44 79.3215C125.44 79.7615 125.28 80.1615 124.98 80.4815C124.68 80.8015 124.28 80.9615 123.82 80.9615H116.44ZM120.18 93.5215C118.76 93.5215 117.66 93.3415 116.88 93.0015C116.1 92.6615 115.56 92.0815 115.28 91.3015C115 90.5015 114.84 89.4615 114.84 88.1415C114.84 86.8215 114.98 85.7215 115.28 84.9415C115.56 84.1415 116.1 83.5815 116.88 83.2415C117.66 82.9015 118.76 82.7215 120.18 82.7215C121.6 82.7215 122.72 82.9015 123.5 83.2415C124.26 83.5815 124.8 84.1615 125.08 84.9415C125.36 85.7415 125.52 86.8015 125.52 88.1415C125.52 89.4815 125.38 90.5215 125.08 91.3015C124.8 92.1015 124.26 92.6615 123.5 93.0015C122.74 93.3415 121.62 93.5215 120.18 93.5215ZM120.18 90.2415C120.9 90.2415 121.38 90.1015 121.6 89.8015C121.82 89.5215 121.94 88.9415 121.94 88.1015C121.94 87.2615 121.82 86.6815 121.6 86.4015C121.38 86.1015 120.9 85.9415 120.18 85.9415C119.46 85.9415 119.02 86.1015 118.8 86.4015C118.58 86.7015 118.46 87.2815 118.46 88.1015C118.46 88.9215 118.58 89.5015 118.8 89.8015C119.02 90.1015 119.48 90.2415 120.18 90.2415ZM128.68 94.3815C128.08 94.4815 127.56 94.4215 127.14 94.2415C126.72 94.0415 126.42 93.6815 126.26 93.1615C126.12 92.6015 126.2 92.1215 126.5 91.7215C126.8 91.3215 127.24 91.0615 127.82 90.9615C128.94 90.8015 130.04 90.5615 131.1 90.2815C132.16 90.0015 133.16 89.6615 134.08 89.2815C132.8 88.1615 131.7 86.8415 130.74 85.3215H128.3C127.92 85.3215 127.58 85.1815 127.3 84.8815C127.02 84.5815 126.88 84.2615 126.88 83.8815C126.88 83.4815 127.02 83.1215 127.3 82.8615C127.58 82.5815 127.9 82.4415 128.3 82.4415H140.28C141.48 82.4415 142.4 82.7215 143.06 83.2615C143.72 83.8215 144.06 84.5015 144.06 85.3215C144.06 86.1415 143.66 86.9215 142.84 87.7015C142.52 88.0215 142.2 88.3215 141.86 88.6215C141.52 88.9215 141.14 89.2015 140.76 89.4615C141.52 89.7815 142.36 90.0615 143.24 90.3015C144.12 90.5415 145.06 90.7615 146.04 90.9015C146.62 91.0015 147.06 91.2415 147.36 91.6215C147.66 92.0015 147.74 92.4815 147.62 93.0215C147.36 94.1015 146.52 94.5415 145.1 94.3215C142.3 93.8815 139.7 92.9815 137.32 91.5815C136.1 92.2015 134.78 92.7615 133.34 93.2415C131.92 93.7215 130.36 94.1015 128.68 94.4015V94.3815ZM132.02 72.5015H136.02V71.3815H132.02V72.5015ZM132.02 75.7015H136.02V74.6215H132.02V75.7015ZM133.96 79.0415H136.02V77.8215H132.06C132.1 78.2815 132.28 78.6015 132.54 78.7815C132.82 78.9615 133.3 79.0615 133.96 79.0615V79.0415ZM132.56 69.0415H135.88L136.7 67.0615C136.84 66.7015 137.08 66.4415 137.4 66.2615C137.72 66.0815 138.06 65.9815 138.42 65.9815V65.8415H134.74V66.3015C134.74 66.8215 134.56 67.2615 134.22 67.6015C133.88 67.9415 133.46 68.1215 132.98 68.1415C132.94 68.2815 132.88 68.4015 132.84 68.5015C132.82 68.6015 132.78 68.6815 132.72 68.7615C132.66 68.8415 132.6 68.9415 132.56 69.0415ZM137.38 87.6215C137.7 87.4215 138 87.2415 138.28 87.0415C138.56 86.8415 138.84 86.6615 139.08 86.5015C139.48 86.1815 139.66 85.9215 139.58 85.6815C139.5 85.4415 139.2 85.3215 138.64 85.3215H134.72C135.12 85.7215 135.56 86.1415 136 86.5215C136.44 86.9215 136.9 87.2815 137.38 87.6215Z" fill="#010F32"/>
<path d="M162.04 93.2808C160.08 93.2808 158.4 93.1408 157 92.8608C155.6 92.5808 154.48 92.0808 153.64 91.3608C152.78 90.6408 152.16 89.6408 151.76 88.3808C151.36 87.1008 151.16 85.4808 151.16 83.4808V71.6008C151.16 69.6008 151.36 67.9808 151.76 66.7008C152.16 65.4208 152.78 64.4408 153.64 63.7208C154.5 63.0008 155.62 62.5008 157 62.2208C158.4 61.9408 160.08 61.8008 162.04 61.8008H170.96C172.96 61.8008 174.64 61.9408 176.02 62.2208C177.4 62.5008 178.52 63.0008 179.38 63.7208C180.24 64.4408 180.88 65.4408 181.28 66.7008C181.68 67.9808 181.88 69.6008 181.88 71.6008V83.4808C181.88 85.4808 181.68 87.1008 181.28 88.3808C180.88 89.6608 180.26 90.6408 179.38 91.3608C178.52 92.0808 177.4 92.5808 176.02 92.8608C174.64 93.1408 172.96 93.2808 170.96 93.2808H162.04ZM162.04 89.5408H170.96C172.6 89.5408 173.88 89.3808 174.84 89.0608C175.8 88.7408 176.5 88.1408 176.92 87.2608C177.34 86.3808 177.56 85.1408 177.56 83.5008V71.6208C177.56 69.9808 177.34 68.7408 176.92 67.8608C176.5 66.9808 175.82 66.3808 174.84 66.0608C173.88 65.7408 172.58 65.5808 170.96 65.5808H162.04C160.44 65.5808 159.14 65.7408 158.16 66.0608C157.18 66.3808 156.5 66.9808 156.08 67.8608C155.66 68.7408 155.46 69.9808 155.46 71.6208V83.5008C155.46 85.1408 155.66 86.3808 156.08 87.2608C156.5 88.1408 157.2 88.7408 158.16 89.0608C159.14 89.3808 160.42 89.5408 162.04 89.5408ZM166.9 88.3808C166.3 88.3808 165.8 88.2208 165.38 87.8808C164.96 87.5408 164.74 87.0608 164.66 86.4408C164.64 85.8608 164.78 85.3608 165.1 84.9408C165.42 84.5208 165.82 84.3008 166.32 84.2808C167.12 84.2408 167.66 84.1208 167.96 83.9408C168.26 83.7608 168.4 83.3208 168.4 82.6208V74.7808H158.14C157.58 74.7808 157.14 74.6008 156.82 74.2408C156.5 73.8808 156.34 73.4608 156.34 72.9808C156.34 72.5008 156.5 72.0408 156.82 71.6808C157.14 71.3208 157.58 71.1408 158.14 71.1408H168.4V68.5208C168.4 67.9008 168.6 67.4008 169.02 67.0408C169.42 66.6808 169.9 66.5008 170.46 66.5008C171.02 66.5008 171.52 66.6808 171.92 67.0408C172.32 67.4008 172.52 67.9008 172.52 68.5208V71.1408H174.94C175.5 71.1408 175.94 71.3208 176.26 71.6808C176.58 72.0408 176.74 72.4808 176.74 72.9808C176.74 73.4808 176.58 73.8808 176.26 74.2408C175.94 74.6008 175.5 74.7808 174.94 74.7808H172.52V83.6808C172.52 85.5608 172.08 86.8008 171.18 87.4408C170.3 88.0808 168.86 88.4008 166.9 88.4008V88.3808ZM164.34 83.3408C163.88 83.6008 163.4 83.6808 162.88 83.5808C162.36 83.4808 161.98 83.2008 161.72 82.7408C161.56 82.4208 161.28 82.0208 160.92 81.5208C160.56 81.0208 160.2 80.5008 159.82 79.9808C159.44 79.4608 159.14 79.0608 158.86 78.7408C158.54 78.3608 158.44 77.9208 158.56 77.4208C158.68 76.9208 158.92 76.5408 159.3 76.2808C159.74 75.9608 160.22 75.8408 160.74 75.9208C161.26 76.0008 161.68 76.2408 162 76.6408C162.24 76.9008 162.56 77.3008 162.94 77.8008C163.32 78.3208 163.7 78.8408 164.1 79.3408C164.48 79.8608 164.78 80.2608 164.96 80.5408C165.28 81.0008 165.36 81.5008 165.24 82.0608C165.12 82.6208 164.82 83.0408 164.34 83.3208V83.3408Z" fill="#010F32"/>
<path d="M206.86 94.4413C206.26 94.4413 205.76 94.2413 205.34 93.8613C204.92 93.4813 204.72 92.9813 204.72 92.3413V88.5613H202.06C201.46 88.5613 200.96 88.3613 200.54 87.9413C200.14 87.5413 199.92 87.0213 199.92 86.4213C199.92 85.8213 200.12 85.3413 200.54 84.9213C200.94 84.5013 201.46 84.3013 202.06 84.3013H204.72V77.3213C203.68 79.0013 202.56 80.6613 201.32 82.3213C200.08 83.9813 198.9 85.3613 197.78 86.5013C197.34 86.9413 196.82 87.1813 196.22 87.2413C195.6 87.3013 195.08 87.1013 194.62 86.6413V92.2213C194.62 92.8013 194.42 93.2813 194 93.7013C193.6 94.1013 193.1 94.3213 192.52 94.3213C191.94 94.3213 191.46 94.1213 191.04 93.7013C190.64 93.3013 190.42 92.8013 190.42 92.2213V75.8013C190.18 76.1613 189.94 76.5213 189.68 76.8613C189.42 77.2013 189.16 77.5413 188.9 77.8813C188.56 78.3413 188.1 78.6013 187.52 78.6813C186.94 78.7613 186.4 78.6013 185.92 78.2213C185.5 77.8813 185.28 77.4413 185.2 76.9013C185.12 76.3613 185.24 75.8813 185.56 75.4813C186.5 74.3213 187.42 72.9813 188.36 71.4413C189.3 69.9013 190.14 68.3613 190.92 66.7813C191.7 65.2013 192.34 63.7813 192.82 62.4813C193.06 61.8613 193.44 61.4413 193.96 61.2413C194.48 61.0413 195.02 61.0413 195.6 61.2413C196.12 61.4413 196.5 61.7613 196.74 62.2413C196.98 62.7213 196.98 63.2413 196.74 63.8413C196.46 64.6413 196.12 65.4413 195.76 66.2813C195.4 67.1013 195.02 67.9413 194.6 68.7813V83.7613C195.3 83.0613 196.04 82.2413 196.84 81.2813C197.64 80.3213 198.44 79.3013 199.26 78.2013C200.08 77.1013 200.84 76.0413 201.54 75.0013C202.24 73.9613 202.86 73.0213 203.36 72.1813H197.6C197.08 72.1813 196.62 71.9813 196.22 71.6013C195.82 71.2213 195.62 70.7413 195.62 70.2013C195.62 69.6613 195.82 69.1813 196.22 68.8013C196.62 68.4213 197.08 68.2213 197.6 68.2213H204.72V62.9613C204.72 62.3413 204.92 61.8413 205.34 61.4413C205.76 61.0413 206.26 60.8613 206.86 60.8613C207.46 60.8613 207.92 61.0613 208.34 61.4413C208.76 61.8213 208.96 62.3213 208.96 62.9613V68.2213H216.7C217.26 68.2213 217.72 68.4213 218.12 68.8013C218.52 69.1813 218.72 69.6613 218.72 70.2013C218.72 70.7413 218.52 71.2213 218.12 71.6013C217.72 71.9813 217.24 72.1813 216.7 72.1813H210.18C210.68 73.0213 211.3 73.9413 212.04 74.9613C212.78 75.9613 213.54 76.9813 214.36 78.0213C215.18 79.0613 216 80.0413 216.82 80.9613C217.64 81.8813 218.4 82.7013 219.06 83.4013C219.46 83.8013 219.68 84.3213 219.7 84.9213C219.72 85.5213 219.5 86.0413 219.02 86.5013C218.56 86.9413 218.02 87.1613 217.38 87.1613C216.74 87.1613 216.22 86.9613 215.78 86.5013C214.68 85.3413 213.52 83.9613 212.28 82.3213C211.06 80.6813 209.94 79.0613 208.94 77.4613V84.3813H211.64C212.22 84.3813 212.72 84.6013 213.14 85.0013C213.56 85.4213 213.76 85.9213 213.76 86.5013C213.76 87.0813 213.56 87.6013 213.14 88.0213C212.72 88.4213 212.22 88.6413 211.64 88.6413H208.94V92.4213C208.94 93.0413 208.74 93.5413 208.32 93.9413C207.9 94.3413 207.42 94.5213 206.84 94.5213L206.86 94.4413Z" fill="#010F32"/>
<path d="M250.92 87.1412C249.74 86.2812 248.44 85.2812 247.02 84.1412C245.6 83.0012 244.16 81.8012 242.7 80.5612C241.24 79.3212 239.88 78.0812 238.62 76.8812C237.74 76.0412 237 75.4812 236.4 75.2012C235.82 74.9212 235.22 74.9012 234.6 75.1412C233.98 75.3812 233.18 75.8812 232.2 76.6612C231.04 77.5412 229.94 78.3812 228.86 79.1812C227.78 79.9812 226.74 80.6812 225.76 81.3012C225.26 81.6212 224.72 81.7012 224.12 81.5612C223.54 81.4212 223.06 81.1012 222.74 80.6012C222.42 80.1012 222.32 79.5412 222.44 78.9412C222.54 78.3412 222.86 77.8812 223.36 77.5812C224.28 77.0212 225.32 76.3412 226.5 75.5412C227.68 74.7412 228.82 73.9212 229.92 73.1012C231.38 72.0012 232.72 71.2612 233.92 70.9012C235.12 70.5412 236.3 70.5812 237.48 71.0212C238.66 71.4612 239.92 72.3212 241.3 73.6012C242.5 74.7212 243.84 75.9012 245.34 77.1212C246.82 78.3412 248.3 79.5012 249.76 80.6212C251.22 81.7212 252.48 82.6812 253.6 83.4612C254.08 83.8012 254.36 84.2812 254.46 84.9012C254.56 85.5212 254.42 86.0812 254.06 86.5612C253.7 87.0412 253.22 87.3412 252.6 87.4612C251.98 87.5812 251.44 87.4612 250.96 87.1012L250.92 87.1412Z" fill="#010F32"/>
<path d="M280.36 94.6799C279.68 94.6999 279.12 94.5399 278.66 94.2199C278.2 93.8799 277.92 93.3999 277.84 92.7399C277.8 92.1199 277.94 91.5599 278.3 91.0799C278.64 90.5999 279.16 90.3399 279.86 90.2799C280.78 90.1999 281.34 90.0599 281.58 89.8399C281.82 89.6199 281.94 89.1799 281.94 88.4999V81.5199H259.52C259.06 81.5199 258.66 81.3399 258.34 80.9799C258 80.6199 257.84 80.2199 257.84 79.7599C257.84 79.2799 258 78.8599 258.34 78.5199C258.68 78.1799 259.08 77.9999 259.52 77.9999H262.76C262.76 77.9999 262.66 77.7999 262.62 77.6999C262.58 77.5999 262.54 77.4799 262.52 77.3599C262.4 76.8999 262.46 76.4799 262.72 76.0799C262.98 75.6799 263.4 75.4399 264 75.3399C266.92 74.8399 269.02 73.9599 270.3 72.7199H265.7C265.2 72.7199 264.8 72.5599 264.52 72.2599C264.24 71.9399 264.08 71.5599 264.08 71.0999C264.08 70.6399 264.22 70.2599 264.52 69.9399C264.8 69.6199 265.2 69.4799 265.7 69.4799H272.08C272.12 69.2799 272.18 69.0799 272.22 68.8599C272.26 68.6399 272.3 68.4199 272.32 68.2199C272.34 67.8799 272.46 67.5799 272.64 67.3199H265.34C264.48 67.3199 263.88 67.4599 263.56 67.7599C263.24 68.0399 263.08 68.5599 263.08 69.2799V70.4399C263.08 71.0399 262.88 71.4999 262.48 71.8199C262.08 72.1399 261.62 72.2999 261.06 72.2999C260.5 72.2999 260.02 72.1199 259.62 71.7599C259.22 71.3999 259 70.9199 259 70.3199V69.0199C259 67.1799 259.46 65.8599 260.4 65.1199C261.34 64.3599 262.9 63.9799 265.08 63.9799H272.14V62.5799C272.14 61.9599 272.36 61.4399 272.8 61.0399C273.24 60.6399 273.78 60.4199 274.4 60.4199C275.02 60.4199 275.56 60.6199 276 61.0399C276.44 61.4399 276.66 61.9599 276.66 62.5799V63.9799H283.9C286.1 63.9799 287.68 64.3599 288.6 65.1199C289.52 65.8799 289.98 67.1799 289.98 69.0199V70.3199C289.98 70.9199 289.78 71.3999 289.36 71.7599C288.96 72.1199 288.48 72.2999 287.92 72.2999C287.36 72.2999 286.9 72.1399 286.5 71.8199C286.1 71.4999 285.9 71.0399 285.9 70.4399V69.2799C285.9 68.5599 285.74 68.0599 285.42 67.7599C285.1 67.4599 284.5 67.3199 283.64 67.3199H275.94C276.16 67.6599 276.22 68.0399 276.16 68.4799C276.14 68.6399 276.12 68.8199 276.08 68.9799C276.04 69.1399 276.02 69.3199 275.98 69.4799H283.4C283.9 69.4799 284.3 69.6399 284.58 69.9399C284.86 70.2599 285.02 70.6399 285.02 71.0999C285.02 71.5599 284.88 71.9399 284.58 72.2599C284.28 72.5799 283.9 72.7199 283.4 72.7199H278.54C279.4 73.3999 280.38 73.9399 281.48 74.3599C282.58 74.7799 283.72 75.1199 284.96 75.3599C285.52 75.4599 285.92 75.7199 286.16 76.1399C286.4 76.5599 286.46 77.0199 286.28 77.5199C286.26 77.6599 286.18 77.8399 286.02 78.0199H289.44C289.92 78.0199 290.32 78.1999 290.66 78.5399C291 78.8799 291.16 79.2999 291.16 79.7799C291.16 80.2599 291 80.6399 290.66 80.9999C290.32 81.3599 289.92 81.5399 289.44 81.5399H286.1V89.6399C286.1 91.4599 285.64 92.7599 284.74 93.5199C283.84 94.2799 282.38 94.6799 280.38 94.6799H280.36ZM268.7 92.1599C267.28 92.1599 266.18 92.0199 265.36 91.7199C264.56 91.4199 264 90.9399 263.68 90.2599C263.36 89.5799 263.22 88.6799 263.22 87.5199C263.22 86.3599 263.38 85.4399 263.68 84.7599C264 84.0799 264.56 83.5799 265.36 83.2799C266.16 82.9799 267.28 82.8399 268.7 82.8399H271.66C273.1 82.8399 274.22 82.9799 275 83.2799C275.8 83.5799 276.34 84.0799 276.66 84.7599C276.98 85.4399 277.12 86.3599 277.12 87.5199C277.12 88.6799 276.96 89.5799 276.66 90.2599C276.34 90.9399 275.8 91.4199 275 91.7199C274.2 92.0199 273.1 92.1599 271.66 92.1599H268.7ZM268.96 88.7399H271.44C272.06 88.7399 272.48 88.6599 272.7 88.4799C272.92 88.2999 273.02 87.9799 273.02 87.5199C273.02 87.0399 272.92 86.7199 272.7 86.5199C272.48 86.3399 272.06 86.2599 271.44 86.2599H268.96C268.32 86.2599 267.88 86.3399 267.66 86.5199C267.44 86.6999 267.34 87.0399 267.34 87.5199C267.34 87.9999 267.44 88.2999 267.66 88.4799C267.88 88.6599 268.3 88.7399 268.96 88.7399ZM267.66 78.0199H281.16C279.84 77.5599 278.62 76.9399 277.48 76.1599C276.36 75.3799 275.34 74.3999 274.46 73.2199C273.78 74.2999 272.9 75.2399 271.78 76.0399C270.66 76.8399 269.28 77.4999 267.66 77.9999V78.0199Z" fill="#010F32"/>
<path d="M301.46 94.2597C300.86 94.2597 300.34 94.0597 299.92 93.6797C299.5 93.2997 299.3 92.7797 299.3 92.1397V75.4997C298.5 76.4997 297.72 77.4397 296.92 78.2997C296.54 78.7397 296.06 78.9597 295.46 78.9997C294.88 79.0397 294.36 78.8597 293.92 78.4797C293.52 78.0997 293.3 77.6397 293.26 77.1197C293.22 76.5997 293.38 76.1397 293.74 75.7597C294.86 74.5397 295.98 73.1397 297.08 71.5797C298.18 70.0197 299.2 68.4197 300.1 66.7997C301.02 65.1597 301.74 63.6397 302.26 62.2197C302.5 61.6597 302.88 61.2797 303.38 61.0797C303.88 60.8797 304.42 60.8797 304.96 61.0797C305.48 61.2397 305.88 61.5797 306.12 62.0797C306.36 62.5797 306.36 63.1197 306.12 63.6997C305.8 64.5397 305.44 65.3997 305 66.3197C304.56 67.2197 304.08 68.1197 303.56 69.0397V92.1597C303.56 92.7997 303.34 93.3197 302.92 93.6997C302.5 94.0797 302 94.2797 301.42 94.2797L301.46 94.2597ZM315.72 94.1197C315 94.1197 314.42 93.9197 314 93.4997C313.58 93.0797 313.32 92.5397 313.28 91.8597C313.26 91.2597 313.44 90.7397 313.82 90.2997C314.2 89.8597 314.74 89.6197 315.44 89.5597C316.5 89.4797 317.16 89.3197 317.44 89.0797C317.72 88.8397 317.86 88.2997 317.86 87.5197V73.3797H306.66C306.06 73.3797 305.58 73.1797 305.2 72.7797C304.82 72.3797 304.64 71.9197 304.64 71.3597C304.64 70.7997 304.82 70.3397 305.2 69.9397C305.58 69.5397 306.06 69.3397 306.66 69.3397H317.86V63.2597C317.86 62.5797 318.08 62.0597 318.5 61.6797C318.92 61.2997 319.42 61.0997 320.02 61.0997C320.62 61.0997 321.12 61.2997 321.54 61.6797C321.96 62.0597 322.18 62.5997 322.18 63.2597V69.3397H325.38C326 69.3397 326.5 69.5397 326.86 69.9397C327.22 70.3397 327.4 70.8197 327.4 71.3597C327.4 71.8997 327.22 72.3797 326.86 72.7797C326.5 73.1797 326 73.3797 325.38 73.3797H322.18V88.2397C322.18 89.7197 321.98 90.8997 321.58 91.7597C321.18 92.6197 320.52 93.2397 319.58 93.5997C318.64 93.9597 317.36 94.1397 315.72 94.1397V94.1197ZM314.18 84.2197C313.6 84.5997 313.02 84.7397 312.44 84.6197C311.86 84.4997 311.38 84.1797 311.06 83.6397C310.82 83.2397 310.48 82.7397 310.08 82.1597C309.66 81.5797 309.24 80.9997 308.8 80.4397C308.36 79.8797 308 79.3997 307.68 79.0397C307.34 78.5997 307.22 78.1197 307.32 77.5397C307.42 76.9797 307.7 76.5197 308.14 76.1997C308.62 75.8597 309.14 75.6997 309.7 75.7197C310.26 75.7197 310.76 75.9797 311.16 76.4597C311.48 76.8197 311.86 77.2997 312.32 77.8797C312.78 78.4597 313.22 79.0597 313.66 79.6397C314.1 80.2197 314.44 80.7197 314.68 81.0997C315.06 81.6597 315.2 82.2197 315.08 82.8197C314.96 83.4197 314.66 83.8797 314.18 84.2197Z" fill="#010F32"/>
<path d="M340.64 88.4013C339.54 88.4413 338.48 88.2013 337.48 87.6413C336.48 87.0813 335.58 86.2013 334.82 84.9813C334.18 83.9013 333.62 82.5413 333.16 80.8813C332.7 79.2213 332.38 77.4413 332.18 75.5013C331.98 73.5613 331.94 71.6413 332.04 69.7213C332.08 69.1213 332.32 68.6213 332.74 68.2213C333.16 67.8213 333.66 67.6613 334.26 67.7013C334.86 67.7213 335.36 67.9613 335.76 68.4013C336.16 68.8413 336.34 69.3613 336.28 69.9613C336.18 71.6413 336.2 73.2813 336.32 74.8813C336.44 76.4813 336.66 77.9213 337 79.2413C337.34 80.5413 337.76 81.6413 338.26 82.5013C338.82 83.4813 339.5 83.9813 340.34 83.9813C341.38 83.9613 342.24 82.8813 342.94 80.7413C343.14 80.1813 343.5 79.7813 344.02 79.5013C344.54 79.2213 345.1 79.1813 345.68 79.3813C346.24 79.5413 346.64 79.9013 346.9 80.4413C347.16 80.9813 347.2 81.5213 347 82.0813C346.32 84.2013 345.42 85.7613 344.3 86.7813C343.18 87.8013 341.94 88.3413 340.62 88.4213L340.64 88.4013ZM360.26 82.0613C359.68 82.2813 359.12 82.2613 358.58 81.9813C358.04 81.7213 357.66 81.3013 357.44 80.7613C357.08 79.8813 356.6 78.9813 355.98 78.0613C355.36 77.1413 354.68 76.2813 353.92 75.4613C353.16 74.6413 352.4 73.9613 351.6 73.4013C351.12 73.0613 350.82 72.6013 350.7 72.0013C350.58 71.4013 350.7 70.8613 351.1 70.3813C351.48 69.9013 351.96 69.6413 352.52 69.5813C353.08 69.5213 353.62 69.6813 354.12 70.0413C355.12 70.7413 356.12 71.5813 357.08 72.6013C358.06 73.6013 358.94 74.6813 359.72 75.8413C360.52 77.0013 361.1 78.1213 361.48 79.2213C361.68 79.7813 361.64 80.3413 361.4 80.9013C361.16 81.4613 360.76 81.8413 360.22 82.0413L360.26 82.0613Z" fill="#010F32"/>
<path d="M369.5 92.38C368.98 92.06 368.64 91.62 368.5 91.04C368.36 90.46 368.46 89.92 368.76 89.42C369.7 87.9 370.52 86.24 371.24 84.42C371.96 82.6 372.58 80.7 373.1 78.74C373.62 76.78 374.04 74.84 374.34 72.94C373.64 73.02 372.96 73.08 372.3 73.12C371.64 73.16 371.02 73.22 370.44 73.26C369.84 73.28 369.32 73.12 368.88 72.74C368.44 72.36 368.2 71.88 368.14 71.28C368.12 70.68 368.3 70.16 368.68 69.72C369.06 69.28 369.56 69.04 370.16 69.02C370.86 68.98 371.6 68.92 372.4 68.88C373.2 68.84 374.02 68.76 374.82 68.66C374.9 67.84 374.94 67.06 374.96 66.32C374.98 65.58 374.98 64.86 374.96 64.2C374.94 63.6 375.12 63.08 375.52 62.66C375.92 62.24 376.42 62 377.02 61.98C377.62 61.96 378.14 62.14 378.56 62.54C379 62.94 379.22 63.44 379.24 64.04C379.26 64.64 379.26 65.28 379.24 65.96C379.22 66.64 379.16 67.38 379.1 68.14C380.18 67.94 381.16 67.76 382.02 67.6C382.6 67.48 383.14 67.58 383.64 67.88C384.14 68.2 384.46 68.64 384.58 69.22C384.7 69.82 384.58 70.36 384.28 70.84C383.96 71.32 383.5 71.62 382.94 71.74C382.34 71.86 381.68 71.98 380.94 72.1C380.2 72.22 379.44 72.34 378.62 72.46C378.28 74.64 377.82 76.9 377.26 79.24C376.7 81.58 376 83.82 375.2 85.98C374.4 88.12 373.48 90.04 372.44 91.68C372.12 92.18 371.68 92.5 371.1 92.66C370.52 92.8 369.98 92.72 369.48 92.4L369.5 92.38ZM394.56 91.58C390.98 92.4 387.92 92.42 385.36 91.66C382.8 90.9 380.98 89.48 379.86 87.42C379.6 86.9 379.54 86.34 379.7 85.78C379.86 85.22 380.2 84.78 380.72 84.5C381.24 84.22 381.8 84.16 382.36 84.32C382.92 84.48 383.36 84.84 383.64 85.36C384.36 86.64 385.58 87.42 387.28 87.74C388.98 88.06 391.1 87.94 393.66 87.38C394.26 87.26 394.8 87.38 395.3 87.68C395.8 88 396.1 88.46 396.22 89.02C396.34 89.62 396.22 90.16 395.92 90.66C395.62 91.16 395.14 91.46 394.58 91.58H394.56ZM392.8 77.82C391.98 77.62 391.06 77.5 390 77.42C388.96 77.34 387.9 77.34 386.84 77.36C385.78 77.38 384.76 77.5 383.84 77.66C383.26 77.76 382.74 77.66 382.28 77.32C381.82 77 381.52 76.56 381.4 76C381.28 75.42 381.4 74.9 381.7 74.4C382.02 73.9 382.48 73.62 383.04 73.52C384.16 73.32 385.36 73.2 386.62 73.16C387.88 73.12 389.14 73.14 390.38 73.22C391.62 73.3 392.76 73.46 393.8 73.7C394.38 73.82 394.82 74.14 395.12 74.64C395.42 75.14 395.5 75.68 395.36 76.26C395.24 76.82 394.92 77.24 394.42 77.54C393.92 77.84 393.38 77.94 392.8 77.82Z" fill="#010F32"/>
<path d="M419.66 92.7804C416.78 92.7804 414.52 92.0604 412.88 90.6404C411.24 89.2204 410.42 86.9204 410.42 83.7404V64.5604C410.42 63.9604 410.62 63.4404 411.04 63.0204C411.46 62.6004 411.96 62.4004 412.58 62.4004C413.2 62.4004 413.68 62.6004 414.1 63.0204C414.52 63.4404 414.74 63.9604 414.74 64.5604V83.7404C414.74 85.5204 415.14 86.7604 415.94 87.4404C416.74 88.1404 417.98 88.4804 419.66 88.4804C421.14 88.4804 422.54 88.0804 423.86 87.3004C425.18 86.5204 426.22 85.2404 427.04 83.4804C427.3 82.9204 427.72 82.5604 428.3 82.3604C428.88 82.1604 429.42 82.2004 429.96 82.4604C430.52 82.7004 430.88 83.1004 431.06 83.6804C431.24 84.2604 431.2 84.8204 430.96 85.3804C429.9 87.7604 428.36 89.5804 426.34 90.8604C424.32 92.1404 422.08 92.7604 419.66 92.7604V92.7804Z" fill="#010F32"/>
<path d="M450.58 93.4001C448.62 93.4001 447.02 92.9401 445.82 92.0201C444.62 91.1001 444.02 89.7201 444.02 87.9001C444.02 86.2601 444.62 84.9601 445.84 83.9801C447.06 83.0001 448.68 82.5001 450.72 82.5001C451.44 82.5001 452.16 82.5401 452.88 82.6001L452.78 78.5401C450.28 78.6201 448.08 78.6201 446.16 78.5401C445.56 78.5001 445.08 78.2401 444.7 77.8001C444.32 77.3601 444.16 76.8401 444.18 76.2801C444.22 75.7001 444.48 75.2201 444.92 74.8401C445.36 74.4601 445.88 74.2801 446.44 74.3401C447.36 74.3801 448.34 74.4201 449.42 74.4201C450.48 74.4201 451.58 74.4201 452.68 74.4201C452.66 73.8401 452.64 73.2601 452.64 72.7001C452.64 72.1401 452.64 71.5601 452.6 71.0001C451.42 71.0201 450.28 71.0401 449.18 71.0001C448.08 71.0001 447.06 70.9601 446.16 70.9401C445.56 70.9201 445.08 70.6801 444.7 70.2401C444.32 69.8001 444.16 69.2801 444.18 68.6801C444.22 68.1001 444.48 67.6201 444.92 67.2401C445.36 66.8601 445.88 66.6801 446.44 66.7401C448.22 66.8601 450.24 66.9001 452.52 66.8401V63.7401C452.52 63.1401 452.72 62.6201 453.14 62.2001C453.54 61.7801 454.06 61.5801 454.66 61.5801C455.26 61.5801 455.76 61.7801 456.18 62.2001C456.6 62.6201 456.82 63.1401 456.82 63.7401V65.1201C456.82 65.6201 456.82 66.1401 456.86 66.6801C457.84 66.6001 458.8 66.5401 459.7 66.4401C460.62 66.3601 461.44 66.2601 462.18 66.1801C462.76 66.1001 463.28 66.2401 463.74 66.6001C464.2 66.9401 464.48 67.4001 464.56 67.9801C464.64 68.5801 464.5 69.1201 464.14 69.5801C463.8 70.0401 463.32 70.3201 462.76 70.4001C461.92 70.5001 461 70.5801 460 70.6601C459 70.7401 457.98 70.8001 456.92 70.8401C456.92 71.4001 456.92 71.9601 456.92 72.5401C456.92 73.1201 456.94 73.7001 456.98 74.2601C457.94 74.2201 458.86 74.1401 459.74 74.0601C460.62 73.9801 461.42 73.8801 462.16 73.8001C462.74 73.7001 463.26 73.8401 463.72 74.2001C464.18 74.5601 464.46 75.0201 464.54 75.6001C464.62 76.1801 464.48 76.7001 464.12 77.1601C463.78 77.6201 463.3 77.9001 462.74 77.9601C461.92 78.0601 461.04 78.1401 460.08 78.2201C459.12 78.3001 458.12 78.3601 457.06 78.4001C457.1 79.3601 457.14 80.2801 457.14 81.1401C457.14 82.0001 457.16 82.8001 457.2 83.5601C458.6 83.9601 459.92 84.4801 461.16 85.0801C462.4 85.6801 463.52 86.3201 464.48 86.9801C464.96 87.3001 465.26 87.7401 465.36 88.3401C465.46 88.9401 465.36 89.4801 465.02 89.9601C464.68 90.4401 464.22 90.7401 463.64 90.8401C463.06 90.9401 462.52 90.8401 462.04 90.5001C461.36 90.0201 460.62 89.5601 459.8 89.1201C458.98 88.6801 458.14 88.2801 457.24 87.9201C457.14 89.8201 456.52 91.2001 455.36 92.1001C454.2 92.9801 452.62 93.4401 450.58 93.4401V93.4001ZM450.54 89.3401C451.52 89.3401 452.18 89.1601 452.48 88.8201C452.8 88.4801 452.94 87.9801 452.94 87.3201V86.6401C452.12 86.5001 451.32 86.4201 450.52 86.4201C449.72 86.4201 449.18 86.5601 448.82 86.8201C448.46 87.0801 448.28 87.4401 448.28 87.9001C448.28 88.8601 449.02 89.3401 450.52 89.3401H450.54Z" fill="#010F32"/>
<path d="M486.86 93.7605C486.28 93.9205 485.72 93.9205 485.18 93.7605C484.64 93.5805 484.24 93.2205 483.98 92.7005C483.74 92.1405 483.72 91.5805 483.9 91.0005C484.1 90.4205 484.46 90.0205 485.02 89.8205C486.84 89.1205 488.26 88.3405 489.26 87.4805C490.26 86.6205 490.98 85.6205 491.38 84.5005C490.56 84.8805 489.76 85.0805 488.96 85.0805C487.06 85.0805 485.52 84.6005 484.32 83.6205C483.12 82.6405 482.52 81.2205 482.52 79.3205C482.52 77.4205 483.14 75.9405 484.4 74.8605C485.66 73.7805 487.22 73.2405 489.12 73.2405C489.28 73.2405 489.44 73.2405 489.58 73.2405C489.72 73.2405 489.88 73.2805 490.04 73.3005C489.96 72.9005 489.92 72.4805 489.88 72.0405C489.84 71.6005 489.82 71.1605 489.8 70.6805C487.4 70.7805 485.04 70.9205 482.72 71.1005C480.4 71.2805 478.24 71.4605 476.26 71.6605C475.68 71.7005 475.16 71.5605 474.72 71.2005C474.26 70.8605 474 70.4005 473.92 69.8205C473.88 69.2205 474.02 68.7005 474.38 68.2405C474.74 67.7805 475.2 67.5405 475.78 67.5205C477.82 67.3605 480.04 67.2005 482.44 67.0605C484.84 66.9205 487.28 66.8205 489.74 66.7205V63.6205C489.74 63.0205 489.94 62.5205 490.36 62.1005C490.76 61.7005 491.28 61.4805 491.88 61.4805C492.48 61.4805 493.02 61.6805 493.42 62.1005C493.82 62.5005 494.04 63.0205 494.04 63.6205V66.5805C496.04 66.5405 497.94 66.5005 499.76 66.4605C501.58 66.4205 503.26 66.4005 504.8 66.3805C505.4 66.3805 505.9 66.6005 506.3 67.0205C506.7 67.4605 506.88 67.9605 506.86 68.5405C506.84 69.1405 506.62 69.6405 506.2 70.0205C505.78 70.4005 505.26 70.5805 504.66 70.5605C501.58 70.4405 498.04 70.4405 494.04 70.5605C494.06 71.4005 494.1 72.2405 494.16 73.0805C494.22 73.9205 494.28 74.7205 494.32 75.5005C495.48 76.8605 496.04 78.7205 496.04 81.0805C496.04 84.0805 495.26 86.7005 493.68 88.9605C492.1 91.2205 489.82 92.8405 486.82 93.8205L486.86 93.7605ZM488.98 81.3405C489.68 81.3205 490.22 81.1405 490.62 80.7805C491.02 80.4405 491.22 79.9205 491.22 79.2405C491.22 79.0405 491.22 78.8405 491.16 78.6005C491.1 78.3605 491.08 78.1205 491.04 77.8805C490.54 77.2805 489.88 76.9805 489.06 76.9805C488.38 76.9805 487.82 77.1805 487.34 77.5805C486.88 77.9805 486.64 78.5205 486.64 79.2205C486.64 79.9205 486.86 80.4605 487.3 80.8205C487.74 81.2005 488.3 81.3605 488.98 81.3405Z" fill="#010F32"/>
<path d="M471.1 38H41.9199V42H471.1V38Z" fill="#F27891"/>
<path d="M512.5 99.1016H0.5V103.102H512.5V99.1016Z" fill="#F27891"/>
</g>
<defs>
<clipPath id="clip0_420_2072">
<rect width="512" height="102.6" fill="white" transform="translate(0.5 0.5)"/>
</clipPath>
</defs>
</svg>
