<svg width="131" height="36" viewBox="0 0 131 36" fill="none" xmlns="http://www.w3.org/2000/svg">
<path d="M0.330311 33.08V31.16C0.330311 18.344 15.0663 17.432 15.0663 10.328C15.0663 8.072 13.9143 5.624 9.93031 5.624C7.67431 5.624 5.61031 6.344 4.50631 6.776C3.35431 7.208 2.49031 6.824 2.01031 5.72L1.67431 4.904C1.24231 3.752 1.72231 2.84 2.87431 2.36C4.26631 1.784 7.00231 0.871999 9.97831 0.871999C16.6503 0.871999 20.7303 4.952 20.7303 10.328C20.7303 20.456 5.94631 21.752 5.94631 30.344H18.9543C20.1063 30.344 20.8743 31.064 20.8743 32.216V33.08C20.8743 34.232 20.1063 35 18.9543 35H2.20231C1.05031 35 0.330311 34.232 0.330311 33.08ZM35.5811 22.04V14.408C35.5811 5.96 39.8051 0.871999 47.1971 0.871999C54.6851 0.871999 58.8611 6.248 58.8611 14.408V22.04C58.8611 30.488 54.6851 35.624 47.1971 35.624C39.8051 35.624 35.5811 30.296 35.5811 22.04ZM47.1971 30.872C51.8051 30.872 53.1971 26.792 53.1971 21.32V15.128C53.1971 9.656 51.8051 5.624 47.1971 5.624C42.5891 5.624 41.2451 9.656 41.2451 15.128V21.32C41.2451 26.792 42.5891 30.872 47.1971 30.872ZM73.2022 33.08V31.16C73.2022 18.344 87.9382 17.432 87.9382 10.328C87.9382 8.072 86.7862 5.624 82.8022 5.624C80.5462 5.624 78.4822 6.344 77.3782 6.776C76.2262 7.208 75.3622 6.824 74.8822 5.72L74.5462 4.904C74.1142 3.752 74.5942 2.84 75.7462 2.36C77.1382 1.784 79.8742 0.871999 82.8502 0.871999C89.5222 0.871999 93.6022 4.952 93.6022 10.328C93.6022 20.456 78.8182 21.752 78.8182 30.344H91.8262C92.9782 30.344 93.7462 31.064 93.7462 32.216V33.08C93.7462 34.232 92.9782 35 91.8262 35H75.0742C73.9222 35 73.2022 34.232 73.2022 33.08ZM112.034 27.992C107.762 27.992 105.938 26.12 106.898 21.608L110.882 3.272C111.122 2.072 111.986 1.496 113.138 1.496H114.578C115.73 1.496 116.354 2.312 116.114 3.56L112.322 21.608C112.082 22.664 112.322 23.336 113.426 23.336H118.658V13.208C118.658 12.056 119.282 11.192 120.386 11L122.114 10.712C123.314 10.52 124.082 11.144 124.082 12.296V23.336H128.162C129.314 23.336 130.082 24.056 130.082 25.208V26.072C130.082 27.224 129.314 27.992 128.162 27.992H124.082V33.08C124.082 34.232 123.362 35 122.21 35H120.578C119.426 35 118.658 34.232 118.658 33.08V27.992H112.034Z" fill="#010F32"/>
</svg>
