<svg width="612" height="96" viewBox="0 0 612 96" fill="none" xmlns="http://www.w3.org/2000/svg">
<path d="M27.392 36.2721C24.5131 36.9975 21.8742 37.2393 19.715 37.2393C17.5559 37.2393 15.6366 36.7557 13.9573 36.0302C12.2779 35.3048 11.3183 34.0957 10.8385 32.6449C10.5986 32.1612 10.5986 31.6776 10.8385 31.194C11.0784 30.7103 11.3183 30.4685 11.7981 30.2267C12.2779 29.9849 12.7577 29.9849 12.9977 30.2267C13.2376 30.4685 13.7174 30.7103 13.9573 31.194C14.4371 31.9194 15.1568 32.6449 16.1164 33.1285C17.316 33.6121 18.7554 33.8539 20.4347 33.8539C22.1141 33.8539 24.2732 33.6121 26.4324 32.8867C26.9122 32.8867 27.392 32.8867 27.6319 33.1285C28.1117 33.3703 28.3516 33.8539 28.3516 34.3375C28.3516 34.8212 28.3516 35.3048 28.1117 35.5466C27.8718 35.7884 27.8718 36.2721 27.392 36.2721ZM24.753 20.5542C23.7934 20.3124 22.5939 20.0705 21.3944 19.8287C20.1948 19.5869 18.9953 19.5869 17.7958 19.5869C16.5962 19.5869 15.6366 19.5869 14.677 19.5869C14.1972 19.5869 13.7174 19.5869 13.4775 19.3451C13.2376 19.1033 12.9977 18.6197 12.7577 18.136C12.5178 17.6524 12.7577 17.1688 12.9977 16.927C13.2376 16.6852 13.7174 16.4433 14.1972 16.2015C15.3967 16.2015 16.5962 15.9597 18.0357 16.2015C19.4751 16.2015 20.6746 16.4433 22.1141 16.4433C23.3136 16.6852 24.5131 16.6852 25.4728 17.1688C25.9526 17.4106 26.1925 17.6524 26.4324 17.8942C26.6723 18.136 26.6723 18.6197 26.6723 19.1033C26.6723 19.5869 26.4324 19.8287 25.9526 20.3124C25.7127 20.5542 25.2329 20.5542 24.753 20.5542Z" fill="#010F32"/>
<path d="M42.9859 39.4156C42.5061 39.4156 42.0263 39.1738 41.7864 38.932C41.5465 38.6902 41.3066 38.2065 41.3066 37.7229V31.4358C41.0667 31.9194 40.5868 32.403 40.3469 32.8866C40.107 33.3703 39.6272 33.8539 39.3873 34.3375C39.1474 34.8211 38.6676 35.063 38.1878 35.063C37.708 35.063 37.2282 35.063 36.9883 34.8211C36.5084 34.5793 36.2685 34.0957 36.2685 33.6121C36.2685 33.1285 36.2685 32.6448 36.5084 32.403C36.9883 31.6776 37.708 30.7103 38.4277 29.5012C39.1474 28.2922 40.107 27.0831 41.0667 25.874V22.2468H40.8268H40.5868C40.3469 22.2468 40.107 22.2468 39.6272 22.4887C39.1474 22.4887 38.9075 22.7305 38.4277 22.7305C38.1878 22.7305 37.708 22.9723 37.708 22.9723C37.2282 22.9723 36.7483 22.9723 36.5084 22.7305C36.0286 22.4887 35.7887 22.005 35.7887 21.5214C35.7887 21.0378 35.7887 20.5541 36.0286 20.3123C36.2685 19.8287 36.7484 19.5869 37.2282 19.5869C37.4681 19.5869 37.708 19.5869 37.9479 19.3451C38.6676 19.3451 38.9075 19.3451 39.3873 19.3451C39.8671 19.3451 40.107 19.1033 40.3469 19.1033C40.5868 19.1033 41.0667 18.8614 41.3066 18.8614V14.7506C41.3066 14.267 41.5465 13.7834 41.7864 13.5415C42.0263 13.2997 42.5061 13.0579 42.9859 13.0579C43.4657 13.0579 43.9455 13.2997 44.1854 13.5415C44.4253 13.7834 44.6652 14.267 44.6652 14.7506V19.5869C44.9051 19.8287 45.1451 20.0705 45.385 20.5541C45.6249 20.796 45.6249 21.0378 45.6249 21.2796C46.5845 20.5541 47.5441 19.8287 48.2638 19.3451C49.2235 18.8614 49.9432 18.6196 50.9028 18.6196C53.062 18.6196 54.5014 19.3451 55.461 20.796C56.4206 22.2468 56.4206 24.4232 55.9408 27.5667C55.7009 28.7758 55.461 29.7431 55.461 30.4685C55.461 31.1939 55.2211 31.6776 55.2211 32.1612C55.2211 32.6448 55.2211 32.8866 55.461 32.8866C55.461 33.1285 55.7009 33.1284 55.7009 33.3703C56.1807 33.6121 56.6605 33.6121 57.1404 33.3703C57.6202 33.1284 58.3399 32.8866 58.8197 32.1612C59.0596 31.9194 59.5394 31.6776 60.0192 31.6776C60.499 31.6776 60.9788 31.9194 61.2188 32.403C61.4587 32.8866 61.6986 33.1285 61.6986 33.6121C61.6986 34.0957 61.4587 34.5793 61.2188 34.8211C60.0192 36.0302 58.8197 36.7557 57.3803 36.9975C55.9408 37.2393 54.7413 36.9975 53.7817 36.5138C53.062 36.0302 52.5821 35.5466 52.3422 35.063C52.1023 34.3375 51.8624 33.6121 51.8624 32.403C51.8624 31.1939 52.1023 29.9849 52.3422 28.2922C52.5821 26.5995 52.822 25.3904 52.822 24.4232C52.822 23.4559 52.5821 22.9723 52.3422 22.7305C52.1023 22.4887 51.6225 22.2468 50.9028 22.2468C50.423 22.2468 49.7033 22.4887 48.9836 22.9723C48.2638 23.4559 47.5441 23.9395 46.8244 24.665C46.1047 25.3904 45.385 26.1159 44.6652 27.0831V37.9647C44.6652 38.4483 44.4253 38.932 44.1854 39.1738C43.9455 39.1738 43.4657 39.4156 42.9859 39.4156Z" fill="#010F32"/>
<path d="M74.1736 38.932C72.4943 38.932 71.2948 38.4484 70.3352 37.7229C69.3755 36.9975 68.8957 35.7884 68.8957 34.3375C68.8957 33.1284 69.3755 31.9194 70.3352 31.1939C71.2948 30.4685 72.4943 29.9849 74.1736 29.9849C74.6535 29.9849 75.3732 29.9849 75.853 29.9849V26.5995C73.9337 26.5995 72.0145 26.5995 70.5751 26.5995C70.0952 26.5995 69.6154 26.3577 69.3755 26.1159C69.1356 25.874 68.8957 25.3904 68.8957 24.9068C68.8957 24.4232 69.1356 23.9395 69.3755 23.6977C69.6154 23.4559 70.0952 23.2141 70.5751 23.2141C71.2948 23.2141 72.0145 23.2141 72.9741 23.2141C73.9337 23.2141 74.6535 23.2141 75.6131 23.2141C75.6131 22.7305 75.6131 22.2468 75.6131 21.7632C75.6131 21.2796 75.6131 20.796 75.6131 20.3123C74.6535 20.3123 73.6938 20.3123 72.9741 20.3123C72.0145 20.3123 71.2948 20.3123 70.5751 20.3123C70.0952 20.3123 69.6154 20.0705 69.3755 19.8287C69.1356 19.5869 69.1356 19.3451 69.1356 18.8614C69.1356 18.3778 69.3755 17.8942 69.6154 17.6524C69.8553 17.4106 70.3352 17.1688 70.815 17.1688C72.2544 17.1688 73.9337 17.4106 75.6131 17.1688V14.7506C75.6131 14.267 75.853 13.7834 76.0929 13.5415C76.3328 13.2997 76.8126 13.0579 77.2924 13.0579C77.7722 13.0579 78.2521 13.2997 78.492 13.5415C78.7319 13.7834 78.9718 14.267 78.9718 14.7506C78.9718 14.9924 78.9718 15.4761 78.9718 15.9597C78.9718 16.4433 78.9718 16.6851 78.9718 17.1688C79.6915 17.1688 80.4112 17.1688 81.1309 16.9269C81.8506 16.9269 82.5704 16.6851 83.0502 16.6851C83.53 16.6851 84.0098 16.6851 84.2497 16.9269C84.7295 17.1688 84.7295 17.6524 84.9694 18.136C84.9694 18.6196 84.9694 19.1033 84.7295 19.3451C84.4896 19.8287 84.0098 19.8287 83.53 20.0705C82.8103 20.0705 82.0905 20.3123 81.3708 20.3123C80.6511 20.3123 79.6915 20.3123 78.9718 20.5541C78.9718 21.0378 78.9718 21.5214 78.9718 22.005C78.9718 22.4887 78.9718 22.9723 78.9718 23.4559C79.6915 23.4559 80.4112 23.4559 81.1309 23.2141C81.8506 23.2141 82.5704 22.9723 83.0502 22.9723C83.53 22.9723 84.0098 22.9723 84.2497 23.2141C84.7295 23.4559 84.7295 23.9395 84.9694 24.4232C84.9694 24.9068 84.9694 25.3904 84.7295 25.6322C84.4896 26.1159 84.0098 26.1159 83.53 26.3577C82.8103 26.3577 82.0905 26.5995 81.3708 26.5995C80.6511 26.5995 79.6915 26.5995 78.9718 26.8413C78.9718 27.5667 78.9718 28.2922 78.9718 29.0176C78.9718 29.7431 78.9718 30.4685 78.9718 30.9521C80.1713 31.1939 81.1309 31.6776 82.0906 32.1612C83.0502 32.6448 84.0098 33.1285 84.7295 33.6121C85.2093 33.8539 85.4492 34.3375 85.4492 34.8211C85.4492 35.3048 85.4492 35.7884 85.2093 36.0302C84.9694 36.272 84.4896 36.7557 84.0098 36.7557C83.53 36.7557 83.0502 36.7557 82.8103 36.5138C82.3305 36.0302 81.6107 35.7884 81.1309 35.3048C80.4112 35.063 79.6915 34.5793 78.9718 34.3375C78.9718 35.7884 78.492 36.9975 77.5323 37.7229C77.2924 38.4484 75.853 38.932 74.1736 38.932ZM74.1736 35.5466C74.8934 35.5466 75.3732 35.3048 75.6131 35.063C75.853 34.8211 76.0929 34.3375 76.0929 33.8539V33.3703C75.3732 33.3703 74.8934 33.1284 74.1736 33.1284C73.4539 33.1284 73.214 33.1284 72.7342 33.3703C72.4943 33.6121 72.2544 33.8539 72.2544 34.3375C72.4943 35.3048 72.9741 35.5466 74.1736 35.5466Z" fill="#010F32"/>
<path d="M113.518 38.2066C111.359 37.9647 109.44 37.2393 108 36.272C106.561 35.3048 105.361 34.0957 104.642 32.6448C103.922 31.194 103.682 29.7431 103.682 28.2922C103.682 26.8413 103.922 25.3904 104.642 23.9395C105.361 22.4887 106.081 21.5214 107.281 20.5542C106.081 20.796 104.882 21.0378 103.682 21.0378C102.483 21.2796 101.043 21.5214 99.8436 21.7632C98.6441 22.005 97.4445 22.2469 96.7248 22.2469C96.245 22.2469 95.7652 22.2469 95.5253 22.005C95.0455 21.7632 95.0455 21.2796 94.8056 20.796C94.8056 20.3123 94.8056 19.8287 95.0455 19.5869C95.2854 19.1033 95.7652 19.1033 96.245 18.8615C96.9647 18.8615 97.6844 18.6197 98.6441 18.3778C99.1239 18.136 100.323 17.8942 101.523 17.6524C102.722 17.4106 103.922 17.1688 105.122 16.927C106.321 16.927 107.521 16.6851 108.72 16.4433C109.92 16.2015 111.119 15.9597 112.079 15.9597C113.038 15.7179 113.998 15.7179 114.478 15.4761C114.958 15.4761 115.437 15.4761 115.677 15.7179C116.157 15.9597 116.397 16.4433 116.397 16.6851C116.397 17.1688 116.397 17.6524 116.157 17.8942C115.917 18.136 115.677 18.6197 115.198 18.6197C113.758 18.8615 112.559 19.3451 111.599 19.8287C110.639 20.5542 109.68 21.2796 108.96 22.005C108.24 22.9723 107.76 23.6977 107.281 24.665C107.041 25.6322 106.801 26.5995 106.801 27.5668C106.801 29.5013 107.521 30.9521 108.72 32.1612C109.92 33.3703 111.599 34.0957 113.998 34.3375C114.478 34.3375 114.718 34.5793 115.198 35.063C115.437 35.5466 115.677 35.7884 115.437 36.272C115.437 36.7557 115.198 37.2393 114.718 37.4811C114.478 37.9647 113.998 38.2066 113.518 38.2066ZM117.357 26.1159C117.117 26.3577 116.877 26.3577 116.397 26.3577C116.157 26.3577 115.677 26.1159 115.437 25.8741C115.198 25.6322 114.958 25.1486 114.718 24.9068C114.478 24.4232 113.998 24.1814 113.758 23.6977C113.518 23.6977 113.518 23.4559 113.518 23.2141C113.518 22.9723 113.758 22.7305 113.998 22.4887C114.238 22.2469 114.478 22.2469 114.718 22.2469C114.958 22.2469 115.198 22.2469 115.437 22.4887C115.677 22.7305 116.157 22.9723 116.397 23.4559C116.877 23.9395 117.117 24.1814 117.357 24.665C117.597 24.9068 117.597 25.1486 117.597 25.6322C117.597 25.6322 117.597 26.1159 117.357 26.1159ZM119.996 23.6977C119.756 23.9396 119.516 24.1814 119.036 23.9395C118.796 23.9395 118.316 23.6977 118.076 23.4559C117.837 23.2141 117.597 22.9723 117.117 22.4887C116.877 22.005 116.397 21.7632 116.157 21.5214C115.917 21.2796 115.917 21.0378 115.917 20.796C115.917 20.5542 115.917 20.3123 116.157 20.0705C116.397 19.8287 116.637 19.8287 116.877 19.8287C117.117 19.8287 117.357 19.8287 117.597 20.0705C117.837 20.3123 118.316 20.5542 118.556 21.0378C119.036 21.5214 119.276 21.7632 119.516 22.005C119.756 22.2469 119.756 22.4887 119.756 22.9723C120.475 23.2141 120.236 23.4559 119.996 23.6977Z" fill="#010F32"/>
<path d="M137.989 36.9974C137.509 36.9974 137.029 36.9974 136.549 36.7556C136.069 36.5138 135.829 36.0302 135.829 35.7884C135.829 35.3047 135.829 34.8211 136.069 34.5793C136.309 34.0957 136.789 33.8539 137.029 33.8539C139.188 33.3702 140.628 32.403 141.827 31.1939C142.787 29.9848 143.267 28.2921 143.267 26.3576C143.267 25.1486 143.027 23.9395 142.547 22.9722C142.067 22.005 141.347 21.2796 140.148 20.5541C138.948 19.8287 138.229 19.5869 136.789 19.345C136.549 22.4886 135.829 25.3904 135.11 27.8085C134.39 30.2267 133.43 31.9194 132.231 33.3702C131.031 34.5793 130.072 35.3047 128.872 35.3047C127.913 35.3047 126.953 35.0629 125.993 34.3375C125.034 33.8539 124.554 32.8866 124.074 31.6775C123.594 30.4685 123.354 29.2594 123.354 27.5667C123.354 25.874 123.594 24.4231 124.314 22.9722C125.034 21.5214 125.753 20.3123 126.953 19.345C128.152 18.3778 129.352 17.4105 130.791 16.9269C132.231 16.4433 133.91 15.9597 135.829 15.9597C137.989 15.9597 139.908 16.4433 141.587 17.1687C143.267 17.8942 144.706 19.1032 145.666 20.7959C146.625 22.2468 147.105 23.9395 147.105 26.1158C147.105 29.0176 146.385 31.1939 144.946 33.1284C143.027 35.0629 140.868 36.272 137.989 36.9974ZM128.632 31.6775C128.872 31.6775 129.352 31.4357 129.832 30.7103C130.312 29.9848 130.791 29.2594 131.271 28.2921C131.751 27.3249 132.231 25.874 132.471 24.4231C132.951 22.9722 133.191 21.2796 133.43 19.5869C131.991 19.8287 130.791 20.5541 129.592 21.2796C128.632 22.005 127.913 22.9722 127.193 24.1813C126.713 25.3904 126.473 26.5995 126.473 27.8085C126.473 29.0176 126.713 30.2267 127.193 30.7103C127.433 31.4357 128.152 31.6775 128.632 31.6775Z" fill="#010F32"/>
<path d="M19.9549 74.2368C19.4751 74.2368 18.9953 73.995 18.7554 73.7532C18.5155 73.5114 18.2756 73.0278 18.2756 72.5441V67.2242C16.3563 67.2242 14.677 67.466 12.9976 67.466C11.3183 67.7079 9.87887 67.7079 8.67934 67.7079C8.19953 67.7079 7.71972 67.7079 7.47981 67.2242C7.23991 66.7406 7 66.4988 7 66.0152C7 65.5315 7.23991 65.0479 7.47981 64.8061C7.71972 64.5643 8.19953 64.3225 8.67934 64.3225C9.63897 64.3225 10.8385 64.3225 11.7981 64.3225C12.9976 64.3225 13.9573 64.3225 15.1568 64.3225C14.4371 64.0807 13.7174 63.597 12.7577 62.8716C12.038 62.388 11.3183 61.9043 10.8385 61.6625C10.5986 61.4207 10.3587 61.1789 10.1188 60.6953C10.1188 60.2116 10.1188 59.9698 10.3587 59.4862C10.5986 59.0026 10.8385 59.0026 11.3183 58.7608C11.7981 58.7608 12.038 58.7608 12.5178 59.0026C12.7577 59.2444 12.9976 59.2444 13.2376 59.4862C13.4775 59.728 13.7174 59.728 14.1972 59.9698C14.4371 59.728 14.677 59.4862 15.1568 59.0026C15.6366 58.5189 15.8765 58.2771 16.1164 57.7935H15.1568C13.7174 57.7935 12.5178 57.5517 11.5582 57.3099C10.5986 57.0681 10.1188 56.5844 9.87887 55.859C9.63897 55.1335 9.39906 54.4081 9.39906 53.199V51.7482C9.39906 50.5391 9.63897 49.8136 9.87887 49.0882C10.3587 48.8464 10.8385 48.3628 11.7981 48.121C12.7577 47.8791 13.7174 47.6373 15.3967 47.6373H24.5131C25.9526 47.6373 27.1521 47.8791 28.1117 48.121C29.0713 48.3628 29.5512 48.8464 29.7911 49.5718C30.031 50.2973 30.2709 51.0227 30.2709 52.2318V53.6827C30.2709 54.6499 30.031 55.6172 29.7911 56.3426C29.5512 57.0681 28.8314 57.5517 28.1117 57.7935C27.1521 58.0353 25.9526 58.0353 24.5131 58.0353H24.753C24.753 58.0353 24.9929 58.0353 24.9929 58.2771C25.2329 58.5189 25.4728 59.0026 25.4728 59.2444C25.4728 59.728 25.4728 59.9698 24.9929 60.4534C24.753 60.6953 24.2732 61.1789 24.0333 61.4207C23.5535 61.9043 23.0737 62.1461 22.5939 62.6298C22.1141 63.1134 21.6343 63.597 21.1545 63.8388C22.1141 63.8388 23.0737 63.8388 23.7934 63.8388C24.753 63.8388 25.4728 63.8388 26.1925 63.8388C25.9526 63.597 25.9526 63.597 25.7127 63.3552C25.4728 63.1134 25.4728 63.1134 25.4728 63.1134C25.2329 62.8716 24.9929 62.388 24.9929 62.1461C24.9929 61.9043 25.2329 61.4207 25.4728 61.1789C25.7127 60.9371 26.1925 60.6953 26.6723 60.6953C27.1521 60.6953 27.392 60.9371 27.8718 61.1789C28.3516 61.6625 28.8314 61.9043 29.3112 62.6298C29.7911 63.1134 30.2709 63.597 30.9906 64.3225C31.4704 64.8061 31.9502 65.2897 32.43 65.7733C32.6699 66.257 32.9098 66.4988 32.6699 66.9824C32.6699 67.466 32.43 67.7079 31.9502 67.9497C31.7103 68.1915 31.2305 68.4333 30.7507 68.4333C30.2709 68.4333 30.031 68.1915 29.7911 67.9497C29.5512 67.7079 29.5512 67.7079 29.3112 67.466C29.0713 67.2242 29.0713 66.9824 28.8314 66.9824C27.8718 66.9824 26.6723 67.2242 25.4728 67.2242C24.2732 67.2242 22.8338 67.466 21.6343 67.466V72.5441C21.6343 73.0278 21.3944 73.5114 21.1545 73.7532C20.6746 74.2368 20.1948 74.2368 19.9549 74.2368ZM10.8385 73.5114C10.3587 73.7532 9.87887 73.7532 9.39906 73.7532C8.91925 73.7532 8.67934 73.2696 8.43944 72.7859C8.19953 72.3023 8.19953 71.8187 8.43944 71.5769C8.67934 71.0932 8.91925 70.8514 9.39906 70.6096C9.87887 70.3678 10.3587 70.126 11.0784 69.8842C11.5582 69.6424 12.2779 69.1587 12.7577 68.9169C13.2376 68.6751 13.7174 68.1915 14.1972 67.9497C14.4371 67.7079 14.9169 67.7079 15.1568 67.7079C15.6366 67.7079 15.8765 67.9497 16.1164 68.1915C16.3563 68.6751 16.5962 68.9169 16.3563 69.4006C16.3563 69.8842 16.1164 70.126 15.6366 70.3678C15.1568 70.6096 14.677 71.0932 13.9573 71.3351C13.2376 71.8187 12.7577 72.0605 12.038 72.3023C11.7981 72.7859 11.3183 73.2696 10.8385 73.5114ZM12.7577 51.7482H18.0357V50.2973H15.1568C14.1972 50.2973 13.7174 50.2973 13.2376 50.5391C12.9976 50.7809 12.7577 51.2645 12.7577 51.7482ZM15.1568 55.6172H18.0357V53.9245H12.7577C12.7577 54.6499 12.9976 55.1335 13.2376 55.1335C13.4775 55.1335 14.1972 55.6172 15.1568 55.6172ZM18.2756 63.1134C18.7554 62.6298 19.2352 62.1461 19.9549 61.6625C20.4347 61.1789 21.1544 60.6953 21.6343 59.9698C22.1141 59.4862 22.5939 59.0026 22.8338 58.7608C23.0737 58.5189 23.3136 58.2771 23.7934 58.2771H19.9549C19.9549 58.7608 19.9549 59.2444 19.4751 59.728C19.2352 59.9698 18.9953 60.2116 18.7554 60.4534C18.5155 60.6953 18.0357 61.1789 17.7958 61.4207C17.5559 61.6625 17.076 61.9043 16.8361 62.1461C17.076 62.388 17.316 62.6298 17.5559 62.6298C17.7958 62.6298 18.0357 62.8716 18.2756 63.1134ZM21.3944 51.7482H26.6723C26.6723 51.0227 26.4324 50.7809 26.1925 50.5391C25.9526 50.2973 25.2329 50.2973 24.2732 50.2973H21.3944V51.7482ZM21.3944 55.6172H24.2732C25.2329 55.6172 25.7127 55.6172 26.1925 55.3754C26.4324 55.1335 26.6723 54.6499 26.6723 54.1663H21.3944V55.6172ZM28.8314 73.5114C28.3516 73.2696 27.8718 73.0278 27.1521 72.5441C26.4324 72.3023 25.9526 71.8187 25.2329 71.3351C24.5131 70.8514 24.0333 70.6096 23.5535 70.3678C23.3136 70.126 23.0737 69.8842 23.0737 69.4006C23.0737 68.9169 23.0737 68.6751 23.3136 68.1915C23.5535 67.9497 24.0333 67.7079 24.2732 67.7079C24.753 67.7079 24.9929 67.7079 25.4728 67.9497C25.9526 68.1915 26.4324 68.4333 26.9122 68.9169C27.392 69.1587 28.1117 69.6424 28.5915 69.8842C29.0713 70.126 29.7911 70.3678 30.2709 70.8514C30.7507 71.0932 30.9906 71.3351 30.9906 71.8187C31.2305 72.3023 30.9906 72.5441 30.9906 73.0278C30.7507 73.5114 30.5108 73.7532 30.031 73.995C29.7911 73.7532 29.3113 73.7532 28.8314 73.5114Z" fill="#010F32"/>
<path d="M36.5084 55.3753C36.0286 55.3753 35.7887 55.1335 35.5488 54.8917C35.3089 54.6499 35.069 54.4081 35.069 53.9245C35.069 53.4408 35.3089 53.199 35.5488 52.9572C35.7887 52.7154 36.0286 52.4736 36.5084 52.4736H46.3446C46.8244 52.4736 47.0643 52.7154 47.3042 52.9572C47.5441 53.199 47.784 53.4408 47.784 53.9245C47.784 54.4081 47.5441 54.6499 47.3042 54.8917C47.0643 55.1335 46.8244 55.3753 46.3446 55.3753H36.5084ZM37.9479 59.4862C37.4681 59.4862 37.2282 59.2444 36.9883 59.0026C36.7483 58.7607 36.7483 58.5189 36.7483 58.0353C36.7483 57.5517 36.9883 57.3099 37.2282 57.068C37.4681 56.8262 37.708 56.5844 38.1878 56.5844H45.385C45.8648 56.5844 46.1047 56.8262 46.3446 57.068C46.3446 57.3099 46.3446 57.7935 46.3446 58.0353C46.3446 58.5189 46.1047 58.7607 45.8648 59.0026C45.6249 59.2444 45.385 59.4862 44.9051 59.4862H37.9479ZM37.9479 63.597C37.4681 63.597 37.2282 63.3552 36.9883 63.1134C36.7483 62.8716 36.7483 62.6298 36.7483 62.1461C36.7483 61.6625 36.9883 61.4207 37.2282 61.1789C37.4681 60.9371 37.708 60.6952 38.1878 60.6952H45.385C45.8648 60.6952 46.1047 60.9371 46.3446 61.1789C46.5845 61.4207 46.8244 61.6625 46.8244 62.1461C46.8244 62.6298 46.5845 62.8716 46.3446 63.1134C46.1047 63.3552 45.8648 63.597 45.385 63.597H37.9479ZM37.9479 51.2645C37.4681 51.2645 37.2282 51.0227 36.9883 50.7809C36.7483 50.5391 36.7483 50.2973 36.7483 49.8136C36.7483 49.33 36.9883 49.0882 37.2282 48.8464C37.4681 48.6046 37.708 48.3628 38.1878 48.3628H45.1451C45.6249 48.3628 45.8648 48.6046 46.1047 48.8464C46.3446 49.0882 46.5845 49.33 46.5845 49.8136C46.5845 50.2973 46.3446 50.5391 46.1047 50.7809C45.8648 51.0227 45.6249 51.2645 45.1451 51.2645H37.9479ZM41.5465 73.7532C40.3469 73.7532 39.3873 73.5114 38.6676 73.2696C37.9479 73.0277 37.4681 72.5441 37.2282 71.8187C36.9883 71.0932 36.7483 70.3678 36.7483 69.1587C36.7483 67.9497 36.9883 67.2242 37.2282 66.4988C37.4681 65.7733 37.9479 65.5315 38.6676 65.0479C39.3873 64.8061 40.3469 64.5643 41.5465 64.5643C42.746 64.5643 43.7056 64.8061 44.4253 65.0479C45.1451 65.2897 45.6249 65.7733 45.8648 66.4988C46.1047 67.2242 46.3446 67.9497 46.3446 69.1587C46.3446 70.126 46.1047 71.0932 45.8648 71.8187C45.6249 72.5441 45.1451 73.0277 44.4253 73.2696C43.7056 73.5114 42.746 73.7532 41.5465 73.7532ZM41.5465 70.8514C42.2662 70.8514 42.746 70.8514 42.9859 70.6096C43.2258 70.3678 43.2258 69.8842 43.2258 69.1587C43.2258 68.4333 43.2258 67.9497 42.9859 67.7078C42.746 67.7078 42.2662 67.7078 41.5465 67.7078C40.8267 67.7078 40.3469 67.7078 40.107 67.9497C39.8671 68.1915 39.8671 68.6751 39.8671 69.4005C39.8671 70.126 39.8671 70.6096 40.107 70.8514C40.5868 70.8514 40.8267 70.8514 41.5465 70.8514ZM54.5014 74.2368C54.0216 74.2368 53.5418 73.995 53.3018 73.7532C53.0619 73.5114 52.822 73.0277 52.822 72.5441V59.4862H48.7436C48.2638 59.4862 48.0239 59.2444 47.5441 59.0026C47.0643 58.7607 47.0643 58.2771 47.0643 57.7935C47.0643 57.3099 47.3042 57.068 47.5441 56.5844C47.784 56.1008 48.2638 56.1008 48.7436 56.1008H52.822V48.8464C52.822 48.3628 53.0619 47.8791 53.3018 47.6373C53.5418 47.3955 54.0216 47.1537 54.5014 47.1537C54.9812 47.1537 55.461 47.3955 55.7009 47.6373C55.9408 47.8791 56.1807 48.3628 56.1807 48.8464V56.1008H60.7389C61.2187 56.1008 61.4587 56.3426 61.9385 56.5844C62.4183 56.8262 62.4183 57.3099 62.4183 57.7935C62.4183 58.2771 62.1784 58.5189 61.9385 59.0026C61.6986 59.4862 61.2187 59.4862 60.7389 59.4862H56.4206V72.5441C56.4206 73.0277 56.1807 73.5114 55.9408 73.7532C55.7009 73.995 54.9812 74.2368 54.5014 74.2368Z" fill="#010F32"/>
<path d="M82.0906 74.4786C81.6107 74.4786 81.1309 74.4786 80.6511 73.995C80.1713 73.7532 80.1713 73.2695 79.9314 72.7859C79.9314 72.3023 79.9314 71.8187 80.1713 71.335C80.4112 70.8514 80.891 70.8514 81.3708 70.6096C82.0906 70.6096 82.5704 70.3678 82.8103 70.3678C83.0502 70.126 83.0502 69.8842 83.0502 69.4005V63.8388H65.537C65.0572 63.8388 64.8173 63.597 64.5774 63.3552C64.3375 63.1134 64.0976 62.6297 64.0976 62.3879C64.0976 61.9043 64.3375 61.6625 64.5774 61.4207C64.8173 61.1789 65.0572 60.937 65.537 60.937H67.9361V60.6952V60.4534C67.9361 59.9698 67.9361 59.728 68.176 59.4862C68.4159 59.2444 68.6558 59.0025 69.1356 59.0025C71.5347 58.5189 73.214 57.7935 74.1737 56.8262H70.3352C69.8554 56.8262 69.6154 56.5844 69.3755 56.3426C69.1356 56.1008 69.1356 55.859 69.1356 55.3753C69.1356 54.8917 69.1356 54.6499 69.3755 54.4081C69.6154 54.1663 69.8554 53.9245 70.3352 53.9245H75.3732C75.3732 53.6826 75.3732 53.6826 75.3732 53.4408C75.3732 53.199 75.3732 53.199 75.3732 52.9572C75.3732 52.7154 75.3732 52.4736 75.6131 52.2318H69.8554C69.1356 52.2318 68.6558 52.2318 68.4159 52.4736C68.176 52.7154 67.9361 53.199 67.9361 53.6826V54.6499C67.9361 55.1335 67.6962 55.6171 67.4563 55.859C67.2164 56.1008 66.7366 56.3426 66.2568 56.3426C65.777 56.3426 65.537 56.1008 65.0572 55.859C64.8173 55.6171 64.5774 55.1335 64.5774 54.6499V53.6826C64.5774 52.2318 65.0572 51.2645 65.777 50.5391C66.4967 49.8136 67.6962 49.5718 69.6154 49.5718H75.3732V48.3627C75.3732 47.8791 75.6131 47.3955 75.853 47.1537C76.0929 46.9119 76.5727 46.67 77.0525 46.67C77.5323 46.67 78.0122 46.9119 78.2521 47.1537C78.492 47.3955 78.7319 47.8791 78.7319 48.3627V49.5718H84.4896C86.169 49.5718 87.6084 49.8136 88.3281 50.5391C89.0478 51.2645 89.5276 52.2318 89.5276 53.6826V54.6499C89.5276 55.1335 89.2877 55.6171 89.0478 55.859C88.8079 56.1008 88.3281 56.3426 87.8483 56.3426C87.3685 56.3426 87.1286 56.1008 86.6488 55.859C86.4089 55.6171 86.169 55.1335 86.169 54.6499V53.6826C86.169 53.199 85.9291 52.7154 85.6891 52.4736C85.4492 52.2318 84.9694 52.2318 84.2497 52.2318H78.0122C78.2521 52.4736 78.2521 52.7154 78.2521 53.199C78.2521 53.4408 78.2521 53.4408 78.2521 53.6826C78.2521 53.9245 78.2521 53.9245 78.2521 54.1663H84.2497C84.7295 54.1663 84.9694 54.4081 85.2093 54.6499C85.4492 54.8917 85.4492 55.1335 85.4492 55.6171C85.4492 56.1008 85.4492 56.3426 85.2093 56.5844C84.9694 56.8262 84.7295 57.068 84.2497 57.068H80.4112C81.1309 57.5517 81.8507 58.0353 82.8103 58.2771C83.7699 58.5189 84.7295 58.7607 85.6891 59.0025C86.169 59.0025 86.4089 59.2444 86.6488 59.728C86.8887 59.9698 86.8887 60.4534 86.6488 60.937C86.6488 60.937 86.6488 61.1789 86.4089 61.4207H89.0478C89.5276 61.4207 89.7675 61.6625 90.0075 61.9043C90.2474 62.1461 90.4873 62.6297 90.4873 62.8716C90.4873 63.3552 90.2474 63.597 90.0075 63.8388C89.7675 64.0806 89.5276 64.3224 89.0478 64.3224H86.4089V70.8514C86.4089 72.3023 85.9291 73.2695 85.2093 73.995C84.9694 74.2368 83.7699 74.4786 82.0906 74.4786ZM72.7342 72.5441C71.5347 72.5441 70.815 72.5441 70.0953 72.3023C69.3755 72.0605 68.8957 71.5768 68.6558 71.0932C68.4159 70.6096 68.176 69.8841 68.176 68.9169C68.176 67.9496 68.4159 67.2242 68.6558 66.7406C68.8957 66.2569 69.3755 65.7733 70.0953 65.5315C70.815 65.2897 71.5347 65.2897 72.7342 65.2897H75.1333C76.3328 65.2897 77.2924 65.2897 77.7722 65.5315C78.492 65.7733 78.7319 66.2569 79.2117 66.7406C79.4516 67.2242 79.6915 67.9496 79.6915 68.9169C79.6915 69.8841 79.4516 70.6096 79.2117 71.0932C78.9718 71.5768 78.492 72.0605 77.7722 72.3023C77.2924 72.3023 76.3328 72.5441 75.1333 72.5441H72.7342ZM72.9741 69.6423H74.8934C75.3732 69.6423 75.6131 69.6423 75.853 69.4005C76.0929 69.1587 76.0929 68.9169 76.0929 68.6751C76.0929 68.1915 76.0929 67.9496 75.853 67.9496C75.853 67.7078 75.3732 67.7078 74.8934 67.7078H72.9741C72.4943 67.7078 72.0145 67.7078 72.0145 67.9496C71.7746 68.1915 71.7746 68.4333 71.7746 68.6751C71.7746 69.1587 71.7746 69.4005 72.0145 69.4005C72.0145 69.6423 72.4943 69.6423 72.9741 69.6423ZM72.0145 61.1789H82.8103C81.8507 60.6952 80.891 60.2116 79.9314 59.728C78.9718 59.0025 78.2521 58.2771 77.5323 57.3098C77.0525 58.2771 76.3328 59.0025 75.3732 59.4862C74.4136 60.2116 73.214 60.6952 72.0145 61.1789Z" fill="#010F32"/>
<path d="M98.884 74.2368C98.4042 74.2368 97.9243 73.995 97.6844 73.7531C97.4445 73.5113 97.2046 73.0277 97.2046 72.5441V59.2443C96.4849 59.9698 96.0051 60.6952 95.2854 61.4207C95.0455 61.6625 94.5657 61.9043 94.0859 61.9043C93.606 61.9043 93.1262 61.9043 92.8863 61.4207C92.6464 61.1788 92.4065 60.6952 92.4065 60.2116C92.4065 59.728 92.4065 59.4861 92.8863 59.0025C93.8459 58.0353 94.5657 56.8262 95.5253 55.6171C96.4849 54.4081 97.2046 52.9572 97.9243 51.7481C98.6441 50.539 99.1239 49.0882 99.6037 48.1209C99.8436 47.6373 100.083 47.3955 100.563 47.1537C101.043 46.9118 101.283 46.9118 101.763 47.1537C102.243 47.3955 102.483 47.6373 102.722 47.8791C102.962 48.1209 102.962 48.6045 102.722 49.0882C102.483 49.8136 102.243 50.539 101.763 51.2645C101.523 51.9899 101.043 52.7154 100.563 53.4408V72.5441C100.563 73.0277 100.323 73.5113 100.084 73.7531C99.8436 73.995 99.3638 74.2368 98.884 74.2368ZM110.399 73.995C109.92 73.995 109.44 73.7531 108.96 73.5113C108.48 73.2695 108.48 72.7859 108.48 72.3023C108.48 71.8186 108.72 71.335 108.96 71.0932C109.2 70.8514 109.68 70.6096 110.16 70.6096C111.119 70.6096 111.599 70.3678 111.839 70.1259C112.079 69.8841 112.079 69.4005 112.079 68.9169V57.5516H103.202C102.722 57.5516 102.243 57.3098 102.003 57.068C101.763 56.8262 101.523 56.1008 101.523 55.6171C101.523 55.1335 101.763 54.8917 102.003 54.4081C102.243 54.1662 102.722 53.9244 103.202 53.9244H112.079V49.0882C112.079 48.6045 112.319 48.1209 112.559 47.8791C112.799 47.6373 113.278 47.3955 113.758 47.3955C114.238 47.3955 114.718 47.6373 114.958 47.8791C115.198 48.1209 115.437 48.6045 115.437 49.0882V53.9244H118.076C118.556 53.9244 119.036 54.1662 119.276 54.4081C119.516 54.6499 119.756 55.1335 119.756 55.6171C119.756 56.1008 119.516 56.3426 119.276 56.8262C119.036 57.068 118.556 57.3098 118.076 57.3098H115.437V69.4005C115.437 70.6096 115.198 71.5768 114.958 72.3023C114.718 73.0277 113.998 73.5113 113.278 73.7531C112.559 73.995 111.599 73.995 110.399 73.995ZM109.2 66.0151C108.72 66.2569 108.24 66.4987 107.76 66.2569C107.281 66.2569 106.801 66.0151 106.561 65.5315C106.321 65.2897 106.081 64.806 105.841 64.3224C105.601 63.8388 105.122 63.3552 104.882 62.8715C104.642 62.3879 104.162 62.1461 103.922 61.6625C103.682 61.4207 103.442 60.937 103.682 60.4534C103.682 59.9698 103.922 59.728 104.402 59.4861C104.882 59.2443 105.122 59.0025 105.601 59.0025C106.081 59.0025 106.561 59.2443 106.801 59.4861C107.041 59.728 107.281 60.2116 107.76 60.6952C108.24 61.1788 108.48 61.6625 108.72 62.1461C108.96 62.6297 109.44 63.1133 109.44 63.3552C109.68 63.8388 109.92 64.3224 109.68 64.806C109.68 65.5315 109.44 65.7733 109.2 66.0151Z" fill="#010F32"/>
<path d="M136.069 73.7532C135.59 73.995 135.35 74.2368 134.87 73.995C134.39 73.995 134.15 73.7532 133.67 73.2696C133.43 73.0277 133.43 72.5441 133.43 72.3023C133.43 71.8187 133.67 71.5769 133.91 71.335C134.39 71.0932 134.87 70.6096 135.35 70.3678C135.829 69.8842 136.309 69.6424 136.789 69.1587C137.269 68.6751 137.509 68.4333 137.989 68.1915C138.229 67.9497 138.468 67.7078 138.948 67.7078C137.989 67.7078 137.269 67.2242 136.789 66.7406C136.309 66.257 136.069 65.5315 136.069 64.8061C135.829 65.2897 135.59 65.5315 135.35 65.5315C134.87 65.7733 134.63 65.5315 134.15 65.5315C133.191 65.2897 132.231 64.8061 131.511 64.3225C130.552 63.8388 129.832 63.3552 129.112 62.6298C127.673 64.0806 125.753 65.0479 123.834 66.0151C123.354 66.257 123.114 66.257 122.635 66.257C122.155 66.257 121.915 66.0152 121.915 65.5315C121.675 65.2897 121.675 64.8061 121.915 64.5643C121.915 64.0806 122.155 63.8388 122.635 63.8388C123.594 63.3552 124.314 62.8716 125.034 62.3879C125.753 61.9043 126.473 61.4207 127.193 60.9371C126.953 60.6953 126.713 60.4534 126.473 60.2116C126.233 59.9698 125.993 59.728 125.753 59.4862C125.514 59.728 125.274 59.728 125.274 59.9698C125.034 60.2116 125.034 60.2116 124.794 60.4534C124.554 60.6952 124.074 60.9371 123.594 60.9371C123.114 60.9371 122.875 60.6952 122.635 60.4534C122.395 60.2116 122.395 59.9698 122.395 59.4862C122.395 59.0026 122.635 58.7607 122.875 58.7607C123.354 58.2771 123.834 57.7935 124.554 57.3099C125.274 56.8262 125.514 56.1008 125.993 55.3753C126.473 54.6499 126.713 54.1663 127.193 53.6827C127.433 53.199 127.673 53.199 128.152 52.9572C128.632 52.9572 128.872 52.9572 129.352 53.199C129.592 53.4408 129.832 53.6827 130.072 53.9245C130.072 54.1663 130.072 54.6499 129.832 54.8917C129.832 54.8917 129.832 54.8917 129.832 55.1335C129.832 55.1335 129.832 55.1335 129.832 55.3753H131.751C132.471 55.3753 132.951 55.6172 133.43 55.859C133.91 56.1008 134.15 56.5844 134.15 57.068C134.15 57.5517 134.15 58.0353 133.67 58.5189C133.43 59.0026 133.191 59.2444 132.711 59.728C132.471 60.2116 131.991 60.4534 131.751 60.9371C133.191 61.9043 134.63 62.6298 136.069 63.1134C136.309 63.1134 136.309 63.3552 136.549 63.3552C136.789 63.597 136.789 63.597 136.789 63.8388V56.3426C136.789 55.1335 137.029 54.4081 137.509 53.6827C137.989 53.199 138.948 52.7154 140.148 52.7154C140.148 52.4736 140.388 51.99 140.388 51.7481C140.628 51.2645 140.628 51.0227 140.628 50.7809H136.549C136.069 50.7809 135.829 50.5391 135.59 50.2973C135.35 50.0554 135.11 49.8136 135.11 49.33C135.11 48.8464 135.35 48.6046 135.59 48.3628C135.11 48.3628 135.35 48.3628 135.829 48.3628H147.345C147.825 48.3628 148.065 48.6046 148.305 48.8464C148.545 49.0882 148.784 49.33 148.784 49.8136C148.784 50.2973 148.545 50.5391 148.305 50.7809C148.065 51.0227 147.825 51.2645 147.345 51.2645H143.267C143.267 51.5063 143.027 51.99 143.027 52.2318C142.787 52.4736 142.787 52.9572 142.787 53.199H143.027C144.706 53.199 145.666 53.4408 146.385 53.9245C147.105 54.4081 147.345 55.3753 147.345 56.8262V64.5643C147.345 65.7733 147.105 66.4988 146.625 66.9824C146.145 67.466 145.426 67.9497 144.226 67.9497C144.466 67.9497 144.706 68.1915 144.946 68.1915C145.426 68.6751 145.906 69.1587 146.625 69.6424C147.345 70.126 148.065 70.8514 148.784 71.0932C149.024 71.335 149.264 71.5769 149.264 72.0605C149.264 72.5441 149.264 72.7859 149.024 73.2696C148.784 73.7532 148.305 73.995 147.825 73.995C147.345 73.995 146.865 73.995 146.625 73.5114C145.906 73.0277 145.426 72.5441 144.466 71.8187C143.746 71.0932 143.027 70.6096 142.547 69.8842C142.307 69.6424 142.067 69.1587 142.307 68.9169C142.307 68.4333 142.547 68.1915 142.787 67.9497C142.787 67.9497 142.787 67.9497 143.027 67.9497C143.267 67.9497 143.027 67.9497 143.267 67.9497H140.628H140.388H140.148C140.388 67.9497 140.628 68.1915 140.628 68.1915C140.868 68.4333 141.107 68.6751 141.107 69.1587C141.107 69.6424 141.107 69.8842 140.868 70.126C140.388 70.8514 139.668 71.335 138.948 72.0605C137.509 72.7859 136.789 73.2696 136.069 73.7532ZM123.594 55.3753C123.114 55.3753 122.875 55.3753 122.635 55.1335C122.395 54.8917 122.155 54.6499 122.155 54.1663V52.9572C122.155 51.99 122.395 51.2645 122.875 50.7809C123.354 50.2973 124.074 50.0555 125.274 50.0555H127.193V48.8464C127.193 48.3628 127.433 47.8791 127.673 47.6373C127.913 47.3955 128.392 47.1537 128.872 47.1537C129.352 47.1537 129.592 47.3955 130.072 47.6373C130.312 47.8791 130.552 48.3628 130.552 48.8464V50.0555H132.231C133.191 50.0555 134.15 50.2973 134.63 50.7809C135.11 51.2645 135.35 51.99 135.35 52.9572V54.1663C135.35 54.6499 135.11 54.8917 134.87 55.1335C134.63 55.3753 134.39 55.3753 133.91 55.3753C133.43 55.3753 133.191 55.3753 132.951 55.1335C132.711 54.8917 132.471 54.6499 132.471 54.1663V53.6827C132.471 52.9572 131.991 52.7154 131.271 52.7154H126.233C125.753 52.7154 125.514 52.7154 125.274 52.9572C125.034 53.199 125.034 53.4408 125.034 53.6827V54.1663C125.034 54.6499 124.794 54.8917 124.554 55.1335C124.314 55.1335 123.834 55.3753 123.594 55.3753ZM128.872 73.5114C127.673 73.5114 126.713 73.2696 126.233 73.0277C125.514 72.7859 125.034 72.3023 124.794 71.8187C124.554 71.0932 124.314 70.3678 124.314 69.4005C124.314 68.1915 124.554 67.466 124.794 66.7406C125.034 66.257 125.514 65.7733 126.233 65.5315C126.953 65.2897 127.913 65.2897 128.872 65.2897C130.072 65.2897 131.031 65.2897 131.511 65.5315C132.231 65.7733 132.711 66.257 132.951 66.7406C133.191 67.2242 133.43 68.1915 133.43 69.4005C133.43 70.3678 133.191 71.335 132.951 71.8187C132.711 72.5441 132.231 72.7859 131.511 73.0277C130.791 73.2696 129.832 73.5114 128.872 73.5114ZM128.632 59.2444C128.872 59.0026 128.872 59.0026 129.112 58.7607C129.112 58.5189 129.352 58.5189 129.592 58.2771C129.832 58.0353 129.832 57.7935 129.832 57.5517C129.832 57.3099 129.592 57.3099 129.112 57.3099H127.193C127.433 57.5517 127.673 57.7935 127.913 58.2771C128.152 58.7607 128.392 59.0026 128.632 59.2444ZM128.872 70.8514C129.592 70.8514 130.072 70.8514 130.312 70.6096C130.552 70.3678 130.552 69.8842 130.552 69.1587C130.552 68.4333 130.552 67.9497 130.312 67.7078C130.072 67.466 129.592 67.466 128.872 67.466C128.153 67.466 127.913 67.466 127.673 67.7078C127.433 67.9497 127.433 68.4333 127.433 69.1587C127.433 69.8842 127.433 70.3678 127.673 70.6096C127.673 70.8514 128.153 70.8514 128.872 70.8514ZM138.948 57.3099H143.986C143.986 56.5844 143.986 56.3426 143.746 56.1008C143.506 55.859 142.787 55.6172 142.067 55.6172H140.628C139.908 55.6172 139.428 55.6172 139.188 55.859C139.188 56.1008 138.948 56.5844 138.948 57.3099ZM138.948 61.1789H143.986V59.728H138.948V61.1789ZM140.868 65.2897H142.307C143.027 65.2897 143.506 65.2897 143.746 65.0479C143.986 64.8061 143.986 64.5643 143.986 63.8388V63.597H138.948V63.8388C138.948 64.5643 139.188 64.8061 139.428 65.0479C139.668 65.2897 140.148 65.2897 140.868 65.2897Z" fill="#010F32"/>
<path d="M571.981 74.2368C571.226 74.2368 570.472 73.8564 570.094 73.4761C569.717 73.0957 569.339 72.335 569.339 71.5743V45.7103C569.339 43.4282 569.717 41.5264 570.094 40.005C570.472 38.4836 571.226 37.3426 571.981 36.5819C573.113 35.8211 574.245 35.0604 575.754 34.6801C577.264 34.2997 579.528 34.2997 582.169 34.2997H592.735C595.377 34.2997 597.264 34.2997 599.15 34.6801C600.66 35.0604 602.169 35.4408 602.924 36.5819C604.056 37.3426 604.433 38.4836 604.811 40.005C605.188 41.5264 605.565 43.4282 605.565 45.7103V65.4887C605.565 67.7708 605.188 69.6725 604.811 70.8136C604.433 71.9547 603.301 73.0957 602.169 73.4761C601.037 73.8564 599.528 74.2368 597.264 74.2368C596.509 74.2368 595.377 74.2368 594.999 73.4761C594.245 73.0957 593.867 72.335 593.867 71.5743C593.867 70.8136 593.867 70.0529 594.622 69.2922C594.999 68.5315 595.754 68.5315 596.509 68.5315C597.641 68.5315 598.396 68.1511 598.773 68.1511C599.15 67.7708 599.528 67.3904 599.905 67.0101C599.905 66.2494 600.282 65.4887 600.282 64.728V55.9798H575V71.5743C575 72.335 574.622 73.0957 574.245 73.4761C573.49 73.8564 572.736 74.2368 571.981 74.2368ZM574.622 50.6549H584.434V38.864H581.792C579.905 38.864 578.019 38.864 577.264 39.2443C576.509 39.6247 575.377 40.005 575 41.1461C574.622 41.9068 574.622 43.4282 574.622 45.33V50.6549ZM590.094 50.6549H600.282V45.33C600.282 43.4282 599.905 41.9068 599.528 41.1461C599.15 40.3854 598.396 39.6247 597.264 39.2443C596.131 38.864 594.622 38.864 592.735 38.864H590.094V50.6549Z" fill="#010F32"/>
<path d="M210.44 63.8388C212.839 63.8388 214.039 65.7733 214.039 68.4332C214.039 71.0932 212.839 73.2695 210.44 73.2695H175.414C172.055 73.2695 170.136 71.0932 170.136 67.466C170.136 64.806 171.815 60.937 173.495 58.2771C175.894 53.9244 179.972 49.33 187.169 44.4937L191.728 41.3501C198.925 36.5138 202.763 33.8539 202.763 28.2922C202.763 23.2141 198.685 20.3123 192.687 20.3123C185.25 20.3123 182.851 24.4232 181.412 29.2594C180.932 31.4358 179.013 32.403 177.093 32.403C176.613 32.403 175.894 32.403 175.414 32.1612C173.015 31.6776 171.336 30.2267 171.336 27.8086C171.336 27.3249 171.336 26.8413 171.575 26.1159C172.295 22.9723 173.975 19.8287 176.374 17.6524C180.212 13.7834 185.25 11.3652 193.167 11.3652C205.642 11.3652 213.319 17.6524 213.319 28.0504C213.319 37.4811 208.041 41.5919 200.364 46.4282L196.046 49.0882C188.369 53.9244 184.051 58.0353 182.131 63.3552H210.44V63.8388Z" fill="#DF4220"/>
<path d="M233.471 78.3476C231.792 81.0076 229.633 82.7003 226.994 84.1511C226.514 84.393 226.274 84.393 226.034 84.393C225.074 84.393 224.115 83.9093 223.875 83.1839C223.635 82.7003 223.395 82.2166 223.395 81.733C223.395 81.0076 223.875 80.0403 224.595 79.7985C226.034 79.0731 227.474 78.1058 228.433 77.1385C229.153 76.4131 229.873 75.204 230.112 73.995C230.112 73.7532 229.873 73.5113 229.633 73.5113C229.633 73.5113 229.633 73.5113 229.393 73.5113C228.913 73.5113 228.673 73.5113 228.433 73.5113C225.794 73.5113 222.915 71.5768 222.915 67.7078C222.915 64.5642 225.074 61.6625 228.913 61.6625C232.512 61.6625 235.87 64.3224 235.87 69.6423C235.63 73.2695 234.671 76.1713 233.471 78.3476Z" fill="#DF4220"/>
<path d="M269.217 33.6121C280.973 33.6121 288.889 41.5919 288.889 53.4408C288.889 65.7733 280.733 74.4786 267.778 74.4786C253.143 74.4786 244.507 63.597 244.507 44.0101C244.507 24.1814 251.944 11.6071 268.018 11.6071C277.854 11.6071 283.372 16.4433 286.25 22.2469C286.49 22.7305 286.73 23.4559 286.73 23.9395C286.73 25.6322 285.291 27.0831 283.612 27.8086C282.892 28.0504 281.932 28.2922 281.212 28.2922C279.533 28.2922 278.094 27.8086 277.614 26.1159C275.935 22.4887 273.296 20.3123 267.778 20.3123C262.98 20.3123 259.141 22.4887 256.982 27.3249C255.303 30.9521 254.343 34.3375 254.103 41.1083C257.462 36.272 262.5 33.6121 269.217 33.6121ZM255.782 53.6826C255.782 60.6952 260.82 65.7733 267.538 65.7733C274.495 65.7733 279.293 60.937 279.293 53.4408C279.293 46.4282 274.735 41.8337 267.778 41.8337C260.82 41.8337 255.782 46.9118 255.782 53.6826Z" fill="#DF4220"/>
<path d="M340.229 43.0428C340.229 63.597 332.073 74.4786 317.438 74.4786C302.324 74.4786 294.647 63.597 294.647 42.801C294.647 22.7305 302.804 11.8489 317.438 11.8489C331.593 11.8489 340.229 21.5214 340.229 43.0428ZM304.723 42.801C304.723 57.3098 308.802 65.2897 317.438 65.2897C326.075 65.2897 329.913 57.5516 329.913 42.801C329.913 28.534 326.075 20.796 317.438 20.796C308.802 20.796 304.723 28.534 304.723 42.801Z" fill="#DF4220"/>
<path d="M349.586 22.4886C346.947 22.4886 345.747 20.3123 345.747 17.6524C345.747 14.9924 347.187 12.8161 349.586 12.8161H385.092C388.45 12.8161 390.13 14.7506 390.13 17.6524C390.13 21.5214 388.93 22.7305 387.251 25.1486C379.094 36.5138 372.617 51.9899 369.498 68.9169C368.778 72.5441 366.859 73.5113 363.74 73.5113C360.621 73.5113 358.222 71.8186 358.222 69.1587C358.222 68.675 358.222 68.4332 358.462 67.9496C361.581 53.199 367.819 36.9975 378.134 22.2468H349.586V22.4886Z" fill="#DF4220"/>
<path d="M409.082 78.3476C407.403 81.0076 405.244 82.7003 402.605 84.1511C402.125 84.393 401.885 84.393 401.645 84.393C400.686 84.393 399.726 83.9093 399.486 83.1839C399.246 82.7003 399.006 82.2166 399.006 81.733C399.006 81.0076 399.486 80.0403 400.206 79.7985C401.645 79.0731 403.085 78.1058 404.044 77.1385C404.764 76.4131 405.484 75.204 405.724 73.995C405.724 73.7532 405.484 73.5113 405.244 73.5113C405.244 73.5113 405.244 73.5113 405.004 73.5113C404.524 73.5113 404.284 73.5113 404.044 73.5113C401.405 73.5113 398.526 71.5768 398.526 67.7078C398.526 64.5642 400.686 61.6625 404.524 61.6625C408.123 61.6625 411.481 64.3224 411.481 69.6423C411.481 73.2695 410.522 76.1713 409.082 78.3476Z" fill="#DF4220"/>
<path d="M445.068 33.6121C456.824 33.6121 464.74 41.5919 464.74 53.4408C464.74 65.7733 456.584 74.4786 443.629 74.4786C428.995 74.4786 420.358 63.597 420.358 44.0101C420.358 24.1814 427.795 11.6071 443.869 11.6071C453.705 11.6071 459.223 16.4433 462.102 22.2469C462.341 22.7305 462.581 23.4559 462.581 23.9395C462.581 25.6322 461.142 27.0831 459.463 27.8086C458.743 28.0504 457.783 28.2922 457.063 28.2922C455.384 28.2922 453.945 27.8086 453.465 26.1159C451.786 22.4887 449.147 20.3123 443.629 20.3123C438.831 20.3123 434.992 22.4887 432.833 27.3249C431.154 30.9521 430.194 34.3375 429.954 41.1083C433.313 36.272 438.351 33.6121 445.068 33.6121ZM431.633 53.6826C431.633 60.6952 436.671 65.7733 443.389 65.7733C450.346 65.7733 455.144 60.937 455.144 53.4408C455.144 46.4282 450.586 41.8337 443.629 41.8337C436.432 41.8337 431.633 46.9118 431.633 53.6826Z" fill="#DF4220"/>
<path d="M490.65 52.7154C479.135 52.7154 470.738 44.7355 470.738 32.403C470.738 21.0378 477.935 11.6071 492.33 11.6071C506.484 11.6071 515.121 21.7632 515.121 41.5919C515.121 63.1133 507.684 74.4786 491.85 74.4786C480.574 74.4786 475.296 69.4005 473.137 64.806C472.897 64.0806 472.657 63.597 472.657 62.8715C472.657 61.1788 473.617 59.4861 475.536 58.7607C476.496 58.2771 477.456 58.0353 478.415 58.0353C479.855 58.0353 481.054 58.5189 482.014 59.9698C483.693 62.8715 486.572 65.7733 492.09 65.7733C501.686 65.7733 505.285 56.3426 505.524 44.9773C502.166 50.0554 497.608 52.7154 490.65 52.7154ZM480.334 32.403C480.334 39.8992 485.132 44.2519 492.09 44.2519C499.047 44.2519 504.085 39.4156 504.085 32.403C504.085 25.3904 499.287 20.3123 492.09 20.3123C485.132 20.3123 480.334 25.1486 480.334 32.403Z" fill="#DF4220"/>
<path d="M551.107 69.4005C551.107 72.0604 549.187 73.7531 546.069 73.7531C542.95 73.7531 541.031 72.3022 541.031 69.6423V24.665C541.031 23.2141 540.551 22.7305 539.351 22.7305H539.111L532.154 22.9723C529.515 22.9723 527.836 20.7959 527.836 18.136C527.836 15.4761 529.515 13.2997 532.154 13.0579L542.95 12.8161C543.19 12.8161 543.43 12.8161 543.67 12.8161C549.667 12.8161 551.347 14.7506 551.347 21.2796V69.4005H551.107Z" fill="#DF4220"/>
</svg>
