<svg width="420" height="35" viewBox="0 0 420 35" fill="none" xmlns="http://www.w3.org/2000/svg">
<g clip-path="url(#clip0_426_312)">
<path d="M15.48 31.78C15.04 31.38 14.82 30.86 14.8 30.26C14.78 29.66 14.96 29.14 15.38 28.72C16.36 27.74 17.28 26.56 18.12 25.18C18.96 23.8 19.7 22.36 20.32 20.84C18.36 20.34 16.46 19.98 14.66 19.76C13.78 21.64 12.76 23.2 11.64 24.44C10.52 25.68 9.32002 26.56 8.04002 27.04C6.84002 27.52 5.66002 27.68 4.52002 27.52C3.38002 27.36 2.42002 26.9 1.66002 26.14C0.90002 25.38 0.52002 24.3 0.52002 22.9C0.52002 21.58 0.92002 20.38 1.70002 19.3C2.50002 18.22 3.72002 17.36 5.40002 16.7C7.06002 16.04 9.22002 15.7 11.86 15.7C12.36 14.28 12.84 12.66 13.26 10.8C13.6 9.40001 13.54 8.48001 13.08 8.02001C12.62 7.56001 11.74 7.40001 10.42 7.56001C9.96002 7.64001 9.38002 7.72001 8.66002 7.82001C7.94002 7.92001 7.38002 7.98001 6.96002 8.04001C6.36002 8.06001 5.84002 7.88001 5.38002 7.50001C4.92002 7.12001 4.68002 6.62001 4.62002 6.02001C4.60002 5.42001 4.78002 4.90001 5.16002 4.46001C5.54002 4.02001 6.04002 3.78001 6.64002 3.72001C7.14002 3.68001 7.76002 3.62001 8.52002 3.54001C9.28002 3.46001 9.88002 3.42001 10.36 3.40001C13.38 3.20001 15.46 3.74001 16.6 4.98001C17.74 6.22001 18.04 8.30001 17.48 11.18C17.32 12.04 17.12 12.88 16.9 13.68C16.68 14.48 16.46 15.26 16.22 16C17.08 16.1 17.98 16.24 18.88 16.42C19.8 16.6 20.7 16.8 21.58 17.02C21.78 16.2 21.92 15.4 22.04 14.62C22.16 13.84 22.24 13.08 22.26 12.38C22.28 11.78 22.5 11.28 22.9 10.84C23.3 10.42 23.8 10.2 24.4 10.18C25 10.18 25.52 10.4 25.94 10.82C26.36 11.24 26.56 11.74 26.54 12.34C26.52 13.28 26.42 14.24 26.28 15.2C26.12 16.18 25.92 17.14 25.64 18.14C26.38 18.38 27.12 18.62 27.82 18.88C28.52 19.14 29.22 19.38 29.9 19.66C30.46 19.9 30.84 20.3 31.06 20.84C31.28 21.4 31.28 21.94 31.06 22.5C30.84 23.02 30.46 23.42 29.9 23.66C29.34 23.9 28.8 23.9 28.24 23.66C27.62 23.38 26.98 23.1 26.34 22.84C25.7 22.58 25.04 22.34 24.4 22.1C23.66 24.02 22.78 25.82 21.8 27.5C20.8 29.18 19.74 30.58 18.62 31.72C18.2 32.12 17.72 32.34 17.12 32.36C16.54 32.38 16 32.2 15.56 31.82L15.48 31.78ZM6.52002 23.24C7.10002 23 7.68002 22.6 8.28002 22.02C8.88002 21.44 9.46002 20.66 10.04 19.64C8.14002 19.8 6.80002 20.16 5.98002 20.72C5.18002 21.28 4.76002 21.88 4.74002 22.56C4.74002 22.94 4.90002 23.22 5.18002 23.36C5.48002 23.52 5.92002 23.48 6.50002 23.24H6.52002Z" fill="#010F32"/>
<path d="M38.74 31.5007C38.22 31.2807 37.84 30.8807 37.62 30.3207C37.4 29.7407 37.42 29.2007 37.66 28.6607C38.06 27.7807 38.58 26.6607 39.22 25.3207C39.86 23.9807 40.56 22.5207 41.3 20.9207C42.04 19.3207 42.82 17.7207 43.62 16.0607C44.42 14.4007 45.2 12.8007 45.96 11.2407C46.72 9.6807 47.44 8.2607 48.08 6.9807C48.72 5.7007 49.26 4.6407 49.7 3.8207C49.96 3.3007 50.38 2.9607 50.98 2.8007C51.58 2.6407 52.12 2.7207 52.62 3.0407C53.14 3.3607 53.48 3.8007 53.64 4.3607C53.8 4.9207 53.72 5.4607 53.4 6.0007C53.06 6.6007 52.62 7.4207 52.08 8.4407C51.54 9.4807 50.94 10.6407 50.28 11.9407C49.62 13.2407 48.94 14.6007 48.24 16.0007C49.08 15.6407 49.94 15.4607 50.8 15.4607C53.08 15.4607 54.64 16.1807 55.5 17.6207C56.36 19.0607 56.42 21.0207 55.74 23.5207C55.38 24.8207 55.34 25.7007 55.66 26.1807C55.98 26.6607 56.52 26.9007 57.34 26.9007C57.9 26.9007 58.42 26.7807 58.92 26.5207C59.42 26.2607 59.94 25.7607 60.46 24.9807C60.98 24.2207 61.54 23.0807 62.12 21.6007C62.34 21.0407 62.72 20.6607 63.28 20.4207C63.84 20.1807 64.38 20.1607 64.94 20.3407C65.5 20.5607 65.9 20.9407 66.14 21.5007C66.4 22.0607 66.4 22.6207 66.2 23.2007C65.24 25.8807 64.04 27.8807 62.62 29.2007C61.2 30.5207 59.38 31.1607 57.16 31.1607C55.64 31.1607 54.38 30.8407 53.34 30.2207C52.3 29.6007 51.62 28.6607 51.28 27.4007C50.94 26.1407 51.04 24.5607 51.56 22.6607C51.9 21.5007 51.94 20.7007 51.66 20.2407C51.4 19.7807 50.84 19.5407 50 19.5407C48.92 19.5407 47.92 19.8807 46.98 20.5407C46.04 21.2007 45.14 22.4807 44.24 24.3207C44.14 24.5207 43.98 24.9007 43.72 25.4607C43.46 26.0207 43.2 26.6407 42.9 27.3207C42.62 28.0007 42.34 28.6007 42.1 29.1407C41.84 29.6807 41.68 30.0407 41.62 30.2407C41.38 30.8007 40.98 31.2007 40.46 31.4807C39.92 31.7607 39.34 31.7807 38.72 31.5407L38.74 31.5007Z" fill="#010F32"/>
<path d="M77.1399 23.3207C76.6799 23.7007 76.1599 23.9007 75.5799 23.9007C74.9999 23.9007 74.4999 23.7007 74.0799 23.2807C73.6399 22.8407 73.4399 22.3207 73.4399 21.7207C73.4399 21.1207 73.6599 20.6207 74.1199 20.2207C75.4799 19.0007 76.6999 17.6007 77.7399 16.0407C78.7799 14.4807 79.6399 12.8607 80.3199 11.1807C79.6799 11.2807 79.0399 11.3407 78.4199 11.4007C77.7999 11.4407 77.2199 11.5007 76.6799 11.5407C76.0599 11.5607 75.5199 11.3807 75.0999 11.0007C74.6799 10.6207 74.4399 10.0807 74.4199 9.4207C74.3999 8.8207 74.5799 8.3207 74.9599 7.9207C75.3399 7.5207 75.8799 7.3207 76.5399 7.2807C77.2999 7.2407 78.1199 7.1607 78.9799 7.0607C79.8399 6.9607 80.6799 6.8607 81.5599 6.7407C81.6799 6.1807 81.7599 5.6207 81.7999 5.0407C81.8399 4.4607 81.8599 3.9207 81.8599 3.3807C81.8599 2.7807 82.0599 2.2607 82.4799 1.8407C82.8999 1.4207 83.3999 1.2207 83.9999 1.2207C84.5999 1.2207 85.1199 1.4207 85.5399 1.8407C85.9599 2.2607 86.1799 2.7807 86.1599 3.3807C86.1399 4.2007 86.0599 5.0407 85.9399 5.9407C86.0999 5.9007 86.2799 5.8607 86.4199 5.8207C86.5799 5.7807 86.7199 5.7607 86.8599 5.7407C87.4599 5.6007 88.0199 5.6607 88.5199 5.9607C89.0199 6.2407 89.3399 6.7007 89.4599 7.3207C89.5799 7.9207 89.4599 8.4607 89.1599 8.9407C88.8399 9.4207 88.3799 9.7407 87.8199 9.8807C87.4399 9.9807 86.9999 10.0807 86.4999 10.1607C85.9999 10.2407 85.4999 10.3607 84.9799 10.4407C84.2399 12.9607 83.1999 15.3407 81.8599 17.5607C80.5199 19.7807 78.9799 21.7007 77.1999 23.2807L77.1399 23.3207ZM86.7199 33.3007C84.8999 33.3007 83.3799 32.8407 82.1999 31.9207C81.0199 31.0007 80.4199 29.6407 80.4199 27.8407C80.4199 26.2007 80.9999 24.9007 82.1599 23.9407C83.3199 22.9607 84.8599 22.4807 86.7799 22.4807C87.4999 22.4807 88.1999 22.5207 88.8599 22.5807V15.7807C88.8599 15.1607 89.0599 14.6407 89.4799 14.2407C89.8799 13.8407 90.3999 13.6207 90.9999 13.6207C91.5999 13.6207 92.0999 13.8207 92.5199 14.2407C92.9199 14.6407 93.1399 15.1607 93.1399 15.7807V23.5607C94.4399 23.9607 95.6599 24.4607 96.8199 25.0607C97.9799 25.6607 98.9999 26.2607 99.8999 26.8807C100.38 27.2407 100.66 27.7207 100.76 28.3007C100.86 28.8807 100.72 29.4207 100.36 29.9007C100.02 30.3807 99.5599 30.6607 98.9799 30.7607C98.3999 30.8607 97.8599 30.7407 97.3799 30.4007C96.7999 29.9407 96.1399 29.5007 95.4199 29.0807C94.6999 28.6607 93.9199 28.2607 93.1399 27.9007C92.9999 29.6607 92.3799 30.9807 91.2999 31.9207C90.2199 32.8407 88.6999 33.3007 86.7199 33.3007ZM86.6799 29.3407C87.4799 29.3407 88.0399 29.1607 88.3799 28.8007C88.7199 28.4407 88.8799 27.8807 88.8799 27.1407V26.5207C88.4999 26.4207 88.1199 26.3607 87.7399 26.3207C87.3599 26.2807 87.0199 26.2607 86.6799 26.2607C85.9399 26.2607 85.3999 26.4007 85.0399 26.6807C84.6999 26.9607 84.5199 27.3407 84.5199 27.8207C84.5199 28.2807 84.6799 28.6407 85.0199 28.9207C85.3599 29.2007 85.8999 29.3407 86.6799 29.3407ZM97.9199 13.7807C97.1599 13.3007 96.2399 12.8007 95.1999 12.3007C94.1599 11.8007 93.2399 11.4207 92.4399 11.1807C91.8799 10.9807 91.4599 10.6607 91.1399 10.1807C90.8199 9.7007 90.7399 9.1807 90.8799 8.6007C90.9999 8.0207 91.3199 7.5807 91.8399 7.2607C92.3599 6.9407 92.8999 6.8807 93.4799 7.0407C94.1999 7.2407 94.9999 7.5007 95.8599 7.8607C96.7199 8.2207 97.5599 8.6007 98.3599 9.0207C99.1599 9.4207 99.8399 9.8207 100.36 10.1807C100.84 10.5007 101.14 10.9407 101.24 11.5407C101.34 12.1407 101.24 12.7007 100.9 13.2007C100.58 13.6807 100.14 13.9807 99.5599 14.0807C98.9799 14.1807 98.4199 14.0807 97.9199 13.7807Z" fill="#010F32"/>
<path d="M132.98 32.081C130.14 31.661 127.8 30.841 125.96 29.621C124.12 28.381 122.74 26.881 121.84 25.141C120.94 23.401 120.5 21.561 120.5 19.661C120.5 17.761 120.88 15.941 121.62 14.281C122.36 12.621 123.44 11.161 124.86 9.94097C123.42 10.161 121.88 10.401 120.26 10.681C118.62 10.961 117.04 11.241 115.52 11.501C114 11.761 112.66 12.021 111.5 12.241C110.9 12.341 110.36 12.201 109.9 11.841C109.44 11.481 109.14 11.021 109.06 10.441C108.96 9.84097 109.08 9.30097 109.44 8.84097C109.78 8.38097 110.26 8.08097 110.86 8.00097C111.62 7.88097 112.62 7.72097 113.82 7.52097C115.02 7.32097 116.36 7.10097 117.86 6.86097C119.36 6.62097 120.88 6.36097 122.44 6.10097C124 5.84097 125.52 5.58097 127.02 5.32097C128.52 5.06097 129.9 4.84097 131.14 4.62097C132.38 4.40097 133.4 4.22097 134.2 4.08097C134.76 3.98097 135.28 4.10097 135.76 4.44097C136.24 4.78097 136.54 5.22097 136.64 5.78097C136.76 6.36097 136.68 6.90097 136.38 7.40097C136.08 7.90097 135.64 8.20097 135.06 8.30097C133.38 8.56097 131.9 9.08097 130.64 9.82097C129.38 10.561 128.3 11.481 127.42 12.561C126.54 13.621 125.88 14.761 125.44 15.941C125 17.121 124.78 18.301 124.78 19.441C124.78 21.761 125.58 23.641 127.16 25.081C128.74 26.521 130.9 27.421 133.64 27.801C134.22 27.901 134.68 28.181 135.04 28.661C135.4 29.141 135.54 29.661 135.44 30.241C135.36 30.841 135.1 31.321 134.62 31.681C134.14 32.041 133.62 32.181 133.04 32.081H132.98ZM137.56 17.361C137.24 17.621 136.86 17.741 136.42 17.681C135.98 17.621 135.62 17.421 135.36 17.061C135.1 16.721 134.76 16.301 134.36 15.781C133.96 15.261 133.58 14.821 133.24 14.441C133.02 14.181 132.92 13.861 132.94 13.481C132.94 13.101 133.12 12.801 133.42 12.521C133.7 12.261 134.04 12.121 134.42 12.141C134.8 12.141 135.14 12.301 135.44 12.561C135.8 12.881 136.22 13.281 136.68 13.781C137.14 14.281 137.54 14.741 137.84 15.141C138.1 15.481 138.2 15.861 138.14 16.301C138.08 16.741 137.88 17.081 137.54 17.341L137.56 17.361ZM141.02 14.261C140.7 14.581 140.34 14.721 139.88 14.701C139.44 14.681 139.06 14.501 138.78 14.161C138.5 13.821 138.12 13.421 137.68 12.941C137.24 12.461 136.84 12.041 136.48 11.681C136.24 11.441 136.12 11.121 136.1 10.741C136.1 10.361 136.22 10.021 136.52 9.74097C136.78 9.48097 137.1 9.34097 137.5 9.32097C137.88 9.32097 138.24 9.42097 138.54 9.66097C138.92 9.92097 139.36 10.301 139.88 10.761C140.38 11.221 140.8 11.661 141.14 12.081C141.42 12.401 141.56 12.761 141.54 13.181C141.52 13.601 141.34 13.961 141.04 14.281L141.02 14.261Z" fill="#010F32"/>
<path d="M148.36 34.02C147.76 34.02 147.28 33.86 146.9 33.52C146.52 33.18 146.32 32.72 146.26 32.16C146.18 31.6 146.32 31.12 146.66 30.7C147 30.28 147.46 30.04 148.06 29.96C148.78 29.88 149.26 29.74 149.5 29.52C149.74 29.3 149.86 28.9 149.86 28.3V24.16C149.18 24.6 148.46 25.06 147.66 25.56C146.86 26.06 146.18 26.48 145.58 26.78C145 27.06 144.48 27.12 144 26.94C143.52 26.76 143.16 26.42 142.92 25.92C142.7 25.44 142.68 24.98 142.84 24.52C143 24.06 143.32 23.72 143.84 23.48C144.36 23.24 145 22.92 145.74 22.48C146.48 22.06 147.22 21.62 147.98 21.18C148.74 20.74 149.38 20.36 149.9 20.04V11.08H144.86C144.3 11.08 143.86 10.9 143.52 10.54C143.18 10.18 143.02 9.74 143.02 9.24C143.02 8.74 143.18 8.26 143.52 7.9C143.86 7.54 144.3 7.36 144.86 7.36H149.9V2.44C149.9 1.82 150.08 1.34 150.46 1C150.84 0.66 151.3 0.5 151.84 0.5C152.38 0.5 152.86 0.66 153.24 1C153.62 1.34 153.82 1.82 153.82 2.44V7.38H158.46C159.04 7.38 159.5 7.56 159.82 7.92C160.16 8.28 160.32 8.72 160.32 9.26C160.32 9.8 160.16 10.2 159.82 10.56C159.48 10.92 159.02 11.1 158.46 11.1H153.82V15.34C154.3 14.84 154.78 14.32 155.24 13.8C155.7 13.28 156.08 12.88 156.34 12.56C156.68 12.18 157.1 11.98 157.64 11.98C158.18 11.98 158.58 12.12 158.9 12.42C159.28 12.74 159.5 13.12 159.54 13.6C159.58 14.08 159.42 14.5 159.1 14.86C158.82 15.2 158.38 15.64 157.8 16.2L156.08 17.9C155.5 18.46 155.04 18.9 154.68 19.22C154.44 19.46 154.16 19.6 153.86 19.66V19.8C154.36 20.06 155.02 20.42 155.82 20.88C156.62 21.34 157.42 21.8 158.22 22.26C159.02 22.72 159.64 23.12 160.1 23.42C160.56 23.74 160.82 24.12 160.92 24.6C161.02 25.08 160.88 25.56 160.58 26.04C160.3 26.48 159.88 26.74 159.36 26.86C158.84 26.98 158.32 26.86 157.84 26.56C157.38 26.24 156.78 25.84 156.04 25.32C155.3 24.8 154.58 24.32 153.88 23.86V29.12C153.88 30.78 153.46 32 152.66 32.8C151.84 33.6 150.44 34 148.44 34L148.36 34.02ZM148.44 19C147.98 19.24 147.52 19.3 147.06 19.2C146.6 19.1 146.22 18.82 145.96 18.36C145.84 18.1 145.66 17.76 145.4 17.36C145.14 16.96 144.9 16.56 144.64 16.18C144.38 15.8 144.18 15.48 144.04 15.26C143.76 14.82 143.7 14.38 143.88 13.92C144.06 13.46 144.34 13.12 144.72 12.92C145.12 12.68 145.58 12.6 146.06 12.66C146.54 12.74 146.94 13 147.24 13.48C147.38 13.7 147.58 14 147.84 14.4C148.1 14.8 148.34 15.2 148.62 15.58C148.9 15.96 149.08 16.28 149.2 16.5C149.48 16.98 149.54 17.46 149.34 17.94C149.14 18.42 148.84 18.76 148.44 18.98V19ZM157.4 6.08C157.16 5.82 156.82 5.5 156.4 5.12C155.96 4.74 155.64 4.46 155.4 4.28C155.06 4 154.9 3.62 154.9 3.16C154.9 2.7 155.04 2.32 155.3 2C155.62 1.64 156 1.42 156.46 1.36C156.92 1.3 157.34 1.4 157.72 1.72C157.96 1.88 158.32 2.18 158.78 2.56C159.24 2.96 159.6 3.26 159.84 3.48C160.2 3.8 160.38 4.2 160.38 4.68C160.38 5.16 160.22 5.58 159.88 5.92C159.54 6.24 159.14 6.42 158.66 6.46C158.18 6.5 157.78 6.38 157.44 6.06L157.4 6.08ZM160.5 33.54C159.94 33.86 159.4 33.94 158.84 33.78C158.28 33.62 157.86 33.28 157.54 32.76C157.3 32.28 157.28 31.78 157.46 31.28C157.64 30.78 157.98 30.4 158.48 30.16C159.96 29.4 161.3 28.52 162.46 27.54C163.62 26.56 164.66 25.46 165.54 24.26C164.9 23.06 164.32 21.82 163.84 20.52C163.36 19.22 162.98 17.86 162.68 16.46C162.52 16.78 162.36 17.08 162.22 17.36C162.08 17.64 161.92 17.92 161.76 18.18C161.48 18.66 161.06 18.98 160.54 19.14C160.02 19.3 159.5 19.26 159 19.02C158.54 18.78 158.24 18.42 158.12 17.92C158 17.42 158.04 16.96 158.28 16.5C159.04 15.22 159.78 13.76 160.46 12.08C161.14 10.4 161.72 8.72 162.2 7C162.68 5.28 163.02 3.74 163.2 2.34C163.28 1.72 163.52 1.26 163.94 0.98C164.36 0.7 164.84 0.58 165.36 0.66C165.94 0.74 166.38 0.96 166.7 1.34C167.02 1.72 167.12 2.22 167 2.86C166.9 3.68 166.76 4.52 166.56 5.4C166.36 6.28 166.12 7.18 165.86 8.08H174.82C175.38 8.08 175.82 8.26 176.16 8.6C176.5 8.94 176.66 9.38 176.66 9.88C176.66 10.38 176.5 10.8 176.16 11.16C175.82 11.5 175.38 11.68 174.82 11.68H173.64C173.4 14.16 173 16.44 172.42 18.54C171.84 20.64 171.06 22.56 170.08 24.32C170.84 25.3 171.7 26.24 172.66 27.12C173.6 28 174.64 28.82 175.78 29.58C176.28 29.92 176.58 30.38 176.66 30.96C176.74 31.54 176.6 32.08 176.2 32.56C175.82 33.06 175.32 33.34 174.7 33.38C174.08 33.42 173.52 33.26 173 32.88C171 31.4 169.26 29.66 167.78 27.7C166.82 28.88 165.74 29.94 164.54 30.92C163.34 31.9 162 32.78 160.5 33.56V33.54ZM167.74 20.44C168.32 19.12 168.78 17.72 169.12 16.26C169.46 14.8 169.72 13.26 169.86 11.66H165.58C165.8 14.94 166.52 17.88 167.74 20.44Z" fill="#010F32"/>
<path d="M199.18 32.4391C198.58 32.4191 198.08 32.1991 197.66 31.7791C197.24 31.3591 197.04 30.8591 197.06 30.2591C197.06 29.6391 197.28 29.1191 197.7 28.6991C198.14 28.2791 198.64 28.0791 199.24 28.0991C201.2 28.1191 202.7 27.8191 203.72 27.1591C204.74 26.5191 205.24 25.5191 205.24 24.1991C205.24 22.8791 204.68 21.9591 203.56 21.2791C202.44 20.5991 200.86 20.2791 198.8 20.2791C197.98 20.2791 197.2 20.3191 196.46 20.3791C195.72 20.4391 195 20.5391 194.3 20.6591V25.1991C194.3 27.6791 193.74 29.4991 192.6 30.6591C191.48 31.8191 189.84 32.3991 187.7 32.3991C185.98 32.3991 184.54 31.9591 183.38 31.0591C182.22 30.1791 181.66 28.7591 181.66 26.8191C181.66 24.8791 182.42 23.0391 183.9 21.4591C185.38 19.8791 187.44 18.6391 190.04 17.7591V12.3991C189 12.4991 188 12.5591 187.04 12.6191C186.08 12.6791 185.16 12.6991 184.32 12.7191C183.72 12.7191 183.2 12.5191 182.78 12.0991C182.36 11.6791 182.14 11.1791 182.14 10.5791C182.14 9.97906 182.34 9.47906 182.78 9.05906C183.2 8.65906 183.7 8.43906 184.3 8.43906C185.14 8.41906 186.06 8.37906 187.04 8.33906C188.02 8.29906 189.04 8.23906 190.06 8.15906V3.73906C190.06 3.11906 190.26 2.59906 190.68 2.17906C191.1 1.75906 191.6 1.53906 192.2 1.53906C192.8 1.53906 193.3 1.75906 193.72 2.17906C194.12 2.59906 194.34 3.11906 194.34 3.73906V7.79906C194.9 7.75906 195.4 7.69906 195.88 7.61906C196.36 7.53906 196.82 7.47906 197.28 7.43906C197.88 7.33906 198.42 7.43906 198.9 7.75906C199.38 8.07906 199.66 8.51906 199.76 9.11906C199.86 9.71906 199.72 10.2391 199.36 10.6591C199 11.0991 198.52 11.3591 197.92 11.4591C197.42 11.5591 196.86 11.6391 196.24 11.7191C195.62 11.7991 194.98 11.8791 194.32 11.9791V16.7391C195.76 16.5191 197.28 16.4191 198.9 16.4191C201.1 16.4191 203.02 16.7391 204.62 17.3591C206.22 17.9791 207.46 18.8791 208.34 20.0391C209.22 21.1991 209.66 22.5991 209.66 24.1991C209.66 26.8591 208.74 28.9191 206.88 30.3991C205.04 31.8591 202.46 32.5391 199.18 32.4591V32.4391ZM187.74 28.2991C188.46 28.2991 189.02 28.0991 189.44 27.6791C189.86 27.2591 190.08 26.4391 190.08 25.1991V21.9591C188.78 22.5591 187.78 23.2791 187.08 24.0991C186.38 24.9191 186.02 25.7791 186.02 26.6791C186.02 27.7591 186.6 28.2991 187.74 28.2991ZM207.04 14.9391C206.66 14.6591 206.18 14.3391 205.64 13.9791C205.08 13.6391 204.54 13.2991 203.98 12.9791C203.42 12.6591 202.94 12.3991 202.54 12.1991C202.02 11.9391 201.64 11.5191 201.4 10.9791C201.18 10.4191 201.18 9.87906 201.4 9.35906C201.68 8.77906 202.12 8.41906 202.68 8.23906C203.24 8.07906 203.78 8.11906 204.32 8.37906C204.82 8.61906 205.4 8.93906 206.04 9.31906C206.68 9.69906 207.32 10.0991 207.96 10.4791C208.6 10.8791 209.12 11.2391 209.52 11.5391C210 11.8791 210.28 12.3391 210.34 12.8991C210.42 13.4791 210.28 13.9991 209.94 14.4791C209.58 14.9391 209.12 15.1991 208.56 15.2791C208 15.3591 207.48 15.2391 207 14.8991L207.04 14.9391Z" fill="#010F32"/>
<path d="M233.14 33.4408C232.68 33.8208 232.16 34.0208 231.54 34.0008C230.92 34.0008 230.42 33.7608 230.02 33.3008C229.64 32.8408 229.44 32.3208 229.46 31.7208C229.48 31.1208 229.7 30.6208 230.16 30.2408C232.08 28.5608 233.54 26.7408 234.54 24.7608C235.54 22.7808 236.04 20.6008 236.04 18.1808C236.04 16.5808 235.62 15.4008 234.76 14.6608C233.9 13.9208 232.78 13.5408 231.4 13.5408C230.36 13.5408 229.32 13.7808 228.24 14.2808C227.18 14.7808 226.14 15.4808 225.16 16.3808C224.7 16.7608 224.18 16.9408 223.6 16.9008C223.02 16.8608 222.52 16.6208 222.1 16.1608C221.72 15.7008 221.54 15.1808 221.6 14.6008C221.64 14.0208 221.88 13.5208 222.32 13.1408C223.72 11.8608 225.18 10.9408 226.74 10.3608C228.3 9.78077 229.84 9.48077 231.38 9.48077C233.08 9.48077 234.6 9.80077 235.96 10.4408C237.3 11.0808 238.36 12.0408 239.14 13.3208C239.92 14.6008 240.3 16.2408 240.3 18.2008C240.3 21.2408 239.66 24.0808 238.4 26.7008C237.12 29.3208 235.38 31.5808 233.14 33.4608V33.4408ZM235.8 8.14077C234.74 7.86077 233.64 7.52077 232.48 7.14077C231.32 6.76077 230.22 6.36077 229.14 5.94077C228.06 5.50077 227.12 5.10077 226.3 4.72077C225.78 4.46077 225.42 4.04077 225.22 3.48077C225.02 2.92077 225.06 2.38077 225.32 1.84077C225.58 1.28077 226 0.920773 226.6 0.760773C227.2 0.600773 227.74 0.640773 228.28 0.900773C229.48 1.42077 230.84 1.98077 232.38 2.54077C233.92 3.10077 235.42 3.58077 236.88 3.96077C237.46 4.10077 237.9 4.44077 238.2 4.96077C238.5 5.48077 238.58 6.02077 238.44 6.60077C238.3 7.18077 237.96 7.62077 237.44 7.92077C236.92 8.22077 236.38 8.30077 235.8 8.16077V8.14077Z" fill="#010F32"/>
<path d="M258.4 33.1194C257.56 33.1194 256.84 32.8194 256.24 32.2194C255.64 31.6194 255.34 30.8994 255.34 30.0594C255.34 29.2194 255.64 28.4994 256.24 27.8994C256.84 27.2994 257.56 26.9994 258.4 26.9994C259.24 26.9994 259.96 27.2994 260.56 27.8994C261.16 28.4994 261.46 29.2194 261.46 30.0594C261.46 30.8994 261.16 31.6194 260.56 32.2194C259.96 32.8194 259.24 33.1194 258.4 33.1194ZM258.4 24.3394C257.92 24.3394 257.5 24.1794 257.14 23.8394C256.78 23.4994 256.58 23.0794 256.52 22.5794C256.44 21.6594 256.38 20.6194 256.32 19.4394C256.26 18.2594 256.2 17.0594 256.12 15.8194C256.04 14.5794 255.98 13.3994 255.94 12.2794C255.9 11.1594 255.86 10.1594 255.84 9.29938C255.82 8.43938 255.8 7.79937 255.8 7.39937V3.83938C255.8 3.13938 256.04 2.55938 256.54 2.07938C257.04 1.59938 257.64 1.35938 258.4 1.35938C259.16 1.35938 259.8 1.59938 260.3 2.07938C260.8 2.55938 261.04 3.13938 261.04 3.83938V7.39937C261.04 7.79937 261.04 8.43938 260.98 9.29938C260.94 10.1594 260.9 11.1594 260.86 12.2794C260.82 13.3994 260.76 14.5994 260.7 15.8194C260.64 17.0594 260.58 18.2594 260.5 19.4394C260.42 20.6194 260.36 21.6594 260.28 22.5794C260.26 23.0794 260.06 23.4994 259.7 23.8394C259.34 24.1794 258.9 24.3394 258.4 24.3394Z" fill="#010F32"/>
<path d="M282.3 33.5392C281.6 33.6192 281.02 33.4992 280.54 33.1992C280.06 32.8992 279.76 32.4592 279.64 31.8792C279.52 31.2392 279.62 30.6592 279.92 30.1792C280.22 29.6992 280.7 29.4392 281.32 29.3792C282.2 29.2792 282.92 29.0592 283.44 28.7392C283.96 28.3992 284.36 27.7792 284.6 26.8792C284.86 25.9792 284.98 24.6592 284.98 22.8992C284.98 21.7792 284.94 20.7192 284.88 19.7592C284.36 20.5192 283.8 21.2792 283.24 22.0192C282.68 22.7592 282.14 23.4192 281.64 23.9592C281.26 24.3992 280.78 24.6392 280.22 24.7192C279.66 24.7992 279.14 24.6392 278.66 24.2592C278.22 23.9192 278 23.4992 277.98 22.9592C277.96 22.4192 278.12 21.9792 278.48 21.5992C279.1 20.9192 279.76 20.1592 280.46 19.2792C281.16 18.3992 281.82 17.5192 282.46 16.5992C283.1 15.6792 283.62 14.8592 284.02 14.1192C283.9 13.6392 283.76 13.1792 283.6 12.7392C283.44 12.2992 283.28 11.8592 283.12 11.4192C282.48 12.0992 281.84 12.7192 281.24 13.2992C280.84 13.6792 280.36 13.8792 279.8 13.8792C279.24 13.8792 278.76 13.6792 278.36 13.2992C277.98 12.9192 277.78 12.4592 277.8 11.9192C277.8 11.3792 278 10.9392 278.4 10.5992C279.32 9.77922 280.24 8.83922 281.2 7.79922C280.84 7.23922 280.46 6.69922 280.04 6.11922C279.64 5.55922 279.2 4.99922 278.74 4.43922C278.42 4.03922 278.32 3.57922 278.44 3.09922C278.54 2.61922 278.8 2.23922 279.22 1.93922C279.62 1.65922 280.08 1.53922 280.58 1.59922C281.08 1.65922 281.5 1.89922 281.84 2.29922C282.52 3.05922 283.14 3.87922 283.72 4.71922C284.06 4.25922 284.38 3.81922 284.68 3.35922C284.98 2.91922 285.24 2.49922 285.48 2.07922C285.8 1.55922 286.2 1.21922 286.72 1.05922C287.24 0.899219 287.74 0.979219 288.26 1.25922C288.74 1.51922 289.04 1.89922 289.16 2.41922C289.28 2.91922 289.2 3.41922 288.94 3.89922C288.56 4.57922 288.1 5.27922 287.56 6.03922C287.02 6.79922 286.46 7.53922 285.86 8.27922C286.86 10.2992 287.62 12.4792 288.1 14.8592C288.6 17.2192 288.84 19.8992 288.84 22.8992C288.84 25.5792 288.58 27.6592 288.08 29.1392C287.58 30.6192 286.84 31.6792 285.86 32.2992C284.88 32.9392 283.7 33.3392 282.28 33.4992L282.3 33.5392ZM295.94 13.1592C295.38 13.1592 294.9 12.9992 294.5 12.6592C294.1 12.3192 293.88 11.8392 293.88 11.1792V8.93922H290.1C289.54 8.93922 289.1 8.75922 288.78 8.41922C288.46 8.07922 288.3 7.63922 288.3 7.13922C288.3 6.63922 288.46 6.21922 288.78 5.85922C289.1 5.51922 289.54 5.33922 290.1 5.33922H293.88V2.67922C293.88 1.99922 294.08 1.51922 294.5 1.17922C294.92 0.839219 295.38 0.699219 295.94 0.699219C296.5 0.699219 296.96 0.859219 297.36 1.17922C297.76 1.49922 297.96 1.99922 297.96 2.67922V5.33922H301.74V2.67922C301.74 1.99922 301.94 1.51922 302.36 1.17922C302.78 0.839219 303.24 0.699219 303.76 0.699219C304.28 0.699219 304.78 0.859219 305.18 1.17922C305.58 1.49922 305.78 1.99922 305.78 2.67922V5.33922H309.66C310.22 5.33922 310.66 5.51922 310.98 5.85922C311.3 6.19922 311.46 6.63922 311.46 7.13922C311.46 7.63922 311.3 8.05922 310.98 8.41922C310.66 8.77922 310.22 8.93922 309.66 8.93922H305.78V11.1792C305.78 11.8192 305.58 12.3192 305.18 12.6592C304.78 12.9992 304.32 13.1592 303.76 13.1592C303.2 13.1592 302.76 12.9992 302.36 12.6592C301.96 12.3192 301.74 11.8392 301.74 11.1792V8.93922H297.96V11.1792C297.96 11.8192 297.76 12.3192 297.36 12.6592C296.96 12.9992 296.48 13.1592 295.94 13.1592ZM297.46 32.9992C294.96 32.9992 293.18 32.5192 292.12 31.5392C291.06 30.5592 290.52 28.8792 290.52 26.4792V20.3192C290.52 17.9392 291.06 16.2592 292.12 15.2792C293.18 14.2992 294.96 13.7992 297.46 13.7992H302.72C305.22 13.7992 307 14.2992 308.06 15.2792C309.12 16.2592 309.66 17.9392 309.66 20.3192V26.4792C309.66 28.8792 309.12 30.5592 308.06 31.5392C307 32.5192 305.22 32.9992 302.72 32.9992H297.46ZM294.58 21.5792H298.22V17.6192H297.76C296.9 17.6192 296.24 17.6992 295.78 17.8392C295.32 17.9792 295.02 18.2392 294.84 18.6392C294.68 19.0192 294.58 19.5992 294.58 20.3592V21.5792ZM297.74 29.2192H298.2V25.2592H294.56V26.4392C294.56 27.5592 294.76 28.3192 295.18 28.6792C295.58 29.0392 296.44 29.2192 297.74 29.2192ZM301.96 21.5792H305.6V20.3592C305.6 19.5992 305.52 19.0192 305.34 18.6392C305.18 18.2592 304.86 17.9992 304.42 17.8392C303.98 17.6992 303.32 17.6192 302.42 17.6192H301.96V21.5792ZM301.96 29.2192H302.42C303.3 29.2192 303.98 29.1392 304.42 28.9992C304.86 28.8592 305.18 28.5792 305.34 28.1792C305.5 27.7792 305.6 27.1992 305.6 26.4592V25.2792H301.96V29.2392V29.2192Z" fill="#010F32"/>
<path d="M334.26 30.8194C333.66 30.9594 333.1 30.8794 332.56 30.5594C332.04 30.2394 331.7 29.7994 331.56 29.2194C331.42 28.6394 331.5 28.0994 331.82 27.5794C332.14 27.0594 332.58 26.7394 333.16 26.5794C335.82 25.8794 337.78 24.7594 339.04 23.1994C340.3 21.6394 340.94 19.6594 340.94 17.2594C340.94 15.7394 340.6 14.3994 339.94 13.1994C339.26 11.9994 338.32 11.0194 337.08 10.2794C335.84 9.53937 334.36 9.07937 332.64 8.91937C332.2 12.9594 331.48 16.4394 330.46 19.3794C329.44 22.3194 328.24 24.5794 326.86 26.1794C325.48 27.7794 324.04 28.5794 322.52 28.5794C321.24 28.5794 320.08 28.1994 319.02 27.4594C317.96 26.7194 317.12 25.6394 316.52 24.2594C315.92 22.8794 315.6 21.1994 315.6 19.2594C315.6 17.3194 315.98 15.3994 316.74 13.6594C317.5 11.9194 318.56 10.3794 319.96 9.07937C321.36 7.75937 322.98 6.71937 324.88 5.97937C326.76 5.23937 328.84 4.85938 331.1 4.85938C333.84 4.85938 336.26 5.37937 338.38 6.41937C340.5 7.45937 342.18 8.91937 343.4 10.7794C344.62 12.6394 345.24 14.7994 345.24 17.2794C345.24 20.7594 344.3 23.6594 342.44 25.9794C340.58 28.2994 337.86 29.9194 334.28 30.8194H334.26ZM322.52 24.1594C322.96 24.1594 323.44 23.7994 324.02 23.0594C324.58 22.3194 325.16 21.2994 325.74 19.9394C326.32 18.5794 326.84 16.9994 327.32 15.1794C327.8 13.3594 328.16 11.2994 328.4 9.07937C326.52 9.43937 324.96 10.1194 323.68 11.1394C322.4 12.1594 321.44 13.3794 320.8 14.7794C320.16 16.1794 319.82 17.6594 319.8 19.1994C319.8 20.8394 320.06 22.0594 320.58 22.8994C321.1 23.7394 321.74 24.1594 322.54 24.1594H322.52Z" fill="#010F32"/>
<path d="M352.04 32.2602C351.52 32.2602 351.06 32.0602 350.68 31.6602C350.3 31.2602 350.1 30.8002 350.1 30.2802C350.1 29.7602 350.3 29.2602 350.68 28.9002C351.06 28.5202 351.52 28.3402 352.04 28.3402H364.68V21.6802H357.04C356.52 21.6802 356.04 21.4802 355.66 21.1002C355.28 20.7202 355.06 20.2402 355.06 19.7002C355.06 19.1602 355.26 18.6802 355.66 18.3202C356.06 17.9402 356.52 17.7602 357.04 17.7602H364.68V12.1802H357.08C356.62 13.0002 356.14 13.7802 355.64 14.5402C355.14 15.3002 354.64 15.9802 354.16 16.6202C353.78 17.1202 353.28 17.4602 352.64 17.6202C352.02 17.7802 351.42 17.6602 350.88 17.2802C350.4 16.9602 350.12 16.5202 350.02 15.9402C349.92 15.3602 350.04 14.8402 350.38 14.4002C351.1 13.4802 351.84 12.3802 352.62 11.0802C353.4 9.78023 354.14 8.46023 354.84 7.08023C355.54 5.72023 356.08 4.46023 356.5 3.34023C356.74 2.68023 357.14 2.24023 357.66 2.02023C358.2 1.82023 358.76 1.80023 359.38 2.02023C359.94 2.18023 360.34 2.54023 360.58 3.06023C360.82 3.58023 360.84 4.16023 360.58 4.78023C360.14 5.94023 359.64 7.12023 359.06 8.34023H364.64V3.02023C364.64 2.32023 364.86 1.78023 365.3 1.36023C365.74 0.940234 366.28 0.740234 366.9 0.740234C367.52 0.740234 368.06 0.940234 368.5 1.36023C368.94 1.76023 369.16 2.32023 369.16 3.02023V8.32023H379.34C379.9 8.32023 380.36 8.50023 380.72 8.88023C381.1 9.26023 381.28 9.70023 381.28 10.2202C381.28 10.7402 381.1 11.2002 380.72 11.5802C380.34 11.9602 379.88 12.1602 379.34 12.1602H369.16V17.7402H376.62C377.18 17.7402 377.64 17.9202 378.02 18.3002C378.4 18.6802 378.6 19.1402 378.6 19.6802C378.6 20.2202 378.4 20.7002 378.02 21.0802C377.64 21.4602 377.16 21.6602 376.62 21.6602H369.16V28.3202H380.64C381.2 28.3202 381.66 28.5002 382.02 28.8802C382.4 29.2602 382.58 29.7202 382.58 30.2602C382.58 30.8002 382.4 31.2602 382.02 31.6402C381.64 32.0402 381.18 32.2402 380.64 32.2402H351.98L352.04 32.2602Z" fill="#010F32"/>
<path d="M391.02 16.1594C390.68 15.9194 390.26 15.6394 389.72 15.2994C389.18 14.9594 388.66 14.6394 388.16 14.3194C387.64 13.9994 387.24 13.7594 386.92 13.5994C386.44 13.3394 386.14 12.9194 386.02 12.3794C385.9 11.8194 385.98 11.3194 386.24 10.8394C386.5 10.3194 386.94 9.97941 387.54 9.83941C388.14 9.69941 388.7 9.77941 389.24 10.0394C389.56 10.1994 389.98 10.4394 390.5 10.7394C391.02 11.0394 391.56 11.3594 392.08 11.6794C392.6 11.9994 393.04 12.2794 393.38 12.5194C393.88 12.8594 394.2 13.3194 394.34 13.9194C394.48 14.5194 394.36 15.0794 394.04 15.5794C393.72 16.0794 393.24 16.3794 392.66 16.4994C392.08 16.5994 391.54 16.4994 391.06 16.1594H391.02ZM387.78 32.7594C387.22 32.4394 386.88 31.9794 386.72 31.3594C386.56 30.7394 386.66 30.1594 386.98 29.6394C387.44 28.8994 387.94 28.0194 388.5 26.9994C389.06 25.9794 389.62 24.9394 390.14 23.8794C390.66 22.8194 391.08 21.9194 391.4 21.1394C391.62 20.5794 392 20.1994 392.56 19.9794C393.12 19.7594 393.68 19.7794 394.28 20.0394C394.84 20.2794 395.18 20.6794 395.34 21.2394C395.5 21.7994 395.48 22.3594 395.28 22.9194C395.06 23.4994 394.78 24.1594 394.44 24.9394C394.1 25.6994 393.7 26.4994 393.28 27.3394C392.86 28.1794 392.44 28.9794 392.04 29.7594C391.64 30.5394 391.28 31.2194 390.96 31.7994C390.64 32.3594 390.18 32.7394 389.54 32.9594C388.9 33.1794 388.3 33.1194 387.76 32.8194L387.78 32.7594ZM392.68 7.99941C392.34 7.75941 391.9 7.47941 391.36 7.13941C390.82 6.79941 390.3 6.47941 389.8 6.13941C389.3 5.79941 388.88 5.57941 388.58 5.39941C388.08 5.13941 387.76 4.73941 387.66 4.19941C387.56 3.65941 387.62 3.13941 387.86 2.63941C388.12 2.13941 388.56 1.81941 389.18 1.65941C389.8 1.51941 390.36 1.57941 390.9 1.87941C391.22 2.01941 391.62 2.25941 392.14 2.55941C392.66 2.87941 393.18 3.19941 393.72 3.51941C394.26 3.83941 394.7 4.11941 395.04 4.35941C395.54 4.69941 395.86 5.15941 396 5.73941C396.14 6.31941 396.02 6.87941 395.7 7.41941C395.36 7.89941 394.9 8.19941 394.32 8.29941C393.74 8.39941 393.2 8.29941 392.72 7.99941H392.68ZM405.86 33.0594C403.9 33.0594 402.34 32.8594 401.22 32.4394C400.1 32.0394 399.3 31.3194 398.82 30.3194C398.36 29.3194 398.12 27.9394 398.12 26.1794C398.12 24.4194 398.32 23.1394 398.74 22.1394C399.16 21.1594 399.86 20.4394 400.86 20.0194C401.86 19.5794 403.22 19.3394 404.98 19.2994V14.5794H397.1C396.5 14.5794 396.04 14.3994 395.7 14.0194C395.36 13.6394 395.2 13.1994 395.2 12.6794C395.2 12.1594 395.36 11.6994 395.7 11.3394C396.04 10.9594 396.5 10.7794 397.1 10.7794H404.98V6.49941C403.94 6.59941 402.92 6.67941 401.92 6.75941C400.92 6.83941 399.98 6.89941 399.14 6.93941C398.46 6.95941 397.92 6.81941 397.52 6.51941C397.12 6.21941 396.88 5.75941 396.84 5.13941C396.82 4.57941 397 4.13941 397.36 3.77941C397.74 3.41941 398.22 3.21941 398.82 3.19941C399.9 3.17941 401.1 3.11941 402.44 2.99941C403.78 2.89941 405.12 2.75941 406.48 2.59941C407.84 2.43941 409.14 2.25941 410.36 2.07941C411.58 1.87941 412.64 1.67941 413.52 1.45941C414.2 1.31941 414.78 1.33941 415.28 1.53941C415.78 1.73941 416.1 2.11941 416.26 2.67941C416.38 3.19941 416.32 3.71941 416.08 4.19941C415.84 4.69941 415.4 4.99941 414.78 5.11941C414.04 5.27941 413.18 5.45941 412.22 5.59941C411.26 5.75941 410.26 5.89941 409.2 6.01941V10.7794H417.2C417.8 10.7794 418.26 10.9594 418.6 11.3394C418.94 11.7194 419.1 12.1594 419.1 12.6794C419.1 13.1994 418.94 13.6594 418.6 14.0194C418.26 14.3994 417.8 14.5794 417.2 14.5794H409.2V19.2994C410.96 19.3194 412.34 19.5594 413.34 19.9994C414.34 20.4394 415.06 21.1594 415.5 22.1394C415.94 23.1194 416.14 24.4594 416.14 26.1794C416.14 27.8994 415.9 29.3194 415.44 30.3194C414.98 31.3194 414.18 32.0394 413.06 32.4394C411.94 32.8394 410.4 33.0594 408.44 33.0594H405.82H405.86ZM405.86 29.2794H408.48C409.4 29.2794 410.1 29.1994 410.6 29.0394C411.1 28.8794 411.46 28.5794 411.66 28.1194C411.86 27.6594 411.96 26.9994 411.96 26.1394C411.96 24.8594 411.72 24.0394 411.24 23.6394C410.76 23.2394 409.84 23.0394 408.46 23.0394H405.84C404.44 23.0394 403.52 23.2394 403.06 23.6594C402.6 24.0794 402.36 24.8794 402.36 26.0994C402.36 26.9794 402.46 27.6594 402.64 28.1194C402.84 28.5794 403.18 28.8794 403.7 29.0394C404.22 29.1994 404.92 29.2794 405.84 29.2794H405.86Z" fill="#010F32"/>
</g>
<defs>
<clipPath id="clip0_426_312">
<rect width="418.64" height="33.52" fill="white" transform="translate(0.5 0.5)"/>
</clipPath>
</defs>
</svg>
