<svg width="478" height="57" viewBox="0 0 478 57" fill="none" xmlns="http://www.w3.org/2000/svg">
<path d="M3.02601 20.914C2.61534 20.9287 2.27801 20.826 2.01401 20.606C1.76467 20.4007 1.61801 20.1147 1.57401 19.748C1.54467 19.396 1.64001 19.0953 1.86001 18.846C2.08001 18.582 2.38067 18.4207 2.76201 18.362C3.18734 18.318 3.45867 18.2373 3.57601 18.12C3.70801 18.0027 3.77401 17.7753 3.77401 17.438V13.588C3.56867 13.6613 3.36334 13.7347 3.15801 13.808C2.95267 13.8667 2.76934 13.9327 2.60801 14.006C2.21201 14.138 1.85267 14.1307 1.53001 13.984C1.22201 13.8227 1.00934 13.5587 0.892006 13.192C0.789339 12.8253 0.811339 12.4953 0.958006 12.202C1.11934 11.894 1.40534 11.6813 1.81601 11.564C2.09467 11.4907 2.39534 11.4027 2.71801 11.3C3.05534 11.1827 3.40734 11.0653 3.77401 10.948V7.164H2.01401C1.69134 7.164 1.41267 7.054 1.17801 6.834C0.958006 6.59933 0.848006 6.32067 0.848006 5.998C0.848006 5.67533 0.958006 5.404 1.17801 5.184C1.41267 4.94933 1.69134 4.832 2.01401 4.832H3.77401V1.62C3.77401 1.25333 3.89134 0.959999 4.12601 0.739999C4.36067 0.519999 4.64667 0.409999 4.98401 0.409999C5.32134 0.409999 5.60001 0.519999 5.82001 0.739999C6.05467 0.959999 6.17201 1.25333 6.17201 1.62V4.832H7.33801C7.66067 4.832 7.93201 4.94933 8.15201 5.184C8.38667 5.404 8.50401 5.67533 8.50401 5.998C8.53334 5.734 8.65067 5.52133 8.85601 5.36C9.06134 5.184 9.32534 5.08867 9.64801 5.074C9.78001 5.05933 9.91934 5.052 10.066 5.052C10.2273 5.03733 10.3887 5.02267 10.55 5.008C10.682 4.67067 10.8507 4.25267 11.056 3.754C11.2613 3.24067 11.4593 2.74933 11.65 2.28C11.8553 1.796 12.002 1.42933 12.09 1.18C12.2073 0.827999 12.4273 0.585999 12.75 0.453999C13.0873 0.321999 13.4247 0.314666 13.762 0.431999C14.0993 0.563999 14.334 0.776666 14.466 1.07C14.598 1.36333 14.598 1.67133 14.466 1.994C14.334 2.31667 14.1433 2.74933 13.894 3.292C13.6447 3.82 13.3953 4.326 13.146 4.81C13.7327 4.766 14.3193 4.722 14.906 4.678C15.4927 4.61933 16.0427 4.568 16.556 4.524C16.424 4.36267 16.2993 4.20867 16.182 4.062C16.0793 3.91533 15.9767 3.78333 15.874 3.666C15.6833 3.446 15.61 3.19667 15.654 2.918C15.7127 2.62467 15.8593 2.39 16.094 2.214C16.3287 2.038 16.5927 1.95733 16.886 1.972C17.194 1.972 17.458 2.09667 17.678 2.346C17.9713 2.66867 18.3013 3.05 18.668 3.49C19.0347 3.91533 19.3867 4.348 19.724 4.788C20.0613 5.21333 20.34 5.58 20.56 5.888C20.7653 6.16667 20.8387 6.46733 20.78 6.79C20.736 7.11267 20.5673 7.36933 20.274 7.56C19.9807 7.75067 19.6727 7.824 19.35 7.78C19.0273 7.72133 18.7633 7.54533 18.558 7.252C18.4847 7.13467 18.404 7.01 18.316 6.878C18.228 6.746 18.1253 6.60667 18.008 6.46C17.304 6.548 16.4533 6.65067 15.456 6.768C14.4733 6.87067 13.5053 6.966 12.552 7.054C12.8307 7.39133 12.882 7.77267 12.706 8.198C12.6913 8.27133 12.662 8.352 12.618 8.44C12.574 8.51333 12.5373 8.594 12.508 8.682H18.976C19.284 8.682 19.5407 8.792 19.746 9.012C19.966 9.21733 20.076 9.46667 20.076 9.76C20.076 10.068 19.966 10.332 19.746 10.552C19.5407 10.7573 19.284 10.86 18.976 10.86H15.632V11.762C15.632 12.1727 15.61 12.576 15.566 12.972H20.054C20.362 12.972 20.6187 13.082 20.824 13.302C21.044 13.5073 21.154 13.7713 21.154 14.094C21.154 14.402 21.044 14.666 20.824 14.886C20.6187 15.0913 20.362 15.194 20.054 15.194H16.49C17.018 15.8687 17.6487 16.4773 18.382 17.02C19.1153 17.548 19.8853 18.0027 20.692 18.384C21.0147 18.5307 21.2347 18.758 21.352 19.066C21.4693 19.3887 21.44 19.726 21.264 20.078C21.0733 20.43 20.7873 20.6427 20.406 20.716C20.0393 20.7893 19.6653 20.7307 19.284 20.54C18.448 20.1293 17.6047 19.5647 16.754 18.846C15.9033 18.1273 15.1773 17.3207 14.576 16.426C13.52 18.3767 11.6867 19.792 9.07601 20.672C8.70934 20.804 8.35001 20.8187 7.99801 20.716C7.64601 20.6133 7.39667 20.3787 7.25001 20.012C7.13267 19.6747 7.14734 19.3447 7.29401 19.022C7.44067 18.6993 7.71201 18.4793 8.10801 18.362C9.12001 18.0247 9.97801 17.5993 10.682 17.086C11.386 16.5727 11.9287 15.942 12.31 15.194H8.76801C8.46001 15.194 8.19601 15.0913 7.97601 14.886C7.75601 14.666 7.64601 14.402 7.64601 14.094C7.64601 13.7713 7.75601 13.5073 7.97601 13.302C8.19601 13.082 8.46001 12.972 8.76801 12.972H12.992C13.0213 12.7667 13.0433 12.5613 13.058 12.356C13.0727 12.1507 13.08 11.938 13.08 11.718V10.86H11.408C11.1 11.4467 10.7847 11.9527 10.462 12.378C10.2713 12.6567 10.0073 12.84 9.67001 12.928C9.34734 13.0013 9.03934 12.95 8.74601 12.774C8.36467 12.5393 8.18867 12.2093 8.21801 11.784C8.15934 11.828 8.10067 11.872 8.04201 11.916C7.98334 11.9453 7.91734 11.9747 7.84401 12.004C7.62401 12.092 7.37467 12.1947 7.09601 12.312C6.81734 12.4293 6.50934 12.5467 6.17201 12.664V17.878C6.17201 18.9047 5.91534 19.66 5.40201 20.144C4.88867 20.628 4.09667 20.8847 3.02601 20.914ZM8.65801 10.838C8.87801 10.5007 9.10534 10.1193 9.34001 9.694C9.57467 9.26867 9.79467 8.85067 10 8.44C10.2053 8.02933 10.374 7.66267 10.506 7.34C10.506 7.31067 10.5207 7.28133 10.55 7.252L9.91201 7.318C9.50134 7.34733 9.17134 7.26667 8.92201 7.076C8.67267 6.88533 8.53334 6.62133 8.50401 6.284V6.13C8.47467 6.42333 8.34267 6.67267 8.10801 6.878C7.88801 7.06867 7.63134 7.164 7.33801 7.164H6.17201V10.134C6.33334 10.0753 6.48734 10.024 6.63401 9.98C6.78067 9.936 6.92001 9.892 7.05201 9.848C7.41867 9.73067 7.74134 9.73067 8.02001 9.848C8.29867 9.96533 8.48934 10.1853 8.59201 10.508L8.65801 10.838ZM33.738 20.782C33.3127 20.8993 32.9387 20.892 32.616 20.76C32.308 20.628 32.0953 20.3787 31.978 20.012C31.8753 19.6747 31.912 19.3593 32.088 19.066C32.264 18.7873 32.5427 18.5967 32.924 18.494C33.7893 18.2887 34.5813 18.0467 35.3 17.768C36.0333 17.4747 36.7153 17.152 37.346 16.8C37.1113 16.5947 36.8693 16.382 36.62 16.162C36.3707 15.942 36.1507 15.7587 35.96 15.612C35.7107 15.3773 35.5933 15.0913 35.608 14.754C35.6227 14.402 35.7473 14.116 35.982 13.896C36.2313 13.676 36.5173 13.566 36.84 13.566C37.1627 13.5513 37.4413 13.6467 37.676 13.852C37.8813 14.0133 38.1527 14.248 38.49 14.556C38.842 14.8493 39.1427 15.1207 39.392 15.37C40.052 14.7687 40.6387 14.116 41.152 13.412C41.3867 13.0747 41.4453 12.818 41.328 12.642C41.2253 12.4513 40.9687 12.356 40.558 12.356H37.28C36.8107 12.9573 36.3047 13.5367 35.762 14.094C35.2193 14.6367 34.662 15.128 34.09 15.568C33.8113 15.788 33.496 15.898 33.144 15.898C32.792 15.898 32.506 15.7587 32.286 15.48C32.0807 15.216 31.9927 14.9153 32.022 14.578C32.066 14.2407 32.2273 13.9767 32.506 13.786C33.2833 13.1847 34.046 12.4587 34.794 11.608C35.5567 10.7427 36.1873 9.88467 36.686 9.034C36.642 9.078 36.576 9.12933 36.488 9.188C36.2093 9.364 35.894 9.42267 35.542 9.364C35.19 9.29067 34.9333 9.10733 34.772 8.814C34.6253 8.56467 34.4493 8.25667 34.244 7.89C34.0387 7.50867 33.8553 7.186 33.694 6.922C33.4447 6.482 33.2687 6.09333 33.166 5.756C33.078 5.404 33.0633 5.04467 33.122 4.678C33.1953 4.31133 33.342 3.886 33.562 3.402C33.7087 3.10867 33.8773 2.742 34.068 2.302C34.2733 1.84733 34.442 1.48067 34.574 1.202C34.6913 0.908666 34.9187 0.703332 35.256 0.586C35.5933 0.468666 35.916 0.483333 36.224 0.629999C36.5173 0.776666 36.7153 1.004 36.818 1.312C36.9207 1.60533 36.8987 1.89133 36.752 2.17C36.6053 2.46333 36.4293 2.808 36.224 3.204C36.0187 3.58533 35.828 3.93 35.652 4.238C35.476 4.56067 35.4027 4.832 35.432 5.052C35.4613 5.25733 35.5713 5.52133 35.762 5.844C35.9233 6.064 36.1067 6.34267 36.312 6.68C36.532 7.01733 36.708 7.28867 36.84 7.494C37.06 7.83133 37.1113 8.19067 36.994 8.572C37.1847 8.36667 37.4267 8.24933 37.72 8.22C38.0133 8.176 38.2773 8.23467 38.512 8.396C38.5707 8.42533 38.6147 8.462 38.644 8.506C38.688 8.53533 38.732 8.572 38.776 8.616C38.6293 8.352 38.446 8.044 38.226 7.692C38.0207 7.32533 37.83 7.01733 37.654 6.768C37.2727 6.152 37.06 5.60933 37.016 5.14C36.9867 4.67067 37.148 4.084 37.5 3.38C37.6613 3.08667 37.8373 2.73467 38.028 2.324C38.2187 1.89867 38.38 1.532 38.512 1.224C38.6587 0.930665 38.8933 0.732665 39.216 0.629999C39.5387 0.512666 39.8467 0.534666 40.14 0.696C40.4333 0.842666 40.624 1.07 40.712 1.378C40.8147 1.67133 40.7853 1.95733 40.624 2.236C40.4773 2.51467 40.316 2.83 40.14 3.182C39.964 3.51933 39.7953 3.82733 39.634 4.106C39.4433 4.44333 39.3553 4.71467 39.37 4.92C39.3847 5.11067 39.502 5.36733 39.722 5.69C39.8833 5.91 40.0813 6.196 40.316 6.548C40.5507 6.9 40.7413 7.17867 40.888 7.384C41.064 7.66267 41.1227 7.97067 41.064 8.308C41.0053 8.63067 40.8293 8.88 40.536 9.056C40.2867 9.21733 40.008 9.28333 39.7 9.254C39.4067 9.21 39.1573 9.08533 38.952 8.88C39.1133 9.21733 39.0913 9.56933 38.886 9.936C38.8567 9.99467 38.8273 10.0533 38.798 10.112C38.7687 10.156 38.7393 10.2 38.71 10.244H41.24C42.1933 10.244 42.9047 10.42 43.374 10.772C43.858 11.124 44.1073 11.5933 44.122 12.18C44.1513 12.7667 43.946 13.4047 43.506 14.094C42.45 15.7367 41.1373 17.108 39.568 18.208C37.9987 19.308 36.0553 20.166 33.738 20.782ZM27.314 20.848C26.9033 20.8627 26.5587 20.7527 26.28 20.518C26.016 20.298 25.8693 19.9827 25.84 19.572C25.8253 19.2347 25.9207 18.9267 26.126 18.648C26.346 18.3693 26.676 18.208 27.116 18.164C27.5413 18.1347 27.8053 18.0613 27.908 17.944C28.0253 17.8267 28.084 17.5993 28.084 17.262V13.764C27.6733 13.896 27.3213 14.0207 27.028 14.138C26.6173 14.27 26.2433 14.2627 25.906 14.116C25.5833 13.9693 25.3633 13.7127 25.246 13.346C25.1433 13.0087 25.158 12.6787 25.29 12.356C25.4367 12.0333 25.708 11.8133 26.104 11.696C26.6613 11.5347 27.3213 11.3293 28.084 11.08V7.164H26.368C26.0453 7.164 25.7667 7.04667 25.532 6.812C25.2973 6.57733 25.18 6.29867 25.18 5.976C25.18 5.63867 25.2973 5.36 25.532 5.14C25.7667 4.90533 26.0453 4.788 26.368 4.788H28.084V1.642C28.084 1.27533 28.2013 0.989333 28.436 0.783998C28.6853 0.563999 28.9713 0.453999 29.294 0.453999C29.6313 0.453999 29.9173 0.563999 30.152 0.783998C30.3867 0.989333 30.504 1.27533 30.504 1.642V4.788H31.714C32.0513 4.788 32.33 4.90533 32.55 5.14C32.7847 5.36 32.902 5.63867 32.902 5.976C32.902 6.29867 32.7847 6.57733 32.55 6.812C32.33 7.04667 32.0513 7.164 31.714 7.164H30.504V10.266C30.7387 10.178 30.9587 10.0973 31.164 10.024C31.3693 9.95067 31.5527 9.88467 31.714 9.826C32.0807 9.694 32.4033 9.68667 32.682 9.804C32.9607 9.92133 33.1513 10.1413 33.254 10.464C33.3713 10.8013 33.3567 11.1093 33.21 11.388C33.0633 11.6667 32.8213 11.8867 32.484 12.048C32.2493 12.1507 31.956 12.268 31.604 12.4C31.252 12.532 30.8853 12.6787 30.504 12.84V17.592C30.504 18.7213 30.24 19.5353 29.712 20.034C29.1987 20.5473 28.3993 20.8187 27.314 20.848ZM44.584 8.946C44.3053 9.122 43.99 9.18067 43.638 9.122C43.286 9.04867 43.0293 8.87267 42.868 8.594C42.7213 8.33 42.5233 8.00733 42.274 7.626C42.0393 7.23 41.8267 6.89267 41.636 6.614C41.24 6.042 41.02 5.52867 40.976 5.074C40.932 4.60467 41.086 4.02533 41.438 3.336C41.5993 3.04267 41.7753 2.70533 41.966 2.324C42.1567 1.928 42.3253 1.56867 42.472 1.246C42.6187 0.952666 42.846 0.761999 43.154 0.673999C43.4767 0.571332 43.7847 0.600666 44.078 0.761999C44.3713 0.908665 44.562 1.12867 44.65 1.422C44.738 1.71533 44.7087 2.00133 44.562 2.28C44.4153 2.55867 44.254 2.84467 44.078 3.138C43.902 3.43133 43.7407 3.70267 43.594 3.952C43.3887 4.31867 43.286 4.59733 43.286 4.788C43.3007 4.964 43.4327 5.22067 43.682 5.558C43.8433 5.76333 44.0487 6.04933 44.298 6.416C44.562 6.768 44.7673 7.06133 44.914 7.296C45.09 7.57467 45.1487 7.87533 45.09 8.198C45.046 8.506 44.8773 8.75533 44.584 8.946ZM67.596 20.034C66.4373 19.1687 65.462 18.2007 64.67 17.13C63.8927 16.0447 63.2693 14.9007 62.8 13.698C62.3893 14.9007 61.8173 16.0373 61.084 17.108C60.3653 18.164 59.456 19.1173 58.356 19.968C58.0627 20.188 57.7253 20.298 57.344 20.298C56.9773 20.298 56.6693 20.1367 56.42 19.814C56.2147 19.5207 56.1413 19.2053 56.2 18.868C56.2587 18.5307 56.4347 18.2593 56.728 18.054C59.5147 16.074 61.062 13.214 61.37 9.474H57.674C57.3513 9.474 57.0727 9.35667 56.838 9.122C56.6033 8.87267 56.486 8.58667 56.486 8.264C56.486 7.92667 56.6033 7.64067 56.838 7.406C57.0727 7.17133 57.3513 7.054 57.674 7.054H61.436V2.06C61.436 1.664 61.568 1.356 61.832 1.136C62.096 0.901332 62.3893 0.783998 62.712 0.783998C63.064 0.783998 63.3573 0.901332 63.592 1.136C63.8413 1.356 63.966 1.664 63.966 2.06V7.054H68.388C68.7253 7.054 69.0113 7.17133 69.246 7.406C69.4807 7.64067 69.598 7.92667 69.598 8.264C69.598 8.58667 69.4807 8.87267 69.246 9.122C69.0113 9.35667 68.7253 9.474 68.388 9.474H64.054C64.2593 11.3367 64.824 12.9867 65.748 14.424C66.6867 15.8467 67.8747 17.0567 69.312 18.054C69.6053 18.2447 69.774 18.516 69.818 18.868C69.862 19.22 69.7667 19.5353 69.532 19.814C69.2827 20.1367 68.9747 20.3127 68.608 20.342C68.256 20.3713 67.9187 20.2687 67.596 20.034ZM54.726 20.848C54.3887 20.848 54.0953 20.7307 53.846 20.496C53.5967 20.276 53.472 19.9827 53.472 19.616V14.006C53.0613 14.3287 52.6213 14.666 52.152 15.018C51.6973 15.3553 51.3307 15.6193 51.052 15.81C50.7293 16.0153 50.3847 16.096 50.018 16.052C49.6513 15.9933 49.3653 15.7807 49.16 15.414C48.984 15.0913 48.94 14.7687 49.028 14.446C49.116 14.1233 49.314 13.8667 49.622 13.676C49.8273 13.544 50.0987 13.3607 50.436 13.126C50.788 12.8913 51.1547 12.6347 51.536 12.356C51.9173 12.0773 52.2767 11.8133 52.614 11.564C52.966 11.3 53.252 11.08 53.472 10.904V8.088C53.384 8.33733 53.1787 8.54267 52.856 8.704C52.5333 8.88 52.196 8.91667 51.844 8.814C51.492 8.71133 51.2353 8.49867 51.074 8.176C50.986 7.98533 50.8467 7.72133 50.656 7.384C50.4653 7.04667 50.2747 6.70933 50.084 6.372C49.908 6.03467 49.7687 5.778 49.666 5.602C49.4753 5.30867 49.4313 4.99333 49.534 4.656C49.6367 4.31867 49.8567 4.062 50.194 3.886C50.5313 3.71 50.8613 3.666 51.184 3.754C51.5213 3.82733 51.7853 4.02533 51.976 4.348C52.0933 4.53867 52.2473 4.81 52.438 5.162C52.6287 5.514 52.812 5.866 52.988 6.218C53.1787 6.55533 53.318 6.812 53.406 6.988L53.472 7.186V1.95C53.472 1.56867 53.5967 1.268 53.846 1.048C54.0953 0.827999 54.3887 0.717999 54.726 0.717999C55.0633 0.717999 55.3493 0.827999 55.584 1.048C55.8333 1.268 55.958 1.56867 55.958 1.95V19.616C55.958 19.9827 55.8333 20.276 55.584 20.496C55.3493 20.7307 55.0633 20.848 54.726 20.848ZM68.564 5.8C68.3147 6.00533 68.0213 6.10067 67.684 6.086C67.3467 6.05667 67.0753 5.91 66.87 5.646C66.7673 5.514 66.6133 5.33067 66.408 5.096C66.2027 4.84667 65.99 4.60467 65.77 4.37C65.5647 4.12067 65.396 3.93 65.264 3.798C65.0587 3.56333 64.9707 3.292 65 2.984C65.0293 2.676 65.1613 2.42667 65.396 2.236C65.6453 2.016 65.924 1.906 66.232 1.906C66.54 1.906 66.8113 2.03067 67.046 2.28C67.178 2.412 67.354 2.59533 67.574 2.83C67.794 3.06467 68.0067 3.29933 68.212 3.534C68.432 3.76867 68.586 3.94467 68.674 4.062C68.938 4.35533 69.0553 4.656 69.026 4.964C69.0113 5.272 68.8573 5.55067 68.564 5.8ZM82.358 19.968C81.9913 19.968 81.676 19.8287 81.412 19.55C81.148 19.286 81.016 18.9707 81.016 18.604V3.402C81.016 3.02067 81.148 2.70533 81.412 2.456C81.676 2.192 81.9913 2.06 82.358 2.06C82.7393 2.06 83.062 2.192 83.326 2.456C83.59 2.70533 83.722 3.02067 83.722 3.402V8.704C83.9127 8.41067 84.1767 8.22 84.514 8.132C84.8513 8.02933 85.1813 8.066 85.504 8.242C86.3693 8.69667 87.2493 9.21733 88.144 9.804C89.0533 10.376 89.838 10.9407 90.498 11.498C90.7913 11.7327 90.9527 12.048 90.982 12.444C91.026 12.8253 90.9233 13.1627 90.674 13.456C90.4393 13.7347 90.1313 13.896 89.75 13.94C89.3687 13.9693 89.0313 13.8667 88.738 13.632C88.3273 13.3093 87.8507 12.9647 87.308 12.598C86.78 12.2313 86.2447 11.8793 85.702 11.542C85.174 11.19 84.69 10.8893 84.25 10.64C84.0153 10.508 83.8393 10.3467 83.722 10.156V18.604C83.722 18.9707 83.59 19.286 83.326 19.55C83.062 19.8287 82.7393 19.968 82.358 19.968ZM90.938 7.604C90.7473 7.76533 90.5127 7.83133 90.234 7.802C89.97 7.77267 89.7573 7.648 89.596 7.428C89.4493 7.208 89.2513 6.93667 89.002 6.614C88.7527 6.29133 88.5253 6.01267 88.32 5.778C88.188 5.61667 88.1293 5.41867 88.144 5.184C88.1587 4.94933 88.2613 4.75133 88.452 4.59C88.628 4.42867 88.826 4.35533 89.046 4.37C89.2807 4.38467 89.486 4.47267 89.662 4.634C89.882 4.82467 90.1313 5.08133 90.41 5.404C90.6887 5.712 90.9233 5.99067 91.114 6.24C91.2753 6.46 91.334 6.702 91.29 6.966C91.2607 7.21533 91.1433 7.428 90.938 7.604ZM93.072 5.734C92.8813 5.92467 92.6467 6.01267 92.368 5.998C92.104 5.98333 91.8913 5.87333 91.73 5.668C91.554 5.46267 91.334 5.21333 91.07 4.92C90.806 4.62667 90.564 4.36267 90.344 4.128C90.1973 3.96667 90.1167 3.776 90.102 3.556C90.102 3.32133 90.1973 3.10867 90.388 2.918C90.5493 2.75667 90.74 2.676 90.96 2.676C91.1947 2.66133 91.4073 2.72733 91.598 2.874C91.818 3.05 92.082 3.28467 92.39 3.578C92.698 3.87133 92.9547 4.14267 93.16 4.392C93.3213 4.58267 93.3947 4.81 93.38 5.074C93.3653 5.32333 93.2627 5.54333 93.072 5.734ZM105.524 19.924C105.231 20.056 104.923 20.0633 104.6 19.946C104.292 19.8287 104.072 19.6233 103.94 19.33C103.808 19.022 103.801 18.714 103.918 18.406C104.035 18.098 104.241 17.878 104.534 17.746C106.03 17.0713 107.255 16.3087 108.208 15.458C109.176 14.5927 109.931 13.6027 110.474 12.488C111.017 11.3587 111.391 10.068 111.596 8.616C111.64 8.27867 111.794 8.01467 112.058 7.824C112.337 7.63333 112.637 7.56 112.96 7.604C113.283 7.648 113.539 7.802 113.73 8.066C113.935 8.33 114.009 8.63067 113.95 8.968C113.569 11.4907 112.689 13.6687 111.31 15.502C109.946 17.3207 108.017 18.7947 105.524 19.924ZM108.428 12.752C108.105 12.8547 107.805 12.84 107.526 12.708C107.247 12.5613 107.049 12.334 106.932 12.026C106.771 11.6007 106.565 11.1167 106.316 10.574C106.081 10.0313 105.883 9.59867 105.722 9.276C105.575 8.98267 105.539 8.682 105.612 8.374C105.685 8.05133 105.861 7.80933 106.14 7.648C106.433 7.472 106.741 7.428 107.064 7.516C107.387 7.58933 107.621 7.77267 107.768 8.066C107.988 8.47667 108.23 8.98267 108.494 9.584C108.773 10.1707 109 10.728 109.176 11.256C109.293 11.564 109.271 11.8647 109.11 12.158C108.963 12.4513 108.736 12.6493 108.428 12.752ZM104.82 13.588C104.527 13.72 104.226 13.7273 103.918 13.61C103.625 13.478 103.405 13.2653 103.258 12.972C103.023 12.488 102.774 12.0187 102.51 11.564C102.261 11.0947 102.033 10.6987 101.828 10.376C101.637 10.0973 101.564 9.79667 101.608 9.474C101.667 9.15133 101.828 8.89467 102.092 8.704C102.356 8.51333 102.649 8.44733 102.972 8.506C103.309 8.55 103.573 8.704 103.764 8.968C104.043 9.364 104.343 9.86267 104.666 10.464C104.989 11.0507 105.245 11.5713 105.436 12.026C105.583 12.3193 105.59 12.62 105.458 12.928C105.341 13.236 105.128 13.456 104.82 13.588ZM130.758 19.946C130.391 19.946 130.076 19.814 129.812 19.55C129.548 19.286 129.416 18.9707 129.416 18.604V3.402C129.416 3.02067 129.548 2.70533 129.812 2.456C130.076 2.192 130.391 2.06 130.758 2.06C131.139 2.06 131.462 2.192 131.726 2.456C131.99 2.70533 132.122 3.02067 132.122 3.402V8.704C132.313 8.41067 132.577 8.22 132.914 8.132C133.251 8.02933 133.581 8.05867 133.904 8.22C134.769 8.67467 135.649 9.19533 136.544 9.782C137.453 10.3687 138.238 10.9407 138.898 11.498C139.191 11.7327 139.353 12.048 139.382 12.444C139.426 12.8253 139.323 13.1627 139.074 13.456C138.839 13.7347 138.531 13.896 138.15 13.94C137.769 13.9693 137.431 13.8667 137.138 13.632C136.727 13.3093 136.251 12.9647 135.708 12.598C135.18 12.2313 134.645 11.8793 134.102 11.542C133.574 11.19 133.09 10.8893 132.65 10.64C132.415 10.508 132.239 10.3467 132.122 10.156V18.604C132.122 18.9707 131.99 19.286 131.726 19.55C131.462 19.814 131.139 19.946 130.758 19.946ZM150.03 16.712C149.663 16.712 149.341 16.58 149.062 16.316C148.798 16.0373 148.666 15.7147 148.666 15.348C148.666 14.9667 148.798 14.6513 149.062 14.402C149.341 14.138 149.663 14.006 150.03 14.006H157.708C158.603 14.006 159.277 13.94 159.732 13.808C160.187 13.6613 160.487 13.3607 160.634 12.906C160.795 12.4513 160.876 11.7547 160.876 10.816C160.876 9.86267 160.795 9.166 160.634 8.726C160.487 8.27133 160.187 7.978 159.732 7.846C159.292 7.69933 158.625 7.626 157.73 7.626H150.272C149.905 7.626 149.59 7.494 149.326 7.23C149.062 6.966 148.93 6.64333 148.93 6.262C148.93 5.88067 149.062 5.56533 149.326 5.316C149.59 5.052 149.905 4.92 150.272 4.92H157.73C158.874 4.92 159.82 5.008 160.568 5.184C161.331 5.36 161.932 5.668 162.372 6.108C162.812 6.548 163.12 7.14933 163.296 7.912C163.487 8.67467 163.582 9.64267 163.582 10.816C163.582 11.9893 163.487 12.9573 163.296 13.72C163.12 14.4827 162.812 15.084 162.372 15.524C161.932 15.964 161.331 16.272 160.568 16.448C159.805 16.624 158.852 16.712 157.708 16.712H150.03ZM188.486 18.274C188.163 18.45 187.819 18.4793 187.452 18.362C187.1 18.2447 186.829 18.0247 186.638 17.702C186.491 17.438 186.293 17.13 186.044 16.778C185.795 16.426 185.523 16.0447 185.23 15.634C184.379 15.7807 183.411 15.9347 182.326 16.096C181.241 16.2427 180.111 16.3893 178.938 16.536C177.779 16.668 176.657 16.7927 175.572 16.91C174.487 17.0127 173.526 17.0933 172.69 17.152C172.323 17.1813 171.993 17.0713 171.7 16.822C171.421 16.5727 171.267 16.2647 171.238 15.898C171.223 15.5167 171.341 15.1867 171.59 14.908C171.854 14.6293 172.169 14.4827 172.536 14.468C172.771 14.4387 173.013 14.4167 173.262 14.402C173.511 14.3873 173.775 14.3727 174.054 14.358C174.494 13.7127 174.956 12.9647 175.44 12.114C175.939 11.2487 176.423 10.354 176.892 9.43C177.361 8.506 177.787 7.61867 178.168 6.768C178.564 5.91733 178.887 5.184 179.136 4.568C179.268 4.216 179.503 3.95933 179.84 3.798C180.177 3.63667 180.522 3.622 180.874 3.754C181.226 3.886 181.483 4.128 181.644 4.48C181.82 4.81733 181.835 5.15467 181.688 5.492C181.365 6.25467 180.962 7.13467 180.478 8.132C179.994 9.11467 179.466 10.1267 178.894 11.168C178.322 12.1947 177.743 13.17 177.156 14.094C178.241 13.9913 179.334 13.8887 180.434 13.786C181.549 13.6687 182.575 13.5513 183.514 13.434C183.206 13.0527 182.905 12.6933 182.612 12.356C182.319 12.0187 182.047 11.7327 181.798 11.498C181.549 11.2193 181.424 10.8967 181.424 10.53C181.439 10.1633 181.585 9.85533 181.864 9.606C182.143 9.35667 182.465 9.23933 182.832 9.254C183.199 9.26867 183.507 9.408 183.756 9.672C184.137 10.0533 184.577 10.5447 185.076 11.146C185.575 11.7327 186.081 12.356 186.594 13.016C187.122 13.676 187.606 14.3067 188.046 14.908C188.486 15.5093 188.823 16.0153 189.058 16.426C189.249 16.7487 189.285 17.0933 189.168 17.46C189.051 17.8267 188.823 18.098 188.486 18.274ZM210.332 19.704C208.601 19.4547 207.171 18.956 206.042 18.208C204.913 17.4453 204.069 16.5287 203.512 15.458C202.969 14.3873 202.698 13.2727 202.698 12.114C202.698 10.9407 202.925 9.848 203.38 8.836C203.835 7.80933 204.495 6.922 205.36 6.174C204.48 6.306 203.541 6.46 202.544 6.636C201.547 6.79733 200.579 6.966 199.64 7.142C198.716 7.30333 197.902 7.45 197.198 7.582C196.831 7.64067 196.501 7.56 196.208 7.34C195.929 7.12 195.761 6.834 195.702 6.482C195.643 6.11533 195.717 5.79267 195.922 5.514C196.142 5.22067 196.435 5.04467 196.802 4.986C197.271 4.91267 197.873 4.81733 198.606 4.7C199.339 4.568 200.161 4.42867 201.07 4.282C201.979 4.13533 202.911 3.98133 203.864 3.82C204.817 3.65867 205.749 3.50467 206.658 3.358C207.582 3.19667 208.425 3.05 209.188 2.918C209.951 2.786 210.574 2.676 211.058 2.588C211.395 2.52933 211.711 2.60267 212.004 2.808C212.312 3.01333 212.495 3.28467 212.554 3.622C212.627 3.974 212.569 4.304 212.378 4.612C212.202 4.92 211.938 5.10333 211.586 5.162C210.559 5.32333 209.657 5.63867 208.88 6.108C208.103 6.56267 207.443 7.12 206.9 7.78C206.372 8.42533 205.969 9.11467 205.69 9.848C205.426 10.5667 205.294 11.278 205.294 11.982C205.294 13.4047 205.778 14.556 206.746 15.436C207.714 16.3013 209.034 16.8513 210.706 17.086C211.058 17.1447 211.344 17.3207 211.564 17.614C211.784 17.9073 211.865 18.23 211.806 18.582C211.762 18.9487 211.593 19.242 211.3 19.462C211.007 19.682 210.684 19.7627 210.332 19.704ZM213.126 10.706C212.935 10.8673 212.701 10.9333 212.422 10.904C212.158 10.8747 211.945 10.75 211.784 10.53C211.623 10.3247 211.417 10.068 211.168 9.76C210.919 9.43733 210.691 9.15867 210.486 8.924C210.354 8.76267 210.288 8.572 210.288 8.352C210.303 8.11733 210.405 7.91933 210.596 7.758C210.772 7.59667 210.97 7.52333 211.19 7.538C211.425 7.538 211.637 7.61867 211.828 7.78C212.048 7.97067 212.297 8.22 212.576 8.528C212.869 8.836 213.111 9.11467 213.302 9.364C213.463 9.56933 213.522 9.804 213.478 10.068C213.449 10.332 213.331 10.5447 213.126 10.706ZM215.238 8.814C215.047 9.00467 214.813 9.09267 214.534 9.078C214.27 9.06333 214.05 8.95333 213.874 8.748C213.698 8.54267 213.471 8.29333 213.192 8C212.928 7.70667 212.686 7.45 212.466 7.23C212.319 7.08333 212.239 6.89267 212.224 6.658C212.224 6.42333 212.312 6.218 212.488 6.042C212.649 5.88067 212.847 5.8 213.082 5.8C213.317 5.78533 213.529 5.85133 213.72 5.998C213.955 6.15933 214.226 6.38667 214.534 6.68C214.842 6.95867 215.099 7.22267 215.304 7.472C215.48 7.66267 215.561 7.89 215.546 8.154C215.531 8.40333 215.429 8.62333 215.238 8.814ZM229.516 19.858C228.343 19.858 227.397 19.572 226.678 19C225.974 18.4133 225.622 17.5773 225.622 16.492C225.622 15.4507 225.974 14.6293 226.678 14.028C227.397 13.412 228.379 13.104 229.626 13.104C230.007 13.104 230.396 13.126 230.792 13.17C230.777 12.4807 230.755 11.7327 230.726 10.926C230.711 10.1047 230.689 9.26867 230.66 8.418C229.883 8.462 229.127 8.49133 228.394 8.506C227.675 8.52067 227.052 8.52067 226.524 8.506C226.157 8.49133 225.849 8.35933 225.6 8.11C225.365 7.846 225.255 7.53067 225.27 7.164C225.299 6.812 225.439 6.51867 225.688 6.284C225.952 6.03467 226.26 5.91733 226.612 5.932C227.125 5.94667 227.727 5.954 228.416 5.954C229.12 5.93933 229.853 5.91 230.616 5.866C230.601 5.30867 230.594 4.77333 230.594 4.26C230.594 3.74667 230.594 3.26267 230.594 2.808C230.594 2.44133 230.719 2.13333 230.968 1.884C231.217 1.62 231.525 1.488 231.892 1.488C232.273 1.488 232.589 1.62 232.838 1.884C233.087 2.13333 233.212 2.44133 233.212 2.808C233.212 3.26267 233.212 3.732 233.212 4.216C233.227 4.7 233.234 5.19133 233.234 5.69C233.879 5.63133 234.466 5.57267 234.994 5.514C235.537 5.45533 235.991 5.39667 236.358 5.338C236.71 5.26467 237.033 5.338 237.326 5.558C237.619 5.76333 237.795 6.042 237.854 6.394C237.913 6.746 237.832 7.06867 237.612 7.362C237.407 7.65533 237.128 7.824 236.776 7.868C236.365 7.92667 235.852 7.99267 235.236 8.066C234.635 8.12467 233.982 8.18333 233.278 8.242C233.307 9.26867 233.337 10.2587 233.366 11.212C233.395 12.1653 233.417 13.0087 233.432 13.742C234.239 14.006 234.994 14.3213 235.698 14.688C236.417 15.0547 237.04 15.436 237.568 15.832C237.861 16.052 238.037 16.3453 238.096 16.712C238.155 17.064 238.081 17.3867 237.876 17.68C237.671 17.9733 237.385 18.1567 237.018 18.23C236.666 18.3033 236.343 18.23 236.05 18.01C235.683 17.7313 235.28 17.46 234.84 17.196C234.4 16.932 233.945 16.6973 233.476 16.492C233.329 18.736 232.009 19.858 229.516 19.858ZM222.19 19.88C221.823 19.9387 221.493 19.8653 221.2 19.66C220.907 19.4547 220.723 19.176 220.65 18.824C220.562 18.34 220.496 17.68 220.452 16.844C220.408 16.008 220.379 15.0693 220.364 14.028C220.349 12.9867 220.349 11.9087 220.364 10.794C220.393 9.66467 220.437 8.572 220.496 7.516C220.555 6.44533 220.628 5.47733 220.716 4.612C220.819 3.732 220.936 3.02067 221.068 2.478C221.156 2.126 221.354 1.85467 221.662 1.664C221.97 1.47333 222.3 1.422 222.652 1.51C223.004 1.598 223.275 1.796 223.466 2.104C223.657 2.412 223.708 2.742 223.62 3.094C223.488 3.63667 223.378 4.31867 223.29 5.14C223.202 5.96133 223.129 6.86333 223.07 7.846C223.011 8.814 222.967 9.81133 222.938 10.838C222.923 11.8647 222.923 12.862 222.938 13.83C222.953 14.7833 222.982 15.656 223.026 16.448C223.085 17.2253 223.158 17.8633 223.246 18.362C223.319 18.714 223.246 19.0367 223.026 19.33C222.821 19.6233 222.542 19.8067 222.19 19.88ZM229.516 17.372C230.425 17.372 230.88 16.9393 230.88 16.074C230.88 16.03 230.873 15.9713 230.858 15.898C230.858 15.8247 230.858 15.744 230.858 15.656C230.418 15.568 229.971 15.524 229.516 15.524C229.061 15.524 228.724 15.612 228.504 15.788C228.299 15.964 228.196 16.1913 228.196 16.47C228.196 16.7487 228.299 16.9687 228.504 17.13C228.709 17.2913 229.047 17.372 229.516 17.372ZM248.898 19.88C248.619 20.1147 248.297 20.21 247.93 20.166C247.563 20.1367 247.255 19.9827 247.006 19.704C246.786 19.44 246.493 19.1173 246.126 18.736C245.759 18.34 245.378 17.9513 244.982 17.57C244.601 17.174 244.263 16.8513 243.97 16.602C243.735 16.382 243.596 16.1033 243.552 15.766C243.523 15.414 243.625 15.1133 243.86 14.864C244.109 14.6147 244.395 14.4753 244.718 14.446C245.055 14.4167 245.363 14.5047 245.642 14.71C245.965 14.9593 246.339 15.282 246.764 15.678C247.204 16.074 247.629 16.4847 248.04 16.91C248.465 17.3207 248.803 17.68 249.052 17.988C249.301 18.2667 249.411 18.5893 249.382 18.956C249.353 19.3227 249.191 19.6307 248.898 19.88ZM271.162 19.352C270.795 19.4107 270.465 19.3373 270.172 19.132C269.879 18.9267 269.695 18.648 269.622 18.296C269.49 17.548 269.387 16.6827 269.314 15.7C269.241 14.7027 269.204 13.654 269.204 12.554C269.204 11.454 269.233 10.3467 269.292 9.232C269.351 8.11733 269.439 7.054 269.556 6.042C269.688 5.01533 269.842 4.09867 270.018 3.292C270.091 2.94 270.282 2.66867 270.59 2.478C270.898 2.27267 271.228 2.20667 271.58 2.28C271.932 2.368 272.203 2.566 272.394 2.874C272.599 3.16733 272.665 3.49733 272.592 3.864C272.357 4.90533 272.174 6.03467 272.042 7.252C271.91 8.46933 271.822 9.70867 271.778 10.97C271.749 12.2167 271.771 13.434 271.844 14.622C271.917 15.7953 272.042 16.866 272.218 17.834C272.291 18.186 272.218 18.5087 271.998 18.802C271.793 19.0953 271.514 19.2787 271.162 19.352ZM280.182 18.164C278.275 18.164 276.853 17.8193 275.914 17.13C274.99 16.4407 274.433 15.4287 274.242 14.094C274.183 13.742 274.257 13.4193 274.462 13.126C274.682 12.8327 274.975 12.6567 275.342 12.598C275.694 12.554 276.017 12.642 276.31 12.862C276.603 13.0673 276.779 13.3533 276.838 13.72C276.926 14.3507 277.227 14.82 277.74 15.128C278.253 15.436 279.089 15.59 280.248 15.59C281.348 15.59 282.675 15.4213 284.23 15.084C284.582 14.996 284.912 15.0547 285.22 15.26C285.528 15.4653 285.719 15.744 285.792 16.096C285.865 16.448 285.799 16.778 285.594 17.086C285.389 17.3793 285.11 17.57 284.758 17.658C283.966 17.8487 283.174 17.9807 282.382 18.054C281.605 18.1273 280.871 18.164 280.182 18.164ZM276.156 7.274C275.804 7.34733 275.474 7.28867 275.166 7.098C274.873 6.89267 274.689 6.60667 274.616 6.24C274.543 5.888 274.601 5.558 274.792 5.25C274.997 4.942 275.283 4.75867 275.65 4.7C276.471 4.53867 277.388 4.436 278.4 4.392C279.412 4.33333 280.417 4.326 281.414 4.37C282.411 4.39933 283.291 4.48 284.054 4.612C284.421 4.67067 284.707 4.854 284.912 5.162C285.117 5.45533 285.183 5.78533 285.11 6.152C285.051 6.51867 284.868 6.80467 284.56 7.01C284.267 7.20067 283.944 7.26667 283.592 7.208C282.404 7.00267 281.172 6.90733 279.896 6.922C278.62 6.922 277.373 7.03933 276.156 7.274ZM301.258 20.804C300.935 20.848 300.649 20.7747 300.4 20.584C300.165 20.3933 300.026 20.1367 299.982 19.814C299.85 18.934 299.637 17.922 299.344 16.778C299.065 15.6193 298.728 14.4607 298.332 13.302C297.745 13.4927 297.181 13.6833 296.638 13.874C296.11 14.05 295.619 14.2187 295.164 14.38C294.856 14.4827 294.555 14.468 294.262 14.336C293.983 14.204 293.785 13.9913 293.668 13.698C293.565 13.39 293.58 13.0967 293.712 12.818C293.859 12.5247 294.086 12.3267 294.394 12.224C295.303 11.9013 296.359 11.5493 297.562 11.168C297.386 10.7427 297.21 10.332 297.034 9.936C296.858 9.54 296.675 9.166 296.484 8.814C296.337 8.52067 296.301 8.22 296.374 7.912C296.462 7.604 296.645 7.37667 296.924 7.23C297.217 7.06867 297.511 7.03933 297.804 7.142C298.112 7.23 298.339 7.42067 298.486 7.714C298.706 8.12467 298.919 8.56467 299.124 9.034C299.329 9.50333 299.527 9.99467 299.718 10.508C300.099 10.3907 300.481 10.2733 300.862 10.156C301.243 10.0387 301.617 9.92867 301.984 9.826C301.749 9.75267 301.566 9.606 301.434 9.386L300.488 7.978C300.327 7.714 300.275 7.43533 300.334 7.142C300.393 6.834 300.554 6.592 300.818 6.416C301.097 6.24 301.39 6.18867 301.698 6.262C302.006 6.32067 302.241 6.482 302.402 6.746L303.326 8.132C303.473 8.352 303.539 8.58667 303.524 8.836C303.509 9.07067 303.421 9.29067 303.26 9.496C303.363 9.46667 303.458 9.43733 303.546 9.408C303.634 9.37867 303.722 9.35667 303.81 9.342C305.335 8.96067 306.567 9.01933 307.506 9.518C308.445 10.0167 308.987 10.86 309.134 12.048C309.237 12.8987 309.112 13.6467 308.76 14.292C308.423 14.9373 307.917 15.4287 307.242 15.766C306.582 16.1033 305.827 16.2573 304.976 16.228C304.14 16.1987 303.282 15.942 302.402 15.458C302.123 15.2967 301.933 15.062 301.83 14.754C301.742 14.446 301.771 14.1527 301.918 13.874C302.079 13.5807 302.314 13.39 302.622 13.302C302.93 13.214 303.223 13.2507 303.502 13.412C304.147 13.7787 304.734 13.962 305.262 13.962C305.79 13.9473 306.201 13.7933 306.494 13.5C306.787 13.192 306.897 12.7887 306.824 12.29C306.765 11.8647 306.531 11.5713 306.12 11.41C305.724 11.2487 305.123 11.2633 304.316 11.454C303.773 11.6007 303.165 11.7693 302.49 11.96C301.83 12.1507 301.155 12.3633 300.466 12.598C300.862 13.8007 301.214 15.0107 301.522 16.228C301.845 17.4307 302.087 18.5233 302.248 19.506C302.307 19.8287 302.233 20.1147 302.028 20.364C301.837 20.628 301.581 20.7747 301.258 20.804ZM317.736 19.352C317.413 19.22 317.186 18.978 317.054 18.626C316.922 18.274 316.929 17.9367 317.076 17.614C317.325 17.0713 317.641 16.3893 318.022 15.568C318.418 14.7467 318.843 13.852 319.298 12.884C319.767 11.916 320.244 10.926 320.728 9.914C321.212 8.902 321.689 7.91933 322.158 6.966C322.627 6.01267 323.06 5.14733 323.456 4.37C323.852 3.578 324.182 2.93267 324.446 2.434C324.607 2.11133 324.864 1.906 325.216 1.818C325.583 1.71533 325.92 1.75933 326.228 1.95C326.551 2.14067 326.756 2.412 326.844 2.764C326.947 3.10133 326.903 3.43133 326.712 3.754C326.507 4.12067 326.235 4.61933 325.898 5.25C325.575 5.88067 325.209 6.592 324.798 7.384C324.402 8.176 323.991 9.00467 323.566 9.87C324.079 9.65 324.6 9.54 325.128 9.54C326.521 9.54 327.475 9.98 327.988 10.86C328.516 11.74 328.567 12.9427 328.142 14.468C327.922 15.26 327.9 15.8027 328.076 16.096C328.267 16.3893 328.611 16.536 329.11 16.536C329.447 16.536 329.77 16.4627 330.078 16.316C330.386 16.1547 330.701 15.8393 331.024 15.37C331.347 14.9007 331.684 14.2113 332.036 13.302C332.168 12.9647 332.403 12.7227 332.74 12.576C333.077 12.4293 333.415 12.4147 333.752 12.532C334.089 12.664 334.331 12.8987 334.478 13.236C334.639 13.5733 334.654 13.918 334.522 14.27C333.935 15.9127 333.202 17.1373 332.322 17.944C331.457 18.736 330.349 19.132 329 19.132C328.076 19.132 327.299 18.9413 326.668 18.56C326.037 18.1787 325.619 17.6067 325.414 16.844C325.209 16.0667 325.267 15.0987 325.59 13.94C325.795 13.236 325.817 12.7447 325.656 12.466C325.495 12.1727 325.157 12.026 324.644 12.026C323.984 12.026 323.368 12.2313 322.796 12.642C322.224 13.0527 321.667 13.8227 321.124 14.952C321.065 15.0693 320.955 15.304 320.794 15.656C320.647 15.9933 320.486 16.3673 320.31 16.778C320.134 17.1887 319.965 17.5627 319.804 17.9C319.657 18.2227 319.562 18.4427 319.518 18.56C319.371 18.8973 319.129 19.1467 318.792 19.308C318.469 19.484 318.117 19.4987 317.736 19.352ZM342.552 20.826C342.171 20.9287 341.833 20.9287 341.54 20.826C341.247 20.738 341.041 20.5253 340.924 20.188C340.836 19.8947 340.858 19.594 340.99 19.286C341.122 18.9927 341.349 18.8093 341.672 18.736C342.053 18.648 342.479 18.5307 342.948 18.384C343.432 18.2227 343.923 18.0467 344.422 17.856C344.935 17.6653 345.397 17.4747 345.808 17.284C344.884 17.1373 344.224 16.822 343.828 16.338C343.432 15.8393 343.234 15.0987 343.234 14.116V11.52C343.234 10.3027 343.542 9.45933 344.158 8.99C344.774 8.506 345.83 8.264 347.326 8.264H352.54C354.051 8.264 355.114 8.506 355.73 8.99C356.346 9.45933 356.654 10.3027 356.654 11.52V14.116C356.654 15.1133 356.449 15.8613 356.038 16.36C355.642 16.844 354.967 17.152 354.014 17.284C354.645 17.5773 355.349 17.8633 356.126 18.142C356.903 18.4207 357.571 18.6187 358.128 18.736C358.465 18.8093 358.693 18.9927 358.81 19.286C358.942 19.594 358.964 19.8947 358.876 20.188C358.759 20.5253 358.553 20.738 358.26 20.826C357.967 20.9287 357.629 20.9287 357.248 20.826C356.779 20.694 356.236 20.5107 355.62 20.276C355.019 20.056 354.425 19.8213 353.838 19.572C353.251 19.3227 352.753 19.088 352.342 18.868C352.063 18.7067 351.895 18.494 351.836 18.23C351.777 17.9513 351.814 17.6873 351.946 17.438C351.961 17.4233 351.968 17.416 351.968 17.416C351.968 17.4013 351.975 17.3867 351.99 17.372H347.81C347.839 17.4013 347.854 17.4233 347.854 17.438C347.986 17.6873 348.023 17.9513 347.964 18.23C347.92 18.494 347.751 18.7067 347.458 18.868C347.047 19.088 346.549 19.3227 345.962 19.572C345.375 19.8213 344.781 20.056 344.18 20.276C343.579 20.5107 343.036 20.694 342.552 20.826ZM341.892 9.122C341.599 9.31267 341.269 9.40067 340.902 9.386C340.535 9.37133 340.249 9.21 340.044 8.902C339.883 8.65267 339.831 8.374 339.89 8.066C339.949 7.74333 340.11 7.50867 340.374 7.362C341.151 6.93667 341.782 6.45267 342.266 5.91C342.75 5.36733 343.131 4.722 343.41 3.974H341.1C340.807 3.974 340.572 3.886 340.396 3.71C340.22 3.51933 340.132 3.292 340.132 3.028C340.132 2.74933 340.22 2.51467 340.396 2.324C340.572 2.13333 340.807 2.038 341.1 2.038H343.85C343.879 1.92067 343.894 1.796 343.894 1.664C343.909 1.51733 343.923 1.378 343.938 1.246C343.967 0.864665 344.114 0.593332 344.378 0.431999C344.642 0.270666 344.943 0.204666 345.28 0.233999C345.588 0.263333 345.845 0.388 346.05 0.607999C346.255 0.827999 346.343 1.12133 346.314 1.488C346.299 1.59067 346.285 1.686 346.27 1.774C346.27 1.862 346.263 1.95 346.248 2.038H347.634C348.514 2.038 349.159 2.258 349.57 2.698C349.995 3.12333 350.149 3.81267 350.032 4.766C349.929 5.61667 349.746 6.26933 349.482 6.724C349.233 7.17867 348.873 7.494 348.404 7.67C347.949 7.846 347.355 7.934 346.622 7.934C346.314 7.934 346.05 7.846 345.83 7.67C345.625 7.47933 345.507 7.22267 345.478 6.9C345.463 6.60667 345.544 6.35733 345.72 6.152C345.896 5.932 346.123 5.81467 346.402 5.8C346.886 5.77067 347.194 5.70467 347.326 5.602C347.473 5.49933 347.583 5.24267 347.656 4.832C347.715 4.50933 347.7 4.28933 347.612 4.172C347.524 4.04 347.289 3.974 346.908 3.974H345.786C345.419 5.118 344.906 6.12267 344.246 6.988C343.586 7.83867 342.801 8.55 341.892 9.122ZM354.542 7.45C353.735 7.45 353.083 7.36933 352.584 7.208C352.1 7.032 351.748 6.73133 351.528 6.306C351.323 5.866 351.22 5.24267 351.22 4.436C351.22 3.61467 351.323 2.99133 351.528 2.566C351.748 2.126 352.1 1.82533 352.584 1.664C353.083 1.488 353.735 1.4 354.542 1.4H355.818C356.639 1.4 357.292 1.488 357.776 1.664C358.26 1.82533 358.605 2.126 358.81 2.566C359.03 2.99133 359.14 3.61467 359.14 4.436C359.14 5.24267 359.03 5.866 358.81 6.306C358.605 6.73133 358.26 7.032 357.776 7.208C357.292 7.36933 356.639 7.45 355.818 7.45H354.542ZM345.852 13.236H354.014V12.356H345.852V13.236ZM354.652 5.514H355.708C356.207 5.514 356.529 5.448 356.676 5.316C356.823 5.16933 356.896 4.876 356.896 4.436C356.896 3.98133 356.823 3.688 356.676 3.556C356.529 3.40933 356.207 3.336 355.708 3.336H354.652C354.153 3.336 353.831 3.40933 353.684 3.556C353.537 3.688 353.464 3.98133 353.464 4.436C353.464 4.876 353.537 5.16933 353.684 5.316C353.831 5.448 354.153 5.514 354.652 5.514ZM347.37 15.59H352.518C353.046 15.59 353.413 15.5313 353.618 15.414C353.823 15.2967 353.948 15.062 353.992 14.71H345.896C345.925 15.062 346.043 15.2967 346.248 15.414C346.468 15.5313 346.842 15.59 347.37 15.59ZM345.896 10.882H353.992C353.933 10.5593 353.801 10.3467 353.596 10.244C353.391 10.1267 353.031 10.068 352.518 10.068H347.37C346.857 10.068 346.49 10.1267 346.27 10.244C346.065 10.3467 345.94 10.5593 345.896 10.882ZM382.196 20.034C381.037 19.1687 380.062 18.2007 379.27 17.13C378.493 16.0447 377.869 14.9007 377.4 13.698C376.989 14.9007 376.417 16.0373 375.684 17.108C374.965 18.164 374.056 19.1173 372.956 19.968C372.663 20.188 372.325 20.298 371.944 20.298C371.577 20.298 371.269 20.1367 371.02 19.814C370.815 19.5207 370.741 19.2053 370.8 18.868C370.859 18.5307 371.035 18.2593 371.328 18.054C374.115 16.074 375.662 13.214 375.97 9.474H372.274C371.951 9.474 371.673 9.35667 371.438 9.122C371.203 8.87267 371.086 8.58667 371.086 8.264C371.086 7.92667 371.203 7.64067 371.438 7.406C371.673 7.17133 371.951 7.054 372.274 7.054H376.036V2.06C376.036 1.664 376.168 1.356 376.432 1.136C376.696 0.901332 376.989 0.783998 377.312 0.783998C377.664 0.783998 377.957 0.901332 378.192 1.136C378.441 1.356 378.566 1.664 378.566 2.06V7.054H382.988C383.325 7.054 383.611 7.17133 383.846 7.406C384.081 7.64067 384.198 7.92667 384.198 8.264C384.198 8.58667 384.081 8.87267 383.846 9.122C383.611 9.35667 383.325 9.474 382.988 9.474H378.654C378.859 11.3367 379.424 12.9867 380.348 14.424C381.287 15.8467 382.475 17.0567 383.912 18.054C384.205 18.2447 384.374 18.516 384.418 18.868C384.462 19.22 384.367 19.5353 384.132 19.814C383.883 20.1367 383.575 20.3127 383.208 20.342C382.856 20.3713 382.519 20.2687 382.196 20.034ZM369.326 20.848C368.989 20.848 368.695 20.7307 368.446 20.496C368.197 20.276 368.072 19.9827 368.072 19.616V14.006C367.661 14.3287 367.221 14.666 366.752 15.018C366.297 15.3553 365.931 15.6193 365.652 15.81C365.329 16.0153 364.985 16.096 364.618 16.052C364.251 15.9933 363.965 15.7807 363.76 15.414C363.584 15.0913 363.54 14.7687 363.628 14.446C363.716 14.1233 363.914 13.8667 364.222 13.676C364.427 13.544 364.699 13.3607 365.036 13.126C365.388 12.8913 365.755 12.6347 366.136 12.356C366.517 12.0773 366.877 11.8133 367.214 11.564C367.566 11.3 367.852 11.08 368.072 10.904V8.088C367.984 8.33733 367.779 8.54267 367.456 8.704C367.133 8.88 366.796 8.91667 366.444 8.814C366.092 8.71133 365.835 8.49867 365.674 8.176C365.586 7.98533 365.447 7.72133 365.256 7.384C365.065 7.04667 364.875 6.70933 364.684 6.372C364.508 6.03467 364.369 5.778 364.266 5.602C364.075 5.30867 364.031 4.99333 364.134 4.656C364.237 4.31867 364.457 4.062 364.794 3.886C365.131 3.71 365.461 3.666 365.784 3.754C366.121 3.82733 366.385 4.02533 366.576 4.348C366.693 4.53867 366.847 4.81 367.038 5.162C367.229 5.514 367.412 5.866 367.588 6.218C367.779 6.55533 367.918 6.812 368.006 6.988L368.072 7.186V1.95C368.072 1.56867 368.197 1.268 368.446 1.048C368.695 0.827999 368.989 0.717999 369.326 0.717999C369.663 0.717999 369.949 0.827999 370.184 1.048C370.433 1.268 370.558 1.56867 370.558 1.95V19.616C370.558 19.9827 370.433 20.276 370.184 20.496C369.949 20.7307 369.663 20.848 369.326 20.848ZM383.164 5.8C382.915 6.00533 382.621 6.10067 382.284 6.086C381.947 6.05667 381.675 5.91 381.47 5.646C381.367 5.514 381.213 5.33067 381.008 5.096C380.803 4.84667 380.59 4.60467 380.37 4.37C380.165 4.12067 379.996 3.93 379.864 3.798C379.659 3.56333 379.571 3.292 379.6 2.984C379.629 2.676 379.761 2.42667 379.996 2.236C380.245 2.016 380.524 1.906 380.832 1.906C381.14 1.906 381.411 2.03067 381.646 2.28C381.778 2.412 381.954 2.59533 382.174 2.83C382.394 3.06467 382.607 3.29933 382.812 3.534C383.032 3.76867 383.186 3.94467 383.274 4.062C383.538 4.35533 383.655 4.656 383.626 4.964C383.611 5.272 383.457 5.55067 383.164 5.8ZM396.298 20.21C395.829 20.3567 395.411 20.3713 395.044 20.254C394.692 20.1367 394.443 19.8947 394.296 19.528C394.149 19.1173 394.164 18.7433 394.34 18.406C394.531 18.054 394.861 17.8047 395.33 17.658C396.811 17.218 398.065 16.6753 399.092 16.03C400.119 15.3847 400.947 14.5487 401.578 13.522C402.223 12.4953 402.685 11.2193 402.964 9.694C403.257 8.154 403.404 6.284 403.404 4.084V2.588C403.404 2.16267 403.543 1.82533 403.822 1.576C404.101 1.32667 404.431 1.202 404.812 1.202C405.193 1.202 405.523 1.32667 405.802 1.576C406.081 1.82533 406.22 2.16267 406.22 2.588V4.084C406.22 6.22533 406.066 8.11 405.758 9.738C405.45 11.3513 404.988 12.7667 404.372 13.984C404.739 14.248 405.149 14.5707 405.604 14.952C406.073 15.3333 406.521 15.7147 406.946 16.096C407.386 16.4627 407.745 16.7707 408.024 17.02C408.317 17.2987 408.471 17.636 408.486 18.032C408.515 18.4133 408.391 18.7507 408.112 19.044C407.833 19.3227 407.496 19.4767 407.1 19.506C406.704 19.5353 406.359 19.4107 406.066 19.132C405.817 18.868 405.509 18.5673 405.142 18.23C404.775 17.878 404.394 17.526 403.998 17.174C403.602 16.8073 403.243 16.4773 402.92 16.184C402.113 17.1373 401.153 17.9367 400.038 18.582C398.938 19.2273 397.691 19.77 396.298 20.21ZM389.874 18.054C389.463 18.186 389.082 18.1787 388.73 18.032C388.393 17.8853 388.158 17.6067 388.026 17.196C387.909 16.8293 387.938 16.4847 388.114 16.162C388.29 15.8247 388.576 15.5973 388.972 15.48C389.207 15.4067 389.456 15.326 389.72 15.238C389.999 15.1353 390.285 15.0327 390.578 14.93V2.654C390.578 2.22867 390.71 1.89133 390.974 1.642C391.253 1.378 391.583 1.246 391.964 1.246C392.36 1.246 392.69 1.378 392.954 1.642C393.233 1.89133 393.372 2.22867 393.372 2.654V13.918C394.12 13.6247 394.839 13.3387 395.528 13.06C396.232 12.7813 396.833 12.5393 397.332 12.334C397.699 12.1727 398.036 12.1653 398.344 12.312C398.667 12.444 398.879 12.664 398.982 12.972C399.099 13.3387 399.099 13.6687 398.982 13.962C398.879 14.2553 398.608 14.5047 398.168 14.71C397.669 14.9447 397.061 15.216 396.342 15.524C395.623 15.8173 394.868 16.1253 394.076 16.448C393.299 16.7707 392.536 17.0787 391.788 17.372C391.055 17.6507 390.417 17.878 389.874 18.054ZM399.004 8.11C398.74 7.83133 398.395 7.50133 397.97 7.12C397.559 6.73867 397.141 6.36467 396.716 5.998C396.305 5.63133 395.953 5.338 395.66 5.118C395.381 4.898 395.227 4.612 395.198 4.26C395.169 3.89333 395.271 3.578 395.506 3.314C395.77 3.02067 396.078 2.85933 396.43 2.83C396.782 2.786 397.112 2.88133 397.42 3.116C397.728 3.336 398.102 3.63667 398.542 4.018C398.997 4.38467 399.437 4.766 399.862 5.162C400.302 5.54333 400.654 5.866 400.918 6.13C401.211 6.40867 401.358 6.73867 401.358 7.12C401.373 7.48667 401.233 7.80933 400.94 8.088C400.676 8.352 400.353 8.49133 399.972 8.506C399.591 8.506 399.268 8.374 399.004 8.11ZM426.834 20.936C426.467 20.936 426.145 20.8113 425.866 20.562C425.602 20.3127 425.47 19.9827 425.47 19.572V11.058C424.971 10.6327 424.495 10.2 424.04 9.76C423.6 9.32 423.189 8.87267 422.808 8.418C422.793 8.40333 422.779 8.38867 422.764 8.374C422.764 8.35933 422.757 8.34467 422.742 8.33C422.097 10.7793 421.099 13.0087 419.75 15.018C418.401 17.0273 416.846 18.758 415.086 20.21C414.763 20.474 414.397 20.628 413.986 20.672C413.59 20.716 413.238 20.5913 412.93 20.298C412.651 20.0193 412.527 19.6673 412.556 19.242C412.585 18.8167 412.754 18.494 413.062 18.274C415.027 16.8073 416.655 15.04 417.946 12.972C417.682 12.8107 417.381 12.6273 417.044 12.422C416.721 12.2167 416.509 12.0847 416.406 12.026C416.083 11.8207 415.871 11.5347 415.768 11.168C415.665 10.8013 415.709 10.4347 415.9 10.068C416.105 9.70133 416.406 9.474 416.802 9.386C417.198 9.298 417.565 9.35667 417.902 9.562C417.99 9.606 418.181 9.72333 418.474 9.914C418.782 10.09 419.053 10.2587 419.288 10.42C419.493 9.98 419.669 9.53267 419.816 9.078C419.977 8.62333 420.109 8.16867 420.212 7.714C420.329 7.23 420.322 6.90733 420.19 6.746C420.058 6.58467 419.735 6.504 419.222 6.504H417.352C416.971 7.48667 416.545 8.43267 416.076 9.342C415.621 10.2513 415.159 11.0653 414.69 11.784C414.485 12.092 414.191 12.2827 413.81 12.356C413.429 12.4147 413.077 12.334 412.754 12.114C412.475 11.9087 412.307 11.6373 412.248 11.3C412.189 10.948 412.255 10.6327 412.446 10.354C412.827 9.79667 413.209 9.15133 413.59 8.418C413.971 7.68467 414.331 6.922 414.668 6.13C415.005 5.32333 415.306 4.53133 415.57 3.754C415.834 2.97667 416.039 2.26533 416.186 1.62C416.274 1.19467 416.479 0.901332 416.802 0.739999C417.139 0.578666 417.491 0.549333 417.858 0.651999C418.21 0.739999 418.474 0.923332 418.65 1.202C418.841 1.48067 418.877 1.83267 418.76 2.258C418.687 2.55133 418.606 2.85933 418.518 3.182C418.43 3.49 418.327 3.81267 418.21 4.15H419.618C420.777 4.15 421.627 4.33333 422.17 4.7C422.727 5.06667 423.013 5.65333 423.028 6.46C423.292 6.29867 423.578 6.22533 423.886 6.24C424.194 6.24 424.451 6.36467 424.656 6.614C424.788 6.76067 424.92 6.90733 425.052 7.054C425.184 7.186 425.323 7.32533 425.47 7.472V1.84C425.47 1.4 425.602 1.06267 425.866 0.827999C426.145 0.578666 426.467 0.453999 426.834 0.453999C427.215 0.453999 427.538 0.578666 427.802 0.827999C428.066 1.06267 428.198 1.4 428.198 1.84V9.76C429.547 10.7573 430.919 11.564 432.312 12.18C432.679 12.3267 432.928 12.598 433.06 12.994C433.207 13.3753 433.177 13.7493 432.972 14.116C432.752 14.5267 432.437 14.7687 432.026 14.842C431.615 14.9007 431.219 14.8347 430.838 14.644C430.427 14.4387 429.995 14.204 429.54 13.94C429.1 13.6613 428.653 13.3753 428.198 13.082V19.572C428.198 19.9827 428.066 20.3127 427.802 20.562C427.538 20.8113 427.215 20.936 426.834 20.936ZM440.562 19.352C440.195 19.4107 439.865 19.3373 439.572 19.132C439.279 18.9267 439.095 18.648 439.022 18.296C438.89 17.548 438.787 16.6827 438.714 15.7C438.641 14.7027 438.604 13.654 438.604 12.554C438.604 11.454 438.633 10.3467 438.692 9.232C438.751 8.11733 438.839 7.054 438.956 6.042C439.088 5.01533 439.242 4.09867 439.418 3.292C439.491 2.94 439.682 2.66867 439.99 2.478C440.298 2.27267 440.628 2.20667 440.98 2.28C441.332 2.368 441.603 2.566 441.794 2.874C441.999 3.16733 442.065 3.49733 441.992 3.864C441.757 4.90533 441.574 6.03467 441.442 7.252C441.31 8.46933 441.222 9.70867 441.178 10.97C441.149 12.2167 441.171 13.434 441.244 14.622C441.317 15.7953 441.442 16.866 441.618 17.834C441.691 18.186 441.618 18.5087 441.398 18.802C441.193 19.0953 440.914 19.2787 440.562 19.352ZM449.582 18.164C447.675 18.164 446.253 17.8193 445.314 17.13C444.39 16.4407 443.833 15.4287 443.642 14.094C443.583 13.742 443.657 13.4193 443.862 13.126C444.082 12.8327 444.375 12.6567 444.742 12.598C445.094 12.554 445.417 12.642 445.71 12.862C446.003 13.0673 446.179 13.3533 446.238 13.72C446.326 14.3507 446.627 14.82 447.14 15.128C447.653 15.436 448.489 15.59 449.648 15.59C450.748 15.59 452.075 15.4213 453.63 15.084C453.982 14.996 454.312 15.0547 454.62 15.26C454.928 15.4653 455.119 15.744 455.192 16.096C455.265 16.448 455.199 16.778 454.994 17.086C454.789 17.3793 454.51 17.57 454.158 17.658C453.366 17.8487 452.574 17.9807 451.782 18.054C451.005 18.1273 450.271 18.164 449.582 18.164ZM445.556 7.274C445.204 7.34733 444.874 7.28867 444.566 7.098C444.273 6.89267 444.089 6.60667 444.016 6.24C443.943 5.888 444.001 5.558 444.192 5.25C444.397 4.942 444.683 4.75867 445.05 4.7C445.871 4.53867 446.788 4.436 447.8 4.392C448.812 4.33333 449.817 4.326 450.814 4.37C451.811 4.39933 452.691 4.48 453.454 4.612C453.821 4.67067 454.107 4.854 454.312 5.162C454.517 5.45533 454.583 5.78533 454.51 6.152C454.451 6.51867 454.268 6.80467 453.96 7.01C453.667 7.20067 453.344 7.26667 452.992 7.208C451.804 7.00267 450.572 6.90733 449.296 6.922C448.02 6.922 446.773 7.03933 445.556 7.274ZM472 20.254C470.269 20.254 468.905 19.7993 467.908 18.89C466.911 17.9807 466.412 16.6827 466.412 14.996C466.412 14.82 466.434 14.5707 466.478 14.248C466.522 13.9253 466.573 13.5513 466.632 13.126C466.221 13.0527 465.825 12.972 465.444 12.884C465.077 12.796 464.74 12.7153 464.432 12.642C464.08 12.5393 463.816 12.3267 463.64 12.004C463.479 11.6813 463.449 11.3513 463.552 11.014C463.669 10.6767 463.882 10.42 464.19 10.244C464.513 10.068 464.843 10.0313 465.18 10.134C465.693 10.2953 466.331 10.442 467.094 10.574C467.167 10.1487 467.248 9.716 467.336 9.276C467.424 8.836 467.505 8.38867 467.578 7.934C467.182 7.86067 466.815 7.78733 466.478 7.714C466.141 7.64067 465.862 7.57467 465.642 7.516C465.305 7.41333 465.048 7.208 464.872 6.9C464.696 6.57733 464.659 6.24733 464.762 5.91C464.865 5.558 465.07 5.294 465.378 5.118C465.686 4.942 466.016 4.90533 466.368 5.008C466.544 5.052 466.779 5.11067 467.072 5.184C467.365 5.24267 467.695 5.30867 468.062 5.382C468.179 4.69267 468.282 4.06933 468.37 3.512C468.473 2.94 468.531 2.478 468.546 2.126C468.575 1.75933 468.737 1.466 469.03 1.246C469.338 1.026 469.668 0.937999 470.02 0.981999C470.387 1.026 470.68 1.19467 470.9 1.488C471.12 1.76667 471.208 2.08933 471.164 2.456C471.12 2.82267 471.047 3.30667 470.944 3.908C470.856 4.49467 470.739 5.14 470.592 5.844C470.827 5.888 471.039 5.92467 471.23 5.954C471.435 5.96867 471.619 5.99067 471.78 6.02C472.132 6.07867 472.418 6.24733 472.638 6.526C472.858 6.80467 472.946 7.12 472.902 7.472C472.858 7.83867 472.689 8.132 472.396 8.352C472.117 8.55733 471.802 8.638 471.45 8.594C471.274 8.57933 471.069 8.55733 470.834 8.528C470.599 8.484 470.357 8.44733 470.108 8.418C470.02 8.84333 469.932 9.26867 469.844 9.694C469.771 10.1193 469.697 10.5373 469.624 10.948C469.917 10.9773 470.196 11.0067 470.46 11.036C470.739 11.0653 470.995 11.0873 471.23 11.102C471.582 11.1167 471.875 11.2633 472.11 11.542C472.359 11.806 472.477 12.114 472.462 12.466C472.447 12.8327 472.301 13.1333 472.022 13.368C471.758 13.6027 471.443 13.7127 471.076 13.698C470.783 13.6687 470.475 13.6467 470.152 13.632C469.829 13.6027 469.499 13.566 469.162 13.522C469.045 14.226 468.986 14.7173 468.986 14.996C468.986 16.756 469.991 17.636 472 17.636C472.836 17.636 473.533 17.4453 474.09 17.064C474.647 16.668 474.985 16.1547 475.102 15.524C475.322 14.4093 474.875 13.3387 473.76 12.312C473.496 12.0627 473.371 11.7547 473.386 11.388C473.415 11.0067 473.569 10.6913 473.848 10.442C474.112 10.1927 474.42 10.0827 474.772 10.112C475.124 10.1413 475.432 10.2807 475.696 10.53C476.517 11.3073 477.089 12.158 477.412 13.082C477.735 13.9913 477.815 14.908 477.654 15.832C477.434 17.1667 476.818 18.2373 475.806 19.044C474.794 19.8507 473.525 20.254 472 20.254ZM24.718 56.188C23.3687 56.188 22.3053 56.034 21.528 55.726C20.7653 55.4327 20.2227 54.934 19.9 54.23C19.592 53.526 19.438 52.5873 19.438 51.414V42.042C19.438 40.854 19.592 39.9153 19.9 39.226C20.2227 38.522 20.7653 38.016 21.528 37.708C22.3053 37.4 23.3687 37.246 24.718 37.246H27.094C28.4433 37.246 29.514 37.4 30.306 37.708C31.098 38.016 31.6627 38.522 32 39.226C32.3373 39.9153 32.506 40.854 32.506 42.042V51.414C32.506 52.5873 32.3373 53.526 32 54.23C31.6627 54.934 31.098 55.4327 30.306 55.726C29.514 56.034 28.4433 56.188 27.094 56.188H24.718ZM16.622 56.848C16.2993 56.848 16.0133 56.7307 15.764 56.496C15.5293 56.276 15.412 55.9827 15.412 55.616V45.254C15.28 45.474 15.148 45.6867 15.016 45.892C14.884 46.0827 14.7593 46.266 14.642 46.442C14.4513 46.7207 14.1727 46.8893 13.806 46.948C13.454 46.992 13.1313 46.9187 12.838 46.728C12.5593 46.552 12.3907 46.288 12.332 45.936C12.288 45.584 12.376 45.2687 12.596 44.99C12.9187 44.55 13.2633 44 13.63 43.34C14.0113 42.68 14.3853 41.9833 14.752 41.25C15.1187 40.502 15.4487 39.776 15.742 39.072C16.05 38.368 16.2847 37.752 16.446 37.224C16.5633 36.8573 16.776 36.6007 17.084 36.454C17.4067 36.3073 17.7367 36.2927 18.074 36.41C18.426 36.5127 18.668 36.718 18.8 37.026C18.9467 37.3193 18.9613 37.6347 18.844 37.972C18.7267 38.3533 18.58 38.764 18.404 39.204C18.2427 39.6293 18.0593 40.0693 17.854 40.524V55.616C17.854 55.9827 17.7293 56.276 17.48 56.496C17.2453 56.7307 16.9593 56.848 16.622 56.848ZM24.652 54.01H27.292C28.3187 54.01 29.0447 53.8267 29.47 53.46C29.8953 53.0933 30.108 52.426 30.108 51.458V44.264C29.9173 44.484 29.668 44.594 29.36 44.594H27.116V46.31C27.8933 46.4127 28.414 46.684 28.678 47.124C28.9567 47.564 29.096 48.2973 29.096 49.324C29.096 50.1453 29.008 50.7833 28.832 51.238C28.656 51.678 28.3407 51.986 27.886 52.162C27.4313 52.3233 26.7933 52.404 25.972 52.404C25.1507 52.404 24.5127 52.3233 24.058 52.162C23.6033 51.986 23.288 51.678 23.112 51.238C22.936 50.7833 22.848 50.1453 22.848 49.324C22.848 48.2973 22.9873 47.564 23.266 47.124C23.5447 46.684 24.0727 46.4127 24.85 46.31V44.594H22.562C22.254 44.594 22.0193 44.4987 21.858 44.308V51.458C21.858 52.426 22.0633 53.0933 22.474 53.46C22.8993 53.8267 23.6253 54.01 24.652 54.01ZM30.108 42.834V41.976C30.108 41.052 29.9027 40.3993 29.492 40.018C29.096 39.6367 28.3627 39.446 27.292 39.446H24.652C23.596 39.446 22.8627 39.6367 22.452 40.018C22.056 40.3993 21.858 41.052 21.858 41.976V42.812C22.0487 42.6213 22.276 42.526 22.54 42.526H24.85V41.184C24.85 40.8467 24.96 40.5827 25.18 40.392C25.4147 40.1867 25.6787 40.084 25.972 40.084C26.28 40.084 26.544 40.1867 26.764 40.392C26.9987 40.5827 27.116 40.8467 27.116 41.184V42.526H29.36C29.6827 42.526 29.932 42.6287 30.108 42.834ZM25.972 50.402C26.4267 50.402 26.7127 50.336 26.83 50.204C26.962 50.072 27.028 49.7787 27.028 49.324C27.028 48.8547 26.962 48.5613 26.83 48.444C26.7127 48.3267 26.4267 48.268 25.972 48.268C25.5173 48.268 25.224 48.3267 25.092 48.444C24.9747 48.5613 24.916 48.8547 24.916 49.324C24.916 49.7933 24.9747 50.094 25.092 50.226C25.224 50.3433 25.5173 50.402 25.972 50.402ZM41.504 56.958C41.152 56.958 40.8513 56.8407 40.602 56.606C40.3527 56.3713 40.228 56.0633 40.228 55.682V37.686C40.228 37.3047 40.3527 36.9967 40.602 36.762C40.8513 36.5273 41.152 36.41 41.504 36.41C41.856 36.41 42.1567 36.5273 42.406 36.762C42.6553 36.9967 42.78 37.3047 42.78 37.686V40.15C43 40.018 43.242 39.974 43.506 40.018C43.77 40.062 43.9827 40.1867 44.144 40.392C44.2907 40.5827 44.4813 40.854 44.716 41.206C44.9653 41.558 45.156 41.8293 45.288 42.02C45.508 41.448 45.706 40.898 45.882 40.37C46.058 39.8273 46.1827 39.3727 46.256 39.006C46.344 38.6247 46.5347 38.3533 46.828 38.192C47.1213 38.016 47.4513 37.9793 47.818 38.082C48.1407 38.17 48.3827 38.3387 48.544 38.588C48.72 38.8373 48.764 39.1453 48.676 39.512C48.6027 39.82 48.522 40.1353 48.434 40.458C48.346 40.7807 48.2433 41.1107 48.126 41.448H49.556V37.862C49.556 37.466 49.6807 37.1507 49.93 36.916C50.194 36.6813 50.502 36.564 50.854 36.564C51.206 36.564 51.5067 36.6813 51.756 36.916C52.02 37.1507 52.152 37.466 52.152 37.862V41.448H56.068C56.3907 41.448 56.662 41.5653 56.882 41.8C57.1167 42.02 57.234 42.2913 57.234 42.614C57.234 42.9367 57.1167 43.208 56.882 43.428C56.662 43.648 56.3907 43.758 56.068 43.758H52.152V47.146H55.298C55.6353 47.146 55.914 47.2633 56.134 47.498C56.3687 47.718 56.486 47.9967 56.486 48.334C56.486 48.6567 56.3687 48.9353 56.134 49.17C55.914 49.39 55.6353 49.5 55.298 49.5H52.152V53.636H56.464C56.7867 53.636 57.0653 53.7533 57.3 53.988C57.5347 54.208 57.652 54.4867 57.652 54.824C57.652 55.1467 57.5347 55.4253 57.3 55.66C57.0653 55.8947 56.7867 56.012 56.464 56.012H45.266C44.9433 56.012 44.6647 55.8947 44.43 55.66C44.1953 55.4253 44.078 55.1467 44.078 54.824C44.078 54.4867 44.1953 54.208 44.43 53.988C44.6647 53.7533 44.9433 53.636 45.266 53.636H49.556V49.5H46.41C46.0873 49.5 45.8087 49.39 45.574 49.17C45.3393 48.9353 45.222 48.6567 45.222 48.334C45.222 47.9967 45.3393 47.718 45.574 47.498C45.8087 47.2633 46.0873 47.146 46.41 47.146H49.556V43.758H47.312C46.9747 44.6087 46.652 45.3127 46.344 45.87C46.1827 46.178 45.926 46.4053 45.574 46.552C45.2367 46.684 44.892 46.6547 44.54 46.464C44.2467 46.3027 44.0487 46.068 43.946 45.76C43.858 45.4373 43.8947 45.1293 44.056 44.836C44.1293 44.704 44.2027 44.5573 44.276 44.396C44.364 44.22 44.452 44.0367 44.54 43.846C44.3493 43.8607 44.1587 43.8313 43.968 43.758C43.7773 43.6847 43.6233 43.5527 43.506 43.362C43.4327 43.2447 43.3227 43.0833 43.176 42.878C43.044 42.658 42.912 42.4453 42.78 42.24V55.682C42.78 56.0633 42.6553 56.3713 42.406 56.606C42.1567 56.8407 41.856 56.958 41.504 56.958ZM37.72 47.432C37.3827 47.3587 37.1407 47.1973 36.994 46.948C36.8473 46.6987 36.8033 46.42 36.862 46.112C36.9207 45.804 36.994 45.3787 37.082 44.836C37.1847 44.2933 37.28 43.7433 37.368 43.186C37.456 42.6287 37.5147 42.1887 37.544 41.866C37.588 41.5287 37.7347 41.272 37.984 41.096C38.248 40.9053 38.556 40.8393 38.908 40.898C39.216 40.9567 39.4507 41.096 39.612 41.316C39.7733 41.5213 39.8393 41.8 39.81 42.152C39.766 42.5627 39.7 43.054 39.612 43.626C39.5387 44.1833 39.4507 44.7333 39.348 45.276C39.26 45.804 39.1793 46.2367 39.106 46.574C39.0473 46.8673 38.8787 47.102 38.6 47.278C38.3213 47.4393 38.028 47.4907 37.72 47.432ZM62.294 56.298C62.0153 56.298 61.788 56.2027 61.612 56.012C61.4507 55.8213 61.37 55.6013 61.37 55.352C61.37 55.088 61.4507 54.8607 61.612 54.67C61.788 54.4793 62.0153 54.384 62.294 54.384H67.75C67.6767 54.1933 67.6033 54.01 67.53 53.834C67.4567 53.6433 67.3907 53.4747 67.332 53.328C67.2147 53.0787 67.1927 52.844 67.266 52.624H66.848C65.9387 52.624 65.3007 52.4627 64.934 52.14C64.582 51.8173 64.406 51.2307 64.406 50.38C64.406 49.5147 64.582 48.928 64.934 48.62C65.3007 48.2973 65.9387 48.136 66.848 48.136H76.33C77.2393 48.136 77.87 48.2973 78.222 48.62C78.5887 48.928 78.772 49.5147 78.772 50.38C78.772 51.2307 78.5887 51.8173 78.222 52.14C77.87 52.4627 77.2393 52.624 76.33 52.624H76.176C76.22 52.8293 76.1907 53.0567 76.088 53.306C76.0293 53.4233 75.9487 53.5847 75.846 53.79C75.758 53.9807 75.6627 54.1787 75.56 54.384H80.95C81.2433 54.384 81.4633 54.4793 81.61 54.67C81.7713 54.8607 81.852 55.088 81.852 55.352C81.852 55.6013 81.7713 55.8213 81.61 56.012C81.4633 56.2027 81.2433 56.298 80.95 56.298H62.294ZM67.706 44.924C66.5767 44.924 65.7187 44.8433 65.132 44.682C64.56 44.506 64.1713 44.176 63.966 43.692C63.7607 43.1933 63.658 42.4673 63.658 41.514C63.658 40.5607 63.7607 39.842 63.966 39.358C64.1713 38.874 64.56 38.5513 65.132 38.39C65.7187 38.214 66.5767 38.126 67.706 38.126H68.212V37.488C68.212 37.1067 68.3293 36.806 68.564 36.586C68.7987 36.3513 69.0847 36.234 69.422 36.234C69.7593 36.234 70.0453 36.344 70.28 36.564C70.5147 36.784 70.632 37.0847 70.632 37.466V38.126H72.612V37.466C72.612 37.0847 72.7293 36.784 72.964 36.564C73.2133 36.344 73.4993 36.234 73.822 36.234C74.1593 36.234 74.4453 36.344 74.68 36.564C74.9293 36.784 75.054 37.0847 75.054 37.466V38.126H75.538C76.682 38.126 77.54 38.214 78.112 38.39C78.6987 38.5513 79.0873 38.874 79.278 39.358C79.4833 39.842 79.586 40.5607 79.586 41.514C79.586 42.4673 79.4833 43.1933 79.278 43.692C79.0873 44.176 78.6987 44.506 78.112 44.682C77.54 44.8433 76.682 44.924 75.538 44.924H67.706ZM62.536 47.432C62.2573 47.432 62.0373 47.344 61.876 47.168C61.7147 46.992 61.634 46.7793 61.634 46.53C61.634 46.266 61.7147 46.0533 61.876 45.892C62.0373 45.716 62.2573 45.628 62.536 45.628H80.664C80.928 45.628 81.1407 45.716 81.302 45.892C81.4633 46.0533 81.544 46.266 81.544 46.53C81.544 46.7793 81.4633 46.992 81.302 47.168C81.1407 47.344 80.928 47.432 80.664 47.432H62.536ZM67.706 50.93H75.472C75.736 50.93 75.912 50.9007 76 50.842C76.088 50.7687 76.132 50.6147 76.132 50.38C76.132 50.1453 76.088 49.9987 76 49.94C75.912 49.8667 75.736 49.83 75.472 49.83H67.706C67.4567 49.83 67.2807 49.8667 67.178 49.94C67.09 49.9987 67.046 50.1453 67.046 50.38C67.046 50.6147 67.09 50.7687 67.178 50.842C67.2807 50.9007 67.4567 50.93 67.706 50.93ZM70.434 54.384H72.898C73.0153 54.1493 73.1547 53.856 73.316 53.504C73.4773 53.1373 73.6093 52.844 73.712 52.624H69.664C69.7667 52.844 69.8987 53.1447 70.06 53.526C70.2213 53.8927 70.346 54.1787 70.434 54.384ZM70.632 43.296H72.612V42.284H70.632V43.296ZM70.632 40.744H72.612V39.732H70.632V40.744ZM67.816 43.296H68.212V42.284H66.144C66.188 42.7387 66.3273 43.0247 66.562 43.142C66.7967 43.2447 67.2147 43.296 67.816 43.296ZM66.144 40.744H68.212V39.732H67.816C67.2147 39.732 66.7967 39.7833 66.562 39.886C66.342 39.9887 66.2027 40.2747 66.144 40.744ZM75.054 43.296H75.428C76.044 43.296 76.462 43.2447 76.682 43.142C76.9167 43.0247 77.056 42.7387 77.1 42.284H75.054V43.296ZM75.054 40.744H77.1C77.056 40.2747 76.9167 39.9887 76.682 39.886C76.462 39.7833 76.044 39.732 75.428 39.732H75.054V40.744ZM92.72 55.528C92.3533 55.484 92.06 55.3153 91.84 55.022C91.62 54.7433 91.532 54.4207 91.576 54.054C91.6347 53.6873 91.8033 53.394 92.082 53.174C92.3753 52.954 92.698 52.866 93.05 52.91C93.5193 52.9687 93.93 52.9833 94.282 52.954C94.634 52.91 94.942 52.756 95.206 52.492C95.4847 52.228 95.7267 51.7953 95.932 51.194C96.1373 50.5927 96.3133 49.764 96.46 48.708C96.592 47.784 96.5993 47.0653 96.482 46.552C96.3647 46.024 96.086 45.6647 95.646 45.474C95.206 45.2687 94.5533 45.1953 93.688 45.254C93.336 46.4567 92.918 47.6593 92.434 48.862C91.95 50.0647 91.4073 51.2087 90.806 52.294C90.2193 53.3647 89.5813 54.3327 88.892 55.198C88.672 55.4767 88.3787 55.638 88.012 55.682C87.66 55.7407 87.3373 55.66 87.044 55.44C86.7653 55.2053 86.5967 54.912 86.538 54.56C86.494 54.1933 86.5893 53.8707 86.824 53.592C87.6893 52.536 88.474 51.2967 89.178 49.874C89.8967 48.4513 90.498 46.9847 90.982 45.474C90.5273 45.5327 90.058 45.5913 89.574 45.65C89.1047 45.694 88.6353 45.738 88.166 45.782C87.814 45.8113 87.4913 45.716 87.198 45.496C86.9193 45.276 86.758 44.9827 86.714 44.616C86.6847 44.2493 86.78 43.9267 87 43.648C87.2347 43.3547 87.528 43.1933 87.88 43.164C88.5107 43.0907 89.1487 43.032 89.794 42.988C90.4393 42.9293 91.07 42.8853 91.686 42.856C91.994 41.5067 92.1847 40.2453 92.258 39.072C92.2873 38.7053 92.434 38.4047 92.698 38.17C92.962 37.9207 93.2773 37.8107 93.644 37.84C94.0107 37.8547 94.3113 38.0013 94.546 38.28C94.7953 38.544 94.9053 38.8593 94.876 39.226C94.832 39.7687 94.7587 40.3333 94.656 40.92C94.568 41.5067 94.458 42.108 94.326 42.724C96.3353 42.7533 97.692 43.2887 98.396 44.33C99.1 45.3713 99.3053 46.948 99.012 49.06C98.7773 50.8787 98.396 52.2867 97.868 53.284C97.3547 54.2813 96.6727 54.9413 95.822 55.264C94.986 55.6013 93.952 55.6893 92.72 55.528ZM105.084 49.016C104.761 49.192 104.424 49.2287 104.072 49.126C103.735 49.0233 103.471 48.818 103.28 48.51C103.031 48.0407 102.715 47.542 102.334 47.014C101.953 46.486 101.557 45.98 101.146 45.496C100.75 44.9973 100.369 44.572 100.002 44.22C99.738 43.9707 99.5987 43.67 99.584 43.318C99.5693 42.966 99.6867 42.658 99.936 42.394C100.185 42.13 100.486 41.9907 100.838 41.976C101.205 41.9613 101.52 42.0787 101.784 42.328C102.253 42.768 102.723 43.274 103.192 43.846C103.676 44.4033 104.123 44.9753 104.534 45.562C104.959 46.1487 105.311 46.706 105.59 47.234C105.781 47.5567 105.825 47.894 105.722 48.246C105.619 48.598 105.407 48.8547 105.084 49.016ZM119.362 56.452C118.247 56.452 117.323 56.166 116.59 55.594C115.871 55.0367 115.512 54.208 115.512 53.108C115.512 52.1107 115.864 51.3187 116.568 50.732C117.287 50.1307 118.233 49.83 119.406 49.83C119.846 49.83 120.271 49.852 120.682 49.896V45.738C120.682 45.3567 120.807 45.0413 121.056 44.792C121.305 44.5427 121.613 44.418 121.98 44.418C122.347 44.418 122.655 44.5427 122.904 44.792C123.153 45.0413 123.278 45.3567 123.278 45.738V50.49C124.07 50.7393 124.818 51.0473 125.522 51.414C126.241 51.766 126.871 52.1327 127.414 52.514C127.707 52.734 127.883 53.0273 127.942 53.394C128.001 53.746 127.92 54.0687 127.7 54.362C127.495 54.6553 127.209 54.8313 126.842 54.89C126.49 54.9487 126.167 54.8753 125.874 54.67C125.522 54.3913 125.119 54.1273 124.664 53.878C124.224 53.614 123.762 53.372 123.278 53.152C123.19 54.2227 122.816 55.0367 122.156 55.594C121.496 56.166 120.565 56.452 119.362 56.452ZM113.51 50.358C113.231 50.5927 112.909 50.71 112.542 50.71C112.19 50.71 111.889 50.5853 111.64 50.336C111.376 50.072 111.244 49.7567 111.244 49.39C111.244 49.0087 111.383 48.7007 111.662 48.466C112.498 47.718 113.231 46.8673 113.862 45.914C114.507 44.9607 115.035 43.9707 115.446 42.944C115.05 43.0027 114.661 43.0467 114.28 43.076C113.913 43.1053 113.561 43.1347 113.224 43.164C112.843 43.1787 112.52 43.0687 112.256 42.834C111.992 42.5993 111.853 42.2767 111.838 41.866C111.823 41.4993 111.933 41.1987 112.168 40.964C112.403 40.7147 112.725 40.5827 113.136 40.568C113.605 40.5387 114.097 40.4947 114.61 40.436C115.138 40.3773 115.666 40.3113 116.194 40.238C116.267 39.9007 116.311 39.556 116.326 39.204C116.355 38.852 116.37 38.5147 116.37 38.192C116.37 37.8253 116.495 37.5173 116.744 37.268C116.993 37.004 117.301 36.872 117.668 36.872C118.035 36.872 118.35 37.004 118.614 37.268C118.878 37.5173 119.003 37.8253 118.988 38.192C118.973 38.6907 118.929 39.2113 118.856 39.754C118.959 39.7247 119.054 39.7027 119.142 39.688C119.245 39.6587 119.34 39.6367 119.428 39.622C119.795 39.534 120.132 39.578 120.44 39.754C120.748 39.93 120.939 40.2087 121.012 40.59C121.085 40.9567 121.019 41.2867 120.814 41.58C120.623 41.8733 120.352 42.064 120 42.152C119.765 42.2107 119.494 42.2693 119.186 42.328C118.893 42.3867 118.585 42.4453 118.262 42.504C117.807 44.044 117.169 45.496 116.348 46.86C115.541 48.224 114.595 49.39 113.51 50.358ZM126.204 44.528C125.735 44.2347 125.177 43.934 124.532 43.626C123.901 43.318 123.344 43.0907 122.86 42.944C122.523 42.8267 122.259 42.6213 122.068 42.328C121.877 42.0347 121.826 41.712 121.914 41.36C121.987 41.008 122.178 40.7367 122.486 40.546C122.809 40.3553 123.146 40.3113 123.498 40.414C123.938 40.5313 124.422 40.7 124.95 40.92C125.478 41.14 125.984 41.3747 126.468 41.624C126.967 41.8733 127.377 42.108 127.7 42.328C127.993 42.5187 128.169 42.7973 128.228 43.164C128.301 43.5307 128.235 43.868 128.03 44.176C127.839 44.4693 127.561 44.6527 127.194 44.726C126.842 44.7847 126.512 44.7187 126.204 44.528ZM119.34 54.032C119.824 54.032 120.169 53.922 120.374 53.702C120.579 53.482 120.682 53.1447 120.682 52.69V52.316C120.447 52.2573 120.213 52.2207 119.978 52.206C119.758 52.1767 119.545 52.162 119.34 52.162C118.885 52.162 118.548 52.25 118.328 52.426C118.123 52.5873 118.02 52.8147 118.02 53.108C118.02 53.3867 118.123 53.614 118.328 53.79C118.533 53.9513 118.871 54.032 119.34 54.032ZM143.65 55.44C143.283 55.44 142.961 55.308 142.682 55.044C142.418 54.78 142.286 54.4647 142.286 54.098C142.286 53.7167 142.418 53.4013 142.682 53.152C142.961 52.888 143.283 52.7487 143.65 52.734C144.486 52.7047 145.036 52.5873 145.3 52.382C145.579 52.162 145.703 51.7293 145.674 51.084C145.659 50.6147 145.63 50.0207 145.586 49.302C145.557 48.5833 145.527 47.8207 145.498 47.014C144.677 47.8647 143.782 48.7227 142.814 49.588C141.846 50.4533 140.871 51.2673 139.888 52.03C138.905 52.7927 137.967 53.4527 137.072 54.01C136.749 54.2007 136.405 54.2447 136.038 54.142C135.686 54.0393 135.415 53.8267 135.224 53.504C135.033 53.1813 134.989 52.844 135.092 52.492C135.195 52.1253 135.407 51.8467 135.73 51.656C136.478 51.1867 137.329 50.5853 138.282 49.852C139.25 49.104 140.24 48.2973 141.252 47.432C142.264 46.5667 143.203 45.7087 144.068 44.858H137.006C136.639 44.858 136.324 44.7333 136.06 44.484C135.811 44.22 135.686 43.9047 135.686 43.538C135.686 43.1713 135.811 42.8633 136.06 42.614C136.324 42.35 136.639 42.218 137.006 42.218H145.278C145.263 41.6167 145.241 41.0887 145.212 40.634C145.197 40.1793 145.183 39.8273 145.168 39.578C145.153 39.1967 145.278 38.874 145.542 38.61C145.806 38.346 146.121 38.2067 146.488 38.192C146.869 38.1773 147.185 38.302 147.434 38.566C147.698 38.8153 147.837 39.1307 147.852 39.512C147.867 39.7907 147.881 40.1647 147.896 40.634C147.911 41.1033 147.933 41.6313 147.962 42.218H151.328C151.695 42.218 152.003 42.35 152.252 42.614C152.516 42.8633 152.648 43.1713 152.648 43.538C152.648 43.9047 152.516 44.22 152.252 44.484C152.003 44.7333 151.695 44.858 151.328 44.858H148.072C148.101 45.6207 148.131 46.3833 148.16 47.146C148.204 47.9087 148.241 48.62 148.27 49.28C148.314 49.94 148.343 50.4973 148.358 50.952C148.431 52.536 148.101 53.68 147.368 54.384C146.635 55.088 145.395 55.44 143.65 55.44ZM166.86 55.946C166.537 56.1367 166.185 56.1733 165.804 56.056C165.437 55.9387 165.166 55.7187 164.99 55.396C164.814 55.0587 164.77 54.714 164.858 54.362C164.961 54.01 165.173 53.7387 165.496 53.548C166.405 53.0493 167.168 52.4993 167.784 51.898C168.4 51.282 168.891 50.5707 169.258 49.764C169.639 48.9573 169.911 48.004 170.072 46.904C170.248 45.804 170.336 44.506 170.336 43.01C170.336 42.394 170.314 41.734 170.27 41.03C170.241 40.326 170.189 39.7467 170.116 39.292C170.072 38.9107 170.167 38.5733 170.402 38.28C170.651 37.9867 170.959 37.818 171.326 37.774C171.707 37.73 172.037 37.8253 172.316 38.06C172.609 38.2947 172.778 38.6027 172.822 38.984C172.881 39.336 172.917 39.7613 172.932 40.26C172.961 40.744 172.976 41.228 172.976 41.712C172.991 42.196 172.998 42.6287 172.998 43.01C172.998 45.122 172.822 46.9847 172.47 48.598C172.118 50.1967 171.495 51.5973 170.6 52.8C169.72 53.988 168.473 55.0367 166.86 55.946ZM164.66 48.664C164.293 48.6347 163.993 48.4807 163.758 48.202C163.538 47.9233 163.435 47.586 163.45 47.19C163.479 46.8087 163.487 46.3027 163.472 45.672C163.457 45.0267 163.435 44.352 163.406 43.648C163.377 42.9293 163.333 42.2473 163.274 41.602C163.23 40.942 163.179 40.4067 163.12 39.996C163.061 39.6 163.149 39.2553 163.384 38.962C163.619 38.6687 163.919 38.5 164.286 38.456C164.667 38.412 165.005 38.5 165.298 38.72C165.591 38.9253 165.76 39.2187 165.804 39.6C165.848 40.0107 165.892 40.568 165.936 41.272C165.995 41.9613 166.039 42.6947 166.068 43.472C166.112 44.2493 166.141 44.9973 166.156 45.716C166.185 46.42 166.185 46.992 166.156 47.432C166.141 47.828 165.98 48.136 165.672 48.356C165.379 48.576 165.041 48.6787 164.66 48.664ZM187.122 54.868C186.755 54.9707 186.403 54.9413 186.066 54.78C185.743 54.604 185.523 54.3327 185.406 53.966C185.303 53.614 185.333 53.2693 185.494 52.932C185.67 52.5947 185.934 52.3747 186.286 52.272C187.415 51.92 188.567 51.4287 189.74 50.798C190.928 50.1673 192.072 49.4487 193.172 48.642C194.287 47.8207 195.306 46.9553 196.23 46.046C197.169 45.1367 197.946 44.2273 198.562 43.318C198.767 43.01 199.053 42.8193 199.42 42.746C199.787 42.6727 200.124 42.746 200.432 42.966C200.755 43.1713 200.945 43.4573 201.004 43.824C201.077 44.1907 201.011 44.528 200.806 44.836C200.131 45.8333 199.273 46.8453 198.232 47.872C197.191 48.884 196.047 49.852 194.8 50.776C193.553 51.6853 192.27 52.4993 190.95 53.218C189.63 53.922 188.354 54.472 187.122 54.868ZM190.268 43.67C190.063 43.494 189.769 43.274 189.388 43.01C189.021 42.746 188.64 42.4893 188.244 42.24C187.848 41.976 187.503 41.7707 187.21 41.624C186.887 41.448 186.675 41.1767 186.572 40.81C186.469 40.4433 186.513 40.0987 186.704 39.776C186.895 39.4387 187.173 39.226 187.54 39.138C187.907 39.05 188.251 39.094 188.574 39.27C188.897 39.446 189.285 39.688 189.74 39.996C190.209 40.2893 190.664 40.59 191.104 40.898C191.544 41.206 191.889 41.47 192.138 41.69C192.417 41.9393 192.556 42.2547 192.556 42.636C192.571 43.0173 192.453 43.3473 192.204 43.626C191.94 43.9047 191.625 44.044 191.258 44.044C190.891 44.044 190.561 43.9193 190.268 43.67ZM187.936 47.74C187.731 47.5787 187.43 47.3807 187.034 47.146C186.653 46.8967 186.249 46.6547 185.824 46.42C185.413 46.1853 185.061 46.002 184.768 45.87C184.431 45.7087 184.203 45.4447 184.086 45.078C183.969 44.7113 183.991 44.3667 184.152 44.044C184.328 43.7067 184.592 43.4867 184.944 43.384C185.311 43.2667 185.655 43.2887 185.978 43.45C186.33 43.6113 186.741 43.824 187.21 44.088C187.694 44.352 188.163 44.6307 188.618 44.924C189.073 45.2027 189.432 45.4447 189.696 45.65C189.989 45.8847 190.151 46.1927 190.18 46.574C190.209 46.9407 190.099 47.2707 189.85 47.564C189.615 47.8573 189.307 48.0187 188.926 48.048C188.559 48.0773 188.229 47.9747 187.936 47.74ZM198.386 41.932C198.21 42.1227 197.983 42.218 197.704 42.218C197.44 42.2033 197.22 42.0933 197.044 41.888C196.853 41.6827 196.619 41.4407 196.34 41.162C196.076 40.8687 195.827 40.612 195.592 40.392C195.445 40.26 195.365 40.0767 195.35 39.842C195.335 39.6073 195.416 39.3947 195.592 39.204C195.753 39.0427 195.951 38.9547 196.186 38.94C196.421 38.9253 196.633 38.984 196.824 39.116C197.059 39.2773 197.33 39.5047 197.638 39.798C197.961 40.0767 198.225 40.3333 198.43 40.568C198.621 40.7587 198.709 40.986 198.694 41.25C198.679 41.514 198.577 41.7413 198.386 41.932ZM198.98 39.93C198.789 39.7393 198.547 39.512 198.254 39.248C197.961 38.9693 197.689 38.7347 197.44 38.544C197.279 38.412 197.183 38.2287 197.154 37.994C197.125 37.7593 197.191 37.5467 197.352 37.356C197.499 37.1653 197.682 37.0627 197.902 37.048C198.137 37.0187 198.357 37.0627 198.562 37.18C198.811 37.3267 199.097 37.532 199.42 37.796C199.757 38.0453 200.043 38.2873 200.278 38.522C200.469 38.698 200.564 38.918 200.564 39.182C200.579 39.446 200.498 39.6807 200.322 39.886C200.161 40.0767 199.941 40.1793 199.662 40.194C199.398 40.2087 199.171 40.1207 198.98 39.93ZM211.63 55.66C211.293 55.8213 210.948 55.836 210.596 55.704C210.244 55.572 209.987 55.3447 209.826 55.022C209.679 54.6847 209.665 54.34 209.782 53.988C209.914 53.6213 210.149 53.3573 210.486 53.196C211.997 52.5067 213.17 51.612 214.006 50.512C214.857 49.412 215.421 48.0333 215.7 46.376H209.144C208.777 46.376 208.462 46.244 208.198 45.98C207.934 45.716 207.802 45.4007 207.802 45.034C207.802 44.6673 207.934 44.3593 208.198 44.11C208.462 43.846 208.777 43.714 209.144 43.714H215.898V43.626C215.898 42.9367 215.883 42.2327 215.854 41.514C215.839 40.7953 215.803 40.172 215.744 39.644C215.715 39.2627 215.81 38.9327 216.03 38.654C216.25 38.3607 216.543 38.1847 216.91 38.126C217.291 38.082 217.629 38.1773 217.922 38.412C218.23 38.632 218.406 38.9253 218.45 39.292C218.523 39.908 218.56 40.6047 218.56 41.382C218.575 42.1447 218.582 42.8927 218.582 43.626V43.714H224.28C224.661 43.714 224.977 43.846 225.226 44.11C225.49 44.3593 225.622 44.6673 225.622 45.034C225.622 45.4007 225.49 45.716 225.226 45.98C224.977 46.244 224.661 46.376 224.28 46.376H218.406C217.819 50.7613 215.561 53.856 211.63 55.66ZM246.632 52.14C245.356 52.624 244.241 52.8367 243.288 52.778C242.335 52.7193 241.587 52.3747 241.044 51.744C240.516 51.0987 240.252 50.1527 240.252 48.906V41.91C240.252 41.5287 240.384 41.206 240.648 40.942C240.927 40.678 241.249 40.546 241.616 40.546C241.997 40.546 242.313 40.678 242.562 40.942C242.826 41.206 242.958 41.5287 242.958 41.91V48.488C242.958 49.8813 243.801 50.27 245.488 49.654C246.148 49.4047 246.867 49.1113 247.644 48.774C248.436 48.4367 249.14 48.1213 249.756 47.828C250.093 47.6667 250.438 47.6447 250.79 47.762C251.142 47.8647 251.406 48.0847 251.582 48.422C251.758 48.7447 251.787 49.0893 251.67 49.456C251.567 49.8227 251.347 50.0867 251.01 50.248C250.335 50.5707 249.609 50.908 248.832 51.26C248.055 51.5973 247.321 51.8907 246.632 52.14ZM232.222 53.548C231.885 53.6947 231.54 53.7093 231.188 53.592C230.836 53.46 230.579 53.2253 230.418 52.888C230.271 52.5507 230.257 52.206 230.374 51.854C230.506 51.4873 230.741 51.2307 231.078 51.084C232.266 50.5267 233.205 49.852 233.894 49.06C234.583 48.2533 235.075 47.344 235.368 46.332C235.661 45.3053 235.808 44.2053 235.808 43.032C235.808 42.6507 235.94 42.328 236.204 42.064C236.468 41.8 236.783 41.668 237.15 41.668C237.531 41.668 237.847 41.8 238.096 42.064C238.36 42.328 238.492 42.6507 238.492 43.032C238.477 45.5547 237.927 47.7107 236.842 49.5C235.757 51.2893 234.217 52.6387 232.222 53.548ZM260.118 55.55C259.795 55.7113 259.451 55.7407 259.084 55.638C258.732 55.55 258.461 55.3447 258.27 55.022C258.079 54.6993 258.035 54.362 258.138 54.01C258.241 53.6433 258.453 53.3647 258.776 53.174C260.287 52.3527 261.511 51.3333 262.45 50.116C263.403 48.8987 263.997 47.5787 264.232 46.156H257.852C257.485 46.156 257.177 46.0313 256.928 45.782C256.679 45.518 256.554 45.2027 256.554 44.836C256.554 44.4693 256.679 44.1613 256.928 43.912C257.177 43.648 257.485 43.516 257.852 43.516H272.438C272.805 43.516 273.113 43.648 273.362 43.912C273.611 44.1613 273.736 44.4693 273.736 44.836C273.736 45.2027 273.611 45.518 273.362 45.782C273.113 46.0313 272.805 46.156 272.438 46.156H266.872C266.725 47.4173 266.351 48.6493 265.75 49.852C265.163 51.04 264.393 52.1253 263.44 53.108C262.487 54.0907 261.379 54.9047 260.118 55.55ZM260.426 41.426C260.059 41.426 259.744 41.3013 259.48 41.052C259.231 40.788 259.106 40.4727 259.106 40.106C259.106 39.7393 259.231 39.4313 259.48 39.182C259.744 38.918 260.059 38.786 260.426 38.786H269.798C270.179 38.786 270.495 38.918 270.744 39.182C270.993 39.4313 271.118 39.7393 271.118 40.106C271.118 40.4727 270.993 40.788 270.744 41.052C270.495 41.3013 270.179 41.426 269.798 41.426H260.426ZM274.484 43.186C274.293 43.362 274.059 43.4353 273.78 43.406C273.516 43.3767 273.303 43.252 273.142 43.032C272.995 42.812 272.797 42.5407 272.548 42.218C272.299 41.8953 272.071 41.6167 271.866 41.382C271.734 41.2207 271.675 41.0227 271.69 40.788C271.705 40.5533 271.807 40.3553 271.998 40.194C272.174 40.0327 272.372 39.9593 272.592 39.974C272.827 39.9887 273.032 40.0767 273.208 40.238C273.413 40.4287 273.655 40.6853 273.934 41.008C274.227 41.316 274.469 41.5947 274.66 41.844C274.821 42.064 274.88 42.306 274.836 42.57C274.807 42.8193 274.689 43.0247 274.484 43.186ZM276.596 41.36C276.405 41.536 276.171 41.624 275.892 41.624C275.628 41.6093 275.415 41.4993 275.254 41.294C275.078 41.0887 274.858 40.8393 274.594 40.546C274.33 40.238 274.088 39.9667 273.868 39.732C273.721 39.5853 273.641 39.402 273.626 39.182C273.626 38.9473 273.721 38.7347 273.912 38.544C274.073 38.3827 274.264 38.302 274.484 38.302C274.719 38.2873 274.931 38.3533 275.122 38.5C275.342 38.6613 275.606 38.8887 275.914 39.182C276.222 39.4753 276.479 39.7467 276.684 39.996C276.845 40.2013 276.919 40.436 276.904 40.7C276.889 40.9493 276.787 41.1693 276.596 41.36ZM287.266 55.924C286.929 56.0707 286.584 56.078 286.232 55.946C285.88 55.8287 285.623 55.6013 285.462 55.264C285.315 54.9267 285.301 54.582 285.418 54.23C285.55 53.8633 285.785 53.6067 286.122 53.46C287.779 52.6827 289.004 51.634 289.796 50.314C290.588 48.994 291.006 47.2927 291.05 45.21H287.706C287.721 45.7967 287.728 46.354 287.728 46.882C287.728 47.41 287.713 47.8867 287.684 48.312C287.669 48.6933 287.523 49.0087 287.244 49.258C286.965 49.4927 286.635 49.6027 286.254 49.588C285.887 49.5587 285.587 49.4047 285.352 49.126C285.117 48.8327 285.007 48.5027 285.022 48.136C285.051 47.74 285.066 47.2927 285.066 46.794C285.066 46.2807 285.059 45.7527 285.044 45.21H280.534C280.167 45.21 279.852 45.0853 279.588 44.836C279.339 44.5867 279.214 44.2787 279.214 43.912C279.214 43.5453 279.339 43.2373 279.588 42.988C279.852 42.724 280.167 42.592 280.534 42.592H284.956C284.927 42.0787 284.89 41.5947 284.846 41.14C284.817 40.6707 284.773 40.26 284.714 39.908C284.655 39.5413 284.729 39.2113 284.934 38.918C285.154 38.61 285.447 38.4267 285.814 38.368C286.195 38.2947 286.533 38.368 286.826 38.588C287.134 38.808 287.31 39.1013 287.354 39.468C287.413 39.8787 287.464 40.3553 287.508 40.898C287.552 41.426 287.589 41.9907 287.618 42.592H291.028C291.013 41.9613 290.991 41.3527 290.962 40.766C290.947 40.1647 290.918 39.644 290.874 39.204C290.845 38.8227 290.947 38.4927 291.182 38.214C291.431 37.9207 291.739 37.7593 292.106 37.73C292.487 37.7007 292.817 37.8107 293.096 38.06C293.389 38.2947 293.543 38.6027 293.558 38.984C293.602 39.4387 293.631 39.9887 293.646 40.634C293.675 41.2647 293.697 41.9173 293.712 42.592H297.892C298.259 42.592 298.567 42.724 298.816 42.988C299.08 43.2373 299.212 43.5453 299.212 43.912C299.212 44.2787 299.08 44.5867 298.816 44.836C298.567 45.0853 298.259 45.21 297.892 45.21H293.712C293.668 47.8207 293.103 50.028 292.018 51.832C290.933 53.6213 289.349 54.9853 287.266 55.924ZM298.684 39.534C298.493 39.3433 298.251 39.116 297.958 38.852C297.665 38.588 297.393 38.3533 297.144 38.148C296.997 38.016 296.909 37.8327 296.88 37.598C296.851 37.3633 296.917 37.1507 297.078 36.96C297.225 36.7693 297.408 36.6667 297.628 36.652C297.863 36.6227 298.083 36.6667 298.288 36.784C298.537 36.9307 298.823 37.136 299.146 37.4C299.469 37.6493 299.747 37.8913 299.982 38.126C300.187 38.302 300.29 38.522 300.29 38.786C300.29 39.05 300.209 39.2847 300.048 39.49C299.887 39.6807 299.667 39.7833 299.388 39.798C299.124 39.8127 298.889 39.7247 298.684 39.534ZM298.112 41.536C297.921 41.7267 297.694 41.822 297.43 41.822C297.166 41.8073 296.939 41.7047 296.748 41.514C296.572 41.3087 296.345 41.0593 296.066 40.766C295.787 40.4727 295.531 40.216 295.296 39.996C295.149 39.864 295.069 39.6807 295.054 39.446C295.054 39.2113 295.142 38.9987 295.318 38.808C295.479 38.6467 295.67 38.5587 295.89 38.544C296.125 38.5293 296.337 38.5953 296.528 38.742C296.763 38.8887 297.041 39.1087 297.364 39.402C297.687 39.6807 297.951 39.9373 298.156 40.172C298.332 40.3627 298.413 40.59 298.398 40.854C298.398 41.118 298.303 41.3453 298.112 41.536ZM314.7 55.968C314.333 55.968 314.018 55.8287 313.754 55.55C313.49 55.286 313.358 54.9707 313.358 54.604V45.804C312.419 46.6253 311.451 47.4173 310.454 48.18C309.457 48.9427 308.459 49.6393 307.462 50.27C307.139 50.4607 306.795 50.512 306.428 50.424C306.076 50.336 305.797 50.1307 305.592 49.808C305.401 49.4853 305.35 49.1407 305.438 48.774C305.526 48.4073 305.731 48.1287 306.054 47.938C306.978 47.366 307.939 46.6987 308.936 45.936C309.948 45.1733 310.931 44.3593 311.884 43.494C312.852 42.6287 313.739 41.7633 314.546 40.898C315.367 40.018 316.049 39.1893 316.592 38.412C316.812 38.104 317.105 37.9133 317.472 37.84C317.839 37.7667 318.176 37.84 318.484 38.06C318.792 38.2653 318.983 38.5587 319.056 38.94C319.129 39.3067 319.056 39.644 318.836 39.952C318.073 40.9787 317.149 42.0567 316.064 43.186V54.604C316.064 54.9707 315.932 55.286 315.668 55.55C315.404 55.8287 315.081 55.968 314.7 55.968ZM332.564 54.142C332.212 54.274 331.86 54.2593 331.508 54.098C331.171 53.9367 330.936 53.68 330.804 53.328C330.672 52.976 330.687 52.6313 330.848 52.294C331.009 51.942 331.266 51.7 331.618 51.568C332.791 51.1573 333.972 50.6513 335.16 50.05C336.363 49.4487 337.507 48.796 338.592 48.092C339.692 47.3733 340.689 46.64 341.584 45.892C342.493 45.1293 343.234 44.396 343.806 43.692C344.055 43.3987 344.363 43.23 344.73 43.186C345.111 43.142 345.441 43.2447 345.72 43.494C346.013 43.7287 346.182 44.0367 346.226 44.418C346.27 44.7847 346.167 45.1147 345.918 45.408C345.317 46.1413 344.517 46.926 343.52 47.762C342.523 48.5833 341.408 49.3973 340.176 50.204C338.944 51.0107 337.675 51.7587 336.37 52.448C335.065 53.1373 333.796 53.702 332.564 54.142ZM334.456 45.474C333.899 45.0047 333.275 44.5207 332.586 44.022C331.897 43.5087 331.273 43.0907 330.716 42.768C330.393 42.5627 330.188 42.284 330.1 41.932C330.012 41.5653 330.063 41.2207 330.254 40.898C330.459 40.5753 330.738 40.37 331.09 40.282C331.457 40.1793 331.801 40.2307 332.124 40.436C332.52 40.6853 332.967 40.9933 333.466 41.36C333.979 41.712 334.471 42.064 334.94 42.416C335.424 42.768 335.82 43.0687 336.128 43.318C336.421 43.5527 336.59 43.8607 336.634 44.242C336.693 44.6087 336.605 44.9387 336.37 45.232C336.135 45.5253 335.827 45.7013 335.446 45.76C335.079 45.804 334.749 45.7087 334.456 45.474ZM358.7 55.528C358.348 55.484 358.062 55.3153 357.842 55.022C357.622 54.7433 357.534 54.4207 357.578 54.054C357.622 53.6873 357.783 53.394 358.062 53.174C358.355 52.954 358.685 52.866 359.052 52.91C359.507 52.9687 359.91 52.9833 360.262 52.954C360.629 52.91 360.944 52.756 361.208 52.492C361.472 52.228 361.707 51.7953 361.912 51.194C362.117 50.5927 362.293 49.764 362.44 48.708C362.572 47.784 362.579 47.0653 362.462 46.552C362.359 46.024 362.088 45.6647 361.648 45.474C361.208 45.2687 360.555 45.1953 359.69 45.254C359.338 46.4567 358.913 47.6593 358.414 48.862C357.93 50.0647 357.395 51.2087 356.808 52.294C356.221 53.3647 355.583 54.3327 354.894 55.198C354.659 55.4767 354.366 55.638 354.014 55.682C353.662 55.7407 353.339 55.66 353.046 55.44C352.767 55.2053 352.599 54.912 352.54 54.56C352.496 54.1933 352.591 53.8707 352.826 53.592C353.691 52.536 354.476 51.2967 355.18 49.874C355.884 48.4513 356.478 46.9847 356.962 45.474C356.507 45.5327 356.038 45.5913 355.554 45.65C355.085 45.694 354.623 45.738 354.168 45.782C353.801 45.8113 353.479 45.716 353.2 45.496C352.921 45.276 352.76 44.9827 352.716 44.616C352.687 44.2493 352.782 43.9267 353.002 43.648C353.222 43.3547 353.515 43.1933 353.882 43.164C354.513 43.0907 355.151 43.032 355.796 42.988C356.441 42.9293 357.072 42.8853 357.688 42.856C357.849 42.196 357.974 41.5507 358.062 40.92C358.15 40.2747 358.209 39.6587 358.238 39.072C358.267 38.7053 358.414 38.4047 358.678 38.17C358.957 37.9207 359.279 37.8107 359.646 37.84C360.013 37.8547 360.313 38.0013 360.548 38.28C360.797 38.544 360.907 38.8593 360.878 39.226C360.819 39.7687 360.746 40.3333 360.658 40.92C360.57 41.5067 360.46 42.108 360.328 42.724C362.323 42.7533 363.672 43.2887 364.376 44.33C365.095 45.3713 365.307 46.948 365.014 49.06C364.779 50.8787 364.398 52.2867 363.87 53.284C363.357 54.2813 362.675 54.9413 361.824 55.264C360.973 55.6013 359.932 55.6893 358.7 55.528ZM370.976 49.06C370.653 49.236 370.316 49.2727 369.964 49.17C369.612 49.0673 369.348 48.8547 369.172 48.532C368.923 48.0627 368.607 47.5713 368.226 47.058C367.845 46.53 367.449 46.024 367.038 45.54C366.642 45.0413 366.261 44.616 365.894 44.264C365.63 44.0147 365.491 43.714 365.476 43.362C365.461 42.9953 365.579 42.68 365.828 42.416C366.077 42.152 366.378 42.02 366.73 42.02C367.097 42.0053 367.412 42.1227 367.676 42.372C368.145 42.812 368.615 43.318 369.084 43.89C369.568 44.4473 370.015 45.0193 370.426 45.606C370.851 46.1927 371.203 46.75 371.482 47.278C371.658 47.6007 371.695 47.938 371.592 48.29C371.504 48.6273 371.299 48.884 370.976 49.06ZM369.128 42.438C368.937 42.2473 368.695 42.02 368.402 41.756C368.123 41.4773 367.859 41.2353 367.61 41.03C367.463 40.898 367.375 40.7147 367.346 40.48C367.331 40.2453 367.405 40.0327 367.566 39.842C367.727 39.6513 367.918 39.5487 368.138 39.534C368.373 39.5193 368.585 39.5707 368.776 39.688C369.025 39.8347 369.311 40.0473 369.634 40.326C369.971 40.59 370.25 40.832 370.47 41.052C370.661 41.2427 370.756 41.47 370.756 41.734C370.756 41.9833 370.668 42.2107 370.492 42.416C370.316 42.6067 370.089 42.7093 369.81 42.724C369.546 42.724 369.319 42.6287 369.128 42.438ZM370.976 40.37C370.771 40.194 370.507 39.9813 370.184 39.732C369.876 39.4827 369.597 39.2627 369.348 39.072C369.201 38.94 369.106 38.7567 369.062 38.522C369.033 38.2873 369.091 38.0747 369.238 37.884C369.37 37.6933 369.546 37.5833 369.766 37.554C370.001 37.51 370.221 37.5467 370.426 37.664C370.675 37.796 370.976 37.9867 371.328 38.236C371.68 38.4707 371.973 38.6907 372.208 38.896C372.413 39.072 372.523 39.292 372.538 39.556C372.553 39.82 372.479 40.0547 372.318 40.26C372.171 40.4653 371.959 40.5827 371.68 40.612C371.416 40.6413 371.181 40.5607 370.976 40.37ZM378.258 55.704C377.935 55.5133 377.73 55.242 377.642 54.89C377.569 54.538 377.627 54.208 377.818 53.9C378.39 52.976 378.896 51.9567 379.336 50.842C379.776 49.7273 380.15 48.5687 380.458 47.366C380.781 46.1633 381.037 44.9827 381.228 43.824C380.803 43.868 380.385 43.9047 379.974 43.934C379.578 43.9633 379.204 43.9927 378.852 44.022C378.485 44.0367 378.163 43.934 377.884 43.714C377.62 43.4793 377.473 43.1787 377.444 42.812C377.429 42.4453 377.539 42.13 377.774 41.866C378.009 41.5873 378.309 41.4407 378.676 41.426C379.101 41.3967 379.556 41.3673 380.04 41.338C380.539 41.3087 381.037 41.2647 381.536 41.206C381.58 40.7073 381.609 40.2307 381.624 39.776C381.639 39.3213 381.639 38.8887 381.624 38.478C381.609 38.1113 381.719 37.796 381.954 37.532C382.203 37.268 382.511 37.1287 382.878 37.114C383.245 37.0993 383.56 37.2167 383.824 37.466C384.088 37.7007 384.227 38.0013 384.242 38.368C384.257 38.7347 384.257 39.1307 384.242 39.556C384.227 39.9667 384.198 40.4067 384.154 40.876C384.814 40.7587 385.408 40.6487 385.936 40.546C386.288 40.4727 386.618 40.5313 386.926 40.722C387.234 40.9127 387.425 41.184 387.498 41.536C387.571 41.9027 387.505 42.2327 387.3 42.526C387.109 42.8193 386.838 43.0027 386.486 43.076C386.119 43.1493 385.709 43.2227 385.254 43.296C384.814 43.3693 384.345 43.4427 383.846 43.516C383.641 44.8507 383.362 46.2367 383.01 47.674C382.658 49.0967 382.233 50.468 381.734 51.788C381.25 53.0933 380.693 54.252 380.062 55.264C379.871 55.572 379.6 55.77 379.248 55.858C378.896 55.946 378.566 55.8947 378.258 55.704ZM393.57 55.22C391.385 55.7187 389.507 55.7333 387.938 55.264C386.383 54.7947 385.269 53.9293 384.594 52.668C384.433 52.3453 384.396 52.0153 384.484 51.678C384.587 51.326 384.799 51.062 385.122 50.886C385.445 50.71 385.775 50.6733 386.112 50.776C386.464 50.8787 386.728 51.0913 386.904 51.414C387.344 52.1913 388.085 52.6753 389.126 52.866C390.167 53.0567 391.465 52.9833 393.02 52.646C393.387 52.5727 393.717 52.6387 394.01 52.844C394.318 53.0347 394.509 53.306 394.582 53.658C394.655 54.0247 394.589 54.362 394.384 54.67C394.193 54.9633 393.922 55.1467 393.57 55.22ZM392.492 46.816C391.993 46.6987 391.421 46.618 390.776 46.574C390.145 46.53 389.5 46.5227 388.84 46.552C388.195 46.5667 387.586 46.6253 387.014 46.728C386.662 46.7867 386.339 46.7207 386.046 46.53C385.767 46.3247 385.591 46.0533 385.518 45.716C385.445 45.364 385.503 45.0413 385.694 44.748C385.899 44.44 386.178 44.2567 386.53 44.198C387.219 44.0807 387.945 44.0073 388.708 43.978C389.485 43.9487 390.255 43.9633 391.018 44.022C391.781 44.066 392.477 44.1613 393.108 44.308C393.46 44.3813 393.724 44.572 393.9 44.88C394.091 45.188 394.142 45.518 394.054 45.87C393.981 46.2073 393.79 46.4713 393.482 46.662C393.174 46.838 392.844 46.8893 392.492 46.816ZM414.316 56.364C414.023 56.5693 413.693 56.6353 413.326 56.562C412.959 56.5033 412.673 56.3347 412.468 56.056C411.969 55.3373 411.405 54.5893 410.774 53.812C410.158 53.0347 409.542 52.294 408.926 51.59C408.31 50.8713 407.753 50.2627 407.254 49.764C406.389 48.9133 405.809 48.114 405.516 47.366C405.223 46.618 405.23 45.8773 405.538 45.144C405.846 44.396 406.455 43.5967 407.364 42.746C407.672 42.4673 408.039 42.1153 408.464 41.69C408.904 41.2647 409.366 40.81 409.85 40.326C410.334 39.842 410.803 39.358 411.258 38.874C411.713 38.39 412.123 37.9573 412.49 37.576C412.739 37.312 413.047 37.18 413.414 37.18C413.795 37.1653 414.118 37.2827 414.382 37.532C414.646 37.7667 414.778 38.0747 414.778 38.456C414.793 38.8227 414.675 39.138 414.426 39.402C413.913 39.9593 413.341 40.5533 412.71 41.184C412.094 41.8 411.493 42.394 410.906 42.966C410.319 43.5233 409.813 43.9927 409.388 44.374C408.816 44.902 408.435 45.3567 408.244 45.738C408.068 46.1047 408.068 46.4713 408.244 46.838C408.435 47.2047 408.787 47.6593 409.3 48.202C409.799 48.7153 410.363 49.3313 410.994 50.05C411.639 50.7687 412.285 51.5167 412.93 52.294C413.575 53.0713 414.14 53.812 414.624 54.516C414.844 54.7947 414.917 55.1173 414.844 55.484C414.785 55.8653 414.609 56.1587 414.316 56.364ZM437.042 56.276C435.15 56.3053 433.573 56.078 432.312 55.594C431.065 55.1247 430.149 54.45 429.562 53.57C428.975 52.69 428.719 51.656 428.792 50.468C428.865 49.368 429.232 48.4953 429.892 47.85C430.567 47.19 431.439 46.75 432.51 46.53C433.581 46.2953 434.761 46.2733 436.052 46.464C435.641 46.0387 435.216 45.5327 434.776 44.946C434.351 44.3593 433.947 43.736 433.566 43.076C432.701 43.208 431.828 43.3253 430.948 43.428C430.083 43.516 429.232 43.582 428.396 43.626C428.029 43.6407 427.714 43.538 427.45 43.318C427.186 43.0833 427.047 42.7827 427.032 42.416C427.017 42.0493 427.135 41.7413 427.384 41.492C427.633 41.228 427.941 41.0887 428.308 41.074C428.953 41.0447 429.621 41.0007 430.31 40.942C431.014 40.8833 431.718 40.81 432.422 40.722C432.275 40.37 432.151 40.0253 432.048 39.688C431.945 39.336 431.857 38.9987 431.784 38.676C431.725 38.324 431.791 37.994 431.982 37.686C432.173 37.378 432.444 37.1873 432.796 37.114C433.163 37.0407 433.493 37.1067 433.786 37.312C434.094 37.5173 434.285 37.796 434.358 38.148C434.519 38.8667 434.739 39.5853 435.018 40.304C435.737 40.1573 436.426 40.0033 437.086 39.842C437.761 39.6807 438.384 39.5047 438.956 39.314C439.293 39.1967 439.623 39.2187 439.946 39.38C440.283 39.5413 440.503 39.7907 440.606 40.128C440.723 40.48 440.694 40.81 440.518 41.118C440.357 41.426 440.1 41.6387 439.748 41.756C439.205 41.9027 438.633 42.0493 438.032 42.196C437.445 42.3427 436.829 42.482 436.184 42.614C436.727 43.5087 437.35 44.352 438.054 45.144C438.758 45.9213 439.513 46.5813 440.32 47.124C440.599 47.3147 440.775 47.564 440.848 47.872C440.936 48.18 440.907 48.4807 440.76 48.774C440.613 49.0673 440.393 49.2873 440.1 49.434C439.807 49.566 439.506 49.5807 439.198 49.478C436.763 48.6713 434.864 48.4 433.5 48.664C432.151 48.928 431.439 49.61 431.366 50.71C431.234 52.7193 433.111 53.6947 436.998 53.636C437.365 53.6213 437.673 53.746 437.922 54.01C438.186 54.2593 438.325 54.5673 438.34 54.934C438.34 55.3007 438.215 55.6087 437.966 55.858C437.717 56.122 437.409 56.2613 437.042 56.276ZM450.836 55.352C450.513 55.22 450.286 54.978 450.154 54.626C450.022 54.274 450.029 53.9367 450.176 53.614C450.425 53.0713 450.741 52.3893 451.122 51.568C451.518 50.7467 451.943 49.852 452.398 48.884C452.867 47.916 453.344 46.926 453.828 45.914C454.312 44.902 454.789 43.9193 455.258 42.966C455.727 42.0127 456.16 41.1473 456.556 40.37C456.952 39.578 457.282 38.9327 457.546 38.434C457.707 38.1113 457.964 37.906 458.316 37.818C458.683 37.7153 459.02 37.7593 459.328 37.95C459.651 38.1407 459.856 38.412 459.944 38.764C460.047 39.1013 460.003 39.4313 459.812 39.754C459.607 40.1207 459.335 40.6193 458.998 41.25C458.675 41.8807 458.309 42.592 457.898 43.384C457.502 44.176 457.091 45.0047 456.666 45.87C457.179 45.65 457.7 45.54 458.228 45.54C459.621 45.54 460.575 45.98 461.088 46.86C461.616 47.74 461.667 48.9427 461.242 50.468C461.022 51.26 461 51.8027 461.176 52.096C461.367 52.3893 461.711 52.536 462.21 52.536C462.547 52.536 462.87 52.4627 463.178 52.316C463.486 52.1547 463.801 51.8393 464.124 51.37C464.447 50.9007 464.784 50.2113 465.136 49.302C465.268 48.9647 465.503 48.7227 465.84 48.576C466.177 48.4293 466.515 48.4147 466.852 48.532C467.189 48.664 467.431 48.8987 467.578 49.236C467.739 49.5733 467.754 49.918 467.622 50.27C467.035 51.9127 466.302 53.1373 465.422 53.944C464.557 54.736 463.449 55.132 462.1 55.132C461.176 55.132 460.399 54.9413 459.768 54.56C459.137 54.1787 458.719 53.6067 458.514 52.844C458.309 52.0667 458.367 51.0987 458.69 49.94C458.895 49.236 458.917 48.7447 458.756 48.466C458.595 48.1727 458.257 48.026 457.744 48.026C457.084 48.026 456.468 48.2313 455.896 48.642C455.324 49.0527 454.767 49.8227 454.224 50.952C454.165 51.0693 454.055 51.304 453.894 51.656C453.747 51.9933 453.586 52.3673 453.41 52.778C453.234 53.1887 453.065 53.5627 452.904 53.9C452.757 54.2227 452.662 54.4427 452.618 54.56C452.471 54.8973 452.229 55.1467 451.892 55.308C451.569 55.484 451.217 55.4987 450.836 55.352Z" fill="#010F32"/>
</svg>
