<svg width="414" height="50" viewBox="0 0 414 50" fill="none" xmlns="http://www.w3.org/2000/svg">
<path d="M6.76405 48.7028C5.76934 48.9017 4.97357 48.7028 4.1778 48.3049C3.38202 47.907 2.98414 47.3102 2.78519 46.3155C2.58625 45.3208 2.7852 44.525 3.18308 43.9282C3.58097 43.1324 4.37674 42.9334 5.17251 42.7345C6.36617 42.5356 7.55983 42.3366 8.3556 41.7398C9.15137 41.3419 9.74819 40.3472 10.1461 38.9546C10.544 37.562 10.7429 35.7715 10.7429 33.1853C10.7429 31.5937 10.7429 30.0022 10.544 28.6096C9.7482 29.8032 8.95242 30.7979 8.15665 31.9916C7.36088 32.9863 6.56511 33.981 5.76934 34.7768C5.17251 35.3736 4.57568 35.7715 3.77991 35.9705C2.98414 36.1694 2.18837 35.7715 1.59154 35.3736C0.994713 34.9757 0.596827 34.18 0.596827 33.5831C0.596827 32.9863 0.795773 32.1905 1.3926 31.5937C2.38732 30.599 3.18308 29.4053 4.1778 28.2117C5.17251 27.018 6.16722 25.6254 7.16194 24.2328C8.15665 22.8402 8.75349 21.6466 9.35031 20.6519C9.15137 19.8561 8.95242 19.2593 8.75348 18.6624C8.55454 18.0656 8.3556 17.4688 7.95771 16.673C6.963 17.6677 6.16722 18.4635 5.17251 19.4582C4.57568 20.055 3.97886 20.254 2.98414 20.254C2.18837 20.254 1.3926 20.055 0.795767 19.4582C0.198938 18.8614 0 18.2645 0 17.4688C0 16.673 0.397881 16.0762 0.795767 15.4793C2.18837 14.2857 3.38203 12.8931 4.97357 11.3016C4.37674 10.5058 3.97886 9.70999 3.38203 8.91421C2.7852 8.11844 2.18837 7.32268 1.59154 6.52691C1.19366 5.93008 0.994711 5.33325 1.19365 4.53748C1.3926 3.74171 1.79049 3.34382 2.38732 2.94593C2.98414 2.54804 3.58097 2.34911 4.37674 2.54805C5.17251 2.54805 5.76934 2.94594 6.16722 3.54276C7.16194 4.73642 7.95771 5.73114 8.95243 7.12374C9.35031 6.52691 9.94714 5.73114 10.345 5.13431C10.7429 4.53748 11.1408 3.94067 11.5387 3.34384C11.9366 2.54807 12.5334 2.15016 13.3292 1.95122C14.1249 1.75227 14.7218 1.75229 15.5175 2.15017C16.3133 2.54806 16.7112 3.14489 16.9101 3.74172C17.1091 4.33855 16.9101 5.1343 16.5123 5.93007C15.9154 6.92479 15.3186 7.91951 14.5228 9.11317C13.7271 10.3068 12.9313 11.3016 12.1355 12.2963C13.5281 15.2804 14.7218 18.4635 15.3186 21.8455C16.1144 25.2275 16.3133 29.2064 16.3133 33.5831C16.3133 37.562 15.9154 40.5461 15.1197 42.7345C14.3239 44.9229 13.3292 46.3155 11.9366 47.3102C10.544 47.907 8.95242 48.5038 6.76405 48.7028ZM26.6583 19.0603C25.8626 19.0603 25.0668 18.8614 24.47 18.2646C23.8731 17.8667 23.6742 17.0709 23.6742 16.0762V13.092H18.1038C17.308 13.092 16.7112 12.8931 16.1144 12.2963C15.7165 11.6994 15.3186 11.1026 15.3186 10.5058C15.3186 9.90893 15.5175 9.11318 16.1144 8.71529C16.5123 8.11846 17.308 7.9195 18.1038 7.9195H23.6742V4.1396C23.6742 3.14488 23.8731 2.3491 24.47 1.95122C25.0668 1.55333 25.6636 1.15546 26.6583 1.15546C27.653 1.15546 28.0509 1.35439 28.6478 1.95122C29.2446 2.3491 29.4435 3.14488 29.4435 4.1396V7.9195H35.0139V4.1396C35.0139 3.14488 35.2129 2.3491 35.8097 1.95122C36.4065 1.55333 37.0034 1.15546 37.7991 1.15546C38.5949 1.15546 39.1917 1.35439 39.7886 1.95122C40.3854 2.3491 40.5843 3.14488 40.5843 4.1396V7.9195H46.1547C46.9505 7.9195 47.5473 8.11846 48.1442 8.71529C48.542 9.31212 48.9399 9.90893 48.9399 10.5058C48.9399 11.1026 48.741 11.8984 48.1442 12.2963C47.7463 12.8931 46.9505 13.092 46.1547 13.092H40.5843V16.2751C40.5843 17.2698 40.3854 17.8666 39.7886 18.4635C39.1917 18.8614 38.5949 19.2593 37.7991 19.2593C37.0034 19.2593 36.4065 19.0603 35.8097 18.4635C35.2129 18.0656 35.0139 17.2698 35.0139 16.2751V13.092H29.4435V16.2751C29.4435 17.2698 29.2446 17.8666 28.6478 18.4635C28.0509 18.8614 27.4541 19.0603 26.6583 19.0603ZM28.8467 47.907C25.2657 47.907 22.6795 47.1112 21.0879 45.7186C19.4964 44.326 18.7006 41.9387 18.7006 38.3578V29.4053C18.7006 26.0233 19.4964 23.4371 21.0879 22.0445C22.6795 20.6519 25.2657 19.8561 28.8467 19.8561H36.4065C39.9875 19.8561 42.5738 20.6519 44.1653 22.0445C45.7568 23.4371 46.5526 25.8244 46.5526 29.4053V38.3578C46.5526 41.9387 45.7568 44.326 44.1653 45.7186C42.5738 47.1112 39.9875 47.907 36.4065 47.907H28.8467ZM24.6689 31.3948H30.0404V25.6254H29.4435C28.2499 25.6254 27.2552 25.8244 26.6583 26.0233C26.0615 26.2223 25.4647 26.6202 25.2657 27.217C25.0668 27.8138 24.8679 28.6096 24.8679 29.8032V31.3948H24.6689ZM29.2446 42.5356H29.8414V36.7662H24.47V38.5567C24.47 40.1483 24.6689 41.3419 25.2657 41.7398C26.0615 42.1377 27.4541 42.5356 29.2446 42.5356ZM35.4118 31.3948H40.7833V29.6043C40.7833 28.4106 40.5843 27.6149 40.3854 27.018C40.1864 26.4212 39.7886 26.0233 38.9928 25.8244C38.396 25.6254 37.4013 25.4265 36.0087 25.4265H35.4118V31.3948ZM35.4118 42.5356H36.0087C37.2023 42.5356 38.197 42.3366 38.9928 42.1377C39.5896 41.9387 39.9875 41.5409 40.3854 40.944C40.5843 40.3472 40.7833 39.5514 40.7833 38.3578V36.5673H35.4118V42.5356Z" fill="#010F32"/>
<path d="M56.3008 27.2169C55.5051 27.2169 54.9082 27.018 54.5103 26.4211C53.9135 25.8243 53.7146 25.2275 53.7146 24.6307C53.7146 24.0338 53.9135 23.238 54.5103 22.8401C55.1072 22.2433 55.704 22.0444 56.3008 22.0444H61.4733C61.2744 21.8454 61.2744 21.8455 61.2744 21.6465C61.2744 21.4476 61.0755 21.4476 61.0755 21.2486C60.8765 20.4529 60.4786 19.6571 59.8818 18.6624C59.4839 17.6677 59.086 16.8719 58.6881 16.2751C58.2903 15.6782 58.2903 14.8824 58.4892 14.0867C58.6881 13.2909 59.285 12.893 59.8818 12.4951C60.0808 12.4951 60.0807 12.2962 60.2797 12.2962C60.4786 12.2962 60.4786 12.2962 60.6776 12.0972H57.8924C57.0966 12.0972 56.4998 11.8983 56.1019 11.3015C55.5051 10.9036 55.3061 10.3068 55.3061 9.51099C55.3061 8.71521 55.5051 8.31734 56.1019 7.72051C56.6987 7.32263 57.2956 6.92472 57.8924 6.92472H65.0543V3.5427C65.0543 2.54799 65.4522 1.75222 66.049 1.15539C66.6459 0.558565 67.4416 0.359619 68.2374 0.359619C69.2321 0.359619 69.8289 0.558565 70.4258 1.15539C71.0226 1.75222 71.4205 2.54799 71.4205 3.5427V6.92472H78.5824C79.3782 6.92472 79.7761 7.12368 80.3729 7.72051C80.7708 8.1184 81.1687 8.71521 81.1687 9.51099C81.1687 10.3068 80.9697 10.7047 80.3729 11.3015C79.975 11.6994 79.3782 12.0972 78.5824 12.0972H75.9962L76.1951 12.2962C76.9909 12.4951 77.3888 13.092 77.7867 13.6888C78.1845 14.2856 78.1845 15.0814 77.7867 15.8771C77.5877 16.474 77.1898 17.4687 76.593 18.4634C75.9962 19.6571 75.5983 20.6518 75.2004 21.6465H79.3782C80.174 21.6465 80.7708 21.8454 81.1687 22.4423C81.7655 23.0391 81.9645 23.6359 81.9645 24.2328C81.9645 24.8296 81.7655 25.6254 81.1687 26.0232C80.5719 26.6201 79.975 26.819 79.3782 26.819H56.3008V27.2169ZM68.0385 47.907C65.4522 47.907 63.4628 47.708 61.8712 47.1112C60.4786 46.5144 59.4839 45.7186 58.8871 44.326C58.2903 42.9334 58.0913 41.1429 58.0913 38.9545C58.0913 36.5672 58.2903 34.7767 58.8871 33.5831C59.4839 32.1905 60.4786 31.3947 61.8712 30.7979C63.2638 30.201 65.2533 30.0021 68.0385 30.0021C70.6247 30.0021 72.8131 30.201 74.2057 30.7979C75.5983 31.3947 76.593 32.1905 77.1898 33.5831C77.7867 34.9757 77.9856 36.7662 77.9856 38.9545C77.9856 41.3418 77.7867 43.1323 77.1898 44.326C76.593 45.5196 75.5983 46.5144 74.2057 47.1112C72.8131 47.708 70.8237 47.907 68.0385 47.907ZM65.8501 22.0444H69.2321C69.63 21.2486 69.8289 20.4529 70.4258 19.2592C70.8237 18.2645 71.2215 17.2698 71.6194 16.2751C72.0173 15.2803 72.2163 14.6835 72.4152 14.0867C72.8131 13.2909 73.4099 12.6941 74.2057 12.2962H62.0702C62.8659 12.4951 63.2638 12.893 63.6617 13.6888C63.8607 14.0867 64.2585 14.6835 64.4575 15.2803C64.8554 15.8772 65.0543 16.6729 65.4522 17.2698C65.6511 17.8666 66.049 18.4634 66.049 18.6624C66.8448 20.055 66.6459 21.2486 65.8501 22.0444ZM68.0385 42.5355C69.0332 42.5355 70.0279 42.5355 70.4258 42.3366C71.0226 42.1376 71.4205 41.7397 71.6194 41.3418C71.8184 40.745 72.0173 39.9492 72.0173 38.9545C72.0173 37.9598 71.8184 37.1641 71.6194 36.5672C71.4205 35.9704 71.0226 35.7715 70.4258 35.5725C69.8289 35.3736 69.0332 35.3736 68.0385 35.3736C67.0437 35.3736 66.248 35.3736 65.6511 35.5725C65.0543 35.7715 64.6564 36.1693 64.4575 36.5672C64.2585 37.1641 64.0596 37.9598 64.0596 38.9545C64.0596 39.9492 64.2585 40.944 64.4575 41.3418C64.6564 41.9387 65.0543 42.3366 65.6511 42.3366C66.248 42.5355 67.0437 42.5355 68.0385 42.5355ZM85.9433 49.4985C85.1475 49.4985 84.3518 49.2995 83.7549 48.7027C83.1581 48.1059 82.9592 47.5091 82.9592 46.5144V10.3068C82.9592 8.31735 83.1581 6.92472 83.7549 5.93001C84.3518 4.93529 85.3465 4.13954 86.7391 3.74166C88.1317 3.34377 90.3201 3.14482 92.9063 3.14482C97.0841 3.14482 99.8693 3.9406 100.864 5.3332C102.058 6.92475 101.859 9.11309 100.665 11.8983C100.267 13.092 99.6704 14.0867 99.2725 15.0814C98.8746 16.0761 98.4767 16.8719 98.0788 17.6677C97.6809 18.4634 97.482 19.2592 97.2831 19.6571C97.0841 20.055 97.283 20.6518 97.482 21.0497C97.6809 21.4476 98.2778 22.0444 98.8746 22.8401C100.267 24.4317 101.262 26.0233 102.058 27.6148C102.853 29.2063 103.251 31.1958 103.251 33.3841C103.251 36.7662 102.456 39.3524 100.665 40.944C98.8746 42.5355 96.4873 43.5302 93.5031 43.5302C92.5084 43.5302 91.7127 43.3313 91.1158 42.7344C90.519 42.3365 90.1211 41.5408 90.1211 40.5461C90.1211 39.5514 90.3201 38.9545 90.7179 38.3577C91.3148 37.7609 92.1105 37.363 93.1053 37.363C94.4979 37.164 95.4926 36.7662 96.0894 36.3683C96.6862 35.7714 96.8852 34.7767 96.8852 33.1852C96.8852 31.5937 96.6862 30.201 96.0894 29.0074C95.4926 27.6148 94.8957 26.4211 93.901 25.2275C93.1053 24.2328 92.5084 23.437 92.1105 22.6412C91.7127 22.0444 91.5137 21.2486 91.3148 20.6518C91.3148 20.055 91.3148 19.4581 91.5137 18.6624C91.7127 17.8666 91.9116 17.0708 92.5084 15.8771C92.9063 15.0814 93.1052 14.2856 93.5031 13.4898C93.901 12.6941 94.1 12.0972 94.4978 11.1025C94.8957 10.1078 94.8957 9.51099 94.6968 9.11311C94.2989 8.71522 93.5031 8.51627 92.3095 8.51627C91.1158 8.51627 90.1211 8.71521 89.7232 8.91415C89.3253 9.31204 89.1264 9.90888 89.1264 11.1025V46.9122C89.1264 47.907 88.9275 48.5038 88.3306 49.1006C87.3359 49.1006 86.7391 49.4985 85.9433 49.4985Z" fill="#010F32"/>
<path d="M117.177 39.5514C116.382 39.5514 115.586 39.1535 114.989 38.5567C114.392 37.9598 113.994 37.1641 113.994 36.3683C113.994 35.3736 114.392 34.7768 114.989 34.1799C115.586 33.5831 116.382 33.1852 117.177 33.1852H135.48C137.668 33.1852 139.26 32.9862 140.255 32.7873C141.249 32.3894 142.045 31.7926 142.443 30.5989C142.841 29.6042 143.04 27.8138 143.04 25.6254C143.04 23.437 142.841 21.6465 142.443 20.6518C142.045 19.6571 141.448 18.8613 140.255 18.4634C139.26 18.0655 137.668 18.0655 135.48 18.0655H117.774C116.978 18.0655 116.183 17.6677 115.586 17.0708C114.989 16.474 114.591 15.6782 114.591 14.6835C114.591 13.6888 114.989 13.092 115.586 12.4951C116.183 11.8983 116.978 11.5004 117.774 11.5004H135.48C138.265 11.5004 140.454 11.6994 142.244 12.0973C144.035 12.4951 145.427 13.2909 146.422 14.2856C147.417 15.2804 148.212 16.673 148.61 18.6624C149.008 20.4529 149.207 22.8402 149.207 25.6254C149.207 28.4106 149.008 30.7979 148.61 32.5884C148.212 34.3789 147.417 35.7715 146.422 36.9651C145.427 38.1588 144.035 38.7556 142.045 39.1535C140.255 39.5514 137.867 39.7503 135.281 39.7503H117.177V39.5514Z" fill="#010F32"/>
<path d="M170.096 46.3154C169.3 46.5143 168.505 46.5143 167.709 46.1165C166.913 45.7186 166.316 45.1217 166.117 44.326C165.918 43.5302 165.918 42.7344 166.316 41.9386C166.714 41.1429 167.311 40.546 168.107 40.3471C172.483 38.9545 176.263 36.9651 179.446 34.3788C182.63 31.7926 185.017 29.0074 186.608 25.8243C187.802 23.238 186.807 21.8454 183.823 21.8454H164.725C163.929 21.8454 163.133 21.4475 162.536 20.8507C161.939 20.2539 161.542 19.4581 161.542 18.6623C161.542 17.6676 161.939 17.0708 162.536 16.474C163.133 15.8771 163.929 15.6782 164.725 15.6782H184.022C187.006 15.6782 189.394 16.275 190.985 17.2697C192.577 18.4634 193.571 19.856 193.77 21.8454C193.969 23.8348 193.571 26.0232 192.378 28.6095C190.388 32.5883 187.603 36.1693 183.624 39.3524C179.645 42.1376 175.07 44.5249 170.096 46.3154ZM168.107 11.5004C167.311 11.5004 166.515 11.3015 165.918 10.7046C165.322 10.1078 164.924 9.31202 164.924 8.51625C164.924 7.52153 165.322 6.92472 165.918 6.32789C166.515 5.73107 167.311 5.5321 168.107 5.5321H188.001C188.797 5.5321 189.593 5.73107 190.189 6.32789C190.786 6.92472 191.184 7.72048 191.184 8.51625C191.184 9.31202 190.786 10.1078 190.189 10.7046C189.593 11.3015 188.797 11.5004 188.001 11.5004H168.107Z" fill="#010F32"/>
<path d="M209.686 38.7555C208.89 39.1534 208.094 39.3524 207.298 39.1535C206.503 38.9545 205.707 38.3577 205.309 37.7608C204.911 36.9651 204.712 36.1693 204.911 35.3735C205.11 34.5777 205.707 33.782 206.503 33.3841C207.895 32.3894 209.487 31.3947 210.879 30.0021C212.471 28.8084 213.665 27.4158 214.858 26.2222C215.455 25.6253 216.251 25.2274 217.047 25.0285C217.842 24.8296 218.638 25.0285 219.235 25.4264C220.031 26.0232 220.429 26.62 220.429 27.6148C220.429 28.6095 220.429 29.2063 219.832 30.0021C219.036 31.1957 217.842 32.1904 216.649 33.3841C215.455 34.5777 214.261 35.5725 213.068 36.5672C211.874 37.363 210.68 38.1587 209.686 38.7555ZM220.031 45.3207C219.235 45.3207 218.439 44.9228 217.842 44.3259C217.246 43.7291 216.848 42.9334 216.848 42.1376C216.848 41.1429 217.246 40.546 217.842 39.7503C218.439 38.9545 219.235 38.7555 220.031 38.7555C221.622 38.7555 222.816 38.5566 223.214 37.9598C223.612 37.5619 224.01 36.5672 224.01 34.9756V20.4528H210.084C209.288 20.4528 208.492 20.0549 207.895 19.4581C207.298 18.8613 207.099 18.0655 207.099 17.2697C207.099 16.474 207.298 15.6782 207.895 15.0814C208.492 14.4845 209.288 14.0866 210.084 14.0866H224.01V8.51624C224.01 7.52152 224.408 6.92471 225.004 6.32789C225.601 5.73106 226.397 5.33317 227.193 5.33317C228.187 5.33317 228.784 5.73106 229.381 6.32789C229.978 6.92471 230.376 7.72047 230.376 8.51624V14.0866H243.307C244.103 14.0866 244.899 14.4845 245.495 15.0814C246.092 15.6782 246.291 16.474 246.291 17.2697C246.291 18.0655 246.092 18.8613 245.495 19.4581C244.899 20.0549 244.103 20.4528 243.307 20.4528H230.376V35.3735C230.376 38.9545 229.58 41.5408 227.988 42.9334C226.397 44.326 223.811 45.3207 220.031 45.3207ZM248.281 37.5619C247.684 38.1587 246.888 38.3577 245.893 38.3577C245.098 38.3577 244.302 37.9598 243.705 37.3629C243.108 36.5672 242.113 35.9704 241.318 34.9756C240.323 34.1799 239.328 33.1851 238.333 32.3894C237.339 31.5936 236.344 30.7979 235.548 30.201C234.753 29.8031 234.355 29.0074 234.156 28.2116C233.957 27.4158 234.156 26.62 234.554 25.8243C234.951 25.0285 235.747 24.6306 236.543 24.4317C237.339 24.2327 238.135 24.4317 238.93 24.8295C239.925 25.4264 240.92 26.2222 242.113 27.2169C243.307 28.2116 244.501 29.2063 245.694 30.201C246.888 31.1957 247.883 32.1904 248.679 32.9862C249.275 33.583 249.673 34.3788 249.474 35.3735C249.275 36.3682 248.877 36.9651 248.281 37.5619ZM246.291 12.694C245.893 13.0919 245.296 13.2909 244.7 13.2909C244.103 13.2909 243.506 12.893 243.108 12.4951C242.71 12.0972 242.113 11.5004 241.517 10.7046C240.92 9.90885 240.323 9.31202 239.726 8.71519C239.328 8.31731 239.129 7.91943 239.129 7.3226C239.129 6.72577 239.328 6.32786 239.726 5.92998C240.124 5.53209 240.721 5.33317 241.119 5.33317C241.716 5.33317 242.113 5.53209 242.511 5.92998C243.108 6.32786 243.705 6.9247 244.501 7.52152C245.297 8.3173 245.893 8.91412 246.291 9.51095C246.689 9.90884 246.888 10.5057 246.888 11.1025C246.888 11.6993 246.689 12.2962 246.291 12.694ZM247.883 8.11836C247.485 7.72047 246.888 7.12366 246.291 6.32789C245.694 5.73106 245.098 5.13421 244.501 4.53738C244.103 4.1395 243.904 3.74162 243.904 3.14479C243.904 2.54796 244.103 2.15007 244.501 1.55324C244.899 1.15535 245.297 0.956421 245.893 0.956421C246.49 0.956421 246.888 1.15537 247.485 1.35432C248.082 1.7522 248.679 2.15008 249.474 2.74691C250.27 3.34374 250.867 3.94055 251.464 4.53738C251.862 4.93527 252.061 5.5321 252.061 6.12893C252.061 6.72576 251.862 7.32259 251.464 7.72048C251.066 8.11837 250.469 8.31731 249.872 8.31731C249.275 8.31731 248.281 8.51624 247.883 8.11836Z" fill="#010F32"/>
<path d="M285.682 49.6974C284.886 49.6974 284.09 49.2995 283.493 48.9016C282.897 48.3048 282.499 47.509 282.499 46.5143V37.7608H261.013C260.217 37.7608 259.62 37.5619 259.024 36.9651C258.427 36.3682 258.228 35.7714 258.228 34.9756C258.228 34.1799 258.427 33.583 259.024 32.9862C259.62 32.3894 260.217 32.1905 261.013 32.1905H267.777V27.8137C267.777 25.6253 267.976 24.0338 268.573 22.6412C269.17 21.4475 270.164 20.4528 271.557 19.856C272.95 19.2591 274.939 19.0602 277.525 19.0602H282.101V13.0919H271.358C270.363 14.6835 269.369 16.0761 268.175 17.4687C266.981 18.8613 265.987 20.0549 264.793 21.2486C264.196 21.8454 263.4 22.2433 262.406 22.4422C261.61 22.6412 260.814 22.2433 260.018 21.6465C259.421 21.0497 259.024 20.4528 259.024 19.6571C259.024 18.8613 259.222 18.0655 260.018 17.4687C261.411 16.0761 262.803 14.4845 264.196 12.6941C265.589 10.9036 266.782 9.11309 267.976 7.3226C269.17 5.53212 270.164 3.74162 270.761 2.15008C271.159 1.35431 271.756 0.956414 272.552 0.558528C273.347 0.359586 274.143 0.359598 274.939 0.757483C275.735 1.15537 276.133 1.55326 276.53 2.34903C276.729 3.1448 276.729 3.74161 276.332 4.53738C275.934 5.5321 275.337 6.72577 274.74 7.72048H301.796C302.592 7.72048 303.189 7.91941 303.786 8.51624C304.382 9.11307 304.581 9.7099 304.581 10.5057C304.581 11.3014 304.382 11.8983 303.786 12.4951C303.189 13.0919 302.592 13.2909 301.796 13.2909H288.666V19.2592H298.613C299.409 19.2592 300.006 19.4581 300.603 20.0549C301.199 20.6518 301.398 21.2486 301.398 22.0444C301.398 22.8401 301.199 23.437 300.603 24.0338C300.006 24.6306 299.409 24.8295 298.613 24.8295H288.666V32.3894H304.184C304.979 32.3894 305.576 32.5883 306.173 33.1852C306.77 33.782 306.969 34.3788 306.969 35.1746C306.969 35.9704 306.77 36.5672 306.173 37.164C305.576 37.7609 304.979 37.9598 304.184 37.9598H288.666V46.7133C288.666 47.708 288.268 48.5038 287.671 49.1006C287.273 49.2995 286.677 49.6974 285.682 49.6974ZM274.143 32.1905H282.3V24.6306H277.724C276.332 24.6306 275.337 24.8296 274.939 25.2275C274.541 25.6253 274.342 26.4211 274.342 27.8137V32.1905H274.143Z" fill="#010F32"/>
<path d="M317.115 21.4476C316.319 21.8455 315.722 22.0444 314.728 22.0444C313.932 22.0444 313.136 21.6465 312.738 20.8507C312.34 20.2539 312.141 19.6571 312.34 18.8613C312.539 18.0655 312.937 17.4687 313.534 17.2698C315.324 16.2751 316.916 15.0814 318.11 13.8877C319.303 12.6941 320.099 11.1026 320.895 9.31208H315.324C314.529 9.31208 314.131 9.11313 313.733 8.71524C313.335 8.31736 313.136 7.72052 313.136 7.12369C313.136 6.52687 313.335 5.93003 313.733 5.53215C314.131 5.13426 314.728 4.93531 315.324 4.93531H321.889C321.889 4.73637 322.088 4.33848 322.088 3.9406C322.088 3.54271 322.088 3.34377 322.088 2.94588C322.088 1.95117 322.486 1.35435 323.083 0.956469C323.68 0.558584 324.476 0.359632 325.272 0.558574C326.067 0.558574 326.664 0.956478 327.062 1.35436C327.46 1.95119 327.858 2.548 327.659 3.54272C327.659 3.74166 327.659 3.94061 327.659 4.13955C327.659 4.33849 327.659 4.53744 327.659 4.73639H331.041C333.229 4.73639 334.622 5.33322 335.617 6.32793C336.611 7.32265 337.009 8.91419 336.611 11.3015C336.412 13.2909 336.014 14.8825 335.418 15.8772C334.821 16.8719 334.025 17.6677 332.831 18.0655C331.638 18.4634 330.245 18.6624 328.654 18.6624C327.858 18.6624 327.261 18.4634 326.863 18.0655C326.465 17.6677 326.067 17.0708 326.067 16.2751C326.067 15.4793 326.266 14.8825 326.664 14.4846C327.062 13.8877 327.659 13.6888 328.256 13.6888C329.449 13.6888 330.245 13.4899 330.444 13.2909C330.842 13.092 331.041 12.4951 331.24 11.5004C331.439 10.7047 331.439 10.1078 331.041 9.90888C330.842 9.70994 330.245 9.511 329.449 9.511H326.863C326.067 12.2962 324.675 14.6835 323.282 16.673C321.889 18.6624 319.303 20.055 317.115 21.4476ZM318.706 49.2996C317.712 49.4985 316.916 49.4985 316.319 49.2996C315.523 49.1006 315.125 48.5038 314.926 47.708C314.728 46.9123 314.728 46.3154 315.125 45.5197C315.523 44.7239 315.921 44.326 316.717 44.1271C317.712 43.9281 318.706 43.7292 319.701 43.3313C320.895 42.9334 322.088 42.5355 323.282 42.1376C324.476 41.7398 325.669 41.1429 326.465 40.745C324.277 40.3471 322.685 39.5514 321.691 38.5567C320.696 37.363 320.298 35.5725 320.298 33.3841V27.2169C320.298 24.2328 321.094 22.2434 322.486 21.2486C323.879 20.2539 326.465 19.4581 330.046 19.4581H342.381C345.962 19.4581 348.548 20.055 349.94 21.2486C351.333 22.4423 352.129 24.4317 352.129 27.2169V33.3841C352.129 35.7715 351.731 37.5619 350.736 38.7556C349.741 39.9492 348.15 40.745 345.962 40.944C347.553 41.7397 349.145 42.3366 350.935 42.9334C352.726 43.5302 354.317 44.1271 355.71 44.326C356.506 44.5249 357.102 44.9228 357.301 45.7186C357.5 46.5144 357.699 47.1112 357.5 47.907C357.301 48.7027 356.704 49.2996 356.108 49.4985C355.312 49.6975 354.516 49.6975 353.72 49.4985C352.527 49.1006 351.333 48.7027 349.94 48.3049C348.548 47.907 347.155 47.1112 345.763 46.5144C344.37 45.9176 343.176 45.3207 342.182 44.9228C341.585 44.5249 341.187 43.9281 340.988 43.3313C340.789 42.7345 340.988 42.1376 341.187 41.5408H331.24L331.439 41.7397C331.837 42.3366 331.837 42.9334 331.638 43.5302C331.439 44.1271 331.041 44.7239 330.444 45.1218C329.449 45.7186 328.256 46.1165 326.863 46.7133C325.47 47.3101 324.078 47.907 322.685 48.5038C321.293 49.1006 319.9 48.9017 318.706 49.2996ZM326.465 31.1958H345.962V29.0074H326.465V31.1958ZM326.664 25.6254H345.962C345.763 24.8296 345.564 24.4317 344.967 24.0338C344.569 23.8349 343.574 23.636 342.381 23.636H330.046C328.852 23.636 328.057 23.8349 327.46 24.0338C327.062 24.4317 326.664 24.8296 326.664 25.6254ZM330.046 36.7662H342.381C343.574 36.7662 344.569 36.5672 344.967 36.3683C345.365 36.1693 345.763 35.5725 345.763 34.7767H326.465C326.465 35.5725 326.863 36.1693 327.261 36.3683C328.057 36.7662 328.852 36.7662 330.046 36.7662ZM347.155 17.4687C345.166 17.4687 343.773 17.2698 342.58 16.8719C341.386 16.474 340.59 15.6782 339.993 14.6835C339.396 13.6888 339.198 12.0973 339.198 10.3068C339.198 8.31736 339.396 6.92474 339.993 5.93002C340.59 4.93531 341.386 4.13956 342.58 3.74167C343.773 3.34379 345.365 3.14484 347.155 3.14484H350.139C352.129 3.14484 353.72 3.34379 354.715 3.74167C355.909 4.13956 356.704 4.93531 357.102 5.93002C357.5 6.92474 357.898 8.51631 357.898 10.3068C357.898 12.2962 357.699 13.6888 357.102 14.6835C356.506 15.6782 355.71 16.474 354.715 16.8719C353.521 17.2698 351.93 17.4687 350.139 17.4687H347.155ZM347.553 12.893H350.139C351.333 12.893 352.129 12.6941 352.527 12.4951C352.925 12.0973 353.124 11.5004 353.124 10.5057C353.124 9.511 352.925 8.71525 352.527 8.31736C352.129 7.91948 351.333 7.91945 350.139 7.91945H347.553C346.359 7.91945 345.564 8.11842 345.166 8.31736C344.768 8.71525 344.569 9.31206 344.569 10.5057C344.569 11.5004 344.768 12.2962 345.166 12.4951C345.564 12.6941 346.359 12.893 347.553 12.893Z" fill="#010F32"/>
<path d="M378.19 49.2996C377.395 49.2996 376.599 49.1007 376.002 48.5038C375.405 47.907 375.206 47.3102 375.206 46.3155V32.9863C374.211 33.7821 373.217 34.5778 372.023 35.3736C370.829 36.1694 370.034 36.7662 369.437 37.363C368.641 37.7609 367.845 37.9599 367.049 37.9599C366.254 37.7609 365.458 37.3631 365.06 36.5673C364.662 35.7715 364.463 34.9757 364.662 34.18C364.861 33.3842 365.259 32.7874 366.055 32.3895C366.453 31.9916 367.248 31.5937 368.044 30.9969C368.84 30.4 369.636 29.8032 370.63 29.2064C371.625 28.6096 372.421 27.8138 373.217 27.217C374.013 26.6201 374.609 26.0233 375.206 25.6254V19.0603C375.007 19.6571 374.41 20.055 373.814 20.4529C373.018 20.8508 372.222 21.0497 371.426 20.6519C370.63 20.254 370.034 19.8561 369.636 19.0603C369.437 18.6624 369.039 18.0656 368.641 17.2698C368.243 16.4741 367.646 15.6783 367.248 14.8825C366.851 14.0867 366.453 13.4899 366.254 13.092C365.856 12.2963 365.657 11.6994 365.856 10.9036C366.055 10.1079 366.652 9.51105 367.447 9.11317C368.243 8.71528 369.039 8.51635 369.835 8.71529C370.63 8.91423 371.227 9.31211 371.625 10.1079C371.824 10.5058 372.222 11.3015 372.819 12.0973C373.217 12.8931 373.814 13.6888 374.211 14.4846C374.609 15.2804 375.007 15.8772 375.206 16.2751L375.405 16.673V4.1396C375.405 3.14488 375.604 2.54804 376.201 1.95122C376.798 1.35439 377.395 1.15546 378.389 1.15546C379.384 1.15546 379.782 1.35439 380.379 1.95122C380.975 2.54804 381.174 3.14488 381.174 4.1396V46.1165C381.174 46.9123 380.975 47.7081 380.379 48.3049C379.583 49.1007 378.986 49.2996 378.19 49.2996ZM408.827 47.3102C406.042 45.3208 403.854 42.9334 401.864 40.3472C400.074 37.7609 398.482 34.9757 397.488 32.1905C396.493 34.9757 395.1 37.7609 393.509 40.3472C391.917 42.9334 389.53 45.1218 386.944 47.1113C386.148 47.7081 385.352 47.907 384.556 47.907C383.761 47.907 382.965 47.5091 382.368 46.7133C381.97 45.9176 381.771 45.3208 381.771 44.525C381.97 43.7292 382.368 43.1324 382.965 42.5356C389.53 37.7609 393.31 30.9969 393.907 22.0445H385.153C384.358 22.0445 383.761 21.8455 383.164 21.2487C382.567 20.6519 382.368 20.055 382.368 19.2593C382.368 18.4635 382.567 17.8667 383.164 17.2698C383.761 16.673 384.358 16.474 385.153 16.474H394.106V4.53748C394.106 3.54276 394.504 2.94595 395.1 2.34913C395.697 1.7523 396.493 1.55334 397.289 1.55334C398.085 1.55334 398.88 1.7523 399.477 2.34913C400.074 2.94595 400.273 3.54276 400.273 4.53748V16.474H410.817C411.613 16.474 412.21 16.673 412.806 17.2698C413.403 17.8667 413.602 18.4635 413.602 19.2593C413.602 20.055 413.403 20.6519 412.806 21.2487C412.21 21.8455 411.613 22.0445 410.817 22.0445H400.472C400.87 26.4212 402.262 30.4 404.451 33.7821C406.639 37.1641 409.424 40.1483 412.806 42.5356C413.602 42.9335 414 43.7292 414 44.525C414 45.3208 413.801 46.1165 413.403 46.7133C412.806 47.5091 412.011 47.907 411.215 47.907C410.419 48.106 409.623 47.907 408.827 47.3102ZM411.016 13.4899C410.419 13.8878 409.822 14.2857 408.827 14.0867C407.833 13.8878 407.435 13.6889 406.838 13.092C406.639 12.6941 406.241 12.2963 405.644 11.6994C405.247 11.1026 404.65 10.5058 404.053 9.90893C403.456 9.3121 403.058 8.91422 402.859 8.51633C402.461 7.91951 402.063 7.32268 402.262 6.52691C402.461 5.73113 402.66 5.13432 403.257 4.73643C403.854 4.1396 404.451 3.94064 405.247 3.94064C406.042 3.94064 406.639 4.1396 407.236 4.73643C407.634 5.13432 408.032 5.5322 408.43 6.12903C409.026 6.72585 409.424 7.32269 410.021 7.72058C410.618 8.3174 410.817 8.71527 411.016 8.91421C411.613 9.70998 412.011 10.3068 411.812 11.1026C411.613 11.8984 411.812 12.8931 411.016 13.4899Z" fill="#010F32"/>
</svg>
