<svg width="910" height="22" viewBox="0 0 910 22" fill="none" xmlns="http://www.w3.org/2000/svg">
<path d="M16.1871 20.672C15.8205 20.672 15.5051 20.5693 15.2411 20.364C14.9771 20.1587 14.8305 19.8653 14.8011 19.484C14.7865 19.1027 14.8818 18.78 15.0871 18.516C15.3071 18.252 15.6151 18.1127 16.0111 18.098C16.4951 18.0687 16.8691 18.01 17.1331 17.922C17.3971 17.8193 17.5951 17.636 17.7271 17.372C17.8591 17.108 17.9618 16.712 18.0351 16.184C18.1525 15.4067 18.2331 14.4607 18.2771 13.346C18.3358 12.2167 18.3725 10.9333 18.3871 9.496C18.4018 8.85067 18.3211 8.43267 18.1451 8.242C17.9691 8.03667 17.5951 7.92667 17.0231 7.912C16.9498 10.8453 16.5465 13.3313 15.8131 15.37C15.0945 17.4087 14.0605 19.0807 12.7111 20.386C12.4471 20.6353 12.1318 20.7747 11.7651 20.804C11.3985 20.8333 11.0758 20.7087 10.7971 20.43C10.5918 20.21 10.4891 19.9387 10.4891 19.616C10.5038 19.2933 10.6285 19.0367 10.8631 18.846C10.9071 18.802 10.9511 18.758 10.9951 18.714C11.0391 18.67 11.0758 18.626 11.1051 18.582C10.3425 18.6993 9.44046 18.8313 8.39912 18.978C7.35779 19.11 6.29446 19.2273 5.20912 19.33C4.12379 19.4473 3.11912 19.5427 2.19512 19.616C1.84312 19.6307 1.54979 19.55 1.31512 19.374C1.08045 19.198 0.948455 18.934 0.919122 18.582C0.904455 18.2887 0.985122 18.032 1.16112 17.812C1.35179 17.5773 1.60846 17.4527 1.93112 17.438C2.45912 17.4087 3.05312 17.372 3.71312 17.328C4.38779 17.284 5.07712 17.2327 5.78112 17.174V15.986H2.08512C1.80646 15.986 1.59379 15.8907 1.44712 15.7C1.30045 15.5093 1.22712 15.2967 1.22712 15.062C1.22712 14.8273 1.30045 14.622 1.44712 14.446C1.59379 14.2553 1.80646 14.16 2.08512 14.16H5.78112V13.346H5.62712C4.62979 13.346 3.85246 13.258 3.29512 13.082C2.75246 12.906 2.37846 12.5833 2.17312 12.114C1.96779 11.63 1.86512 10.948 1.86512 10.068C1.86512 9.17333 1.96779 8.49133 2.17312 8.022C2.37846 7.538 2.75246 7.208 3.29512 7.032C3.85246 6.856 4.62979 6.768 5.62712 6.768H5.78112V6.064H1.68912C1.41045 6.064 1.19045 5.96867 1.02912 5.778C0.867788 5.58733 0.787122 5.36733 0.787122 5.118C0.787122 4.86867 0.867788 4.656 1.02912 4.48C1.19045 4.28933 1.41045 4.194 1.68912 4.194H5.78112V3.402C5.25312 3.446 4.73246 3.48267 4.21912 3.512C3.72045 3.52667 3.24379 3.54133 2.78912 3.556C2.07045 3.57067 1.67445 3.25533 1.60112 2.61C1.58645 2.346 1.66712 2.11867 1.84312 1.928C2.03379 1.72267 2.29779 1.61267 2.63512 1.598C3.47112 1.56867 4.35112 1.52467 5.27512 1.466C6.21379 1.39267 7.12312 1.30467 8.00312 1.202C8.89779 1.08467 9.68979 0.952666 10.3791 0.806C10.7311 0.732666 11.0318 0.754666 11.2811 0.871999C11.5451 0.989332 11.7065 1.19467 11.7651 1.488C11.9118 2.192 11.6551 2.61 10.9951 2.742C10.5845 2.81533 10.1298 2.88867 9.63112 2.962C9.13246 3.03533 8.61179 3.10867 8.06912 3.182V4.194H12.1391C12.4325 4.194 12.6525 4.28933 12.7991 4.48C12.9605 4.656 13.0411 4.86867 13.0411 5.118C13.0411 5.17667 13.0338 5.23533 13.0191 5.294C13.0191 5.35267 13.0118 5.404 12.9971 5.448H14.6251V1.664C14.6251 1.28267 14.7425 0.989333 14.9771 0.783998C15.2118 0.563999 15.4978 0.453999 15.8351 0.453999C16.1725 0.453999 16.4511 0.563999 16.6711 0.783998C16.9058 0.989333 17.0231 1.28267 17.0231 1.664V5.448C17.9178 5.448 18.6438 5.55067 19.2011 5.756C19.7585 5.96133 20.1691 6.33533 20.4331 6.878C20.6971 7.42067 20.8218 8.21267 20.8071 9.254C20.7925 10.7207 20.7558 12.0847 20.6971 13.346C20.6385 14.5927 20.5578 15.6927 20.4551 16.646C20.3525 17.7313 20.1325 18.56 19.7951 19.132C19.4578 19.7187 18.9885 20.122 18.3871 20.342C17.8005 20.562 17.0671 20.672 16.1871 20.672ZM12.1391 17.416C12.9165 16.36 13.5105 15.062 13.9211 13.522C14.3318 11.9673 14.5665 10.0973 14.6251 7.912H13.1731C12.8065 7.912 12.5131 7.79467 12.2931 7.56C12.0731 7.31067 11.9631 7.01733 11.9631 6.68C11.9631 6.43067 12.0145 6.22533 12.1171 6.064H8.06912V6.768H8.20112C9.21312 6.768 9.98312 6.856 10.5111 7.032C11.0538 7.208 11.4278 7.538 11.6331 8.022C11.8385 8.49133 11.9411 9.17333 11.9411 10.068C11.9411 10.948 11.8385 11.63 11.6331 12.114C11.4278 12.5833 11.0538 12.906 10.5111 13.082C9.98312 13.258 9.21312 13.346 8.20112 13.346H8.06912V14.16H11.3911C11.6698 14.16 11.8825 14.2553 12.0291 14.446C12.1758 14.622 12.2491 14.8273 12.2491 15.062C12.2491 15.2967 12.1758 15.5093 12.0291 15.7C11.8825 15.8907 11.6698 15.986 11.3911 15.986H8.06912V16.976C8.65579 16.9173 9.21312 16.866 9.74112 16.822C10.2691 16.7633 10.7311 16.712 11.1271 16.668C11.4058 16.6387 11.6331 16.6973 11.8091 16.844C11.9851 16.976 12.0951 17.1667 12.1391 17.416ZM5.75912 11.718H5.78112V10.794H4.08712C4.13112 11.2193 4.26312 11.4833 4.48312 11.586C4.70312 11.674 5.12846 11.718 5.75912 11.718ZM8.06912 11.718C8.69979 11.718 9.12512 11.674 9.34512 11.586C9.56512 11.4833 9.69712 11.2193 9.74112 10.794H8.06912V11.718ZM4.08712 9.298H5.78112V8.396H5.75912C5.12846 8.396 4.70312 8.44 4.48312 8.528C4.26312 8.616 4.13112 8.87267 4.08712 9.298ZM8.06912 9.298H9.74112C9.69712 8.87267 9.56512 8.616 9.34512 8.528C9.12512 8.44 8.69979 8.396 8.06912 8.396V9.298ZM30.3111 20.87C29.9591 20.87 29.6585 20.76 29.4091 20.54C29.1745 20.32 29.0571 20.0193 29.0571 19.638V13.786C28.6171 13.9473 28.2065 14.1013 27.8251 14.248C27.4438 14.3947 27.1138 14.512 26.8351 14.6C26.4685 14.732 26.1165 14.7173 25.7791 14.556C25.4565 14.38 25.2365 14.1087 25.1191 13.742C25.0165 13.3607 25.0385 13.016 25.1851 12.708C25.3318 12.4 25.6031 12.1947 25.9991 12.092C26.3951 11.9747 26.8645 11.828 27.4071 11.652C27.9498 11.476 28.4998 11.2927 29.0571 11.102V7.12H27.7151C27.6565 7.45733 27.5905 7.78733 27.5171 8.11C27.4438 8.418 27.3705 8.71133 27.2971 8.99C27.2091 9.35667 27.0331 9.62067 26.7691 9.782C26.5198 9.94333 26.2265 9.99467 25.8891 9.936C25.5811 9.87733 25.3318 9.72333 25.1411 9.474C24.9651 9.22467 24.9285 8.93867 25.0311 8.616C25.2365 7.912 25.4271 7.10533 25.6031 6.196C25.7938 5.28667 25.9185 4.42867 25.9771 3.622C26.0065 3.28467 26.1385 3.028 26.3731 2.852C26.6078 2.676 26.8865 2.60267 27.2091 2.632C27.5318 2.64667 27.7885 2.764 27.9791 2.984C28.1698 3.204 28.2505 3.49 28.2211 3.842C28.2065 3.98867 28.1918 4.14267 28.1771 4.304C28.1625 4.46533 28.1405 4.62667 28.1111 4.788H29.0571V1.598C29.0571 1.21667 29.1745 0.915999 29.4091 0.696C29.6585 0.461332 29.9591 0.343999 30.3111 0.343999C30.6631 0.343999 30.9565 0.461332 31.1911 0.696C31.4258 0.915999 31.5431 1.21667 31.5431 1.598V4.788H32.3791C32.7311 4.788 33.0098 4.90533 33.2151 5.14C33.4205 5.36 33.5231 5.63133 33.5231 5.954V6.064C33.8605 5.316 34.1685 4.53867 34.4471 3.732C34.7258 2.91067 34.9531 2.14067 35.1291 1.422C35.2171 1.07 35.4078 0.820666 35.7011 0.673999C35.9945 0.527332 36.3098 0.490665 36.6471 0.563999C36.9698 0.637332 37.2045 0.805999 37.3511 1.07C37.5125 1.31933 37.5565 1.61267 37.4831 1.95C37.3805 2.37533 37.2558 2.81533 37.1091 3.27C36.9771 3.71 36.8305 4.16467 36.6691 4.634H40.8051C41.8611 4.634 42.7045 4.75867 43.3351 5.008C43.9658 5.25733 44.4205 5.68267 44.6991 6.284C44.9778 6.88533 45.1025 7.72133 45.0731 8.792C45.0438 10.1707 44.9631 11.5567 44.8311 12.95C44.7138 14.3287 44.5745 15.524 44.4131 16.536C44.2518 17.5627 43.9951 18.3767 43.6431 18.978C43.2911 19.5793 42.7998 20.0047 42.1691 20.254C41.5531 20.518 40.7465 20.6647 39.7491 20.694C39.3385 20.7087 38.9938 20.6207 38.7151 20.43C38.4365 20.2393 38.2751 19.9387 38.2311 19.528C38.1871 19.132 38.2751 18.802 38.4951 18.538C38.7151 18.274 39.0305 18.1273 39.4411 18.098C40.0718 18.054 40.5411 17.9807 40.8491 17.878C41.1718 17.7607 41.4065 17.57 41.5531 17.306C41.6998 17.042 41.8245 16.646 41.9271 16.118C42.0005 15.7367 42.0738 15.26 42.1471 14.688C42.2205 14.116 42.2938 13.5 42.3671 12.84C42.4405 12.1653 42.4991 11.4907 42.5431 10.816C42.6018 10.1413 42.6385 9.51067 42.6531 8.924C42.6678 8.05867 42.4478 7.47933 41.9931 7.186C41.6265 10.134 40.8345 12.6053 39.6171 14.6C38.3998 16.5947 36.7865 18.2227 34.7771 19.484C34.4545 19.6893 34.1025 19.7627 33.7211 19.704C33.3545 19.66 33.0758 19.4767 32.8851 19.154C32.7091 18.8607 32.6578 18.56 32.7311 18.252C32.8191 17.9293 33.0171 17.68 33.3251 17.504C36.9038 15.392 39.0671 11.85 39.8151 6.878H38.8031C38.5245 8.594 37.9745 10.2 37.1531 11.696C36.3465 13.192 35.3271 14.4533 34.0951 15.48C33.8165 15.7 33.5011 15.7953 33.1491 15.766C32.8118 15.722 32.5331 15.568 32.3131 15.304C32.1078 15.0547 32.0271 14.7687 32.0711 14.446C32.1151 14.1233 32.2618 13.8667 32.5111 13.676C33.5965 12.884 34.4838 11.8793 35.1731 10.662C35.8625 9.44467 36.3465 8.18333 36.6251 6.878H35.7451C35.5691 7.28867 35.3858 7.67733 35.1951 8.044C35.0045 8.41067 34.8065 8.76267 34.6011 9.1C34.4398 9.37867 34.1978 9.57667 33.8751 9.694C33.5525 9.79667 33.2445 9.77467 32.9511 9.628C32.6725 9.48133 32.4818 9.26133 32.3791 8.968C32.2911 8.66 32.3278 8.374 32.4891 8.11C32.6065 7.90467 32.7238 7.69933 32.8411 7.494C32.9585 7.274 33.0685 7.04667 33.1711 6.812C33.0685 6.9 32.9511 6.97333 32.8191 7.032C32.6871 7.09067 32.5405 7.12 32.3791 7.12H31.5431V10.244L32.3351 9.958C32.6431 9.84067 32.9291 9.848 33.1931 9.98C33.4718 10.0973 33.6698 10.3027 33.7871 10.596C33.9045 10.8893 33.9118 11.19 33.8091 11.498C33.7065 11.7913 33.4865 12.0113 33.1491 12.158C32.9585 12.246 32.7238 12.3487 32.4451 12.466C32.1665 12.5687 31.8658 12.686 31.5431 12.818V19.638C31.5431 20.0193 31.4258 20.32 31.1911 20.54C30.9565 20.76 30.6631 20.87 30.3111 20.87ZM51.6951 19.704C51.3725 19.5133 51.1671 19.242 51.0791 18.89C51.0058 18.538 51.0645 18.208 51.2551 17.9C51.8271 16.976 52.3331 15.9567 52.7731 14.842C53.2131 13.7273 53.5871 12.5687 53.8951 11.366C54.2178 10.1633 54.4745 8.98267 54.6651 7.824C54.2398 7.868 53.8218 7.90467 53.4111 7.934C53.0151 7.96333 52.6411 7.99267 52.2891 8.022C51.9225 8.03667 51.5998 7.934 51.3211 7.714C51.0571 7.47933 50.9105 7.17867 50.8811 6.812C50.8665 6.44533 50.9765 6.13 51.2111 5.866C51.4458 5.58733 51.7465 5.44067 52.1131 5.426C52.5385 5.39667 52.9931 5.36733 53.4771 5.338C53.9758 5.30867 54.4745 5.26467 54.9731 5.206C55.0171 4.70733 55.0465 4.23067 55.0611 3.776C55.0758 3.32133 55.0758 2.88867 55.0611 2.478C55.0465 2.11133 55.1565 1.796 55.3911 1.532C55.6405 1.268 55.9485 1.12867 56.3151 1.114C56.6818 1.09933 56.9971 1.21667 57.2611 1.466C57.5251 1.70067 57.6645 2.00133 57.6791 2.368C57.6938 2.73467 57.6938 3.13067 57.6791 3.556C57.6645 3.96667 57.6351 4.40667 57.5911 4.876C58.2511 4.75867 58.8451 4.64867 59.3731 4.546C59.7251 4.47267 60.0551 4.53133 60.3631 4.722C60.6711 4.91267 60.8618 5.184 60.9351 5.536C61.0085 5.90267 60.9425 6.23267 60.7371 6.526C60.5465 6.81933 60.2751 7.00267 59.9231 7.076C59.5565 7.14933 59.1458 7.22267 58.6911 7.296C58.2511 7.36933 57.7818 7.44267 57.2831 7.516C57.0778 8.85067 56.7991 10.2367 56.4471 11.674C56.0951 13.0967 55.6698 14.468 55.1711 15.788C54.6871 17.0933 54.1298 18.252 53.4991 19.264C53.3085 19.572 53.0371 19.77 52.6851 19.858C52.3331 19.946 52.0031 19.8947 51.6951 19.704ZM67.0071 19.22C64.8218 19.7187 62.9445 19.7333 61.3751 19.264C59.8205 18.7947 58.7058 17.9293 58.0311 16.668C57.8698 16.3453 57.8331 16.0153 57.9211 15.678C58.0238 15.326 58.2365 15.062 58.5591 14.886C58.8818 14.71 59.2118 14.6733 59.5491 14.776C59.9011 14.8787 60.1651 15.0913 60.3411 15.414C60.7811 16.1913 61.5218 16.6753 62.5631 16.866C63.6045 17.0567 64.9025 16.9833 66.4571 16.646C66.8238 16.5727 67.1538 16.6387 67.4471 16.844C67.7551 17.0347 67.9458 17.306 68.0191 17.658C68.0925 18.0247 68.0265 18.362 67.8211 18.67C67.6305 18.9633 67.3591 19.1467 67.0071 19.22ZM65.9291 10.816C65.4305 10.6987 64.8585 10.618 64.2131 10.574C63.5825 10.53 62.9371 10.5227 62.2771 10.552C61.6318 10.5667 61.0231 10.6253 60.4511 10.728C60.0991 10.7867 59.7765 10.7207 59.4831 10.53C59.2045 10.3247 59.0285 10.0533 58.9551 9.716C58.8818 9.364 58.9405 9.04133 59.1311 8.748C59.3365 8.44 59.6151 8.25667 59.9671 8.198C60.6565 8.08067 61.3825 8.00733 62.1451 7.978C62.9225 7.94867 63.6925 7.96333 64.4551 8.022C65.2178 8.066 65.9145 8.16133 66.5451 8.308C66.8971 8.38133 67.1611 8.572 67.3371 8.88C67.5278 9.188 67.5791 9.518 67.4911 9.87C67.4178 10.2073 67.2271 10.4713 66.9191 10.662C66.6111 10.838 66.2811 10.8893 65.9291 10.816ZM82.8691 20.496C82.5025 20.5107 82.1871 20.386 81.9231 20.122C81.6591 19.8727 81.5125 19.5647 81.4831 19.198C81.4685 18.8313 81.5858 18.516 81.8351 18.252C82.0991 17.9733 82.4145 17.834 82.7811 17.834C84.8785 17.7753 86.3745 17.4233 87.2691 16.778C88.1785 16.118 88.6331 15.1647 88.6331 13.918C88.6331 13.2287 88.4058 12.6787 87.9511 12.268C87.5111 11.8573 86.9245 11.6153 86.1911 11.542C85.4725 11.454 84.6805 11.564 83.8151 11.872C82.9498 12.18 82.0991 12.7007 81.2631 13.434C81.0431 13.6247 80.7865 13.7273 80.4931 13.742C80.2145 13.742 79.9505 13.6687 79.7011 13.522C79.4665 13.3607 79.2978 13.148 79.1951 12.884C79.0925 12.62 79.0778 12.3487 79.1511 12.07C79.3565 11.366 79.5398 10.5373 79.7011 9.584C79.8625 8.63067 79.9945 7.67733 80.0971 6.724C79.3785 6.73867 78.7038 6.746 78.0731 6.746C77.4425 6.73133 76.8925 6.70933 76.4231 6.68C76.0711 6.65067 75.7778 6.49667 75.5431 6.218C75.3231 5.93933 75.2278 5.624 75.2571 5.272C75.2865 4.92 75.4405 4.634 75.7191 4.414C75.9978 4.17933 76.3131 4.07667 76.6651 4.106C77.1491 4.15 77.7065 4.17933 78.3371 4.194C78.9825 4.20867 79.6498 4.20867 80.3391 4.194C80.3685 3.78333 80.3905 3.40933 80.4051 3.072C80.4198 2.72 80.4271 2.412 80.4271 2.148C80.4271 1.78133 80.5445 1.47333 80.7791 1.224C81.0285 0.959999 81.3365 0.820666 81.7031 0.806C82.0698 0.791332 82.3851 0.908665 82.6491 1.158C82.9131 1.40733 83.0451 1.71533 83.0451 2.082C83.0451 2.33133 83.0305 2.62467 83.0011 2.962C82.9865 3.29933 82.9645 3.666 82.9351 4.062C84.4018 3.974 85.6705 3.80533 86.7411 3.556C87.0931 3.48267 87.4158 3.54867 87.7091 3.754C88.0171 3.94467 88.2005 4.216 88.2591 4.568C88.3325 4.92 88.2738 5.24267 88.0831 5.536C87.8925 5.82933 87.6211 6.01267 87.2691 6.086C86.6385 6.20333 85.9271 6.306 85.1351 6.394C84.3431 6.482 83.5218 6.55533 82.6711 6.614C82.5978 7.25933 82.5098 7.89733 82.4071 8.528C82.3045 9.144 82.2018 9.70133 82.0991 10.2C82.9205 9.73067 83.7565 9.41533 84.6071 9.254C85.4578 9.09267 86.2791 9.07067 87.0711 9.188C87.8631 9.30533 88.5745 9.562 89.2051 9.958C89.8358 10.354 90.3345 10.882 90.7011 11.542C91.0678 12.1873 91.2511 12.9573 91.2511 13.852C91.2511 15.9347 90.5105 17.5407 89.0291 18.67C87.5478 19.7993 85.4945 20.408 82.8691 20.496ZM104.737 19.528C104.385 19.484 104.099 19.3153 103.879 19.022C103.659 18.7433 103.571 18.4207 103.615 18.054C103.659 17.6873 103.82 17.394 104.099 17.174C104.392 16.954 104.722 16.866 105.089 16.91C105.544 16.9687 105.947 16.9833 106.299 16.954C106.666 16.91 106.981 16.756 107.245 16.492C107.509 16.228 107.744 15.7953 107.949 15.194C108.154 14.5927 108.33 13.764 108.477 12.708C108.609 11.784 108.616 11.0653 108.499 10.552C108.396 10.024 108.125 9.66467 107.685 9.474C107.245 9.26867 106.592 9.19533 105.727 9.254C105.375 10.4567 104.95 11.6593 104.451 12.862C103.967 14.0647 103.432 15.2087 102.845 16.294C102.258 17.3647 101.62 18.3327 100.931 19.198C100.696 19.4767 100.403 19.638 100.051 19.682C99.6991 19.7407 99.3765 19.66 99.0831 19.44C98.8045 19.2053 98.6358 18.912 98.5771 18.56C98.5331 18.1933 98.6285 17.8707 98.8631 17.592C99.7285 16.536 100.513 15.2967 101.217 13.874C101.921 12.4513 102.515 10.9847 102.999 9.474C102.544 9.53267 102.075 9.59133 101.591 9.65C101.122 9.694 100.66 9.738 100.205 9.782C99.8385 9.81133 99.5158 9.716 99.2371 9.496C98.9585 9.276 98.7971 8.98267 98.7531 8.616C98.7238 8.24933 98.8191 7.92667 99.0391 7.648C99.2591 7.35467 99.5525 7.19333 99.9191 7.164C100.55 7.09067 101.188 7.032 101.833 6.988C102.478 6.92933 103.109 6.88533 103.725 6.856C103.886 6.196 104.011 5.55067 104.099 4.92C104.187 4.27467 104.246 3.65867 104.275 3.072C104.304 2.70533 104.451 2.40467 104.715 2.17C104.994 1.92067 105.316 1.81067 105.683 1.84C106.05 1.85467 106.35 2.00133 106.585 2.28C106.834 2.544 106.944 2.85933 106.915 3.226C106.856 3.76867 106.783 4.33333 106.695 4.92C106.607 5.50667 106.497 6.108 106.365 6.724C108.36 6.75333 109.709 7.28867 110.413 8.33C111.132 9.37133 111.344 10.948 111.051 13.06C110.816 14.8787 110.435 16.2867 109.907 17.284C109.394 18.2813 108.712 18.9413 107.861 19.264C107.01 19.6013 105.969 19.6893 104.737 19.528ZM117.013 13.06C116.69 13.236 116.353 13.2727 116.001 13.17C115.649 13.0673 115.385 12.8547 115.209 12.532C114.96 12.0627 114.644 11.5713 114.263 11.058C113.882 10.53 113.486 10.024 113.075 9.54C112.679 9.04133 112.298 8.616 111.931 8.264C111.667 8.01467 111.528 7.714 111.513 7.362C111.498 6.99533 111.616 6.68 111.865 6.416C112.114 6.152 112.415 6.02 112.767 6.02C113.134 6.00533 113.449 6.12267 113.713 6.372C114.182 6.812 114.652 7.318 115.121 7.89C115.605 8.44733 116.052 9.01933 116.463 9.606C116.888 10.1927 117.24 10.75 117.519 11.278C117.695 11.6007 117.732 11.938 117.629 12.29C117.541 12.6273 117.336 12.884 117.013 13.06ZM115.165 6.438C114.974 6.24733 114.732 6.02 114.439 5.756C114.16 5.47733 113.896 5.23533 113.647 5.03C113.5 4.898 113.412 4.71467 113.383 4.48C113.368 4.24533 113.442 4.03267 113.603 3.842C113.764 3.65133 113.955 3.54867 114.175 3.534C114.41 3.51933 114.622 3.57067 114.813 3.688C115.062 3.83467 115.348 4.04733 115.671 4.326C116.008 4.59 116.287 4.832 116.507 5.052C116.698 5.24267 116.793 5.47 116.793 5.734C116.793 5.98333 116.705 6.21067 116.529 6.416C116.353 6.60667 116.126 6.70933 115.847 6.724C115.583 6.724 115.356 6.62867 115.165 6.438ZM117.013 4.37C116.808 4.194 116.544 3.98133 116.221 3.732C115.913 3.48267 115.634 3.26267 115.385 3.072C115.238 2.94 115.143 2.75667 115.099 2.522C115.07 2.28733 115.128 2.07467 115.275 1.884C115.407 1.69333 115.583 1.58333 115.803 1.554C116.038 1.51 116.258 1.54667 116.463 1.664C116.712 1.796 117.013 1.98667 117.365 2.236C117.717 2.47067 118.01 2.69067 118.245 2.896C118.45 3.072 118.56 3.292 118.575 3.556C118.59 3.82 118.516 4.05467 118.355 4.26C118.208 4.46533 117.996 4.58267 117.717 4.612C117.453 4.64133 117.218 4.56067 117.013 4.37ZM124.295 15.392C123.987 15.6267 123.642 15.7147 123.261 15.656C122.894 15.5827 122.601 15.392 122.381 15.084C122.161 14.776 122.08 14.4387 122.139 14.072C122.212 13.6907 122.403 13.39 122.711 13.17C123.444 12.6567 124.17 12.0407 124.889 11.322C125.608 10.5887 126.26 9.826 126.847 9.034C127.434 8.242 127.903 7.50867 128.255 6.834C128.431 6.49667 128.695 6.262 129.047 6.13C129.399 5.998 129.736 6.01267 130.059 6.174C130.396 6.33533 130.624 6.59933 130.741 6.966C130.873 7.318 130.851 7.66267 130.675 8C130.25 8.82133 129.7 9.68667 129.025 10.596C128.35 11.5053 127.602 12.378 126.781 13.214C125.974 14.05 125.146 14.776 124.295 15.392ZM141.257 15.282C140.934 15.4727 140.59 15.524 140.223 15.436C139.856 15.3333 139.578 15.1207 139.387 14.798C139.123 14.358 138.786 13.852 138.375 13.28C137.964 12.708 137.51 12.1213 137.011 11.52C136.527 10.9187 136.028 10.3467 135.515 9.804C135.002 9.24667 134.525 8.77 134.085 8.374C133.806 8.12467 133.66 7.80933 133.645 7.428C133.63 7.04667 133.748 6.71667 133.997 6.438C134.261 6.174 134.576 6.042 134.943 6.042C135.324 6.042 135.654 6.16667 135.933 6.416C136.417 6.87067 136.938 7.39133 137.495 7.978C138.052 8.56467 138.595 9.18067 139.123 9.826C139.666 10.4567 140.164 11.0873 140.619 11.718C141.074 12.334 141.448 12.8987 141.741 13.412C141.932 13.7347 141.983 14.0793 141.895 14.446C141.807 14.8127 141.594 15.0913 141.257 15.282ZM154.061 19.924C153.768 20.056 153.46 20.0633 153.137 19.946C152.829 19.8287 152.609 19.6233 152.477 19.33C152.345 19.022 152.338 18.714 152.455 18.406C152.572 18.098 152.778 17.878 153.071 17.746C154.567 17.0713 155.792 16.3087 156.745 15.458C157.713 14.5927 158.468 13.6027 159.011 12.488C159.554 11.3587 159.928 10.068 160.133 8.616C160.177 8.27867 160.331 8.01467 160.595 7.824C160.874 7.63333 161.174 7.56 161.497 7.604C161.82 7.648 162.076 7.802 162.267 8.066C162.472 8.33 162.546 8.63067 162.487 8.968C162.106 11.4907 161.226 13.6687 159.847 15.502C158.483 17.3207 156.554 18.7947 154.061 19.924ZM156.965 12.752C156.642 12.8547 156.342 12.84 156.063 12.708C155.784 12.5613 155.586 12.334 155.469 12.026C155.308 11.6007 155.102 11.1167 154.853 10.574C154.618 10.0313 154.42 9.59867 154.259 9.276C154.112 8.98267 154.076 8.682 154.149 8.374C154.222 8.05133 154.398 7.80933 154.677 7.648C154.97 7.472 155.278 7.428 155.601 7.516C155.924 7.58933 156.158 7.77267 156.305 8.066C156.525 8.47667 156.767 8.98267 157.031 9.584C157.31 10.1707 157.537 10.728 157.713 11.256C157.83 11.564 157.808 11.8647 157.647 12.158C157.5 12.4513 157.273 12.6493 156.965 12.752ZM153.357 13.588C153.064 13.72 152.763 13.7273 152.455 13.61C152.162 13.478 151.942 13.2653 151.795 12.972C151.56 12.488 151.311 12.0187 151.047 11.564C150.798 11.0947 150.57 10.6987 150.365 10.376C150.174 10.0973 150.101 9.79667 150.145 9.474C150.204 9.15133 150.365 8.89467 150.629 8.704C150.893 8.51333 151.186 8.44733 151.509 8.506C151.846 8.55 152.11 8.704 152.301 8.968C152.58 9.364 152.88 9.86267 153.203 10.464C153.526 11.0507 153.782 11.5713 153.973 12.026C154.12 12.3193 154.127 12.62 153.995 12.928C153.878 13.236 153.665 13.456 153.357 13.588ZM186.643 18.318C183.93 18.7727 181.722 18.9633 180.021 18.89C178.334 18.802 177.066 18.406 176.215 17.702C175.584 17.1887 175.152 16.536 174.917 15.744C174.697 14.952 174.587 13.9767 174.587 12.818V3.886C174.587 3.50467 174.719 3.182 174.983 2.918C175.262 2.654 175.584 2.522 175.951 2.522C176.332 2.522 176.655 2.654 176.919 2.918C177.183 3.182 177.315 3.50467 177.315 3.886V8.748C178.503 8.45467 179.735 8.11733 181.011 7.736C182.302 7.34 183.46 6.944 184.487 6.548C184.868 6.40133 185.228 6.40867 185.565 6.57C185.902 6.71667 186.137 6.966 186.269 7.318C186.401 7.67 186.386 8.022 186.225 8.374C186.078 8.726 185.829 8.96067 185.477 9.078C184.23 9.53267 182.881 9.958 181.429 10.354C179.977 10.75 178.606 11.0947 177.315 11.388V12.818C177.315 13.6833 177.374 14.3067 177.491 14.688C177.623 15.0547 177.828 15.348 178.107 15.568C178.444 15.8173 178.928 16.0007 179.559 16.118C180.19 16.2207 181.04 16.2353 182.111 16.162C183.196 16.0887 184.575 15.9127 186.247 15.634C186.614 15.5607 186.944 15.6413 187.237 15.876C187.545 16.096 187.728 16.3967 187.787 16.778C187.846 17.1447 187.765 17.4747 187.545 17.768C187.325 18.0613 187.024 18.2447 186.643 18.318ZM188.843 8.066C188.242 8.066 187.721 7.85333 187.281 7.428C186.856 6.988 186.643 6.46 186.643 5.844C186.643 5.228 186.856 4.70733 187.281 4.282C187.721 3.842 188.242 3.622 188.843 3.622C189.459 3.622 189.98 3.842 190.405 4.282C190.845 4.70733 191.065 5.228 191.065 5.844C191.065 6.46 190.845 6.988 190.405 7.428C189.98 7.85333 189.459 8.066 188.843 8.066ZM188.843 6.79C189.107 6.79 189.334 6.702 189.525 6.526C189.716 6.33533 189.811 6.108 189.811 5.844C189.811 5.58 189.716 5.36 189.525 5.184C189.334 4.99333 189.107 4.898 188.843 4.898C188.579 4.898 188.352 4.99333 188.161 5.184C187.985 5.36 187.897 5.58 187.897 5.844C187.897 6.108 187.985 6.33533 188.161 6.526C188.352 6.702 188.579 6.79 188.843 6.79ZM197.995 12.092C197.628 12.092 197.306 11.96 197.027 11.696C196.763 11.4173 196.631 11.0947 196.631 10.728C196.631 10.3467 196.763 10.024 197.027 9.76C197.306 9.496 197.628 9.364 197.995 9.364H211.701C212.082 9.364 212.405 9.496 212.669 9.76C212.933 10.024 213.065 10.3467 213.065 10.728C213.065 11.0947 212.933 11.4173 212.669 11.696C212.405 11.96 212.082 12.092 211.701 12.092H197.995ZM222.899 19.352C222.532 19.4107 222.202 19.3373 221.909 19.132C221.616 18.9267 221.432 18.648 221.359 18.296C221.227 17.548 221.124 16.6827 221.051 15.7C220.978 14.7027 220.941 13.654 220.941 12.554C220.941 11.454 220.97 10.3467 221.029 9.232C221.088 8.11733 221.176 7.054 221.293 6.042C221.425 5.01533 221.579 4.09867 221.755 3.292C221.828 2.94 222.019 2.66867 222.327 2.478C222.635 2.27267 222.965 2.20667 223.317 2.28C223.669 2.368 223.94 2.566 224.131 2.874C224.336 3.16733 224.402 3.49733 224.329 3.864C224.094 4.90533 223.911 6.03467 223.779 7.252C223.647 8.46933 223.559 9.70867 223.515 10.97C223.486 12.2167 223.508 13.434 223.581 14.622C223.654 15.7953 223.779 16.866 223.955 17.834C224.028 18.186 223.955 18.5087 223.735 18.802C223.53 19.0953 223.251 19.2787 222.899 19.352ZM231.919 18.164C230.012 18.164 228.59 17.8193 227.651 17.13C226.727 16.4407 226.17 15.4287 225.979 14.094C225.92 13.742 225.994 13.4193 226.199 13.126C226.419 12.8327 226.712 12.6567 227.079 12.598C227.431 12.554 227.754 12.642 228.047 12.862C228.34 13.0673 228.516 13.3533 228.575 13.72C228.663 14.3507 228.964 14.82 229.477 15.128C229.99 15.436 230.826 15.59 231.985 15.59C233.085 15.59 234.412 15.4213 235.967 15.084C236.319 14.996 236.649 15.0547 236.957 15.26C237.265 15.4653 237.456 15.744 237.529 16.096C237.602 16.448 237.536 16.778 237.331 17.086C237.126 17.3793 236.847 17.57 236.495 17.658C235.703 17.8487 234.911 17.9807 234.119 18.054C233.342 18.1273 232.608 18.164 231.919 18.164ZM227.893 7.274C227.541 7.34733 227.211 7.28867 226.903 7.098C226.61 6.89267 226.426 6.60667 226.353 6.24C226.28 5.888 226.338 5.558 226.529 5.25C226.734 4.942 227.02 4.75867 227.387 4.7C228.208 4.53867 229.125 4.436 230.137 4.392C231.149 4.33333 232.154 4.326 233.151 4.37C234.148 4.39933 235.028 4.48 235.791 4.612C236.158 4.67067 236.444 4.854 236.649 5.162C236.854 5.45533 236.92 5.78533 236.847 6.152C236.788 6.51867 236.605 6.80467 236.297 7.01C236.004 7.20067 235.681 7.26667 235.329 7.208C234.141 7.00267 232.909 6.90733 231.633 6.922C230.357 6.922 229.11 7.03933 227.893 7.274ZM244.723 17.152C244.356 17.2987 244.019 17.3353 243.711 17.262C243.403 17.1887 243.168 16.9907 243.007 16.668C242.86 16.36 242.853 16.0593 242.985 15.766C243.117 15.4727 243.366 15.26 243.733 15.128C244.378 14.8933 245.009 14.6 245.625 14.248C246.241 13.896 246.82 13.5147 247.363 13.104H244.019C243.755 13.104 243.528 13.016 243.337 12.84C243.161 12.6493 243.073 12.422 243.073 12.158C243.073 11.9087 243.161 11.696 243.337 11.52C243.528 11.3293 243.755 11.234 244.019 11.234H249.387C249.49 11.1167 249.592 10.9993 249.695 10.882C249.798 10.75 249.893 10.6253 249.981 10.508C248.646 10.4787 247.73 10.2367 247.231 9.782C246.732 9.32733 246.483 8.56467 246.483 7.494C246.483 6.55533 246.666 5.85867 247.033 5.404C247.4 4.93467 248.074 4.64867 249.057 4.546V3.644H244.283C244.019 3.644 243.792 3.54867 243.601 3.358C243.425 3.15267 243.337 2.92533 243.337 2.676C243.337 2.412 243.425 2.18467 243.601 1.994C243.792 1.80333 244.019 1.708 244.283 1.708H249.057V1.224C249.057 0.857332 249.174 0.571332 249.409 0.365999C249.658 0.145999 249.952 0.0359989 250.289 0.0359989C250.626 0.0359989 250.912 0.145999 251.147 0.365999C251.382 0.571332 251.499 0.857332 251.499 1.224V1.708H254.997V1.224C254.997 0.857332 255.114 0.571332 255.349 0.365999C255.598 0.145999 255.892 0.0359989 256.229 0.0359989C256.566 0.0359989 256.852 0.145999 257.087 0.365999C257.322 0.571332 257.439 0.857332 257.439 1.224V1.708H262.059C262.323 1.708 262.55 1.80333 262.741 1.994C262.932 2.18467 263.027 2.412 263.027 2.676C263.027 2.92533 262.932 3.15267 262.741 3.358C262.55 3.54867 262.323 3.644 262.059 3.644H257.439V4.524C258.466 4.62667 259.17 4.91267 259.551 5.382C259.932 5.83667 260.123 6.54067 260.123 7.494C260.123 8.22733 260.013 8.814 259.793 9.254C259.573 9.694 259.184 10.0167 258.627 10.222C258.084 10.4127 257.329 10.508 256.361 10.508H252.511C252.379 10.7427 252.225 10.9847 252.049 11.234H262.543C262.807 11.234 263.027 11.3293 263.203 11.52C263.394 11.696 263.489 11.9087 263.489 12.158C263.489 12.422 263.394 12.6493 263.203 12.84C263.027 13.016 262.807 13.104 262.543 13.104H259.265C259.837 13.4707 260.438 13.8227 261.069 14.16C261.714 14.4973 262.33 14.7833 262.917 15.018C263.254 15.15 263.482 15.3627 263.599 15.656C263.716 15.9347 263.716 16.228 263.599 16.536C263.452 16.8587 263.203 17.0787 262.851 17.196C262.499 17.2987 262.154 17.2767 261.817 17.13C261.157 16.822 260.46 16.448 259.727 16.008C258.994 15.5533 258.297 15.0767 257.637 14.578C256.977 14.0647 256.412 13.5733 255.943 13.104H250.553C249.746 13.9547 248.837 14.7393 247.825 15.458C246.828 16.162 245.794 16.7267 244.723 17.152ZM252.401 20.914C251.36 20.914 250.546 20.8187 249.959 20.628C249.372 20.4373 248.962 20.1147 248.727 19.66C248.507 19.22 248.397 18.604 248.397 17.812V17.086C248.397 16.294 248.507 15.678 248.727 15.238C248.962 14.7833 249.372 14.4607 249.959 14.27C250.546 14.0793 251.36 13.984 252.401 13.984H254.337C255.393 13.984 256.2 14.0793 256.757 14.27C257.329 14.4607 257.718 14.7833 257.923 15.238C258.143 15.678 258.253 16.294 258.253 17.086V17.812C258.253 18.604 258.143 19.22 257.923 19.66C257.718 20.1147 257.329 20.4373 256.757 20.628C256.2 20.8187 255.393 20.914 254.337 20.914H252.401ZM249.123 6.812H257.483C257.424 6.48933 257.278 6.284 257.043 6.196C256.808 6.108 256.405 6.064 255.833 6.064H250.773C250.186 6.064 249.776 6.108 249.541 6.196C249.321 6.284 249.182 6.48933 249.123 6.812ZM250.773 8.924H255.833C256.405 8.924 256.808 8.88 257.043 8.792C257.278 8.704 257.424 8.506 257.483 8.198H249.123C249.182 8.506 249.328 8.704 249.563 8.792C249.798 8.88 250.201 8.924 250.773 8.924ZM252.401 19.198H254.337C254.982 19.198 255.422 19.132 255.657 19C255.892 18.8533 256.024 18.5747 256.053 18.164H250.751C250.78 18.5747 250.905 18.8533 251.125 19C251.345 19.132 251.77 19.198 252.401 19.198ZM250.751 16.69H256.053C256.024 16.2793 255.892 16.0153 255.657 15.898C255.422 15.766 254.982 15.7 254.337 15.7H252.401C251.77 15.7 251.345 15.766 251.125 15.898C250.905 16.0153 250.78 16.2793 250.751 16.69ZM251.499 4.48H254.997V3.644H251.499V4.48ZM275.633 19.792C275.266 19.792 274.951 19.6673 274.687 19.418C274.438 19.1687 274.306 18.8607 274.291 18.494C274.291 18.1273 274.416 17.8193 274.665 17.57C274.914 17.306 275.222 17.1667 275.589 17.152C279.696 17.0787 281.749 15.9053 281.749 13.632C281.749 12.884 281.492 12.2973 280.979 11.872C280.466 11.4467 279.784 11.234 278.933 11.234C277.994 11.234 277.019 11.4687 276.007 11.938C275.01 12.3927 274.1 13.082 273.279 14.006C273.088 14.226 272.839 14.3653 272.531 14.424C272.238 14.468 271.966 14.424 271.717 14.292C271.468 14.1747 271.284 13.9913 271.167 13.742C271.05 13.478 271.013 13.2067 271.057 12.928C271.16 12.312 271.27 11.6447 271.387 10.926C271.519 10.2073 271.658 9.48133 271.805 8.748C271.952 8 272.098 7.31067 272.245 6.68C272.318 6.31333 272.509 6.042 272.817 5.866C273.14 5.67533 273.477 5.624 273.829 5.712C274.181 5.8 274.452 6.00533 274.643 6.328C274.834 6.636 274.885 6.966 274.797 7.318C274.694 7.72867 274.57 8.20533 274.423 8.748C274.291 9.276 274.152 9.84067 274.005 10.442C275.692 9.298 277.356 8.726 278.999 8.726C280.084 8.726 281.03 8.93133 281.837 9.342C282.644 9.75267 283.267 10.3247 283.707 11.058C284.162 11.7913 284.389 12.6493 284.389 13.632C284.389 15.4653 283.67 16.9393 282.233 18.054C280.796 19.1687 278.596 19.748 275.633 19.792ZM279.153 6.02C278.684 5.78533 278.148 5.536 277.547 5.272C276.96 4.99333 276.366 4.72933 275.765 4.48C275.178 4.216 274.658 3.996 274.203 3.82C273.88 3.688 273.66 3.446 273.543 3.094C273.426 2.742 273.44 2.40467 273.587 2.082C273.748 1.74467 273.998 1.52467 274.335 1.422C274.672 1.30467 275.01 1.312 275.347 1.444C275.831 1.63467 276.352 1.85467 276.909 2.104C277.481 2.33867 278.053 2.588 278.625 2.852C279.197 3.10133 279.718 3.34333 280.187 3.578C280.51 3.73933 280.737 3.98867 280.869 4.326C281.016 4.64867 281.023 4.97867 280.891 5.316C280.744 5.63867 280.502 5.87333 280.165 6.02C279.828 6.16667 279.49 6.16667 279.153 6.02ZM307.489 19.022C305.48 19.242 303.727 19.2567 302.231 19.066C300.75 18.8753 299.54 18.362 298.601 17.526C297.97 16.9393 297.501 16.228 297.193 15.392C296.885 14.5413 296.731 13.4927 296.731 12.246V10.222C296.027 10.31 295.36 10.4053 294.729 10.508C294.098 10.596 293.512 10.6913 292.969 10.794C292.617 10.8527 292.294 10.7793 292.001 10.574C291.708 10.3687 291.532 10.09 291.473 9.738C291.414 9.386 291.48 9.06333 291.671 8.77C291.876 8.47667 292.155 8.30067 292.507 8.242C293.108 8.154 293.761 8.066 294.465 7.978C295.184 7.87533 295.939 7.78 296.731 7.692V4.018C296.731 3.65133 296.856 3.34333 297.105 3.094C297.369 2.83 297.684 2.698 298.051 2.698C298.418 2.698 298.726 2.83 298.975 3.094C299.224 3.34333 299.349 3.65133 299.349 4.018V7.428C300.112 7.35467 300.882 7.28867 301.659 7.23C302.451 7.17133 303.228 7.11267 303.991 7.054C304.064 6.42333 304.116 5.81467 304.145 5.228C304.189 4.64133 304.218 4.09133 304.233 3.578C304.248 3.21133 304.38 2.90333 304.629 2.654C304.893 2.40467 305.208 2.28733 305.575 2.302C305.942 2.31667 306.25 2.456 306.499 2.72C306.763 2.96933 306.888 3.27733 306.873 3.644C306.858 4.14267 306.829 4.67067 306.785 5.228C306.756 5.77067 306.712 6.328 306.653 6.9C307.298 6.856 307.929 6.82667 308.545 6.812C309.161 6.78267 309.748 6.76067 310.305 6.746C310.672 6.746 310.98 6.878 311.229 7.142C311.478 7.39133 311.603 7.692 311.603 8.044C311.603 8.396 311.478 8.704 311.229 8.968C310.98 9.21733 310.672 9.342 310.305 9.342C309.088 9.31267 307.782 9.33467 306.389 9.408C306.286 10.1267 306.169 10.8307 306.037 11.52C305.92 12.1947 305.795 12.8107 305.663 13.368C305.575 13.72 305.377 13.9913 305.069 14.182C304.761 14.358 304.431 14.4093 304.079 14.336C303.712 14.248 303.434 14.05 303.243 13.742C303.067 13.434 303.016 13.104 303.089 12.752C303.206 12.268 303.316 11.7547 303.419 11.212C303.522 10.6693 303.61 10.1193 303.683 9.562C302.964 9.606 302.238 9.66467 301.505 9.738C300.786 9.79667 300.068 9.86267 299.349 9.936V12.246C299.349 13.0673 299.437 13.7493 299.613 14.292C299.789 14.8347 300.053 15.2673 300.405 15.59C300.962 16.0887 301.769 16.3967 302.825 16.514C303.881 16.6167 305.348 16.5727 307.225 16.382C307.592 16.338 307.914 16.4333 308.193 16.668C308.486 16.9027 308.648 17.2033 308.677 17.57C308.721 17.9367 308.626 18.2667 308.391 18.56C308.171 18.8387 307.87 18.9927 307.489 19.022ZM325.771 19.946C324.436 19.9167 323.38 19.594 322.603 18.978C321.84 18.362 321.474 17.5187 321.503 16.448C321.532 15.8173 321.708 15.2673 322.031 14.798C322.368 14.3287 322.823 13.9767 323.395 13.742C323.967 13.4927 324.62 13.4047 325.353 13.478C326.526 13.5807 327.348 13.984 327.817 14.688C328.286 15.3773 328.426 16.1693 328.235 17.064C328.748 16.8147 329.166 16.4553 329.489 15.986C329.826 15.502 329.995 14.8787 329.995 14.116C329.995 13.544 329.826 13.0307 329.489 12.576C329.166 12.1067 328.704 11.7473 328.103 11.498C327.516 11.234 326.834 11.124 326.057 11.168C325.28 11.212 324.444 11.4467 323.549 11.872C322.654 12.2827 321.738 12.9427 320.799 13.852C320.535 14.1013 320.205 14.226 319.809 14.226C319.413 14.2113 319.09 14.0573 318.841 13.764C318.606 13.4853 318.496 13.17 318.511 12.818C318.54 12.4513 318.694 12.1653 318.973 11.96C319.882 11.2707 320.792 10.5447 321.701 9.782C322.61 9.00467 323.476 8.242 324.297 7.494C325.133 6.746 325.866 6.064 326.497 5.448C326.893 5.06667 327.025 4.75133 326.893 4.502C326.776 4.25267 326.46 4.16467 325.947 4.238C325.448 4.29667 324.876 4.37 324.231 4.458C323.6 4.546 323.006 4.62667 322.449 4.7C322.097 4.75867 321.774 4.678 321.481 4.458C321.188 4.238 321.019 3.94467 320.975 3.578C320.916 3.226 320.997 2.91067 321.217 2.632C321.437 2.33867 321.73 2.16267 322.097 2.104C322.42 2.06 322.823 2.016 323.307 1.972C323.806 1.928 324.312 1.884 324.825 1.84C325.353 1.796 325.8 1.75933 326.167 1.73C327.12 1.65667 327.898 1.78133 328.499 2.104C329.1 2.42667 329.511 2.86667 329.731 3.424C329.951 3.96667 329.958 4.56067 329.753 5.206C329.562 5.85133 329.144 6.46 328.499 7.032C328.206 7.28133 327.832 7.604 327.377 8C326.937 8.396 326.482 8.79933 326.013 9.21C326.849 9.04867 327.663 9.04133 328.455 9.188C329.247 9.32 329.951 9.59867 330.567 10.024C331.198 10.4493 331.696 11.014 332.063 11.718C332.43 12.4073 332.613 13.2213 332.613 14.16C332.613 15.4947 332.32 16.602 331.733 17.482C331.146 18.3473 330.34 18.978 329.313 19.374C328.286 19.7847 327.106 19.9753 325.771 19.946ZM325.375 17.504C325.404 17.504 325.448 17.504 325.507 17.504C325.551 17.504 325.602 17.5113 325.661 17.526C325.734 17.526 325.815 17.5187 325.903 17.504C326.108 17.02 326.145 16.6167 326.013 16.294C325.881 15.9713 325.617 15.7807 325.221 15.722C324.869 15.678 324.576 15.7293 324.341 15.876C324.121 16.008 323.996 16.228 323.967 16.536C323.952 17.1227 324.422 17.4453 325.375 17.504ZM346.825 20.078C345.549 20.078 344.559 19.748 343.855 19.088C343.166 18.4427 342.821 17.614 342.821 16.602C342.821 15.6193 343.18 14.8053 343.899 14.16C344.632 13.5 345.71 13.17 347.133 13.17C347.382 13.17 347.639 13.1847 347.903 13.214C348.167 13.2287 348.438 13.2507 348.717 13.28C348.673 12.4587 348.614 11.5713 348.541 10.618C348.482 9.65 348.416 8.682 348.343 7.714C348.284 6.73133 348.233 5.80733 348.189 4.942C348.16 4.062 348.145 3.29933 348.145 2.654C348.145 2.28733 348.27 1.97933 348.519 1.73C348.783 1.48067 349.098 1.356 349.465 1.356C349.832 1.356 350.14 1.48067 350.389 1.73C350.653 1.97933 350.785 2.28733 350.785 2.654C350.785 3.07933 350.792 3.6 350.807 4.216C350.836 4.81733 350.873 5.47 350.917 6.174C351.342 6.11533 351.812 6.042 352.325 5.954C352.853 5.85133 353.374 5.74867 353.887 5.646C354.4 5.52867 354.855 5.41867 355.251 5.316C355.618 5.21333 355.955 5.25733 356.263 5.448C356.586 5.63867 356.791 5.91 356.879 6.262C356.982 6.614 356.938 6.95867 356.747 7.296C356.571 7.61867 356.3 7.81667 355.933 7.89C355.214 8.05133 354.408 8.20533 353.513 8.352C352.618 8.49867 351.797 8.60867 351.049 8.682C351.108 9.59133 351.166 10.4933 351.225 11.388C351.284 12.2827 351.335 13.0967 351.379 13.83C352.376 14.1087 353.359 14.4533 354.327 14.864C355.295 15.2747 356.146 15.7293 356.879 16.228C357.172 16.4333 357.348 16.7193 357.407 17.086C357.48 17.4527 357.414 17.79 357.209 18.098C357.004 18.3913 356.718 18.5747 356.351 18.648C355.984 18.7067 355.654 18.6333 355.361 18.428C354.217 17.6507 352.919 16.998 351.467 16.47C351.408 17.5847 350.983 18.4647 350.191 19.11C349.414 19.7553 348.292 20.078 346.825 20.078ZM346.825 17.548C347.5 17.548 347.998 17.4307 348.321 17.196C348.658 16.9613 348.827 16.5873 348.827 16.074V15.788C348.534 15.7293 348.24 15.6927 347.947 15.678C347.654 15.6487 347.36 15.634 347.067 15.634C346.51 15.634 346.099 15.7293 345.835 15.92C345.586 16.096 345.461 16.3233 345.461 16.602C345.461 16.866 345.571 17.0933 345.791 17.284C346.026 17.46 346.37 17.548 346.825 17.548ZM375.073 20.54C374.794 20.7747 374.464 20.8847 374.083 20.87C373.716 20.87 373.408 20.7307 373.159 20.452C372.924 20.1733 372.807 19.8507 372.807 19.484C372.822 19.1173 372.968 18.8167 373.247 18.582C374.42 17.5553 375.308 16.4407 375.909 15.238C376.525 14.0353 376.833 12.6933 376.833 11.212C376.833 10.2293 376.569 9.51067 376.041 9.056C375.528 8.60133 374.846 8.374 373.995 8.374C373.364 8.374 372.719 8.528 372.059 8.836C371.414 9.12933 370.79 9.55467 370.189 10.112C369.91 10.3467 369.588 10.4567 369.221 10.442C368.869 10.4127 368.568 10.2587 368.319 9.98C368.084 9.70133 367.982 9.386 368.011 9.034C368.04 8.66733 368.187 8.36667 368.451 8.132C369.302 7.35467 370.204 6.79 371.157 6.438C372.11 6.07133 373.056 5.888 373.995 5.888C375.036 5.888 375.968 6.086 376.789 6.482C377.61 6.86333 378.256 7.45 378.725 8.242C379.209 9.01933 379.451 10.0093 379.451 11.212C379.451 13.0747 379.062 14.8053 378.285 16.404C377.508 18.0027 376.437 19.3813 375.073 20.54ZM376.701 5.074C376.056 4.898 375.381 4.7 374.677 4.48C373.973 4.24533 373.291 3.996 372.631 3.732C371.971 3.468 371.392 3.21867 370.893 2.984C370.57 2.82267 370.35 2.57333 370.233 2.236C370.116 1.884 370.138 1.54667 370.299 1.224C370.46 0.886666 370.717 0.666666 371.069 0.563999C371.436 0.461332 371.78 0.490666 372.103 0.651999C372.836 0.974666 373.672 1.312 374.611 1.664C375.55 2.00133 376.466 2.28733 377.361 2.522C377.713 2.61 377.977 2.81533 378.153 3.138C378.344 3.446 378.395 3.776 378.307 4.128C378.219 4.48 378.014 4.75133 377.691 4.942C377.383 5.118 377.053 5.162 376.701 5.074ZM397.799 20.452C396.684 20.452 395.76 20.166 395.027 19.594C394.308 19.0367 393.949 18.208 393.949 17.108C393.949 16.1107 394.301 15.3187 395.005 14.732C395.724 14.1307 396.67 13.83 397.843 13.83C398.283 13.83 398.708 13.852 399.119 13.896V9.738C399.119 9.35667 399.244 9.04133 399.493 8.792C399.742 8.54267 400.05 8.418 400.417 8.418C400.784 8.418 401.092 8.54267 401.341 8.792C401.59 9.04133 401.715 9.35667 401.715 9.738V14.49C402.507 14.7393 403.255 15.0473 403.959 15.414C404.678 15.766 405.308 16.1327 405.851 16.514C406.144 16.734 406.32 17.0273 406.379 17.394C406.438 17.746 406.357 18.0687 406.137 18.362C405.932 18.6553 405.646 18.8313 405.279 18.89C404.927 18.9487 404.604 18.8753 404.311 18.67C403.959 18.3913 403.556 18.1273 403.101 17.878C402.661 17.614 402.199 17.372 401.715 17.152C401.627 18.2227 401.253 19.0367 400.593 19.594C399.933 20.166 399.002 20.452 397.799 20.452ZM391.947 14.358C391.668 14.5927 391.346 14.71 390.979 14.71C390.627 14.71 390.326 14.5853 390.077 14.336C389.813 14.072 389.681 13.7567 389.681 13.39C389.681 13.0087 389.82 12.7007 390.099 12.466C390.935 11.718 391.668 10.8673 392.299 9.914C392.944 8.96067 393.472 7.97067 393.883 6.944C393.487 7.00267 393.098 7.04667 392.717 7.076C392.35 7.10533 391.998 7.13467 391.661 7.164C391.28 7.17867 390.957 7.06867 390.693 6.834C390.429 6.59933 390.29 6.27667 390.275 5.866C390.26 5.49933 390.37 5.19867 390.605 4.964C390.84 4.71467 391.162 4.58267 391.573 4.568C392.042 4.53867 392.534 4.49467 393.047 4.436C393.575 4.37733 394.103 4.31133 394.631 4.238C394.704 3.90067 394.748 3.556 394.763 3.204C394.792 2.852 394.807 2.51467 394.807 2.192C394.807 1.82533 394.932 1.51733 395.181 1.268C395.43 1.004 395.738 0.871999 396.105 0.871999C396.472 0.871999 396.787 1.004 397.051 1.268C397.315 1.51733 397.44 1.82533 397.425 2.192C397.41 2.69067 397.366 3.21133 397.293 3.754C397.396 3.72467 397.491 3.70267 397.579 3.688C397.682 3.65867 397.777 3.63667 397.865 3.622C398.232 3.534 398.569 3.578 398.877 3.754C399.185 3.93 399.376 4.20867 399.449 4.59C399.522 4.95667 399.456 5.28667 399.251 5.58C399.06 5.87333 398.789 6.064 398.437 6.152C398.202 6.21067 397.931 6.26933 397.623 6.328C397.33 6.38667 397.022 6.44533 396.699 6.504C396.244 8.044 395.606 9.496 394.785 10.86C393.978 12.224 393.032 13.39 391.947 14.358ZM404.641 8.528C404.172 8.23467 403.614 7.934 402.969 7.626C402.338 7.318 401.781 7.09067 401.297 6.944C400.96 6.82667 400.696 6.62133 400.505 6.328C400.314 6.03467 400.263 5.712 400.351 5.36C400.424 5.008 400.615 4.73667 400.923 4.546C401.246 4.35533 401.583 4.31133 401.935 4.414C402.375 4.53133 402.859 4.7 403.387 4.92C403.915 5.14 404.421 5.37467 404.905 5.624C405.404 5.87333 405.814 6.108 406.137 6.328C406.43 6.51867 406.606 6.79733 406.665 7.164C406.738 7.53067 406.672 7.868 406.467 8.176C406.276 8.46933 405.998 8.65267 405.631 8.726C405.279 8.78467 404.949 8.71867 404.641 8.528ZM397.777 18.032C398.261 18.032 398.606 17.922 398.811 17.702C399.016 17.482 399.119 17.1447 399.119 16.69V16.316C398.884 16.2573 398.65 16.2207 398.415 16.206C398.195 16.1767 397.982 16.162 397.777 16.162C397.322 16.162 396.985 16.25 396.765 16.426C396.56 16.5873 396.457 16.8147 396.457 17.108C396.457 17.3867 396.56 17.614 396.765 17.79C396.97 17.9513 397.308 18.032 397.777 18.032ZM414.541 20.848C414.057 20.9653 413.661 20.9507 413.353 20.804C413.06 20.672 412.847 20.43 412.715 20.078C412.583 19.6967 412.605 19.3373 412.781 19C412.957 18.6773 413.294 18.4647 413.793 18.362C415.142 18.054 416.382 17.68 417.511 17.24C418.655 16.8 419.704 16.3013 420.657 15.744C419.953 15.04 419.315 14.27 418.743 13.434C418.171 12.5833 417.672 11.652 417.247 10.64H415.619C415.252 10.64 414.952 10.5227 414.717 10.288C414.497 10.0533 414.387 9.76733 414.387 9.43C414.387 9.09267 414.497 8.80667 414.717 8.572C414.952 8.32267 415.252 8.198 415.619 8.198H421.273V6.042H413.727C413.375 6.042 413.089 5.932 412.869 5.712C412.664 5.47733 412.561 5.19867 412.561 4.876C412.561 4.53867 412.664 4.26 412.869 4.04C413.089 3.82 413.375 3.71 413.727 3.71H421.273V1.642C421.273 1.23133 421.405 0.908666 421.669 0.673999C421.933 0.424666 422.256 0.299999 422.637 0.299999C423.018 0.299999 423.341 0.424666 423.605 0.673999C423.869 0.908666 424.001 1.23133 424.001 1.642V3.71H431.525C431.877 3.71 432.156 3.82 432.361 4.04C432.581 4.26 432.691 4.53867 432.691 4.876C432.691 5.19867 432.581 5.47733 432.361 5.712C432.156 5.932 431.877 6.042 431.525 6.042H424.001V8.198H425.233C426.333 8.198 427.169 8.418 427.741 8.858C428.313 9.298 428.606 9.87733 428.621 10.596C428.636 11.3 428.335 12.048 427.719 12.84C426.883 13.94 425.952 14.9373 424.925 15.832C425.878 16.3893 426.905 16.8733 428.005 17.284C429.12 17.68 430.3 17.9807 431.547 18.186C431.987 18.2593 432.317 18.45 432.537 18.758C432.757 19.0513 432.816 19.4107 432.713 19.836C432.61 20.2613 432.383 20.5547 432.031 20.716C431.694 20.892 431.29 20.936 430.821 20.848C429.31 20.54 427.873 20.1073 426.509 19.55C425.145 18.9927 423.884 18.3107 422.725 17.504C420.466 18.9853 417.738 20.1 414.541 20.848ZM422.791 14.292C423.671 13.588 424.448 12.818 425.123 11.982C425.49 11.542 425.614 11.212 425.497 10.992C425.38 10.7573 424.984 10.64 424.309 10.64H419.931C420.62 12.004 421.574 13.2213 422.791 14.292ZM438.609 20.76C437.641 20.76 437.135 20.364 437.091 19.572C437.076 19.176 437.179 18.8607 437.399 18.626C437.619 18.3913 437.934 18.2593 438.345 18.23C438.77 18.186 439.049 18.1053 439.181 17.988C439.313 17.856 439.379 17.614 439.379 17.262V13.412C439.174 13.5 438.976 13.5807 438.785 13.654C438.609 13.7273 438.448 13.7933 438.301 13.852C437.934 13.9987 437.59 14.0133 437.267 13.896C436.944 13.764 436.71 13.5073 436.563 13.126C436.446 12.7887 436.46 12.466 436.607 12.158C436.754 11.85 437.01 11.6373 437.377 11.52C437.641 11.432 437.949 11.322 438.301 11.19C438.653 11.058 439.012 10.9187 439.379 10.772V6.702H437.663C437.34 6.702 437.069 6.592 436.849 6.372C436.629 6.152 436.519 5.88067 436.519 5.558C436.519 5.23533 436.629 4.964 436.849 4.744C437.069 4.50933 437.34 4.392 437.663 4.392H439.379V1.51C439.379 1.14333 439.496 0.849999 439.731 0.629999C439.98 0.409999 440.266 0.299999 440.589 0.299999C440.926 0.299999 441.212 0.409999 441.447 0.629999C441.682 0.849999 441.799 1.14333 441.799 1.51V4.392H442.943C443.266 4.392 443.537 4.50933 443.757 4.744C443.992 4.964 444.109 5.23533 444.109 5.558C444.109 5.88067 443.992 6.152 443.757 6.372C443.537 6.592 443.266 6.702 442.943 6.702H441.799V9.826C441.931 9.76733 442.056 9.716 442.173 9.672C442.29 9.628 442.4 9.584 442.503 9.54C442.826 9.39333 443.119 9.37867 443.383 9.496C443.647 9.61333 443.838 9.78933 443.955 10.024C444.058 9.936 444.168 9.86267 444.285 9.804C444.417 9.74533 444.556 9.716 444.703 9.716H447.035C447.064 9.55467 447.094 9.39333 447.123 9.232C447.152 9.056 447.174 8.88 447.189 8.704H445.253C444.974 8.704 444.732 8.60133 444.527 8.396C444.322 8.19067 444.219 7.94867 444.219 7.67C444.219 7.37667 444.322 7.13467 444.527 6.944C444.732 6.73867 444.974 6.636 445.253 6.636H445.935C445.847 6.53333 445.781 6.43067 445.737 6.328C445.649 6.13733 445.532 5.90267 445.385 5.624C445.253 5.33067 445.128 5.06667 445.011 4.832C444.894 4.58267 444.872 4.34067 444.945 4.106C445.033 3.85667 445.194 3.666 445.429 3.534H445.121C444.784 3.54867 444.505 3.468 444.285 3.292C444.065 3.116 443.948 2.84467 443.933 2.478C443.918 2.126 444.021 1.862 444.241 1.686C444.476 1.49533 444.769 1.4 445.121 1.4C445.752 1.38533 446.478 1.356 447.299 1.312C448.135 1.25333 448.993 1.18733 449.873 1.114C450.753 1.026 451.596 0.937999 452.403 0.849999C453.224 0.747333 453.928 0.644666 454.515 0.541999C454.94 0.468666 455.27 0.505332 455.505 0.651999C455.74 0.798665 455.886 1.01867 455.945 1.312C456.077 2.06 455.754 2.5 454.977 2.632C454.302 2.73467 453.54 2.84467 452.689 2.962C451.853 3.06467 450.995 3.15267 450.115 3.226C450.335 3.34333 450.496 3.52667 450.599 3.776C450.687 3.996 450.797 4.282 450.929 4.634C451.076 4.97133 451.178 5.228 451.237 5.404C451.34 5.65333 451.347 5.89533 451.259 6.13C451.186 6.35 451.032 6.51867 450.797 6.636H452.139C452.256 6.372 452.388 6.03467 452.535 5.624C452.696 5.21333 452.843 4.81733 452.975 4.436C453.122 4.05467 453.224 3.776 453.283 3.6C453.4 3.26267 453.606 3.03533 453.899 2.918C454.192 2.80067 454.515 2.80067 454.867 2.918C455.131 3.006 455.322 3.18933 455.439 3.468C455.571 3.74667 455.578 4.03267 455.461 4.326C455.373 4.56067 455.219 4.91267 454.999 5.382C454.794 5.83667 454.603 6.25467 454.427 6.636H455.131C455.424 6.636 455.666 6.73867 455.857 6.944C456.062 7.13467 456.165 7.37667 456.165 7.67C456.165 7.94867 456.062 8.19067 455.857 8.396C455.666 8.60133 455.424 8.704 455.131 8.704H449.675C449.66 8.88 449.638 9.056 449.609 9.232C449.58 9.39333 449.55 9.55467 449.521 9.716H455.879C456.172 9.716 456.422 9.81867 456.627 10.024C456.832 10.2147 456.935 10.4567 456.935 10.75C456.935 11.0287 456.832 11.278 456.627 11.498C456.422 11.7033 456.172 11.806 455.879 11.806H449.059C449.015 11.9527 448.971 12.0993 448.927 12.246C448.883 12.3927 448.839 12.5467 448.795 12.708H451.919C452.784 12.708 453.444 12.862 453.899 13.17C454.368 13.478 454.618 13.8887 454.647 14.402C454.676 14.9153 454.471 15.48 454.031 16.096C453.884 16.316 453.723 16.5287 453.547 16.734C453.371 16.9247 453.18 17.1227 452.975 17.328C453.43 17.5187 453.899 17.6947 454.383 17.856C454.867 18.0027 455.366 18.12 455.879 18.208C456.334 18.296 456.634 18.494 456.781 18.802C456.942 19.11 456.964 19.4327 456.847 19.77C456.73 20.1367 456.502 20.3713 456.165 20.474C455.828 20.5767 455.468 20.5767 455.087 20.474C453.606 20.0927 452.278 19.5427 451.105 18.824C450.518 19.1907 449.888 19.5133 449.213 19.792C448.553 20.0853 447.856 20.3347 447.123 20.54C446.786 20.628 446.456 20.6353 446.133 20.562C445.825 20.4887 445.605 20.276 445.473 19.924C445.356 19.5867 445.378 19.2787 445.539 19C445.715 18.7067 446.008 18.5087 446.419 18.406C446.932 18.2593 447.416 18.1053 447.871 17.944C448.34 17.768 448.78 17.5773 449.191 17.372C448.59 16.8147 448.054 16.1913 447.585 15.502C447.13 16.338 446.588 17.13 445.957 17.878C445.341 18.626 444.63 19.3153 443.823 19.946C443.544 20.166 443.229 20.2687 442.877 20.254C442.525 20.2393 442.246 20.1 442.041 19.836C441.806 19.5427 441.718 19.2347 441.777 18.912C441.85 18.5893 442.034 18.318 442.327 18.098C443.398 17.262 444.278 16.316 444.967 15.26C445.671 14.204 446.206 13.0527 446.573 11.806H444.703C444.336 11.806 444.043 11.6447 443.823 11.322C443.72 11.4393 443.566 11.5567 443.361 11.674C443.17 11.762 442.936 11.872 442.657 12.004C442.393 12.1213 442.107 12.246 441.799 12.378V17.702C441.799 18.7727 441.528 19.55 440.985 20.034C440.442 20.518 439.65 20.76 438.609 20.76ZM447.519 6.636H449.675C449.47 6.51867 449.323 6.35 449.235 6.13C449.176 5.954 449.074 5.69733 448.927 5.36C448.795 5.02267 448.678 4.73667 448.575 4.502C448.472 4.282 448.45 4.06933 448.509 3.864C448.568 3.644 448.692 3.468 448.883 3.336C448.487 3.35067 448.091 3.37267 447.695 3.402C447.314 3.43133 446.932 3.46067 446.551 3.49C446.756 3.578 446.918 3.74667 447.035 3.996C447.152 4.216 447.277 4.48 447.409 4.788C447.556 5.08133 447.658 5.316 447.717 5.492C447.922 5.94667 447.856 6.328 447.519 6.636ZM451.061 16.184C451.178 16.0667 451.288 15.9567 451.391 15.854C451.508 15.7513 451.618 15.6487 451.721 15.546C451.985 15.2527 452.073 15.0253 451.985 14.864C451.912 14.7027 451.692 14.622 451.325 14.622H449.455C449.704 14.9153 449.961 15.194 450.225 15.458C450.504 15.7073 450.782 15.9493 451.061 16.184ZM473.149 20.298C471.946 20.298 471 20.1733 470.311 19.924C469.622 19.6747 469.13 19.242 468.837 18.626C468.558 18.01 468.419 17.1667 468.419 16.096C468.419 15.0547 468.544 14.2333 468.793 13.632C469.057 13.0307 469.49 12.598 470.091 12.334C470.707 12.07 471.55 11.9233 472.621 11.894V9.012H467.803C467.436 9.012 467.15 8.902 466.945 8.682C466.74 8.44733 466.637 8.16867 466.637 7.846C466.637 7.52333 466.74 7.252 466.945 7.032C467.15 6.79733 467.436 6.68 467.803 6.68H472.621V4.062C471.99 4.12067 471.367 4.172 470.751 4.216C470.135 4.26 469.57 4.29667 469.057 4.326C468.646 4.34067 468.316 4.26 468.067 4.084C467.818 3.89333 467.678 3.60733 467.649 3.226C467.634 2.88867 467.737 2.61 467.957 2.39C468.192 2.17 468.492 2.05267 468.859 2.038C469.519 2.02333 470.252 1.98667 471.059 1.928C471.88 1.85467 472.709 1.774 473.545 1.686C474.381 1.58333 475.173 1.47333 475.921 1.356C476.669 1.23867 477.314 1.114 477.857 0.981999C478.268 0.893999 478.627 0.915999 478.935 1.048C479.243 1.16533 479.441 1.39267 479.529 1.73C479.602 2.05267 479.566 2.368 479.419 2.676C479.272 2.96933 479.008 3.15267 478.627 3.226C478.172 3.32867 477.652 3.43133 477.065 3.534C476.478 3.622 475.862 3.70267 475.217 3.776V6.68H480.101C480.468 6.68 480.754 6.79733 480.959 7.032C481.164 7.252 481.267 7.52333 481.267 7.846C481.267 8.16867 481.164 8.44733 480.959 8.682C480.754 8.902 480.468 9.012 480.101 9.012H475.217V11.894C476.288 11.9087 477.131 12.0553 477.747 12.334C478.363 12.598 478.803 13.0307 479.067 13.632C479.331 14.2333 479.463 15.0547 479.463 16.096C479.463 17.1667 479.316 18.01 479.023 18.626C478.744 19.242 478.26 19.6747 477.571 19.924C476.896 20.1733 475.958 20.298 474.755 20.298H473.149ZM462.105 20.122C461.768 19.9313 461.548 19.6453 461.445 19.264C461.357 18.8827 461.416 18.5307 461.621 18.208C461.9 17.7533 462.208 17.218 462.545 16.602C462.897 15.9713 463.234 15.3333 463.557 14.688C463.88 14.0427 464.136 13.4853 464.327 13.016C464.459 12.6787 464.694 12.444 465.031 12.312C465.368 12.1653 465.72 12.1727 466.087 12.334C466.424 12.4807 466.637 12.73 466.725 13.082C466.828 13.4193 466.82 13.7567 466.703 14.094C466.571 14.446 466.395 14.8567 466.175 15.326C465.97 15.7953 465.735 16.2867 465.471 16.8C465.222 17.2987 464.972 17.79 464.723 18.274C464.474 18.7433 464.254 19.154 464.063 19.506C463.872 19.8433 463.579 20.078 463.183 20.21C462.802 20.342 462.442 20.3127 462.105 20.122ZM473.149 17.988H474.755C475.312 17.988 475.745 17.944 476.053 17.856C476.361 17.7533 476.574 17.5627 476.691 17.284C476.823 17.0053 476.889 16.602 476.889 16.074C476.889 15.2967 476.742 14.7907 476.449 14.556C476.156 14.3067 475.591 14.182 474.755 14.182H473.149C472.298 14.182 471.726 14.3067 471.433 14.556C471.154 14.8053 471.015 15.304 471.015 16.052C471.015 16.5947 471.074 17.0053 471.191 17.284C471.308 17.5627 471.521 17.7533 471.829 17.856C472.152 17.944 472.592 17.988 473.149 17.988ZM465.097 4.986C464.892 4.83933 464.62 4.66333 464.283 4.458C463.96 4.25267 463.645 4.05467 463.337 3.864C463.029 3.65867 462.78 3.50467 462.589 3.402C462.281 3.24067 462.09 2.99867 462.017 2.676C461.958 2.33867 462.002 2.016 462.149 1.708C462.31 1.4 462.574 1.202 462.941 1.114C463.322 1.026 463.674 1.07 463.997 1.246C464.188 1.334 464.437 1.47333 464.745 1.664C465.068 1.85467 465.39 2.05267 465.713 2.258C466.05 2.44867 466.322 2.61733 466.527 2.764C466.835 2.96933 467.026 3.25533 467.099 3.622C467.187 3.974 467.128 4.31133 466.923 4.634C466.718 4.92733 466.432 5.11067 466.065 5.184C465.713 5.24267 465.39 5.17667 465.097 4.986ZM464.085 9.98C463.88 9.83333 463.616 9.65733 463.293 9.452C462.97 9.24667 462.648 9.04867 462.325 8.858C462.017 8.66733 461.768 8.52067 461.577 8.418C461.284 8.25667 461.1 8.00733 461.027 7.67C460.954 7.33267 460.998 7.01733 461.159 6.724C461.32 6.40133 461.584 6.20333 461.951 6.13C462.318 6.042 462.662 6.07867 462.985 6.24C463.176 6.34267 463.432 6.48933 463.755 6.68C464.078 6.856 464.4 7.04667 464.723 7.252C465.046 7.44267 465.31 7.61133 465.515 7.758C465.823 7.96333 466.014 8.24933 466.087 8.616C466.175 8.98267 466.116 9.32 465.911 9.628C465.706 9.936 465.42 10.1267 465.053 10.2C464.701 10.2587 464.378 10.1853 464.085 9.98ZM500.187 20.672C499.82 20.672 499.505 20.5693 499.241 20.364C498.977 20.1587 498.83 19.8653 498.801 19.484C498.786 19.1027 498.882 18.78 499.087 18.516C499.307 18.252 499.615 18.1127 500.011 18.098C500.495 18.0687 500.869 18.01 501.133 17.922C501.397 17.8193 501.595 17.636 501.727 17.372C501.859 17.108 501.962 16.712 502.035 16.184C502.152 15.4067 502.233 14.4607 502.277 13.346C502.336 12.2167 502.372 10.9333 502.387 9.496C502.402 8.85067 502.321 8.43267 502.145 8.242C501.969 8.03667 501.595 7.92667 501.023 7.912C500.95 10.8453 500.546 13.3313 499.813 15.37C499.094 17.4087 498.06 19.0807 496.711 20.386C496.447 20.6353 496.132 20.7747 495.765 20.804C495.398 20.8333 495.076 20.7087 494.797 20.43C494.592 20.21 494.489 19.9387 494.489 19.616C494.504 19.2933 494.628 19.0367 494.863 18.846C494.907 18.802 494.951 18.758 494.995 18.714C495.039 18.67 495.076 18.626 495.105 18.582C494.342 18.6993 493.44 18.8313 492.399 18.978C491.358 19.11 490.294 19.2273 489.209 19.33C488.124 19.4473 487.119 19.5427 486.195 19.616C485.843 19.6307 485.55 19.55 485.315 19.374C485.08 19.198 484.948 18.934 484.919 18.582C484.904 18.2887 484.985 18.032 485.161 17.812C485.352 17.5773 485.608 17.4527 485.931 17.438C486.459 17.4087 487.053 17.372 487.713 17.328C488.388 17.284 489.077 17.2327 489.781 17.174V15.986H486.085C485.806 15.986 485.594 15.8907 485.447 15.7C485.3 15.5093 485.227 15.2967 485.227 15.062C485.227 14.8273 485.3 14.622 485.447 14.446C485.594 14.2553 485.806 14.16 486.085 14.16H489.781V13.346H489.627C488.63 13.346 487.852 13.258 487.295 13.082C486.752 12.906 486.378 12.5833 486.173 12.114C485.968 11.63 485.865 10.948 485.865 10.068C485.865 9.17333 485.968 8.49133 486.173 8.022C486.378 7.538 486.752 7.208 487.295 7.032C487.852 6.856 488.63 6.768 489.627 6.768H489.781V6.064H485.689C485.41 6.064 485.19 5.96867 485.029 5.778C484.868 5.58733 484.787 5.36733 484.787 5.118C484.787 4.86867 484.868 4.656 485.029 4.48C485.19 4.28933 485.41 4.194 485.689 4.194H489.781V3.402C489.253 3.446 488.732 3.48267 488.219 3.512C487.72 3.52667 487.244 3.54133 486.789 3.556C486.07 3.57067 485.674 3.25533 485.601 2.61C485.586 2.346 485.667 2.11867 485.843 1.928C486.034 1.72267 486.298 1.61267 486.635 1.598C487.471 1.56867 488.351 1.52467 489.275 1.466C490.214 1.39267 491.123 1.30467 492.003 1.202C492.898 1.08467 493.69 0.952666 494.379 0.806C494.731 0.732666 495.032 0.754666 495.281 0.871999C495.545 0.989332 495.706 1.19467 495.765 1.488C495.912 2.192 495.655 2.61 494.995 2.742C494.584 2.81533 494.13 2.88867 493.631 2.962C493.132 3.03533 492.612 3.10867 492.069 3.182V4.194H496.139C496.432 4.194 496.652 4.28933 496.799 4.48C496.96 4.656 497.041 4.86867 497.041 5.118C497.041 5.17667 497.034 5.23533 497.019 5.294C497.019 5.35267 497.012 5.404 496.997 5.448H498.625V1.664C498.625 1.28267 498.742 0.989333 498.977 0.783998C499.212 0.563999 499.498 0.453999 499.835 0.453999C500.172 0.453999 500.451 0.563999 500.671 0.783998C500.906 0.989333 501.023 1.28267 501.023 1.664V5.448C501.918 5.448 502.644 5.55067 503.201 5.756C503.758 5.96133 504.169 6.33533 504.433 6.878C504.697 7.42067 504.822 8.21267 504.807 9.254C504.792 10.7207 504.756 12.0847 504.697 13.346C504.638 14.5927 504.558 15.6927 504.455 16.646C504.352 17.7313 504.132 18.56 503.795 19.132C503.458 19.7187 502.988 20.122 502.387 20.342C501.8 20.562 501.067 20.672 500.187 20.672ZM496.139 17.416C496.916 16.36 497.51 15.062 497.921 13.522C498.332 11.9673 498.566 10.0973 498.625 7.912H497.173C496.806 7.912 496.513 7.79467 496.293 7.56C496.073 7.31067 495.963 7.01733 495.963 6.68C495.963 6.43067 496.014 6.22533 496.117 6.064H492.069V6.768H492.201C493.213 6.768 493.983 6.856 494.511 7.032C495.054 7.208 495.428 7.538 495.633 8.022C495.838 8.49133 495.941 9.17333 495.941 10.068C495.941 10.948 495.838 11.63 495.633 12.114C495.428 12.5833 495.054 12.906 494.511 13.082C493.983 13.258 493.213 13.346 492.201 13.346H492.069V14.16H495.391C495.67 14.16 495.882 14.2553 496.029 14.446C496.176 14.622 496.249 14.8273 496.249 15.062C496.249 15.2967 496.176 15.5093 496.029 15.7C495.882 15.8907 495.67 15.986 495.391 15.986H492.069V16.976C492.656 16.9173 493.213 16.866 493.741 16.822C494.269 16.7633 494.731 16.712 495.127 16.668C495.406 16.6387 495.633 16.6973 495.809 16.844C495.985 16.976 496.095 17.1667 496.139 17.416ZM489.759 11.718H489.781V10.794H488.087C488.131 11.2193 488.263 11.4833 488.483 11.586C488.703 11.674 489.128 11.718 489.759 11.718ZM492.069 11.718C492.7 11.718 493.125 11.674 493.345 11.586C493.565 11.4833 493.697 11.2193 493.741 10.794H492.069V11.718ZM488.087 9.298H489.781V8.396H489.759C489.128 8.396 488.703 8.44 488.483 8.528C488.263 8.616 488.131 8.87267 488.087 9.298ZM492.069 9.298H493.741C493.697 8.87267 493.565 8.616 493.345 8.528C493.125 8.44 492.7 8.396 492.069 8.396V9.298ZM521.791 18.934C521.424 19.022 521.08 18.9707 520.757 18.78C520.434 18.5893 520.229 18.318 520.141 17.966C520.053 17.614 520.104 17.284 520.295 16.976C520.486 16.6533 520.757 16.448 521.109 16.36C522.737 15.9347 523.932 15.2453 524.695 14.292C525.472 13.3387 525.861 12.1287 525.861 10.662C525.861 9.738 525.656 8.90933 525.245 8.176C524.834 7.44267 524.248 6.84867 523.485 6.394C522.737 5.93933 521.835 5.66067 520.779 5.558C520.515 8.022 520.068 10.156 519.437 11.96C518.821 13.7493 518.088 15.1353 517.237 16.118C516.401 17.086 515.521 17.57 514.597 17.57C513.82 17.57 513.108 17.3427 512.463 16.888C511.818 16.4333 511.304 15.7807 510.923 14.93C510.556 14.0793 510.373 13.06 510.373 11.872C510.373 10.6547 510.6 9.518 511.055 8.462C511.524 7.39133 512.184 6.45267 513.035 5.646C513.886 4.83933 514.883 4.20867 516.027 3.754C517.186 3.29933 518.454 3.072 519.833 3.072C521.505 3.072 522.986 3.39467 524.277 4.04C525.582 4.67067 526.609 5.558 527.357 6.702C528.105 7.83133 528.479 9.15133 528.479 10.662C528.479 12.7887 527.907 14.5633 526.763 15.986C525.634 17.394 523.976 18.3767 521.791 18.934ZM514.619 14.864C514.883 14.864 515.184 14.644 515.521 14.204C515.873 13.7493 516.225 13.1113 516.577 12.29C516.929 11.4687 517.252 10.5007 517.545 9.386C517.838 8.25667 518.058 7.01 518.205 5.646C517.061 5.866 516.1 6.29133 515.323 6.922C514.546 7.538 513.959 8.27867 513.563 9.144C513.167 9.99467 512.962 10.8893 512.947 11.828C512.947 12.8253 513.101 13.5807 513.409 14.094C513.732 14.6073 514.135 14.864 514.619 14.864ZM535.145 12.092C534.764 12.092 534.434 11.96 534.155 11.696C533.891 11.4173 533.759 11.0873 533.759 10.706C533.759 10.3247 533.891 10.002 534.155 9.738C534.434 9.45933 534.764 9.32 535.145 9.32H552.173C552.554 9.32 552.877 9.45933 553.141 9.738C553.42 10.002 553.559 10.3247 553.559 10.706C553.559 11.0873 553.42 11.4173 553.141 11.696C552.877 11.96 552.554 12.092 552.173 12.092H535.145ZM559.059 17.372C558.692 17.4893 558.355 17.482 558.047 17.35C557.739 17.218 557.526 16.976 557.409 16.624C557.306 16.2867 557.321 15.9713 557.453 15.678C557.6 15.3847 557.856 15.1867 558.223 15.084C558.472 15.0107 558.758 14.9227 559.081 14.82C559.404 14.7173 559.734 14.6147 560.071 14.512V9.936H558.773C558.45 9.936 558.179 9.826 557.959 9.606C557.739 9.386 557.629 9.11467 557.629 8.792C557.629 8.484 557.739 8.22 557.959 8C558.179 7.78 558.45 7.67 558.773 7.67H560.071V3.93H558.531C558.223 3.93 557.959 3.82 557.739 3.6C557.534 3.38 557.431 3.116 557.431 2.808C557.431 2.51467 557.534 2.258 557.739 2.038C557.959 1.818 558.223 1.708 558.531 1.708H563.767C564.075 1.708 564.332 1.818 564.537 2.038C564.757 2.24333 564.874 2.5 564.889 2.808C564.977 2.104 565.263 1.60533 565.747 1.312C566.231 1.004 566.994 0.849999 568.035 0.849999H574.085C575.288 0.849999 576.116 1.05533 576.571 1.466C577.04 1.862 577.275 2.544 577.275 3.512C577.275 4.48 577.04 5.16933 576.571 5.58C576.116 5.976 575.288 6.174 574.085 6.174H568.035C566.832 6.174 565.996 5.976 565.527 5.58C565.072 5.16933 564.845 4.48 564.845 3.512C564.845 3.424 564.845 3.34333 564.845 3.27C564.845 3.19667 564.852 3.12333 564.867 3.05C564.808 3.29933 564.676 3.512 564.471 3.688C564.28 3.84933 564.046 3.93 563.767 3.93H562.535V7.67H563.569C563.76 7.67 563.943 7.72133 564.119 7.824C564.119 7.54533 564.214 7.31067 564.405 7.12C564.61 6.92933 564.845 6.834 565.109 6.834H577.011C577.29 6.834 577.524 6.92933 577.715 7.12C577.92 7.31067 578.023 7.54533 578.023 7.824C578.023 8.10267 577.92 8.33733 577.715 8.528C577.524 8.71867 577.29 8.814 577.011 8.814H565.109C564.948 8.814 564.808 8.78467 564.691 8.726V8.792C564.691 9.11467 564.581 9.386 564.361 9.606C564.141 9.826 563.877 9.936 563.569 9.936H562.535V13.72C562.74 13.6467 562.938 13.5807 563.129 13.522C563.334 13.4487 563.518 13.3827 563.679 13.324C564.031 13.2067 564.332 13.2067 564.581 13.324C564.845 13.4267 565.028 13.632 565.131 13.94C565.248 14.2333 565.256 14.5193 565.153 14.798C565.05 15.062 564.83 15.26 564.493 15.392C564.185 15.524 563.796 15.678 563.327 15.854C562.858 16.0153 562.359 16.1913 561.831 16.382C561.318 16.5727 560.812 16.756 560.313 16.932C559.829 17.108 559.411 17.2547 559.059 17.372ZM570.169 21.046C569.832 21.046 569.538 20.9287 569.289 20.694C569.04 20.4593 568.915 20.1587 568.915 19.792V16.36C568.138 16.976 567.294 17.5773 566.385 18.164C565.476 18.736 564.596 19.2127 563.745 19.594C563.422 19.7407 563.092 19.7847 562.755 19.726C562.432 19.6673 562.183 19.4767 562.007 19.154C561.86 18.8607 561.838 18.56 561.941 18.252C562.044 17.9293 562.278 17.68 562.645 17.504C563.173 17.2547 563.767 16.954 564.427 16.602C565.087 16.2353 565.747 15.854 566.407 15.458C567.067 15.0473 567.668 14.6587 568.211 14.292C567.258 14.2627 566.583 14.072 566.187 13.72C565.806 13.3533 565.615 12.7447 565.615 11.894C565.615 10.9847 565.828 10.3613 566.253 10.024C566.693 9.672 567.47 9.496 568.585 9.496H573.315C574.415 9.496 575.178 9.672 575.603 10.024C576.043 10.3613 576.263 10.9847 576.263 11.894C576.263 12.7887 576.043 13.412 575.603 13.764C575.178 14.116 574.415 14.292 573.315 14.292H572.193C572.457 14.5413 572.736 14.7907 573.029 15.04C573.322 15.2747 573.623 15.5167 573.931 15.766C574.166 15.5313 574.4 15.2967 574.635 15.062C574.87 14.8273 575.053 14.6367 575.185 14.49C575.405 14.2407 575.676 14.116 575.999 14.116C576.336 14.116 576.622 14.2333 576.857 14.468C577.136 14.732 577.253 15.0327 577.209 15.37C577.165 15.6927 577.033 15.9493 576.813 16.14C576.681 16.2427 576.52 16.382 576.329 16.558C576.153 16.734 575.962 16.9027 575.757 17.064C576.094 17.284 576.417 17.4893 576.725 17.68C577.048 17.8707 577.363 18.0467 577.671 18.208C577.994 18.384 578.192 18.6333 578.265 18.956C578.338 19.2787 578.287 19.5793 578.111 19.858C577.935 20.1367 577.671 20.3053 577.319 20.364C576.982 20.4227 576.659 20.3713 576.351 20.21C575.574 19.77 574.738 19.2053 573.843 18.516C572.963 17.8267 572.156 17.1007 571.423 16.338V19.792C571.423 20.1587 571.298 20.4593 571.049 20.694C570.814 20.9287 570.521 21.046 570.169 21.046ZM568.849 12.51H573.051C573.374 12.51 573.586 12.4733 573.689 12.4C573.806 12.312 573.865 12.1433 573.865 11.894C573.865 11.6447 573.806 11.4833 573.689 11.41C573.586 11.322 573.374 11.278 573.051 11.278H568.849C568.526 11.278 568.306 11.322 568.189 11.41C568.072 11.4833 568.013 11.6447 568.013 11.894C568.013 12.1433 568.072 12.312 568.189 12.4C568.306 12.4733 568.526 12.51 568.849 12.51ZM570.367 4.326H571.797V2.72H570.367V4.326ZM567.925 4.326H568.431V2.72H567.925C567.602 2.72 567.368 2.77867 567.221 2.896C567.089 2.99867 567.023 3.204 567.023 3.512C567.023 3.82 567.089 4.03267 567.221 4.15C567.368 4.26733 567.602 4.326 567.925 4.326ZM573.667 4.326H574.173C574.51 4.326 574.745 4.26733 574.877 4.15C575.009 4.03267 575.075 3.82 575.075 3.512C575.075 3.204 575.009 2.99867 574.877 2.896C574.745 2.77867 574.51 2.72 574.173 2.72H573.667V4.326ZM597.515 19.638C595.154 19.9607 593.1 19.99 591.355 19.726C589.61 19.4767 588.26 18.9193 587.307 18.054C586.368 17.1887 585.899 16.0153 585.899 14.534C585.899 13.2433 586.222 12.1433 586.867 11.234C587.527 10.31 588.436 9.51067 589.595 8.836C589.492 8.264 589.346 7.61133 589.155 6.878C588.964 6.14467 588.766 5.41867 588.561 4.7C588.356 3.96667 588.172 3.35067 588.011 2.852C587.908 2.51467 587.945 2.18467 588.121 1.862C588.312 1.53933 588.576 1.32667 588.913 1.224C589.28 1.12133 589.617 1.16533 589.925 1.356C590.248 1.532 590.46 1.796 590.563 2.148C590.812 2.99867 591.054 3.92267 591.289 4.92C591.538 5.90267 591.744 6.84867 591.905 7.758C592.609 7.47933 593.357 7.23 594.149 7.01C594.941 6.77533 595.762 6.56267 596.613 6.372C596.965 6.284 597.295 6.33533 597.603 6.526C597.911 6.71667 598.102 6.988 598.175 7.34C598.248 7.70667 598.19 8.044 597.999 8.352C597.808 8.64533 597.537 8.82867 597.185 8.902C595.352 9.28333 593.863 9.694 592.719 10.134C591.575 10.5593 590.695 11.014 590.079 11.498C589.478 11.9673 589.06 12.4587 588.825 12.972C588.605 13.4707 588.495 13.9913 588.495 14.534C588.495 15.6927 589.199 16.514 590.607 16.998C592.015 17.4673 594.208 17.482 597.185 17.042C597.552 16.9833 597.874 17.0713 598.153 17.306C598.446 17.526 598.615 17.812 598.659 18.164C598.703 18.5307 598.615 18.8533 598.395 19.132C598.175 19.4253 597.882 19.594 597.515 19.638ZM616.941 19.946C615.181 19.946 613.795 19.5133 612.783 18.648C611.786 17.768 611.287 16.36 611.287 14.424V2.698C611.287 2.33133 611.412 2.02333 611.661 1.774C611.925 1.51 612.24 1.378 612.607 1.378C612.974 1.378 613.282 1.51 613.531 1.774C613.795 2.02333 613.927 2.33133 613.927 2.698V14.424C613.927 15.5093 614.169 16.2647 614.653 16.69C615.152 17.1153 615.914 17.328 616.941 17.328C617.85 17.328 618.701 17.086 619.493 16.602C620.3 16.118 620.952 15.3407 621.451 14.27C621.612 13.9327 621.869 13.7053 622.221 13.588C622.573 13.4707 622.91 13.4927 623.233 13.654C623.57 13.8007 623.79 14.05 623.893 14.402C624.01 14.754 623.996 15.0987 623.849 15.436C623.204 16.888 622.258 18.0027 621.011 18.78C619.779 19.5573 618.422 19.946 616.941 19.946ZM646.157 19.704C644.426 19.4547 642.996 18.956 641.867 18.208C640.738 17.4453 639.894 16.5287 639.337 15.458C638.794 14.3873 638.523 13.2727 638.523 12.114C638.523 10.9407 638.75 9.848 639.205 8.836C639.674 7.80933 640.342 6.922 641.207 6.174C640.327 6.306 639.388 6.46 638.391 6.636C637.394 6.79733 636.426 6.966 635.487 7.142C634.548 7.30333 633.727 7.45 633.023 7.582C632.671 7.64067 632.348 7.56 632.055 7.34C631.762 7.12 631.586 6.834 631.527 6.482C631.468 6.11533 631.549 5.79267 631.769 5.514C631.989 5.22067 632.282 5.04467 632.649 4.986C633.118 4.91267 633.72 4.81733 634.453 4.7C635.186 4.568 636.008 4.42867 636.917 4.282C637.826 4.13533 638.758 3.98133 639.711 3.82C640.664 3.65867 641.596 3.50467 642.505 3.358C643.429 3.19667 644.272 3.05 645.035 2.918C645.798 2.786 646.421 2.676 646.905 2.588C647.242 2.52933 647.558 2.60267 647.851 2.808C648.144 3.01333 648.328 3.28467 648.401 3.622C648.474 3.974 648.408 4.304 648.203 4.612C648.012 4.92 647.741 5.10333 647.389 5.162C646.318 5.30867 645.387 5.61667 644.595 6.086C643.818 6.54067 643.172 7.098 642.659 7.758C642.146 8.40333 641.764 9.09267 641.515 9.826C641.266 10.5593 641.141 11.2707 641.141 11.96C641.141 13.3827 641.625 14.534 642.593 15.414C643.561 16.2793 644.874 16.8367 646.531 17.086C646.898 17.1447 647.191 17.3207 647.411 17.614C647.631 17.9073 647.712 18.23 647.653 18.582C647.594 18.9487 647.418 19.242 647.125 19.462C646.846 19.682 646.524 19.7627 646.157 19.704ZM656.233 9.452C655.866 9.65733 655.5 9.72333 655.133 9.65C654.781 9.562 654.502 9.35667 654.297 9.034C654.092 8.69667 654.048 8.35933 654.165 8.022C654.282 7.67 654.524 7.39867 654.891 7.208C655.478 6.88533 656.108 6.504 656.783 6.064C657.472 5.60933 658.154 5.13267 658.829 4.634C659.518 4.12067 660.171 3.60733 660.787 3.094C661.418 2.58067 661.96 2.104 662.415 1.664C663.222 0.886666 663.962 0.505333 664.637 0.519999C665.326 0.519999 666.089 0.893999 666.925 1.642C667.394 2.05267 667.93 2.49267 668.531 2.962C669.132 3.43133 669.763 3.908 670.423 4.392C671.098 4.876 671.772 5.33067 672.447 5.756C673.122 6.16667 673.752 6.51867 674.339 6.812C674.72 7.00267 674.984 7.28133 675.131 7.648C675.278 8 675.248 8.35933 675.043 8.726C674.838 9.13667 674.53 9.39333 674.119 9.496C673.723 9.59867 673.305 9.52533 672.865 9.276C672.352 8.98267 671.765 8.616 671.105 8.176C670.445 7.736 669.763 7.252 669.059 6.724C668.37 6.196 667.71 5.668 667.079 5.14C666.448 4.59733 665.898 4.09133 665.429 3.622C665.18 3.37267 664.945 3.248 664.725 3.248C664.52 3.248 664.292 3.37267 664.043 3.622C663.603 4.062 663.053 4.55333 662.393 5.096C661.748 5.63867 661.058 6.18867 660.325 6.746C659.592 7.28867 658.866 7.802 658.147 8.286C657.443 8.75533 656.805 9.144 656.233 9.452ZM665.187 20.804C664.82 20.5987 664.586 20.3053 664.483 19.924C664.38 19.5573 664.446 19.2127 664.681 18.89C664.974 18.4793 665.29 18.0173 665.627 17.504C665.964 16.976 666.28 16.4553 666.573 15.942C666.866 15.4287 667.094 14.9887 667.255 14.622C667.548 14.006 667.358 13.698 666.683 13.698H658.917C658.55 13.698 658.25 13.5807 658.015 13.346C657.795 13.0967 657.685 12.8033 657.685 12.466C657.685 12.1287 657.795 11.8353 658.015 11.586C658.25 11.3367 658.55 11.212 658.917 11.212H668.333C669.316 11.212 670.012 11.5127 670.423 12.114C670.848 12.7007 670.885 13.4487 670.533 14.358C670.137 15.3407 669.646 16.3453 669.059 17.372C668.487 18.3987 667.893 19.3667 667.277 20.276C667.042 20.628 666.72 20.8553 666.309 20.958C665.913 21.0607 665.539 21.0093 665.187 20.804ZM660.743 9.386C660.376 9.386 660.083 9.26867 659.863 9.034C659.643 8.78467 659.533 8.49867 659.533 8.176C659.533 7.83867 659.643 7.56 659.863 7.34C660.083 7.10533 660.376 6.988 660.743 6.988H668.751C669.118 6.988 669.404 7.10533 669.609 7.34C669.829 7.56 669.939 7.83867 669.939 8.176C669.939 8.49867 669.829 8.78467 669.609 9.034C669.404 9.26867 669.118 9.386 668.751 9.386H660.743ZM690.047 20.98C689.68 20.98 689.358 20.8553 689.079 20.606C688.815 20.3567 688.683 20.0267 688.683 19.616V15.964H679.663C679.34 15.964 679.069 15.854 678.849 15.634C678.629 15.414 678.519 15.1427 678.519 14.82C678.519 14.4973 678.629 14.226 678.849 14.006C679.069 13.786 679.34 13.676 679.663 13.676H682.523V11.828C682.523 10.9187 682.648 10.2 682.897 9.672C683.146 9.144 683.572 8.77 684.173 8.55C684.789 8.31533 685.64 8.198 686.725 8.198H688.683V5.69H684.173C683.748 6.32067 683.3 6.92933 682.831 7.516C682.362 8.088 681.892 8.616 681.423 9.1C681.144 9.37867 680.814 9.54 680.433 9.584C680.066 9.628 679.736 9.518 679.443 9.254C679.164 9.01933 679.018 8.73333 679.003 8.396C678.988 8.044 679.12 7.72867 679.399 7.45C680 6.86333 680.58 6.196 681.137 5.448C681.709 4.7 682.237 3.93733 682.721 3.16C683.205 2.38267 683.601 1.664 683.909 1.004C684.07 0.681333 684.32 0.461332 684.657 0.343999C685.009 0.226665 685.339 0.248665 685.647 0.409999C685.97 0.556666 686.19 0.783999 686.307 1.092C686.424 1.38533 686.402 1.69333 686.241 2.016C686.05 2.456 685.83 2.896 685.581 3.336H696.955C697.278 3.336 697.549 3.45333 697.769 3.688C698.004 3.908 698.121 4.17933 698.121 4.502C698.121 4.82467 698.004 5.10333 697.769 5.338C697.549 5.57267 697.278 5.69 696.955 5.69H691.411V8.198H695.569C695.892 8.198 696.163 8.31533 696.383 8.55C696.603 8.77 696.713 9.04133 696.713 9.364C696.713 9.68667 696.603 9.96533 696.383 10.2C696.163 10.42 695.892 10.53 695.569 10.53H691.411V13.676H697.923C698.246 13.676 698.517 13.786 698.737 14.006C698.957 14.226 699.067 14.4973 699.067 14.82C699.067 15.1427 698.957 15.414 698.737 15.634C698.517 15.854 698.246 15.964 697.923 15.964H691.411V19.616C691.411 20.0267 691.279 20.3567 691.015 20.606C690.751 20.8553 690.428 20.98 690.047 20.98ZM685.229 13.676H688.683V10.53H686.725C686.109 10.53 685.706 10.6107 685.515 10.772C685.324 10.9187 685.229 11.2707 685.229 11.828V13.676ZM713.653 19.858C712.48 19.858 711.534 19.572 710.815 19C710.111 18.4133 709.759 17.5773 709.759 16.492C709.759 15.4507 710.111 14.6293 710.815 14.028C711.534 13.412 712.516 13.104 713.763 13.104C714.144 13.104 714.533 13.126 714.929 13.17C714.914 12.4807 714.892 11.7327 714.863 10.926C714.848 10.1047 714.826 9.26867 714.797 8.418C714.02 8.462 713.264 8.49133 712.531 8.506C711.812 8.52067 711.189 8.52067 710.661 8.506C710.294 8.49133 709.986 8.35933 709.737 8.11C709.502 7.846 709.392 7.53067 709.407 7.164C709.436 6.812 709.576 6.51867 709.825 6.284C710.089 6.03467 710.397 5.91733 710.749 5.932C711.262 5.94667 711.864 5.954 712.553 5.954C713.257 5.93933 713.99 5.91 714.753 5.866C714.738 5.30867 714.731 4.77333 714.731 4.26C714.731 3.74667 714.731 3.26267 714.731 2.808C714.731 2.44133 714.856 2.13333 715.105 1.884C715.354 1.62 715.662 1.488 716.029 1.488C716.41 1.488 716.726 1.62 716.975 1.884C717.224 2.13333 717.349 2.44133 717.349 2.808C717.349 3.26267 717.349 3.732 717.349 4.216C717.364 4.7 717.371 5.19133 717.371 5.69C718.016 5.63133 718.603 5.57267 719.131 5.514C719.674 5.45533 720.128 5.39667 720.495 5.338C720.847 5.26467 721.17 5.338 721.463 5.558C721.756 5.76333 721.932 6.042 721.991 6.394C722.05 6.746 721.969 7.06867 721.749 7.362C721.544 7.65533 721.265 7.824 720.913 7.868C720.502 7.92667 719.989 7.99267 719.373 8.066C718.772 8.12467 718.119 8.18333 717.415 8.242C717.444 9.26867 717.474 10.2587 717.503 11.212C717.532 12.1653 717.554 13.0087 717.569 13.742C718.376 14.006 719.131 14.3213 719.835 14.688C720.554 15.0547 721.177 15.436 721.705 15.832C721.998 16.052 722.174 16.3453 722.233 16.712C722.292 17.064 722.218 17.3867 722.013 17.68C721.808 17.9733 721.522 18.1567 721.155 18.23C720.803 18.3033 720.48 18.23 720.187 18.01C719.82 17.7313 719.417 17.46 718.977 17.196C718.537 16.932 718.082 16.6973 717.613 16.492C717.466 18.736 716.146 19.858 713.653 19.858ZM706.327 19.88C705.96 19.9387 705.63 19.8653 705.337 19.66C705.044 19.4547 704.86 19.176 704.787 18.824C704.699 18.34 704.633 17.68 704.589 16.844C704.545 16.008 704.516 15.0693 704.501 14.028C704.486 12.9867 704.486 11.9087 704.501 10.794C704.53 9.66467 704.574 8.572 704.633 7.516C704.692 6.44533 704.765 5.47733 704.853 4.612C704.956 3.732 705.073 3.02067 705.205 2.478C705.293 2.126 705.491 1.85467 705.799 1.664C706.107 1.47333 706.437 1.422 706.789 1.51C707.141 1.598 707.412 1.796 707.603 2.104C707.794 2.412 707.845 2.742 707.757 3.094C707.625 3.63667 707.515 4.31867 707.427 5.14C707.339 5.96133 707.266 6.86333 707.207 7.846C707.148 8.814 707.104 9.81133 707.075 10.838C707.06 11.8647 707.06 12.862 707.075 13.83C707.09 14.7833 707.119 15.656 707.163 16.448C707.222 17.2253 707.295 17.8633 707.383 18.362C707.456 18.714 707.383 19.0367 707.163 19.33C706.958 19.6233 706.679 19.8067 706.327 19.88ZM713.653 17.372C714.562 17.372 715.017 16.9393 715.017 16.074C715.017 16.03 715.01 15.9713 714.995 15.898C714.995 15.8247 714.995 15.744 714.995 15.656C714.555 15.568 714.108 15.524 713.653 15.524C713.198 15.524 712.861 15.612 712.641 15.788C712.436 15.964 712.333 16.1913 712.333 16.47C712.333 16.7487 712.436 16.9687 712.641 17.13C712.846 17.2913 713.184 17.372 713.653 17.372ZM733.365 19.308C732.28 19.308 731.268 19.1247 730.329 18.758C729.39 18.3767 728.584 17.746 727.909 16.866C727.66 16.514 727.572 16.1913 727.645 15.898C727.733 15.59 727.953 15.3407 728.305 15.15C728.642 14.9447 728.95 14.886 729.229 14.974C729.508 15.0473 729.786 15.238 730.065 15.546C730.461 15.9713 730.93 16.3013 731.473 16.536C732.03 16.7707 732.69 16.888 733.453 16.888C734.48 16.888 735.198 16.7047 735.609 16.338C736.034 15.9567 736.247 15.4433 736.247 14.798C736.247 14.3873 736.152 14.0353 735.961 13.742C735.785 13.4487 735.404 13.1773 734.817 12.928C734.245 12.664 733.358 12.4 732.155 12.136C730.732 11.7987 729.676 11.2633 728.987 10.53C728.312 9.79667 727.975 8.86533 727.975 7.736C727.975 6.84133 728.188 6.05667 728.613 5.382C729.053 4.69267 729.662 4.15733 730.439 3.776C731.231 3.39467 732.155 3.204 733.211 3.204C734.311 3.204 735.272 3.39467 736.093 3.776C736.914 4.15733 737.604 4.64867 738.161 5.25C738.44 5.558 738.55 5.866 738.491 6.174C738.432 6.482 738.242 6.76067 737.919 7.01C737.596 7.274 737.288 7.37667 736.995 7.318C736.702 7.25933 736.408 7.09067 736.115 6.812C735.748 6.47467 735.33 6.196 734.861 5.976C734.392 5.756 733.834 5.646 733.189 5.646C732.426 5.646 731.803 5.81467 731.319 6.152C730.85 6.47467 730.615 6.966 730.615 7.626C730.615 7.91933 730.681 8.20533 730.813 8.484C730.96 8.748 731.268 9.00467 731.737 9.254C732.221 9.50333 732.962 9.74533 733.959 9.98C735.719 10.376 736.988 10.97 737.765 11.762C738.542 12.554 738.931 13.5513 738.931 14.754C738.931 16.2207 738.418 17.35 737.391 18.142C736.379 18.9193 735.037 19.308 733.365 19.308ZM744.982 19C744.146 19 743.728 18.5673 743.728 17.702V4.898C743.728 4.03267 744.146 3.6 744.982 3.6H745.268C745.928 3.6 746.448 3.886 746.83 4.458L753.518 14.534V4.898C753.518 4.47267 753.628 4.15 753.848 3.93C754.082 3.71 754.405 3.6 754.816 3.6C755.666 3.6 756.092 4.03267 756.092 4.898V17.702C756.092 18.5673 755.688 19 754.882 19H754.662C753.987 19 753.466 18.714 753.1 18.142L746.258 7.758V17.702C746.258 18.5673 745.832 19 744.982 19ZM766.962 19.308C765.877 19.308 764.865 19.1247 763.926 18.758C762.988 18.3767 762.181 17.746 761.506 16.866C761.257 16.514 761.169 16.1913 761.242 15.898C761.33 15.59 761.55 15.3407 761.902 15.15C762.24 14.9447 762.548 14.886 762.826 14.974C763.105 15.0473 763.384 15.238 763.662 15.546C764.058 15.9713 764.528 16.3013 765.07 16.536C765.628 16.7707 766.288 16.888 767.05 16.888C768.077 16.888 768.796 16.7047 769.206 16.338C769.632 15.9567 769.844 15.4433 769.844 14.798C769.844 14.3873 769.749 14.0353 769.558 13.742C769.382 13.4487 769.001 13.1773 768.414 12.928C767.842 12.664 766.955 12.4 765.752 12.136C764.33 11.7987 763.274 11.2633 762.584 10.53C761.91 9.79667 761.572 8.86533 761.572 7.736C761.572 6.84133 761.785 6.05667 762.21 5.382C762.65 4.69267 763.259 4.15733 764.036 3.776C764.828 3.39467 765.752 3.204 766.808 3.204C767.908 3.204 768.869 3.39467 769.69 3.776C770.512 4.15733 771.201 4.64867 771.758 5.25C772.037 5.558 772.147 5.866 772.088 6.174C772.03 6.482 771.839 6.76067 771.516 7.01C771.194 7.274 770.886 7.37667 770.592 7.318C770.299 7.25933 770.006 7.09067 769.712 6.812C769.346 6.47467 768.928 6.196 768.458 5.976C767.989 5.756 767.432 5.646 766.786 5.646C766.024 5.646 765.4 5.81467 764.916 6.152C764.447 6.47467 764.212 6.966 764.212 7.626C764.212 7.91933 764.278 8.20533 764.41 8.484C764.557 8.748 764.865 9.00467 765.334 9.254C765.818 9.50333 766.559 9.74533 767.556 9.98C769.316 10.376 770.585 10.97 771.362 11.762C772.14 12.554 772.528 13.5513 772.528 14.754C772.528 16.2207 772.015 17.35 770.988 18.142C769.976 18.9193 768.634 19.308 766.962 19.308ZM778.183 20.012C777.816 20.012 777.53 19.8947 777.325 19.66C777.12 19.44 777.017 19.1687 777.017 18.846C777.017 18.5233 777.12 18.252 777.325 18.032C777.53 17.7973 777.816 17.68 778.183 17.68H780.603V11.234C780.603 10.838 780.728 10.5227 780.977 10.288C781.226 10.0387 781.534 9.914 781.901 9.914C782.268 9.914 782.576 10.0387 782.825 10.288C783.089 10.5227 783.221 10.838 783.221 11.234V17.68H785.861V7.428C785.861 7.032 785.986 6.71667 786.235 6.482C786.499 6.23267 786.814 6.108 787.181 6.108C787.548 6.108 787.856 6.23267 788.105 6.482C788.369 6.71667 788.501 7.032 788.501 7.428V11.102H792.725C793.106 11.102 793.4 11.2193 793.605 11.454C793.825 11.6887 793.935 11.9747 793.935 12.312C793.935 12.6493 793.825 12.9353 793.605 13.17C793.4 13.4047 793.106 13.522 792.725 13.522H788.501V17.68H795.321C795.673 17.68 795.952 17.7973 796.157 18.032C796.377 18.252 796.487 18.5233 796.487 18.846C796.487 19.1687 796.377 19.44 796.157 19.66C795.952 19.8947 795.673 20.012 795.321 20.012H778.183ZM778.249 9.87C777.882 10.0753 777.516 10.1413 777.149 10.068C776.797 9.99467 776.518 9.78933 776.313 9.452C776.108 9.11467 776.056 8.78467 776.159 8.462C776.276 8.12467 776.518 7.85333 776.885 7.648C777.75 7.14933 778.645 6.57 779.569 5.91C780.508 5.25 781.402 4.568 782.253 3.864C783.118 3.16 783.874 2.5 784.519 1.884C785.296 1.136 786.037 0.761999 786.741 0.761999C787.46 0.747332 788.222 1.10667 789.029 1.84C789.484 2.26533 790.019 2.72733 790.635 3.226C791.251 3.71 791.904 4.20133 792.593 4.7C793.282 5.184 793.972 5.646 794.661 6.086C795.35 6.526 795.996 6.91467 796.597 7.252C796.964 7.45733 797.206 7.74333 797.323 8.11C797.455 8.462 797.433 8.814 797.257 9.166C797.066 9.562 796.766 9.81133 796.355 9.914C795.959 10.0167 795.548 9.95067 795.123 9.716C794.536 9.37867 793.898 8.968 793.209 8.484C792.52 8 791.823 7.494 791.119 6.966C790.415 6.42333 789.748 5.888 789.117 5.36C788.501 4.81733 787.958 4.31867 787.489 3.864C787.254 3.61467 787.049 3.48267 786.873 3.468C786.697 3.45333 786.484 3.57067 786.235 3.82C785.751 4.27467 785.172 4.78067 784.497 5.338C783.837 5.88067 783.14 6.438 782.407 7.01C781.674 7.582 780.948 8.11733 780.229 8.616C779.51 9.11467 778.85 9.53267 778.249 9.87ZM809.159 16.14C807.824 16.14 806.878 15.8833 806.321 15.37C805.764 14.8567 805.485 13.9327 805.485 12.598V9.034C805.485 7.714 805.764 6.79733 806.321 6.284C806.878 5.77067 807.824 5.514 809.159 5.514H809.621V3.644H801.943C801.606 3.644 801.334 3.534 801.129 3.314C800.924 3.094 800.821 2.83 800.821 2.522C800.821 2.214 800.924 1.95 801.129 1.73C801.334 1.51 801.606 1.4 801.943 1.4H820.071C820.408 1.4 820.672 1.51 820.863 1.73C821.068 1.95 821.171 2.214 821.171 2.522C821.171 2.83 821.068 3.094 820.863 3.314C820.672 3.534 820.408 3.644 820.071 3.644H812.085V5.514H812.657C814.006 5.514 814.952 5.77067 815.495 6.284C816.038 6.79733 816.309 7.714 816.309 9.034V12.598C816.309 13.9327 816.038 14.8567 815.495 15.37C814.952 15.8833 814.006 16.14 812.657 16.14H809.159ZM807.817 19.814C806.306 19.814 805.096 19.6673 804.187 19.374C803.292 19.0953 802.647 18.5893 802.251 17.856C801.87 17.1227 801.679 16.0887 801.679 14.754V6.812C801.679 6.43067 801.796 6.13 802.031 5.91C802.28 5.67533 802.581 5.558 802.933 5.558C803.27 5.558 803.556 5.67533 803.791 5.91C804.04 6.13 804.165 6.43067 804.165 6.812V14.468C804.165 15.3187 804.268 15.964 804.473 16.404C804.678 16.8293 805.045 17.1153 805.573 17.262C806.101 17.4087 806.834 17.482 807.773 17.482H814.087C815.04 17.482 815.774 17.4087 816.287 17.262C816.815 17.1153 817.182 16.8293 817.387 16.404C817.592 15.964 817.695 15.3187 817.695 14.468V6.812C817.695 6.43067 817.812 6.13 818.047 5.91C818.296 5.67533 818.59 5.558 818.927 5.558C819.279 5.558 819.572 5.67533 819.807 5.91C820.056 6.13 820.181 6.43067 820.181 6.812V14.754C820.181 16.0887 819.983 17.1227 819.587 17.856C819.206 18.5893 818.568 19.0953 817.673 19.374C816.778 19.6673 815.568 19.814 814.043 19.814H807.817ZM812.085 14.028H812.217C812.936 14.028 813.412 13.9327 813.647 13.742C813.882 13.5367 813.999 13.0967 813.999 12.422V11.762H812.085V14.028ZM809.577 14.028H809.621V11.762H807.795V12.422C807.795 13.0967 807.912 13.5367 808.147 13.742C808.382 13.9327 808.858 14.028 809.577 14.028ZM812.085 9.694H813.999V9.232C813.999 8.54267 813.882 8.10267 813.647 7.912C813.412 7.70667 812.936 7.604 812.217 7.604H812.085V9.694ZM807.795 9.694H809.621V7.604H809.577C808.858 7.604 808.382 7.70667 808.147 7.912C807.912 8.10267 807.795 8.54267 807.795 9.232V9.694ZM840.003 19.99C838.038 20.2687 836.38 20.3713 835.031 20.298C833.682 20.2393 832.596 20.0413 831.775 19.704C830.968 19.3667 830.382 18.9193 830.015 18.362C829.648 17.79 829.465 17.1447 829.465 16.426C829.465 15.326 829.905 14.2993 830.785 13.346C831.68 12.3927 832.97 11.5567 834.657 10.838C834.422 10.5447 834.136 10.3467 833.799 10.244C833.066 10.024 832.34 10.1047 831.621 10.486C830.917 10.8673 830.228 11.4247 829.553 12.158C829.304 12.422 828.974 12.5687 828.563 12.598C828.167 12.6127 827.844 12.488 827.595 12.224C827.36 11.9453 827.25 11.6227 827.265 11.256C827.294 10.8893 827.448 10.5887 827.727 10.354C828.446 9.738 829.076 9.07067 829.619 8.352C830.176 7.63333 830.646 6.89267 831.027 6.13C830.396 6.14467 829.802 6.15933 829.245 6.174C828.702 6.174 828.233 6.16667 827.837 6.152C827.47 6.152 827.162 6.02733 826.913 5.778C826.664 5.514 826.539 5.19867 826.539 4.832C826.554 4.46533 826.693 4.16467 826.957 3.93C827.221 3.69533 827.536 3.58533 827.903 3.6C828.416 3.61467 829.032 3.622 829.751 3.622C830.484 3.60733 831.247 3.59267 832.039 3.578C832.112 3.29933 832.178 3.028 832.237 2.764C832.296 2.5 832.347 2.236 832.391 1.972C832.45 1.60533 832.611 1.312 832.875 1.092C833.139 0.857333 833.454 0.761999 833.821 0.806C834.188 0.849999 834.481 1.01133 834.701 1.29C834.921 1.56867 835.009 1.89133 834.965 2.258C834.95 2.44867 834.921 2.64667 834.877 2.852C834.833 3.05733 834.782 3.26267 834.723 3.468C835.28 3.43867 835.801 3.40933 836.285 3.38C836.769 3.336 837.202 3.28467 837.583 3.226C837.95 3.182 838.272 3.27 838.551 3.49C838.844 3.69533 839.013 3.98133 839.057 4.348C839.101 4.71467 839.006 5.03733 838.771 5.316C838.551 5.59467 838.265 5.74867 837.913 5.778C837.37 5.83667 836.747 5.888 836.043 5.932C835.339 5.976 834.606 6.01267 833.843 6.042C833.52 6.76067 833.168 7.43533 832.787 8.066C833.139 7.99267 833.476 7.97067 833.799 8C834.122 8.01467 834.43 8.066 834.723 8.154C835.163 8.27133 835.588 8.47667 835.999 8.77C836.424 9.04867 836.798 9.44467 837.121 9.958C837.84 9.75267 838.602 9.562 839.409 9.386C840.23 9.21 841.096 9.056 842.005 8.924C842.357 8.86533 842.68 8.946 842.973 9.166C843.266 9.37133 843.435 9.65733 843.479 10.024C843.538 10.3907 843.457 10.7133 843.237 10.992C843.017 11.2707 842.724 11.4393 842.357 11.498C841.506 11.6007 840.722 11.7253 840.003 11.872C839.284 12.004 838.617 12.1507 838.001 12.312C838.074 12.708 838.133 13.1407 838.177 13.61C838.221 14.0793 838.243 14.5853 838.243 15.128C838.243 15.4947 838.111 15.81 837.847 16.074C837.598 16.3233 837.29 16.448 836.923 16.448C836.556 16.448 836.248 16.3233 835.999 16.074C835.75 15.81 835.625 15.4947 835.625 15.128C835.625 14.38 835.581 13.7127 835.493 13.126C834.29 13.6247 833.418 14.16 832.875 14.732C832.347 15.2893 832.083 15.832 832.083 16.36C832.083 16.756 832.318 17.0787 832.787 17.328C833.256 17.5773 834.041 17.7167 835.141 17.746C836.241 17.7753 837.744 17.6653 839.651 17.416C840.003 17.372 840.326 17.46 840.619 17.68C840.912 17.8853 841.081 18.1713 841.125 18.538C841.169 18.89 841.081 19.2053 840.861 19.484C840.641 19.7627 840.355 19.9313 840.003 19.99ZM851.157 20.826C850.746 20.914 850.372 20.892 850.035 20.76C849.712 20.628 849.492 20.3567 849.375 19.946C849.272 19.5647 849.316 19.2273 849.507 18.934C849.712 18.626 850.02 18.4427 850.431 18.384C851.912 18.12 853.174 17.724 854.215 17.196C855.271 16.6533 856.107 15.9567 856.723 15.106H850.431C850.138 15.106 849.881 15.0033 849.661 14.798C849.456 14.578 849.353 14.3213 849.353 14.028C849.353 13.72 849.456 13.4633 849.661 13.258C849.881 13.038 850.138 12.928 850.431 12.928H857.713C857.772 12.752 857.816 12.5687 857.845 12.378C857.889 12.1727 857.918 11.9747 857.933 11.784H853.225C852.932 11.784 852.675 11.6813 852.455 11.476C852.25 11.256 852.147 10.9993 852.147 10.706C852.147 10.4127 852.25 10.1633 852.455 9.958C852.675 9.738 852.932 9.628 853.225 9.628H857.999V8.484H853.247C852.998 8.484 852.77 8.40333 852.565 8.242C852.374 8.08067 852.25 7.88267 852.191 7.648C851.971 7.956 851.626 8.11 851.157 8.11C850.805 8.11 850.504 8 850.255 7.78C850.006 7.56 849.881 7.25933 849.881 6.878V5.91C849.881 4.766 850.152 3.952 850.695 3.468C851.252 2.984 852.198 2.742 853.533 2.742H857.889V1.686C857.889 1.30467 858.028 0.981999 858.307 0.717999C858.586 0.453999 858.923 0.321999 859.319 0.321999C859.715 0.321999 860.052 0.453999 860.331 0.717999C860.61 0.981999 860.749 1.30467 860.749 1.686V2.742H865.193C866.528 2.742 867.466 2.984 868.009 3.468C868.566 3.952 868.845 4.766 868.845 5.91V6.878C868.845 7.25933 868.72 7.56 868.471 7.78C868.222 8 867.921 8.11 867.569 8.11C867.129 8.11 866.792 7.97067 866.557 7.692C866.498 7.912 866.374 8.10267 866.183 8.264C865.992 8.41067 865.772 8.484 865.523 8.484H860.639V9.628H865.523C865.816 9.628 866.066 9.738 866.271 9.958C866.476 10.1633 866.579 10.4127 866.579 10.706C866.579 10.9993 866.476 11.256 866.271 11.476C866.066 11.6813 865.816 11.784 865.523 11.784H860.595C860.58 11.9747 860.558 12.1653 860.529 12.356C860.5 12.5467 860.463 12.7373 860.419 12.928H868.339C868.632 12.928 868.882 13.038 869.087 13.258C869.307 13.4633 869.417 13.72 869.417 14.028C869.417 14.3213 869.307 14.578 869.087 14.798C868.882 15.0033 868.632 15.106 868.339 15.106H861.871C862.56 15.8687 863.448 16.5213 864.533 17.064C865.618 17.6067 866.872 18.0247 868.295 18.318C868.676 18.3913 868.962 18.5747 869.153 18.868C869.344 19.1467 869.395 19.4767 869.307 19.858C869.204 20.3127 868.962 20.606 868.581 20.738C868.2 20.8847 867.796 20.914 867.371 20.826C866.3 20.5767 865.259 20.21 864.247 19.726C863.235 19.2567 862.311 18.6847 861.475 18.01C860.639 17.3207 859.942 16.5507 859.385 15.7C858.666 16.9467 857.625 18.0027 856.261 18.868C854.897 19.7187 853.196 20.3713 851.157 20.826ZM866.315 6.68V5.954C866.315 5.54333 866.212 5.25733 866.007 5.096C865.802 4.92 865.428 4.832 864.885 4.832H860.639V6.35H865.523C865.831 6.35 866.095 6.46 866.315 6.68ZM852.433 6.724C852.609 6.47467 852.88 6.35 853.247 6.35H857.999V4.832H853.841C853.298 4.832 852.924 4.92 852.719 5.096C852.528 5.25733 852.433 5.54333 852.433 5.954V6.724ZM877.843 20.804C877.432 20.8187 877.095 20.7307 876.831 20.54C876.582 20.3493 876.442 20.0707 876.413 19.704C876.398 19.352 876.494 19.066 876.699 18.846C876.919 18.6113 877.198 18.4867 877.535 18.472C877.96 18.4427 878.254 18.362 878.415 18.23C878.591 18.098 878.73 17.7533 878.833 17.196C878.906 16.8 878.972 16.294 879.031 15.678C879.104 15.062 879.163 14.4313 879.207 13.786C879.251 13.126 879.28 12.5393 879.295 12.026C879.31 11.6593 879.251 11.4247 879.119 11.322C879.002 11.2047 878.752 11.146 878.371 11.146H878.085C877.953 12.7887 877.674 14.3727 877.249 15.898C876.838 17.4087 876.244 18.802 875.467 20.078C875.276 20.386 874.998 20.584 874.631 20.672C874.279 20.76 873.942 20.7087 873.619 20.518C873.34 20.3567 873.164 20.1073 873.091 19.77C873.018 19.4473 873.069 19.1467 873.245 18.868C873.832 17.9587 874.301 17.0273 874.653 16.074C875.02 15.106 875.284 14.0207 875.445 12.818C875.621 11.6153 875.709 10.222 875.709 8.638V6.548H874.323C874.015 6.548 873.751 6.44533 873.531 6.24C873.311 6.02 873.201 5.74867 873.201 5.426C873.201 5.118 873.311 4.854 873.531 4.634C873.751 4.414 874.015 4.304 874.323 4.304H876.721V1.642C876.721 1.26067 876.846 0.952666 877.095 0.717999C877.344 0.483332 877.645 0.365999 877.997 0.365999C878.349 0.365999 878.642 0.483332 878.877 0.717999C879.126 0.952666 879.251 1.26067 879.251 1.642V4.304H881.209C881.502 4.304 881.752 4.39933 881.957 4.59C882.162 4.78067 882.287 5.01533 882.331 5.294C882.712 4.634 883.057 3.94467 883.365 3.226C883.688 2.50733 883.944 1.84733 884.135 1.246C884.252 0.893999 884.48 0.659333 884.817 0.541999C885.154 0.424665 885.484 0.431999 885.807 0.563999C886.115 0.695999 886.32 0.908666 886.423 1.202C886.54 1.48067 886.54 1.78133 886.423 2.104C886.35 2.33867 886.262 2.57333 886.159 2.808C886.071 3.028 885.983 3.25533 885.895 3.49H892.583C892.876 3.49 893.126 3.6 893.331 3.82C893.551 4.02533 893.661 4.27467 893.661 4.568C893.661 4.86133 893.551 5.11067 893.331 5.316C893.126 5.52133 892.876 5.624 892.583 5.624H884.861C884.685 5.94667 884.509 6.25467 884.333 6.548C884.157 6.84133 883.974 7.12733 883.783 7.406C883.974 7.33267 884.157 7.296 884.333 7.296C884.656 7.296 884.927 7.39867 885.147 7.604C885.367 7.80933 885.477 8.09533 885.477 8.462V9.782L886.665 9.43V7.252C886.665 6.91467 886.775 6.64333 886.995 6.438C887.215 6.23267 887.479 6.13 887.787 6.13C888.11 6.13 888.374 6.23267 888.579 6.438C888.799 6.64333 888.909 6.91467 888.909 7.252V8.792C890.097 8.46933 891.006 8.49133 891.637 8.858C892.282 9.22467 892.605 10.0387 892.605 11.3V13.5C892.605 14.3507 892.422 14.9887 892.055 15.414C891.703 15.8393 891.109 16.096 890.273 16.184C889.965 16.2133 889.686 16.184 889.437 16.096C889.202 16.008 889.026 15.854 888.909 15.634V16.008C888.909 16.3453 888.799 16.6167 888.579 16.822C888.374 17.0273 888.11 17.13 887.787 17.13C887.479 17.13 887.215 17.0273 886.995 16.822C886.775 16.6167 886.665 16.3453 886.665 16.008V11.806L885.477 12.158V16.492C885.477 17.02 885.55 17.4233 885.697 17.702C885.844 17.966 886.13 18.142 886.555 18.23C886.98 18.318 887.611 18.362 888.447 18.362C889.224 18.362 889.818 18.3107 890.229 18.208C890.64 18.1053 890.933 17.9513 891.109 17.746C891.285 17.526 891.417 17.2547 891.505 16.932C891.608 16.5653 891.813 16.316 892.121 16.184C892.444 16.052 892.781 16.0447 893.133 16.162C893.485 16.2647 893.72 16.4553 893.837 16.734C893.969 17.0127 893.991 17.3207 893.903 17.658C893.727 18.3913 893.448 18.978 893.067 19.418C892.7 19.858 892.15 20.1733 891.417 20.364C890.684 20.5547 889.694 20.65 888.447 20.65C887.127 20.65 886.078 20.54 885.301 20.32C884.538 20.1147 883.988 19.726 883.651 19.154C883.328 18.5967 883.167 17.79 883.167 16.734V12.818L881.957 13.17C881.854 13.214 881.73 13.236 881.583 13.236C881.539 14.0573 881.48 14.8567 881.407 15.634C881.348 16.3967 881.282 17.0347 881.209 17.548C881.048 18.7507 880.703 19.5867 880.175 20.056C879.647 20.5253 878.87 20.7747 877.843 20.804ZM881.605 10.882L883.167 10.42V8.462C883.167 8.38867 883.174 8.33 883.189 8.286L883.123 8.352C882.918 8.63067 882.639 8.814 882.287 8.902C881.935 8.99 881.612 8.91667 881.319 8.682C881.055 8.47667 880.908 8.21267 880.879 7.89C880.85 7.56733 880.945 7.28133 881.165 7.032L881.561 6.504C881.502 6.51867 881.444 6.53333 881.385 6.548C881.341 6.548 881.282 6.548 881.209 6.548H878.173V8.858H878.415C879.5 8.858 880.278 9.00467 880.747 9.298C881.231 9.57667 881.517 10.1047 881.605 10.882ZM888.909 14.49C889.07 14.1967 889.334 14.0207 889.701 13.962C889.965 13.918 890.134 13.852 890.207 13.764C890.28 13.6613 890.317 13.4853 890.317 13.236V11.916C890.317 11.4467 890.222 11.1607 890.031 11.058C889.855 10.9407 889.569 10.9407 889.173 11.058L888.909 11.146V14.49ZM907.763 14.974C907.47 14.974 907.213 14.8713 906.993 14.666C906.773 14.4607 906.648 14.204 906.619 13.896C906.575 13.3387 906.531 12.7007 906.487 11.982C906.458 11.2633 906.421 10.53 906.377 9.782C906.333 9.01933 906.296 8.29333 906.267 7.604C906.238 6.91467 906.216 6.306 906.201 5.778C906.186 5.25 906.179 4.86133 906.179 4.612V2.434C906.179 2.00867 906.326 1.64933 906.619 1.356C906.927 1.06267 907.308 0.915999 907.763 0.915999C908.232 0.915999 908.614 1.06267 908.907 1.356C909.215 1.64933 909.369 2.00867 909.369 2.434V4.612C909.369 4.86133 909.354 5.25 909.325 5.778C909.31 6.306 909.288 6.91467 909.259 7.604C909.23 8.29333 909.193 9.01933 909.149 9.782C909.12 10.53 909.083 11.2633 909.039 11.982C908.995 12.7007 908.951 13.3387 908.907 13.896C908.892 14.204 908.775 14.4607 908.555 14.666C908.335 14.8713 908.071 14.974 907.763 14.974ZM907.763 20.342C907.25 20.342 906.81 20.1587 906.443 19.792C906.076 19.4253 905.893 18.9853 905.893 18.472C905.893 17.9587 906.076 17.5187 906.443 17.152C906.81 16.7853 907.25 16.602 907.763 16.602C908.276 16.602 908.716 16.7853 909.083 17.152C909.45 17.5187 909.633 17.9587 909.633 18.472C909.633 18.9853 909.45 19.4253 909.083 19.792C908.716 20.1587 908.276 20.342 907.763 20.342Z" fill="#010F32"/>
</svg>
