<svg width="299" height="110" viewBox="0 0 299 110" fill="none" xmlns="http://www.w3.org/2000/svg">
<g clip-path="url(#clip0_420_2009)">
<path d="M18.72 56.48C17.18 55.06 15.66 53.2 14.4 51.16C11.2 51.56 7.69999 51.74 4.39999 51.78C3.33999 51.78 2.73999 51.1 2.73999 50.1C2.73999 49.18 3.29999 48.5 4.25999 48.5C6.93999 48.5 10.02 48.38 12.66 48.1C12.12 47.1 11.62 45.98 11.24 44.94C11.16 44.74 11.12 44.54 11.12 44.38C11.12 43.7 11.66 43.24 12.4 43.06C12.6 43.04 12.8 43 12.96 43C13.72 43 14.2 43.36 14.5 44.14C14.94 45.34 15.42 46.5 15.98 47.64C18.24 47.34 20.66 46.82 22.54 46.3C22.76 46.22 22.98 46.18 23.16 46.18C23.8 46.18 24.28 46.58 24.54 47.32C24.62 47.52 24.66 47.72 24.66 47.9C24.66 48.54 24.32 49.1 23.62 49.32C21.8 49.9 19.64 50.36 17.74 50.66C19.02 52.9 21.04 55.22 23.1 57.22C23.5 57.62 23.66 58.08 23.66 58.54C23.66 59 23.5 59.4 23.18 59.72C22.84 60.02 22.48 60.2 22 60.2C21.58 60.2 21.08 60.06 20.48 59.76C18.64 58.84 15.86 58.16 12.88 58.16C9.17999 58.16 7.05999 59.3 7.05999 61.32C7.05999 63.34 9.35999 64.38 13.3 64.38C15.82 64.38 18.54 64.02 20.72 63.4C20.92 63.34 21.12 63.32 21.3 63.32C22.02 63.32 22.62 63.72 22.78 64.5C22.84 64.7 22.86 64.9 22.86 65.08C22.86 65.8 22.42 66.34 21.6 66.6C19.38 67.24 16.62 67.64 13.44 67.64C7.09999 67.64 3.59999 65.38 3.59999 61.36C3.59999 57.66 7.07999 55.4 12.4 55.4C14.66 55.4 17 55.88 18.6 56.58L18.68 56.46L18.72 56.48Z" fill="#010F32"/>
<path d="M51.7001 57.8404C51.7001 61.3204 50.1001 64.1404 46.7601 65.5404C44.7801 66.3804 41.6401 66.9404 38.8001 66.9404H38.6001C37.6001 66.9404 37.0001 66.2604 36.9801 65.3404V65.2604C36.9801 64.3404 37.5201 63.6604 38.4601 63.6604C40.9001 63.6404 43.8401 63.1804 45.4401 62.4804C47.4001 61.6204 48.3601 60.1604 48.3601 58.0204C48.3601 55.7604 46.9401 54.0404 43.7001 54.0404C41.0201 54.0404 37.6001 54.7404 34.4201 55.7804C34.2601 55.8404 34.0601 55.8604 33.8801 55.8604C33.2001 55.8604 32.6201 55.4404 32.4601 54.7404C32.4001 54.5204 32.3801 54.3204 32.3801 54.1004C32.3801 53.4204 32.7201 52.8604 33.4401 52.6404C36.5201 51.6604 40.3401 50.9004 43.6401 50.9004C49.1001 50.9004 51.6801 53.9804 51.6801 57.8204L51.7001 57.8404Z" fill="#010F32"/>
<path d="M72.2 55.7204C71.28 55.9204 70.16 56.1204 68.98 56.2604C65.84 56.6604 62.68 57.0804 59.88 57.5204C59.76 57.5404 59.66 57.5404 59.58 57.5404C58.68 57.5404 58.18 57.0004 58.06 56.2004C58.04 56.0804 58.04 55.9804 58.04 55.8604C58.04 55.1404 58.44 54.6204 59.18 54.4404C60.14 54.1804 61.08 53.8804 62.02 53.4804C65.72 51.8604 69.92 49.3804 73.32 46.8204C70.18 47.1604 66.46 47.3604 63.56 47.3804C62.84 47.3804 62.22 46.8404 62.22 45.9004C62.22 44.8604 62.76 44.3604 63.8 44.3404C65.88 44.3404 68.16 44.2804 70.3 44.2004C72.4 44.1204 74.4 44.0004 75.82 43.9004H76.16C77.02 43.9004 77.56 44.1204 77.96 44.8604C78.12 45.1404 78.22 45.4404 78.22 45.7604C78.22 46.3004 77.96 46.8204 77.52 47.2804C75.22 49.4004 72.34 51.2604 69.48 52.7204C68.58 53.1404 67.58 53.5804 66.48 54.0004V54.1404C67.74 53.8604 69.2 53.6404 70.54 53.4604C74.02 53.0604 77.96 52.7004 81.46 52.5004H81.6C82.58 52.5004 83.08 53.0604 83.14 53.9804V54.1204C83.14 55.0204 82.58 55.6004 81.74 55.6404C78.68 55.7804 75.82 56.2804 73.62 57.3004C71.38 58.2804 70.04 59.6804 70.04 61.3804C70.04 62.9204 71.28 63.9204 74.36 64.1204C75.2 64.2004 76.44 64.2404 77.44 64.2404H77.58C78.5 64.2404 79.16 64.7404 79.18 65.7204V65.8004C79.18 66.8604 78.62 67.4804 77.64 67.5604C77.14 67.5604 76.6 67.5804 76.1 67.5804C75.4 67.5804 74.7 67.5604 74.14 67.5004C69.4 67.2004 66.58 65.2004 66.58 61.9004C66.58 59.3204 68.34 57.1604 72.3 55.8804V55.7404L72.2 55.7204Z" fill="#010F32"/>
<path d="M105.74 44.9803C105.74 45.4203 105.54 45.8803 105.16 46.2403C102.32 48.9003 98.26 51.9203 94.68 54.0803C93.98 54.5003 93.84 54.8003 93.84 55.1803C93.84 55.5603 94.06 55.7603 94.82 56.2203C98.18 58.3203 102.74 61.7203 105.88 64.6803C106.3 65.0803 106.46 65.5803 106.46 66.0603C106.46 66.5603 106.26 67.0603 105.98 67.3803C105.58 67.8203 105.12 68.0603 104.6 68.0603C104.16 68.0603 103.74 67.9003 103.34 67.5003C100.18 64.4403 96 61.2203 91.88 58.4603C90.26 57.4003 89.78 56.4203 89.78 55.1803C89.78 53.8403 90.4 52.7403 91.88 51.8403C95.54 49.6003 99.76 46.4403 102.56 43.7203C102.86 43.4203 103.28 43.2803 103.7 43.2803C104.18 43.2803 104.68 43.4403 105.1 43.8203C105.52 44.1603 105.72 44.5803 105.72 45.0203L105.74 44.9803Z" fill="#010F32"/>
<path d="M123.56 50.6795C123.92 50.1995 124.24 49.6995 124.54 49.1595C124.6 49.0195 124.68 48.8995 124.8 48.8195C122.24 48.9395 119.72 48.9795 117.34 48.9795C116.48 48.9795 116.1 48.5595 116.08 47.7395V47.6595C116.08 46.8995 116.5 46.4595 117.28 46.4595H120.44C121.3 45.4995 122.2 44.2795 122.9 43.1595C123.2 42.6595 123.6 42.4395 124.18 42.4395C124.4 42.4395 124.66 42.4595 124.94 42.5195C125.58 42.6595 125.94 42.9995 125.94 43.4395C125.94 43.6395 125.88 43.8395 125.74 44.0595C125.2 44.8795 124.56 45.6795 123.9 46.4395C126.5 46.3795 129.08 46.2795 131.68 46.1395C131.28 45.7995 130.9 45.4595 130.5 45.1595C130.16 44.9395 130.02 44.6195 130.02 44.3395C130.02 44.0395 130.18 43.7595 130.5 43.4995C130.82 43.2395 131.14 43.1395 131.48 43.1395C131.76 43.1395 132.06 43.2595 132.34 43.4395C133.96 44.6195 135.76 46.1795 137.24 47.6395C137.52 47.9395 137.66 48.2595 137.66 48.5995C137.66 48.8995 137.52 49.2395 137.24 49.5195C136.9 49.8195 136.52 49.9995 136.14 49.9995C135.76 49.9995 135.44 49.8595 135.18 49.5595C134.76 49.1195 134.34 48.6395 133.9 48.2195C131.58 48.4195 129.24 48.6395 126.92 48.7195C127.18 48.9195 127.34 49.2195 127.34 49.4995C127.34 49.5795 127.32 49.6995 127.26 49.7795C127.12 50.0795 126.96 50.3995 126.76 50.6795H138.86C139.5 50.6795 139.9 51.1595 139.9 51.9195C139.9 52.6795 139.5 53.1595 138.86 53.1595H132.2C134.04 54.7195 136.52 55.8395 139.28 56.4595C139.9 56.5995 140.2 57.0795 140.2 57.6595C140.2 57.8195 140.18 58.0195 140.12 58.1995C139.96 58.9595 139.5 59.3795 138.84 59.3795C138.7 59.3795 138.54 59.3595 138.34 59.2995C134.84 58.3395 131.14 56.1395 128.74 53.1595H125.12C122.6 55.7995 119.3 57.6395 115.68 58.6795C115.52 58.6995 115.38 58.7395 115.26 58.7395C114.64 58.7395 114.2 58.3195 114.02 57.6395C113.96 57.4795 113.94 57.2995 113.94 57.1595C113.94 56.5795 114.28 56.1595 114.92 56.0195C117.44 55.3795 119.62 54.4595 121.34 53.1595H115.1C114.46 53.1595 114.12 52.6795 114.12 51.9195C114.12 51.1595 114.46 50.6795 115.1 50.6795H123.54H123.56ZM118.82 60.6795C118.2 60.6795 117.76 60.3195 117.58 59.6195C117.56 59.4995 117.56 59.3995 117.56 59.3195C117.56 58.7395 117.9 58.3395 118.54 58.2195C121.74 57.6595 124.74 56.4595 127.12 54.5995C127.34 54.3995 127.62 54.3195 127.9 54.3195C128.24 54.3195 128.6 54.4795 128.88 54.7595C129.18 55.0595 129.32 55.3795 129.32 55.6795C129.32 56.0195 129.18 56.2995 128.9 56.5195C126.18 58.5995 122.6 59.9995 119.12 60.6395C119 60.6595 118.9 60.6595 118.82 60.6595V60.6795ZM118.94 64.7995C118.26 64.7995 117.88 64.3795 117.74 63.6595C117.72 63.5395 117.72 63.4595 117.72 63.3595C117.72 62.8195 118.06 62.2995 118.7 62.2195C123.18 61.5795 127.02 60.1395 130.5 57.4595C130.72 57.2995 131 57.1995 131.28 57.1995C131.62 57.1995 131.96 57.3395 132.26 57.6195C132.6 57.9595 132.74 58.2995 132.74 58.6195C132.74 59.0195 132.54 59.3395 132.2 59.5995C128.26 62.4795 123.88 64.0795 119.26 64.7795C119.14 64.7995 119.04 64.7995 118.96 64.7995H118.94ZM119.1 68.9795C118.34 68.9795 117.9 68.5595 117.78 67.8395C117.76 67.7195 117.76 67.6395 117.76 67.5595C117.76 66.8795 118.12 66.3595 118.86 66.3195C124.38 65.7595 130.28 63.5795 134.12 60.3995C134.38 60.1995 134.62 60.1195 134.9 60.1195C135.32 60.1195 135.74 60.3195 136.04 60.6595C136.34 60.9995 136.48 61.2995 136.48 61.6395C136.48 61.9995 136.28 62.3395 135.9 62.6795C131.54 66.0995 125.14 68.3995 119.32 68.9795H119.1Z" fill="#010F32"/>
<path d="M146.58 47.46C146.6 46.48 146.6 45.48 146.6 44.36V43.68C146.6 42.92 147.28 42.54 148.18 42.54C149.08 42.54 149.74 42.94 149.74 43.68C149.74 45.02 149.74 46.28 149.72 47.46H152.56C154.72 47.46 155.44 48.36 155.44 50.4C155.44 56.92 155.08 62.02 154.4 64.94C153.92 67.04 152.8 67.9 150.76 67.9C149.9 67.9 149.08 67.84 148.38 67.68C147.7 67.52 147.32 67.04 147.32 66.34C147.32 66.2 147.32 66.08 147.34 65.94C147.5 65.16 147.98 64.68 148.48 64.68C148.54 64.68 148.6 64.68 148.64 64.7C149.2 64.84 149.76 64.92 150.24 64.92C150.96 64.92 151.2 64.7 151.36 63.88C151.92 61.3 152.28 56.4 152.28 51.1C152.28 50.42 152.06 50.32 151.38 50.32H149.56C149.36 53.66 149 56.38 148.44 58.72C147.66 62 146.46 65.08 144.92 67.44C144.66 67.86 144.14 68.08 143.6 68.08C143.26 68.08 142.9 68 142.6 67.78C142.1 67.44 141.84 66.94 141.84 66.44C141.84 66.14 141.92 65.82 142.1 65.58C143.5 63.56 144.7 60.84 145.46 57.76C145.96 55.8 146.3 53.48 146.46 50.34H143.34C142.62 50.34 142.22 49.72 142.22 48.86C142.22 48.04 142.62 47.46 143.34 47.46H146.56H146.58ZM167.56 64.66C167.56 66.68 166.58 67.46 164.56 67.46H160.08C158.08 67.46 157.14 66.68 157.14 64.66V47.94C157.14 45.92 158.1 45.14 160.08 45.14H164.56C166.58 45.14 167.56 45.92 167.56 47.94V64.66ZM160.24 63.8C160.24 64.36 160.46 64.52 160.96 64.52H163.64C164.18 64.52 164.4 64.36 164.4 63.8V48.78C164.4 48.22 164.18 48.06 163.64 48.06H160.96C160.46 48.06 160.24 48.22 160.24 48.78V63.8Z" fill="#010F32"/>
<path d="M185.32 59.1604C184.54 60.8604 182.96 61.7004 180.98 61.7004C177.9 61.7004 175.72 59.6204 175.72 56.6604C175.72 53.7004 178.22 51.4804 181.72 51.4804C182.9 51.4804 183.88 51.7804 184.6 52.3404C184.58 51.5004 184.58 50.4404 184.58 49.5604C180.68 49.6404 176.56 49.8404 172.72 50.0604H172.56C171.66 50.0604 171.18 49.4404 171.18 48.5004V48.4203C171.18 47.5803 171.68 46.9604 172.58 46.9004C176.22 46.7004 180.46 46.5604 184.54 46.4604C184.54 45.6004 184.52 44.8404 184.52 44.2004V44.1404C184.52 43.3604 185.1 42.8604 186.12 42.8604C187.26 42.8604 187.8 43.3003 187.8 44.2603V46.4203C188.98 46.4003 190.12 46.4004 191.24 46.4004C192.36 46.4004 193.48 46.4003 194.52 46.4203C195.56 46.4403 196.14 46.9004 196.14 48.0204V48.0804C196.14 49.0604 195.58 49.5404 194.62 49.5404C192.92 49.5404 191.12 49.4804 189.22 49.4804C188.74 49.4804 188.26 49.4804 187.8 49.5004V54.6604C188.48 55.8604 188.76 57.1204 188.76 58.6404C188.76 62.4604 187.02 65.0204 183.86 66.6204C182.52 67.3004 180.92 67.8003 179.3 68.0203C179.16 68.0403 179.04 68.0404 178.94 68.0404C178.12 68.0404 177.54 67.6204 177.34 66.7204C177.32 66.5604 177.28 66.3604 177.28 66.2204C177.28 65.4404 177.72 64.9003 178.56 64.7403C183.12 63.9003 185.48 62.0604 185.48 59.3804V59.1604H185.34H185.32ZM178.98 56.5204C178.98 58.0404 180.08 58.8804 181.54 58.8804C183.3 58.8804 184.48 57.7604 184.48 56.1404C184.48 54.8604 183.44 54.0204 181.88 54.0204C180.22 54.0204 179 55.0604 179 56.5404L178.98 56.5204Z" fill="#010F32"/>
<path d="M209.76 54.0599C211.66 53.2999 213.4 52.9399 215.02 52.9399C220.2 52.9399 223.22 55.7599 223.22 59.6599C223.22 64.5399 218.94 67.7199 211.84 67.7199C207.44 67.7199 204.62 65.9199 204.62 63.0999C204.62 60.6599 206.72 58.9599 209.66 58.9599C212.94 58.9599 215.18 60.8599 215.76 64.0599C218.12 63.4199 219.7 61.9399 219.7 59.7399C219.7 57.4199 217.74 55.5599 214.04 55.5599C210.34 55.5599 207.04 56.8399 202.84 59.4799C202.54 59.6399 202.2 59.7599 201.86 59.7599C201.32 59.7599 200.76 59.4999 200.44 58.9999C200.24 58.7199 200.16 58.3799 200.16 58.0399C200.16 57.4799 200.44 56.8999 200.98 56.6199C205.18 54.1199 210.84 50.0599 214.32 47.1599C211.6 47.3799 207.8 47.5599 204.82 47.5599C203.9 47.5599 203.3 46.9799 203.3 46.0399C203.3 45.0599 203.78 44.3799 204.7 44.3799H205.54C209.2 44.3799 213.52 44.2199 216.78 43.9399C216.9 43.9199 217.04 43.9199 217.14 43.9199C217.98 43.9199 218.62 44.1999 219.02 44.9199C219.18 45.1999 219.28 45.5399 219.28 45.8999C219.28 46.4599 219.06 47.0399 218.58 47.4999C216.5 49.3799 214.18 51.1199 212.1 52.4799C211.38 52.9599 210.54 53.4799 209.68 53.8999L209.74 54.0399L209.76 54.0599ZM209.54 61.5599C208.34 61.5599 207.64 62.1399 207.64 62.9399C207.64 64.1399 208.92 64.9199 211.68 64.9199C212.12 64.9199 212.5 64.8999 212.84 64.8599C212.62 62.6999 211.16 61.5599 209.56 61.5599H209.54Z" fill="#010F32"/>
<path d="M234.28 44.9605C234.28 45.0805 234.26 45.2405 234.22 45.3805C233.36 48.9205 232.8 53.4205 232.8 57.1805C232.8 59.7805 233.06 62.9605 233.52 65.6205C233.54 65.7805 233.54 65.9605 233.54 66.1205C233.54 67.0405 233.04 67.5205 232.14 67.7205C231.98 67.7405 231.8 67.7805 231.66 67.7805C230.88 67.7805 230.32 67.3005 230.12 66.3205C229.62 63.8005 229.36 60.5805 229.36 57.3205C229.36 53.2405 229.92 48.3805 230.9 44.6805C231.12 43.9005 231.68 43.5605 232.46 43.5605C232.6 43.5605 232.74 43.5605 232.88 43.5805C233.72 43.7205 234.26 44.1605 234.26 44.9605H234.28ZM240.8 56.9605C240.8 57.3005 240.66 57.6005 240.38 57.8805C239.54 58.7205 239.12 59.6405 239.12 60.4805C239.12 62.0005 240.38 62.7205 243.92 62.7205C246.14 62.7205 248.44 62.5005 250.4 62.0805C250.54 62.0605 250.68 62.0205 250.8 62.0205C251.62 62.0205 252.18 62.5805 252.32 63.3605C252.34 63.5005 252.34 63.6405 252.34 63.7605C252.34 64.5805 251.92 65.2405 251.06 65.4405C249.36 65.8005 246.82 66.0605 244 66.0605C238.9 66.0605 235.96 64.3605 235.96 60.7005C235.96 59.1405 236.6 57.4205 237.92 56.1005C238.32 55.7005 238.78 55.5205 239.26 55.5205C239.6 55.5205 239.94 55.6405 240.22 55.8205C240.64 56.1205 240.84 56.5405 240.84 56.9405L240.8 56.9605ZM249.7 46.4805C250.68 46.4805 251.16 47.1205 251.28 48.0205V48.1805C251.28 49.0205 250.84 49.7805 249.8 49.9405C247.42 50.2205 244.16 50.3605 241.28 50.3605C240.28 50.3605 239.32 50.3405 238.44 50.3005C237.2 50.2805 236.76 49.4805 236.76 48.5605C236.78 47.6405 237.32 46.8605 238.38 46.8605H238.5C239.22 46.8805 240.04 46.8805 240.88 46.8805C243.72 46.8805 247.02 46.7405 249.4 46.4805C249.52 46.4605 249.6 46.4605 249.7 46.4605V46.4805Z" fill="#010F32"/>
<path d="M268.64 49.4605V49.3205C268.64 48.5005 269.26 48.1205 270.04 48.0605H270.2C271.02 48.0605 271.6 48.4605 271.68 49.3205L271.84 51.3405C272.06 51.3205 272.34 51.3205 272.62 51.3205C276.2 51.3205 278.62 53.5605 278.62 56.8405C278.62 60.1205 276.46 62.4405 272.66 62.4405C271.6 62.4405 270.36 62.2405 269.58 61.9005C268.96 61.6205 268.62 61.1205 268.62 60.5205C268.62 60.3205 268.64 60.1005 268.74 59.9005C268.96 59.3405 269.46 58.9405 270.06 58.9405C270.22 58.9405 270.42 58.9605 270.62 59.0605C271.12 59.2605 271.9 59.4605 272.58 59.4605C274.48 59.4605 275.46 58.5005 275.46 56.8005C275.46 55.2405 274.42 54.1605 272.44 54.1605C271.12 54.1605 269.8 54.3805 268.5 54.7405C267.6 55.0005 266.66 55.3005 265.92 55.6005C266.88 58.8805 268.02 63.0005 268.84 66.6405C268.86 66.7805 268.86 66.9005 268.86 67.0005C268.86 67.7205 268.36 68.2405 267.6 68.3805C267.44 68.4005 267.3 68.4405 267.12 68.4405C266.42 68.4405 265.86 68.1405 265.7 67.3805C264.94 63.8005 264 59.8405 263.04 56.6405C262.18 57.0005 261.08 57.5005 260.18 57.9005C260.02 57.9805 259.82 58.0205 259.64 58.0205C259.08 58.0205 258.54 57.6805 258.3 57.1605C258.18 56.9005 258.14 56.6605 258.14 56.4005C258.14 55.8605 258.44 55.4005 259.04 55.1205C260.08 54.6205 261.16 54.1605 262.14 53.8005C261.86 52.8405 261.46 51.7205 261.08 50.7205C261.06 50.5805 261.02 50.4605 261.02 50.3205C261.02 49.7405 261.5 49.2205 262.2 49.0605C262.4 49.0005 262.62 48.9805 262.78 48.9805C263.42 48.9805 263.96 49.2605 264.16 49.8805C264.52 50.8805 264.84 51.9205 265.14 52.8005C266.26 52.3805 267.78 51.9605 268.86 51.7005L268.64 49.4605Z" fill="#010F32"/>
<path d="M299 64.7597C299 66.1597 297.96 67.0797 296.68 67.0797C295.4 67.0797 294.36 66.1597 294.36 64.7597C294.36 63.3597 295.36 62.4397 296.68 62.4397C298 62.4397 299 63.3597 299 64.7597ZM294.58 45.8797C294.56 44.8197 295.34 44.1797 296.7 44.1797C298.06 44.1797 298.82 44.8197 298.8 45.8797L298.24 59.5997C298.22 60.3797 297.6 60.8597 296.66 60.8597C295.72 60.8597 295.12 60.3797 295.1 59.5997L294.56 45.8797H294.58Z" fill="#010F32"/>
<path d="M40.7682 0.49373L0.49707 17.9707L1.29329 19.8054L41.5644 2.32841L40.7682 0.49373Z" fill="#010F32"/>
<path d="M1.29665 90.2986L0.501709 92.1338L40.7851 109.583L41.58 107.747L1.29665 90.2986Z" fill="#010F32"/>
</g>
<defs>
<clipPath id="clip0_420_2009">
<rect width="298.5" height="109.1" fill="white" transform="translate(0.5 0.5)"/>
</clipPath>
</defs>
</svg>
