<svg width="691" height="21" viewBox="0 0 691 21" fill="none" xmlns="http://www.w3.org/2000/svg">
<path d="M19.014 20.342L0.753991 2.038C0.607324 1.87667 0.53399 1.69333 0.53399 1.488C0.53399 1.268 0.607324 1.08467 0.753991 0.937999C0.915324 0.776666 1.09866 0.696 1.30399 0.696C1.52399 0.696 1.70732 0.776666 1.85399 0.937999L20.114 19.242C20.2753 19.3887 20.356 19.5647 20.356 19.77C20.356 19.99 20.2753 20.1807 20.114 20.342C19.9673 20.4887 19.784 20.562 19.564 20.562C19.3587 20.562 19.1753 20.4887 19.014 20.342ZM42.824 19.528C42.56 19.2787 42.4207 18.9707 42.406 18.604C42.3913 18.2373 42.5087 17.922 42.758 17.658C43.3593 17.0567 43.9167 16.338 44.43 15.502C44.9433 14.6513 45.3907 13.764 45.772 12.84C44.5693 12.532 43.418 12.312 42.318 12.18C41.7753 13.324 41.1593 14.2773 40.47 15.04C39.7807 15.8027 39.0473 16.3307 38.27 16.624C37.5367 16.9173 36.818 17.02 36.114 16.932C35.41 16.8293 34.8233 16.5433 34.354 16.074C33.8993 15.6047 33.672 14.9447 33.672 14.094C33.672 13.2873 33.914 12.554 34.398 11.894C34.882 11.234 35.63 10.706 36.642 10.31C37.6687 9.89933 38.9887 9.694 40.602 9.694C40.91 8.82867 41.196 7.83133 41.46 6.702C41.6653 5.85133 41.6287 5.28667 41.35 5.008C41.0713 4.71467 40.5287 4.61933 39.722 4.722C39.4433 4.766 39.084 4.81733 38.644 4.876C38.204 4.93467 37.8593 4.97867 37.61 5.008C37.2433 5.02267 36.9207 4.91267 36.642 4.678C36.3633 4.44333 36.2093 4.14267 36.18 3.776C36.1653 3.40933 36.2753 3.094 36.51 2.83C36.7447 2.55133 37.0453 2.39733 37.412 2.368C37.72 2.33867 38.1013 2.302 38.556 2.258C39.0107 2.214 39.3847 2.18467 39.678 2.17C41.526 2.05267 42.7947 2.37533 43.484 3.138C44.188 3.90067 44.3713 5.162 44.034 6.922C43.9313 7.45 43.814 7.96333 43.682 8.462C43.55 8.946 43.4107 9.41533 43.264 9.87C43.792 9.92867 44.3347 10.0167 44.892 10.134C45.4493 10.2367 45.9993 10.354 46.542 10.486C46.6593 9.98733 46.7547 9.50333 46.828 9.034C46.9013 8.55 46.9453 8.088 46.96 7.648C46.9747 7.28133 47.0993 6.97333 47.334 6.724C47.5833 6.46 47.8913 6.32067 48.258 6.306C48.6247 6.306 48.9327 6.438 49.182 6.702C49.446 6.95133 49.5707 7.25933 49.556 7.626C49.5413 8.198 49.4827 8.78467 49.38 9.386C49.292 9.97267 49.1673 10.5667 49.006 11.168C49.4607 11.3147 49.9007 11.4687 50.326 11.63C50.766 11.7767 51.1913 11.9307 51.602 12.092C51.9393 12.2387 52.174 12.4807 52.306 12.818C52.4527 13.1553 52.4527 13.4927 52.306 13.83C52.174 14.1527 51.9393 14.3873 51.602 14.534C51.2647 14.6807 50.9273 14.6807 50.59 14.534C50.2087 14.358 49.82 14.1967 49.424 14.05C49.028 13.8887 48.632 13.7347 48.236 13.588C47.7813 14.7613 47.246 15.8613 46.63 16.888C46.0287 17.9147 45.3833 18.7727 44.694 19.462C44.4447 19.7113 44.1367 19.8433 43.77 19.858C43.418 19.8727 43.1027 19.7627 42.824 19.528ZM37.346 14.314C37.698 14.1673 38.0573 13.918 38.424 13.566C38.7907 13.214 39.15 12.73 39.502 12.114C38.3433 12.2167 37.5147 12.4367 37.016 12.774C36.532 13.1113 36.2827 13.4853 36.268 13.896C36.268 14.1307 36.356 14.2993 36.532 14.402C36.7227 14.49 36.994 14.4607 37.346 14.314ZM59.236 19.352C58.9133 19.22 58.686 18.978 58.554 18.626C58.422 18.274 58.4293 17.9367 58.576 17.614C58.8253 17.0713 59.1407 16.3893 59.522 15.568C59.918 14.7467 60.3433 13.852 60.798 12.884C61.2673 11.916 61.744 10.926 62.228 9.914C62.712 8.902 63.1887 7.91933 63.658 6.966C64.1273 6.01267 64.56 5.14733 64.956 4.37C65.352 3.578 65.682 2.93267 65.946 2.434C66.1073 2.11133 66.364 1.906 66.716 1.818C67.0827 1.71533 67.42 1.75933 67.728 1.95C68.0507 2.14067 68.256 2.412 68.344 2.764C68.4467 3.10133 68.4027 3.43133 68.212 3.754C68.0067 4.12067 67.7353 4.61933 67.398 5.25C67.0753 5.88067 66.7087 6.592 66.298 7.384C65.902 8.176 65.4913 9.00467 65.066 9.87C65.5793 9.65 66.1 9.54 66.628 9.54C68.0213 9.54 68.9747 9.98 69.488 10.86C70.016 11.74 70.0673 12.9427 69.642 14.468C69.422 15.26 69.4 15.8027 69.576 16.096C69.7667 16.3893 70.1113 16.536 70.61 16.536C70.9473 16.536 71.27 16.4627 71.578 16.316C71.886 16.1547 72.2013 15.8393 72.524 15.37C72.8467 14.9007 73.184 14.2113 73.536 13.302C73.668 12.9647 73.9027 12.7227 74.24 12.576C74.5773 12.4293 74.9147 12.4147 75.252 12.532C75.5893 12.664 75.8313 12.8987 75.978 13.236C76.1393 13.5733 76.154 13.918 76.022 14.27C75.4353 15.9127 74.702 17.1373 73.822 17.944C72.9567 18.736 71.8493 19.132 70.5 19.132C69.576 19.132 68.7987 18.9413 68.168 18.56C67.5373 18.1787 67.1193 17.6067 66.914 16.844C66.7087 16.0667 66.7673 15.0987 67.09 13.94C67.2953 13.236 67.3173 12.7447 67.156 12.466C66.9947 12.1727 66.6573 12.026 66.144 12.026C65.484 12.026 64.868 12.2313 64.296 12.642C63.724 13.0527 63.1667 13.8227 62.624 14.952C62.5653 15.0693 62.4553 15.304 62.294 15.656C62.1473 15.9933 61.986 16.3673 61.81 16.778C61.634 17.1887 61.4653 17.5627 61.304 17.9C61.1573 18.2227 61.062 18.4427 61.018 18.56C60.8713 18.8973 60.6293 19.1467 60.292 19.308C59.9693 19.484 59.6173 19.4987 59.236 19.352ZM90.762 20.452C89.6473 20.452 88.7233 20.166 87.99 19.594C87.2713 19.0367 86.912 18.208 86.912 17.108C86.912 16.1107 87.264 15.3187 87.968 14.732C88.6867 14.1307 89.6327 13.83 90.806 13.83C91.246 13.83 91.6713 13.852 92.082 13.896V9.738C92.082 9.35667 92.2067 9.04133 92.456 8.792C92.7053 8.54267 93.0133 8.418 93.38 8.418C93.7467 8.418 94.0547 8.54267 94.304 8.792C94.5533 9.04133 94.678 9.35667 94.678 9.738V14.49C95.47 14.7393 96.218 15.0473 96.922 15.414C97.6407 15.766 98.2713 16.1327 98.814 16.514C99.1073 16.734 99.2833 17.0273 99.342 17.394C99.4007 17.746 99.32 18.0687 99.1 18.362C98.8947 18.6553 98.6087 18.8313 98.242 18.89C97.89 18.9487 97.5673 18.8753 97.274 18.67C96.922 18.3913 96.5187 18.1273 96.064 17.878C95.624 17.614 95.162 17.372 94.678 17.152C94.59 18.2227 94.216 19.0367 93.556 19.594C92.896 20.166 91.9647 20.452 90.762 20.452ZM84.91 14.358C84.6313 14.5927 84.3087 14.71 83.942 14.71C83.59 14.71 83.2893 14.5853 83.04 14.336C82.776 14.072 82.644 13.7567 82.644 13.39C82.644 13.0087 82.7833 12.7007 83.062 12.466C83.898 11.718 84.6313 10.8673 85.262 9.914C85.9073 8.96067 86.4353 7.97067 86.846 6.944C86.45 7.00267 86.0613 7.04667 85.68 7.076C85.3133 7.10533 84.9613 7.13467 84.624 7.164C84.2427 7.17867 83.92 7.06867 83.656 6.834C83.392 6.59933 83.2527 6.27667 83.238 5.866C83.2233 5.49933 83.3333 5.19867 83.568 4.964C83.8027 4.71467 84.1253 4.58267 84.536 4.568C85.0053 4.53867 85.4967 4.49467 86.01 4.436C86.538 4.37733 87.066 4.31133 87.594 4.238C87.6673 3.90067 87.7113 3.556 87.726 3.204C87.7553 2.852 87.77 2.51467 87.77 2.192C87.77 1.82533 87.8947 1.51733 88.144 1.268C88.3933 1.004 88.7013 0.871999 89.068 0.871999C89.4347 0.871999 89.75 1.004 90.014 1.268C90.278 1.51733 90.4027 1.82533 90.388 2.192C90.3733 2.69067 90.3293 3.21133 90.256 3.754C90.3587 3.72467 90.454 3.70267 90.542 3.688C90.6447 3.65867 90.74 3.63667 90.828 3.622C91.1947 3.534 91.532 3.578 91.84 3.754C92.148 3.93 92.3387 4.20867 92.412 4.59C92.4853 4.95667 92.4193 5.28667 92.214 5.58C92.0233 5.87333 91.752 6.064 91.4 6.152C91.1653 6.21067 90.894 6.26933 90.586 6.328C90.2927 6.38667 89.9847 6.44533 89.662 6.504C89.2073 8.044 88.5693 9.496 87.748 10.86C86.9413 12.224 85.9953 13.39 84.91 14.358ZM97.604 8.528C97.1347 8.23467 96.5773 7.934 95.932 7.626C95.3013 7.318 94.744 7.09067 94.26 6.944C93.9227 6.82667 93.6587 6.62133 93.468 6.328C93.2773 6.03467 93.226 5.712 93.314 5.36C93.3873 5.008 93.578 4.73667 93.886 4.546C94.2087 4.35533 94.546 4.31133 94.898 4.414C95.338 4.53133 95.822 4.7 96.35 4.92C96.878 5.14 97.384 5.37467 97.868 5.624C98.3667 5.87333 98.7773 6.108 99.1 6.328C99.3933 6.51867 99.5693 6.79733 99.628 7.164C99.7013 7.53067 99.6353 7.868 99.43 8.176C99.2393 8.46933 98.9607 8.65267 98.594 8.726C98.242 8.78467 97.912 8.71867 97.604 8.528ZM90.74 18.032C91.224 18.032 91.5687 17.922 91.774 17.702C91.9793 17.482 92.082 17.1447 92.082 16.69V16.316C91.8473 16.2573 91.6127 16.2207 91.378 16.206C91.158 16.1767 90.9453 16.162 90.74 16.162C90.2853 16.162 89.948 16.25 89.728 16.426C89.5227 16.5873 89.42 16.8147 89.42 17.108C89.42 17.3867 89.5227 17.614 89.728 17.79C89.9333 17.9513 90.2707 18.032 90.74 18.032ZM121.232 19.704C119.501 19.4547 118.071 18.956 116.942 18.208C115.813 17.4453 114.969 16.5287 114.412 15.458C113.869 14.3873 113.598 13.2727 113.598 12.114C113.598 10.9407 113.825 9.848 114.28 8.836C114.735 7.80933 115.395 6.922 116.26 6.174C115.38 6.306 114.441 6.46 113.444 6.636C112.447 6.79733 111.479 6.966 110.54 7.142C109.616 7.30333 108.802 7.45 108.098 7.582C107.731 7.64067 107.401 7.56 107.108 7.34C106.829 7.12 106.661 6.834 106.602 6.482C106.543 6.11533 106.617 5.79267 106.822 5.514C107.042 5.22067 107.335 5.04467 107.702 4.986C108.171 4.91267 108.773 4.81733 109.506 4.7C110.239 4.568 111.061 4.42867 111.97 4.282C112.879 4.13533 113.811 3.98133 114.764 3.82C115.717 3.65867 116.649 3.50467 117.558 3.358C118.482 3.19667 119.325 3.05 120.088 2.918C120.851 2.786 121.474 2.676 121.958 2.588C122.295 2.52933 122.611 2.60267 122.904 2.808C123.212 3.01333 123.395 3.28467 123.454 3.622C123.527 3.974 123.469 4.304 123.278 4.612C123.102 4.92 122.838 5.10333 122.486 5.162C121.459 5.32333 120.557 5.63867 119.78 6.108C119.003 6.56267 118.343 7.12 117.8 7.78C117.272 8.42533 116.869 9.11467 116.59 9.848C116.326 10.5667 116.194 11.278 116.194 11.982C116.194 13.4047 116.678 14.556 117.646 15.436C118.614 16.3013 119.934 16.8513 121.606 17.086C121.958 17.1447 122.244 17.3207 122.464 17.614C122.684 17.9073 122.765 18.23 122.706 18.582C122.662 18.9487 122.493 19.242 122.2 19.462C121.907 19.682 121.584 19.7627 121.232 19.704ZM124.026 10.706C123.835 10.8673 123.601 10.9333 123.322 10.904C123.058 10.8747 122.845 10.75 122.684 10.53C122.523 10.3247 122.317 10.068 122.068 9.76C121.819 9.43733 121.591 9.15867 121.386 8.924C121.254 8.76267 121.188 8.572 121.188 8.352C121.203 8.11733 121.305 7.91933 121.496 7.758C121.672 7.59667 121.87 7.52333 122.09 7.538C122.325 7.538 122.537 7.61867 122.728 7.78C122.948 7.97067 123.197 8.22 123.476 8.528C123.769 8.836 124.011 9.11467 124.202 9.364C124.363 9.56933 124.422 9.804 124.378 10.068C124.349 10.332 124.231 10.5447 124.026 10.706ZM126.138 8.814C125.947 9.00467 125.713 9.09267 125.434 9.078C125.17 9.06333 124.95 8.95333 124.774 8.748C124.598 8.54267 124.371 8.29333 124.092 8C123.828 7.70667 123.586 7.45 123.366 7.23C123.219 7.08333 123.139 6.89267 123.124 6.658C123.124 6.42333 123.212 6.218 123.388 6.042C123.549 5.88067 123.747 5.8 123.982 5.8C124.217 5.78533 124.429 5.85133 124.62 5.998C124.855 6.15933 125.126 6.38667 125.434 6.68C125.742 6.95867 125.999 7.22267 126.204 7.472C126.38 7.66267 126.461 7.89 126.446 8.154C126.431 8.40333 126.329 8.62333 126.138 8.814ZM134.212 20.914C133.86 20.914 133.559 20.7967 133.31 20.562C133.061 20.3273 132.936 20.0193 132.936 19.638V9.232C132.701 9.55467 132.467 9.86267 132.232 10.156C132.012 10.4493 131.792 10.7207 131.572 10.97C131.337 11.2487 131.037 11.4027 130.67 11.432C130.303 11.4613 129.981 11.3587 129.702 11.124C129.467 10.9187 129.335 10.6547 129.306 10.332C129.291 9.99467 129.387 9.70133 129.592 9.452C129.988 8.968 130.421 8.38867 130.89 7.714C131.374 7.03933 131.843 6.328 132.298 5.58C132.767 4.81733 133.193 4.084 133.574 3.38C133.955 2.66133 134.256 2.03067 134.476 1.488C134.623 1.15067 134.865 0.923332 135.202 0.806C135.539 0.688666 135.869 0.703332 136.192 0.849999C136.529 0.996665 136.749 1.224 136.852 1.532C136.955 1.84 136.94 2.15533 136.808 2.478C136.617 2.88867 136.412 3.32133 136.192 3.776C135.972 4.216 135.737 4.67067 135.488 5.14V9.43C135.517 9.386 135.539 9.342 135.554 9.298C135.583 9.23933 135.613 9.188 135.642 9.144C136.009 8.67467 136.397 8.11733 136.808 7.472C137.219 6.82667 137.622 6.14467 138.018 5.426C138.414 4.69267 138.773 3.98133 139.096 3.292C139.433 2.60267 139.697 1.97933 139.888 1.422C140.02 1.05533 140.233 0.798665 140.526 0.651999C140.834 0.505332 141.157 0.490666 141.494 0.607999C141.831 0.710666 142.081 0.908666 142.242 1.202C142.403 1.49533 142.418 1.82533 142.286 2.192C142.169 2.544 142.029 2.91067 141.868 3.292C141.707 3.65867 141.531 4.04 141.34 4.436H148.666C149.003 4.436 149.289 4.55333 149.524 4.788C149.773 5.02267 149.898 5.30867 149.898 5.646C149.898 5.98333 149.773 6.27667 149.524 6.526C149.289 6.76067 149.003 6.878 148.666 6.878H143.738V9.254H147.962C148.299 9.254 148.578 9.37133 148.798 9.606C149.018 9.826 149.128 10.0973 149.128 10.42C149.128 10.7427 149.018 11.0213 148.798 11.256C148.578 11.476 148.299 11.586 147.962 11.586H143.738V13.94H147.962C148.299 13.94 148.585 14.0573 148.82 14.292C149.069 14.5267 149.194 14.8127 149.194 15.15C149.194 15.4873 149.069 15.7807 148.82 16.03C148.585 16.2647 148.299 16.382 147.962 16.382H143.738V19.55C143.738 19.946 143.606 20.2613 143.342 20.496C143.093 20.7307 142.785 20.848 142.418 20.848C142.051 20.848 141.743 20.7307 141.494 20.496C141.245 20.2613 141.12 19.946 141.12 19.55V6.878H140.086C139.69 7.56733 139.287 8.23467 138.876 8.88C138.465 9.51067 138.069 10.0753 137.688 10.574C137.468 10.8527 137.175 11.0213 136.808 11.08C136.456 11.124 136.133 11.0433 135.84 10.838C135.679 10.7207 135.561 10.5667 135.488 10.376V19.638C135.488 20.0193 135.363 20.3273 135.114 20.562C134.865 20.7967 134.564 20.914 134.212 20.914ZM163.296 20.166C162.929 20.1807 162.614 20.0633 162.35 19.814C162.086 19.5647 161.939 19.2567 161.91 18.89C161.895 18.5233 162.013 18.208 162.262 17.944C162.511 17.6653 162.819 17.5187 163.186 17.504C164.931 17.4307 166.288 17.0713 167.256 16.426C168.224 15.7807 168.708 14.842 168.708 13.61C168.708 12.5247 168.253 11.7693 167.344 11.344C166.86 11.1093 166.273 10.992 165.584 10.992C164.909 10.9773 164.176 11.124 163.384 11.432C162.607 11.7253 161.822 12.224 161.03 12.928C160.619 13.28 160.201 13.6467 159.776 14.028C159.351 14.4093 158.947 14.7613 158.566 15.084C158.287 15.3187 157.965 15.4213 157.598 15.392C157.246 15.3627 156.953 15.2087 156.718 14.93C156.483 14.6367 156.381 14.314 156.41 13.962C156.454 13.5953 156.615 13.302 156.894 13.082C157.51 12.5833 158.163 12.026 158.852 11.41C159.556 10.794 160.253 10.156 160.942 9.496C161.631 8.836 162.269 8.19067 162.856 7.56C163.457 6.91467 163.971 6.32067 164.396 5.778C164.821 5.22067 164.968 4.80267 164.836 4.524C164.704 4.24533 164.279 4.13533 163.56 4.194C163.413 4.20867 163.186 4.23067 162.878 4.26C162.585 4.28933 162.269 4.326 161.932 4.37C161.595 4.414 161.294 4.45067 161.03 4.48C160.781 4.50933 160.619 4.53133 160.546 4.546C160.179 4.59 159.857 4.502 159.578 4.282C159.299 4.04733 159.138 3.74667 159.094 3.38C159.05 3.01333 159.138 2.69067 159.358 2.412C159.593 2.13333 159.886 1.972 160.238 1.928C160.473 1.89867 160.788 1.86933 161.184 1.84C161.595 1.81067 162.02 1.78133 162.46 1.752C162.9 1.708 163.274 1.67867 163.582 1.664C164.579 1.59067 165.401 1.69333 166.046 1.972C166.706 2.25067 167.175 2.654 167.454 3.182C167.733 3.69533 167.806 4.28933 167.674 4.964C167.557 5.624 167.212 6.29867 166.64 6.988C166.42 7.26667 166.127 7.61133 165.76 8.022C165.408 8.418 165.1 8.76267 164.836 9.056C165.437 8.82133 166.075 8.726 166.75 8.77C167.439 8.814 168.033 8.93867 168.532 9.144C169.397 9.51067 170.079 10.0753 170.578 10.838C171.091 11.586 171.348 12.51 171.348 13.61C171.348 15.5753 170.644 17.1373 169.236 18.296C167.828 19.44 165.848 20.0633 163.296 20.166ZM189.036 20.54C188.757 20.7747 188.427 20.8847 188.046 20.87C187.679 20.87 187.371 20.7307 187.122 20.452C186.887 20.1733 186.77 19.8507 186.77 19.484C186.785 19.1173 186.931 18.8167 187.21 18.582C188.383 17.5553 189.271 16.4407 189.872 15.238C190.488 14.0353 190.796 12.6933 190.796 11.212C190.796 10.2293 190.532 9.51067 190.004 9.056C189.491 8.60133 188.809 8.374 187.958 8.374C187.327 8.374 186.682 8.528 186.022 8.836C185.377 9.12933 184.753 9.55467 184.152 10.112C183.873 10.3467 183.551 10.4567 183.184 10.442C182.832 10.4127 182.531 10.2587 182.282 9.98C182.047 9.70133 181.945 9.386 181.974 9.034C182.003 8.66733 182.15 8.36667 182.414 8.132C183.265 7.35467 184.167 6.79 185.12 6.438C186.073 6.07133 187.019 5.888 187.958 5.888C188.999 5.888 189.931 6.086 190.752 6.482C191.573 6.86333 192.219 7.45 192.688 8.242C193.172 9.01933 193.414 10.0093 193.414 11.212C193.414 13.0747 193.025 14.8053 192.248 16.404C191.471 18.0027 190.4 19.3813 189.036 20.54ZM190.664 5.074C190.019 4.898 189.344 4.7 188.64 4.48C187.936 4.24533 187.254 3.996 186.594 3.732C185.934 3.468 185.355 3.21867 184.856 2.984C184.533 2.82267 184.313 2.57333 184.196 2.236C184.079 1.884 184.101 1.54667 184.262 1.224C184.423 0.886666 184.68 0.666666 185.032 0.563999C185.399 0.461332 185.743 0.490666 186.066 0.651999C186.799 0.974666 187.635 1.312 188.574 1.664C189.513 2.00133 190.429 2.28733 191.324 2.522C191.676 2.61 191.94 2.81533 192.116 3.138C192.307 3.446 192.358 3.776 192.27 4.128C192.182 4.48 191.977 4.75133 191.654 4.942C191.346 5.118 191.016 5.162 190.664 5.074ZM212.4 14.974C212.107 14.974 211.85 14.8713 211.63 14.666C211.41 14.4607 211.285 14.204 211.256 13.896C211.212 13.3387 211.168 12.7007 211.124 11.982C211.095 11.2633 211.058 10.53 211.014 9.782C210.97 9.01933 210.933 8.29333 210.904 7.604C210.875 6.91467 210.853 6.306 210.838 5.778C210.823 5.25 210.816 4.86133 210.816 4.612V2.434C210.816 2.00867 210.963 1.64933 211.256 1.356C211.564 1.06267 211.945 0.915999 212.4 0.915999C212.869 0.915999 213.251 1.06267 213.544 1.356C213.852 1.64933 214.006 2.00867 214.006 2.434V4.612C214.006 4.86133 213.991 5.25 213.962 5.778C213.947 6.306 213.925 6.91467 213.896 7.604C213.867 8.29333 213.83 9.01933 213.786 9.782C213.757 10.53 213.72 11.2633 213.676 11.982C213.632 12.7007 213.588 13.3387 213.544 13.896C213.529 14.204 213.412 14.4607 213.192 14.666C212.972 14.8713 212.708 14.974 212.4 14.974ZM212.4 20.342C211.887 20.342 211.447 20.1587 211.08 19.792C210.713 19.4253 210.53 18.9853 210.53 18.472C210.53 17.9587 210.713 17.5187 211.08 17.152C211.447 16.7853 211.887 16.602 212.4 16.602C212.913 16.602 213.353 16.7853 213.72 17.152C214.087 17.5187 214.27 17.9587 214.27 18.472C214.27 18.9853 214.087 19.4253 213.72 19.792C213.353 20.1587 212.913 20.342 212.4 20.342ZM238.47 20.276C236.945 20.276 235.852 19.9753 235.192 19.374C234.547 18.7873 234.224 17.7607 234.224 16.294V12.532C234.224 11.08 234.547 10.0533 235.192 9.452C235.852 8.85067 236.945 8.55 238.47 8.55H241.682C243.207 8.55 244.293 8.85067 244.938 9.452C245.598 10.0533 245.928 11.08 245.928 12.532V16.294C245.928 17.7607 245.598 18.7873 244.938 19.374C244.293 19.9753 243.207 20.276 241.682 20.276H238.47ZM229.208 20.606C228.783 20.65 228.423 20.5767 228.13 20.386C227.837 20.21 227.653 19.946 227.58 19.594C227.507 19.198 227.565 18.8533 227.756 18.56C227.947 18.2667 228.233 18.1053 228.614 18.076C229.157 18.0173 229.589 17.8853 229.912 17.68C230.235 17.4747 230.469 17.1007 230.616 16.558C230.777 16.0007 230.858 15.1867 230.858 14.116C230.858 13.4267 230.836 12.7887 230.792 12.202C230.469 12.6713 230.132 13.1333 229.78 13.588C229.443 14.0427 229.12 14.4387 228.812 14.776C228.577 15.04 228.284 15.194 227.932 15.238C227.595 15.282 227.279 15.1867 226.986 14.952C226.722 14.7467 226.583 14.4827 226.568 14.16C226.553 13.8373 226.656 13.5587 226.876 13.324C227.257 12.9133 227.661 12.444 228.086 11.916C228.511 11.3733 228.915 10.8233 229.296 10.266C229.692 9.70867 230.015 9.20267 230.264 8.748C230.191 8.45467 230.103 8.176 230 7.912C229.912 7.63333 229.817 7.362 229.714 7.098C229.318 7.50867 228.937 7.89 228.57 8.242C228.321 8.47667 228.027 8.594 227.69 8.594C227.353 8.594 227.059 8.47667 226.81 8.242C226.575 8.00733 226.458 7.72867 226.458 7.406C226.473 7.06867 226.597 6.79733 226.832 6.592C227.389 6.09333 227.961 5.52133 228.548 4.876C228.328 4.53867 228.093 4.20133 227.844 3.864C227.595 3.512 227.331 3.16733 227.052 2.83C226.861 2.58067 226.795 2.30933 226.854 2.016C226.927 1.72267 227.089 1.488 227.338 1.312C227.587 1.136 227.866 1.07 228.174 1.114C228.482 1.14333 228.739 1.28267 228.944 1.532C229.355 2.00133 229.736 2.49267 230.088 3.006C230.293 2.72733 230.484 2.456 230.66 2.192C230.851 1.91333 231.019 1.64933 231.166 1.4C231.357 1.07733 231.606 0.871999 231.914 0.783998C232.237 0.681332 232.552 0.717999 232.86 0.894C233.153 1.05533 233.337 1.29 233.41 1.598C233.483 1.906 233.439 2.20667 233.278 2.5C233.043 2.91067 232.757 3.35067 232.42 3.82C232.097 4.27467 231.753 4.72933 231.386 5.184C232.002 6.416 232.457 7.758 232.75 9.21C233.058 10.6473 233.212 12.2827 233.212 14.116C233.212 15.7587 233.058 17.0347 232.75 17.944C232.442 18.8387 231.987 19.4767 231.386 19.858C230.799 20.254 230.073 20.5033 229.208 20.606ZM237.546 8.154C237.209 8.154 236.915 8.05133 236.666 7.846C236.417 7.64067 236.292 7.34 236.292 6.944V5.58H233.982C233.645 5.58 233.373 5.47733 233.168 5.272C232.977 5.052 232.882 4.788 232.882 4.48C232.882 4.172 232.977 3.91533 233.168 3.71C233.373 3.49 233.645 3.38 233.982 3.38H236.292V1.752C236.292 1.34133 236.417 1.04067 236.666 0.849999C236.915 0.644666 237.209 0.541999 237.546 0.541999C237.883 0.541999 238.169 0.644666 238.404 0.849999C238.653 1.04067 238.778 1.34133 238.778 1.752V3.38H241.088V1.752C241.088 1.34133 241.213 1.04067 241.462 0.849999C241.711 0.644666 241.997 0.541999 242.32 0.541999C242.657 0.541999 242.943 0.644666 243.178 0.849999C243.427 1.04067 243.552 1.34133 243.552 1.752V3.38H245.928C246.265 3.38 246.529 3.49 246.72 3.71C246.925 3.91533 247.028 4.172 247.028 4.48C247.028 4.788 246.925 5.052 246.72 5.272C246.529 5.47733 246.265 5.58 245.928 5.58H243.552V6.944C243.552 7.34 243.427 7.64067 243.178 7.846C242.943 8.05133 242.657 8.154 242.32 8.154C241.997 8.154 241.711 8.05133 241.462 7.846C241.213 7.64067 241.088 7.34 241.088 6.944V5.58H238.778V6.944C238.778 7.34 238.653 7.64067 238.404 7.846C238.169 8.05133 237.883 8.154 237.546 8.154ZM241.22 13.302H243.442V12.554C243.442 12.0847 243.391 11.7327 243.288 11.498C243.185 11.2633 242.995 11.102 242.716 11.014C242.452 10.926 242.049 10.882 241.506 10.882H241.22V13.302ZM236.71 13.302H238.932V10.882H238.646C238.118 10.882 237.715 10.926 237.436 11.014C237.157 11.102 236.967 11.2633 236.864 11.498C236.761 11.7327 236.71 12.0847 236.71 12.554V13.302ZM241.22 17.966H241.506C242.049 17.966 242.452 17.922 242.716 17.834C242.995 17.746 243.185 17.5773 243.288 17.328C243.391 17.0787 243.442 16.7267 243.442 16.272V15.546H241.22V17.966ZM238.646 17.966H238.932V15.546H236.71V16.272C236.71 16.9613 236.835 17.416 237.084 17.636C237.333 17.856 237.854 17.966 238.646 17.966ZM254.662 19.352C254.295 19.4107 253.965 19.3373 253.672 19.132C253.379 18.9267 253.195 18.648 253.122 18.296C252.99 17.548 252.887 16.6827 252.814 15.7C252.741 14.7027 252.704 13.654 252.704 12.554C252.704 11.454 252.733 10.3467 252.792 9.232C252.851 8.11733 252.939 7.054 253.056 6.042C253.188 5.01533 253.342 4.09867 253.518 3.292C253.591 2.94 253.782 2.66867 254.09 2.478C254.398 2.27267 254.728 2.20667 255.08 2.28C255.432 2.368 255.703 2.566 255.894 2.874C256.099 3.16733 256.165 3.49733 256.092 3.864C255.857 4.90533 255.674 6.03467 255.542 7.252C255.41 8.46933 255.322 9.70867 255.278 10.97C255.249 12.2167 255.271 13.434 255.344 14.622C255.417 15.7953 255.542 16.866 255.718 17.834C255.791 18.186 255.718 18.5087 255.498 18.802C255.293 19.0953 255.014 19.2787 254.662 19.352ZM263.682 18.164C261.775 18.164 260.353 17.8193 259.414 17.13C258.49 16.4407 257.933 15.4287 257.742 14.094C257.683 13.742 257.757 13.4193 257.962 13.126C258.182 12.8327 258.475 12.6567 258.842 12.598C259.194 12.554 259.517 12.642 259.81 12.862C260.103 13.0673 260.279 13.3533 260.338 13.72C260.426 14.3507 260.727 14.82 261.24 15.128C261.753 15.436 262.589 15.59 263.748 15.59C264.848 15.59 266.175 15.4213 267.73 15.084C268.082 14.996 268.412 15.0547 268.72 15.26C269.028 15.4653 269.219 15.744 269.292 16.096C269.365 16.448 269.299 16.778 269.094 17.086C268.889 17.3793 268.61 17.57 268.258 17.658C267.466 17.8487 266.674 17.9807 265.882 18.054C265.105 18.1273 264.371 18.164 263.682 18.164ZM259.656 7.274C259.304 7.34733 258.974 7.28867 258.666 7.098C258.373 6.89267 258.189 6.60667 258.116 6.24C258.043 5.888 258.101 5.558 258.292 5.25C258.497 4.942 258.783 4.75867 259.15 4.7C259.971 4.53867 260.888 4.436 261.9 4.392C262.912 4.33333 263.917 4.326 264.914 4.37C265.911 4.39933 266.791 4.48 267.554 4.612C267.921 4.67067 268.207 4.854 268.412 5.162C268.617 5.45533 268.683 5.78533 268.61 6.152C268.551 6.51867 268.368 6.80467 268.06 7.01C267.767 7.20067 267.444 7.26667 267.092 7.208C265.904 7.00267 264.672 6.90733 263.396 6.922C262.12 6.922 260.873 7.03933 259.656 7.274ZM281.788 20.078C280.512 20.078 279.522 19.748 278.818 19.088C278.129 18.4427 277.784 17.614 277.784 16.602C277.784 15.6193 278.143 14.8053 278.862 14.16C279.595 13.5 280.673 13.17 282.096 13.17C282.345 13.17 282.602 13.1847 282.866 13.214C283.13 13.2287 283.401 13.2507 283.68 13.28C283.636 12.4587 283.577 11.5713 283.504 10.618C283.445 9.65 283.379 8.682 283.306 7.714C283.247 6.73133 283.196 5.80733 283.152 4.942C283.123 4.062 283.108 3.29933 283.108 2.654C283.108 2.28733 283.233 1.97933 283.482 1.73C283.746 1.48067 284.061 1.356 284.428 1.356C284.795 1.356 285.103 1.48067 285.352 1.73C285.616 1.97933 285.748 2.28733 285.748 2.654C285.748 3.07933 285.755 3.6 285.77 4.216C285.799 4.81733 285.836 5.47 285.88 6.174C286.305 6.11533 286.775 6.042 287.288 5.954C287.816 5.85133 288.337 5.74867 288.85 5.646C289.363 5.52867 289.818 5.41867 290.214 5.316C290.581 5.21333 290.918 5.25733 291.226 5.448C291.549 5.63867 291.754 5.91 291.842 6.262C291.945 6.614 291.901 6.95867 291.71 7.296C291.534 7.61867 291.263 7.81667 290.896 7.89C290.177 8.05133 289.371 8.20533 288.476 8.352C287.581 8.49867 286.76 8.60867 286.012 8.682C286.071 9.59133 286.129 10.4933 286.188 11.388C286.247 12.2827 286.298 13.0967 286.342 13.83C287.339 14.1087 288.322 14.4533 289.29 14.864C290.258 15.2747 291.109 15.7293 291.842 16.228C292.135 16.4333 292.311 16.7193 292.37 17.086C292.443 17.4527 292.377 17.79 292.172 18.098C291.967 18.3913 291.681 18.5747 291.314 18.648C290.947 18.7067 290.617 18.6333 290.324 18.428C289.18 17.6507 287.882 16.998 286.43 16.47C286.371 17.5847 285.946 18.4647 285.154 19.11C284.377 19.7553 283.255 20.078 281.788 20.078ZM281.788 17.548C282.463 17.548 282.961 17.4307 283.284 17.196C283.621 16.9613 283.79 16.5873 283.79 16.074V15.788C283.497 15.7293 283.203 15.6927 282.91 15.678C282.617 15.6487 282.323 15.634 282.03 15.634C281.473 15.634 281.062 15.7293 280.798 15.92C280.549 16.096 280.424 16.3233 280.424 16.602C280.424 16.866 280.534 17.0933 280.754 17.284C280.989 17.46 281.333 17.548 281.788 17.548ZM309.134 19.946C307.799 19.9167 306.743 19.594 305.966 18.978C305.203 18.362 304.837 17.5187 304.866 16.448C304.895 15.8173 305.071 15.2673 305.394 14.798C305.731 14.3287 306.186 13.9767 306.758 13.742C307.33 13.4927 307.983 13.4047 308.716 13.478C309.889 13.5807 310.711 13.984 311.18 14.688C311.649 15.3773 311.789 16.1693 311.598 17.064C312.111 16.8147 312.529 16.4553 312.852 15.986C313.189 15.502 313.358 14.8787 313.358 14.116C313.358 13.544 313.189 13.0307 312.852 12.576C312.529 12.1067 312.067 11.7473 311.466 11.498C310.879 11.234 310.197 11.124 309.42 11.168C308.643 11.212 307.807 11.4467 306.912 11.872C306.017 12.2827 305.101 12.9427 304.162 13.852C303.898 14.1013 303.568 14.226 303.172 14.226C302.776 14.2113 302.453 14.0573 302.204 13.764C301.969 13.4853 301.859 13.17 301.874 12.818C301.903 12.4513 302.057 12.1653 302.336 11.96C303.245 11.2707 304.155 10.5447 305.064 9.782C305.973 9.00467 306.839 8.242 307.66 7.494C308.496 6.746 309.229 6.064 309.86 5.448C310.256 5.06667 310.388 4.75133 310.256 4.502C310.139 4.25267 309.823 4.16467 309.31 4.238C308.811 4.29667 308.239 4.37 307.594 4.458C306.963 4.546 306.369 4.62667 305.812 4.7C305.46 4.75867 305.137 4.678 304.844 4.458C304.551 4.238 304.382 3.94467 304.338 3.578C304.279 3.226 304.36 2.91067 304.58 2.632C304.8 2.33867 305.093 2.16267 305.46 2.104C305.783 2.06 306.186 2.016 306.67 1.972C307.169 1.928 307.675 1.884 308.188 1.84C308.716 1.796 309.163 1.75933 309.53 1.73C310.483 1.65667 311.261 1.78133 311.862 2.104C312.463 2.42667 312.874 2.86667 313.094 3.424C313.314 3.96667 313.321 4.56067 313.116 5.206C312.925 5.85133 312.507 6.46 311.862 7.032C311.569 7.28133 311.195 7.604 310.74 8C310.3 8.396 309.845 8.79933 309.376 9.21C310.212 9.04867 311.026 9.04133 311.818 9.188C312.61 9.32 313.314 9.59867 313.93 10.024C314.561 10.4493 315.059 11.014 315.426 11.718C315.793 12.4073 315.976 13.2213 315.976 14.16C315.976 15.4947 315.683 16.602 315.096 17.482C314.509 18.3473 313.703 18.978 312.676 19.374C311.649 19.7847 310.469 19.9753 309.134 19.946ZM308.738 17.504C308.767 17.504 308.811 17.504 308.87 17.504C308.914 17.504 308.965 17.5113 309.024 17.526C309.097 17.526 309.178 17.5187 309.266 17.504C309.471 17.02 309.508 16.6167 309.376 16.294C309.244 15.9713 308.98 15.7807 308.584 15.722C308.232 15.678 307.939 15.7293 307.704 15.876C307.484 16.008 307.359 16.228 307.33 16.536C307.315 17.1227 307.785 17.4453 308.738 17.504ZM329.198 19.88C328.919 20.1147 328.597 20.21 328.23 20.166C327.863 20.1367 327.555 19.9827 327.306 19.704C327.086 19.44 326.793 19.1173 326.426 18.736C326.059 18.34 325.678 17.9513 325.282 17.57C324.901 17.174 324.563 16.8513 324.27 16.602C324.035 16.382 323.896 16.1033 323.852 15.766C323.823 15.414 323.925 15.1133 324.16 14.864C324.409 14.6147 324.695 14.4753 325.018 14.446C325.355 14.4167 325.663 14.5047 325.942 14.71C326.265 14.9593 326.639 15.282 327.064 15.678C327.504 16.074 327.929 16.4847 328.34 16.91C328.765 17.3207 329.103 17.68 329.352 17.988C329.601 18.2667 329.711 18.5893 329.682 18.956C329.653 19.3227 329.491 19.6307 329.198 19.88ZM359.47 20.276C357.945 20.276 356.852 19.9753 356.192 19.374C355.547 18.7873 355.224 17.7607 355.224 16.294V12.532C355.224 11.08 355.547 10.0533 356.192 9.452C356.852 8.85067 357.945 8.55 359.47 8.55H362.682C364.207 8.55 365.293 8.85067 365.938 9.452C366.598 10.0533 366.928 11.08 366.928 12.532V16.294C366.928 17.7607 366.598 18.7873 365.938 19.374C365.293 19.9753 364.207 20.276 362.682 20.276H359.47ZM350.208 20.606C349.783 20.65 349.423 20.5767 349.13 20.386C348.837 20.21 348.653 19.946 348.58 19.594C348.507 19.198 348.565 18.8533 348.756 18.56C348.947 18.2667 349.233 18.1053 349.614 18.076C350.157 18.0173 350.589 17.8853 350.912 17.68C351.235 17.4747 351.469 17.1007 351.616 16.558C351.777 16.0007 351.858 15.1867 351.858 14.116C351.858 13.4267 351.836 12.7887 351.792 12.202C351.469 12.6713 351.132 13.1333 350.78 13.588C350.443 14.0427 350.12 14.4387 349.812 14.776C349.577 15.04 349.284 15.194 348.932 15.238C348.595 15.282 348.279 15.1867 347.986 14.952C347.722 14.7467 347.583 14.4827 347.568 14.16C347.553 13.8373 347.656 13.5587 347.876 13.324C348.257 12.9133 348.661 12.444 349.086 11.916C349.511 11.3733 349.915 10.8233 350.296 10.266C350.692 9.70867 351.015 9.20267 351.264 8.748C351.191 8.45467 351.103 8.176 351 7.912C350.912 7.63333 350.817 7.362 350.714 7.098C350.318 7.50867 349.937 7.89 349.57 8.242C349.321 8.47667 349.027 8.594 348.69 8.594C348.353 8.594 348.059 8.47667 347.81 8.242C347.575 8.00733 347.458 7.72867 347.458 7.406C347.473 7.06867 347.597 6.79733 347.832 6.592C348.389 6.09333 348.961 5.52133 349.548 4.876C349.328 4.53867 349.093 4.20133 348.844 3.864C348.595 3.512 348.331 3.16733 348.052 2.83C347.861 2.58067 347.795 2.30933 347.854 2.016C347.927 1.72267 348.089 1.488 348.338 1.312C348.587 1.136 348.866 1.07 349.174 1.114C349.482 1.14333 349.739 1.28267 349.944 1.532C350.355 2.00133 350.736 2.49267 351.088 3.006C351.293 2.72733 351.484 2.456 351.66 2.192C351.851 1.91333 352.019 1.64933 352.166 1.4C352.357 1.07733 352.606 0.871999 352.914 0.783998C353.237 0.681332 353.552 0.717999 353.86 0.894C354.153 1.05533 354.337 1.29 354.41 1.598C354.483 1.906 354.439 2.20667 354.278 2.5C354.043 2.91067 353.757 3.35067 353.42 3.82C353.097 4.27467 352.753 4.72933 352.386 5.184C353.002 6.416 353.457 7.758 353.75 9.21C354.058 10.6473 354.212 12.2827 354.212 14.116C354.212 15.7587 354.058 17.0347 353.75 17.944C353.442 18.8387 352.987 19.4767 352.386 19.858C351.799 20.254 351.073 20.5033 350.208 20.606ZM358.546 8.154C358.209 8.154 357.915 8.05133 357.666 7.846C357.417 7.64067 357.292 7.34 357.292 6.944V5.58H354.982C354.645 5.58 354.373 5.47733 354.168 5.272C353.977 5.052 353.882 4.788 353.882 4.48C353.882 4.172 353.977 3.91533 354.168 3.71C354.373 3.49 354.645 3.38 354.982 3.38H357.292V1.752C357.292 1.34133 357.417 1.04067 357.666 0.849999C357.915 0.644666 358.209 0.541999 358.546 0.541999C358.883 0.541999 359.169 0.644666 359.404 0.849999C359.653 1.04067 359.778 1.34133 359.778 1.752V3.38H362.088V1.752C362.088 1.34133 362.213 1.04067 362.462 0.849999C362.711 0.644666 362.997 0.541999 363.32 0.541999C363.657 0.541999 363.943 0.644666 364.178 0.849999C364.427 1.04067 364.552 1.34133 364.552 1.752V3.38H366.928C367.265 3.38 367.529 3.49 367.72 3.71C367.925 3.91533 368.028 4.172 368.028 4.48C368.028 4.788 367.925 5.052 367.72 5.272C367.529 5.47733 367.265 5.58 366.928 5.58H364.552V6.944C364.552 7.34 364.427 7.64067 364.178 7.846C363.943 8.05133 363.657 8.154 363.32 8.154C362.997 8.154 362.711 8.05133 362.462 7.846C362.213 7.64067 362.088 7.34 362.088 6.944V5.58H359.778V6.944C359.778 7.34 359.653 7.64067 359.404 7.846C359.169 8.05133 358.883 8.154 358.546 8.154ZM362.22 13.302H364.442V12.554C364.442 12.0847 364.391 11.7327 364.288 11.498C364.185 11.2633 363.995 11.102 363.716 11.014C363.452 10.926 363.049 10.882 362.506 10.882H362.22V13.302ZM357.71 13.302H359.932V10.882H359.646C359.118 10.882 358.715 10.926 358.436 11.014C358.157 11.102 357.967 11.2633 357.864 11.498C357.761 11.7327 357.71 12.0847 357.71 12.554V13.302ZM362.22 17.966H362.506C363.049 17.966 363.452 17.922 363.716 17.834C363.995 17.746 364.185 17.5773 364.288 17.328C364.391 17.0787 364.442 16.7267 364.442 16.272V15.546H362.22V17.966ZM359.646 17.966H359.932V15.546H357.71V16.272C357.71 16.9613 357.835 17.416 358.084 17.636C358.333 17.856 358.854 17.966 359.646 17.966ZM384.154 18.934C383.787 19.022 383.443 18.9707 383.12 18.78C382.797 18.5893 382.592 18.318 382.504 17.966C382.416 17.614 382.467 17.284 382.658 16.976C382.849 16.6533 383.12 16.448 383.472 16.36C385.1 15.9347 386.295 15.2453 387.058 14.292C387.835 13.3387 388.224 12.1287 388.224 10.662C388.224 9.738 388.019 8.90933 387.608 8.176C387.197 7.44267 386.611 6.84867 385.848 6.394C385.1 5.93933 384.198 5.66067 383.142 5.558C382.878 8.022 382.431 10.156 381.8 11.96C381.184 13.7493 380.451 15.1353 379.6 16.118C378.764 17.086 377.884 17.57 376.96 17.57C376.183 17.57 375.471 17.3427 374.826 16.888C374.181 16.4333 373.667 15.7807 373.286 14.93C372.919 14.0793 372.736 13.06 372.736 11.872C372.736 10.6547 372.963 9.518 373.418 8.462C373.887 7.39133 374.547 6.45267 375.398 5.646C376.249 4.83933 377.246 4.20867 378.39 3.754C379.549 3.29933 380.817 3.072 382.196 3.072C383.868 3.072 385.349 3.39467 386.64 4.04C387.945 4.67067 388.972 5.558 389.72 6.702C390.468 7.83133 390.842 9.15133 390.842 10.662C390.842 12.7887 390.27 14.5633 389.126 15.986C387.997 17.394 386.339 18.3767 384.154 18.934ZM376.982 14.864C377.246 14.864 377.547 14.644 377.884 14.204C378.236 13.7493 378.588 13.1113 378.94 12.29C379.292 11.4687 379.615 10.5007 379.908 9.386C380.201 8.25667 380.421 7.01 380.568 5.646C379.424 5.866 378.463 6.29133 377.686 6.922C376.909 7.538 376.322 8.27867 375.926 9.144C375.53 9.99467 375.325 10.8893 375.31 11.828C375.31 12.8253 375.464 13.5807 375.772 14.094C376.095 14.6073 376.498 14.864 376.982 14.864ZM398.058 19.704C397.735 19.5133 397.53 19.242 397.442 18.89C397.369 18.538 397.427 18.208 397.618 17.9C398.19 16.976 398.696 15.9567 399.136 14.842C399.576 13.7273 399.95 12.5687 400.258 11.366C400.581 10.1633 400.837 8.98267 401.028 7.824C400.603 7.868 400.185 7.90467 399.774 7.934C399.378 7.96333 399.004 7.99267 398.652 8.022C398.285 8.03667 397.963 7.934 397.684 7.714C397.42 7.47933 397.273 7.17867 397.244 6.812C397.229 6.44533 397.339 6.13 397.574 5.866C397.809 5.58733 398.109 5.44067 398.476 5.426C398.901 5.39667 399.356 5.36733 399.84 5.338C400.339 5.30867 400.837 5.26467 401.336 5.206C401.38 4.70733 401.409 4.23067 401.424 3.776C401.439 3.32133 401.439 2.88867 401.424 2.478C401.409 2.11133 401.519 1.796 401.754 1.532C402.003 1.268 402.311 1.12867 402.678 1.114C403.045 1.09933 403.36 1.21667 403.624 1.466C403.888 1.70067 404.027 2.00133 404.042 2.368C404.057 2.73467 404.057 3.13067 404.042 3.556C404.027 3.96667 403.998 4.40667 403.954 4.876C404.614 4.75867 405.208 4.64867 405.736 4.546C406.088 4.47267 406.418 4.53133 406.726 4.722C407.034 4.91267 407.225 5.184 407.298 5.536C407.371 5.90267 407.305 6.23267 407.1 6.526C406.909 6.81933 406.638 7.00267 406.286 7.076C405.919 7.14933 405.509 7.22267 405.054 7.296C404.614 7.36933 404.145 7.44267 403.646 7.516C403.441 8.85067 403.162 10.2367 402.81 11.674C402.458 13.0967 402.033 14.468 401.534 15.788C401.05 17.0933 400.493 18.252 399.862 19.264C399.671 19.572 399.4 19.77 399.048 19.858C398.696 19.946 398.366 19.8947 398.058 19.704ZM413.37 19.22C411.185 19.7187 409.307 19.7333 407.738 19.264C406.183 18.7947 405.069 17.9293 404.394 16.668C404.233 16.3453 404.196 16.0153 404.284 15.678C404.387 15.326 404.599 15.062 404.922 14.886C405.245 14.71 405.575 14.6733 405.912 14.776C406.264 14.8787 406.528 15.0913 406.704 15.414C407.144 16.1913 407.885 16.6753 408.926 16.866C409.967 17.0567 411.265 16.9833 412.82 16.646C413.187 16.5727 413.517 16.6387 413.81 16.844C414.118 17.0347 414.309 17.306 414.382 17.658C414.455 18.0247 414.389 18.362 414.184 18.67C413.993 18.9633 413.722 19.1467 413.37 19.22ZM412.292 10.816C411.793 10.6987 411.221 10.618 410.576 10.574C409.945 10.53 409.3 10.5227 408.64 10.552C407.995 10.5667 407.386 10.6253 406.814 10.728C406.462 10.7867 406.139 10.7207 405.846 10.53C405.567 10.3247 405.391 10.0533 405.318 9.716C405.245 9.364 405.303 9.04133 405.494 8.748C405.699 8.44 405.978 8.25667 406.33 8.198C407.019 8.08067 407.745 8.00733 408.508 7.978C409.285 7.94867 410.055 7.96333 410.818 8.022C411.581 8.066 412.277 8.16133 412.908 8.308C413.26 8.38133 413.524 8.572 413.7 8.88C413.891 9.188 413.942 9.518 413.854 9.87C413.781 10.2073 413.59 10.4713 413.282 10.662C412.974 10.838 412.644 10.8893 412.292 10.816ZM431.674 19.088C431.307 19.1027 430.985 19 430.706 18.78C430.442 18.5453 430.295 18.2447 430.266 17.878C430.237 17.5113 430.339 17.1887 430.574 16.91C430.809 16.6313 431.109 16.4847 431.476 16.47C433.075 16.3527 434.299 15.9127 435.15 15.15C436.015 14.3727 436.448 13.302 436.448 11.938C436.448 11.0287 436.162 10.2367 435.59 9.562C435.018 8.87267 434.233 8.38133 433.236 8.088C432.664 9.73067 431.945 11.1973 431.08 12.488C431.212 12.5907 431.344 12.6933 431.476 12.796C431.608 12.8987 431.733 12.994 431.85 13.082C432.143 13.2873 432.319 13.5733 432.378 13.94C432.451 14.292 432.385 14.622 432.18 14.93C431.975 15.2233 431.689 15.4067 431.322 15.48C430.97 15.5387 430.647 15.458 430.354 15.238C430.046 15.018 429.738 14.776 429.43 14.512C429.019 14.9373 428.579 15.326 428.11 15.678C427.641 16.03 427.149 16.3527 426.636 16.646C425.727 17.1447 424.847 17.3647 423.996 17.306C423.16 17.2473 422.478 16.9247 421.95 16.338C421.422 15.7367 421.158 14.9007 421.158 13.83C421.158 12.5833 421.429 11.4467 421.972 10.42C422.515 9.37867 423.233 8.484 424.128 7.736C423.541 6.69467 423.072 5.70467 422.72 4.766C422.588 4.42867 422.603 4.09867 422.764 3.776C422.94 3.43867 423.197 3.21133 423.534 3.094C423.871 2.97667 424.201 2.99867 424.524 3.16C424.861 3.32133 425.089 3.57067 425.206 3.908C425.338 4.304 425.492 4.70733 425.668 5.118C425.859 5.52867 426.064 5.94667 426.284 6.372C427.003 6.03467 427.758 5.778 428.55 5.602C429.357 5.426 430.171 5.338 430.992 5.338H431.322C431.425 4.95667 431.513 4.568 431.586 4.172C431.674 3.776 431.755 3.37267 431.828 2.962C431.887 2.59533 432.063 2.30933 432.356 2.104C432.649 1.884 432.979 1.81067 433.346 1.884C433.698 1.94267 433.977 2.11867 434.182 2.412C434.402 2.70533 434.483 3.03533 434.424 3.402C434.365 3.798 434.292 4.18667 434.204 4.568C434.116 4.94933 434.028 5.33067 433.94 5.712C435.524 6.152 436.771 6.922 437.68 8.022C438.589 9.10733 439.044 10.4127 439.044 11.938C439.044 13.302 438.751 14.5047 438.164 15.546C437.577 16.5727 436.734 17.394 435.634 18.01C434.549 18.6113 433.229 18.9707 431.674 19.088ZM425.382 14.446C426.203 14.006 426.959 13.4267 427.648 12.708C426.856 11.7987 426.123 10.8453 425.448 9.848C424.304 10.992 423.732 12.2827 423.732 13.72C423.732 14.1747 423.879 14.4827 424.172 14.644C424.465 14.7907 424.869 14.7247 425.382 14.446ZM429.232 10.64C429.481 10.2147 429.723 9.76733 429.958 9.298C430.193 8.814 430.405 8.30067 430.596 7.758C430.024 7.78733 429.481 7.86067 428.968 7.978C428.469 8.09533 428 8.24933 427.56 8.44C428.059 9.20267 428.616 9.936 429.232 10.64ZM456.754 18.934C456.387 19.022 456.043 18.9707 455.72 18.78C455.397 18.5893 455.192 18.318 455.104 17.966C455.016 17.614 455.067 17.284 455.258 16.976C455.449 16.6533 455.72 16.448 456.072 16.36C457.7 15.9347 458.895 15.2453 459.658 14.292C460.435 13.3387 460.824 12.1287 460.824 10.662C460.824 9.738 460.619 8.90933 460.208 8.176C459.797 7.44267 459.211 6.84867 458.448 6.394C457.7 5.93933 456.798 5.66067 455.742 5.558C455.478 8.022 455.031 10.156 454.4 11.96C453.784 13.7493 453.051 15.1353 452.2 16.118C451.364 17.086 450.484 17.57 449.56 17.57C448.783 17.57 448.071 17.3427 447.426 16.888C446.781 16.4333 446.267 15.7807 445.886 14.93C445.519 14.0793 445.336 13.06 445.336 11.872C445.336 10.6547 445.563 9.518 446.018 8.462C446.487 7.39133 447.147 6.45267 447.998 5.646C448.849 4.83933 449.846 4.20867 450.99 3.754C452.149 3.29933 453.417 3.072 454.796 3.072C456.468 3.072 457.949 3.39467 459.24 4.04C460.545 4.67067 461.572 5.558 462.32 6.702C463.068 7.83133 463.442 9.15133 463.442 10.662C463.442 12.7887 462.87 14.5633 461.726 15.986C460.597 17.394 458.939 18.3767 456.754 18.934ZM449.582 14.864C449.846 14.864 450.147 14.644 450.484 14.204C450.836 13.7493 451.188 13.1113 451.54 12.29C451.892 11.4687 452.215 10.5007 452.508 9.386C452.801 8.25667 453.021 7.01 453.168 5.646C452.024 5.866 451.063 6.29133 450.286 6.922C449.509 7.538 448.922 8.27867 448.526 9.144C448.13 9.99467 447.925 10.8893 447.91 11.828C447.91 12.8253 448.064 13.5807 448.372 14.094C448.695 14.6073 449.098 14.864 449.582 14.864ZM474.398 19.88C474.119 20.1147 473.797 20.21 473.43 20.166C473.063 20.1367 472.755 19.9827 472.506 19.704C472.286 19.44 471.993 19.1173 471.626 18.736C471.259 18.34 470.878 17.9513 470.482 17.57C470.101 17.174 469.763 16.8513 469.47 16.602C469.235 16.382 469.096 16.1033 469.052 15.766C469.023 15.414 469.125 15.1133 469.36 14.864C469.609 14.6147 469.895 14.4753 470.218 14.446C470.555 14.4167 470.863 14.5047 471.142 14.71C471.465 14.9593 471.839 15.282 472.264 15.678C472.704 16.074 473.129 16.4847 473.54 16.91C473.965 17.3207 474.303 17.68 474.552 17.988C474.801 18.2667 474.911 18.5893 474.882 18.956C474.853 19.3227 474.691 19.6307 474.398 19.88ZM503.504 19.946C501.744 19.946 500.358 19.5133 499.346 18.648C498.349 17.768 497.85 16.36 497.85 14.424V2.698C497.85 2.33133 497.975 2.02333 498.224 1.774C498.488 1.51 498.803 1.378 499.17 1.378C499.537 1.378 499.845 1.51 500.094 1.774C500.358 2.02333 500.49 2.33133 500.49 2.698V14.424C500.49 15.5093 500.732 16.2647 501.216 16.69C501.715 17.1153 502.477 17.328 503.504 17.328C504.413 17.328 505.264 17.086 506.056 16.602C506.863 16.118 507.515 15.3407 508.014 14.27C508.175 13.9327 508.432 13.7053 508.784 13.588C509.136 13.4707 509.473 13.4927 509.796 13.654C510.133 13.8007 510.353 14.05 510.456 14.402C510.573 14.754 510.559 15.0987 510.412 15.436C509.767 16.888 508.821 18.0027 507.574 18.78C506.342 19.5573 504.985 19.946 503.504 19.946ZM530.476 20.342C530.124 20.4447 529.787 20.4153 529.464 20.254C529.141 20.0927 528.921 19.836 528.804 19.484C528.701 19.1467 528.738 18.824 528.914 18.516C529.09 18.1933 529.354 17.9807 529.706 17.878C530.923 17.482 531.811 16.932 532.368 16.228C532.94 15.524 533.226 14.7027 533.226 13.764C533.226 12.9573 532.977 12.2533 532.478 11.652C531.994 11.036 531.275 10.596 530.322 10.332C530.087 11.4467 529.735 12.51 529.266 13.522C528.811 14.5193 528.276 15.4213 527.66 16.228C527.748 16.4187 527.843 16.58 527.946 16.712C528.151 17.02 528.217 17.35 528.144 17.702C528.071 18.054 527.88 18.3327 527.572 18.538C527.279 18.7287 526.956 18.7873 526.604 18.714C526.252 18.6407 525.973 18.45 525.768 18.142C525.123 18.67 524.441 19.0733 523.722 19.352C523.018 19.6453 522.299 19.792 521.566 19.792C520.539 19.792 519.696 19.5133 519.036 18.956C518.376 18.384 518.046 17.4453 518.046 16.14C518.046 15.0253 518.273 14.006 518.728 13.082C519.197 12.1433 519.835 11.3147 520.642 10.596C521.449 9.86267 522.351 9.26133 523.348 8.792C523.333 8.38133 523.333 7.97067 523.348 7.56C523.377 7.14933 523.407 6.73133 523.436 6.306C522.101 6.37933 520.899 6.40133 519.828 6.372C519.461 6.35733 519.161 6.218 518.926 5.954C518.691 5.69 518.581 5.382 518.596 5.03C518.625 4.678 518.765 4.38467 519.014 4.15C519.278 3.90067 519.586 3.78333 519.938 3.798C520.495 3.81267 521.097 3.82 521.742 3.82C522.402 3.80533 523.069 3.78333 523.744 3.754C523.803 3.43133 523.861 3.116 523.92 2.808C523.979 2.48533 524.045 2.16267 524.118 1.84C524.191 1.47333 524.375 1.19467 524.668 1.004C524.976 0.813333 525.306 0.754666 525.658 0.827999C526.01 0.901332 526.281 1.092 526.472 1.4C526.663 1.69333 526.721 2.02333 526.648 2.39C526.604 2.58067 526.56 2.77867 526.516 2.984C526.487 3.17467 526.457 3.36533 526.428 3.556C527.059 3.49733 527.66 3.43133 528.232 3.358C528.819 3.28467 529.361 3.21133 529.86 3.138C530.212 3.06467 530.535 3.13067 530.828 3.336C531.121 3.54133 531.297 3.82 531.356 4.172C531.415 4.50933 531.341 4.832 531.136 5.14C530.931 5.43333 530.659 5.60933 530.322 5.668C529.691 5.756 529.009 5.844 528.276 5.932C527.557 6.00533 526.809 6.07133 526.032 6.13C525.973 6.746 525.929 7.35467 525.9 7.956C526.677 7.78 527.469 7.692 528.276 7.692C529.889 7.692 531.253 7.956 532.368 8.484C533.483 8.99733 534.326 9.70867 534.898 10.618C535.485 11.5273 535.778 12.5687 535.778 13.742C535.778 14.7247 535.595 15.656 535.228 16.536C534.861 17.416 534.282 18.186 533.49 18.846C532.713 19.4913 531.708 19.99 530.476 20.342ZM521.72 17.306C522.189 17.306 522.673 17.1813 523.172 16.932C523.671 16.6827 524.155 16.3453 524.624 15.92C524.067 14.5853 523.685 13.0673 523.48 11.366C522.585 11.9233 521.874 12.62 521.346 13.456C520.833 14.2773 520.576 15.1647 520.576 16.118C520.576 16.5433 520.664 16.8513 520.84 17.042C521.031 17.218 521.324 17.306 521.72 17.306ZM526.494 13.588C526.802 13.06 527.073 12.5027 527.308 11.916C527.557 11.3293 527.755 10.7207 527.902 10.09C527.565 10.1047 527.227 10.134 526.89 10.178C526.553 10.222 526.23 10.288 525.922 10.376C525.966 10.948 526.032 11.498 526.12 12.026C526.223 12.554 526.347 13.0747 526.494 13.588ZM547.856 20.716C547.504 20.716 547.203 20.5913 546.954 20.342C546.705 20.0927 546.58 19.792 546.58 19.44V13.764C546.169 14.1453 545.744 14.5413 545.304 14.952C544.879 15.3627 544.453 15.7733 544.028 16.184C543.764 16.4333 543.449 16.558 543.082 16.558C542.73 16.558 542.429 16.4333 542.18 16.184C541.945 15.92 541.828 15.6047 541.828 15.238C541.843 14.8713 541.982 14.5707 542.246 14.336C542.935 13.6907 543.639 13.0453 544.358 12.4C545.091 11.74 545.832 11.1167 546.58 10.53V7.626C546.331 7.67 546.008 7.736 545.612 7.824C545.216 7.912 544.827 8 544.446 8.088C544.065 8.176 543.764 8.242 543.544 8.286C543.192 8.35933 542.862 8.30067 542.554 8.11C542.246 7.91933 542.055 7.648 541.982 7.296C541.909 6.92933 541.967 6.592 542.158 6.284C542.349 5.976 542.62 5.78533 542.972 5.712C543.089 5.68267 543.302 5.646 543.61 5.602C543.918 5.54333 544.263 5.47733 544.644 5.404C545.025 5.33067 545.392 5.26467 545.744 5.206C546.096 5.14733 546.375 5.096 546.58 5.052V1.884C546.58 1.532 546.705 1.23133 546.954 0.981999C547.203 0.732666 547.504 0.607999 547.856 0.607999C548.208 0.607999 548.509 0.732666 548.758 0.981999C549.007 1.23133 549.132 1.532 549.132 1.884V5.052C549.572 5.19867 549.939 5.47733 550.232 5.888C550.423 6.16667 550.511 6.49667 550.496 6.878C550.496 7.25933 550.415 7.67733 550.254 8.132C550.958 7.76533 551.662 7.47933 552.366 7.274C553.07 7.06867 553.759 6.966 554.434 6.966C556.311 6.966 557.749 7.45 558.746 8.418C559.758 9.37133 560.264 10.6473 560.264 12.246C560.264 13.258 560.022 14.2187 559.538 15.128C559.069 16.0373 558.284 16.822 557.184 17.482C556.084 18.142 554.61 18.6113 552.762 18.89C552.395 18.9487 552.065 18.8753 551.772 18.67C551.493 18.45 551.317 18.1567 551.244 17.79C551.185 17.4233 551.266 17.1007 551.486 16.822C551.706 16.5287 551.992 16.3527 552.344 16.294C554.295 15.986 555.666 15.4947 556.458 14.82C557.25 14.1307 557.646 13.2727 557.646 12.246C557.646 11.3807 557.375 10.7133 556.832 10.244C556.289 9.76 555.475 9.518 554.39 9.518C553.495 9.518 552.615 9.716 551.75 10.112C550.885 10.4933 550.012 11.0067 549.132 11.652V19.44C549.132 19.792 549.007 20.0927 548.758 20.342C548.509 20.5913 548.208 20.716 547.856 20.716ZM581.252 19.022C579.243 19.242 577.49 19.2567 575.994 19.066C574.513 18.8753 573.303 18.362 572.364 17.526C571.733 16.9393 571.264 16.228 570.956 15.392C570.648 14.5413 570.494 13.4927 570.494 12.246V10.222C569.79 10.31 569.123 10.4053 568.492 10.508C567.861 10.596 567.275 10.6913 566.732 10.794C566.38 10.8527 566.057 10.7793 565.764 10.574C565.471 10.3687 565.295 10.09 565.236 9.738C565.177 9.386 565.243 9.06333 565.434 8.77C565.639 8.47667 565.918 8.30067 566.27 8.242C566.871 8.154 567.524 8.066 568.228 7.978C568.947 7.87533 569.702 7.78 570.494 7.692V4.018C570.494 3.65133 570.619 3.34333 570.868 3.094C571.132 2.83 571.447 2.698 571.814 2.698C572.181 2.698 572.489 2.83 572.738 3.094C572.987 3.34333 573.112 3.65133 573.112 4.018V7.428C573.875 7.35467 574.645 7.28867 575.422 7.23C576.214 7.17133 576.991 7.11267 577.754 7.054C577.827 6.42333 577.879 5.81467 577.908 5.228C577.952 4.64133 577.981 4.09133 577.996 3.578C578.011 3.21133 578.143 2.90333 578.392 2.654C578.656 2.40467 578.971 2.28733 579.338 2.302C579.705 2.31667 580.013 2.456 580.262 2.72C580.526 2.96933 580.651 3.27733 580.636 3.644C580.621 4.14267 580.592 4.67067 580.548 5.228C580.519 5.77067 580.475 6.328 580.416 6.9C581.061 6.856 581.692 6.82667 582.308 6.812C582.924 6.78267 583.511 6.76067 584.068 6.746C584.435 6.746 584.743 6.878 584.992 7.142C585.241 7.39133 585.366 7.692 585.366 8.044C585.366 8.396 585.241 8.704 584.992 8.968C584.743 9.21733 584.435 9.342 584.068 9.342C582.851 9.31267 581.545 9.33467 580.152 9.408C580.049 10.1267 579.932 10.8307 579.8 11.52C579.683 12.1947 579.558 12.8107 579.426 13.368C579.338 13.72 579.14 13.9913 578.832 14.182C578.524 14.358 578.194 14.4093 577.842 14.336C577.475 14.248 577.197 14.05 577.006 13.742C576.83 13.434 576.779 13.104 576.852 12.752C576.969 12.268 577.079 11.7547 577.182 11.212C577.285 10.6693 577.373 10.1193 577.446 9.562C576.727 9.606 576.001 9.66467 575.268 9.738C574.549 9.79667 573.831 9.86267 573.112 9.936V12.246C573.112 13.0673 573.2 13.7493 573.376 14.292C573.552 14.8347 573.816 15.2673 574.168 15.59C574.725 16.0887 575.532 16.3967 576.588 16.514C577.644 16.6167 579.111 16.5727 580.988 16.382C581.355 16.338 581.677 16.4333 581.956 16.668C582.249 16.9027 582.411 17.2033 582.44 17.57C582.484 17.9367 582.389 18.2667 582.154 18.56C581.934 18.8387 581.633 18.9927 581.252 19.022ZM598.962 20.452C597.847 20.452 596.923 20.166 596.19 19.594C595.471 19.0367 595.112 18.208 595.112 17.108C595.112 16.1107 595.464 15.3187 596.168 14.732C596.887 14.1307 597.833 13.83 599.006 13.83C599.446 13.83 599.871 13.852 600.282 13.896V9.738C600.282 9.35667 600.407 9.04133 600.656 8.792C600.905 8.54267 601.213 8.418 601.58 8.418C601.947 8.418 602.255 8.54267 602.504 8.792C602.753 9.04133 602.878 9.35667 602.878 9.738V14.49C603.67 14.7393 604.418 15.0473 605.122 15.414C605.841 15.766 606.471 16.1327 607.014 16.514C607.307 16.734 607.483 17.0273 607.542 17.394C607.601 17.746 607.52 18.0687 607.3 18.362C607.095 18.6553 606.809 18.8313 606.442 18.89C606.09 18.9487 605.767 18.8753 605.474 18.67C605.122 18.3913 604.719 18.1273 604.264 17.878C603.824 17.614 603.362 17.372 602.878 17.152C602.79 18.2227 602.416 19.0367 601.756 19.594C601.096 20.166 600.165 20.452 598.962 20.452ZM593.11 14.358C592.831 14.5927 592.509 14.71 592.142 14.71C591.79 14.71 591.489 14.5853 591.24 14.336C590.976 14.072 590.844 13.7567 590.844 13.39C590.844 13.0087 590.983 12.7007 591.262 12.466C592.098 11.718 592.831 10.8673 593.462 9.914C594.107 8.96067 594.635 7.97067 595.046 6.944C594.65 7.00267 594.261 7.04667 593.88 7.076C593.513 7.10533 593.161 7.13467 592.824 7.164C592.443 7.17867 592.12 7.06867 591.856 6.834C591.592 6.59933 591.453 6.27667 591.438 5.866C591.423 5.49933 591.533 5.19867 591.768 4.964C592.003 4.71467 592.325 4.58267 592.736 4.568C593.205 4.53867 593.697 4.49467 594.21 4.436C594.738 4.37733 595.266 4.31133 595.794 4.238C595.867 3.90067 595.911 3.556 595.926 3.204C595.955 2.852 595.97 2.51467 595.97 2.192C595.97 1.82533 596.095 1.51733 596.344 1.268C596.593 1.004 596.901 0.871999 597.268 0.871999C597.635 0.871999 597.95 1.004 598.214 1.268C598.478 1.51733 598.603 1.82533 598.588 2.192C598.573 2.69067 598.529 3.21133 598.456 3.754C598.559 3.72467 598.654 3.70267 598.742 3.688C598.845 3.65867 598.94 3.63667 599.028 3.622C599.395 3.534 599.732 3.578 600.04 3.754C600.348 3.93 600.539 4.20867 600.612 4.59C600.685 4.95667 600.619 5.28667 600.414 5.58C600.223 5.87333 599.952 6.064 599.6 6.152C599.365 6.21067 599.094 6.26933 598.786 6.328C598.493 6.38667 598.185 6.44533 597.862 6.504C597.407 8.044 596.769 9.496 595.948 10.86C595.141 12.224 594.195 13.39 593.11 14.358ZM605.804 8.528C605.335 8.23467 604.777 7.934 604.132 7.626C603.501 7.318 602.944 7.09067 602.46 6.944C602.123 6.82667 601.859 6.62133 601.668 6.328C601.477 6.03467 601.426 5.712 601.514 5.36C601.587 5.008 601.778 4.73667 602.086 4.546C602.409 4.35533 602.746 4.31133 603.098 4.414C603.538 4.53133 604.022 4.7 604.55 4.92C605.078 5.14 605.584 5.37467 606.068 5.624C606.567 5.87333 606.977 6.108 607.3 6.328C607.593 6.51867 607.769 6.79733 607.828 7.164C607.901 7.53067 607.835 7.868 607.63 8.176C607.439 8.46933 607.161 8.65267 606.794 8.726C606.442 8.78467 606.112 8.71867 605.804 8.528ZM598.94 18.032C599.424 18.032 599.769 17.922 599.974 17.702C600.179 17.482 600.282 17.1447 600.282 16.69V16.316C600.047 16.2573 599.813 16.2207 599.578 16.206C599.358 16.1767 599.145 16.162 598.94 16.162C598.485 16.162 598.148 16.25 597.928 16.426C597.723 16.5873 597.62 16.8147 597.62 17.108C597.62 17.3867 597.723 17.614 597.928 17.79C598.133 17.9513 598.471 18.032 598.94 18.032ZM622.942 19.968C621.783 19.968 620.823 19.8873 620.06 19.726C619.297 19.5647 618.696 19.2933 618.256 18.912C617.831 18.5307 617.53 18.01 617.354 17.35C617.178 16.69 617.09 15.8687 617.09 14.886V8.902H614.67C614.347 8.902 614.061 8.78467 613.812 8.55C613.577 8.30067 613.46 8.00733 613.46 7.67C613.46 7.33267 613.577 7.04667 613.812 6.812C614.061 6.56267 614.347 6.438 614.67 6.438H617.09V2.852C617.09 2.44133 617.215 2.11867 617.464 1.884C617.728 1.64933 618.043 1.532 618.41 1.532C618.777 1.532 619.085 1.64933 619.334 1.884C619.598 2.11867 619.73 2.44133 619.73 2.852V6.438H622.502V2.258C622.502 1.87667 622.627 1.56867 622.876 1.334C623.125 1.09933 623.426 0.981999 623.778 0.981999C624.13 0.981999 624.431 1.09933 624.68 1.334C624.929 1.56867 625.054 1.87667 625.054 2.258V6.438H627.892V2.808C627.892 2.42667 628.017 2.11867 628.266 1.884C628.53 1.64933 628.838 1.532 629.19 1.532C629.542 1.532 629.85 1.64933 630.114 1.884C630.378 2.11867 630.51 2.42667 630.51 2.808V6.438H632.952C633.289 6.438 633.575 6.56267 633.81 6.812C634.059 7.04667 634.184 7.33267 634.184 7.67C634.184 8.00733 634.059 8.30067 633.81 8.55C633.575 8.78467 633.289 8.902 632.952 8.902H630.51V11.674C630.51 12.6713 630.385 13.434 630.136 13.962C629.901 14.4753 629.491 14.8273 628.904 15.018C628.317 15.194 627.511 15.282 626.484 15.282C625.457 15.282 624.651 15.194 624.064 15.018C623.492 14.8273 623.089 14.4753 622.854 13.962C622.619 13.434 622.502 12.6713 622.502 11.674V8.902H619.73V14.886C619.73 15.59 619.818 16.1327 619.994 16.514C620.185 16.8807 620.507 17.1373 620.962 17.284C621.431 17.416 622.091 17.482 622.942 17.482H631.742C632.079 17.482 632.373 17.6067 632.622 17.856C632.871 18.1053 632.996 18.3987 632.996 18.736C632.996 19.0733 632.871 19.3593 632.622 19.594C632.373 19.8433 632.079 19.968 631.742 19.968H622.942ZM626.484 12.862C627.041 12.862 627.415 12.7813 627.606 12.62C627.797 12.4587 627.892 12.114 627.892 11.586V8.902H625.054V11.586C625.054 12.114 625.149 12.4587 625.34 12.62C625.545 12.7813 625.927 12.862 626.484 12.862ZM651.014 20.826C650.662 20.826 650.354 20.7013 650.09 20.452C649.841 20.2173 649.716 19.902 649.716 19.506V13.214C649.716 12.906 649.797 12.642 649.958 12.422C650.134 12.202 650.347 12.0553 650.596 11.982C650.156 11.6153 649.745 11.2413 649.364 10.86C648.983 10.464 648.638 10.0607 648.33 9.65H647.406C646.834 10.4273 646.137 11.168 645.316 11.872H645.536C645.903 11.9013 646.196 12.0553 646.416 12.334C646.636 12.6127 646.724 12.928 646.68 13.28C646.475 15.084 645.895 16.602 644.942 17.834C643.989 19.0513 642.713 20.0047 641.114 20.694C640.747 20.8407 640.388 20.87 640.036 20.782C639.699 20.7087 639.449 20.5033 639.288 20.166C639.112 19.814 639.097 19.484 639.244 19.176C639.391 18.868 639.603 18.6553 639.882 18.538C641.275 17.9953 642.309 17.2987 642.984 16.448C643.673 15.5973 644.091 14.4313 644.238 12.95C644.238 12.906 644.253 12.8253 644.282 12.708C643.549 13.2653 642.764 13.786 641.928 14.27C641.107 14.7393 640.278 15.1573 639.442 15.524C639.046 15.6853 638.679 15.7147 638.342 15.612C638.005 15.4947 637.763 15.2747 637.616 14.952C637.469 14.6147 637.455 14.2993 637.572 14.006C637.704 13.698 637.939 13.4853 638.276 13.368C639.552 12.8987 640.681 12.3633 641.664 11.762C642.661 11.146 643.563 10.442 644.37 9.65C643.226 9.606 642.346 9.46667 641.73 9.232C641.114 8.98267 640.689 8.55733 640.454 7.956C640.219 7.34 640.102 6.47467 640.102 5.36C640.102 4.46533 640.175 3.73933 640.322 3.182C640.469 2.62467 640.725 2.192 641.092 1.884C641.459 1.576 641.965 1.36333 642.61 1.246C643.27 1.12867 644.113 1.07 645.14 1.07H650.838C651.865 1.07 652.708 1.12867 653.368 1.246C654.028 1.36333 654.541 1.576 654.908 1.884C655.275 2.192 655.531 2.62467 655.678 3.182C655.825 3.73933 655.898 4.46533 655.898 5.36C655.898 6.48933 655.773 7.362 655.524 7.978C655.275 8.57933 654.827 9.00467 654.182 9.254C653.551 9.48867 652.635 9.62067 651.432 9.65C652.297 10.4567 653.258 11.1387 654.314 11.696C655.385 12.2533 656.529 12.7373 657.746 13.148C658.039 13.2507 658.252 13.4707 658.384 13.808C658.531 14.1453 658.523 14.4827 658.362 14.82C658.215 15.1427 657.959 15.37 657.592 15.502C657.225 15.634 656.851 15.6193 656.47 15.458C655.751 15.15 655.04 14.8127 654.336 14.446C653.647 14.0793 652.979 13.6833 652.334 13.258V19.506C652.334 19.902 652.202 20.2173 651.938 20.452C651.689 20.7013 651.381 20.826 651.014 20.826ZM645.14 7.67H646.68V6.24H642.808C642.837 6.66533 642.918 6.98067 643.05 7.186C643.197 7.39133 643.431 7.52333 643.754 7.582C644.077 7.64067 644.539 7.67 645.14 7.67ZM642.808 4.502H646.68V3.072H645.14C644.539 3.072 644.077 3.10133 643.754 3.16C643.431 3.21867 643.197 3.35067 643.05 3.556C642.918 3.76133 642.837 4.07667 642.808 4.502ZM649.32 4.502H653.192C653.163 4.07667 653.075 3.76133 652.928 3.556C652.796 3.35067 652.561 3.21867 652.224 3.16C651.901 3.10133 651.439 3.072 650.838 3.072H649.32V4.502ZM649.32 7.67H650.838C651.439 7.67 651.901 7.64067 652.224 7.582C652.561 7.52333 652.796 7.39133 652.928 7.186C653.075 6.98067 653.163 6.66533 653.192 6.24H649.32V7.67ZM670.886 20.342C670.739 20.1807 670.666 19.99 670.666 19.77C670.666 19.5647 670.739 19.3887 670.886 19.242L689.146 0.937999C689.307 0.776666 689.491 0.696 689.696 0.696C689.916 0.696 690.099 0.776666 690.246 0.937999C690.407 1.08467 690.488 1.268 690.488 1.488C690.488 1.69333 690.407 1.87667 690.246 2.038L671.986 20.342C671.839 20.4887 671.656 20.562 671.436 20.562C671.231 20.562 671.047 20.4887 670.886 20.342Z" fill="#010F32"/>
</svg>
