<svg width="609" height="21" viewBox="0 0 609 21" fill="none" xmlns="http://www.w3.org/2000/svg">
<g clip-path="url(#clip0_503_147)">
<path d="M54.47 18.9598C54.15 18.9598 53.87 18.8498 53.64 18.6398C53.41 18.4298 53.29 18.1498 53.29 17.7998V14.9198C52.73 15.3498 52.07 15.7798 51.31 16.2198C50.55 16.6598 49.77 17.0698 48.98 17.4398C48.19 17.8098 47.46 18.1198 46.79 18.3598C46.47 18.4798 46.18 18.4898 45.92 18.3998C45.66 18.3098 45.46 18.1098 45.33 17.8198C45.22 17.5498 45.22 17.2998 45.33 17.0598C45.43 16.8198 45.62 16.6498 45.9 16.5598C46.45 16.3898 47.03 16.1698 47.65 15.9098C48.27 15.6498 48.89 15.3698 49.51 15.0698C50.13 14.7698 50.71 14.4698 51.24 14.1798H46.12C45.89 14.1798 45.7 14.0998 45.54 13.9298C45.38 13.7598 45.3 13.5698 45.3 13.3398C45.3 13.1098 45.38 12.9198 45.54 12.7598C45.7 12.5998 45.89 12.5198 46.12 12.5198H53.3V11.5598H51.16C49.99 11.5598 49.17 11.3598 48.71 10.9598C48.25 10.5598 48.02 9.84983 48.02 8.83983V5.65983C47.81 5.88983 47.6 6.10983 47.4 6.32983C47.2 6.54983 47 6.74983 46.8 6.93983C46.59 7.14983 46.32 7.26983 46.01 7.29983C45.7 7.32983 45.42 7.22983 45.18 7.01983C44.98 6.82983 44.87 6.59983 44.86 6.30983C44.85 6.01983 44.94 5.78983 45.14 5.61983C45.61 5.17983 46.08 4.67983 46.57 4.11983C47.06 3.55983 47.52 2.97983 47.96 2.36983C48.4 1.75983 48.77 1.18983 49.06 0.639828C49.21 0.369828 49.42 0.189828 49.71 0.0998276C50 0.00982759 50.28 0.0298276 50.56 0.179828C50.84 0.299828 51.02 0.499828 51.1 0.779828C51.18 1.05983 51.15 1.32983 51 1.59983C50.92 1.72983 50.84 1.86983 50.75 2.01983C50.66 2.16983 50.57 2.30983 50.46 2.45983H53.52C53.61 2.22983 53.72 1.95983 53.85 1.64983C53.98 1.33983 54.08 1.07983 54.16 0.879828C54.31 0.529828 54.53 0.299828 54.84 0.189828C55.15 0.0798276 55.45 0.0698276 55.76 0.189828C56.07 0.299828 56.28 0.469828 56.41 0.719828C56.54 0.969828 56.53 1.23983 56.41 1.52983C56.34 1.65983 56.27 1.80983 56.19 1.97983C56.11 2.14983 56.03 2.30983 55.95 2.46983H61.29C61.52 2.46983 61.71 2.54983 61.87 2.69983C62.03 2.84983 62.11 3.05983 62.11 3.32983C62.11 3.59983 62.03 3.78983 61.87 3.94983C61.71 4.10983 61.52 4.18983 61.29 4.18983H55.65V5.02983H60.27C60.52 5.02983 60.71 5.10983 60.84 5.26983C60.97 5.42983 61.03 5.61983 61.03 5.82983C61.03 6.03983 60.97 6.22983 60.84 6.37983C60.71 6.52983 60.52 6.60983 60.27 6.60983H55.65V7.44983H60.27C60.52 7.44983 60.71 7.52983 60.84 7.68983C60.97 7.84983 61.03 8.03983 61.03 8.24983C61.03 8.45983 60.97 8.64983 60.84 8.79983C60.71 8.94983 60.52 9.02983 60.27 9.02983H55.65V9.86983H61.53C61.76 9.86983 61.95 9.93983 62.11 10.0898C62.27 10.2398 62.35 10.4398 62.35 10.6898C62.35 10.9398 62.27 11.1498 62.11 11.3198C61.95 11.4898 61.76 11.5698 61.53 11.5698H55.65V12.5298H62.75C62.98 12.5298 63.17 12.6098 63.33 12.7698C63.49 12.9298 63.57 13.1198 63.57 13.3498C63.57 13.5798 63.49 13.7698 63.33 13.9398C63.17 14.1098 62.98 14.1898 62.75 14.1898H57.69C58.5 14.6298 59.39 15.0598 60.35 15.4698C61.31 15.8798 62.2 16.2198 63.01 16.4898C63.29 16.5798 63.48 16.7598 63.57 17.0198C63.66 17.2798 63.66 17.5398 63.55 17.8098C63.43 18.0898 63.24 18.2798 62.97 18.3798C62.7 18.4798 62.41 18.4798 62.09 18.3798C61.44 18.1398 60.72 17.8398 59.94 17.4698C59.16 17.0998 58.39 16.6998 57.64 16.2598C56.89 15.8198 56.22 15.3898 55.65 14.9798V17.8198C55.65 18.1698 55.54 18.4498 55.31 18.6598C55.08 18.8698 54.81 18.9798 54.49 18.9798L54.47 18.9598ZM50.25 5.01983H53.29V4.17983H50.25V5.01983ZM50.25 7.43983H53.29V6.59983H50.25V7.43983ZM51.55 9.85983H53.29V9.01983H50.27C50.3 9.34983 50.4 9.57983 50.59 9.68983C50.78 9.79983 51.1 9.85983 51.55 9.85983Z" fill="#010F32"/>
<path d="M72.23 18.3196C71.14 18.3196 70.26 18.0596 69.59 17.5496C68.92 17.0396 68.59 16.2696 68.59 15.2596C68.59 14.3496 68.93 13.6296 69.6 13.0796C70.27 12.5296 71.18 12.2596 72.31 12.2596C72.71 12.2596 73.11 12.2796 73.51 12.3196L73.45 10.0596C72.06 10.0996 70.84 10.0996 69.77 10.0596C69.44 10.0296 69.17 9.89965 68.96 9.64965C68.75 9.39965 68.66 9.11965 68.67 8.79965C68.7 8.47965 68.83 8.20965 69.08 7.99965C69.33 7.78965 69.61 7.68965 69.93 7.71965C70.44 7.74965 70.99 7.75965 71.58 7.76965C72.17 7.76965 72.78 7.76965 73.39 7.76965C73.38 7.44965 73.37 7.12965 73.37 6.80965C73.37 6.48965 73.37 6.17965 73.35 5.86965C72.7 5.87965 72.06 5.88965 71.45 5.86965C70.84 5.86965 70.28 5.84965 69.77 5.83965C69.44 5.82965 69.17 5.69965 68.96 5.44965C68.75 5.19965 68.66 4.90965 68.67 4.57965C68.7 4.25965 68.83 3.98965 69.08 3.77965C69.33 3.56965 69.61 3.46965 69.93 3.49965C70.92 3.56965 72.04 3.58965 73.31 3.55965V1.83965C73.31 1.50965 73.42 1.21965 73.65 0.989648C73.88 0.759648 74.16 0.639648 74.49 0.639648C74.82 0.639648 75.11 0.759648 75.34 0.989648C75.57 1.21965 75.69 1.50965 75.69 1.83965V2.60965C75.69 2.87965 75.69 3.16965 75.71 3.47965C76.26 3.43965 76.78 3.39965 77.29 3.34965C77.8 3.29965 78.26 3.24965 78.67 3.19965C78.99 3.15965 79.28 3.23965 79.54 3.42965C79.8 3.61965 79.95 3.87965 79.99 4.19965C80.03 4.52965 79.95 4.82965 79.76 5.08965C79.57 5.34965 79.31 5.49965 78.99 5.53965C78.52 5.58965 78.01 5.63965 77.46 5.67965C76.91 5.71965 76.34 5.74965 75.75 5.77965C75.75 6.08965 75.75 6.39965 75.76 6.71965C75.76 7.03965 75.78 7.35965 75.79 7.67965C76.32 7.64965 76.83 7.61965 77.32 7.56965C77.81 7.51965 78.26 7.46965 78.67 7.41965C78.99 7.36965 79.28 7.43965 79.54 7.63965C79.8 7.83965 79.95 8.09965 79.99 8.41965C80.03 8.73965 79.95 9.02965 79.76 9.28965C79.57 9.54965 79.31 9.69965 78.99 9.73965C78.54 9.78965 78.04 9.83965 77.51 9.87965C76.98 9.91965 76.42 9.94965 75.83 9.97965C75.86 10.5096 75.87 11.0196 75.88 11.4996C75.88 11.9796 75.9 12.4296 75.91 12.8396C76.68 13.0696 77.42 13.3496 78.11 13.6796C78.8 14.0096 79.42 14.3696 79.95 14.7396C80.22 14.9096 80.38 15.1696 80.44 15.4996C80.5 15.8296 80.44 16.1296 80.25 16.3996C80.06 16.6696 79.81 16.8296 79.48 16.8896C79.15 16.9496 78.86 16.8897 78.59 16.6996C78.22 16.4296 77.8 16.1796 77.35 15.9296C76.9 15.6796 76.42 15.4596 75.93 15.2596C75.88 16.3096 75.53 17.0896 74.89 17.5796C74.25 18.0696 73.36 18.3196 72.23 18.3196ZM72.21 16.0596C72.76 16.0596 73.12 15.9596 73.29 15.7696C73.46 15.5796 73.55 15.2996 73.55 14.9396V14.5596C73.1 14.4796 72.65 14.4396 72.21 14.4396C71.77 14.4396 71.47 14.5096 71.27 14.6596C71.07 14.8096 70.97 15.0096 70.97 15.2596C70.97 15.7896 71.38 16.0596 72.21 16.0596Z" fill="#010F32"/>
<path d="M93.61 17.5201C93.32 17.5601 93.05 17.4901 92.82 17.3101C92.59 17.1301 92.45 16.8901 92.41 16.6001C92.38 16.3101 92.46 16.0401 92.64 15.8101C92.82 15.5801 93.06 15.4401 93.35 15.4001C94.62 15.2301 95.62 14.9501 96.36 14.5801C97.1 14.2101 97.62 13.7701 97.91 13.2601C98.2 12.7501 98.31 12.2301 98.23 11.6801C98.14 10.9701 97.88 10.4601 97.45 10.1401C97.02 9.82013 96.42 9.69013 95.63 9.76013C95.2 9.79013 94.71 9.84013 94.14 9.93013C93.57 10.0201 92.99 10.1101 92.39 10.2201C91.79 10.3301 91.22 10.4401 90.67 10.5701C90.12 10.7001 89.65 10.8101 89.25 10.9201C88.96 11.0001 88.68 10.9701 88.43 10.8301C88.18 10.6901 88.01 10.4701 87.93 10.1801C87.85 9.90013 87.88 9.63013 88.02 9.37013C88.16 9.11013 88.38 8.94013 88.67 8.86013C89.1 8.74013 89.6 8.62013 90.18 8.50013C90.76 8.38013 91.37 8.26013 92 8.15013C92.63 8.04013 93.25 7.94013 93.86 7.86013C94.47 7.78013 95 7.72013 95.47 7.68013C96.82 7.57013 97.92 7.84013 98.77 8.49013C99.62 9.14013 100.14 10.0801 100.31 11.3201C100.46 12.2701 100.31 13.1801 99.87 14.0501C99.43 14.9201 98.69 15.6701 97.65 16.2901C96.61 16.9101 95.26 17.3201 93.61 17.5201Z" fill="#010F32"/>
<path d="M107.19 17.7601C106.9 17.5901 106.71 17.3401 106.64 17.0201C106.57 16.7001 106.62 16.4001 106.79 16.1201C107.31 15.2801 107.77 14.3501 108.17 13.3401C108.57 12.3301 108.91 11.2701 109.2 10.1801C109.49 9.09006 109.72 8.01006 109.89 6.96006C109.5 7.00006 109.13 7.03006 108.76 7.06006C108.39 7.09006 108.05 7.11006 107.73 7.14006C107.4 7.15006 107.11 7.06006 106.86 6.85006C106.61 6.64006 106.48 6.37006 106.45 6.04006C106.44 5.71006 106.54 5.42006 106.75 5.17006C106.96 4.92006 107.24 4.79006 107.57 4.78006C107.96 4.75006 108.37 4.73006 108.82 4.70006C109.27 4.67006 109.72 4.63006 110.17 4.58006C110.21 4.13006 110.24 3.69006 110.25 3.28006C110.26 2.87006 110.26 2.47006 110.25 2.10006C110.24 1.77006 110.34 1.48006 110.56 1.24006C110.78 1.00006 111.06 0.870056 111.39 0.860056C111.72 0.850056 112.01 0.950056 112.25 1.17006C112.49 1.39006 112.62 1.67006 112.63 2.00006C112.64 2.33006 112.64 2.69006 112.63 3.07006C112.62 3.45006 112.59 3.85006 112.55 4.28006C113.15 4.17006 113.69 4.07006 114.17 3.98006C114.49 3.91006 114.79 3.97006 115.07 4.14006C115.35 4.31006 115.52 4.56006 115.59 4.88006C115.66 5.21006 115.59 5.51006 115.42 5.78006C115.24 6.05006 114.99 6.21006 114.67 6.28006C114.34 6.35006 113.97 6.41006 113.56 6.48006C113.15 6.55006 112.72 6.61006 112.27 6.68006C112.08 7.89006 111.83 9.15006 111.51 10.4501C111.19 11.7501 110.81 13.0001 110.36 14.1901C109.91 15.3801 109.4 16.4401 108.83 17.3601C108.66 17.6401 108.41 17.8201 108.09 17.9001C107.77 17.9801 107.47 17.9301 107.19 17.7601ZM121.11 17.3201C119.12 17.7701 117.42 17.7901 116 17.3601C114.58 16.9301 113.56 16.1501 112.95 15.0001C112.8 14.7101 112.77 14.4001 112.86 14.0901C112.95 13.7801 113.14 13.5401 113.43 13.3801C113.72 13.2201 114.03 13.1901 114.34 13.2801C114.65 13.3701 114.89 13.5701 115.05 13.8601C115.45 14.5701 116.12 15.0101 117.07 15.1801C118.02 15.3501 119.2 15.2901 120.61 14.9801C120.94 14.9101 121.25 14.9801 121.52 15.1501C121.79 15.3301 121.96 15.5801 122.03 15.9001C122.1 16.2301 122.03 16.5401 121.86 16.8101C121.68 17.0801 121.43 17.2501 121.11 17.3201ZM120.13 9.68006C119.68 9.57006 119.16 9.50006 118.58 9.46006C118 9.42006 117.41 9.41006 116.82 9.43006C116.23 9.45006 115.67 9.51006 115.15 9.60006C114.83 9.65006 114.54 9.60006 114.28 9.41006C114.02 9.22006 113.86 8.99006 113.79 8.68006C113.72 8.36006 113.79 8.06006 113.96 7.79006C114.14 7.52006 114.39 7.35006 114.71 7.30006C115.34 7.19006 116 7.13006 116.7 7.10006C117.4 7.07006 118.1 7.08006 118.79 7.13006C119.48 7.18006 120.12 7.27006 120.69 7.40006C121.01 7.47006 121.25 7.64006 121.42 7.92006C121.59 8.20006 121.63 8.50006 121.55 8.82006C121.48 9.13006 121.31 9.36006 121.03 9.53006C120.75 9.70006 120.45 9.75006 120.13 9.68006Z" fill="#010F32"/>
<path d="M127.33 18.7597C126.56 18.7597 126.13 18.3797 126.05 17.6197C126.02 17.2997 126.1 17.0197 126.28 16.7797C126.46 16.5397 126.71 16.3997 127.03 16.3597C127.43 16.3097 127.69 16.2197 127.81 16.0997C127.93 15.9797 127.99 15.7497 127.99 15.4197V12.2997C127.46 12.5097 127.03 12.6797 126.71 12.7997C126.34 12.9297 125.99 12.9297 125.68 12.7797C125.37 12.6297 125.16 12.4097 125.07 12.0997C124.98 11.7497 124.99 11.4397 125.12 11.1497C125.25 10.8597 125.5 10.6697 125.89 10.5597C126.18 10.4797 126.51 10.3797 126.88 10.2697C127.25 10.1597 127.62 10.0297 127.99 9.89973V6.31973H126.27C125.94 6.31973 125.67 6.20973 125.47 5.98973C125.27 5.76973 125.17 5.50973 125.17 5.21973C125.17 4.92973 125.27 4.64973 125.47 4.43973C125.67 4.22973 125.94 4.11973 126.27 4.11973H127.99V1.33973C127.99 0.989727 128.1 0.719727 128.32 0.519727C128.54 0.319727 128.8 0.219727 129.11 0.219727C129.42 0.219727 129.7 0.319727 129.92 0.519727C130.14 0.719727 130.25 0.989727 130.25 1.33973V4.11973H131.23C131.58 4.11973 131.85 4.22973 132.04 4.43973C132.23 4.64973 132.33 4.90973 132.33 5.21973C132.33 5.52973 132.23 5.76973 132.04 5.98973C131.85 6.20973 131.58 6.31973 131.23 6.31973H130.25V9.09973C130.4 9.04973 130.54 8.99973 130.67 8.94973C130.8 8.89973 130.93 8.84973 131.05 8.79973C131.36 8.67973 131.63 8.67973 131.88 8.79973C132.13 8.91973 132.29 9.10973 132.37 9.37973C132.38 9.42973 132.39 9.47973 132.4 9.51973C132.41 9.55973 132.42 9.59973 132.43 9.63973C132.46 9.39973 132.56 9.19973 132.73 9.02973C132.9 8.85973 133.12 8.77973 133.39 8.77973H139.17C139.85 8.77973 140.38 8.92973 140.76 9.21973C141.14 9.50973 141.36 9.89973 141.43 10.3697C141.5 10.8397 141.38 11.3497 141.09 11.8797C140.84 12.3597 140.55 12.8197 140.24 13.2697C139.93 13.7197 139.58 14.1497 139.21 14.5597C139.69 14.9297 140.22 15.2597 140.8 15.5397C141.38 15.8197 142.01 16.0397 142.69 16.1997C143.06 16.2897 143.33 16.4597 143.5 16.7097C143.67 16.9597 143.7 17.2497 143.59 17.5997C143.48 17.9297 143.27 18.1697 142.96 18.2997C142.65 18.4297 142.32 18.4497 141.97 18.3397C141.1 18.0597 140.31 17.7297 139.58 17.3397C138.85 16.9497 138.2 16.5197 137.61 16.0397C136.94 16.5697 136.22 17.0497 135.44 17.4597C134.66 17.8697 133.82 18.2197 132.93 18.4997C132.6 18.6097 132.29 18.5897 132.01 18.4497C131.73 18.3097 131.54 18.0897 131.43 17.7997C131.34 17.5097 131.35 17.2297 131.48 16.9797C131.61 16.7297 131.84 16.5497 132.17 16.4397C133.61 15.9697 134.91 15.3297 136.07 14.4997C135.63 13.9497 135.24 13.3697 134.91 12.7597C134.58 12.1497 134.3 11.4997 134.07 10.8197H133.39C133.14 10.8197 132.92 10.7397 132.75 10.5797C132.58 10.4197 132.47 10.2297 132.43 9.99973C132.4 10.1497 132.33 10.2897 132.22 10.4197C132.11 10.5497 131.94 10.6697 131.71 10.7797C131.52 10.8597 131.3 10.9497 131.05 11.0597C130.8 11.1697 130.53 11.2797 130.25 11.3997V15.9197C130.25 16.8797 130.02 17.5897 129.56 18.0597C129.1 18.5297 128.36 18.7597 127.33 18.7597ZM134.07 8.29973C133.82 8.49973 133.52 8.59973 133.18 8.59973C132.84 8.59973 132.56 8.48973 132.33 8.25973C132.12 8.02973 132.02 7.76973 132.04 7.47973C132.06 7.18973 132.19 6.92973 132.43 6.71973C132.78 6.43973 133.04 6.15973 133.23 5.86973C133.42 5.57973 133.55 5.23973 133.63 4.83973C133.71 4.43973 133.75 3.91973 133.75 3.27973C133.76 2.66973 133.87 2.17973 134.06 1.81973C134.25 1.45973 134.58 1.19973 135.05 1.04973C135.52 0.899727 136.16 0.819727 136.97 0.819727C137.78 0.819727 138.42 0.899727 138.89 1.04973C139.36 1.19973 139.69 1.45973 139.88 1.81973C140.07 2.17973 140.17 2.66973 140.17 3.29973V5.39973C140.17 5.58973 140.22 5.70973 140.32 5.77973C140.42 5.84973 140.59 5.87973 140.83 5.87973C141.08 5.87973 141.26 5.80973 141.35 5.66973C141.44 5.52973 141.54 5.22973 141.63 4.77973C141.7 4.46973 141.86 4.25973 142.13 4.13973C142.4 4.01973 142.69 3.98973 143.01 4.05973C143.32 4.12973 143.55 4.27973 143.7 4.51973C143.85 4.75973 143.9 5.02973 143.85 5.33973C143.68 6.34973 143.35 7.05973 142.87 7.44973C142.39 7.83973 141.68 8.03973 140.73 8.03973C139.72 8.03973 139 7.88973 138.59 7.58973C138.18 7.28973 137.97 6.71973 137.97 5.87973V3.71973C137.97 3.36973 137.91 3.14973 137.78 3.03973C137.65 2.92973 137.39 2.87973 136.99 2.87973C136.59 2.87973 136.31 2.92973 136.18 3.03973C136.05 3.14973 135.99 3.36973 135.99 3.71973C135.98 4.75973 135.8 5.65973 135.46 6.42973C135.12 7.19973 134.66 7.81973 134.07 8.29973ZM137.67 13.0797C137.88 12.8497 138.08 12.6197 138.26 12.3897C138.44 12.1597 138.6 11.9197 138.75 11.6797C139.12 11.1097 138.95 10.8197 138.23 10.8197H136.29C136.46 11.2097 136.66 11.5897 136.89 11.9797C137.12 12.3697 137.38 12.7297 137.67 13.0797Z" fill="#010F32"/>
<path d="M148.97 18.8397C148.68 18.8397 148.43 18.7497 148.23 18.5597C148.03 18.3697 147.93 18.1097 147.93 17.7797V11.7997C147.73 12.1997 147.53 12.5797 147.34 12.9497C147.15 13.3197 146.96 13.6397 146.79 13.9197C146.63 14.1597 146.41 14.3197 146.12 14.3897C145.83 14.4597 145.56 14.4297 145.29 14.2997C145.04 14.1497 144.89 13.9297 144.85 13.6197C144.81 13.3097 144.88 13.0397 145.05 12.7997C145.26 12.4897 145.5 12.1097 145.77 11.6497C146.04 11.1897 146.3 10.6997 146.57 10.1697C146.84 9.63969 147.09 9.12969 147.32 8.61969C147.55 8.10969 147.74 7.65969 147.89 7.25969H146.11C145.79 7.25969 145.54 7.15969 145.35 6.95969C145.16 6.75969 145.07 6.50969 145.07 6.21969C145.07 5.92969 145.16 5.69969 145.35 5.49969C145.54 5.29969 145.79 5.19969 146.11 5.19969H147.93V3.55969C147.69 3.60969 147.46 3.65969 147.24 3.70969C147.02 3.75969 146.8 3.78969 146.57 3.81969C146.16 3.86969 145.84 3.83969 145.63 3.70969C145.42 3.57969 145.28 3.36969 145.21 3.07969C145.14 2.75969 145.19 2.49969 145.35 2.28969C145.51 2.07969 145.74 1.95969 146.05 1.91969C146.56 1.84969 147.09 1.75969 147.66 1.63969C148.23 1.51969 148.77 1.37969 149.3 1.21969C149.83 1.05969 150.28 0.909688 150.65 0.759687C150.96 0.649687 151.25 0.649687 151.52 0.749687C151.79 0.849688 151.98 1.03969 152.07 1.31969C152.16 1.56969 152.16 1.81969 152.07 2.04969C151.97 2.27969 151.79 2.44969 151.52 2.55969C151.29 2.63969 151.06 2.71969 150.81 2.79969C150.56 2.87969 150.31 2.95969 150.04 3.03969V5.19969H151.18C151.5 5.19969 151.75 5.29969 151.94 5.49969C152.13 5.69969 152.22 5.93969 152.22 6.21969C152.22 6.49969 152.13 6.75969 151.94 6.95969C151.75 7.15969 151.5 7.25969 151.18 7.25969H150.04V8.01969C150.23 8.24969 150.46 8.51969 150.73 8.82969C151 9.13969 151.28 9.44969 151.56 9.73969C151.84 10.0297 152.07 10.2697 152.24 10.4397C152.28 10.4697 152.33 10.5197 152.38 10.5997C152.82 9.96969 153.75 9.65969 155.18 9.65969H160.08C161.31 9.65969 162.15 9.86969 162.61 10.2897C163.07 10.7097 163.3 11.4097 163.3 12.3997V16.2397C163.3 17.1197 163.09 17.7597 162.66 18.1597C162.23 18.5597 161.57 18.7597 160.66 18.7597C160.35 18.7597 160.1 18.6697 159.89 18.4997C159.68 18.3297 159.56 18.1097 159.52 17.8397C159.47 17.5097 159.52 17.2397 159.71 17.0297C159.89 16.8197 160.13 16.6997 160.44 16.6597C160.73 16.6197 160.92 16.5497 161.01 16.4397C161.1 16.3297 161.14 16.1397 161.14 15.8597V12.7597C161.14 12.2297 161.05 11.8797 160.88 11.7197C160.71 11.5597 160.31 11.4797 159.68 11.4797H155.58C154.97 11.4797 154.57 11.5597 154.39 11.7197C154.21 11.8797 154.12 12.2297 154.12 12.7597V17.7597C154.12 18.0797 154.02 18.3397 153.81 18.5397C153.6 18.7397 153.35 18.8397 153.04 18.8397C152.73 18.8397 152.49 18.7397 152.28 18.5397C152.07 18.3397 151.96 18.0797 151.96 17.7597V12.2297C151.96 12.2297 151.96 12.1297 151.98 12.0797C151.57 12.2497 151.19 12.1697 150.86 11.8197C150.66 11.5897 150.39 11.2697 150.04 10.8397V17.7797C150.04 18.1097 149.94 18.3697 149.74 18.5597C149.54 18.7497 149.29 18.8397 148.98 18.8397H148.97ZM152.59 3.97969C152.3 3.97969 152.07 3.88969 151.91 3.70969C151.75 3.52969 151.67 3.30969 151.67 3.05969C151.67 2.78969 151.75 2.56969 151.91 2.39969C152.07 2.22969 152.3 2.13969 152.59 2.13969H156.37V1.37969C156.37 1.00969 156.49 0.709687 156.72 0.499687C156.95 0.289687 157.24 0.179688 157.57 0.179688C157.9 0.179688 158.18 0.289687 158.41 0.499687C158.64 0.709687 158.75 1.00969 158.75 1.37969V2.13969H162.69C162.98 2.13969 163.21 2.22969 163.38 2.39969C163.55 2.56969 163.63 2.78969 163.63 3.05969C163.63 3.32969 163.55 3.52969 163.38 3.70969C163.21 3.88969 162.98 3.97969 162.69 3.97969H152.59ZM156.35 8.91969C155.56 8.91969 154.96 8.85969 154.55 8.74969C154.14 8.63969 153.86 8.42969 153.71 8.11969C153.56 7.80969 153.49 7.36969 153.49 6.79969C153.49 6.22969 153.56 5.78969 153.71 5.48969C153.86 5.18969 154.14 4.97969 154.55 4.86969C154.96 4.75969 155.56 4.69969 156.35 4.69969H158.95C159.75 4.69969 160.35 4.75969 160.76 4.86969C161.17 4.97969 161.44 5.18969 161.59 5.48969C161.74 5.78969 161.81 6.22969 161.81 6.79969C161.81 7.36969 161.74 7.80969 161.59 8.11969C161.44 8.42969 161.17 8.63969 160.76 8.74969C160.35 8.85969 159.75 8.91969 158.95 8.91969H156.35ZM157.59 16.6997C156.9 16.6997 156.36 16.6397 155.99 16.5197C155.62 16.3997 155.36 16.1797 155.22 15.8497C155.08 15.5197 155.01 15.0497 155.01 14.4197C155.01 13.7897 155.08 13.3197 155.22 12.9897C155.36 12.6597 155.62 12.4397 155.99 12.3197C156.36 12.1997 156.9 12.1397 157.59 12.1397C158.28 12.1397 158.84 12.1997 159.21 12.3197C159.58 12.4397 159.84 12.6597 159.98 12.9897C160.12 13.3197 160.19 13.7897 160.19 14.4197C160.19 15.0497 160.12 15.5197 159.98 15.8497C159.84 16.1797 159.58 16.3997 159.21 16.5197C158.84 16.6397 158.3 16.6997 157.59 16.6997ZM156.65 7.37969H158.65C159.09 7.37969 159.37 7.34969 159.5 7.27969C159.63 7.20969 159.69 7.04969 159.69 6.79969C159.69 6.55969 159.63 6.40969 159.5 6.33969C159.37 6.26969 159.09 6.23969 158.65 6.23969H156.65C156.21 6.23969 155.93 6.26969 155.8 6.33969C155.67 6.40969 155.61 6.55969 155.61 6.79969C155.61 7.04969 155.67 7.20969 155.8 7.27969C155.93 7.34969 156.21 7.37969 156.65 7.37969ZM157.59 15.2397C157.94 15.2397 158.16 15.1897 158.25 15.0897C158.34 14.9897 158.39 14.7697 158.39 14.4197C158.39 14.0697 158.34 13.8497 158.25 13.7497C158.16 13.6497 157.94 13.5997 157.59 13.5997C157.24 13.5997 157.04 13.6497 156.95 13.7497C156.86 13.8497 156.81 14.0697 156.81 14.4197C156.81 14.7697 156.86 14.9897 156.95 15.0897C157.04 15.1897 157.26 15.2397 157.59 15.2397Z" fill="#010F32"/>
<path d="M166.59 18.6402C166.24 18.6902 165.95 18.6602 165.71 18.5402C165.47 18.4202 165.31 18.1902 165.23 17.8602C165.15 17.5502 165.2 17.2902 165.37 17.0702C165.54 16.8502 165.8 16.7102 166.15 16.6602C167.24 16.5002 168.17 16.2102 168.93 15.8002C168.77 15.7102 168.61 15.6202 168.45 15.5302C168.29 15.4402 168.14 15.3602 167.99 15.2802C166.82 14.6802 166.55 13.8302 167.19 12.7202H165.95C165.66 12.7202 165.43 12.6302 165.26 12.4402C165.09 12.2502 165.01 12.0302 165.01 11.7802C165.01 11.5102 165.09 11.2902 165.26 11.1002C165.43 10.9102 165.66 10.8202 165.95 10.8202H168.27C168.39 10.5902 168.51 10.3702 168.62 10.1602C168.73 9.95023 168.84 9.75023 168.93 9.56024C169.08 9.29023 169.26 9.11024 169.47 9.02024C169.31 8.83024 169.23 8.61024 169.23 8.34023V6.94023C168.88 7.33023 168.51 7.71023 168.12 8.08023C167.73 8.45023 167.36 8.77023 167.03 9.04023C166.8 9.23023 166.54 9.32023 166.25 9.33023C165.96 9.33023 165.71 9.23023 165.51 9.00023C165.34 8.80023 165.26 8.57024 165.27 8.31024C165.28 8.05023 165.4 7.85023 165.61 7.70023C166 7.41023 166.44 7.04023 166.94 6.60023C167.44 6.16023 167.86 5.77023 168.21 5.44023H166.11C165.83 5.44023 165.61 5.35023 165.45 5.18023C165.29 5.01023 165.21 4.79023 165.21 4.54023C165.21 4.29023 165.29 4.07023 165.45 3.89023C165.61 3.71023 165.83 3.62023 166.11 3.62023H167.03C166.94 3.57023 166.86 3.48023 166.79 3.36023C166.74 3.25023 166.65 3.11023 166.53 2.94023C166.41 2.77023 166.29 2.59023 166.17 2.41023C166.05 2.23023 165.96 2.09023 165.89 2.00023C165.76 1.80023 165.72 1.59023 165.78 1.36023C165.84 1.13023 165.97 0.960234 166.17 0.840234C166.38 0.710234 166.61 0.660234 166.85 0.700234C167.09 0.740234 167.28 0.870234 167.43 1.08023C167.5 1.17023 167.59 1.31023 167.72 1.49023C167.85 1.67023 167.97 1.85023 168.1 2.03023C168.23 2.21023 168.32 2.35023 168.37 2.44023C168.5 2.64023 168.55 2.85023 168.5 3.08023C168.45 3.31023 168.34 3.49023 168.15 3.62023H169.23V1.24023C169.23 0.930234 169.33 0.690234 169.52 0.510234C169.71 0.330234 169.94 0.240234 170.21 0.240234C170.49 0.240234 170.73 0.330234 170.92 0.510234C171.11 0.690234 171.21 0.930234 171.21 1.24023V3.62023H172.15C172.02 3.49023 171.93 3.32023 171.89 3.13023C171.85 2.94023 171.89 2.75023 172.01 2.56023C172.08 2.47023 172.17 2.33023 172.28 2.14023C172.39 1.95023 172.51 1.77023 172.62 1.58023C172.73 1.39023 172.82 1.25023 172.87 1.16023C173 0.890234 173.19 0.720234 173.42 0.640234C173.65 0.560234 173.9 0.580234 174.15 0.700234C174.39 0.810234 174.56 0.980234 174.66 1.21023C174.76 1.44023 174.74 1.69023 174.59 1.94023C174.52 2.05023 174.43 2.20023 174.31 2.40023C174.19 2.60023 174.07 2.80023 173.95 2.99023C173.83 3.18023 173.73 3.33023 173.65 3.44023C173.6 3.52023 173.55 3.58023 173.51 3.62023H174.25C174.53 3.62023 174.75 3.71023 174.91 3.89023C175.07 4.07023 175.15 4.29023 175.15 4.54023C175.15 4.79023 175.07 5.01023 174.91 5.18023C174.75 5.35023 174.53 5.44023 174.25 5.44023H172.21C172.48 5.72023 172.78 6.02023 173.11 6.34023C173.44 6.66023 173.74 6.92023 173.99 7.12023C174.22 7.29023 174.33 7.50023 174.33 7.74023C174.33 7.98023 174.24 8.21023 174.05 8.42023C173.88 8.62023 173.65 8.73023 173.38 8.75023C173.11 8.77024 172.86 8.67023 172.63 8.46023C172.43 8.26023 172.2 8.03023 171.95 7.76023C171.7 7.49023 171.45 7.22023 171.21 6.94023V8.34023C171.21 8.75023 171.04 9.05023 170.71 9.22023C170.86 9.35023 170.95 9.52024 170.99 9.71023C171.03 9.90023 170.99 10.1102 170.87 10.3202C170.83 10.4002 170.79 10.4802 170.75 10.5702C170.71 10.6602 170.66 10.7402 170.61 10.8202H174.43C174.72 10.8202 174.95 10.9102 175.12 11.1002C175.29 11.2902 175.37 11.5102 175.37 11.7802C175.37 12.0502 175.29 12.2502 175.12 12.4402C174.95 12.6302 174.72 12.7202 174.43 12.7202H173.79C173.62 13.2702 173.42 13.7702 173.2 14.2402C172.98 14.7102 172.72 15.1302 172.41 15.5202C172.61 15.6502 172.8 15.7802 172.99 15.9102C173.18 16.0402 173.35 16.1502 173.51 16.2602C173.63 16.3402 173.72 16.4302 173.79 16.5302C173.86 16.6302 173.9 16.7302 173.93 16.8402C173.98 16.8002 174.04 16.7602 174.09 16.7202C174.14 16.6802 174.2 16.6402 174.25 16.6002C175.01 16.2002 175.69 15.7502 176.28 15.2402C176.87 14.7302 177.4 14.1902 177.85 13.6202C177.48 12.9502 177.16 12.2602 176.89 11.5302C176.62 10.8002 176.42 10.0602 176.27 9.30023C176.2 9.43023 176.13 9.57023 176.05 9.70023C175.97 9.83023 175.9 9.96023 175.83 10.0802C175.66 10.3302 175.42 10.5002 175.13 10.5802C174.84 10.6602 174.56 10.6202 174.29 10.4602C174.04 10.3102 173.87 10.1002 173.8 9.82023C173.73 9.54023 173.77 9.28023 173.93 9.04023C174.4 8.36023 174.82 7.58023 175.2 6.71023C175.58 5.84023 175.9 4.93023 176.17 4.00023C176.44 3.07023 176.62 2.19023 176.73 1.36023C176.77 1.00023 176.91 0.740234 177.15 0.570234C177.39 0.400234 177.66 0.340234 177.95 0.380234C178.26 0.420234 178.5 0.540234 178.67 0.750234C178.84 0.960234 178.9 1.23023 178.85 1.58023C178.8 2.03023 178.72 2.50023 178.61 2.97023C178.5 3.44023 178.38 3.92023 178.23 4.40023H182.85C183.16 4.40023 183.4 4.50023 183.58 4.69023C183.76 4.88023 183.85 5.12023 183.85 5.40023C183.85 5.68023 183.76 5.92023 183.58 6.11023C183.4 6.30023 183.16 6.40023 182.85 6.40023H182.43C182.31 7.84023 182.09 9.16023 181.76 10.3602C181.43 11.5602 180.98 12.6502 180.41 13.6402C181.24 14.6402 182.26 15.5502 183.47 16.3802C183.74 16.5502 183.89 16.8002 183.94 17.1102C183.99 17.4202 183.91 17.7102 183.71 17.9602C183.5 18.2302 183.22 18.3802 182.88 18.4302C182.54 18.4802 182.24 18.4002 181.97 18.2002C180.86 17.3702 179.91 16.4702 179.11 15.4802C178.12 16.6302 176.88 17.6202 175.37 18.4602C175.05 18.6302 174.74 18.6702 174.43 18.5702C174.12 18.4702 173.9 18.2902 173.77 18.0402C173.76 18.0002 173.74 17.9602 173.72 17.9302C173.7 17.9002 173.68 17.8602 173.67 17.8202C173.5 18.0302 173.26 18.1602 172.97 18.1902C172.68 18.2202 172.4 18.1502 172.15 17.9602C171.94 17.8102 171.72 17.6602 171.51 17.5002C171.3 17.3402 171.08 17.1802 170.85 17.0202C169.8 17.7802 168.38 18.3202 166.59 18.6402ZM170.57 14.4402C170.77 14.2002 170.95 13.9402 171.12 13.6502C171.29 13.3602 171.44 13.0502 171.59 12.7202H169.53L169.43 12.9002C169.26 13.1702 169.19 13.3902 169.24 13.5702C169.29 13.7502 169.47 13.9102 169.79 14.0602C169.91 14.1102 170.04 14.1702 170.17 14.2402C170.3 14.3102 170.44 14.3702 170.57 14.4402ZM179.09 11.5402C179.45 10.7502 179.73 9.93023 179.93 9.07023C180.13 8.21023 180.26 7.32023 180.33 6.40023H177.89C177.94 7.36023 178.07 8.27023 178.26 9.12023C178.45 9.97023 178.73 10.7802 179.09 11.5402Z" fill="#010F32"/>
<path d="M188.83 17.4401C188.5 17.4901 188.2 17.4301 187.93 17.2401C187.66 17.0501 187.5 16.8001 187.43 16.4801C187.31 15.8001 187.22 15.0101 187.15 14.1101C187.08 13.2101 187.05 12.2601 187.05 11.2601C187.05 10.2601 187.08 9.25007 187.13 8.24007C187.18 7.23007 187.27 6.26007 187.38 5.33007C187.49 4.40007 187.63 3.57007 187.79 2.84007C187.86 2.52007 188.03 2.27007 188.31 2.09007C188.59 1.91007 188.89 1.85007 189.21 1.92007C189.53 2.00007 189.78 2.18007 189.96 2.45007C190.14 2.72007 190.2 3.03007 190.13 3.36007C189.92 4.31007 189.75 5.33007 189.63 6.44007C189.51 7.55007 189.43 8.67007 189.4 9.81007C189.37 10.9501 189.38 12.0601 189.45 13.1301C189.52 14.2001 189.63 15.1801 189.79 16.0601C189.86 16.3801 189.79 16.6701 189.6 16.9401C189.41 17.2101 189.15 17.3701 188.83 17.4401ZM197.03 16.3601C195.3 16.3601 194.01 16.0501 193.16 15.4201C192.31 14.7901 191.8 13.8701 191.63 12.6601C191.58 12.3401 191.65 12.0501 191.84 11.7801C192.03 11.5101 192.3 11.3501 192.63 11.3001C192.95 11.2601 193.24 11.3401 193.51 11.5301C193.78 11.7201 193.94 11.9901 193.99 12.3201C194.07 12.8901 194.34 13.3201 194.81 13.6001C195.28 13.8801 196.04 14.0201 197.09 14.0201C198.14 14.0201 199.3 13.8701 200.71 13.5601C201.03 13.4801 201.33 13.5301 201.61 13.7201C201.89 13.9101 202.06 14.1601 202.13 14.4801C202.2 14.8001 202.13 15.1001 201.95 15.3701C201.76 15.6401 201.51 15.8201 201.19 15.9001C200.47 16.0701 199.75 16.1901 199.04 16.2601C198.33 16.3301 197.66 16.3601 197.03 16.3601ZM193.37 6.46007C193.05 6.53007 192.75 6.47007 192.48 6.29007C192.21 6.11007 192.04 5.85007 191.97 5.52007C191.9 5.20007 191.96 4.90007 192.14 4.62007C192.32 4.34007 192.58 4.17007 192.91 4.12007C193.66 3.97007 194.49 3.88007 195.41 3.83007C196.33 3.78007 197.24 3.78007 198.15 3.81007C199.06 3.84007 199.86 3.92007 200.55 4.04007C200.88 4.09007 201.14 4.26007 201.33 4.53007C201.52 4.80007 201.58 5.11007 201.51 5.44007C201.46 5.77007 201.29 6.03007 201.02 6.21007C200.75 6.39007 200.45 6.45007 200.13 6.40007C199.05 6.21007 197.93 6.12007 196.77 6.13007C195.61 6.13007 194.48 6.25007 193.37 6.46007Z" fill="#010F32"/>
<path d="M205.63 18.7196C205.28 18.6096 205.04 18.4096 204.91 18.0996C204.78 17.7896 204.78 17.4896 204.91 17.1996C205.26 16.3996 205.54 15.5596 205.77 14.6896C206 13.8196 206.16 12.8296 206.27 11.7396C206.38 10.6496 206.43 9.38961 206.43 7.97961V7.13961C206.43 6.05961 206.58 5.20961 206.87 4.58961C207.16 3.96961 207.66 3.52961 208.36 3.27961C209.06 3.02961 210.02 2.89961 211.25 2.89961H213.51V1.31961C213.51 0.949609 213.64 0.649609 213.89 0.429609C214.14 0.209609 214.44 0.0996094 214.77 0.0996094C215.1 0.0996094 215.41 0.209609 215.66 0.429609C215.91 0.649609 216.03 0.949609 216.03 1.31961V2.89961H222.17C222.49 2.89961 222.75 2.99961 222.94 3.19961C223.13 3.39961 223.23 3.64961 223.23 3.93961C223.23 4.22961 223.13 4.47961 222.94 4.68961C222.75 4.89961 222.49 4.99961 222.17 4.99961H211.25C210.58 4.99961 210.07 5.05961 209.7 5.16961C209.33 5.27961 209.08 5.48961 208.93 5.79961C208.78 6.10961 208.71 6.54961 208.71 7.13961V8.01961C208.71 10.1296 208.59 11.9796 208.36 13.5696C208.13 15.1596 207.74 16.6096 207.19 17.9196C207.06 18.2396 206.85 18.4796 206.56 18.6296C206.27 18.7796 205.96 18.8096 205.63 18.7196ZM209.01 16.8596C208.74 16.7396 208.56 16.5296 208.46 16.2396C208.36 15.9496 208.38 15.6696 208.51 15.3996C208.71 14.9996 208.91 14.5296 209.11 13.9796C209.31 13.4296 209.5 12.8696 209.68 12.2796C209.86 11.6896 210 11.1496 210.11 10.6396C210.19 10.2796 210.38 10.0296 210.67 9.88961C210.96 9.74961 211.26 9.72961 211.55 9.81961C211.86 9.90961 212.08 10.0896 212.22 10.3396C212.36 10.5896 212.39 10.8896 212.31 11.2396C212.19 11.7696 212.04 12.3496 211.85 12.9596C211.66 13.5696 211.46 14.1696 211.25 14.7596C211.04 15.3496 210.82 15.8696 210.59 16.3396C210.46 16.6196 210.23 16.8096 209.92 16.9096C209.61 17.0096 209.3 16.9896 209.01 16.8596ZM216.57 18.7196C215.66 18.7196 214.94 18.6396 214.41 18.4696C213.88 18.2996 213.5 17.9896 213.27 17.5296C213.04 17.0696 212.93 16.4096 212.93 15.5596V9.61961C212.93 9.25961 213.04 8.96961 213.27 8.75961C213.5 8.54961 213.78 8.43961 214.11 8.43961C214.44 8.43961 214.72 8.54961 214.95 8.75961C215.18 8.96961 215.29 9.25961 215.29 9.61961V15.3396C215.29 15.8096 215.38 16.1096 215.56 16.2496C215.74 16.3896 216.1 16.4596 216.65 16.4596C217.16 16.4596 217.51 16.3796 217.72 16.2196C217.93 16.0596 218.09 15.7096 218.21 15.1796C218.28 14.8596 218.44 14.6196 218.71 14.4696C218.98 14.3196 219.28 14.2796 219.61 14.3596C219.94 14.4296 220.19 14.5896 220.35 14.8396C220.51 15.0896 220.56 15.3896 220.49 15.7396C220.34 16.4996 220.12 17.0996 219.81 17.5296C219.5 17.9596 219.09 18.2696 218.57 18.4496C218.05 18.6296 217.38 18.7196 216.57 18.7196ZM218.69 9.85961C218.46 10.0896 218.19 10.1996 217.86 10.1896C217.53 10.1896 217.26 10.0596 217.03 9.81961C216.86 9.60961 216.62 9.35961 216.33 9.06961C216.04 8.77961 215.74 8.49961 215.45 8.21961C215.16 7.93961 214.91 7.71961 214.71 7.55961C214.48 7.36961 214.36 7.12961 214.34 6.81961C214.32 6.50961 214.41 6.24961 214.61 6.01961C214.84 5.76961 215.1 5.62961 215.41 5.59961C215.72 5.56961 216 5.66961 216.25 5.87961C216.65 6.19961 217.08 6.56961 217.55 6.98961C218.02 7.40961 218.42 7.78961 218.75 8.11961C218.99 8.36961 219.1 8.65961 219.09 8.98961C219.08 9.31961 218.94 9.60961 218.69 9.85961ZM222.97 16.4996C222.66 16.6496 222.35 16.6596 222.03 16.5396C221.71 16.4196 221.5 16.2096 221.39 15.9196C221.23 15.4796 221.02 14.9896 220.76 14.4396C220.5 13.8896 220.24 13.3496 219.97 12.8096C219.7 12.2696 219.46 11.8096 219.25 11.4196C219.09 11.1496 219.06 10.8696 219.16 10.5796C219.26 10.2896 219.45 10.0696 219.73 9.93961C220.04 9.77961 220.34 9.73961 220.64 9.82961C220.94 9.91961 221.18 10.0996 221.35 10.3796C221.58 10.7496 221.83 11.2196 222.12 11.7896C222.41 12.3596 222.68 12.9196 222.95 13.4796C223.22 14.0396 223.43 14.5196 223.59 14.9196C223.72 15.2496 223.73 15.5596 223.62 15.8396C223.51 16.1196 223.29 16.3396 222.97 16.4996Z" fill="#010F32"/>
<path d="M235.05 17.9796C233.45 17.9796 232.19 17.5796 231.28 16.7896C230.37 15.9996 229.91 14.7196 229.91 12.9596V2.29961C229.91 1.96961 230.03 1.67961 230.26 1.44961C230.49 1.21961 230.78 1.09961 231.11 1.09961C231.44 1.09961 231.73 1.21961 231.96 1.44961C232.19 1.67961 232.31 1.96961 232.31 2.29961V12.9596C232.31 13.9496 232.53 14.6296 232.98 15.0196C233.43 15.4096 234.12 15.5996 235.05 15.5996C235.88 15.5996 236.65 15.3796 237.38 14.9396C238.11 14.4996 238.7 13.7896 239.15 12.8196C239.3 12.5096 239.53 12.3096 239.85 12.1996C240.17 12.0896 240.48 12.1096 240.77 12.2596C241.08 12.3896 241.28 12.6196 241.38 12.9396C241.48 13.2596 241.46 13.5696 241.33 13.8796C240.74 15.1996 239.89 16.2096 238.76 16.9196C237.63 17.6296 236.4 17.9796 235.05 17.9796ZM237.97 7.13961C237.81 7.29961 237.61 7.37961 237.36 7.36961C237.11 7.36961 236.91 7.26961 236.75 7.07961C236.59 6.88961 236.39 6.66961 236.14 6.39961C235.89 6.12961 235.66 5.89961 235.45 5.69961C235.32 5.56961 235.25 5.38961 235.24 5.17961C235.23 4.96961 235.31 4.77961 235.47 4.61961C235.62 4.46961 235.8 4.38961 236.01 4.37961C236.22 4.36961 236.42 4.42961 236.59 4.55961C236.8 4.70961 237.05 4.90961 237.34 5.16961C237.63 5.42961 237.86 5.66961 238.05 5.89961C238.2 6.06961 238.27 6.27961 238.26 6.51961C238.26 6.75961 238.16 6.96961 237.97 7.13961ZM238.53 5.29961C238.36 5.10961 238.14 4.89961 237.88 4.64961C237.62 4.39961 237.38 4.18961 237.15 3.99961C237.02 3.87961 236.94 3.70961 236.92 3.49961C236.9 3.28961 236.96 3.08961 237.09 2.91961C237.24 2.75961 237.41 2.66961 237.62 2.64961C237.83 2.62961 238.02 2.66961 238.21 2.77961C238.42 2.90961 238.68 3.09961 238.98 3.33961C239.28 3.57961 239.54 3.80961 239.75 4.01961C239.92 4.18961 240.01 4.39961 240.01 4.62961C240.01 4.85961 239.93 5.06961 239.77 5.25961C239.61 5.42961 239.41 5.52961 239.17 5.53961C238.93 5.54961 238.72 5.46961 238.53 5.29961Z" fill="#010F32"/>
<path d="M259.61 17.7604C258.04 17.5304 256.74 17.0804 255.71 16.3904C254.68 15.7004 253.92 14.8704 253.42 13.9004C252.92 12.9304 252.67 11.9104 252.67 10.8604C252.67 9.81041 252.88 8.80041 253.3 7.87041C253.72 6.94041 254.32 6.14041 255.11 5.46041C254.31 5.58041 253.46 5.72041 252.55 5.87041C251.64 6.02041 250.76 6.18041 249.91 6.33041C249.06 6.48041 248.31 6.62041 247.67 6.74041C247.35 6.79041 247.06 6.72041 246.79 6.52041C246.52 6.32041 246.36 6.06041 246.31 5.74041C246.26 5.41041 246.33 5.11041 246.53 4.85041C246.73 4.59041 247 4.43041 247.33 4.38041C247.76 4.31041 248.3 4.22041 248.97 4.11041C249.64 4.00041 250.38 3.87041 251.21 3.74041C252.04 3.61041 252.88 3.47041 253.75 3.32041C254.62 3.17041 255.47 3.03041 256.3 2.89041C257.13 2.75041 257.9 2.62041 258.59 2.50041C259.28 2.38041 259.85 2.28041 260.29 2.20041C260.6 2.15041 260.88 2.21041 261.15 2.40041C261.42 2.59041 261.58 2.83041 261.65 3.14041C261.72 3.46041 261.65 3.76041 261.48 4.04041C261.3 4.32041 261.05 4.49041 260.73 4.54041C259.76 4.67041 258.91 4.95041 258.2 5.37041C257.49 5.79041 256.9 6.30041 256.43 6.89041C255.96 7.48041 255.62 8.11041 255.39 8.78041C255.16 9.45041 255.05 10.0904 255.05 10.7204C255.05 12.0104 255.49 13.0604 256.37 13.8504C257.25 14.6404 258.44 15.1504 259.95 15.3804C260.28 15.4304 260.55 15.5904 260.75 15.8604C260.95 16.1304 261.02 16.4204 260.97 16.7404C260.92 17.0704 260.76 17.3404 260.5 17.5404C260.24 17.7404 259.94 17.8104 259.61 17.7604Z" fill="#010F32"/>
<path d="M270.59 17.9198C270.34 18.1298 270.04 18.2198 269.71 18.1898C269.38 18.1598 269.1 18.0098 268.87 17.7598C268.67 17.5198 268.4 17.2198 268.07 16.8698C267.74 16.5198 267.39 16.1598 267.04 15.8098C266.69 15.4598 266.38 15.1698 266.11 14.9398C265.9 14.7398 265.77 14.4798 265.74 14.1698C265.71 13.8598 265.8 13.5898 266.01 13.3598C266.24 13.1298 266.5 13.0098 266.8 12.9798C267.1 12.9498 267.38 13.0298 267.63 13.2198C267.92 13.4498 268.27 13.7398 268.66 14.0998C269.05 14.4598 269.44 14.8298 269.82 15.2098C270.2 15.5898 270.5 15.9198 270.73 16.1998C270.96 16.4498 271.06 16.7498 271.03 17.0798C271 17.4098 270.86 17.6898 270.59 17.9198Z" fill="#010F32"/>
<path d="M298.91 18.6398C298.58 18.6398 298.29 18.5498 298.05 18.3598C297.81 18.1698 297.68 17.9098 297.65 17.5598C297.64 17.2098 297.73 16.9198 297.92 16.6798C298.11 16.4398 298.39 16.3098 298.75 16.2998C299.19 16.2698 299.53 16.2198 299.77 16.1298C300.01 16.0398 300.19 15.8798 300.31 15.6398C300.43 15.3998 300.52 15.0398 300.59 14.5598C300.7 13.8498 300.77 12.9898 300.82 11.9698C300.87 10.9498 300.9 9.78976 300.91 8.47976C300.92 7.88976 300.85 7.50977 300.69 7.32977C300.53 7.14977 300.19 7.04977 299.67 7.03977C299.6 9.70977 299.24 11.9698 298.58 13.8198C297.92 15.6698 296.98 17.1898 295.75 18.3798C295.51 18.6098 295.22 18.7298 294.89 18.7598C294.56 18.7898 294.26 18.6698 294.01 18.4198C293.82 18.2198 293.73 17.9698 293.74 17.6798C293.74 17.3898 293.86 17.1498 294.07 16.9798C294.11 16.9398 294.15 16.8998 294.19 16.8598C294.23 16.8198 294.26 16.7798 294.29 16.7398C293.6 16.8498 292.78 16.9598 291.83 17.0898C290.88 17.2198 289.92 17.3298 288.93 17.4298C287.94 17.5298 287.03 17.6098 286.19 17.6798C285.87 17.6898 285.6 17.6198 285.39 17.4598C285.18 17.2998 285.06 17.0598 285.03 16.7398C285.02 16.4698 285.09 16.2398 285.26 16.0298C285.43 15.8198 285.66 15.7098 285.95 15.6998C286.43 15.6698 286.97 15.6398 287.58 15.5998C288.19 15.5598 288.81 15.5098 289.45 15.4598V14.3798H286.09C285.84 14.3798 285.64 14.2898 285.51 14.1198C285.38 13.9498 285.31 13.7498 285.31 13.5398C285.31 13.3298 285.38 13.1398 285.51 12.9698C285.64 12.7998 285.84 12.7198 286.09 12.7198H289.45V11.9798H289.31C288.4 11.9798 287.7 11.8998 287.2 11.7398C286.7 11.5798 286.36 11.2798 286.17 10.8498C285.98 10.4198 285.89 9.79977 285.89 8.99977C285.89 8.19977 285.98 7.55977 286.17 7.12977C286.36 6.69977 286.7 6.39977 287.2 6.23977C287.7 6.07977 288.4 5.99977 289.31 5.99977H289.45V5.35977H285.73C285.48 5.35977 285.28 5.26977 285.13 5.09977C284.98 4.92977 284.91 4.72977 284.91 4.49977C284.91 4.26977 284.98 4.07977 285.13 3.90977C285.28 3.73977 285.48 3.65977 285.73 3.65977H289.45V2.93977C288.97 2.97977 288.5 3.00977 288.04 3.02977C287.58 3.04977 287.14 3.06977 286.73 3.07977C286.08 3.08977 285.72 2.80977 285.65 2.21977C285.64 1.97977 285.71 1.76977 285.88 1.58977C286.05 1.40977 286.28 1.30977 286.59 1.29977C287.35 1.26977 288.15 1.22977 289 1.16977C289.85 1.10977 290.67 1.02977 291.48 0.929766C292.29 0.829766 293 0.709766 293.63 0.579766C293.95 0.509766 294.23 0.529766 294.46 0.639766C294.69 0.749766 294.84 0.929766 294.89 1.19977C295.02 1.83977 294.79 2.21977 294.19 2.33977C293.82 2.40977 293.4 2.46977 292.95 2.53977C292.5 2.60977 292.02 2.66977 291.53 2.73977V3.65977H295.23C295.5 3.65977 295.7 3.73977 295.84 3.90977C295.98 4.07977 296.05 4.26977 296.05 4.49977C296.05 4.54977 296.05 4.60977 296.04 4.65977C296.03 4.70977 296.02 4.75977 296.01 4.79977H297.49V1.35977C297.49 1.00977 297.6 0.739766 297.81 0.549766C298.02 0.359766 298.28 0.259766 298.59 0.259766C298.9 0.259766 299.15 0.359766 299.36 0.549766C299.57 0.739766 299.67 1.00977 299.67 1.35977V4.79977C300.48 4.79977 301.14 4.88977 301.65 5.07977C302.16 5.26977 302.53 5.60977 302.77 6.09977C303.01 6.58977 303.12 7.30977 303.11 8.25977C303.1 9.58977 303.06 10.8298 303.01 11.9698C302.96 13.1098 302.88 14.1098 302.79 14.9798C302.7 15.9698 302.5 16.7198 302.19 17.2498C301.88 17.7798 301.46 18.1398 300.92 18.3398C300.38 18.5398 299.71 18.6398 298.91 18.6398ZM287.91 8.29977H289.45V7.47977H289.43C288.86 7.47977 288.47 7.51977 288.27 7.59977C288.07 7.67977 287.95 7.90977 287.91 8.29977ZM289.43 10.4998H289.45V9.65977H287.91C287.95 10.0498 288.07 10.2798 288.27 10.3698C288.47 10.4598 288.86 10.4998 289.43 10.4998ZM295.23 15.6798C295.94 14.7198 296.48 13.5398 296.85 12.1298C297.22 10.7198 297.44 9.02977 297.49 7.03977H296.17C295.84 7.03977 295.57 6.92977 295.37 6.70977C295.17 6.48977 295.07 6.22977 295.07 5.91977C295.07 5.68977 295.12 5.50977 295.21 5.35977H291.53V5.99977H291.65C292.57 5.99977 293.27 6.07977 293.76 6.23977C294.25 6.39977 294.58 6.69977 294.77 7.12977C294.96 7.55977 295.05 8.18977 295.05 8.99977C295.05 9.80977 294.96 10.4198 294.77 10.8498C294.58 11.2798 294.25 11.5798 293.76 11.7398C293.27 11.8998 292.57 11.9798 291.65 11.9798H291.53V12.7198H294.55C294.8 12.7198 295 12.7998 295.13 12.9698C295.26 13.1398 295.33 13.3298 295.33 13.5398C295.33 13.7498 295.26 13.9498 295.13 14.1198C295 14.2898 294.8 14.3798 294.55 14.3798H291.53V15.2798C292.06 15.2298 292.57 15.1798 293.05 15.1298C293.53 15.0798 293.95 15.0398 294.31 14.9998C294.56 14.9698 294.77 15.0198 294.93 15.1498C295.09 15.2798 295.19 15.4498 295.23 15.6798ZM291.53 8.29977H293.05C293.01 7.90977 292.89 7.67977 292.69 7.59977C292.49 7.51977 292.1 7.47977 291.53 7.47977V8.29977ZM291.53 10.4998C292.1 10.4998 292.49 10.4598 292.69 10.3698C292.89 10.2798 293.01 10.0498 293.05 9.65977H291.53V10.4998Z" fill="#010F32"/>
<path d="M309.75 18.8202C309.43 18.8202 309.16 18.7202 308.94 18.5202C308.72 18.3202 308.61 18.0502 308.61 17.7002V12.3802C308.21 12.5302 307.84 12.6702 307.49 12.8002C307.14 12.9302 306.84 13.0402 306.59 13.1202C306.26 13.2402 305.94 13.2202 305.64 13.0702C305.34 12.9202 305.14 12.6702 305.03 12.3402C304.94 11.9902 304.96 11.6802 305.09 11.4002C305.22 11.1202 305.47 10.9302 305.83 10.8402C306.19 10.7302 306.62 10.6002 307.11 10.4402C307.6 10.2802 308.1 10.1102 308.61 9.94016V6.32016H307.39C307.34 6.63016 307.28 6.92016 307.21 7.21016C307.14 7.50016 307.08 7.77016 307.01 8.02016C306.93 8.35016 306.77 8.59016 306.54 8.74016C306.31 8.89016 306.04 8.93016 305.73 8.88016C305.45 8.83016 305.23 8.69016 305.06 8.46016C304.89 8.23016 304.86 7.97016 304.95 7.68016C305.14 7.04016 305.31 6.31016 305.48 5.48016C305.65 4.65016 305.76 3.87016 305.81 3.14016C305.84 2.83016 305.96 2.60016 306.17 2.44016C306.38 2.28016 306.64 2.21016 306.93 2.24016C307.22 2.25016 307.46 2.36016 307.63 2.56016C307.8 2.76016 307.88 3.02016 307.85 3.34016C307.84 3.47016 307.82 3.61016 307.81 3.76016C307.8 3.91016 307.78 4.05016 307.75 4.20016H308.61V1.30016C308.61 0.950156 308.72 0.680156 308.94 0.470156C309.16 0.260156 309.43 0.160156 309.75 0.160156C310.07 0.160156 310.34 0.260156 310.55 0.470156C310.76 0.680156 310.87 0.950156 310.87 1.30016V4.20016H311.63C311.95 4.20016 312.2 4.30016 312.39 4.51016C312.58 4.72016 312.67 4.97016 312.67 5.26016V5.36016C312.98 4.68016 313.26 3.97016 313.51 3.23016C313.76 2.49016 313.97 1.79016 314.13 1.14016C314.21 0.820156 314.38 0.590156 314.65 0.460156C314.92 0.330156 315.2 0.290156 315.51 0.360156C315.8 0.430156 316.02 0.580156 316.16 0.810156C316.3 1.04016 316.34 1.31016 316.27 1.62016C316.18 2.01016 316.07 2.40016 315.94 2.81016C315.81 3.22016 315.68 3.63016 315.53 4.06016H319.29C320.25 4.06016 321.02 4.17016 321.59 4.40016C322.16 4.63016 322.58 5.01016 322.83 5.56016C323.08 6.11016 323.2 6.87016 323.17 7.84016C323.14 9.09016 323.07 10.3502 322.96 11.6102C322.85 12.8702 322.72 13.9602 322.57 14.8802C322.42 15.8102 322.19 16.5502 321.87 17.1002C321.55 17.6502 321.11 18.0402 320.54 18.2702C319.97 18.5002 319.24 18.6302 318.33 18.6602C317.96 18.6702 317.64 18.5902 317.39 18.4202C317.14 18.2502 316.99 17.9702 316.95 17.6002C316.91 17.2402 316.99 16.9402 317.19 16.7002C317.39 16.4602 317.68 16.3302 318.05 16.3002C318.62 16.2602 319.05 16.1902 319.34 16.0902C319.63 15.9902 319.84 15.8202 319.97 15.5802C320.1 15.3402 320.22 14.9802 320.31 14.5002C320.38 14.1502 320.44 13.7202 320.51 13.2002C320.58 12.6802 320.64 12.1202 320.71 11.5102C320.78 10.9002 320.83 10.2902 320.88 9.68016C320.93 9.07016 320.96 8.49016 320.97 7.96016C320.98 7.17016 320.78 6.65016 320.37 6.38016C320.04 9.06016 319.32 11.3102 318.21 13.1202C317.1 14.9302 315.64 16.4102 313.81 17.5602C313.52 17.7502 313.2 17.8202 312.86 17.7702C312.52 17.7202 312.26 17.5502 312.09 17.2602C311.93 16.9902 311.89 16.7202 311.96 16.4302C312.03 16.1402 312.21 15.9202 312.49 15.7602C315.74 13.8402 317.71 10.6202 318.39 6.10016H317.47C317.22 7.66016 316.72 9.12016 315.98 10.4802C315.24 11.8402 314.31 12.9902 313.19 13.9202C312.94 14.1202 312.65 14.2002 312.34 14.1702C312.03 14.1402 311.77 14.0002 311.57 13.7602C311.38 13.5302 311.31 13.2702 311.35 12.9802C311.39 12.6902 311.52 12.4502 311.75 12.2802C312.74 11.5602 313.54 10.6502 314.17 9.54016C314.8 8.43016 315.24 7.29016 315.49 6.10016H314.69C314.53 6.47016 314.36 6.83016 314.19 7.16016C314.02 7.49016 313.84 7.81016 313.65 8.12016C313.5 8.37016 313.28 8.55016 312.99 8.65016C312.7 8.75016 312.42 8.73016 312.15 8.60016C311.9 8.47016 311.73 8.26016 311.64 7.99016C311.55 7.72016 311.58 7.46016 311.73 7.22016C311.84 7.03016 311.94 6.84016 312.05 6.65016C312.16 6.46016 312.26 6.25016 312.35 6.04016C312.26 6.12016 312.15 6.19016 312.03 6.24016C311.91 6.29016 311.78 6.32016 311.63 6.32016H310.87V9.16016L311.59 8.90016C311.87 8.79016 312.13 8.80016 312.38 8.91016C312.63 9.02016 312.8 9.21016 312.91 9.48016C313.02 9.75016 313.02 10.0202 312.93 10.2902C312.84 10.5602 312.64 10.7702 312.33 10.9002C312.16 10.9802 311.94 11.0702 311.69 11.1702C311.44 11.2702 311.16 11.3802 310.87 11.5002V17.7002C310.87 18.0502 310.76 18.3202 310.55 18.5202C310.34 18.7202 310.07 18.8202 309.75 18.8202Z" fill="#010F32"/>
<path d="M328.83 18.9204C328.52 18.9204 328.26 18.8104 328.03 18.6004C327.8 18.3904 327.69 18.1204 327.69 17.8004V8.42039C327.38 8.91039 327.08 9.36039 326.77 9.76039C326.58 10.0104 326.34 10.1604 326.03 10.2104C325.72 10.2604 325.44 10.1904 325.17 10.0204C324.92 9.83039 324.76 9.60039 324.7 9.31039C324.64 9.02039 324.7 8.76039 324.87 8.52039C325.24 8.00039 325.62 7.41039 326 6.76039C326.38 6.11039 326.74 5.44039 327.09 4.75039C327.44 4.06039 327.75 3.40039 328.02 2.75039C328.29 2.10039 328.51 1.53039 328.67 1.02039C328.78 0.690386 328.97 0.450386 329.25 0.320386C329.53 0.190386 329.83 0.170386 330.15 0.280386C330.44 0.370386 330.67 0.540386 330.82 0.790386C330.97 1.04039 331 1.33039 330.89 1.66039C330.77 2.06039 330.63 2.47039 330.48 2.88039C330.33 3.29039 330.16 3.71039 329.97 4.14039V17.7804C329.97 18.1304 329.86 18.4004 329.63 18.6104C329.4 18.8204 329.14 18.9204 328.83 18.9204ZM336.95 18.8004C336.63 18.8004 336.36 18.6904 336.13 18.4804C335.9 18.2704 335.79 17.9904 335.79 17.6404V13.5004C335.22 14.1304 334.58 14.7604 333.88 15.3904C333.18 16.0204 332.52 16.5604 331.89 17.0004C331.62 17.1904 331.32 17.2604 330.99 17.2304C330.66 17.2004 330.39 17.0404 330.19 16.7604C330.02 16.5104 329.96 16.2304 330.02 15.9304C330.08 15.6304 330.24 15.4004 330.49 15.2404C330.93 14.9604 331.42 14.6004 331.97 14.1604C332.52 13.7204 333.06 13.2604 333.6 12.7804C334.14 12.3004 334.6 11.8604 334.97 11.4604H331.47C331.18 11.4604 330.92 11.3604 330.71 11.1504C330.5 10.9404 330.39 10.6904 330.39 10.4004C330.39 10.1104 330.5 9.86039 330.71 9.65039C330.92 9.44039 331.18 9.34039 331.47 9.34039H335.79V7.74039H335.69C334.74 7.74039 333.99 7.64039 333.44 7.43039C332.89 7.22039 332.49 6.87039 332.26 6.38039C332.03 5.89039 331.91 5.21039 331.91 4.36039C331.91 3.51039 332.03 2.82039 332.26 2.33039C332.49 1.84039 332.88 1.50039 333.43 1.29039C333.98 1.08039 334.73 0.980386 335.69 0.980386H338.17C339.13 0.980386 339.89 1.08039 340.44 1.29039C340.99 1.50039 341.38 1.84039 341.61 2.33039C341.84 2.82039 341.95 3.49039 341.95 4.36039C341.95 5.23039 341.84 5.89039 341.61 6.38039C341.38 6.87039 340.99 7.22039 340.44 7.43039C339.89 7.64039 339.13 7.74039 338.17 7.74039H338.11V9.34039H342.43C342.74 9.34039 342.99 9.44039 343.2 9.65039C343.41 9.86039 343.51 10.1104 343.51 10.4004C343.51 10.6904 343.41 10.9404 343.2 11.1504C342.99 11.3604 342.74 11.4604 342.43 11.4604H338.93C339.3 11.8304 339.76 12.2504 340.3 12.7204C340.84 13.1904 341.39 13.6304 341.94 14.0604C342.49 14.4904 342.98 14.8304 343.41 15.1004C343.68 15.2704 343.83 15.5104 343.88 15.8104C343.93 16.1104 343.86 16.3904 343.69 16.6404C343.5 16.9204 343.24 17.0804 342.91 17.1304C342.58 17.1804 342.27 17.1104 341.99 16.9204C341.6 16.6504 341.18 16.3304 340.73 15.9604C340.28 15.5904 339.82 15.1904 339.37 14.7604C338.92 14.3304 338.5 13.9204 338.11 13.5204V17.6404C338.11 17.9904 338 18.2704 337.77 18.4804C337.54 18.6904 337.27 18.8004 336.95 18.8004ZM335.75 5.60039H338.11C338.66 5.60039 339.02 5.52039 339.21 5.36039C339.4 5.20039 339.49 4.87039 339.49 4.36039C339.49 3.85039 339.4 3.50039 339.21 3.34039C339.02 3.18039 338.66 3.10039 338.11 3.10039H335.75C335.22 3.10039 334.86 3.18039 334.67 3.34039C334.48 3.50039 334.39 3.84039 334.39 4.36039C334.39 4.88039 334.48 5.20039 334.67 5.36039C334.86 5.52039 335.22 5.60039 335.75 5.60039Z" fill="#010F32"/>
<path d="M345.79 5.88008C345.54 5.88008 345.32 5.79008 345.15 5.61008C344.98 5.43008 344.89 5.21008 344.89 4.96008C344.89 4.72008 344.98 4.51008 345.15 4.33008C345.32 4.15008 345.54 4.06008 345.79 4.06008H351.43C351.67 4.06008 351.88 4.15008 352.05 4.33008C352.22 4.51008 352.31 4.72008 352.31 4.96008C352.31 5.21008 352.22 5.43008 352.05 5.61008C351.88 5.79008 351.67 5.88008 351.43 5.88008H345.79ZM356.35 11.6601C355.48 11.6601 354.82 11.5901 354.37 11.4401C353.92 11.2901 353.61 11.0501 353.45 10.7201C353.29 10.3901 353.21 9.95008 353.21 9.40008V8.24008C353.16 8.31008 353.11 8.37008 353.06 8.42008C353.01 8.47008 352.96 8.53008 352.91 8.60008C352.72 8.81008 352.49 8.93008 352.21 8.95008C351.93 8.97008 351.68 8.89008 351.45 8.72008C351.36 8.64008 351.29 8.56008 351.25 8.48008C351.08 8.59008 350.9 8.64008 350.71 8.64008H346.61C346.36 8.64008 346.14 8.55008 345.97 8.37008C345.8 8.19008 345.71 7.98008 345.71 7.74008C345.71 7.49008 345.8 7.27008 345.97 7.09008C346.14 6.91008 346.36 6.82008 346.61 6.82008H350.71C351.04 6.82008 351.3 6.97008 351.49 7.26008C351.78 6.93008 352.09 6.55008 352.4 6.12008C352.71 5.69008 353.01 5.26008 353.28 4.82008C353.55 4.38008 353.78 3.98008 353.95 3.62008C354.11 3.29008 354.38 3.11008 354.75 3.08008V3.02008H352.77C352.56 3.02008 352.37 2.94008 352.21 2.78008C352.05 2.62008 351.97 2.43008 351.97 2.22008C351.97 1.99008 352.05 1.80008 352.21 1.65008C352.37 1.50008 352.56 1.42008 352.77 1.42008H354.75V1.10008C354.75 0.790078 354.85 0.550078 355.05 0.360078C355.25 0.170078 355.49 0.0800781 355.77 0.0800781C356.05 0.0800781 356.29 0.170078 356.49 0.360078C356.69 0.550078 356.79 0.790078 356.79 1.10008V1.42008H358.83V1.10008C358.83 0.790078 358.93 0.550078 359.13 0.360078C359.33 0.170078 359.57 0.0800781 359.85 0.0800781C360.13 0.0800781 360.37 0.170078 360.56 0.360078C360.75 0.550078 360.85 0.790078 360.85 1.10008V1.42008H362.85C363.08 1.42008 363.27 1.50008 363.42 1.65008C363.57 1.80008 363.65 1.99008 363.65 2.22008C363.65 2.43008 363.57 2.62008 363.42 2.78008C363.27 2.94008 363.08 3.02008 362.85 3.02008H360.85V3.28008C360.85 3.59008 360.75 3.83008 360.56 4.02008C360.37 4.21008 360.13 4.30008 359.85 4.30008H359.79C359.79 4.30008 359.78 4.35008 359.75 4.40008C359.74 4.45008 359.71 4.51008 359.67 4.58008C359.63 4.65008 359.59 4.72008 359.55 4.80008H362.71C362.9 4.80008 363.05 4.86008 363.17 4.98008C363.29 5.10008 363.35 5.25008 363.35 5.44008C363.35 5.63008 363.29 5.78008 363.17 5.91008C363.05 6.04008 362.9 6.10008 362.71 6.10008H359.57V6.72008H362.21C362.37 6.72008 362.51 6.78008 362.62 6.89008C362.73 7.00008 362.79 7.15008 362.79 7.32008C362.79 7.48008 362.73 7.62008 362.62 7.73008C362.51 7.84008 362.37 7.90008 362.21 7.90008H359.57V8.50008H362.21C362.37 8.50008 362.51 8.56008 362.62 8.67008C362.73 8.78008 362.79 8.92008 362.79 9.08008C362.79 9.25008 362.73 9.40008 362.62 9.51008C362.51 9.62008 362.37 9.68008 362.21 9.68008H359.57V10.3601H362.89C363.08 10.3601 363.23 10.4201 363.36 10.5401C363.49 10.6601 363.55 10.8101 363.55 11.0001C363.55 11.1701 363.49 11.3301 363.36 11.4601C363.23 11.5901 363.08 11.6601 362.89 11.6601H356.35ZM346.65 3.12008C346.4 3.12008 346.18 3.03008 345.99 2.84008C345.8 2.65008 345.71 2.43008 345.71 2.18008C345.71 1.93008 345.8 1.71008 345.99 1.52008C346.18 1.33008 346.4 1.24008 346.65 1.24008H350.69C350.96 1.24008 351.18 1.33008 351.35 1.52008C351.52 1.71008 351.61 1.93008 351.61 2.18008C351.61 2.43008 351.52 2.65008 351.35 2.84008C351.18 3.03008 350.96 3.12008 350.69 3.12008H346.65ZM346.61 11.4201C346.36 11.4201 346.14 11.3301 345.97 11.1501C345.8 10.9701 345.71 10.7501 345.71 10.5001C345.71 10.2501 345.8 10.0301 345.97 9.85008C346.14 9.67008 346.36 9.58008 346.61 9.58008H350.71C350.96 9.58008 351.18 9.67008 351.35 9.85008C351.52 10.0301 351.61 10.2501 351.61 10.5001C351.61 10.7501 351.52 10.9701 351.35 11.1501C351.18 11.3301 350.96 11.4201 350.71 11.4201H346.61ZM348.69 18.4001C347.9 18.4001 347.29 18.3001 346.86 18.1101C346.43 17.9201 346.13 17.6001 345.97 17.1601C345.81 16.7201 345.73 16.1301 345.73 15.4001C345.73 14.6701 345.81 14.0601 345.97 13.6201C346.13 13.1801 346.43 12.8601 346.86 12.6701C347.29 12.4801 347.9 12.3801 348.69 12.3801C349.48 12.3801 350.1 12.4801 350.53 12.6701C350.96 12.8601 351.25 13.1801 351.41 13.6201C351.57 14.0601 351.65 14.6501 351.65 15.4001C351.65 16.1501 351.57 16.7201 351.41 17.1601C351.25 17.6001 350.96 17.9201 350.53 18.1101C350.1 18.3001 349.49 18.4001 348.69 18.4001ZM348.69 16.5801C349.09 16.5801 349.35 16.5001 349.48 16.3401C349.61 16.1801 349.67 15.8701 349.67 15.4001C349.67 14.9301 349.61 14.6201 349.48 14.4501C349.35 14.2801 349.09 14.2001 348.69 14.2001C348.29 14.2001 348.05 14.2801 347.92 14.4501C347.79 14.6201 347.73 14.9301 347.73 15.4001C347.73 15.8701 347.79 16.1801 347.92 16.3401C348.05 16.5001 348.3 16.5801 348.69 16.5801ZM353.41 18.8801C353.08 18.9301 352.79 18.9101 352.56 18.8001C352.33 18.6901 352.16 18.4901 352.07 18.2001C351.99 17.8901 352.03 17.6301 352.2 17.4001C352.37 17.1701 352.61 17.0301 352.93 16.9801C353.56 16.8901 354.16 16.7601 354.75 16.6001C355.34 16.4401 355.89 16.2501 356.41 16.0401C355.7 15.4101 355.08 14.6801 354.55 13.8401H353.19C352.98 13.8401 352.79 13.7601 352.64 13.6001C352.49 13.4401 352.41 13.2501 352.41 13.0401C352.41 12.8101 352.49 12.6201 352.64 12.4701C352.79 12.3201 352.98 12.2401 353.19 12.2401H359.85C360.52 12.2401 361.03 12.3901 361.4 12.7001C361.77 13.0101 361.95 13.3901 361.95 13.8401C361.95 14.2901 361.72 14.7301 361.27 15.1601C361.1 15.3301 360.91 15.5001 360.72 15.6701C360.53 15.8401 360.32 15.9901 360.11 16.1401C360.54 16.3101 361 16.4701 361.49 16.6101C361.98 16.7501 362.5 16.8601 363.05 16.9401C363.37 16.9901 363.61 17.1301 363.78 17.3401C363.95 17.5501 364 17.8101 363.93 18.1201C363.78 18.7201 363.32 18.9601 362.53 18.8401C360.97 18.6001 359.53 18.0901 358.21 17.3201C357.53 17.6701 356.79 17.9701 356 18.2401C355.21 18.5101 354.34 18.7201 353.41 18.8801ZM355.27 6.72008H357.49V6.10008H355.27V6.72008ZM355.27 8.50008H357.49V7.90008H355.27V8.50008ZM356.35 10.3601H357.49V9.68008H355.29C355.32 9.93008 355.41 10.1101 355.56 10.2101C355.71 10.3101 355.98 10.3601 356.35 10.3601ZM355.57 4.80008H357.41L357.87 3.70008C357.95 3.50008 358.08 3.35008 358.26 3.25008C358.44 3.15008 358.63 3.10008 358.83 3.10008V3.02008H356.79V3.28008C356.79 3.57008 356.69 3.81008 356.5 4.00008C356.31 4.19008 356.08 4.29008 355.81 4.30008C355.78 4.38008 355.76 4.45008 355.73 4.50008C355.72 4.55008 355.69 4.60008 355.66 4.65008C355.63 4.70008 355.6 4.75008 355.57 4.80008ZM358.25 15.1201C358.42 15.0101 358.59 14.9101 358.75 14.8001C358.91 14.6901 359.06 14.5901 359.19 14.5001C359.42 14.3301 359.51 14.1701 359.47 14.0401C359.43 13.9101 359.26 13.8401 358.95 13.8401H356.77C357 14.0701 357.23 14.2901 357.48 14.5101C357.73 14.7301 357.98 14.9301 358.25 15.1201Z" fill="#010F32"/>
<path d="M371.93 18.2603C370.84 18.2603 369.9 18.1803 369.13 18.0303C368.36 17.8803 367.73 17.6003 367.26 17.2003C366.79 16.8003 366.44 16.2503 366.22 15.5403C366 14.8303 365.89 13.9303 365.89 12.8203V6.22027C365.89 5.11027 366 4.21027 366.22 3.50027C366.44 2.79027 366.79 2.24027 367.26 1.84027C367.73 1.44027 368.36 1.16027 369.13 1.01027C369.9 0.860273 370.84 0.780273 371.93 0.780273H376.89C378 0.780273 378.93 0.860273 379.7 1.01027C380.47 1.16027 381.09 1.44027 381.57 1.84027C382.05 2.24027 382.4 2.79027 382.62 3.50027C382.84 4.21027 382.95 5.11027 382.95 6.22027V12.8203C382.95 13.9303 382.84 14.8303 382.62 15.5403C382.4 16.2503 382.05 16.8003 381.57 17.2003C381.09 17.6003 380.47 17.8803 379.7 18.0303C378.93 18.1803 378 18.2603 376.89 18.2603H371.93ZM371.93 16.1803H376.89C377.8 16.1803 378.52 16.0903 379.05 15.9103C379.58 15.7303 379.97 15.4003 380.2 14.9103C380.43 14.4203 380.55 13.7303 380.55 12.8203V6.22027C380.55 5.31027 380.43 4.62027 380.2 4.13027C379.97 3.64027 379.58 3.31027 379.05 3.13027C378.52 2.95027 377.8 2.86027 376.89 2.86027H371.93C371.04 2.86027 370.32 2.95027 369.78 3.13027C369.24 3.31027 368.85 3.64027 368.62 4.13027C368.39 4.62027 368.27 5.31027 368.27 6.22027V12.8203C368.27 13.7303 368.39 14.4203 368.62 14.9103C368.85 15.4003 369.24 15.7303 369.78 15.9103C370.32 16.0903 371.04 16.1803 371.93 16.1803ZM374.63 15.5403C374.3 15.5403 374.02 15.4503 373.79 15.2603C373.56 15.0703 373.43 14.8103 373.39 14.4603C373.38 14.1403 373.46 13.8603 373.63 13.6303C373.8 13.4003 374.03 13.2703 374.31 13.2603C374.75 13.2303 375.05 13.1703 375.22 13.0703C375.39 12.9703 375.47 12.7303 375.47 12.3403V7.98027H369.77C369.46 7.98027 369.22 7.88027 369.04 7.68027C368.86 7.48027 368.77 7.25027 368.77 6.98027C368.77 6.71027 368.86 6.46027 369.04 6.26027C369.22 6.06027 369.46 5.96027 369.77 5.96027H375.47V4.50027C375.47 4.15027 375.58 3.88027 375.81 3.68027C376.04 3.48027 376.3 3.38027 376.61 3.38027C376.92 3.38027 377.2 3.48027 377.42 3.68027C377.64 3.88027 377.75 4.15027 377.75 4.50027V5.96027H379.09C379.4 5.96027 379.64 6.06027 379.82 6.26027C380 6.46027 380.09 6.70027 380.09 6.98027C380.09 7.26027 380 7.48027 379.82 7.68027C379.64 7.88027 379.4 7.98027 379.09 7.98027H377.75V12.9203C377.75 13.9603 377.5 14.6603 377.01 15.0103C376.52 15.3603 375.72 15.5403 374.63 15.5403ZM373.21 12.7403C372.96 12.8903 372.69 12.9303 372.4 12.8703C372.11 12.8103 371.9 12.6503 371.75 12.4003C371.66 12.2303 371.51 12.0003 371.31 11.7203C371.11 11.4403 370.91 11.1603 370.7 10.8703C370.49 10.5803 370.32 10.3503 370.17 10.1803C370 9.97027 369.94 9.72027 370 9.45027C370.06 9.18027 370.2 8.97027 370.41 8.82027C370.65 8.65027 370.92 8.58027 371.21 8.62027C371.5 8.66027 371.74 8.79027 371.91 9.02027C372.04 9.17027 372.22 9.38027 372.43 9.67027C372.64 9.96027 372.86 10.2403 373.07 10.5303C373.28 10.8203 373.44 11.0403 373.55 11.2003C373.72 11.4503 373.78 11.7303 373.71 12.0403C373.64 12.3503 373.48 12.5803 373.21 12.7403Z" fill="#010F32"/>
<path d="M396.83 18.9002C396.5 18.9002 396.22 18.7902 395.99 18.5802C395.76 18.3702 395.65 18.0902 395.65 17.7402V15.6402H394.17C393.84 15.6402 393.56 15.5302 393.33 15.3002C393.1 15.0702 392.99 14.7902 392.99 14.4602C392.99 14.1302 393.1 13.8602 393.33 13.6302C393.56 13.4002 393.84 13.2802 394.17 13.2802H395.65V9.40023C395.08 10.3302 394.45 11.2602 393.76 12.1802C393.07 13.1002 392.42 13.8702 391.79 14.5002C391.55 14.7402 391.26 14.8802 390.92 14.9102C390.58 14.9402 390.28 14.8302 390.03 14.5802V17.6802C390.03 18.0002 389.92 18.2702 389.69 18.5002C389.46 18.7302 389.19 18.8402 388.87 18.8402C388.55 18.8402 388.28 18.7302 388.05 18.5002C387.82 18.2702 387.71 18.0002 387.71 17.6802V8.56024C387.58 8.76023 387.44 8.96023 387.3 9.15023C387.16 9.34023 387.02 9.53024 386.87 9.72023C386.68 9.97023 386.43 10.1202 386.1 10.1602C385.77 10.2002 385.48 10.1102 385.21 9.90023C384.98 9.71023 384.85 9.47023 384.81 9.17023C384.77 8.87023 384.84 8.61023 385.01 8.38023C385.53 7.74023 386.05 6.99023 386.56 6.14023C387.07 5.29023 387.55 4.42023 387.98 3.55023C388.41 2.68023 388.76 1.88023 389.03 1.16023C389.16 0.810234 389.37 0.580234 389.66 0.470234C389.95 0.360234 390.25 0.350234 390.57 0.460234C390.86 0.570234 391.07 0.750234 391.2 1.01023C391.33 1.27023 391.33 1.57023 391.2 1.90023C391.04 2.34023 390.86 2.79023 390.66 3.25023C390.46 3.71023 390.25 4.17023 390.02 4.64023V12.9602C390.41 12.5702 390.82 12.1102 391.26 11.5802C391.7 11.0502 392.15 10.4802 392.6 9.87023C393.05 9.26023 393.48 8.67023 393.87 8.09023C394.26 7.51023 394.6 6.99023 394.88 6.52023H391.68C391.39 6.52023 391.13 6.41023 390.91 6.20023C390.69 5.99023 390.58 5.73023 390.58 5.42023C390.58 5.11023 390.69 4.85023 390.91 4.64023C391.13 4.43023 391.39 4.32023 391.68 4.32023H395.64V1.40023C395.64 1.05023 395.75 0.770234 395.98 0.560234C396.21 0.350234 396.49 0.240234 396.82 0.240234C397.15 0.240234 397.41 0.350234 397.64 0.560234C397.87 0.770234 397.98 1.05023 397.98 1.40023V4.32023H402.28C402.59 4.32023 402.85 4.43023 403.07 4.64023C403.29 4.85023 403.4 5.11023 403.4 5.42023C403.4 5.73023 403.29 5.99023 403.07 6.20023C402.85 6.41023 402.59 6.52023 402.28 6.52023H398.66C398.94 6.99023 399.28 7.50024 399.69 8.06024C400.1 8.62024 400.53 9.19024 400.98 9.76023C401.43 10.3302 401.89 10.8802 402.35 11.3902C402.81 11.9002 403.23 12.3502 403.6 12.7402C403.83 12.9702 403.95 13.2502 403.96 13.5802C403.97 13.9102 403.85 14.2102 403.58 14.4602C403.33 14.7002 403.02 14.8202 402.67 14.8302C402.32 14.8302 402.02 14.7102 401.78 14.4602C401.17 13.8202 400.52 13.0502 399.84 12.1402C399.16 11.2302 398.54 10.3302 397.98 9.44023V13.2802H399.48C399.8 13.2802 400.08 13.4002 400.31 13.6302C400.54 13.8602 400.66 14.1402 400.66 14.4602C400.66 14.7802 400.54 15.0702 400.31 15.3002C400.08 15.5302 399.8 15.6402 399.48 15.6402H397.98V17.7402C397.98 18.0902 397.87 18.3702 397.64 18.5802C397.41 18.7902 397.14 18.9002 396.82 18.9002H396.83Z" fill="#010F32"/>
<path d="M421.31 14.8395C420.66 14.3595 419.93 13.7995 419.14 13.1695C418.35 12.5395 417.55 11.8695 416.74 11.1795C415.93 10.4895 415.18 9.80954 414.47 9.13954C413.98 8.66954 413.57 8.35954 413.24 8.20954C412.91 8.05954 412.58 8.04954 412.24 8.17954C411.9 8.30954 411.46 8.58954 410.91 9.01954C410.27 9.50954 409.65 9.97954 409.05 10.4195C408.45 10.8595 407.88 11.2495 407.33 11.5995C407.05 11.7695 406.75 11.8195 406.42 11.7495C406.09 11.6795 405.84 11.4995 405.65 11.2195C405.48 10.9395 405.42 10.6295 405.48 10.2995C405.54 9.96954 405.71 9.70954 405.99 9.53954C406.5 9.22954 407.08 8.85954 407.73 8.40954C408.38 7.95954 409.02 7.50954 409.63 7.05954C410.44 6.44954 411.18 6.03954 411.85 5.83954C412.52 5.63954 413.18 5.65954 413.83 5.90954C414.48 6.15954 415.19 6.62954 415.95 7.33954C416.62 7.96954 417.36 8.61954 418.19 9.29954C419.02 9.97954 419.83 10.6295 420.64 11.2395C421.45 11.8495 422.16 12.3795 422.77 12.8195C423.04 13.0095 423.2 13.2695 423.25 13.6195C423.3 13.9695 423.23 14.2695 423.03 14.5395C422.83 14.8095 422.56 14.9695 422.22 15.0395C421.88 15.1095 421.58 15.0395 421.31 14.8395Z" fill="#010F32"/>
<path d="M437.67 19.04C437.3 19.05 436.98 18.97 436.72 18.78C436.46 18.59 436.31 18.32 436.27 17.96C436.24 17.61 436.33 17.31 436.52 17.04C436.71 16.77 437 16.63 437.39 16.6C437.9 16.56 438.22 16.48 438.35 16.36C438.48 16.24 438.55 15.99 438.55 15.62V11.74H426.09C425.84 11.74 425.62 11.64 425.43 11.44C425.24 11.24 425.15 11.01 425.15 10.76C425.15 10.49 425.24 10.26 425.43 10.07C425.62 9.88 425.84 9.78 426.09 9.78H427.89C427.86 9.73 427.84 9.67 427.81 9.61C427.78 9.55 427.76 9.49 427.75 9.42C427.68 9.17 427.72 8.93 427.86 8.71C428 8.49 428.24 8.35 428.57 8.3C430.2 8.02 431.36 7.53 432.07 6.84H429.51C429.23 6.84 429.01 6.75 428.85 6.58C428.69 6.41 428.61 6.19 428.61 5.94C428.61 5.69 428.69 5.47 428.85 5.3C429.01 5.13 429.23 5.04 429.51 5.04H433.05C433.08 4.93 433.1 4.82 433.13 4.7C433.16 4.58 433.18 4.46 433.19 4.34C433.2 4.15 433.26 3.99 433.37 3.84H429.31C428.83 3.84 428.5 3.92 428.32 4.08C428.14 4.24 428.05 4.52 428.05 4.92V5.56C428.05 5.89 427.94 6.15 427.72 6.33C427.5 6.51 427.24 6.6 426.93 6.6C426.62 6.6 426.36 6.5 426.13 6.3C425.9 6.1 425.79 5.83 425.79 5.5V4.78C425.79 3.75 426.05 3.03 426.57 2.61C427.09 2.19 427.96 1.98 429.17 1.98H433.09V1.2C433.09 0.85 433.21 0.57 433.46 0.34C433.71 0.11 434 0 434.35 0C434.7 0 434.99 0.11 435.24 0.34C435.49 0.57 435.61 0.85 435.61 1.2V1.98H439.63C440.86 1.98 441.73 2.19 442.24 2.61C442.75 3.03 443.01 3.75 443.01 4.78V5.5C443.01 5.83 442.9 6.1 442.67 6.3C442.44 6.5 442.18 6.6 441.87 6.6C441.56 6.6 441.3 6.51 441.08 6.33C440.86 6.15 440.75 5.89 440.75 5.56V4.92C440.75 4.52 440.66 4.24 440.48 4.08C440.3 3.92 439.97 3.84 439.49 3.84H435.21C435.33 4.03 435.37 4.24 435.33 4.48C435.32 4.57 435.3 4.67 435.29 4.76C435.28 4.85 435.26 4.95 435.23 5.04H439.35C439.63 5.04 439.85 5.13 440.01 5.3C440.17 5.47 440.25 5.69 440.25 5.94C440.25 6.19 440.17 6.41 440.01 6.58C439.85 6.75 439.63 6.84 439.35 6.84H436.65C437.13 7.21 437.67 7.52 438.28 7.75C438.89 7.98 439.53 8.17 440.21 8.3C440.52 8.35 440.74 8.5 440.88 8.73C441.02 8.96 441.04 9.22 440.95 9.5C440.94 9.58 440.89 9.67 440.81 9.78H442.71C442.98 9.78 443.2 9.88 443.39 10.07C443.58 10.26 443.67 10.49 443.67 10.76C443.67 11.03 443.58 11.24 443.39 11.44C443.2 11.64 442.98 11.74 442.71 11.74H440.85V16.24C440.85 17.25 440.6 17.97 440.09 18.4C439.58 18.83 438.78 19.04 437.67 19.04ZM431.19 17.64C430.4 17.64 429.79 17.56 429.34 17.39C428.89 17.22 428.58 16.95 428.41 16.58C428.24 16.21 428.15 15.7 428.15 15.06C428.15 14.42 428.24 13.91 428.41 13.53C428.58 13.15 428.89 12.88 429.34 12.71C429.79 12.54 430.4 12.46 431.19 12.46H432.83C433.63 12.46 434.25 12.54 434.69 12.71C435.13 12.88 435.44 13.15 435.61 13.53C435.78 13.91 435.87 14.42 435.87 15.06C435.87 15.7 435.78 16.21 435.61 16.58C435.44 16.95 435.13 17.22 434.69 17.39C434.25 17.56 433.63 17.64 432.83 17.64H431.19ZM431.33 15.74H432.71C433.06 15.74 433.29 15.69 433.41 15.59C433.53 15.49 433.59 15.31 433.59 15.06C433.59 14.79 433.53 14.61 433.41 14.51C433.29 14.41 433.06 14.36 432.71 14.36H431.33C430.97 14.36 430.73 14.41 430.61 14.51C430.49 14.61 430.43 14.79 430.43 15.06C430.43 15.33 430.49 15.49 430.61 15.59C430.73 15.69 430.97 15.74 431.33 15.74ZM430.61 9.78H438.11C437.38 9.53 436.7 9.18 436.07 8.75C435.44 8.32 434.88 7.77 434.39 7.12C434.02 7.72 433.52 8.24 432.9 8.69C432.28 9.14 431.52 9.5 430.61 9.78Z" fill="#010F32"/>
<path d="M449.39 18.8005C449.06 18.8005 448.77 18.6905 448.54 18.4805C448.31 18.2705 448.19 17.9805 448.19 17.6205V8.38047C447.75 8.94047 447.31 9.46047 446.87 9.94047C446.66 10.1805 446.39 10.3105 446.06 10.3305C445.73 10.3505 445.45 10.2505 445.21 10.0405C444.98 9.83047 444.86 9.57047 444.84 9.28047C444.82 8.99047 444.91 8.73047 445.11 8.52047C445.74 7.84047 446.36 7.07047 446.97 6.20047C447.58 5.33047 448.14 4.45047 448.65 3.54047C449.16 2.63047 449.56 1.79047 449.85 1.00047C449.98 0.69047 450.19 0.48047 450.47 0.37047C450.75 0.26047 451.04 0.25047 451.35 0.37047C451.64 0.46047 451.86 0.65047 451.99 0.93047C452.12 1.21047 452.12 1.51047 451.99 1.83047C451.82 2.30047 451.61 2.78047 451.37 3.28047C451.13 3.78047 450.86 4.28047 450.57 4.79047V17.6305C450.57 17.9905 450.45 18.2805 450.22 18.4905C449.99 18.7005 449.71 18.8105 449.39 18.8105V18.8005ZM457.31 18.7205C456.91 18.7205 456.59 18.6005 456.35 18.3705C456.11 18.1405 455.98 17.8305 455.95 17.4605C455.94 17.1305 456.04 16.8405 456.25 16.5905C456.46 16.3405 456.76 16.2105 457.15 16.1805C457.74 16.1405 458.11 16.0505 458.26 15.9105C458.41 15.7705 458.49 15.4805 458.49 15.0405V7.18047H452.27C451.94 7.18047 451.67 7.07047 451.46 6.85047C451.25 6.63047 451.15 6.37047 451.15 6.06047C451.15 5.75047 451.25 5.49047 451.46 5.27047C451.67 5.05047 451.94 4.94047 452.27 4.94047H458.49V1.56047C458.49 1.19047 458.61 0.89047 458.84 0.68047C459.07 0.47047 459.36 0.36047 459.69 0.36047C460.02 0.36047 460.31 0.47047 460.54 0.68047C460.77 0.89047 460.89 1.19047 460.89 1.56047V4.94047H462.67C463.02 4.94047 463.29 5.05047 463.49 5.27047C463.69 5.49047 463.79 5.75047 463.79 6.06047C463.79 6.37047 463.69 6.63047 463.49 6.85047C463.29 7.07047 463.02 7.18047 462.67 7.18047H460.89V15.4405C460.89 16.2705 460.78 16.9205 460.56 17.4005C460.34 17.8805 459.97 18.2205 459.45 18.4205C458.93 18.6205 458.22 18.7205 457.31 18.7205ZM456.45 13.2205C456.13 13.4305 455.81 13.5105 455.48 13.4405C455.15 13.3705 454.9 13.1905 454.71 12.9005C454.58 12.6705 454.39 12.4005 454.16 12.0805C453.93 11.7605 453.69 11.4405 453.45 11.1205C453.21 10.8005 453 10.5405 452.83 10.3405C452.64 10.1005 452.58 9.82047 452.63 9.51047C452.68 9.20047 452.84 8.95047 453.09 8.76047C453.36 8.57047 453.65 8.48047 453.96 8.49047C454.27 8.50047 454.54 8.63047 454.77 8.90047C454.94 9.10047 455.16 9.36047 455.41 9.69047C455.66 10.0205 455.91 10.3405 456.16 10.6705C456.41 11.0005 456.6 11.2705 456.73 11.4805C456.94 11.7905 457.02 12.1105 456.95 12.4405C456.88 12.7705 456.72 13.0305 456.45 13.2205Z" fill="#010F32"/>
<path d="M471.15 15.5404C470.54 15.5704 469.95 15.4304 469.39 15.1204C468.83 14.8104 468.34 14.3204 467.91 13.6404C467.55 13.0404 467.24 12.2804 466.99 11.3604C466.74 10.4404 466.56 9.44036 466.45 8.37036C466.34 7.30036 466.32 6.23036 466.37 5.16036C466.4 4.83036 466.53 4.55036 466.76 4.33036C466.99 4.11036 467.28 4.01036 467.61 4.04036C467.94 4.05036 468.22 4.18036 468.44 4.43036C468.66 4.68036 468.76 4.97036 468.73 5.30036C468.68 6.23036 468.68 7.14036 468.75 8.03036C468.82 8.92036 468.94 9.72036 469.13 10.4504C469.32 11.1804 469.55 11.7804 469.83 12.2604C470.14 12.8104 470.52 13.0804 470.99 13.0804C471.56 13.0704 472.04 12.4704 472.43 11.2804C472.54 10.9704 472.74 10.7404 473.03 10.5904C473.32 10.4404 473.63 10.4104 473.95 10.5204C474.26 10.6104 474.48 10.8104 474.63 11.1104C474.78 11.4104 474.8 11.7104 474.69 12.0204C474.32 13.1904 473.82 14.0604 473.19 14.6304C472.56 15.2004 471.88 15.5004 471.15 15.5404ZM482.05 12.0204C481.73 12.1404 481.42 12.1304 481.12 11.9804C480.82 11.8304 480.61 11.6104 480.49 11.3004C480.29 10.8104 480.02 10.3104 479.68 9.80036C479.34 9.29036 478.96 8.81036 478.54 8.36036C478.12 7.91036 477.69 7.53036 477.25 7.22036C476.98 7.03036 476.82 6.77036 476.75 6.44036C476.68 6.11036 476.75 5.81036 476.97 5.54036C477.18 5.27036 477.45 5.13036 477.76 5.10036C478.07 5.07036 478.37 5.16036 478.65 5.36036C479.21 5.75036 479.76 6.22036 480.3 6.78036C480.84 7.34036 481.33 7.94036 481.77 8.58036C482.21 9.22036 482.54 9.85036 482.75 10.4604C482.86 10.7704 482.84 11.0804 482.71 11.3904C482.58 11.7004 482.36 11.9104 482.05 12.0204Z" fill="#010F32"/>
<path d="M487.19 17.7601C486.9 17.5901 486.71 17.3401 486.64 17.0201C486.57 16.7001 486.62 16.4001 486.79 16.1201C487.31 15.2801 487.77 14.3501 488.17 13.3401C488.57 12.3301 488.91 11.2701 489.2 10.1801C489.49 9.09006 489.72 8.01006 489.89 6.96006C489.5 7.00006 489.13 7.03006 488.76 7.06006C488.39 7.09006 488.05 7.11006 487.73 7.14006C487.4 7.15006 487.11 7.06006 486.86 6.85006C486.61 6.64006 486.48 6.37006 486.45 6.04006C486.44 5.71006 486.54 5.42006 486.75 5.17006C486.96 4.92006 487.24 4.79006 487.57 4.78006C487.96 4.75006 488.37 4.73006 488.82 4.70006C489.27 4.67006 489.72 4.63006 490.17 4.58006C490.21 4.13006 490.24 3.69006 490.25 3.28006C490.26 2.87006 490.26 2.47006 490.25 2.10006C490.24 1.77006 490.34 1.48006 490.56 1.24006C490.78 1.00006 491.06 0.870056 491.39 0.860056C491.72 0.850056 492.01 0.950056 492.25 1.17006C492.49 1.39006 492.62 1.67006 492.63 2.00006C492.64 2.33006 492.64 2.69006 492.63 3.07006C492.62 3.45006 492.59 3.85006 492.55 4.28006C493.15 4.17006 493.69 4.07006 494.17 3.98006C494.49 3.91006 494.79 3.97006 495.07 4.14006C495.35 4.31006 495.52 4.56006 495.59 4.88006C495.66 5.21006 495.6 5.51006 495.42 5.78006C495.24 6.05006 494.99 6.21006 494.67 6.28006C494.34 6.35006 493.97 6.41006 493.56 6.48006C493.15 6.55006 492.72 6.61006 492.27 6.68006C492.08 7.89006 491.83 9.15006 491.51 10.4501C491.19 11.7501 490.81 13.0001 490.36 14.1901C489.91 15.3801 489.4 16.4401 488.83 17.3601C488.66 17.6401 488.41 17.8201 488.09 17.9001C487.77 17.9801 487.47 17.9301 487.19 17.7601ZM501.11 17.3201C499.12 17.7701 497.42 17.7901 496 17.3601C494.58 16.9301 493.56 16.1501 492.95 15.0001C492.8 14.7101 492.77 14.4001 492.86 14.0901C492.95 13.7801 493.14 13.5401 493.43 13.3801C493.72 13.2201 494.03 13.1901 494.34 13.2801C494.65 13.3701 494.89 13.5701 495.05 13.8601C495.45 14.5701 496.12 15.0101 497.07 15.1801C498.02 15.3501 499.2 15.2901 500.61 14.9801C500.94 14.9101 501.25 14.9801 501.52 15.1501C501.79 15.3301 501.96 15.5801 502.03 15.9001C502.1 16.2301 502.03 16.5401 501.86 16.8101C501.68 17.0801 501.43 17.2501 501.11 17.3201ZM500.13 9.68006C499.68 9.57006 499.16 9.50006 498.58 9.46006C498 9.42006 497.41 9.41006 496.82 9.43006C496.23 9.45006 495.67 9.51006 495.15 9.60006C494.83 9.65006 494.54 9.60006 494.28 9.41006C494.02 9.22006 493.86 8.99006 493.79 8.68006C493.72 8.36006 493.79 8.06006 493.96 7.79006C494.14 7.52006 494.39 7.35006 494.71 7.30006C495.34 7.19006 496 7.13006 496.7 7.10006C497.4 7.07006 498.1 7.08006 498.79 7.13006C499.48 7.18006 500.12 7.27006 500.69 7.40006C501.01 7.47006 501.25 7.64006 501.42 7.92006C501.59 8.20006 501.63 8.50006 501.55 8.82006C501.48 9.13006 501.31 9.36006 501.03 9.53006C500.75 9.70006 500.45 9.75006 500.13 9.68006Z" fill="#010F32"/>
<path d="M515.05 17.9796C513.45 17.9796 512.19 17.5796 511.28 16.7896C510.37 15.9996 509.91 14.7196 509.91 12.9596V2.29961C509.91 1.96961 510.03 1.67961 510.26 1.44961C510.49 1.21961 510.78 1.09961 511.11 1.09961C511.44 1.09961 511.73 1.21961 511.96 1.44961C512.19 1.67961 512.31 1.96961 512.31 2.29961V12.9596C512.31 13.9496 512.53 14.6296 512.98 15.0196C513.43 15.4096 514.12 15.5996 515.05 15.5996C515.88 15.5996 516.65 15.3796 517.38 14.9396C518.11 14.4996 518.7 13.7896 519.15 12.8196C519.3 12.5096 519.53 12.3096 519.85 12.1996C520.17 12.0896 520.48 12.1096 520.77 12.2596C521.08 12.3896 521.28 12.6196 521.38 12.9396C521.48 13.2596 521.46 13.5696 521.33 13.8796C520.74 15.1996 519.89 16.2096 518.76 16.9196C517.63 17.6296 516.4 17.9796 515.05 17.9796Z" fill="#010F32"/>
<path d="M532.23 18.3196C531.14 18.3196 530.26 18.0596 529.59 17.5496C528.92 17.0396 528.59 16.2696 528.59 15.2596C528.59 14.3496 528.93 13.6296 529.6 13.0796C530.27 12.5296 531.18 12.2596 532.31 12.2596C532.71 12.2596 533.11 12.2796 533.51 12.3196L533.45 10.0596C532.06 10.0996 530.84 10.0996 529.77 10.0596C529.44 10.0296 529.17 9.89965 528.96 9.64965C528.75 9.39965 528.66 9.11965 528.67 8.79965C528.7 8.47965 528.83 8.20965 529.08 7.99965C529.33 7.78965 529.61 7.68965 529.93 7.71965C530.44 7.74965 530.99 7.75965 531.58 7.76965C532.17 7.76965 532.78 7.76965 533.39 7.76965C533.38 7.44965 533.37 7.12965 533.37 6.80965C533.37 6.48965 533.37 6.17965 533.35 5.86965C532.7 5.87965 532.06 5.88965 531.45 5.86965C530.84 5.86965 530.28 5.84965 529.77 5.83965C529.44 5.82965 529.17 5.69965 528.96 5.44965C528.75 5.19965 528.66 4.90965 528.67 4.57965C528.7 4.25965 528.83 3.98965 529.08 3.77965C529.33 3.56965 529.61 3.46965 529.93 3.49965C530.92 3.56965 532.04 3.58965 533.31 3.55965V1.83965C533.31 1.50965 533.42 1.21965 533.65 0.989648C533.88 0.759648 534.16 0.639648 534.49 0.639648C534.82 0.639648 535.11 0.759648 535.34 0.989648C535.57 1.21965 535.69 1.50965 535.69 1.83965V2.60965C535.69 2.87965 535.69 3.16965 535.71 3.47965C536.26 3.43965 536.78 3.39965 537.29 3.34965C537.8 3.29965 538.26 3.24965 538.67 3.19965C538.99 3.15965 539.28 3.23965 539.54 3.42965C539.8 3.61965 539.95 3.87965 539.99 4.19965C540.03 4.52965 539.95 4.82965 539.76 5.08965C539.57 5.34965 539.31 5.49965 538.99 5.53965C538.52 5.58965 538.01 5.63965 537.46 5.67965C536.91 5.71965 536.34 5.74965 535.75 5.77965C535.75 6.08965 535.75 6.39965 535.75 6.71965C535.75 7.03965 535.77 7.35965 535.78 7.67965C536.31 7.64965 536.82 7.61965 537.31 7.56965C537.8 7.51965 538.25 7.46965 538.66 7.41965C538.98 7.36965 539.27 7.43965 539.53 7.63965C539.79 7.83965 539.94 8.09965 539.98 8.41965C540.02 8.73965 539.94 9.02965 539.75 9.28965C539.56 9.54965 539.3 9.69965 538.98 9.73965C538.53 9.78965 538.03 9.83965 537.5 9.87965C536.97 9.91965 536.41 9.94965 535.82 9.97965C535.85 10.5096 535.86 11.0196 535.87 11.4996C535.88 11.9796 535.89 12.4296 535.9 12.8396C536.67 13.0696 537.41 13.3496 538.1 13.6796C538.79 14.0096 539.41 14.3696 539.94 14.7396C540.21 14.9096 540.37 15.1696 540.43 15.4996C540.49 15.8296 540.43 16.1296 540.24 16.3996C540.05 16.6696 539.8 16.8296 539.47 16.8896C539.14 16.9496 538.85 16.8897 538.58 16.6996C538.21 16.4296 537.79 16.1796 537.34 15.9296C536.89 15.6796 536.41 15.4596 535.92 15.2596C535.87 16.3096 535.52 17.0896 534.88 17.5796C534.24 18.0696 533.35 18.3196 532.22 18.3196H532.23ZM532.21 16.0596C532.76 16.0596 533.12 15.9596 533.29 15.7696C533.46 15.5796 533.55 15.2996 533.55 14.9396V14.5596C533.1 14.4796 532.65 14.4396 532.21 14.4396C531.77 14.4396 531.47 14.5096 531.27 14.6596C531.07 14.8096 530.97 15.0096 530.97 15.2596C530.97 15.7896 531.38 16.0596 532.21 16.0596Z" fill="#010F32"/>
<path d="M552.39 18.5198C552.07 18.6098 551.76 18.6098 551.46 18.5198C551.16 18.4298 550.94 18.2198 550.79 17.9298C550.66 17.6198 550.64 17.3098 550.75 16.9898C550.86 16.6698 551.06 16.4498 551.37 16.3298C552.38 15.9398 553.17 15.5098 553.73 15.0298C554.29 14.5498 554.68 13.9998 554.91 13.3698C554.46 13.5798 554.01 13.6898 553.57 13.6898C552.52 13.6898 551.66 13.4198 550.99 12.8798C550.32 12.3398 549.99 11.5398 549.99 10.4898C549.99 9.43984 550.34 8.60984 551.03 8.00984C551.72 7.40984 552.6 7.10984 553.65 7.10984C553.74 7.10984 553.83 7.10984 553.91 7.11984C553.99 7.12984 554.08 7.13984 554.17 7.14984C554.13 6.91984 554.1 6.68984 554.08 6.44984C554.06 6.20984 554.04 5.95984 554.03 5.68984C552.7 5.73984 551.39 5.81984 550.1 5.91984C548.81 6.01984 547.62 6.11984 546.51 6.22984C546.19 6.25984 545.9 6.16984 545.65 5.97984C545.4 5.78984 545.25 5.52984 545.21 5.20984C545.18 4.87984 545.27 4.57984 545.47 4.32984C545.67 4.07984 545.93 3.93984 546.25 3.92984C547.38 3.83984 548.62 3.74984 549.95 3.67984C551.28 3.60984 552.64 3.53984 554.01 3.48984V1.76984C554.01 1.43984 554.12 1.15984 554.35 0.929844C554.58 0.699844 554.86 0.589844 555.19 0.589844C555.52 0.589844 555.82 0.699844 556.05 0.929844C556.28 1.15984 556.39 1.43984 556.39 1.76984V3.40984C557.5 3.37984 558.56 3.35984 559.57 3.33984C560.58 3.31984 561.52 3.29984 562.37 3.28984C562.7 3.28984 562.98 3.40984 563.2 3.64984C563.42 3.88984 563.52 4.16984 563.51 4.48984C563.5 4.81984 563.37 5.09984 563.14 5.30984C562.91 5.51984 562.62 5.61984 562.29 5.60984C560.58 5.53984 558.62 5.53984 556.39 5.60984C556.4 6.07984 556.43 6.53984 556.46 7.00984C556.49 7.47984 556.52 7.91984 556.55 8.34984C557.19 9.10984 557.51 10.1398 557.51 11.4498C557.51 13.1198 557.07 14.5798 556.2 15.8298C555.33 17.0798 554.06 17.9798 552.39 18.5298V18.5198ZM553.57 11.6198C553.96 11.6098 554.26 11.4998 554.48 11.3098C554.7 11.1198 554.81 10.8298 554.81 10.4598C554.81 10.3498 554.8 10.2298 554.78 10.0998C554.76 9.96984 554.74 9.82984 554.71 9.69984C554.43 9.36984 554.06 9.19984 553.61 9.19984C553.24 9.19984 552.92 9.30984 552.66 9.52984C552.4 9.74984 552.27 10.0498 552.27 10.4398C552.27 10.8298 552.39 11.1198 552.64 11.3298C552.89 11.5398 553.2 11.6298 553.57 11.6198Z" fill="#010F32"/>
<path d="M1.17 7.41025C1.1 7.61025 -0.299996 10.3602 0.0500042 13.4402C0.840004 20.3202 7.15 20.6202 12.83 20.6202C17.35 20.6202 23.15 19.3602 24.12 14.0202C24.74 10.6002 23.27 7.61025 23.2 7.42025C23.64 7.14025 23.85 0.860246 23.02 0.160246C22.19 -0.529754 15.16 3.63025 15.16 3.63025C13.27 2.99025 9.23 3.63025 9.23 3.63025C9.22 3.62025 2.6 -0.369754 1.36 0.150246C0.120004 0.670246 0.730004 7.13025 1.17 7.41025Z" fill="#010F32"/>
<path d="M585.71 7.41025C585.64 7.61025 584.24 10.3602 584.59 13.4402C585.38 20.3202 591.69 20.6202 597.37 20.6202C601.89 20.6202 607.69 19.3602 608.66 14.0202C609.28 10.6002 607.81 7.61025 607.74 7.42025C608.18 7.14025 608.39 0.860246 607.56 0.160246C606.73 -0.529754 599.7 3.63025 599.7 3.63025C597.81 2.99025 593.77 3.63025 593.77 3.63025C593.77 3.63025 587.15 -0.359754 585.91 0.160246C584.67 0.680246 585.28 7.14025 585.73 7.42025L585.71 7.41025Z" fill="#010F32"/>
</g>
<defs>
<clipPath id="clip0_503_147">
<rect width="608.82" height="20.61" fill="white"/>
</clipPath>
</defs>
</svg>
