<svg width="605" height="309" viewBox="0 0 605 309" fill="none" xmlns="http://www.w3.org/2000/svg">
<path d="M53.7 26.3004C53.7 27.5004 52.7 28.1004 51.5 28.1004C50.3 28.1004 49.3 27.5004 49.3 26.3004V3.70039C49.3 2.50039 50.1 1.90039 51.5 1.90039C52.9 1.90039 53.7 2.50039 53.7 3.70039V26.3004Z" fill="#010F32"/>
<path d="M75.8999 26.4996C75.8999 27.4996 75.0999 28.0996 73.6999 28.0996C72.2999 28.0996 71.6999 27.4996 71.6999 26.4996V16.4996C71.6999 14.0996 70.8999 12.6996 68.6999 12.6996C67.2999 12.6996 66.0999 13.2996 65.0999 14.4996C64.4999 15.2996 63.8999 16.2996 63.8999 17.2996V26.4996C63.8999 27.4996 63.0999 28.0996 61.8999 28.0996C60.6999 28.0996 59.8999 27.4996 59.8999 26.4996V10.8996C59.8999 9.89961 60.6999 9.29961 61.8999 9.29961C63.0999 9.29961 63.8999 9.89961 63.8999 10.8996V11.4996C63.8999 11.6996 63.8999 12.0996 63.8999 12.4996C65.0999 10.2996 66.8999 9.09961 69.8999 9.09961C73.8999 9.09961 76.0999 11.4996 76.0999 15.6996L75.8999 26.4996Z" fill="#010F32"/>
<path d="M86.9 19.9004C83.1 19.1004 81.1 17.7004 81.1 14.3004C81.1 11.3004 83.5 8.90039 88.3 8.90039C92.1 8.90039 94.5 10.5004 95.5 12.7004C95.7 12.9004 95.7 13.1004 95.7 13.3004C95.7 14.1004 95.1 14.7004 94.3 14.9004C94.1 14.9004 93.7 15.1004 93.5 15.1004C92.7 15.1004 92.1 14.7004 91.9 14.1004C91.5 12.9004 90.3 12.1004 88.5 12.1004C86.1 12.1004 85.1 12.9004 85.1 14.1004C85.1 15.5004 85.7 15.9004 88.1 16.5004L90.3 16.9004C94.5 17.7004 96.3 19.1004 96.3 22.7004C96.3 26.3004 93.5 28.5004 88.7 28.5004C83.9 28.5004 81.5 26.5004 80.7 23.9004C80.7 23.7004 80.7 23.5004 80.7 23.3004C80.7 22.5004 81.5 21.9004 82.3 21.7004C82.5 21.7004 82.7 21.7004 82.9 21.7004C83.7 21.7004 84.5 22.1004 84.7 22.7004C85.3 24.3004 86.5 25.1004 88.7 25.1004C90.9 25.1004 92.5 24.3004 92.5 22.7004C92.5 21.3004 91.7 20.5004 89.1 20.1004L86.9 19.9004Z" fill="#010F32"/>
<path d="M103.3 5.69961C103.3 4.69961 103.9 4.09961 105.3 4.09961C106.7 4.09961 107.3 4.69961 107.3 5.69961V9.49961H111.1C112.1 9.49961 112.5 10.2996 112.5 11.2996C112.5 12.2996 112.1 13.0996 111.1 13.0996H107.3V22.8996C107.3 24.0996 107.9 24.6996 108.9 24.6996C109.5 24.6996 110.1 24.4996 110.5 24.2996C110.7 24.0996 110.9 24.0996 111.1 24.0996C111.7 24.0996 112.3 24.6996 112.5 25.2996C112.7 25.6996 112.7 25.8996 112.7 26.2996C112.7 26.8996 112.5 27.4996 111.9 27.8996C110.9 28.2996 109.9 28.4996 108.7 28.4996C105.7 28.4996 103.3 27.2996 103.3 23.0996V13.0996H101.1C100.1 13.0996 99.7 12.2996 99.7 11.2996C99.7 10.2996 100.1 9.49961 101.1 9.49961H103.3V5.69961Z" fill="#010F32"/>
<path d="M127.5 14.9004C127.5 13.1004 126.5 12.1004 124.3 12.1004C122.3 12.1004 121.1 12.9004 120.7 14.3004C120.3 14.9004 119.7 15.3004 119.1 15.3004C118.7 15.3004 118.5 15.3004 118.1 15.1004C117.3 14.9004 116.7 14.3004 116.7 13.5004C116.7 13.3004 116.7 13.1004 116.9 12.9004C117.3 11.9004 118.1 10.9004 119.1 10.3004C120.3 9.50039 121.9 8.90039 124.5 8.90039C129.3 8.90039 131.5 10.7004 131.5 14.9004V23.5004C131.5 24.7004 131.7 25.7004 131.9 26.3004C131.9 26.5004 131.9 26.5004 131.9 26.7004C131.9 27.3004 131.3 27.9004 130.1 28.1004H129.7C128.9 28.1004 128.1 27.9004 127.9 27.3004C127.7 27.1004 127.7 26.5004 127.7 26.1004C126.5 27.5004 124.7 28.5004 121.9 28.5004C118.1 28.5004 115.7 26.5004 115.7 22.9004C115.7 19.9004 117.5 17.9004 120.5 17.1004C122.3 16.7004 123.7 16.5004 127.3 16.3004L127.5 14.9004ZM127.5 19.1004C124.3 19.3004 122.5 19.5004 121.3 20.1004C120.3 20.7004 119.7 21.5004 119.7 22.7004C119.7 24.1004 120.9 25.1004 122.7 25.1004C124.3 25.1004 125.9 24.3004 126.7 23.1004C127.3 22.3004 127.5 21.7004 127.5 20.7004V19.1004Z" fill="#010F32"/>
<path d="M153.9 25.7002C153.9 32.7002 150.3 35.1002 145.1 35.1002C141.5 35.1002 138.9 33.9002 137.7 32.3002C137.5 31.9002 137.3 31.7002 137.3 31.3002C137.3 30.7002 137.7 30.3002 138.1 29.9002C138.5 29.5002 138.9 29.3002 139.5 29.3002C139.9 29.3002 140.3 29.5002 140.7 29.9002C141.7 31.1002 142.9 31.7002 144.9 31.7002C148.5 31.7002 149.7 29.9002 149.9 25.7002C149.9 25.5002 149.9 24.9002 149.9 24.5002C148.9 26.1002 146.9 27.3002 144.5 27.3002C139.7 27.3002 136.5 23.7002 136.5 18.1002C136.5 12.5002 139.5 8.7002 144.5 8.7002C147.1 8.7002 148.9 9.9002 149.9 11.7002C149.9 11.5002 149.7 11.1002 149.7 10.9002V10.3002C149.7 9.7002 150.3 8.9002 151.7 8.9002C153.1 8.9002 153.7 9.5002 153.7 10.5002L153.9 25.7002ZM140.7 18.5002C140.7 22.1002 142.5 24.5002 145.3 24.5002C148.1 24.5002 149.9 21.9002 149.9 18.5002C149.9 15.1002 148.3 12.5002 145.3 12.5002C142.3 12.5002 140.7 14.7002 140.7 18.5002Z" fill="#010F32"/>
<path d="M164.1 26.4998C164.1 27.4998 163.3 28.0998 162.1 28.0998C160.9 28.0998 160.1 27.4998 160.1 26.4998V10.8998C160.1 9.8998 160.9 9.2998 162.1 9.2998C163.3 9.2998 164.1 9.8998 164.1 10.8998V11.4998C164.1 11.8998 163.9 12.2998 163.9 12.6998C164.5 11.0998 165.9 9.4998 168.1 9.2998C168.5 9.2998 168.9 9.2998 169.3 9.2998C169.5 9.2998 169.9 9.2998 170.1 9.2998C171.1 9.4998 171.5 10.0998 171.5 10.8998C171.5 11.0998 171.5 11.2998 171.5 11.4998C171.3 12.4998 170.7 13.4998 169.7 13.4998H169.5C169.1 13.4998 168.9 13.4998 168.5 13.4998H168.1C167.1 13.4998 166.3 14.0998 165.5 14.8998C164.7 15.6998 163.9 17.0998 163.9 18.6998L164.1 26.4998Z" fill="#010F32"/>
<path d="M186.7 14.9004C186.7 13.1004 185.7 12.1004 183.5 12.1004C181.5 12.1004 180.3 12.9004 179.9 14.3004C179.5 14.9004 178.9 15.3004 178.3 15.3004C177.9 15.3004 177.7 15.3004 177.3 15.1004C176.5 14.9004 175.9 14.3004 175.9 13.5004C175.9 13.3004 175.9 13.1004 176.1 12.9004C176.5 11.9004 177.3 10.9004 178.3 10.3004C179.5 9.50039 181.1 8.90039 183.7 8.90039C188.5 8.90039 190.7 10.7004 190.7 14.9004V23.5004C190.7 24.7004 190.9 25.7004 191.1 26.3004C191.1 26.5004 191.1 26.5004 191.1 26.7004C191.1 27.3004 190.5 27.9004 189.3 28.1004H188.9C188.1 28.1004 187.3 27.9004 187.1 27.3004C186.9 27.1004 186.9 26.5004 186.9 26.1004C185.7 27.5004 183.9 28.5004 181.1 28.5004C177.3 28.5004 174.9 26.5004 174.9 22.9004C174.9 19.9004 176.7 17.9004 179.7 17.1004C181.5 16.7004 182.9 16.5004 186.5 16.3004L186.7 14.9004ZM186.7 19.1004C183.5 19.3004 181.7 19.5004 180.5 20.1004C179.5 20.7004 178.9 21.5004 178.9 22.7004C178.9 24.1004 180.1 25.1004 181.9 25.1004C183.5 25.1004 185.1 24.3004 185.9 23.1004C186.5 22.3004 186.7 21.7004 186.7 20.7004V19.1004Z" fill="#010F32"/>
<path d="M221.3 26.5004C221.3 27.5004 220.5 28.1004 219.3 28.1004C217.9 28.1004 217.3 27.5004 217.3 26.5004V16.5004C217.3 14.1004 216.7 12.7004 214.7 12.7004C213.3 12.7004 212.3 13.5004 211.7 14.3004C211.1 14.9004 210.9 15.9004 210.9 16.9004V26.5004C210.9 27.5004 210.1 28.1004 208.9 28.1004C207.7 28.1004 206.9 27.5004 206.9 26.5004V16.5004C206.9 13.9004 206.3 12.7004 204.3 12.7004C202.9 12.7004 202.1 13.3004 201.3 14.3004C200.7 15.1004 200.5 16.1004 200.5 17.1004V26.5004C200.5 27.5004 199.7 28.1004 198.5 28.1004C197.3 28.1004 196.5 27.5004 196.5 26.5004V10.9004C196.5 9.90039 197.3 9.30039 198.5 9.30039C199.7 9.30039 200.5 9.90039 200.5 10.9004V11.3004C200.5 11.5004 200.3 11.9004 200.3 12.3004C201.1 10.5004 202.5 8.90039 205.3 8.90039C208.1 8.90039 209.7 10.1004 210.1 12.3004C211.1 10.7004 212.3 8.90039 215.7 8.90039C219.7 8.90039 221.1 11.3004 221.1 15.3004L221.3 26.5004Z" fill="#010F32"/>
<path d="M251.9 6.70039C250.5 6.90039 249.3 7.10039 248.3 7.30039C244.3 7.70039 240.3 8.10039 236.7 8.30039H236.5C235.3 8.30039 234.7 7.70039 234.5 6.50039V6.30039C234.5 5.30039 235.1 4.50039 236.1 4.30039C243.3 3.70039 252.3 3.10039 259.9 2.90039H260.1C261.5 2.90039 262.1 3.50039 262.1 4.70039V4.90039C262.1 5.90039 261.7 6.70039 260.3 6.90039C259.7 6.90039 259.3 7.10039 258.5 7.10039C252.1 8.10039 247.5 12.3004 247.5 17.1004C247.5 19.9004 248.9 21.7004 251.3 22.7004C252.9 23.3004 254.9 23.7004 256.9 23.7004C258.1 23.7004 258.9 24.5004 258.9 25.7004V25.9004C258.7 27.1004 258.1 27.9004 256.7 27.9004C253.7 27.9004 251.3 27.3004 249.3 26.5004C245.7 24.7004 243.5 21.7004 243.5 17.5004C243.5 13.1004 246.5 8.90039 251.9 6.70039ZM256.5 10.5004C256.9 10.5004 257.3 10.7004 257.5 11.1004C258.3 12.1004 259.3 13.1004 259.7 14.1004C259.9 14.3004 259.9 14.7004 259.9 14.9004C259.9 15.5004 259.7 15.9004 259.3 16.1004C259.1 16.3004 258.7 16.3004 258.5 16.3004C258.1 16.3004 257.5 16.1004 257.3 15.7004C256.7 14.7004 255.9 13.7004 255.1 12.7004C254.9 12.5004 254.9 12.1004 254.9 11.9004C254.9 11.5004 255.1 10.9004 255.7 10.7004C256.1 10.7004 256.3 10.5004 256.5 10.5004ZM260.3 8.50039C260.7 8.50039 261.1 8.70039 261.5 9.10039C262.3 9.90039 263.1 11.1004 263.7 11.9004C263.9 12.1004 263.9 12.5004 263.9 12.7004C263.9 13.1004 263.7 13.5004 263.3 13.9004C263.1 14.1004 262.7 14.1004 262.5 14.1004C262.1 14.1004 261.5 13.9004 261.3 13.5004C260.7 12.5004 259.9 11.5004 259.3 10.7004C259.1 10.5004 259.1 10.1004 259.1 9.90039C259.1 9.50039 259.3 8.90039 259.9 8.70039C259.7 8.50039 259.9 8.50039 260.3 8.50039Z" fill="#010F32"/>
<path d="M40.8999 56.0998C40.8999 53.2998 41.8999 52.2998 44.6999 52.2998H50.0999C51.2999 52.2998 51.6999 53.0998 51.6999 54.2998C51.6999 55.4998 51.0999 56.2998 50.0999 56.2998H46.0999C45.4999 56.2998 44.8999 56.6998 44.8999 57.4998V70.6998C44.8999 71.6998 44.0999 72.4998 42.8999 72.4998C41.6999 72.4998 40.8999 71.8998 40.8999 70.6998V56.0998Z" fill="#010F32"/>
<path d="M64.1 56.1002C64.3 55.1002 64.9 54.7002 66.1 54.7002H66.3C67.3 54.7002 67.9 55.1002 67.9 55.9002C67.9 56.1002 67.9 56.1002 67.9 56.3002L66.9 62.7002H71.1L72.1 56.1002C72.3 55.1002 72.9 54.7002 74.1 54.7002H74.3C75.3 54.7002 75.9 55.1002 75.9 55.9002C75.9 56.1002 75.9 56.1002 75.9 56.3002L74.9 62.7002H77.5C78.5 62.7002 78.9 63.5002 78.9 64.5002C78.9 65.5002 78.3 66.3002 77.5 66.3002H73.9L72.9 72.3002H75.9C76.9 72.3002 77.3 73.1002 77.3 74.1002C77.3 75.1002 76.9 75.9002 75.9 75.9002H72.3L71.5 82.7002C71.3 83.7002 70.7 84.1002 69.7 84.1002H69.5C68.5 84.1002 67.9 83.7002 67.9 82.9002C67.9 82.9002 67.9 82.7002 67.9 82.5002L68.9 75.7002H64.7L63.5 82.7002C63.3 83.7002 62.7 84.1002 61.7 84.1002H61.5C60.5 84.1002 59.9 83.7002 59.9 82.9002C59.9 82.7002 59.9 82.7002 59.9 82.5002L60.9 75.7002H57.9C56.9 75.7002 56.5 74.9002 56.5 73.9002C56.5 72.9002 56.9 72.1002 57.9 72.1002H61.5L62.5 66.1002H59.5C58.5 66.1002 58.1 65.3002 58.1 64.3002C58.1 63.3002 58.5 62.5002 59.5 62.5002H63.1L64.1 56.1002ZM69.5 72.1002L70.5 66.1002H66.3L65.3 72.1002H69.5Z" fill="#F06C87"/>
<path d="M96.9 63.1C96.1 63.7 95.3 64.3 94.5 64.9C94.3 65.1 93.9 65.1 93.7 65.1C93.1 65.1 92.5 64.7 92.1 64.1C91.9 63.7 91.7 63.3 91.7 62.9C91.7 62.3 91.9 61.7 92.5 61.5C93.5 60.9 94.5 60.1 95.5 59.3C94.9 58.1 94.1 57.1 93.3 55.9C93.1 55.5 92.9 55.3 92.9 54.9C92.9 54.5 93.1 53.9 93.7 53.5C94.1 53.3 94.5 53.1 94.9 53.1C95.3 53.1 95.7001 53.3 96.1001 53.7C96.9001 54.7 97.5001 55.5 98.1001 56.5C99.1001 55.5 99.9 54.3 100.7 53.3C101.1 52.9 101.5 52.7 102.1 52.7C102.5 52.7 102.9 52.9 103.3 53.1C103.9 53.5 104.1 53.9 104.1 54.5C104.1 54.9 103.9 55.1 103.7 55.5C102.5 57.1 101.3 58.7 99.7 60.1C101.1 63.7 101.5 68.1 101.5 74.3C101.5 78.3 101.1 81.1 100.5 82.9C99.7 84.9 98.3 85.7 96.7 85.7C95.5 85.7 94.3 85.5 93.3 85.3C92.7 85.1 92.3 84.5 92.3 83.7C92.3 83.5 92.3 83.3 92.3 83.1C92.5 82.3 93.1 81.7 93.7 81.7C93.9 81.7 94.1001 81.7 94.1001 81.7C94.5001 81.9 95.1 81.9 95.5 81.9C96.3 81.9 96.7001 81.7 97.1001 80.3C97.3001 79.3 97.7 76.9 97.7 74.1V72.5C96.7 73.9 95.5 75.1 94.3 75.9C93.9 76.3 93.5 76.3 93.1 76.3C92.7 76.3 92.1 76.1 91.7 75.5C91.5 75.1 91.3 74.7 91.3 74.3C91.3 73.7 91.5 73.3 91.9 72.9C93.7 71.5 95.7 69.7 97.3 67.7C97.7 66.1 97.3 64.5 96.9 63.1ZM111.5 62.5C111.5 63.3 110.7 63.9 109.7 63.9C108.7 63.9 107.9 63.5 107.9 62.5V60.3H104.7C103.9 60.3 103.3 59.5 103.3 58.5C103.3 57.5 103.7 56.7 104.7 56.7H107.9V53.9C107.9 53.1 108.7 52.5 109.7 52.5C110.7 52.5 111.5 52.9 111.5 53.9V56.7H116.5V53.9C116.5 53.1 117.3 52.5 118.3 52.5C119.3 52.5 120.1 52.9 120.1 53.9V56.7H124.1C124.9 56.7 125.5 57.5 125.5 58.5C125.5 59.5 125.1 60.3 124.1 60.3H120.1V62.5C120.1 63.3 119.3 63.9 118.3 63.9C117.3 63.9 116.5 63.5 116.5 62.5V60.3H111.5V62.5ZM121.1 64.7C123.5 64.7 124.5 65.7 124.5 67.9V82.1C124.5 84.1 123.3 85.3 121.1 85.3H107.1C104.9 85.3 103.7 84.1 103.7 82.1V67.9C103.7 65.7 104.9 64.7 107.1 64.7H121.1ZM112.1 68.3H108.3C107.7 68.3 107.3 68.5 107.3 69.1V72.9H112.1V68.3ZM112.1 76.3H107.5V80.9C107.5 81.5 107.9 81.7 108.5 81.7H112.3L112.1 76.3ZM120.9 69.1C120.9 68.5 120.7 68.3 119.9 68.3H115.9V73.1H120.9V69.1ZM119.9 81.9C120.5 81.9 120.9 81.7 120.9 81.1V76.5H115.9V82.1L119.9 81.9Z" fill="#F06C87"/>
<path d="M146.3 74.7002C145.1 77.9002 143.9 79.5002 142.7 80.7002C141.5 81.7002 140.1 82.1002 138.5 82.1002C134.7 82.1002 131.1 78.5002 131.1 71.5002C131.1 62.5002 137.5 55.7002 147.7 55.7002C156.7 55.7002 162.5 61.5002 162.5 69.9002C162.5 75.1002 160.3 79.1002 156.7 81.5002C154.5 82.9002 151.9 83.9002 148.9 84.3002C148.7 84.3002 148.5 84.3002 148.5 84.3002C147.5 84.3002 146.5 83.9002 146.3 82.5002C146.3 82.3002 146.3 82.1002 146.3 82.1002C146.3 81.1002 146.9 80.3002 148.1 80.1002C150.5 79.7002 153.1 78.9002 154.7 77.7002C156.7 76.1002 158.3 73.5002 158.3 69.9002C158.3 64.3002 154.7 60.1002 149.3 59.9002C148.7 65.7002 147.7 70.9002 146.3 74.7002ZM135.1 71.5002C135.1 75.7002 136.7 77.7002 138.3 77.7002C138.9 77.7002 139.7 77.5002 140.3 76.9002C140.9 76.3002 141.7 75.1002 142.3 72.9002C143.5 69.7002 144.3 64.9002 144.7 59.9002C139.1 60.5002 135.1 65.1002 135.1 71.5002Z" fill="#F06C87"/>
<path d="M178.7 55.9004C178.5 61.5004 178.3 67.7004 178.3 73.3004C178.3 76.3004 178.7 78.1004 179.9 79.1004C180.9 80.1004 182.5 80.5004 184.7 80.5004C187.3 80.5004 189.9 79.7004 191.7 77.5004C193.3 75.9004 194.5 73.5004 195.3 70.7004C195.7 69.5004 196.3 69.1004 197.3 69.1004C197.7 69.1004 197.9 69.1004 198.3 69.3004C199.3 69.7004 199.7 70.3004 199.7 71.3004C199.7 71.5004 199.7 71.9004 199.5 72.1004C198.3 75.9004 196.7 78.9004 194.5 81.1004C191.9 83.7004 188.3 84.9004 184.5 84.9004C180.9 84.9004 178.3 84.1004 176.5 82.5004C174.7 80.7004 173.7 78.1004 173.7 73.7004C173.7 67.9004 173.9 61.3004 174.1 55.9004C174.1 54.7004 174.9 53.9004 176.3 53.9004H176.5C177.9 53.9004 178.7 54.7004 178.7 55.9004Z" fill="#F06C87"/>
<path d="M213.3 84.1004C209.9 84.1004 207.3 82.1004 207.3 77.9004C207.3 72.9004 210.9 68.7004 215.7 66.3004C215.7 65.9004 215.7 65.5004 215.7 64.9004C215.7 63.7004 215.7 62.5004 215.7 61.3004C214.5 61.3004 213.1 61.3004 211.7 61.3004H210.1C208.7 61.3004 208.3 60.5004 208.3 59.5004V59.3004C208.3 58.1004 208.9 57.5004 210.1 57.5004H216.1C216.1 56.5004 216.1 55.5004 216.3 54.5004C216.5 53.5004 217.1 52.9004 218.1 52.9004H218.3C219.7 52.9004 220.1 53.5004 220.1 54.5004V54.7004C220.1 55.5004 219.9 56.3004 219.9 57.3004C224.5 57.1004 228.7 56.9004 232.5 56.3004C232.7 56.3004 232.7 56.3004 232.9 56.3004C233.9 56.3004 234.5 56.9004 234.7 57.9004C234.7 58.1004 234.7 58.1004 234.7 58.3004C234.7 59.3004 234.1 59.9004 232.9 60.1004C229.1 60.5004 224.7 60.9004 219.7 61.1004C219.7 62.1004 219.7 63.1004 219.7 64.1004V64.9004C221.1 64.5004 223.1 64.3004 225.3 64.3004C225.3 63.9004 225.5 63.7004 225.5 63.3004C225.7 62.5004 226.1 62.1004 227.1 62.1004C227.3 62.1004 227.5 62.1004 227.5 62.1004C228.5 62.3004 229.1 62.7004 229.1 63.5004V63.7004C229.1 64.1004 228.9 64.3004 228.9 64.7004C234.5 65.7004 237.5 69.3004 237.5 74.3004C237.5 80.5004 232.1 85.1004 224.3 85.3004C222.9 85.3004 222.1 84.5004 222.1 83.5004V83.3004C222.1 82.1004 222.9 81.3004 223.9 81.3004C229.9 81.1004 233.3 77.9004 233.3 74.1004C233.3 71.1004 231.5 68.9004 228.3 68.3004C227.3 72.9004 224.5 77.9004 221.1 80.9004C218.1 83.3004 215.5 84.1004 213.3 84.1004ZM215.9 70.3004C212.7 72.1004 211.1 74.9004 211.1 77.5004C211.1 79.3004 211.9 80.1004 213.5 80.1004C215.1 80.1004 216.3 79.7004 217.5 78.5004C216.7 76.3004 216.1 73.1004 215.9 70.3004ZM224.1 67.9004C222.1 67.9004 220.5 68.3004 219.5 68.5004C219.5 70.9004 219.9 73.3004 220.5 75.5004C222.1 73.7004 223.3 70.9004 224.1 67.9004Z" fill="#F06C87"/>
<path d="M254.3 63.3002C254.3 63.9002 254.3 64.7002 254.3 65.3002C255.1 64.5002 256.1 63.5002 257.1 62.7002C259.9 60.7002 262.7 59.5002 265.7 59.5002C272.3 59.5002 276.1 64.3002 276.1 70.5002C276.1 75.3002 274.3 79.1002 270.5 81.3002C268.1 82.7002 264.9 83.5002 261.3 83.5002C259.9 83.5002 259.1 82.7002 259.1 81.3002C259.1 79.9002 259.9 79.1002 261.1 79.1002C263.7 79.1002 266.5 78.5002 268.1 77.5002C270.5 76.1002 271.7 73.7002 271.7 70.3002C271.7 66.3002 269.1 63.5002 265.3 63.5002C262.7 63.5002 260.1 64.7002 257.5 66.7002C256.5 67.5002 255.3 68.7002 254.3 69.9002C254.3 74.7002 254.3 79.1002 254.3 83.7002C254.3 84.9002 253.5 85.7002 252.1 85.7002C250.9 85.7002 250.1 84.9002 250.1 83.7002C250.1 80.1002 250.1 77.3002 250.1 74.1002C249.1 75.3002 248.1 76.7002 247.3 78.1002C246.9 78.7002 246.3 79.1002 245.7 79.1002C245.3 79.1002 244.9 78.9002 244.3 78.7002C243.9 78.3002 243.5 77.9002 243.5 77.1002C243.5 76.7002 243.7 76.1002 244.1 75.5002C245.7 73.3002 247.7 70.7002 250.1 68.3002C250.1 66.7002 250.1 64.9002 250.3 63.3002C248.9 63.5002 247.3 63.7002 245.9 63.7002H245.7C244.7 63.7002 244.1 62.9002 243.9 61.9002V61.7002C243.9 60.3002 244.5 59.7002 245.5 59.7002C247.1 59.5002 248.7 59.3002 250.3 59.3002C250.3 57.7002 250.5 56.3002 250.5 54.5002C250.5 53.3002 251.3 52.7002 252.7 52.7002C253.9 52.7002 254.5 53.5002 254.5 54.5002C254.5 56.1002 254.3 57.5002 254.3 58.9002C255.3 58.9002 255.9 59.7002 255.9 60.5002C255.9 60.9002 255.7 61.5002 255.1 62.1002L254.3 63.3002Z" fill="#F06C87"/>
<path d="M307.3 70.5004C306.9 73.7004 305.1 75.7004 301.7 75.7004C300.1 75.7004 298.3 75.1004 296.7 74.3004C296.1 73.9004 295.7 73.3004 295.7 72.7004C295.7 72.3004 295.9 71.9004 296.1 71.5004C296.5 70.9004 297.1 70.5004 297.7 70.5004C298.1 70.5004 298.3 70.5004 298.7 70.7004C299.7 71.3004 300.7 71.7004 301.7 71.7004C302.7 71.7004 303.1 71.1004 303.3 69.5004C303.5 68.5004 303.5 66.9004 303.5 65.3004C301.7 65.3004 299.9 65.5004 298.3 65.5004C296.3 65.7004 294.3 65.7004 292.3 65.9004V70.9004C292.3 75.7004 292.5 77.3004 293.1 78.1004C294.1 79.5004 295.9 79.7004 299.7 79.7004C303.5 79.7004 306.7 79.3004 309.1 78.9004C309.3 78.9004 309.5 78.9004 309.7 78.9004C310.7 78.9004 311.5 79.5004 311.5 80.7004C311.5 80.9004 311.5 80.9004 311.5 81.1004C311.5 82.3004 310.9 82.9004 309.7 83.3004C307.1 83.7004 303.3 84.1004 299.9 84.1004C294.3 84.1004 291.3 83.3004 289.7 81.1004C288.3 79.5004 287.9 77.3004 287.9 71.9004V66.1004C286.5 66.1004 284.7 66.3004 282.9 66.5004H282.7C281.7 66.5004 280.9 65.7004 280.9 64.7004V64.5004C280.9 63.3004 281.5 62.5004 282.7 62.5004C284.5 62.3004 286.3 62.3004 287.9 62.1004C287.9 60.1004 287.9 58.1004 287.9 56.3004C287.9 55.1004 288.9 54.5004 290.1 54.5004C291.5 54.5004 292.3 55.3004 292.3 56.3004C292.3 58.1004 292.3 59.9004 292.3 61.9004C294.1 61.7004 296.1 61.7004 298.1 61.5004C299.7 61.5004 301.5 61.3004 303.3 61.3004C303.3 60.7004 303.3 59.9004 303.3 59.3004C303.3 57.9004 303.3 56.7004 303.3 55.7004C303.3 54.7004 304.1 53.9004 305.3 53.9004C306.5 53.9004 307.5 54.5004 307.5 55.5004V59.1004C307.5 59.7004 307.5 60.5004 307.5 61.1004C309.1 61.1004 310.9 61.1004 312.5 61.1004C313.9 61.1004 314.5 61.7004 314.5 63.1004V63.3004C314.5 64.5004 313.9 65.3004 312.5 65.3004C310.7 65.3004 309.1 65.3004 307.3 65.3004C307.7 67.1004 307.5 68.9004 307.3 70.5004Z" fill="#F06C87"/>
<path d="M328.7 55.2998C328.9 53.8998 329.7 53.4998 330.7 53.4998H331.1C332.3 53.6998 332.9 54.2998 332.9 55.2998C332.9 55.4998 332.9 55.4998 332.9 55.6998C332.7 57.4998 332.1 59.2998 331.9 60.8998C332.7 60.8998 333.5 60.8998 334.3 60.8998C339.3 60.8998 341.5 63.6998 341.5 69.6998C341.5 73.0998 341.1 76.4998 340.3 79.2998C339.3 83.0998 336.9 84.6998 333.7 84.6998C332.1 84.6998 330.3 84.2998 328.9 83.6998C328.1 83.2998 327.7 82.6998 327.7 81.8998C327.7 81.6998 327.7 81.2998 327.9 81.0998C328.3 80.0998 328.9 79.6998 329.7 79.6998C329.9 79.6998 330.3 79.6998 330.5 79.8998C331.5 80.2998 332.7 80.4998 333.7 80.4998C334.9 80.4998 335.9 79.8998 336.3 78.0998C336.9 76.0998 337.3 72.6998 337.3 69.4998C337.3 66.0998 336.3 65.0998 333.5 65.0998C332.5 65.0998 331.7 65.0998 330.9 65.2998C330.5 67.2998 329.7 69.4998 329.1 71.4998C327.5 76.0998 325.7 80.4998 323.7 83.8998C323.3 84.6998 322.5 85.0998 321.7 85.0998C321.3 85.0998 320.9 84.8998 320.5 84.6998C319.7 84.2998 319.3 83.4998 319.3 82.8998C319.3 82.4998 319.5 82.0998 319.7 81.4998C321.7 78.2998 323.5 74.2998 324.9 70.2998C325.5 68.6998 326.1 67.0998 326.5 65.4998C324.9 65.6998 322.9 65.8998 321.3 66.0998C321.1 66.0998 321.1 66.0998 320.9 66.0998C320.1 66.0998 319.3 65.4998 319.1 64.4998C319.1 64.2998 319.1 64.2998 319.1 64.0998C319.1 63.0998 319.7 62.2998 320.7 62.0998C322.7 61.8998 325.1 61.4998 327.5 61.2998C328.1 59.2998 328.3 57.2998 328.7 55.2998ZM345.5 59.4998C344.9 58.2998 344.1 57.0998 343.3 56.0998C343.1 55.8998 343.1 55.6998 343.1 55.2998C343.1 54.6998 343.3 54.2998 343.9 54.0998C344.1 53.8998 344.5 53.8998 344.7 53.8998C345.1 53.8998 345.5 54.0998 345.9 54.4998C346.7 55.4998 347.5 56.8998 348.1 57.8998C348.3 58.0998 348.3 58.4998 348.3 58.6998C348.3 59.2998 348.1 59.6998 347.5 59.8998C347.1 60.0998 346.9 60.0998 346.5 60.0998C346.3 60.0998 346.1 60.0998 345.9 59.8998C346.1 60.0998 346.1 60.0998 346.3 60.2998C348.5 63.6998 350.7 68.2998 351.5 71.8998C351.5 72.0998 351.7 72.2998 351.7 72.6998C351.7 73.4998 351.3 74.2998 350.3 74.4998C349.9 74.6998 349.7 74.6998 349.3 74.6998C348.5 74.6998 347.7 74.2998 347.5 73.2998C346.5 69.8998 344.7 65.6998 342.7 62.4998C342.5 62.0998 342.5 61.8998 342.5 61.4998C342.5 60.6998 342.9 60.0998 343.7 59.6998C344.1 59.4998 344.5 59.4998 344.9 59.4998C345.3 59.4998 345.5 59.4998 345.9 59.6998C345.7 59.8998 345.5 59.6998 345.5 59.4998ZM349.1 52.2998C349.5 52.2998 349.9 52.4998 350.3 53.0998C351.1 54.0998 351.9 55.2998 352.3 56.2998C352.5 56.4998 352.5 56.8998 352.5 57.0998C352.5 57.6998 352.1 58.0998 351.7 58.4998C351.5 58.6998 351.1 58.6998 350.9 58.6998C350.3 58.6998 349.9 58.4998 349.7 57.8998C349.1 56.8998 348.5 55.6998 347.9 54.6998C347.7 54.4998 347.7 54.2998 347.7 53.8998C347.7 53.4998 348.1 52.8998 348.5 52.6998C348.5 52.2998 348.7 52.2998 349.1 52.2998Z" fill="#F06C87"/>
<path d="M364.5 84.1004C361.1 84.1004 358.5 82.1004 358.5 77.9004C358.5 72.9004 362.1 68.7004 366.9 66.3004C366.9 65.9004 366.9 65.5004 366.9 64.9004C366.9 63.7004 366.9 62.5004 366.9 61.3004C365.7 61.3004 364.3 61.3004 362.9 61.3004H361.3C360.1 61.3004 359.5 60.5004 359.5 59.5004V59.3004C359.5 58.1004 360.1 57.5004 361.3 57.5004H367.3C367.3 56.5004 367.3 55.5004 367.5 54.5004C367.7 53.5004 368.3 52.9004 369.3 52.9004H369.5C370.7 52.9004 371.3 53.5004 371.3 54.5004V54.7004C371.3 55.5004 371.1 56.3004 371.1 57.3004C375.7 57.1004 379.9 56.9004 383.7 56.3004C383.9 56.3004 383.9 56.3004 384.1 56.3004C385.1 56.3004 385.7 56.9004 385.9 57.9004C385.9 58.1004 385.9 58.1004 385.9 58.3004C385.9 59.3004 385.3 59.9004 384.1 60.1004C380.3 60.5004 375.9 60.9004 370.9 61.1004C370.9 62.1004 370.9 63.1004 370.9 64.1004V64.9004C372.3 64.5004 374.3 64.3004 376.5 64.3004C376.5 63.9004 376.7 63.7004 376.7 63.3004C376.9 62.5004 377.3 62.1004 378.3 62.1004C378.5 62.1004 378.7 62.1004 378.7 62.1004C379.7 62.3004 380.3 62.7004 380.3 63.5004V63.7004C380.3 64.1004 380.1 64.3004 380.1 64.7004C385.7 65.7004 388.7 69.3004 388.7 74.3004C388.7 80.5004 383.3 85.1004 375.5 85.3004C374.1 85.3004 373.3 84.5004 373.3 83.5004V83.3004C373.3 82.1004 374.1 81.3004 375.1 81.3004C381.1 81.1004 384.5 77.9004 384.5 74.1004C384.5 71.1004 382.7 68.9004 379.5 68.3004C378.5 72.9004 375.7 77.9004 372.3 80.9004C369.3 83.3004 366.7 84.1004 364.5 84.1004ZM367.1 70.3004C363.9 72.1004 362.3 74.9004 362.3 77.5004C362.3 79.3004 363.1 80.1004 364.5 80.1004C365.9 80.1004 367.3 79.7004 368.5 78.5004C367.9 76.3004 367.3 73.1004 367.1 70.3004ZM375.3 67.9004C373.3 67.9004 371.7 68.3004 370.7 68.5004C370.7 70.9004 371.1 73.3004 371.7 75.5004C373.3 73.7004 374.5 70.9004 375.3 67.9004Z" fill="#F06C87"/>
<path d="M402.9 69.6996C402.9 69.8996 402.9 70.0996 402.9 70.2996C402.1 74.0996 400.9 78.6996 399.3 81.6996C398.7 82.6996 398.1 83.2996 397.3 83.2996C396.9 83.2996 396.7 83.2996 396.3 83.0996C395.5 82.6996 394.9 82.0996 394.9 81.2996C394.9 80.8996 394.9 80.4996 395.1 80.0996C396.5 77.2996 397.9 73.0996 398.5 69.4996C398.7 68.2996 399.5 67.8996 400.3 67.8996C400.5 67.8996 400.7 67.8996 400.9 67.8996C402.1 67.8996 402.9 68.4996 402.9 69.6996ZM413.1 59.8996C409.5 59.6996 405.5 58.8996 402.5 58.0996C401.7 57.8996 401.3 57.0996 401.3 56.2996C401.3 56.0996 401.3 55.6996 401.5 55.4996C401.9 54.6996 402.5 54.0996 403.3 54.0996C403.5 54.0996 403.7 54.0996 404.1 54.2996C407.7 55.2996 413.5 56.2996 418.5 56.6996C419.7 56.6996 420.5 57.4996 420.7 58.6996C420.7 58.8996 420.7 58.8996 420.7 59.0996C420.7 60.0996 420.1 60.8996 419.1 61.2996C414.9 62.2996 411.3 64.2996 411.3 66.0996C411.3 67.4996 411.7 68.0996 414.3 70.2996C416.9 72.6996 418.1 75.0996 418.1 77.8996C418.1 82.2996 414.9 84.8996 410.3 84.8996C407.7 84.8996 405.1 84.0996 403.1 82.2996C402.5 81.8996 402.3 81.2996 402.3 80.6996C402.3 80.2996 402.5 79.8996 402.7 79.2996C403.1 78.6996 403.7 78.2996 404.5 78.2996C404.9 78.2996 405.3 78.4996 405.7 78.6996C406.9 79.6996 408.7 80.4996 410.1 80.4996C412.3 80.4996 413.7 79.2996 413.7 77.4996C413.7 75.8996 412.9 74.2996 410.5 72.0996C408.1 69.8996 407.1 68.4996 407.1 66.2996C406.9 63.4996 409.5 61.2996 413.1 59.8996ZM421.5 67.2996C422.3 67.2996 422.9 67.6996 423.3 68.2996C425.1 71.2996 426.9 76.2996 427.7 79.6996C427.7 79.8996 427.7 80.0996 427.7 80.2996C427.7 81.2996 427.1 81.8996 426.1 82.2996C425.9 82.2996 425.7 82.4996 425.3 82.4996C424.5 82.4996 423.5 81.8996 423.3 80.8996C422.5 77.6996 420.9 73.0996 419.3 70.2996C419.1 69.8996 419.1 69.6996 419.1 69.2996C419.1 68.4996 419.7 67.6996 420.5 67.4996C420.9 67.2996 421.1 67.2996 421.5 67.2996Z" fill="#F06C87"/>
<path d="M442.9 63.0998C442.9 63.4998 442.9 64.2998 442.9 64.8998C444.5 63.4998 445.7 62.2998 447.1 61.2998C449.9 59.2998 452.1 58.2998 454.3 58.2998C458.3 58.2998 460.5 60.4998 460.5 64.2998C460.5 65.4998 460.3 67.0998 459.7 70.0998C458.9 73.8998 458.5 75.8998 458.5 77.2998C458.5 78.6998 459.1 79.0998 460.1 79.0998C461.1 79.0998 461.9 78.2998 462.5 75.8998C462.7 75.0998 463.5 74.4998 464.3 74.4998C464.5 74.4998 464.7 74.4998 465.1 74.6998C465.9 74.8998 466.5 75.6998 466.5 76.4998C466.5 76.6998 466.5 76.8998 466.3 77.2998C464.9 81.8998 462.5 83.8998 459.3 83.8998C456.1 83.8998 453.9 82.0998 453.9 78.2998C453.9 76.4998 454.1 74.2998 454.9 70.8998C455.5 67.6998 455.7 66.0998 455.7 64.8998C455.7 63.2998 454.9 62.4998 453.5 62.4998C451.7 62.4998 449.7 63.4998 447.1 65.8998C445.9 66.8998 444.3 68.4998 442.9 70.0998C442.9 71.8998 442.9 73.4998 442.9 75.2998C442.9 78.2998 442.9 81.2998 442.9 84.0998C442.9 85.2998 442.1 85.8998 440.9 85.8998H440.7C439.5 85.8998 438.7 85.2998 438.7 84.0998V79.4998C438.7 77.8998 438.7 76.0998 438.7 74.6998C437.7 76.0998 436.9 77.2998 435.9 78.4998C435.5 79.0998 434.9 79.2998 434.3 79.2998C433.9 79.2998 433.3 79.0998 432.9 78.6998C432.5 78.2998 432.3 77.6998 432.3 77.0998C432.3 76.6998 432.5 76.0998 432.7 75.6998C434.5 73.4998 436.5 70.8998 438.7 68.4998C438.7 66.8998 438.7 65.2998 438.9 63.6998C437.5 63.8998 436.1 63.8998 434.5 64.0998H434.3C433.3 64.0998 432.5 63.4998 432.5 62.4998V62.2998C432.5 61.0998 433.1 60.4998 434.1 60.2998C435.7 60.0998 437.3 60.0998 438.9 59.8998C438.9 58.4998 439.1 56.8998 439.1 55.0998C439.1 53.8998 439.9 53.2998 441.1 53.2998H441.3C442.5 53.2998 443.3 53.8998 443.3 55.0998C443.3 56.6998 443.1 57.8998 443.1 59.4998C444.1 59.4998 444.9 60.0998 444.9 60.8998C444.9 61.2998 444.7 61.8998 444.1 62.2998L442.9 63.0998Z" fill="#F06C87"/>
<path d="M484.1 67.4996C486.5 66.4996 488.7 66.0996 490.9 66.0996C497.5 66.0996 501.5 69.6996 501.5 74.6996C501.5 80.8996 495.9 85.0996 486.9 85.0996C481.3 85.0996 477.7 82.6996 477.7 79.0996C477.7 75.8996 480.5 73.6996 484.1 73.6996C488.3 73.6996 491.1 76.0996 491.9 80.2996C494.9 79.4996 496.9 77.4996 496.9 74.6996C496.9 71.6996 494.3 69.2996 489.7 69.2996C485.1 69.2996 480.7 70.8996 475.3 74.2996C474.9 74.4996 474.5 74.6996 474.1 74.6996C473.5 74.6996 472.7 74.2996 472.3 73.6996C472.1 73.2996 471.9 72.8996 471.9 72.4996C471.9 71.6996 472.3 71.0996 472.9 70.6996C478.3 67.4996 485.5 62.2996 490.1 58.4996C486.5 58.6996 481.7 58.8996 477.9 58.8996C476.7 58.8996 475.9 58.0996 475.9 56.8996C475.9 55.6996 476.5 54.6996 477.7 54.6996H478.7C483.5 54.6996 488.9 54.4996 493.1 54.0996C493.3 54.0996 493.5 54.0996 493.5 54.0996C494.5 54.0996 495.5 54.4996 495.9 55.4996C496.1 55.8996 496.3 56.2996 496.3 56.6996C496.3 57.4996 496.1 58.0996 495.3 58.6996C492.7 61.0996 489.7 63.2996 486.9 65.0996C486.1 66.0996 485.1 66.6996 484.1 67.4996ZM483.9 77.0996C482.3 77.0996 481.5 77.8996 481.5 78.8996C481.5 80.4996 483.1 81.4996 486.7 81.4996C487.3 81.4996 487.7 81.4996 488.1 81.4996C487.7 78.4996 485.9 77.0996 483.9 77.0996Z" fill="#F06C87"/>
<path d="M522.1 60.6996V54.4996C522.1 53.4996 522.9 53.0996 524.1 53.0996C525.3 53.0996 526.1 53.4996 526.1 54.4996V60.8996H532.5V54.4996C532.5 53.4996 533.3 53.0996 534.5 53.0996C535.7 53.0996 536.5 53.4996 536.5 54.4996V60.8996H540.5C541.3 60.8996 541.9 61.6996 541.9 62.6996C541.9 63.6996 541.5 64.4996 540.5 64.4996H536.5V72.6996C536.5 75.2996 535.1 76.4996 532.9 76.4996H525.9C523.7 76.4996 522.3 75.2996 522.3 72.6996V64.4996H516.5V79.6996C516.5 80.6996 517.1 81.2996 518.3 81.2996H538.7C539.7 81.2996 540.1 82.0996 540.1 83.0996C540.1 84.0996 539.7 85.0996 538.7 85.0996H516.9C514.1 85.0996 512.5 83.4996 512.5 80.6996V64.4996H509.1C508.3 64.4996 507.7 63.6996 507.7 62.6996C507.7 61.6996 508.3 60.8996 509.1 60.8996H512.5V54.4996C512.5 53.4996 513.3 53.0996 514.5 53.0996C515.7 53.0996 516.5 53.4996 516.5 54.4996V60.6996H522.1ZM526.1 71.6996C526.1 72.4996 526.5 72.8996 527.1 72.8996H531.5C532.1 72.8996 532.5 72.4996 532.5 71.6996V64.4996H526.1V71.6996Z" fill="#F06C87"/>
<path d="M552.7 69.1C549.9 69.1 548.7 68.1 548.7 65.9V56.7C548.7 54.5 549.9 53.5 552.7 53.5H572.3C575.1 53.5 576.1 54.5 576.1 56.7V65.9C576.1 68.1 575.1 69.1 572.3 69.1H569.1C571.3 71.3 574.7 73.1 578.3 74.1C579.1 74.3 579.5 74.9 579.5 75.7C579.5 75.9 579.5 76.1 579.3 76.5C578.9 77.5 578.3 77.9 577.5 77.9C577.3 77.9 576.9 77.9 576.5 77.7C574.3 76.9 571.9 75.7 569.9 74.1V84.5C569.9 85.5 569.1 85.9 567.9 85.9C566.7 85.9 565.9 85.5 565.9 84.5V74.5C565.9 73.5 566.7 73.1 567.9 73.1H568.1C566.7 71.9 565.3 70.7 564.3 69.1H560.3C557.5 72.7 552.7 76.3 548.3 77.9C548.1 78.1 547.7 78.1 547.5 78.1C546.7 78.1 546.1 77.7 545.7 76.7C545.7 76.5 545.5 76.1 545.5 75.9C545.5 75.1 545.9 74.5 546.7 74.3C550.5 73.1 553.5 71.3 555.7 69.1H552.7ZM559.5 74.5C559.5 80.5 556.5 84.5 549.9 86.5C549.5 86.7 549.3 86.7 548.9 86.7C548.1 86.7 547.3 86.3 547.1 85.3C547.1 85.1 546.9 84.7 546.9 84.5C546.9 83.7 547.3 83.1 548.3 82.7C553.5 81.1 555.3 79.1 555.3 74.5C555.3 73.5 556.1 72.9 557.3 72.9C558.5 72.9 559.5 73.5 559.5 74.5ZM553.5 56.7C552.7 56.7 552.5 56.9 552.5 57.5V59.7H560.3V56.7H553.5ZM560.5 62.9H552.7V65.3C552.7 65.9 552.9 65.9 553.7 65.9H560.5V62.9ZM572.3 57.5C572.3 56.9 572.1 56.7 571.3 56.7H564.1V59.7H572.3V57.5ZM571.5 65.9C572.3 65.9 572.5 65.7 572.5 65.3V62.9H564.3V65.9H571.5Z" fill="#F06C87"/>
<path d="M595.1 82.9C595.1 85.7 594.1 86.7 591.3 86.7H585.9C584.7 86.7 584.3 85.9 584.3 84.7C584.3 83.5 584.7 82.7 585.9 82.7H589.9C590.7 82.7 591.1 82.3 591.1 81.5V68.3C591.1 67.3 591.9 66.5 593.1 66.5C594.3 66.5 595.1 67.1 595.1 68.3V82.9Z" fill="#010F32"/>
<path d="M46.3 120.3C48.1 118.9 49.7 118.3 51.5 118.3C53.9 118.3 55.5 119.3 56.1 121.9C58.5 121.1 61.1 120.3 63.1 119.7C63.3 119.7 63.7 119.5 63.9 119.5C64.7 119.5 65.3 119.9 65.5 120.7C65.5 120.9 65.5 121.1 65.5 121.3C65.5 122.1 65.1 122.7 64.1 122.9C61.9 123.5 59.1 124.3 56.3 125.1C56.3 125.9 56.3 126.9 56.3 127.9C56.3 128.5 56.3 129.1 56.3 129.5C56.3 130.7 55.5 131.1 54.5 131.3C53.3 131.3 52.9 130.7 52.9 129.7V126.5C48.9 127.9 47.5 129.5 47.5 131.1C47.5 132.7 49.1 133.5 53.1 133.5C56.3 133.5 59.5 133.1 61.7 132.7C61.9 132.7 62.1 132.7 62.3 132.7C63.1 132.7 63.7 133.1 63.9 134.1C63.9 134.3 63.9 134.3 63.9 134.5C63.9 135.5 63.3 136.1 62.3 136.3C59.9 136.7 56.7 137.1 53.3 137.1C46.9 137.1 43.5 135.3 43.5 131.3C43.5 128.1 46.5 125.1 52.5 122.9C52.5 121.5 51.7 121.1 50.5 121.1C47.9 121.1 44.7 123.1 41.1 126.7C40.7 127.1 40.1 127.3 39.7 127.3C39.3 127.3 38.7 127.1 38.3 126.7C37.9 126.3 37.7 125.9 37.7 125.3C37.7 124.7 37.9 124.3 38.3 123.9C40.9 121.5 43.3 118.7 45.3 115.9H43.9C42.7 115.9 41.1 115.9 39.9 115.9C38.9 115.9 38.3 115.1 38.3 114.1V113.9C38.3 112.9 39.1 112.3 40.1 112.3C41.3 112.3 42.7 112.5 44.5 112.5H47.1C47.5 111.7 48.1 110.7 48.3 109.7C48.7 108.9 49.3 108.5 50.1 108.5C50.3 108.5 50.5 108.5 50.7 108.5C51.7 108.7 52.1 109.3 52.1 109.9C52.1 110.1 52.1 110.3 51.9 110.5C51.7 111.1 51.3 111.7 51.1 112.3C53.5 112.1 56.7 111.9 59.7 111.5C59.9 111.5 59.9 111.5 60.1 111.5C61.1 111.5 61.7 112.1 61.7 113.1C61.7 113.3 61.7 113.3 61.7 113.5C61.7 114.3 61.3 114.9 60.3 115.1C56.5 115.7 52.7 115.9 49.3 116.1C48.5 117.5 47.3 119.1 46.3 120.3Z" fill="#010F32"/>
<path d="M98.7 122.3C98.7 127.1 96.5 130.9 91.7 132.9C88.7 134.1 84.1 134.9 80.1 134.9C78.7 134.9 77.9 134.3 77.9 132.9V132.7C77.9 131.5 78.5 130.7 79.7 130.7C83.5 130.7 87.7 130.1 90.1 128.9C93.1 127.5 94.5 125.1 94.5 122.1C94.5 118.7 92.3 116.1 87.5 116.1C83.5 116.1 78.7 116.9 74.1 118.5C73.9 118.7 73.5 118.7 73.3 118.7C72.5 118.7 71.7 118.3 71.5 117.3C71.5 117.1 71.5 116.9 71.5 116.7C71.5 115.9 72.1 115.1 72.9 114.7C77.3 113.1 82.7 112.3 87.5 112.3C95.1 112.5 98.7 116.9 98.7 122.3Z" fill="#010F32"/>
<path d="M112.1 111.1C112.1 111.3 112.1 111.5 112.1 111.7C111.3 115.9 110.7 120.3 110.7 123.9C110.7 127.3 111.1 130.9 111.7 133.9C111.7 134.1 111.9 134.3 111.9 134.5C111.9 135.3 111.5 135.9 110.5 136.1C110.3 136.1 110.1 136.3 109.9 136.3C109.1 136.3 108.3 135.9 108.1 134.9C107.3 131.7 106.9 127.5 106.9 123.7C106.9 119.9 107.5 115.7 108.3 110.9C108.5 109.9 109.3 109.3 110.3 109.3C110.5 109.3 110.5 109.3 110.7 109.3C111.5 109.5 112.1 110.1 112.1 111.1ZM128.1 122.5C128.1 126.9 127.3 130.1 126.1 132.3C124.7 134.7 122.5 136.5 119.7 137.3C119.3 137.5 119.1 137.5 118.7 137.5C117.9 137.5 117.3 137.1 116.9 136.3C116.7 135.9 116.7 135.7 116.7 135.3C116.7 134.5 117.1 133.9 117.9 133.7C119.9 133.1 121.7 131.9 122.7 130.1C123.7 128.5 124.3 125.9 124.3 121.9C124.3 121.3 124.3 120.5 124.3 119.7C122.9 119.9 121.5 119.9 120.1 119.9C118.5 119.9 116.7 119.9 115.5 119.9C114.5 119.9 113.9 119.1 113.9 118.1V117.9C113.9 116.9 114.5 116.1 115.5 116.1C116.7 116.1 118.3 116.3 119.7 116.3C121.3 116.3 122.7 116.3 124.1 116.1C124.1 114.1 123.9 112.1 123.9 110.7V110.5C123.9 109.5 124.5 108.9 125.7 108.9H125.9C126.9 108.9 127.5 109.5 127.7 110.5C127.9 111.9 127.9 113.9 127.9 115.9C129.1 115.7 130.1 115.7 131.1 115.5C131.3 115.5 131.3 115.5 131.5 115.5C132.5 115.5 132.9 116.1 133.1 117.1C133.1 117.3 133.1 117.3 133.1 117.5C133.1 118.3 132.5 118.9 131.7 119.1C130.7 119.3 129.5 119.5 128.1 119.7C128.3 120.5 128.3 121.3 128.1 122.5Z" fill="#010F32"/>
<path d="M155.9 114.7C154.5 114.9 153.3 115.1 152.3 115.3C148.3 115.7 144.3 116.1 140.7 116.3H140.5C139.3 116.3 138.7 115.7 138.5 114.5V114.3C138.5 113.3 139.1 112.5 140.1 112.3C147.5 111.7 156.3 111.1 163.9 110.9H164.1C165.5 110.9 166.1 111.5 166.1 112.7V112.9C166.1 113.9 165.7 114.7 164.3 114.9C163.7 114.9 163.3 115.1 162.5 115.1C156.1 116.1 151.5 120.3 151.5 125.1C151.5 127.9 152.9 129.7 155.3 130.7C156.9 131.3 158.9 131.7 160.9 131.7C162.1 131.7 162.9 132.5 162.9 133.7V133.9C162.7 135.1 162.1 135.9 160.7 135.9C157.7 135.9 155.3 135.3 153.3 134.5C149.7 132.7 147.5 129.7 147.5 125.5C147.5 121.1 150.5 116.9 155.9 114.7Z" fill="#010F32"/>
<path d="M180.9 111.1C180.7 116.1 180.5 121.5 180.5 126.7C180.5 129.3 180.9 130.9 181.9 131.9C182.9 132.7 184.3 133.1 186.3 133.1C188.7 133.1 190.9 132.3 192.5 130.5C193.9 129.1 194.9 126.9 195.7 124.5C195.9 123.5 196.7 123.1 197.5 123.1C197.7 123.1 198.1 123.1 198.3 123.3C199.1 123.5 199.7 124.3 199.7 125.1C199.7 125.3 199.7 125.7 199.5 125.9C198.5 129.3 197.1 131.9 195.1 133.9C192.7 136.1 189.7 137.3 186.1 137.3C182.9 137.3 180.7 136.7 178.9 135.1C177.3 133.5 176.5 131.3 176.5 127.3C176.5 122.1 176.7 116.3 176.9 111.5C176.9 110.5 177.7 109.7 178.9 109.7H179.1C180.3 109.3 180.9 109.9 180.9 111.1Z" fill="#010F32"/>
<path d="M211.7 136.1C208.7 136.1 206.3 134.3 206.3 130.5C206.3 126.1 209.5 122.3 213.9 120.3C213.9 119.9 213.9 119.5 213.9 119.1C213.9 118.1 213.9 116.9 213.9 115.9C212.7 115.9 211.5 115.9 210.3 115.9H208.9C207.7 115.9 207.3 115.3 207.3 114.3V114.1C207.3 113.1 207.9 112.5 208.9 112.5H214.1C214.1 111.7 214.1 110.7 214.3 109.9C214.5 109.1 214.9 108.5 215.9 108.5H216.1C217.3 108.5 217.7 109.1 217.7 109.9V110.1C217.7 110.7 217.5 111.5 217.5 112.3C221.5 112.1 225.3 111.9 228.7 111.3C228.9 111.3 228.9 111.3 229.1 111.3C229.9 111.3 230.5 111.9 230.7 112.9C230.7 113.1 230.7 113.1 230.7 113.3C230.7 114.1 230.3 114.9 229.1 114.9C225.7 115.3 221.7 115.7 217.3 115.7C217.3 116.5 217.3 117.5 217.3 118.3V119.1C218.5 118.7 220.3 118.5 222.3 118.5C222.3 118.1 222.5 117.9 222.5 117.7C222.7 117.1 223.1 116.7 223.9 116.7C224.1 116.7 224.1 116.7 224.3 116.7C225.1 116.9 225.7 117.3 225.7 117.9V118.1C225.7 118.5 225.5 118.7 225.5 118.9C230.5 119.7 233.1 123.1 233.1 127.5C233.1 132.9 228.3 137.1 221.3 137.3C220.1 137.3 219.3 136.7 219.3 135.7V135.5C219.3 134.5 219.9 133.7 220.9 133.7C226.3 133.5 229.3 130.7 229.3 127.3C229.3 124.7 227.7 122.7 224.9 122.1C223.9 126.1 221.5 130.5 218.5 133.3C215.9 135.5 213.7 136.1 211.7 136.1ZM214.1 123.9C211.3 125.5 209.9 128.1 209.9 130.3C209.9 131.9 210.7 132.7 211.9 132.7C213.1 132.7 214.3 132.3 215.5 131.3C214.7 129.1 214.1 126.3 214.1 123.9ZM221.3 121.7C219.5 121.7 218.1 122.1 217.3 122.3C217.3 124.5 217.7 126.7 218.1 128.5C219.5 126.9 220.7 124.3 221.3 121.7Z" fill="#010F32"/>
<path d="M248.1 117.7C248.1 118.3 248.1 118.9 248.1 119.5C248.7 118.7 249.7 117.9 250.7 117.3C253.3 115.5 255.7 114.5 258.3 114.5C264.1 114.5 267.5 118.7 267.5 124.3C267.5 128.5 265.9 131.9 262.5 133.9C260.3 135.1 257.5 135.7 254.3 135.9C253.1 135.9 252.3 135.1 252.3 133.9C252.3 132.7 252.9 131.9 254.1 131.9C256.5 131.9 258.9 131.3 260.3 130.5C262.5 129.3 263.5 127.1 263.5 124.1C263.5 120.5 261.3 118.1 257.9 118.1C255.5 118.1 253.3 119.3 250.9 121.1C249.9 121.9 248.9 122.9 248.1 123.9C248.1 128.1 248.1 132.1 248.1 136.3C248.1 137.3 247.5 138.1 246.3 138.1C245.1 138.1 244.5 137.3 244.5 136.3C244.5 133.1 244.5 130.7 244.5 127.9C243.7 129.1 242.7 130.3 242.1 131.5C241.7 132.1 241.3 132.3 240.7 132.3C240.3 132.3 239.9 132.1 239.5 131.9C239.1 131.5 238.9 131.1 238.9 130.5C238.9 130.1 239.1 129.5 239.3 129.1C240.7 127.3 242.5 124.9 244.7 122.7C244.7 121.3 244.7 119.7 244.9 118.3C243.5 118.5 242.3 118.5 241.1 118.7H240.9C240.1 118.7 239.5 118.1 239.3 117.1V116.9C239.3 115.7 239.9 115.1 240.7 115.1C242.1 114.9 243.7 114.9 244.9 114.7C244.9 113.3 245.1 111.9 245.1 110.5C245.1 109.5 245.7 108.9 246.9 108.9C247.9 108.9 248.7 109.5 248.7 110.5C248.7 111.9 248.5 113.1 248.5 114.3C249.3 114.3 249.9 114.9 249.9 115.9C249.9 116.3 249.7 116.9 249.1 117.3L248.1 117.7Z" fill="#010F32"/>
<path d="M295.3 124.1C294.9 127.1 293.5 128.7 290.5 128.7C289.1 128.7 287.5 128.3 286.1 127.5C285.5 127.1 285.1 126.7 285.1 126.1C285.1 125.7 285.3 125.5 285.5 125.1C285.9 124.5 286.3 124.3 286.9 124.3C287.1 124.3 287.5 124.3 287.7 124.5C288.7 125.1 289.5 125.3 290.3 125.3C291.1 125.3 291.5 124.7 291.7 123.3C291.9 122.3 291.9 121.1 291.9 119.7C290.3 119.7 288.7 119.9 287.3 119.9C285.5 120.1 283.7 120.1 281.9 120.3V124.9C281.9 129.1 282.1 130.5 282.7 131.3C283.5 132.5 285.1 132.7 288.5 132.7C291.9 132.7 294.7 132.5 296.9 132.1C297.1 132.1 297.3 132.1 297.5 132.1C298.5 132.1 299.1 132.7 299.1 133.7C299.1 133.9 299.1 133.9 299.1 134.1C299.1 135.1 298.5 135.7 297.5 135.9C295.3 136.3 291.9 136.5 288.9 136.5C283.9 136.5 281.1 135.7 279.7 133.9C278.5 132.5 278.1 130.5 278.1 125.7V120.7C276.7 120.7 275.3 120.9 273.7 121.1H273.5C272.5 121.1 271.9 120.3 271.9 119.5V119.3C271.9 118.3 272.5 117.5 273.5 117.5C275.1 117.3 276.7 117.3 278.1 117.1C278.1 115.3 278.1 113.5 278.1 111.9C278.1 110.9 278.9 110.3 280.1 110.3C281.5 110.3 281.9 110.9 281.9 111.9C281.9 113.5 281.9 115.1 281.9 116.9C283.5 116.7 285.3 116.7 287.1 116.7C288.5 116.7 290.1 116.5 291.7 116.5C291.7 115.9 291.7 115.3 291.7 114.7C291.7 113.5 291.7 112.5 291.7 111.5C291.7 110.5 292.5 109.9 293.5 109.9C294.5 109.9 295.3 110.3 295.3 111.3V114.5C295.3 115.1 295.3 115.7 295.3 116.3C296.7 116.3 298.3 116.3 299.9 116.3C301.1 116.3 301.7 116.9 301.7 118.1V118.3C301.7 119.3 301.1 120.1 299.9 120.1C298.3 120.1 296.9 120.1 295.3 120.1C295.5 120.9 295.3 122.7 295.3 124.1Z" fill="#010F32"/>
<path d="M322.3 123.3C321.3 123.5 319.9 123.7 318.7 123.9C315.1 124.3 311.5 124.9 308.3 125.3C308.1 125.3 308.1 125.3 307.9 125.3C306.9 125.3 306.3 124.7 306.1 123.7C306.1 123.5 306.1 123.5 306.1 123.3C306.1 122.5 306.5 121.9 307.5 121.7C308.5 121.5 309.7 121.1 310.7 120.7C314.9 118.9 319.7 116.1 323.5 113.1C319.9 113.5 315.7 113.7 312.3 113.7C311.5 113.7 310.7 113.1 310.7 112.1C310.7 110.9 311.3 110.3 312.5 110.3C314.9 110.3 317.5 110.3 319.9 110.1C322.3 109.9 324.5 109.9 326.1 109.7H326.5C327.5 109.7 328.1 109.9 328.5 110.7C328.7 111.1 328.7 111.3 328.7 111.7C328.7 112.3 328.5 112.9 327.9 113.5C325.3 115.9 321.9 118.1 318.7 119.7C317.7 120.1 316.5 120.7 315.3 121.1V121.3C316.7 120.9 318.3 120.7 319.9 120.5C323.9 120.1 328.3 119.7 332.3 119.5H332.5C333.7 119.5 334.3 120.1 334.3 121.1V121.3C334.3 122.3 333.7 122.9 332.7 123.1C329.1 123.3 325.9 123.9 323.5 124.9C320.9 126.1 319.3 127.7 319.3 129.5C319.3 131.3 320.7 132.5 324.3 132.7C325.3 132.9 326.7 132.9 327.9 132.9H328.1C329.1 132.9 329.9 133.5 329.9 134.5V134.7C329.9 135.9 329.3 136.7 328.1 136.7C327.5 136.7 326.9 136.7 326.3 136.7C325.5 136.7 324.7 136.7 324.1 136.5C318.7 136.1 315.5 133.9 315.5 130.1C315.9 127.3 317.9 124.9 322.3 123.3Z" fill="#010F32"/>
<path d="M365.5 124.7C365.5 129.1 363.3 132.7 358.3 135.1C355.9 136.3 352.5 137.1 349.7 137.3C349.5 137.3 349.5 137.3 349.3 137.3C348.3 137.3 347.5 136.7 347.5 135.7C347.5 135.5 347.5 135.3 347.5 135.1C347.5 134.1 348.1 133.5 349.3 133.3C351.9 133.1 355.1 132.3 357.3 131.3C360.3 129.9 361.9 127.7 361.9 125.1C361.9 122.7 360.3 121.1 356.3 121.1C352.9 121.1 348.5 122.1 344.9 123.1C344.7 123.1 344.5 123.3 344.3 123.3C343.5 123.3 342.7 122.9 342.5 121.9C342.5 121.7 342.3 121.5 342.3 121.3C342.3 120.5 342.7 119.7 343.7 119.5C347.1 118.5 351.9 117.5 356.1 117.5C362.3 117.3 365.5 120.3 365.5 124.7ZM361.3 110.5C362.5 110.5 363.1 111.3 363.1 112.5V112.7C363.1 113.9 362.3 114.5 361.1 114.5C356.9 114.5 350.9 113.9 346.9 113.1C345.9 112.9 345.5 112.1 345.5 111.3C345.5 111.1 345.5 110.9 345.5 110.9C345.7 109.9 346.5 109.3 347.3 109.3C347.5 109.3 347.5 109.3 347.7 109.3C351.5 109.9 356.9 110.5 361.3 110.5Z" fill="#010F32"/>
<path d="M377.3 131.3C376.9 132.1 376.3 132.5 375.5 132.5C375.1 132.5 374.7 132.3 374.3 132.1C373.7 131.7 373.5 131.3 373.5 130.5C373.5 130.1 373.7 129.7 373.9 129.1C375.9 125.7 377.9 121.3 379.1 117.5C378.3 117.5 377.3 117.5 376.3 117.5H375.1C374.1 117.5 373.5 116.9 373.5 115.7C373.5 114.5 374.1 113.9 375.1 113.9H377.3C378.3 113.9 379.3 113.9 380.3 113.9C380.7 112.5 380.9 111.1 381.3 109.7C381.5 108.7 382.1 108.3 383.1 108.3C383.3 108.3 383.5 108.3 383.5 108.3C384.5 108.5 385.1 108.9 385.1 109.9C385.1 110.1 385.1 110.3 385.1 110.5C384.9 111.5 384.7 112.5 384.3 113.7C385.5 113.5 386.7 113.5 387.9 113.3C388.1 113.3 388.1 113.3 388.3 113.3C389.1 113.3 389.7 113.9 389.9 114.9V115.1C389.9 115.9 389.5 116.7 388.3 116.9C386.7 117.1 385.1 117.3 383.3 117.5C381.9 122.1 379.7 127.5 377.3 131.3ZM395.5 131.9C395.5 135.3 393.5 137.3 388.5 137.3C384.1 137.3 381.3 135.1 381.3 131.7C381.3 128.3 384.1 125.9 388.5 125.9C389.7 125.9 390.7 126.1 391.9 126.3C391.7 124.7 391.7 122.9 391.7 121.1C391.7 119.9 392.5 119.5 393.5 119.5C394.5 119.5 395.3 120.1 395.3 121.1C395.3 123.3 395.5 125.3 395.7 127.3C397.7 128.3 399.7 129.7 401.3 131.1C401.7 131.5 401.9 131.9 401.9 132.5C401.9 132.9 401.7 133.3 401.5 133.7C401.1 134.1 400.7 134.3 400.1 134.3C399.7 134.3 399.3 134.1 398.9 133.7C397.9 132.7 396.7 131.7 395.7 131.1L395.5 131.9ZM388.5 129.1C386.3 129.1 384.9 130.1 384.9 131.7C384.9 133.1 386.3 134.1 388.5 134.1C390.9 134.1 392.1 133.3 392.1 131.3C392.1 130.9 392.1 130.5 392.1 130.1C391.1 129.3 389.9 129.1 388.5 129.1ZM400.7 116.3C401.3 116.7 401.5 117.3 401.5 117.9C401.5 118.3 401.3 118.7 401.1 119.1C400.7 119.7 400.3 119.9 399.7 119.9C399.3 119.9 398.9 119.7 398.5 119.5C396.7 118.3 394.5 117.1 392.3 116.1C391.7 115.9 391.5 115.3 391.5 114.7C391.5 114.3 391.7 113.9 391.9 113.7C392.3 113.1 392.9 112.9 393.5 112.9C393.7 112.9 394.1 112.9 394.3 113.1C396.5 113.7 399.1 115.1 400.7 116.3Z" fill="#010F32"/>
<path d="M418.3 133.5C420.1 133.1 422.1 132.7 423.5 132.3C423.7 132.3 423.9 132.1 424.1 132.1C424.9 132.1 425.3 132.5 425.5 133.3C425.5 133.5 425.5 133.7 425.5 133.9C425.5 134.7 425.1 135.1 424.3 135.3C420.9 136.3 415.7 137.3 411.9 137.7C411.7 137.7 411.7 137.7 411.7 137.7C410.9 137.7 410.3 137.1 410.3 136.3C410.3 136.1 410.3 136.1 410.3 135.9C410.3 135.1 410.9 134.5 411.7 134.5C412.7 134.3 413.7 134.3 414.9 134.1V129.3C412.9 130.7 410.7 131.7 408.7 132.5C408.5 132.7 408.3 132.7 407.9 132.7C407.3 132.7 406.7 132.3 406.5 131.7C406.3 131.3 406.3 131.1 406.3 130.9C406.3 130.3 406.7 129.7 407.3 129.5C410.5 128.5 414.1 126.5 416.5 124.1H407.5C406.7 124.1 406.3 123.5 406.3 122.5C406.3 121.5 406.7 120.9 407.5 120.9H419.1V118.7H409.9C409.3 118.7 408.9 118.1 408.9 117.3C408.9 116.5 409.3 115.9 409.9 115.9H419.1V113.9H408.7C407.9 113.9 407.5 113.3 407.5 112.3C407.5 111.3 407.9 110.9 408.7 110.9H419.1V109.3C419.1 108.5 419.7 108.1 420.9 108.1C422.1 108.1 422.7 108.5 422.7 109.3V110.9H433.9C434.7 110.9 435.1 111.5 435.1 112.3C435.1 113.1 434.7 113.9 433.9 113.9H422.7V115.9H432.3C432.9 115.9 433.3 116.5 433.3 117.3C433.3 118.1 432.9 118.7 432.3 118.7H422.7V120.9H435.1C435.9 120.9 436.3 121.5 436.3 122.5C436.3 123.5 435.9 124.1 435.1 124.1H424.3C425.1 125.7 425.9 127.1 427.1 128.5C428.3 127.5 429.5 126.3 430.3 125.3C430.7 124.9 431.1 124.7 431.7 124.7C432.1 124.7 432.5 124.9 432.9 125.1C433.5 125.5 433.7 125.9 433.7 126.3C433.7 126.7 433.5 126.9 433.3 127.3C432.3 128.3 430.9 129.5 429.5 130.7C431.3 132.1 433.3 133.3 435.3 134.1C436.1 134.3 436.5 134.9 436.5 135.7C436.5 135.9 436.5 136.3 436.3 136.5C436.1 137.1 435.5 137.7 434.7 137.7C434.5 137.7 434.3 137.7 433.9 137.5C428.7 135.1 423.5 130.9 421.3 124.3H421.1C420.3 125.3 419.3 126.1 418.3 126.9V133.5Z" fill="#010F32"/>
<path d="M442.9 115.7C442.9 118.1 442.5 120.7 442.1 122.9C441.9 123.5 441.5 123.7 440.9 123.7C440.7 123.7 440.7 123.7 440.5 123.7C439.9 123.5 439.5 123.3 439.5 122.7C439.5 122.5 439.5 122.5 439.5 122.3C439.9 120.5 440.3 117.7 440.3 115.5C440.3 114.7 440.9 114.5 441.5 114.5C442.1 114.5 442.9 114.9 442.9 115.7ZM443.7 109.3C443.7 108.5 444.3 108.1 445.5 108.1C446.7 108.1 447.3 108.5 447.3 109.3V136.9C447.3 137.7 446.7 138.1 445.5 138.1C444.3 138.1 443.7 137.7 443.7 136.9V109.3ZM449.9 118.7C449.7 118.9 449.5 118.9 449.3 118.9C448.9 118.9 448.5 118.7 448.5 118.3C448.3 117.5 447.9 116.3 447.5 115.5C447.5 115.3 447.3 115.1 447.3 115.1C447.3 114.7 447.5 114.5 447.9 114.3C448.1 114.3 448.3 114.1 448.5 114.1C448.9 114.1 449.1 114.3 449.3 114.5C449.7 115.3 450.1 116.5 450.5 117.5C450.5 117.7 450.7 117.9 450.7 117.9C450.7 118.1 450.7 118.3 450.5 118.3C450.7 118.3 450.7 118.3 450.9 118.3H457.9V116.7H452.1C451.5 116.7 451.1 116.3 451.1 115.5C451.1 114.7 451.5 114.3 452.1 114.3H457.9V112.9H451.3C450.7 112.9 450.3 112.5 450.3 111.7C450.3 110.9 450.7 110.5 451.3 110.5H457.9V109.5C457.9 108.7 458.5 108.5 459.5 108.5C460.5 108.5 461.1 108.9 461.1 109.5V110.5H468.5C469.1 110.5 469.5 110.9 469.5 111.7C469.5 112.5 469.1 112.9 468.5 112.9H461.1V114.3H467.5C468.1 114.3 468.5 114.9 468.5 115.5C468.5 116.1 468.1 116.7 467.5 116.7H461.1V118.3H468.9C469.5 118.3 469.9 118.7 469.9 119.5C469.9 120.3 469.5 120.7 468.9 120.7H450.7C450.1 120.7 449.7 120.3 449.7 119.5C449.7 119.1 449.7 118.9 449.9 118.7ZM454.1 132.9V136.9C454.1 137.7 453.5 138.1 452.3 138.1C451.1 138.1 450.7 137.7 450.7 136.9V124.7C450.7 122.9 451.7 122.1 453.7 122.1H464.7C466.9 122.1 467.9 122.9 467.9 124.7V134.7C467.9 136.9 466.3 137.7 463.7 137.7C462.5 137.7 461.5 137.7 460.5 137.5C459.9 137.3 459.5 136.9 459.5 136.3C459.5 136.1 459.5 135.9 459.5 135.7C459.7 134.9 460.1 134.7 460.7 134.7C460.9 134.7 460.9 134.7 460.9 134.7C461.5 134.9 462.3 134.9 462.9 134.9C463.9 134.9 464.3 134.7 464.3 134.1V132.7L454.1 132.9ZM464.7 125.7C464.7 125.1 464.5 124.9 463.9 124.9H455.1C454.5 124.9 454.3 125.1 454.3 125.7V126.5H464.9L464.7 125.7ZM464.7 128.9H454.1V130.5H464.7V128.9Z" fill="#010F32"/>
<path d="M488.1 127.9C487.1 130.7 486.1 132.3 484.9 133.3C483.9 134.1 482.5 134.5 481.1 134.5C477.7 134.5 474.5 131.3 474.5 125.1C474.5 117.1 480.3 111.1 489.3 111.1C497.3 111.1 502.5 116.3 502.5 123.7C502.5 128.3 500.5 131.9 497.3 134.1C495.5 135.5 492.9 136.3 490.5 136.5C490.3 136.5 490.3 136.5 490.1 136.5C489.1 136.5 488.3 136.1 488.3 134.9C488.3 134.7 488.3 134.5 488.3 134.5C488.3 133.5 488.9 132.9 489.9 132.7C492.1 132.3 494.3 131.7 495.9 130.5C497.7 129.1 499.1 126.7 499.1 123.5C499.1 118.5 495.9 114.9 491.1 114.5C490.3 119.7 489.5 124.3 488.1 127.9ZM478.3 124.9C478.3 128.7 479.7 130.3 481.1 130.3C481.7 130.3 482.3 130.1 482.9 129.5C483.5 128.9 484.1 127.9 484.7 125.9C485.7 123.1 486.5 118.7 486.7 114.3C481.7 115.1 478.3 119.3 478.3 124.9Z" fill="#010F32"/>
<path d="M41.1 165.3C40.5 165.9 39.7 166.3 38.9 166.9C38.7 167.1 38.3 167.1 38.1 167.1C37.5 167.1 37.1 166.9 36.7 166.3C36.5 165.9 36.5 165.7 36.5 165.3C36.5 164.7 36.7 164.3 37.1 164.1C38.1 163.5 38.9 162.9 39.7 162.1C39.1 161.1 38.5 160.1 37.9 159.1C37.7 158.9 37.5 158.5 37.5 158.3C37.5 157.9 37.7 157.5 38.3 157.1C38.7 156.9 39.1 156.7 39.5 156.7C39.9 156.7 40.3 156.9 40.5 157.3C41.1 158.1 41.7 159.1 42.3 159.9C43.3 158.9 43.9 158.1 44.7 157.1C44.9 156.7 45.3 156.5 45.9 156.5C46.3 156.5 46.7 156.7 46.9 156.9C47.3 157.3 47.7 157.7 47.7 158.1C47.7 158.3 47.5 158.7 47.3 159.1C46.3 160.5 45.1 161.9 43.7 163.1C44.9 166.3 45.3 170.3 45.3 175.7C45.3 179.3 44.9 181.7 44.3 183.3C43.7 185.1 42.3 185.7 40.9 185.7C39.9 185.7 38.7 185.5 37.9 185.3C37.3 185.1 36.9 184.7 36.9 183.9C36.9 183.7 36.9 183.5 36.9 183.3C37.1 182.5 37.5 182.1 38.1 182.1C38.3 182.1 38.3 182.1 38.5 182.1C38.9 182.3 39.5 182.3 39.9 182.3C40.5 182.3 40.9 182.1 41.3 180.9C41.5 179.9 41.9 177.9 41.9 175.3V173.3C40.9 174.5 39.9 175.5 38.9 176.3C38.7 176.5 38.3 176.7 37.9 176.7C37.5 176.7 36.9 176.5 36.7 175.9C36.5 175.5 36.3 175.1 36.3 174.9C36.3 174.5 36.5 173.9 36.9 173.5C38.5 172.3 40.3 170.7 41.7 168.9C41.7 168.1 41.5 166.7 41.1 165.3ZM54.1 164.9C54.1 165.7 53.5 166.1 52.5 166.1C51.5 166.1 50.9 165.7 50.9 164.9V163.1H48.1C47.3 163.1 46.9 162.5 46.9 161.5C46.9 160.5 47.3 159.9 48.1 159.9H50.9V157.5C50.9 156.7 51.5 156.3 52.5 156.3C53.5 156.3 54.1 156.7 54.1 157.5V159.9H58.7V157.5C58.7 156.7 59.3 156.3 60.3 156.3C61.3 156.3 61.9 156.7 61.9 157.5V159.9H65.5C66.3 159.9 66.7 160.5 66.7 161.5C66.7 162.5 66.3 163.1 65.5 163.1H61.9V164.9C61.9 165.7 61.3 166.1 60.3 166.1C59.3 166.1 58.7 165.7 58.7 164.9V163.1H54.1C54.1 163.1 54.1 164.9 54.1 164.9ZM62.5 166.9C64.5 166.9 65.5 167.9 65.5 169.7V182.3C65.5 184.1 64.5 185.1 62.5 185.1H50.1C48.1 185.1 47.1 184.1 47.1 182.3V169.7C47.1 167.7 48.1 166.9 50.1 166.9H62.5ZM54.5 169.9H51.1C50.5 169.9 50.1 170.1 50.1 170.7V174.1H54.3L54.5 169.9ZM54.5 177.1H50.3V181.3C50.3 181.9 50.5 182.1 51.3 182.1H54.7L54.5 177.1ZM62.3 170.7C62.3 170.1 62.1 169.9 61.5 169.9H57.9V174.1H62.3V170.7ZM61.5 182.1C62.1 182.1 62.3 181.9 62.3 181.3V177.1H57.9V182.1H61.5Z" fill="#010F32"/>
<path d="M79.4999 172.3C81.8999 170.7 84.8999 169.7 88.4999 169.7C94.6999 169.7 97.6999 172.7 97.6999 176.7C97.6999 179.3 96.4999 181.3 94.2999 182.9C92.2999 184.3 89.4999 184.9 85.6999 184.9C82.2999 184.9 79.4999 184.5 77.2999 183.9C76.4999 183.7 76.0999 182.9 76.0999 182.1C76.0999 181.9 76.0999 181.7 76.0999 181.5C76.2999 180.7 77.0999 180.1 77.8999 180.1C78.0999 180.1 78.2999 180.1 78.4999 180.3C80.2999 180.9 82.8999 181.3 85.2999 181.3C90.2999 181.3 93.2999 179.7 93.2999 176.9C93.2999 174.7 91.4999 173.3 87.4999 173.3C84.0999 173.3 80.4999 174.7 77.8999 176.5C76.8999 177.3 76.2999 177.5 75.4999 177.5C75.0999 177.5 74.8999 177.3 74.4999 177.3C73.8999 177.1 73.4999 176.5 73.4999 175.7C73.4999 175.3 73.6999 174.9 73.8999 174.3C75.6999 171.5 77.0999 168.7 78.2999 165.5H77.4999C76.0999 165.5 74.6999 165.5 73.4999 165.3C72.4999 165.1 71.8999 164.5 71.8999 163.5V163.3C71.8999 162.3 72.4999 161.5 73.6999 161.5H73.8999C75.6999 161.7 77.8999 161.7 80.2999 161.7C80.6999 160.5 80.8999 159.3 81.2999 158.1C81.4999 157.1 82.2999 156.7 83.0999 156.7C83.2999 156.7 83.4999 156.7 83.6999 156.7C84.6999 156.9 85.2999 157.5 85.2999 158.3C85.2999 158.5 85.2999 158.7 85.2999 158.9C85.0999 159.9 84.6999 160.9 84.2999 161.9C87.6999 161.7 91.6999 161.5 94.4999 161.1C94.6999 161.1 94.6999 161.1 94.8999 161.1C95.6999 161.1 96.4999 161.7 96.4999 162.5C96.4999 162.7 96.4999 162.7 96.4999 162.9C96.4999 163.9 95.8999 164.5 94.8999 164.7C91.4999 165.3 87.0999 165.5 82.8999 165.7C81.6999 167.9 80.4999 170.3 79.4999 172.3Z" fill="#010F32"/>
<path d="M119.1 164.1C119.1 163.1 119.7 162.5 120.7 162.5H120.9C121.9 162.5 122.5 162.9 122.5 163.9L122.7 166.1C122.9 166.1 123.3 166.1 123.5 166.1C127.7 166.1 130.3 168.7 130.3 172.3C130.3 175.9 127.9 178.7 123.5 178.7C122.3 178.7 120.9 178.5 119.9 178.1C119.3 177.7 118.9 177.3 118.9 176.5C118.9 176.3 118.9 176.1 119.1 175.7C119.3 175.1 119.9 174.7 120.7 174.7C120.9 174.7 121.1 174.7 121.3 174.9C121.9 175.1 122.7 175.3 123.5 175.3C125.7 175.3 126.9 174.3 126.9 172.3C126.9 170.5 125.7 169.3 123.5 169.3C121.9 169.3 120.5 169.5 118.9 169.9C117.9 170.1 116.7 170.5 115.9 170.9C116.9 174.7 118.3 179.3 119.3 183.5C119.3 183.7 119.3 183.7 119.3 183.9C119.3 184.7 118.7 185.3 117.9 185.5C117.7 185.5 117.5 185.5 117.3 185.5C116.5 185.5 115.9 185.1 115.7 184.3C114.9 180.1 113.7 175.7 112.7 172.1C111.7 172.5 110.5 173.1 109.5 173.5C109.3 173.7 109.1 173.7 108.9 173.7C108.3 173.7 107.7 173.3 107.3 172.7C107.1 172.5 107.1 172.1 107.1 171.9C107.1 171.3 107.5 170.7 108.1 170.5C109.3 169.9 110.5 169.5 111.7 168.9C111.3 167.9 110.9 166.5 110.5 165.3C110.5 165.1 110.5 165.1 110.5 164.9C110.5 164.3 111.1 163.7 111.9 163.5C112.1 163.5 112.3 163.3 112.5 163.3C113.3 163.3 113.9 163.7 114.1 164.3C114.5 165.5 114.9 166.7 115.3 167.7C116.5 167.3 118.3 166.7 119.5 166.5L119.1 164.1Z" fill="#010F32"/>
<path d="M146.3 171.7C147.9 169.7 149.9 168.5 152.1 168.5C153.7 168.5 154.9 169.3 155.5 170.5C156.1 171.7 156.5 172.9 156.5 175.7C156.7 178.3 156.7 179.3 157.1 179.9C157.5 180.3 158.1 180.5 158.7 180.5C159.5 180.5 160.3 180.1 161.1 179.3C161.9 178.1 162.5 176.3 162.9 174.1C163.1 173.1 163.7 172.5 164.7 172.5C164.9 172.5 165.1 172.5 165.3 172.5C166.3 172.7 166.9 173.3 166.9 174.3C166.9 174.5 166.9 174.5 166.9 174.7C166.3 178.1 165.1 180.9 163.5 182.5C162.1 183.9 160.3 184.5 158.3 184.5C156.7 184.5 155.3 184.1 154.5 183.1C153.5 182.1 152.9 180.7 152.9 177.9C152.7 175.9 152.7 174.7 152.5 173.7C152.3 172.9 151.9 172.1 150.9 172.1C149.1 172.1 147.1 173.7 145.5 176.5C144.5 178.1 143.3 180.9 142.5 183.3C142.1 184.1 141.5 184.7 140.7 184.7C140.5 184.7 140.1 184.7 139.9 184.5C139.1 184.3 138.5 183.5 138.5 182.7C138.5 182.5 138.5 182.1 138.7 181.7C141.3 174.1 144.7 164.9 147.7 157.7C148.1 156.9 148.7 156.5 149.5 156.5C149.7 156.5 150.1 156.5 150.3 156.7C151.1 156.9 151.7 157.5 151.7 158.3C151.7 158.5 151.7 158.9 151.5 159.1C150.1 162.5 148.7 165.9 147.5 168.9C146.9 170.1 146.5 171.1 146.3 171.7Z" fill="#010F32"/>
<path d="M185.7 175.9C184.7 178.7 183.7 180.3 182.3 181.3C181.3 182.1 179.9 182.5 178.5 182.5C175.1 182.5 171.9 179.3 171.9 173.1C171.9 165.1 177.7 159.1 186.7 159.1C194.7 159.1 199.9 164.3 199.9 171.7C199.9 176.3 197.9 179.9 194.7 182.1C192.9 183.5 190.3 184.3 187.9 184.5C187.7 184.5 187.7 184.5 187.5 184.5C186.5 184.5 185.7 184.1 185.7 182.9C185.7 182.7 185.7 182.5 185.7 182.5C185.7 181.5 186.3 180.7 187.3 180.7C189.5 180.3 191.7 179.7 193.1 178.5C194.9 177.1 196.3 174.7 196.3 171.5C196.3 166.5 193.1 162.7 188.3 162.5C187.9 167.7 187.1 172.3 185.7 175.9ZM175.9 172.9C175.9 176.7 177.3 178.3 178.7 178.3C179.3 178.3 179.9 178.1 180.5 177.5C181.1 176.9 181.7 175.7 182.3 173.9C183.3 171.1 184.1 166.7 184.3 162.3C179.3 163.1 175.9 167.3 175.9 172.9Z" fill="#010F32"/>
<path d="M206.1 178.5C205.3 178.5 204.9 177.9 204.9 176.9C204.9 175.9 205.3 175.3 206.1 175.3H224.9C225.1 174.7 225.1 173.9 225.1 173.3V173.1C225.1 172.5 224.9 172.5 224.3 172.5H212.3C210.9 172.5 209.9 171.7 209.9 170.7C209.9 170.3 210.1 169.9 210.1 169.5C210.9 167.5 211.7 164.9 212.3 162.3C212.5 161.5 213.1 161.1 213.9 161.1C214.1 161.1 214.1 161.1 214.3 161.1C215.3 161.3 215.9 161.7 215.9 162.3C215.9 162.5 215.9 162.5 215.9 162.7C215.7 163.1 215.7 163.5 215.7 163.9H228.7C229.3 163.9 229.9 164.5 229.9 165.5C229.9 166.5 229.5 167.1 228.7 167.1H214.9C214.7 167.9 214.5 168.5 214.3 169.1C214.3 169.3 214.1 169.3 214.1 169.5C214.1 169.7 214.3 169.9 214.7 169.9H225.5C227.5 169.9 228.7 170.7 228.7 172.7V173.1C228.7 174.1 228.5 174.9 228.5 175.9H233.3C234.1 175.9 234.5 176.5 234.5 177.5C234.5 178.5 234.1 179.1 233.3 179.1H227.9C227.7 180.5 227.3 181.7 226.9 182.7C225.9 185.3 224.7 186.3 220.9 186.3C219.3 186.3 217.5 186.1 216.3 185.9C215.5 185.7 214.9 185.1 214.9 184.3C214.9 184.1 214.9 183.9 214.9 183.9C215.1 182.9 215.5 182.5 216.5 182.5C216.7 182.5 216.7 182.5 216.9 182.5C218.1 182.7 219.7 182.9 220.7 182.9C222.7 182.9 223.1 182.7 223.7 181.3C223.9 180.7 224.1 180.1 224.3 179.1L206.1 178.5ZM230.7 157.1C232.9 157.1 233.9 158.1 233.9 160.1V163.5C233.9 164.3 233.3 164.7 232.1 164.7C230.9 164.7 230.3 164.3 230.3 163.5V161.1C230.3 160.5 229.9 160.3 229.3 160.3H209.9C209.3 160.3 208.9 160.5 208.9 161.1V163.5C208.9 164.3 208.3 164.7 207.1 164.7C205.9 164.7 205.3 164.3 205.3 163.5V159.9C205.3 157.9 206.3 156.9 208.5 156.9H230.7V157.1Z" fill="#010F32"/>
<path d="M239.7 180.7C238.9 180.7 238.5 180.1 238.5 179.3C238.5 178.5 238.9 177.9 239.7 177.9H266.7C267.5 177.9 267.9 178.5 267.9 179.3C267.9 180.1 267.5 180.7 266.7 180.7H258.1C258.3 180.7 258.5 180.9 258.7 180.9C261.1 182.1 264.3 182.7 266.5 183.1C267.3 183.3 267.7 183.7 267.7 184.5C267.7 184.7 267.7 184.7 267.7 184.9C267.5 185.9 266.9 186.3 266.1 186.3C265.9 186.3 265.9 186.3 265.7 186.3C262.7 185.9 258.9 184.9 256.3 183.5C255.7 183.1 255.5 182.7 255.5 182.3C255.5 181.9 255.7 181.5 256.1 181.3C256.3 181.1 256.7 180.9 256.9 180.9H248.5C248.9 180.9 249.3 181.1 249.5 181.3C249.9 181.7 249.9 182.1 249.9 182.3C249.9 182.7 249.7 183.1 249.1 183.5C246.9 184.9 243.3 185.9 240.3 186.3C240.1 186.3 240.1 186.3 239.9 186.3C239.1 186.3 238.5 185.9 238.3 184.9C238.3 184.7 238.3 184.7 238.3 184.5C238.3 183.7 238.7 183.1 239.5 183.1C242.1 182.7 245.3 181.7 246.9 180.9C247.1 180.7 247.5 180.7 247.9 180.7H239.7ZM261.3 162.7C263.3 162.7 264.1 163.5 264.1 165.3V173.7C264.1 175.5 263.1 176.3 261.3 176.3H244.9C242.9 176.3 241.9 175.5 241.9 173.7V165.3C241.9 163.5 242.7 162.7 244.7 162.7H251.1V161.1H239.9C239.1 161.1 238.7 160.5 238.7 159.5C238.7 158.5 239.1 158.1 239.9 158.1H251.1V156.9C251.1 156.1 251.7 155.7 252.9 155.7C254.1 155.7 254.7 156.1 254.7 156.9V158.1H266.3C267.1 158.1 267.5 158.7 267.5 159.5C267.5 160.3 267.1 161.1 266.3 161.1H254.7V162.7H261.3ZM260.7 166.5V165.7C260.7 165.1 260.5 165.1 259.9 165.1H246.3C245.7 165.1 245.5 165.3 245.5 165.7V166.5H260.7ZM260.7 170.1V168.7H245.5V170.1H260.7ZM245.5 173.1C245.5 173.5 245.7 173.7 246.3 173.7H259.9C260.5 173.7 260.7 173.5 260.7 173.1V172.3H245.5V173.1Z" fill="#010F32"/>
<path d="M289.9 178.7C289.9 182.3 288.5 184.9 282.7 184.9C277.9 184.9 274.9 182.7 274.9 179.3C274.9 175.9 277.9 173.5 283.3 173.5C284.3 173.5 285.1 173.7 286.1 173.7C285.9 172.5 285.9 171.5 285.9 170.3C284.7 170.3 283.5 170.3 282.5 170.3C280.3 170.3 278.5 170.3 276.5 170.1C275.5 169.9 274.9 169.3 274.9 168.3V168.5C275.1 167.5 275.5 166.9 276.5 166.9H276.7C278.7 167.1 280.3 167.1 282.5 167.1C283.1 167.1 283.7 167.1 284.1 167.1C284.7 167.1 285.3 167.1 285.9 167.1C285.9 166.1 285.9 165.1 285.7 163.9H282.7C279.9 163.9 277.5 163.9 275.9 163.7C274.9 163.7 274.3 162.9 274.3 161.9V161.7C274.5 160.7 274.9 160.1 275.9 160.1H276.1C277.7 160.3 279.9 160.3 282.5 160.3C283.5 160.3 284.5 160.3 285.5 160.3V158.1C285.5 157.1 286.1 156.5 287.3 156.5C288.5 156.5 289.1 156.9 289.1 158.3V160.3C292.1 160.1 294.9 160.1 297.5 159.7C297.7 159.7 297.9 159.7 297.9 159.7C298.9 159.7 299.3 160.3 299.5 161.1C299.5 161.3 299.5 161.3 299.5 161.5C299.5 162.3 299.1 163.1 298.1 163.1C295.1 163.5 292.3 163.7 289.3 163.9C289.3 164.9 289.3 165.9 289.5 167.1C292.3 166.9 294.7 166.7 297.3 166.3C297.5 166.3 297.5 166.3 297.7 166.3C298.7 166.3 299.1 166.9 299.3 167.9C299.3 168.1 299.3 168.1 299.3 168.3C299.3 169.3 298.7 169.7 297.7 169.9C295.1 170.3 292.5 170.5 289.5 170.7C289.7 172.1 289.7 173.5 289.9 174.9C290.7 175.1 291.5 175.3 292.1 175.7C294.7 176.7 297.5 178.3 299.5 180.1C300.1 180.5 300.3 181.1 300.3 181.7C300.3 182.1 300.1 182.5 299.9 182.9C299.5 183.5 298.9 183.7 298.3 183.7C297.9 183.7 297.3 183.5 296.9 183.1C295.3 181.5 293.3 180.3 291.5 179.3C291.1 179.1 290.7 178.9 289.9 178.7ZM282.9 176.7C279.9 176.7 278.5 177.7 278.5 179.1C278.5 180.5 279.9 181.3 282.3 181.3C285.1 181.3 286.1 180.5 286.1 178.1C286.1 177.7 286.1 177.5 286.1 177.1C285.3 177.1 284.1 176.7 282.9 176.7Z" fill="#010F32"/>
<path d="M310.7 183.3C310.3 184.1 309.7 184.5 308.9 184.5C308.5 184.5 308.1 184.3 307.9 184.3C307.3 183.9 306.9 183.3 306.9 182.7C306.9 182.3 307.1 181.9 307.1 181.7C309.3 177.1 311.3 171.3 312.9 165.9C311.7 165.9 310.1 166.1 308.9 166.1H308.1C307.1 166.1 306.5 165.5 306.5 164.3V164.1C306.5 163.1 307.1 162.3 308.1 162.3C309.7 162.3 311.7 162.3 313.5 162.1C313.7 160.9 314.1 159.5 314.3 158.3C314.5 157.3 315.1 156.9 316.1 156.9C316.3 156.9 316.3 156.9 316.5 156.9C317.5 157.1 318.1 157.7 318.1 158.5C318.1 158.7 318.1 158.7 318.1 158.7C317.9 159.7 317.7 160.7 317.5 161.9C319.3 161.7 320.9 161.5 322.5 161.3C322.7 161.3 322.7 161.3 322.9 161.3C323.7 161.3 324.3 161.7 324.5 162.7C324.5 162.9 324.5 163.1 324.5 163.1C324.5 163.9 323.9 164.5 323.3 164.7C321.3 165.1 318.9 165.3 316.5 165.5C315.1 171.5 313.1 178.1 310.7 183.3ZM321.9 175.5C321.9 175.7 321.7 176.1 321.7 176.3C321.1 177.1 320.9 177.7 320.9 178.5C320.9 179.5 321.3 180.1 322.3 180.5C323.3 180.9 324.5 181.1 326.1 181.1C328.3 181.1 330.7 180.9 332.5 180.5C332.7 180.5 332.9 180.5 333.1 180.5C334.1 180.5 334.7 181.1 334.9 181.9C334.9 182.1 334.9 182.3 334.9 182.3C334.9 183.1 334.5 183.9 333.3 184.1C331.5 184.5 329.1 184.7 326.5 184.7C324.3 184.7 322.1 184.3 320.7 183.7C318.5 182.7 317.5 181.1 317.5 178.9C317.5 177.5 318.1 175.7 319.3 174.5C319.7 174.1 320.1 173.9 320.7 173.9C321.1 173.9 321.3 174.1 321.7 174.1C321.5 174.5 321.9 174.9 321.9 175.5ZM331.5 166.1C332.5 166.1 333.3 166.9 333.3 168.1C333.3 169.3 332.7 169.9 331.7 169.9H331.5C330.7 169.9 329.7 169.9 328.7 169.9C326.5 169.9 323.7 170.1 321.7 170.5C321.5 170.5 321.5 170.5 321.3 170.5C320.3 170.5 319.7 169.9 319.5 168.7C319.5 168.5 319.5 168.5 319.5 168.3C319.5 167.5 319.9 166.7 320.9 166.5C323.3 166.1 326.3 165.9 328.7 165.7C329.7 165.9 330.7 166.1 331.5 166.1Z" fill="#010F32"/>
<path d="M346.9 158.9C346.9 159.1 346.9 159.3 346.9 159.5C346.1 163.5 345.3 168.9 345.3 172.9C345.3 175.9 345.7 179.5 346.1 182.5C346.1 182.7 346.1 182.9 346.1 183.1C346.1 184.1 345.5 184.7 344.5 184.9C344.3 184.9 344.1 184.9 343.9 184.9C342.9 184.9 342.3 184.3 342.1 183.3C341.5 180.5 341.1 176.9 341.1 173.1C341.1 168.7 341.9 162.7 342.9 158.7C343.1 157.7 343.7 157.3 344.7 157.3C344.9 157.3 345.1 157.3 345.3 157.3C346.3 157.5 346.9 158.1 346.9 158.9ZM362.7 179.3C362.7 182.3 360.9 184.5 355.9 184.5C351.9 184.5 348.9 182.5 348.9 178.9C348.9 175.7 351.5 173.5 355.5 173.5C356.7 173.5 357.9 173.7 358.9 173.9C358.9 173.1 358.7 171.9 358.7 170.9C358.5 169.7 358.5 168.3 358.5 166.9C356.9 166.9 355.3 167.1 353.5 167.1C352.5 167.1 351.3 167.1 350.3 167.1C349.3 167.1 348.7 166.3 348.7 165.3C348.7 164.3 349.3 163.5 350.3 163.5C351.3 163.5 352.3 163.5 353.3 163.5C354.9 163.5 356.5 163.5 358.3 163.3C358.3 161.9 358.3 160.3 358.3 158.9C358.3 157.7 358.9 157.1 360.1 157.1C361.3 157.1 362.1 157.7 361.9 158.7V162.9C363.3 162.7 364.7 162.7 365.9 162.5C366.1 162.5 366.1 162.5 366.3 162.5C367.1 162.5 367.7 163.1 367.9 163.9C367.9 164.1 367.9 164.1 367.9 164.3C367.9 165.3 367.5 165.9 366.5 166.1C365.1 166.3 363.5 166.5 361.9 166.7C361.9 168.3 362.1 169.7 362.1 171.1C362.3 172.3 362.3 173.7 362.5 175.1C364.3 175.9 366.5 177.5 367.9 178.9C368.3 179.3 368.5 179.7 368.5 180.3C368.5 180.7 368.3 181.3 367.9 181.7C367.5 182.1 367.1 182.3 366.5 182.3C366.1 182.3 365.7 182.1 365.3 181.9C364.5 180.5 363.5 179.7 362.7 179.3ZM355.7 176.7C353.9 176.7 352.5 177.5 352.5 178.9C352.5 180.3 353.7 181.1 355.7 181.1C358.1 181.1 359.1 180.1 359.1 178.1C359.1 177.7 359.1 177.5 359.1 177.1C358.1 176.9 356.9 176.7 355.7 176.7Z" fill="#010F32"/>
<path d="M395.7 177.3C394.5 174.5 392.9 171.5 391.3 168.9C391.1 168.5 391.1 168.3 391.1 167.9C391.1 167.3 391.5 166.7 392.1 166.3C392.5 166.1 392.7 166.1 392.9 166.1C393.7 166.1 394.3 166.5 394.7 167.1C397.3 171.1 399.9 176.5 401.5 180.5C401.7 180.9 401.7 181.3 401.7 181.7C401.7 182.5 401.3 183.3 400.3 183.5C399.9 183.7 399.7 183.7 399.3 183.7C398.5 183.7 397.9 183.3 397.7 182.7C397.5 181.9 397.1 181.3 396.7 180.5C390.7 181.7 382.5 182.7 375.3 182.9H375.1C374.1 182.9 373.3 182.3 373.3 181.1V180.9C373.3 179.7 373.9 178.9 374.9 178.9C375.3 178.9 375.7 178.9 375.9 178.9H376.9C379.9 172.5 382.5 164.9 384.3 158.5C384.5 157.5 385.3 156.9 386.1 156.9C386.3 156.9 386.5 156.9 386.7 156.9C387.7 157.1 388.3 157.7 388.3 158.7C388.3 158.9 388.3 159.1 388.3 159.3C386.7 165.7 383.9 172.9 381.3 178.5C386.1 178.7 391.7 178.1 395.7 177.3Z" fill="#010F32"/>
<path d="M409.3 173.5C408.1 173.5 407.5 172.7 407.5 171.3C407.5 169.9 408.1 169.1 409.3 169.1H432.9C434.1 169.1 434.7 169.9 434.7 171.3C434.7 172.7 434.1 173.5 432.9 173.5H409.3Z" fill="#010F32"/>
<path d="M448.3 167.7C452.7 167.1 457.9 165.3 461.7 163.1C462.1 162.9 462.5 162.7 462.9 162.7C463.5 162.7 464.1 163.1 464.5 163.7C464.7 164.1 464.9 164.5 464.9 164.9C464.9 165.5 464.5 166.3 463.9 166.5C459.7 168.9 453.9 170.7 448.3 171.5V176.3C448.3 180.1 448.7 180.5 454.5 180.5C457.7 180.5 461.1 180.1 464.1 179.7C464.3 179.7 464.5 179.7 464.5 179.7C465.5 179.7 466.1 180.3 466.3 181.3C466.3 181.5 466.3 181.5 466.3 181.7C466.3 182.7 465.7 183.5 464.7 183.5C461.9 184.1 458.3 184.3 454.3 184.3C445.9 184.3 444.3 183.1 444.3 176.7V159.9C444.3 158.7 445.1 158.1 446.3 158.1C447.5 158.1 448.3 158.7 448.3 159.9V167.7ZM463.5 157.1C463.9 157.1 464.3 157.3 464.7 157.7C465.5 158.7 466.3 159.9 466.7 160.7C466.9 160.9 466.9 161.3 466.9 161.5C466.9 162.1 466.7 162.5 466.1 162.7C465.9 162.9 465.5 162.9 465.3 162.9C464.9 162.9 464.3 162.7 464.1 162.1C463.5 161.1 462.9 160.1 462.1 159.1C461.9 158.9 461.9 158.7 461.9 158.5C461.9 158.1 462.1 157.5 462.7 157.3C463.1 157.1 463.3 157.1 463.5 157.1ZM470.7 159.9C470.7 160.3 470.5 160.9 469.9 161.1C469.7 161.3 469.3 161.3 469.1 161.3C468.7 161.3 468.3 161.1 467.9 160.5C467.3 159.5 466.7 158.5 466.1 157.5C465.9 157.3 465.9 157.1 465.9 156.7C465.9 156.3 466.1 155.7 466.7 155.5C466.9 155.3 467.1 155.3 467.5 155.3C467.9 155.3 468.3 155.5 468.7 155.9C469.5 156.9 470.1 157.9 470.7 158.9C470.7 159.5 470.7 159.7 470.7 159.9Z" fill="#010F32"/>
<path d="M476.7 173.5C475.5 173.5 474.9 172.7 474.9 171.3C474.9 169.9 475.5 169.1 476.7 169.1H500.3C501.5 169.1 502.1 169.9 502.1 171.3C502.1 172.7 501.5 173.5 500.3 173.5H476.7Z" fill="#010F32"/>
<path d="M516.7 168.3C518.5 166.9 520.1 166.3 521.9 166.3C524.3 166.3 525.9 167.3 526.5 169.9C528.9 169.1 531.5 168.3 533.5 167.7C533.7 167.7 534.1 167.5 534.3 167.5C535.1 167.5 535.7 167.9 535.9 168.7C535.9 168.9 535.9 169.1 535.9 169.3C535.9 170.1 535.5 170.7 534.5 170.9C532.3 171.5 529.5 172.3 526.7 173.1C526.7 173.9 526.7 174.9 526.7 175.9C526.7 176.5 526.7 177.1 526.7 177.5C526.7 178.7 525.9 179.3 524.9 179.3C523.7 179.3 523.3 178.7 523.3 177.7V174.5C519.3 175.9 517.9 177.5 517.9 179.1C517.9 180.7 519.5 181.5 523.5 181.5C526.7 181.5 529.7 181.1 532.1 180.7C532.3 180.7 532.5 180.7 532.7 180.7C533.5 180.7 534.1 181.1 534.3 182.1C534.3 182.3 534.3 182.3 534.3 182.5C534.3 183.5 533.7 184.1 532.7 184.3C530.3 184.7 527.1 185.1 523.7 185.1C517.3 185.1 513.9 183.3 513.9 179.3C513.9 176.1 516.9 173.1 522.9 170.9C522.9 169.5 522.1 169.1 520.9 169.1C518.3 169.1 515.1 171.1 511.5 174.7C511.1 175.1 510.5 175.3 510.1 175.3C509.7 175.3 509.1 175.1 508.7 174.7C508.3 174.3 508.1 173.9 508.1 173.3C508.1 172.7 508.3 172.3 508.7 171.9C511.3 169.5 513.7 166.7 515.7 163.9H514.3C513.1 163.9 511.5 163.9 510.3 163.9C509.3 163.9 508.7 163.1 508.7 162.1V161.9C508.7 160.9 509.5 160.1 510.5 160.3C511.7 160.3 513.1 160.5 514.9 160.5H517.5C517.9 159.7 518.5 158.7 518.7 157.7C519.1 156.9 519.7 156.5 520.5 156.5C520.7 156.5 520.9 156.5 521.1 156.5C522.1 156.7 522.5 157.3 522.5 157.9C522.5 158.1 522.5 158.3 522.3 158.5C522.1 159.1 521.7 159.7 521.5 160.3C523.9 160.1 527.1 159.9 530.3 159.5C530.5 159.5 530.5 159.5 530.7 159.5C531.7 159.5 532.3 160.1 532.3 161.1C532.3 161.3 532.3 161.3 532.3 161.5C532.3 162.3 531.9 162.9 530.9 163.1C527.1 163.7 523.3 163.9 519.9 164.1C518.9 165.5 517.7 167.1 516.7 168.3Z" fill="#010F32"/>
<path d="M548.3 182.5C548.3 184.7 547.1 185.9 544.7 185.9C543.7 185.9 542.9 185.9 542.3 185.7C541.5 185.5 541.1 185.1 541.1 184.1C541.1 183.9 541.1 183.9 541.1 183.7C541.1 182.7 541.7 182.3 542.3 182.3H542.5C542.9 182.3 543.5 182.5 543.9 182.5C544.7 182.5 544.9 182.3 544.9 181.5V174.7C544.3 174.9 543.5 175.1 542.9 175.3C542.7 175.3 542.5 175.3 542.3 175.3C541.7 175.3 541.1 174.9 540.9 174.1C540.9 173.9 540.9 173.7 540.9 173.5C540.9 172.9 541.3 172.3 541.9 172.1C542.9 171.9 543.9 171.5 544.9 171.3V165.1H542.1C541.3 165.1 540.9 164.5 540.9 163.5C540.9 162.5 541.3 161.9 542.1 161.9H544.9V157.3C544.9 156.5 545.5 156.1 546.7 156.1C547.9 156.1 548.5 156.5 548.5 157.3V161.9H550.7C551.5 161.9 551.9 162.5 551.9 163.5C551.9 164.5 551.5 165.1 550.7 165.1H548.5V169.9C548.9 169.7 549.3 169.5 549.7 169.5C549.9 169.3 550.1 169.3 550.3 169.3C550.9 169.3 551.3 169.7 551.5 170.3C551.5 170.5 551.7 170.9 551.7 171.1C551.7 171.7 551.5 172.1 550.9 172.3C550.1 172.7 549.5 172.9 548.7 173.3L548.3 182.5ZM552.9 172.7C552.1 172.7 551.7 172.1 551.7 171.1C551.7 170.1 552.1 169.5 552.9 169.5H565.3C567.1 169.5 568.1 170.5 568.1 171.9C568.1 172.7 567.9 173.5 567.3 174.3C566.3 176.1 564.9 177.9 563.1 179.3C565.1 180.5 567.1 181.3 569.3 181.9C570.1 182.1 570.5 182.7 570.5 183.5C570.5 183.7 570.5 184.1 570.3 184.3C570.1 185.1 569.5 185.7 568.7 185.7C568.5 185.7 568.3 185.7 567.9 185.5C565.3 184.7 562.5 183.5 560.1 181.7C557.5 183.5 554.7 184.7 551.7 185.7C551.5 185.9 551.1 185.9 550.9 185.9C550.1 185.9 549.5 185.5 549.3 184.7C549.3 184.5 549.1 184.1 549.1 183.9C549.1 183.1 549.5 182.7 550.3 182.5C552.9 181.7 555.3 180.7 557.5 179.3C555.7 177.3 554.3 175.1 553.1 172.5L552.9 172.7ZM561.7 161.1C561.7 160.3 561.5 160.1 560.7 160.1H558.3C557.7 160.1 557.3 160.3 557.3 161.1C557.1 164.5 556.3 166.9 553.5 168.7C553.1 168.9 552.7 169.1 552.3 169.1C551.7 169.1 551.3 168.9 550.9 168.3C550.7 167.9 550.5 167.5 550.5 167.3C550.5 166.9 550.7 166.3 551.1 166.1C553.1 164.7 553.7 163.1 553.7 159.7C553.7 157.9 554.7 156.9 556.7 156.9H561.7C563.7 156.9 564.7 157.9 564.7 159.7V163.9C564.7 164.5 564.9 164.7 565.7 164.7C566.5 164.7 566.9 164.5 566.9 163.9C567.1 163.5 567.1 162.7 567.1 161.9C567.1 161.1 567.7 160.7 568.5 160.7H568.7C569.7 160.7 570.3 161.3 570.3 162.1C570.3 163.7 570.1 165.1 569.7 165.9C569.3 166.9 568.5 167.5 567.1 167.7C566.5 167.7 565.9 167.9 565.1 167.9C564.5 167.9 563.9 167.9 563.5 167.9C561.9 167.7 561.1 166.9 561.1 165.1L561.7 161.1ZM556.9 172.7C557.9 174.5 558.9 176.1 560.5 177.5C561.9 176.3 563.1 175.1 563.9 173.7C564.1 173.5 564.1 173.3 564.1 173.1C564.1 172.9 563.9 172.7 563.5 172.7H556.9Z" fill="#010F32"/>
<path d="M582.1 167.5C582.5 168.9 583.5 170.5 584.5 171.7C584.7 171.9 584.9 172.3 584.9 172.5C585.3 171.5 586.1 170.9 587.7 170.9H600.7C602.9 170.9 603.7 171.7 603.7 173.7V182.9C603.7 185.1 602.5 185.9 600.1 185.9C599.1 185.9 597.9 185.7 597.3 185.7C596.7 185.5 596.3 185.1 596.3 184.3C596.3 184.1 596.3 183.9 596.3 183.9C596.3 183.5 596.7 183.1 596.9 182.9C596.7 182.9 596.5 182.9 596.3 182.9H592.1C590.3 182.9 589.9 182.5 589.9 180.7V177.5C589.9 175.7 590.5 175.3 592.1 175.3H596.3C598.1 175.3 598.5 175.9 598.5 177.5V180.7C598.5 181.9 598.3 182.5 597.5 182.7H597.7C598.1 182.9 598.7 182.9 599.1 182.9C599.9 182.9 600.1 182.9 600.1 182.1V174.7C600.1 174.1 599.9 173.9 599.1 173.9H588.9C588.1 173.9 587.9 174.1 587.9 174.7V184.9C587.9 185.7 587.1 186.1 586.1 186.1C585.1 186.1 584.3 185.7 584.3 184.9V173.7L584.1 173.9C583.9 174.3 583.5 174.3 583.1 174.3C582.7 174.3 582.5 174.1 582.3 173.9C581.7 173.1 581.3 172.1 580.9 170.9C581.1 172.3 581.3 174.3 581.3 175.7V184.7C581.3 185.5 580.7 185.9 579.7 185.9C578.7 185.9 578.1 185.5 578.1 184.7V177.5C578.1 176.1 578.3 174.1 578.5 172.3C577.9 174.3 576.9 176.5 576.1 177.9C575.9 178.3 575.5 178.5 574.9 178.5C574.5 178.5 574.3 178.3 573.9 178.1C573.5 177.7 573.3 177.3 573.3 176.7C573.3 176.3 573.5 175.9 573.7 175.7C575.5 173.5 577.1 170.3 577.7 167.3H574.9C574.1 167.3 573.7 166.7 573.7 165.7C573.7 164.7 574.1 164.1 574.9 164.1H578.1V160.9C577.3 161.1 576.7 161.3 575.9 161.3C575.7 161.3 575.5 161.3 575.5 161.3C574.7 161.3 574.3 160.9 574.1 160.1C574.1 159.9 574.1 159.7 574.1 159.7C574.1 158.9 574.5 158.3 575.3 158.3C577.5 157.9 580.5 157.1 582.5 156.1C582.7 155.9 583.1 155.9 583.3 155.9C583.9 155.9 584.3 156.3 584.5 156.9C584.7 157.1 584.7 157.5 584.7 157.7C584.7 158.5 584.3 158.9 583.7 159.1C583.1 159.3 582.3 159.7 581.5 159.9V164.1H583.9C584.7 164.1 585.1 164.7 585.1 165.7C585.1 166.7 584.7 167.3 583.9 167.3L582.1 167.5ZM603.3 158.5C604.1 158.5 604.3 159.1 604.3 160.1C604.3 161.1 603.9 161.7 603.3 161.7H586.3C585.5 161.7 585.3 161.1 585.3 160.1C585.3 159.1 585.7 158.5 586.3 158.5H592.5V157.1C592.5 156.3 593.1 155.9 594.3 155.9C595.5 155.9 596.1 156.3 596.1 157.1V158.5H603.3ZM599.1 162.9C600.9 162.9 601.7 163.5 601.7 165.1V167.5C601.7 169.1 600.9 169.7 599.1 169.7H589.5C587.7 169.7 586.9 169.1 586.9 167.5V165.1C586.9 163.5 587.7 162.9 589.5 162.9H599.1ZM597.7 167.3C598.3 167.3 598.5 167.1 598.5 166.7V165.9C598.5 165.3 598.3 165.3 597.7 165.3H591.1C590.5 165.3 590.3 165.5 590.3 165.9V166.7C590.3 167.3 590.5 167.3 591.1 167.3H597.7ZM595.3 180.5C595.7 180.5 595.9 180.3 595.9 179.9V178.5C595.9 177.9 595.7 177.9 595.3 177.9H593.3C592.9 177.9 592.7 178.1 592.7 178.5V179.9C592.7 180.5 592.7 180.5 593.3 180.5H595.3Z" fill="#010F32"/>
<path d="M16.1 32.3002C24.8261 32.3002 31.9001 25.2263 31.9001 16.5002C31.9001 7.7741 24.8261 0.700195 16.1 0.700195C7.37395 0.700195 0.300049 7.7741 0.300049 16.5002C0.300049 25.2263 7.37395 32.3002 16.1 32.3002Z" fill="#010F32"/>
<path d="M18.7001 26.1004C18.7001 26.9004 18.1 27.5004 17.1 27.5004C16.1 27.5004 15.5 26.9004 15.5 26.1004V11.7004C15.5 11.3004 15.3001 11.1004 14.9001 11.1004H12.7001C11.9001 11.1004 11.3 10.3004 11.3 9.50039C11.3 8.70039 11.9001 7.90039 12.7001 7.90039H16.3H16.5C18.5 7.90039 18.9001 8.50039 18.9001 10.7004L18.7001 26.1004Z" fill="white"/>
<path d="M67.3 236.5C67.5 235.9 67.9 235.7 68.5 235.7C68.7 235.7 68.9 235.7 69.1 235.7C69.7 235.9 70.3 236.3 70.3 236.9C70.3 237.1 70.3 237.1 70.3 237.1L67.7 246.9C67.7 247.1 67.5 247.5 67.5 247.7C67.5 248.1 67.7 248.5 68.1 248.5C69.1 248.5 70.3 247.9 71.3 246.7C72.5 245.3 73.3 243.3 73.3 241.3C73.3 236.1 69.5 232.9 63.9 232.9C57.5 232.9 52.5 237.7 52.5 243.9C52.5 250.1 56.7 254.1 63.1 254.1C65.9 254.1 68.3 253.3 70.7 251.9C70.9 251.7 71.1 251.7 71.3 251.7C71.9 251.7 72.3 252.1 72.5 252.5C72.7 252.7 72.7 253.1 72.7 253.3C72.7 253.7 72.5 254.1 72.1 254.3C69.7 255.7 66.7 256.7 62.7 256.7C58.5 256.7 55.1 255.3 52.9 252.9C50.5 250.5 49.3 247.3 49.3 243.5C49.3 235.7 55.3 229.7 63.7 229.7C71.3 229.7 76.1 234.3 76.1 240.9C76.1 243.9 75.1 246.5 73.5 248.3C71.9 250.1 69.7 251.1 67.5 251.1C65.3 251.1 64.7 250.3 64.7 248.9C63.5 250.5 62.1 251.1 60.3 251.1C57.5 251.1 55.7 248.9 55.7 245.5C55.7 240.1 59.3 235.3 63.7 235.3C65.3 235.3 66.5 235.9 67.1 237.3L67.3 236.5ZM60.9 239.7C59.9 241.1 59.1 243.5 59.1 245.5C59.1 247.5 59.7 248.3 61.1 248.3C62.3 248.3 63.5 247.5 64.5 246.1C65.5 244.5 66.1 242.3 66.1 240.3C66.1 238.9 65.3 238.1 63.9 238.1C62.9 238.1 61.9 238.7 60.9 239.7Z" fill="#010F32"/>
<path d="M97.3 254.9C97.3 255.9 96.5001 256.7 95.1001 256.7C93.7001 256.7 93.1 256.1 93.1 254.9V244.9C93.1 242.5 92.3 241.1 90.1 241.1C88.7 241.1 87.5 241.7 86.5 242.9C85.9 243.7 85.3 244.7 85.3 245.7V254.9C85.3 255.9 84.5 256.7 83.3 256.7C82.1 256.7 81.3 256.1 81.3 254.9V239.3C81.3 238.3 82.1 237.7 83.3 237.7C84.5 237.7 85.3 238.3 85.3 239.3V239.9C85.3 240.1 85.3 240.5 85.3 240.7C86.5 238.5 88.3 237.3 91.3 237.3C95.3 237.3 97.5 239.7 97.5 243.9L97.3 254.9Z" fill="#010F32"/>
<path d="M114.9 238.7C115.1 237.9 115.9 237.5 116.7 237.5C116.9 237.5 117.3 237.5 117.5 237.7C118.3 237.9 119.1 238.5 119.1 239.3C119.1 239.5 119.1 239.7 118.9 240.1L111.5 258.5C110.3 261.7 108.7 263.5 105.1 263.5C104.3 263.5 103.3 263.3 102.5 263.1C101.7 262.9 101.5 262.3 101.5 261.7C101.5 261.3 101.7 260.9 101.7 260.7C102.1 259.9 102.5 259.5 103.3 259.5C103.5 259.5 103.9 259.5 104.1 259.7C104.5 259.9 105.1 260.1 105.5 260.1C106.7 260.1 107.3 259.1 107.9 257.7L108.7 255.9L102.1 240.3C101.9 240.1 101.9 239.9 101.9 239.7C101.9 238.9 102.5 238.3 103.5 237.9C103.9 237.7 104.1 237.7 104.5 237.7C105.3 237.7 105.9 237.9 106.1 238.7L109.5 247.5C109.9 248.7 110.3 250.1 110.7 251.3C111.1 250.1 111.5 248.5 111.9 247.5L114.9 238.7Z" fill="#010F32"/>
<path d="M134.3 243.3C134.3 241.5 133.3 240.5 131.1 240.5C129.1 240.5 127.9 241.3 127.5 242.7C127.1 243.5 126.5 243.7 125.9 243.7C125.5 243.7 125.3 243.7 124.9 243.5C124.1 243.3 123.5 242.7 123.5 241.9C123.5 241.7 123.5 241.5 123.7 241.3C124.1 240.3 124.9 239.3 125.9 238.7C127.1 237.9 128.7 237.3 131.3 237.3C136.1 237.3 138.3 239.1 138.3 243.3V251.9C138.3 253.1 138.5 254.1 138.7 254.7C138.7 254.9 138.7 254.9 138.7 255.1C138.7 255.9 138.1 256.3 136.9 256.5H136.5C135.7 256.5 134.9 256.3 134.7 255.7C134.5 255.5 134.5 254.9 134.5 254.5C133.3 255.9 131.5 256.9 128.7 256.9C124.9 256.9 122.5 254.9 122.5 251.3C122.5 248.3 124.3 246.3 127.3 245.5C129.1 245.1 130.5 244.7 134.1 244.7L134.3 243.3ZM134.3 247.5C131.1 247.7 129.3 247.9 128.1 248.5C127.1 249.1 126.5 249.9 126.5 251.1C126.5 252.5 127.7 253.5 129.5 253.5C131.1 253.5 132.7 252.7 133.5 251.5C134.1 250.7 134.3 250.1 134.3 249.1V247.5Z" fill="#010F32"/>
<path d="M160.1 254.9C160.1 255.9 159.3 256.7 157.9 256.7C156.5 256.7 155.9 256.1 155.9 254.9V244.9C155.9 242.5 155.1 241.1 152.9 241.1C151.5 241.1 150.3 241.7 149.3 242.9C148.7 243.7 148.1 244.7 148.1 245.7V254.9C148.1 255.9 147.3 256.7 146.1 256.7C144.9 256.7 144.1 256.1 144.1 254.9V239.3C144.1 238.3 144.9 237.7 146.1 237.7C147.3 237.7 148.1 238.3 148.1 239.3V239.9C148.1 240.1 148.1 240.5 148.1 240.7C149.3 238.5 151.3 237.3 154.1 237.3C158.1 237.3 160.3 239.7 160.3 243.9L160.1 254.9Z" fill="#010F32"/>
<path d="M182.3 254.1C182.3 261.1 178.7 263.5 173.5 263.5C169.9 263.5 167.3 262.3 166.1 260.7C165.9 260.3 165.7 260.1 165.7 259.7C165.7 259.1 166.1 258.7 166.5 258.3C166.9 257.9 167.3 257.7 167.9 257.7C168.3 257.7 168.7 257.9 169.1 258.3C170.1 259.5 171.3 260.1 173.3 260.1C176.9 260.1 178.1 258.3 178.3 254.1C178.3 253.9 178.3 253.3 178.3 252.9C177.3 254.7 175.3 255.7 172.9 255.7C168.1 255.7 164.9 252.1 164.9 246.5C164.9 240.9 167.9 237.1 172.9 237.1C175.5 237.1 177.3 238.3 178.3 240.1C178.3 239.9 178.1 239.5 178.1 239.3V238.7C178.1 238.1 178.7 237.3 180.1 237.3C181.5 237.3 182.1 237.9 182.1 239.1L182.3 254.1ZM169.1 246.9C169.1 250.5 170.9 252.9 173.7 252.9C176.5 252.9 178.3 250.3 178.3 246.9C178.3 243.5 176.7 240.9 173.7 240.9C170.7 240.9 169.1 243.3 169.1 246.9Z" fill="#010F32"/>
<path d="M198.9 243.3C198.9 241.5 197.9 240.5 195.7 240.5C193.7 240.5 192.5 241.3 192.1 242.7C191.7 243.5 191.1 243.7 190.5 243.7C190.1 243.7 189.9 243.7 189.5 243.5C188.7 243.3 188.1 242.7 188.1 241.9C188.1 241.7 188.1 241.5 188.3 241.3C188.7 240.3 189.5 239.3 190.5 238.7C191.7 237.9 193.3 237.3 195.9 237.3C200.7 237.3 202.9 239.1 202.9 243.3V251.9C202.9 253.1 203.1 254.1 203.3 254.7C203.3 254.9 203.3 254.9 203.3 255.1C203.3 255.9 202.7 256.3 201.5 256.5H201.1C200.3 256.5 199.5 256.3 199.3 255.7C199.1 255.5 199.1 254.9 199.1 254.5C197.9 255.9 196.1 256.9 193.3 256.9C189.5 256.9 187.1 254.9 187.1 251.3C187.1 248.3 188.9 246.3 191.9 245.5C193.7 245.1 195.1 244.7 198.7 244.7L198.9 243.3ZM198.9 247.5C195.7 247.7 193.9 247.9 192.7 248.5C191.7 249.1 191.1 249.9 191.1 251.1C191.1 252.5 192.3 253.5 194.1 253.5C195.7 253.5 197.3 252.7 198.1 251.5C198.7 250.7 198.9 250.1 198.9 249.1V247.5Z" fill="#010F32"/>
<path d="M222.1 259.3V261.3H206.1V259.3H222.1Z" fill="#010F32"/>
<path d="M235.9 257.5C235.9 261.3 233.9 263.5 230.1 263.5C228.7 263.5 227.5 263.3 226.7 262.9C226.1 262.7 225.9 262.1 225.9 261.5C225.9 261.1 226.1 260.7 226.1 260.3C226.5 259.7 226.9 259.1 227.7 259.1C227.9 259.1 228.1 259.1 228.5 259.3C228.9 259.5 229.3 259.7 229.9 259.7C231.3 259.7 231.9 258.9 231.9 256.9V239.3C231.9 238.3 232.7 237.7 234.1 237.7C235.5 237.7 236.1 238.3 236.1 239.3L235.9 257.5ZM236.5 232.7C236.5 234.1 235.3 235.1 233.7 235.1C232.1 235.1 230.9 234.1 230.9 232.7C230.9 231.3 231.9 230.3 233.7 230.3C235.5 230.3 236.5 231.3 236.5 232.7Z" fill="#010F32"/>
<path d="M258.9 247.1C258.9 253.1 255.7 256.9 250.1 256.9C244.5 256.9 241.1 253.1 241.1 247.1C241.1 241.1 244.5 237.5 249.9 237.5C255.3 237.5 258.9 241.1 258.9 247.1ZM245.3 247.1C245.3 250.9 247.1 253.5 249.9 253.5C253.1 253.5 254.7 251.1 254.7 247.1C254.7 243.3 253.1 240.9 250.1 240.9C247.1 240.9 245.3 243.3 245.3 247.1Z" fill="#010F32"/>
<path d="M54.3 306.7C54.1 306.9 53.7 306.9 53.3 306.9C52.7 306.9 51.9 306.5 51.7 305.9C51.5 305.5 51.5 305.1 51.5 304.7C51.5 303.9 51.9 303.3 52.7 302.9C56.3 301.3 60.7 298.3 63.9 294.3C61.1 291.9 58.3 289.7 55.3 287.9C54.9 287.7 54.7 287.1 54.7 286.7C54.7 286.3 54.9 285.7 55.3 285.3C55.7 284.9 56.3 284.7 56.7 284.7C57.1 284.7 57.7 284.9 58.1 285.1C60.7 286.9 63.5 288.9 66.3 291.1C67.9 288.3 69.3 284.9 70.3 281.3C70.5 280.3 71.1 279.7 72.1 279.7C72.3 279.7 72.7 279.7 72.9 279.9C73.9 280.1 74.5 280.9 74.5 281.7C74.5 281.9 74.5 282.1 74.5 282.5C73.5 286.5 71.7 290.7 69.7 293.9C71.9 295.9 74.1 298.1 75.9 300.3C76.3 300.7 76.5 301.3 76.5 301.7C76.5 302.3 76.3 302.9 75.7 303.3C75.3 303.7 74.7 303.9 74.3 303.9C73.7 303.9 73.1 303.7 72.7 303.1C70.9 300.9 69.1 299.1 67.3 297.3C63.3 301.5 58.5 304.9 54.3 306.7Z" fill="#010F32"/>
<path d="M111.1 286.5C111.1 286.7 111.1 286.9 110.9 287.3C109.7 292.5 106.5 297.7 102.1 301.1C98.3001 304.1 92.1 305.9 87.3 306.1C86.1 306.1 85.3 305.5 85.3 304.3V304.1C85.3 303.1 85.9 302.1 87.1 302.1C91.5 301.9 96.9 300.1 99.9 297.7C103.3 294.9 105.9 290.5 107.1 286.3C107.5 285.1 108.1 284.7 108.9 284.7C109.1 284.7 109.5 284.7 109.7 284.9C110.5 284.9 110.9 285.5 111.1 286.5ZM95.5 287.7C95.9 288.1 96.1001 288.7 96.1001 289.1C96.1001 289.7 95.9 290.1 95.5 290.7C95.1 291.1 94.5 291.5 93.9 291.5C93.3 291.5 92.9 291.3 92.3 290.7C90.7 288.9 88.3 286.7 86.1 285.3C85.7 284.9 85.5 284.5 85.5 283.9C85.5 283.3 85.7 282.9 86.1 282.5C86.5 281.9 87.1 281.7 87.7 281.7C88.1 281.7 88.5 281.9 88.9 282.1C91.1 283.5 93.7 285.7 95.5 287.7Z" fill="#010F32"/>
<path d="M128.1 291.7C128.7 292.1 129.1 292.7 129.1 293.3C129.1 293.7 128.9 294.1 128.9 294.5C128.5 295.1 127.9 295.5 127.1 295.5C126.7 295.5 126.3 295.3 125.9 295.1C124.3 294.1 121.5 292.5 119.3 291.7C118.7 291.5 118.3 290.9 118.3 290.3C118.3 289.9 118.5 289.5 118.5 289.3C118.9 288.5 119.5 288.1 120.1 288.1C120.3 288.1 120.7 288.1 120.9 288.3C123.3 288.9 126.1 290.5 128.1 291.7ZM144.7 287.7C144.7 287.9 144.7 288.1 144.5 288.3C143.3 293.5 140.5 298.3 136.3 301.5C132.5 304.5 126.7 306.5 121.3 306.9H121.1C119.9 306.9 119.1 306.3 119.1 305.1C119.1 304.9 119.1 304.9 119.1 304.7C119.1 303.7 119.7 302.9 120.9 302.9C125.7 302.7 131.1 300.9 134.1 298.3C137.5 295.5 139.7 291.7 140.9 287.3C141.1 286.3 141.7 285.7 142.7 285.7C142.9 285.7 143.1 285.7 143.3 285.9C144.1 286.1 144.7 286.7 144.7 287.7ZM130.5 283.7C131.1 284.1 131.5 284.7 131.5 285.3C131.5 285.7 131.3 286.1 131.1 286.3C130.7 287.1 130.1 287.3 129.5 287.3C129.1 287.3 128.9 287.1 128.5 286.9C126.5 285.7 124.1 284.3 122.1 283.5C121.5 283.3 121.1 282.7 121.1 281.9C121.1 281.5 121.3 281.3 121.3 280.9C121.7 280.3 122.3 279.9 123.1 279.9C123.3 279.9 123.7 279.9 123.9 280.1C125.9 281.1 128.3 282.3 130.5 283.7Z" fill="#010F32"/>
<path d="M170.3 291.1C170.3 290.3 170.1 290.1 169.3 290.1H156.1C155.3 290.1 154.7 289.3 154.7 288.3C154.7 287.3 155.1 286.5 156.1 286.5H170.7C172.9 286.5 174.1 287.7 174.1 289.9V303.3C174.1 305.5 172.9 306.7 170.7 306.7H155.9C154.9 306.7 154.5 305.9 154.5 304.9C154.5 303.9 154.9 303.1 155.9 303.1H169.3C170.1 303.1 170.3 302.9 170.3 302.1V298.1H156.9C155.9 298.1 155.5 297.3 155.5 296.3C155.5 295.3 155.9 294.5 156.9 294.5H170.3V291.1Z" fill="#010F32"/>
<path d="M211.9 286.5C211.9 286.7 211.9 286.9 211.7 287.3C210.5 292.5 207.3 297.7 202.9 301.1C199.1 304.1 192.9 305.9 188.1 306.1C186.9 306.1 186.1 305.5 186.1 304.3V304.1C186.1 303.1 186.7 302.1 187.9 302.1C192.3 301.9 197.7 300.1 200.7 297.7C204.1 294.9 206.7 290.5 207.9 286.3C208.3 285.1 208.9 284.7 209.7 284.7C209.9 284.7 210.3 284.7 210.5 284.9C211.3 284.9 211.9 285.5 211.9 286.5ZM196.3 287.7C196.7 288.1 196.9 288.7 196.9 289.1C196.9 289.7 196.7 290.1 196.3 290.7C195.9 291.1 195.3 291.5 194.7 291.5C194.1 291.5 193.7 291.3 193.1 290.7C191.5 288.9 188.9 286.7 186.9 285.3C186.5 284.9 186.3 284.5 186.3 283.9C186.3 283.3 186.5 282.9 186.9 282.5C187.3 281.9 187.9 281.7 188.5 281.7C188.9 281.7 189.3 281.9 189.7 282.1C191.9 283.5 194.7 285.7 196.3 287.7Z" fill="#010F32"/>
<path d="M234.9 301.1C234.9 304.7 233.5 307.3 227.7 307.3C222.9 307.3 219.9 305.1 219.9 301.7C219.9 298.3 222.9 295.9 228.3 295.9C229.3 295.9 230.1 296.1 231.1 296.1C230.9 294.9 230.9 293.9 230.9 292.7C229.7 292.7 228.5 292.7 227.5 292.7C225.3 292.7 223.5 292.7 221.5 292.5C220.5 292.3 219.9 291.7 219.9 290.7V290.5C220.1 289.5 220.5 288.9 221.5 288.9H221.7C223.7 289.1 225.3 289.1 227.5 289.1C228.1 289.1 228.7 289.1 229.1 289.1C229.7 289.1 230.3 289.1 230.9 289.1C230.9 288.1 230.9 287.1 230.7 285.9H227.7C224.9 285.9 222.5 285.9 220.9 285.7C219.9 285.7 219.3 284.9 219.3 283.9V283.7C219.5 282.7 219.9 282.1 220.9 282.1H221.1C222.7 282.3 225.1 282.3 227.5 282.3C228.5 282.3 229.5 282.3 230.5 282.3V280.5C230.5 279.5 231.1 278.9 232.3 278.9C233.5 278.9 234.1 279.3 234.1 280.7V282.7C237.1 282.5 239.9 282.5 242.5 282.1C242.7 282.1 242.9 282.1 242.9 282.1C243.9 282.1 244.3 282.7 244.5 283.5C244.5 283.7 244.5 283.7 244.5 283.9C244.5 284.7 244.1 285.5 243.1 285.5C240.1 285.9 237.3 286.1 234.3 286.3C234.3 287.3 234.3 288.3 234.5 289.5C237.3 289.3 239.7 289.1 242.3 288.7C242.5 288.7 242.5 288.7 242.7 288.7C243.7 288.7 244.1 289.3 244.3 290.3C244.3 290.5 244.3 290.5 244.3 290.7C244.3 291.7 243.7 292.1 242.7 292.3C240.1 292.7 237.5 292.9 234.5 293.1C234.7 294.5 234.7 295.9 234.9 297.3C235.7 297.5 236.5 297.7 237.1 298.1C239.7 299.1 242.5 300.7 244.5 302.5C245.1 302.9 245.3 303.5 245.3 304.1C245.3 304.5 245.1 304.9 244.9 305.3C244.5 305.9 243.9 306.1 243.3 306.1C242.9 306.1 242.3 305.9 241.9 305.5C240.3 303.9 238.3 302.7 236.5 301.7C236.1 301.5 235.7 301.3 234.9 301.1ZM227.9 299.1C224.9 299.1 223.5 300.1 223.5 301.5C223.5 302.9 224.9 303.7 227.3 303.7C230.1 303.7 231.1 302.9 231.1 300.5C231.1 300.1 231.1 299.9 231.1 299.5C230.3 299.5 229.1 299.1 227.9 299.1Z" fill="#010F32"/>
<path d="M255.7 305.7C255.3 306.5 254.7 306.9 253.9 306.9C253.5 306.9 253.1 306.7 252.9 306.7C252.3 306.3 251.9 305.7 251.9 305.1C251.9 304.7 252.1 304.3 252.1 304.1C254.3 299.5 256.3 293.7 257.9 288.3C256.7 288.3 255.1 288.5 253.9 288.5H253.1C252.1 288.5 251.5 287.9 251.5 286.7V286.5C251.5 285.5 252.1 284.7 253.1 284.7C254.7 284.7 256.7 284.7 258.5 284.5C258.7 283.3 259.1 281.9 259.3 280.7C259.5 279.7 260.1 279.3 261.1 279.3C261.3 279.3 261.3 279.3 261.5 279.3C262.5 279.5 263.1 280.1 263.1 280.9C263.1 281.1 263.1 281.1 263.1 281.1C262.9 282.1 262.7 283.1 262.5 284.3C264.3 284.1 265.9 283.9 267.5 283.7C267.7 283.7 267.7 283.7 267.9 283.7C268.7 283.7 269.3 284.1 269.5 285.1C269.5 285.3 269.5 285.5 269.5 285.5C269.5 286.3 268.9 286.9 268.3 287.1C266.3 287.5 263.9 287.7 261.5 287.9C260.3 293.9 258.1 300.5 255.7 305.7ZM266.9 297.9C266.9 298.1 266.7 298.5 266.7 298.7C266.1 299.5 265.9 300.1 265.9 300.9C265.9 301.9 266.3 302.5 267.3 302.9C268.3 303.3 269.5 303.5 271.1 303.5C273.3 303.5 275.7 303.3 277.5 302.9C277.7 302.9 277.9 302.9 278.1 302.9C279.1 302.9 279.7 303.5 279.9 304.3C279.9 304.5 279.9 304.7 279.9 304.7C279.9 305.5 279.5 306.3 278.3 306.5C276.5 306.9 274.1 307.1 271.5 307.1C269.3 307.1 267.1 306.7 265.7 306.1C263.5 305.1 262.5 303.5 262.5 301.3C262.5 299.9 263.1 298.1 264.3 296.9C264.7 296.5 265.1 296.3 265.7 296.3C266.1 296.3 266.3 296.5 266.7 296.5C266.5 296.9 266.9 297.3 266.9 297.9ZM276.5 288.5C277.5 288.5 278.3 289.3 278.3 290.5C278.3 291.7 277.7 292.3 276.7 292.3H276.5C275.7 292.3 274.7 292.3 273.7 292.3C271.5 292.3 268.7 292.5 266.7 292.9C266.5 292.9 266.5 292.9 266.3 292.9C265.3 292.9 264.7 292.3 264.5 291.1C264.5 290.9 264.5 290.9 264.5 290.7C264.5 289.9 264.9 289.1 265.9 288.9C268.3 288.5 271.3 288.3 273.7 288.1C274.7 288.3 275.7 288.3 276.5 288.5Z" fill="#010F32"/>
<path d="M291.9 281.3C291.9 281.5 291.9 281.7 291.9 281.9C291.1 285.9 290.3 291.3 290.3 295.3C290.3 298.3 290.7 301.9 291.1 304.9C291.1 305.1 291.1 305.3 291.1 305.5C291.1 306.5 290.5 307.1 289.5 307.3C289.3 307.3 289.1 307.3 288.9 307.3C287.9 307.3 287.3 306.7 287.1 305.7C286.5 302.9 286.1 299.3 286.1 295.5C286.1 291.1 286.9 285.1 287.9 281.1C288.1 280.1 288.7 279.7 289.7 279.7C289.9 279.7 290.1 279.7 290.3 279.7C291.3 279.9 291.9 280.5 291.9 281.3ZM307.7 301.7C307.7 304.7 305.9 306.9 300.9 306.9C296.9 306.9 293.9 304.9 293.9 301.3C293.9 298.1 296.5 295.9 300.5 295.9C301.7 295.9 302.9 296.1 303.9 296.3C303.9 295.5 303.7 294.3 303.7 293.3C303.5 292.1 303.5 290.7 303.5 289.3C301.9 289.3 300.3 289.5 298.5 289.5C297.5 289.5 296.3 289.5 295.3 289.5C294.3 289.5 293.7 288.7 293.7 287.7C293.7 286.7 294.3 285.9 295.3 285.9C296.3 285.9 297.3 285.9 298.3 285.9C299.9 285.9 301.5 285.9 303.3 285.7C303.3 284.3 303.3 282.7 303.3 281.3C303.3 280.1 303.9 279.5 305.1 279.5C306.3 279.5 307.1 280.1 306.9 281.1V285.3C308.3 285.1 309.7 285.1 310.9 284.9C311.1 284.9 311.1 284.9 311.3 284.9C312.1 284.9 312.7 285.5 312.9 286.3C312.9 286.5 312.9 286.5 312.9 286.7C312.9 287.7 312.5 288.3 311.5 288.5C310.1 288.7 308.5 288.9 306.9 289.1C306.9 290.7 307.1 292.1 307.1 293.5C307.3 294.7 307.3 296.1 307.5 297.5C309.3 298.3 311.5 299.9 312.9 301.3C313.3 301.7 313.5 302.1 313.5 302.7C313.5 303.1 313.3 303.7 312.9 304.1C312.5 304.5 312.1 304.7 311.5 304.7C311.1 304.7 310.7 304.5 310.3 304.3C309.7 302.9 308.7 302.1 307.7 301.7ZM300.7 299.1C298.9 299.1 297.5 299.9 297.5 301.3C297.5 302.7 298.7 303.5 300.7 303.5C303.1 303.5 304.1 302.5 304.1 300.5C304.1 300.1 304.1 299.9 304.1 299.5C303.3 299.3 301.9 299.1 300.7 299.1Z" fill="#010F32"/>
<path d="M329.7 286.3C328.1 289.1 325.3 291.9 322.5 293.9C322.1 294.1 321.7 294.3 321.3 294.3C320.7 294.3 320.1 294.1 319.7 293.5C319.5 293.1 319.3 292.7 319.3 292.3C319.3 291.7 319.5 291.1 320.1 290.7C321.7 289.5 323.5 287.9 324.7 286.3C326.1 284.5 327.1 282.7 328.1 280.3C328.5 279.5 329.1 279.1 329.9 279.1C330.1 279.1 330.3 279.1 330.5 279.1C331.5 279.3 332.1 279.9 332.1 280.7C332.1 280.9 332.1 280.9 332.1 281.1C331.9 281.7 331.7 282.3 331.3 282.9L340.3 282.7H340.5C343.3 282.7 344.7 284.1 344.7 286.5C344.7 286.9 344.7 287.3 344.5 287.7C343.7 291.9 341.9 295.9 339.1 299.3C335.9 303.1 331.3 306.3 325.3 307.9C325.1 307.9 324.9 308.1 324.5 308.1C323.7 308.1 323.1 307.7 322.7 306.9C322.5 306.7 322.5 306.3 322.5 306.1C322.5 305.3 322.9 304.5 323.9 304.3C328.1 303.1 331.3 301.3 334.1 298.7C331.9 296.7 329.9 295.1 327.9 293.9C327.5 293.7 327.3 293.1 327.3 292.7C327.3 292.3 327.5 291.9 327.9 291.5C328.3 291.1 328.9 290.7 329.3 290.7C329.7 290.7 330.1 290.9 330.3 291.1C331.9 292.1 334.5 293.9 336.7 295.9C338.5 293.7 339.5 290.9 340.1 287.9C340.1 287.7 340.3 287.5 340.3 287.3C340.3 286.7 340.1 286.5 339.3 286.5H339.5L329.7 286.3Z" fill="#010F32"/>
<path d="M373.7 283.5C374.7 283.5 375.5 283.7 376.1 284.1L375.9 283.9C375.3 282.9 374.5 281.9 373.9 280.9C373.7 280.7 373.7 280.5 373.7 280.1C373.7 279.7 373.9 279.3 374.3 279.1C374.5 278.9 374.9 278.9 375.1 278.9C375.5 278.9 375.9 279.1 376.1 279.5C376.9 280.3 377.7 281.7 378.1 282.5C378.3 282.7 378.3 282.9 378.3 283.3C378.3 283.7 378.1 284.1 377.5 284.5C377.3 284.7 377.1 284.7 376.9 284.7C376.7 284.7 376.5 284.7 376.3 284.5C376.9 285.1 377.3 286.1 377.3 287.3C377.3 287.7 377.3 288.1 377.1 288.7C375.3 297.9 368.9 305.1 357.9 307.7C357.7 307.7 357.5 307.7 357.3 307.7C356.5 307.7 355.7 307.3 355.5 306.3C355.5 306.1 355.3 305.9 355.3 305.5C355.3 304.7 355.9 303.9 356.9 303.7C365.7 301.5 370.9 296.1 372.7 288.3C372.7 288.1 372.7 287.9 372.7 287.7C372.7 287.1 372.3 286.9 371.5 286.9L362.3 287.1C360.5 289.9 358.1 292.5 355.3 294.3C354.9 294.5 354.5 294.7 354.1 294.7C353.5 294.7 352.9 294.3 352.5 293.9C352.3 293.5 352.1 293.1 352.1 292.7C352.1 292.1 352.3 291.5 352.9 290.9C354.3 289.9 355.9 288.7 357.1 287.1C358.5 285.3 359.9 282.9 360.9 280.5C361.3 279.7 361.7 279.1 362.7 279.1C362.9 279.1 363.1 279.1 363.5 279.3C364.5 279.5 365.1 280.1 365.1 280.9C365.1 281.1 365.1 281.3 364.9 281.5C364.7 281.9 364.5 282.7 364.1 283.3L373.7 283.5ZM379.1 277.7C379.5 277.7 379.9 277.9 380.3 278.3C380.9 279.1 381.7 280.3 382.1 281.1C382.3 281.3 382.3 281.5 382.3 281.9C382.3 282.5 382.1 282.7 381.7 283.1C381.5 283.3 381.3 283.3 380.9 283.3C380.5 283.3 380.1 283.1 379.7 282.5C379.3 281.7 378.5 280.5 377.9 279.7C377.7 279.5 377.7 279.3 377.7 279.1C377.7 278.7 377.9 278.3 378.5 278.1C378.5 277.7 378.7 277.7 379.1 277.7Z" fill="#010F32"/>
<path d="M389.3 295.5C389.3 294.3 389.3 293.1 389.5 291.7C389.1 292.3 388.5 292.9 388.1 293.5C387.7 293.9 387.3 294.1 386.7 294.1C386.3 294.1 385.9 293.9 385.5 293.7C385.1 293.3 384.9 292.9 384.9 292.3C384.9 291.9 385.1 291.5 385.3 291.1C388.1 288.1 390.5 283.5 391.7 279.5C391.9 278.7 392.5 278.3 393.3 278.3C393.5 278.3 393.7 278.3 393.9 278.5C394.7 278.7 395.3 279.3 395.3 279.9C395.3 280.1 395.3 280.3 395.1 280.5C394.5 282.3 393.5 284.3 392.7 286.3V307.1C392.7 307.9 392.1 308.3 390.9 308.3C389.9 308.3 389.1 307.9 389.1 307.1L389.3 295.5ZM395.7 288.7C394.9 288.7 394.5 288.1 394.5 287.1C394.5 286.1 394.9 285.5 395.7 285.5H407.1V279.9C407.1 279.1 407.9 278.7 408.9 278.7C409.9 278.7 410.7 279.1 410.7 279.9V285.5H413.5C414.3 285.5 414.7 286.1 414.7 287.1C414.7 288.1 414.3 288.7 413.5 288.7H410.7V304.3C410.7 306.9 409.3 307.9 406.1 307.9C404.9 307.9 403.5 307.7 402.5 307.5C401.9 307.3 401.3 306.9 401.3 306.1C401.3 305.9 401.3 305.7 401.3 305.7C401.5 304.7 402.1 304.3 402.7 304.3C402.9 304.3 402.9 304.3 402.9 304.3C403.7 304.5 404.7 304.7 405.5 304.7C406.5 304.7 406.9 304.5 406.9 303.3V288.7H395.7ZM398.3 291.1C398.9 291.1 399.3 291.3 399.7 291.7C401.1 293.7 402.5 295.7 403.3 297.5C403.5 297.9 403.5 298.3 403.5 298.5C403.5 299.1 403.1 299.7 402.5 299.9C402.1 300.1 401.7 300.3 401.5 300.3C400.9 300.3 400.3 299.9 400.1 299.3C399.1 297.5 398.1 295.5 396.9 293.7C396.7 293.3 396.5 293.1 396.5 292.7C396.5 292.1 396.9 291.7 397.5 291.3C397.7 291.3 398.1 291.3 398.3 291.1Z" fill="#010F32"/>
<path d="M426.7 281.5C426.7 281.7 426.7 281.9 426.7 282.1C425.9 286.3 425.3 290.7 425.3 294.3C425.3 297.5 425.7 301.3 426.3 304.3C426.3 304.5 426.5 304.7 426.5 305.1C426.5 305.9 426.1 306.5 425.1 306.7C424.9 306.7 424.7 306.9 424.5 306.9C423.7 306.9 422.9 306.5 422.7 305.5C421.9 302.3 421.5 298.1 421.5 294.3C421.5 290.5 422.1 286.3 422.9 281.5C423.1 280.5 423.9 279.9 424.9 279.9C425.1 279.9 425.1 279.9 425.3 279.9C426.1 279.9 426.7 280.5 426.7 281.5ZM442.9 292.9C442.9 297.3 442.1 300.5 440.9 302.7C439.5 305.1 437.3 306.9 434.7 307.7C434.3 307.9 434.1 307.9 433.7 307.9C432.9 307.9 432.3 307.5 431.9 306.7C431.7 306.3 431.7 306.1 431.7 305.7C431.7 304.9 432.1 304.3 432.9 304.1C434.9 303.3 436.7 302.3 437.7 300.5C438.7 298.9 439.3 296.3 439.3 292.3C439.3 291.5 439.3 290.9 439.3 290.1C437.9 290.3 436.5 290.3 435.1 290.3C433.5 290.3 431.9 290.3 430.5 290.3C429.5 290.3 428.9 289.5 428.9 288.5C428.9 287.5 429.5 286.7 430.5 286.7C431.7 286.7 433.3 286.9 434.7 286.9C436.3 286.9 437.7 286.9 439.1 286.7C439.1 284.7 438.9 282.7 438.9 281.3V281.1C438.9 280.1 439.5 279.5 440.7 279.5H440.9C441.9 279.5 442.5 280.1 442.7 281.1C442.9 282.5 442.9 284.5 442.9 286.5C444.1 286.3 445.1 286.3 446.1 286.1C446.3 286.1 446.3 286.1 446.5 286.1C447.5 286.1 447.9 286.7 448.1 287.7C448.1 287.9 448.1 287.9 448.1 288.1C448.1 288.9 447.5 289.5 446.7 289.7C445.7 289.9 444.5 290.1 443.1 290.3C442.9 290.9 442.9 291.7 442.9 292.9Z" fill="#010F32"/>
<path d="M16.1 260.7C24.8261 260.7 31.9001 253.626 31.9001 244.9C31.9001 236.173 24.8261 229.1 16.1 229.1C7.37395 229.1 0.300049 236.173 0.300049 244.9C0.300049 253.626 7.37395 260.7 16.1 260.7Z" fill="#010F32"/>
<path d="M21.6999 251.1C22.4999 251.1 22.8999 251.7 22.8999 252.5C22.8999 253.3 22.4999 254.1 21.6999 254.1H10.4999C9.4999 254.1 8.8999 253.5 8.8999 252.3C8.8999 251.5 9.4999 250.1 9.8999 249.5C10.6999 248.1 11.8999 246.7 14.2999 245.1L15.6999 244.1C17.8999 242.5 19.2999 241.7 19.2999 239.9C19.2999 238.3 18.0999 237.3 16.0999 237.3C13.6999 237.3 12.8999 238.7 12.4999 240.1C12.2999 240.9 11.6999 241.1 11.0999 241.1C10.8999 241.1 10.6999 241.1 10.4999 241.1C9.6999 240.9 9.0999 240.5 9.0999 239.7C9.0999 239.5 9.0999 239.3 9.0999 239.3C9.2999 238.3 9.8999 237.3 10.6999 236.5C11.8999 235.3 13.4999 234.5 16.0999 234.5C20.0999 234.5 22.4999 236.5 22.4999 239.9C22.4999 242.9 20.6999 244.3 18.2999 245.7L16.8999 246.5C14.4999 248.1 13.0999 249.3 12.4999 251.1H21.6999Z" fill="white"/>
</svg>
