<svg width="632" height="94" viewBox="0 0 632 94" fill="none" xmlns="http://www.w3.org/2000/svg">
<g clip-path="url(#clip0_420_1832)">
<path d="M195 31.6408C194.56 31.2408 194.34 30.7208 194.32 30.1208C194.3 29.5208 194.48 29.0008 194.9 28.5808C195.88 27.6008 196.8 26.4208 197.64 25.0408C198.48 23.6608 199.22 22.2208 199.84 20.7008C197.88 20.2008 195.98 19.8408 194.18 19.6208C193.3 21.5008 192.28 23.0608 191.16 24.3008C190.04 25.5408 188.84 26.4208 187.56 26.9008C186.36 27.3808 185.18 27.5408 184.04 27.3808C182.88 27.2208 181.94 26.7608 181.18 26.0008C180.42 25.2408 180.04 24.1608 180.04 22.7608C180.04 21.4408 180.44 20.2408 181.22 19.1608C182.02 18.0808 183.24 17.2208 184.92 16.5408C186.58 15.8808 188.74 15.5608 191.38 15.5608C191.88 14.1408 192.36 12.5208 192.78 10.6608C193.12 9.26083 193.06 8.34084 192.6 7.86084C192.14 7.40084 191.26 7.24084 189.94 7.40084C189.48 7.48084 188.9 7.56083 188.18 7.66083C187.46 7.76083 186.9 7.82084 186.48 7.88084C185.88 7.90084 185.36 7.72084 184.9 7.34084C184.44 6.96084 184.2 6.46084 184.14 5.86084C184.12 5.26084 184.3 4.74084 184.68 4.30084C185.06 3.86084 185.56 3.60084 186.16 3.56084C186.66 3.52084 187.28 3.46084 188.04 3.38084C188.78 3.30084 189.4 3.26084 189.88 3.24084C192.9 3.04084 194.98 3.58084 196.12 4.82084C197.26 6.06084 197.56 8.14084 197 11.0208C196.84 11.8808 196.64 12.7208 196.42 13.5208C196.2 14.3208 195.98 15.1008 195.74 15.8408C196.6 15.9408 197.5 16.0808 198.4 16.2608C199.32 16.4408 200.22 16.6408 201.1 16.8608C201.3 16.0408 201.44 15.2408 201.56 14.4608C201.68 13.6808 201.76 12.9208 201.78 12.2208C201.8 11.6208 202.02 11.1208 202.42 10.6808C202.82 10.2608 203.32 10.0408 203.92 10.0208C204.52 10.0208 205.04 10.2408 205.46 10.6608C205.88 11.0808 206.08 11.5808 206.06 12.1808C206.04 13.1208 205.94 14.0808 205.8 15.0408C205.66 16.0008 205.44 17.0008 205.16 17.9808C205.9 18.2208 206.64 18.4608 207.34 18.7208C208.04 18.9808 208.74 19.2408 209.42 19.5008C209.98 19.7408 210.36 20.1408 210.58 20.6808C210.8 21.2408 210.8 21.7808 210.58 22.3408C210.36 22.8608 209.98 23.2608 209.42 23.5008C208.86 23.7408 208.32 23.7408 207.76 23.5008C207.14 23.2208 206.5 22.9408 205.86 22.6808C205.22 22.4208 204.56 22.1808 203.92 21.9408C203.18 23.8608 202.3 25.6608 201.32 27.3408C200.32 29.0208 199.26 30.4208 198.14 31.5608C197.72 31.9608 197.24 32.1808 196.64 32.2008C196.06 32.2208 195.52 32.0408 195.08 31.6608L195 31.6408ZM186.04 23.1008C186.62 22.8608 187.2 22.4608 187.8 21.8808C188.4 21.3008 188.98 20.5208 189.56 19.5008C187.66 19.6608 186.32 20.0208 185.5 20.5808C184.7 21.1408 184.28 21.7408 184.26 22.4208C184.26 22.8008 184.42 23.0808 184.7 23.2208C185 23.3808 185.44 23.3408 186.02 23.1008H186.04Z" fill="#010F32"/>
<path d="M218.24 31.3405C217.72 31.1205 217.34 30.7205 217.12 30.1605C216.9 29.5805 216.92 29.0405 217.16 28.5005C217.56 27.6205 218.08 26.5005 218.72 25.1605C219.36 23.8205 220.06 22.3605 220.8 20.7605C221.54 19.1605 222.32 17.5605 223.12 15.9005C223.92 14.2405 224.7 12.6405 225.46 11.0805C226.22 9.52055 226.94 8.10055 227.58 6.82055C228.22 5.54055 228.76 4.48055 229.2 3.66055C229.46 3.14055 229.88 2.80055 230.48 2.64055C231.08 2.48055 231.62 2.56055 232.12 2.88055C232.64 3.20055 232.98 3.64055 233.14 4.20055C233.3 4.76055 233.22 5.32055 232.9 5.84055C232.56 6.44055 232.12 7.26055 231.58 8.28055C231.04 9.32055 230.44 10.4805 229.78 11.7805C229.12 13.0805 228.44 14.4405 227.74 15.8405C228.58 15.4805 229.44 15.3005 230.3 15.3005C232.58 15.3005 234.14 16.0205 235 17.4605C235.86 18.9005 235.92 20.8605 235.24 23.3605C234.88 24.6605 234.84 25.5405 235.16 26.0205C235.46 26.5005 236.02 26.7405 236.84 26.7405C237.4 26.7405 237.92 26.6205 238.42 26.3605C238.92 26.1005 239.44 25.6005 239.96 24.8205C240.48 24.0605 241.04 22.9205 241.62 21.4405C241.84 20.8805 242.22 20.5005 242.78 20.2605C243.34 20.0205 243.88 20.0005 244.44 20.1805C245 20.4005 245.4 20.7805 245.64 21.3405C245.88 21.9005 245.9 22.4605 245.7 23.0405C244.74 25.7205 243.54 27.7205 242.12 29.0405C240.7 30.3405 238.88 31.0005 236.66 31.0005C235.14 31.0005 233.88 30.6805 232.84 30.0605C231.8 29.4405 231.12 28.5005 230.78 27.2405C230.44 25.9805 230.54 24.4005 231.06 22.5005C231.4 21.3405 231.44 20.5405 231.16 20.0805C230.88 19.6205 230.34 19.3805 229.5 19.3805C228.42 19.3805 227.42 19.7205 226.48 20.3805C225.54 21.0605 224.64 22.3205 223.74 24.1605C223.64 24.3605 223.48 24.7405 223.22 25.3005C222.96 25.8605 222.7 26.4805 222.4 27.1605C222.12 27.8405 221.84 28.4405 221.6 28.9805C221.36 29.5205 221.18 29.8805 221.12 30.0805C220.88 30.6405 220.48 31.0405 219.96 31.3205C219.42 31.6005 218.84 31.6205 218.22 31.3805L218.24 31.3405Z" fill="#010F32"/>
<path d="M256.66 23.1806C256.2 23.5606 255.68 23.7606 255.1 23.7606C254.52 23.7606 254.02 23.5606 253.6 23.1406C253.16 22.7006 252.96 22.1806 252.96 21.5806C252.96 20.9806 253.18 20.4806 253.64 20.0806C255 18.8606 256.22 17.4606 257.26 15.9006C258.3 14.3406 259.16 12.7206 259.84 11.0406C259.2 11.1406 258.56 11.2006 257.94 11.2606C257.32 11.3206 256.74 11.3606 256.2 11.4006C255.58 11.4206 255.04 11.2406 254.62 10.8606C254.18 10.4806 253.96 9.94059 253.94 9.28059C253.92 8.68059 254.1 8.18059 254.48 7.78059C254.86 7.38059 255.4 7.18059 256.06 7.16059C256.82 7.12059 257.64 7.04059 258.5 6.94059C259.36 6.84059 260.2 6.74059 261.08 6.62059C261.2 6.06059 261.28 5.50059 261.32 4.92059C261.36 4.34059 261.38 3.80059 261.38 3.26059C261.38 2.66059 261.58 2.14059 262 1.72059C262.42 1.30059 262.92 1.10059 263.52 1.10059C264.12 1.10059 264.64 1.30059 265.06 1.72059C265.48 2.14059 265.7 2.66059 265.68 3.26059C265.66 4.08059 265.58 4.92059 265.46 5.82059C265.62 5.78059 265.8 5.74059 265.94 5.70059C266.1 5.66059 266.24 5.64059 266.38 5.62059C266.98 5.48059 267.54 5.54059 268.04 5.84059C268.54 6.14059 268.86 6.58059 268.98 7.20059C269.1 7.80059 268.98 8.34059 268.68 8.82059C268.36 9.30059 267.9 9.62059 267.34 9.76059C266.96 9.86059 266.52 9.96059 266.02 10.0406C265.52 10.1406 265.02 10.2406 264.5 10.3206C263.76 12.8406 262.72 15.2206 261.38 17.4406C260.04 19.6806 258.5 21.5806 256.72 23.1606L256.66 23.1806ZM266.24 33.1606C264.42 33.1606 262.9 32.7006 261.72 31.7806C260.54 30.8606 259.94 29.5006 259.94 27.7006C259.94 26.0606 260.52 24.7606 261.68 23.8006C262.84 22.8406 264.38 22.3406 266.3 22.3406C267.02 22.3406 267.72 22.3806 268.38 22.4406V15.6406C268.38 15.0206 268.58 14.5006 269 14.1006C269.4 13.7006 269.92 13.4806 270.52 13.4806C271.12 13.4806 271.62 13.6806 272.04 14.1006C272.44 14.5006 272.66 15.0206 272.66 15.6406V23.4206C273.96 23.8206 275.18 24.3206 276.34 24.9206C277.5 25.5206 278.52 26.1206 279.42 26.7406C279.9 27.1006 280.18 27.5806 280.28 28.1606C280.38 28.7406 280.24 29.2806 279.88 29.7606C279.54 30.2406 279.08 30.5206 278.5 30.6206C277.92 30.7206 277.38 30.6006 276.9 30.2606C276.32 29.8006 275.66 29.3606 274.94 28.9406C274.22 28.5206 273.44 28.1206 272.66 27.7606C272.52 29.5206 271.9 30.8406 270.82 31.7806C269.74 32.7006 268.22 33.1606 266.24 33.1606ZM266.2 29.2006C267 29.2006 267.56 29.0206 267.9 28.6606C268.24 28.3006 268.4 27.7406 268.4 27.0006V26.3806C268.02 26.2806 267.64 26.2206 267.26 26.1806C266.88 26.1406 266.54 26.1206 266.2 26.1206C265.46 26.1206 264.92 26.2606 264.56 26.5406C264.22 26.8206 264.04 27.2006 264.04 27.6806C264.04 28.1606 264.2 28.5006 264.54 28.7806C264.88 29.0606 265.42 29.2006 266.2 29.2006ZM277.44 13.6406C276.68 13.1606 275.76 12.6606 274.72 12.1606C273.68 11.6606 272.76 11.2806 271.96 11.0406C271.4 10.8406 270.98 10.5206 270.66 10.0406C270.34 9.56059 270.26 9.04059 270.4 8.46059C270.52 7.88059 270.84 7.44059 271.36 7.12059C271.88 6.80059 272.42 6.74059 273 6.90059C273.72 7.10059 274.52 7.36059 275.38 7.72059C276.24 8.08059 277.08 8.46059 277.88 8.88059C278.68 9.28059 279.36 9.68059 279.88 10.0406C280.36 10.3606 280.66 10.8006 280.76 11.4006C280.86 12.0006 280.76 12.5606 280.42 13.0606C280.1 13.5406 279.66 13.8406 279.08 13.9406C278.5 14.0406 277.94 13.9406 277.44 13.6406Z" fill="#010F32"/>
<path d="M312.5 31.9208C309.66 31.5208 307.32 30.7008 305.48 29.4608C303.64 28.2208 302.26 26.7408 301.36 24.9808C300.46 23.2208 300.02 21.4008 300.02 19.5008C300.02 17.6008 300.4 15.7808 301.14 14.1208C301.88 12.4608 302.96 11.0008 304.38 9.78081C302.94 10.0008 301.4 10.2408 299.78 10.5208C298.14 10.8008 296.56 11.0808 295.04 11.3408C293.52 11.6208 292.18 11.8608 291.02 12.0808C290.42 12.1808 289.88 12.0408 289.42 11.6808C288.96 11.3208 288.66 10.8608 288.58 10.2808C288.48 9.68081 288.6 9.14081 288.96 8.68081C289.32 8.22081 289.78 7.92081 290.38 7.84081C291.14 7.72081 292.14 7.56081 293.34 7.36081C294.54 7.16081 295.88 6.94081 297.38 6.70081C298.86 6.46081 300.4 6.20081 301.96 5.94081C303.52 5.68081 305.04 5.42081 306.54 5.16081C308.04 4.90081 309.42 4.68081 310.66 4.46081C311.9 4.24081 312.92 4.06081 313.72 3.92081C314.28 3.82081 314.8 3.94081 315.28 4.28081C315.78 4.62081 316.06 5.06081 316.16 5.62081C316.28 6.20081 316.18 6.74081 315.9 7.24081C315.6 7.74081 315.16 8.04081 314.58 8.14081C312.9 8.40081 311.42 8.92081 310.16 9.66081C308.9 10.4008 307.82 11.3208 306.94 12.4008C306.06 13.4608 305.4 14.6008 304.96 15.7808C304.52 16.9608 304.3 18.1408 304.3 19.2808C304.3 21.6008 305.1 23.4808 306.68 24.9208C308.26 26.3608 310.42 27.2608 313.16 27.6408C313.74 27.7408 314.2 28.0208 314.56 28.5008C314.92 28.9808 315.06 29.5008 314.96 30.0808C314.88 30.6808 314.62 31.1608 314.14 31.5208C313.66 31.8808 313.14 32.0208 312.56 31.9208H312.5ZM317.08 17.2008C316.76 17.4608 316.4 17.5808 315.94 17.5208C315.5 17.4808 315.14 17.2608 314.88 16.9008C314.62 16.5608 314.28 16.1408 313.88 15.6208C313.48 15.1008 313.1 14.6608 312.76 14.2608C312.54 14.0008 312.44 13.6808 312.46 13.3008C312.46 12.9208 312.64 12.6208 312.94 12.3408C313.22 12.0808 313.56 11.9608 313.94 11.9608C314.32 11.9608 314.66 12.1208 314.96 12.3808C315.32 12.7008 315.74 13.1008 316.2 13.6008C316.66 14.1008 317.06 14.5608 317.36 14.9608C317.62 15.3008 317.72 15.6808 317.66 16.1208C317.6 16.5608 317.4 16.9008 317.06 17.1608L317.08 17.2008ZM320.54 14.1008C320.22 14.4208 319.86 14.5608 319.4 14.5408C318.96 14.5208 318.6 14.3408 318.3 14.0008C318.02 13.6608 317.64 13.2608 317.2 12.7808C316.76 12.3008 316.36 11.8808 316 11.5208C315.76 11.2808 315.64 10.9608 315.62 10.5808C315.62 10.2008 315.74 9.86081 316.04 9.58081C316.3 9.32081 316.62 9.18081 317.02 9.16081C317.4 9.16081 317.76 9.26081 318.06 9.50081C318.44 9.76081 318.88 10.1208 319.4 10.6008C319.9 11.0608 320.32 11.5008 320.66 11.9208C320.94 12.2408 321.08 12.6008 321.06 13.0208C321.04 13.4408 320.86 13.8008 320.56 14.1208L320.54 14.1008Z" fill="#010F32"/>
<path d="M330.14 33.9008C329.56 33.9008 329.08 33.7008 328.66 33.3208C328.24 32.9408 328.04 32.4408 328.04 31.8008V14.7808C327.66 15.3008 327.28 15.8208 326.9 16.3008C326.52 16.7808 326.16 17.2208 325.8 17.6408C325.42 18.1008 324.92 18.3408 324.32 18.4008C323.72 18.4408 323.2 18.2808 322.74 17.9008C322.36 17.5608 322.14 17.1208 322.1 16.5808C322.06 16.0408 322.22 15.5608 322.56 15.1608C323.2 14.3608 323.92 13.4208 324.7 12.3208C325.48 11.2208 326.24 10.0408 327 8.82075C327.76 7.60075 328.44 6.38075 329.08 5.22075C329.7 4.06075 330.2 3.04075 330.56 2.14075C330.8 1.58075 331.2 1.22075 331.74 1.02075C332.3 0.820752 332.84 0.860752 333.36 1.10075C333.92 1.34075 334.28 1.72075 334.44 2.22075C334.6 2.72075 334.58 3.24075 334.36 3.76075C334.04 4.44075 333.72 5.14075 333.36 5.86075C333 6.58075 332.62 7.34075 332.2 8.10075V15.1208C332.2 15.1208 332.28 14.9808 332.32 14.8808C332.36 14.8008 332.4 14.7208 332.44 14.6408C333.04 13.8808 333.68 12.9608 334.34 11.9008C335.02 10.8408 335.68 9.72075 336.32 8.54075C336.96 7.36075 337.56 6.20075 338.1 5.06075C338.64 3.94075 339.06 2.92075 339.38 2.00075C339.6 1.40075 339.94 0.980752 340.44 0.740752C340.94 0.500752 341.46 0.480752 342 0.660752C342.56 0.820752 342.96 1.16075 343.22 1.64075C343.48 2.12075 343.5 2.66075 343.3 3.26075C343.1 3.84075 342.88 4.42075 342.62 5.04075C342.36 5.66075 342.06 6.28075 341.76 6.92075H353.74C354.3 6.92075 354.76 7.12075 355.16 7.50075C355.56 7.88075 355.76 8.36075 355.76 8.90075C355.76 9.44075 355.56 9.92075 355.16 10.3208C354.76 10.7208 354.3 10.9208 353.74 10.9208H345.68V14.8008H352.6C353.16 14.8008 353.6 14.9808 353.96 15.3608C354.32 15.7408 354.5 16.1808 354.5 16.7008C354.5 17.2208 354.32 17.6808 353.96 18.0408C353.6 18.4208 353.14 18.6008 352.6 18.6008H345.68V22.4608H352.6C353.16 22.4608 353.62 22.6608 354.02 23.0408C354.42 23.4208 354.62 23.9008 354.62 24.4408C354.62 24.9808 354.42 25.4608 354.02 25.8608C353.62 26.2608 353.16 26.4608 352.6 26.4608H345.68V31.6408C345.68 32.2808 345.48 32.8008 345.06 33.1808C344.64 33.5608 344.12 33.7607 343.52 33.7607C342.92 33.7607 342.42 33.5608 342 33.1808C341.6 32.8008 341.38 32.2808 341.38 31.6408V10.9408H339.68C339.04 12.0608 338.38 13.1608 337.7 14.2008C337.02 15.2408 336.38 16.1808 335.76 17.0008C335.4 17.4608 334.92 17.7208 334.34 17.8208C333.76 17.9208 333.22 17.7808 332.74 17.4408C332.48 17.2408 332.28 17.0008 332.16 16.6808V31.8408C332.16 32.4608 331.96 32.9608 331.54 33.3608C331.12 33.7608 330.64 33.9408 330.06 33.9408L330.14 33.9008Z" fill="#010F32"/>
<path d="M374.12 32.6802C373.52 32.7002 373 32.5202 372.58 32.1002C372.14 31.7002 371.9 31.1802 371.86 30.5802C371.84 29.9802 372.02 29.4602 372.44 29.0202C372.84 28.5802 373.36 28.3402 373.96 28.3202C376.82 28.2002 379.04 27.6202 380.62 26.5602C382.2 25.5002 383 23.9602 383 21.9602C383 20.1802 382.26 18.9402 380.76 18.2602C379.96 17.8802 379.02 17.6802 377.9 17.6602C376.78 17.6602 375.58 17.8802 374.3 18.3802C373.02 18.8802 371.72 19.7002 370.44 20.8402C369.76 21.4202 369.08 22.0202 368.38 22.6402C367.68 23.2602 367.02 23.8402 366.4 24.3602C365.94 24.7402 365.42 24.9202 364.84 24.8602C364.26 24.8202 363.76 24.5602 363.38 24.1002C363 23.6202 362.84 23.0802 362.9 22.5002C362.96 21.9202 363.22 21.4402 363.68 21.0802C364.68 20.2602 365.76 19.3602 366.9 18.3402C368.04 17.3202 369.18 16.2802 370.3 15.2002C371.42 14.1202 372.48 13.0602 373.46 12.0202C374.44 10.9802 375.26 10.0202 375.96 9.12017C376.66 8.20017 376.9 7.52017 376.68 7.06017C376.46 6.60017 375.76 6.42017 374.6 6.52017C374.36 6.54017 374 6.58017 373.5 6.62017C373 6.66017 372.48 6.72017 371.94 6.80017C371.38 6.88017 370.9 6.94017 370.48 6.98017C370.06 7.02017 369.8 7.06017 369.66 7.08017C369.06 7.16017 368.54 7.00017 368.08 6.64017C367.62 6.28017 367.36 5.78017 367.28 5.18017C367.2 4.58017 367.36 4.06017 367.72 3.60017C368.1 3.14017 368.56 2.88017 369.14 2.80017C369.52 2.76017 370.04 2.70017 370.7 2.66017C371.36 2.62017 372.04 2.56017 372.78 2.50017C373.5 2.44017 374.12 2.40017 374.62 2.38017C376.26 2.26017 377.6 2.42017 378.66 2.88017C379.72 3.34017 380.5 4.00017 380.94 4.84017C381.4 5.70017 381.52 6.66017 381.32 7.76017C381.12 8.86017 380.54 9.96017 379.62 11.1002C379.26 11.5602 378.78 12.1202 378.2 12.7802C377.62 13.4402 377.1 14.0202 376.66 14.4802C377.64 14.1002 378.7 13.9402 379.82 14.0202C380.94 14.1002 381.9 14.3002 382.72 14.6402C384.14 15.2402 385.26 16.1602 386.08 17.4002C386.9 18.6402 387.32 20.1602 387.32 21.9602C387.32 25.1802 386.16 27.7202 383.86 29.6202C381.56 31.5002 378.32 32.5402 374.14 32.7002L374.12 32.6802Z" fill="#010F32"/>
<path d="M412.64 33.2806C412.18 33.6606 411.66 33.8606 411.04 33.8406C410.42 33.8406 409.92 33.6006 409.52 33.1406C409.14 32.6806 408.94 32.1606 408.96 31.5606C408.96 30.9606 409.2 30.4606 409.66 30.0806C411.58 28.4006 413.04 26.5806 414.04 24.6006C415.04 22.6406 415.54 20.4406 415.54 18.0206C415.54 16.4206 415.12 15.2406 414.26 14.5006C413.4 13.7606 412.28 13.3806 410.9 13.3806C409.86 13.3806 408.82 13.6206 407.74 14.1206C406.68 14.6206 405.64 15.3206 404.66 16.2206C404.2 16.6006 403.68 16.7806 403.1 16.7406C402.52 16.7006 402.02 16.4606 401.6 16.0006C401.22 15.5406 401.04 15.0206 401.1 14.4406C401.14 13.8606 401.38 13.3606 401.82 12.9806C403.22 11.7006 404.68 10.7806 406.24 10.1806C407.8 9.60062 409.34 9.30062 410.88 9.30062C412.58 9.30062 414.1 9.62062 415.46 10.2606C416.82 10.9006 417.86 11.8606 418.64 13.1406C419.42 14.4206 419.8 16.0606 419.8 18.0206C419.8 21.0606 419.16 23.9006 417.9 26.5206C416.62 29.1406 414.88 31.4006 412.64 33.2806ZM415.3 7.98062C414.24 7.70062 413.14 7.36062 411.98 6.98062C410.82 6.60062 409.72 6.20062 408.64 5.78062C407.56 5.34062 406.62 4.94062 405.8 4.56062C405.28 4.30062 404.92 3.88062 404.72 3.32062C404.52 2.76062 404.56 2.22062 404.82 1.68062C405.08 1.12062 405.5 0.760616 406.1 0.600616C406.7 0.440616 407.24 0.480616 407.78 0.740616C408.98 1.26062 410.34 1.82062 411.88 2.38062C413.42 2.94062 414.92 3.42062 416.38 3.80062C416.96 3.94062 417.4 4.28062 417.7 4.80062C418 5.32062 418.08 5.86062 417.94 6.44062C417.8 7.02062 417.46 7.46062 416.94 7.76062C416.42 8.06062 415.88 8.14062 415.3 8.00062V7.98062Z" fill="#010F32"/>
<path d="M438.64 32.9602C437.8 32.9602 437.08 32.6602 436.48 32.0602C435.88 31.4602 435.58 30.7402 435.58 29.9002C435.58 29.0602 435.88 28.3402 436.48 27.7402C437.08 27.1402 437.8 26.8402 438.64 26.8402C439.48 26.8402 440.2 27.1402 440.8 27.7402C441.4 28.3402 441.7 29.0602 441.7 29.9002C441.7 30.7402 441.4 31.4602 440.8 32.0602C440.2 32.6602 439.48 32.9602 438.64 32.9602ZM438.64 24.1802C438.16 24.1802 437.74 24.0202 437.38 23.6802C437.02 23.3402 436.82 22.9202 436.76 22.4202C436.68 21.5002 436.62 20.4602 436.56 19.2802C436.5 18.1002 436.44 16.9002 436.36 15.6602C436.28 14.4202 436.22 13.2402 436.18 12.1202C436.14 11.0002 436.1 10.0002 436.08 9.1402C436.06 8.2802 436.04 7.6402 436.04 7.2402V3.6802C436.04 2.9802 436.28 2.4002 436.78 1.9202C437.28 1.4402 437.88 1.2002 438.64 1.2002C439.4 1.2002 440.04 1.4402 440.54 1.9202C441.04 2.4002 441.28 2.9802 441.28 3.6802V7.2402C441.28 7.6402 441.28 8.2802 441.22 9.1402C441.18 10.0002 441.14 11.0002 441.1 12.1202C441.06 13.2402 441 14.4402 440.94 15.6602C440.88 16.9002 440.82 18.1002 440.74 19.2802C440.66 20.4602 440.6 21.5002 440.52 22.4202C440.5 22.9202 440.3 23.3402 439.94 23.6802C439.58 24.0202 439.14 24.1802 438.64 24.1802Z" fill="#010F32"/>
<path d="M4.98013 93.4005C4.28013 93.4805 3.70013 93.3605 3.22013 93.0605C2.74013 92.7605 2.44013 92.3205 2.32013 91.7405C2.20013 91.1005 2.30013 90.5205 2.60013 90.0405C2.90013 89.5605 3.38013 89.3005 4.00013 89.2405C4.88013 89.1405 5.60013 88.9205 6.12013 88.6005C6.64013 88.2605 7.04013 87.6405 7.28013 86.7405C7.54013 85.8405 7.66013 84.5205 7.66013 82.7605C7.66013 81.6405 7.62013 80.5805 7.56013 79.6205C7.04013 80.3805 6.48013 81.1405 5.92013 81.8805C5.36013 82.6205 4.82013 83.2805 4.32013 83.8205C3.94013 84.2605 3.46013 84.5005 2.90013 84.5805C2.34013 84.6605 1.82013 84.5005 1.34013 84.1205C0.900127 83.7805 0.680127 83.3605 0.660127 82.8205C0.640127 82.3005 0.800127 81.8405 1.16013 81.4605C1.78013 80.7805 2.44013 80.0205 3.14013 79.1405C3.84013 78.2605 4.50013 77.3805 5.14013 76.4605C5.78013 75.5405 6.30013 74.7205 6.70013 73.9805C6.58013 73.5005 6.44013 73.0405 6.28013 72.6005C6.12013 72.1605 5.96013 71.7205 5.80013 71.2805C5.16013 71.9605 4.52013 72.5805 3.92013 73.1605C3.52013 73.5405 3.04013 73.7405 2.48013 73.7405C1.92013 73.7405 1.44013 73.5405 1.04013 73.1605C0.660127 72.7805 0.460127 72.3205 0.480127 71.7805C0.480127 71.2405 0.680127 70.8005 1.08013 70.4605C2.00013 69.6405 2.92013 68.7005 3.88013 67.6605C3.52013 67.1005 3.14013 66.5605 2.72013 65.9805C2.32013 65.4205 1.88013 64.8605 1.42013 64.3005C1.10013 63.9005 1.00013 63.4405 1.12013 62.9605C1.22013 62.4805 1.48013 62.1005 1.90013 61.8005C2.32013 61.5005 2.76013 61.4005 3.26013 61.4605C3.76013 61.5205 4.18013 61.7605 4.52013 62.1605C5.20013 62.9205 5.82013 63.7405 6.40013 64.5805C6.74013 64.1205 7.06013 63.6805 7.36013 63.2205C7.66013 62.7805 7.94013 62.3605 8.18013 61.9405C8.50013 61.4205 8.90013 61.0605 9.42013 60.9205C9.94013 60.7605 10.4401 60.8405 10.9401 61.1205C11.4201 61.3805 11.7201 61.7605 11.8401 62.2805C11.9601 62.7805 11.8801 63.2805 11.6201 63.7605C11.2401 64.4405 10.7801 65.1405 10.2401 65.9005C9.70013 66.6605 9.12013 67.4005 8.52013 68.1405C9.52013 70.1605 10.2801 72.3405 10.7601 74.7205C11.2601 77.0805 11.5001 79.7605 11.5001 82.7605C11.5001 85.4405 11.2401 87.5405 10.7401 89.0005C10.2401 90.4805 9.50013 91.5405 8.52013 92.1605C7.54013 92.8005 6.36013 93.2005 4.94013 93.3605L4.98013 93.4005ZM18.6201 73.0205C18.0601 73.0205 17.5801 72.8605 17.1801 72.5205C16.7801 72.1805 16.5601 71.7005 16.5601 71.0405V68.8005H12.7801C12.2201 68.8005 11.7801 68.6205 11.4601 68.2805C11.1401 67.9405 10.9801 67.5005 10.9801 67.0005C10.9801 66.5005 11.1401 66.0805 11.4601 65.7205C11.7801 65.3805 12.2201 65.2005 12.7801 65.2005H16.5601V62.5405C16.5601 61.8605 16.7601 61.3805 17.1801 61.0405C17.6001 60.7005 18.0601 60.5605 18.6201 60.5605C19.1801 60.5605 19.6401 60.7205 20.0401 61.0405C20.4401 61.3605 20.6401 61.8605 20.6401 62.5405V65.2005H24.4201V62.5405C24.4201 61.8605 24.6201 61.3805 25.0401 61.0405C25.4601 60.7005 25.9201 60.5605 26.4401 60.5605C26.9601 60.5605 27.4601 60.7205 27.8601 61.0405C28.2601 61.3605 28.4601 61.8605 28.4601 62.5405V65.2005H32.3401C32.9001 65.2005 33.3401 65.3805 33.6601 65.7205C33.9801 66.0605 34.1401 66.5005 34.1401 67.0005C34.1401 67.5005 33.9801 67.9205 33.6601 68.2805C33.3401 68.6205 32.9001 68.8005 32.3401 68.8005H28.4601V71.0405C28.4601 71.6805 28.2601 72.1805 27.8601 72.5205C27.4601 72.8605 27.0001 73.0205 26.4401 73.0205C25.8801 73.0205 25.4401 72.8605 25.0401 72.5205C24.6401 72.1805 24.4201 71.7005 24.4201 71.0405V68.8005H20.6401V71.0405C20.6401 71.6805 20.4401 72.1805 20.0401 72.5205C19.6401 72.8605 19.1801 73.0205 18.6201 73.0205ZM20.1401 92.8605C17.6401 92.8605 15.8601 92.3805 14.8001 91.4005C13.7401 90.4205 13.2001 88.7405 13.2001 86.3405V80.1805C13.2001 77.8005 13.7401 76.1205 14.8001 75.1405C15.8601 74.1605 17.6401 73.6605 20.1401 73.6605H25.4001C27.9001 73.6605 29.6801 74.1605 30.7401 75.1405C31.8001 76.1205 32.3401 77.8005 32.3401 80.1805V86.3405C32.3401 88.7405 31.8001 90.4205 30.7401 91.4005C29.6801 92.3805 27.8801 92.8605 25.4001 92.8605H20.1401ZM17.2601 81.4405H20.9001V77.4805H20.4401C19.5801 77.4805 18.9201 77.5605 18.4601 77.7005C18.0001 77.8405 17.7001 78.1005 17.5201 78.5005C17.3601 78.8805 17.2601 79.4605 17.2601 80.2205V81.4405ZM20.4201 89.0805H20.8801V85.1205H17.2401V86.3005C17.2401 87.4205 17.4401 88.1805 17.8601 88.5405C18.2601 88.9005 19.1201 89.0805 20.4201 89.0805ZM24.6401 81.4405H28.2801V80.2205C28.2801 79.4605 28.2001 78.8805 28.0201 78.5005C27.8601 78.1205 27.5401 77.8605 27.1001 77.7005C26.6601 77.5605 26.0001 77.4805 25.1001 77.4805H24.6401V81.4405ZM24.6401 89.0805H25.1001C25.9801 89.0805 26.6601 89.0005 27.1001 88.8605C27.5401 88.7205 27.8601 88.4405 28.0201 88.0405C28.1801 87.6405 28.2801 87.0605 28.2801 86.3205V85.1405H24.6401V89.1005V89.0805Z" fill="#010F32"/>
<path d="M43.0401 91.3407C42.4401 91.4407 41.9001 91.3207 41.4201 90.9807C40.9401 90.6407 40.6401 90.1807 40.5201 89.6207C40.3001 88.4007 40.1401 86.9807 40.0201 85.3607C39.9001 83.7407 39.8401 82.0207 39.8401 80.2407C39.8401 78.4607 39.8801 76.6207 39.9801 74.8007C40.0801 72.9807 40.2201 71.2407 40.4201 69.5607C40.6201 67.9007 40.8601 66.4007 41.1601 65.0807C41.2801 64.5007 41.6001 64.0607 42.1001 63.7407C42.6001 63.4207 43.1401 63.3207 43.7201 63.4407C44.3001 63.5807 44.7401 63.9007 45.0801 64.4007C45.4001 64.9007 45.5001 65.4407 45.3801 66.0407C45.0001 67.7407 44.7001 69.6007 44.4801 71.5807C44.2601 73.5807 44.1201 75.6007 44.0601 77.6407C44.0001 79.7007 44.0201 81.6807 44.1401 83.6207C44.2601 85.5607 44.4601 87.3007 44.7601 88.9007C44.8801 89.4807 44.7601 90.0007 44.4201 90.4807C44.0801 90.9607 43.6001 91.2607 43.0401 91.3807V91.3407ZM57.8001 89.4007C54.6801 89.4007 52.3601 88.8407 50.8401 87.7007C49.3201 86.5807 48.4001 84.9207 48.0801 82.7407C47.9801 82.1607 48.1001 81.6407 48.4601 81.1607C48.8001 80.6807 49.2801 80.4007 49.8801 80.3007C50.4601 80.2207 50.9801 80.3607 51.4601 80.7207C51.9401 81.0807 52.2201 81.5407 52.3201 82.1407C52.4601 83.1807 52.9601 83.9407 53.8001 84.4407C54.6401 84.9407 56.0001 85.2007 57.9001 85.2007C59.7001 85.2007 61.8801 84.9207 64.4201 84.3807C65.0001 84.2407 65.5401 84.3407 66.0401 84.6607C66.5401 85.0007 66.8601 85.4607 66.9801 86.0207C67.1001 86.6007 66.9801 87.1407 66.6601 87.6207C66.3201 88.1207 65.8601 88.4407 65.3001 88.5807C64.0001 88.9007 62.7201 89.1007 61.4401 89.2207C60.1601 89.3407 58.9401 89.4007 57.8201 89.4007H57.8001ZM51.2201 71.5807C50.6401 71.7007 50.1201 71.5807 49.6201 71.2807C49.1201 70.9807 48.8201 70.5007 48.7001 69.9007C48.5801 69.3207 48.7001 68.7807 49.0001 68.2807C49.3001 67.7807 49.7801 67.4807 50.3801 67.3807C51.7201 67.1207 53.2201 66.9407 54.8801 66.8607C56.5401 66.7807 58.1801 66.7607 59.8201 66.8207C61.4601 66.8807 62.9001 67.0207 64.1401 67.2407C64.7401 67.3407 65.2001 67.6407 65.5401 68.1207C65.8801 68.6207 65.9801 69.1607 65.8601 69.7607C65.7601 70.3607 65.4601 70.8207 64.9801 71.1407C64.4801 71.4607 63.9601 71.5807 63.3801 71.4807C61.4401 71.1407 59.4201 70.9807 57.3401 71.0007C55.2601 71.0007 53.2201 71.2207 51.2201 71.6007V71.5807Z" fill="#010F32"/>
<path d="M83.8198 92.5203C81.7398 92.5203 80.1198 91.9803 78.9798 90.9203C77.8398 89.8603 77.2598 88.5003 77.2598 86.8403C77.2598 85.1803 77.8598 83.9004 79.0398 82.8204C80.2198 81.7604 81.9798 81.2204 84.3198 81.2204C84.7198 81.2204 85.1398 81.2203 85.5798 81.2803C86.0198 81.3403 86.4598 81.3604 86.9198 81.4004C86.8398 80.0604 86.7598 78.6003 86.6598 77.0203C86.5598 75.4403 86.4398 73.8604 86.3398 72.2604C86.2398 70.6604 86.1398 69.1604 86.0798 67.7204C86.0198 66.3004 85.9998 65.0604 85.9998 64.0004C85.9998 63.4004 86.1998 62.9004 86.6198 62.4804C87.0398 62.0604 87.5398 61.8604 88.1598 61.8604C88.7798 61.8604 89.2598 62.0604 89.6798 62.4804C90.0998 62.9004 90.2998 63.4004 90.2998 64.0004C90.2998 64.7004 90.2998 65.5404 90.3598 66.5404C90.3998 67.5404 90.4398 68.6204 90.5198 69.7604C91.2198 69.6604 91.9998 69.5403 92.8398 69.3803C93.6998 69.2203 94.5398 69.0603 95.3798 68.8803C96.2198 68.7003 96.9598 68.5204 97.6198 68.3604C98.2198 68.2004 98.7798 68.2604 99.2998 68.5804C99.8198 68.9004 100.14 69.3403 100.3 69.9203C100.46 70.5003 100.4 71.0603 100.1 71.6003C99.7998 72.1403 99.3398 72.4803 98.7598 72.6003C97.5798 72.8603 96.2598 73.1204 94.7998 73.3604C93.3398 73.6004 91.9998 73.7804 90.7598 73.9004C90.8598 75.3804 90.9598 76.8604 91.0398 78.3204C91.1198 79.7804 91.2198 81.1204 91.2998 82.3204C92.9398 82.7804 94.5398 83.3403 96.1198 84.0203C97.6998 84.7003 99.0998 85.4404 100.3 86.2604C100.78 86.6004 101.08 87.0604 101.18 87.6604C101.28 88.2604 101.18 88.8204 100.84 89.3204C100.5 89.8004 100.04 90.1003 99.4398 90.2003C98.8398 90.3003 98.2998 90.2004 97.8198 89.8604C95.9398 88.5804 93.8198 87.5204 91.4398 86.6604C91.3398 88.4804 90.6598 89.9204 89.3598 90.9804C88.0798 92.0404 86.2398 92.5603 83.8398 92.5603L83.8198 92.5203ZM83.8198 88.3803C84.9198 88.3803 85.7398 88.1804 86.2798 87.8004C86.8198 87.4204 87.0998 86.8004 87.0998 85.9604V85.5004C86.6198 85.4004 86.1398 85.3404 85.6598 85.3004C85.1798 85.2604 84.6998 85.2403 84.2198 85.2403C83.2998 85.2403 82.6398 85.4003 82.2198 85.7003C81.7998 86.0003 81.5998 86.3803 81.5998 86.8403C81.5998 87.2803 81.7798 87.6404 82.1598 87.9404C82.5398 88.2404 83.0798 88.4004 83.8398 88.4004L83.8198 88.3803Z" fill="#010F32"/>
<path d="M124.96 92.321C122.78 92.281 121.06 91.741 119.8 90.741C118.54 89.741 117.94 88.361 117.98 86.601C118.02 85.561 118.32 84.661 118.86 83.901C119.4 83.141 120.14 82.561 121.08 82.161C122.02 81.761 123.08 81.621 124.28 81.741C126.2 81.901 127.54 82.561 128.32 83.701C129.08 84.841 129.32 86.141 129 87.601C129.84 87.201 130.52 86.601 131.08 85.821C131.62 85.041 131.88 84.021 131.88 82.781C131.88 81.841 131.62 81.001 131.08 80.241C130.54 79.481 129.78 78.901 128.82 78.481C127.84 78.061 126.72 77.881 125.46 77.961C124.18 78.041 122.82 78.421 121.36 79.101C119.9 79.781 118.4 80.861 116.86 82.361C116.42 82.761 115.88 82.961 115.24 82.961C114.6 82.961 114.06 82.701 113.66 82.221C113.28 81.761 113.1 81.241 113.14 80.661C113.18 80.081 113.42 79.621 113.88 79.281C115.36 78.161 116.86 76.961 118.34 75.701C119.82 74.441 121.24 73.201 122.6 71.981C123.96 70.761 125.14 69.641 126.18 68.641C126.82 68.021 127.04 67.501 126.84 67.101C126.64 66.701 126.12 66.541 125.28 66.661C124.46 66.761 123.54 66.881 122.48 67.021C121.44 67.161 120.46 67.301 119.54 67.421C118.96 67.521 118.44 67.381 117.96 67.021C117.48 66.661 117.2 66.181 117.14 65.581C117.04 65.001 117.18 64.481 117.54 64.021C117.9 63.561 118.38 63.261 118.98 63.181C119.5 63.101 120.18 63.041 120.98 62.961C121.78 62.881 122.62 62.821 123.46 62.741C124.3 62.661 125.04 62.601 125.64 62.561C127.2 62.441 128.48 62.641 129.46 63.181C130.44 63.701 131.12 64.421 131.48 65.321C131.84 66.221 131.86 67.201 131.54 68.261C131.22 69.321 130.52 70.321 129.46 71.241C128.98 71.641 128.38 72.181 127.64 72.821C126.9 73.461 126.16 74.121 125.4 74.801C126.76 74.541 128.1 74.521 129.4 74.741C130.7 74.961 131.86 75.441 132.88 76.121C133.9 76.821 134.72 77.741 135.3 78.881C135.88 80.021 136.2 81.361 136.2 82.901C136.2 85.081 135.72 86.901 134.76 88.321C133.8 89.741 132.48 90.801 130.8 91.461C129.12 92.121 127.18 92.421 125 92.381L124.96 92.321ZM124.32 88.321H124.54C124.54 88.321 124.7 88.321 124.82 88.321C124.92 88.321 125.06 88.321 125.2 88.321C125.54 87.521 125.6 86.861 125.38 86.341C125.16 85.821 124.74 85.501 124.08 85.401C123.5 85.321 123.02 85.401 122.66 85.641C122.28 85.861 122.08 86.241 122.02 86.741C122 87.701 122.76 88.221 124.32 88.321Z" fill="#010F32"/>
<path d="M154.2 92.2011C153.74 92.5811 153.22 92.7411 152.62 92.6811C152.02 92.6211 151.52 92.3611 151.1 91.9011C150.74 91.4611 150.26 90.9411 149.66 90.3011C149.06 89.6611 148.44 89.0211 147.8 88.4011C147.16 87.7611 146.6 87.2411 146.12 86.8411C145.74 86.4811 145.52 86.0211 145.46 85.4611C145.4 84.9011 145.56 84.4211 145.94 84.0011C146.34 83.6011 146.82 83.3611 147.36 83.3211C147.9 83.2811 148.4 83.4211 148.86 83.7611C149.38 84.1611 150 84.7011 150.72 85.3411C151.42 85.9811 152.12 86.6611 152.8 87.3411C153.48 88.0211 154.02 88.6211 154.44 89.1211C154.84 89.5811 155.02 90.1011 154.98 90.7011C154.94 91.3011 154.66 91.8011 154.18 92.2211L154.2 92.2011Z" fill="#010F32"/>
<path d="M179.94 93.4005C179.24 93.4805 178.66 93.3605 178.18 93.0605C177.7 92.7605 177.4 92.3205 177.28 91.7405C177.16 91.1005 177.26 90.5205 177.56 90.0405C177.88 89.5605 178.34 89.3005 178.96 89.2405C179.84 89.1405 180.56 88.9205 181.08 88.6005C181.6 88.2605 182 87.6405 182.24 86.7405C182.5 85.8405 182.62 84.5205 182.62 82.7605C182.62 81.6405 182.58 80.5805 182.52 79.6205C182 80.3805 181.44 81.1405 180.88 81.8805C180.32 82.6205 179.78 83.2805 179.28 83.8205C178.9 84.2605 178.42 84.5005 177.86 84.5805C177.3 84.6605 176.78 84.5005 176.3 84.1205C175.86 83.7805 175.64 83.3605 175.62 82.8205C175.6 82.3005 175.76 81.8405 176.12 81.4605C176.74 80.7805 177.4 80.0205 178.1 79.1405C178.8 78.2605 179.46 77.3805 180.1 76.4605C180.74 75.5405 181.26 74.7205 181.66 73.9805C181.54 73.5005 181.4 73.0405 181.24 72.6005C181.08 72.1605 180.92 71.7205 180.76 71.2805C180.12 71.9605 179.48 72.5805 178.88 73.1605C178.46 73.5405 178 73.7405 177.44 73.7405C176.88 73.7405 176.4 73.5405 176 73.1605C175.62 72.7805 175.42 72.3205 175.44 71.7805C175.46 71.2405 175.66 70.8005 176.04 70.4605C176.96 69.6405 177.88 68.7005 178.84 67.6605C178.48 67.1005 178.1 66.5605 177.68 65.9805C177.28 65.4205 176.84 64.8605 176.38 64.3005C176.06 63.9005 175.96 63.4405 176.08 62.9605C176.18 62.4805 176.44 62.1005 176.86 61.8005C177.28 61.5005 177.72 61.4005 178.22 61.4605C178.72 61.5205 179.14 61.7605 179.48 62.1605C180.16 62.9205 180.78 63.7405 181.36 64.5805C181.7 64.1205 182.02 63.6805 182.32 63.2205C182.62 62.7805 182.9 62.3605 183.14 61.9405C183.46 61.4205 183.86 61.0605 184.38 60.9205C184.9 60.7605 185.4 60.8405 185.92 61.1205C186.4 61.3805 186.7 61.7605 186.82 62.2805C186.94 62.7805 186.86 63.2805 186.6 63.7605C186.22 64.4405 185.76 65.1405 185.22 65.9005C184.68 66.6605 184.12 67.4005 183.52 68.1405C184.52 70.1605 185.28 72.3405 185.76 74.7205C186.26 77.0805 186.5 79.7605 186.5 82.7605C186.5 85.4405 186.24 87.5405 185.74 89.0005C185.24 90.4805 184.5 91.5405 183.52 92.1605C182.54 92.7805 181.36 93.2005 179.94 93.3605V93.4005ZM193.58 73.0205C193.02 73.0205 192.54 72.8605 192.14 72.5205C191.72 72.1805 191.52 71.7005 191.52 71.0405V68.8005H187.74C187.18 68.8005 186.74 68.6205 186.42 68.2805C186.1 67.9405 185.94 67.5005 185.94 67.0005C185.94 66.5005 186.1 66.0805 186.42 65.7205C186.74 65.3805 187.18 65.2005 187.74 65.2005H191.52V62.5405C191.52 61.8605 191.72 61.3805 192.14 61.0405C192.54 60.7205 193.02 60.5605 193.58 60.5605C194.14 60.5605 194.6 60.7205 195 61.0405C195.4 61.3605 195.6 61.8605 195.6 62.5405V65.2005H199.38V62.5405C199.38 61.8605 199.58 61.3805 200 61.0405C200.42 60.7005 200.88 60.5605 201.4 60.5605C201.92 60.5605 202.42 60.7205 202.82 61.0405C203.22 61.3605 203.42 61.8605 203.42 62.5405V65.2005H207.3C207.86 65.2005 208.3 65.3805 208.62 65.7205C208.94 66.0605 209.1 66.5005 209.1 67.0005C209.1 67.5005 208.94 67.9205 208.62 68.2805C208.3 68.6205 207.86 68.8005 207.3 68.8005H203.42V71.0405C203.42 71.6805 203.22 72.1805 202.82 72.5205C202.42 72.8605 201.94 73.0205 201.4 73.0205C200.86 73.0205 200.4 72.8605 200 72.5205C199.6 72.1805 199.38 71.7005 199.38 71.0405V68.8005H195.6V71.0405C195.6 71.6805 195.4 72.1805 195 72.5205C194.6 72.8605 194.12 73.0205 193.58 73.0205ZM195.1 92.8605C192.6 92.8605 190.82 92.3805 189.76 91.4005C188.7 90.4205 188.16 88.7405 188.16 86.3405V80.1805C188.16 77.8005 188.7 76.1205 189.76 75.1405C190.82 74.1605 192.6 73.6605 195.1 73.6605H200.36C202.86 73.6605 204.64 74.1605 205.7 75.1405C206.76 76.1205 207.3 77.8005 207.3 80.1805V86.3405C207.3 88.7405 206.76 90.4205 205.7 91.4005C204.64 92.3805 202.86 92.8605 200.36 92.8605H195.1ZM192.22 81.4405H195.86V77.4805H195.4C194.54 77.4805 193.88 77.5605 193.42 77.7005C192.96 77.8405 192.66 78.1005 192.48 78.5005C192.32 78.8805 192.22 79.4605 192.22 80.2205V81.4405ZM195.38 89.0805H195.84V85.1205H192.2V86.3005C192.2 87.4205 192.4 88.1805 192.82 88.5405C193.22 88.9005 194.08 89.0805 195.38 89.0805ZM199.6 81.4405H203.24V80.2205C203.24 79.4605 203.16 78.8805 202.98 78.5005C202.82 78.1205 202.5 77.8605 202.06 77.7005C201.62 77.5605 200.94 77.4805 200.06 77.4805H199.6V81.4405ZM199.6 89.0805H200.06C200.94 89.0805 201.62 89.0005 202.06 88.8605C202.5 88.7205 202.8 88.4405 202.98 88.0405C203.14 87.6405 203.24 87.0605 203.24 86.3205V85.1405H199.6V89.1005V89.0805Z" fill="#010F32"/>
<path d="M231.88 90.6602C231.28 90.8002 230.72 90.7202 230.18 90.4002C229.66 90.0802 229.32 89.6402 229.18 89.0602C229.04 88.4802 229.12 87.9402 229.44 87.4202C229.76 86.9002 230.2 86.5802 230.78 86.4202C233.44 85.7202 235.4 84.6002 236.66 83.0402C237.92 81.4802 238.54 79.5002 238.54 77.1002C238.54 75.5802 238.2 74.2402 237.54 73.0402C236.88 71.8402 235.92 70.8602 234.68 70.1202C233.44 69.3802 231.96 68.9202 230.24 68.7602C229.8 72.8002 229.08 76.2802 228.06 79.2202C227.04 82.1602 225.84 84.4202 224.46 86.0202C223.08 87.6202 221.64 88.4202 220.12 88.4202C218.84 88.4202 217.68 88.0402 216.62 87.3002C215.56 86.5602 214.74 85.4802 214.12 84.1002C213.5 82.7002 213.2 81.0402 213.2 79.1002C213.2 77.1602 213.58 75.2402 214.34 73.5002C215.1 71.7602 216.18 70.2202 217.56 68.9202C218.96 67.6002 220.58 66.5602 222.48 65.8202C224.36 65.0802 226.44 64.7002 228.68 64.7002C231.42 64.7002 233.84 65.2202 235.98 66.2602C238.1 67.3002 239.78 68.7602 241 70.6202C242.22 72.4802 242.84 74.6402 242.84 77.1202C242.84 80.6002 241.9 83.5002 240.04 85.8202C238.18 88.1402 235.46 89.7602 231.88 90.6602ZM220.14 84.0002C220.58 84.0002 221.06 83.6402 221.64 82.9002C222.2 82.1602 222.78 81.1402 223.34 79.7802C223.92 78.4402 224.44 76.8402 224.92 75.0202C225.4 73.2002 225.76 71.1402 226 68.9202C224.12 69.2802 222.56 69.9602 221.28 70.9802C220 72.0002 219.04 73.2202 218.4 74.6202C217.76 76.0202 217.42 77.5002 217.4 79.0402C217.4 80.6802 217.66 81.9002 218.18 82.7402C218.7 83.5802 219.34 84.0002 220.14 84.0002Z" fill="#010F32"/>
<path d="M251.04 91.921C250.52 91.601 250.18 91.161 250.04 90.581C249.9 90.001 250 89.461 250.32 88.961C251.26 87.441 252.08 85.781 252.8 83.961C253.52 82.141 254.14 80.241 254.66 78.281C255.18 76.321 255.58 74.381 255.9 72.481C255.2 72.561 254.52 72.621 253.86 72.661C253.2 72.701 252.58 72.761 252 72.801C251.4 72.821 250.88 72.661 250.44 72.281C250 71.901 249.76 71.421 249.7 70.821C249.68 70.221 249.86 69.701 250.24 69.261C250.62 68.821 251.12 68.581 251.72 68.561C252.42 68.521 253.16 68.461 253.96 68.421C254.76 68.381 255.58 68.301 256.38 68.201C256.46 67.381 256.5 66.601 256.52 65.861C256.54 65.121 256.54 64.401 256.52 63.741C256.5 63.141 256.68 62.621 257.08 62.201C257.48 61.781 257.98 61.541 258.58 61.521C259.18 61.501 259.7 61.681 260.12 62.081C260.56 62.481 260.78 62.981 260.8 63.581C260.82 64.181 260.82 64.821 260.8 65.501C260.78 66.181 260.72 66.921 260.66 67.681C261.74 67.481 262.72 67.301 263.58 67.141C264.16 67.021 264.7 67.121 265.2 67.421C265.7 67.741 266.02 68.181 266.14 68.761C266.26 69.361 266.14 69.901 265.84 70.381C265.52 70.861 265.06 71.161 264.5 71.281C263.9 71.401 263.24 71.521 262.5 71.641C261.76 71.761 261 71.881 260.18 72.001C259.84 74.181 259.38 76.441 258.82 78.781C258.26 81.121 257.56 83.361 256.74 85.521C255.94 87.661 255.02 89.581 253.98 91.221C253.66 91.721 253.22 92.041 252.64 92.201C252.06 92.341 251.52 92.261 251.02 91.941L251.04 91.921ZM276.1 91.121C272.52 91.941 269.46 91.961 266.9 91.201C264.34 90.441 262.52 89.021 261.4 86.961C261.14 86.441 261.08 85.881 261.24 85.321C261.4 84.761 261.74 84.321 262.26 84.041C262.78 83.761 263.34 83.701 263.9 83.861C264.46 84.021 264.9 84.381 265.18 84.901C265.9 86.181 267.12 86.961 268.82 87.281C270.52 87.601 272.64 87.481 275.2 86.921C275.8 86.801 276.34 86.921 276.84 87.221C277.34 87.521 277.64 88.001 277.76 88.561C277.88 89.161 277.76 89.701 277.46 90.201C277.16 90.701 276.68 91.001 276.12 91.121H276.1ZM274.34 77.361C273.52 77.161 272.6 77.041 271.54 76.961C270.5 76.881 269.44 76.881 268.38 76.901C267.32 76.921 266.3 77.041 265.38 77.201C264.8 77.301 264.28 77.201 263.82 76.861C263.36 76.541 263.06 76.101 262.94 75.541C262.82 74.961 262.94 74.441 263.24 73.941C263.56 73.441 264.02 73.161 264.58 73.061C265.7 72.861 266.9 72.741 268.16 72.701C269.42 72.661 270.68 72.681 271.92 72.761C273.16 72.841 274.3 73.001 275.34 73.241C275.92 73.361 276.36 73.681 276.66 74.181C276.96 74.681 277.04 75.221 276.9 75.801C276.78 76.361 276.46 76.781 275.96 77.081C275.46 77.381 274.92 77.481 274.34 77.361Z" fill="#010F32"/>
<path d="M302.44 90.9011C301.84 90.9211 301.32 90.7611 300.88 90.3811C300.44 90.0011 300.2 89.5211 300.14 88.9211C300.1 88.3211 300.26 87.8011 300.64 87.3411C301.02 86.8811 301.52 86.6411 302.12 86.6211C304.74 86.4211 306.74 85.7011 308.16 84.4411C309.56 83.1811 310.26 81.4411 310.26 79.2011C310.26 77.7211 309.8 76.4011 308.86 75.3011C307.92 74.2011 306.64 73.3811 305 72.9011C304.06 75.5811 302.88 77.9811 301.48 80.1011C301.7 80.2611 301.92 80.4411 302.12 80.6011C302.34 80.7611 302.54 80.9211 302.74 81.0611C303.22 81.4011 303.52 81.8611 303.62 82.4411C303.72 83.0211 303.62 83.5811 303.28 84.0811C302.94 84.5611 302.48 84.8611 301.9 84.9611C301.32 85.0611 300.78 84.9611 300.3 84.5811C299.8 84.2211 299.3 83.8211 298.78 83.4011C298.1 84.1011 297.38 84.7411 296.62 85.3011C295.86 85.8811 295.04 86.4011 294.2 86.8811C292.72 87.7011 291.28 88.0611 289.9 87.9611C288.52 87.8611 287.4 87.3411 286.54 86.3611C285.68 85.3811 285.24 84.0211 285.24 82.2811C285.24 80.2411 285.68 78.3811 286.58 76.6811C287.46 74.9811 288.64 73.5211 290.1 72.3011C289.14 70.6011 288.38 68.9811 287.8 67.4411C287.58 66.8811 287.62 66.3411 287.88 65.8011C288.16 65.2611 288.58 64.9011 289.12 64.7011C289.68 64.5011 290.22 64.5411 290.76 64.8011C291.3 65.0611 291.66 65.4811 291.86 66.0211C292.08 66.6611 292.34 67.3211 292.64 68.0011C292.94 68.6811 293.28 69.3611 293.64 70.0611C294.82 69.5011 296.06 69.0811 297.36 68.8011C298.66 68.5211 300 68.3611 301.34 68.3611H301.88C302.04 67.7411 302.2 67.1011 302.34 66.4611C302.48 65.8211 302.6 65.1611 302.72 64.4811C302.82 63.8811 303.1 63.4011 303.58 63.0611C304.06 62.7211 304.6 62.6011 305.2 62.7211C305.78 62.8211 306.24 63.1011 306.58 63.5811C306.92 64.0611 307.06 64.6011 306.96 65.2011C306.86 65.8411 306.74 66.4811 306.6 67.1011C306.46 67.7211 306.32 68.3411 306.16 68.9811C308.76 69.7011 310.8 70.9611 312.28 72.7411C313.76 74.5211 314.52 76.6811 314.52 79.1611C314.52 81.4011 314.04 83.3611 313.08 85.0411C312.12 86.7411 310.74 88.0811 308.96 89.0811C307.18 90.0811 305 90.6611 302.46 90.8611L302.44 90.9011ZM292.14 83.3011C293.48 82.5811 294.72 81.6411 295.84 80.4611C294.54 78.9811 293.34 77.4211 292.24 75.7811C290.36 77.6611 289.44 79.7611 289.44 82.1211C289.44 82.8611 289.68 83.3611 290.16 83.6211C290.64 83.8811 291.3 83.7811 292.14 83.3211V83.3011ZM298.44 77.0811C298.84 76.3811 299.24 75.6411 299.62 74.8611C300 74.0811 300.36 73.2411 300.66 72.3611C299.72 72.4011 298.84 72.5211 298.02 72.7211C297.2 72.9211 296.42 73.1611 295.7 73.4811C296.52 74.7211 297.42 75.9211 298.44 77.0811Z" fill="#010F32"/>
<path d="M339.88 90.6602C339.28 90.8002 338.72 90.7202 338.18 90.4002C337.66 90.0802 337.32 89.6402 337.18 89.0602C337.04 88.4802 337.12 87.9402 337.44 87.4202C337.76 86.9002 338.2 86.5802 338.78 86.4202C341.44 85.7202 343.4 84.6002 344.66 83.0402C345.92 81.4802 346.56 79.5002 346.56 77.1002C346.56 75.5802 346.22 74.2402 345.56 73.0402C344.9 71.8402 343.94 70.8602 342.7 70.1202C341.46 69.3802 339.98 68.9202 338.26 68.7602C337.82 72.8002 337.1 76.2802 336.08 79.2202C335.06 82.1602 333.86 84.4202 332.48 86.0202C331.1 87.6202 329.66 88.4202 328.14 88.4202C326.86 88.4202 325.7 88.0402 324.64 87.3002C323.58 86.5602 322.74 85.4802 322.14 84.1002C321.52 82.7002 321.22 81.0402 321.22 79.1002C321.22 77.1602 321.6 75.2402 322.36 73.5002C323.12 71.7602 324.18 70.2202 325.58 68.9202C326.98 67.6002 328.6 66.5602 330.5 65.8202C332.38 65.0802 334.46 64.7002 336.72 64.7002C339.46 64.7002 341.88 65.2202 344 66.2602C346.12 67.3002 347.8 68.7602 349.02 70.6202C350.24 72.4802 350.86 74.6402 350.86 77.1202C350.86 80.6002 349.92 83.5002 348.06 85.8202C346.2 88.1402 343.48 89.7602 339.9 90.6602H339.88ZM328.14 84.0002C328.58 84.0002 329.06 83.6402 329.64 82.9002C330.2 82.1602 330.78 81.1402 331.36 79.7802C331.94 78.4402 332.46 76.8402 332.94 75.0202C333.42 73.2002 333.78 71.1402 334.02 68.9202C332.14 69.2802 330.58 69.9602 329.3 70.9802C328.02 72.0002 327.06 73.2202 326.42 74.6202C325.78 76.0202 325.44 77.5002 325.42 79.0402C325.42 80.6802 325.68 81.9002 326.2 82.7402C326.72 83.5802 327.36 84.0002 328.16 84.0002H328.14Z" fill="#010F32"/>
<path d="M365.16 92.2011C364.7 92.5811 364.18 92.7411 363.58 92.6811C362.98 92.6211 362.48 92.3611 362.06 91.9011C361.7 91.4611 361.22 90.9411 360.62 90.3011C360.02 89.6611 359.4 89.0211 358.76 88.4011C358.12 87.7611 357.56 87.2411 357.08 86.8411C356.7 86.4811 356.48 86.0211 356.42 85.4611C356.36 84.9011 356.52 84.4211 356.9 84.0011C357.3 83.6011 357.78 83.3611 358.32 83.3211C358.86 83.2811 359.36 83.4211 359.82 83.7611C360.34 84.1611 360.96 84.7011 361.68 85.3411C362.38 85.9811 363.08 86.6611 363.76 87.3411C364.44 88.0211 364.98 88.6211 365.4 89.1211C365.8 89.5811 365.98 90.1011 365.94 90.7011C365.9 91.3011 365.62 91.8011 365.14 92.2211L365.16 92.2011Z" fill="#010F32"/>
<path d="M399.12 92.3204C396.24 92.3204 393.98 91.6004 392.34 90.1804C390.7 88.7604 389.88 86.4604 389.88 83.2804V64.1004C389.88 63.5004 390.08 62.9804 390.5 62.5604C390.92 62.1404 391.42 61.9404 392.04 61.9404C392.66 61.9404 393.14 62.1404 393.56 62.5604C393.98 62.9804 394.2 63.5004 394.2 64.1004V83.2804C394.2 85.0604 394.6 86.3004 395.4 86.9804C396.2 87.6804 397.44 88.0204 399.12 88.0204C400.6 88.0204 402 87.6204 403.32 86.8404C404.64 86.0604 405.68 84.7804 406.5 83.0204C406.76 82.4604 407.18 82.1004 407.76 81.9004C408.34 81.7004 408.88 81.7404 409.42 82.0004C409.98 82.2404 410.34 82.6404 410.52 83.2204C410.7 83.8004 410.66 84.3604 410.42 84.9204C409.36 87.3004 407.82 89.1204 405.8 90.4004C403.78 91.6804 401.54 92.3004 399.12 92.3004V92.3204Z" fill="#010F32"/>
<path d="M439.64 92.9607C439.06 93.1207 438.52 93.0807 437.98 92.8207C437.46 92.5607 437.1 92.1407 436.9 91.5607C436.74 91.0007 436.8 90.4807 437.08 89.9607C437.36 89.4407 437.8 89.1007 438.38 88.9407C440.38 88.3007 441.82 87.4007 442.76 86.2407C443.68 85.0807 444.14 83.7407 444.14 82.2007C444.14 80.8807 443.74 79.7207 442.94 78.7207C442.14 77.7207 440.96 77.0207 439.4 76.5807C439.02 78.4007 438.44 80.1407 437.7 81.7807C436.94 83.4207 436.06 84.9007 435.06 86.2207C435.2 86.5407 435.36 86.8007 435.52 87.0207C435.86 87.5207 435.96 88.0607 435.84 88.6407C435.72 89.2207 435.4 89.6807 434.9 90.0007C434.42 90.3207 433.9 90.4007 433.32 90.2807C432.74 90.1607 432.28 89.8407 431.96 89.3407C430.9 90.2007 429.8 90.8807 428.62 91.3407C427.44 91.8007 426.28 92.0407 425.08 92.0407C423.4 92.0407 422.02 91.5807 420.94 90.6607C419.86 89.7407 419.32 88.2007 419.32 86.0807C419.32 84.2607 419.7 82.5807 420.46 81.0607C421.22 79.5407 422.26 78.1807 423.58 77.0007C424.9 75.8207 426.38 74.8407 428 74.0607C427.98 73.3807 428 72.7207 428 72.0407C428.04 71.3607 428.08 70.6807 428.12 69.9807C425.94 70.1007 423.96 70.1407 422.22 70.0807C421.62 70.0607 421.12 69.8207 420.74 69.4007C420.36 68.9607 420.18 68.4607 420.2 67.8807C420.24 67.3007 420.48 66.8207 420.9 66.4207C421.32 66.0207 421.82 65.8407 422.4 65.8607C423.32 65.8807 424.3 65.9007 425.38 65.8607C426.44 65.8607 427.54 65.8207 428.64 65.7807C428.74 65.2607 428.84 64.7407 428.92 64.2207C429.02 63.7007 429.12 63.1807 429.24 62.6607C429.36 62.0607 429.66 61.6007 430.16 61.3007C430.66 60.9807 431.18 60.9007 431.76 61.0207C432.34 61.1407 432.78 61.4407 433.1 61.9407C433.42 62.4407 433.5 62.9807 433.38 63.5807C433.3 63.9007 433.24 64.2007 433.18 64.5407C433.12 64.8607 433.06 65.1807 433.02 65.5007C434.06 65.4007 435.04 65.3007 435.98 65.1807C436.92 65.0607 437.82 64.9407 438.62 64.8207C439.2 64.7007 439.72 64.8207 440.2 65.1407C440.68 65.4607 440.96 65.9407 441.06 66.5007C441.16 67.0607 441.04 67.5807 440.7 68.0607C440.36 68.5607 439.92 68.8407 439.36 68.9407C438.32 69.0807 437.22 69.2207 436.02 69.3607C434.84 69.5007 433.6 69.6007 432.34 69.7007C432.24 70.7007 432.18 71.7007 432.12 72.6807C433.4 72.4007 434.68 72.2407 436 72.2407C438.64 72.2407 440.88 72.6607 442.7 73.5207C444.52 74.3807 445.92 75.5407 446.86 77.0207C447.8 78.5007 448.28 80.2207 448.28 82.1407C448.28 83.7407 447.98 85.2807 447.38 86.7207C446.78 88.1607 445.84 89.4207 444.56 90.4807C443.28 91.5407 441.62 92.3607 439.6 92.9407L439.64 92.9607ZM425.32 88.0007C426.08 88.0007 426.88 87.8007 427.7 87.3807C428.52 86.9807 429.3 86.4207 430.08 85.7207C429.16 83.5407 428.54 81.0607 428.2 78.2607C426.74 79.1807 425.58 80.3007 424.72 81.6607C423.86 83.0207 423.44 84.4807 423.44 86.0407C423.44 86.7407 423.58 87.2407 423.88 87.5407C424.18 87.8407 424.66 87.9807 425.3 87.9807L425.32 88.0007ZM433.14 81.9207C433.64 81.0607 434.1 80.1407 434.48 79.1807C434.88 78.2207 435.2 77.2207 435.44 76.2007C434.88 76.2207 434.34 76.2807 433.78 76.3407C433.22 76.4207 432.7 76.5207 432.2 76.6607C432.28 77.6007 432.38 78.5007 432.54 79.3607C432.7 80.2207 432.9 81.0807 433.14 81.9207Z" fill="#010F32"/>
<path d="M464.48 93.5802C463.9 93.5802 463.42 93.3802 463 92.9602C462.6 92.5602 462.38 92.0602 462.38 91.4802V82.2002C461.7 82.8202 461.02 83.4802 460.3 84.1402C459.6 84.8202 458.88 85.4802 458.2 86.1602C457.76 86.5602 457.26 86.7802 456.68 86.7802C456.1 86.7802 455.6 86.5802 455.18 86.1602C454.8 85.7202 454.6 85.2202 454.62 84.6202C454.62 84.0202 454.86 83.5202 455.28 83.1402C456.4 82.0802 457.56 81.0202 458.76 79.9602C459.94 78.9002 461.16 77.8802 462.38 76.9202V72.1602C461.98 72.2402 461.44 72.3402 460.8 72.4802C460.16 72.6202 459.52 72.7602 458.9 72.9202C458.28 73.0602 457.78 73.1802 457.42 73.2402C456.84 73.3602 456.3 73.2602 455.8 72.9602C455.3 72.6402 454.98 72.2002 454.86 71.6202C454.74 71.0202 454.84 70.4602 455.14 69.9602C455.46 69.4602 455.9 69.1402 456.48 69.0202C456.68 68.9802 457.02 68.9002 457.52 68.8202C458.02 68.7402 458.58 68.6402 459.22 68.5202C459.84 68.4002 460.44 68.3002 461.02 68.2002C461.6 68.1002 462.06 68.0202 462.38 67.9402V62.7602C462.38 62.1802 462.58 61.7002 463 61.2802C463.4 60.8802 463.9 60.6602 464.48 60.6602C465.06 60.6602 465.54 60.8602 465.96 61.2802C466.36 61.6802 466.58 62.1802 466.58 62.7602V67.9402C467.3 68.1802 467.9 68.6402 468.38 69.3002C468.7 69.7602 468.84 70.3002 468.82 70.9202C468.8 71.5402 468.66 72.2202 468.4 72.9802C469.56 72.3802 470.7 71.9202 471.86 71.5802C473.02 71.2402 474.14 71.0802 475.24 71.0802C478.32 71.0802 480.66 71.8602 482.32 73.4402C483.96 75.0202 484.78 77.1002 484.78 79.7202C484.78 81.3802 484.38 82.9402 483.62 84.4402C482.84 85.9202 481.54 87.2202 479.76 88.3002C477.96 89.3802 475.54 90.1402 472.52 90.6002C471.92 90.7002 471.38 90.5602 470.92 90.2202C470.46 89.8802 470.16 89.4002 470.04 88.8002C469.94 88.2002 470.08 87.6602 470.44 87.2002C470.8 86.7402 471.26 86.4402 471.84 86.3602C475.04 85.8602 477.28 85.0402 478.58 83.9202C479.88 82.8002 480.52 81.4002 480.52 79.7202C480.52 78.3002 480.08 77.2002 479.18 76.4202C478.3 75.6402 476.96 75.2602 475.18 75.2602C473.72 75.2602 472.28 75.5802 470.86 76.2202C469.44 76.8602 468.02 77.7002 466.58 78.7602V91.5002C466.58 92.0802 466.38 92.5602 465.96 92.9802C465.56 93.3802 465.06 93.6002 464.48 93.6002V93.5802Z" fill="#010F32"/>
<path d="M515.54 90.8005C512.26 91.1605 509.38 91.1805 506.96 90.8805C504.52 90.5605 502.54 89.7205 501 88.3605C499.96 87.4005 499.2 86.2405 498.7 84.8605C498.2 83.4805 497.94 81.7805 497.94 79.7405V76.4205C496.78 76.5605 495.7 76.7205 494.66 76.8805C493.62 77.0405 492.66 77.2005 491.78 77.3605C491.2 77.4605 490.68 77.3405 490.2 77.0005C489.72 76.6605 489.44 76.2005 489.34 75.6405C489.24 75.0805 489.34 74.5405 489.68 74.0605C490 73.5805 490.46 73.3005 491.02 73.2005C492 73.0605 493.08 72.9005 494.24 72.7405C495.4 72.5805 496.64 72.4405 497.94 72.2805V66.2605C497.94 65.6605 498.14 65.1405 498.56 64.7205C498.98 64.3005 499.48 64.1005 500.1 64.1005C500.72 64.1005 501.2 64.3005 501.62 64.7205C502.04 65.1405 502.24 65.6605 502.24 66.2605V71.8405C503.48 71.7205 504.76 71.6205 506.04 71.5205C507.32 71.4205 508.58 71.3205 509.84 71.2405C509.96 70.2005 510.06 69.2205 510.1 68.2605C510.16 67.3005 510.2 66.4005 510.22 65.5605C510.24 64.9605 510.46 64.4605 510.88 64.0405C511.3 63.6205 511.8 63.4405 512.4 63.4605C513 63.4805 513.52 63.7005 513.94 64.1205C514.36 64.5405 514.56 65.0605 514.54 65.6605C514.52 66.4805 514.48 67.3405 514.42 68.2405C514.36 69.1405 514.28 70.0605 514.18 71.0005C515.24 70.9205 516.26 70.8805 517.28 70.8405C518.3 70.8005 519.24 70.7805 520.16 70.7605C520.76 70.7605 521.26 70.9605 521.68 71.3805C522.1 71.8005 522.3 72.3005 522.3 72.8805C522.3 73.4605 522.1 73.9605 521.68 74.3805C521.26 74.8005 520.76 75.0005 520.16 75.0005C518.16 74.9605 516.04 75.0005 513.76 75.1005C513.6 76.2805 513.4 77.4205 513.2 78.5405C513 79.6605 512.78 80.6605 512.56 81.5805C512.42 82.1605 512.1 82.6005 511.58 82.9005C511.08 83.2005 510.54 83.3005 509.96 83.1805C509.36 83.0405 508.9 82.7205 508.62 82.2005C508.32 81.7005 508.22 81.1605 508.36 80.5805C508.56 79.7805 508.74 78.9405 508.9 78.0605C509.06 77.1805 509.22 76.2805 509.34 75.3605C508.16 75.4405 506.98 75.5205 505.8 75.6405C504.62 75.7405 503.42 75.8605 502.26 75.9805V79.7605C502.26 81.1005 502.4 82.2205 502.7 83.1005C502.98 83.9805 503.42 84.7005 504 85.2205C504.92 86.0405 506.24 86.5405 507.96 86.7205C509.68 86.9005 512.08 86.8405 515.16 86.5205C515.76 86.4405 516.3 86.6005 516.76 86.9805C517.22 87.3605 517.48 87.8605 517.54 88.4605C517.62 89.0605 517.46 89.6005 517.1 90.0605C516.72 90.5205 516.22 90.7805 515.6 90.8405L515.54 90.8005Z" fill="#010F32"/>
<path d="M531.34 83.1806C530.88 83.5606 530.36 83.7606 529.78 83.7606C529.2 83.7606 528.7 83.5606 528.28 83.1406C527.84 82.7006 527.64 82.1806 527.64 81.5806C527.64 80.9806 527.86 80.4806 528.32 80.0806C529.68 78.8606 530.9 77.4606 531.94 75.9006C532.98 74.3406 533.84 72.7206 534.52 71.0406C533.88 71.1406 533.24 71.2006 532.62 71.2606C532 71.3206 531.42 71.3606 530.88 71.4006C530.26 71.4206 529.72 71.2406 529.3 70.8606C528.86 70.4806 528.64 69.9406 528.62 69.2806C528.6 68.6806 528.78 68.1806 529.16 67.7806C529.54 67.3806 530.08 67.1806 530.74 67.1606C531.5 67.1206 532.32 67.0406 533.16 66.9406C534.02 66.8406 534.88 66.7406 535.74 66.6206C535.86 66.0606 535.94 65.5006 535.98 64.9206C536.02 64.3406 536.04 63.8006 536.04 63.2606C536.04 62.6606 536.24 62.1406 536.66 61.7206C537.08 61.3006 537.58 61.1006 538.18 61.1006C538.78 61.1006 539.3 61.3006 539.72 61.7206C540.14 62.1406 540.36 62.6606 540.34 63.2606C540.32 64.0806 540.24 64.9206 540.12 65.8206C540.28 65.7806 540.44 65.7406 540.6 65.7006C540.76 65.6606 540.9 65.6406 541.06 65.6206C541.66 65.4806 542.22 65.5406 542.72 65.8406C543.22 66.1406 543.54 66.5806 543.66 67.2006C543.78 67.8006 543.66 68.3406 543.36 68.8206C543.04 69.3006 542.58 69.6206 542.02 69.7606C541.64 69.8606 541.2 69.9606 540.7 70.0406C540.2 70.1406 539.7 70.2406 539.18 70.3206C538.44 72.8406 537.4 75.2206 536.06 77.4406C534.72 79.6806 533.18 81.5806 531.4 83.1606L531.34 83.1806ZM540.92 93.1606C539.1 93.1606 537.6 92.7006 536.4 91.7806C535.22 90.8606 534.62 89.5006 534.62 87.7006C534.62 86.0606 535.2 84.7606 536.36 83.8006C537.52 82.8406 539.06 82.3406 540.98 82.3406C541.7 82.3406 542.4 82.3806 543.06 82.4406V75.6406C543.06 75.0206 543.26 74.5006 543.68 74.1006C544.08 73.7006 544.6 73.4806 545.2 73.4806C545.8 73.4806 546.3 73.6806 546.72 74.1006C547.12 74.5006 547.34 75.0206 547.34 75.6406V83.4206C548.64 83.8206 549.86 84.3206 551.04 84.9206C552.2 85.5006 553.22 86.1206 554.12 86.7406C554.6 87.1006 554.88 87.5806 554.98 88.1606C555.08 88.7406 554.94 89.2806 554.58 89.7606C554.24 90.2406 553.78 90.5206 553.2 90.6206C552.62 90.7206 552.08 90.6006 551.6 90.2606C551.02 89.8006 550.36 89.3606 549.64 88.9406C548.9 88.5206 548.14 88.1206 547.36 87.7606C547.22 89.5206 546.6 90.8406 545.52 91.7806C544.44 92.7006 542.92 93.1606 540.94 93.1606H540.92ZM540.88 89.2006C541.68 89.2006 542.24 89.0206 542.58 88.6606C542.92 88.3006 543.08 87.7406 543.08 87.0006V86.3806C542.7 86.2806 542.32 86.2206 541.94 86.1806C541.56 86.1406 541.22 86.1206 540.88 86.1206C540.14 86.1206 539.58 86.2606 539.24 86.5406C538.9 86.8206 538.72 87.2006 538.72 87.6806C538.72 88.1606 538.88 88.5006 539.22 88.7806C539.56 89.0606 540.1 89.2006 540.88 89.2006ZM552.12 73.6406C551.36 73.1606 550.44 72.6606 549.4 72.1606C548.36 71.6606 547.44 71.2806 546.64 71.0406C546.08 70.8406 545.66 70.5206 545.34 70.0406C545.02 69.5606 544.94 69.0406 545.08 68.4606C545.2 67.8806 545.52 67.4406 546.04 67.1206C546.56 66.8006 547.1 66.7406 547.68 66.9006C548.4 67.1006 549.2 67.3606 550.06 67.7206C550.92 68.0806 551.76 68.4606 552.56 68.8806C553.36 69.3006 554.04 69.6806 554.56 70.0406C555.04 70.3606 555.34 70.8006 555.44 71.4006C555.54 72.0006 555.44 72.5606 555.1 73.0606C554.78 73.5406 554.34 73.8406 553.74 73.9406C553.14 74.0406 552.6 73.9406 552.1 73.6406H552.12Z" fill="#010F32"/>
<path d="M576.56 92.3407C574.66 92.3407 573.1 92.2007 571.84 91.9407C570.6 91.6807 569.62 91.2407 568.9 90.6007C568.2 89.9807 567.7 89.1207 567.4 88.0407C567.12 86.9607 566.96 85.6207 566.96 84.0007V74.2007H563C562.48 74.2007 562 74.0007 561.62 73.6007C561.22 73.2007 561.02 72.7407 561.02 72.1807C561.02 71.6207 561.22 71.1607 561.62 70.7607C562.02 70.3607 562.48 70.1607 563 70.1607H566.96V64.3007C566.96 63.6207 567.18 63.1007 567.6 62.7207C568.02 62.3407 568.52 62.1407 569.12 62.1407C569.72 62.1407 570.22 62.3407 570.66 62.7207C571.08 63.1007 571.28 63.6407 571.28 64.3007V70.1607H575.82V63.3207C575.82 62.7007 576.02 62.2007 576.44 61.8007C576.84 61.4207 577.34 61.2207 577.92 61.2207C578.5 61.2207 578.98 61.4207 579.4 61.8007C579.8 62.1807 580.02 62.6807 580.02 63.3207V70.1607H584.66V64.2207C584.66 63.6007 584.88 63.1007 585.3 62.7007C585.72 62.3007 586.22 62.1207 586.8 62.1207C587.38 62.1207 587.88 62.3207 588.32 62.7007C588.76 63.0807 588.96 63.5807 588.96 64.2207V70.1607H592.96C593.52 70.1607 593.98 70.3607 594.38 70.7607C594.78 71.1607 594.98 71.6407 594.98 72.1807C594.98 72.7207 594.78 73.2007 594.38 73.6007C593.98 74.0007 593.5 74.2007 592.96 74.2007H588.96V78.7407C588.96 80.3807 588.76 81.6207 588.36 82.4607C587.96 83.3207 587.28 83.8807 586.32 84.1807C585.36 84.4807 584.04 84.6407 582.36 84.6407C580.68 84.6407 579.36 84.5007 578.42 84.1807C577.48 83.8807 576.8 83.3007 576.42 82.4607C576.04 81.6007 575.84 80.3607 575.84 78.7407V74.2007H571.3V84.0007C571.3 85.1607 571.46 86.0407 571.74 86.6407C572.04 87.2607 572.56 87.6807 573.32 87.9007C574.08 88.1207 575.16 88.2407 576.54 88.2407H590.94C591.5 88.2407 591.98 88.4407 592.38 88.8607C592.78 89.2807 593 89.7407 593 90.3007C593 90.8607 592.8 91.3207 592.38 91.7207C591.98 92.1207 591.5 92.3207 590.94 92.3207H576.54L576.56 92.3407ZM582.36 80.7207C583.28 80.7207 583.88 80.5807 584.2 80.3207C584.52 80.0607 584.66 79.5007 584.66 78.6207V74.2207H580.02V78.6207C580.02 79.4807 580.18 80.0407 580.5 80.3207C580.82 80.5807 581.44 80.7207 582.36 80.7207Z" fill="#010F32"/>
<path d="M618.88 93.7609C618.3 93.7609 617.8 93.5609 617.38 93.1609C616.96 92.7609 616.76 92.2409 616.76 91.6009V81.3009C616.76 80.8009 616.9 80.3609 617.18 80.0009C617.46 79.6409 617.8 79.4009 618.2 79.2809C617.48 78.6809 616.8 78.0609 616.18 77.4209C615.56 76.7809 615 76.1209 614.48 75.4609H612.96C612.02 76.7409 610.88 77.9409 609.54 79.1009H609.9C610.5 79.1409 610.98 79.4009 611.34 79.8609C611.7 80.3209 611.84 80.8409 611.78 81.4009C611.44 84.3609 610.5 86.8409 608.94 88.8409C607.38 90.8409 605.3 92.4009 602.68 93.5409C602.08 93.7809 601.5 93.8409 600.94 93.7009C600.38 93.5609 599.96 93.2209 599.7 92.6809C599.42 92.1009 599.38 91.5609 599.62 91.0609C599.86 90.5609 600.2 90.2009 600.66 90.0209C602.94 89.1409 604.64 88.0009 605.76 86.6009C606.88 85.2009 607.56 83.3009 607.8 80.8809C607.8 80.8009 607.82 80.6809 607.88 80.4809C606.68 81.4009 605.4 82.2409 604.04 83.0209C602.68 83.8009 601.32 84.4809 599.96 85.0809C599.32 85.3409 598.72 85.3809 598.16 85.2009C597.6 85.0209 597.22 84.6609 596.98 84.1409C596.74 83.5809 596.72 83.0609 596.92 82.5809C597.12 82.0809 597.5 81.7409 598.06 81.5609C600.14 80.8009 602 79.9009 603.62 78.9209C605.24 77.9209 606.7 76.7809 608.04 75.4809C606.16 75.4009 604.72 75.1809 603.72 74.7809C602.72 74.3809 602.02 73.6809 601.64 72.7009C601.26 71.7009 601.06 70.3009 601.06 68.4609C601.06 67.0009 601.18 65.8009 601.42 64.9009C601.66 64.0009 602.08 63.2809 602.68 62.7809C603.28 62.2809 604.12 61.9209 605.18 61.7409C606.24 61.5609 607.62 61.4609 609.3 61.4609H618.62C620.3 61.4609 621.68 61.5609 622.76 61.7409C623.84 61.9209 624.68 62.2809 625.28 62.7809C625.88 63.2809 626.3 64.0009 626.54 64.9009C626.78 65.8209 626.9 67.0009 626.9 68.4609C626.9 70.3009 626.7 71.7409 626.28 72.7209C625.86 73.7009 625.14 74.4209 624.1 74.8009C623.06 75.2009 621.54 75.4209 619.58 75.4609C621 76.7809 622.58 77.9009 624.32 78.8009C626.06 79.7009 627.92 80.5009 629.92 81.1809C630.4 81.3409 630.76 81.7009 630.98 82.2609C631.2 82.8209 631.2 83.3609 630.92 83.9209C630.68 84.4409 630.26 84.8209 629.66 85.0409C629.06 85.2609 628.44 85.2409 627.82 84.9609C626.64 84.4609 625.48 83.9009 624.34 83.3009C623.2 82.7009 622.1 82.0609 621.04 81.3609V91.5809C621.04 92.2209 620.82 92.7409 620.42 93.1409C620 93.5409 619.48 93.7409 618.88 93.7409V93.7609ZM605.46 67.0409H611.8V64.7009H609.28C608.3 64.7009 607.54 64.7409 607.02 64.8409C606.5 64.9409 606.12 65.1609 605.88 65.4809C605.66 65.8209 605.52 66.3409 605.46 67.0209V67.0409ZM609.28 72.2209H611.8V69.8809H605.46C605.5 70.5809 605.64 71.1009 605.88 71.4209C606.12 71.7409 606.48 71.9809 607.02 72.0609C607.54 72.1609 608.3 72.2009 609.28 72.2009V72.2209ZM616.12 67.0409H622.46C622.42 66.3409 622.28 65.8209 622.04 65.5009C621.82 65.1609 621.42 64.9409 620.88 64.8609C620.34 64.7609 619.58 64.7209 618.6 64.7209H616.12V67.0609V67.0409ZM616.12 72.2209H618.6C619.58 72.2209 620.34 72.1809 620.88 72.0809C621.42 71.9809 621.8 71.7609 622.04 71.4409C622.28 71.1209 622.4 70.5809 622.46 69.9009H616.12V72.2409V72.2209Z" fill="#010F32"/>
</g>
<defs>
<clipPath id="clip0_420_1832">
<rect width="630.62" height="93.26" fill="white" transform="translate(0.5 0.5)"/>
</clipPath>
</defs>
</svg>
