<svg width="421" height="84" viewBox="0 0 421 84" fill="none" xmlns="http://www.w3.org/2000/svg">
<path d="M16.2999 81.2996C14.8999 81.2996 13.8998 81.2996 12.8998 81.0996C12.0998 80.8996 11.2998 80.4996 10.6998 80.0996C10.0998 79.6996 9.89985 78.8996 9.49985 78.0996C9.29985 77.2996 9.09985 76.2996 9.09985 74.8996V68.4996C9.09985 67.2996 9.29985 66.0996 9.49985 65.2996C9.69985 64.4996 10.0998 63.8996 10.6998 63.2996C11.2998 62.8996 11.8998 62.4996 12.8998 62.2996C13.6998 62.0996 14.8999 62.0996 16.2999 62.0996H18.0999C19.4999 62.0996 20.4998 62.0996 21.4998 62.2996C22.2998 62.4996 23.0998 62.8996 23.6998 63.2996C24.2998 63.6996 24.4998 64.4996 24.8998 65.2996C25.0998 66.0996 25.2999 67.0996 25.2999 68.4996V74.8996C25.2999 76.0996 25.0998 77.2996 24.8998 78.0996C24.6998 78.8996 24.2998 79.4996 23.6998 80.0996C23.0998 80.4996 22.4998 80.8996 21.4998 81.0996C20.6998 81.2996 19.4999 81.2996 18.0999 81.2996H16.2999ZM12.0999 70.0996H21.8998V68.2996C21.8998 67.2996 21.8998 66.4996 21.6998 65.8996C21.4998 65.2996 21.0998 65.0996 20.4998 64.8996C20.0998 64.8996 19.0999 64.6996 18.0999 64.6996H16.2999C15.0999 64.6996 14.2998 64.6996 13.6998 64.8996C13.0998 65.0996 12.6998 65.4996 12.4998 65.8996C12.2998 66.2996 12.2999 67.2996 12.2999 68.2996L12.0999 70.0996ZM16.2999 78.4996H18.0999C19.2999 78.4996 20.0998 78.4996 20.6998 78.2996C21.2998 78.0996 21.6998 77.6996 21.8998 77.2996C22.0998 76.6996 22.0999 75.8996 22.0999 74.8996V72.8996H12.0999V74.8996C12.0999 75.8996 12.0999 76.6996 12.2999 77.2996C12.4999 77.8996 12.8998 78.0996 13.4998 78.2996C14.2998 78.4996 15.0999 78.4996 16.2999 78.4996Z" fill="#010F32"/>
<path d="M41.0998 82.8998C40.6998 82.8998 40.2998 82.6998 40.0998 82.4998C39.8998 82.2998 39.6998 81.8998 39.6998 81.4998V78.6998H36.6998C36.2998 78.6998 36.0998 78.4998 35.6998 78.2998C35.4998 78.0998 35.2998 77.6998 35.2998 77.2998C35.2998 76.8998 35.4998 76.6998 35.6998 76.2998C35.8998 75.8998 36.2998 75.8998 36.6998 75.8998H39.6998V70.0998C39.0998 71.0998 38.2998 72.0998 37.4998 73.0998C36.6998 74.0998 35.8998 75.0998 34.8998 75.8998C33.8998 76.6998 33.0998 77.6998 32.0998 78.2998C31.6998 78.4998 31.4998 78.6998 30.8998 78.6998C30.4998 78.6998 30.0998 78.4998 29.8998 78.2998C29.6998 77.8998 29.4998 77.6998 29.6998 77.2998C29.6998 76.8998 29.8998 76.6998 30.2998 76.2998C31.2998 75.4998 32.2998 74.6998 33.2998 73.6998C34.2998 72.6998 35.2998 71.6998 36.0998 70.6998C36.8998 69.6998 37.6998 68.6998 38.2998 67.6998H31.2998C30.8998 67.6998 30.6998 67.4998 30.2998 67.2998C30.0998 67.0998 29.8998 66.6998 29.8998 66.2998C29.8998 65.8998 30.0998 65.6998 30.2998 65.2998C30.4998 65.0998 30.8998 64.8998 31.2998 64.8998H39.4998V61.6998C39.4998 61.2998 39.6998 60.8998 39.8998 60.6998C40.0998 60.4998 40.4998 60.2998 40.8998 60.2998C41.2998 60.2998 41.6998 60.4998 41.8998 60.6998C42.0998 60.8998 42.2998 61.2998 42.2998 61.6998V64.8998H50.4998C50.8998 64.8998 51.0998 65.0998 51.4998 65.2998C51.6998 65.4998 51.8998 65.8998 51.8998 66.2998C51.8998 66.6998 51.6998 66.8998 51.4998 67.2998C51.2998 67.4998 50.8998 67.6998 50.4998 67.6998H43.4998C44.0998 68.6998 44.8998 69.6998 45.8998 70.6998C46.8998 71.6998 47.6998 72.6998 48.8998 73.6998C49.8998 74.6998 50.8998 75.4998 51.8998 76.2998C52.2998 76.4998 52.2998 76.8998 52.2998 77.2998C52.2998 77.6998 52.2998 78.0998 51.8998 78.2998C51.6998 78.6998 51.2998 78.6998 50.8998 78.8998C50.4998 78.8998 50.0998 78.8998 49.6998 78.4998C48.8998 77.6998 47.8998 76.8998 47.0998 76.0998C46.0998 75.2998 45.2998 74.2998 44.4998 73.2998C43.6998 72.2998 42.8998 71.2998 42.0998 70.0998V75.8998H45.0998C45.4998 75.8998 45.6998 76.0998 46.0998 76.2998C46.4998 76.4998 46.4998 76.8998 46.4998 77.2998C46.4998 77.6998 46.2998 77.8998 46.0998 78.2998C45.8998 78.4998 45.4998 78.6998 45.0998 78.6998H42.4998V81.4998C42.4998 81.8998 42.2998 82.2998 42.0998 82.4998C41.8998 82.6998 41.4998 82.8998 41.0998 82.8998Z" fill="#010F32"/>
<path d="M60.6998 81.6998C60.2998 81.8998 60.0998 82.0998 59.6998 82.0998C59.2998 82.0998 58.8998 81.8998 58.6998 81.4998C58.4998 81.0998 58.2998 80.8998 58.2998 80.4998C58.2998 80.0998 58.4997 79.6998 58.8997 79.4998C59.8997 78.6998 60.8998 77.6998 61.6998 76.4998C62.4998 75.2998 62.8998 74.0998 63.2998 72.6998C63.4998 71.2998 63.4998 69.8998 63.2998 68.4998C63.2998 68.0998 63.2998 67.6998 63.4998 67.2998C63.6998 66.8998 64.0998 66.6998 64.4998 66.6998C64.8998 66.6998 65.2998 66.6998 65.6998 66.8998C66.0998 67.0998 66.2998 67.4998 66.2998 67.8998C66.2998 68.0998 66.2998 68.0998 66.2998 68.2998C66.2998 68.4998 66.2998 68.4998 66.2998 68.6998C67.6998 68.6998 68.8998 68.4998 69.4998 68.2998C70.2998 68.0998 70.6997 67.8998 70.8997 67.6998C71.0997 67.4998 71.2998 67.2998 71.2998 67.0998C71.2998 66.6998 71.0997 66.4998 70.8997 66.2998C70.6997 66.0998 70.2998 66.0998 69.4998 66.0998H56.8997C56.4997 66.0998 56.0997 65.8998 55.8997 65.6998C55.6997 65.4998 55.4998 65.0998 55.4998 64.6998C55.4998 64.2998 55.6997 63.8998 55.8997 63.6998C56.0997 63.4998 56.4997 63.2998 56.8997 63.2998H69.4998C72.6998 63.2998 74.2998 64.4998 74.2998 67.0998C74.2998 68.0998 74.0998 68.8998 73.4998 69.4998C72.8998 70.0998 72.0997 70.6998 70.8997 70.8998C69.6997 71.2998 68.0998 71.4998 66.2998 71.4998C66.0998 73.4998 65.6998 75.4998 64.6998 77.2998C63.6998 79.0998 62.2998 80.4998 60.6998 81.6998Z" fill="#010F32"/>
<path d="M80.8997 77.6998C80.4997 77.6998 80.0997 77.4998 79.8997 77.2998C79.6997 77.0998 79.4998 76.6998 79.4998 76.2998C79.4998 75.8998 79.6997 75.4998 79.8997 75.2998C80.0997 75.0998 80.4997 74.8998 80.8997 74.8998H97.0998C97.4998 74.8998 97.8998 75.0998 98.0998 75.2998C98.2998 75.4998 98.4998 75.8998 98.4998 76.2998C98.4998 76.6998 98.2998 77.0998 98.0998 77.2998C97.8998 77.4998 97.4998 77.6998 97.0998 77.6998H80.8997ZM83.8997 69.0998C83.4997 69.0998 83.0997 68.8998 82.8997 68.6998C82.6997 68.4998 82.4998 68.0998 82.4998 67.6998C82.4998 67.2998 82.6997 66.8998 82.8997 66.6998C83.0997 66.4998 83.4997 66.2998 83.8997 66.2998H94.4998C94.8998 66.2998 95.2998 66.4998 95.4998 66.6998C95.6998 66.8998 95.8997 67.2998 95.8997 67.6998C95.8997 68.0998 95.6998 68.4998 95.4998 68.6998C95.2998 68.8998 94.8998 69.0998 94.4998 69.0998H83.8997Z" fill="#010F32"/>
<path d="M117.1 79.8992C116.7 80.0992 116.3 80.0992 115.9 79.8992C115.5 79.6992 115.3 79.4992 115.1 79.0992C114.9 78.6992 114.5 78.2992 114.3 77.6992C113.9 77.0992 113.5 76.4992 113.1 75.8992C112.7 75.2992 112.1 74.6992 111.7 74.0992C111.3 73.4992 110.9 73.0992 110.5 72.6992C110.3 72.2992 110.1 72.0992 110.1 71.6992C110.1 71.2992 110.3 70.8992 110.5 70.6992C110.9 70.4992 111.1 70.2992 111.5 70.2992C111.9 70.2992 112.3 70.4992 112.5 70.6992C112.7 71.0992 113.1 71.2992 113.3 71.6992C113.7 72.0992 113.9 72.4992 114.3 72.8992C115.5 72.2992 116.5 71.8992 117.3 71.4992C118.1 71.0992 118.5 70.6992 118.7 70.2992C118.9 69.8992 119.1 69.6992 119.1 69.2992C119.1 68.8992 118.9 68.6992 118.7 68.4992C118.5 68.2992 117.9 68.2992 117.3 68.2992L104.5 68.8992C104.1 68.8992 103.7 68.6992 103.5 68.4992C103.1 68.2992 103.1 67.8992 103.1 67.4992C103.1 67.0992 103.3 66.6992 103.5 66.4992C103.7 66.2992 104.1 66.0992 104.5 66.0992L117.3 65.6992C119.1 65.6992 120.3 65.8992 121.1 66.4992C121.9 67.0992 122.3 67.8992 122.5 69.0992C122.5 70.0992 122.3 70.8992 121.9 71.6992C121.5 72.4992 120.7 73.0992 119.7 73.6992C118.7 74.2992 117.5 74.8992 116.3 75.4992C116.7 76.0992 116.9 76.4992 117.3 76.8992C117.5 77.2992 117.9 77.6992 118.1 78.0992C118.3 78.4992 118.3 78.8992 118.1 79.2992C117.9 79.2992 117.5 79.6992 117.1 79.8992Z" fill="#010F32"/>
<path d="M127.5 79.2996C127.1 79.4996 126.7 79.4996 126.3 79.2996C125.9 79.0996 125.7 78.8996 125.5 78.4996C125.3 78.0996 125.3 77.6996 125.5 77.2996C125.7 76.8996 125.9 76.6996 126.3 76.4996C127.5 75.8996 128.7 75.0996 129.3 74.2996C129.9 73.4996 130.5 72.4996 130.9 71.2996C131.3 70.0996 131.3 68.8996 131.3 67.6996C131.3 67.2996 131.5 66.8996 131.7 66.6996C131.9 66.4996 132.3 66.2996 132.7 66.2996C133.1 66.2996 133.5 66.4996 133.7 66.6996C133.9 66.8996 134.1 67.2996 134.1 67.6996C134.1 70.4996 133.5 72.8996 132.3 74.6996C131.3 76.6996 129.7 78.2996 127.5 79.2996ZM143.3 77.6996C141.9 78.2996 140.7 78.4996 139.7 78.2996C138.7 78.0996 137.9 77.8996 137.3 77.0996C136.7 76.4996 136.5 75.2996 136.5 74.0996V66.4996C136.5 66.0996 136.7 65.6996 136.9 65.4996C137.1 65.2996 137.5 65.0996 137.9 65.0996C138.3 65.0996 138.7 65.2996 138.9 65.4996C139.1 65.6996 139.3 66.0996 139.3 66.4996V73.6996C139.3 75.2996 140.3 75.6996 142.1 74.8996C142.9 74.6996 143.7 74.2996 144.5 73.8996C145.3 73.4996 146.1 73.0996 146.7 72.8996C147.1 72.6996 147.5 72.6996 147.9 72.8996C148.3 73.0996 148.5 73.2996 148.7 73.6996C148.9 74.0996 148.9 74.4996 148.9 74.8996C148.7 75.2996 148.5 75.4996 148.1 75.6996C147.3 76.0996 146.5 76.4996 145.7 76.6996C144.9 77.0996 144.1 77.2996 143.3 77.6996Z" fill="#010F32"/>
<path d="M159.7 81.9C159.3 81.9 158.9 81.7 158.7 81.5C158.5 81.3 158.3 80.9 158.3 80.5V63.9C158.3 63.5 158.5 63.1 158.7 62.9C158.9 62.7 159.3 62.5 159.7 62.5C160.1 62.5 160.5 62.7 160.7 62.9C160.9 63.1 161.1 63.5 161.1 63.9V69.7C161.3 69.3 161.5 69.1 161.9 69.1C162.3 68.9 162.7 69.1 162.9 69.3C163.9 69.7 164.9 70.3 165.7 71.1C166.7 71.7 167.5 72.3 168.3 72.9C168.7 73.1 168.7 73.5 168.9 73.9C169.1 74.3 168.9 74.7 168.5 75.1C168.3 75.5 167.9 75.5 167.5 75.7C167.1 75.7 166.7 75.7 166.3 75.3C165.9 74.9 165.3 74.5 164.7 74.1C164.1 73.7 163.5 73.3 162.9 72.9C162.3 72.5 161.7 72.3 161.3 71.9C161.1 71.7 160.9 71.5 160.7 71.3V80.5C160.7 80.9 160.5 81.3 160.3 81.5C160.1 81.7 160.1 81.9 159.7 81.9Z" fill="#010F32"/>
<path d="M181.3 81.2992C180.9 81.4992 180.5 81.2992 180.1 81.2992C179.7 81.0992 179.5 80.8992 179.3 80.4992C179.1 80.0992 179.1 79.6992 179.3 79.2992C179.5 78.8992 179.7 78.6992 180.1 78.4992C182.1 77.8992 183.9 76.8992 185.3 75.8992C186.7 74.8992 187.9 73.4992 188.7 71.8992C189.3 70.6992 188.9 70.0992 187.5 70.0992H178.7C178.3 70.0992 177.9 69.8992 177.7 69.6992C177.5 69.4992 177.3 69.0992 177.3 68.6992C177.3 68.2992 177.5 67.8992 177.7 67.6992C177.9 67.4992 178.3 67.2992 178.7 67.2992H187.5C188.9 67.2992 189.9 67.4992 190.7 68.0992C191.5 68.6992 191.9 69.2992 191.9 70.0992C191.9 70.8992 191.7 72.0992 191.3 73.0992C190.5 74.8992 189.1 76.6992 187.3 78.0992C185.7 79.4992 183.7 80.6992 181.3 81.2992ZM180.5 65.4992C180.1 65.4992 179.7 65.2992 179.5 65.0992C179.3 64.8992 179.1 64.4992 179.1 64.0992C179.1 63.6992 179.3 63.2992 179.5 63.0992C179.7 62.8992 180.1 62.6992 180.5 62.6992H189.7C190.1 62.6992 190.5 62.8992 190.7 63.0992C190.9 63.2992 191.1 63.6992 191.1 64.0992C191.1 64.4992 190.9 64.8992 190.7 65.0992C190.5 65.2992 190.1 65.4992 189.7 65.4992H180.5Z" fill="#010F32"/>
<path d="M201.5 80.2994C201.1 80.4994 200.7 80.4994 200.3 80.2994C199.9 80.0994 199.7 79.8994 199.5 79.4994C199.3 79.0994 199.3 78.6994 199.5 78.2994C199.7 77.8994 199.9 77.6994 200.3 77.4994C202.5 76.2994 204.7 75.0994 206.5 73.4994C208.3 71.8994 209.7 70.2994 210.9 68.4994C211.7 67.2994 211.3 66.6994 209.7 66.6994H203.1C202.7 66.6994 202.3 66.4994 202.1 66.2994C201.9 66.0994 201.7 65.6994 201.7 65.2994C201.7 64.8994 201.9 64.4994 202.1 64.2994C202.3 64.0994 202.7 63.8994 203.1 63.8994H209.7C211.1 63.8994 212.3 64.0994 213.1 64.6994C213.9 65.2994 214.3 65.8994 214.3 66.8994C214.3 67.6994 214.1 68.8994 213.5 69.8994C213.1 70.4994 212.7 71.0994 212.3 71.8994C213.1 72.4994 213.7 73.0994 214.5 73.8994C215.3 74.6994 216.1 75.2994 216.7 76.0994C217.3 76.8994 217.9 77.2994 218.5 77.8994C218.7 78.0994 218.9 78.4994 218.9 78.8994C218.9 79.2994 218.7 79.6994 218.5 79.8994C218.3 80.0994 217.9 80.2994 217.5 80.2994C217.1 80.2994 216.7 80.0994 216.5 79.8994C216.1 79.4994 215.5 78.8994 214.9 78.2994C214.3 77.6994 213.5 76.8994 212.9 76.0994C212.1 75.2994 211.5 74.6994 210.7 74.0994C209.5 75.2994 208.1 76.4994 206.7 77.6994C204.7 78.6994 203.1 79.4994 201.5 80.2994Z" fill="#010F32"/>
<path d="M231.7 81.9C231.3 81.9 230.9 81.7 230.7 81.5C230.5 81.3 230.3 80.9 230.3 80.5V63.9C230.3 63.5 230.5 63.1 230.7 62.9C230.9 62.7 231.3 62.5 231.7 62.5C232.1 62.5 232.5 62.7 232.7 62.9C232.9 63.1 233.1 63.5 233.1 63.9V69.7C233.3 69.3 233.5 69.1 233.9 69.1C234.3 68.9 234.7 69.1 234.9 69.3C235.9 69.7 236.9 70.3 237.7 71.1C238.7 71.7 239.5 72.3 240.3 72.9C240.7 73.1 240.7 73.5 240.9 73.9C240.9 74.3 240.9 74.7 240.5 75.1C240.3 75.5 239.9 75.5 239.5 75.7C239.1 75.7 238.7 75.7 238.3 75.3C237.9 74.9 237.3 74.5 236.7 74.1C236.1 73.7 235.5 73.3 234.9 72.9C234.3 72.5 233.7 72.3 233.3 71.9C233.1 71.7 232.9 71.5 232.7 71.3V80.5C232.7 80.9 232.5 81.3 232.3 81.5C232.5 81.7 232.1 81.9 231.7 81.9Z" fill="#010F32"/>
<path d="M250.499 82.9C250.099 82.9 249.899 82.7 249.699 82.5C249.499 82.3 249.299 81.9 249.299 81.7V73.7C249.099 74.1 248.899 74.7 248.699 75.1C248.499 75.5 248.299 75.9 248.099 76.3C247.899 76.7 247.699 76.7 247.299 76.9C246.899 76.9 246.699 76.9 246.299 76.7C246.099 76.5 245.899 76.3 245.899 75.9C245.899 75.5 245.899 75.3 246.099 75.1C246.299 74.7 246.699 74.1 246.899 73.5C247.299 72.9 247.499 72.3 247.899 71.5C248.299 70.7 248.499 70.1 248.699 69.5C248.899 68.9 249.099 68.3 249.299 67.9V67.7H247.099C246.699 67.7 246.499 67.5 246.299 67.3C246.099 67.1 245.899 66.9 245.899 66.5C245.899 66.1 246.099 65.9 246.299 65.7C246.499 65.5 246.699 65.3 247.099 65.3H249.299V61.9C249.299 61.5 249.499 61.3 249.699 60.9C249.899 60.7 250.299 60.5 250.499 60.5C250.899 60.5 251.099 60.7 251.299 60.9C251.499 61.1 251.699 61.5 251.699 61.9V65.3H253.299C253.699 65.3 253.899 65.5 254.099 65.7C254.299 65.9 254.499 66.3 254.499 66.5C254.499 66.9 254.299 67.1 254.099 67.3C253.899 67.5 253.699 67.7 253.299 67.7H251.699V69.3C251.899 69.5 252.299 69.9 252.499 70.5C252.899 70.9 253.299 71.5 253.499 71.9C253.899 72.3 254.099 72.7 254.299 72.9C254.499 73.1 254.699 73.5 254.499 73.7C254.499 74.1 254.299 74.3 254.099 74.5C253.899 74.7 253.499 74.9 253.299 74.7C252.899 74.7 252.699 74.5 252.499 74.3C252.299 74.1 252.299 73.9 252.099 73.7C251.899 73.5 251.699 73.1 251.499 72.9V81.7C251.499 82.1 251.299 82.3 251.099 82.5C251.099 82.9 250.699 82.9 250.499 82.9ZM254.899 80.5C254.499 80.7 254.299 80.7 253.899 80.7C253.499 80.7 253.299 80.3 253.099 80.1C252.899 79.7 252.899 79.5 253.099 79.1C253.299 78.7 253.499 78.5 253.899 78.3C254.299 78.1 254.699 77.9 255.099 77.7C255.499 77.5 256.099 77.3 256.499 76.9C256.899 76.7 257.299 76.5 257.699 76.3C257.899 76.1 258.299 76.1 258.499 76.3C258.699 76.3 259.099 76.5 259.099 76.9C259.499 77.5 259.299 78.1 258.499 78.5C258.099 78.7 257.899 78.9 257.299 79.3C256.899 79.5 256.299 79.9 255.899 80.1C255.699 80.1 255.299 80.3 254.899 80.5ZM258.499 82.9C258.099 82.9 257.699 82.7 257.499 82.5C257.299 82.3 257.099 81.9 257.099 81.5C257.099 81.1 257.099 80.7 257.499 80.5C257.899 80.3 258.099 80.1 258.499 80.1C258.899 80.1 259.299 79.9 259.299 79.9C259.499 79.7 259.499 79.5 259.499 79.1V72.1H254.699C254.299 72.1 254.099 71.9 253.899 71.7C253.699 71.5 253.499 71.3 253.499 70.9C253.499 70.5 253.699 70.3 253.899 70.1C254.099 69.9 254.299 69.7 254.699 69.7H259.499V68.7H255.899C255.699 68.7 255.499 68.7 255.299 68.5C255.099 68.3 255.099 68.1 255.099 67.7C255.099 67.5 255.099 67.1 255.299 67.1C255.499 67.1 255.699 66.9 255.899 66.9H259.499V65.7H255.099C254.899 65.7 254.499 65.7 254.499 65.5C254.299 65.3 254.299 65.1 254.299 64.7C254.299 64.5 254.299 64.1 254.499 63.9C254.699 63.7 254.899 63.7 255.099 63.7H257.299C257.099 63.5 257.099 63.1 256.899 62.9C256.699 62.7 256.699 62.5 256.499 62.3C256.299 62.1 256.299 61.7 256.299 61.5C256.299 61.1 256.499 60.9 256.899 60.7C257.299 60.5 257.499 60.5 257.899 60.5C258.299 60.5 258.499 60.7 258.699 61.1C258.699 61.3 258.899 61.3 259.099 61.7C259.299 62.1 259.299 62.3 259.499 62.5C259.699 62.7 259.699 62.9 259.899 63.1C259.899 63.3 260.099 63.5 260.099 63.7H261.899C262.099 63.5 262.099 63.3 262.299 62.9C262.499 62.5 262.699 62.3 262.699 61.9C262.899 61.5 262.899 61.3 263.099 61.1C263.299 60.7 263.499 60.5 263.899 60.5C264.299 60.3 264.499 60.5 264.899 60.5C265.299 60.7 265.499 60.9 265.499 61.1C265.699 61.5 265.499 61.7 265.499 61.9C265.499 62.1 265.299 62.3 265.099 62.5C264.899 62.7 264.699 63.1 264.499 63.3H266.899C267.099 63.3 267.499 63.5 267.499 63.5C267.699 63.7 267.699 63.9 267.699 64.3C267.699 64.5 267.699 64.9 267.499 65.1C267.299 65.3 267.099 65.3 266.899 65.3H262.299V66.7H265.699C265.899 66.7 266.299 66.7 266.299 66.9C266.499 67.1 266.499 67.3 266.499 67.5C266.499 67.7 266.499 68.1 266.299 68.3C266.099 68.5 265.699 68.5 265.499 68.5H262.099V69.7H267.099C267.499 69.7 267.699 69.9 267.899 70.1C268.099 70.3 268.299 70.5 268.299 70.9C268.299 71.3 268.099 71.5 267.899 71.7C267.699 71.9 267.499 72.1 267.099 72.1H262.099V74.1C262.499 74.5 262.899 74.9 263.499 75.3C263.699 74.9 264.099 74.5 264.499 74.1C264.899 73.7 265.099 73.3 265.299 73.1C265.499 72.9 265.699 72.7 266.099 72.5C266.499 72.5 266.699 72.5 267.099 72.7C267.299 72.9 267.499 73.1 267.699 73.5C267.699 73.9 267.699 74.1 267.499 74.3C267.299 74.5 267.099 74.9 266.699 75.3C266.299 75.7 265.899 76.1 265.699 76.5C266.299 76.9 266.699 77.3 267.299 77.7C267.699 78.1 268.099 78.3 268.499 78.5C268.699 78.7 268.899 78.9 269.099 79.3C269.099 79.7 269.099 79.9 268.899 80.3C268.699 80.7 268.299 80.9 268.099 80.9C267.699 80.9 267.499 80.9 267.099 80.7C266.699 80.5 266.299 80.1 265.699 79.7C265.099 79.3 264.699 78.9 264.099 78.5C263.699 78.1 263.099 77.7 262.699 77.3V79.5C262.699 80.7 262.499 81.7 261.899 82.3C261.299 82.9 259.899 82.9 258.499 82.9ZM258.299 75.7C258.099 75.9 257.699 76.1 257.499 76.1C257.099 76.1 256.899 75.9 256.699 75.7C256.499 75.5 256.299 75.3 255.899 74.9C255.499 74.5 255.299 74.3 255.099 74.1C254.899 73.9 254.699 73.7 254.899 73.3C254.899 72.9 255.099 72.7 255.299 72.5C255.499 72.3 255.899 72.1 256.099 72.1C256.299 72.1 256.699 72.3 256.899 72.5C257.099 72.5 257.099 72.7 257.499 72.9C257.699 73.1 257.899 73.3 258.099 73.5C258.299 73.7 258.499 73.9 258.499 73.9C258.699 74.1 258.899 74.5 258.899 74.7C258.699 75.1 258.499 75.5 258.299 75.7Z" fill="#010F32"/>
<path d="M274.5 81.0992C274.1 81.0992 273.7 81.0992 273.5 80.8992C273.1 80.6992 272.9 80.2992 272.9 79.8992C272.7 79.0992 272.7 78.0992 272.5 77.0992C272.3 76.0992 272.3 74.8992 272.3 73.6992C272.3 72.4992 272.3 71.2992 272.3 70.0992C272.3 68.8992 272.5 67.6992 272.7 66.6992C272.9 65.4992 272.9 64.4992 273.1 63.6992C273.1 63.2992 273.3 63.0992 273.7 62.6992C274.1 62.2992 274.3 62.4992 274.7 62.4992C275.1 62.4992 275.3 62.8992 275.7 63.0992C276.1 63.2992 275.9 63.6992 275.9 64.0992C275.7 65.2992 275.5 66.4992 275.3 67.6992C275.1 69.0992 275.1 70.2992 275.1 71.6992C275.1 73.0992 275.1 74.2992 275.1 75.6992C275.1 76.8992 275.3 78.0992 275.5 79.2992C275.5 79.6992 275.5 80.0992 275.3 80.2992C275.1 80.8992 274.9 81.0992 274.5 81.0992ZM284.3 79.8992C282.3 79.8992 280.7 79.4992 279.7 78.6992C278.7 77.8992 278.1 76.8992 277.9 75.2992C277.9 74.8992 277.9 74.4992 278.1 74.2992C278.3 73.8992 278.7 73.6992 279.1 73.6992C279.5 73.6992 279.9 73.6992 280.1 73.8992C280.5 74.0992 280.7 74.4992 280.7 74.8992C280.7 75.4992 281.1 76.0992 281.7 76.4992C282.3 76.8992 283.1 77.0992 284.5 77.0992C285.7 77.0992 287.1 76.8992 288.9 76.4992C289.3 76.4992 289.7 76.4992 289.9 76.6992C290.3 76.8992 290.5 77.2992 290.5 77.6992C290.5 78.0992 290.5 78.4992 290.3 78.6992C290.1 79.0992 289.7 79.2992 289.3 79.2992C288.5 79.4992 287.5 79.6992 286.7 79.6992C285.9 79.8992 285.1 79.8992 284.3 79.8992ZM279.9 67.8992C279.5 67.8992 279.1 67.8992 278.9 67.6992C278.7 67.4992 278.3 67.0992 278.3 66.6992C278.3 66.2992 278.3 65.8992 278.5 65.6992C278.7 65.2992 279.1 65.0992 279.5 65.0992C280.3 64.8992 281.3 64.8992 282.5 64.6992C283.7 64.6992 284.7 64.6992 285.7 64.6992C286.7 64.6992 287.7 64.8992 288.5 64.8992C288.9 64.8992 289.3 65.0992 289.5 65.4992C289.7 65.8992 289.7 66.0992 289.7 66.4992C289.7 66.8992 289.5 67.2992 289.1 67.4992C288.7 67.6992 288.5 67.6992 288.1 67.6992C286.9 67.4992 285.5 67.2992 284.1 67.2992C282.5 67.6992 281.1 67.6992 279.9 67.8992Z" fill="#010F32"/>
<path d="M309.1 83.0996C308.7 83.0996 308.3 83.0996 307.9 82.6996C307.5 82.4996 307.5 82.0996 307.3 81.6996C307.3 81.2996 307.3 80.8996 307.5 80.4996C307.7 80.0996 308.1 80.0996 308.5 79.8996C309.1 79.8996 309.5 79.6996 309.7 79.6996C309.9 79.4996 309.9 79.2996 309.9 78.8996V74.2996H294.9C294.5 74.2996 294.3 74.0996 294.1 73.8996C293.9 73.6996 293.7 73.2996 293.7 73.0996C293.7 72.6996 293.9 72.4996 294.1 72.2996C294.3 72.0996 294.5 71.8996 294.9 71.8996H297.1V71.6996V71.4996C297.1 71.0996 297.1 70.8996 297.3 70.6996C297.5 70.4996 297.7 70.2996 298.1 70.2996C300.1 69.8996 301.5 69.2996 302.3 68.4996H299.3C298.9 68.4996 298.7 68.2996 298.5 68.0996C298.3 67.8996 298.3 67.6996 298.3 67.2996C298.3 66.8996 298.3 66.6996 298.5 66.4996C298.7 66.2996 298.9 66.0996 299.3 66.0996H303.5C303.5 65.8996 303.5 65.8996 303.5 65.6996C303.5 65.4996 303.5 65.4996 303.5 65.2996C303.5 65.0996 303.5 64.8996 303.7 64.6996H298.9C298.3 64.6996 297.9 64.6996 297.7 64.8996C297.5 65.0996 297.3 65.4996 297.3 65.8996V66.6996C297.3 67.0996 297.1 67.4996 296.9 67.6996C296.7 67.8996 296.3 68.0996 295.9 68.0996C295.5 68.0996 295.3 67.8996 294.9 67.6996C294.7 67.4996 294.5 67.0996 294.5 66.6996V65.8996C294.5 64.6996 294.9 63.6996 295.5 63.2996C296.1 62.6996 297.1 62.4996 298.7 62.4996H303.5V61.4996C303.5 61.0996 303.7 60.6996 303.9 60.4996C304.1 60.2996 304.5 60.0996 304.9 60.0996C305.3 60.0996 305.7 60.2996 305.9 60.4996C306.1 60.6996 306.3 61.0996 306.3 61.4996V62.6996H311.1C312.5 62.6996 313.7 62.8996 314.3 63.4996C314.9 64.0996 315.3 64.8996 315.3 66.0996V66.8996C315.3 67.2996 315.1 67.6996 314.9 67.8996C314.7 68.0996 314.3 68.2996 313.9 68.2996C313.5 68.2996 313.3 68.0996 312.9 67.8996C312.5 67.6996 312.5 67.2996 312.5 66.8996V66.0996C312.5 65.6996 312.3 65.2996 312.1 65.0996C311.9 64.8996 311.5 64.8996 310.9 64.8996H305.7C305.9 65.0996 305.9 65.2996 305.9 65.6996C305.9 65.8996 305.9 65.8996 305.9 66.0996C305.9 66.2996 305.9 66.2996 305.9 66.4996H310.9C311.3 66.4996 311.5 66.6996 311.7 66.8996C311.9 67.0996 311.9 67.2996 311.9 67.6996C311.9 68.0996 311.9 68.2996 311.7 68.4996C311.5 68.6996 311.3 68.8996 310.9 68.8996H307.7C308.3 69.2996 308.9 69.6996 309.7 69.8996C310.5 70.0996 311.3 70.2996 312.1 70.4996C312.5 70.4996 312.7 70.6996 312.9 71.0996C313.1 71.2996 313.1 71.6996 312.9 72.0996C312.9 72.0996 312.9 72.2996 312.7 72.4996H314.9C315.3 72.4996 315.5 72.6996 315.7 72.8996C315.9 73.0996 316.1 73.4996 316.1 73.6996C316.1 74.0996 315.9 74.2996 315.7 74.4996C315.5 74.6996 315.3 74.8996 314.9 74.8996H312.7V80.2996C312.7 81.4996 312.3 82.2996 311.7 82.8996C311.3 82.8996 310.3 83.0996 309.1 83.0996ZM301.3 81.4996C300.3 81.4996 299.7 81.2996 299.1 81.2996C298.5 81.0996 298.1 80.6996 297.9 80.2996C297.7 79.8996 297.5 79.2996 297.5 78.4996C297.5 77.6996 297.7 77.0996 297.9 76.6996C298.1 76.2996 298.5 75.8996 299.1 75.6996C299.7 75.4996 300.3 75.4996 301.3 75.4996H303.3C304.3 75.4996 305.1 75.4996 305.5 75.6996C305.9 75.8996 306.3 76.2996 306.7 76.6996C306.9 77.0996 307.1 77.6996 307.1 78.4996C307.1 79.2996 306.9 79.8996 306.7 80.2996C306.5 80.6996 306.1 81.0996 305.5 81.2996C304.9 81.4996 304.3 81.4996 303.3 81.4996H301.3ZM301.5 79.0996H303.1C303.5 79.0996 303.7 79.0996 303.9 78.8996C304.1 78.6996 304.1 78.4996 304.1 78.2996C304.1 77.8996 304.1 77.6996 303.9 77.6996C303.7 77.4996 303.5 77.4996 303.1 77.4996H301.5C301.1 77.4996 300.7 77.4996 300.7 77.6996C300.5 77.8996 300.5 78.0996 300.5 78.2996C300.5 78.6996 300.5 78.8996 300.7 78.8996C300.7 79.0996 300.9 79.0996 301.5 79.0996ZM300.5 71.8996H309.5C308.7 71.4996 307.9 71.0996 307.1 70.6996C306.3 70.0996 305.7 69.4996 305.1 68.6996C304.7 69.4996 304.1 70.0996 303.3 70.4996C302.5 70.8996 301.7 71.6996 300.5 71.8996Z" fill="#010F32"/>
<path d="M323.1 82.8996C322.7 82.8996 322.3 82.6996 322.1 82.4996C321.9 82.2996 321.7 81.8996 321.7 81.4996V70.4996C321.1 71.0996 320.7 71.6996 320.1 72.2996C319.9 72.4996 319.5 72.6996 319.1 72.6996C318.7 72.6996 318.3 72.6996 318.1 72.2996C317.9 72.0996 317.7 71.6996 317.7 71.2996C317.7 70.8996 317.7 70.6996 318.1 70.2996C318.9 69.4996 319.5 68.4996 320.3 67.4996C321.1 66.4996 321.7 65.2996 322.3 64.2996C322.9 63.2996 323.3 62.0996 323.7 61.2996C323.9 60.8996 324.1 60.6996 324.5 60.4996C324.9 60.2996 325.1 60.2996 325.5 60.4996C325.9 60.6996 326.1 60.8996 326.3 61.0996C326.5 61.4996 326.5 61.6996 326.3 62.0996C326.1 62.6996 325.9 63.2996 325.5 63.8996C325.3 64.4996 324.9 65.0996 324.5 65.6996V81.0996C324.5 81.4996 324.3 81.8996 324.1 82.0996C323.9 82.6996 323.5 82.8996 323.1 82.8996ZM332.5 82.6996C332.1 82.6996 331.7 82.4996 331.3 82.2996C331.1 82.0996 330.9 81.6996 330.9 81.2996C330.9 80.8996 331.1 80.4996 331.3 80.2996C331.5 80.0996 331.9 79.8996 332.3 79.8996C333.1 79.8996 333.5 79.6996 333.7 79.4996C333.9 79.2996 333.9 78.8996 333.9 78.4996V69.0996H326.5C326.1 69.0996 325.7 68.8996 325.5 68.6996C325.3 68.4996 325.1 68.0996 325.1 67.6996C325.1 67.2996 325.3 67.0996 325.5 66.6996C325.7 66.4996 326.1 66.2996 326.5 66.2996H333.9V62.2996C333.9 61.8996 334.1 61.4996 334.3 61.2996C334.5 61.0996 334.9 60.8996 335.3 60.8996C335.7 60.8996 336.1 61.0996 336.3 61.2996C336.5 61.4996 336.7 61.8996 336.7 62.2996V66.2996H338.9C339.3 66.2996 339.7 66.4996 339.9 66.6996C340.1 66.8996 340.3 67.2996 340.3 67.6996C340.3 68.0996 340.1 68.2996 339.9 68.6996C339.7 68.8996 339.3 69.0996 338.9 69.0996H336.7V79.0996C336.7 80.0996 336.5 80.8996 336.3 81.4996C336.1 82.0996 335.5 82.4996 334.9 82.6996C334.5 82.4996 333.7 82.6996 332.5 82.6996ZM331.5 76.0996C331.1 76.2996 330.7 76.4996 330.3 76.2996C329.9 76.2996 329.7 76.0996 329.3 75.6996C329.1 75.4996 328.9 75.0996 328.7 74.6996C328.5 74.2996 328.1 73.8996 327.9 73.4996C327.7 73.0996 327.3 72.8996 327.1 72.4996C326.9 72.2996 326.7 71.8996 326.9 71.4996C326.9 71.0996 327.1 70.8996 327.5 70.4996C327.9 70.2996 328.1 70.0996 328.5 70.0996C328.9 70.0996 329.1 70.2996 329.5 70.4996C329.7 70.6996 329.9 71.0996 330.3 71.4996C330.7 71.8996 330.9 72.2996 331.3 72.6996C331.5 73.0996 331.9 73.4996 331.9 73.6996C332.1 74.0996 332.3 74.4996 332.1 74.8996C332.1 75.4996 331.9 75.8996 331.5 76.0996Z" fill="#010F32"/>
<path d="M353.7 81.8992C351.7 81.8992 350.3 81.4992 349.1 80.4992C348.1 79.4992 347.5 78.0992 347.5 75.8992V63.0992C347.5 62.6992 347.7 62.2992 347.9 62.0992C348.1 61.8992 348.5 61.6992 348.9 61.6992C349.3 61.6992 349.7 61.8992 349.9 62.0992C350.1 62.2992 350.3 62.6992 350.3 63.0992V75.8992C350.3 77.0992 350.5 77.8992 351.1 78.2992C351.7 78.6992 352.5 78.8992 353.5 78.8992C354.5 78.8992 355.5 78.6992 356.3 78.0992C357.1 77.4992 357.9 76.6992 358.5 75.4992C358.7 75.0992 358.9 74.8992 359.3 74.6992C359.7 74.4992 360.1 74.4992 360.5 74.6992C360.9 74.8992 361.1 75.0992 361.3 75.4992C361.5 75.8992 361.3 76.2992 361.3 76.6992C360.5 78.2992 359.5 79.4992 358.3 80.2992C356.7 81.2992 355.5 81.8992 353.7 81.8992Z" fill="#010F32"/>
<path d="M374.5 82.2992C373.1 82.2992 372.1 81.8992 371.3 81.2992C370.5 80.6992 370.1 79.6992 370.1 78.4992C370.1 77.4992 370.5 76.4992 371.3 75.8992C372.1 75.2992 373.1 74.8992 374.5 74.8992C374.9 74.8992 375.5 74.8992 375.9 74.8992V72.0992C374.3 72.0992 372.7 72.0992 371.5 72.0992C371.1 72.0992 370.7 71.8992 370.5 71.6992C370.3 71.4992 370.1 71.0992 370.1 70.6992C370.1 70.2992 370.3 69.8992 370.5 69.6992C370.7 69.4992 371.1 69.2992 371.5 69.2992C372.1 69.2992 372.7 69.2992 373.5 69.2992C374.3 69.2992 374.9 69.2992 375.7 69.2992C375.7 68.8992 375.7 68.4992 375.7 68.0992C375.7 67.6992 375.7 67.2992 375.7 66.8992C374.9 66.8992 374.1 66.8992 373.5 66.8992C372.9 66.8992 372.1 66.8992 371.5 66.8992C371.1 66.8992 370.7 66.6992 370.5 66.4992C370.3 66.2992 370.1 65.8992 370.1 65.4992C370.1 65.0992 370.3 64.6992 370.5 64.4992C370.7 64.2992 371.1 64.0992 371.5 64.0992C372.7 64.0992 374.1 64.2992 375.5 64.0992V62.0992C375.5 61.6992 375.7 61.2992 375.9 61.0992C376.1 60.8992 376.5 60.6992 376.9 60.6992C377.3 60.6992 377.7 60.8992 377.9 61.0992C378.1 61.2992 378.3 61.6992 378.3 62.0992C378.3 62.2992 378.3 62.6992 378.3 63.0992C378.3 63.4992 378.3 63.6992 378.3 64.0992C378.9 64.0992 379.5 64.0992 380.1 63.8992C380.7 63.8992 381.3 63.6992 381.7 63.6992C382.1 63.6992 382.5 63.6992 382.7 63.8992C383.1 64.0992 383.1 64.4992 383.3 64.8992C383.3 65.2992 383.3 65.6992 383.1 65.8992C382.9 66.2992 382.5 66.2992 382.1 66.4992C381.5 66.4992 380.9 66.6992 380.3 66.6992C379.7 66.6992 378.9 66.6992 378.3 66.8992C378.3 67.2992 378.3 67.6992 378.3 68.0992C378.3 68.4992 378.3 68.8992 378.3 69.2992C378.9 69.2992 379.5 69.2992 380.1 69.0992C380.7 69.0992 381.3 68.8992 381.7 68.8992C382.1 68.8992 382.5 68.8992 382.7 69.0992C382.9 69.2992 383.1 69.6992 383.3 70.0992C383.3 70.4992 383.3 70.8992 383.1 71.0992C382.9 71.4992 382.5 71.4992 382.1 71.6992C381.5 71.6992 380.9 71.8992 380.3 71.8992C379.7 71.8992 378.9 71.8992 378.3 72.0992C378.3 72.6992 378.3 73.2992 378.3 73.8992C378.3 74.4992 378.3 75.0992 378.3 75.4992C379.3 75.6992 380.1 76.0992 380.9 76.4992C381.7 76.8992 382.5 77.2992 383.1 77.6992C383.5 77.8992 383.7 78.2992 383.7 78.6992C383.7 79.0992 383.7 79.4992 383.5 79.6992C383.3 80.0992 382.9 80.2992 382.5 80.2992C382.1 80.2992 381.7 80.2992 381.5 80.0992C381.1 79.6992 380.5 79.4992 380.1 79.0992C379.5 78.8992 378.9 78.4992 378.3 78.2992C378.3 79.4992 377.9 80.4992 377.1 81.0992C376.3 81.6992 375.7 82.2992 374.5 82.2992ZM374.5 79.4992C375.1 79.4992 375.5 79.2992 375.7 79.0992C375.9 78.8992 376.1 78.4992 376.1 78.0992V77.6992C375.5 77.6992 375.1 77.4992 374.5 77.4992C373.9 77.4992 373.7 77.4992 373.3 77.6992C373.1 77.8992 372.9 78.0992 372.9 78.4992C372.7 79.0992 373.5 79.4992 374.5 79.4992Z" fill="#010F32"/>
<path d="M398.7 82.4996C398.3 82.6996 397.9 82.6996 397.5 82.4996C397.1 82.2996 396.9 82.0996 396.7 81.6996C396.5 81.2996 396.5 80.8996 396.7 80.4996C396.9 80.0996 397.1 79.8996 397.5 79.6996C398.7 79.2996 399.7 78.6996 400.3 78.0996C400.9 77.4996 401.5 76.8996 401.7 76.0996C401.1 76.2996 400.7 76.4996 400.1 76.4996C398.9 76.4996 397.9 76.0996 397.1 75.4996C396.3 74.8996 395.9 73.8996 395.9 72.6996C395.9 71.4996 396.3 70.4996 397.1 69.6996C397.9 68.8996 398.9 68.6996 400.3 68.6996C400.5 68.6996 400.5 68.6996 400.7 68.6996C400.9 68.6996 400.9 68.6996 401.1 68.6996C401.1 68.4996 401.1 68.0996 400.9 67.8996C400.9 67.6996 400.9 67.2996 400.9 66.8996C399.3 66.8996 397.7 67.0996 396.1 67.0996C394.5 67.2996 393.1 67.2996 391.7 67.4996C391.3 67.4996 390.9 67.4996 390.7 67.2996C390.3 67.0996 390.3 66.6996 390.1 66.2996C390.1 65.8996 390.1 65.4996 390.5 65.2996C390.7 64.8996 391.1 64.8996 391.5 64.8996C392.9 64.6996 394.3 64.6996 395.9 64.6996C397.5 64.6996 399.1 64.4996 400.7 64.4996V62.4996C400.7 62.0996 400.9 61.6996 401.1 61.4996C401.3 61.2996 401.7 61.0996 402.1 61.0996C402.5 61.0996 402.9 61.2996 403.1 61.4996C403.3 61.6996 403.5 62.0996 403.5 62.4996V64.4996C404.9 64.4996 406.1 64.4996 407.3 64.4996C408.5 64.4996 409.7 64.4996 410.7 64.4996C411.1 64.4996 411.5 64.6996 411.7 64.8996C411.9 65.0996 412.1 65.4996 412.1 65.8996C412.1 66.2996 411.9 66.6996 411.7 66.8996C411.5 67.0996 411.1 67.2996 410.7 67.2996C408.7 67.2996 406.3 67.2996 403.7 67.2996C403.7 67.8996 403.7 68.4996 403.7 68.8996C403.7 69.4996 403.7 69.8996 403.9 70.4996C404.7 71.4996 405.1 72.6996 405.1 74.2996C405.1 76.2996 404.5 78.0996 403.5 79.4996C402.3 80.6996 400.7 81.8996 398.7 82.4996ZM399.9 74.0996C400.3 74.0996 400.7 73.8996 400.9 73.6996C401.1 73.4996 401.3 73.0996 401.3 72.6996C401.3 72.4996 401.3 72.4996 401.3 72.2996C401.3 72.0996 401.3 71.8996 401.3 71.8996C400.9 71.4996 400.5 71.2996 399.9 71.2996C399.5 71.2996 399.1 71.4996 398.7 71.6996C398.3 71.8996 398.3 72.2996 398.3 72.6996C398.3 73.0996 398.5 73.4996 398.7 73.6996C399.3 74.0996 399.7 74.2996 399.9 74.0996Z" fill="#010F32"/>
<path d="M2.89995 37.4999C2.49995 37.4999 2.09995 37.4999 1.89995 37.2999C1.49995 37.0999 1.29996 36.6999 1.29996 36.2999C1.09996 35.4999 1.09995 34.4999 0.899948 33.4999C0.699948 32.4999 0.699951 31.2999 0.699951 30.0999C0.699951 28.8999 0.699951 27.6999 0.699951 26.4999C0.699951 25.2999 0.89996 24.0999 1.09996 23.0999C1.29996 21.8999 1.29995 20.8999 1.49995 20.0999C1.49995 19.6999 1.69996 19.4999 2.09996 19.0999C2.49996 18.6999 2.89996 18.6999 3.29996 18.8999C3.69996 18.8999 3.89996 19.2999 4.29996 19.4999C4.69996 19.6999 4.49996 20.2999 4.29996 20.6999C4.09996 21.8999 3.89995 23.0999 3.69995 24.2999C3.49995 25.6999 3.49995 26.8999 3.49995 28.2999C3.49995 29.6999 3.49995 30.8999 3.49995 32.2999C3.49995 33.6999 3.69995 34.6999 3.89995 35.8999C3.89995 36.2999 3.89995 36.6999 3.69995 36.8999C3.49995 37.2999 3.29995 37.4999 2.89995 37.4999ZM12.7 36.2999C10.7 36.2999 9.09996 35.8999 8.09996 35.0999C7.09996 34.2999 6.49996 33.2999 6.29996 31.6999C6.29996 31.2999 6.29995 30.8999 6.49995 30.6999C6.69995 30.2999 7.09995 30.0999 7.49995 30.0999C7.89995 30.0999 8.29995 30.0999 8.49995 30.2999C8.69995 30.6999 8.89996 30.8999 9.09996 31.2999C9.09996 31.8999 9.49996 32.4999 10.1 32.8999C10.7 33.2999 11.4999 33.4999 12.8999 33.4999C14.0999 33.4999 15.5 33.2999 17.3 32.8999C17.7 32.8999 18.1 32.8999 18.3 33.0999C18.5 33.2999 18.7 33.4999 18.7 33.8999C18.7 34.2999 18.7 34.6999 18.5 34.8999C18.3 35.0999 17.9 35.4999 17.5 35.4999C16.7 35.6999 15.6999 35.8999 14.8999 35.8999C14.2999 36.0999 13.5 36.2999 12.7 36.2999ZM8.29996 24.2999C7.89996 24.2999 7.49996 24.2999 7.29996 24.0999C7.09996 23.8999 6.69995 23.4999 6.69995 23.0999C6.69995 22.6999 6.69995 22.2999 6.89995 22.0999C7.09995 21.6999 7.49995 21.4999 7.89995 21.4999C8.69995 21.2999 9.69995 21.2999 10.7 21.0999C11.9 21.0999 12.8999 21.0999 13.8999 21.0999C14.8999 21.0999 15.9 21.2999 16.7 21.2999C17.1 21.2999 17.5 21.4999 17.7 21.8999C17.9 22.2999 17.8999 22.4999 17.8999 22.8999C17.8999 23.2999 17.7 23.6999 17.3 23.8999C16.9 24.0999 16.7 24.2999 16.3 24.2999C15.1 24.0999 13.7 23.8999 12.3 23.8999C10.9 23.8999 9.69996 24.0999 8.29996 24.2999Z" fill="#010F32"/>
<path d="M33.2999 39.1004C32.8999 39.1004 32.6999 39.1004 32.2999 38.9004C32.0999 38.7004 31.8999 38.5004 31.8999 38.1004C31.6999 37.1004 31.4999 36.1004 31.2999 34.7004C30.8999 33.5004 30.6999 32.1004 30.0999 30.9004C29.4999 31.1004 28.8999 31.3004 28.2999 31.5004C27.6999 31.7004 27.0999 31.9004 26.6999 32.1004C26.2999 32.3004 26.0999 32.1004 25.6999 32.1004C25.2999 31.9004 25.0999 31.7004 25.0999 31.5004C24.8999 31.1004 25.0999 30.9004 25.0999 30.5004C25.2999 30.1004 25.4999 29.9004 25.8999 29.9004C26.8999 29.5004 28.0999 29.1004 29.2999 28.7004C29.0999 28.3004 28.8999 27.7004 28.6999 27.3004C28.4999 26.9004 28.2999 26.5004 28.0999 26.1004C27.8999 25.7004 27.8999 25.5004 27.8999 25.1004C27.8999 24.7004 28.0999 24.5004 28.4999 24.3004C28.8999 24.1004 29.0999 24.1004 29.4999 24.1004C29.8999 24.3004 30.0999 24.5004 30.2999 24.7004C30.4999 25.1004 30.6999 25.7004 30.8999 26.1004C31.0999 26.7004 31.2999 27.1004 31.4999 27.7004C31.8999 27.5004 32.2999 27.5004 32.6999 27.3004C33.0999 27.1004 33.4999 27.1004 33.8999 26.9004C33.6999 26.9004 33.4999 26.7004 33.2999 26.5004L32.2999 24.9004C32.0999 24.7004 32.0999 24.3004 32.0999 23.9004C32.0999 23.5004 32.2999 23.3004 32.6999 23.1004C33.0999 22.9004 33.2999 22.9004 33.6999 22.9004C34.0999 22.9004 34.2999 23.1004 34.4999 23.5004L35.4999 25.1004C35.6999 25.3004 35.6999 25.5004 35.6999 25.9004C35.6999 26.1004 35.4999 26.5004 35.4999 26.7004C35.6999 26.7004 35.6999 26.7004 35.8999 26.7004H36.0999C37.6999 26.3004 39.0999 26.3004 40.0999 26.9004C41.0999 27.5004 41.6999 28.3004 41.8999 29.7004C42.0999 30.7004 41.8999 31.5004 41.4999 32.1004C41.0999 32.7004 40.4999 33.3004 39.8999 33.7004C39.0999 34.1004 38.2999 34.3004 37.4999 34.3004C36.4999 34.3004 35.6999 33.9004 34.6999 33.5004C34.2999 33.3004 34.0999 33.1004 34.0999 32.7004C33.8999 32.3004 34.0999 32.1004 34.0999 31.7004C34.2999 31.3004 34.4999 31.1004 34.8999 31.1004C35.2999 31.1004 35.4999 31.1004 35.8999 31.3004C36.6999 31.7004 37.2999 31.9004 37.8999 31.9004C38.4999 31.9004 38.8999 31.7004 39.2999 31.3004C39.6999 30.9004 39.6999 30.5004 39.6999 29.9004C39.6999 29.5004 39.2999 29.1004 38.8999 28.9004C38.4999 28.7004 37.8999 28.7004 36.8999 28.9004C36.2999 29.1004 35.6999 29.3004 34.8999 29.5004C34.0999 29.7004 33.4999 29.9004 32.6999 30.1004C33.0999 31.5004 33.4999 32.7004 33.8999 34.1004C34.2999 35.5004 34.4999 36.7004 34.6999 37.7004C34.6999 38.1004 34.6999 38.3004 34.4999 38.7004C33.8999 38.9004 33.6999 39.1004 33.2999 39.1004Z" fill="#010F32"/>
<path d="M48.8999 37.5006C48.4999 37.3006 48.3 37.1006 48.1 36.7006C47.9 36.3006 47.9 35.9006 48.1 35.5006C48.3 34.9006 48.7 34.1006 49.1 33.3006C49.5 32.5006 49.8999 31.5006 50.4999 30.3006C51.0999 29.1006 51.5 28.1006 52.1 27.1006C52.7 25.9006 53.0999 24.9006 53.6999 23.9006C54.2999 22.9006 54.7 21.9006 55.1 21.1006C55.5 20.3006 55.9 19.5006 56.1 18.9006C56.3 18.7006 56.7 18.5006 57.1 18.3006C57.5 18.1006 57.9 18.3006 58.1 18.5006C58.5 18.7006 58.6999 19.1006 58.6999 19.3006C58.6999 19.5006 58.6999 20.1006 58.4999 20.3006C58.2999 20.7006 57.8999 21.3006 57.6999 21.9006C57.2999 22.5006 56.8999 23.3006 56.4999 24.3006C56.0999 25.1006 55.7 26.1006 55.1 27.1006C55.7 26.9006 56.2999 26.7006 56.8999 26.7006C58.4999 26.7006 59.5 27.1006 60.1 28.1006C60.7 29.1006 60.6999 30.3006 60.2999 32.1006C60.0999 32.9006 60.0999 33.5006 60.2999 33.9006C60.4999 34.3006 60.8999 34.3006 61.4999 34.3006C61.8999 34.3006 62.2999 34.3006 62.4999 34.1006C62.6999 33.9006 63.0999 33.5006 63.4999 33.1006C63.8999 32.5006 64.2999 31.9006 64.6999 30.9006C64.8999 30.5006 65.0999 30.3006 65.4999 30.1006C65.8999 29.9006 66.2999 29.9006 66.6999 30.1006C67.0999 30.3006 67.2999 30.5006 67.4999 30.9006C67.6999 31.3006 67.6999 31.7006 67.4999 32.1006C66.8999 33.9006 66.1 35.3006 65.1 36.1006C64.1 36.9006 62.8999 37.5006 61.4999 37.5006C60.4999 37.5006 59.6999 37.3006 58.8999 36.9006C58.2999 36.5006 57.6999 35.9006 57.4999 35.1006C57.2999 34.3006 57.2999 33.3006 57.6999 31.9006C57.8999 31.1006 57.8999 30.5006 57.6999 30.3006C57.4999 29.9006 57.0999 29.9006 56.4999 29.9006C55.6999 29.9006 55.0999 30.1006 54.4999 30.5006C53.8999 30.9006 53.2999 31.7006 52.6999 33.1006C52.6999 33.3006 52.4999 33.5006 52.2999 33.9006C52.0999 34.3006 51.8999 34.7006 51.6999 35.1006C51.4999 35.5006 51.3 35.9006 51.1 36.3006C50.9 36.7006 50.8999 36.5006 50.6999 36.7006C50.4999 37.1006 50.2999 37.3006 49.8999 37.5006C49.6999 37.7006 49.2999 37.7006 48.8999 37.5006Z" fill="#010F32"/>
<path d="M72.7 26.3002C72.3 26.5002 72.1 26.7002 71.7 26.5002C71.3 26.5002 70.9 26.3002 70.7 25.9002C70.5 25.7002 70.5 25.3002 70.5 24.9002C70.5 24.5002 70.7 24.3002 71.1 24.1002C71.9 23.7002 72.7 23.1002 73.1 22.5002C73.7 21.9002 74.1 21.3002 74.3 20.3002H71.7C71.3 20.3002 71.1 20.1002 70.9 19.9002C70.7 19.7002 70.7 19.5002 70.7 19.1002C70.7 18.7002 70.7 18.5002 70.9 18.3002C71.3 18.7002 71.7 18.7002 71.9 18.7002H74.9C74.9 18.5002 74.9 18.5002 74.9 18.3002C74.9 18.1002 74.9 18.1002 74.9 17.9002C74.9 17.5002 75.1 17.1002 75.3 17.1002C75.7 16.7002 76.1 16.7002 76.5 16.7002C76.9 16.7002 77.1 16.9002 77.3 17.1002C77.5 17.3002 77.7 17.7002 77.5 18.1002C77.5 18.3002 77.5 18.3002 77.5 18.5002C77.5 18.7002 77.5 18.7002 77.5 18.7002H79.1C80.1 18.7002 80.7 18.9002 81.3 19.5002C81.9 20.1002 81.9 20.7002 81.7 21.7002C81.5 22.7002 81.3 23.3002 81.1 23.9002C80.9 24.5002 80.5 24.7002 79.9 24.9002C79.3 25.1002 78.7 25.1002 77.9 25.1002C77.5 25.1002 77.3 25.1002 77.1 24.9002C76.9 24.7002 76.7 24.5002 76.7 24.1002C76.7 23.7002 76.7 23.5002 76.9 23.3002C77.1 23.1002 77.3 22.9002 77.7 22.9002C78.3 22.9002 78.5 22.7002 78.7 22.7002C78.9 22.5002 78.9 22.3002 79.1 21.9002C79.1 21.5002 79.1 21.3002 79.1 21.1002C79.1 20.9002 78.7 20.9002 78.3 20.9002H77.1C76.7 22.1002 76.1 23.3002 75.5 24.1002C74.7 24.9002 73.7 25.7002 72.7 26.3002ZM73.5 39.1002C73.1 39.3002 72.7 39.3002 72.3 39.1002C71.9 38.9002 71.7 38.7002 71.7 38.3002C71.7 37.9002 71.7 37.7002 71.7 37.3002C71.9 36.9002 72.1 36.7002 72.5 36.7002C72.9 36.7002 73.3 36.5002 73.9 36.3002C74.5 36.1002 74.9 35.9002 75.5 35.7002C76.1 35.5002 76.5 35.3002 77.1 35.1002C76.1 34.9002 75.3 34.5002 74.9 34.1002C74.5 33.7002 74.3 32.7002 74.3 31.7002V28.9002C74.3 27.5002 74.7 26.7002 75.3 26.1002C75.9 25.5002 77.1 25.3002 78.7 25.3002H84.3C85.9 25.3002 87.1 25.5002 87.7 26.1002C88.3 26.7002 88.7 27.5002 88.7 28.9002V31.7002C88.7 32.7002 88.5 33.7002 88.1 34.1002C87.7 34.7002 86.9 34.9002 85.9 35.1002C86.5 35.5002 87.3 35.7002 88.3 36.1002C89.1 36.5002 89.9 36.7002 90.5 36.7002C90.9 36.7002 91.1 36.9002 91.3 37.3002C91.5 37.7002 91.5 37.9002 91.3 38.3002C91.1 38.7002 90.9 38.9002 90.7 39.1002C90.3 39.3002 90.1 39.1002 89.5 39.1002C88.9 38.9002 88.5 38.7002 87.7 38.5002C87.1 38.3002 86.3 37.9002 85.7 37.7002C85.1 37.5002 84.5 37.1002 84.1 36.9002C83.7 36.7002 83.7 36.5002 83.5 36.1002C83.5 35.9002 83.5 35.5002 83.7 35.3002H79.1C79.3 35.5002 79.3 35.9002 79.3 36.1002C79.3 36.3002 79.1 36.7002 78.7 36.9002C78.3 37.1002 77.7 37.3002 77.1 37.7002C76.5 37.9002 75.9 38.3002 75.1 38.5002C74.7 38.7002 74.1 38.9002 73.5 39.1002ZM77.1 30.9002H86.1V29.9002H77.1V30.9002ZM77.1 28.3002H85.9C85.9 27.9002 85.7 27.7002 85.5 27.5002C85.3 27.3002 84.9 27.3002 84.3 27.3002H78.7C78.1 27.3002 77.7 27.3002 77.5 27.5002C77.3 27.7002 77.3 27.9002 77.1 28.3002ZM78.7 33.3002H84.3C84.9 33.3002 85.3 33.3002 85.5 33.1002C85.7 32.9002 85.9 32.7002 85.9 32.3002H77.1C77.1 32.7002 77.3 32.9002 77.5 33.1002C77.7 33.3002 78.1 33.3002 78.7 33.3002ZM86.5 24.5002C85.7 24.5002 84.9 24.5002 84.3 24.3002C83.7 24.1002 83.3 23.7002 83.1 23.3002C82.9 22.9002 82.7 22.1002 82.7 21.3002C82.7 20.5002 82.9 19.7002 83.1 19.3002C83.3 18.9002 83.7 18.5002 84.3 18.3002C84.9 18.1002 85.5 18.1002 86.5 18.1002H87.9C88.7 18.1002 89.5 18.1002 90.1 18.3002C90.7 18.3002 91.1 18.7002 91.3 19.1002C91.5 19.5002 91.7 20.3002 91.7 21.1002C91.7 21.9002 91.5 22.7002 91.3 23.1002C91.1 23.5002 90.7 23.9002 90.1 24.1002C89.5 24.3002 88.9 24.3002 87.9 24.3002L86.5 24.5002ZM86.7 22.5002H87.9C88.5 22.5002 88.7 22.5002 88.9 22.3002C89.1 22.1002 89.1 21.9002 89.1 21.3002C89.1 20.9002 89.1 20.5002 88.9 20.3002C88.7 20.1002 88.3 20.1002 87.9 20.1002H86.7C86.1 20.1002 85.9 20.1002 85.7 20.3002C85.5 20.5002 85.5 20.7002 85.5 21.3002C85.5 21.7002 85.5 22.1002 85.7 22.3002C85.9 22.3002 86.1 22.5002 86.7 22.5002Z" fill="#010F32"/>
<path d="M100.3 39.1006C99.8999 39.1006 99.6999 38.9006 99.2999 38.7006C99.0999 38.5006 98.8999 38.1006 98.8999 37.7006V31.5006C98.4999 31.9006 97.8999 32.3006 97.4999 32.5006C96.8999 32.9006 96.4999 33.1006 96.2999 33.3006C95.8999 33.5006 95.4999 33.7006 95.0999 33.5006C94.6999 33.5006 94.2999 33.3006 94.0999 32.9006C93.8999 32.5006 93.8999 32.1006 93.8999 31.9006C93.8999 31.7006 94.2999 31.3006 94.4999 31.1006C94.6999 30.9006 95.0999 30.7006 95.4999 30.5006C95.8999 30.3006 96.2999 29.9006 96.6999 29.7006C97.0999 29.5006 97.4999 29.1006 97.8999 28.9006C98.2999 28.7006 98.4999 28.3006 98.8999 28.1006V25.1006C98.8999 25.3006 98.4999 25.5006 98.2999 25.7006C97.8999 25.9006 97.4999 25.9006 97.0999 25.9006C96.6999 25.7006 96.4999 25.5006 96.2999 25.3006C96.2999 25.1006 96.0999 24.9006 95.8999 24.5006C95.6999 24.1006 95.4999 23.7006 95.2999 23.3006C95.0999 22.9006 94.8999 22.7006 94.8999 22.5006C94.6999 22.1006 94.6999 21.9006 94.6999 21.5006C94.8999 21.1006 95.0999 20.9006 95.4999 20.7006C95.8999 20.5006 96.2999 20.5006 96.4999 20.5006C96.8999 20.5006 97.0999 20.9006 97.2999 21.1006C97.4999 21.3006 97.4999 21.7006 97.8999 21.9006C98.0999 22.3006 98.2999 22.7006 98.4999 23.1006C98.6999 23.5006 98.8999 23.7006 98.8999 23.9006V24.1006V18.5006C98.8999 18.1006 99.0999 17.7006 99.2999 17.5006C99.4999 17.3006 99.8999 17.1006 100.3 17.1006C100.7 17.1006 100.9 17.3006 101.3 17.5006C101.5 17.7006 101.7 18.1006 101.7 18.5006V37.7006C101.7 38.1006 101.5 38.5006 101.3 38.7006C101.1 39.1006 100.7 39.1006 100.3 39.1006ZM114.3 38.3006C113.1 37.3006 111.9 36.3006 111.1 35.1006C110.3 33.9006 109.5 32.7006 109.1 31.3006C108.7 32.7006 108.1 33.9006 107.3 35.1006C106.5 36.3006 105.5 37.3006 104.3 38.3006C103.9 38.5006 103.7 38.7006 103.3 38.7006C102.9 38.7006 102.5 38.5006 102.3 38.1006C102.1 37.7006 101.9 37.5006 102.1 37.1006C102.1 36.7006 102.3 36.5006 102.7 36.3006C105.7 34.1006 107.5 31.1006 107.7 26.9006H103.7C103.3 26.9006 103.1 26.7006 102.7 26.5006C102.3 26.3006 102.3 25.9006 102.3 25.5006C102.3 25.1006 102.5 24.9006 102.7 24.5006C102.9 24.3006 103.3 24.1006 103.7 24.1006H107.9V18.7006C107.9 18.3006 108.1 17.9006 108.3 17.7006C108.5 17.5006 108.9 17.3006 109.3 17.3006C109.7 17.3006 110.1 17.5006 110.3 17.7006C110.5 17.9006 110.7 18.3006 110.7 18.7006V24.1006H115.5C115.9 24.1006 116.1 24.3006 116.5 24.5006C116.7 24.7006 116.9 25.1006 116.9 25.5006C116.9 25.9006 116.7 26.1006 116.5 26.5006C116.3 26.9006 115.5 26.7006 115.3 26.7006H110.5C110.7 28.7006 111.3 30.5006 112.3 32.1006C113.3 33.7006 114.7 34.9006 116.1 36.1006C116.5 36.3006 116.7 36.7006 116.7 36.9006C116.7 37.3006 116.7 37.7006 116.3 37.9006C116.1 38.3006 115.7 38.5006 115.3 38.5006C115.1 38.7006 114.7 38.5006 114.3 38.3006ZM115.5 22.7006C115.3 22.9006 114.9 23.1006 114.5 23.1006C114.1 23.1006 113.9 22.9006 113.7 22.7006C113.5 22.5006 113.5 22.3006 113.1 22.1006C112.9 21.9006 112.7 21.5006 112.5 21.3006C112.3 21.1006 112.1 20.9006 111.9 20.7006C111.7 20.5006 111.5 20.1006 111.7 19.9006C111.9 19.7006 111.9 19.3006 112.1 19.1006C112.3 18.9006 112.7 18.7006 113.1 18.7006C113.5 18.7006 113.7 18.9006 113.9 19.1006C114.1 19.3006 114.3 19.5006 114.5 19.7006C114.7 19.9006 114.9 20.3006 115.3 20.5006C115.5 20.7006 115.7 20.9006 115.7 21.1006C115.9 21.5006 116.1 21.7006 116.1 22.1006C115.9 22.1006 115.7 22.5006 115.5 22.7006Z" fill="#010F32"/>
<path d="M131.9 37.1002C131.5 37.1002 131.1 37.1002 130.7 36.9002C130.3 36.7002 130.1 36.3002 130.1 36.1002C130.1 35.7002 130.1 35.3002 130.3 35.1002C130.5 34.9002 130.9 34.5002 131.1 34.5002C132.9 34.1002 134.1 33.3002 135.1 32.3002C136.1 31.3002 136.3 29.9002 136.3 28.3002C136.3 27.3002 136.1 26.3002 135.7 25.5002C135.3 24.7002 134.7 24.1002 133.7 23.5002C132.7 22.9002 131.9 22.7002 130.7 22.5002C130.5 25.1002 129.9 27.5002 129.3 29.5002C128.7 31.5002 127.9 32.9002 126.9 34.1002C125.9 35.1002 125.1 35.7002 124.1 35.7002C123.3 35.7002 122.5 35.5002 121.7 34.9002C120.9 34.3002 120.5 33.7002 120.1 32.7002C119.7 31.7002 119.5 30.7002 119.5 29.3002C119.5 27.9002 119.7 26.7002 120.3 25.5002C120.9 24.3002 121.5 23.3002 122.5 22.5002C123.5 21.7002 124.5 20.9002 125.7 20.5002C126.9 20.1002 128.3 19.7002 129.9 19.7002C131.7 19.7002 133.3 20.1002 134.7 20.7002C136.1 21.3002 137.3 22.3002 138.1 23.7002C138.9 24.9002 139.3 26.3002 139.3 28.1002C139.3 30.5002 138.7 32.3002 137.5 33.9002C136.3 35.5002 134.5 36.5002 131.9 37.1002ZM124.3 32.7002C124.5 32.7002 124.9 32.5002 125.3 31.9002C125.7 31.5002 126.1 30.7002 126.5 29.9002C126.9 29.1002 127.3 27.9002 127.5 26.7002C127.9 25.5002 128.1 24.1002 128.3 22.7002C127.1 22.9002 126.1 23.5002 125.1 24.1002C124.3 24.7002 123.7 25.5002 123.1 26.5002C122.7 27.5002 122.5 28.5002 122.5 29.5002C122.5 30.5002 122.7 31.5002 123.1 31.9002C123.3 32.3002 123.7 32.7002 124.3 32.7002Z" fill="#010F32"/>
<path d="M159.7 36.5002C157.3 37.1002 155.1 37.3002 153.3 37.3002C151.5 37.3002 149.9 36.9002 148.5 36.3002C147.3 35.7002 146.3 34.7002 145.9 33.5002C145.7 33.1002 145.7 32.7002 145.9 32.3002C146.1 31.9002 146.3 31.7002 146.7 31.5002C147.1 31.3002 147.5 31.3002 147.7 31.5002C148.1 31.7002 148.3 31.9002 148.5 32.3002C148.9 32.9002 149.5 33.5002 150.3 33.9002C151.1 34.3002 152.5 34.5002 153.9 34.5002C155.3 34.5002 157.1 34.3002 158.9 33.7002C159.3 33.7002 159.7 33.7002 160.1 33.9002C160.5 34.1002 160.7 34.5002 160.7 34.7002C160.7 35.1002 160.7 35.5002 160.5 35.7002C160.3 35.9002 159.9 36.3002 159.7 36.5002ZM157.3 23.3002C156.5 23.1002 155.5 22.9002 154.5 22.7002C153.5 22.5002 152.5 22.5002 151.5 22.5002C150.5 22.5002 149.7 22.5002 148.9 22.5002C148.5 22.5002 148.1 22.5002 147.9 22.3002C147.5 22.1002 147.5 21.7002 147.3 21.3002C147.3 20.9002 147.3 20.5002 147.5 20.3002C147.7 19.9002 148.1 19.9002 148.5 19.7002C149.5 19.7002 150.5 19.5002 151.7 19.7002C152.9 19.7002 153.9 19.9002 155.1 19.9002C156.1 20.1002 157.1 20.1002 157.9 20.5002C158.3 20.5002 158.5 20.9002 158.7 21.1002C158.9 21.3002 158.9 21.7002 158.9 22.1002C158.9 22.5002 158.7 22.7002 158.3 22.9002C158.3 23.3002 157.7 23.5002 157.3 23.3002ZM163.1 23.3002C162.9 23.5002 162.7 23.5002 162.3 23.5002C161.9 23.5002 161.7 23.3002 161.5 23.1002C161.3 22.9002 161.1 22.5002 160.9 22.3002C160.7 21.9002 160.3 21.7002 160.1 21.5002C159.9 21.3002 159.9 21.1002 159.9 20.9002C159.9 20.7002 160.1 20.5002 160.3 20.3002C160.5 20.1002 160.7 20.1002 160.9 20.1002C161.1 20.1002 161.3 20.3002 161.5 20.3002C161.7 20.5002 162.1 20.7002 162.3 21.1002C162.7 21.5002 162.9 21.7002 163.1 21.9002C163.3 22.1002 163.3 22.3002 163.3 22.7002C163.3 22.9002 163.3 23.1002 163.1 23.3002ZM165.3 21.1002C165.1 21.3002 164.9 21.3002 164.5 21.3002C164.3 21.3002 163.9 21.1002 163.7 20.9002C163.5 20.7002 163.3 20.5002 162.9 20.1002C162.7 19.7002 162.3 19.5002 162.1 19.3002C161.9 19.1002 161.9 18.9002 161.9 18.7002C161.9 18.5002 161.9 18.3002 162.1 18.1002C162.3 17.9002 162.5 17.9002 162.7 17.7002C162.9 17.7002 163.1 17.7002 163.3 17.9002C163.5 18.1002 163.9 18.3002 164.3 18.7002C164.7 19.1002 164.9 19.3002 165.1 19.5002C165.3 19.7002 165.3 19.9002 165.3 20.3002C165.7 20.7002 165.7 20.9002 165.3 21.1002Z" fill="#010F32"/>
<path d="M169.7 27.5002C169.5 27.3002 169.3 27.1002 168.9 26.9002C168.5 26.7002 168.3 26.5002 167.9 26.3002C167.5 26.1002 167.3 25.9002 167.1 25.9002C166.7 25.7002 166.5 25.5002 166.5 25.1002C166.5 24.7002 166.5 24.3002 166.7 24.1002C166.9 23.7002 167.1 23.5002 167.5 23.5002C167.9 23.5002 168.3 23.5002 168.5 23.5002C168.7 23.7002 169.1 23.7002 169.3 23.9002C169.7 24.1002 169.9 24.3002 170.3 24.5002C170.7 24.7002 170.9 24.9002 171.3 25.1002C171.7 25.3002 171.9 25.7002 171.9 26.1002C171.9 26.5002 171.9 26.9002 171.7 27.3002C171.5 27.7002 171.1 27.9002 170.7 27.9002C170.3 27.7002 169.9 27.7002 169.7 27.5002ZM167.7 38.3002C167.3 38.1002 167.1 37.7002 167.1 37.3002C167.1 36.9002 167.1 36.5002 167.3 36.1002C167.7 35.7002 167.9 35.1002 168.3 34.5002C168.7 33.9002 169.1 33.1002 169.5 32.5002C169.9 31.9002 170.3 31.1002 170.5 30.5002C170.7 30.1002 170.9 29.9002 171.3 29.7002C171.7 29.5002 172.1 29.7002 172.5 29.9002C173.3 30.3002 173.5 30.9002 173.1 31.7002C172.9 32.3002 172.5 32.9002 172.1 33.7002C171.7 34.5002 171.3 35.1002 170.9 35.9002C170.5 36.5002 170.1 37.1002 169.9 37.7002C169.7 38.1002 169.3 38.3002 168.9 38.3002C168.3 38.5002 167.9 38.5002 167.7 38.3002ZM171.3 21.9002C171.1 21.7002 170.9 21.5002 170.5 21.3002C170.1 21.1002 169.9 20.9002 169.5 20.7002C169.1 20.5002 168.9 20.3002 168.7 20.3002C168.3 20.1002 168.1 19.9002 168.1 19.5002C168.1 19.1002 168.1 18.7002 168.3 18.5002C168.5 18.1002 168.7 17.9002 169.1 17.9002C169.5 17.7002 169.9 17.9002 170.1 17.9002C170.3 18.1002 170.7 18.1002 170.9 18.3002C171.3 18.5002 171.5 18.7002 171.9 18.9002C172.3 19.1002 172.5 19.3002 172.9 19.5002C173.3 19.7002 173.5 20.1002 173.5 20.5002C173.5 20.9002 173.5 21.3002 173.3 21.7002C173.1 22.1002 172.7 22.3002 172.3 22.3002C171.7 22.3002 171.3 22.3002 171.3 21.9002ZM173.7 38.3002C173.3 38.3002 173.1 38.1002 172.7 37.9002C172.5 37.7002 172.3 37.3002 172.3 36.9002C172.3 36.5002 172.5 36.3002 172.7 35.9002C172.9 35.7002 173.3 35.5002 173.7 35.5002H179.1V30.9002H175.3C174.9 30.9002 174.5 30.7002 174.3 30.5002C174.1 30.3002 173.9 29.9002 173.9 29.5002C173.9 29.1002 174.1 28.7002 174.3 28.5002C174.5 28.3002 174.9 28.1002 175.3 28.1002H179.1V24.3002H174.3C173.9 24.3002 173.7 24.1002 173.3 23.9002C173.1 23.7002 172.9 23.3002 172.9 22.9002C172.9 22.5002 173.1 22.3002 173.3 21.9002C173.5 21.7002 173.9 21.5002 174.3 21.5002H179.9C179.7 21.3002 179.5 21.1002 179.3 20.9002C179.1 20.7002 178.7 20.3002 178.3 20.1002C177.9 19.7002 177.7 19.5002 177.5 19.3002C177.3 19.1002 177.1 18.7002 177.1 18.3002C177.1 17.9002 177.3 17.5002 177.5 17.3002C177.7 16.9002 178.1 16.9002 178.5 16.7002C178.9 16.7002 179.3 16.7002 179.5 17.1002C179.7 17.3002 179.9 17.5002 180.3 17.7002C180.7 17.9002 180.9 18.3002 181.3 18.7002C181.7 19.1002 181.9 19.3002 182.1 19.5002C182.3 19.9002 182.5 20.1002 182.5 20.5002C182.5 20.9002 182.3 21.3002 182.1 21.5002H186.7C187.1 21.5002 187.3 21.7002 187.7 21.9002C187.9 22.1002 188.1 22.5002 188.1 22.9002C188.1 23.3002 187.9 23.5002 187.7 23.9002C187.5 24.1002 187.1 24.3002 186.7 24.3002H182.1V28.1002H185.7C186.1 28.1002 186.3 28.3002 186.7 28.5002C186.9 28.7002 187.1 29.1002 187.1 29.5002C187.1 29.9002 186.9 30.1002 186.7 30.5002C186.5 30.7002 186.1 30.9002 185.7 30.9002H182.1V35.5002H187.3C187.7 35.5002 187.9 35.7002 188.3 35.9002C188.5 36.1002 188.7 36.5002 188.7 36.9002C188.7 37.3002 188.5 37.5002 188.3 37.9002C188.1 38.1002 187.7 38.3002 187.3 38.3002H173.7Z" fill="#010F32"/>
<path d="M192.7 38.9002C192.1 39.1002 191.7 39.1002 191.3 38.9002C190.9 38.7002 190.7 38.5002 190.5 37.9002C190.3 37.5002 190.5 37.1002 190.5 36.7002C190.7 36.3002 191.1 36.1002 191.5 35.9002C193.1 35.5002 194.7 34.9002 196.1 34.3002C197.5 33.7002 198.5 32.9002 199.5 32.1002C198.5 30.9002 197.7 29.7002 196.9 28.3002C196.1 26.9002 195.5 25.3002 195.1 23.7002H191.5C191.1 23.7002 190.9 23.5002 190.5 23.3002C190.3 23.1002 190.1 22.7002 190.1 22.3002C190.1 21.9002 190.3 21.7002 190.5 21.5002C190.7 21.3002 191.1 21.1002 191.5 21.1002H199.7V18.3002C199.7 17.9002 199.9 17.5002 200.1 17.1002C200.5 16.9002 200.7 16.7002 201.3 16.7002C201.9 16.7002 202.1 16.9002 202.5 17.1002C202.9 17.3002 202.9 17.7002 202.9 18.3002V21.1002H211.1C211.5 21.1002 211.7 21.3002 212.1 21.5002C212.5 21.7002 212.5 22.1002 212.5 22.3002C212.5 22.7002 212.3 22.9002 212.1 23.3002C211.9 23.7002 211.5 23.7002 211.1 23.7002H207.5C207.1 25.3002 206.5 26.9002 205.7 28.3002C204.9 29.7002 204.1 30.9002 203.1 32.1002C204.1 32.9002 205.3 33.7002 206.7 34.3002C208.1 34.9002 209.5 35.5002 211.3 35.9002C211.7 36.1002 212.1 36.3002 212.3 36.7002C212.5 37.1002 212.5 37.5002 212.3 37.9002C212.1 38.3002 211.9 38.7002 211.5 38.7002C211.1 38.9002 210.7 38.9002 210.1 38.7002C206.5 37.7002 203.5 36.1002 201.1 34.1002C199.9 35.1002 198.7 35.9002 197.1 36.7002C195.9 37.7002 194.3 38.5002 192.7 38.9002ZM201.7 30.1002C202.5 29.3002 203.1 28.3002 203.5 27.1002C203.9 25.9002 204.5 24.9002 204.7 23.7002H198.3C198.7 24.9002 199.1 26.1002 199.7 27.1002C200.3 28.3002 200.7 29.3002 201.7 30.1002Z" fill="#010F32"/>
<path d="M255.7 39.3004C255.3 39.3004 254.9 39.1004 254.7 38.9004C254.5 38.7004 254.3 38.3004 254.3 37.9004V30.1004C254.1 30.7004 253.7 31.1004 253.5 31.5004C253.3 31.9004 253.1 32.3004 252.7 32.7004C252.5 33.1004 252.3 33.3004 251.9 33.3004C251.5 33.3004 251.3 33.3004 250.9 33.1004C250.5 32.9004 250.5 32.7004 250.3 32.3004C250.3 31.9004 250.3 31.7004 250.5 31.3004C250.9 30.9004 251.1 30.3004 251.5 29.7004C251.9 29.1004 252.3 28.5004 252.5 27.7004C252.7 26.9004 253.1 26.3004 253.5 25.7004C253.7 25.1004 254.1 24.5004 254.1 24.1004V23.9004H251.7C251.3 23.9004 251.1 23.7004 250.7 23.5004C250.5 23.3004 250.3 22.9004 250.3 22.7004C250.3 22.3004 250.5 22.1004 250.7 21.9004C250.9 21.7004 251.3 21.5004 251.7 21.5004H254.1V18.3004C254.1 17.9004 254.3 17.5004 254.5 17.3004C254.7 17.1004 255.1 16.9004 255.5 16.9004C255.9 16.9004 256.1 17.1004 256.5 17.3004C256.7 17.5004 256.9 17.9004 256.9 18.3004V21.5004H258.7C259.1 21.5004 259.3 21.7004 259.5 21.9004C259.7 22.1004 259.9 22.5004 259.9 22.7004C259.9 23.1004 259.7 23.3004 259.5 23.5004C259.3 23.7004 258.9 23.9004 258.7 23.9004H256.9V25.5004C257.1 25.9004 257.5 26.3004 257.9 26.7004C258.3 27.1004 258.7 27.7004 259.1 28.1004C259.5 28.5004 259.9 28.9004 260.1 29.1004C260.3 29.3004 260.5 29.7004 260.5 30.1004C260.5 30.5004 260.3 30.7004 260.1 31.1004C259.9 31.3004 259.5 31.5004 259.1 31.5004C258.7 31.5004 258.5 31.3004 258.1 31.1004C257.7 30.7004 257.3 30.1004 256.9 29.5004V37.9004C256.9 38.3004 256.7 38.7004 256.5 38.9004C256.5 39.1004 256.1 39.3004 255.7 39.3004ZM261.1 38.5004C260.7 38.7004 260.3 38.9004 259.9 38.7004C259.5 38.7004 259.1 38.5004 258.9 38.1004C258.7 37.7004 258.7 37.3004 258.7 37.1004C258.9 36.7004 259.1 36.5004 259.5 36.3004C260.5 35.7004 261.5 35.1004 262.3 34.5004C263.1 33.9004 263.7 33.1004 264.3 32.5004C263.7 31.5004 263.3 30.5004 262.7 29.3004C262.1 28.1004 261.9 26.9004 261.7 25.7004C261.5 25.9004 261.3 26.1004 261.1 26.5004C260.9 26.7004 260.7 26.9004 260.5 27.1004C260.3 27.3004 259.9 27.5004 259.5 27.7004C259.1 27.7004 258.7 27.7004 258.5 27.3004C258.3 27.1004 258.1 26.7004 258.1 26.3004C258.1 25.9004 258.1 25.5004 258.5 25.3004C259.1 24.7004 259.5 23.9004 260.1 23.1004C260.7 22.3004 261.1 21.3004 261.5 20.5004C261.9 19.5004 262.3 18.7004 262.5 18.1004C262.7 17.7004 262.9 17.3004 263.3 17.3004C263.7 17.3004 264.1 17.1004 264.5 17.3004C264.9 17.5004 265.1 17.7004 265.3 17.9004C265.5 18.3004 265.5 18.7004 265.3 19.1004C264.9 19.9004 264.7 20.7004 264.1 21.7004H271.3C271.7 21.7004 272.1 21.9004 272.3 22.1004C272.5 22.3004 272.7 22.7004 272.7 23.1004C272.7 23.5004 272.5 23.7004 272.3 24.1004C272.1 24.3004 271.7 24.5004 271.3 24.5004H270.5C270.3 26.1004 269.9 27.5004 269.5 28.9004C269.1 30.3004 268.5 31.5004 267.7 32.7004C268.9 34.1004 270.5 35.3004 272.3 36.3004C272.7 36.5004 272.9 36.9004 273.1 37.3004C273.3 37.7004 273.1 38.1004 272.9 38.5004C272.7 38.9004 272.3 39.1004 271.9 39.3004C271.5 39.3004 271.1 39.3004 270.7 39.1004C268.9 38.1004 267.5 36.7004 266.1 35.3004C265.5 36.1004 264.7 36.7004 263.9 37.3004C262.9 37.3004 262.1 38.1004 261.1 38.5004ZM266.1 29.7004C266.5 28.9004 266.9 27.9004 267.1 26.9004C267.3 25.9004 267.5 24.9004 267.7 23.9004H264.5C264.7 26.1004 265.1 27.9004 266.1 29.7004Z" fill="#010F32"/>
<path d="M279.1 37.5006C278.7 37.5006 278.3 37.5006 278.1 37.3006C277.7 37.1006 277.5 36.7006 277.5 36.3006C277.3 35.5006 277.3 34.5006 277.1 33.5006C276.9 32.5006 276.9 31.3006 276.9 30.1006C276.9 28.9006 276.9 27.7006 276.9 26.5006C276.9 25.3006 277.1 24.1006 277.3 23.1006C277.5 21.9006 277.7 20.9006 277.7 20.1006C277.7 19.7006 277.9 19.5006 278.3 19.1006C278.7 18.7006 278.9 18.9006 279.3 18.9006C279.7 18.9006 279.9 19.3006 280.3 19.5006C280.5 19.9006 280.5 20.1006 280.5 20.5006C280.3 21.7006 280.1 22.9006 279.9 24.1006C279.7 25.5006 279.7 26.7006 279.7 28.1006C279.7 29.5006 279.7 30.7006 279.7 32.1006C279.7 33.5006 279.9 34.5006 280.1 35.7006C280.1 36.1006 280.1 36.5006 279.9 36.7006C279.7 37.3006 279.5 37.5006 279.1 37.5006ZM288.9 36.3006C286.9 36.3006 285.3 35.9006 284.3 35.1006C283.3 34.3006 282.7 33.3006 282.5 31.7006C282.5 31.3006 282.5 30.9006 282.7 30.7006C282.9 30.3006 283.3 30.1006 283.7 30.1006C284.1 30.1006 284.5 30.1006 284.7 30.3006C285.1 30.5006 285.3 30.9006 285.3 31.3006C285.3 31.9006 285.7 32.5006 286.3 32.9006C286.9 33.3006 287.7 33.5006 289.1 33.5006C290.3 33.5006 291.7 33.3006 293.5 32.9006C293.9 32.9006 294.3 32.9006 294.5 33.1006C294.9 33.3006 295.1 33.7006 295.1 34.1006C295.1 34.5006 295.1 34.9006 294.9 35.1006C294.7 35.5006 294.3 35.7006 293.9 35.7006C293.1 35.9006 292.1 36.1006 291.3 36.1006C290.5 36.1006 289.7 36.3006 288.9 36.3006ZM284.5 24.3006C284.1 24.3006 283.7 24.3006 283.5 24.1006C283.3 23.9006 282.9 23.5006 282.9 23.1006C282.9 22.7006 282.9 22.3006 283.1 22.1006C283.3 21.7006 283.7 21.5006 284.1 21.5006C284.9 21.3006 285.9 21.3006 287.1 21.1006C288.3 21.1006 289.3 21.1006 290.3 21.1006C291.3 21.1006 292.3 21.3006 293.1 21.3006C293.5 21.3006 293.9 21.5006 294.1 21.9006C294.3 22.3006 294.3 22.5006 294.3 22.9006C294.3 23.3006 294.1 23.7006 293.7 23.9006C293.3 24.1006 293.1 24.1006 292.7 24.1006C291.5 23.9006 290.1 23.7006 288.7 23.7006C287.1 23.9006 285.9 24.1006 284.5 24.3006Z" fill="#010F32"/>
<path d="M308.5 36.5001C308.1 36.5001 307.7 36.5001 307.5 36.3001C307.1 36.1001 306.9 35.7001 306.9 35.3001C306.9 34.9001 306.9 34.5001 307.1 34.3001C307.3 33.9001 307.7 33.7001 308.1 33.7001C310.1 33.5001 311.7 33.1001 312.9 32.5001C314.1 31.9001 314.9 31.3001 315.5 30.3001C316.1 29.5001 316.3 28.5001 316.1 27.5001C316.1 26.3001 315.5 25.3001 314.7 24.7001C313.9 24.1001 312.7 23.9001 310.9 24.1001C310.3 24.1001 309.5 24.3001 308.5 24.3001C307.5 24.3001 306.7 24.5001 305.9 24.7001C305.1 24.9001 304.1 25.1001 303.3 25.3001C302.5 25.5001 301.7 25.7001 301.1 25.9001C300.7 26.1001 300.3 25.9001 300.1 25.7001C299.9 25.5001 299.5 25.3001 299.5 24.9001C299.3 24.5001 299.5 24.1001 299.7 23.7001C299.9 23.3001 300.1 23.1001 300.5 23.1001C301.1 22.9001 301.9 22.7001 302.9 22.5001C303.7 22.3001 304.7 22.1001 305.5 21.9001C306.3 21.7001 307.3 21.5001 308.3 21.5001C309.1 21.3001 310.1 21.3001 310.7 21.3001C313.3 21.1001 315.3 21.5001 316.5 22.7001C317.7 23.9001 318.5 25.3001 318.7 27.5001C318.9 28.9001 318.5 30.3001 317.7 31.7001C316.9 32.9001 315.7 34.1001 314.1 34.9001C312.9 35.7001 310.9 36.3001 308.5 36.5001Z" fill="#010F32"/>
<path d="M335.7 39.1006C333.7 39.1006 332.1 38.9006 330.7 38.5006C329.3 38.1006 328.5 37.3006 327.9 36.5006C327.3 35.7006 327.1 34.5006 327.1 33.5006C327.1 32.7006 327.5 31.9006 327.9 31.3006C328.3 30.7006 328.9 30.3006 329.7 29.9006C330.5 29.5006 331.3 29.3006 332.1 29.3006C333.1 29.3006 333.9 29.3006 334.9 29.5006C334.7 29.1006 334.5 28.7006 334.1 28.3006C333.9 27.9006 333.7 27.5006 333.5 27.1006C332.5 27.3006 331.7 27.5006 330.7 27.5006C329.7 27.7006 328.9 27.7006 328.1 27.9006C327.7 27.9006 327.3 27.9006 327.1 27.5006C326.9 27.3006 326.7 26.9006 326.7 26.5006C326.7 26.1006 326.7 25.7006 327.1 25.5006C327.3 25.3006 327.7 25.1006 328.1 25.1006C328.7 25.1006 329.5 24.9006 330.3 24.9006C331.1 24.9006 331.9 24.7006 332.5 24.5006C332.3 24.3006 332.3 23.9006 332.1 23.7006C331.9 23.5006 331.9 23.1006 331.7 22.9006C331.1 23.1006 330.5 23.1006 329.9 23.1006C329.3 23.1006 328.7 23.3006 328.1 23.3006C327.7 23.3006 327.3 23.3006 327.1 22.9006C326.7 22.7006 326.7 22.3006 326.5 21.9006C326.5 21.5006 326.5 21.1006 326.9 20.9006C327.1 20.5006 327.5 20.5006 327.9 20.3006C328.3 20.3006 328.7 20.3006 329.3 20.1006C329.9 20.1006 330.3 19.9006 330.9 19.9006C330.9 19.7006 330.7 19.3006 330.7 19.1006C330.7 18.9006 330.5 19.1006 330.5 18.7006C330.5 18.3006 330.5 17.9006 330.7 17.7006C330.9 17.3006 331.1 17.1006 331.5 17.1006C331.9 17.1006 332.3 17.1006 332.5 17.3006C332.7 17.5006 333.1 17.7006 333.1 18.1006C333.1 18.3006 333.3 18.7006 333.3 18.9006C333.3 19.1006 333.5 19.5006 333.5 19.7006C334.1 19.7006 334.5 19.5006 334.9 19.5006C335.3 19.3006 335.9 19.3006 336.3 19.1006C336.7 19.1006 337.1 19.1006 337.3 19.3006C337.7 19.5006 337.9 19.9006 337.9 20.1006C337.9 20.5006 337.9 20.9006 337.7 21.1006C337.5 21.5006 337.3 21.7006 336.9 21.7006C336.5 21.7006 336.1 21.9006 335.7 21.9006C335.3 21.9006 334.9 22.1006 334.3 22.1006C334.3 22.3006 334.5 22.7006 334.7 22.9006C334.9 23.1006 334.9 23.5006 335.1 23.7006C335.7 23.5006 336.3 23.5006 337.1 23.3006C337.7 23.1006 338.3 23.1006 338.7 22.9006C339.1 22.9006 339.5 22.9006 339.7 23.1006C339.9 23.3006 340.3 23.5006 340.3 23.9006C340.3 24.3006 340.3 24.7006 340.1 24.9006C339.9 25.3006 339.7 25.5006 339.3 25.5006C338.9 25.7006 338.5 25.7006 337.9 25.9006C337.3 26.1006 336.9 26.1006 336.3 26.3006C336.7 27.1006 337.1 27.7006 337.5 28.3006C337.9 28.9006 338.5 29.5006 338.9 29.9006C339.1 30.1006 339.3 30.5006 339.3 30.7006C339.3 31.1006 339.3 31.3006 339.1 31.7006C338.9 31.9006 338.7 32.1006 338.3 32.3006C337.9 32.5006 337.7 32.5006 337.3 32.3006C335.9 31.7006 334.5 31.3006 333.3 31.3006C332.1 31.3006 331.3 31.3006 330.7 31.7006C330.1 32.1006 329.7 32.5006 329.7 33.3006C329.7 35.1006 331.5 35.9006 335.3 35.9006C335.7 35.9006 336.1 36.1006 336.3 36.3006C336.5 36.5006 336.7 36.9006 336.7 37.3006C336.7 37.7006 336.5 38.1006 336.3 38.3006C336.5 38.9006 336.1 39.1006 335.7 39.1006Z" fill="#010F32"/>
<path d="M379.5 39.0996C379.1 39.0996 378.7 38.8996 378.5 38.6996C378.3 38.4996 378.1 38.0996 378.1 37.6996V24.0996C378.1 22.8996 378.3 21.8996 378.5 21.0996C378.7 20.2996 379.1 19.6996 379.5 19.2996C380.1 18.8996 380.7 18.4996 381.5 18.2996C382.3 18.0996 383.5 18.0996 384.9 18.0996H390.5C391.9 18.0996 392.9 18.0996 393.9 18.2996C394.7 18.4996 395.5 18.6996 395.9 19.2996C396.5 19.6996 396.7 20.2996 396.9 21.0996C397.1 21.8996 397.3 22.8996 397.3 24.0996V34.4996C397.3 35.6996 397.1 36.6996 396.9 37.2996C396.7 37.8996 396.1 38.4996 395.5 38.6996C394.9 38.8996 394.1 39.0996 392.9 39.0996C392.5 39.0996 391.9 39.0996 391.7 38.6996C391.3 38.4996 391.1 38.0996 391.1 37.6996C391.1 37.2996 391.1 36.8996 391.5 36.4996C391.7 36.0996 392.1 36.0996 392.5 36.0996C393.1 36.0996 393.5 35.8996 393.7 35.8996C393.9 35.6996 394.1 35.4996 394.3 35.2996C394.3 34.8996 394.5 34.4996 394.5 34.0996V29.4996H381.1V37.6996C381.1 38.0996 380.9 38.4996 380.7 38.6996C380.3 38.8996 379.9 39.0996 379.5 39.0996ZM380.9 26.6996H386.1V20.4996H384.7C383.7 20.4996 382.7 20.4996 382.3 20.6996C381.7 20.8996 381.3 21.0996 381.1 21.6996C380.9 22.0996 380.7 22.8996 380.7 23.8996L380.9 26.6996ZM389.1 26.6996H394.5V23.8996C394.5 22.8996 394.5 22.0996 394.3 21.6996C394.1 21.2996 393.7 20.8996 393.1 20.6996C392.5 20.4996 391.7 20.4996 390.7 20.4996H389.3V26.6996H389.1Z" fill="#010F32"/>
<path d="M416.899 38.0998C414.699 38.4998 412.899 38.4998 411.499 38.4998C410.099 38.4998 408.899 38.2998 407.899 37.8998C407.099 37.4998 406.299 37.0998 405.899 36.4998C405.499 35.8998 405.299 35.0998 405.299 34.4998C405.299 33.2998 405.699 32.0998 406.699 31.0998C407.699 30.0998 409.099 29.0998 410.899 28.2998C410.699 27.8998 410.299 27.6998 409.899 27.6998C409.099 27.4998 408.299 27.4998 407.499 27.8998C406.699 28.2998 405.899 28.8998 405.299 29.6998C405.099 29.8998 404.699 30.0998 404.299 30.0998C403.899 30.0998 403.499 29.8998 403.299 29.6998C403.099 29.2998 402.899 29.0998 402.899 28.6998C402.899 28.2998 403.099 27.8998 403.299 27.6998C404.099 27.0998 404.699 26.2998 405.299 25.4998C405.899 24.6998 406.499 23.8998 406.899 23.0998C406.299 23.0998 405.499 23.0998 404.899 23.0998C404.299 23.0998 403.699 23.0998 403.299 23.0998C402.899 23.0998 402.499 22.8998 402.299 22.6998C402.099 22.4998 401.899 22.0998 401.899 21.6998C401.899 21.2998 402.099 20.8998 402.299 20.6998C402.499 20.4998 402.899 20.2998 403.299 20.2998C403.899 20.2998 404.499 20.2998 405.299 20.2998C406.099 20.2998 406.899 20.2998 407.699 20.2998C407.699 19.8998 407.899 19.6998 407.899 19.4998C407.899 19.2998 408.099 18.8998 408.099 18.6998C408.099 18.2998 408.299 17.8998 408.699 17.6998C408.899 17.4998 409.299 17.2998 409.699 17.4998C410.099 17.4998 410.499 17.6998 410.699 18.0998C410.899 18.4998 411.099 18.6998 410.899 19.0998C410.899 19.2998 410.899 19.4998 410.899 19.6998C410.899 19.8998 410.699 20.0998 410.699 20.2998C411.299 20.2998 411.899 20.2998 412.499 20.0998C413.099 20.0998 413.499 20.0998 413.899 19.8998C414.299 19.8998 414.699 19.8998 414.899 20.0998C415.299 20.2998 415.299 20.6998 415.499 21.0998C415.499 21.4998 415.499 21.8998 415.099 22.0998C414.699 22.2998 414.499 22.4998 414.099 22.6998C413.499 22.6998 412.899 22.8998 412.099 22.8998C411.299 22.8998 410.499 22.8998 409.699 23.0998C409.299 23.8998 408.899 24.6998 408.499 25.2998C408.899 25.2998 409.299 25.0998 409.699 25.2998C410.099 25.2998 410.299 25.2998 410.699 25.4998C411.099 25.6998 411.699 25.8998 412.099 26.0998C412.499 26.4998 412.899 26.8998 413.299 27.4998C414.099 27.2998 414.899 27.0998 415.899 26.8998C416.699 26.6998 417.699 26.4998 418.699 26.2998C419.099 26.2998 419.499 26.2998 419.699 26.4998C420.099 26.6998 420.299 27.0998 420.299 27.4998C420.299 27.8998 420.299 28.2998 420.099 28.4998C419.899 28.8998 419.499 28.8998 419.099 29.0998C418.099 29.2998 417.299 29.2998 416.499 29.4998C415.699 29.6998 414.899 29.8998 414.299 29.8998C414.299 30.2998 414.499 30.8998 414.499 31.2998C414.499 31.8998 414.499 32.2998 414.499 32.8998C414.499 33.2998 414.299 33.6998 414.099 33.8998C413.899 34.0998 413.499 34.2998 413.099 34.2998C412.699 34.2998 412.299 34.0998 412.099 33.8998C411.899 33.6998 411.699 33.2998 411.699 32.8998C411.699 32.0998 411.699 31.2998 411.499 30.6998C410.099 31.2998 409.299 31.8998 408.699 32.4998C408.099 33.0998 407.899 33.6998 407.899 34.2998C407.899 34.6998 408.099 35.0998 408.699 35.2998C409.299 35.4998 410.099 35.6998 411.299 35.6998C412.499 35.6998 414.099 35.6998 416.299 35.2998C416.699 35.2998 417.099 35.2998 417.299 35.4998C417.699 35.6998 417.899 36.0998 417.899 36.4998C417.899 36.8998 417.899 37.2998 417.699 37.4998C417.699 37.8998 417.299 38.0998 416.899 38.0998Z" fill="#010F32"/>
<path d="M238.3 38.5C238.3 40.3 236.9 41.3 234.9 41.3C232.7 41.3 231.5 40.3 231.5 38.5V8.5C231.5 7.7 231.3 7.10001 230.3 7.10001C230.3 7.10001 230.3 7.10001 230.1 7.10001L225.5 7.3C223.7 7.3 222.5 5.7 222.5 4.1C222.5 2.3 223.5 0.899997 225.3 0.699997L232.5 0.5C232.7 0.5 232.9 0.5 232.9 0.5C236.9 0.5 238.1 1.70001 238.1 6.10001V38.5H238.3Z" fill="#DF4220"/>
<path d="M365.9 38.5C365.9 40.3 364.5 41.3 362.5 41.3C360.3 41.3 359.1 40.3 359.1 38.5V8.5C359.1 7.7 358.9 7.10001 357.9 7.10001C357.9 7.10001 357.9 7.10001 357.7 7.10001L353.1 7.3C351.3 7.3 350.1 5.7 350.1 4.1C350.1 2.3 351.1 0.899997 352.9 0.699997L360.1 0.5C360.3 0.5 360.5 0.5 360.5 0.5C364.5 0.5 365.7 1.70001 365.7 6.10001V38.5H365.9Z" fill="#DF4220"/>
</svg>
