<svg width="545" height="209" viewBox="0 0 545 209" fill="none" xmlns="http://www.w3.org/2000/svg">
<path d="M186.274 197.94V195.38C186.274 178.292 205.922 177.076 205.922 167.604C205.922 164.596 204.386 161.332 199.074 161.332C196.066 161.332 193.314 162.292 191.842 162.868C190.306 163.444 189.154 162.932 188.514 161.46L188.066 160.372C187.49 158.836 188.13 157.62 189.666 156.98C191.522 156.212 195.17 154.996 199.138 154.996C208.034 154.996 213.474 160.436 213.474 167.604C213.474 181.108 193.762 182.836 193.762 194.292H211.106C212.642 194.292 213.666 195.252 213.666 196.788V197.94C213.666 199.476 212.642 200.5 211.106 200.5H188.77C187.234 200.5 186.274 199.476 186.274 197.94ZM233.275 183.22V173.044C233.275 161.78 238.907 154.996 248.763 154.996C258.747 154.996 264.315 162.164 264.315 173.044V183.22C264.315 194.484 258.747 201.332 248.763 201.332C238.907 201.332 233.275 194.228 233.275 183.22ZM248.763 194.996C254.907 194.996 256.763 189.556 256.763 182.26V174.004C256.763 166.708 254.907 161.332 248.763 161.332C242.619 161.332 240.827 166.708 240.827 174.004V182.26C240.827 189.556 242.619 194.996 248.763 194.996ZM283.436 197.94V195.38C283.436 178.292 303.084 177.076 303.084 167.604C303.084 164.596 301.548 161.332 296.236 161.332C293.228 161.332 290.476 162.292 289.004 162.868C287.468 163.444 286.316 162.932 285.676 161.46L285.228 160.372C284.652 158.836 285.292 157.62 286.828 156.98C288.684 156.212 292.332 154.996 296.3 154.996C305.196 154.996 310.636 160.436 310.636 167.604C310.636 181.108 290.924 182.836 290.924 194.292H308.268C309.804 194.292 310.828 195.252 310.828 196.788V197.94C310.828 199.476 309.804 200.5 308.268 200.5H285.932C284.396 200.5 283.436 199.476 283.436 197.94ZM335.212 191.156C329.516 191.156 327.084 188.66 328.364 182.644L333.676 158.196C333.996 156.596 335.148 155.828 336.684 155.828H338.604C340.14 155.828 340.972 156.916 340.652 158.58L335.596 182.644C335.276 184.052 335.596 184.948 337.068 184.948H344.044V171.444C344.044 169.908 344.876 168.756 346.348 168.5L348.652 168.116C350.252 167.86 351.276 168.692 351.276 170.228V184.948H356.716C358.252 184.948 359.276 185.908 359.276 187.444V188.596C359.276 190.132 358.252 191.156 356.716 191.156H351.276V197.94C351.276 199.476 350.316 200.5 348.78 200.5H346.604C345.068 200.5 344.044 199.476 344.044 197.94V191.156H335.212Z" fill="#010F32"/>
<path d="M9.38803 130.267C8.08096 130.528 7.03532 130.267 5.98966 129.744C4.94401 129.221 4.42119 128.437 4.15977 127.13C3.89836 125.823 4.15977 124.777 4.6826 123.993C5.20543 122.947 6.25108 122.686 7.29673 122.424C8.8652 122.163 10.4337 121.901 11.4793 121.117C12.525 120.594 13.3092 119.287 13.832 117.457C14.3549 115.628 14.6163 113.275 14.6163 109.877C14.6163 107.785 14.6163 105.694 14.3549 103.864C13.3092 105.433 12.2636 106.74 11.2179 108.308C10.1723 109.615 9.12662 110.922 8.08096 111.968C7.29673 112.752 6.51249 113.275 5.46684 113.536C4.42119 113.798 3.37554 113.275 2.5913 112.752C1.80706 112.229 1.28424 111.184 1.28424 110.399C1.28424 109.615 1.54565 108.569 2.32989 107.785C3.63696 106.478 4.6826 104.91 5.98966 103.341C7.29673 101.773 8.60379 99.9429 9.91086 98.113C11.2179 96.2831 12.0022 94.7146 12.7864 93.4075C12.525 92.3619 12.2636 91.5776 12.0022 90.7934C11.7407 90.0092 11.4793 89.2249 10.9565 88.1793C9.64945 89.4863 8.60379 90.532 7.29673 91.839C6.51249 92.6233 5.72826 92.8847 4.42119 92.8847C3.37554 92.8847 2.32988 92.6233 1.54565 91.839C0.761407 91.0548 0.5 90.2706 0.5 89.2249C0.5 88.1793 1.02282 87.395 1.54565 86.6108C3.37553 85.0423 4.94402 83.2124 7.03532 81.1211C6.25108 80.0755 5.72826 79.0298 4.94402 77.9841C4.15978 76.9385 3.37554 75.8929 2.5913 74.8472C2.06847 74.063 1.80706 73.2787 2.06847 72.2331C2.32989 71.1874 2.85272 70.6646 3.63696 70.1418C4.42119 69.6189 5.20543 69.3575 6.25108 69.6189C7.29673 69.6189 8.08097 70.1418 8.60379 70.926C9.91086 72.4945 10.9565 73.8016 12.2636 75.6314C12.7864 74.8472 13.5706 73.8016 14.0935 73.0173C14.6163 72.2331 15.1391 71.4489 15.6619 70.6646C16.1848 69.619 16.969 69.0961 18.0147 68.8347C19.0603 68.5733 19.8445 68.5733 20.8902 69.0961C21.9358 69.619 22.4587 70.4032 22.7201 71.1874C22.9815 71.9717 22.7201 73.0173 22.1973 74.063C21.413 75.37 20.6288 76.6771 19.5831 78.2456C18.5375 79.8141 17.4918 81.1211 16.4462 82.4282C18.2761 86.3494 19.8445 90.532 20.6288 94.976C21.6744 99.42 21.9358 104.648 21.9358 110.399C21.9358 115.628 21.413 119.549 20.3674 122.424C19.3217 125.3 18.0147 127.13 16.1848 128.437C14.3549 129.221 12.2636 130.005 9.38803 130.267ZM35.5293 91.3162C34.4837 91.3162 33.438 91.0548 32.6538 90.2706C31.8695 89.7478 31.6081 88.7021 31.6081 87.395V83.4738H24.2886C23.2429 83.4738 22.4587 83.2124 21.6744 82.4282C21.1516 81.644 20.6288 80.8597 20.6288 80.0755C20.6288 79.2912 20.8902 78.2456 21.6744 77.7228C22.1973 76.9385 23.2429 76.6771 24.2886 76.6771H31.6081V71.7103C31.6081 70.4032 31.8695 69.3575 32.6538 68.8347C33.438 68.3119 34.2222 67.7891 35.5293 67.7891C36.8364 67.7891 37.3592 68.0505 38.1434 68.8347C38.9277 69.3575 39.1891 70.4032 39.1891 71.7103V76.6771H46.5087V71.7103C46.5087 70.4032 46.77 69.3575 47.5543 68.8347C48.3385 68.3119 49.1228 67.7891 50.1684 67.7891C51.2141 67.7891 51.9983 68.0505 52.7825 68.8347C53.5668 69.3575 53.8282 70.4032 53.8282 71.7103V76.6771H61.1478C62.1934 76.6771 62.9777 76.9385 63.7619 77.7228C64.2847 78.507 64.8075 79.2912 64.8075 80.0755C64.8075 80.8597 64.5461 81.9054 63.7619 82.4282C63.2391 83.2124 62.1934 83.4738 61.1478 83.4738H53.8282V87.6565C53.8282 88.9635 53.5668 89.7477 52.7825 90.532C51.9983 91.0548 51.2141 91.5776 50.1684 91.5776C49.1228 91.5776 48.3385 91.3162 47.5543 90.532C46.77 90.0091 46.5087 88.9635 46.5087 87.6565V83.4738H39.1891V87.6565C39.1891 88.9635 38.9277 89.7477 38.1434 90.532C37.3592 91.0548 36.575 91.3162 35.5293 91.3162ZM38.4049 129.221C33.6994 129.221 30.3011 128.175 28.2097 126.346C26.1184 124.516 25.0728 121.379 25.0728 116.673V104.91C25.0728 100.466 26.1184 97.0673 28.2097 95.2374C30.3011 93.4075 33.6994 92.3618 38.4049 92.3618H48.3385C53.044 92.3618 56.4423 93.4075 58.5336 95.2374C60.6249 97.0673 61.6706 100.204 61.6706 104.91V116.673C61.6706 121.379 60.6249 124.516 58.5336 126.346C56.4423 128.175 53.044 129.221 48.3385 129.221H38.4049ZM32.9152 107.524H39.9733V99.9428H39.1891C37.6206 99.9428 36.3135 100.204 35.5293 100.466C34.7451 100.727 33.9608 101.25 33.6994 102.034C33.438 102.818 33.1766 103.864 33.1766 105.432V107.524H32.9152ZM38.9277 122.163H39.7119V114.582H32.6538V116.935C32.6538 119.026 32.9152 120.594 33.6994 121.117C34.7451 121.64 36.575 122.163 38.9277 122.163ZM47.0315 107.524H54.0896V105.171C54.0896 103.603 53.8282 102.557 53.5668 101.773C53.3054 100.988 52.7826 100.466 51.7369 100.204C50.9527 99.9428 49.6456 99.6814 47.8157 99.6814H47.0315V107.524ZM47.0315 122.163H47.8157C49.3842 122.163 50.6913 121.902 51.7369 121.64C52.5211 121.379 53.044 120.856 53.5668 120.072C53.8282 119.287 54.0896 118.242 54.0896 116.673V114.321H47.0315V122.163Z" fill="#010F32"/>
<path d="M74.4802 102.034C73.4345 102.034 72.6503 101.772 72.1274 100.988C71.3432 100.204 71.0818 99.4198 71.0818 98.6355C71.0818 97.8513 71.3432 96.8056 72.1274 96.2828C72.9117 95.4986 73.6959 95.2372 74.4802 95.2372H81.2769C81.0155 94.9757 81.0155 94.9758 81.0155 94.7143C81.0155 94.4529 80.7541 94.4529 80.7541 94.1915C80.4927 93.1459 79.9698 92.1002 79.1856 90.7932C78.6628 89.4861 78.1399 88.4404 77.6171 87.6562C77.0943 86.872 77.0943 85.8263 77.3557 84.7807C77.6171 83.735 78.4014 83.2122 79.1856 82.6893C79.447 82.6893 79.447 82.428 79.7084 82.428C79.9698 82.428 79.9698 82.4279 80.2312 82.1665H76.5715C75.5258 82.1665 74.7416 81.9051 74.2188 81.1209C73.4345 80.5981 73.1731 79.8138 73.1731 78.7681C73.1731 77.7225 73.4345 77.1997 74.2188 76.4154C75.003 75.8926 75.7872 75.3698 76.5715 75.3698H85.9823V70.9258C85.9823 69.6187 86.5052 68.5731 87.2894 67.7888C88.0736 67.0046 89.1193 66.7432 90.1649 66.7432C91.472 66.7432 92.2562 67.0046 93.0405 67.7888C93.8247 68.5731 94.3475 69.6187 94.3475 70.9258V75.3698H103.758C104.804 75.3698 105.327 75.6312 106.111 76.4154C106.634 76.9383 107.157 77.7225 107.157 78.7681C107.157 79.8138 106.895 80.3366 106.111 81.1209C105.588 81.6437 104.804 82.1665 103.758 82.1665H100.36L100.621 82.428C101.667 82.6894 102.19 83.4736 102.713 84.2578C103.236 85.0421 103.236 86.0877 102.713 87.1333C102.451 87.9176 101.928 89.2247 101.144 90.5317C100.36 92.1002 99.8372 93.4073 99.3144 94.7143H104.804C105.85 94.7143 106.634 94.9757 107.157 95.76C107.941 96.5442 108.202 97.3285 108.202 98.1127C108.202 98.897 107.941 99.9426 107.157 100.465C106.373 101.25 105.588 101.511 104.804 101.511H74.4802V102.034ZM89.9035 129.221C86.5052 129.221 83.891 128.959 81.7997 128.175C79.9698 127.391 78.6628 126.345 77.8785 124.515C77.0943 122.685 76.8329 120.333 76.8329 117.457C76.8329 114.32 77.0943 111.968 77.8785 110.399C78.6628 108.569 79.9698 107.524 81.7997 106.739C83.6296 105.955 86.2437 105.694 89.9035 105.694C93.3019 105.694 96.1774 105.955 98.0073 106.739C99.8372 107.524 101.144 108.569 101.929 110.399C102.713 112.229 102.974 114.582 102.974 117.457C102.974 120.594 102.713 122.947 101.929 124.515C101.144 126.084 99.8372 127.391 98.0073 128.175C96.1774 128.959 93.5633 129.221 89.9035 129.221ZM87.028 95.2372H91.472C91.9948 94.1915 92.2562 93.1459 93.0405 91.5774C93.5633 90.2703 94.0861 88.9633 94.6089 87.6562C95.1318 86.3491 95.3932 85.5649 95.6546 84.7807C96.1774 83.735 96.9617 82.9508 98.0073 82.428H82.0611C83.1068 82.6894 83.6296 83.2122 84.1524 84.2578C84.4138 84.7807 84.9367 85.5649 85.1981 86.3491C85.7209 87.1334 85.9823 88.179 86.5051 88.9633C86.7666 89.7475 87.2894 90.5317 87.2894 90.7932C88.335 92.623 88.0736 94.1915 87.028 95.2372ZM89.9035 122.163C91.2106 122.163 92.5176 122.163 93.0405 121.901C93.8247 121.64 94.3475 121.117 94.6089 120.594C94.8704 119.81 95.1318 118.764 95.1318 117.457C95.1318 116.15 94.8704 115.105 94.6089 114.32C94.3475 113.536 93.8247 113.275 93.0405 113.013C92.2562 112.752 91.2106 112.752 89.9035 112.752C88.5965 112.752 87.5508 112.752 86.7666 113.013C85.9823 113.275 85.4595 113.797 85.1981 114.32C84.9367 115.105 84.6753 116.15 84.6753 117.457C84.6753 118.764 84.9367 120.071 85.1981 120.594C85.4595 121.378 85.9823 121.901 86.7666 121.901C87.5508 122.163 88.5965 122.163 89.9035 122.163ZM113.431 131.312C112.385 131.312 111.339 131.051 110.555 130.266C109.771 129.482 109.509 128.698 109.509 127.391V79.8138C109.509 77.1997 109.771 75.3698 110.555 74.0627C111.339 72.7556 112.646 71.71 114.476 71.1872C116.306 70.6644 119.182 70.4029 122.58 70.4029C128.07 70.4029 131.73 71.4486 133.037 73.2785C134.605 75.3698 134.344 78.2453 132.775 81.9051C132.252 83.4736 131.468 84.7807 130.945 86.0877C130.422 87.3948 129.9 88.4404 129.377 89.4861C128.854 90.5317 128.593 91.5774 128.331 92.1002C128.07 92.623 128.331 93.4073 128.593 93.9301C128.854 94.4529 129.638 95.2371 130.423 96.2828C132.252 98.3741 133.559 100.465 134.605 102.557C135.651 104.648 136.174 107.262 136.174 110.138C136.174 114.582 135.128 117.98 132.775 120.071C130.423 122.163 127.286 123.47 123.364 123.47C122.057 123.47 121.012 123.208 120.227 122.424C119.443 121.901 118.92 120.856 118.92 119.549C118.92 118.241 119.182 117.457 119.705 116.673C120.489 115.889 121.534 115.366 122.842 115.366C124.671 115.105 125.978 114.582 126.763 114.059C127.547 113.275 127.808 111.968 127.808 109.876C127.808 107.785 127.547 105.955 126.763 104.387C125.978 102.557 125.194 100.988 123.887 99.4198C122.842 98.1127 122.057 97.0671 121.534 96.0214C121.012 95.2372 120.75 94.1915 120.489 93.4073C120.489 92.623 120.489 91.8388 120.75 90.7932C121.012 89.7475 121.273 88.7018 122.057 87.1333C122.58 86.0877 122.842 85.0421 123.364 83.9964C123.887 82.9508 124.149 82.1665 124.671 80.8595C125.194 79.5524 125.194 78.7682 124.933 78.2453C124.41 77.7225 123.364 77.4611 121.796 77.4611C120.227 77.4611 118.92 77.7225 118.398 77.9839C117.875 78.5067 117.613 79.291 117.613 80.8595V127.914C117.613 129.221 117.352 130.005 116.568 130.789C115.261 130.789 114.476 131.312 113.431 131.312Z" fill="#010F32"/>
<path d="M154.472 118.241C153.427 118.241 152.381 117.718 151.597 116.934C150.812 116.15 150.29 115.104 150.29 114.058C150.29 112.751 150.812 111.967 151.597 111.183C152.381 110.399 153.427 109.876 154.472 109.876H178.522C181.398 109.876 183.489 109.614 184.796 109.353C186.103 108.83 187.149 108.046 187.672 106.477C188.194 105.17 188.456 102.818 188.456 99.9422C188.456 97.0666 188.194 94.7139 187.672 93.4068C187.149 92.0998 186.365 91.0541 184.796 90.5313C183.489 90.0085 181.398 90.0085 178.522 90.0085H155.256C154.211 90.0085 153.165 89.4856 152.381 88.7014C151.597 87.9172 151.074 86.8715 151.074 85.5645C151.074 84.2574 151.597 83.4731 152.381 82.6889C153.165 81.9047 154.211 81.3818 155.256 81.3818H178.522C182.182 81.3818 185.057 81.6433 187.41 82.1661C189.763 82.6889 191.593 83.7346 192.9 85.0416C194.207 86.3487 195.253 88.1786 195.775 90.7927C196.298 93.1454 196.56 96.2824 196.56 99.9422C196.56 103.602 196.298 106.739 195.775 109.092C195.253 111.444 194.207 113.274 192.9 114.843C191.593 116.411 189.763 117.195 187.149 117.718C184.796 118.241 181.659 118.502 178.261 118.502H154.472V118.241Z" fill="#010F32"/>
<path d="M224.008 127.13C222.962 127.391 221.917 127.391 220.871 126.868C219.825 126.345 219.041 125.561 218.78 124.516C218.518 123.47 218.518 122.424 219.041 121.379C219.564 120.333 220.348 119.549 221.394 119.287C227.145 117.457 232.112 114.843 236.294 111.445C240.477 108.047 243.614 104.387 245.705 100.204C247.274 96.8058 245.967 94.9759 242.046 94.9759H216.95C215.904 94.9759 214.859 94.4531 214.074 93.6688C213.29 92.8846 212.767 91.8389 212.767 90.7933C212.767 89.4862 213.29 88.702 214.074 87.9177C214.859 87.1335 215.904 86.8721 216.95 86.8721H242.307C246.228 86.8721 249.365 87.6564 251.456 88.9634C253.548 90.5319 254.855 92.3618 255.116 94.9759C255.378 97.59 254.855 100.466 253.286 103.864C250.672 109.092 247.012 113.798 241.784 117.98C236.556 121.64 230.543 124.777 224.008 127.13ZM221.394 81.3824C220.348 81.3824 219.303 81.121 218.518 80.3368C217.734 79.5525 217.211 78.5069 217.211 77.4612C217.211 76.1542 217.734 75.37 218.518 74.5857C219.303 73.8015 220.348 73.54 221.394 73.54H247.535C248.581 73.54 249.627 73.8015 250.411 74.5857C251.195 75.37 251.718 76.4156 251.718 77.4612C251.718 78.5069 251.195 79.5525 250.411 80.3368C249.627 81.121 248.581 81.3824 247.535 81.3824H221.394Z" fill="#010F32"/>
<path d="M276.029 117.196C274.983 117.719 273.937 117.98 272.892 117.719C271.846 117.457 270.8 116.673 270.277 115.889C269.755 114.843 269.493 113.797 269.755 112.752C270.016 111.706 270.8 110.66 271.846 110.138C273.676 108.831 275.767 107.523 277.597 105.694C279.688 104.125 281.257 102.295 282.825 100.727C283.61 99.9425 284.655 99.4197 285.701 99.1583C286.746 98.8969 287.792 99.1583 288.576 99.6811C289.622 100.465 290.145 101.25 290.145 102.557C290.145 103.864 290.145 104.648 289.361 105.694C288.315 107.262 286.747 108.569 285.178 110.138C283.61 111.706 282.041 113.013 280.473 114.32C278.904 115.366 277.336 116.412 276.029 117.196ZM289.622 125.822C288.576 125.822 287.531 125.3 286.746 124.515C285.962 123.731 285.439 122.685 285.439 121.64C285.439 120.333 285.962 119.548 286.746 118.503C287.531 117.457 288.576 117.196 289.622 117.196C291.713 117.196 293.282 116.934 293.805 116.15C294.327 115.627 294.85 114.32 294.85 112.229V93.1458H276.551C275.506 93.1458 274.46 92.623 273.676 91.8387C272.892 91.0545 272.63 90.0089 272.63 88.9632C272.63 87.9176 272.892 86.8719 273.676 86.0876C274.46 85.3034 275.506 84.7806 276.551 84.7806H294.85V77.461C294.85 76.154 295.373 75.3697 296.157 74.5855C296.942 73.8013 297.987 73.2784 299.033 73.2784C300.34 73.2784 301.124 73.8013 301.908 74.5855C302.693 75.3697 303.215 76.4154 303.215 77.461V84.7806H320.207C321.253 84.7806 322.299 85.3034 323.083 86.0876C323.867 86.8719 324.129 87.9176 324.129 88.9632C324.129 90.0089 323.867 91.0545 323.083 91.8387C322.299 92.623 321.253 93.1458 320.207 93.1458H303.215V112.752C303.215 117.457 302.17 120.856 300.079 122.685C297.987 124.515 294.589 125.822 289.622 125.822ZM326.743 115.627C325.958 116.412 324.913 116.673 323.606 116.673C322.56 116.673 321.514 116.15 320.73 115.366C319.946 114.32 318.639 113.536 317.593 112.229C316.286 111.183 314.979 109.876 313.672 108.831C312.365 107.785 311.058 106.739 310.012 105.955C308.967 105.432 308.444 104.387 308.182 103.341C307.921 102.295 308.182 101.25 308.705 100.204C309.228 99.1583 310.274 98.6355 311.319 98.374C312.365 98.1126 313.411 98.374 314.456 98.8969C315.763 99.6811 317.07 100.727 318.639 102.034C320.207 103.341 321.776 104.648 323.344 105.955C324.913 107.262 326.22 108.569 327.265 109.615C328.05 110.399 328.573 111.445 328.311 112.752C328.05 114.059 327.527 114.843 326.743 115.627ZM324.129 82.9507C323.606 83.4735 322.821 83.7349 322.037 83.7349C321.253 83.7349 320.469 83.2121 319.946 82.6893C319.423 82.1664 318.639 81.3822 317.855 80.3366C317.07 79.2909 316.286 78.5067 315.502 77.7224C314.979 77.1996 314.718 76.6768 314.718 75.8926C314.718 75.1083 314.979 74.5855 315.502 74.0626C316.025 73.5398 316.809 73.2784 317.332 73.2784C318.116 73.2784 318.639 73.5398 319.162 74.0626C319.946 74.5855 320.73 75.3697 321.776 76.154C322.821 77.1996 323.606 77.9838 324.129 78.7681C324.651 79.2909 324.913 80.0752 324.913 80.8594C324.913 81.6436 324.651 82.4279 324.129 82.9507ZM326.22 76.9382C325.697 76.4154 324.913 75.6312 324.129 74.5855C323.344 73.8013 322.56 73.017 321.776 72.2328C321.253 71.7099 320.992 71.1871 320.992 70.4029C320.992 69.6186 321.253 69.0958 321.776 68.3116C322.299 67.7887 322.821 67.5273 323.606 67.5273C324.39 67.5273 324.913 67.7888 325.697 68.0502C326.481 68.573 327.265 69.0958 328.311 69.8801C329.357 70.6643 330.141 71.4485 330.925 72.2328C331.448 72.7556 331.709 73.5398 331.709 74.3241C331.709 75.1083 331.448 75.8926 330.925 76.4154C330.402 76.9382 329.618 77.1996 328.834 77.1996C328.05 77.1996 326.743 77.461 326.22 76.9382Z" fill="#010F32"/>
<path d="M375.889 131.574C374.844 131.574 373.798 131.051 373.014 130.528C372.229 129.744 371.707 128.698 371.707 127.391V115.889H343.474C342.428 115.889 341.644 115.627 340.86 114.843C340.076 114.059 339.814 113.275 339.814 112.229C339.814 111.183 340.076 110.399 340.86 109.615C341.644 108.831 342.428 108.569 343.474 108.569H352.362V102.818C352.362 99.9427 352.623 97.8514 353.408 96.0215C354.192 94.4531 355.499 93.146 357.329 92.3617C359.159 91.5775 361.773 91.3161 365.171 91.3161H371.184V83.4737H357.067C355.76 85.565 354.453 87.3949 352.885 89.2248C351.316 91.0547 350.009 92.6232 348.441 94.1917C347.657 94.9759 346.611 95.4987 345.304 95.7601C344.258 96.0215 343.213 95.4987 342.167 94.7145C341.383 93.9302 340.86 93.146 340.86 92.1004C340.86 91.0547 341.121 90.009 342.167 89.2248C343.997 87.3949 345.827 85.3036 347.657 82.9509C349.486 80.5982 351.055 78.2455 352.623 75.8928C354.192 73.5401 355.499 71.1873 356.283 69.096C356.806 68.0504 357.59 67.5275 358.636 67.0047C359.682 66.7433 360.727 66.7433 361.773 67.2661C362.819 67.789 363.341 68.3118 363.864 69.3575C364.126 70.4031 364.126 71.1873 363.603 72.233C363.08 73.54 362.296 75.1085 361.511 76.4156H397.064C398.109 76.4156 398.893 76.677 399.678 77.4612C400.462 78.2455 400.723 79.0297 400.723 80.0754C400.723 81.121 400.462 81.9052 399.678 82.6895C398.893 83.4737 398.109 83.7352 397.064 83.7352H379.81V91.5775H392.881C393.927 91.5775 394.711 91.8389 395.495 92.6232C396.279 93.4074 396.541 94.1917 396.541 95.2373C396.541 96.283 396.279 97.0672 395.495 97.8514C394.711 98.6357 393.927 98.8971 392.881 98.8971H379.81V108.831H400.201C401.246 108.831 402.03 109.092 402.815 109.876C403.599 110.661 403.86 111.445 403.86 112.491C403.86 113.536 403.599 114.32 402.815 115.105C402.03 115.889 401.246 116.15 400.201 116.15H379.81V127.652C379.81 128.96 379.288 130.005 378.503 130.789C377.98 131.051 377.196 131.574 375.889 131.574ZM360.727 108.569H371.445V98.6357H365.433C363.603 98.6357 362.296 98.8971 361.773 99.4199C361.25 99.9427 360.989 100.988 360.989 102.818V108.569H360.727Z" fill="#010F32"/>
<path d="M417.192 94.4532C416.147 94.9761 415.362 95.2375 414.055 95.2375C413.01 95.2375 411.964 94.7146 411.441 93.669C410.918 92.8848 410.657 92.1005 410.918 91.0549C411.18 90.0092 411.702 89.225 412.487 88.9636C414.839 87.6565 416.931 86.088 418.499 84.5195C420.068 82.9511 421.113 80.8598 422.159 78.5071H414.839C413.794 78.5071 413.271 78.2457 412.748 77.7228C412.225 77.2 411.964 76.4158 411.964 75.6315C411.964 74.8473 412.225 74.063 412.748 73.5402C413.271 73.0174 414.055 72.756 414.839 72.756H423.466C423.466 72.4946 423.727 71.9717 423.727 71.4489C423.727 70.9261 423.727 70.6647 423.727 70.1418C423.727 68.8348 424.25 68.0506 425.035 67.5277C425.819 67.0049 426.864 66.7435 427.91 67.0049C428.956 67.0049 429.74 67.5277 430.263 68.0506C430.786 68.8348 431.308 69.619 431.047 70.9261C431.047 71.1875 431.047 71.4489 431.047 71.7103C431.047 71.9717 431.047 72.2332 431.047 72.4946H435.491C438.367 72.4946 440.196 73.2788 441.504 74.5859C442.811 75.893 443.333 77.9843 442.811 81.1212C442.549 83.7353 442.026 85.8266 441.242 87.1337C440.458 88.4407 439.412 89.4864 437.844 90.0092C436.275 90.5321 434.445 90.7935 432.354 90.7935C431.308 90.7935 430.524 90.5321 430.001 90.0092C429.479 89.4864 428.956 88.7022 428.956 87.6565C428.956 86.6109 429.217 85.8266 429.74 85.3038C430.263 84.5196 431.047 84.2582 431.831 84.2582C433.4 84.2582 434.445 83.9968 434.707 83.7353C435.23 83.4739 435.491 82.6897 435.752 81.3826C436.014 80.3369 436.014 79.5527 435.491 79.2913C435.23 79.0299 434.445 78.7685 433.4 78.7685H430.001C428.956 82.4283 427.126 85.5652 425.296 88.1793C423.466 90.7935 420.068 92.6233 417.192 94.4532ZM419.283 131.051C417.976 131.312 416.931 131.312 416.146 131.051C415.101 130.79 414.578 130.005 414.317 128.96C414.055 127.914 414.055 127.13 414.578 126.084C415.101 125.039 415.624 124.516 416.669 124.254C417.976 123.993 419.283 123.731 420.59 123.209C422.159 122.686 423.727 122.163 425.296 121.64C426.864 121.117 428.433 120.333 429.479 119.81C426.603 119.287 424.512 118.242 423.205 116.935C421.898 115.366 421.375 113.014 421.375 110.138V102.034C421.375 98.113 422.42 95.4989 424.25 94.1918C426.08 92.8848 429.479 91.8391 434.184 91.8391H450.392C455.097 91.8391 458.495 92.6234 460.325 94.1918C462.155 95.7603 463.201 98.3745 463.201 102.034V110.138C463.201 113.275 462.678 115.628 461.371 117.196C460.064 118.765 457.973 119.81 455.097 120.072C457.188 121.117 459.28 121.902 461.632 122.686C463.985 123.47 466.076 124.254 467.906 124.516C468.952 124.777 469.736 125.3 469.998 126.346C470.259 127.391 470.52 128.175 470.259 129.221C469.998 130.267 469.213 131.051 468.429 131.312C467.383 131.574 466.338 131.574 465.292 131.312C463.724 130.79 462.155 130.267 460.325 129.744C458.495 129.221 456.665 128.176 454.836 127.391C453.006 126.607 451.437 125.823 450.13 125.3C449.346 124.777 448.823 123.993 448.562 123.209C448.3 122.424 448.562 121.64 448.823 120.856H435.752L436.014 121.117C436.537 121.902 436.537 122.686 436.275 123.47C436.014 124.254 435.491 125.039 434.707 125.561C433.4 126.346 431.831 126.868 430.001 127.653C428.171 128.437 426.342 129.221 424.512 130.005C422.682 130.79 420.852 130.528 419.283 131.051ZM429.479 107.262H455.097V104.387H429.479V107.262ZM429.74 99.9429H455.097C454.836 98.8973 454.574 98.3744 453.79 97.8516C453.267 97.5902 451.96 97.3288 450.392 97.3288H434.184C432.616 97.3288 431.57 97.5902 430.786 97.8516C430.263 98.3744 429.74 98.8973 429.74 99.9429ZM434.184 114.582H450.392C451.96 114.582 453.267 114.321 453.79 114.059C454.313 113.798 454.836 113.014 454.836 111.968H429.479C429.479 113.014 430.001 113.798 430.524 114.059C431.57 114.582 432.616 114.582 434.184 114.582ZM456.665 89.225C454.051 89.225 452.221 88.9636 450.653 88.4407C449.084 87.9179 448.039 86.8723 447.255 85.5652C446.47 84.2582 446.209 82.1669 446.209 79.8141C446.209 77.2 446.47 75.3701 447.255 74.063C448.039 72.756 449.084 71.7103 450.653 71.1875C452.221 70.6647 454.313 70.4033 456.665 70.4033H460.587C463.201 70.4033 465.292 70.6647 466.599 71.1875C468.168 71.7103 469.213 72.756 469.736 74.063C470.259 75.3701 470.782 77.4614 470.782 79.8141C470.782 82.4283 470.52 84.2582 469.736 85.5652C468.952 86.8723 467.906 87.9179 466.599 88.4407C465.031 88.9636 462.939 89.225 460.587 89.225H456.665ZM457.188 83.2125H460.587C462.155 83.2125 463.201 82.9511 463.724 82.6897C464.246 82.1668 464.508 81.3826 464.508 80.0755C464.508 78.7685 464.246 77.7228 463.724 77.2C463.201 76.6772 462.155 76.6772 460.587 76.6772H457.188C455.62 76.6772 454.574 76.9386 454.051 77.2C453.529 77.7228 453.267 78.5071 453.267 80.0755C453.267 81.3826 453.529 82.4283 454.051 82.6897C454.574 82.9511 455.62 83.2125 457.188 83.2125Z" fill="#010F32"/>
<path d="M497.446 131.051C496.4 131.051 495.354 130.79 494.57 130.005C493.786 129.221 493.525 128.437 493.525 127.13V109.615C492.218 110.661 490.91 111.706 489.342 112.752C487.773 113.798 486.728 114.582 485.944 115.366C484.898 115.889 483.852 116.15 482.807 116.15C481.761 115.889 480.715 115.366 480.193 114.321C479.67 113.275 479.408 112.229 479.67 111.184C479.931 110.138 480.454 109.354 481.5 108.831C482.022 108.308 483.068 107.785 484.114 107.001C485.159 106.217 486.205 105.433 487.512 104.648C488.819 103.864 489.865 102.818 490.91 102.034C491.956 101.25 492.74 100.466 493.525 99.9428V91.3162C493.263 92.1004 492.479 92.6233 491.695 93.1461C490.649 93.6689 489.603 93.9303 488.558 93.4075C487.512 92.8847 486.728 92.3619 486.205 91.3162C485.944 90.7934 485.421 90.0092 484.898 88.9635C484.375 87.9179 483.591 86.8722 483.068 85.8265C482.545 84.7809 482.022 83.9967 481.761 83.4738C481.238 82.4282 480.977 81.6439 481.238 80.5983C481.5 79.5526 482.284 78.7684 483.329 78.2456C484.375 77.7227 485.421 77.4613 486.466 77.7228C487.512 77.9842 488.296 78.507 488.819 79.5526C489.081 80.0755 489.603 81.1211 490.388 82.1668C490.91 83.2124 491.695 84.2581 492.218 85.3037C492.74 86.3494 493.263 87.1336 493.525 87.6564L493.786 88.1793V71.7103C493.786 70.4032 494.047 69.6189 494.832 68.8347C495.616 68.0505 496.4 67.7891 497.707 67.7891C499.014 67.7891 499.537 68.0505 500.321 68.8347C501.106 69.6189 501.367 70.4032 501.367 71.7103V126.868C501.367 127.914 501.106 128.96 500.321 129.744C499.276 130.79 498.491 131.051 497.446 131.051ZM537.703 128.437C534.044 125.823 531.168 122.686 528.554 119.287C526.201 115.889 524.11 112.229 522.803 108.569C521.496 112.229 519.666 115.889 517.575 119.287C515.483 122.686 512.346 125.561 508.948 128.175C507.902 128.96 506.857 129.221 505.811 129.221C504.765 129.221 503.72 128.698 502.935 127.653C502.413 126.607 502.151 125.823 502.151 124.777C502.413 123.731 502.935 122.947 503.72 122.163C512.346 115.889 517.313 107.001 518.097 95.2374H506.595C505.55 95.2374 504.765 94.976 503.981 94.1918C503.197 93.4075 502.935 92.6233 502.935 91.5776C502.935 90.532 503.197 89.7478 503.981 88.9635C504.765 88.1793 505.55 87.9178 506.595 87.9178H518.359V72.2331C518.359 70.926 518.882 70.1418 519.666 69.3576C520.45 68.5733 521.496 68.3119 522.541 68.3119C523.587 68.3119 524.633 68.5733 525.417 69.3576C526.201 70.1418 526.463 70.926 526.463 72.2331V87.9178H540.317C541.363 87.9178 542.147 88.1793 542.932 88.9635C543.716 89.7478 543.977 90.532 543.977 91.5776C543.977 92.6233 543.716 93.4075 542.932 94.1918C542.147 94.976 541.363 95.2374 540.317 95.2374H526.724C527.247 100.988 529.077 106.217 531.952 110.661C534.828 115.105 538.488 119.026 542.932 122.163C543.977 122.686 544.5 123.731 544.5 124.777C544.5 125.823 544.239 126.868 543.716 127.653C542.932 128.698 541.886 129.221 540.84 129.221C539.795 129.482 538.749 129.221 537.703 128.437ZM540.579 83.9966C539.795 84.5195 539.01 85.0423 537.703 84.7809C536.396 84.5195 535.873 84.2581 535.089 83.4738C534.828 82.951 534.305 82.4282 533.521 81.6439C532.998 80.8597 532.214 80.0754 531.429 79.2912C530.645 78.507 530.122 77.9842 529.861 77.4613C529.338 76.6771 528.815 75.8929 529.077 74.8472C529.338 73.8015 529.6 73.0173 530.384 72.4945C531.168 71.7103 531.952 71.4488 532.998 71.4488C534.044 71.4488 534.828 71.7103 535.612 72.4945C536.135 73.0173 536.658 73.5401 537.181 74.3244C537.965 75.1086 538.488 75.8929 539.272 76.4157C540.056 77.1999 540.317 77.7227 540.579 77.9841C541.363 79.0298 541.886 79.814 541.625 80.8597C541.363 81.9054 541.625 83.2124 540.579 83.9966Z" fill="#010F32"/>
<g clip-path="url(#clip0_367_35)">
<path d="M50.9594 38.921C50.2541 38.921 49.637 38.6579 49.1963 38.1316C48.6673 37.6052 48.4028 36.9912 48.4028 36.3772C48.4028 35.6754 48.6673 35.0614 49.1963 34.6228C49.7252 34.1842 50.3423 33.921 50.9594 33.921H65.4173C67.0923 33.921 68.4147 33.8333 69.2081 33.5702C70.0897 33.307 70.6186 32.7807 70.9713 31.9035C71.2357 31.0263 71.412 29.7105 71.412 27.9561C71.412 26.2017 71.2357 24.8859 70.9713 24.0088C70.7068 23.1316 70.0897 22.6052 69.2963 22.3421C68.4147 22.0789 67.1805 21.9912 65.5055 21.9912H51.4884C50.7831 21.9912 50.166 21.7281 49.7252 21.2895C49.1963 20.7631 49.0199 20.1491 49.0199 19.4474C49.0199 18.7456 49.2844 18.1316 49.7252 17.693C50.2541 17.2544 50.7831 16.9912 51.4884 16.9912H65.5055C67.6213 16.9912 69.4726 17.1666 70.8831 17.5175C72.2936 17.8684 73.4397 18.3947 74.2331 19.2719C75.0265 20.1491 75.6436 21.2017 75.9963 22.693C76.3489 24.0965 76.5252 25.9386 76.5252 28.1316C76.5252 30.3245 76.3489 32.1667 75.9963 33.5702C75.6436 34.9737 75.0265 36.114 74.2331 36.9912C73.4397 37.7807 72.2936 38.3947 70.7949 38.7456C69.3844 39.0965 67.5331 39.2719 65.4173 39.2719H50.9594V38.921Z" fill="black"/>
<path d="M93.628 44.1848C92.9227 44.3603 92.3056 44.3603 91.6885 44.0094C91.0714 43.7462 90.6306 43.2199 90.4543 42.5182C90.1898 41.8164 90.278 41.2024 90.6306 40.5883C90.9832 39.9743 91.424 39.5357 92.1293 39.2725C95.5674 38.1322 98.4766 36.641 101.121 34.6234C103.678 32.6059 105.617 30.4129 106.852 27.869C107.821 25.7638 107.116 24.7989 104.648 24.7989H89.4845C88.7793 24.7989 88.1622 24.5357 87.7214 24.0971C87.1924 23.6585 87.0161 23.0445 87.0161 22.3427C87.0161 21.641 87.2806 21.0269 87.7214 20.5883C88.2503 20.1497 88.7793 19.8866 89.4845 19.8866H104.736C107.116 19.8866 108.967 20.3252 110.202 21.2024C111.524 22.0796 112.229 23.2199 112.406 24.7989C112.582 26.2901 112.141 28.0445 111.26 30.062C109.761 33.2199 107.469 36.1147 104.383 38.5708C101.298 41.0269 97.6832 42.869 93.628 44.1848ZM92.1293 16.7287C91.424 16.7287 90.8069 16.4655 90.3661 16.0269C89.8372 15.5883 89.6609 14.9743 89.6609 14.2725C89.6609 13.5708 89.9253 12.9568 90.3661 12.5182C90.8951 12.0796 91.424 11.8164 92.1293 11.8164H107.998C108.703 11.8164 109.232 12.0796 109.761 12.5182C110.202 12.9568 110.466 13.5708 110.466 14.2725C110.466 14.9743 110.202 15.5006 109.761 16.0269C109.32 16.4655 108.703 16.7287 107.998 16.7287H92.1293Z" fill="black"/>
<path d="M124.13 38.395C123.513 38.7459 122.896 38.8336 122.191 38.6582C121.486 38.4828 120.957 38.0442 120.604 37.5179C120.251 36.9038 120.163 36.2021 120.34 35.588C120.516 34.8863 120.957 34.4477 121.574 34.0091C122.72 33.3073 123.866 32.4301 125.1 31.3775C126.334 30.3249 127.392 29.36 128.274 28.395C128.715 27.8687 129.332 27.5179 129.949 27.4301C130.566 27.3424 131.183 27.4301 131.712 27.781C132.241 28.2196 132.594 28.7459 132.77 29.4477C132.858 30.1494 132.77 30.7635 132.329 31.2898C131.624 32.167 130.83 33.0442 129.861 33.9214C128.891 34.7986 127.921 35.588 126.951 36.3775C126.07 37.167 125.1 37.781 124.13 38.395ZM132.505 43.4828C131.8 43.4828 131.183 43.2196 130.742 42.781C130.213 42.2547 130.037 41.7284 130.037 41.0266C130.037 40.3249 130.301 39.7108 130.742 39.1845C131.271 38.6582 131.8 38.4828 132.505 38.4828C133.828 38.4828 134.621 38.3073 135.062 37.9564C135.415 37.6056 135.679 36.8161 135.679 35.588V24.1845H124.659C123.954 24.1845 123.425 23.9214 122.896 23.4828C122.455 23.0442 122.191 22.4301 122.191 21.7284C122.191 21.0266 122.455 20.5003 122.896 19.974C123.337 19.5354 123.954 19.2722 124.659 19.2722H135.679V14.7108C135.679 14.0091 135.944 13.395 136.384 12.9564C136.913 12.5179 137.442 12.2547 138.148 12.2547C138.853 12.2547 139.47 12.5179 139.911 12.9564C140.351 13.395 140.616 14.0091 140.616 14.7108V19.1845H150.842C151.548 19.1845 152.076 19.4477 152.605 19.8863C153.046 20.3249 153.311 20.9389 153.311 21.6407C153.311 22.3424 153.046 22.9564 152.605 23.395C152.165 23.8336 151.548 24.0968 150.842 24.0968H140.616V35.7635C140.616 38.5705 139.999 40.588 138.765 41.7284C137.53 43.0442 135.415 43.4828 132.505 43.4828ZM154.809 37.5179C154.28 37.9564 153.663 38.2196 152.958 38.1319C152.253 38.0442 151.636 37.781 151.195 37.3424C150.666 36.8161 150.049 36.2021 149.255 35.5003C148.462 34.7986 147.669 34.0968 146.875 33.395C146.082 32.6933 145.288 32.167 144.671 31.7284C144.054 31.3775 143.701 30.8512 143.613 30.1494C143.525 29.4477 143.613 28.8336 143.966 28.3073C144.319 27.6933 144.848 27.3424 145.553 27.2547C146.258 27.167 146.875 27.2547 147.404 27.6056C148.109 28.0442 148.991 28.6582 149.873 29.4477C150.842 30.1494 151.724 30.9389 152.694 31.7284C153.575 32.5178 154.369 33.2196 155.074 33.9214C155.603 34.4477 155.779 35.0617 155.779 35.7635C155.779 36.4652 155.338 37.0793 154.809 37.5179ZM153.134 17.8687C152.782 18.2196 152.341 18.3073 151.812 18.3073C151.283 18.3073 150.93 18.0442 150.578 17.6933C150.225 17.3424 149.873 16.8161 149.344 16.2898C148.815 15.7635 148.374 15.2371 147.933 14.7986C147.669 14.5354 147.492 14.1845 147.492 13.7459C147.492 13.3073 147.669 12.9564 148.021 12.6056C148.374 12.3424 148.726 12.167 149.167 12.167C149.608 12.167 149.961 12.3424 150.313 12.6056C150.754 12.9564 151.283 13.395 151.812 13.9214C152.341 14.4477 152.87 14.974 153.223 15.4126C153.487 15.7635 153.663 16.2021 153.663 16.7284C153.751 17.0793 153.575 17.5179 153.134 17.8687ZM154.457 14.1845C154.104 13.8336 153.663 13.395 153.134 12.8687C152.605 12.3424 152.165 11.9038 151.724 11.4652C151.459 11.2021 151.283 10.8512 151.283 10.4126C151.283 9.97399 151.371 9.5354 151.724 9.18452C151.988 8.83364 152.341 8.6582 152.782 8.6582C153.223 8.6582 153.663 8.74592 154.016 9.00908C154.457 9.27224 154.986 9.71083 155.603 10.1494C156.22 10.6757 156.749 11.1143 157.101 11.5529C157.454 11.9038 157.63 12.3424 157.63 12.781C157.63 13.2196 157.454 13.6582 157.101 14.0968C156.749 14.4477 156.308 14.6231 155.867 14.6231C155.25 14.6231 154.809 14.4477 154.457 14.1845Z" fill="black"/>
<path d="M183.549 44.36C182.931 44.36 182.403 44.1845 181.962 43.7459C181.521 43.3073 181.256 42.781 181.256 42.0793V36.2898C180.199 37.167 179.053 38.0442 177.818 38.9214C176.584 39.7986 175.262 40.588 173.939 41.3775C172.617 42.167 171.295 42.781 170.06 43.3073C169.355 43.5705 168.65 43.6582 168.121 43.4828C167.592 43.3073 167.151 42.9565 166.887 42.3424C166.622 41.7284 166.622 41.2021 166.799 40.5881C166.975 40.0617 167.416 39.6231 168.121 39.36C169.796 38.7459 171.383 37.9565 173.058 36.9916C174.733 36.1144 176.231 35.1495 177.642 34.1845H173.763C171.735 34.1845 170.325 33.7459 169.531 32.9565C168.738 32.167 168.474 30.8512 168.826 29.0968C169.091 27.8687 169.443 26.9038 169.796 26.2898C170.149 25.6758 170.854 25.1495 171.735 24.8863C172.617 24.6231 173.763 24.4477 175.262 24.4477H181.256V22.3424H170.06C169.531 22.3424 169.091 22.167 168.65 21.7284C168.297 21.2898 168.033 20.8512 168.033 20.3249C168.033 19.7986 168.209 19.36 168.65 18.9214C169.003 18.4828 169.531 18.3073 170.06 18.3073H175.614C174.997 18.1319 174.556 17.6933 174.38 17.167C174.292 16.8161 174.116 16.3775 173.939 15.7635C173.763 15.2372 173.587 14.7986 173.41 14.36H171.383C171.03 14.8863 170.678 15.3249 170.325 15.8512C169.972 16.2898 169.62 16.7284 169.355 17.167C168.914 17.6933 168.474 18.0442 167.856 18.2196C167.328 18.3951 166.71 18.3073 166.093 17.9565C165.653 17.6933 165.3 17.2547 165.212 16.6407C165.035 16.1144 165.212 15.5881 165.564 15.1495C166.093 14.5354 166.622 13.8337 167.151 13.0442C167.68 12.2547 168.297 11.3775 168.826 10.5003C169.355 9.62314 169.796 8.83366 170.06 8.13191C170.325 7.51787 170.766 7.07928 171.295 6.90384C171.824 6.7284 172.441 6.81612 172.97 7.07928C173.499 7.25472 173.939 7.69331 174.116 8.13191C174.38 8.65823 174.292 9.18454 174.028 9.79858C173.939 9.97402 173.939 10.0617 173.851 10.2372C173.763 10.4126 173.675 10.5881 173.587 10.6758H181.256C181.785 10.6758 182.226 10.8512 182.579 11.2021C182.931 11.553 183.108 11.9916 183.108 12.5179C183.108 12.6933 183.108 12.8688 183.02 13.0442C183.549 12.167 184.078 11.3775 184.606 10.4126C185.135 9.53542 185.488 8.74595 185.841 8.04419C186.105 7.43016 186.546 6.99156 187.163 6.81612C187.692 6.55296 188.309 6.64068 188.926 6.90384C189.543 7.167 189.984 7.51787 190.16 8.04419C190.337 8.57051 190.337 9.18454 190.072 9.79858C189.984 9.97402 189.984 10.0617 189.896 10.2372C189.808 10.4126 189.72 10.5003 189.72 10.6758H199.417C199.946 10.6758 200.387 10.8512 200.739 11.2021C201.092 11.553 201.18 11.9916 201.18 12.5179C201.18 13.0442 201.004 13.4828 200.739 13.8337C200.475 14.1845 199.946 14.36 199.417 14.36H194.304C194.392 14.5354 194.48 14.7986 194.568 14.974C194.656 15.2372 194.745 15.4126 194.745 15.5881C194.921 16.1144 194.921 16.6407 194.745 17.167C194.48 17.6933 194.128 18.0442 193.51 18.3073H193.422C195.097 18.3951 196.243 18.8337 196.86 19.5354C197.478 20.3249 197.83 21.4652 197.83 23.1319C197.83 24.8863 197.478 26.2021 196.684 26.9038C195.891 27.6056 194.568 28.0442 192.541 28.0442H185.929V30.1495H194.48C196.42 30.1495 197.83 30.5881 198.8 31.553C199.681 32.4302 200.034 33.9214 199.77 35.8512C199.593 37.6056 199.153 39.0091 198.447 39.974C197.83 40.9389 196.949 41.553 195.979 41.9038C194.921 42.2547 193.775 42.4302 192.364 42.4302C191.571 42.4302 190.954 42.2547 190.513 41.9038C189.984 41.553 189.72 41.0266 189.72 40.2372C189.72 39.5354 189.896 39.0091 190.249 38.4828C190.601 38.0442 191.218 37.6933 191.924 37.6933C192.629 37.6056 193.246 37.5179 193.599 37.4302C193.951 37.3424 194.304 37.167 194.48 36.9916C194.656 36.7284 194.833 36.3775 194.921 35.9389C195.009 35.2372 195.009 34.7986 194.833 34.5354C194.656 34.2723 194.128 34.1845 193.422 34.1845H186.105V42.0793C186.105 42.781 185.841 43.3073 185.4 43.7459C184.695 44.1845 184.166 44.36 183.549 44.36ZM174.733 30.3249H181.256V28.2196H174.997C174.38 28.2196 173.939 28.3073 173.763 28.4828C173.499 28.6582 173.41 28.9214 173.322 29.2723C173.234 29.7109 173.322 29.974 173.499 30.1495C173.675 30.3249 174.116 30.3249 174.733 30.3249ZM178.435 15.8512C178.612 16.3775 178.612 16.9038 178.435 17.4302C178.171 17.9565 177.818 18.3073 177.201 18.5705H182.931C182.667 18.5705 182.403 18.3951 182.138 18.2196C181.609 17.8688 181.256 17.4302 181.168 16.8161C181.08 16.2021 181.256 15.6758 181.609 15.2372C181.697 15.0617 181.874 14.974 181.962 14.7986C182.05 14.6231 182.226 14.4477 182.314 14.2723C181.962 14.4477 181.609 14.6231 181.256 14.6231H177.995C178.083 14.7986 178.171 15.0617 178.259 15.2372C178.347 15.4126 178.435 15.5881 178.435 15.8512ZM183.813 18.4828H191.747C191.13 18.3073 190.689 17.8688 190.513 17.3424C190.425 16.9916 190.249 16.553 190.072 16.0266C189.896 15.5003 189.72 14.974 189.543 14.6231H187.516C187.163 15.1495 186.81 15.588 186.546 16.1144C186.193 16.553 185.929 16.9916 185.576 17.4302C185.047 18.0442 184.43 18.3951 183.813 18.4828ZM185.841 24.5354H191.571C192.188 24.5354 192.541 24.4477 192.717 24.36C192.893 24.1845 192.981 23.9214 192.981 23.4828C192.981 23.0442 192.893 22.781 192.717 22.6933C192.541 22.6056 192.1 22.5179 191.571 22.5179H185.841V24.5354Z" fill="black"/>
<path d="M219.958 31.377C212.817 31.377 207.616 26.4647 207.616 19.0963C207.616 12.0787 212.024 6.37695 220.839 6.37695C229.479 6.37695 234.945 12.605 234.945 24.5348C234.945 37.605 230.449 44.5348 220.663 44.5348C213.787 44.5348 210.525 41.4647 209.114 38.6577C208.938 38.2191 208.85 37.8682 208.85 37.5173C208.85 36.4647 209.467 35.4998 210.613 34.9734C211.23 34.6226 211.847 34.5348 212.376 34.5348C213.258 34.5348 214.051 34.8857 214.58 35.7629C215.55 37.5173 217.313 39.2717 220.751 39.2717C226.746 39.2717 228.95 33.5699 229.038 26.5524C227.099 29.7103 224.189 31.377 219.958 31.377ZM213.61 18.9208C213.61 23.4822 216.608 26.2015 220.839 26.2015C225.159 26.2015 228.245 23.2191 228.245 19.0085C228.245 14.798 225.247 11.6401 220.928 11.6401C216.52 11.7278 213.61 14.6226 213.61 18.9208Z" fill="black"/>
<path d="M245.524 43.6587C244.818 43.6587 244.201 43.4832 243.672 43.1323C243.232 42.7815 242.967 42.2551 242.879 41.5534C242.791 40.8516 242.967 40.3253 243.408 39.8867C243.761 39.4481 244.289 39.185 244.995 39.0972C245.964 39.0095 246.67 38.9218 247.199 38.7464C247.728 38.6587 248.08 38.3955 248.345 37.9569C248.609 37.606 248.786 37.0797 248.962 36.378C249.05 35.5885 249.226 34.799 249.314 33.8341C249.403 32.9569 249.491 31.992 249.579 31.0271C249.667 30.2376 249.491 29.7113 249.226 29.4481C248.962 29.185 248.433 29.0095 247.639 29.0095H246.317C244.907 29.0095 243.937 28.7464 243.32 28.1323C242.703 27.5183 242.526 26.5534 242.703 25.1499C242.791 24.2727 242.879 23.4832 242.967 22.7815C243.055 22.0797 243.055 21.2902 243.143 20.5008C243.232 19.185 243.584 18.3078 244.201 17.7815C244.818 17.2551 245.788 16.992 247.022 16.992H247.904C248.609 16.992 249.05 16.9043 249.314 16.7288C249.579 16.5534 249.667 16.2025 249.667 15.6762V14.6236C249.667 14.0095 249.579 13.5709 249.314 13.3955C249.05 13.2201 248.609 13.0446 247.904 13.0446H243.761C243.143 13.0446 242.703 12.8692 242.262 12.4306C241.909 12.0797 241.733 11.5534 241.733 11.0271C241.733 10.5008 241.909 9.97444 242.262 9.62356C242.614 9.27268 243.143 9.00953 243.761 9.00953H249.843C251.43 9.00953 252.488 9.3604 253.193 9.97444C253.899 10.5885 254.163 11.6411 254.163 13.1323V16.8165C254.163 18.3078 253.811 19.2727 253.193 19.8867C252.576 20.5008 251.607 20.7639 250.372 20.7639H249.05C248.433 20.7639 247.992 20.8516 247.728 21.0271C247.463 21.2025 247.287 21.5534 247.287 22.0797C247.287 22.3429 247.287 22.5183 247.287 22.6937C247.287 22.8692 247.287 23.0446 247.287 23.2201C247.199 23.8341 247.287 24.2727 247.551 24.4481C247.816 24.6236 248.257 24.7113 248.874 24.7113H250.284C251.783 24.7113 252.841 25.0622 253.458 25.6762C254.075 26.3779 254.428 27.3429 254.339 28.7464C254.251 30.2376 254.163 31.8165 254.075 33.3078C253.899 34.799 253.811 36.1148 253.634 37.2551C253.37 38.9218 252.929 40.2376 252.224 41.1148C251.518 41.992 250.637 42.6937 249.579 43.0446C248.433 43.4832 247.111 43.6587 245.524 43.6587ZM266.329 44.185C265.712 44.185 265.183 44.0095 264.742 43.5709C264.301 43.2201 264.125 42.6937 264.125 41.992V36.9043H256.455C255.838 36.9043 255.397 36.7288 255.045 36.2902C254.692 35.9394 254.516 35.413 254.516 34.8867C254.516 34.3604 254.692 33.8341 255.045 33.4832C255.397 33.1323 255.926 32.8692 256.455 32.8692H264.125V30.7639H262.714C260.422 30.7639 258.747 30.3253 257.778 29.4481C256.808 28.5709 256.279 27.0797 256.279 24.8867V21.7288C256.279 19.5358 256.808 18.0446 257.778 17.1674C258.747 16.2902 260.422 15.8516 262.714 15.8516H268.709V15.7639V15.6762C268.974 15.1499 269.326 14.4481 269.767 13.6586C270.208 12.8692 270.649 11.992 271.001 11.1148C271.442 10.2376 271.707 9.62356 271.971 9.09725C272.236 8.48321 272.588 8.04461 273.117 7.86917C273.646 7.60602 274.263 7.60602 274.792 7.86917C275.321 8.04461 275.762 8.48321 276.026 9.00953C276.291 9.53584 276.291 10.0622 276.026 10.6762C275.85 11.1148 275.497 11.7288 275.145 12.3429C274.792 13.0446 274.439 13.7464 273.999 14.4481C273.646 15.1499 273.293 15.7639 272.941 16.2902C274.087 16.6411 274.968 17.2551 275.497 18.1323C276.026 19.0095 276.291 20.2376 276.291 21.8165V24.9744C276.291 27.1674 275.762 28.6586 274.792 29.5358C273.734 30.413 272.147 30.8516 269.855 30.8516H268.445V32.9569H276.379C276.996 32.9569 277.437 33.1323 277.789 33.5709C278.142 33.9218 278.318 34.4481 278.318 34.9744C278.318 35.5008 278.142 35.9394 277.789 36.378C277.437 36.8165 276.908 36.992 276.379 36.992H268.445V41.992C268.445 42.606 268.268 43.1323 267.828 43.5709C267.475 43.9218 266.946 44.185 266.329 44.185ZM260.863 15.413C260.334 15.6762 259.805 15.7639 259.276 15.5885C258.747 15.5008 258.307 15.1499 258.042 14.6236C257.866 14.3604 257.689 14.0095 257.425 13.5709C257.161 13.1323 256.896 12.6937 256.632 12.2551C256.367 11.8165 256.191 11.4657 256.014 11.2902C255.75 10.7639 255.662 10.2376 255.838 9.71128C256.014 9.18496 256.367 8.74637 256.808 8.48321C257.337 8.22005 257.866 8.13233 258.483 8.30777C259.1 8.48321 259.541 8.83409 259.805 9.3604C259.982 9.62356 260.158 9.88672 260.422 10.3253C260.687 10.7639 260.863 11.2025 261.128 11.5534C261.392 11.992 261.568 12.2551 261.657 12.5183C261.921 13.0446 262.009 13.5709 261.833 14.0972C261.745 14.7113 261.392 15.0622 260.863 15.413ZM260.511 21.6411H264.125V19.185H263.155C262.097 19.185 261.392 19.3604 261.039 19.6236C260.687 19.9744 260.511 20.5008 260.511 21.4657V21.6411ZM263.155 27.3429H264.125V24.8867H260.511V25.0622C260.511 25.9394 260.687 26.5534 261.039 26.9043C261.48 27.2551 262.186 27.3429 263.155 27.3429ZM266.858 14.9744C266.329 15.1499 265.8 15.1499 265.271 14.9744C264.742 14.799 264.389 14.3604 264.213 13.8341C264.125 13.5709 264.037 13.1323 263.861 12.6937C263.684 12.2551 263.508 11.7288 263.332 11.2902C263.155 10.8516 262.979 10.413 262.891 10.1499C262.626 9.53584 262.714 9.00953 262.979 8.48321C263.243 7.95689 263.684 7.69374 264.213 7.5183C264.83 7.34286 265.359 7.34286 265.888 7.5183C266.417 7.78146 266.77 8.13233 267.034 8.74637C267.122 9.00953 267.299 9.3604 267.475 9.799C267.651 10.2376 267.828 10.7639 268.004 11.2025C268.18 11.6411 268.268 12.0797 268.357 12.3429C268.533 12.9569 268.533 13.4832 268.268 14.0095C268.004 14.5358 267.475 14.7113 266.858 14.9744ZM268.533 21.6411H272.236V21.4657C272.236 20.5885 272.059 19.9744 271.707 19.6236C271.354 19.2727 270.649 19.185 269.591 19.185H268.533V21.6411ZM268.533 27.3429H269.591C270.649 27.3429 271.354 27.1674 271.707 26.9043C272.059 26.5534 272.236 26.0271 272.236 25.0622V24.8867H268.533V27.3429Z" fill="black"/>
<path d="M303.796 40.5882C303.091 40.7637 302.474 40.6759 301.945 40.3251C301.328 39.9742 300.975 39.5356 300.799 38.8338C300.622 38.2198 300.711 37.6058 301.063 37.0794C301.416 36.5531 301.857 36.1145 302.562 36.0268C305.471 35.2373 307.675 34.0093 309.086 32.3426C310.496 30.6759 311.201 28.483 311.201 25.8514C311.201 24.1847 310.849 22.6935 310.055 21.3777C309.35 20.0619 308.292 19.0093 306.882 18.2198C305.559 17.4303 303.884 16.904 301.945 16.7286C301.504 21.1145 300.711 24.9742 299.565 28.2198C298.419 31.4654 297.096 33.9215 295.597 35.6759C294.099 37.4303 292.512 38.3075 290.837 38.3075C289.426 38.3075 288.192 37.8689 286.958 37.0794C285.812 36.29 284.842 35.0619 284.225 33.5707C283.608 32.0794 283.255 30.2373 283.255 28.0444C283.255 25.8514 283.696 23.8338 284.49 21.904C285.283 19.9742 286.517 18.3075 288.016 16.904C289.515 15.5005 291.366 14.3601 293.394 13.483C295.509 12.6935 297.713 12.2549 300.27 12.2549C303.267 12.2549 306 12.8689 308.292 14.0093C310.672 15.1496 312.436 16.7286 313.846 18.7461C315.169 20.7637 315.874 23.1321 315.874 25.8514C315.874 29.6233 314.816 32.8689 312.788 35.4128C310.672 37.7812 307.675 39.5356 303.796 40.5882ZM290.837 33.2198C291.278 33.2198 291.895 32.7812 292.512 31.9917C293.129 31.2023 293.746 30.0619 294.363 28.5707C294.98 27.0794 295.597 25.3251 296.126 23.3075C296.655 21.29 297.008 19.097 297.272 16.6408C295.245 17.0794 293.482 17.7812 292.071 18.9215C290.661 20.0619 289.603 21.3777 288.897 22.8689C288.192 24.4479 287.84 26.0268 287.751 27.6935C287.751 29.4479 288.016 30.8514 288.633 31.7286C289.25 32.7812 289.955 33.2198 290.837 33.2198Z" fill="black"/>
<path d="M339.147 43.9219C338.442 43.9219 337.913 43.6588 337.384 43.2202C336.855 42.7816 336.679 42.1675 336.679 41.4658V26.9044H323.191C322.486 26.9044 321.957 26.6412 321.516 26.2026C321.075 25.764 320.811 25.2377 320.811 24.536C320.811 23.9219 321.075 23.3079 321.516 22.8693C321.957 22.4307 322.486 22.1675 323.191 22.1675H336.679V14.1851H325.659C325.042 14.1851 324.513 13.9219 324.072 13.4833C323.632 13.0447 323.367 12.5184 323.367 11.8167C323.367 11.1149 323.632 10.5886 324.072 10.15C324.513 9.7114 325.042 9.44824 325.659 9.44824H352.812C353.429 9.44824 353.958 9.7114 354.487 10.15C354.928 10.5886 355.192 11.1149 355.192 11.8167C355.192 12.4307 354.928 13.0447 354.487 13.4833C354.046 13.9219 353.517 14.1851 352.812 14.1851H341.616V22.4307H355.192C355.809 22.4307 356.338 22.6939 356.867 23.1325C357.308 23.571 357.572 24.0974 357.572 24.7991C357.572 25.5009 357.308 26.0272 356.867 26.4658C356.426 26.9044 355.897 27.1675 355.192 27.1675H341.616V41.7289C341.616 42.4307 341.351 43.0447 340.911 43.4833C340.382 43.7465 339.853 43.9219 339.147 43.9219Z" fill="black"/>
<path d="M364.272 44.097C363.391 44.2724 362.686 44.2724 362.157 44.0093C361.628 43.7461 361.187 43.3075 361.011 42.6935C360.746 41.9917 360.834 41.3777 361.099 40.7637C361.363 40.1496 361.98 39.7987 362.95 39.6233C365.418 39.097 367.622 38.3952 369.65 37.6058C371.678 36.8163 373.617 35.9391 375.292 34.8865C374.058 33.6584 372.912 32.2549 371.854 30.7637C370.796 29.2724 369.915 27.6058 369.121 25.7637H366.212C365.507 25.7637 364.978 25.5882 364.625 25.1496C364.184 24.711 364.008 24.1847 364.008 23.5707C364.008 22.9566 364.184 22.4303 364.625 21.9917C365.066 21.5531 365.595 21.3777 366.212 21.3777H376.438V17.518H362.862C362.245 17.518 361.716 17.3426 361.363 16.904C361.011 16.4654 360.746 16.0268 360.746 15.4128C360.746 14.7987 360.922 14.2724 361.363 13.9215C361.716 13.483 362.245 13.3075 362.862 13.3075H376.438V9.6233C376.438 8.92155 376.703 8.30751 377.143 7.86892C377.584 7.43032 378.201 7.25488 378.907 7.25488C379.612 7.25488 380.141 7.43032 380.67 7.86892C381.111 8.30751 381.375 8.92155 381.375 9.6233V13.3075H394.951C395.568 13.3075 396.097 13.483 396.45 13.9215C396.803 14.2724 397.067 14.7987 397.067 15.4128C397.067 16.0268 396.891 16.4654 396.45 16.904C396.097 17.3426 395.568 17.518 394.951 17.518H381.375V21.3777H383.579C385.518 21.3777 387.105 21.8163 388.075 22.518C389.133 23.3075 389.662 24.3601 389.662 25.5882C389.662 26.904 389.133 28.2198 388.075 29.6233C386.576 31.5531 384.901 33.3952 383.05 34.9742C384.725 35.9391 386.665 36.8163 388.604 37.518C390.632 38.2198 392.747 38.7461 394.951 39.1847C395.745 39.3601 396.362 39.6233 396.715 40.1496C397.067 40.6759 397.243 41.3777 397.067 42.0794C396.891 42.8689 396.45 43.3952 395.833 43.6584C395.216 43.9215 394.511 44.0093 393.629 43.8338C390.896 43.3075 388.34 42.518 385.871 41.4654C383.403 40.5005 381.111 39.2724 379.083 37.7812C374.94 40.6759 370.003 42.6058 364.272 44.097ZM379.083 32.2549C380.67 31.0268 382.08 29.6233 383.315 28.1321C383.932 27.3426 384.196 26.7286 384.02 26.3777C383.843 25.9391 383.05 25.7637 381.904 25.7637H373.97C375.204 28.1321 376.879 30.3251 379.083 32.2549Z" fill="black"/>
<path d="M406.412 42.3423C405.706 42.43 405.178 42.3423 404.649 41.9914C404.12 41.6405 403.767 41.1142 403.679 40.5002C403.503 39.623 403.414 38.4826 403.326 36.9914C403.238 35.5002 403.15 33.8335 403.15 31.9037C403.15 30.0616 403.15 28.1318 403.15 26.1142C403.15 24.0967 403.238 22.1669 403.326 20.237C403.414 18.3072 403.591 16.5528 403.767 15.0616C403.943 13.4826 404.12 12.2546 404.384 11.2897C404.56 10.6756 404.913 10.1493 405.442 9.79843C405.971 9.44756 406.588 9.35984 407.205 9.53528C407.822 9.71071 408.351 10.0616 408.704 10.5879C409.056 11.1142 409.145 11.7283 408.968 12.3423C408.704 13.3072 408.528 14.5353 408.351 16.0265C408.175 17.5177 408.087 19.0967 407.999 20.8511C407.91 22.6055 407.822 24.3598 407.822 26.2019C407.822 28.044 407.734 29.7984 407.822 31.5528C407.822 33.3072 407.91 34.7984 407.999 36.2897C408.087 37.6932 408.175 38.8335 408.351 39.7107C408.439 40.3248 408.351 40.9388 407.999 41.4651C407.558 41.9037 407.029 42.1669 406.412 42.3423ZM419.635 42.1669C417.52 42.1669 415.845 41.6405 414.522 40.5879C413.2 39.5353 412.583 38.044 412.583 36.1142C412.583 34.2721 413.2 32.7809 414.522 31.6405C415.845 30.5879 417.608 29.9739 419.812 29.9739C420.517 29.9739 421.222 29.9739 421.928 30.0616C421.928 28.8335 421.839 27.5177 421.839 26.0265C421.839 24.5353 421.751 23.044 421.663 21.5528C420.253 21.6405 418.93 21.7283 417.608 21.7283C416.285 21.7283 415.139 21.7283 414.258 21.7283C413.553 21.7283 413.024 21.4651 412.583 21.0265C412.142 20.5879 411.966 19.9739 411.966 19.3598C412.054 18.7458 412.318 18.2195 412.759 17.7809C413.2 17.3423 413.729 17.1669 414.434 17.1669C415.316 17.1669 416.462 17.1669 417.696 17.1669C418.93 17.1669 420.253 17.0791 421.663 16.9914C421.663 16.0265 421.663 15.0616 421.663 14.0967C421.663 13.2195 421.663 12.3423 421.663 11.4651C421.663 10.8511 421.928 10.237 422.368 9.79843C422.809 9.35984 423.338 9.09668 424.043 9.09668C424.749 9.09668 425.278 9.35984 425.718 9.79843C426.159 10.237 426.424 10.8511 426.424 11.4651C426.424 12.2546 426.424 13.1318 426.424 14.009C426.424 14.8862 426.424 15.7633 426.424 16.6405C427.57 16.5528 428.628 16.4651 429.597 16.2897C430.567 16.2019 431.36 16.1142 432.066 15.9388C432.683 15.8511 433.3 15.9388 433.829 16.2897C434.358 16.6405 434.71 17.1669 434.799 17.7809C434.887 18.3949 434.799 19.009 434.358 19.5353C434.005 20.0616 433.476 20.3248 432.859 20.4125C432.154 20.5002 431.184 20.5879 430.126 20.7633C429.068 20.9388 427.834 21.0265 426.6 21.1142C426.688 22.9563 426.688 24.7107 426.776 26.4651C426.864 28.2195 426.864 29.7107 426.864 31.0265C428.275 31.4651 429.685 32.0791 431.008 32.6932C432.33 33.3949 433.388 34.009 434.358 34.7107C434.887 35.1493 435.239 35.5879 435.328 36.2897C435.416 36.9037 435.328 37.5177 434.975 38.044C434.622 38.5704 434.093 38.9212 433.476 39.009C432.859 39.1844 432.242 39.009 431.713 38.5704C431.096 38.0441 430.303 37.6055 429.509 37.0791C428.716 36.5528 427.922 36.2019 427.041 35.8511C426.424 40.1493 424.043 42.1669 419.635 42.1669ZM419.635 37.7809C421.31 37.7809 422.104 36.9914 422.104 35.4125C422.104 35.3248 422.104 35.237 422.104 35.0616C422.104 34.9739 422.104 34.7984 422.104 34.623C421.31 34.4476 420.517 34.3598 419.724 34.3598C418.93 34.3598 418.313 34.5353 417.96 34.7984C417.608 35.1493 417.343 35.5002 417.343 36.0265C417.343 36.5528 417.52 36.9037 417.872 37.1669C418.137 37.6055 418.754 37.7809 419.635 37.7809Z" fill="black"/>
<path d="M443.879 43.6579C443.174 43.3948 442.821 42.9562 442.556 42.3421C442.38 41.7281 442.38 41.1141 442.733 40.5877C443.526 39.0088 444.231 37.2544 444.76 35.4123C445.289 33.5702 445.73 31.4649 445.995 29.0965C446.259 26.7281 446.435 23.8334 446.435 20.5877V17.1667C446.435 15.0614 446.7 13.3948 447.317 12.2544C447.934 11.0263 448.904 10.2369 450.314 9.71054C451.725 9.18423 453.576 9.00879 455.956 9.00879H476.585C477.203 9.00879 477.643 9.18423 478.084 9.62282C478.525 10.0614 478.613 10.5 478.613 11.0263C478.613 11.5526 478.437 12.079 478.084 12.4298C477.732 12.8684 477.203 13.0439 476.585 13.0439H455.956C454.634 13.0439 453.664 13.1316 452.871 13.3948C452.166 13.6579 451.637 14.0088 451.284 14.6228C450.931 15.2369 450.843 16.1141 450.843 17.2544V22.4298H477.114C477.731 22.4298 478.172 22.6053 478.525 23.0439C478.878 23.4825 479.054 23.9211 479.054 24.4474C479.054 24.9737 478.878 25.5 478.525 25.8509C478.172 26.2018 477.731 26.4649 477.114 26.4649H466.006C466.712 28.0439 467.593 29.6228 468.563 31.0263C469.004 30.6755 469.533 30.3246 470.062 29.886C470.591 29.4474 471.12 29.0088 471.649 28.6579C472.178 28.2193 472.53 27.9562 472.795 27.693C473.235 27.2544 473.853 27.079 474.47 27.079C475.087 27.079 475.616 27.3421 476.057 27.7807C476.497 28.2193 476.585 28.7456 476.585 29.3597C476.497 29.9737 476.233 30.4123 475.704 30.8509C475.351 31.1141 474.91 31.4649 474.381 31.8158C473.853 32.2544 473.324 32.6053 472.706 33.0439C472.178 33.4825 471.649 33.8334 471.208 34.1842C472.178 35.1491 473.235 36.0263 474.381 36.9035C475.528 37.7807 476.762 38.4825 477.996 39.1842C478.613 39.5351 479.054 39.9737 479.23 40.5877C479.406 41.2018 479.406 41.8158 479.054 42.3421C478.701 43.0439 478.172 43.3948 477.467 43.4825C476.762 43.6579 476.145 43.4825 475.528 43.1316C471.913 41.114 469.004 38.7456 466.8 35.9386C464.596 33.2193 462.833 29.9737 461.687 26.2895H458.778V37.7807C459.747 37.6053 460.629 37.4298 461.51 37.2544C462.392 37.079 463.185 36.9912 463.891 36.8158C464.508 36.7281 465.125 36.7281 465.566 36.9912C466.006 37.2544 466.271 37.693 466.359 38.307C466.447 38.9211 466.447 39.4474 466.183 39.886C465.918 40.3246 465.478 40.5877 464.86 40.7632C464.155 40.9386 463.185 41.1141 462.039 41.2895C460.893 41.4649 459.659 41.7281 458.337 41.9912C457.014 42.2544 455.78 42.5176 454.634 42.693C453.488 42.8684 452.518 43.1316 451.725 43.307C451.02 43.4825 450.403 43.307 449.874 43.0439C449.345 42.693 449.08 42.2544 448.992 41.4649C448.904 40.8509 448.992 40.3246 449.345 39.886C449.697 39.4474 450.226 39.0965 450.931 39.0088C451.372 38.9211 451.901 38.8333 452.43 38.7456C452.959 38.6579 453.576 38.5702 454.105 38.4825V26.2018H450.667C450.579 28.5702 450.314 30.6755 450.05 32.5176C449.785 34.3597 449.345 36.1141 448.816 37.6053C448.287 39.1842 447.67 40.6755 446.964 42.079C446.7 42.693 446.259 43.0439 445.642 43.307C445.113 43.9211 444.496 43.9211 443.879 43.6579ZM454.282 19.6228C453.664 19.6228 453.224 19.4474 452.871 19.0088C452.518 18.6579 452.342 18.2193 452.342 17.693C452.342 17.1667 452.518 16.7281 452.871 16.3772C453.224 16.0263 453.664 15.8509 454.282 15.8509H473.941C474.558 15.8509 474.999 16.0263 475.351 16.3772C475.704 16.7281 475.88 17.1667 475.88 17.693C475.88 18.2193 475.704 18.6579 475.351 19.0088C474.999 19.3597 474.558 19.6228 473.941 19.6228H454.282Z" fill="black"/>
<path d="M491.132 43.0442C490.162 42.9565 489.368 42.5179 488.751 41.8161C488.134 41.1144 487.87 40.2372 487.958 39.2723C488.046 38.3074 488.487 37.5179 489.192 36.9039C489.897 36.2898 490.779 36.0267 491.749 36.1144C492.718 36.2021 493.512 36.6407 494.129 37.3425C494.746 38.0442 495.011 38.9214 494.922 39.8863C494.834 40.8512 494.393 41.6407 493.688 42.2547C492.983 42.8688 492.101 43.0442 491.132 43.0442ZM492.101 33.2197C490.779 33.1319 490.162 32.167 490.25 30.3249L491.22 12.8688C491.308 11.0267 492.278 10.2372 494.129 10.3249C495.98 10.5004 496.862 11.4653 496.597 13.3074L494.482 30.5881C494.129 32.5179 493.336 33.3951 492.101 33.2197Z" fill="black"/>
<path d="M7.40918 7.69336L22.4842 43.6583" stroke="black" stroke-width="8" stroke-miterlimit="10" stroke-linecap="round" stroke-linejoin="round"/>
<path d="M537.591 7.69336L522.516 43.6583" stroke="black" stroke-width="8" stroke-miterlimit="10" stroke-linecap="round" stroke-linejoin="round"/>
</g>
<defs>
<clipPath id="clip0_367_35">
<rect width="536" height="50" fill="white" transform="translate(4.5 0.5)"/>
</clipPath>
</defs>
</svg>
