<svg width="412" height="19" viewBox="0 0 412 19" fill="none" xmlns="http://www.w3.org/2000/svg">
<path d="M59.54 1.83969V1.89969C59.44 4.91969 59.28 8.35969 59.28 11.5197C59.28 13.1997 59.52 14.1597 60.14 14.7197C60.74 15.2597 61.64 15.4597 62.86 15.4597C64.32 15.4597 65.7 14.9597 66.78 13.8397C67.62 12.9397 68.32 11.6397 68.78 10.0397C68.96 9.41969 69.38 9.13969 69.86 9.13969C70.04 9.13969 70.22 9.17969 70.4 9.23969C70.92 9.41969 71.22 9.81969 71.22 10.3597C71.22 10.5197 71.2 10.6797 71.14 10.8597C70.52 12.9397 69.62 14.6197 68.36 15.8197C66.88 17.2197 64.96 17.9397 62.78 17.9397C60.84 17.9397 59.38 17.4997 58.34 16.5597C57.3 15.5797 56.8 14.1197 56.8 11.6397C56.8 8.39969 56.9 4.71969 57.04 1.77969C57.06 1.09969 57.54 0.679688 58.24 0.679688H58.34C59.14 0.699687 59.54 1.11969 59.54 1.83969Z" fill="white"/>
<path d="M79.76 17.5198C77.84 17.5198 76.42 16.3598 76.42 14.0798C76.42 11.3198 78.36 8.93984 81.1 7.67984C81.08 7.43984 81.08 7.17984 81.08 6.89984C81.08 6.23984 81.1 5.57984 81.12 4.93984C80.42 4.95984 79.66 4.95984 78.9 4.95984H77.98C77.26 4.91984 76.94 4.53984 76.94 3.91984V3.85984C76.94 3.21984 77.3 2.83984 77.92 2.83984H81.22C81.22 2.27984 81.26 1.71984 81.3 1.21984C81.36 0.699843 81.72 0.339844 82.36 0.339844H82.5C83.22 0.379844 83.5 0.719843 83.5 1.23984V1.35984C83.48 1.79984 83.44 2.25984 83.4 2.75984C85.94 2.63984 88.28 2.47984 90.38 2.15984C90.46 2.13984 90.52 2.13984 90.58 2.13984C91.12 2.13984 91.48 2.47984 91.56 3.07984C91.58 3.13984 91.58 3.21984 91.58 3.27984C91.58 3.83984 91.28 4.21984 90.62 4.29984C88.5 4.57984 86.04 4.75984 83.26 4.85984C83.24 5.39984 83.24 5.95984 83.22 6.49984V6.99984C84 6.79984 85.06 6.63984 86.3 6.63984C86.34 6.43984 86.36 6.27984 86.4 6.09984C86.5 5.65984 86.78 5.43984 87.24 5.43984C87.32 5.43984 87.42 5.43984 87.52 5.45984C88.08 5.55984 88.44 5.83984 88.44 6.21984V6.29984C88.42 6.49984 88.38 6.65984 88.34 6.85984C91.42 7.41984 93.1 9.43984 93.1 12.1798C93.1 15.5998 90.08 18.1998 85.72 18.3198C84.98 18.3398 84.52 17.8998 84.48 17.2798V17.1398C84.48 16.4798 84.88 16.0398 85.46 16.0198C88.82 15.8598 90.68 14.1598 90.68 11.9998C90.68 10.3798 89.66 9.07984 87.88 8.79984C87.28 11.3198 85.76 14.0798 83.9 15.7598C82.44 17.0798 81.06 17.5198 79.76 17.5198ZM81.26 9.87984C79.5 10.8798 78.6 12.4598 78.6 13.8398C78.6 14.8798 79.06 15.2998 79.88 15.2998C80.7 15.2998 81.42 15.0598 82.08 14.4398C81.64 13.1398 81.34 11.4398 81.26 9.87984ZM85.82 8.51984C84.72 8.51984 83.84 8.71984 83.28 8.89984C83.32 10.2598 83.54 11.6198 83.82 12.7798C84.66 11.7198 85.38 10.1398 85.82 8.51984Z" fill="white"/>
<path d="M103.52 6.01984C103.52 6.39984 103.48 6.79984 103.48 7.17984C103.88 6.69984 104.52 6.15984 105.08 5.75984C106.68 4.61984 108.2 3.95984 109.84 3.95984C113.46 3.95984 115.6 6.59984 115.6 10.0398C115.6 12.6798 114.62 14.7998 112.44 15.9998C111.1 16.7398 109.28 17.1798 107.36 17.2198C106.6 17.2398 106.16 16.7398 106.14 16.0198C106.14 15.2598 106.56 14.7998 107.28 14.7798C108.74 14.7398 110.24 14.4398 111.18 13.8998C112.56 13.1198 113.12 11.7998 113.12 9.93984C113.12 7.73984 111.72 6.19984 109.58 6.19984C108.12 6.19984 106.66 6.89984 105.24 8.01984C104.64 8.49984 104.04 9.09984 103.46 9.73984C103.46 12.3998 103.48 14.8598 103.5 17.4198C103.5 18.0798 103.08 18.5198 102.32 18.5198C101.62 18.5198 101.2 18.0398 101.2 17.4398C101.2 15.4998 101.2 13.8798 101.24 12.1598C100.72 12.8598 100.16 13.6598 99.68 14.3598C99.46 14.6998 99.14 14.8798 98.78 14.8798C98.54 14.8798 98.28 14.7798 98.02 14.5998C97.76 14.3998 97.62 14.0998 97.62 13.7398C97.62 13.4598 97.72 13.1598 97.92 12.8598C98.78 11.6798 99.96 10.2398 101.24 8.89984C101.24 8.01984 101.28 6.97984 101.3 6.11984C100.48 6.17984 99.62 6.29984 98.86 6.35984H98.76C98.22 6.35984 97.84 5.93984 97.82 5.35984V5.29984C97.82 4.55984 98.2 4.21984 98.74 4.13984C99.62 4.05984 100.56 3.95984 101.36 3.91984C101.38 3.03984 101.42 2.21984 101.46 1.29984C101.5 0.679843 101.86 0.339844 102.64 0.339844C103.32 0.339844 103.7 0.759844 103.7 1.35984V1.39984C103.66 2.23984 103.62 3.01984 103.58 3.81984C104.1 3.83984 104.44 4.25984 104.44 4.75984C104.44 5.03984 104.3 5.35984 104 5.61984L103.52 6.01984Z" fill="white"/>
<path d="M134 10.0003C133.78 11.8203 132.82 12.9003 130.94 12.9003C130.08 12.9003 129.08 12.6003 128.2 12.1003C127.82 11.8803 127.62 11.5603 127.62 11.2003C127.62 10.9803 127.68 10.7603 127.82 10.5403C128.04 10.1803 128.38 9.98031 128.72 9.98031C128.9 9.98031 129.08 10.0203 129.26 10.1203C129.86 10.4603 130.42 10.6603 130.88 10.6603C131.4 10.6603 131.68 10.3203 131.8 9.42031C131.88 8.82031 131.92 8.00031 131.94 7.14031C130.94 7.18031 130 7.20031 129.08 7.24031C127.96 7.32031 126.84 7.36031 125.7 7.44031V10.2603C125.7 12.9403 125.8 13.7603 126.2 14.2403C126.72 14.9603 127.74 15.1603 129.82 15.1603C131.9 15.1603 133.74 14.9803 135.04 14.7203C135.16 14.7003 135.28 14.6803 135.4 14.6803C135.98 14.6803 136.36 15.0403 136.44 15.6603C136.46 15.7403 136.46 15.8203 136.46 15.8803C136.46 16.5203 136.08 16.9403 135.48 17.0603C134.06 17.3403 131.94 17.5003 130.06 17.5003C126.98 17.5003 125.24 17.0203 124.36 15.8403C123.62 14.9403 123.36 13.7203 123.36 10.7603V7.58031C122.54 7.62031 121.56 7.70031 120.6 7.78031H120.48C119.88 7.78031 119.52 7.32031 119.48 6.76031V6.70031C119.48 6.08031 119.84 5.62031 120.44 5.58031C121.4 5.52031 122.38 5.44031 123.36 5.36031C123.38 4.28031 123.38 3.12031 123.38 2.12031C123.4 1.44031 123.9 1.10031 124.6 1.10031C125.42 1.14031 125.78 1.52031 125.78 2.16031C125.76 3.14031 125.76 4.18031 125.74 5.24031C126.78 5.16031 127.86 5.10031 129 5.06031C129.86 5.02031 130.86 4.98031 131.92 4.94031C131.94 4.56031 131.94 4.18031 131.94 3.82031C131.94 3.10031 131.92 2.42031 131.92 1.80031C131.92 1.18031 132.38 0.820312 133.02 0.820312C133.66 0.820312 134.2 1.12031 134.2 1.74031V3.74031C134.2 4.10031 134.2 4.48031 134.18 4.86031C135.06 4.84031 136.08 4.84031 137 4.82031C137.8 4.82031 138.14 5.16031 138.14 5.90031V5.96031C138.14 6.64031 137.8 7.04031 137.06 7.04031C136.12 7.04031 135.16 7.04031 134.18 7.06031C134.18 8.06031 134.1 9.12031 134 10.0003Z" fill="white"/>
<path d="M151.98 9.46C151.32 9.6 150.52 9.74 149.68 9.84C147.44 10.12 145.18 10.42 143.18 10.74C143.1 10.76 143.02 10.76 142.96 10.76C142.32 10.76 141.96 10.38 141.88 9.8C141.86 9.72 141.86 9.64 141.86 9.56C141.86 9.04 142.14 8.68 142.68 8.54C143.36 8.36 144.04 8.14 144.7 7.86C147.34 6.7 150.34 4.94 152.76 3.1C150.52 3.34 147.86 3.48 145.8 3.5C145.28 3.5 144.84 3.12 144.84 2.44C144.84 1.7 145.22 1.34 145.96 1.32C147.44 1.32 149.08 1.28 150.6 1.22C152.1 1.16 153.52 1.08 154.54 1H154.78C155.4 1 155.78 1.16 156.06 1.68C156.18 1.88 156.24 2.1 156.24 2.32C156.24 2.7 156.06 3.08 155.74 3.4C154.1 4.92 152.04 6.24 150 7.28C149.36 7.58 148.64 7.9 147.86 8.2L147.88 8.3C148.76 8.1 149.8 7.94 150.76 7.82C153.24 7.54 156.06 7.28 158.56 7.14H158.66C159.36 7.14 159.72 7.54 159.76 8.2V8.3C159.76 8.94 159.36 9.36 158.76 9.38C156.58 9.48 154.54 9.84 152.96 10.56C151.36 11.26 150.4 12.26 150.4 13.48C150.4 14.58 151.28 15.3 153.48 15.44C154.08 15.5 154.96 15.52 155.68 15.52H155.78C156.44 15.52 156.9 15.88 156.92 16.58V16.64C156.92 17.4 156.52 17.84 155.82 17.9C155.46 17.9 155.08 17.92 154.72 17.92C154.22 17.92 153.72 17.9 153.32 17.86C149.94 17.64 147.92 16.22 147.92 13.86C147.92 12.02 149.18 10.48 152 9.56L151.98 9.46Z" fill="white"/>
<path d="M179.94 10.3601C179.94 13.1601 178.54 15.4001 175.38 16.8201C173.84 17.5401 171.82 18.0601 169.98 18.2201C169.9 18.2401 169.82 18.2401 169.74 18.2401C169.08 18.2401 168.66 17.9201 168.56 17.2801C168.54 17.1601 168.52 17.0401 168.52 16.9201C168.52 16.2801 168.88 15.8801 169.58 15.7801C171.2 15.6001 173.16 15.1201 174.54 14.4801C176.44 13.5801 177.36 12.2001 177.36 10.5601C177.36 9.02012 176.34 8.04012 173.9 8.04012C171.78 8.04012 169 8.62012 166.82 9.28012C166.68 9.32012 166.54 9.34012 166.4 9.34012C165.9 9.34012 165.46 9.04012 165.32 8.48012C165.28 8.32012 165.26 8.18012 165.26 8.04012C165.26 7.50012 165.56 7.08012 166.1 6.92012C168.22 6.26012 171.28 5.72012 173.82 5.72012C177.9 5.72012 179.94 7.62012 179.94 10.3601ZM177.28 1.54012C178 1.56012 178.38 2.08012 178.38 2.76012V2.82012C178.36 3.52012 177.88 3.94012 177.14 3.94012C174.48 3.90012 170.74 3.50012 168.26 3.02012C167.66 2.90012 167.36 2.42012 167.36 1.88012C167.36 1.78012 167.36 1.68012 167.38 1.58012C167.54 0.940116 167.98 0.620117 168.52 0.620117C168.58 0.620117 168.66 0.620116 168.74 0.640116C171.22 1.10012 174.6 1.44012 177.28 1.54012Z" fill="white"/>
<path d="M188.38 14.5602C188.12 15.0402 187.76 15.2802 187.32 15.2802C187.08 15.2802 186.82 15.2002 186.54 15.0202C186.16 14.8002 186 14.4602 186 14.0802C186 13.8202 186.08 13.5402 186.24 13.2602C187.52 11.0802 188.76 8.42023 189.52 5.98023C188.96 6.00023 188.34 6.00023 187.72 6.00023H186.92C186.3 5.98023 185.96 5.56023 185.96 4.88023C185.96 4.20023 186.34 3.76023 186.98 3.76023H188.3C188.94 3.76023 189.58 3.76023 190.18 3.74023C190.42 2.86023 190.6 1.98024 190.76 1.12024C190.84 0.540235 191.26 0.240234 191.84 0.240234C191.94 0.240234 192.04 0.240235 192.14 0.260235C192.76 0.380235 193.12 0.680234 193.12 1.24023C193.12 1.34023 193.1 1.44023 193.08 1.56023C192.96 2.14023 192.8 2.84023 192.62 3.56023C193.42 3.50023 194.16 3.44023 194.84 3.34023C194.9 3.32023 194.98 3.32023 195.04 3.32023C195.6 3.32023 195.92 3.68024 196.02 4.28024V4.44024C196.02 5.00024 195.72 5.40024 195.08 5.52024C194.14 5.68024 193.06 5.76023 192 5.84023C191.14 8.76023 189.76 12.1002 188.38 14.5602ZM199.74 14.8202C199.74 16.9202 198.48 18.2402 195.32 18.2402C192.62 18.2402 190.88 16.8402 190.88 14.7402C190.88 12.6402 192.68 11.1402 195.32 11.1402C196.08 11.1402 196.74 11.2202 197.4 11.3802C197.3 10.4402 197.22 9.24023 197.22 8.16023C197.22 7.42023 197.7 7.12024 198.34 7.12024C198.98 7.12024 199.48 7.44023 199.48 8.16023C199.48 9.50023 199.56 10.8002 199.7 12.0602C200.96 12.6602 202.24 13.5402 203.22 14.5002C203.48 14.7602 203.6 15.0402 203.6 15.3402C203.6 15.6202 203.5 15.9002 203.3 16.1402C203.06 16.4202 202.78 16.5802 202.48 16.5802C202.22 16.5802 201.96 16.4602 201.72 16.2402C201.1 15.6202 200.36 15.0002 199.74 14.6202V14.8202ZM195.38 13.1202C194 13.1202 193.12 13.7402 193.12 14.7002C193.12 15.6002 193.94 16.1402 195.3 16.1402C196.8 16.1402 197.56 15.6202 197.56 14.3402C197.56 14.1002 197.56 13.8802 197.54 13.5802C196.94 13.2802 196.14 13.1202 195.38 13.1202ZM202.98 5.16023C203.32 5.40023 203.48 5.74023 203.48 6.10023C203.48 6.34023 203.4 6.58023 203.26 6.80023C203.04 7.12023 202.7 7.30023 202.34 7.30023C202.1 7.30023 201.86 7.22023 201.62 7.08023C200.52 6.32023 199.1 5.56023 197.76 5.00023C197.4 4.84023 197.22 4.48024 197.22 4.12024C197.22 3.90024 197.28 3.66023 197.42 3.46023C197.68 3.08023 198.04 2.90023 198.4 2.90023C198.58 2.90023 198.76 2.94023 198.94 3.00023C200.32 3.54023 201.9 4.38023 202.98 5.16023Z" fill="white"/>
<path d="M210.16 5.80008C209.72 6.14008 209.26 6.48008 208.78 6.78008C208.64 6.88008 208.46 6.94008 208.3 6.94008C207.98 6.94008 207.68 6.76008 207.46 6.40008C207.34 6.20008 207.28 5.98008 207.28 5.76008C207.28 5.44008 207.42 5.14008 207.7 4.98008C208.26 4.64008 208.82 4.22008 209.38 3.78008C209.04 3.14008 208.66 2.54008 208.2 1.94008C208.06 1.76008 208 1.56008 208 1.38008C208 1.12008 208.14 0.860078 208.46 0.660078C208.7 0.500078 208.94 0.420078 209.16 0.420078C209.44 0.420078 209.66 0.540078 209.82 0.760078C210.24 1.30008 210.6 1.82008 210.9 2.36008C211.46 1.78008 211.96 1.18008 212.38 0.560078C212.56 0.300078 212.82 0.180079 213.1 0.180079C213.34 0.180079 213.58 0.260078 213.78 0.420078C214.08 0.640078 214.24 0.880078 214.24 1.18008C214.24 1.36008 214.16 1.56008 214.02 1.78008C213.4 2.66008 212.66 3.52008 211.84 4.32008C212.6 6.38008 212.86 8.76008 212.86 12.2401C212.86 14.4401 212.64 16.0001 212.28 17.0001C211.88 18.1001 211.04 18.5601 210.14 18.5601C209.46 18.5601 208.76 18.4801 208.26 18.3001C207.92 18.1801 207.7 17.8801 207.7 17.4601C207.7 17.3401 207.72 17.2201 207.74 17.0801C207.86 16.5801 208.18 16.3401 208.54 16.3401C208.64 16.3401 208.72 16.3601 208.8 16.3801C209.06 16.4801 209.4 16.5201 209.62 16.5201C210.04 16.5201 210.28 16.3601 210.48 15.6601C210.64 15.0801 210.8 13.7601 210.8 12.2201V11.0201C210.22 11.7401 209.54 12.4401 208.88 12.9401C208.7 13.1201 208.48 13.2001 208.26 13.2001C207.98 13.2001 207.7 13.0401 207.46 12.7401C207.32 12.5401 207.24 12.3001 207.24 12.0601C207.24 11.7601 207.36 11.4601 207.62 11.2401C208.66 10.4801 209.74 9.50008 210.62 8.34008C210.54 7.48008 210.38 6.62008 210.16 5.80008ZM218.28 5.50008C218.28 6.00008 217.88 6.26008 217.22 6.26008C216.56 6.26008 216.18 6.00008 216.18 5.50008V4.32008H214.46C213.96 4.32008 213.7 3.92008 213.7 3.36008C213.7 2.80008 213.96 2.38008 214.46 2.38008H216.18V0.860079C216.18 0.360079 216.58 0.0800781 217.22 0.0800781C217.86 0.0800781 218.28 0.360079 218.28 0.860079V2.38008H221.1V0.820078C221.1 0.340078 221.5 0.0800781 222.14 0.0800781C222.78 0.0800781 223.2 0.340078 223.2 0.820078V2.38008H225.4C225.9 2.38008 226.16 2.78008 226.16 3.36008C226.16 3.94008 225.9 4.32008 225.4 4.32008H223.2V5.50008C223.2 6.00008 222.8 6.26008 222.14 6.26008C221.48 6.26008 221.1 6.00008 221.1 5.50008V4.32008H218.28V5.50008ZM223.62 6.78008C224.9 6.78008 225.54 7.38008 225.54 8.58008V16.4201C225.54 17.5801 224.9 18.2001 223.62 18.2001H215.82C214.56 18.2001 213.92 17.5801 213.92 16.4201V8.58008C213.92 7.38008 214.56 6.78008 215.82 6.78008H223.62ZM218.62 8.68008H216.54C216.16 8.68008 215.98 8.80008 215.98 9.18008V11.3001H218.62V8.68008ZM218.62 13.1601H215.98V15.7401C215.98 16.1201 216.16 16.2401 216.54 16.2401H218.62V13.1601ZM223.44 9.18008C223.44 8.80008 223.28 8.68008 222.9 8.68008H220.64V11.3001H223.44V9.18008ZM222.9 16.2401C223.28 16.2401 223.44 16.1201 223.44 15.7401V13.1601H220.64V16.2401H222.9Z" fill="white"/>
<path d="M235.16 10.1804C236.66 9.18035 238.58 8.50035 240.78 8.50035C244.68 8.50035 246.54 10.3204 246.54 12.8204C246.54 14.4404 245.84 15.7404 244.46 16.6604C243.26 17.4804 241.48 17.9203 239.14 17.9203C237 17.9203 235.22 17.6803 233.96 17.2803C233.48 17.1003 233.18 16.6604 233.18 16.1604C233.18 16.0204 233.2 15.8804 233.24 15.7604C233.42 15.2404 233.8 14.9404 234.32 14.9404C234.46 14.9404 234.6 14.9604 234.76 15.0204C235.84 15.3804 237.48 15.6004 238.98 15.6004C242.16 15.6004 243.98 14.5604 243.98 12.8204C243.98 11.4404 242.86 10.5604 240.4 10.5604C238.32 10.5604 236.04 11.4004 234.44 12.6204C233.86 13.0604 233.38 13.2604 232.96 13.2604C232.76 13.2604 232.56 13.2004 232.36 13.1004C232.04 12.9404 231.74 12.5804 231.74 12.1204C231.74 11.8604 231.82 11.6004 232 11.2804C233.12 9.52035 234.02 7.76035 234.8 5.84035H233.94C233.08 5.84035 232.16 5.82035 231.42 5.78035C230.76 5.72035 230.44 5.26035 230.44 4.60035V4.54035C230.48 3.90035 230.88 3.46035 231.52 3.46035H231.6C232.74 3.52035 234.14 3.56035 235.58 3.56035C235.82 2.84035 236.02 2.06035 236.22 1.26035C236.36 0.600351 236.8 0.360352 237.36 0.360352C237.46 0.360352 237.58 0.36035 237.68 0.38035C238.3 0.46035 238.62 0.840351 238.62 1.34035C238.62 1.46035 238.6 1.58035 238.56 1.70035C238.4 2.34035 238.2 2.98035 238 3.52035C240.18 3.46035 242.58 3.26035 244.44 3.00035C244.54 2.98035 244.62 2.98035 244.72 2.98035C245.28 2.98035 245.7 3.32035 245.78 3.90035C245.8 3.98035 245.8 4.06035 245.8 4.14035C245.8 4.76035 245.42 5.16035 244.78 5.24035C242.72 5.56035 239.88 5.76035 237.22 5.82035C236.6 7.40035 235.86 8.88035 235.08 10.1204L235.16 10.1804Z" fill="white"/>
<path d="M260.9 5V4.9C260.9 4.32 261.34 4.04 261.9 4H262.02C262.6 4 263.02 4.28 263.08 4.9L263.2 6.34C263.36 6.32 263.56 6.32 263.76 6.32C266.32 6.32 268.04 7.92 268.04 10.26C268.04 12.6 266.5 14.26 263.78 14.26C263.02 14.26 262.14 14.12 261.58 13.88C261.14 13.68 260.9 13.32 260.9 12.9C260.9 12.76 260.92 12.6 260.98 12.46C261.14 12.06 261.5 11.78 261.92 11.78C262.04 11.78 262.18 11.8 262.32 11.86C262.68 12 263.24 12.14 263.72 12.14C265.08 12.14 265.78 11.46 265.78 10.24C265.78 9.12 265.04 8.36 263.62 8.36C262.68 8.36 261.74 8.52 260.8 8.78C260.16 8.96 259.48 9.18 258.96 9.4C259.64 11.74 260.46 14.68 261.04 17.28C261.06 17.38 261.06 17.46 261.06 17.54C261.06 18.06 260.7 18.42 260.16 18.52C260.04 18.54 259.94 18.56 259.82 18.56C259.32 18.56 258.92 18.34 258.8 17.8C258.26 15.24 257.58 12.42 256.9 10.14C256.28 10.4 255.5 10.76 254.86 11.04C254.74 11.1 254.6 11.12 254.48 11.12C254.08 11.12 253.7 10.88 253.52 10.5C253.44 10.32 253.4 10.14 253.4 9.96C253.4 9.58 253.62 9.24 254.04 9.04C254.78 8.68 255.56 8.36 256.26 8.1C256.06 7.42 255.78 6.62 255.5 5.9C255.48 5.8 255.46 5.72 255.46 5.62C255.46 5.2 255.8 4.84 256.3 4.72C256.44 4.68 256.6 4.66 256.72 4.66C257.18 4.66 257.56 4.86 257.7 5.3C257.96 6.02 258.18 6.76 258.4 7.38C259.2 7.08 260.28 6.78 261.06 6.6L260.9 5Z" fill="white"/>
<path d="M278.92 9.81996C279.9 8.55996 281.12 7.87996 282.52 7.87996C283.54 7.87996 284.3 8.37996 284.7 9.09996C285.1 9.81996 285.28 10.62 285.32 12.34C285.38 13.92 285.5 14.64 285.74 14.96C285.96 15.26 286.36 15.38 286.78 15.38C287.32 15.38 287.84 15.12 288.22 14.6C288.74 13.9 289.14 12.78 289.4 11.32C289.5 10.64 289.92 10.32 290.48 10.32C290.58 10.32 290.68 10.34 290.8 10.36C291.42 10.48 291.78 10.9 291.78 11.48C291.78 11.56 291.78 11.64 291.76 11.74C291.4 13.92 290.68 15.58 289.7 16.6C288.84 17.52 287.72 17.9 286.5 17.9C285.46 17.9 284.62 17.62 284.06 17.04C283.44 16.44 283.08 15.5 283 13.74C282.94 12.46 282.88 11.74 282.78 11.08C282.7 10.52 282.36 10.14 281.72 10.14C280.56 10.14 279.3 11.08 278.32 12.86C277.7 13.9 276.96 15.58 276.42 17.12C276.2 17.68 275.84 17.98 275.34 17.98C275.18 17.98 275.02 17.96 274.84 17.9C274.32 17.74 274.02 17.32 274.02 16.8C274.02 16.62 274.06 16.42 274.12 16.22C275.76 11.54 277.92 5.71996 279.7 1.23996C279.92 0.719962 280.28 0.459961 280.78 0.459961C280.94 0.459961 281.12 0.479963 281.3 0.539963C281.86 0.699963 282.12 1.09996 282.12 1.53996C282.12 1.71996 282.08 1.91996 282 2.09996C281.14 4.19996 280.3 6.27996 279.52 8.21996C279.3 8.75996 279.06 9.31996 278.84 9.75996L278.92 9.81996Z" fill="white"/>
<path d="M301.4 7.62031C302.58 6.80031 303.56 6.42031 304.68 6.42031C306.18 6.42031 307.18 7.08031 307.5 8.66031C309.04 8.12031 310.6 7.64031 311.9 7.26031C312.08 7.22031 312.22 7.20031 312.38 7.20031C312.88 7.20031 313.24 7.46031 313.38 7.98031C313.42 8.12031 313.44 8.26031 313.44 8.40031C313.44 8.88031 313.16 9.26031 312.58 9.42031C311.2 9.80031 309.46 10.2403 307.76 10.8403C307.78 11.4003 307.8 11.9803 307.8 12.5403C307.8 12.9003 307.8 13.2403 307.78 13.5803C307.78 14.3003 307.32 14.6403 306.64 14.6603C305.94 14.6603 305.6 14.2803 305.6 13.6403V11.5403C303.16 12.4203 302.18 13.4403 302.18 14.4403C302.18 15.4403 303.2 15.9803 305.72 15.9803C307.7 15.9803 309.66 15.7803 311.12 15.5003C311.24 15.4803 311.36 15.4603 311.48 15.4603C312.02 15.4603 312.38 15.7403 312.5 16.3403C312.52 16.4203 312.52 16.5203 312.52 16.6003C312.52 17.2003 312.16 17.6403 311.54 17.7603C310.04 18.0403 308.08 18.2203 305.94 18.2203C301.92 18.2203 299.78 17.0803 299.78 14.6203C299.78 12.5803 301.6 10.7803 305.38 9.42031C305.32 8.52031 304.86 8.24031 304.1 8.24031C302.48 8.24031 300.44 9.50031 298.2 11.7403C297.94 12.0003 297.62 12.1403 297.3 12.1403C297.02 12.1403 296.74 12.0203 296.48 11.8003C296.26 11.5803 296.14 11.2803 296.14 10.9603C296.14 10.6203 296.28 10.2803 296.54 10.0403C298.14 8.56031 299.7 6.78031 300.88 5.02031H299.96C299.18 5.02031 298.26 5.00031 297.5 5.00031C296.86 4.98031 296.52 4.48031 296.52 3.90031V3.80031C296.58 3.20031 297 2.74031 297.6 2.76031C298.32 2.80031 299.28 2.82031 300.34 2.82031H302C302.3 2.26031 302.58 1.68031 302.76 1.10031C302.96 0.560313 303.36 0.320312 303.88 0.320312C303.98 0.320312 304.1 0.340313 304.22 0.360313C304.82 0.460313 305.14 0.820313 305.14 1.24031C305.14 1.36031 305.12 1.48031 305.06 1.60031C304.9 2.00031 304.72 2.36031 304.52 2.76031C306 2.68031 308 2.48031 309.96 2.22031C310.04 2.20031 310.1 2.20031 310.18 2.20031C310.74 2.20031 311.12 2.56031 311.18 3.14031C311.2 3.20031 311.2 3.28031 311.2 3.34031C311.2 3.88031 310.92 4.24031 310.3 4.34031C307.96 4.68031 305.5 4.90031 303.38 4.96031C302.8 5.92031 302.12 6.84031 301.34 7.54031L301.4 7.62031Z" fill="white"/>
<path d="M321.98 12.58C320.48 12.58 319.82 12.04 319.82 10.52V2.62004C319.82 1.08004 320.48 0.540039 321.98 0.540039H331.5C333.02 0.540039 333.66 1.08004 333.66 2.62004V10.52C333.66 12.04 333.02 12.58 331.5 12.58H329.72V15.7C329.72 16.28 329.9 16.38 331.12 16.4H331.6C332.3 16.4 332.72 16.36 333.06 16.3C333.38 16.24 333.5 16.08 333.6 15.84C333.74 15.52 333.86 14.94 333.92 14.36C333.98 13.8 334.34 13.56 334.88 13.56H335.08C335.78 13.62 336.06 13.96 336.06 14.46V14.56C336 15.44 335.76 16.38 335.5 16.98C335.26 17.56 334.86 17.94 334.16 18.12C333.42 18.3 332.5 18.38 331.34 18.38C331.06 18.38 330.78 18.38 330.48 18.36C328.1 18.3 327.54 17.9 327.54 16.52V12.58H325.52C325.42 13.68 325.12 14.76 324.48 15.68C323.2 17.58 321.12 18.34 319 18.78C318.88 18.8 318.78 18.82 318.66 18.82C318.16 18.82 317.76 18.58 317.62 17.98C317.58 17.84 317.56 17.7 317.56 17.58C317.56 17.1 317.82 16.72 318.32 16.64C321.26 16.14 322.98 15 323.3 12.58H321.98ZM331.52 2.94004C331.52 2.52004 331.38 2.42004 330.98 2.42004H322.52C322.1 2.42004 321.98 2.52004 321.98 2.94004V3.96004H331.52V2.94004ZM331.52 5.76004H321.98V7.32004H331.52V5.76004ZM321.98 9.12004V10.24C321.98 10.66 322.1 10.76 322.52 10.76H330.98C331.38 10.76 331.52 10.66 331.52 10.24V9.12004H321.98Z" fill="white"/>
<path d="M347.24 8.28004C348.6 7.74004 349.84 7.48004 351 7.48004C354.7 7.48004 356.86 9.50004 356.86 12.28C356.86 15.76 353.8 18.04 348.74 18.04C345.6 18.04 343.58 16.76 343.58 14.74C343.58 13 345.08 11.78 347.18 11.78C349.52 11.78 351.12 13.14 351.54 15.42C353.22 14.96 354.36 13.9 354.36 12.34C354.36 10.68 352.96 9.36004 350.32 9.36004C347.68 9.36004 345.32 10.28 342.32 12.16C342.1 12.28 341.86 12.36 341.62 12.36C341.24 12.36 340.84 12.18 340.6 11.82C340.46 11.62 340.4 11.38 340.4 11.14C340.4 10.74 340.6 10.32 340.98 10.12C343.98 8.34004 348.02 5.44004 350.5 3.36004C348.56 3.52004 345.84 3.64004 343.72 3.64004C343.06 3.64004 342.64 3.22004 342.64 2.56004C342.64 1.86004 342.98 1.38004 343.64 1.38004H344.24C346.86 1.38004 349.94 1.26004 352.26 1.06004C352.34 1.04004 352.44 1.04004 352.52 1.04004C353.12 1.04004 353.58 1.24004 353.86 1.76004C353.98 1.96004 354.04 2.20004 354.04 2.46004C354.04 2.86004 353.88 3.28004 353.54 3.60004C352.06 4.94004 350.4 6.18004 348.92 7.16004C348.4 7.50004 347.8 7.88004 347.2 8.18004L347.24 8.28004ZM347.08 13.64C346.22 13.64 345.72 14.06 345.72 14.62C345.72 15.48 346.64 16.04 348.6 16.04C348.92 16.04 349.18 16.02 349.42 16C349.26 14.46 348.22 13.64 347.08 13.64Z" fill="white"/>
<path d="M7.64002 16.58L14.76 4.25H0.52002L7.64002 16.58Z" fill="white"/>
<path d="M404.36 16.58L411.48 4.25H397.24L404.36 16.58Z" fill="white"/>
</svg>
